<?xml version="1.0" encoding="UTF-8" standalone="no"?>
<!DOCTYPE svg PUBLIC "-//W3C//DTD SVG 1.1//EN"
 "http://www.w3.org/Graphics/SVG/1.1/DTD/svg11.dtd">
<!-- Generated by graphviz version 14.1.1 (20251213.1925)
 -->
<!-- Title: gocallvis Pages: 1 -->
<svg width="417pt" height="524pt"
 viewBox="0.00 0.00 417.00 524.00" xmlns="http://www.w3.org/2000/svg" xmlns:xlink="http://www.w3.org/1999/xlink">
<g id="graph0" class="graph" transform="scale(1 1) rotate(0) translate(0 524)">
<title>gocallvis</title>
<polygon fill="lightgray" stroke="none" points="0,0 0,-524 417.08,-524 417.08,0 0,0"/>
<g id="clust1" class="cluster">
<title>cluster_focus</title>
<polygon fill="#e6ecfa" stroke="black" stroke-width="0.5" points="8,-8 8,-516 409.08,-516 409.08,-8 8,-8"/>
<text xml:space="preserve" text-anchor="middle" x="208.54" y="-494.9" font-family="Arial" font-size="18.00">events</text>
</g>
<g id="clust2" class="cluster">
<title>cluster_github.com/guild&#45;framework/guild&#45;core/pkg/events</title>
<g id="a_clust2"><a xlink:href="/?f=github.com/guild-framework/guild-core/pkg/events" xlink:title="package: github.com/guild&#45;framework/guild&#45;core/pkg/events">
<polygon fill="lightyellow" stroke="black" stroke-width="0.8" points="258.54,-191 258.54,-271 401.08,-271 401.08,-191 258.54,-191"/>
<text xml:space="preserve" text-anchor="middle" x="329.81" y="-251.8" font-family="Tahoma bold" font-size="16.00">events</text>
</a>
</g>
</g>
<!-- github.com/guild&#45;framework/guild&#45;core/internal/integration/events.NewDataEvent -->
<g id="node1" class="node">
<title>github.com/guild&#45;framework/guild&#45;core/internal/integration/events.NewDataEvent</title>
<g id="a_node1"><a xlink:title="github.com/guild&#45;framework/guild&#45;core/internal/integration/events.NewDataEvent | defined in schemas.go:135&#10;at schemas.go:146: calling [github.com/guild&#45;framework/guild&#45;core/pkg/events.NewBaseEvent]">
<path fill="lightblue" stroke="black" stroke-width="1.5" d="M155.29,-357C155.29,-357 54.25,-357 54.25,-357 48.25,-357 42.25,-351 42.25,-345 42.25,-345 42.25,-333 42.25,-333 42.25,-327 48.25,-321 54.25,-321 54.25,-321 155.29,-321 155.29,-321 161.29,-321 167.29,-327 167.29,-333 167.29,-333 167.29,-345 167.29,-345 167.29,-351 161.29,-357 155.29,-357"/>
<text xml:space="preserve" text-anchor="middle" x="104.77" y="-334.32" font-family="Verdana" font-size="14.00">NewDataEvent</text>
</a>
</g>
</g>
<!-- github.com/guild&#45;framework/guild&#45;core/pkg/events.NewBaseEvent -->
<g id="node10" class="node">
<title>github.com/guild&#45;framework/guild&#45;core/pkg/events.NewBaseEvent</title>
<g id="a_node10"><a xlink:title="github.com/guild&#45;framework/guild&#45;core/pkg/events.NewBaseEvent | defined in core.go:77">
<path fill="moccasin" stroke="black" stroke-width="1.5" d="M381.08,-235C381.08,-235 278.54,-235 278.54,-235 272.54,-235 266.54,-229 266.54,-223 266.54,-223 266.54,-211 266.54,-211 266.54,-205 272.54,-199 278.54,-199 278.54,-199 381.08,-199 381.08,-199 387.08,-199 393.08,-205 393.08,-211 393.08,-211 393.08,-223 393.08,-223 393.08,-229 387.08,-235 381.08,-235"/>
<text xml:space="preserve" text-anchor="middle" x="329.81" y="-212.32" font-family="Verdana" font-size="14.00">NewBaseEvent</text>
</a>
</g>
</g>
<!-- github.com/guild&#45;framework/guild&#45;core/internal/integration/events.NewDataEvent&#45;&gt;github.com/guild&#45;framework/guild&#45;core/pkg/events.NewBaseEvent -->
<g id="edge5" class="edge">
<title>github.com/guild&#45;framework/guild&#45;core/internal/integration/events.NewDataEvent&#45;&gt;github.com/guild&#45;framework/guild&#45;core/pkg/events.NewBaseEvent</title>
<g id="a_edge5"><a xlink:title="at schemas.go:146: calling [github.com/guild&#45;framework/guild&#45;core/pkg/events.NewBaseEvent]">
<path fill="none" stroke="saddlebrown" d="M168.01,-322.05C176.92,-318.41 185.71,-314.09 193.54,-309 226.37,-287.69 223.4,-265.43 256.68,-241.03"/>
<polygon fill="saddlebrown" stroke="saddlebrown" points="258.37,-244.11 264.71,-235.62 254.46,-238.3 258.37,-244.11"/>
</a>
</g>
</g>
<!-- github.com/guild&#45;framework/guild&#45;core/internal/integration/events.NewUIEvent -->
<g id="node2" class="node">
<title>github.com/guild&#45;framework/guild&#45;core/internal/integration/events.NewUIEvent</title>
<g id="a_node2"><a xlink:title="github.com/guild&#45;framework/guild&#45;core/internal/integration/events.NewUIEvent | defined in schemas.go:203&#10;at schemas.go:210: calling [github.com/guild&#45;framework/guild&#45;core/pkg/events.NewBaseEvent]">
<path fill="lightblue" stroke="black" stroke-width="1.5" d="M147.41,-52C147.41,-52 62.12,-52 62.12,-52 56.12,-52 50.12,-46 50.12,-40 50.12,-40 50.12,-28 50.12,-28 50.12,-22 56.12,-16 62.12,-16 62.12,-16 147.41,-16 147.41,-16 153.41,-16 159.41,-22 159.41,-28 159.41,-28 159.41,-40 159.41,-40 159.41,-46 153.41,-52 147.41,-52"/>
<text xml:space="preserve" text-anchor="middle" x="104.77" y="-29.32" font-family="Verdana" font-size="14.00">NewUIEvent</text>
</a>
</g>
</g>
<!-- github.com/guild&#45;framework/guild&#45;core/internal/integration/events.NewUIEvent&#45;&gt;github.com/guild&#45;framework/guild&#45;core/pkg/events.NewBaseEvent -->
<g id="edge6" class="edge">
<title>github.com/guild&#45;framework/guild&#45;core/internal/integration/events.NewUIEvent&#45;&gt;github.com/guild&#45;framework/guild&#45;core/pkg/events.NewBaseEvent</title>
<g id="a_edge6"><a xlink:title="at schemas.go:210: calling [github.com/guild&#45;framework/guild&#45;core/pkg/events.NewBaseEvent]">
<path fill="none" stroke="saddlebrown" d="M159.81,-48.27C171.47,-52.64 183.35,-58.15 193.54,-65 243.71,-98.71 287.25,-155.26 310.6,-189.06"/>
<polygon fill="saddlebrown" stroke="saddlebrown" points="307.55,-190.8 316.07,-197.11 313.35,-186.87 307.55,-190.8"/>
</a>
</g>
</g>
<!-- github.com/guild&#45;framework/guild&#45;core/internal/integration/events.NewTaskEvent -->
<g id="node3" class="node">
<title>github.com/guild&#45;framework/guild&#45;core/internal/integration/events.NewTaskEvent</title>
<g id="a_node3"><a xlink:title="github.com/guild&#45;framework/guild&#45;core/internal/integration/events.NewTaskEvent | defined in schemas.go:155&#10;at schemas.go:162: calling [github.com/guild&#45;framework/guild&#45;core/pkg/events.NewBaseEvent]">
<path fill="lightblue" stroke="black" stroke-width="1.5" d="M154.54,-113C154.54,-113 55,-113 55,-113 49,-113 43,-107 43,-101 43,-101 43,-89 43,-89 43,-83 49,-77 55,-77 55,-77 154.54,-77 154.54,-77 160.54,-77 166.54,-83 166.54,-89 166.54,-89 166.54,-101 166.54,-101 166.54,-107 160.54,-113 154.54,-113"/>
<text xml:space="preserve" text-anchor="middle" x="104.77" y="-90.33" font-family="Verdana" font-size="14.00">NewTaskEvent</text>
</a>
</g>
</g>
<!-- github.com/guild&#45;framework/guild&#45;core/internal/integration/events.NewTaskEvent&#45;&gt;github.com/guild&#45;framework/guild&#45;core/pkg/events.NewBaseEvent -->
<g id="edge7" class="edge">
<title>github.com/guild&#45;framework/guild&#45;core/internal/integration/events.NewTaskEvent&#45;&gt;github.com/guild&#45;framework/guild&#45;core/pkg/events.NewBaseEvent</title>
<g id="a_edge7"><a xlink:title="at schemas.go:162: calling [github.com/guild&#45;framework/guild&#45;core/pkg/events.NewBaseEvent]">
<path fill="none" stroke="saddlebrown" d="M165.17,-113.67C174.82,-117.36 184.59,-121.5 193.54,-126 230.48,-144.57 269.3,-171.57 295.83,-191.34"/>
<polygon fill="saddlebrown" stroke="saddlebrown" points="293.72,-194.13 303.82,-197.36 297.94,-188.54 293.72,-194.13"/>
</a>
</g>
</g>
<!-- github.com/guild&#45;framework/guild&#45;core/internal/integration/events.NewServiceEvent -->
<g id="node4" class="node">
<title>github.com/guild&#45;framework/guild&#45;core/internal/integration/events.NewServiceEvent</title>
<g id="a_node4"><a xlink:title="github.com/guild&#45;framework/guild&#45;core/internal/integration/events.NewServiceEvent | defined in schemas.go:119&#10;at schemas.go:126: calling [github.com/guild&#45;framework/guild&#45;core/pkg/events.NewBaseEvent]">
<path fill="lightblue" stroke="black" stroke-width="1.5" d="M165.04,-174C165.04,-174 44.5,-174 44.5,-174 38.5,-174 32.5,-168 32.5,-162 32.5,-162 32.5,-150 32.5,-150 32.5,-144 38.5,-138 44.5,-138 44.5,-138 165.04,-138 165.04,-138 171.04,-138 177.04,-144 177.04,-150 177.04,-150 177.04,-162 177.04,-162 177.04,-168 171.04,-174 165.04,-174"/>
<text xml:space="preserve" text-anchor="middle" x="104.77" y="-151.32" font-family="Verdana" font-size="14.00">NewServiceEvent</text>
</a>
</g>
</g>
<!-- github.com/guild&#45;framework/guild&#45;core/internal/integration/events.NewServiceEvent&#45;&gt;github.com/guild&#45;framework/guild&#45;core/pkg/events.NewBaseEvent -->
<g id="edge8" class="edge">
<title>github.com/guild&#45;framework/guild&#45;core/internal/integration/events.NewServiceEvent&#45;&gt;github.com/guild&#45;framework/guild&#45;core/pkg/events.NewBaseEvent</title>
<g id="a_edge8"><a xlink:title="at schemas.go:126: calling [github.com/guild&#45;framework/guild&#45;core/pkg/events.NewBaseEvent]">
<path fill="none" stroke="saddlebrown" d="M174.21,-174.72C199.75,-181.7 228.86,-189.67 254.88,-196.78"/>
<polygon fill="saddlebrown" stroke="saddlebrown" points="253.8,-200.11 264.36,-199.37 255.64,-193.36 253.8,-200.11"/>
</a>
</g>
</g>
<!-- github.com/guild&#45;framework/guild&#45;core/internal/integration/events.NewSystemEvent -->
<g id="node5" class="node">
<title>github.com/guild&#45;framework/guild&#45;core/internal/integration/events.NewSystemEvent</title>
<g id="a_node5"><a xlink:title="github.com/guild&#45;framework/guild&#45;core/internal/integration/events.NewSystemEvent | defined in schemas.go:219&#10;at schemas.go:227: calling [github.com/guild&#45;framework/guild&#45;core/pkg/events.NewBaseEvent]">
<path fill="lightblue" stroke="black" stroke-width="1.5" d="M165.41,-235C165.41,-235 44.12,-235 44.12,-235 38.12,-235 32.12,-229 32.12,-223 32.12,-223 32.12,-211 32.12,-211 32.12,-205 38.12,-199 44.12,-199 44.12,-199 165.41,-199 165.41,-199 171.41,-199 177.41,-205 177.41,-211 177.41,-211 177.41,-223 177.41,-223 177.41,-229 171.41,-235 165.41,-235"/>
<text xml:space="preserve" text-anchor="middle" x="104.77" y="-212.32" font-family="Verdana" font-size="14.00">NewSystemEvent</text>
</a>
</g>
</g>
<!-- github.com/guild&#45;framework/guild&#45;core/internal/integration/events.NewSystemEvent&#45;&gt;github.com/guild&#45;framework/guild&#45;core/pkg/events.NewBaseEvent -->
<g id="edge1" class="edge">
<title>github.com/guild&#45;framework/guild&#45;core/internal/integration/events.NewSystemEvent&#45;&gt;github.com/guild&#45;framework/guild&#45;core/pkg/events.NewBaseEvent</title>
<g id="a_edge1"><a xlink:title="at schemas.go:227: calling [github.com/guild&#45;framework/guild&#45;core/pkg/events.NewBaseEvent]">
<path fill="none" stroke="saddlebrown" d="M177.88,-217C202.38,-217 229.79,-217 254.47,-217"/>
<polygon fill="saddlebrown" stroke="saddlebrown" points="254.45,-220.5 264.45,-217 254.45,-213.5 254.45,-220.5"/>
</a>
</g>
</g>
<!-- github.com/guild&#45;framework/guild&#45;core/internal/integration/events.NewCommissionEvent -->
<g id="node6" class="node">
<title>github.com/guild&#45;framework/guild&#45;core/internal/integration/events.NewCommissionEvent</title>
<g id="a_node6"><a xlink:title="github.com/guild&#45;framework/guild&#45;core/internal/integration/events.NewCommissionEvent | defined in schemas.go:187&#10;at schemas.go:194: calling [github.com/guild&#45;framework/guild&#45;core/pkg/events.NewBaseEvent]">
<path fill="lightblue" stroke="black" stroke-width="1.5" d="M181.54,-296C181.54,-296 28,-296 28,-296 22,-296 16,-290 16,-284 16,-284 16,-272 16,-272 16,-266 22,-260 28,-260 28,-260 181.54,-260 181.54,-260 187.54,-260 193.54,-266 193.54,-272 193.54,-272 193.54,-284 193.54,-284 193.54,-290 187.54,-296 181.54,-296"/>
<text xml:space="preserve" text-anchor="middle" x="104.77" y="-273.32" font-family="Verdana" font-size="14.00">NewCommissionEvent</text>
</a>
</g>
</g>
<!-- github.com/guild&#45;framework/guild&#45;core/internal/integration/events.NewCommissionEvent&#45;&gt;github.com/guild&#45;framework/guild&#45;core/pkg/events.NewBaseEvent -->
<g id="edge2" class="edge">
<title>github.com/guild&#45;framework/guild&#45;core/internal/integration/events.NewCommissionEvent&#45;&gt;github.com/guild&#45;framework/guild&#45;core/pkg/events.NewBaseEvent</title>
<g id="a_edge2"><a xlink:title="at schemas.go:194: calling [github.com/guild&#45;framework/guild&#45;core/pkg/events.NewBaseEvent]">
<path fill="none" stroke="saddlebrown" d="M174.21,-259.28C199.75,-252.3 228.86,-244.33 254.88,-237.22"/>
<polygon fill="saddlebrown" stroke="saddlebrown" points="255.64,-240.64 264.36,-234.63 253.8,-233.89 255.64,-240.64"/>
</a>
</g>
</g>
<!-- github.com/guild&#45;framework/guild&#45;core/internal/integration/events.GetEventCategory -->
<g id="node7" class="node">
<title>github.com/guild&#45;framework/guild&#45;core/internal/integration/events.GetEventCategory</title>
<g id="a_node7"><a xlink:title="github.com/guild&#45;framework/guild&#45;core/internal/integration/events.GetEventCategory | defined in schemas.go:340&#10;at schemas.go:342: calling [github.com/guild&#45;framework/guild&#45;core/internal/integration/events.hasPrefix]&#10;at schemas.go:344: calling [github.com/guild&#45;framework/guild&#45;core/internal/integration/events.hasPrefix]&#10;at schemas.go:346: calling [github.com/guild&#45;framework/guild&#45;core/internal/integration/events.hasPrefix]&#10;at schemas.go:348: calling [github.com/guild&#45;framework/guild&#45;core/internal/integration/events.hasPrefix]&#10;at schemas.go:350: calling [github.com/guild&#45;framework/guild&#45;core/internal/integration/events.hasPrefix]&#10;at schemas.go:352: calling [github.com/guild&#45;framework/guild&#45;core/internal/integration/events.hasPrefix]&#10;at schemas.go:354: calling [github.com/guild&#45;framework/guild&#45;core/internal/integration/events.hasPrefix]&#10;at schemas.go:356: calling [github.com/guild&#45;framework/guild&#45;core/internal/integration/events.hasPrefix]&#10;at schemas.go:358: calling [github.com/guild&#45;framework/guild&#45;core/internal/integration/events.hasPrefix]">
<path fill="lightblue" stroke="black" stroke-width="1.5" d="M167.66,-479C167.66,-479 41.88,-479 41.88,-479 35.88,-479 29.87,-473 29.87,-467 29.87,-467 29.87,-455 29.87,-455 29.87,-449 35.87,-443 41.87,-443 41.87,-443 167.66,-443 167.66,-443 173.66,-443 179.66,-449 179.66,-455 179.66,-455 179.66,-467 179.66,-467 179.66,-473 173.66,-479 167.66,-479"/>
<text xml:space="preserve" text-anchor="middle" x="104.77" y="-456.32" font-family="Verdana" font-size="14.00">GetEventCategory</text>
</a>
</g>
</g>
<!-- github.com/guild&#45;framework/guild&#45;core/internal/integration/events.hasPrefix -->
<g id="node8" class="node">
<title>github.com/guild&#45;framework/guild&#45;core/internal/integration/events.hasPrefix</title>
<g id="a_node8"><a xlink:title="github.com/guild&#45;framework/guild&#45;core/internal/integration/events.hasPrefix | defined in schemas.go:365">
<path fill="lightblue" stroke="black" stroke-width="0.5" d="M361.58,-479C361.58,-479 298.04,-479 298.04,-479 292.04,-479 286.04,-473 286.04,-467 286.04,-467 286.04,-455 286.04,-455 286.04,-449 292.04,-443 298.04,-443 298.04,-443 361.58,-443 361.58,-443 367.58,-443 373.58,-449 373.58,-455 373.58,-455 373.58,-467 373.58,-467 373.58,-473 367.58,-479 361.58,-479"/>
<text xml:space="preserve" text-anchor="middle" x="329.81" y="-456.32" font-family="Verdana" font-size="14.00">hasPrefix</text>
</a>
</g>
</g>
<!-- github.com/guild&#45;framework/guild&#45;core/internal/integration/events.GetEventCategory&#45;&gt;github.com/guild&#45;framework/guild&#45;core/internal/integration/events.hasPrefix -->
<g id="edge3" class="edge">
<title>github.com/guild&#45;framework/guild&#45;core/internal/integration/events.GetEventCategory&#45;&gt;github.com/guild&#45;framework/guild&#45;core/internal/integration/events.hasPrefix</title>
<g id="a_edge3"><a xlink:title="at schemas.go:342: calling [github.com/guild&#45;framework/guild&#45;core/internal/integration/events.hasPrefix]&#10;at schemas.go:344: calling [github.com/guild&#45;framework/guild&#45;core/internal/integration/events.hasPrefix]&#10;at schemas.go:346: calling [github.com/guild&#45;framework/guild&#45;core/internal/integration/events.hasPrefix]&#10;at schemas.go:348: calling [github.com/guild&#45;framework/guild&#45;core/internal/integration/events.hasPrefix]&#10;at schemas.go:350: calling [github.com/guild&#45;framework/guild&#45;core/internal/integration/events.hasPrefix]&#10;at schemas.go:352: calling [github.com/guild&#45;framework/guild&#45;core/internal/integration/events.hasPrefix]&#10;at schemas.go:354: calling [github.com/guild&#45;framework/guild&#45;core/internal/integration/events.hasPrefix]&#10;at schemas.go:356: calling [github.com/guild&#45;framework/guild&#45;core/internal/integration/events.hasPrefix]&#10;at schemas.go:358: calling [github.com/guild&#45;framework/guild&#45;core/internal/integration/events.hasPrefix]">
<path fill="none" stroke="black" d="M180.35,-461C211.18,-461 246.26,-461 274.57,-461"/>
<polygon fill="black" stroke="black" points="274.35,-464.5 284.35,-461 274.35,-457.5 274.35,-464.5"/>
</a>
</g>
</g>
<!-- github.com/guild&#45;framework/guild&#45;core/internal/integration/events.NewAgentEvent -->
<g id="node9" class="node">
<title>github.com/guild&#45;framework/guild&#45;core/internal/integration/events.NewAgentEvent</title>
<g id="a_node9"><a xlink:title="github.com/guild&#45;framework/guild&#45;core/internal/integration/events.NewAgentEvent | defined in schemas.go:171&#10;at schemas.go:178: calling [github.com/guild&#45;framework/guild&#45;core/pkg/events.NewBaseEvent]">
<path fill="lightblue" stroke="black" stroke-width="1.5" d="M159.79,-418C159.79,-418 49.75,-418 49.75,-418 43.75,-418 37.75,-412 37.75,-406 37.75,-406 37.75,-394 37.75,-394 37.75,-388 43.75,-382 49.75,-382 49.75,-382 159.79,-382 159.79,-382 165.79,-382 171.79,-388 171.79,-394 171.79,-394 171.79,-406 171.79,-406 171.79,-412 165.79,-418 159.79,-418"/>
<text xml:space="preserve" text-anchor="middle" x="104.77" y="-395.32" font-family="Verdana" font-size="14.00">NewAgentEvent</text>
</a>
</g>
</g>
<!-- github.com/guild&#45;framework/guild&#45;core/internal/integration/events.NewAgentEvent&#45;&gt;github.com/guild&#45;framework/guild&#45;core/pkg/events.NewBaseEvent -->
<g id="edge4" class="edge">
<title>github.com/guild&#45;framework/guild&#45;core/internal/integration/events.NewAgentEvent&#45;&gt;github.com/guild&#45;framework/guild&#45;core/pkg/events.NewBaseEvent</title>
<g id="a_edge4"><a xlink:title="at schemas.go:178: calling [github.com/guild&#45;framework/guild&#45;core/pkg/events.NewBaseEvent]">
<path fill="none" stroke="saddlebrown" d="M172.15,-383.73C179.88,-380.04 187.24,-375.52 193.54,-370 239.84,-329.41 212.4,-286.05 257.75,-241.07"/>
<polygon fill="saddlebrown" stroke="saddlebrown" points="259.86,-243.88 264.91,-234.57 255.15,-238.7 259.86,-243.88"/>
</a>
</g>
</g>
</g>
</svg>
