<?xml version="1.0" encoding="UTF-8" standalone="no"?>
<!DOCTYPE svg PUBLIC "-//W3C//DTD SVG 1.1//EN"
 "http://www.w3.org/Graphics/SVG/1.1/DTD/svg11.dtd">
<!-- Generated by graphviz version 14.1.1 (20251213.1925)
 -->
<!-- Title: gocallvis Pages: 1 -->
<svg width="497pt" height="463pt"
 viewBox="0.00 0.00 497.00 463.00" xmlns="http://www.w3.org/2000/svg" xmlns:xlink="http://www.w3.org/1999/xlink">
<g id="graph0" class="graph" transform="scale(1 1) rotate(0) translate(0 463)">
<title>gocallvis</title>
<polygon fill="lightgray" stroke="none" points="0,0 0,-463 496.83,-463 496.83,0 0,0"/>
<g id="clust1" class="cluster">
<title>cluster_focus</title>
<polygon fill="#e6ecfa" stroke="black" stroke-width="0.5" points="8,-8 8,-455 488.83,-455 488.83,-8 8,-8"/>
<text xml:space="preserve" text-anchor="middle" x="248.41" y="-433.9" font-family="Arial" font-size="18.00">teatest</text>
</g>
<!-- github.com/guild&#45;framework/guild&#45;core/internal/teatest.NewTestModel -->
<g id="node1" class="node">
<title>github.com/guild&#45;framework/guild&#45;core/internal/teatest.NewTestModel</title>
<g id="a_node1"><a xlink:title="github.com/guild&#45;framework/guild&#45;core/internal/teatest.NewTestModel | defined in teatest.go:122&#10;at teatest.go:139: calling [github.com/guild&#45;framework/guild&#45;core/internal/teatest.NewTestModel$1]&#10;at teatest.go:125: calling [github.com/guild&#45;framework/guild&#45;core/internal/teatest.safe]&#10;at teatest.go:147: calling [github.com/guild&#45;framework/guild&#45;core/internal/teatest.NewTestModel$2]">
<path fill="lightblue" stroke="black" stroke-width="1.5" d="M169.54,-113C169.54,-113 70.75,-113 70.75,-113 64.75,-113 58.75,-107 58.75,-101 58.75,-101 58.75,-89 58.75,-89 58.75,-83 64.75,-77 70.75,-77 70.75,-77 169.54,-77 169.54,-77 175.54,-77 181.54,-83 181.54,-89 181.54,-89 181.54,-101 181.54,-101 181.54,-107 175.54,-113 169.54,-113"/>
<text xml:space="preserve" text-anchor="middle" x="120.14" y="-90.33" font-family="Verdana" font-size="14.00">NewTestModel</text>
</a>
</g>
</g>
<!-- github.com/guild&#45;framework/guild&#45;core/internal/teatest.safe -->
<g id="node2" class="node">
<title>github.com/guild&#45;framework/guild&#45;core/internal/teatest.safe</title>
<g id="a_node2"><a xlink:title="github.com/guild&#45;framework/guild&#45;core/internal/teatest.safe | defined in teatest.go:279">
<path fill="lightblue" stroke="black" stroke-width="0.5" d="M404.06,-52C404.06,-52 374.06,-52 374.06,-52 368.06,-52 362.06,-46 362.06,-40 362.06,-40 362.06,-28 362.06,-28 362.06,-22 368.06,-16 374.06,-16 374.06,-16 404.06,-16 404.06,-16 410.06,-16 416.06,-22 416.06,-28 416.06,-28 416.06,-40 416.06,-40 416.06,-46 410.06,-52 404.06,-52"/>
<text xml:space="preserve" text-anchor="middle" x="389.06" y="-29.32" font-family="Verdana" font-size="14.00">safe</text>
</a>
</g>
</g>
<!-- github.com/guild&#45;framework/guild&#45;core/internal/teatest.NewTestModel&#45;&gt;github.com/guild&#45;framework/guild&#45;core/internal/teatest.safe -->
<g id="edge6" class="edge">
<title>github.com/guild&#45;framework/guild&#45;core/internal/teatest.NewTestModel&#45;&gt;github.com/guild&#45;framework/guild&#45;core/internal/teatest.safe</title>
<g id="a_edge6"><a xlink:title="at teatest.go:125: calling [github.com/guild&#45;framework/guild&#45;core/internal/teatest.safe]">
<path fill="none" stroke="black" d="M182.05,-81.08C234.16,-69.17 307.49,-52.41 351.15,-42.43"/>
<polygon fill="black" stroke="black" points="351.67,-45.91 360.64,-40.27 350.11,-39.08 351.67,-45.91"/>
</a>
</g>
</g>
<!-- github.com/guild&#45;framework/guild&#45;core/internal/teatest.NewTestModel$1 -->
<g id="node3" class="node">
<title>github.com/guild&#45;framework/guild&#45;core/internal/teatest.NewTestModel$1</title>
<g id="a_node3"><a xlink:title="github.com/guild&#45;framework/guild&#45;core/internal/teatest.NewTestModel$1 | defined in teatest.go:139">
<polygon fill="lightblue" stroke="black" stroke-dasharray="1,5" points="459.45,-113 318.66,-113 318.66,-77 459.45,-77 459.45,-113"/>
<text xml:space="preserve" text-anchor="middle" x="389.06" y="-90.33" font-family="Verdana" font-size="14.00">NewTestModel$1</text>
</a>
</g>
</g>
<!-- github.com/guild&#45;framework/guild&#45;core/internal/teatest.NewTestModel&#45;&gt;github.com/guild&#45;framework/guild&#45;core/internal/teatest.NewTestModel$1 -->
<g id="edge1" class="edge">
<title>github.com/guild&#45;framework/guild&#45;core/internal/teatest.NewTestModel&#45;&gt;github.com/guild&#45;framework/guild&#45;core/internal/teatest.NewTestModel$1</title>
<g id="a_edge1"><a xlink:title="at teatest.go:139: calling [github.com/guild&#45;framework/guild&#45;core/internal/teatest.NewTestModel$1]">
<path fill="none" stroke="black" d="M182.05,-95C214.89,-95 256.16,-95 293.12,-95"/>
<polygon fill="black" stroke="black" points="306.96,-98.5 316.96,-95 306.96,-91.5 306.96,-98.5"/>
<polyline fill="none" stroke="black" points="306.46,-95 301.46,-95"/>
<ellipse fill="none" stroke="black" cx="296.96" cy="-95" rx="4" ry="4"/>
</a>
</g>
</g>
<!-- github.com/guild&#45;framework/guild&#45;core/internal/teatest.NewTestModel$2 -->
<g id="node4" class="node">
<title>github.com/guild&#45;framework/guild&#45;core/internal/teatest.NewTestModel$2</title>
<g id="a_node4"><a xlink:title="github.com/guild&#45;framework/guild&#45;core/internal/teatest.NewTestModel$2 | defined in teatest.go:147">
<polygon fill="lightblue" stroke="black" stroke-dasharray="1,5" points="459.45,-174 318.66,-174 318.66,-138 459.45,-138 459.45,-174"/>
<text xml:space="preserve" text-anchor="middle" x="389.06" y="-151.32" font-family="Verdana" font-size="14.00">NewTestModel$2</text>
</a>
</g>
</g>
<!-- github.com/guild&#45;framework/guild&#45;core/internal/teatest.NewTestModel&#45;&gt;github.com/guild&#45;framework/guild&#45;core/internal/teatest.NewTestModel$2 -->
<g id="edge7" class="edge">
<title>github.com/guild&#45;framework/guild&#45;core/internal/teatest.NewTestModel&#45;&gt;github.com/guild&#45;framework/guild&#45;core/internal/teatest.NewTestModel$2</title>
<g id="a_edge7"><a xlink:title="at teatest.go:147: calling [github.com/guild&#45;framework/guild&#45;core/internal/teatest.NewTestModel$2]">
<path fill="none" stroke="black" d="M182.05,-108.92C215.05,-116.46 256.56,-125.95 293.65,-134.42"/>
<polygon fill="black" stroke="black" points="306.47,-140.94 316.99,-139.76 308.03,-134.12 306.47,-140.94"/>
<polyline fill="none" stroke="black" points="306.76,-137.42 301.88,-136.31"/>
<ellipse fill="none" stroke="black" cx="297.5" cy="-135.3" rx="4" ry="4"/>
</a>
</g>
</g>
<!-- (*github.com/guild&#45;framework/guild&#45;core/internal/teatest.TestModel).FinalOutput -->
<g id="node5" class="node">
<title>(*github.com/guild&#45;framework/guild&#45;core/internal/teatest.TestModel).FinalOutput</title>
<g id="a_node5"><a xlink:title="(*github.com/guild&#45;framework/guild&#45;core/internal/teatest.TestModel).FinalOutput | defined in teatest.go:232&#10;at teatest.go:234: calling [(*github.com/guild&#45;framework/guild&#45;core/internal/teatest.TestModel).Output]&#10;at teatest.go:233: calling [(*github.com/guild&#45;framework/guild&#45;core/internal/teatest.TestModel).waitDone]">
<path fill="lightblue" stroke="black" stroke-width="1.5" d="M208.54,-235C208.54,-235 31.75,-235 31.75,-235 25.75,-235 19.75,-229 19.75,-223 19.75,-223 19.75,-211 19.75,-211 19.75,-205 25.75,-199 31.75,-199 31.75,-199 208.54,-199 208.54,-199 214.54,-199 220.54,-205 220.54,-211 220.54,-211 220.54,-223 220.54,-223 220.54,-229 214.54,-235 208.54,-235"/>
<text xml:space="preserve" text-anchor="middle" x="120.14" y="-212.32" font-family="Verdana" font-size="14.00">(*TestModel).FinalOutput</text>
</a>
</g>
</g>
<!-- (*github.com/guild&#45;framework/guild&#45;core/internal/teatest.TestModel).waitDone -->
<g id="node6" class="node">
<title>(*github.com/guild&#45;framework/guild&#45;core/internal/teatest.TestModel).waitDone</title>
<g id="a_node6"><a xlink:title="(*github.com/guild&#45;framework/guild&#45;core/internal/teatest.TestModel).waitDone | defined in teatest.go:165">
<path fill="lightblue" stroke="black" stroke-width="0.5" d="M468.83,-357C468.83,-357 309.29,-357 309.29,-357 303.29,-357 297.29,-351 297.29,-345 297.29,-345 297.29,-333 297.29,-333 297.29,-327 303.29,-321 309.29,-321 309.29,-321 468.83,-321 468.83,-321 474.83,-321 480.83,-327 480.83,-333 480.83,-333 480.83,-345 480.83,-345 480.83,-351 474.83,-357 468.83,-357"/>
<text xml:space="preserve" text-anchor="middle" x="389.06" y="-334.32" font-family="Verdana" font-size="14.00">(*TestModel).waitDone</text>
</a>
</g>
</g>
<!-- (*github.com/guild&#45;framework/guild&#45;core/internal/teatest.TestModel).FinalOutput&#45;&gt;(*github.com/guild&#45;framework/guild&#45;core/internal/teatest.TestModel).waitDone -->
<g id="edge8" class="edge">
<title>(*github.com/guild&#45;framework/guild&#45;core/internal/teatest.TestModel).FinalOutput&#45;&gt;(*github.com/guild&#45;framework/guild&#45;core/internal/teatest.TestModel).waitDone</title>
<g id="a_edge8"><a xlink:title="at teatest.go:233: calling [(*github.com/guild&#45;framework/guild&#45;core/internal/teatest.TestModel).waitDone]">
<path fill="none" stroke="black" d="M196.4,-235.7C206.03,-239.22 215.56,-243.3 224.29,-248 261.52,-268.05 260.34,-288.45 297.29,-309 302.15,-311.7 307.3,-314.21 312.56,-316.54"/>
<polygon fill="black" stroke="black" points="310.83,-319.61 321.41,-320.19 313.51,-313.14 310.83,-319.61"/>
</a>
</g>
</g>
<!-- (*github.com/guild&#45;framework/guild&#45;core/internal/teatest.TestModel).Output -->
<g id="node7" class="node">
<title>(*github.com/guild&#45;framework/guild&#45;core/internal/teatest.TestModel).Output</title>
<g id="a_node7"><a xlink:title="(*github.com/guild&#45;framework/guild&#45;core/internal/teatest.TestModel).Output | defined in teatest.go:238">
<path fill="lightblue" stroke="black" stroke-width="1.5" d="M460.95,-296C460.95,-296 317.16,-296 317.16,-296 311.16,-296 305.16,-290 305.16,-284 305.16,-284 305.16,-272 305.16,-272 305.16,-266 311.16,-260 317.16,-260 317.16,-260 460.95,-260 460.95,-260 466.95,-260 472.95,-266 472.95,-272 472.95,-272 472.95,-284 472.95,-284 472.95,-290 466.95,-296 460.95,-296"/>
<text xml:space="preserve" text-anchor="middle" x="389.06" y="-273.32" font-family="Verdana" font-size="14.00">(*TestModel).Output</text>
</a>
</g>
</g>
<!-- (*github.com/guild&#45;framework/guild&#45;core/internal/teatest.TestModel).FinalOutput&#45;&gt;(*github.com/guild&#45;framework/guild&#45;core/internal/teatest.TestModel).Output -->
<g id="edge2" class="edge">
<title>(*github.com/guild&#45;framework/guild&#45;core/internal/teatest.TestModel).FinalOutput&#45;&gt;(*github.com/guild&#45;framework/guild&#45;core/internal/teatest.TestModel).Output</title>
<g id="a_edge2"><a xlink:title="at teatest.go:234: calling [(*github.com/guild&#45;framework/guild&#45;core/internal/teatest.TestModel).Output]">
<path fill="none" stroke="black" d="M203.04,-235.72C232.25,-242.39 265.35,-249.96 295.4,-256.82"/>
<polygon fill="black" stroke="black" points="294.31,-260.17 304.84,-258.98 295.87,-253.34 294.31,-260.17"/>
</a>
</g>
</g>
<!-- (*github.com/guild&#45;framework/guild&#45;core/internal/teatest.TestModel).Type -->
<g id="node8" class="node">
<title>(*github.com/guild&#45;framework/guild&#45;core/internal/teatest.TestModel).Type</title>
<g id="a_node8"><a xlink:title="(*github.com/guild&#45;framework/guild&#45;core/internal/teatest.TestModel).Type | defined in teatest.go:254&#10;at teatest.go:256: calling [(*github.com/guild&#45;framework/guild&#45;core/internal/teatest.TestModel).Send]">
<path fill="lightblue" stroke="black" stroke-width="1.5" d="M184.16,-174C184.16,-174 56.12,-174 56.12,-174 50.13,-174 44.12,-168 44.12,-162 44.12,-162 44.12,-150 44.12,-150 44.12,-144 50.12,-138 56.12,-138 56.12,-138 184.16,-138 184.16,-138 190.16,-138 196.16,-144 196.16,-150 196.16,-150 196.16,-162 196.16,-162 196.16,-168 190.16,-174 184.16,-174"/>
<text xml:space="preserve" text-anchor="middle" x="120.14" y="-151.32" font-family="Verdana" font-size="14.00">(*TestModel).Type</text>
</a>
</g>
</g>
<!-- (*github.com/guild&#45;framework/guild&#45;core/internal/teatest.TestModel).Send -->
<g id="node9" class="node">
<title>(*github.com/guild&#45;framework/guild&#45;core/internal/teatest.TestModel).Send</title>
<g id="a_node9"><a xlink:title="(*github.com/guild&#45;framework/guild&#45;core/internal/teatest.TestModel).Send | defined in teatest.go:243">
<path fill="lightblue" stroke="black" stroke-width="1.5" d="M454.58,-235C454.58,-235 323.54,-235 323.54,-235 317.54,-235 311.54,-229 311.54,-223 311.54,-223 311.54,-211 311.54,-211 311.54,-205 317.54,-199 323.54,-199 323.54,-199 454.58,-199 454.58,-199 460.58,-199 466.58,-205 466.58,-211 466.58,-211 466.58,-223 466.58,-223 466.58,-229 460.58,-235 454.58,-235"/>
<text xml:space="preserve" text-anchor="middle" x="389.06" y="-212.32" font-family="Verdana" font-size="14.00">(*TestModel).Send</text>
</a>
</g>
</g>
<!-- (*github.com/guild&#45;framework/guild&#45;core/internal/teatest.TestModel).Type&#45;&gt;(*github.com/guild&#45;framework/guild&#45;core/internal/teatest.TestModel).Send -->
<g id="edge3" class="edge">
<title>(*github.com/guild&#45;framework/guild&#45;core/internal/teatest.TestModel).Type&#45;&gt;(*github.com/guild&#45;framework/guild&#45;core/internal/teatest.TestModel).Send</title>
<g id="a_edge3"><a xlink:title="at teatest.go:256: calling [(*github.com/guild&#45;framework/guild&#45;core/internal/teatest.TestModel).Send]">
<path fill="none" stroke="black" d="M196.56,-173.24C228.69,-180.58 266.4,-189.2 299.82,-196.83"/>
<polygon fill="black" stroke="black" points="298.97,-200.23 309.5,-199.05 300.53,-193.41 298.97,-200.23"/>
</a>
</g>
</g>
<!-- (*github.com/guild&#45;framework/guild&#45;core/internal/teatest.TestModel).FinalModel -->
<g id="node10" class="node">
<title>(*github.com/guild&#45;framework/guild&#45;core/internal/teatest.TestModel).FinalModel</title>
<g id="a_node10"><a xlink:title="(*github.com/guild&#45;framework/guild&#45;core/internal/teatest.TestModel).FinalModel | defined in teatest.go:217&#10;at teatest.go:218: calling [(*github.com/guild&#45;framework/guild&#45;core/internal/teatest.TestModel).waitDone]">
<path fill="lightblue" stroke="black" stroke-width="1.5" d="M204.79,-357C204.79,-357 35.5,-357 35.5,-357 29.5,-357 23.5,-351 23.5,-345 23.5,-345 23.5,-333 23.5,-333 23.5,-327 29.5,-321 35.5,-321 35.5,-321 204.79,-321 204.79,-321 210.79,-321 216.79,-327 216.79,-333 216.79,-333 216.79,-345 216.79,-345 216.79,-351 210.79,-357 204.79,-357"/>
<text xml:space="preserve" text-anchor="middle" x="120.14" y="-334.32" font-family="Verdana" font-size="14.00">(*TestModel).FinalModel</text>
</a>
</g>
</g>
<!-- (*github.com/guild&#45;framework/guild&#45;core/internal/teatest.TestModel).FinalModel&#45;&gt;(*github.com/guild&#45;framework/guild&#45;core/internal/teatest.TestModel).waitDone -->
<g id="edge4" class="edge">
<title>(*github.com/guild&#45;framework/guild&#45;core/internal/teatest.TestModel).FinalModel&#45;&gt;(*github.com/guild&#45;framework/guild&#45;core/internal/teatest.TestModel).waitDone</title>
<g id="a_edge4"><a xlink:title="at teatest.go:218: calling [(*github.com/guild&#45;framework/guild&#45;core/internal/teatest.TestModel).waitDone]">
<path fill="none" stroke="black" d="M217.51,-339C239.73,-339 263.45,-339 285.92,-339"/>
<polygon fill="black" stroke="black" points="285.67,-342.5 295.67,-339 285.67,-335.5 285.67,-342.5"/>
</a>
</g>
</g>
<!-- github.com/guild&#45;framework/guild&#45;core/internal/teatest.WaitFor -->
<g id="node11" class="node">
<title>github.com/guild&#45;framework/guild&#45;core/internal/teatest.WaitFor</title>
<g id="a_node11"><a xlink:title="github.com/guild&#45;framework/guild&#45;core/internal/teatest.WaitFor | defined in teatest.go:71&#10;at teatest.go:78: calling [github.com/guild&#45;framework/guild&#45;core/internal/teatest.doWaitFor]">
<path fill="lightblue" stroke="black" stroke-width="1.5" d="M146.29,-418C146.29,-418 94,-418 94,-418 88,-418 82,-412 82,-406 82,-406 82,-394 82,-394 82,-388 88,-382 94,-382 94,-382 146.29,-382 146.29,-382 152.29,-382 158.29,-388 158.29,-394 158.29,-394 158.29,-406 158.29,-406 158.29,-412 152.29,-418 146.29,-418"/>
<text xml:space="preserve" text-anchor="middle" x="120.14" y="-395.32" font-family="Verdana" font-size="14.00">WaitFor</text>
</a>
</g>
</g>
<!-- github.com/guild&#45;framework/guild&#45;core/internal/teatest.doWaitFor -->
<g id="node12" class="node">
<title>github.com/guild&#45;framework/guild&#45;core/internal/teatest.doWaitFor</title>
<g id="a_node12"><a xlink:title="github.com/guild&#45;framework/guild&#45;core/internal/teatest.doWaitFor | defined in teatest.go:83">
<path fill="lightblue" stroke="black" stroke-width="0.5" d="M423.83,-418C423.83,-418 354.29,-418 354.29,-418 348.29,-418 342.29,-412 342.29,-406 342.29,-406 342.29,-394 342.29,-394 342.29,-388 348.29,-382 354.29,-382 354.29,-382 423.83,-382 423.83,-382 429.83,-382 435.83,-388 435.83,-394 435.83,-394 435.83,-406 435.83,-406 435.83,-412 429.83,-418 423.83,-418"/>
<text xml:space="preserve" text-anchor="middle" x="389.06" y="-395.32" font-family="Verdana" font-size="14.00">doWaitFor</text>
</a>
</g>
</g>
<!-- github.com/guild&#45;framework/guild&#45;core/internal/teatest.WaitFor&#45;&gt;github.com/guild&#45;framework/guild&#45;core/internal/teatest.doWaitFor -->
<g id="edge9" class="edge">
<title>github.com/guild&#45;framework/guild&#45;core/internal/teatest.WaitFor&#45;&gt;github.com/guild&#45;framework/guild&#45;core/internal/teatest.doWaitFor</title>
<g id="a_edge9"><a xlink:title="at teatest.go:78: calling [github.com/guild&#45;framework/guild&#45;core/internal/teatest.doWaitFor]">
<path fill="none" stroke="black" d="M158.82,-400C203.58,-400 278.71,-400 330.7,-400"/>
<polygon fill="black" stroke="black" points="330.56,-403.5 340.56,-400 330.56,-396.5 330.56,-403.5"/>
</a>
</g>
</g>
<!-- (*github.com/guild&#45;framework/guild&#45;core/internal/teatest.TestModel).WaitFinished -->
<g id="node13" class="node">
<title>(*github.com/guild&#45;framework/guild&#45;core/internal/teatest.TestModel).WaitFinished</title>
<g id="a_node13"><a xlink:title="(*github.com/guild&#45;framework/guild&#45;core/internal/teatest.TestModel).WaitFinished | defined in teatest.go:211&#10;at teatest.go:212: calling [(*github.com/guild&#45;framework/guild&#45;core/internal/teatest.TestModel).waitDone]">
<path fill="lightblue" stroke="black" stroke-width="1.5" d="M212.29,-296C212.29,-296 28,-296 28,-296 22,-296 16,-290 16,-284 16,-284 16,-272 16,-272 16,-266 22,-260 28,-260 28,-260 212.29,-260 212.29,-260 218.29,-260 224.29,-266 224.29,-272 224.29,-272 224.29,-284 224.29,-284 224.29,-290 218.29,-296 212.29,-296"/>
<text xml:space="preserve" text-anchor="middle" x="120.14" y="-273.32" font-family="Verdana" font-size="14.00">(*TestModel).WaitFinished</text>
</a>
</g>
</g>
<!-- (*github.com/guild&#45;framework/guild&#45;core/internal/teatest.TestModel).WaitFinished&#45;&gt;(*github.com/guild&#45;framework/guild&#45;core/internal/teatest.TestModel).waitDone -->
<g id="edge5" class="edge">
<title>(*github.com/guild&#45;framework/guild&#45;core/internal/teatest.TestModel).WaitFinished&#45;&gt;(*github.com/guild&#45;framework/guild&#45;core/internal/teatest.TestModel).waitDone</title>
<g id="a_edge5"><a xlink:title="at teatest.go:212: calling [(*github.com/guild&#45;framework/guild&#45;core/internal/teatest.TestModel).waitDone]">
<path fill="none" stroke="black" d="M203.04,-296.72C232.93,-303.55 266.9,-311.31 297.5,-318.3"/>
<polygon fill="black" stroke="black" points="296.6,-321.69 307.13,-320.5 298.16,-314.86 296.6,-321.69"/>
</a>
</g>
</g>
</g>
</svg>
