<?xml version="1.0" encoding="UTF-8" standalone="no"?>
<!DOCTYPE svg PUBLIC "-//W3C//DTD SVG 1.1//EN"
 "http://www.w3.org/Graphics/SVG/1.1/DTD/svg11.dtd">
<!-- Generated by graphviz version 14.1.1 (20251213.1925)
 -->
<!-- Title: gocallvis Pages: 1 -->
<svg width="427pt" height="378pt"
 viewBox="0.00 0.00 427.00 378.00" xmlns="http://www.w3.org/2000/svg" xmlns:xlink="http://www.w3.org/1999/xlink">
<g id="graph0" class="graph" transform="scale(1 1) rotate(0) translate(0 378)">
<title>gocallvis</title>
<polygon fill="lightgray" stroke="none" points="0,0 0,-378 426.83,-378 426.83,0 0,0"/>
<g id="clust1" class="cluster">
<title>cluster_focus</title>
<polygon fill="#e6ecfa" stroke="black" stroke-width="0.5" points="8,-8 8,-370 418.83,-370 418.83,-8 8,-8"/>
<text xml:space="preserve" text-anchor="middle" x="213.41" y="-348.9" font-family="Arial" font-size="18.00">cli</text>
</g>
<g id="clust2" class="cluster">
<title>cluster_github.com/guild&#45;framework/guild&#45;core/internal/scaffoldlite</title>
<g id="a_clust2"><a xlink:href="/?f=github.com/guild-framework/guild-core/internal/scaffoldlite" xlink:title="package: github.com/guild&#45;framework/guild&#45;core/internal/scaffoldlite">
<polygon fill="lightyellow" stroke="black" stroke-width="0.8" points="222.16,-16 222.16,-96 372.2,-96 372.2,-16 222.16,-16"/>
<text xml:space="preserve" text-anchor="middle" x="297.18" y="-76.8" font-family="Tahoma bold" font-size="16.00">scaffoldlite</text>
</a>
</g>
</g>
<g id="clust3" class="cluster">
<title>cluster_github.com/guild&#45;framework/guild&#45;core/internal/scaffoldlite/templates</title>
<g id="a_clust3"><a xlink:href="/?f=github.com/guild-framework/guild-core/internal/scaffoldlite/templates" xlink:title="package: github.com/guild&#45;framework/guild&#45;core/internal/scaffoldlite/templates">
<polygon fill="lightyellow" stroke="black" stroke-width="0.8" points="183.54,-104 183.54,-184 410.83,-184 410.83,-104 183.54,-104"/>
<text xml:space="preserve" text-anchor="middle" x="297.18" y="-164.8" font-family="Tahoma bold" font-size="16.00">templates</text>
</a>
</g>
</g>
<g id="clust4" class="cluster">
<title>cluster_github.com/guild&#45;framework/guild&#45;core/pkg/gerror</title>
<g id="a_clust4"><a xlink:href="/?f=github.com/guild-framework/guild-core/pkg/gerror" xlink:title="package: github.com/guild&#45;framework/guild&#45;core/pkg/gerror">
<polygon fill="lightyellow" stroke="black" stroke-width="0.8" points="259.29,-192 259.29,-333 335.08,-333 335.08,-192 259.29,-192"/>
<text xml:space="preserve" text-anchor="middle" x="297.18" y="-313.8" font-family="Tahoma bold" font-size="16.00">gerror</text>
</a>
</g>
</g>
<!-- github.com/guild&#45;framework/guild&#45;core/internal/scaffoldlite/cli.ExecuteInit -->
<g id="node1" class="node">
<title>github.com/guild&#45;framework/guild&#45;core/internal/scaffoldlite/cli.ExecuteInit</title>
<g id="a_node1"><a xlink:title="github.com/guild&#45;framework/guild&#45;core/internal/scaffoldlite/cli.ExecuteInit | defined in init.go:15&#10;at init.go:17: calling [github.com/guild&#45;framework/guild&#45;core/pkg/gerror.New]&#10;at init.go:20: calling [github.com/guild&#45;framework/guild&#45;core/pkg/gerror.New]&#10;at init.go:23: calling [github.com/guild&#45;framework/guild&#45;core/internal/scaffoldlite/templates.GetEmbeddedTemplatesFS]&#10;at init.go:25: calling [github.com/guild&#45;framework/guild&#45;core/pkg/gerror.Wrap]&#10;at init.go:51: calling [github.com/guild&#45;framework/guild&#45;core/internal/scaffoldlite.ScaffoldFromFS]">
<path fill="lightblue" stroke="black" stroke-width="1.5" d="M106.54,-191C106.54,-191 28,-191 28,-191 22,-191 16,-185 16,-179 16,-179 16,-167 16,-167 16,-161 22,-155 28,-155 28,-155 106.54,-155 106.54,-155 112.54,-155 118.54,-161 118.54,-167 118.54,-167 118.54,-179 118.54,-179 118.54,-185 112.54,-191 106.54,-191"/>
<text xml:space="preserve" text-anchor="middle" x="67.27" y="-168.32" font-family="Verdana" font-size="14.00">ExecuteInit</text>
</a>
</g>
</g>
<!-- github.com/guild&#45;framework/guild&#45;core/internal/scaffoldlite.ScaffoldFromFS -->
<g id="node2" class="node">
<title>github.com/guild&#45;framework/guild&#45;core/internal/scaffoldlite.ScaffoldFromFS</title>
<g id="a_node2"><a xlink:title="github.com/guild&#45;framework/guild&#45;core/internal/scaffoldlite.ScaffoldFromFS | defined in engine.go:83">
<path fill="moccasin" stroke="black" stroke-width="1.5" d="M352.2,-60C352.2,-60 242.16,-60 242.16,-60 236.16,-60 230.16,-54 230.16,-48 230.16,-48 230.16,-36 230.16,-36 230.16,-30 236.16,-24 242.16,-24 242.16,-24 352.2,-24 352.2,-24 358.2,-24 364.2,-30 364.2,-36 364.2,-36 364.2,-48 364.2,-48 364.2,-54 358.2,-60 352.2,-60"/>
<text xml:space="preserve" text-anchor="middle" x="297.18" y="-37.33" font-family="Verdana" font-size="14.00">ScaffoldFromFS</text>
</a>
</g>
</g>
<!-- github.com/guild&#45;framework/guild&#45;core/internal/scaffoldlite/cli.ExecuteInit&#45;&gt;github.com/guild&#45;framework/guild&#45;core/internal/scaffoldlite.ScaffoldFromFS -->
<g id="edge4" class="edge">
<title>github.com/guild&#45;framework/guild&#45;core/internal/scaffoldlite/cli.ExecuteInit&#45;&gt;github.com/guild&#45;framework/guild&#45;core/internal/scaffoldlite.ScaffoldFromFS</title>
<g id="a_edge4"><a xlink:title="at init.go:51: calling [github.com/guild&#45;framework/guild&#45;core/internal/scaffoldlite.ScaffoldFromFS]">
<path fill="none" stroke="saddlebrown" d="M94.74,-154.52C117.76,-138.76 152.24,-115.88 183.54,-98 203.39,-86.66 225.84,-75.23 245.45,-65.68"/>
<polygon fill="saddlebrown" stroke="saddlebrown" points="246.87,-68.88 254.35,-61.38 243.82,-62.58 246.87,-68.88"/>
</a>
</g>
</g>
<!-- github.com/guild&#45;framework/guild&#45;core/internal/scaffoldlite/templates.GetEmbeddedTemplatesFS -->
<g id="node3" class="node">
<title>github.com/guild&#45;framework/guild&#45;core/internal/scaffoldlite/templates.GetEmbeddedTemplatesFS</title>
<g id="a_node3"><a xlink:title="github.com/guild&#45;framework/guild&#45;core/internal/scaffoldlite/templates.GetEmbeddedTemplatesFS | defined in embed.go:16">
<path fill="moccasin" stroke="black" stroke-width="1.5" d="M390.83,-148C390.83,-148 203.54,-148 203.54,-148 197.54,-148 191.54,-142 191.54,-136 191.54,-136 191.54,-124 191.54,-124 191.54,-118 197.54,-112 203.54,-112 203.54,-112 390.83,-112 390.83,-112 396.83,-112 402.83,-118 402.83,-124 402.83,-124 402.83,-136 402.83,-136 402.83,-142 396.83,-148 390.83,-148"/>
<text xml:space="preserve" text-anchor="middle" x="297.18" y="-125.33" font-family="Verdana" font-size="14.00">GetEmbeddedTemplatesFS</text>
</a>
</g>
</g>
<!-- github.com/guild&#45;framework/guild&#45;core/internal/scaffoldlite/cli.ExecuteInit&#45;&gt;github.com/guild&#45;framework/guild&#45;core/internal/scaffoldlite/templates.GetEmbeddedTemplatesFS -->
<g id="edge2" class="edge">
<title>github.com/guild&#45;framework/guild&#45;core/internal/scaffoldlite/cli.ExecuteInit&#45;&gt;github.com/guild&#45;framework/guild&#45;core/internal/scaffoldlite/templates.GetEmbeddedTemplatesFS</title>
<g id="a_edge2"><a xlink:title="at init.go:23: calling [github.com/guild&#45;framework/guild&#45;core/internal/scaffoldlite/templates.GetEmbeddedTemplatesFS]">
<path fill="none" stroke="saddlebrown" d="M119.13,-163.4C138.96,-159.66 162.49,-155.22 185.83,-150.82"/>
<polygon fill="saddlebrown" stroke="saddlebrown" points="186.22,-154.31 195.4,-149.01 184.92,-147.43 186.22,-154.31"/>
</a>
</g>
</g>
<!-- github.com/guild&#45;framework/guild&#45;core/pkg/gerror.New -->
<g id="node4" class="node">
<title>github.com/guild&#45;framework/guild&#45;core/pkg/gerror.New</title>
<g id="a_node4"><a xlink:title="github.com/guild&#45;framework/guild&#45;core/pkg/gerror.New | defined in errors.go:190">
<path fill="moccasin" stroke="black" stroke-width="1.5" d="M312.18,-236C312.18,-236 282.18,-236 282.18,-236 276.18,-236 270.18,-230 270.18,-224 270.18,-224 270.18,-212 270.18,-212 270.18,-206 276.18,-200 282.18,-200 282.18,-200 312.18,-200 312.18,-200 318.18,-200 324.18,-206 324.18,-212 324.18,-212 324.18,-224 324.18,-224 324.18,-230 318.18,-236 312.18,-236"/>
<text xml:space="preserve" text-anchor="middle" x="297.18" y="-213.32" font-family="Verdana" font-size="14.00">New</text>
</a>
</g>
</g>
<!-- github.com/guild&#45;framework/guild&#45;core/internal/scaffoldlite/cli.ExecuteInit&#45;&gt;github.com/guild&#45;framework/guild&#45;core/pkg/gerror.New -->
<g id="edge1" class="edge">
<title>github.com/guild&#45;framework/guild&#45;core/internal/scaffoldlite/cli.ExecuteInit&#45;&gt;github.com/guild&#45;framework/guild&#45;core/pkg/gerror.New</title>
<g id="a_edge1"><a xlink:title="at init.go:17: calling [github.com/guild&#45;framework/guild&#45;core/pkg/gerror.New]&#10;at init.go:20: calling [github.com/guild&#45;framework/guild&#45;core/pkg/gerror.New]">
<path fill="none" stroke="saddlebrown" d="M119.13,-183.04C161.34,-191.38 220.41,-203.04 258.49,-210.56"/>
<polygon fill="saddlebrown" stroke="saddlebrown" points="257.62,-213.95 268.1,-212.46 258.97,-207.08 257.62,-213.95"/>
</a>
</g>
</g>
<!-- github.com/guild&#45;framework/guild&#45;core/pkg/gerror.Wrap -->
<g id="node5" class="node">
<title>github.com/guild&#45;framework/guild&#45;core/pkg/gerror.Wrap</title>
<g id="a_node5"><a xlink:title="github.com/guild&#45;framework/guild&#45;core/pkg/gerror.Wrap | defined in errors.go:223">
<path fill="moccasin" stroke="black" stroke-width="1.5" d="M315.08,-297C315.08,-297 279.29,-297 279.29,-297 273.29,-297 267.29,-291 267.29,-285 267.29,-285 267.29,-273 267.29,-273 267.29,-267 273.29,-261 279.29,-261 279.29,-261 315.08,-261 315.08,-261 321.08,-261 327.08,-267 327.08,-273 327.08,-273 327.08,-285 327.08,-285 327.08,-291 321.08,-297 315.08,-297"/>
<text xml:space="preserve" text-anchor="middle" x="297.18" y="-274.32" font-family="Verdana" font-size="14.00">Wrap</text>
</a>
</g>
</g>
<!-- github.com/guild&#45;framework/guild&#45;core/internal/scaffoldlite/cli.ExecuteInit&#45;&gt;github.com/guild&#45;framework/guild&#45;core/pkg/gerror.Wrap -->
<g id="edge3" class="edge">
<title>github.com/guild&#45;framework/guild&#45;core/internal/scaffoldlite/cli.ExecuteInit&#45;&gt;github.com/guild&#45;framework/guild&#45;core/pkg/gerror.Wrap</title>
<g id="a_edge3"><a xlink:title="at init.go:25: calling [github.com/guild&#45;framework/guild&#45;core/pkg/gerror.Wrap]">
<path fill="none" stroke="saddlebrown" d="M91.68,-191.73C114.08,-208.82 149.42,-233.7 183.54,-249 206.39,-259.25 233.48,-266.6 255.36,-271.46"/>
<polygon fill="saddlebrown" stroke="saddlebrown" points="254.61,-274.88 265.12,-273.53 256.06,-268.03 254.61,-274.88"/>
</a>
</g>
</g>
</g>
</svg>
