<?xml version="1.0" encoding="UTF-8" standalone="no"?>
<!DOCTYPE svg PUBLIC "-//W3C//DTD SVG 1.1//EN"
 "http://www.w3.org/Graphics/SVG/1.1/DTD/svg11.dtd">
<!-- Generated by graphviz version 14.1.1 (20251213.1925)
 -->
<!-- Title: gocallvis Pages: 1 -->
<svg width="986pt" height="646pt"
 viewBox="0.00 0.00 986.00 646.00" xmlns="http://www.w3.org/2000/svg" xmlns:xlink="http://www.w3.org/1999/xlink">
<g id="graph0" class="graph" transform="scale(1 1) rotate(0) translate(0 646)">
<title>gocallvis</title>
<polygon fill="lightgray" stroke="none" points="0,0 0,-646 985.95,-646 985.95,0 0,0"/>
<g id="clust1" class="cluster">
<title>cluster_focus</title>
<polygon fill="#e6ecfa" stroke="black" stroke-width="0.5" points="8,-8 8,-638 977.95,-638 977.95,-8 8,-8"/>
<text xml:space="preserve" text-anchor="middle" x="492.97" y="-616.9" font-family="Arial" font-size="18.00">ui</text>
</g>
<!-- github.com/guild&#45;framework/guild&#45;core/internal/buildutil/ui.Init -->
<g id="node1" class="node">
<title>github.com/guild&#45;framework/guild&#45;core/internal/buildutil/ui.Init</title>
<g id="a_node1"><a xlink:title="github.com/guild&#45;framework/guild&#45;core/internal/buildutil/ui.Init | defined in ansi.go:39&#10;at ansi.go:40: calling [github.com/guild&#45;framework/guild&#45;core/internal/buildutil/ui.isatty]">
<path fill="lightblue" stroke="black" stroke-width="1.5" d="M569.47,-437C569.47,-437 539.47,-437 539.47,-437 533.47,-437 527.47,-431 527.47,-425 527.47,-425 527.47,-413 527.47,-413 527.47,-407 533.47,-401 539.47,-401 539.47,-401 569.47,-401 569.47,-401 575.47,-401 581.47,-407 581.47,-413 581.47,-413 581.47,-425 581.47,-425 581.47,-431 575.47,-437 569.47,-437"/>
<text xml:space="preserve" text-anchor="middle" x="554.47" y="-414.32" font-family="Verdana" font-size="14.00">Init</text>
</a>
</g>
</g>
<!-- github.com/guild&#45;framework/guild&#45;core/internal/buildutil/ui.isatty -->
<g id="node2" class="node">
<title>github.com/guild&#45;framework/guild&#45;core/internal/buildutil/ui.isatty</title>
<g id="a_node2"><a xlink:title="github.com/guild&#45;framework/guild&#45;core/internal/buildutil/ui.isatty | defined in ansi.go:57">
<path fill="lightblue" stroke="black" stroke-width="0.5" d="M769.28,-437C769.28,-437 731.99,-437 731.99,-437 725.99,-437 719.99,-431 719.99,-425 719.99,-425 719.99,-413 719.99,-413 719.99,-407 725.99,-401 731.99,-401 731.99,-401 769.28,-401 769.28,-401 775.28,-401 781.28,-407 781.28,-413 781.28,-413 781.28,-425 781.28,-425 781.28,-431 775.28,-437 769.28,-437"/>
<text xml:space="preserve" text-anchor="middle" x="750.64" y="-414.32" font-family="Verdana" font-size="14.00">isatty</text>
</a>
</g>
</g>
<!-- github.com/guild&#45;framework/guild&#45;core/internal/buildutil/ui.Init&#45;&gt;github.com/guild&#45;framework/guild&#45;core/internal/buildutil/ui.isatty -->
<g id="edge1" class="edge">
<title>github.com/guild&#45;framework/guild&#45;core/internal/buildutil/ui.Init&#45;&gt;github.com/guild&#45;framework/guild&#45;core/internal/buildutil/ui.isatty</title>
<g id="a_edge1"><a xlink:title="at ansi.go:40: calling [github.com/guild&#45;framework/guild&#45;core/internal/buildutil/ui.isatty]">
<path fill="none" stroke="black" d="M582.07,-419C614.73,-419 670.48,-419 708.64,-419"/>
<polygon fill="black" stroke="black" points="708.36,-422.5 718.36,-419 708.36,-415.5 708.36,-422.5"/>
</a>
</g>
</g>
<!-- github.com/guild&#45;framework/guild&#45;core/internal/buildutil/ui.Status -->
<g id="node3" class="node">
<title>github.com/guild&#45;framework/guild&#45;core/internal/buildutil/ui.Status</title>
<g id="a_node3"><a xlink:title="github.com/guild&#45;framework/guild&#45;core/internal/buildutil/ui.Status | defined in widgets.go:57&#10;at widgets.go:68: calling [github.com/guild&#45;framework/guild&#45;core/internal/buildutil/ui.ColourEnabled]">
<path fill="lightblue" stroke="black" stroke-width="1.5" d="M335.7,-296C335.7,-296 291.66,-296 291.66,-296 285.66,-296 279.66,-290 279.66,-284 279.66,-284 279.66,-272 279.66,-272 279.66,-266 285.66,-260 291.66,-260 291.66,-260 335.7,-260 335.7,-260 341.7,-260 347.7,-266 347.7,-272 347.7,-272 347.7,-284 347.7,-284 347.7,-290 341.7,-296 335.7,-296"/>
<text xml:space="preserve" text-anchor="middle" x="313.68" y="-273.32" font-family="Verdana" font-size="14.00">Status</text>
</a>
</g>
</g>
<!-- github.com/guild&#45;framework/guild&#45;core/internal/buildutil/ui.ColourEnabled -->
<g id="node4" class="node">
<title>github.com/guild&#45;framework/guild&#45;core/internal/buildutil/ui.ColourEnabled</title>
<g id="a_node4"><a xlink:title="github.com/guild&#45;framework/guild&#45;core/internal/buildutil/ui.ColourEnabled | defined in ansi.go:44">
<path fill="lightblue" stroke="black" stroke-width="1.5" d="M604.62,-309C604.62,-309 504.33,-309 504.33,-309 498.33,-309 492.33,-303 492.33,-297 492.33,-297 492.33,-285 492.33,-285 492.33,-279 498.33,-273 504.33,-273 504.33,-273 604.62,-273 604.62,-273 610.62,-273 616.62,-279 616.62,-285 616.62,-285 616.62,-297 616.62,-297 616.62,-303 610.62,-309 604.62,-309"/>
<text xml:space="preserve" text-anchor="middle" x="554.47" y="-286.32" font-family="Verdana" font-size="14.00">ColourEnabled</text>
</a>
</g>
</g>
<!-- github.com/guild&#45;framework/guild&#45;core/internal/buildutil/ui.Status&#45;&gt;github.com/guild&#45;framework/guild&#45;core/internal/buildutil/ui.ColourEnabled -->
<g id="edge2" class="edge">
<title>github.com/guild&#45;framework/guild&#45;core/internal/buildutil/ui.Status&#45;&gt;github.com/guild&#45;framework/guild&#45;core/internal/buildutil/ui.ColourEnabled</title>
<g id="a_edge2"><a xlink:title="at widgets.go:68: calling [github.com/guild&#45;framework/guild&#45;core/internal/buildutil/ui.ColourEnabled]">
<path fill="none" stroke="black" d="M348.39,-279.84C382.57,-281.7 436.55,-284.63 480.55,-287.03"/>
<polygon fill="black" stroke="black" points="480.11,-290.51 490.28,-287.56 480.49,-283.52 480.11,-290.51"/>
</a>
</g>
</g>
<!-- github.com/guild&#45;framework/guild&#45;core/internal/buildutil/ui.visualLength -->
<g id="node5" class="node">
<title>github.com/guild&#45;framework/guild&#45;core/internal/buildutil/ui.visualLength</title>
<g id="a_node5"><a xlink:title="github.com/guild&#45;framework/guild&#45;core/internal/buildutil/ui.visualLength | defined in ansi.go:127&#10;at ansi.go:129: calling [github.com/guild&#45;framework/guild&#45;core/internal/buildutil/ui.stripANSI]">
<path fill="lightblue" stroke="black" stroke-width="0.5" d="M794.41,-594C794.41,-594 706.87,-594 706.87,-594 700.87,-594 694.87,-588 694.87,-582 694.87,-582 694.87,-570 694.87,-570 694.87,-564 700.87,-558 706.87,-558 706.87,-558 794.41,-558 794.41,-558 800.41,-558 806.41,-564 806.41,-570 806.41,-570 806.41,-582 806.41,-582 806.41,-588 800.41,-594 794.41,-594"/>
<text xml:space="preserve" text-anchor="middle" x="750.64" y="-571.33" font-family="Verdana" font-size="14.00">visualLength</text>
</a>
</g>
</g>
<!-- github.com/guild&#45;framework/guild&#45;core/internal/buildutil/ui.stripANSI -->
<g id="node6" class="node">
<title>github.com/guild&#45;framework/guild&#45;core/internal/buildutil/ui.stripANSI</title>
<g id="a_node6"><a xlink:title="github.com/guild&#45;framework/guild&#45;core/internal/buildutil/ui.stripANSI | defined in ansi.go:151">
<path fill="lightblue" stroke="black" stroke-width="0.5" d="M957.95,-594C957.95,-594 891.41,-594 891.41,-594 885.41,-594 879.41,-588 879.41,-582 879.41,-582 879.41,-570 879.41,-570 879.41,-564 885.41,-558 891.41,-558 891.41,-558 957.95,-558 957.95,-558 963.95,-558 969.95,-564 969.95,-570 969.95,-570 969.95,-582 969.95,-582 969.95,-588 963.95,-594 957.95,-594"/>
<text xml:space="preserve" text-anchor="middle" x="924.68" y="-571.33" font-family="Verdana" font-size="14.00">stripANSI</text>
</a>
</g>
</g>
<!-- github.com/guild&#45;framework/guild&#45;core/internal/buildutil/ui.visualLength&#45;&gt;github.com/guild&#45;framework/guild&#45;core/internal/buildutil/ui.stripANSI -->
<g id="edge16" class="edge">
<title>github.com/guild&#45;framework/guild&#45;core/internal/buildutil/ui.visualLength&#45;&gt;github.com/guild&#45;framework/guild&#45;core/internal/buildutil/ui.stripANSI</title>
<g id="a_edge16"><a xlink:title="at ansi.go:129: calling [github.com/guild&#45;framework/guild&#45;core/internal/buildutil/ui.stripANSI]">
<path fill="none" stroke="black" d="M806.55,-576C826.19,-576 848.34,-576 868.05,-576"/>
<polygon fill="black" stroke="black" points="867.82,-579.5 877.82,-576 867.82,-572.5 867.82,-579.5"/>
</a>
</g>
</g>
<!-- github.com/guild&#45;framework/guild&#45;core/internal/buildutil/ui.RestoreTerminal -->
<g id="node7" class="node">
<title>github.com/guild&#45;framework/guild&#45;core/internal/buildutil/ui.RestoreTerminal</title>
<g id="a_node7"><a xlink:title="github.com/guild&#45;framework/guild&#45;core/internal/buildutil/ui.RestoreTerminal | defined in ansi.go:161&#10;at ansi.go:162: calling [github.com/guild&#45;framework/guild&#45;core/internal/buildutil/ui.isatty]">
<path fill="lightblue" stroke="black" stroke-width="1.5" d="M609.87,-376C609.87,-376 499.08,-376 499.08,-376 493.08,-376 487.08,-370 487.08,-364 487.08,-364 487.08,-352 487.08,-352 487.08,-346 493.08,-340 499.08,-340 499.08,-340 609.87,-340 609.87,-340 615.87,-340 621.87,-346 621.87,-352 621.87,-352 621.87,-364 621.87,-364 621.87,-370 615.87,-376 609.87,-376"/>
<text xml:space="preserve" text-anchor="middle" x="554.47" y="-353.32" font-family="Verdana" font-size="14.00">RestoreTerminal</text>
</a>
</g>
</g>
<!-- github.com/guild&#45;framework/guild&#45;core/internal/buildutil/ui.RestoreTerminal&#45;&gt;github.com/guild&#45;framework/guild&#45;core/internal/buildutil/ui.isatty -->
<g id="edge8" class="edge">
<title>github.com/guild&#45;framework/guild&#45;core/internal/buildutil/ui.RestoreTerminal&#45;&gt;github.com/guild&#45;framework/guild&#45;core/internal/buildutil/ui.isatty</title>
<g id="a_edge8"><a xlink:title="at ansi.go:162: calling [github.com/guild&#45;framework/guild&#45;core/internal/buildutil/ui.isatty]">
<path fill="none" stroke="black" d="M615.05,-376.72C645.62,-386.32 682.05,-397.77 709.3,-406.33"/>
<polygon fill="black" stroke="black" points="707.96,-409.57 718.55,-409.23 710.06,-402.9 707.96,-409.57"/>
</a>
</g>
</g>
<!-- github.com/guild&#45;framework/guild&#45;core/internal/buildutil/ui.TermWidth -->
<g id="node8" class="node">
<title>github.com/guild&#45;framework/guild&#45;core/internal/buildutil/ui.TermWidth</title>
<g id="a_node8"><a xlink:title="github.com/guild&#45;framework/guild&#45;core/internal/buildutil/ui.TermWidth | defined in ansi.go:73&#10;at ansi.go:99: calling [github.com/guild&#45;framework/guild&#45;core/internal/buildutil/ui.isatty]">
<path fill="lightblue" stroke="black" stroke-width="1.5" d="M591.87,-498C591.87,-498 517.08,-498 517.08,-498 511.08,-498 505.08,-492 505.08,-486 505.08,-486 505.08,-474 505.08,-474 505.08,-468 511.08,-462 517.08,-462 517.08,-462 591.87,-462 591.87,-462 597.87,-462 603.87,-468 603.87,-474 603.87,-474 603.87,-486 603.87,-486 603.87,-492 597.87,-498 591.87,-498"/>
<text xml:space="preserve" text-anchor="middle" x="554.47" y="-475.32" font-family="Verdana" font-size="14.00">TermWidth</text>
</a>
</g>
</g>
<!-- github.com/guild&#45;framework/guild&#45;core/internal/buildutil/ui.TermWidth&#45;&gt;github.com/guild&#45;framework/guild&#45;core/internal/buildutil/ui.isatty -->
<g id="edge9" class="edge">
<title>github.com/guild&#45;framework/guild&#45;core/internal/buildutil/ui.TermWidth&#45;&gt;github.com/guild&#45;framework/guild&#45;core/internal/buildutil/ui.isatty</title>
<g id="a_edge9"><a xlink:title="at ansi.go:99: calling [github.com/guild&#45;framework/guild&#45;core/internal/buildutil/ui.isatty]">
<path fill="none" stroke="black" d="M604.47,-464.61C636.89,-454.42 678.88,-441.23 709.35,-431.66"/>
<polygon fill="black" stroke="black" points="710.08,-435.1 718.57,-428.76 707.99,-428.42 710.08,-435.1"/>
</a>
</g>
</g>
<!-- github.com/guild&#45;framework/guild&#45;core/internal/buildutil/ui.SummaryCardWithStatus -->
<g id="node9" class="node">
<title>github.com/guild&#45;framework/guild&#45;core/internal/buildutil/ui.SummaryCardWithStatus</title>
<g id="a_node9"><a xlink:title="github.com/guild&#45;framework/guild&#45;core/internal/buildutil/ui.SummaryCardWithStatus | defined in widgets.go:150&#10;at widgets.go:162: calling [github.com/guild&#45;framework/guild&#45;core/internal/buildutil/ui.Center]&#10;at widgets.go:166: calling [github.com/guild&#45;framework/guild&#45;core/internal/buildutil/ui.Center]&#10;at widgets.go:236: calling [github.com/guild&#45;framework/guild&#45;core/internal/buildutil/ui.Center]&#10;at widgets.go:239: calling [github.com/guild&#45;framework/guild&#45;core/internal/buildutil/ui.Center]&#10;at widgets.go:273: calling [github.com/guild&#45;framework/guild&#45;core/internal/buildutil/ui.Center]&#10;at widgets.go:270: calling [github.com/guild&#45;framework/guild&#45;core/internal/buildutil/ui.Center]&#10;at widgets.go:160: calling [github.com/guild&#45;framework/guild&#45;core/internal/buildutil/ui.ColourEnabled]&#10;at widgets.go:234: calling [github.com/guild&#45;framework/guild&#45;core/internal/buildutil/ui.ColourEnabled]&#10;at widgets.go:183: calling [github.com/guild&#45;framework/guild&#45;core/internal/buildutil/ui.ColourEnabled]&#10;at widgets.go:216: calling [github.com/guild&#45;framework/guild&#45;core/internal/buildutil/ui.ColourEnabled]&#10;at widgets.go:224: calling [github.com/guild&#45;framework/guild&#45;core/internal/buildutil/ui.ColourEnabled]&#10;at widgets.go:243: calling [github.com/guild&#45;framework/guild&#45;core/internal/buildutil/ui.ColourEnabled]&#10;at widgets.go:265: calling [github.com/guild&#45;framework/guild&#45;core/internal/buildutil/ui.ColourEnabled]&#10;at widgets.go:277: calling [github.com/guild&#45;framework/guild&#45;core/internal/buildutil/ui.ColourEnabled]&#10;at widgets.go:154: calling [github.com/guild&#45;framework/guild&#45;core/internal/buildutil/ui.TermWidth]&#10;at widgets.go:175: calling [github.com/guild&#45;framework/guild&#45;core/internal/buildutil/ui.visualLength]&#10;at widgets.go:209: calling [github.com/guild&#45;framework/guild&#45;core/internal/buildutil/ui.visualLength]">
<path fill="lightblue" stroke="black" stroke-width="1.5" d="M402.08,-601C402.08,-601 225.29,-601 225.29,-601 219.29,-601 213.29,-595 213.29,-589 213.29,-589 213.29,-577 213.29,-577 213.29,-571 219.29,-565 225.29,-565 225.29,-565 402.08,-565 402.08,-565 408.08,-565 414.08,-571 414.08,-577 414.08,-577 414.08,-589 414.08,-589 414.08,-595 408.08,-601 402.08,-601"/>
<text xml:space="preserve" text-anchor="middle" x="313.68" y="-578.33" font-family="Verdana" font-size="14.00">SummaryCardWithStatus</text>
</a>
</g>
</g>
<!-- github.com/guild&#45;framework/guild&#45;core/internal/buildutil/ui.SummaryCardWithStatus&#45;&gt;github.com/guild&#45;framework/guild&#45;core/internal/buildutil/ui.ColourEnabled -->
<g id="edge4" class="edge">
<title>github.com/guild&#45;framework/guild&#45;core/internal/buildutil/ui.SummaryCardWithStatus&#45;&gt;github.com/guild&#45;framework/guild&#45;core/internal/buildutil/ui.ColourEnabled</title>
<g id="a_edge4"><a xlink:title="at widgets.go:160: calling [github.com/guild&#45;framework/guild&#45;core/internal/buildutil/ui.ColourEnabled]&#10;at widgets.go:234: calling [github.com/guild&#45;framework/guild&#45;core/internal/buildutil/ui.ColourEnabled]&#10;at widgets.go:183: calling [github.com/guild&#45;framework/guild&#45;core/internal/buildutil/ui.ColourEnabled]&#10;at widgets.go:216: calling [github.com/guild&#45;framework/guild&#45;core/internal/buildutil/ui.ColourEnabled]&#10;at widgets.go:224: calling [github.com/guild&#45;framework/guild&#45;core/internal/buildutil/ui.ColourEnabled]&#10;at widgets.go:243: calling [github.com/guild&#45;framework/guild&#45;core/internal/buildutil/ui.ColourEnabled]&#10;at widgets.go:265: calling [github.com/guild&#45;framework/guild&#45;core/internal/buildutil/ui.ColourEnabled]&#10;at widgets.go:277: calling [github.com/guild&#45;framework/guild&#45;core/internal/buildutil/ui.ColourEnabled]">
<path fill="none" stroke="black" d="M398.94,-564.4C404.44,-561.18 409.57,-557.41 414.08,-553 489.18,-479.43 420.32,-409.21 487.08,-328 490.71,-323.59 495,-319.61 499.64,-316.05"/>
<polygon fill="black" stroke="black" points="501.38,-319.1 507.64,-310.56 497.42,-313.33 501.38,-319.1"/>
</a>
</g>
</g>
<!-- github.com/guild&#45;framework/guild&#45;core/internal/buildutil/ui.SummaryCardWithStatus&#45;&gt;github.com/guild&#45;framework/guild&#45;core/internal/buildutil/ui.visualLength -->
<g id="edge12" class="edge">
<title>github.com/guild&#45;framework/guild&#45;core/internal/buildutil/ui.SummaryCardWithStatus&#45;&gt;github.com/guild&#45;framework/guild&#45;core/internal/buildutil/ui.visualLength</title>
<g id="a_edge12"><a xlink:title="at widgets.go:175: calling [github.com/guild&#45;framework/guild&#45;core/internal/buildutil/ui.visualLength]&#10;at widgets.go:209: calling [github.com/guild&#45;framework/guild&#45;core/internal/buildutil/ui.visualLength]">
<path fill="none" stroke="black" d="M414.68,-587.13C474.77,-588.9 552.73,-589.97 621.87,-587 641.86,-586.14 663.56,-584.53 683.3,-582.8"/>
<polygon fill="black" stroke="black" points="683.53,-586.29 693.17,-581.91 682.9,-579.32 683.53,-586.29"/>
</a>
</g>
</g>
<!-- github.com/guild&#45;framework/guild&#45;core/internal/buildutil/ui.SummaryCardWithStatus&#45;&gt;github.com/guild&#45;framework/guild&#45;core/internal/buildutil/ui.TermWidth -->
<g id="edge10" class="edge">
<title>github.com/guild&#45;framework/guild&#45;core/internal/buildutil/ui.SummaryCardWithStatus&#45;&gt;github.com/guild&#45;framework/guild&#45;core/internal/buildutil/ui.TermWidth</title>
<g id="a_edge10"><a xlink:title="at widgets.go:154: calling [github.com/guild&#45;framework/guild&#45;core/internal/buildutil/ui.TermWidth]">
<path fill="none" stroke="black" d="M382.92,-564.28C393.47,-560.85 404.15,-557.06 414.08,-553 448.05,-539.12 484.76,-519.71 511.97,-504.39"/>
<polygon fill="black" stroke="black" points="513.63,-507.47 520.59,-499.49 510.17,-501.39 513.63,-507.47"/>
</a>
</g>
</g>
<!-- github.com/guild&#45;framework/guild&#45;core/internal/buildutil/ui.Center -->
<g id="node10" class="node">
<title>github.com/guild&#45;framework/guild&#45;core/internal/buildutil/ui.Center</title>
<g id="a_node10"><a xlink:title="github.com/guild&#45;framework/guild&#45;core/internal/buildutil/ui.Center | defined in ansi.go:114&#10;at ansi.go:115: calling [github.com/guild&#45;framework/guild&#45;core/internal/buildutil/ui.visualLength]">
<path fill="lightblue" stroke="black" stroke-width="1.5" d="M577.24,-574C577.24,-574 531.7,-574 531.7,-574 525.7,-574 519.7,-568 519.7,-562 519.7,-562 519.7,-550 519.7,-550 519.7,-544 525.7,-538 531.7,-538 531.7,-538 577.24,-538 577.24,-538 583.24,-538 589.24,-544 589.24,-550 589.24,-550 589.24,-562 589.24,-562 589.24,-568 583.24,-574 577.24,-574"/>
<text xml:space="preserve" text-anchor="middle" x="554.47" y="-551.33" font-family="Verdana" font-size="14.00">Center</text>
</a>
</g>
</g>
<!-- github.com/guild&#45;framework/guild&#45;core/internal/buildutil/ui.SummaryCardWithStatus&#45;&gt;github.com/guild&#45;framework/guild&#45;core/internal/buildutil/ui.Center -->
<g id="edge3" class="edge">
<title>github.com/guild&#45;framework/guild&#45;core/internal/buildutil/ui.SummaryCardWithStatus&#45;&gt;github.com/guild&#45;framework/guild&#45;core/internal/buildutil/ui.Center</title>
<g id="a_edge3"><a xlink:title="at widgets.go:162: calling [github.com/guild&#45;framework/guild&#45;core/internal/buildutil/ui.Center]&#10;at widgets.go:166: calling [github.com/guild&#45;framework/guild&#45;core/internal/buildutil/ui.Center]&#10;at widgets.go:236: calling [github.com/guild&#45;framework/guild&#45;core/internal/buildutil/ui.Center]&#10;at widgets.go:239: calling [github.com/guild&#45;framework/guild&#45;core/internal/buildutil/ui.Center]&#10;at widgets.go:273: calling [github.com/guild&#45;framework/guild&#45;core/internal/buildutil/ui.Center]&#10;at widgets.go:270: calling [github.com/guild&#45;framework/guild&#45;core/internal/buildutil/ui.Center]">
<path fill="none" stroke="black" d="M414.57,-571.71C446.97,-568.04 481.33,-564.16 507.78,-561.17"/>
<polygon fill="black" stroke="black" points="507.92,-564.67 517.46,-560.07 507.13,-557.72 507.92,-564.67"/>
</a>
</g>
</g>
<!-- github.com/guild&#45;framework/guild&#45;core/internal/buildutil/ui.Center&#45;&gt;github.com/guild&#45;framework/guild&#45;core/internal/buildutil/ui.visualLength -->
<g id="edge11" class="edge">
<title>github.com/guild&#45;framework/guild&#45;core/internal/buildutil/ui.Center&#45;&gt;github.com/guild&#45;framework/guild&#45;core/internal/buildutil/ui.visualLength</title>
<g id="a_edge11"><a xlink:title="at ansi.go:115: calling [github.com/guild&#45;framework/guild&#45;core/internal/buildutil/ui.visualLength]">
<path fill="none" stroke="black" d="M589.74,-559.53C615.63,-562.2 651.96,-565.94 683.45,-569.18"/>
<polygon fill="black" stroke="black" points="683,-572.65 693.3,-570.2 683.71,-565.69 683,-572.65"/>
</a>
</g>
</g>
<!-- github.com/guild&#45;framework/guild&#45;core/internal/buildutil/ui.Progress -->
<g id="node11" class="node">
<title>github.com/guild&#45;framework/guild&#45;core/internal/buildutil/ui.Progress</title>
<g id="a_node11"><a xlink:title="github.com/guild&#45;framework/guild&#45;core/internal/buildutil/ui.Progress | defined in widgets.go:40&#10;at widgets.go:44: calling [github.com/guild&#45;framework/guild&#45;core/internal/buildutil/ui.ColourEnabled]">
<path fill="lightblue" stroke="black" stroke-width="1.5" d="M343.58,-357C343.58,-357 283.79,-357 283.79,-357 277.79,-357 271.79,-351 271.79,-345 271.79,-345 271.79,-333 271.79,-333 271.79,-327 277.79,-321 283.79,-321 283.79,-321 343.58,-321 343.58,-321 349.58,-321 355.58,-327 355.58,-333 355.58,-333 355.58,-345 355.58,-345 355.58,-351 349.58,-357 343.58,-357"/>
<text xml:space="preserve" text-anchor="middle" x="313.68" y="-334.32" font-family="Verdana" font-size="14.00">Progress</text>
</a>
</g>
</g>
<!-- github.com/guild&#45;framework/guild&#45;core/internal/buildutil/ui.Progress&#45;&gt;github.com/guild&#45;framework/guild&#45;core/internal/buildutil/ui.ColourEnabled -->
<g id="edge5" class="edge">
<title>github.com/guild&#45;framework/guild&#45;core/internal/buildutil/ui.Progress&#45;&gt;github.com/guild&#45;framework/guild&#45;core/internal/buildutil/ui.ColourEnabled</title>
<g id="a_edge5"><a xlink:title="at widgets.go:44: calling [github.com/guild&#45;framework/guild&#45;core/internal/buildutil/ui.ColourEnabled]">
<path fill="none" stroke="black" d="M356.28,-330.64C390.48,-323.76 439.76,-313.86 480.5,-305.67"/>
<polygon fill="black" stroke="black" points="481.15,-309.11 490.26,-303.71 479.77,-302.25 481.15,-309.11"/>
</a>
</g>
</g>
<!-- github.com/guild&#45;framework/guild&#45;core/internal/buildutil/ui.TaskPass -->
<g id="node12" class="node">
<title>github.com/guild&#45;framework/guild&#45;core/internal/buildutil/ui.TaskPass</title>
<g id="a_node12"><a xlink:title="github.com/guild&#45;framework/guild&#45;core/internal/buildutil/ui.TaskPass | defined in widgets.go:103&#10;at widgets.go:104: calling [github.com/guild&#45;framework/guild&#45;core/internal/buildutil/ui.ColourEnabled]">
<path fill="lightblue" stroke="black" stroke-width="1.5" d="M344.33,-479C344.33,-479 283.04,-479 283.04,-479 277.04,-479 271.04,-473 271.04,-467 271.04,-467 271.04,-455 271.04,-455 271.04,-449 277.04,-443 283.04,-443 283.04,-443 344.33,-443 344.33,-443 350.33,-443 356.33,-449 356.33,-455 356.33,-455 356.33,-467 356.33,-467 356.33,-473 350.33,-479 344.33,-479"/>
<text xml:space="preserve" text-anchor="middle" x="313.68" y="-456.32" font-family="Verdana" font-size="14.00">TaskPass</text>
</a>
</g>
</g>
<!-- github.com/guild&#45;framework/guild&#45;core/internal/buildutil/ui.TaskPass&#45;&gt;github.com/guild&#45;framework/guild&#45;core/internal/buildutil/ui.ColourEnabled -->
<g id="edge13" class="edge">
<title>github.com/guild&#45;framework/guild&#45;core/internal/buildutil/ui.TaskPass&#45;&gt;github.com/guild&#45;framework/guild&#45;core/internal/buildutil/ui.ColourEnabled</title>
<g id="a_edge13"><a xlink:title="at widgets.go:104: calling [github.com/guild&#45;framework/guild&#45;core/internal/buildutil/ui.ColourEnabled]">
<path fill="none" stroke="black" d="M356.61,-454.74C375.49,-450.39 397.25,-443.11 414.08,-431 459.63,-398.23 445.32,-365.47 487.08,-328 492.17,-323.43 497.92,-319.2 503.86,-315.34"/>
<polygon fill="black" stroke="black" points="505.26,-318.59 511.98,-310.41 501.62,-312.61 505.26,-318.59"/>
</a>
</g>
</g>
<!-- github.com/guild&#45;framework/guild&#45;core/internal/buildutil/ui.Success -->
<g id="node13" class="node">
<title>github.com/guild&#45;framework/guild&#45;core/internal/buildutil/ui.Success</title>
<g id="a_node13"><a xlink:title="github.com/guild&#45;framework/guild&#45;core/internal/buildutil/ui.Success | defined in widgets.go:121&#10;at widgets.go:125: calling [github.com/guild&#45;framework/guild&#45;core/internal/buildutil/ui.ColourEnabled]">
<path fill="lightblue" stroke="black" stroke-width="1.5" d="M341.7,-52C341.7,-52 285.66,-52 285.66,-52 279.66,-52 273.66,-46 273.66,-40 273.66,-40 273.66,-28 273.66,-28 273.66,-22 279.66,-16 285.66,-16 285.66,-16 341.7,-16 341.7,-16 347.7,-16 353.7,-22 353.7,-28 353.7,-28 353.7,-40 353.7,-40 353.7,-46 347.7,-52 341.7,-52"/>
<text xml:space="preserve" text-anchor="middle" x="313.68" y="-29.32" font-family="Verdana" font-size="14.00">Success</text>
</a>
</g>
</g>
<!-- github.com/guild&#45;framework/guild&#45;core/internal/buildutil/ui.Success&#45;&gt;github.com/guild&#45;framework/guild&#45;core/internal/buildutil/ui.ColourEnabled -->
<g id="edge17" class="edge">
<title>github.com/guild&#45;framework/guild&#45;core/internal/buildutil/ui.Success&#45;&gt;github.com/guild&#45;framework/guild&#45;core/internal/buildutil/ui.ColourEnabled</title>
<g id="a_edge17"><a xlink:title="at widgets.go:125: calling [github.com/guild&#45;framework/guild&#45;core/internal/buildutil/ui.ColourEnabled]">
<path fill="none" stroke="black" d="M354.04,-39.58C373.65,-43.93 396.8,-51.59 414.08,-65 482,-117.74 524.95,-213.62 543.26,-261.77"/>
<polygon fill="black" stroke="black" points="539.91,-262.8 546.66,-270.96 546.47,-260.37 539.91,-262.8"/>
</a>
</g>
</g>
<!-- github.com/guild&#45;framework/guild&#45;core/internal/buildutil/ui.ClearProgress -->
<g id="node14" class="node">
<title>github.com/guild&#45;framework/guild&#45;core/internal/buildutil/ui.ClearProgress</title>
<g id="a_node14"><a xlink:title="github.com/guild&#45;framework/guild&#45;core/internal/buildutil/ui.ClearProgress | defined in widgets.go:76&#10;at widgets.go:81: calling [github.com/guild&#45;framework/guild&#45;core/internal/buildutil/ui.ColourEnabled]">
<path fill="lightblue" stroke="black" stroke-width="1.5" d="M361.58,-113C361.58,-113 265.79,-113 265.79,-113 259.79,-113 253.79,-107 253.79,-101 253.79,-101 253.79,-89 253.79,-89 253.79,-83 259.79,-77 265.79,-77 265.79,-77 361.58,-77 361.58,-77 367.58,-77 373.58,-83 373.58,-89 373.58,-89 373.58,-101 373.58,-101 373.58,-107 367.58,-113 361.58,-113"/>
<text xml:space="preserve" text-anchor="middle" x="313.68" y="-90.33" font-family="Verdana" font-size="14.00">ClearProgress</text>
</a>
</g>
</g>
<!-- github.com/guild&#45;framework/guild&#45;core/internal/buildutil/ui.ClearProgress&#45;&gt;github.com/guild&#45;framework/guild&#45;core/internal/buildutil/ui.ColourEnabled -->
<g id="edge14" class="edge">
<title>github.com/guild&#45;framework/guild&#45;core/internal/buildutil/ui.ClearProgress&#45;&gt;github.com/guild&#45;framework/guild&#45;core/internal/buildutil/ui.ColourEnabled</title>
<g id="a_edge14"><a xlink:title="at widgets.go:81: calling [github.com/guild&#45;framework/guild&#45;core/internal/buildutil/ui.ColourEnabled]">
<path fill="none" stroke="black" d="M374.2,-107.56C387.98,-112.05 402.11,-118.05 414.08,-126 468.78,-162.29 513.85,-226.1 536.88,-262.82"/>
<polygon fill="black" stroke="black" points="533.77,-264.44 541.99,-271.13 539.73,-260.78 533.77,-264.44"/>
</a>
</g>
</g>
<!-- github.com/guild&#45;framework/guild&#45;core/internal/buildutil/ui.Section -->
<g id="node15" class="node">
<title>github.com/guild&#45;framework/guild&#45;core/internal/buildutil/ui.Section</title>
<g id="a_node15"><a xlink:title="github.com/guild&#45;framework/guild&#45;core/internal/buildutil/ui.Section | defined in widgets.go:19&#10;at widgets.go:23: calling [github.com/guild&#45;framework/guild&#45;core/internal/buildutil/ui.TermWidth]&#10;at widgets.go:28: calling [github.com/guild&#45;framework/guild&#45;core/internal/buildutil/ui.ColourEnabled]&#10;at widgets.go:30: calling [github.com/guild&#45;framework/guild&#45;core/internal/buildutil/ui.Center]&#10;at widgets.go:34: calling [github.com/guild&#45;framework/guild&#45;core/internal/buildutil/ui.Center]">
<path fill="lightblue" stroke="black" stroke-width="1.5" d="M339.08,-540C339.08,-540 288.29,-540 288.29,-540 282.29,-540 276.29,-534 276.29,-528 276.29,-528 276.29,-516 276.29,-516 276.29,-510 282.29,-504 288.29,-504 288.29,-504 339.08,-504 339.08,-504 345.08,-504 351.08,-510 351.08,-516 351.08,-516 351.08,-528 351.08,-528 351.08,-534 345.08,-540 339.08,-540"/>
<text xml:space="preserve" text-anchor="middle" x="313.68" y="-517.33" font-family="Verdana" font-size="14.00">Section</text>
</a>
</g>
</g>
<!-- github.com/guild&#45;framework/guild&#45;core/internal/buildutil/ui.Section&#45;&gt;github.com/guild&#45;framework/guild&#45;core/internal/buildutil/ui.ColourEnabled -->
<g id="edge18" class="edge">
<title>github.com/guild&#45;framework/guild&#45;core/internal/buildutil/ui.Section&#45;&gt;github.com/guild&#45;framework/guild&#45;core/internal/buildutil/ui.ColourEnabled</title>
<g id="a_edge18"><a xlink:title="at widgets.go:28: calling [github.com/guild&#45;framework/guild&#45;core/internal/buildutil/ui.ColourEnabled]">
<path fill="none" stroke="black" d="M351.4,-518.44C371.92,-514.76 396.77,-507.26 414.08,-492 473.93,-439.24 433.25,-386.89 487.08,-328 491.2,-323.5 496,-319.41 501.09,-315.74"/>
<polygon fill="black" stroke="black" points="502.79,-318.82 509.24,-310.41 498.95,-312.96 502.79,-318.82"/>
</a>
</g>
</g>
<!-- github.com/guild&#45;framework/guild&#45;core/internal/buildutil/ui.Section&#45;&gt;github.com/guild&#45;framework/guild&#45;core/internal/buildutil/ui.TermWidth -->
<g id="edge15" class="edge">
<title>github.com/guild&#45;framework/guild&#45;core/internal/buildutil/ui.Section&#45;&gt;github.com/guild&#45;framework/guild&#45;core/internal/buildutil/ui.TermWidth</title>
<g id="a_edge15"><a xlink:title="at widgets.go:23: calling [github.com/guild&#45;framework/guild&#45;core/internal/buildutil/ui.TermWidth]">
<path fill="none" stroke="black" d="M351.73,-515.48C389.57,-508.83 448.93,-498.39 493.48,-490.55"/>
<polygon fill="black" stroke="black" points="494.02,-494.01 503.26,-488.83 492.81,-487.12 494.02,-494.01"/>
</a>
</g>
</g>
<!-- github.com/guild&#45;framework/guild&#45;core/internal/buildutil/ui.Section&#45;&gt;github.com/guild&#45;framework/guild&#45;core/internal/buildutil/ui.Center -->
<g id="edge19" class="edge">
<title>github.com/guild&#45;framework/guild&#45;core/internal/buildutil/ui.Section&#45;&gt;github.com/guild&#45;framework/guild&#45;core/internal/buildutil/ui.Center</title>
<g id="a_edge19"><a xlink:title="at widgets.go:30: calling [github.com/guild&#45;framework/guild&#45;core/internal/buildutil/ui.Center]&#10;at widgets.go:34: calling [github.com/guild&#45;framework/guild&#45;core/internal/buildutil/ui.Center]">
<path fill="none" stroke="black" d="M351.73,-527.28C393.79,-533.26 462.43,-543.04 507.77,-549.49"/>
<polygon fill="black" stroke="black" points="507.16,-552.94 517.56,-550.89 508.15,-546.01 507.16,-552.94"/>
</a>
</g>
</g>
<!-- github.com/guild&#45;framework/guild&#45;core/internal/buildutil/ui.Task -->
<g id="node16" class="node">
<title>github.com/guild&#45;framework/guild&#45;core/internal/buildutil/ui.Task</title>
<g id="a_node16"><a xlink:title="github.com/guild&#45;framework/guild&#45;core/internal/buildutil/ui.Task | defined in widgets.go:91&#10;at widgets.go:95: calling [github.com/guild&#45;framework/guild&#45;core/internal/buildutil/ui.ColourEnabled]">
<path fill="lightblue" stroke="black" stroke-width="1.5" d="M328.68,-418C328.68,-418 298.68,-418 298.68,-418 292.68,-418 286.68,-412 286.68,-406 286.68,-406 286.68,-394 286.68,-394 286.68,-388 292.68,-382 298.68,-382 298.68,-382 328.68,-382 328.68,-382 334.68,-382 340.68,-388 340.68,-394 340.68,-394 340.68,-406 340.68,-406 340.68,-412 334.68,-418 328.68,-418"/>
<text xml:space="preserve" text-anchor="middle" x="313.68" y="-395.32" font-family="Verdana" font-size="14.00">Task</text>
</a>
</g>
</g>
<!-- github.com/guild&#45;framework/guild&#45;core/internal/buildutil/ui.Task&#45;&gt;github.com/guild&#45;framework/guild&#45;core/internal/buildutil/ui.ColourEnabled -->
<g id="edge6" class="edge">
<title>github.com/guild&#45;framework/guild&#45;core/internal/buildutil/ui.Task&#45;&gt;github.com/guild&#45;framework/guild&#45;core/internal/buildutil/ui.ColourEnabled</title>
<g id="a_edge6"><a xlink:title="at widgets.go:95: calling [github.com/guild&#45;framework/guild&#45;core/internal/buildutil/ui.ColourEnabled]">
<path fill="none" stroke="black" d="M341.43,-393.71C361.78,-388.5 390.25,-380.29 414.08,-370 448.44,-355.16 454.51,-346.44 487.08,-328 494.43,-323.84 502.25,-319.45 509.84,-315.2"/>
<polygon fill="black" stroke="black" points="511.3,-318.4 518.33,-310.47 507.89,-312.29 511.3,-318.4"/>
</a>
</g>
</g>
<!-- github.com/guild&#45;framework/guild&#45;core/internal/buildutil/ui.SummaryCard -->
<g id="node17" class="node">
<title>github.com/guild&#45;framework/guild&#45;core/internal/buildutil/ui.SummaryCard</title>
<g id="a_node17"><a xlink:title="github.com/guild&#45;framework/guild&#45;core/internal/buildutil/ui.SummaryCard | defined in widgets.go:145&#10;at widgets.go:146: calling [github.com/guild&#45;framework/guild&#45;core/internal/buildutil/ui.SummaryCardWithStatus]">
<path fill="lightblue" stroke="black" stroke-width="1.5" d="M128.29,-601C128.29,-601 28,-601 28,-601 22,-601 16,-595 16,-589 16,-589 16,-577 16,-577 16,-571 22,-565 28,-565 28,-565 128.29,-565 128.29,-565 134.29,-565 140.29,-571 140.29,-577 140.29,-577 140.29,-589 140.29,-589 140.29,-595 134.29,-601 128.29,-601"/>
<text xml:space="preserve" text-anchor="middle" x="78.14" y="-578.33" font-family="Verdana" font-size="14.00">SummaryCard</text>
</a>
</g>
</g>
<!-- github.com/guild&#45;framework/guild&#45;core/internal/buildutil/ui.SummaryCard&#45;&gt;github.com/guild&#45;framework/guild&#45;core/internal/buildutil/ui.SummaryCardWithStatus -->
<g id="edge20" class="edge">
<title>github.com/guild&#45;framework/guild&#45;core/internal/buildutil/ui.SummaryCard&#45;&gt;github.com/guild&#45;framework/guild&#45;core/internal/buildutil/ui.SummaryCardWithStatus</title>
<g id="a_edge20"><a xlink:title="at widgets.go:146: calling [github.com/guild&#45;framework/guild&#45;core/internal/buildutil/ui.SummaryCardWithStatus]">
<path fill="none" stroke="black" d="M140.81,-583C159.4,-583 180.4,-583 201.18,-583"/>
<polygon fill="black" stroke="black" points="201.17,-586.5 211.17,-583 201.17,-579.5 201.17,-586.5"/>
</a>
</g>
</g>
<!-- github.com/guild&#45;framework/guild&#45;core/internal/buildutil/ui.TaskFail -->
<g id="node18" class="node">
<title>github.com/guild&#45;framework/guild&#45;core/internal/buildutil/ui.TaskFail</title>
<g id="a_node18"><a xlink:title="github.com/guild&#45;framework/guild&#45;core/internal/buildutil/ui.TaskFail | defined in widgets.go:112&#10;at widgets.go:113: calling [github.com/guild&#45;framework/guild&#45;core/internal/buildutil/ui.ColourEnabled]">
<path fill="lightblue" stroke="black" stroke-width="1.5" d="M340.2,-174C340.2,-174 287.16,-174 287.16,-174 281.16,-174 275.16,-168 275.16,-162 275.16,-162 275.16,-150 275.16,-150 275.16,-144 281.16,-138 287.16,-138 287.16,-138 340.2,-138 340.2,-138 346.2,-138 352.2,-144 352.2,-150 352.2,-150 352.2,-162 352.2,-162 352.2,-168 346.2,-174 340.2,-174"/>
<text xml:space="preserve" text-anchor="middle" x="313.68" y="-151.32" font-family="Verdana" font-size="14.00">TaskFail</text>
</a>
</g>
</g>
<!-- github.com/guild&#45;framework/guild&#45;core/internal/buildutil/ui.TaskFail&#45;&gt;github.com/guild&#45;framework/guild&#45;core/internal/buildutil/ui.ColourEnabled -->
<g id="edge21" class="edge">
<title>github.com/guild&#45;framework/guild&#45;core/internal/buildutil/ui.TaskFail&#45;&gt;github.com/guild&#45;framework/guild&#45;core/internal/buildutil/ui.ColourEnabled</title>
<g id="a_edge21"><a xlink:title="at widgets.go:113: calling [github.com/guild&#45;framework/guild&#45;core/internal/buildutil/ui.ColourEnabled]">
<path fill="none" stroke="black" d="M352.68,-164.61C371.71,-169.72 394.76,-177.14 414.08,-187 455.64,-208.2 497.82,-241.7 524.73,-264.93"/>
<polygon fill="black" stroke="black" points="522.27,-267.43 532.1,-271.38 526.88,-262.16 522.27,-267.43"/>
</a>
</g>
</g>
<!-- github.com/guild&#45;framework/guild&#45;core/internal/buildutil/ui.Warning -->
<g id="node19" class="node">
<title>github.com/guild&#45;framework/guild&#45;core/internal/buildutil/ui.Warning</title>
<g id="a_node19"><a xlink:title="github.com/guild&#45;framework/guild&#45;core/internal/buildutil/ui.Warning | defined in widgets.go:133&#10;at widgets.go:137: calling [github.com/guild&#45;framework/guild&#45;core/internal/buildutil/ui.ColourEnabled]">
<path fill="lightblue" stroke="black" stroke-width="1.5" d="M342.45,-235C342.45,-235 284.91,-235 284.91,-235 278.91,-235 272.91,-229 272.91,-223 272.91,-223 272.91,-211 272.91,-211 272.91,-205 278.91,-199 284.91,-199 284.91,-199 342.45,-199 342.45,-199 348.45,-199 354.45,-205 354.45,-211 354.45,-211 354.45,-223 354.45,-223 354.45,-229 348.45,-235 342.45,-235"/>
<text xml:space="preserve" text-anchor="middle" x="313.68" y="-212.32" font-family="Verdana" font-size="14.00">Warning</text>
</a>
</g>
</g>
<!-- github.com/guild&#45;framework/guild&#45;core/internal/buildutil/ui.Warning&#45;&gt;github.com/guild&#45;framework/guild&#45;core/internal/buildutil/ui.ColourEnabled -->
<g id="edge7" class="edge">
<title>github.com/guild&#45;framework/guild&#45;core/internal/buildutil/ui.Warning&#45;&gt;github.com/guild&#45;framework/guild&#45;core/internal/buildutil/ui.ColourEnabled</title>
<g id="a_edge7"><a xlink:title="at widgets.go:137: calling [github.com/guild&#45;framework/guild&#45;core/internal/buildutil/ui.ColourEnabled]">
<path fill="none" stroke="black" d="M355.19,-229.55C389.88,-240.3 440.65,-256.04 482.14,-268.89"/>
<polygon fill="black" stroke="black" points="480.98,-272.2 491.57,-271.82 483.05,-265.51 480.98,-272.2"/>
</a>
</g>
</g>
</g>
</svg>
