<?xml version="1.0" encoding="UTF-8" standalone="no"?>
<!DOCTYPE svg PUBLIC "-//W3C//DTD SVG 1.1//EN"
 "http://www.w3.org/Graphics/SVG/1.1/DTD/svg11.dtd">
<!-- Generated by graphviz version 14.1.1 (20251213.1925)
 -->
<!-- Title: gocallvis Pages: 1 -->
<svg width="1596pt" height="549pt"
 viewBox="0.00 0.00 1596.00 549.00" xmlns="http://www.w3.org/2000/svg" xmlns:xlink="http://www.w3.org/1999/xlink">
<g id="graph0" class="graph" transform="scale(1 1) rotate(0) translate(0 549)">
<title>gocallvis</title>
<polygon fill="lightgray" stroke="none" points="0,0 0,-549 1596.24,-549 1596.24,0 0,0"/>
<g id="clust1" class="cluster">
<title>cluster_focus</title>
<polygon fill="#e6ecfa" stroke="black" stroke-width="0.5" points="8,-8 8,-541 1588.24,-541 1588.24,-8 8,-8"/>
<text xml:space="preserve" text-anchor="middle" x="798.12" y="-519.9" font-family="Arial" font-size="18.00">daemonconn</text>
</g>
<g id="clust2" class="cluster">
<title>cluster_github.com/guild&#45;framework/guild&#45;core/pkg/gerror</title>
<g id="a_clust2"><a xlink:href="/?f=github.com/guild-framework/guild-core/pkg/gerror" xlink:title="package: github.com/guild&#45;framework/guild&#45;core/pkg/gerror">
<polygon fill="lightyellow" stroke="black" stroke-width="0.8" points="1331.95,-146 1331.95,-409 1580.24,-409 1580.24,-146 1331.95,-146"/>
<text xml:space="preserve" text-anchor="middle" x="1456.09" y="-389.8" font-family="Tahoma bold" font-size="16.00">gerror</text>
</a>
</g>
</g>
<g id="clust3" class="cluster">
<title>cluster_github.com/guild&#45;framework/guild&#45;core/pkg/paths</title>
<g id="a_clust3"><a xlink:href="/?f=github.com/guild-framework/guild-core/pkg/paths" xlink:title="package: github.com/guild&#45;framework/guild&#45;core/pkg/paths">
<polygon fill="lightyellow" stroke="black" stroke-width="0.8" points="911.87,-35 911.87,-115 1092.66,-115 1092.66,-35 911.87,-35"/>
<text xml:space="preserve" text-anchor="middle" x="1002.26" y="-95.8" font-family="Tahoma bold" font-size="16.00">paths</text>
</a>
</g>
</g>
<!-- github.com/guild&#45;framework/guild&#45;core/internal/daemonconn.connectTCP -->
<g id="node1" class="node">
<title>github.com/guild&#45;framework/guild&#45;core/internal/daemonconn.connectTCP</title>
<g id="a_node1"><a xlink:title="github.com/guild&#45;framework/guild&#45;core/internal/daemonconn.connectTCP | defined in discover.go:142&#10;at discover.go:154: calling [(*github.com/guild&#45;framework/guild&#45;core/pkg/gerror.GuildError).WithDetails]&#10;at discover.go:151: calling [github.com/guild&#45;framework/guild&#45;core/pkg/gerror.Wrap]&#10;at discover.go:152: calling [(*github.com/guild&#45;framework/guild&#45;core/pkg/gerror.GuildError).WithComponent]&#10;at discover.go:153: calling [(*github.com/guild&#45;framework/guild&#45;core/pkg/gerror.GuildError).WithOperation]">
<path fill="lightblue" stroke="black" stroke-width="0.5" d="M1252.32,-295C1252.32,-295 1172.28,-295 1172.28,-295 1166.28,-295 1160.28,-289 1160.28,-283 1160.28,-283 1160.28,-271 1160.28,-271 1160.28,-265 1166.28,-259 1172.28,-259 1172.28,-259 1252.32,-259 1252.32,-259 1258.32,-259 1264.32,-265 1264.32,-271 1264.32,-271 1264.32,-283 1264.32,-283 1264.32,-289 1258.32,-295 1252.32,-295"/>
<text xml:space="preserve" text-anchor="middle" x="1212.3" y="-272.32" font-family="Verdana" font-size="14.00">connectTCP</text>
</a>
</g>
</g>
<!-- github.com/guild&#45;framework/guild&#45;core/pkg/gerror.Wrap -->
<g id="node10" class="node">
<title>github.com/guild&#45;framework/guild&#45;core/pkg/gerror.Wrap</title>
<g id="a_node10"><a xlink:title="github.com/guild&#45;framework/guild&#45;core/pkg/gerror.Wrap | defined in errors.go:223">
<path fill="moccasin" stroke="black" stroke-width="1.5" d="M1473.99,-190C1473.99,-190 1438.2,-190 1438.2,-190 1432.2,-190 1426.2,-184 1426.2,-178 1426.2,-178 1426.2,-166 1426.2,-166 1426.2,-160 1432.2,-154 1438.2,-154 1438.2,-154 1473.99,-154 1473.99,-154 1479.99,-154 1485.99,-160 1485.99,-166 1485.99,-166 1485.99,-178 1485.99,-178 1485.99,-184 1479.99,-190 1473.99,-190"/>
<text xml:space="preserve" text-anchor="middle" x="1456.09" y="-167.32" font-family="Verdana" font-size="14.00">Wrap</text>
</a>
</g>
</g>
<!-- github.com/guild&#45;framework/guild&#45;core/internal/daemonconn.connectTCP&#45;&gt;github.com/guild&#45;framework/guild&#45;core/pkg/gerror.Wrap -->
<g id="edge8" class="edge">
<title>github.com/guild&#45;framework/guild&#45;core/internal/daemonconn.connectTCP&#45;&gt;github.com/guild&#45;framework/guild&#45;core/pkg/gerror.Wrap</title>
<g id="a_edge8"><a xlink:title="at discover.go:151: calling [github.com/guild&#45;framework/guild&#45;core/pkg/gerror.Wrap]">
<path fill="none" stroke="saddlebrown" d="M1237.08,-259.05C1260.2,-242.37 1296.88,-217.92 1331.95,-203 1358.48,-191.71 1390.05,-183.87 1414.58,-178.89"/>
<polygon fill="saddlebrown" stroke="saddlebrown" points="1415.02,-182.37 1424.17,-177.03 1413.68,-175.5 1415.02,-182.37"/>
</a>
</g>
</g>
<!-- (*github.com/guild&#45;framework/guild&#45;core/pkg/gerror.GuildError).WithComponent -->
<g id="node11" class="node">
<title>(*github.com/guild&#45;framework/guild&#45;core/pkg/gerror.GuildError).WithComponent</title>
<g id="a_node11"><a xlink:title="(*github.com/guild&#45;framework/guild&#45;core/pkg/gerror.GuildError).WithComponent | defined in errors.go:156">
<path fill="moccasin" stroke="black" stroke-width="1.5" d="M1560.24,-373C1560.24,-373 1351.95,-373 1351.95,-373 1345.95,-373 1339.95,-367 1339.95,-361 1339.95,-361 1339.95,-349 1339.95,-349 1339.95,-343 1345.95,-337 1351.95,-337 1351.95,-337 1560.24,-337 1560.24,-337 1566.24,-337 1572.24,-343 1572.24,-349 1572.24,-349 1572.24,-361 1572.24,-361 1572.24,-367 1566.24,-373 1560.24,-373"/>
<text xml:space="preserve" text-anchor="middle" x="1456.09" y="-350.32" font-family="Verdana" font-size="14.00">(*GuildError).WithComponent</text>
</a>
</g>
</g>
<!-- github.com/guild&#45;framework/guild&#45;core/internal/daemonconn.connectTCP&#45;&gt;(*github.com/guild&#45;framework/guild&#45;core/pkg/gerror.GuildError).WithComponent -->
<g id="edge9" class="edge">
<title>github.com/guild&#45;framework/guild&#45;core/internal/daemonconn.connectTCP&#45;&gt;(*github.com/guild&#45;framework/guild&#45;core/pkg/gerror.GuildError).WithComponent</title>
<g id="a_edge9"><a xlink:title="at discover.go:152: calling [(*github.com/guild&#45;framework/guild&#45;core/pkg/gerror.GuildError).WithComponent]">
<path fill="none" stroke="saddlebrown" d="M1253.94,-295.15C1276.61,-304.84 1305.51,-316.48 1331.95,-325 1341.08,-327.94 1350.67,-330.75 1360.3,-333.39"/>
<polygon fill="saddlebrown" stroke="saddlebrown" points="1359.14,-336.7 1369.71,-335.9 1360.95,-329.94 1359.14,-336.7"/>
</a>
</g>
</g>
<!-- (*github.com/guild&#45;framework/guild&#45;core/pkg/gerror.GuildError).WithOperation -->
<g id="node12" class="node">
<title>(*github.com/guild&#45;framework/guild&#45;core/pkg/gerror.GuildError).WithOperation</title>
<g id="a_node12"><a xlink:title="(*github.com/guild&#45;framework/guild&#45;core/pkg/gerror.GuildError).WithOperation | defined in errors.go:162">
<path fill="moccasin" stroke="black" stroke-width="1.5" d="M1554.61,-251C1554.61,-251 1357.57,-251 1357.57,-251 1351.57,-251 1345.57,-245 1345.57,-239 1345.57,-239 1345.57,-227 1345.57,-227 1345.57,-221 1351.57,-215 1357.57,-215 1357.57,-215 1554.61,-215 1554.61,-215 1560.61,-215 1566.61,-221 1566.61,-227 1566.61,-227 1566.61,-239 1566.61,-239 1566.61,-245 1560.61,-251 1554.61,-251"/>
<text xml:space="preserve" text-anchor="middle" x="1456.09" y="-228.32" font-family="Verdana" font-size="14.00">(*GuildError).WithOperation</text>
</a>
</g>
</g>
<!-- github.com/guild&#45;framework/guild&#45;core/internal/daemonconn.connectTCP&#45;&gt;(*github.com/guild&#45;framework/guild&#45;core/pkg/gerror.GuildError).WithOperation -->
<g id="edge10" class="edge">
<title>github.com/guild&#45;framework/guild&#45;core/internal/daemonconn.connectTCP&#45;&gt;(*github.com/guild&#45;framework/guild&#45;core/pkg/gerror.GuildError).WithOperation</title>
<g id="a_edge10"><a xlink:title="at discover.go:153: calling [(*github.com/guild&#45;framework/guild&#45;core/pkg/gerror.GuildError).WithOperation]">
<path fill="none" stroke="saddlebrown" d="M1264.29,-267.72C1286.82,-263.62 1314.28,-258.63 1341.27,-253.71"/>
<polygon fill="saddlebrown" stroke="saddlebrown" points="1341.68,-257.2 1350.9,-251.96 1340.43,-250.31 1341.68,-257.2"/>
</a>
</g>
</g>
<!-- (*github.com/guild&#45;framework/guild&#45;core/pkg/gerror.GuildError).WithDetails -->
<g id="node13" class="node">
<title>(*github.com/guild&#45;framework/guild&#45;core/pkg/gerror.GuildError).WithDetails</title>
<g id="a_node13"><a xlink:title="(*github.com/guild&#45;framework/guild&#45;core/pkg/gerror.GuildError).WithDetails | defined in errors.go:147">
<path fill="moccasin" stroke="black" stroke-width="1.5" d="M1543.74,-312C1543.74,-312 1368.45,-312 1368.45,-312 1362.45,-312 1356.45,-306 1356.45,-300 1356.45,-300 1356.45,-288 1356.45,-288 1356.45,-282 1362.45,-276 1368.45,-276 1368.45,-276 1543.74,-276 1543.74,-276 1549.74,-276 1555.74,-282 1555.74,-288 1555.74,-288 1555.74,-300 1555.74,-300 1555.74,-306 1549.74,-312 1543.74,-312"/>
<text xml:space="preserve" text-anchor="middle" x="1456.09" y="-289.32" font-family="Verdana" font-size="14.00">(*GuildError).WithDetails</text>
</a>
</g>
</g>
<!-- github.com/guild&#45;framework/guild&#45;core/internal/daemonconn.connectTCP&#45;&gt;(*github.com/guild&#45;framework/guild&#45;core/pkg/gerror.GuildError).WithDetails -->
<g id="edge1" class="edge">
<title>github.com/guild&#45;framework/guild&#45;core/internal/daemonconn.connectTCP&#45;&gt;(*github.com/guild&#45;framework/guild&#45;core/pkg/gerror.GuildError).WithDetails</title>
<g id="a_edge1"><a xlink:title="at discover.go:154: calling [(*github.com/guild&#45;framework/guild&#45;core/pkg/gerror.GuildError).WithDetails]">
<path fill="none" stroke="saddlebrown" d="M1264.29,-280.58C1287.77,-282.24 1316.62,-284.26 1344.7,-286.24"/>
<polygon fill="saddlebrown" stroke="saddlebrown" points="1344.1,-289.7 1354.32,-286.91 1344.59,-282.72 1344.1,-289.7"/>
</a>
</g>
</g>
<!-- github.com/guild&#45;framework/guild&#45;core/internal/daemonconn.Discover -->
<g id="node2" class="node">
<title>github.com/guild&#45;framework/guild&#45;core/internal/daemonconn.Discover</title>
<g id="a_node2"><a xlink:title="github.com/guild&#45;framework/guild&#45;core/internal/daemonconn.Discover | defined in discover.go:35&#10;at discover.go:38: calling [github.com/guild&#45;framework/guild&#45;core/internal/daemonconn.connectTCP]&#10;at discover.go:69: calling [github.com/guild&#45;framework/guild&#45;core/internal/daemonconn.connectTCP]&#10;at discover.go:40: calling [github.com/guild&#45;framework/guild&#45;core/pkg/gerror.Wrap]&#10;at discover.go:71: calling [github.com/guild&#45;framework/guild&#45;core/pkg/gerror.Wrap]&#10;at discover.go:44: calling [(*github.com/guild&#45;framework/guild&#45;core/pkg/gerror.GuildError).WithDetails]&#10;at discover.go:75: calling [(*github.com/guild&#45;framework/guild&#45;core/pkg/gerror.GuildError).WithDetails]&#10;at discover.go:76: calling [(*github.com/guild&#45;framework/guild&#45;core/pkg/gerror.GuildError).WithDetails]&#10;at discover.go:56: calling [github.com/guild&#45;framework/guild&#45;core/internal/daemonconn.connectUnix]&#10;at discover.go:42: calling [(*github.com/guild&#45;framework/guild&#45;core/pkg/gerror.GuildError).WithComponent]&#10;at discover.go:73: calling [(*github.com/guild&#45;framework/guild&#45;core/pkg/gerror.GuildError).WithComponent]&#10;at discover.go:43: calling [(*github.com/guild&#45;framework/guild&#45;core/pkg/gerror.GuildError).WithOperation]&#10;at discover.go:74: calling [(*github.com/guild&#45;framework/guild&#45;core/pkg/gerror.GuildError).WithOperation]">
<path fill="lightblue" stroke="black" stroke-width="1.5" d="M1031.78,-251C1031.78,-251 972.74,-251 972.74,-251 966.74,-251 960.74,-245 960.74,-239 960.74,-239 960.74,-227 960.74,-227 960.74,-221 966.74,-215 972.74,-215 972.74,-215 1031.78,-215 1031.78,-215 1037.78,-215 1043.78,-221 1043.78,-227 1043.78,-227 1043.78,-239 1043.78,-239 1043.78,-245 1037.78,-251 1031.78,-251"/>
<text xml:space="preserve" text-anchor="middle" x="1002.26" y="-228.32" font-family="Verdana" font-size="14.00">Discover</text>
</a>
</g>
</g>
<!-- github.com/guild&#45;framework/guild&#45;core/internal/daemonconn.Discover&#45;&gt;github.com/guild&#45;framework/guild&#45;core/internal/daemonconn.connectTCP -->
<g id="edge13" class="edge">
<title>github.com/guild&#45;framework/guild&#45;core/internal/daemonconn.Discover&#45;&gt;github.com/guild&#45;framework/guild&#45;core/internal/daemonconn.connectTCP</title>
<g id="a_edge13"><a xlink:title="at discover.go:38: calling [github.com/guild&#45;framework/guild&#45;core/internal/daemonconn.connectTCP]&#10;at discover.go:69: calling [github.com/guild&#45;framework/guild&#45;core/internal/daemonconn.connectTCP]">
<path fill="none" stroke="black" d="M1044.37,-241.69C1074.26,-248.02 1115.26,-256.69 1149.15,-263.85"/>
<polygon fill="black" stroke="black" points="1148.36,-267.26 1158.86,-265.91 1149.8,-260.42 1148.36,-267.26"/>
</a>
</g>
</g>
<!-- github.com/guild&#45;framework/guild&#45;core/internal/daemonconn.connectUnix -->
<g id="node3" class="node">
<title>github.com/guild&#45;framework/guild&#45;core/internal/daemonconn.connectUnix</title>
<g id="a_node3"><a xlink:title="github.com/guild&#45;framework/guild&#45;core/internal/daemonconn.connectUnix | defined in discover.go:123&#10;at discover.go:132: calling [github.com/guild&#45;framework/guild&#45;core/pkg/gerror.Wrap]&#10;at discover.go:135: calling [(*github.com/guild&#45;framework/guild&#45;core/pkg/gerror.GuildError).WithDetails]&#10;at discover.go:133: calling [(*github.com/guild&#45;framework/guild&#45;core/pkg/gerror.GuildError).WithComponent]&#10;at discover.go:134: calling [(*github.com/guild&#45;framework/guild&#45;core/pkg/gerror.GuildError).WithOperation]">
<path fill="lightblue" stroke="black" stroke-width="0.5" d="M1254.95,-202C1254.95,-202 1169.66,-202 1169.66,-202 1163.66,-202 1157.66,-196 1157.66,-190 1157.66,-190 1157.66,-178 1157.66,-178 1157.66,-172 1163.66,-166 1169.66,-166 1169.66,-166 1254.95,-166 1254.95,-166 1260.95,-166 1266.95,-172 1266.95,-178 1266.95,-178 1266.95,-190 1266.95,-190 1266.95,-196 1260.95,-202 1254.95,-202"/>
<text xml:space="preserve" text-anchor="middle" x="1212.3" y="-179.32" font-family="Verdana" font-size="14.00">connectUnix</text>
</a>
</g>
</g>
<!-- github.com/guild&#45;framework/guild&#45;core/internal/daemonconn.Discover&#45;&gt;github.com/guild&#45;framework/guild&#45;core/internal/daemonconn.connectUnix -->
<g id="edge21" class="edge">
<title>github.com/guild&#45;framework/guild&#45;core/internal/daemonconn.Discover&#45;&gt;github.com/guild&#45;framework/guild&#45;core/internal/daemonconn.connectUnix</title>
<g id="a_edge21"><a xlink:title="at discover.go:56: calling [github.com/guild&#45;framework/guild&#45;core/internal/daemonconn.connectUnix]">
<path fill="none" stroke="black" d="M1044.37,-223.32C1073.52,-216.45 1113.23,-207.1 1146.61,-199.24"/>
<polygon fill="black" stroke="black" points="1147.25,-202.68 1156.18,-196.98 1145.65,-195.87 1147.25,-202.68"/>
</a>
</g>
</g>
<!-- github.com/guild&#45;framework/guild&#45;core/internal/daemonconn.Discover&#45;&gt;github.com/guild&#45;framework/guild&#45;core/pkg/gerror.Wrap -->
<g id="edge14" class="edge">
<title>github.com/guild&#45;framework/guild&#45;core/internal/daemonconn.Discover&#45;&gt;github.com/guild&#45;framework/guild&#45;core/pkg/gerror.Wrap</title>
<g id="a_edge14"><a xlink:title="at discover.go:40: calling [github.com/guild&#45;framework/guild&#45;core/pkg/gerror.Wrap]&#10;at discover.go:71: calling [github.com/guild&#45;framework/guild&#45;core/pkg/gerror.Wrap]">
<path fill="none" stroke="saddlebrown" d="M1044.09,-214.64C1059.45,-207.52 1076.98,-199.13 1092.66,-191 1122.17,-175.7 1126,-164.15 1157.66,-154 1219.9,-134.05 1238.97,-131.99 1303.95,-139 1341.95,-143.1 1384.42,-152.84 1414.63,-160.68"/>
<polygon fill="saddlebrown" stroke="saddlebrown" points="1413.55,-164.02 1424.12,-163.19 1415.34,-157.25 1413.55,-164.02"/>
</a>
</g>
</g>
<!-- github.com/guild&#45;framework/guild&#45;core/internal/daemonconn.Discover&#45;&gt;(*github.com/guild&#45;framework/guild&#45;core/pkg/gerror.GuildError).WithComponent -->
<g id="edge25" class="edge">
<title>github.com/guild&#45;framework/guild&#45;core/internal/daemonconn.Discover&#45;&gt;(*github.com/guild&#45;framework/guild&#45;core/pkg/gerror.GuildError).WithComponent</title>
<g id="a_edge25"><a xlink:title="at discover.go:42: calling [(*github.com/guild&#45;framework/guild&#45;core/pkg/gerror.GuildError).WithComponent]&#10;at discover.go:73: calling [(*github.com/guild&#45;framework/guild&#45;core/pkg/gerror.GuildError).WithComponent]">
<path fill="none" stroke="saddlebrown" d="M1031.59,-251.62C1054.99,-266.64 1089.33,-287.85 1120.66,-304 1184.32,-336.82 1263.22,-349.95 1328.39,-354.69"/>
<polygon fill="saddlebrown" stroke="saddlebrown" points="1327.84,-358.16 1338.05,-355.33 1328.3,-351.18 1327.84,-358.16"/>
</a>
</g>
</g>
<!-- github.com/guild&#45;framework/guild&#45;core/internal/daemonconn.Discover&#45;&gt;(*github.com/guild&#45;framework/guild&#45;core/pkg/gerror.GuildError).WithOperation -->
<g id="edge26" class="edge">
<title>github.com/guild&#45;framework/guild&#45;core/internal/daemonconn.Discover&#45;&gt;(*github.com/guild&#45;framework/guild&#45;core/pkg/gerror.GuildError).WithOperation</title>
<g id="a_edge26"><a xlink:title="at discover.go:43: calling [(*github.com/guild&#45;framework/guild&#45;core/pkg/gerror.GuildError).WithOperation]&#10;at discover.go:74: calling [(*github.com/guild&#45;framework/guild&#45;core/pkg/gerror.GuildError).WithOperation]">
<path fill="none" stroke="saddlebrown" d="M1044.16,-233C1108.94,-233 1237.65,-233 1333.85,-233"/>
<polygon fill="saddlebrown" stroke="saddlebrown" points="1333.61,-236.5 1343.61,-233 1333.61,-229.5 1333.61,-236.5"/>
</a>
</g>
</g>
<!-- github.com/guild&#45;framework/guild&#45;core/internal/daemonconn.Discover&#45;&gt;(*github.com/guild&#45;framework/guild&#45;core/pkg/gerror.GuildError).WithDetails -->
<g id="edge15" class="edge">
<title>github.com/guild&#45;framework/guild&#45;core/internal/daemonconn.Discover&#45;&gt;(*github.com/guild&#45;framework/guild&#45;core/pkg/gerror.GuildError).WithDetails</title>
<g id="a_edge15"><a xlink:title="at discover.go:44: calling [(*github.com/guild&#45;framework/guild&#45;core/pkg/gerror.GuildError).WithDetails]&#10;at discover.go:75: calling [(*github.com/guild&#45;framework/guild&#45;core/pkg/gerror.GuildError).WithDetails]&#10;at discover.go:76: calling [(*github.com/guild&#45;framework/guild&#45;core/pkg/gerror.GuildError).WithDetails]">
<path fill="none" stroke="saddlebrown" d="M1031.68,-251.7C1061.59,-270.19 1110.76,-297.21 1157.66,-308 1218.47,-321.99 1288.06,-319.67 1344.63,-313.32"/>
<polygon fill="saddlebrown" stroke="saddlebrown" points="1344.74,-316.83 1354.26,-312.18 1343.92,-309.88 1344.74,-316.83"/>
</a>
</g>
</g>
<!-- github.com/guild&#45;framework/guild&#45;core/internal/daemonconn.connectUnix&#45;&gt;github.com/guild&#45;framework/guild&#45;core/pkg/gerror.Wrap -->
<g id="edge2" class="edge">
<title>github.com/guild&#45;framework/guild&#45;core/internal/daemonconn.connectUnix&#45;&gt;github.com/guild&#45;framework/guild&#45;core/pkg/gerror.Wrap</title>
<g id="a_edge2"><a xlink:title="at discover.go:132: calling [github.com/guild&#45;framework/guild&#45;core/pkg/gerror.Wrap]">
<path fill="none" stroke="saddlebrown" d="M1246.28,-165.78C1262.76,-157.69 1283.34,-149.08 1302.95,-145 1340.73,-137.14 1384.08,-146.63 1414.82,-156.47"/>
<polygon fill="saddlebrown" stroke="saddlebrown" points="1413.52,-159.72 1424.11,-159.59 1415.75,-153.08 1413.52,-159.72"/>
</a>
</g>
</g>
<!-- github.com/guild&#45;framework/guild&#45;core/internal/daemonconn.connectUnix&#45;&gt;(*github.com/guild&#45;framework/guild&#45;core/pkg/gerror.GuildError).WithComponent -->
<g id="edge20" class="edge">
<title>github.com/guild&#45;framework/guild&#45;core/internal/daemonconn.connectUnix&#45;&gt;(*github.com/guild&#45;framework/guild&#45;core/pkg/gerror.GuildError).WithComponent</title>
<g id="a_edge20"><a xlink:title="at discover.go:133: calling [(*github.com/guild&#45;framework/guild&#45;core/pkg/gerror.GuildError).WithComponent]">
<path fill="none" stroke="saddlebrown" d="M1228.85,-202.15C1239.59,-214.72 1254.18,-231.84 1266.95,-247 1296.02,-281.51 1293.66,-301.13 1331.95,-325 1335.78,-327.39 1339.79,-329.59 1343.92,-331.61"/>
<polygon fill="saddlebrown" stroke="saddlebrown" points="1342.47,-334.79 1353.02,-335.67 1345.31,-328.4 1342.47,-334.79"/>
</a>
</g>
</g>
<!-- github.com/guild&#45;framework/guild&#45;core/internal/daemonconn.connectUnix&#45;&gt;(*github.com/guild&#45;framework/guild&#45;core/pkg/gerror.GuildError).WithOperation -->
<g id="edge28" class="edge">
<title>github.com/guild&#45;framework/guild&#45;core/internal/daemonconn.connectUnix&#45;&gt;(*github.com/guild&#45;framework/guild&#45;core/pkg/gerror.GuildError).WithOperation</title>
<g id="a_edge28"><a xlink:title="at discover.go:134: calling [(*github.com/guild&#45;framework/guild&#45;core/pkg/gerror.GuildError).WithOperation]">
<path fill="none" stroke="saddlebrown" d="M1267.08,-192.38C1279.23,-194.41 1292.05,-196.68 1303.95,-199 1323.77,-202.87 1344.97,-207.39 1365.03,-211.85"/>
<polygon fill="saddlebrown" stroke="saddlebrown" points="1364.05,-215.22 1374.57,-213.99 1365.58,-208.39 1364.05,-215.22"/>
</a>
</g>
</g>
<!-- github.com/guild&#45;framework/guild&#45;core/internal/daemonconn.connectUnix&#45;&gt;(*github.com/guild&#45;framework/guild&#45;core/pkg/gerror.GuildError).WithDetails -->
<g id="edge16" class="edge">
<title>github.com/guild&#45;framework/guild&#45;core/internal/daemonconn.connectUnix&#45;&gt;(*github.com/guild&#45;framework/guild&#45;core/pkg/gerror.GuildError).WithDetails</title>
<g id="a_edge16"><a xlink:title="at discover.go:135: calling [(*github.com/guild&#45;framework/guild&#45;core/pkg/gerror.GuildError).WithDetails]">
<path fill="none" stroke="saddlebrown" d="M1235.08,-202.19C1257.87,-220.36 1295.37,-247.83 1331.95,-264 1338.36,-266.83 1345.07,-269.42 1351.92,-271.79"/>
<polygon fill="saddlebrown" stroke="saddlebrown" points="1350.74,-275.08 1361.34,-274.86 1352.91,-268.43 1350.74,-275.08"/>
</a>
</g>
</g>
<!-- github.com/guild&#45;framework/guild&#45;core/internal/daemonconn.DiscoverForCampaign -->
<g id="node4" class="node">
<title>github.com/guild&#45;framework/guild&#45;core/internal/daemonconn.DiscoverForCampaign</title>
<g id="a_node4"><a xlink:title="github.com/guild&#45;framework/guild&#45;core/internal/daemonconn.DiscoverForCampaign | defined in discover.go:92&#10;at discover.go:100: calling [github.com/guild&#45;framework/guild&#45;core/pkg/paths.GetCampaignSocket]&#10;at discover.go:108: calling [github.com/guild&#45;framework/guild&#45;core/internal/daemonconn.connectUnix]&#10;at discover.go:95: calling [github.com/guild&#45;framework/guild&#45;core/internal/daemonconn.Discover]&#10;at discover.go:119: calling [github.com/guild&#45;framework/guild&#45;core/internal/daemonconn.Discover]">
<path fill="lightblue" stroke="black" stroke-width="1.5" d="M834.87,-169C834.87,-169 682.83,-169 682.83,-169 676.83,-169 670.83,-163 670.83,-157 670.83,-157 670.83,-145 670.83,-145 670.83,-139 676.83,-133 682.83,-133 682.83,-133 834.87,-133 834.87,-133 840.87,-133 846.87,-139 846.87,-145 846.87,-145 846.87,-157 846.87,-157 846.87,-163 840.87,-169 834.87,-169"/>
<text xml:space="preserve" text-anchor="middle" x="758.85" y="-146.32" font-family="Verdana" font-size="14.00">DiscoverForCampaign</text>
</a>
</g>
</g>
<!-- github.com/guild&#45;framework/guild&#45;core/internal/daemonconn.DiscoverForCampaign&#45;&gt;github.com/guild&#45;framework/guild&#45;core/internal/daemonconn.Discover -->
<g id="edge29" class="edge">
<title>github.com/guild&#45;framework/guild&#45;core/internal/daemonconn.DiscoverForCampaign&#45;&gt;github.com/guild&#45;framework/guild&#45;core/internal/daemonconn.Discover</title>
<g id="a_edge29"><a xlink:title="at discover.go:95: calling [github.com/guild&#45;framework/guild&#45;core/internal/daemonconn.Discover]&#10;at discover.go:119: calling [github.com/guild&#45;framework/guild&#45;core/internal/daemonconn.Discover]">
<path fill="none" stroke="black" d="M814.93,-169.71C855.38,-183.45 909.96,-201.99 949.59,-215.45"/>
<polygon fill="black" stroke="black" points="948.32,-218.71 958.91,-218.61 950.57,-212.08 948.32,-218.71"/>
</a>
</g>
</g>
<!-- github.com/guild&#45;framework/guild&#45;core/internal/daemonconn.DiscoverForCampaign&#45;&gt;github.com/guild&#45;framework/guild&#45;core/internal/daemonconn.connectUnix -->
<g id="edge27" class="edge">
<title>github.com/guild&#45;framework/guild&#45;core/internal/daemonconn.DiscoverForCampaign&#45;&gt;github.com/guild&#45;framework/guild&#45;core/internal/daemonconn.connectUnix</title>
<g id="a_edge27"><a xlink:title="at discover.go:108: calling [github.com/guild&#45;framework/guild&#45;core/internal/daemonconn.connectUnix]">
<path fill="none" stroke="black" d="M847.43,-157.4C935.05,-163.81 1067.78,-173.51 1146.39,-179.26"/>
<polygon fill="black" stroke="black" points="1145.85,-182.72 1156.08,-179.96 1146.36,-175.74 1145.85,-182.72"/>
</a>
</g>
</g>
<!-- github.com/guild&#45;framework/guild&#45;core/pkg/paths.GetCampaignSocket -->
<g id="node14" class="node">
<title>github.com/guild&#45;framework/guild&#45;core/pkg/paths.GetCampaignSocket</title>
<g id="a_node14"><a xlink:title="github.com/guild&#45;framework/guild&#45;core/pkg/paths.GetCampaignSocket | defined in run.go:50">
<path fill="moccasin" stroke="black" stroke-width="1.5" d="M1072.66,-79C1072.66,-79 931.87,-79 931.87,-79 925.87,-79 919.87,-73 919.87,-67 919.87,-67 919.87,-55 919.87,-55 919.87,-49 925.87,-43 931.87,-43 931.87,-43 1072.66,-43 1072.66,-43 1078.66,-43 1084.66,-49 1084.66,-55 1084.66,-55 1084.66,-67 1084.66,-67 1084.66,-73 1078.66,-79 1072.66,-79"/>
<text xml:space="preserve" text-anchor="middle" x="1002.26" y="-56.33" font-family="Verdana" font-size="14.00">GetCampaignSocket</text>
</a>
</g>
</g>
<!-- github.com/guild&#45;framework/guild&#45;core/internal/daemonconn.DiscoverForCampaign&#45;&gt;github.com/guild&#45;framework/guild&#45;core/pkg/paths.GetCampaignSocket -->
<g id="edge22" class="edge">
<title>github.com/guild&#45;framework/guild&#45;core/internal/daemonconn.DiscoverForCampaign&#45;&gt;github.com/guild&#45;framework/guild&#45;core/pkg/paths.GetCampaignSocket</title>
<g id="a_edge22"><a xlink:title="at discover.go:100: calling [github.com/guild&#45;framework/guild&#45;core/pkg/paths.GetCampaignSocket]">
<path fill="none" stroke="saddlebrown" d="M796.58,-132.33C824.78,-118.51 865.22,-99.77 911.48,-83.36"/>
<polygon fill="saddlebrown" stroke="saddlebrown" points="912.35,-86.76 920.64,-80.17 910.05,-80.15 912.35,-86.76"/>
</a>
</g>
</g>
<!-- (*github.com/guild&#45;framework/guild&#45;core/internal/daemonconn.Manager).attemptReconnect -->
<g id="node5" class="node">
<title>(*github.com/guild&#45;framework/guild&#45;core/internal/daemonconn.Manager).attemptReconnect</title>
<g id="a_node5"><a xlink:title="(*github.com/guild&#45;framework/guild&#45;core/internal/daemonconn.Manager).attemptReconnect | defined in manager.go:210&#10;at manager.go:227: calling [github.com/guild&#45;framework/guild&#45;core/internal/daemonconn.Discover]&#10;at manager.go:225: calling [github.com/guild&#45;framework/guild&#45;core/internal/daemonconn.DiscoverForCampaign]">
<path fill="lightblue" stroke="black" stroke-width="0.5" d="M574.58,-88C574.58,-88 361.04,-88 361.04,-88 355.04,-88 349.04,-82 349.04,-76 349.04,-76 349.04,-64 349.04,-64 349.04,-58 355.04,-52 361.04,-52 361.04,-52 574.58,-52 574.58,-52 580.58,-52 586.58,-58 586.58,-64 586.58,-64 586.58,-76 586.58,-76 586.58,-82 580.58,-88 574.58,-88"/>
<text xml:space="preserve" text-anchor="middle" x="467.81" y="-65.33" font-family="Verdana" font-size="14.00">(*Manager).attemptReconnect</text>
</a>
</g>
</g>
<!-- (*github.com/guild&#45;framework/guild&#45;core/internal/daemonconn.Manager).attemptReconnect&#45;&gt;github.com/guild&#45;framework/guild&#45;core/internal/daemonconn.Discover -->
<g id="edge3" class="edge">
<title>(*github.com/guild&#45;framework/guild&#45;core/internal/daemonconn.Manager).attemptReconnect&#45;&gt;github.com/guild&#45;framework/guild&#45;core/internal/daemonconn.Discover</title>
<g id="a_edge3"><a xlink:title="at manager.go:227: calling [github.com/guild&#45;framework/guild&#45;core/internal/daemonconn.Discover]">
<path fill="none" stroke="black" d="M570.45,-88.15C580.02,-91.7 589.32,-95.94 597.83,-101 639.48,-125.77 628.19,-158.97 670.83,-182 759.79,-230.05 880.65,-236.32 948.83,-235.43"/>
<polygon fill="black" stroke="black" points="948.68,-238.93 958.61,-235.23 948.54,-231.93 948.68,-238.93"/>
</a>
</g>
</g>
<!-- (*github.com/guild&#45;framework/guild&#45;core/internal/daemonconn.Manager).attemptReconnect&#45;&gt;github.com/guild&#45;framework/guild&#45;core/internal/daemonconn.DiscoverForCampaign -->
<g id="edge17" class="edge">
<title>(*github.com/guild&#45;framework/guild&#45;core/internal/daemonconn.Manager).attemptReconnect&#45;&gt;github.com/guild&#45;framework/guild&#45;core/internal/daemonconn.DiscoverForCampaign</title>
<g id="a_edge17"><a xlink:title="at manager.go:225: calling [github.com/guild&#45;framework/guild&#45;core/internal/daemonconn.DiscoverForCampaign]">
<path fill="none" stroke="black" d="M548.17,-88.18C564.64,-92.2 581.84,-96.59 597.83,-101 628.55,-109.48 662.27,-119.86 690.81,-128.95"/>
<polygon fill="black" stroke="black" points="689.44,-132.19 700.03,-131.91 691.57,-125.52 689.44,-132.19"/>
</a>
</g>
</g>
<!-- (*github.com/guild&#45;framework/guild&#45;core/internal/daemonconn.Manager).maintainConnection -->
<g id="node6" class="node">
<title>(*github.com/guild&#45;framework/guild&#45;core/internal/daemonconn.Manager).maintainConnection</title>
<g id="a_node6"><a xlink:title="(*github.com/guild&#45;framework/guild&#45;core/internal/daemonconn.Manager).maintainConnection | defined in manager.go:177&#10;at manager.go:190: calling [(*github.com/guild&#45;framework/guild&#45;core/internal/daemonconn.Manager).attemptReconnect]&#10;at manager.go:197: calling [(*github.com/guild&#45;framework/guild&#45;core/internal/daemonconn.Manager).attemptReconnect]&#10;at manager.go:195: calling [(*github.com/guild&#45;framework/guild&#45;core/internal/daemonconn.Manager).IsConnected]">
<path fill="lightblue" stroke="black" stroke-width="0.5" d="M252.79,-109C252.79,-109 28,-109 28,-109 22,-109 16,-103 16,-97 16,-97 16,-85 16,-85 16,-79 22,-73 28,-73 28,-73 252.79,-73 252.79,-73 258.79,-73 264.79,-79 264.79,-85 264.79,-85 264.79,-97 264.79,-97 264.79,-103 258.79,-109 252.79,-109"/>
<text xml:space="preserve" text-anchor="middle" x="140.39" y="-86.33" font-family="Verdana" font-size="14.00">(*Manager).maintainConnection</text>
</a>
</g>
</g>
<!-- (*github.com/guild&#45;framework/guild&#45;core/internal/daemonconn.Manager).maintainConnection&#45;&gt;(*github.com/guild&#45;framework/guild&#45;core/internal/daemonconn.Manager).attemptReconnect -->
<g id="edge11" class="edge">
<title>(*github.com/guild&#45;framework/guild&#45;core/internal/daemonconn.Manager).maintainConnection&#45;&gt;(*github.com/guild&#45;framework/guild&#45;core/internal/daemonconn.Manager).attemptReconnect</title>
<g id="a_edge11"><a xlink:title="at manager.go:190: calling [(*github.com/guild&#45;framework/guild&#45;core/internal/daemonconn.Manager).attemptReconnect]&#10;at manager.go:197: calling [(*github.com/guild&#45;framework/guild&#45;core/internal/daemonconn.Manager).attemptReconnect]">
<path fill="none" stroke="black" d="M264.88,-83.03C288.71,-81.49 313.73,-79.88 337.73,-78.33"/>
<polygon fill="black" stroke="black" points="337.78,-81.83 347.53,-77.7 337.33,-74.85 337.78,-81.83"/>
</a>
</g>
</g>
<!-- (*github.com/guild&#45;framework/guild&#45;core/internal/daemonconn.Manager).IsConnected -->
<g id="node7" class="node">
<title>(*github.com/guild&#45;framework/guild&#45;core/internal/daemonconn.Manager).IsConnected</title>
<g id="a_node7"><a xlink:title="(*github.com/guild&#45;framework/guild&#45;core/internal/daemonconn.Manager).IsConnected | defined in manager.go:117">
<path fill="lightblue" stroke="black" stroke-width="1.5" d="M554.7,-149C554.7,-149 380.91,-149 380.91,-149 374.91,-149 368.91,-143 368.91,-137 368.91,-137 368.91,-125 368.91,-125 368.91,-119 374.91,-113 380.91,-113 380.91,-113 554.7,-113 554.7,-113 560.7,-113 566.7,-119 566.7,-125 566.7,-125 566.7,-137 566.7,-137 566.7,-143 560.7,-149 554.7,-149"/>
<text xml:space="preserve" text-anchor="middle" x="467.81" y="-126.33" font-family="Verdana" font-size="14.00">(*Manager).IsConnected</text>
</a>
</g>
</g>
<!-- (*github.com/guild&#45;framework/guild&#45;core/internal/daemonconn.Manager).maintainConnection&#45;&gt;(*github.com/guild&#45;framework/guild&#45;core/internal/daemonconn.Manager).IsConnected -->
<g id="edge12" class="edge">
<title>(*github.com/guild&#45;framework/guild&#45;core/internal/daemonconn.Manager).maintainConnection&#45;&gt;(*github.com/guild&#45;framework/guild&#45;core/internal/daemonconn.Manager).IsConnected</title>
<g id="a_edge12"><a xlink:title="at manager.go:195: calling [(*github.com/guild&#45;framework/guild&#45;core/internal/daemonconn.Manager).IsConnected]">
<path fill="none" stroke="black" d="M264.88,-106.18C295.18,-109.9 327.4,-113.86 357,-117.5"/>
<polygon fill="black" stroke="black" points="356.35,-120.95 366.7,-118.69 357.2,-114 356.35,-120.95"/>
</a>
</g>
</g>
<!-- (*github.com/guild&#45;framework/guild&#45;core/internal/daemonconn.Manager).ConnectForCampaign -->
<g id="node8" class="node">
<title>(*github.com/guild&#45;framework/guild&#45;core/internal/daemonconn.Manager).ConnectForCampaign</title>
<g id="a_node8"><a xlink:title="(*github.com/guild&#45;framework/guild&#45;core/internal/daemonconn.Manager).ConnectForCampaign | defined in manager.go:80&#10;at manager.go:83: calling [github.com/guild&#45;framework/guild&#45;core/pkg/gerror.Wrap]&#10;at manager.go:86: calling [(*github.com/guild&#45;framework/guild&#45;core/pkg/gerror.GuildError).WithDetails]&#10;at manager.go:84: calling [(*github.com/guild&#45;framework/guild&#45;core/pkg/gerror.GuildError).WithComponent]&#10;at manager.go:85: calling [(*github.com/guild&#45;framework/guild&#45;core/pkg/gerror.GuildError).WithOperation]&#10;at manager.go:81: calling [github.com/guild&#45;framework/guild&#45;core/internal/daemonconn.DiscoverForCampaign]">
<path fill="lightblue" stroke="black" stroke-width="1.5" d="M585.83,-210C585.83,-210 349.79,-210 349.79,-210 343.79,-210 337.79,-204 337.79,-198 337.79,-198 337.79,-186 337.79,-186 337.79,-180 343.79,-174 349.79,-174 349.79,-174 585.83,-174 585.83,-174 591.83,-174 597.83,-180 597.83,-186 597.83,-186 597.83,-198 597.83,-198 597.83,-204 591.83,-210 585.83,-210"/>
<text xml:space="preserve" text-anchor="middle" x="467.81" y="-187.32" font-family="Verdana" font-size="14.00">(*Manager).ConnectForCampaign</text>
</a>
</g>
</g>
<!-- (*github.com/guild&#45;framework/guild&#45;core/internal/daemonconn.Manager).ConnectForCampaign&#45;&gt;github.com/guild&#45;framework/guild&#45;core/internal/daemonconn.DiscoverForCampaign -->
<g id="edge30" class="edge">
<title>(*github.com/guild&#45;framework/guild&#45;core/internal/daemonconn.Manager).ConnectForCampaign&#45;&gt;github.com/guild&#45;framework/guild&#45;core/internal/daemonconn.DiscoverForCampaign</title>
<g id="a_edge30"><a xlink:title="at manager.go:81: calling [github.com/guild&#45;framework/guild&#45;core/internal/daemonconn.DiscoverForCampaign]">
<path fill="none" stroke="black" d="M598.53,-173.6C618.86,-170.72 639.58,-167.78 659.06,-165.01"/>
<polygon fill="black" stroke="black" points="659.47,-168.49 668.87,-163.62 658.48,-161.56 659.47,-168.49"/>
</a>
</g>
</g>
<!-- (*github.com/guild&#45;framework/guild&#45;core/internal/daemonconn.Manager).ConnectForCampaign&#45;&gt;github.com/guild&#45;framework/guild&#45;core/pkg/gerror.Wrap -->
<g id="edge4" class="edge">
<title>(*github.com/guild&#45;framework/guild&#45;core/internal/daemonconn.Manager).ConnectForCampaign&#45;&gt;github.com/guild&#45;framework/guild&#45;core/pkg/gerror.Wrap</title>
<g id="a_edge4"><a xlink:title="at manager.go:83: calling [github.com/guild&#45;framework/guild&#45;core/pkg/gerror.Wrap]">
<path fill="none" stroke="saddlebrown" d="M563.47,-173.26C575.2,-169.98 586.9,-166.24 597.83,-162 632.52,-148.54 634.85,-130.5 670.83,-121 676.49,-119.5 1086.8,-119.1 1092.66,-119 1121.56,-118.49 1128.76,-117.44 1157.66,-117 1206.23,-116.25 1218.8,-110.61 1266.95,-117 1319.45,-123.97 1377.66,-142.79 1415.23,-156.48"/>
<polygon fill="saddlebrown" stroke="saddlebrown" points="1413.71,-159.65 1424.3,-159.84 1416.14,-153.09 1413.71,-159.65"/>
</a>
</g>
</g>
<!-- (*github.com/guild&#45;framework/guild&#45;core/internal/daemonconn.Manager).ConnectForCampaign&#45;&gt;(*github.com/guild&#45;framework/guild&#45;core/pkg/gerror.GuildError).WithComponent -->
<g id="edge7" class="edge">
<title>(*github.com/guild&#45;framework/guild&#45;core/internal/daemonconn.Manager).ConnectForCampaign&#45;&gt;(*github.com/guild&#45;framework/guild&#45;core/pkg/gerror.GuildError).WithComponent</title>
<g id="a_edge7"><a xlink:title="at manager.go:84: calling [(*github.com/guild&#45;framework/guild&#45;core/pkg/gerror.GuildError).WithComponent]">
<path fill="none" stroke="saddlebrown" d="M475.4,-210.52C500.55,-277.48 597.16,-503 757.85,-503 757.85,-503 757.85,-503 1213.3,-503 1304.93,-503 1391.17,-424.73 1431.39,-382.03"/>
<polygon fill="saddlebrown" stroke="saddlebrown" points="1433.8,-384.58 1438.01,-374.86 1428.66,-379.83 1433.8,-384.58"/>
</a>
</g>
</g>
<!-- (*github.com/guild&#45;framework/guild&#45;core/internal/daemonconn.Manager).ConnectForCampaign&#45;&gt;(*github.com/guild&#45;framework/guild&#45;core/pkg/gerror.GuildError).WithOperation -->
<g id="edge18" class="edge">
<title>(*github.com/guild&#45;framework/guild&#45;core/internal/daemonconn.Manager).ConnectForCampaign&#45;&gt;(*github.com/guild&#45;framework/guild&#45;core/pkg/gerror.GuildError).WithOperation</title>
<g id="a_edge18"><a xlink:title="at manager.go:85: calling [(*github.com/guild&#45;framework/guild&#45;core/pkg/gerror.GuildError).WithOperation]">
<path fill="none" stroke="saddlebrown" d="M571.29,-173.32C580.49,-170.12 589.48,-166.37 597.83,-162 640.34,-139.74 709.86,-17 757.85,-17 757.85,-17 757.85,-17 883.87,-17 976.82,-17 1005.03,1.98 1092.66,-29 1182.53,-60.77 1190.15,-97.53 1266.95,-154 1296.1,-175.43 1299.26,-187.51 1331.95,-203 1337.81,-205.78 1343.95,-208.31 1350.24,-210.62"/>
<polygon fill="saddlebrown" stroke="saddlebrown" points="1348.89,-213.86 1359.48,-213.81 1351.17,-207.24 1348.89,-213.86"/>
</a>
</g>
</g>
<!-- (*github.com/guild&#45;framework/guild&#45;core/internal/daemonconn.Manager).ConnectForCampaign&#45;&gt;(*github.com/guild&#45;framework/guild&#45;core/pkg/gerror.GuildError).WithDetails -->
<g id="edge5" class="edge">
<title>(*github.com/guild&#45;framework/guild&#45;core/internal/daemonconn.Manager).ConnectForCampaign&#45;&gt;(*github.com/guild&#45;framework/guild&#45;core/pkg/gerror.GuildError).WithDetails</title>
<g id="a_edge5"><a xlink:title="at manager.go:86: calling [(*github.com/guild&#45;framework/guild&#45;core/pkg/gerror.GuildError).WithDetails]">
<path fill="none" stroke="saddlebrown" d="M479.68,-210.43C513.41,-265.01 622.22,-422 757.85,-422 757.85,-422 757.85,-422 1213.3,-422 1281.42,-422 1271.1,-355.6 1331.95,-325 1338.15,-321.88 1344.7,-319.06 1351.4,-316.51"/>
<polygon fill="saddlebrown" stroke="saddlebrown" points="1352.36,-319.88 1360.61,-313.23 1350.02,-313.29 1352.36,-319.88"/>
</a>
</g>
</g>
<!-- (*github.com/guild&#45;framework/guild&#45;core/internal/daemonconn.Manager).Connect -->
<g id="node9" class="node">
<title>(*github.com/guild&#45;framework/guild&#45;core/internal/daemonconn.Manager).Connect</title>
<g id="a_node9"><a xlink:title="(*github.com/guild&#45;framework/guild&#45;core/internal/daemonconn.Manager).Connect | defined in manager.go:52&#10;at manager.go:56: calling [(*github.com/guild&#45;framework/guild&#45;core/pkg/gerror.GuildError).WithComponent]&#10;at manager.go:53: calling [github.com/guild&#45;framework/guild&#45;core/internal/daemonconn.Discover]&#10;at manager.go:57: calling [(*github.com/guild&#45;framework/guild&#45;core/pkg/gerror.GuildError).WithOperation]&#10;at manager.go:55: calling [github.com/guild&#45;framework/guild&#45;core/pkg/gerror.Wrap]">
<path fill="lightblue" stroke="black" stroke-width="1.5" d="M830.37,-356C830.37,-356 687.33,-356 687.33,-356 681.33,-356 675.33,-350 675.33,-344 675.33,-344 675.33,-332 675.33,-332 675.33,-326 681.33,-320 687.33,-320 687.33,-320 830.37,-320 830.37,-320 836.37,-320 842.37,-326 842.37,-332 842.37,-332 842.37,-344 842.37,-344 842.37,-350 836.37,-356 830.37,-356"/>
<text xml:space="preserve" text-anchor="middle" x="758.85" y="-333.32" font-family="Verdana" font-size="14.00">(*Manager).Connect</text>
</a>
</g>
</g>
<!-- (*github.com/guild&#45;framework/guild&#45;core/internal/daemonconn.Manager).Connect&#45;&gt;github.com/guild&#45;framework/guild&#45;core/internal/daemonconn.Discover -->
<g id="edge19" class="edge">
<title>(*github.com/guild&#45;framework/guild&#45;core/internal/daemonconn.Manager).Connect&#45;&gt;github.com/guild&#45;framework/guild&#45;core/internal/daemonconn.Discover</title>
<g id="a_edge19"><a xlink:title="at manager.go:53: calling [github.com/guild&#45;framework/guild&#45;core/internal/daemonconn.Discover]">
<path fill="none" stroke="black" d="M802.73,-319.35C843.91,-301.44 906.16,-274.36 949.96,-255.32"/>
<polygon fill="black" stroke="black" points="951.23,-258.58 959,-251.38 948.44,-252.16 951.23,-258.58"/>
</a>
</g>
</g>
<!-- (*github.com/guild&#45;framework/guild&#45;core/internal/daemonconn.Manager).Connect&#45;&gt;github.com/guild&#45;framework/guild&#45;core/pkg/gerror.Wrap -->
<g id="edge24" class="edge">
<title>(*github.com/guild&#45;framework/guild&#45;core/internal/daemonconn.Manager).Connect&#45;&gt;github.com/guild&#45;framework/guild&#45;core/pkg/gerror.Wrap</title>
<g id="a_edge24"><a xlink:title="at manager.go:55: calling [github.com/guild&#45;framework/guild&#45;core/pkg/gerror.Wrap]">
<path fill="none" stroke="saddlebrown" d="M775.7,-319.49C801.44,-290.55 855.17,-234.67 911.87,-203 1011.47,-147.38 1044.79,-145.62 1157.66,-129 1222.01,-119.52 1239.96,-121.35 1303.95,-133 1341.89,-139.91 1384.36,-151.19 1414.6,-159.85"/>
<polygon fill="saddlebrown" stroke="saddlebrown" points="1413.52,-163.18 1424.1,-162.6 1415.47,-156.45 1413.52,-163.18"/>
</a>
</g>
</g>
<!-- (*github.com/guild&#45;framework/guild&#45;core/internal/daemonconn.Manager).Connect&#45;&gt;(*github.com/guild&#45;framework/guild&#45;core/pkg/gerror.GuildError).WithComponent -->
<g id="edge6" class="edge">
<title>(*github.com/guild&#45;framework/guild&#45;core/internal/daemonconn.Manager).Connect&#45;&gt;(*github.com/guild&#45;framework/guild&#45;core/pkg/gerror.GuildError).WithComponent</title>
<g id="a_edge6"><a xlink:title="at manager.go:56: calling [(*github.com/guild&#45;framework/guild&#45;core/pkg/gerror.GuildError).WithComponent]">
<path fill="none" stroke="saddlebrown" d="M809.97,-356.7C832,-363.96 858.38,-371.4 882.87,-375 1034.68,-397.33 1211.46,-385.46 1327.9,-372.52"/>
<polygon fill="saddlebrown" stroke="saddlebrown" points="1328.29,-376 1337.83,-371.39 1327.5,-369.04 1328.29,-376"/>
</a>
</g>
</g>
<!-- (*github.com/guild&#45;framework/guild&#45;core/internal/daemonconn.Manager).Connect&#45;&gt;(*github.com/guild&#45;framework/guild&#45;core/pkg/gerror.GuildError).WithOperation -->
<g id="edge23" class="edge">
<title>(*github.com/guild&#45;framework/guild&#45;core/internal/daemonconn.Manager).Connect&#45;&gt;(*github.com/guild&#45;framework/guild&#45;core/pkg/gerror.GuildError).WithOperation</title>
<g id="a_edge23"><a xlink:title="at manager.go:57: calling [(*github.com/guild&#45;framework/guild&#45;core/pkg/gerror.GuildError).WithOperation]">
<path fill="none" stroke="saddlebrown" d="M842.76,-346.27C945.33,-353.55 1123.93,-356.52 1266.95,-308 1299.99,-296.79 1300.11,-278.25 1331.95,-264 1339.21,-260.75 1346.88,-257.8 1354.68,-255.13"/>
<polygon fill="saddlebrown" stroke="saddlebrown" points="1355.52,-258.54 1363.95,-252.13 1353.36,-251.88 1355.52,-258.54"/>
</a>
</g>
</g>
</g>
</svg>
