<?xml version="1.0" encoding="UTF-8" standalone="no"?>
<!DOCTYPE svg PUBLIC "-//W3C//DTD SVG 1.1//EN"
 "http://www.w3.org/Graphics/SVG/1.1/DTD/svg11.dtd">
<!-- Generated by graphviz version 14.1.1 (20251213.1925)
 -->
<!-- Title: gocallvis Pages: 1 -->
<svg width="986pt" height="646pt"
 viewBox="0.00 0.00 986.00 646.00" xmlns="http://www.w3.org/2000/svg" xmlns:xlink="http://www.w3.org/1999/xlink">
<g id="graph0" class="graph" transform="scale(1 1) rotate(0) translate(0 646)">
<title>gocallvis</title>
<polygon fill="lightgray" stroke="none" points="0,0 0,-646 985.95,-646 985.95,0 0,0"/>
<g id="clust1" class="cluster">
<title>cluster_focus</title>
<polygon fill="#e6ecfa" stroke="black" stroke-width="0.5" points="8,-8 8,-638 977.95,-638 977.95,-8 8,-8"/>
<text xml:space="preserve" text-anchor="middle" x="492.97" y="-616.9" font-family="Arial" font-size="18.00">ui</text>
</g>
<!-- github.com/guild&#45;framework/guild&#45;core/internal/buildutil/ui.ClearProgress -->
<g id="node1" class="node">
<title>github.com/guild&#45;framework/guild&#45;core/internal/buildutil/ui.ClearProgress</title>
<g id="a_node1"><a xlink:title="github.com/guild&#45;framework/guild&#45;core/internal/buildutil/ui.ClearProgress | defined in widgets.go:76&#10;at widgets.go:81: calling [github.com/guild&#45;framework/guild&#45;core/internal/buildutil/ui.ColourEnabled]">
<path fill="lightblue" stroke="black" stroke-width="1.5" d="M361.58,-540C361.58,-540 265.79,-540 265.79,-540 259.79,-540 253.79,-534 253.79,-528 253.79,-528 253.79,-516 253.79,-516 253.79,-510 259.79,-504 265.79,-504 265.79,-504 361.58,-504 361.58,-504 367.58,-504 373.58,-510 373.58,-516 373.58,-516 373.58,-528 373.58,-528 373.58,-534 367.58,-540 361.58,-540"/>
<text xml:space="preserve" text-anchor="middle" x="313.68" y="-517.33" font-family="Verdana" font-size="14.00">ClearProgress</text>
</a>
</g>
</g>
<!-- github.com/guild&#45;framework/guild&#45;core/internal/buildutil/ui.ColourEnabled -->
<g id="node2" class="node">
<title>github.com/guild&#45;framework/guild&#45;core/internal/buildutil/ui.ColourEnabled</title>
<g id="a_node2"><a xlink:title="github.com/guild&#45;framework/guild&#45;core/internal/buildutil/ui.ColourEnabled | defined in ansi.go:44">
<path fill="lightblue" stroke="black" stroke-width="1.5" d="M604.62,-296C604.62,-296 504.33,-296 504.33,-296 498.33,-296 492.33,-290 492.33,-284 492.33,-284 492.33,-272 492.33,-272 492.33,-266 498.33,-260 504.33,-260 504.33,-260 604.62,-260 604.62,-260 610.62,-260 616.62,-266 616.62,-272 616.62,-272 616.62,-284 616.62,-284 616.62,-290 610.62,-296 604.62,-296"/>
<text xml:space="preserve" text-anchor="middle" x="554.47" y="-273.32" font-family="Verdana" font-size="14.00">ColourEnabled</text>
</a>
</g>
</g>
<!-- github.com/guild&#45;framework/guild&#45;core/internal/buildutil/ui.ClearProgress&#45;&gt;github.com/guild&#45;framework/guild&#45;core/internal/buildutil/ui.ColourEnabled -->
<g id="edge21" class="edge">
<title>github.com/guild&#45;framework/guild&#45;core/internal/buildutil/ui.ClearProgress&#45;&gt;github.com/guild&#45;framework/guild&#45;core/internal/buildutil/ui.ColourEnabled</title>
<g id="a_edge21"><a xlink:title="at widgets.go:81: calling [github.com/guild&#45;framework/guild&#45;core/internal/buildutil/ui.ColourEnabled]">
<path fill="none" stroke="black" d="M374.15,-513.35C388.56,-508.9 402.99,-502.17 414.08,-492 478.62,-432.81 426.96,-372.67 487.08,-309 489.03,-306.94 491.14,-305 493.38,-303.18"/>
<polygon fill="black" stroke="black" points="495.12,-306.23 501.27,-297.6 491.08,-300.51 495.12,-306.23"/>
</a>
</g>
</g>
<!-- github.com/guild&#45;framework/guild&#45;core/internal/buildutil/ui.visualLength -->
<g id="node3" class="node">
<title>github.com/guild&#45;framework/guild&#45;core/internal/buildutil/ui.visualLength</title>
<g id="a_node3"><a xlink:title="github.com/guild&#45;framework/guild&#45;core/internal/buildutil/ui.visualLength | defined in ansi.go:127&#10;at ansi.go:129: calling [github.com/guild&#45;framework/guild&#45;core/internal/buildutil/ui.stripANSI]">
<path fill="lightblue" stroke="black" stroke-width="0.5" d="M794.41,-61C794.41,-61 706.87,-61 706.87,-61 700.87,-61 694.87,-55 694.87,-49 694.87,-49 694.87,-37 694.87,-37 694.87,-31 700.87,-25 706.87,-25 706.87,-25 794.41,-25 794.41,-25 800.41,-25 806.41,-31 806.41,-37 806.41,-37 806.41,-49 806.41,-49 806.41,-55 800.41,-61 794.41,-61"/>
<text xml:space="preserve" text-anchor="middle" x="750.64" y="-38.33" font-family="Verdana" font-size="14.00">visualLength</text>
</a>
</g>
</g>
<!-- github.com/guild&#45;framework/guild&#45;core/internal/buildutil/ui.stripANSI -->
<g id="node4" class="node">
<title>github.com/guild&#45;framework/guild&#45;core/internal/buildutil/ui.stripANSI</title>
<g id="a_node4"><a xlink:title="github.com/guild&#45;framework/guild&#45;core/internal/buildutil/ui.stripANSI | defined in ansi.go:151">
<path fill="lightblue" stroke="black" stroke-width="0.5" d="M957.95,-61C957.95,-61 891.41,-61 891.41,-61 885.41,-61 879.41,-55 879.41,-49 879.41,-49 879.41,-37 879.41,-37 879.41,-31 885.41,-25 891.41,-25 891.41,-25 957.95,-25 957.95,-25 963.95,-25 969.95,-31 969.95,-37 969.95,-37 969.95,-49 969.95,-49 969.95,-55 963.95,-61 957.95,-61"/>
<text xml:space="preserve" text-anchor="middle" x="924.68" y="-38.33" font-family="Verdana" font-size="14.00">stripANSI</text>
</a>
</g>
</g>
<!-- github.com/guild&#45;framework/guild&#45;core/internal/buildutil/ui.visualLength&#45;&gt;github.com/guild&#45;framework/guild&#45;core/internal/buildutil/ui.stripANSI -->
<g id="edge16" class="edge">
<title>github.com/guild&#45;framework/guild&#45;core/internal/buildutil/ui.visualLength&#45;&gt;github.com/guild&#45;framework/guild&#45;core/internal/buildutil/ui.stripANSI</title>
<g id="a_edge16"><a xlink:title="at ansi.go:129: calling [github.com/guild&#45;framework/guild&#45;core/internal/buildutil/ui.stripANSI]">
<path fill="none" stroke="black" d="M806.55,-43C826.19,-43 848.34,-43 868.05,-43"/>
<polygon fill="black" stroke="black" points="867.82,-46.5 877.82,-43 867.82,-39.5 867.82,-46.5"/>
</a>
</g>
</g>
<!-- github.com/guild&#45;framework/guild&#45;core/internal/buildutil/ui.Center -->
<g id="node5" class="node">
<title>github.com/guild&#45;framework/guild&#45;core/internal/buildutil/ui.Center</title>
<g id="a_node5"><a xlink:title="github.com/guild&#45;framework/guild&#45;core/internal/buildutil/ui.Center | defined in ansi.go:114&#10;at ansi.go:115: calling [github.com/guild&#45;framework/guild&#45;core/internal/buildutil/ui.visualLength]">
<path fill="lightblue" stroke="black" stroke-width="1.5" d="M577.24,-79C577.24,-79 531.7,-79 531.7,-79 525.7,-79 519.7,-73 519.7,-67 519.7,-67 519.7,-55 519.7,-55 519.7,-49 525.7,-43 531.7,-43 531.7,-43 577.24,-43 577.24,-43 583.24,-43 589.24,-49 589.24,-55 589.24,-55 589.24,-67 589.24,-67 589.24,-73 583.24,-79 577.24,-79"/>
<text xml:space="preserve" text-anchor="middle" x="554.47" y="-56.33" font-family="Verdana" font-size="14.00">Center</text>
</a>
</g>
</g>
<!-- github.com/guild&#45;framework/guild&#45;core/internal/buildutil/ui.Center&#45;&gt;github.com/guild&#45;framework/guild&#45;core/internal/buildutil/ui.visualLength -->
<g id="edge6" class="edge">
<title>github.com/guild&#45;framework/guild&#45;core/internal/buildutil/ui.Center&#45;&gt;github.com/guild&#45;framework/guild&#45;core/internal/buildutil/ui.visualLength</title>
<g id="a_edge6"><a xlink:title="at ansi.go:115: calling [github.com/guild&#45;framework/guild&#45;core/internal/buildutil/ui.visualLength]">
<path fill="none" stroke="black" d="M589.74,-57.82C615.63,-55.42 651.96,-52.06 683.45,-49.14"/>
<polygon fill="black" stroke="black" points="683.67,-52.63 693.3,-48.22 683.02,-45.66 683.67,-52.63"/>
</a>
</g>
</g>
<!-- github.com/guild&#45;framework/guild&#45;core/internal/buildutil/ui.TermWidth -->
<g id="node6" class="node">
<title>github.com/guild&#45;framework/guild&#45;core/internal/buildutil/ui.TermWidth</title>
<g id="a_node6"><a xlink:title="github.com/guild&#45;framework/guild&#45;core/internal/buildutil/ui.TermWidth | defined in ansi.go:73&#10;at ansi.go:99: calling [github.com/guild&#45;framework/guild&#45;core/internal/buildutil/ui.isatty]">
<path fill="lightblue" stroke="black" stroke-width="1.5" d="M591.87,-201C591.87,-201 517.08,-201 517.08,-201 511.08,-201 505.08,-195 505.08,-189 505.08,-189 505.08,-177 505.08,-177 505.08,-171 511.08,-165 517.08,-165 517.08,-165 591.87,-165 591.87,-165 597.87,-165 603.87,-171 603.87,-177 603.87,-177 603.87,-189 603.87,-189 603.87,-195 597.87,-201 591.87,-201"/>
<text xml:space="preserve" text-anchor="middle" x="554.47" y="-178.32" font-family="Verdana" font-size="14.00">TermWidth</text>
</a>
</g>
</g>
<!-- github.com/guild&#45;framework/guild&#45;core/internal/buildutil/ui.isatty -->
<g id="node7" class="node">
<title>github.com/guild&#45;framework/guild&#45;core/internal/buildutil/ui.isatty</title>
<g id="a_node7"><a xlink:title="github.com/guild&#45;framework/guild&#45;core/internal/buildutil/ui.isatty | defined in ansi.go:57">
<path fill="lightblue" stroke="black" stroke-width="0.5" d="M769.28,-201C769.28,-201 731.99,-201 731.99,-201 725.99,-201 719.99,-195 719.99,-189 719.99,-189 719.99,-177 719.99,-177 719.99,-171 725.99,-165 731.99,-165 731.99,-165 769.28,-165 769.28,-165 775.28,-165 781.28,-171 781.28,-177 781.28,-177 781.28,-189 781.28,-189 781.28,-195 775.28,-201 769.28,-201"/>
<text xml:space="preserve" text-anchor="middle" x="750.64" y="-178.32" font-family="Verdana" font-size="14.00">isatty</text>
</a>
</g>
</g>
<!-- github.com/guild&#45;framework/guild&#45;core/internal/buildutil/ui.TermWidth&#45;&gt;github.com/guild&#45;framework/guild&#45;core/internal/buildutil/ui.isatty -->
<g id="edge1" class="edge">
<title>github.com/guild&#45;framework/guild&#45;core/internal/buildutil/ui.TermWidth&#45;&gt;github.com/guild&#45;framework/guild&#45;core/internal/buildutil/ui.isatty</title>
<g id="a_edge1"><a xlink:title="at ansi.go:99: calling [github.com/guild&#45;framework/guild&#45;core/internal/buildutil/ui.isatty]">
<path fill="none" stroke="black" d="M604.47,-183C636.6,-183 678.14,-183 708.55,-183"/>
<polygon fill="black" stroke="black" points="708.5,-186.5 718.5,-183 708.5,-179.5 708.5,-186.5"/>
</a>
</g>
</g>
<!-- github.com/guild&#45;framework/guild&#45;core/internal/buildutil/ui.Success -->
<g id="node8" class="node">
<title>github.com/guild&#45;framework/guild&#45;core/internal/buildutil/ui.Success</title>
<g id="a_node8"><a xlink:title="github.com/guild&#45;framework/guild&#45;core/internal/buildutil/ui.Success | defined in widgets.go:121&#10;at widgets.go:125: calling [github.com/guild&#45;framework/guild&#45;core/internal/buildutil/ui.ColourEnabled]">
<path fill="lightblue" stroke="black" stroke-width="1.5" d="M341.7,-601C341.7,-601 285.66,-601 285.66,-601 279.66,-601 273.66,-595 273.66,-589 273.66,-589 273.66,-577 273.66,-577 273.66,-571 279.66,-565 285.66,-565 285.66,-565 341.7,-565 341.7,-565 347.7,-565 353.7,-571 353.7,-577 353.7,-577 353.7,-589 353.7,-589 353.7,-595 347.7,-601 341.7,-601"/>
<text xml:space="preserve" text-anchor="middle" x="313.68" y="-578.33" font-family="Verdana" font-size="14.00">Success</text>
</a>
</g>
</g>
<!-- github.com/guild&#45;framework/guild&#45;core/internal/buildutil/ui.Success&#45;&gt;github.com/guild&#45;framework/guild&#45;core/internal/buildutil/ui.ColourEnabled -->
<g id="edge7" class="edge">
<title>github.com/guild&#45;framework/guild&#45;core/internal/buildutil/ui.Success&#45;&gt;github.com/guild&#45;framework/guild&#45;core/internal/buildutil/ui.ColourEnabled</title>
<g id="a_edge7"><a xlink:title="at widgets.go:125: calling [github.com/guild&#45;framework/guild&#45;core/internal/buildutil/ui.ColourEnabled]">
<path fill="none" stroke="black" d="M354.12,-579.92C374.48,-576.36 398.29,-568.82 414.08,-553 494.02,-472.86 413.1,-394.67 487.08,-309 488.77,-307.04 490.61,-305.2 492.56,-303.47"/>
<polygon fill="black" stroke="black" points="494.66,-306.27 500.55,-297.47 490.46,-300.68 494.66,-306.27"/>
</a>
</g>
</g>
<!-- github.com/guild&#45;framework/guild&#45;core/internal/buildutil/ui.Warning -->
<g id="node9" class="node">
<title>github.com/guild&#45;framework/guild&#45;core/internal/buildutil/ui.Warning</title>
<g id="a_node9"><a xlink:title="github.com/guild&#45;framework/guild&#45;core/internal/buildutil/ui.Warning | defined in widgets.go:133&#10;at widgets.go:137: calling [github.com/guild&#45;framework/guild&#45;core/internal/buildutil/ui.ColourEnabled]">
<path fill="lightblue" stroke="black" stroke-width="1.5" d="M342.45,-479C342.45,-479 284.91,-479 284.91,-479 278.91,-479 272.91,-473 272.91,-467 272.91,-467 272.91,-455 272.91,-455 272.91,-449 278.91,-443 284.91,-443 284.91,-443 342.45,-443 342.45,-443 348.45,-443 354.45,-449 354.45,-455 354.45,-455 354.45,-467 354.45,-467 354.45,-473 348.45,-479 342.45,-479"/>
<text xml:space="preserve" text-anchor="middle" x="313.68" y="-456.32" font-family="Verdana" font-size="14.00">Warning</text>
</a>
</g>
</g>
<!-- github.com/guild&#45;framework/guild&#45;core/internal/buildutil/ui.Warning&#45;&gt;github.com/guild&#45;framework/guild&#45;core/internal/buildutil/ui.ColourEnabled -->
<g id="edge17" class="edge">
<title>github.com/guild&#45;framework/guild&#45;core/internal/buildutil/ui.Warning&#45;&gt;github.com/guild&#45;framework/guild&#45;core/internal/buildutil/ui.ColourEnabled</title>
<g id="a_edge17"><a xlink:title="at widgets.go:137: calling [github.com/guild&#45;framework/guild&#45;core/internal/buildutil/ui.ColourEnabled]">
<path fill="none" stroke="black" d="M355.08,-455.75C374.5,-451.6 397.17,-444.19 414.08,-431 463.91,-392.14 440.17,-351.34 487.08,-309 489.51,-306.8 492.13,-304.73 494.87,-302.79"/>
<polygon fill="black" stroke="black" points="496.71,-305.77 503.28,-297.46 492.96,-299.85 496.71,-305.77"/>
</a>
</g>
</g>
<!-- github.com/guild&#45;framework/guild&#45;core/internal/buildutil/ui.SummaryCardWithStatus -->
<g id="node10" class="node">
<title>github.com/guild&#45;framework/guild&#45;core/internal/buildutil/ui.SummaryCardWithStatus</title>
<g id="a_node10"><a xlink:title="github.com/guild&#45;framework/guild&#45;core/internal/buildutil/ui.SummaryCardWithStatus | defined in widgets.go:150&#10;at widgets.go:154: calling [github.com/guild&#45;framework/guild&#45;core/internal/buildutil/ui.TermWidth]&#10;at widgets.go:160: calling [github.com/guild&#45;framework/guild&#45;core/internal/buildutil/ui.ColourEnabled]&#10;at widgets.go:234: calling [github.com/guild&#45;framework/guild&#45;core/internal/buildutil/ui.ColourEnabled]&#10;at widgets.go:183: calling [github.com/guild&#45;framework/guild&#45;core/internal/buildutil/ui.ColourEnabled]&#10;at widgets.go:216: calling [github.com/guild&#45;framework/guild&#45;core/internal/buildutil/ui.ColourEnabled]&#10;at widgets.go:224: calling [github.com/guild&#45;framework/guild&#45;core/internal/buildutil/ui.ColourEnabled]&#10;at widgets.go:243: calling [github.com/guild&#45;framework/guild&#45;core/internal/buildutil/ui.ColourEnabled]&#10;at widgets.go:265: calling [github.com/guild&#45;framework/guild&#45;core/internal/buildutil/ui.ColourEnabled]&#10;at widgets.go:277: calling [github.com/guild&#45;framework/guild&#45;core/internal/buildutil/ui.ColourEnabled]&#10;at widgets.go:162: calling [github.com/guild&#45;framework/guild&#45;core/internal/buildutil/ui.Center]&#10;at widgets.go:166: calling [github.com/guild&#45;framework/guild&#45;core/internal/buildutil/ui.Center]&#10;at widgets.go:236: calling [github.com/guild&#45;framework/guild&#45;core/internal/buildutil/ui.Center]&#10;at widgets.go:239: calling [github.com/guild&#45;framework/guild&#45;core/internal/buildutil/ui.Center]&#10;at widgets.go:273: calling [github.com/guild&#45;framework/guild&#45;core/internal/buildutil/ui.Center]&#10;at widgets.go:270: calling [github.com/guild&#45;framework/guild&#45;core/internal/buildutil/ui.Center]&#10;at widgets.go:175: calling [github.com/guild&#45;framework/guild&#45;core/internal/buildutil/ui.visualLength]&#10;at widgets.go:209: calling [github.com/guild&#45;framework/guild&#45;core/internal/buildutil/ui.visualLength]">
<path fill="lightblue" stroke="black" stroke-width="1.5" d="M402.08,-52C402.08,-52 225.29,-52 225.29,-52 219.29,-52 213.29,-46 213.29,-40 213.29,-40 213.29,-28 213.29,-28 213.29,-22 219.29,-16 225.29,-16 225.29,-16 402.08,-16 402.08,-16 408.08,-16 414.08,-22 414.08,-28 414.08,-28 414.08,-40 414.08,-40 414.08,-46 408.08,-52 402.08,-52"/>
<text xml:space="preserve" text-anchor="middle" x="313.68" y="-29.32" font-family="Verdana" font-size="14.00">SummaryCardWithStatus</text>
</a>
</g>
</g>
<!-- github.com/guild&#45;framework/guild&#45;core/internal/buildutil/ui.SummaryCardWithStatus&#45;&gt;github.com/guild&#45;framework/guild&#45;core/internal/buildutil/ui.ColourEnabled -->
<g id="edge9" class="edge">
<title>github.com/guild&#45;framework/guild&#45;core/internal/buildutil/ui.SummaryCardWithStatus&#45;&gt;github.com/guild&#45;framework/guild&#45;core/internal/buildutil/ui.ColourEnabled</title>
<g id="a_edge9"><a xlink:title="at widgets.go:160: calling [github.com/guild&#45;framework/guild&#45;core/internal/buildutil/ui.ColourEnabled]&#10;at widgets.go:234: calling [github.com/guild&#45;framework/guild&#45;core/internal/buildutil/ui.ColourEnabled]&#10;at widgets.go:183: calling [github.com/guild&#45;framework/guild&#45;core/internal/buildutil/ui.ColourEnabled]&#10;at widgets.go:216: calling [github.com/guild&#45;framework/guild&#45;core/internal/buildutil/ui.ColourEnabled]&#10;at widgets.go:224: calling [github.com/guild&#45;framework/guild&#45;core/internal/buildutil/ui.ColourEnabled]&#10;at widgets.go:243: calling [github.com/guild&#45;framework/guild&#45;core/internal/buildutil/ui.ColourEnabled]&#10;at widgets.go:265: calling [github.com/guild&#45;framework/guild&#45;core/internal/buildutil/ui.ColourEnabled]&#10;at widgets.go:277: calling [github.com/guild&#45;framework/guild&#45;core/internal/buildutil/ui.ColourEnabled]">
<path fill="none" stroke="black" d="M395.34,-52.66C402.08,-56.1 408.45,-60.18 414.08,-65 470.06,-113 443.65,-154.4 487.08,-214 497.09,-227.74 510.23,-241.1 522.17,-252.03"/>
<polygon fill="black" stroke="black" points="519.66,-254.48 529.46,-258.52 524.32,-249.25 519.66,-254.48"/>
</a>
</g>
</g>
<!-- github.com/guild&#45;framework/guild&#45;core/internal/buildutil/ui.SummaryCardWithStatus&#45;&gt;github.com/guild&#45;framework/guild&#45;core/internal/buildutil/ui.visualLength -->
<g id="edge12" class="edge">
<title>github.com/guild&#45;framework/guild&#45;core/internal/buildutil/ui.SummaryCardWithStatus&#45;&gt;github.com/guild&#45;framework/guild&#45;core/internal/buildutil/ui.visualLength</title>
<g id="a_edge12"><a xlink:title="at widgets.go:175: calling [github.com/guild&#45;framework/guild&#45;core/internal/buildutil/ui.visualLength]&#10;at widgets.go:209: calling [github.com/guild&#45;framework/guild&#45;core/internal/buildutil/ui.visualLength]">
<path fill="none" stroke="black" d="M414.69,-30.17C474.78,-28.58 552.75,-27.76 621.87,-31 641.87,-31.94 663.57,-33.69 683.32,-35.58"/>
<polygon fill="black" stroke="black" points="682.89,-39.06 693.18,-36.55 683.58,-32.09 682.89,-39.06"/>
</a>
</g>
</g>
<!-- github.com/guild&#45;framework/guild&#45;core/internal/buildutil/ui.SummaryCardWithStatus&#45;&gt;github.com/guild&#45;framework/guild&#45;core/internal/buildutil/ui.Center -->
<g id="edge11" class="edge">
<title>github.com/guild&#45;framework/guild&#45;core/internal/buildutil/ui.SummaryCardWithStatus&#45;&gt;github.com/guild&#45;framework/guild&#45;core/internal/buildutil/ui.Center</title>
<g id="a_edge11"><a xlink:title="at widgets.go:162: calling [github.com/guild&#45;framework/guild&#45;core/internal/buildutil/ui.Center]&#10;at widgets.go:166: calling [github.com/guild&#45;framework/guild&#45;core/internal/buildutil/ui.Center]&#10;at widgets.go:236: calling [github.com/guild&#45;framework/guild&#45;core/internal/buildutil/ui.Center]&#10;at widgets.go:239: calling [github.com/guild&#45;framework/guild&#45;core/internal/buildutil/ui.Center]&#10;at widgets.go:273: calling [github.com/guild&#45;framework/guild&#45;core/internal/buildutil/ui.Center]&#10;at widgets.go:270: calling [github.com/guild&#45;framework/guild&#45;core/internal/buildutil/ui.Center]">
<path fill="none" stroke="black" d="M414.57,-45.29C446.97,-48.96 481.33,-52.84 507.78,-55.83"/>
<polygon fill="black" stroke="black" points="507.13,-59.28 517.46,-56.93 507.92,-52.33 507.13,-59.28"/>
</a>
</g>
</g>
<!-- github.com/guild&#45;framework/guild&#45;core/internal/buildutil/ui.SummaryCardWithStatus&#45;&gt;github.com/guild&#45;framework/guild&#45;core/internal/buildutil/ui.TermWidth -->
<g id="edge8" class="edge">
<title>github.com/guild&#45;framework/guild&#45;core/internal/buildutil/ui.SummaryCardWithStatus&#45;&gt;github.com/guild&#45;framework/guild&#45;core/internal/buildutil/ui.TermWidth</title>
<g id="a_edge8"><a xlink:title="at widgets.go:154: calling [github.com/guild&#45;framework/guild&#45;core/internal/buildutil/ui.TermWidth]">
<path fill="none" stroke="black" d="M390.89,-52.68C399.04,-56.15 406.95,-60.22 414.08,-65 456.3,-93.29 446.67,-122.19 487.08,-153 489.67,-154.98 492.42,-156.86 495.26,-158.65"/>
<polygon fill="black" stroke="black" points="493.46,-161.65 503.88,-163.6 496.95,-155.59 493.46,-161.65"/>
</a>
</g>
</g>
<!-- github.com/guild&#45;framework/guild&#45;core/internal/buildutil/ui.SummaryCard -->
<g id="node11" class="node">
<title>github.com/guild&#45;framework/guild&#45;core/internal/buildutil/ui.SummaryCard</title>
<g id="a_node11"><a xlink:title="github.com/guild&#45;framework/guild&#45;core/internal/buildutil/ui.SummaryCard | defined in widgets.go:145&#10;at widgets.go:146: calling [github.com/guild&#45;framework/guild&#45;core/internal/buildutil/ui.SummaryCardWithStatus]">
<path fill="lightblue" stroke="black" stroke-width="1.5" d="M128.29,-52C128.29,-52 28,-52 28,-52 22,-52 16,-46 16,-40 16,-40 16,-28 16,-28 16,-22 22,-16 28,-16 28,-16 128.29,-16 128.29,-16 134.29,-16 140.29,-22 140.29,-28 140.29,-28 140.29,-40 140.29,-40 140.29,-46 134.29,-52 128.29,-52"/>
<text xml:space="preserve" text-anchor="middle" x="78.14" y="-29.32" font-family="Verdana" font-size="14.00">SummaryCard</text>
</a>
</g>
</g>
<!-- github.com/guild&#45;framework/guild&#45;core/internal/buildutil/ui.SummaryCard&#45;&gt;github.com/guild&#45;framework/guild&#45;core/internal/buildutil/ui.SummaryCardWithStatus -->
<g id="edge2" class="edge">
<title>github.com/guild&#45;framework/guild&#45;core/internal/buildutil/ui.SummaryCard&#45;&gt;github.com/guild&#45;framework/guild&#45;core/internal/buildutil/ui.SummaryCardWithStatus</title>
<g id="a_edge2"><a xlink:title="at widgets.go:146: calling [github.com/guild&#45;framework/guild&#45;core/internal/buildutil/ui.SummaryCardWithStatus]">
<path fill="none" stroke="black" d="M140.81,-34C159.4,-34 180.4,-34 201.18,-34"/>
<polygon fill="black" stroke="black" points="201.17,-37.5 211.17,-34 201.17,-30.5 201.17,-37.5"/>
</a>
</g>
</g>
<!-- github.com/guild&#45;framework/guild&#45;core/internal/buildutil/ui.Section -->
<g id="node12" class="node">
<title>github.com/guild&#45;framework/guild&#45;core/internal/buildutil/ui.Section</title>
<g id="a_node12"><a xlink:title="github.com/guild&#45;framework/guild&#45;core/internal/buildutil/ui.Section | defined in widgets.go:19&#10;at widgets.go:23: calling [github.com/guild&#45;framework/guild&#45;core/internal/buildutil/ui.TermWidth]&#10;at widgets.go:30: calling [github.com/guild&#45;framework/guild&#45;core/internal/buildutil/ui.Center]&#10;at widgets.go:34: calling [github.com/guild&#45;framework/guild&#45;core/internal/buildutil/ui.Center]&#10;at widgets.go:28: calling [github.com/guild&#45;framework/guild&#45;core/internal/buildutil/ui.ColourEnabled]">
<path fill="lightblue" stroke="black" stroke-width="1.5" d="M339.08,-113C339.08,-113 288.29,-113 288.29,-113 282.29,-113 276.29,-107 276.29,-101 276.29,-101 276.29,-89 276.29,-89 276.29,-83 282.29,-77 288.29,-77 288.29,-77 339.08,-77 339.08,-77 345.08,-77 351.08,-83 351.08,-89 351.08,-89 351.08,-101 351.08,-101 351.08,-107 345.08,-113 339.08,-113"/>
<text xml:space="preserve" text-anchor="middle" x="313.68" y="-90.33" font-family="Verdana" font-size="14.00">Section</text>
</a>
</g>
</g>
<!-- github.com/guild&#45;framework/guild&#45;core/internal/buildutil/ui.Section&#45;&gt;github.com/guild&#45;framework/guild&#45;core/internal/buildutil/ui.ColourEnabled -->
<g id="edge10" class="edge">
<title>github.com/guild&#45;framework/guild&#45;core/internal/buildutil/ui.Section&#45;&gt;github.com/guild&#45;framework/guild&#45;core/internal/buildutil/ui.ColourEnabled</title>
<g id="a_edge10"><a xlink:title="at widgets.go:28: calling [github.com/guild&#45;framework/guild&#45;core/internal/buildutil/ui.ColourEnabled]">
<path fill="none" stroke="black" d="M351.38,-101.16C371.17,-105.74 395.31,-113.42 414.08,-126 456.3,-154.29 452.51,-176.75 487.08,-214 499,-226.84 512.86,-240.4 524.83,-251.72"/>
<polygon fill="black" stroke="black" points="522.36,-254.2 532.05,-258.48 527.14,-249.09 522.36,-254.2"/>
</a>
</g>
</g>
<!-- github.com/guild&#45;framework/guild&#45;core/internal/buildutil/ui.Section&#45;&gt;github.com/guild&#45;framework/guild&#45;core/internal/buildutil/ui.Center -->
<g id="edge4" class="edge">
<title>github.com/guild&#45;framework/guild&#45;core/internal/buildutil/ui.Section&#45;&gt;github.com/guild&#45;framework/guild&#45;core/internal/buildutil/ui.Center</title>
<g id="a_edge4"><a xlink:title="at widgets.go:30: calling [github.com/guild&#45;framework/guild&#45;core/internal/buildutil/ui.Center]&#10;at widgets.go:34: calling [github.com/guild&#45;framework/guild&#45;core/internal/buildutil/ui.Center]">
<path fill="none" stroke="black" d="M351.73,-89.72C393.79,-83.74 462.43,-73.96 507.77,-67.51"/>
<polygon fill="black" stroke="black" points="508.15,-70.99 517.56,-66.11 507.16,-64.06 508.15,-70.99"/>
</a>
</g>
</g>
<!-- github.com/guild&#45;framework/guild&#45;core/internal/buildutil/ui.Section&#45;&gt;github.com/guild&#45;framework/guild&#45;core/internal/buildutil/ui.TermWidth -->
<g id="edge3" class="edge">
<title>github.com/guild&#45;framework/guild&#45;core/internal/buildutil/ui.Section&#45;&gt;github.com/guild&#45;framework/guild&#45;core/internal/buildutil/ui.TermWidth</title>
<g id="a_edge3"><a xlink:title="at widgets.go:23: calling [github.com/guild&#45;framework/guild&#45;core/internal/buildutil/ui.TermWidth]">
<path fill="none" stroke="black" d="M351.75,-105.74C370.55,-111.39 393.67,-118.66 414.08,-126 442.84,-136.34 474.4,-149.13 500.2,-159.96"/>
<polygon fill="black" stroke="black" points="498.55,-163.06 509.13,-163.73 501.28,-156.62 498.55,-163.06"/>
</a>
</g>
</g>
<!-- github.com/guild&#45;framework/guild&#45;core/internal/buildutil/ui.Task -->
<g id="node13" class="node">
<title>github.com/guild&#45;framework/guild&#45;core/internal/buildutil/ui.Task</title>
<g id="a_node13"><a xlink:title="github.com/guild&#45;framework/guild&#45;core/internal/buildutil/ui.Task | defined in widgets.go:91&#10;at widgets.go:95: calling [github.com/guild&#45;framework/guild&#45;core/internal/buildutil/ui.ColourEnabled]">
<path fill="lightblue" stroke="black" stroke-width="1.5" d="M328.68,-174C328.68,-174 298.68,-174 298.68,-174 292.68,-174 286.68,-168 286.68,-162 286.68,-162 286.68,-150 286.68,-150 286.68,-144 292.68,-138 298.68,-138 298.68,-138 328.68,-138 328.68,-138 334.68,-138 340.68,-144 340.68,-150 340.68,-150 340.68,-162 340.68,-162 340.68,-168 334.68,-174 328.68,-174"/>
<text xml:space="preserve" text-anchor="middle" x="313.68" y="-151.32" font-family="Verdana" font-size="14.00">Task</text>
</a>
</g>
</g>
<!-- github.com/guild&#45;framework/guild&#45;core/internal/buildutil/ui.Task&#45;&gt;github.com/guild&#45;framework/guild&#45;core/internal/buildutil/ui.ColourEnabled -->
<g id="edge13" class="edge">
<title>github.com/guild&#45;framework/guild&#45;core/internal/buildutil/ui.Task&#45;&gt;github.com/guild&#45;framework/guild&#45;core/internal/buildutil/ui.ColourEnabled</title>
<g id="a_edge13"><a xlink:title="at widgets.go:95: calling [github.com/guild&#45;framework/guild&#45;core/internal/buildutil/ui.ColourEnabled]">
<path fill="none" stroke="black" d="M341.17,-162.13C361.63,-167.37 390.37,-175.83 414.08,-187 452.67,-205.18 493.1,-232.65 520.42,-252.65"/>
<polygon fill="black" stroke="black" points="518.17,-255.34 528.29,-258.48 522.34,-249.72 518.17,-255.34"/>
</a>
</g>
</g>
<!-- github.com/guild&#45;framework/guild&#45;core/internal/buildutil/ui.TaskFail -->
<g id="node14" class="node">
<title>github.com/guild&#45;framework/guild&#45;core/internal/buildutil/ui.TaskFail</title>
<g id="a_node14"><a xlink:title="github.com/guild&#45;framework/guild&#45;core/internal/buildutil/ui.TaskFail | defined in widgets.go:112&#10;at widgets.go:113: calling [github.com/guild&#45;framework/guild&#45;core/internal/buildutil/ui.ColourEnabled]">
<path fill="lightblue" stroke="black" stroke-width="1.5" d="M340.2,-235C340.2,-235 287.16,-235 287.16,-235 281.16,-235 275.16,-229 275.16,-223 275.16,-223 275.16,-211 275.16,-211 275.16,-205 281.16,-199 287.16,-199 287.16,-199 340.2,-199 340.2,-199 346.2,-199 352.2,-205 352.2,-211 352.2,-211 352.2,-223 352.2,-223 352.2,-229 346.2,-235 340.2,-235"/>
<text xml:space="preserve" text-anchor="middle" x="313.68" y="-212.32" font-family="Verdana" font-size="14.00">TaskFail</text>
</a>
</g>
</g>
<!-- github.com/guild&#45;framework/guild&#45;core/internal/buildutil/ui.TaskFail&#45;&gt;github.com/guild&#45;framework/guild&#45;core/internal/buildutil/ui.ColourEnabled -->
<g id="edge18" class="edge">
<title>github.com/guild&#45;framework/guild&#45;core/internal/buildutil/ui.TaskFail&#45;&gt;github.com/guild&#45;framework/guild&#45;core/internal/buildutil/ui.ColourEnabled</title>
<g id="a_edge18"><a xlink:title="at widgets.go:113: calling [github.com/guild&#45;framework/guild&#45;core/internal/buildutil/ui.ColourEnabled]">
<path fill="none" stroke="black" d="M352.79,-226.73C387.11,-235.5 438.52,-248.63 480.7,-259.41"/>
<polygon fill="black" stroke="black" points="479.75,-262.78 490.31,-261.86 481.49,-256 479.75,-262.78"/>
</a>
</g>
</g>
<!-- github.com/guild&#45;framework/guild&#45;core/internal/buildutil/ui.TaskPass -->
<g id="node15" class="node">
<title>github.com/guild&#45;framework/guild&#45;core/internal/buildutil/ui.TaskPass</title>
<g id="a_node15"><a xlink:title="github.com/guild&#45;framework/guild&#45;core/internal/buildutil/ui.TaskPass | defined in widgets.go:103&#10;at widgets.go:104: calling [github.com/guild&#45;framework/guild&#45;core/internal/buildutil/ui.ColourEnabled]">
<path fill="lightblue" stroke="black" stroke-width="1.5" d="M344.33,-296C344.33,-296 283.04,-296 283.04,-296 277.04,-296 271.04,-290 271.04,-284 271.04,-284 271.04,-272 271.04,-272 271.04,-266 277.04,-260 283.04,-260 283.04,-260 344.33,-260 344.33,-260 350.33,-260 356.33,-266 356.33,-272 356.33,-272 356.33,-284 356.33,-284 356.33,-290 350.33,-296 344.33,-296"/>
<text xml:space="preserve" text-anchor="middle" x="313.68" y="-273.32" font-family="Verdana" font-size="14.00">TaskPass</text>
</a>
</g>
</g>
<!-- github.com/guild&#45;framework/guild&#45;core/internal/buildutil/ui.TaskPass&#45;&gt;github.com/guild&#45;framework/guild&#45;core/internal/buildutil/ui.ColourEnabled -->
<g id="edge14" class="edge">
<title>github.com/guild&#45;framework/guild&#45;core/internal/buildutil/ui.TaskPass&#45;&gt;github.com/guild&#45;framework/guild&#45;core/internal/buildutil/ui.ColourEnabled</title>
<g id="a_edge14"><a xlink:title="at widgets.go:104: calling [github.com/guild&#45;framework/guild&#45;core/internal/buildutil/ui.ColourEnabled]">
<path fill="none" stroke="black" d="M356.83,-278C391.02,-278 440.03,-278 480.57,-278"/>
<polygon fill="black" stroke="black" points="480.52,-281.5 490.52,-278 480.52,-274.5 480.52,-281.5"/>
</a>
</g>
</g>
<!-- github.com/guild&#45;framework/guild&#45;core/internal/buildutil/ui.Status -->
<g id="node16" class="node">
<title>github.com/guild&#45;framework/guild&#45;core/internal/buildutil/ui.Status</title>
<g id="a_node16"><a xlink:title="github.com/guild&#45;framework/guild&#45;core/internal/buildutil/ui.Status | defined in widgets.go:57&#10;at widgets.go:68: calling [github.com/guild&#45;framework/guild&#45;core/internal/buildutil/ui.ColourEnabled]">
<path fill="lightblue" stroke="black" stroke-width="1.5" d="M335.7,-357C335.7,-357 291.66,-357 291.66,-357 285.66,-357 279.66,-351 279.66,-345 279.66,-345 279.66,-333 279.66,-333 279.66,-327 285.66,-321 291.66,-321 291.66,-321 335.7,-321 335.7,-321 341.7,-321 347.7,-327 347.7,-333 347.7,-333 347.7,-345 347.7,-345 347.7,-351 341.7,-357 335.7,-357"/>
<text xml:space="preserve" text-anchor="middle" x="313.68" y="-334.32" font-family="Verdana" font-size="14.00">Status</text>
</a>
</g>
</g>
<!-- github.com/guild&#45;framework/guild&#45;core/internal/buildutil/ui.Status&#45;&gt;github.com/guild&#45;framework/guild&#45;core/internal/buildutil/ui.ColourEnabled -->
<g id="edge19" class="edge">
<title>github.com/guild&#45;framework/guild&#45;core/internal/buildutil/ui.Status&#45;&gt;github.com/guild&#45;framework/guild&#45;core/internal/buildutil/ui.ColourEnabled</title>
<g id="a_edge19"><a xlink:title="at widgets.go:68: calling [github.com/guild&#45;framework/guild&#45;core/internal/buildutil/ui.ColourEnabled]">
<path fill="none" stroke="black" d="M348.39,-330.39C382.64,-321.64 436.78,-307.81 480.83,-296.56"/>
<polygon fill="black" stroke="black" points="481.51,-300 490.33,-294.13 479.77,-293.22 481.51,-300"/>
</a>
</g>
</g>
<!-- github.com/guild&#45;framework/guild&#45;core/internal/buildutil/ui.Init -->
<g id="node17" class="node">
<title>github.com/guild&#45;framework/guild&#45;core/internal/buildutil/ui.Init</title>
<g id="a_node17"><a xlink:title="github.com/guild&#45;framework/guild&#45;core/internal/buildutil/ui.Init | defined in ansi.go:39&#10;at ansi.go:40: calling [github.com/guild&#45;framework/guild&#45;core/internal/buildutil/ui.isatty]">
<path fill="lightblue" stroke="black" stroke-width="1.5" d="M569.47,-140C569.47,-140 539.47,-140 539.47,-140 533.47,-140 527.47,-134 527.47,-128 527.47,-128 527.47,-116 527.47,-116 527.47,-110 533.47,-104 539.47,-104 539.47,-104 569.47,-104 569.47,-104 575.47,-104 581.47,-110 581.47,-116 581.47,-116 581.47,-128 581.47,-128 581.47,-134 575.47,-140 569.47,-140"/>
<text xml:space="preserve" text-anchor="middle" x="554.47" y="-117.33" font-family="Verdana" font-size="14.00">Init</text>
</a>
</g>
</g>
<!-- github.com/guild&#45;framework/guild&#45;core/internal/buildutil/ui.Init&#45;&gt;github.com/guild&#45;framework/guild&#45;core/internal/buildutil/ui.isatty -->
<g id="edge20" class="edge">
<title>github.com/guild&#45;framework/guild&#45;core/internal/buildutil/ui.Init&#45;&gt;github.com/guild&#45;framework/guild&#45;core/internal/buildutil/ui.isatty</title>
<g id="a_edge20"><a xlink:title="at ansi.go:40: calling [github.com/guild&#45;framework/guild&#45;core/internal/buildutil/ui.isatty]">
<path fill="none" stroke="black" d="M582.07,-130.35C614.87,-140.66 670.96,-158.28 709.14,-170.27"/>
<polygon fill="black" stroke="black" points="707.84,-173.54 718.43,-173.2 709.94,-166.86 707.84,-173.54"/>
</a>
</g>
</g>
<!-- github.com/guild&#45;framework/guild&#45;core/internal/buildutil/ui.RestoreTerminal -->
<g id="node18" class="node">
<title>github.com/guild&#45;framework/guild&#45;core/internal/buildutil/ui.RestoreTerminal</title>
<g id="a_node18"><a xlink:title="github.com/guild&#45;framework/guild&#45;core/internal/buildutil/ui.RestoreTerminal | defined in ansi.go:161&#10;at ansi.go:162: calling [github.com/guild&#45;framework/guild&#45;core/internal/buildutil/ui.isatty]">
<path fill="lightblue" stroke="black" stroke-width="1.5" d="M609.87,-357C609.87,-357 499.08,-357 499.08,-357 493.08,-357 487.08,-351 487.08,-345 487.08,-345 487.08,-333 487.08,-333 487.08,-327 493.08,-321 499.08,-321 499.08,-321 609.87,-321 609.87,-321 615.87,-321 621.87,-327 621.87,-333 621.87,-333 621.87,-345 621.87,-345 621.87,-351 615.87,-357 609.87,-357"/>
<text xml:space="preserve" text-anchor="middle" x="554.47" y="-334.32" font-family="Verdana" font-size="14.00">RestoreTerminal</text>
</a>
</g>
</g>
<!-- github.com/guild&#45;framework/guild&#45;core/internal/buildutil/ui.RestoreTerminal&#45;&gt;github.com/guild&#45;framework/guild&#45;core/internal/buildutil/ui.isatty -->
<g id="edge15" class="edge">
<title>github.com/guild&#45;framework/guild&#45;core/internal/buildutil/ui.RestoreTerminal&#45;&gt;github.com/guild&#45;framework/guild&#45;core/internal/buildutil/ui.isatty</title>
<g id="a_edge15"><a xlink:title="at ansi.go:162: calling [github.com/guild&#45;framework/guild&#45;core/internal/buildutil/ui.isatty]">
<path fill="none" stroke="black" d="M602.33,-320.37C609.1,-316.96 615.82,-313.15 621.87,-309 663.64,-280.34 703.9,-237.25 727.71,-209.62"/>
<polygon fill="black" stroke="black" points="730.35,-211.93 734.16,-202.05 725.01,-207.4 730.35,-211.93"/>
</a>
</g>
</g>
<!-- github.com/guild&#45;framework/guild&#45;core/internal/buildutil/ui.Progress -->
<g id="node19" class="node">
<title>github.com/guild&#45;framework/guild&#45;core/internal/buildutil/ui.Progress</title>
<g id="a_node19"><a xlink:title="github.com/guild&#45;framework/guild&#45;core/internal/buildutil/ui.Progress | defined in widgets.go:40&#10;at widgets.go:44: calling [github.com/guild&#45;framework/guild&#45;core/internal/buildutil/ui.ColourEnabled]">
<path fill="lightblue" stroke="black" stroke-width="1.5" d="M343.58,-418C343.58,-418 283.79,-418 283.79,-418 277.79,-418 271.79,-412 271.79,-406 271.79,-406 271.79,-394 271.79,-394 271.79,-388 277.79,-382 283.79,-382 283.79,-382 343.58,-382 343.58,-382 349.58,-382 355.58,-388 355.58,-394 355.58,-394 355.58,-406 355.58,-406 355.58,-412 349.58,-418 343.58,-418"/>
<text xml:space="preserve" text-anchor="middle" x="313.68" y="-395.32" font-family="Verdana" font-size="14.00">Progress</text>
</a>
</g>
</g>
<!-- github.com/guild&#45;framework/guild&#45;core/internal/buildutil/ui.Progress&#45;&gt;github.com/guild&#45;framework/guild&#45;core/internal/buildutil/ui.ColourEnabled -->
<g id="edge5" class="edge">
<title>github.com/guild&#45;framework/guild&#45;core/internal/buildutil/ui.Progress&#45;&gt;github.com/guild&#45;framework/guild&#45;core/internal/buildutil/ui.ColourEnabled</title>
<g id="a_edge5"><a xlink:title="at widgets.go:44: calling [github.com/guild&#45;framework/guild&#45;core/internal/buildutil/ui.ColourEnabled]">
<path fill="none" stroke="black" d="M356.3,-391.43C374.69,-386.65 396.15,-379.67 414.08,-370 451.29,-349.93 451.4,-331.69 487.08,-309 491,-306.5 495.16,-304.09 499.41,-301.78"/>
<polygon fill="black" stroke="black" points="500.78,-305.01 508.06,-297.3 497.57,-298.79 500.78,-305.01"/>
</a>
</g>
</g>
</g>
</svg>
