<?xml version="1.0" encoding="UTF-8" standalone="no"?>
<!DOCTYPE svg PUBLIC "-//W3C//DTD SVG 1.1//EN"
 "http://www.w3.org/Graphics/SVG/1.1/DTD/svg11.dtd">
<!-- Generated by graphviz version 14.1.1 (20251213.1925)
 -->
<!-- Title: gocallvis Pages: 1 -->
<svg width="617pt" height="1120pt"
 viewBox="0.00 0.00 617.00 1120.00" xmlns="http://www.w3.org/2000/svg" xmlns:xlink="http://www.w3.org/1999/xlink">
<g id="graph0" class="graph" transform="scale(1 1) rotate(0) translate(0 1120)">
<title>gocallvis</title>
<polygon fill="lightgray" stroke="none" points="0,0 0,-1120 617.33,-1120 617.33,0 0,0"/>
<g id="clust1" class="cluster">
<title>cluster_focus</title>
<polygon fill="#e6ecfa" stroke="black" stroke-width="0.5" points="8,-8 8,-1112 609.33,-1112 609.33,-8 8,-8"/>
<text xml:space="preserve" text-anchor="middle" x="308.67" y="-1090.9" font-family="Arial" font-size="18.00">main</text>
</g>
<g id="clust2" class="cluster">
<title>cluster_github.com/guild&#45;framework/guild&#45;core/internal/integration/bridges</title>
<g id="a_clust2"><a xlink:href="/?f=github.com/guild-framework/guild-core/internal/integration/bridges" xlink:title="package: github.com/guild&#45;framework/guild&#45;core/internal/integration/bridges">
<polygon fill="lightyellow" stroke="black" stroke-width="0.8" points="297.17,-16 297.17,-218 570.21,-218 570.21,-16 297.17,-16"/>
<text xml:space="preserve" text-anchor="middle" x="433.69" y="-198.8" font-family="Tahoma bold" font-size="16.00">bridges</text>
</a>
</g>
</g>
<g id="clust3" class="cluster">
<title>cluster_github.com/guild&#45;framework/guild&#45;core/internal/integration/services</title>
<g id="a_clust3"><a xlink:href="/?f=github.com/guild-framework/guild-core/internal/integration/services" xlink:title="package: github.com/guild&#45;framework/guild&#45;core/internal/integration/services">
<polygon fill="lightyellow" stroke="black" stroke-width="0.8" points="266.04,-226 266.04,-672 601.33,-672 601.33,-226 266.04,-226"/>
<text xml:space="preserve" text-anchor="middle" x="433.69" y="-652.8" font-family="Tahoma bold" font-size="16.00">services</text>
</a>
</g>
</g>
<g id="clust4" class="cluster">
<title>cluster_github.com/guild&#45;framework/guild&#45;core/pkg/events</title>
<g id="a_clust4"><a xlink:href="/?f=github.com/guild-framework/guild-core/pkg/events" xlink:title="package: github.com/guild&#45;framework/guild&#45;core/pkg/events">
<polygon fill="lightyellow" stroke="black" stroke-width="0.8" points="314.79,-680 314.79,-943 552.58,-943 552.58,-680 314.79,-680"/>
<text xml:space="preserve" text-anchor="middle" x="433.69" y="-923.8" font-family="Tahoma bold" font-size="16.00">events</text>
</a>
</g>
</g>
<g id="clust5" class="cluster">
<title>cluster_github.com/guild&#45;framework/guild&#45;core/pkg/observability</title>
<g id="a_clust5"><a xlink:href="/?f=github.com/guild-framework/guild-core/pkg/observability" xlink:title="package: github.com/guild&#45;framework/guild&#45;core/pkg/observability">
<polygon fill="lightyellow" stroke="black" stroke-width="0.8" points="375.19,-951 375.19,-1031 493.19,-1031 493.19,-951 375.19,-951"/>
<text xml:space="preserve" text-anchor="middle" x="434.19" y="-1011.8" font-family="Tahoma bold" font-size="16.00">observability</text>
</a>
</g>
</g>
<!-- github.com/guild&#45;framework/guild&#45;core/internal/integration/example.main -->
<g id="node1" class="node">
<title>github.com/guild&#45;framework/guild&#45;core/internal/integration/example.main</title>
<g id="a_node1"><a xlink:title="github.com/guild&#45;framework/guild&#45;core/internal/integration/example.main | defined in main.go:16&#10;at main.go:29: calling [github.com/guild&#45;framework/guild&#45;core/pkg/events.NewMemoryEventBus]&#10;at main.go:38: calling [(*github.com/guild&#45;framework/guild&#45;core/internal/integration/services.DefaultServiceRegistry).Register]&#10;at main.go:48: calling [(*github.com/guild&#45;framework/guild&#45;core/internal/integration/services.DefaultServiceRegistry).Register]&#10;at main.go:59: calling [(*github.com/guild&#45;framework/guild&#45;core/internal/integration/services.DefaultServiceRegistry).Start]&#10;at main.go:74: calling [github.com/guild&#45;framework/guild&#45;core/pkg/events.NewBaseEvent]&#10;at main.go:84: calling [(*github.com/guild&#45;framework/guild&#45;core/pkg/events.MemoryEventBus).Publish]&#10;at main.go:115: calling [(*github.com/guild&#45;framework/guild&#45;core/internal/integration/services.DefaultServiceRegistry).Stop]&#10;at main.go:29: calling [github.com/guild&#45;framework/guild&#45;core/pkg/events.DefaultEventBusConfig]&#10;at main.go:32: calling [github.com/guild&#45;framework/guild&#45;core/internal/integration/services.NewServiceRegistry]&#10;at main.go:53: calling [(*github.com/guild&#45;framework/guild&#45;core/internal/integration/services.DefaultServiceRegistry).SetDependency]&#10;at main.go:93: calling [(*github.com/guild&#45;framework/guild&#45;core/internal/integration/services.DefaultServiceRegistry).Health]&#10;at main.go:103: calling [(*github.com/guild&#45;framework/guild&#45;core/internal/integration/bridges.EventLoggerBridge).GetMetrics]&#10;at main.go:21: calling [github.com/guild&#45;framework/guild&#45;core/pkg/observability.NewLogger]&#10;at main.go:64: calling [(*github.com/guild&#45;framework/guild&#45;core/internal/integration/services.DefaultServiceRegistry).List]&#10;at main.go:35: calling [github.com/guild&#45;framework/guild&#45;core/internal/integration/bridges.DefaultEventLoggerConfig]&#10;at main.go:36: calling [github.com/guild&#45;framework/guild&#45;core/internal/integration/bridges.NewEventLoggerBridge]">
<path fill="lightblue" stroke="black" stroke-width="0.5" d="M125.29,-514C125.29,-514 91.75,-514 91.75,-514 85.75,-514 79.75,-508 79.75,-502 79.75,-502 79.75,-490 79.75,-490 79.75,-484 85.75,-478 91.75,-478 91.75,-478 125.29,-478 125.29,-478 131.29,-478 137.29,-484 137.29,-490 137.29,-490 137.29,-502 137.29,-502 137.29,-508 131.29,-514 125.29,-514"/>
<text xml:space="preserve" text-anchor="middle" x="108.52" y="-491.32" font-family="Verdana" font-size="14.00">main</text>
</a>
</g>
</g>
<!-- github.com/guild&#45;framework/guild&#45;core/internal/integration/bridges.DefaultEventLoggerConfig -->
<g id="node4" class="node">
<title>github.com/guild&#45;framework/guild&#45;core/internal/integration/bridges.DefaultEventLoggerConfig</title>
<g id="a_node4"><a xlink:title="github.com/guild&#45;framework/guild&#45;core/internal/integration/bridges.DefaultEventLoggerConfig | defined in event_logger.go:72">
<path fill="moccasin" stroke="black" stroke-width="1.5" d="M524.71,-60C524.71,-60 342.67,-60 342.67,-60 336.67,-60 330.67,-54 330.67,-48 330.67,-48 330.67,-36 330.67,-36 330.67,-30 336.67,-24 342.67,-24 342.67,-24 524.71,-24 524.71,-24 530.71,-24 536.71,-30 536.71,-36 536.71,-36 536.71,-48 536.71,-48 536.71,-54 530.71,-60 524.71,-60"/>
<text xml:space="preserve" text-anchor="middle" x="433.69" y="-37.33" font-family="Verdana" font-size="14.00">DefaultEventLoggerConfig</text>
</a>
</g>
</g>
<!-- github.com/guild&#45;framework/guild&#45;core/internal/integration/example.main&#45;&gt;github.com/guild&#45;framework/guild&#45;core/internal/integration/bridges.DefaultEventLoggerConfig -->
<g id="edge15" class="edge">
<title>github.com/guild&#45;framework/guild&#45;core/internal/integration/example.main&#45;&gt;github.com/guild&#45;framework/guild&#45;core/internal/integration/bridges.DefaultEventLoggerConfig</title>
<g id="a_edge15"><a xlink:title="at main.go:35: calling [github.com/guild&#45;framework/guild&#45;core/internal/integration/bridges.DefaultEventLoggerConfig]">
<path fill="none" stroke="saddlebrown" d="M110.21,-478.08C113.78,-412.4 135.5,-182.99 266.04,-73 281.16,-60.26 299.82,-52.07 319.13,-46.92"/>
<polygon fill="saddlebrown" stroke="saddlebrown" points="319.82,-50.36 328.75,-44.65 318.21,-43.54 319.82,-50.36"/>
</a>
</g>
</g>
<!-- github.com/guild&#45;framework/guild&#45;core/internal/integration/bridges.NewEventLoggerBridge -->
<g id="node5" class="node">
<title>github.com/guild&#45;framework/guild&#45;core/internal/integration/bridges.NewEventLoggerBridge</title>
<g id="a_node5"><a xlink:title="github.com/guild&#45;framework/guild&#45;core/internal/integration/bridges.NewEventLoggerBridge | defined in event_logger.go:83">
<path fill="moccasin" stroke="black" stroke-width="1.5" d="M514.96,-121C514.96,-121 352.42,-121 352.42,-121 346.42,-121 340.42,-115 340.42,-109 340.42,-109 340.42,-97 340.42,-97 340.42,-91 346.42,-85 352.42,-85 352.42,-85 514.96,-85 514.96,-85 520.96,-85 526.96,-91 526.96,-97 526.96,-97 526.96,-109 526.96,-109 526.96,-115 520.96,-121 514.96,-121"/>
<text xml:space="preserve" text-anchor="middle" x="433.69" y="-98.33" font-family="Verdana" font-size="14.00">NewEventLoggerBridge</text>
</a>
</g>
</g>
<!-- github.com/guild&#45;framework/guild&#45;core/internal/integration/example.main&#45;&gt;github.com/guild&#45;framework/guild&#45;core/internal/integration/bridges.NewEventLoggerBridge -->
<g id="edge16" class="edge">
<title>github.com/guild&#45;framework/guild&#45;core/internal/integration/example.main&#45;&gt;github.com/guild&#45;framework/guild&#45;core/internal/integration/bridges.NewEventLoggerBridge</title>
<g id="a_edge16"><a xlink:title="at main.go:36: calling [github.com/guild&#45;framework/guild&#45;core/internal/integration/bridges.NewEventLoggerBridge]">
<path fill="none" stroke="saddlebrown" d="M111.47,-477.77C118.93,-417.84 151.22,-225.58 266.04,-134 283.93,-119.73 306.33,-111.27 328.85,-106.4"/>
<polygon fill="saddlebrown" stroke="saddlebrown" points="329.25,-109.89 338.41,-104.58 327.93,-103.02 329.25,-109.89"/>
</a>
</g>
</g>
<!-- (*github.com/guild&#45;framework/guild&#45;core/internal/integration/bridges.EventLoggerBridge).GetMetrics -->
<g id="node6" class="node">
<title>(*github.com/guild&#45;framework/guild&#45;core/internal/integration/bridges.EventLoggerBridge).GetMetrics</title>
<g id="a_node6"><a xlink:title="(*github.com/guild&#45;framework/guild&#45;core/internal/integration/bridges.EventLoggerBridge).GetMetrics | defined in event_logger.go:379">
<path fill="moccasin" stroke="black" stroke-width="1.5" d="M550.21,-182C550.21,-182 317.17,-182 317.17,-182 311.17,-182 305.17,-176 305.17,-170 305.17,-170 305.17,-158 305.17,-158 305.17,-152 311.17,-146 317.17,-146 317.17,-146 550.21,-146 550.21,-146 556.21,-146 562.21,-152 562.21,-158 562.21,-158 562.21,-170 562.21,-170 562.21,-176 556.21,-182 550.21,-182"/>
<text xml:space="preserve" text-anchor="middle" x="433.69" y="-159.32" font-family="Verdana" font-size="14.00">(*EventLoggerBridge).GetMetrics</text>
</a>
</g>
</g>
<!-- github.com/guild&#45;framework/guild&#45;core/internal/integration/example.main&#45;&gt;(*github.com/guild&#45;framework/guild&#45;core/internal/integration/bridges.EventLoggerBridge).GetMetrics -->
<g id="edge11" class="edge">
<title>github.com/guild&#45;framework/guild&#45;core/internal/integration/example.main&#45;&gt;(*github.com/guild&#45;framework/guild&#45;core/internal/integration/bridges.EventLoggerBridge).GetMetrics</title>
<g id="a_edge11"><a xlink:title="at main.go:103: calling [(*github.com/guild&#45;framework/guild&#45;core/internal/integration/bridges.EventLoggerBridge).GetMetrics]">
<path fill="none" stroke="saddlebrown" d="M114.75,-477.86C129.79,-428.88 177.85,-292.72 266.04,-220 283.85,-205.32 305.68,-194.42 327.6,-186.36"/>
<polygon fill="saddlebrown" stroke="saddlebrown" points="328.62,-189.71 336.92,-183.12 326.33,-183.09 328.62,-189.71"/>
</a>
</g>
</g>
<!-- github.com/guild&#45;framework/guild&#45;core/internal/integration/services.NewServiceRegistry -->
<g id="node7" class="node">
<title>github.com/guild&#45;framework/guild&#45;core/internal/integration/services.NewServiceRegistry</title>
<g id="a_node7"><a xlink:title="github.com/guild&#45;framework/guild&#45;core/internal/integration/services.NewServiceRegistry | defined in registry.go:41">
<path fill="moccasin" stroke="black" stroke-width="1.5" d="M502.96,-270C502.96,-270 364.42,-270 364.42,-270 358.42,-270 352.42,-264 352.42,-258 352.42,-258 352.42,-246 352.42,-246 352.42,-240 358.42,-234 364.42,-234 364.42,-234 502.96,-234 502.96,-234 508.96,-234 514.96,-240 514.96,-246 514.96,-246 514.96,-258 514.96,-258 514.96,-264 508.96,-270 502.96,-270"/>
<text xml:space="preserve" text-anchor="middle" x="433.69" y="-247.32" font-family="Verdana" font-size="14.00">NewServiceRegistry</text>
</a>
</g>
</g>
<!-- github.com/guild&#45;framework/guild&#45;core/internal/integration/example.main&#45;&gt;github.com/guild&#45;framework/guild&#45;core/internal/integration/services.NewServiceRegistry -->
<g id="edge8" class="edge">
<title>github.com/guild&#45;framework/guild&#45;core/internal/integration/example.main&#45;&gt;github.com/guild&#45;framework/guild&#45;core/internal/integration/services.NewServiceRegistry</title>
<g id="a_edge8"><a xlink:title="at main.go:32: calling [github.com/guild&#45;framework/guild&#45;core/internal/integration/services.NewServiceRegistry]">
<path fill="none" stroke="saddlebrown" d="M117.13,-477.83C135.72,-435.89 187.72,-332.16 266.04,-283 288.19,-269.1 315.03,-261.11 340.65,-256.61"/>
<polygon fill="saddlebrown" stroke="saddlebrown" points="341.1,-260.09 350.43,-255.07 340.01,-253.17 341.1,-260.09"/>
</a>
</g>
</g>
<!-- (*github.com/guild&#45;framework/guild&#45;core/internal/integration/services.DefaultServiceRegistry).Register -->
<g id="node8" class="node">
<title>(*github.com/guild&#45;framework/guild&#45;core/internal/integration/services.DefaultServiceRegistry).Register</title>
<g id="a_node8"><a xlink:title="(*github.com/guild&#45;framework/guild&#45;core/internal/integration/services.DefaultServiceRegistry).Register | defined in registry.go:55">
<path fill="moccasin" stroke="black" stroke-width="1.5" d="M555.08,-331C555.08,-331 312.29,-331 312.29,-331 306.29,-331 300.29,-325 300.29,-319 300.29,-319 300.29,-307 300.29,-307 300.29,-301 306.29,-295 312.29,-295 312.29,-295 555.08,-295 555.08,-295 561.08,-295 567.08,-301 567.08,-307 567.08,-307 567.08,-319 567.08,-319 567.08,-325 561.08,-331 555.08,-331"/>
<text xml:space="preserve" text-anchor="middle" x="433.69" y="-308.32" font-family="Verdana" font-size="14.00">(*DefaultServiceRegistry).Register</text>
</a>
</g>
</g>
<!-- github.com/guild&#45;framework/guild&#45;core/internal/integration/example.main&#45;&gt;(*github.com/guild&#45;framework/guild&#45;core/internal/integration/services.DefaultServiceRegistry).Register -->
<g id="edge2" class="edge">
<title>github.com/guild&#45;framework/guild&#45;core/internal/integration/example.main&#45;&gt;(*github.com/guild&#45;framework/guild&#45;core/internal/integration/services.DefaultServiceRegistry).Register</title>
<g id="a_edge2"><a xlink:title="at main.go:38: calling [(*github.com/guild&#45;framework/guild&#45;core/internal/integration/services.DefaultServiceRegistry).Register]&#10;at main.go:48: calling [(*github.com/guild&#45;framework/guild&#45;core/internal/integration/services.DefaultServiceRegistry).Register]">
<path fill="none" stroke="saddlebrown" d="M122.43,-477.75C146.57,-445.13 201.95,-377.15 266.04,-344 273.32,-340.24 280.98,-336.92 288.87,-334.01"/>
<polygon fill="saddlebrown" stroke="saddlebrown" points="289.98,-337.33 298.31,-330.77 287.71,-330.71 289.98,-337.33"/>
</a>
</g>
</g>
<!-- (*github.com/guild&#45;framework/guild&#45;core/internal/integration/services.DefaultServiceRegistry).SetDependency -->
<g id="node9" class="node">
<title>(*github.com/guild&#45;framework/guild&#45;core/internal/integration/services.DefaultServiceRegistry).SetDependency</title>
<g id="a_node9"><a xlink:title="(*github.com/guild&#45;framework/guild&#45;core/internal/integration/services.DefaultServiceRegistry).SetDependency | defined in registry.go:164">
<path fill="moccasin" stroke="black" stroke-width="1.5" d="M581.33,-392C581.33,-392 286.04,-392 286.04,-392 280.04,-392 274.04,-386 274.04,-380 274.04,-380 274.04,-368 274.04,-368 274.04,-362 280.04,-356 286.04,-356 286.04,-356 581.33,-356 581.33,-356 587.33,-356 593.33,-362 593.33,-368 593.33,-368 593.33,-380 593.33,-380 593.33,-386 587.33,-392 581.33,-392"/>
<text xml:space="preserve" text-anchor="middle" x="433.69" y="-369.32" font-family="Verdana" font-size="14.00">(*DefaultServiceRegistry).SetDependency</text>
</a>
</g>
</g>
<!-- github.com/guild&#45;framework/guild&#45;core/internal/integration/example.main&#45;&gt;(*github.com/guild&#45;framework/guild&#45;core/internal/integration/services.DefaultServiceRegistry).SetDependency -->
<g id="edge9" class="edge">
<title>github.com/guild&#45;framework/guild&#45;core/internal/integration/example.main&#45;&gt;(*github.com/guild&#45;framework/guild&#45;core/internal/integration/services.DefaultServiceRegistry).SetDependency</title>
<g id="a_edge9"><a xlink:title="at main.go:53: calling [(*github.com/guild&#45;framework/guild&#45;core/internal/integration/services.DefaultServiceRegistry).SetDependency]">
<path fill="none" stroke="saddlebrown" d="M134.47,-477.83C164.29,-457.02 216.38,-423.42 266.04,-405 275.46,-401.5 285.33,-398.39 295.37,-395.62"/>
<polygon fill="saddlebrown" stroke="saddlebrown" points="296.07,-399.05 304.85,-393.12 294.29,-392.28 296.07,-399.05"/>
</a>
</g>
</g>
<!-- (*github.com/guild&#45;framework/guild&#45;core/internal/integration/services.DefaultServiceRegistry).Start -->
<g id="node10" class="node">
<title>(*github.com/guild&#45;framework/guild&#45;core/internal/integration/services.DefaultServiceRegistry).Start</title>
<g id="a_node10"><a xlink:title="(*github.com/guild&#45;framework/guild&#45;core/internal/integration/services.DefaultServiceRegistry).Start | defined in registry.go:206">
<path fill="moccasin" stroke="black" stroke-width="1.5" d="M543.46,-453C543.46,-453 323.92,-453 323.92,-453 317.92,-453 311.92,-447 311.92,-441 311.92,-441 311.92,-429 311.92,-429 311.92,-423 317.92,-417 323.92,-417 323.92,-417 543.46,-417 543.46,-417 549.46,-417 555.46,-423 555.46,-429 555.46,-429 555.46,-441 555.46,-441 555.46,-447 549.46,-453 543.46,-453"/>
<text xml:space="preserve" text-anchor="middle" x="433.69" y="-430.32" font-family="Verdana" font-size="14.00">(*DefaultServiceRegistry).Start</text>
</a>
</g>
</g>
<!-- github.com/guild&#45;framework/guild&#45;core/internal/integration/example.main&#45;&gt;(*github.com/guild&#45;framework/guild&#45;core/internal/integration/services.DefaultServiceRegistry).Start -->
<g id="edge3" class="edge">
<title>github.com/guild&#45;framework/guild&#45;core/internal/integration/example.main&#45;&gt;(*github.com/guild&#45;framework/guild&#45;core/internal/integration/services.DefaultServiceRegistry).Start</title>
<g id="a_edge3"><a xlink:title="at main.go:59: calling [(*github.com/guild&#45;framework/guild&#45;core/internal/integration/services.DefaultServiceRegistry).Start]">
<path fill="none" stroke="saddlebrown" d="M137.5,-490.59C168.81,-484.55 221.04,-474.5 266.04,-466 283.64,-462.68 302.29,-459.18 320.5,-455.78"/>
<polygon fill="saddlebrown" stroke="saddlebrown" points="321.09,-459.23 330.28,-453.96 319.81,-452.35 321.09,-459.23"/>
</a>
</g>
</g>
<!-- (*github.com/guild&#45;framework/guild&#45;core/internal/integration/services.DefaultServiceRegistry).List -->
<g id="node11" class="node">
<title>(*github.com/guild&#45;framework/guild&#45;core/internal/integration/services.DefaultServiceRegistry).List</title>
<g id="a_node11"><a xlink:title="(*github.com/guild&#45;framework/guild&#45;core/internal/integration/services.DefaultServiceRegistry).List | defined in registry.go:144">
<path fill="moccasin" stroke="black" stroke-width="1.5" d="M538.21,-514C538.21,-514 329.17,-514 329.17,-514 323.17,-514 317.17,-508 317.17,-502 317.17,-502 317.17,-490 317.17,-490 317.17,-484 323.17,-478 329.17,-478 329.17,-478 538.21,-478 538.21,-478 544.21,-478 550.21,-484 550.21,-490 550.21,-490 550.21,-502 550.21,-502 550.21,-508 544.21,-514 538.21,-514"/>
<text xml:space="preserve" text-anchor="middle" x="433.69" y="-491.32" font-family="Verdana" font-size="14.00">(*DefaultServiceRegistry).List</text>
</a>
</g>
</g>
<!-- github.com/guild&#45;framework/guild&#45;core/internal/integration/example.main&#45;&gt;(*github.com/guild&#45;framework/guild&#45;core/internal/integration/services.DefaultServiceRegistry).List -->
<g id="edge14" class="edge">
<title>github.com/guild&#45;framework/guild&#45;core/internal/integration/example.main&#45;&gt;(*github.com/guild&#45;framework/guild&#45;core/internal/integration/services.DefaultServiceRegistry).List</title>
<g id="a_edge14"><a xlink:title="at main.go:64: calling [(*github.com/guild&#45;framework/guild&#45;core/internal/integration/services.DefaultServiceRegistry).List]">
<path fill="none" stroke="saddlebrown" d="M137.35,-496C174.68,-496 243.43,-496 305.22,-496"/>
<polygon fill="saddlebrown" stroke="saddlebrown" points="305.15,-499.5 315.15,-496 305.15,-492.5 305.15,-499.5"/>
</a>
</g>
</g>
<!-- (*github.com/guild&#45;framework/guild&#45;core/internal/integration/services.DefaultServiceRegistry).Health -->
<g id="node12" class="node">
<title>(*github.com/guild&#45;framework/guild&#45;core/internal/integration/services.DefaultServiceRegistry).Health</title>
<g id="a_node12"><a xlink:title="(*github.com/guild&#45;framework/guild&#45;core/internal/integration/services.DefaultServiceRegistry).Health | defined in registry.go:259">
<path fill="moccasin" stroke="black" stroke-width="1.5" d="M548.71,-575C548.71,-575 318.67,-575 318.67,-575 312.67,-575 306.67,-569 306.67,-563 306.67,-563 306.67,-551 306.67,-551 306.67,-545 312.67,-539 318.67,-539 318.67,-539 548.71,-539 548.71,-539 554.71,-539 560.71,-545 560.71,-551 560.71,-551 560.71,-563 560.71,-563 560.71,-569 554.71,-575 548.71,-575"/>
<text xml:space="preserve" text-anchor="middle" x="433.69" y="-552.33" font-family="Verdana" font-size="14.00">(*DefaultServiceRegistry).Health</text>
</a>
</g>
</g>
<!-- github.com/guild&#45;framework/guild&#45;core/internal/integration/example.main&#45;&gt;(*github.com/guild&#45;framework/guild&#45;core/internal/integration/services.DefaultServiceRegistry).Health -->
<g id="edge10" class="edge">
<title>github.com/guild&#45;framework/guild&#45;core/internal/integration/example.main&#45;&gt;(*github.com/guild&#45;framework/guild&#45;core/internal/integration/services.DefaultServiceRegistry).Health</title>
<g id="a_edge10"><a xlink:title="at main.go:93: calling [(*github.com/guild&#45;framework/guild&#45;core/internal/integration/services.DefaultServiceRegistry).Health]">
<path fill="none" stroke="saddlebrown" d="M137.48,-501.69C168.77,-508.02 220.99,-518.48 266.04,-527 282.27,-530.07 299.41,-533.23 316.26,-536.31"/>
<polygon fill="saddlebrown" stroke="saddlebrown" points="315.34,-539.7 325.8,-538.04 316.59,-532.81 315.34,-539.7"/>
</a>
</g>
</g>
<!-- (*github.com/guild&#45;framework/guild&#45;core/internal/integration/services.DefaultServiceRegistry).Stop -->
<g id="node13" class="node">
<title>(*github.com/guild&#45;framework/guild&#45;core/internal/integration/services.DefaultServiceRegistry).Stop</title>
<g id="a_node13"><a xlink:title="(*github.com/guild&#45;framework/guild&#45;core/internal/integration/services.DefaultServiceRegistry).Stop | defined in registry.go:227">
<path fill="moccasin" stroke="black" stroke-width="1.5" d="M542.33,-636C542.33,-636 325.04,-636 325.04,-636 319.04,-636 313.04,-630 313.04,-624 313.04,-624 313.04,-612 313.04,-612 313.04,-606 319.04,-600 325.04,-600 325.04,-600 542.33,-600 542.33,-600 548.33,-600 554.33,-606 554.33,-612 554.33,-612 554.33,-624 554.33,-624 554.33,-630 548.33,-636 542.33,-636"/>
<text xml:space="preserve" text-anchor="middle" x="433.69" y="-613.33" font-family="Verdana" font-size="14.00">(*DefaultServiceRegistry).Stop</text>
</a>
</g>
</g>
<!-- github.com/guild&#45;framework/guild&#45;core/internal/integration/example.main&#45;&gt;(*github.com/guild&#45;framework/guild&#45;core/internal/integration/services.DefaultServiceRegistry).Stop -->
<g id="edge6" class="edge">
<title>github.com/guild&#45;framework/guild&#45;core/internal/integration/example.main&#45;&gt;(*github.com/guild&#45;framework/guild&#45;core/internal/integration/services.DefaultServiceRegistry).Stop</title>
<g id="a_edge6"><a xlink:title="at main.go:115: calling [(*github.com/guild&#45;framework/guild&#45;core/internal/integration/services.DefaultServiceRegistry).Stop]">
<path fill="none" stroke="saddlebrown" d="M134.16,-514.24C163.88,-535.33 216.09,-569.5 266.04,-588 277.33,-592.18 289.28,-595.79 301.37,-598.91"/>
<polygon fill="saddlebrown" stroke="saddlebrown" points="300.5,-602.3 311.05,-601.28 302.16,-595.5 300.5,-602.3"/>
</a>
</g>
</g>
<!-- github.com/guild&#45;framework/guild&#45;core/pkg/events.DefaultEventBusConfig -->
<g id="node14" class="node">
<title>github.com/guild&#45;framework/guild&#45;core/pkg/events.DefaultEventBusConfig</title>
<g id="a_node14"><a xlink:title="github.com/guild&#45;framework/guild&#45;core/pkg/events.DefaultEventBusConfig | defined in bus.go:65">
<path fill="moccasin" stroke="black" stroke-width="1.5" d="M513.83,-724C513.83,-724 353.54,-724 353.54,-724 347.54,-724 341.54,-718 341.54,-712 341.54,-712 341.54,-700 341.54,-700 341.54,-694 347.54,-688 353.54,-688 353.54,-688 513.83,-688 513.83,-688 519.83,-688 525.83,-694 525.83,-700 525.83,-700 525.83,-712 525.83,-712 525.83,-718 519.83,-724 513.83,-724"/>
<text xml:space="preserve" text-anchor="middle" x="433.69" y="-701.33" font-family="Verdana" font-size="14.00">DefaultEventBusConfig</text>
</a>
</g>
</g>
<!-- github.com/guild&#45;framework/guild&#45;core/internal/integration/example.main&#45;&gt;github.com/guild&#45;framework/guild&#45;core/pkg/events.DefaultEventBusConfig -->
<g id="edge7" class="edge">
<title>github.com/guild&#45;framework/guild&#45;core/internal/integration/example.main&#45;&gt;github.com/guild&#45;framework/guild&#45;core/pkg/events.DefaultEventBusConfig</title>
<g id="a_edge7"><a xlink:title="at main.go:29: calling [github.com/guild&#45;framework/guild&#45;core/pkg/events.DefaultEventBusConfig]">
<path fill="none" stroke="saddlebrown" d="M119.23,-514.12C140.39,-551.63 194.53,-637.67 266.04,-678 285.39,-688.91 307.86,-695.82 329.93,-700.13"/>
<polygon fill="saddlebrown" stroke="saddlebrown" points="329.11,-703.54 339.57,-701.84 330.34,-696.65 329.11,-703.54"/>
</a>
</g>
</g>
<!-- github.com/guild&#45;framework/guild&#45;core/pkg/events.NewMemoryEventBus -->
<g id="node15" class="node">
<title>github.com/guild&#45;framework/guild&#45;core/pkg/events.NewMemoryEventBus</title>
<g id="a_node15"><a xlink:title="github.com/guild&#45;framework/guild&#45;core/pkg/events.NewMemoryEventBus | defined in memory_bus.go:45">
<path fill="moccasin" stroke="black" stroke-width="1.5" d="M509.33,-785C509.33,-785 358.04,-785 358.04,-785 352.04,-785 346.04,-779 346.04,-773 346.04,-773 346.04,-761 346.04,-761 346.04,-755 352.04,-749 358.04,-749 358.04,-749 509.33,-749 509.33,-749 515.33,-749 521.33,-755 521.33,-761 521.33,-761 521.33,-773 521.33,-773 521.33,-779 515.33,-785 509.33,-785"/>
<text xml:space="preserve" text-anchor="middle" x="433.69" y="-762.33" font-family="Verdana" font-size="14.00">NewMemoryEventBus</text>
</a>
</g>
</g>
<!-- github.com/guild&#45;framework/guild&#45;core/internal/integration/example.main&#45;&gt;github.com/guild&#45;framework/guild&#45;core/pkg/events.NewMemoryEventBus -->
<g id="edge1" class="edge">
<title>github.com/guild&#45;framework/guild&#45;core/internal/integration/example.main&#45;&gt;github.com/guild&#45;framework/guild&#45;core/pkg/events.NewMemoryEventBus</title>
<g id="a_edge1"><a xlink:title="at main.go:29: calling [github.com/guild&#45;framework/guild&#45;core/pkg/events.NewMemoryEventBus]">
<path fill="none" stroke="saddlebrown" d="M115.54,-514.14C131.73,-559.91 180.85,-680.4 266.04,-737 286.12,-750.34 310.44,-758.21 334.22,-762.75"/>
<polygon fill="saddlebrown" stroke="saddlebrown" points="333.52,-766.18 343.96,-764.41 334.69,-759.28 333.52,-766.18"/>
</a>
</g>
</g>
<!-- github.com/guild&#45;framework/guild&#45;core/pkg/events.NewBaseEvent -->
<g id="node16" class="node">
<title>github.com/guild&#45;framework/guild&#45;core/pkg/events.NewBaseEvent</title>
<g id="a_node16"><a xlink:title="github.com/guild&#45;framework/guild&#45;core/pkg/events.NewBaseEvent | defined in core.go:77">
<path fill="moccasin" stroke="black" stroke-width="1.5" d="M484.96,-846C484.96,-846 382.42,-846 382.42,-846 376.42,-846 370.42,-840 370.42,-834 370.42,-834 370.42,-822 370.42,-822 370.42,-816 376.42,-810 382.42,-810 382.42,-810 484.96,-810 484.96,-810 490.96,-810 496.96,-816 496.96,-822 496.96,-822 496.96,-834 496.96,-834 496.96,-840 490.96,-846 484.96,-846"/>
<text xml:space="preserve" text-anchor="middle" x="433.69" y="-823.33" font-family="Verdana" font-size="14.00">NewBaseEvent</text>
</a>
</g>
</g>
<!-- github.com/guild&#45;framework/guild&#45;core/internal/integration/example.main&#45;&gt;github.com/guild&#45;framework/guild&#45;core/pkg/events.NewBaseEvent -->
<g id="edge4" class="edge">
<title>github.com/guild&#45;framework/guild&#45;core/internal/integration/example.main&#45;&gt;github.com/guild&#45;framework/guild&#45;core/pkg/events.NewBaseEvent</title>
<g id="a_edge4"><a xlink:title="at main.go:74: calling [github.com/guild&#45;framework/guild&#45;core/pkg/events.NewBaseEvent]">
<path fill="none" stroke="saddlebrown" d="M113.11,-514.24C124.65,-567.59 165.99,-724.23 266.04,-798 292.38,-817.42 327.33,-825.63 358.41,-828.69"/>
<polygon fill="saddlebrown" stroke="saddlebrown" points="357.91,-832.17 368.16,-829.48 358.47,-825.19 357.91,-832.17"/>
</a>
</g>
</g>
<!-- (*github.com/guild&#45;framework/guild&#45;core/pkg/events.MemoryEventBus).Publish -->
<g id="node17" class="node">
<title>(*github.com/guild&#45;framework/guild&#45;core/pkg/events.MemoryEventBus).Publish</title>
<g id="a_node17"><a xlink:title="(*github.com/guild&#45;framework/guild&#45;core/pkg/events.MemoryEventBus).Publish | defined in memory_bus.go:159">
<path fill="moccasin" stroke="black" stroke-width="1.5" d="M532.58,-907C532.58,-907 334.79,-907 334.79,-907 328.79,-907 322.79,-901 322.79,-895 322.79,-895 322.79,-883 322.79,-883 322.79,-877 328.79,-871 334.79,-871 334.79,-871 532.58,-871 532.58,-871 538.58,-871 544.58,-877 544.58,-883 544.58,-883 544.58,-895 544.58,-895 544.58,-901 538.58,-907 532.58,-907"/>
<text xml:space="preserve" text-anchor="middle" x="433.69" y="-884.33" font-family="Verdana" font-size="14.00">(*MemoryEventBus).Publish</text>
</a>
</g>
</g>
<!-- github.com/guild&#45;framework/guild&#45;core/internal/integration/example.main&#45;&gt;(*github.com/guild&#45;framework/guild&#45;core/pkg/events.MemoryEventBus).Publish -->
<g id="edge5" class="edge">
<title>github.com/guild&#45;framework/guild&#45;core/internal/integration/example.main&#45;&gt;(*github.com/guild&#45;framework/guild&#45;core/pkg/events.MemoryEventBus).Publish</title>
<g id="a_edge5"><a xlink:title="at main.go:84: calling [(*github.com/guild&#45;framework/guild&#45;core/pkg/events.MemoryEventBus).Publish]">
<path fill="none" stroke="saddlebrown" d="M111.38,-513.89C118.62,-573.58 150.47,-767.27 266.04,-859 279.26,-869.49 294.94,-876.79 311.3,-881.79"/>
<polygon fill="saddlebrown" stroke="saddlebrown" points="310.1,-885.1 320.67,-884.36 311.95,-878.34 310.1,-885.1"/>
</a>
</g>
</g>
<!-- github.com/guild&#45;framework/guild&#45;core/pkg/observability.NewLogger -->
<g id="node18" class="node">
<title>github.com/guild&#45;framework/guild&#45;core/pkg/observability.NewLogger</title>
<g id="a_node18"><a xlink:title="github.com/guild&#45;framework/guild&#45;core/pkg/observability.NewLogger | defined in logger.go:98">
<path fill="moccasin" stroke="black" stroke-width="1.5" d="M472.21,-995C472.21,-995 395.17,-995 395.17,-995 389.17,-995 383.17,-989 383.17,-983 383.17,-983 383.17,-971 383.17,-971 383.17,-965 389.17,-959 395.17,-959 395.17,-959 472.21,-959 472.21,-959 478.21,-959 484.21,-965 484.21,-971 484.21,-971 484.21,-983 484.21,-983 484.21,-989 478.21,-995 472.21,-995"/>
<text xml:space="preserve" text-anchor="middle" x="433.69" y="-972.33" font-family="Verdana" font-size="14.00">NewLogger</text>
</a>
</g>
</g>
<!-- github.com/guild&#45;framework/guild&#45;core/internal/integration/example.main&#45;&gt;github.com/guild&#45;framework/guild&#45;core/pkg/observability.NewLogger -->
<g id="edge13" class="edge">
<title>github.com/guild&#45;framework/guild&#45;core/internal/integration/example.main&#45;&gt;github.com/guild&#45;framework/guild&#45;core/pkg/observability.NewLogger</title>
<g id="a_edge13"><a xlink:title="at main.go:21: calling [github.com/guild&#45;framework/guild&#45;core/pkg/observability.NewLogger]">
<path fill="none" stroke="saddlebrown" d="M109.66,-513.81C111.21,-582.32 126.62,-831.02 266.04,-949 294.81,-973.35 336.68,-980.31 371.25,-981.2"/>
<polygon fill="saddlebrown" stroke="saddlebrown" points="371.12,-984.7 381.15,-981.28 371.17,-977.7 371.12,-984.7"/>
</a>
</g>
</g>
<!-- (*github.com/guild&#45;framework/guild&#45;core/internal/integration/example.DemoService).Ready -->
<g id="node2" class="node">
<title>(*github.com/guild&#45;framework/guild&#45;core/internal/integration/example.DemoService).Ready</title>
<g id="a_node2"><a xlink:title="(*github.com/guild&#45;framework/guild&#45;core/internal/integration/example.DemoService).Ready | defined in main.go:169&#10;at main.go:170: calling [(*github.com/guild&#45;framework/guild&#45;core/internal/integration/example.DemoService).Health]">
<path fill="lightblue" stroke="black" stroke-width="1.5" d="M189.04,-1075C189.04,-1075 28,-1075 28,-1075 22,-1075 16,-1069 16,-1063 16,-1063 16,-1051 16,-1051 16,-1045 22,-1039 28,-1039 28,-1039 189.04,-1039 189.04,-1039 195.04,-1039 201.04,-1045 201.04,-1051 201.04,-1051 201.04,-1063 201.04,-1063 201.04,-1069 195.04,-1075 189.04,-1075"/>
<text xml:space="preserve" text-anchor="middle" x="108.52" y="-1052.33" font-family="Verdana" font-size="14.00">(*DemoService).Ready</text>
</a>
</g>
</g>
<!-- (*github.com/guild&#45;framework/guild&#45;core/internal/integration/example.DemoService).Health -->
<g id="node3" class="node">
<title>(*github.com/guild&#45;framework/guild&#45;core/internal/integration/example.DemoService).Health</title>
<g id="a_node3"><a xlink:title="(*github.com/guild&#45;framework/guild&#45;core/internal/integration/example.DemoService).Health | defined in main.go:162">
<path fill="lightblue" stroke="black" stroke-width="1.5" d="M514.96,-1075C514.96,-1075 352.42,-1075 352.42,-1075 346.42,-1075 340.42,-1069 340.42,-1063 340.42,-1063 340.42,-1051 340.42,-1051 340.42,-1045 346.42,-1039 352.42,-1039 352.42,-1039 514.96,-1039 514.96,-1039 520.96,-1039 526.96,-1045 526.96,-1051 526.96,-1051 526.96,-1063 526.96,-1063 526.96,-1069 520.96,-1075 514.96,-1075"/>
<text xml:space="preserve" text-anchor="middle" x="433.69" y="-1052.33" font-family="Verdana" font-size="14.00">(*DemoService).Health</text>
</a>
</g>
</g>
<!-- (*github.com/guild&#45;framework/guild&#45;core/internal/integration/example.DemoService).Ready&#45;&gt;(*github.com/guild&#45;framework/guild&#45;core/internal/integration/example.DemoService).Health -->
<g id="edge12" class="edge">
<title>(*github.com/guild&#45;framework/guild&#45;core/internal/integration/example.DemoService).Ready&#45;&gt;(*github.com/guild&#45;framework/guild&#45;core/internal/integration/example.DemoService).Health</title>
<g id="a_edge12"><a xlink:title="at main.go:170: calling [(*github.com/guild&#45;framework/guild&#45;core/internal/integration/example.DemoService).Health]">
<path fill="none" stroke="black" d="M201.69,-1057C241.26,-1057 287.67,-1057 328.48,-1057"/>
<polygon fill="black" stroke="black" points="328.32,-1060.5 338.32,-1057 328.32,-1053.5 328.32,-1060.5"/>
</a>
</g>
</g>
</g>
</svg>
