<?xml version="1.0" encoding="UTF-8" standalone="no"?>
<!DOCTYPE svg PUBLIC "-//W3C//DTD SVG 1.1//EN"
 "http://www.w3.org/Graphics/SVG/1.1/DTD/svg11.dtd">
<!-- Generated by graphviz version 14.1.1 (20251213.1925)
 -->
<!-- Title: gocallvis Pages: 1 -->
<svg width="617pt" height="1129pt"
 viewBox="0.00 0.00 617.00 1129.00" xmlns="http://www.w3.org/2000/svg" xmlns:xlink="http://www.w3.org/1999/xlink">
<g id="graph0" class="graph" transform="scale(1 1) rotate(0) translate(0 1129)">
<title>gocallvis</title>
<polygon fill="lightgray" stroke="none" points="0,0 0,-1129 617.33,-1129 617.33,0 0,0"/>
<g id="clust1" class="cluster">
<title>cluster_focus</title>
<polygon fill="#e6ecfa" stroke="black" stroke-width="0.5" points="8,-8 8,-1121 609.33,-1121 609.33,-8 8,-8"/>
<text xml:space="preserve" text-anchor="middle" x="308.67" y="-1099.9" font-family="Arial" font-size="18.00">main</text>
</g>
<g id="clust2" class="cluster">
<title>cluster_github.com/guild&#45;framework/guild&#45;core/internal/integration/bridges</title>
<g id="a_clust2"><a xlink:href="/?f=github.com/guild-framework/guild-core/internal/integration/bridges" xlink:title="package: github.com/guild&#45;framework/guild&#45;core/internal/integration/bridges">
<polygon fill="lightyellow" stroke="black" stroke-width="0.8" points="297.17,-69 297.17,-271 570.21,-271 570.21,-69 297.17,-69"/>
<text xml:space="preserve" text-anchor="middle" x="433.69" y="-251.8" font-family="Tahoma bold" font-size="16.00">bridges</text>
</a>
</g>
</g>
<g id="clust3" class="cluster">
<title>cluster_github.com/guild&#45;framework/guild&#45;core/internal/integration/services</title>
<g id="a_clust3"><a xlink:href="/?f=github.com/guild-framework/guild-core/internal/integration/services" xlink:title="package: github.com/guild&#45;framework/guild&#45;core/internal/integration/services">
<polygon fill="lightyellow" stroke="black" stroke-width="0.8" points="266.04,-279 266.04,-725 601.33,-725 601.33,-279 266.04,-279"/>
<text xml:space="preserve" text-anchor="middle" x="433.69" y="-705.8" font-family="Tahoma bold" font-size="16.00">services</text>
</a>
</g>
</g>
<g id="clust4" class="cluster">
<title>cluster_github.com/guild&#45;framework/guild&#45;core/pkg/events</title>
<g id="a_clust4"><a xlink:href="/?f=github.com/guild-framework/guild-core/pkg/events" xlink:title="package: github.com/guild&#45;framework/guild&#45;core/pkg/events">
<polygon fill="lightyellow" stroke="black" stroke-width="0.8" points="314.79,-733 314.79,-996 552.58,-996 552.58,-733 314.79,-733"/>
<text xml:space="preserve" text-anchor="middle" x="433.69" y="-976.8" font-family="Tahoma bold" font-size="16.00">events</text>
</a>
</g>
</g>
<g id="clust5" class="cluster">
<title>cluster_github.com/guild&#45;framework/guild&#45;core/pkg/observability</title>
<g id="a_clust5"><a xlink:href="/?f=github.com/guild-framework/guild-core/pkg/observability" xlink:title="package: github.com/guild&#45;framework/guild&#45;core/pkg/observability">
<polygon fill="lightyellow" stroke="black" stroke-width="0.8" points="375.19,-1004 375.19,-1084 493.19,-1084 493.19,-1004 375.19,-1004"/>
<text xml:space="preserve" text-anchor="middle" x="434.19" y="-1064.8" font-family="Tahoma bold" font-size="16.00">observability</text>
</a>
</g>
</g>
<!-- (*github.com/guild&#45;framework/guild&#45;core/internal/integration/example.DemoService).Ready -->
<g id="node1" class="node">
<title>(*github.com/guild&#45;framework/guild&#45;core/internal/integration/example.DemoService).Ready</title>
<g id="a_node1"><a xlink:title="(*github.com/guild&#45;framework/guild&#45;core/internal/integration/example.DemoService).Ready | defined in main.go:169&#10;at main.go:170: calling [(*github.com/guild&#45;framework/guild&#45;core/internal/integration/example.DemoService).Health]">
<path fill="lightblue" stroke="black" stroke-width="1.5" d="M189.04,-52C189.04,-52 28,-52 28,-52 22,-52 16,-46 16,-40 16,-40 16,-28 16,-28 16,-22 22,-16 28,-16 28,-16 189.04,-16 189.04,-16 195.04,-16 201.04,-22 201.04,-28 201.04,-28 201.04,-40 201.04,-40 201.04,-46 195.04,-52 189.04,-52"/>
<text xml:space="preserve" text-anchor="middle" x="108.52" y="-29.32" font-family="Verdana" font-size="14.00">(*DemoService).Ready</text>
</a>
</g>
</g>
<!-- (*github.com/guild&#45;framework/guild&#45;core/internal/integration/example.DemoService).Health -->
<g id="node2" class="node">
<title>(*github.com/guild&#45;framework/guild&#45;core/internal/integration/example.DemoService).Health</title>
<g id="a_node2"><a xlink:title="(*github.com/guild&#45;framework/guild&#45;core/internal/integration/example.DemoService).Health | defined in main.go:162">
<path fill="lightblue" stroke="black" stroke-width="1.5" d="M514.96,-52C514.96,-52 352.42,-52 352.42,-52 346.42,-52 340.42,-46 340.42,-40 340.42,-40 340.42,-28 340.42,-28 340.42,-22 346.42,-16 352.42,-16 352.42,-16 514.96,-16 514.96,-16 520.96,-16 526.96,-22 526.96,-28 526.96,-28 526.96,-40 526.96,-40 526.96,-46 520.96,-52 514.96,-52"/>
<text xml:space="preserve" text-anchor="middle" x="433.69" y="-29.32" font-family="Verdana" font-size="14.00">(*DemoService).Health</text>
</a>
</g>
</g>
<!-- (*github.com/guild&#45;framework/guild&#45;core/internal/integration/example.DemoService).Ready&#45;&gt;(*github.com/guild&#45;framework/guild&#45;core/internal/integration/example.DemoService).Health -->
<g id="edge8" class="edge">
<title>(*github.com/guild&#45;framework/guild&#45;core/internal/integration/example.DemoService).Ready&#45;&gt;(*github.com/guild&#45;framework/guild&#45;core/internal/integration/example.DemoService).Health</title>
<g id="a_edge8"><a xlink:title="at main.go:170: calling [(*github.com/guild&#45;framework/guild&#45;core/internal/integration/example.DemoService).Health]">
<path fill="none" stroke="black" d="M201.69,-34C241.26,-34 287.67,-34 328.48,-34"/>
<polygon fill="black" stroke="black" points="328.32,-37.5 338.32,-34 328.32,-30.5 328.32,-37.5"/>
</a>
</g>
</g>
<!-- github.com/guild&#45;framework/guild&#45;core/internal/integration/example.main -->
<g id="node3" class="node">
<title>github.com/guild&#45;framework/guild&#45;core/internal/integration/example.main</title>
<g id="a_node3"><a xlink:title="github.com/guild&#45;framework/guild&#45;core/internal/integration/example.main | defined in main.go:16&#10;at main.go:53: calling [(*github.com/guild&#45;framework/guild&#45;core/internal/integration/services.DefaultServiceRegistry).SetDependency]&#10;at main.go:64: calling [(*github.com/guild&#45;framework/guild&#45;core/internal/integration/services.DefaultServiceRegistry).List]&#10;at main.go:74: calling [github.com/guild&#45;framework/guild&#45;core/pkg/events.NewBaseEvent]&#10;at main.go:29: calling [github.com/guild&#45;framework/guild&#45;core/pkg/events.DefaultEventBusConfig]&#10;at main.go:32: calling [github.com/guild&#45;framework/guild&#45;core/internal/integration/services.NewServiceRegistry]&#10;at main.go:36: calling [github.com/guild&#45;framework/guild&#45;core/internal/integration/bridges.NewEventLoggerBridge]&#10;at main.go:59: calling [(*github.com/guild&#45;framework/guild&#45;core/internal/integration/services.DefaultServiceRegistry).Start]&#10;at main.go:29: calling [github.com/guild&#45;framework/guild&#45;core/pkg/events.NewMemoryEventBus]&#10;at main.go:35: calling [github.com/guild&#45;framework/guild&#45;core/internal/integration/bridges.DefaultEventLoggerConfig]&#10;at main.go:38: calling [(*github.com/guild&#45;framework/guild&#45;core/internal/integration/services.DefaultServiceRegistry).Register]&#10;at main.go:48: calling [(*github.com/guild&#45;framework/guild&#45;core/internal/integration/services.DefaultServiceRegistry).Register]&#10;at main.go:93: calling [(*github.com/guild&#45;framework/guild&#45;core/internal/integration/services.DefaultServiceRegistry).Health]&#10;at main.go:115: calling [(*github.com/guild&#45;framework/guild&#45;core/internal/integration/services.DefaultServiceRegistry).Stop]&#10;at main.go:21: calling [github.com/guild&#45;framework/guild&#45;core/pkg/observability.NewLogger]&#10;at main.go:84: calling [(*github.com/guild&#45;framework/guild&#45;core/pkg/events.MemoryEventBus).Publish]&#10;at main.go:103: calling [(*github.com/guild&#45;framework/guild&#45;core/internal/integration/bridges.EventLoggerBridge).GetMetrics]">
<path fill="lightblue" stroke="black" stroke-width="0.5" d="M125.29,-567C125.29,-567 91.75,-567 91.75,-567 85.75,-567 79.75,-561 79.75,-555 79.75,-555 79.75,-543 79.75,-543 79.75,-537 85.75,-531 91.75,-531 91.75,-531 125.29,-531 125.29,-531 131.29,-531 137.29,-537 137.29,-543 137.29,-543 137.29,-555 137.29,-555 137.29,-561 131.29,-567 125.29,-567"/>
<text xml:space="preserve" text-anchor="middle" x="108.52" y="-544.33" font-family="Verdana" font-size="14.00">main</text>
</a>
</g>
</g>
<!-- github.com/guild&#45;framework/guild&#45;core/internal/integration/bridges.DefaultEventLoggerConfig -->
<g id="node4" class="node">
<title>github.com/guild&#45;framework/guild&#45;core/internal/integration/bridges.DefaultEventLoggerConfig</title>
<g id="a_node4"><a xlink:title="github.com/guild&#45;framework/guild&#45;core/internal/integration/bridges.DefaultEventLoggerConfig | defined in event_logger.go:72">
<path fill="moccasin" stroke="black" stroke-width="1.5" d="M524.71,-113C524.71,-113 342.67,-113 342.67,-113 336.67,-113 330.67,-107 330.67,-101 330.67,-101 330.67,-89 330.67,-89 330.67,-83 336.67,-77 342.67,-77 342.67,-77 524.71,-77 524.71,-77 530.71,-77 536.71,-83 536.71,-89 536.71,-89 536.71,-101 536.71,-101 536.71,-107 530.71,-113 524.71,-113"/>
<text xml:space="preserve" text-anchor="middle" x="433.69" y="-90.33" font-family="Verdana" font-size="14.00">DefaultEventLoggerConfig</text>
</a>
</g>
</g>
<!-- github.com/guild&#45;framework/guild&#45;core/internal/integration/example.main&#45;&gt;github.com/guild&#45;framework/guild&#45;core/internal/integration/bridges.DefaultEventLoggerConfig -->
<g id="edge10" class="edge">
<title>github.com/guild&#45;framework/guild&#45;core/internal/integration/example.main&#45;&gt;github.com/guild&#45;framework/guild&#45;core/internal/integration/bridges.DefaultEventLoggerConfig</title>
<g id="a_edge10"><a xlink:title="at main.go:35: calling [github.com/guild&#45;framework/guild&#45;core/internal/integration/bridges.DefaultEventLoggerConfig]">
<path fill="none" stroke="saddlebrown" d="M110.21,-531.08C113.78,-465.4 135.5,-235.99 266.04,-126 281.16,-113.26 299.82,-105.07 319.13,-99.92"/>
<polygon fill="saddlebrown" stroke="saddlebrown" points="319.82,-103.36 328.75,-97.65 318.21,-96.54 319.82,-103.36"/>
</a>
</g>
</g>
<!-- github.com/guild&#45;framework/guild&#45;core/internal/integration/bridges.NewEventLoggerBridge -->
<g id="node5" class="node">
<title>github.com/guild&#45;framework/guild&#45;core/internal/integration/bridges.NewEventLoggerBridge</title>
<g id="a_node5"><a xlink:title="github.com/guild&#45;framework/guild&#45;core/internal/integration/bridges.NewEventLoggerBridge | defined in event_logger.go:83">
<path fill="moccasin" stroke="black" stroke-width="1.5" d="M514.96,-174C514.96,-174 352.42,-174 352.42,-174 346.42,-174 340.42,-168 340.42,-162 340.42,-162 340.42,-150 340.42,-150 340.42,-144 346.42,-138 352.42,-138 352.42,-138 514.96,-138 514.96,-138 520.96,-138 526.96,-144 526.96,-150 526.96,-150 526.96,-162 526.96,-162 526.96,-168 520.96,-174 514.96,-174"/>
<text xml:space="preserve" text-anchor="middle" x="433.69" y="-151.32" font-family="Verdana" font-size="14.00">NewEventLoggerBridge</text>
</a>
</g>
</g>
<!-- github.com/guild&#45;framework/guild&#45;core/internal/integration/example.main&#45;&gt;github.com/guild&#45;framework/guild&#45;core/internal/integration/bridges.NewEventLoggerBridge -->
<g id="edge6" class="edge">
<title>github.com/guild&#45;framework/guild&#45;core/internal/integration/example.main&#45;&gt;github.com/guild&#45;framework/guild&#45;core/internal/integration/bridges.NewEventLoggerBridge</title>
<g id="a_edge6"><a xlink:title="at main.go:36: calling [github.com/guild&#45;framework/guild&#45;core/internal/integration/bridges.NewEventLoggerBridge]">
<path fill="none" stroke="saddlebrown" d="M111.47,-530.77C118.93,-470.84 151.22,-278.58 266.04,-187 283.93,-172.73 306.33,-164.27 328.85,-159.4"/>
<polygon fill="saddlebrown" stroke="saddlebrown" points="329.25,-162.89 338.41,-157.58 327.93,-156.02 329.25,-162.89"/>
</a>
</g>
</g>
<!-- (*github.com/guild&#45;framework/guild&#45;core/internal/integration/bridges.EventLoggerBridge).GetMetrics -->
<g id="node6" class="node">
<title>(*github.com/guild&#45;framework/guild&#45;core/internal/integration/bridges.EventLoggerBridge).GetMetrics</title>
<g id="a_node6"><a xlink:title="(*github.com/guild&#45;framework/guild&#45;core/internal/integration/bridges.EventLoggerBridge).GetMetrics | defined in event_logger.go:379">
<path fill="moccasin" stroke="black" stroke-width="1.5" d="M550.21,-235C550.21,-235 317.17,-235 317.17,-235 311.17,-235 305.17,-229 305.17,-223 305.17,-223 305.17,-211 305.17,-211 305.17,-205 311.17,-199 317.17,-199 317.17,-199 550.21,-199 550.21,-199 556.21,-199 562.21,-205 562.21,-211 562.21,-211 562.21,-223 562.21,-223 562.21,-229 556.21,-235 550.21,-235"/>
<text xml:space="preserve" text-anchor="middle" x="433.69" y="-212.32" font-family="Verdana" font-size="14.00">(*EventLoggerBridge).GetMetrics</text>
</a>
</g>
</g>
<!-- github.com/guild&#45;framework/guild&#45;core/internal/integration/example.main&#45;&gt;(*github.com/guild&#45;framework/guild&#45;core/internal/integration/bridges.EventLoggerBridge).GetMetrics -->
<g id="edge16" class="edge">
<title>github.com/guild&#45;framework/guild&#45;core/internal/integration/example.main&#45;&gt;(*github.com/guild&#45;framework/guild&#45;core/internal/integration/bridges.EventLoggerBridge).GetMetrics</title>
<g id="a_edge16"><a xlink:title="at main.go:103: calling [(*github.com/guild&#45;framework/guild&#45;core/internal/integration/bridges.EventLoggerBridge).GetMetrics]">
<path fill="none" stroke="saddlebrown" d="M114.75,-530.86C129.79,-481.88 177.85,-345.72 266.04,-273 283.85,-258.32 305.68,-247.42 327.6,-239.36"/>
<polygon fill="saddlebrown" stroke="saddlebrown" points="328.62,-242.71 336.92,-236.12 326.33,-236.09 328.62,-242.71"/>
</a>
</g>
</g>
<!-- github.com/guild&#45;framework/guild&#45;core/internal/integration/services.NewServiceRegistry -->
<g id="node7" class="node">
<title>github.com/guild&#45;framework/guild&#45;core/internal/integration/services.NewServiceRegistry</title>
<g id="a_node7"><a xlink:title="github.com/guild&#45;framework/guild&#45;core/internal/integration/services.NewServiceRegistry | defined in registry.go:41">
<path fill="moccasin" stroke="black" stroke-width="1.5" d="M502.96,-323C502.96,-323 364.42,-323 364.42,-323 358.42,-323 352.42,-317 352.42,-311 352.42,-311 352.42,-299 352.42,-299 352.42,-293 358.42,-287 364.42,-287 364.42,-287 502.96,-287 502.96,-287 508.96,-287 514.96,-293 514.96,-299 514.96,-299 514.96,-311 514.96,-311 514.96,-317 508.96,-323 502.96,-323"/>
<text xml:space="preserve" text-anchor="middle" x="433.69" y="-300.32" font-family="Verdana" font-size="14.00">NewServiceRegistry</text>
</a>
</g>
</g>
<!-- github.com/guild&#45;framework/guild&#45;core/internal/integration/example.main&#45;&gt;github.com/guild&#45;framework/guild&#45;core/internal/integration/services.NewServiceRegistry -->
<g id="edge5" class="edge">
<title>github.com/guild&#45;framework/guild&#45;core/internal/integration/example.main&#45;&gt;github.com/guild&#45;framework/guild&#45;core/internal/integration/services.NewServiceRegistry</title>
<g id="a_edge5"><a xlink:title="at main.go:32: calling [github.com/guild&#45;framework/guild&#45;core/internal/integration/services.NewServiceRegistry]">
<path fill="none" stroke="saddlebrown" d="M117.13,-530.83C135.72,-488.89 187.72,-385.16 266.04,-336 288.19,-322.1 315.03,-314.11 340.65,-309.61"/>
<polygon fill="saddlebrown" stroke="saddlebrown" points="341.1,-313.09 350.43,-308.07 340.01,-306.17 341.1,-313.09"/>
</a>
</g>
</g>
<!-- (*github.com/guild&#45;framework/guild&#45;core/internal/integration/services.DefaultServiceRegistry).Register -->
<g id="node8" class="node">
<title>(*github.com/guild&#45;framework/guild&#45;core/internal/integration/services.DefaultServiceRegistry).Register</title>
<g id="a_node8"><a xlink:title="(*github.com/guild&#45;framework/guild&#45;core/internal/integration/services.DefaultServiceRegistry).Register | defined in registry.go:55">
<path fill="moccasin" stroke="black" stroke-width="1.5" d="M555.08,-384C555.08,-384 312.29,-384 312.29,-384 306.29,-384 300.29,-378 300.29,-372 300.29,-372 300.29,-360 300.29,-360 300.29,-354 306.29,-348 312.29,-348 312.29,-348 555.08,-348 555.08,-348 561.08,-348 567.08,-354 567.08,-360 567.08,-360 567.08,-372 567.08,-372 567.08,-378 561.08,-384 555.08,-384"/>
<text xml:space="preserve" text-anchor="middle" x="433.69" y="-361.32" font-family="Verdana" font-size="14.00">(*DefaultServiceRegistry).Register</text>
</a>
</g>
</g>
<!-- github.com/guild&#45;framework/guild&#45;core/internal/integration/example.main&#45;&gt;(*github.com/guild&#45;framework/guild&#45;core/internal/integration/services.DefaultServiceRegistry).Register -->
<g id="edge11" class="edge">
<title>github.com/guild&#45;framework/guild&#45;core/internal/integration/example.main&#45;&gt;(*github.com/guild&#45;framework/guild&#45;core/internal/integration/services.DefaultServiceRegistry).Register</title>
<g id="a_edge11"><a xlink:title="at main.go:38: calling [(*github.com/guild&#45;framework/guild&#45;core/internal/integration/services.DefaultServiceRegistry).Register]&#10;at main.go:48: calling [(*github.com/guild&#45;framework/guild&#45;core/internal/integration/services.DefaultServiceRegistry).Register]">
<path fill="none" stroke="saddlebrown" d="M122.43,-530.75C146.57,-498.13 201.95,-430.15 266.04,-397 273.32,-393.24 280.98,-389.92 288.87,-387.01"/>
<polygon fill="saddlebrown" stroke="saddlebrown" points="289.98,-390.33 298.31,-383.77 287.71,-383.71 289.98,-390.33"/>
</a>
</g>
</g>
<!-- (*github.com/guild&#45;framework/guild&#45;core/internal/integration/services.DefaultServiceRegistry).SetDependency -->
<g id="node9" class="node">
<title>(*github.com/guild&#45;framework/guild&#45;core/internal/integration/services.DefaultServiceRegistry).SetDependency</title>
<g id="a_node9"><a xlink:title="(*github.com/guild&#45;framework/guild&#45;core/internal/integration/services.DefaultServiceRegistry).SetDependency | defined in registry.go:164">
<path fill="moccasin" stroke="black" stroke-width="1.5" d="M581.33,-445C581.33,-445 286.04,-445 286.04,-445 280.04,-445 274.04,-439 274.04,-433 274.04,-433 274.04,-421 274.04,-421 274.04,-415 280.04,-409 286.04,-409 286.04,-409 581.33,-409 581.33,-409 587.33,-409 593.33,-415 593.33,-421 593.33,-421 593.33,-433 593.33,-433 593.33,-439 587.33,-445 581.33,-445"/>
<text xml:space="preserve" text-anchor="middle" x="433.69" y="-422.32" font-family="Verdana" font-size="14.00">(*DefaultServiceRegistry).SetDependency</text>
</a>
</g>
</g>
<!-- github.com/guild&#45;framework/guild&#45;core/internal/integration/example.main&#45;&gt;(*github.com/guild&#45;framework/guild&#45;core/internal/integration/services.DefaultServiceRegistry).SetDependency -->
<g id="edge1" class="edge">
<title>github.com/guild&#45;framework/guild&#45;core/internal/integration/example.main&#45;&gt;(*github.com/guild&#45;framework/guild&#45;core/internal/integration/services.DefaultServiceRegistry).SetDependency</title>
<g id="a_edge1"><a xlink:title="at main.go:53: calling [(*github.com/guild&#45;framework/guild&#45;core/internal/integration/services.DefaultServiceRegistry).SetDependency]">
<path fill="none" stroke="saddlebrown" d="M134.47,-530.83C164.29,-510.02 216.38,-476.42 266.04,-458 275.46,-454.5 285.33,-451.39 295.37,-448.62"/>
<polygon fill="saddlebrown" stroke="saddlebrown" points="296.07,-452.05 304.85,-446.12 294.29,-445.28 296.07,-452.05"/>
</a>
</g>
</g>
<!-- (*github.com/guild&#45;framework/guild&#45;core/internal/integration/services.DefaultServiceRegistry).Start -->
<g id="node10" class="node">
<title>(*github.com/guild&#45;framework/guild&#45;core/internal/integration/services.DefaultServiceRegistry).Start</title>
<g id="a_node10"><a xlink:title="(*github.com/guild&#45;framework/guild&#45;core/internal/integration/services.DefaultServiceRegistry).Start | defined in registry.go:206">
<path fill="moccasin" stroke="black" stroke-width="1.5" d="M543.46,-506C543.46,-506 323.92,-506 323.92,-506 317.92,-506 311.92,-500 311.92,-494 311.92,-494 311.92,-482 311.92,-482 311.92,-476 317.92,-470 323.92,-470 323.92,-470 543.46,-470 543.46,-470 549.46,-470 555.46,-476 555.46,-482 555.46,-482 555.46,-494 555.46,-494 555.46,-500 549.46,-506 543.46,-506"/>
<text xml:space="preserve" text-anchor="middle" x="433.69" y="-483.32" font-family="Verdana" font-size="14.00">(*DefaultServiceRegistry).Start</text>
</a>
</g>
</g>
<!-- github.com/guild&#45;framework/guild&#45;core/internal/integration/example.main&#45;&gt;(*github.com/guild&#45;framework/guild&#45;core/internal/integration/services.DefaultServiceRegistry).Start -->
<g id="edge7" class="edge">
<title>github.com/guild&#45;framework/guild&#45;core/internal/integration/example.main&#45;&gt;(*github.com/guild&#45;framework/guild&#45;core/internal/integration/services.DefaultServiceRegistry).Start</title>
<g id="a_edge7"><a xlink:title="at main.go:59: calling [(*github.com/guild&#45;framework/guild&#45;core/internal/integration/services.DefaultServiceRegistry).Start]">
<path fill="none" stroke="saddlebrown" d="M137.5,-543.59C168.81,-537.55 221.04,-527.5 266.04,-519 283.64,-515.68 302.29,-512.18 320.5,-508.78"/>
<polygon fill="saddlebrown" stroke="saddlebrown" points="321.09,-512.23 330.28,-506.96 319.81,-505.35 321.09,-512.23"/>
</a>
</g>
</g>
<!-- (*github.com/guild&#45;framework/guild&#45;core/internal/integration/services.DefaultServiceRegistry).List -->
<g id="node11" class="node">
<title>(*github.com/guild&#45;framework/guild&#45;core/internal/integration/services.DefaultServiceRegistry).List</title>
<g id="a_node11"><a xlink:title="(*github.com/guild&#45;framework/guild&#45;core/internal/integration/services.DefaultServiceRegistry).List | defined in registry.go:144">
<path fill="moccasin" stroke="black" stroke-width="1.5" d="M538.21,-567C538.21,-567 329.17,-567 329.17,-567 323.17,-567 317.17,-561 317.17,-555 317.17,-555 317.17,-543 317.17,-543 317.17,-537 323.17,-531 329.17,-531 329.17,-531 538.21,-531 538.21,-531 544.21,-531 550.21,-537 550.21,-543 550.21,-543 550.21,-555 550.21,-555 550.21,-561 544.21,-567 538.21,-567"/>
<text xml:space="preserve" text-anchor="middle" x="433.69" y="-544.33" font-family="Verdana" font-size="14.00">(*DefaultServiceRegistry).List</text>
</a>
</g>
</g>
<!-- github.com/guild&#45;framework/guild&#45;core/internal/integration/example.main&#45;&gt;(*github.com/guild&#45;framework/guild&#45;core/internal/integration/services.DefaultServiceRegistry).List -->
<g id="edge2" class="edge">
<title>github.com/guild&#45;framework/guild&#45;core/internal/integration/example.main&#45;&gt;(*github.com/guild&#45;framework/guild&#45;core/internal/integration/services.DefaultServiceRegistry).List</title>
<g id="a_edge2"><a xlink:title="at main.go:64: calling [(*github.com/guild&#45;framework/guild&#45;core/internal/integration/services.DefaultServiceRegistry).List]">
<path fill="none" stroke="saddlebrown" d="M137.35,-549C174.68,-549 243.43,-549 305.22,-549"/>
<polygon fill="saddlebrown" stroke="saddlebrown" points="305.15,-552.5 315.15,-549 305.15,-545.5 305.15,-552.5"/>
</a>
</g>
</g>
<!-- (*github.com/guild&#45;framework/guild&#45;core/internal/integration/services.DefaultServiceRegistry).Health -->
<g id="node12" class="node">
<title>(*github.com/guild&#45;framework/guild&#45;core/internal/integration/services.DefaultServiceRegistry).Health</title>
<g id="a_node12"><a xlink:title="(*github.com/guild&#45;framework/guild&#45;core/internal/integration/services.DefaultServiceRegistry).Health | defined in registry.go:259">
<path fill="moccasin" stroke="black" stroke-width="1.5" d="M548.71,-628C548.71,-628 318.67,-628 318.67,-628 312.67,-628 306.67,-622 306.67,-616 306.67,-616 306.67,-604 306.67,-604 306.67,-598 312.67,-592 318.67,-592 318.67,-592 548.71,-592 548.71,-592 554.71,-592 560.71,-598 560.71,-604 560.71,-604 560.71,-616 560.71,-616 560.71,-622 554.71,-628 548.71,-628"/>
<text xml:space="preserve" text-anchor="middle" x="433.69" y="-605.33" font-family="Verdana" font-size="14.00">(*DefaultServiceRegistry).Health</text>
</a>
</g>
</g>
<!-- github.com/guild&#45;framework/guild&#45;core/internal/integration/example.main&#45;&gt;(*github.com/guild&#45;framework/guild&#45;core/internal/integration/services.DefaultServiceRegistry).Health -->
<g id="edge12" class="edge">
<title>github.com/guild&#45;framework/guild&#45;core/internal/integration/example.main&#45;&gt;(*github.com/guild&#45;framework/guild&#45;core/internal/integration/services.DefaultServiceRegistry).Health</title>
<g id="a_edge12"><a xlink:title="at main.go:93: calling [(*github.com/guild&#45;framework/guild&#45;core/internal/integration/services.DefaultServiceRegistry).Health]">
<path fill="none" stroke="saddlebrown" d="M137.48,-554.69C168.77,-561.02 220.99,-571.48 266.04,-580 282.27,-583.07 299.41,-586.23 316.26,-589.31"/>
<polygon fill="saddlebrown" stroke="saddlebrown" points="315.34,-592.7 325.8,-591.04 316.59,-585.81 315.34,-592.7"/>
</a>
</g>
</g>
<!-- (*github.com/guild&#45;framework/guild&#45;core/internal/integration/services.DefaultServiceRegistry).Stop -->
<g id="node13" class="node">
<title>(*github.com/guild&#45;framework/guild&#45;core/internal/integration/services.DefaultServiceRegistry).Stop</title>
<g id="a_node13"><a xlink:title="(*github.com/guild&#45;framework/guild&#45;core/internal/integration/services.DefaultServiceRegistry).Stop | defined in registry.go:227">
<path fill="moccasin" stroke="black" stroke-width="1.5" d="M542.33,-689C542.33,-689 325.04,-689 325.04,-689 319.04,-689 313.04,-683 313.04,-677 313.04,-677 313.04,-665 313.04,-665 313.04,-659 319.04,-653 325.04,-653 325.04,-653 542.33,-653 542.33,-653 548.33,-653 554.33,-659 554.33,-665 554.33,-665 554.33,-677 554.33,-677 554.33,-683 548.33,-689 542.33,-689"/>
<text xml:space="preserve" text-anchor="middle" x="433.69" y="-666.33" font-family="Verdana" font-size="14.00">(*DefaultServiceRegistry).Stop</text>
</a>
</g>
</g>
<!-- github.com/guild&#45;framework/guild&#45;core/internal/integration/example.main&#45;&gt;(*github.com/guild&#45;framework/guild&#45;core/internal/integration/services.DefaultServiceRegistry).Stop -->
<g id="edge13" class="edge">
<title>github.com/guild&#45;framework/guild&#45;core/internal/integration/example.main&#45;&gt;(*github.com/guild&#45;framework/guild&#45;core/internal/integration/services.DefaultServiceRegistry).Stop</title>
<g id="a_edge13"><a xlink:title="at main.go:115: calling [(*github.com/guild&#45;framework/guild&#45;core/internal/integration/services.DefaultServiceRegistry).Stop]">
<path fill="none" stroke="saddlebrown" d="M134.16,-567.24C163.88,-588.33 216.09,-622.5 266.04,-641 277.33,-645.18 289.28,-648.79 301.37,-651.91"/>
<polygon fill="saddlebrown" stroke="saddlebrown" points="300.5,-655.3 311.05,-654.28 302.16,-648.5 300.5,-655.3"/>
</a>
</g>
</g>
<!-- github.com/guild&#45;framework/guild&#45;core/pkg/events.DefaultEventBusConfig -->
<g id="node14" class="node">
<title>github.com/guild&#45;framework/guild&#45;core/pkg/events.DefaultEventBusConfig</title>
<g id="a_node14"><a xlink:title="github.com/guild&#45;framework/guild&#45;core/pkg/events.DefaultEventBusConfig | defined in bus.go:65">
<path fill="moccasin" stroke="black" stroke-width="1.5" d="M513.83,-777C513.83,-777 353.54,-777 353.54,-777 347.54,-777 341.54,-771 341.54,-765 341.54,-765 341.54,-753 341.54,-753 341.54,-747 347.54,-741 353.54,-741 353.54,-741 513.83,-741 513.83,-741 519.83,-741 525.83,-747 525.83,-753 525.83,-753 525.83,-765 525.83,-765 525.83,-771 519.83,-777 513.83,-777"/>
<text xml:space="preserve" text-anchor="middle" x="433.69" y="-754.33" font-family="Verdana" font-size="14.00">DefaultEventBusConfig</text>
</a>
</g>
</g>
<!-- github.com/guild&#45;framework/guild&#45;core/internal/integration/example.main&#45;&gt;github.com/guild&#45;framework/guild&#45;core/pkg/events.DefaultEventBusConfig -->
<g id="edge4" class="edge">
<title>github.com/guild&#45;framework/guild&#45;core/internal/integration/example.main&#45;&gt;github.com/guild&#45;framework/guild&#45;core/pkg/events.DefaultEventBusConfig</title>
<g id="a_edge4"><a xlink:title="at main.go:29: calling [github.com/guild&#45;framework/guild&#45;core/pkg/events.DefaultEventBusConfig]">
<path fill="none" stroke="saddlebrown" d="M119.23,-567.12C140.39,-604.63 194.53,-690.67 266.04,-731 285.39,-741.91 307.86,-748.82 329.93,-753.13"/>
<polygon fill="saddlebrown" stroke="saddlebrown" points="329.11,-756.54 339.57,-754.84 330.34,-749.65 329.11,-756.54"/>
</a>
</g>
</g>
<!-- github.com/guild&#45;framework/guild&#45;core/pkg/events.NewMemoryEventBus -->
<g id="node15" class="node">
<title>github.com/guild&#45;framework/guild&#45;core/pkg/events.NewMemoryEventBus</title>
<g id="a_node15"><a xlink:title="github.com/guild&#45;framework/guild&#45;core/pkg/events.NewMemoryEventBus | defined in memory_bus.go:45">
<path fill="moccasin" stroke="black" stroke-width="1.5" d="M509.33,-838C509.33,-838 358.04,-838 358.04,-838 352.04,-838 346.04,-832 346.04,-826 346.04,-826 346.04,-814 346.04,-814 346.04,-808 352.04,-802 358.04,-802 358.04,-802 509.33,-802 509.33,-802 515.33,-802 521.33,-808 521.33,-814 521.33,-814 521.33,-826 521.33,-826 521.33,-832 515.33,-838 509.33,-838"/>
<text xml:space="preserve" text-anchor="middle" x="433.69" y="-815.33" font-family="Verdana" font-size="14.00">NewMemoryEventBus</text>
</a>
</g>
</g>
<!-- github.com/guild&#45;framework/guild&#45;core/internal/integration/example.main&#45;&gt;github.com/guild&#45;framework/guild&#45;core/pkg/events.NewMemoryEventBus -->
<g id="edge9" class="edge">
<title>github.com/guild&#45;framework/guild&#45;core/internal/integration/example.main&#45;&gt;github.com/guild&#45;framework/guild&#45;core/pkg/events.NewMemoryEventBus</title>
<g id="a_edge9"><a xlink:title="at main.go:29: calling [github.com/guild&#45;framework/guild&#45;core/pkg/events.NewMemoryEventBus]">
<path fill="none" stroke="saddlebrown" d="M115.54,-567.14C131.73,-612.91 180.85,-733.4 266.04,-790 286.12,-803.34 310.44,-811.21 334.22,-815.75"/>
<polygon fill="saddlebrown" stroke="saddlebrown" points="333.52,-819.18 343.96,-817.41 334.69,-812.28 333.52,-819.18"/>
</a>
</g>
</g>
<!-- github.com/guild&#45;framework/guild&#45;core/pkg/events.NewBaseEvent -->
<g id="node16" class="node">
<title>github.com/guild&#45;framework/guild&#45;core/pkg/events.NewBaseEvent</title>
<g id="a_node16"><a xlink:title="github.com/guild&#45;framework/guild&#45;core/pkg/events.NewBaseEvent | defined in core.go:77">
<path fill="moccasin" stroke="black" stroke-width="1.5" d="M484.96,-899C484.96,-899 382.42,-899 382.42,-899 376.42,-899 370.42,-893 370.42,-887 370.42,-887 370.42,-875 370.42,-875 370.42,-869 376.42,-863 382.42,-863 382.42,-863 484.96,-863 484.96,-863 490.96,-863 496.96,-869 496.96,-875 496.96,-875 496.96,-887 496.96,-887 496.96,-893 490.96,-899 484.96,-899"/>
<text xml:space="preserve" text-anchor="middle" x="433.69" y="-876.33" font-family="Verdana" font-size="14.00">NewBaseEvent</text>
</a>
</g>
</g>
<!-- github.com/guild&#45;framework/guild&#45;core/internal/integration/example.main&#45;&gt;github.com/guild&#45;framework/guild&#45;core/pkg/events.NewBaseEvent -->
<g id="edge3" class="edge">
<title>github.com/guild&#45;framework/guild&#45;core/internal/integration/example.main&#45;&gt;github.com/guild&#45;framework/guild&#45;core/pkg/events.NewBaseEvent</title>
<g id="a_edge3"><a xlink:title="at main.go:74: calling [github.com/guild&#45;framework/guild&#45;core/pkg/events.NewBaseEvent]">
<path fill="none" stroke="saddlebrown" d="M113.11,-567.24C124.65,-620.59 165.99,-777.23 266.04,-851 292.38,-870.42 327.33,-878.63 358.41,-881.69"/>
<polygon fill="saddlebrown" stroke="saddlebrown" points="357.91,-885.17 368.16,-882.48 358.47,-878.19 357.91,-885.17"/>
</a>
</g>
</g>
<!-- (*github.com/guild&#45;framework/guild&#45;core/pkg/events.MemoryEventBus).Publish -->
<g id="node17" class="node">
<title>(*github.com/guild&#45;framework/guild&#45;core/pkg/events.MemoryEventBus).Publish</title>
<g id="a_node17"><a xlink:title="(*github.com/guild&#45;framework/guild&#45;core/pkg/events.MemoryEventBus).Publish | defined in memory_bus.go:159">
<path fill="moccasin" stroke="black" stroke-width="1.5" d="M532.58,-960C532.58,-960 334.79,-960 334.79,-960 328.79,-960 322.79,-954 322.79,-948 322.79,-948 322.79,-936 322.79,-936 322.79,-930 328.79,-924 334.79,-924 334.79,-924 532.58,-924 532.58,-924 538.58,-924 544.58,-930 544.58,-936 544.58,-936 544.58,-948 544.58,-948 544.58,-954 538.58,-960 532.58,-960"/>
<text xml:space="preserve" text-anchor="middle" x="433.69" y="-937.33" font-family="Verdana" font-size="14.00">(*MemoryEventBus).Publish</text>
</a>
</g>
</g>
<!-- github.com/guild&#45;framework/guild&#45;core/internal/integration/example.main&#45;&gt;(*github.com/guild&#45;framework/guild&#45;core/pkg/events.MemoryEventBus).Publish -->
<g id="edge15" class="edge">
<title>github.com/guild&#45;framework/guild&#45;core/internal/integration/example.main&#45;&gt;(*github.com/guild&#45;framework/guild&#45;core/pkg/events.MemoryEventBus).Publish</title>
<g id="a_edge15"><a xlink:title="at main.go:84: calling [(*github.com/guild&#45;framework/guild&#45;core/pkg/events.MemoryEventBus).Publish]">
<path fill="none" stroke="saddlebrown" d="M111.38,-566.89C118.62,-626.58 150.47,-820.27 266.04,-912 279.26,-922.49 294.94,-929.79 311.3,-934.79"/>
<polygon fill="saddlebrown" stroke="saddlebrown" points="310.1,-938.1 320.67,-937.36 311.95,-931.34 310.1,-938.1"/>
</a>
</g>
</g>
<!-- github.com/guild&#45;framework/guild&#45;core/pkg/observability.NewLogger -->
<g id="node18" class="node">
<title>github.com/guild&#45;framework/guild&#45;core/pkg/observability.NewLogger</title>
<g id="a_node18"><a xlink:title="github.com/guild&#45;framework/guild&#45;core/pkg/observability.NewLogger | defined in logger.go:98">
<path fill="moccasin" stroke="black" stroke-width="1.5" d="M472.21,-1048C472.21,-1048 395.17,-1048 395.17,-1048 389.17,-1048 383.17,-1042 383.17,-1036 383.17,-1036 383.17,-1024 383.17,-1024 383.17,-1018 389.17,-1012 395.17,-1012 395.17,-1012 472.21,-1012 472.21,-1012 478.21,-1012 484.21,-1018 484.21,-1024 484.21,-1024 484.21,-1036 484.21,-1036 484.21,-1042 478.21,-1048 472.21,-1048"/>
<text xml:space="preserve" text-anchor="middle" x="433.69" y="-1025.33" font-family="Verdana" font-size="14.00">NewLogger</text>
</a>
</g>
</g>
<!-- github.com/guild&#45;framework/guild&#45;core/internal/integration/example.main&#45;&gt;github.com/guild&#45;framework/guild&#45;core/pkg/observability.NewLogger -->
<g id="edge14" class="edge">
<title>github.com/guild&#45;framework/guild&#45;core/internal/integration/example.main&#45;&gt;github.com/guild&#45;framework/guild&#45;core/pkg/observability.NewLogger</title>
<g id="a_edge14"><a xlink:title="at main.go:21: calling [github.com/guild&#45;framework/guild&#45;core/pkg/observability.NewLogger]">
<path fill="none" stroke="saddlebrown" d="M109.66,-566.81C111.21,-635.32 126.62,-884.02 266.04,-1002 294.81,-1026.35 336.68,-1033.31 371.25,-1034.2"/>
<polygon fill="saddlebrown" stroke="saddlebrown" points="371.12,-1037.7 381.15,-1034.28 371.17,-1030.7 371.12,-1037.7"/>
</a>
</g>
</g>
</g>
</svg>
