<?xml version="1.0" encoding="UTF-8" standalone="no"?>
<!DOCTYPE svg PUBLIC "-//W3C//DTD SVG 1.1//EN"
 "http://www.w3.org/Graphics/SVG/1.1/DTD/svg11.dtd">
<!-- Generated by graphviz version 14.1.1 (20251213.1925)
 -->
<!-- Title: gocallvis Pages: 1 -->
<svg width="557pt" height="789pt"
 viewBox="0.00 0.00 557.00 789.00" xmlns="http://www.w3.org/2000/svg" xmlns:xlink="http://www.w3.org/1999/xlink">
<g id="graph0" class="graph" transform="scale(1 1) rotate(0) translate(0 789)">
<title>gocallvis</title>
<polygon fill="lightgray" stroke="none" points="0,0 0,-789 556.58,-789 556.58,0 0,0"/>
<g id="clust1" class="cluster">
<title>cluster_focus</title>
<polygon fill="#e6ecfa" stroke="black" stroke-width="0.5" points="8,-8 8,-781 548.58,-781 548.58,-8 8,-8"/>
<text xml:space="preserve" text-anchor="middle" x="278.29" y="-759.9" font-family="Arial" font-size="18.00">tools</text>
</g>
<g id="clust2" class="cluster">
<title>cluster_github.com/guild&#45;framework/guild&#45;core/pkg/gerror</title>
<g id="a_clust2"><a xlink:href="/?f=github.com/guild-framework/guild-core/pkg/gerror" xlink:title="package: github.com/guild&#45;framework/guild&#45;core/pkg/gerror">
<polygon fill="lightyellow" stroke="black" stroke-width="0.8" points="292.29,-69 292.29,-271 540.58,-271 540.58,-69 292.29,-69"/>
<text xml:space="preserve" text-anchor="middle" x="416.43" y="-251.8" font-family="Tahoma bold" font-size="16.00">gerror</text>
</a>
</g>
</g>
<g id="clust3" class="cluster">
<title>cluster_github.com/guild&#45;framework/guild&#45;core/pkg/lsp</title>
<g id="a_clust3"><a xlink:href="/?f=github.com/guild-framework/guild-core/pkg/lsp" xlink:title="package: github.com/guild&#45;framework/guild&#45;core/pkg/lsp">
<polygon fill="lightyellow" stroke="black" stroke-width="0.8" points="302.04,-279 302.04,-542 530.83,-542 530.83,-279 302.04,-279"/>
<text xml:space="preserve" text-anchor="middle" x="416.43" y="-522.8" font-family="Tahoma bold" font-size="16.00">lsp</text>
</a>
</g>
</g>
<g id="clust4" class="cluster">
<title>cluster_github.com/guild&#45;framework/guild&#45;core/tools</title>
<g id="a_clust4"><a xlink:href="/?f=github.com/guild-framework/guild-core/tools" xlink:title="package: github.com/guild&#45;framework/guild&#45;core/tools">
<polygon fill="lightyellow" stroke="black" stroke-width="0.8" points="346.29,-603 346.29,-744 486.58,-744 486.58,-603 346.29,-603"/>
<text xml:space="preserve" text-anchor="middle" x="416.43" y="-724.8" font-family="Tahoma bold" font-size="16.00">tools</text>
</a>
</g>
</g>
<!-- github.com/guild&#45;framework/guild&#45;core/pkg/lsp/tools.NewReferencesTool -->
<g id="node1" class="node">
<title>github.com/guild&#45;framework/guild&#45;core/pkg/lsp/tools.NewReferencesTool</title>
<g id="a_node1"><a xlink:title="github.com/guild&#45;framework/guild&#45;core/pkg/lsp/tools.NewReferencesTool | defined in references_tool.go:38&#10;at references_tool.go:69: calling [github.com/guild&#45;framework/guild&#45;core/tools.NewBaseTool]">
<path fill="lightblue" stroke="black" stroke-width="1.5" d="M189.04,-622C189.04,-622 54.25,-622 54.25,-622 48.25,-622 42.25,-616 42.25,-610 42.25,-610 42.25,-598 42.25,-598 42.25,-592 48.25,-586 54.25,-586 54.25,-586 189.04,-586 189.04,-586 195.04,-586 201.04,-592 201.04,-598 201.04,-598 201.04,-610 201.04,-610 201.04,-616 195.04,-622 189.04,-622"/>
<text xml:space="preserve" text-anchor="middle" x="121.64" y="-599.33" font-family="Verdana" font-size="14.00">NewReferencesTool</text>
</a>
</g>
</g>
<!-- github.com/guild&#45;framework/guild&#45;core/tools.NewBaseTool -->
<g id="node18" class="node">
<title>github.com/guild&#45;framework/guild&#45;core/tools.NewBaseTool</title>
<g id="a_node18"><a xlink:title="github.com/guild&#45;framework/guild&#45;core/tools.NewBaseTool | defined in tool.go:61">
<path fill="moccasin" stroke="black" stroke-width="1.5" d="M460.95,-708C460.95,-708 371.91,-708 371.91,-708 365.91,-708 359.91,-702 359.91,-696 359.91,-696 359.91,-684 359.91,-684 359.91,-678 365.91,-672 371.91,-672 371.91,-672 460.95,-672 460.95,-672 466.95,-672 472.95,-678 472.95,-684 472.95,-684 472.95,-696 472.95,-696 472.95,-702 466.95,-708 460.95,-708"/>
<text xml:space="preserve" text-anchor="middle" x="416.43" y="-685.33" font-family="Verdana" font-size="14.00">NewBaseTool</text>
</a>
</g>
</g>
<!-- github.com/guild&#45;framework/guild&#45;core/pkg/lsp/tools.NewReferencesTool&#45;&gt;github.com/guild&#45;framework/guild&#45;core/tools.NewBaseTool -->
<g id="edge21" class="edge">
<title>github.com/guild&#45;framework/guild&#45;core/pkg/lsp/tools.NewReferencesTool&#45;&gt;github.com/guild&#45;framework/guild&#45;core/tools.NewBaseTool</title>
<g id="a_edge21"><a xlink:title="at references_tool.go:69: calling [github.com/guild&#45;framework/guild&#45;core/tools.NewBaseTool]">
<path fill="none" stroke="saddlebrown" d="M188.77,-622.72C201.6,-626.6 214.91,-630.79 227.29,-635 256.6,-644.96 262.75,-650.76 292.29,-660 310.2,-665.6 329.85,-670.8 348.09,-675.24"/>
<polygon fill="saddlebrown" stroke="saddlebrown" points="347.22,-678.64 357.76,-677.56 348.85,-671.83 347.22,-678.64"/>
</a>
</g>
</g>
<!-- (*github.com/guild&#45;framework/guild&#45;core/pkg/lsp/tools.ReferencesTool).Execute -->
<g id="node2" class="node">
<title>(*github.com/guild&#45;framework/guild&#45;core/pkg/lsp/tools.ReferencesTool).Execute</title>
<g id="a_node2"><a xlink:title="(*github.com/guild&#45;framework/guild&#45;core/pkg/lsp/tools.ReferencesTool).Execute | defined in references_tool.go:82&#10;at references_tool.go:148: calling [github.com/guild&#45;framework/guild&#45;core/tools.NewToolResult]&#10;at references_tool.go:88: calling [(*github.com/guild&#45;framework/guild&#45;core/pkg/gerror.GuildError).WithOperation]&#10;at references_tool.go:138: calling [(*github.com/guild&#45;framework/guild&#45;core/pkg/gerror.GuildError).WithOperation]&#10;at references_tool.go:86: calling [github.com/guild&#45;framework/guild&#45;core/pkg/gerror.Wrap]&#10;at references_tool.go:136: calling [github.com/guild&#45;framework/guild&#45;core/pkg/gerror.Wrap]&#10;at references_tool.go:87: calling [(*github.com/guild&#45;framework/guild&#45;core/pkg/gerror.GuildError).WithComponent]&#10;at references_tool.go:137: calling [(*github.com/guild&#45;framework/guild&#45;core/pkg/gerror.GuildError).WithComponent]&#10;at references_tool.go:97: calling [(*github.com/guild&#45;framework/guild&#45;core/pkg/lsp.Manager).GetReferences]">
<path fill="lightblue" stroke="black" stroke-width="1.5" d="M214.91,-373C214.91,-373 28.38,-373 28.38,-373 22.38,-373 16.37,-367 16.37,-361 16.37,-361 16.37,-349 16.37,-349 16.37,-343 22.37,-337 28.37,-337 28.37,-337 214.91,-337 214.91,-337 220.91,-337 226.91,-343 226.91,-349 226.91,-349 226.91,-361 226.91,-361 226.91,-367 220.91,-373 214.91,-373"/>
<text xml:space="preserve" text-anchor="middle" x="121.64" y="-350.32" font-family="Verdana" font-size="14.00">(*ReferencesTool).Execute</text>
</a>
</g>
</g>
<!-- github.com/guild&#45;framework/guild&#45;core/pkg/gerror.Wrap -->
<g id="node11" class="node">
<title>github.com/guild&#45;framework/guild&#45;core/pkg/gerror.Wrap</title>
<g id="a_node11"><a xlink:title="github.com/guild&#45;framework/guild&#45;core/pkg/gerror.Wrap | defined in errors.go:223">
<path fill="moccasin" stroke="black" stroke-width="1.5" d="M434.33,-113C434.33,-113 398.54,-113 398.54,-113 392.54,-113 386.54,-107 386.54,-101 386.54,-101 386.54,-89 386.54,-89 386.54,-83 392.54,-77 398.54,-77 398.54,-77 434.33,-77 434.33,-77 440.33,-77 446.33,-83 446.33,-89 446.33,-89 446.33,-101 446.33,-101 446.33,-107 440.33,-113 434.33,-113"/>
<text xml:space="preserve" text-anchor="middle" x="416.43" y="-90.33" font-family="Verdana" font-size="14.00">Wrap</text>
</a>
</g>
</g>
<!-- (*github.com/guild&#45;framework/guild&#45;core/pkg/lsp/tools.ReferencesTool).Execute&#45;&gt;github.com/guild&#45;framework/guild&#45;core/pkg/gerror.Wrap -->
<g id="edge14" class="edge">
<title>(*github.com/guild&#45;framework/guild&#45;core/pkg/lsp/tools.ReferencesTool).Execute&#45;&gt;github.com/guild&#45;framework/guild&#45;core/pkg/gerror.Wrap</title>
<g id="a_edge14"><a xlink:title="at references_tool.go:86: calling [github.com/guild&#45;framework/guild&#45;core/pkg/gerror.Wrap]&#10;at references_tool.go:136: calling [github.com/guild&#45;framework/guild&#45;core/pkg/gerror.Wrap]">
<path fill="none" stroke="saddlebrown" d="M145.09,-336.39C167.77,-316.79 202.86,-284.22 227.29,-251 264.38,-200.55 243.17,-164.83 292.29,-126 315.61,-107.56 348.53,-99.95 374.47,-96.87"/>
<polygon fill="saddlebrown" stroke="saddlebrown" points="374.72,-100.36 384.33,-95.9 374.03,-93.4 374.72,-100.36"/>
</a>
</g>
</g>
<!-- (*github.com/guild&#45;framework/guild&#45;core/pkg/gerror.GuildError).WithComponent -->
<g id="node12" class="node">
<title>(*github.com/guild&#45;framework/guild&#45;core/pkg/gerror.GuildError).WithComponent</title>
<g id="a_node12"><a xlink:title="(*github.com/guild&#45;framework/guild&#45;core/pkg/gerror.GuildError).WithComponent | defined in errors.go:156">
<path fill="moccasin" stroke="black" stroke-width="1.5" d="M520.58,-235C520.58,-235 312.29,-235 312.29,-235 306.29,-235 300.29,-229 300.29,-223 300.29,-223 300.29,-211 300.29,-211 300.29,-205 306.29,-199 312.29,-199 312.29,-199 520.58,-199 520.58,-199 526.58,-199 532.58,-205 532.58,-211 532.58,-211 532.58,-223 532.58,-223 532.58,-229 526.58,-235 520.58,-235"/>
<text xml:space="preserve" text-anchor="middle" x="416.43" y="-212.32" font-family="Verdana" font-size="14.00">(*GuildError).WithComponent</text>
</a>
</g>
</g>
<!-- (*github.com/guild&#45;framework/guild&#45;core/pkg/lsp/tools.ReferencesTool).Execute&#45;&gt;(*github.com/guild&#45;framework/guild&#45;core/pkg/gerror.GuildError).WithComponent -->
<g id="edge15" class="edge">
<title>(*github.com/guild&#45;framework/guild&#45;core/pkg/lsp/tools.ReferencesTool).Execute&#45;&gt;(*github.com/guild&#45;framework/guild&#45;core/pkg/gerror.GuildError).WithComponent</title>
<g id="a_edge15"><a xlink:title="at references_tool.go:87: calling [(*github.com/guild&#45;framework/guild&#45;core/pkg/gerror.GuildError).WithComponent]&#10;at references_tool.go:137: calling [(*github.com/guild&#45;framework/guild&#45;core/pkg/gerror.GuildError).WithComponent]">
<path fill="none" stroke="saddlebrown" d="M227.64,-352.43C240.82,-348.69 253.46,-343.12 264.29,-335 288.48,-316.86 270.94,-294.41 292.29,-273 306.09,-259.17 323.92,-248.41 341.7,-240.2"/>
<polygon fill="saddlebrown" stroke="saddlebrown" points="342.98,-243.46 350.75,-236.25 340.19,-237.04 342.98,-243.46"/>
</a>
</g>
</g>
<!-- (*github.com/guild&#45;framework/guild&#45;core/pkg/gerror.GuildError).WithOperation -->
<g id="node13" class="node">
<title>(*github.com/guild&#45;framework/guild&#45;core/pkg/gerror.GuildError).WithOperation</title>
<g id="a_node13"><a xlink:title="(*github.com/guild&#45;framework/guild&#45;core/pkg/gerror.GuildError).WithOperation | defined in errors.go:162">
<path fill="moccasin" stroke="black" stroke-width="1.5" d="M514.95,-174C514.95,-174 317.91,-174 317.91,-174 311.91,-174 305.91,-168 305.91,-162 305.91,-162 305.91,-150 305.91,-150 305.91,-144 311.91,-138 317.91,-138 317.91,-138 514.95,-138 514.95,-138 520.95,-138 526.95,-144 526.95,-150 526.95,-150 526.95,-162 526.95,-162 526.95,-168 520.95,-174 514.95,-174"/>
<text xml:space="preserve" text-anchor="middle" x="416.43" y="-151.32" font-family="Verdana" font-size="14.00">(*GuildError).WithOperation</text>
</a>
</g>
</g>
<!-- (*github.com/guild&#45;framework/guild&#45;core/pkg/lsp/tools.ReferencesTool).Execute&#45;&gt;(*github.com/guild&#45;framework/guild&#45;core/pkg/gerror.GuildError).WithOperation -->
<g id="edge8" class="edge">
<title>(*github.com/guild&#45;framework/guild&#45;core/pkg/lsp/tools.ReferencesTool).Execute&#45;&gt;(*github.com/guild&#45;framework/guild&#45;core/pkg/gerror.GuildError).WithOperation</title>
<g id="a_edge8"><a xlink:title="at references_tool.go:88: calling [(*github.com/guild&#45;framework/guild&#45;core/pkg/gerror.GuildError).WithOperation]&#10;at references_tool.go:138: calling [(*github.com/guild&#45;framework/guild&#45;core/pkg/gerror.GuildError).WithOperation]">
<path fill="none" stroke="saddlebrown" d="M222.59,-336.34C238.23,-329.61 252.95,-320.45 264.29,-308 301.47,-267.2 253.64,-226.4 292.29,-187 294.35,-184.9 296.53,-182.93 298.81,-181.1"/>
<polygon fill="saddlebrown" stroke="saddlebrown" points="300.65,-184.08 306.84,-175.48 296.64,-178.34 300.65,-184.08"/>
</a>
</g>
</g>
<!-- (*github.com/guild&#45;framework/guild&#45;core/pkg/lsp.Manager).GetReferences -->
<g id="node14" class="node">
<title>(*github.com/guild&#45;framework/guild&#45;core/pkg/lsp.Manager).GetReferences</title>
<g id="a_node14"><a xlink:title="(*github.com/guild&#45;framework/guild&#45;core/pkg/lsp.Manager).GetReferences | defined in manager.go:189">
<path fill="moccasin" stroke="black" stroke-width="1.5" d="M510.45,-445C510.45,-445 322.41,-445 322.41,-445 316.41,-445 310.41,-439 310.41,-433 310.41,-433 310.41,-421 310.41,-421 310.41,-415 316.41,-409 322.41,-409 322.41,-409 510.45,-409 510.45,-409 516.45,-409 522.45,-415 522.45,-421 522.45,-421 522.45,-433 522.45,-433 522.45,-439 516.45,-445 510.45,-445"/>
<text xml:space="preserve" text-anchor="middle" x="416.43" y="-422.32" font-family="Verdana" font-size="14.00">(*Manager).GetReferences</text>
</a>
</g>
</g>
<!-- (*github.com/guild&#45;framework/guild&#45;core/pkg/lsp/tools.ReferencesTool).Execute&#45;&gt;(*github.com/guild&#45;framework/guild&#45;core/pkg/lsp.Manager).GetReferences -->
<g id="edge16" class="edge">
<title>(*github.com/guild&#45;framework/guild&#45;core/pkg/lsp/tools.ReferencesTool).Execute&#45;&gt;(*github.com/guild&#45;framework/guild&#45;core/pkg/lsp.Manager).GetReferences</title>
<g id="a_edge16"><a xlink:title="at references_tool.go:97: calling [(*github.com/guild&#45;framework/guild&#45;core/pkg/lsp.Manager).GetReferences]">
<path fill="none" stroke="saddlebrown" d="M197.79,-373.67C227.25,-380.97 261.35,-389.4 292.29,-397 303.74,-399.81 315.8,-402.76 327.7,-405.67"/>
<polygon fill="saddlebrown" stroke="saddlebrown" points="326.55,-408.99 337.1,-407.96 328.21,-402.19 326.55,-408.99"/>
</a>
</g>
</g>
<!-- github.com/guild&#45;framework/guild&#45;core/tools.NewToolResult -->
<g id="node19" class="node">
<title>github.com/guild&#45;framework/guild&#45;core/tools.NewToolResult</title>
<g id="a_node19"><a xlink:title="github.com/guild&#45;framework/guild&#45;core/tools.NewToolResult | defined in tool.go:118">
<path fill="moccasin" stroke="black" stroke-width="1.5" d="M466.58,-647C466.58,-647 366.29,-647 366.29,-647 360.29,-647 354.29,-641 354.29,-635 354.29,-635 354.29,-623 354.29,-623 354.29,-617 360.29,-611 366.29,-611 366.29,-611 466.58,-611 466.58,-611 472.58,-611 478.58,-617 478.58,-623 478.58,-623 478.58,-635 478.58,-635 478.58,-641 472.58,-647 466.58,-647"/>
<text xml:space="preserve" text-anchor="middle" x="416.43" y="-624.33" font-family="Verdana" font-size="14.00">NewToolResult</text>
</a>
</g>
</g>
<!-- (*github.com/guild&#45;framework/guild&#45;core/pkg/lsp/tools.ReferencesTool).Execute&#45;&gt;github.com/guild&#45;framework/guild&#45;core/tools.NewToolResult -->
<g id="edge2" class="edge">
<title>(*github.com/guild&#45;framework/guild&#45;core/pkg/lsp/tools.ReferencesTool).Execute&#45;&gt;github.com/guild&#45;framework/guild&#45;core/tools.NewToolResult</title>
<g id="a_edge2"><a xlink:title="at references_tool.go:148: calling [github.com/guild&#45;framework/guild&#45;core/tools.NewToolResult]">
<path fill="none" stroke="saddlebrown" d="M148.38,-373.69C171.57,-391.61 205.29,-420.53 227.29,-452 270.1,-513.22 233.98,-560.3 292.29,-607 306.54,-618.41 324.71,-624.7 342.68,-628"/>
<polygon fill="saddlebrown" stroke="saddlebrown" points="341.91,-631.42 352.32,-629.46 342.96,-624.5 341.91,-631.42"/>
</a>
</g>
</g>
<!-- (*github.com/guild&#45;framework/guild&#45;core/pkg/lsp/tools.HoverTool).Execute -->
<g id="node3" class="node">
<title>(*github.com/guild&#45;framework/guild&#45;core/pkg/lsp/tools.HoverTool).Execute</title>
<g id="a_node3"><a xlink:title="(*github.com/guild&#45;framework/guild&#45;core/pkg/lsp/tools.HoverTool).Execute | defined in hover_tool.go:78&#10;at hover_tool.go:82: calling [github.com/guild&#45;framework/guild&#45;core/pkg/gerror.Wrap]&#10;at hover_tool.go:140: calling [github.com/guild&#45;framework/guild&#45;core/pkg/gerror.Wrap]&#10;at hover_tool.go:84: calling [(*github.com/guild&#45;framework/guild&#45;core/pkg/gerror.GuildError).WithOperation]&#10;at hover_tool.go:142: calling [(*github.com/guild&#45;framework/guild&#45;core/pkg/gerror.GuildError).WithOperation]&#10;at hover_tool.go:155: calling [github.com/guild&#45;framework/guild&#45;core/pkg/lsp/tools.extractHoverInfo]&#10;at hover_tool.go:88: calling [(*github.com/guild&#45;framework/guild&#45;core/pkg/lsp.Manager).GetHover]&#10;at hover_tool.go:83: calling [(*github.com/guild&#45;framework/guild&#45;core/pkg/gerror.GuildError).WithComponent]&#10;at hover_tool.go:141: calling [(*github.com/guild&#45;framework/guild&#45;core/pkg/gerror.GuildError).WithComponent]&#10;at hover_tool.go:157: calling [github.com/guild&#45;framework/guild&#45;core/tools.NewToolResult]">
<path fill="lightblue" stroke="black" stroke-width="1.5" d="M196.54,-116C196.54,-116 46.75,-116 46.75,-116 40.75,-116 34.75,-110 34.75,-104 34.75,-104 34.75,-92 34.75,-92 34.75,-86 40.75,-80 46.75,-80 46.75,-80 196.54,-80 196.54,-80 202.54,-80 208.54,-86 208.54,-92 208.54,-92 208.54,-104 208.54,-104 208.54,-110 202.54,-116 196.54,-116"/>
<text xml:space="preserve" text-anchor="middle" x="121.64" y="-93.33" font-family="Verdana" font-size="14.00">(*HoverTool).Execute</text>
</a>
</g>
</g>
<!-- github.com/guild&#45;framework/guild&#45;core/pkg/lsp/tools.extractHoverInfo -->
<g id="node4" class="node">
<title>github.com/guild&#45;framework/guild&#45;core/pkg/lsp/tools.extractHoverInfo</title>
<g id="a_node4"><a xlink:title="github.com/guild&#45;framework/guild&#45;core/pkg/lsp/tools.extractHoverInfo | defined in hover_tool.go:161">
<path fill="lightblue" stroke="black" stroke-width="0.5" d="M475.2,-52C475.2,-52 357.66,-52 357.66,-52 351.66,-52 345.66,-46 345.66,-40 345.66,-40 345.66,-28 345.66,-28 345.66,-22 351.66,-16 357.66,-16 357.66,-16 475.2,-16 475.2,-16 481.2,-16 487.2,-22 487.2,-28 487.2,-28 487.2,-40 487.2,-40 487.2,-46 481.2,-52 475.2,-52"/>
<text xml:space="preserve" text-anchor="middle" x="416.43" y="-29.32" font-family="Verdana" font-size="14.00">extractHoverInfo</text>
</a>
</g>
</g>
<!-- (*github.com/guild&#45;framework/guild&#45;core/pkg/lsp/tools.HoverTool).Execute&#45;&gt;github.com/guild&#45;framework/guild&#45;core/pkg/lsp/tools.extractHoverInfo -->
<g id="edge5" class="edge">
<title>(*github.com/guild&#45;framework/guild&#45;core/pkg/lsp/tools.HoverTool).Execute&#45;&gt;github.com/guild&#45;framework/guild&#45;core/pkg/lsp/tools.extractHoverInfo</title>
<g id="a_edge5"><a xlink:title="at hover_tool.go:155: calling [github.com/guild&#45;framework/guild&#45;core/pkg/lsp/tools.extractHoverInfo]">
<path fill="none" stroke="black" d="M208.12,-79.32C247.99,-70.6 295.21,-60.28 334.5,-51.69"/>
<polygon fill="black" stroke="black" points="335.12,-55.14 344.14,-49.58 333.63,-48.3 335.12,-55.14"/>
</a>
</g>
</g>
<!-- (*github.com/guild&#45;framework/guild&#45;core/pkg/lsp/tools.HoverTool).Execute&#45;&gt;github.com/guild&#45;framework/guild&#45;core/pkg/gerror.Wrap -->
<g id="edge3" class="edge">
<title>(*github.com/guild&#45;framework/guild&#45;core/pkg/lsp/tools.HoverTool).Execute&#45;&gt;github.com/guild&#45;framework/guild&#45;core/pkg/gerror.Wrap</title>
<g id="a_edge3"><a xlink:title="at hover_tool.go:82: calling [github.com/guild&#45;framework/guild&#45;core/pkg/gerror.Wrap]&#10;at hover_tool.go:140: calling [github.com/guild&#45;framework/guild&#45;core/pkg/gerror.Wrap]">
<path fill="none" stroke="saddlebrown" d="M209.09,-83.75C226.96,-81.35 245.7,-79.24 263.29,-78 301.26,-75.31 344.36,-80.95 374.97,-86.44"/>
<polygon fill="saddlebrown" stroke="saddlebrown" points="374.09,-89.84 384.56,-88.24 375.38,-82.96 374.09,-89.84"/>
</a>
</g>
</g>
<!-- (*github.com/guild&#45;framework/guild&#45;core/pkg/lsp/tools.HoverTool).Execute&#45;&gt;(*github.com/guild&#45;framework/guild&#45;core/pkg/gerror.GuildError).WithComponent -->
<g id="edge17" class="edge">
<title>(*github.com/guild&#45;framework/guild&#45;core/pkg/lsp/tools.HoverTool).Execute&#45;&gt;(*github.com/guild&#45;framework/guild&#45;core/pkg/gerror.GuildError).WithComponent</title>
<g id="a_edge17"><a xlink:title="at hover_tool.go:83: calling [(*github.com/guild&#45;framework/guild&#45;core/pkg/gerror.GuildError).WithComponent]&#10;at hover_tool.go:141: calling [(*github.com/guild&#45;framework/guild&#45;core/pkg/gerror.GuildError).WithComponent]">
<path fill="none" stroke="saddlebrown" d="M209.28,-106.45C228.86,-111.55 248.5,-119.55 264.29,-132 285.83,-148.98 270.78,-169.98 292.29,-187 294.88,-189.05 297.59,-190.96 300.39,-192.74"/>
<polygon fill="saddlebrown" stroke="saddlebrown" points="298.52,-195.71 308.95,-197.58 301.96,-189.61 298.52,-195.71"/>
</a>
</g>
</g>
<!-- (*github.com/guild&#45;framework/guild&#45;core/pkg/lsp/tools.HoverTool).Execute&#45;&gt;(*github.com/guild&#45;framework/guild&#45;core/pkg/gerror.GuildError).WithOperation -->
<g id="edge4" class="edge">
<title>(*github.com/guild&#45;framework/guild&#45;core/pkg/lsp/tools.HoverTool).Execute&#45;&gt;(*github.com/guild&#45;framework/guild&#45;core/pkg/gerror.GuildError).WithOperation</title>
<g id="a_edge4"><a xlink:title="at hover_tool.go:84: calling [(*github.com/guild&#45;framework/guild&#45;core/pkg/gerror.GuildError).WithOperation]&#10;at hover_tool.go:142: calling [(*github.com/guild&#45;framework/guild&#45;core/pkg/gerror.GuildError).WithOperation]">
<path fill="none" stroke="saddlebrown" d="M209.27,-94.17C227.83,-95.58 247.04,-98.77 264.29,-105 278.92,-110.28 278.22,-119.36 292.29,-126 298.15,-128.77 304.3,-131.3 310.58,-133.61"/>
<polygon fill="saddlebrown" stroke="saddlebrown" points="309.24,-136.85 319.84,-136.79 311.52,-130.23 309.24,-136.85"/>
</a>
</g>
</g>
<!-- (*github.com/guild&#45;framework/guild&#45;core/pkg/lsp.Manager).GetHover -->
<g id="node15" class="node">
<title>(*github.com/guild&#45;framework/guild&#45;core/pkg/lsp.Manager).GetHover</title>
<g id="a_node15"><a xlink:title="(*github.com/guild&#45;framework/guild&#45;core/pkg/lsp.Manager).GetHover | defined in manager.go:231">
<path fill="moccasin" stroke="black" stroke-width="1.5" d="M492.08,-323C492.08,-323 340.79,-323 340.79,-323 334.79,-323 328.79,-317 328.79,-311 328.79,-311 328.79,-299 328.79,-299 328.79,-293 334.79,-287 340.79,-287 340.79,-287 492.08,-287 492.08,-287 498.08,-287 504.08,-293 504.08,-299 504.08,-299 504.08,-311 504.08,-311 504.08,-317 498.08,-323 492.08,-323"/>
<text xml:space="preserve" text-anchor="middle" x="416.43" y="-300.32" font-family="Verdana" font-size="14.00">(*Manager).GetHover</text>
</a>
</g>
</g>
<!-- (*github.com/guild&#45;framework/guild&#45;core/pkg/lsp/tools.HoverTool).Execute&#45;&gt;(*github.com/guild&#45;framework/guild&#45;core/pkg/lsp.Manager).GetHover -->
<g id="edge9" class="edge">
<title>(*github.com/guild&#45;framework/guild&#45;core/pkg/lsp/tools.HoverTool).Execute&#45;&gt;(*github.com/guild&#45;framework/guild&#45;core/pkg/lsp.Manager).GetHover</title>
<g id="a_edge9"><a xlink:title="at hover_tool.go:88: calling [(*github.com/guild&#45;framework/guild&#45;core/pkg/lsp.Manager).GetHover]">
<path fill="none" stroke="saddlebrown" d="M146.35,-116.46C168.43,-134.18 201.69,-162.28 227.29,-190 260.04,-225.46 251.82,-250.7 292.29,-277 300,-282.01 308.49,-286.13 317.3,-289.52"/>
<polygon fill="saddlebrown" stroke="saddlebrown" points="316.14,-292.82 326.74,-292.8 318.44,-286.21 316.14,-292.82"/>
</a>
</g>
</g>
<!-- (*github.com/guild&#45;framework/guild&#45;core/pkg/lsp/tools.HoverTool).Execute&#45;&gt;github.com/guild&#45;framework/guild&#45;core/tools.NewToolResult -->
<g id="edge22" class="edge">
<title>(*github.com/guild&#45;framework/guild&#45;core/pkg/lsp/tools.HoverTool).Execute&#45;&gt;github.com/guild&#45;framework/guild&#45;core/tools.NewToolResult</title>
<g id="a_edge22"><a xlink:title="at hover_tool.go:157: calling [github.com/guild&#45;framework/guild&#45;core/tools.NewToolResult]">
<path fill="none" stroke="saddlebrown" d="M153.6,-116.55C177.78,-132.77 210.06,-158.62 227.29,-190 249.86,-231.1 259.5,-573.48 292.29,-607 305.49,-620.5 323.93,-627.37 342.53,-630.55"/>
<polygon fill="saddlebrown" stroke="saddlebrown" points="341.89,-634 352.27,-631.85 342.82,-627.06 341.89,-634"/>
</a>
</g>
</g>
<!-- (*github.com/guild&#45;framework/guild&#45;core/pkg/lsp/tools.CompletionTool).Execute -->
<g id="node5" class="node">
<title>(*github.com/guild&#45;framework/guild&#45;core/pkg/lsp/tools.CompletionTool).Execute</title>
<g id="a_node5"><a xlink:title="(*github.com/guild&#45;framework/guild&#45;core/pkg/lsp/tools.CompletionTool).Execute | defined in completion_tool.go:92&#10;at completion_tool.go:98: calling [(*github.com/guild&#45;framework/guild&#45;core/pkg/gerror.GuildError).WithOperation]&#10;at completion_tool.go:139: calling [(*github.com/guild&#45;framework/guild&#45;core/pkg/gerror.GuildError).WithOperation]&#10;at completion_tool.go:102: calling [(*github.com/guild&#45;framework/guild&#45;core/pkg/lsp.Manager).GetCompletion]&#10;at completion_tool.go:115: calling [github.com/guild&#45;framework/guild&#45;core/pkg/lsp/tools.completionKindToString]&#10;at completion_tool.go:96: calling [github.com/guild&#45;framework/guild&#45;core/pkg/gerror.Wrap]&#10;at completion_tool.go:137: calling [github.com/guild&#45;framework/guild&#45;core/pkg/gerror.Wrap]&#10;at completion_tool.go:97: calling [(*github.com/guild&#45;framework/guild&#45;core/pkg/gerror.GuildError).WithComponent]&#10;at completion_tool.go:138: calling [(*github.com/guild&#45;framework/guild&#45;core/pkg/gerror.GuildError).WithComponent]&#10;at completion_tool.go:152: calling [github.com/guild&#45;framework/guild&#45;core/tools.NewToolResult]">
<path fill="lightblue" stroke="black" stroke-width="1.5" d="M215.29,-500C215.29,-500 28,-500 28,-500 22,-500 16,-494 16,-488 16,-488 16,-476 16,-476 16,-470 22,-464 28,-464 28,-464 215.29,-464 215.29,-464 221.29,-464 227.29,-470 227.29,-476 227.29,-476 227.29,-488 227.29,-488 227.29,-494 221.29,-500 215.29,-500"/>
<text xml:space="preserve" text-anchor="middle" x="121.64" y="-477.32" font-family="Verdana" font-size="14.00">(*CompletionTool).Execute</text>
</a>
</g>
</g>
<!-- github.com/guild&#45;framework/guild&#45;core/pkg/lsp/tools.completionKindToString -->
<g id="node6" class="node">
<title>github.com/guild&#45;framework/guild&#45;core/pkg/lsp/tools.completionKindToString</title>
<g id="a_node6"><a xlink:title="github.com/guild&#45;framework/guild&#45;core/pkg/lsp/tools.completionKindToString | defined in completion_tool.go:156">
<path fill="lightblue" stroke="black" stroke-width="0.5" d="M499.2,-586C499.2,-586 333.66,-586 333.66,-586 327.66,-586 321.66,-580 321.66,-574 321.66,-574 321.66,-562 321.66,-562 321.66,-556 327.66,-550 333.66,-550 333.66,-550 499.2,-550 499.2,-550 505.2,-550 511.2,-556 511.2,-562 511.2,-562 511.2,-574 511.2,-574 511.2,-580 505.2,-586 499.2,-586"/>
<text xml:space="preserve" text-anchor="middle" x="416.43" y="-563.33" font-family="Verdana" font-size="14.00">completionKindToString</text>
</a>
</g>
</g>
<!-- (*github.com/guild&#45;framework/guild&#45;core/pkg/lsp/tools.CompletionTool).Execute&#45;&gt;github.com/guild&#45;framework/guild&#45;core/pkg/lsp/tools.completionKindToString -->
<g id="edge18" class="edge">
<title>(*github.com/guild&#45;framework/guild&#45;core/pkg/lsp/tools.CompletionTool).Execute&#45;&gt;github.com/guild&#45;framework/guild&#45;core/pkg/lsp/tools.completionKindToString</title>
<g id="a_edge18"><a xlink:title="at completion_tool.go:115: calling [github.com/guild&#45;framework/guild&#45;core/pkg/lsp/tools.completionKindToString]">
<path fill="none" stroke="black" d="M192.21,-500.67C204.04,-504.4 216.11,-508.55 227.29,-513 257.39,-524.98 261.57,-535.71 292.29,-546 298.29,-548.01 304.52,-549.85 310.86,-551.53"/>
<polygon fill="black" stroke="black" points="309.56,-554.81 320.11,-553.84 311.26,-548.02 309.56,-554.81"/>
</a>
</g>
</g>
<!-- (*github.com/guild&#45;framework/guild&#45;core/pkg/lsp/tools.CompletionTool).Execute&#45;&gt;github.com/guild&#45;framework/guild&#45;core/pkg/gerror.Wrap -->
<g id="edge23" class="edge">
<title>(*github.com/guild&#45;framework/guild&#45;core/pkg/lsp/tools.CompletionTool).Execute&#45;&gt;github.com/guild&#45;framework/guild&#45;core/pkg/gerror.Wrap</title>
<g id="a_edge23"><a xlink:title="at completion_tool.go:96: calling [github.com/guild&#45;framework/guild&#45;core/pkg/gerror.Wrap]&#10;at completion_tool.go:137: calling [github.com/guild&#45;framework/guild&#45;core/pkg/gerror.Wrap]">
<path fill="none" stroke="saddlebrown" d="M150.94,-463.29C174.83,-446.01 208.13,-418.21 227.29,-386 257.74,-334.82 250.21,-168.15 292.29,-126 313.73,-104.53 347.71,-97.18 374.55,-94.98"/>
<polygon fill="saddlebrown" stroke="saddlebrown" points="374.64,-98.48 384.42,-94.4 374.23,-91.49 374.64,-98.48"/>
</a>
</g>
</g>
<!-- (*github.com/guild&#45;framework/guild&#45;core/pkg/lsp/tools.CompletionTool).Execute&#45;&gt;(*github.com/guild&#45;framework/guild&#45;core/pkg/gerror.GuildError).WithComponent -->
<g id="edge24" class="edge">
<title>(*github.com/guild&#45;framework/guild&#45;core/pkg/lsp/tools.CompletionTool).Execute&#45;&gt;(*github.com/guild&#45;framework/guild&#45;core/pkg/gerror.GuildError).WithComponent</title>
<g id="a_edge24"><a xlink:title="at completion_tool.go:97: calling [(*github.com/guild&#45;framework/guild&#45;core/pkg/gerror.GuildError).WithComponent]&#10;at completion_tool.go:138: calling [(*github.com/guild&#45;framework/guild&#45;core/pkg/gerror.GuildError).WithComponent]">
<path fill="none" stroke="saddlebrown" d="M227.82,-489.03C241.37,-485.62 254.07,-479.66 264.29,-470 328.57,-409.26 239.29,-343.8 292.29,-273 302.74,-259.04 317.48,-248.47 333.15,-240.49"/>
<polygon fill="saddlebrown" stroke="saddlebrown" points="334.61,-243.68 342.18,-236.26 331.64,-237.34 334.61,-243.68"/>
</a>
</g>
</g>
<!-- (*github.com/guild&#45;framework/guild&#45;core/pkg/lsp/tools.CompletionTool).Execute&#45;&gt;(*github.com/guild&#45;framework/guild&#45;core/pkg/gerror.GuildError).WithOperation -->
<g id="edge6" class="edge">
<title>(*github.com/guild&#45;framework/guild&#45;core/pkg/lsp/tools.CompletionTool).Execute&#45;&gt;(*github.com/guild&#45;framework/guild&#45;core/pkg/gerror.GuildError).WithOperation</title>
<g id="a_edge6"><a xlink:title="at completion_tool.go:98: calling [(*github.com/guild&#45;framework/guild&#45;core/pkg/gerror.GuildError).WithOperation]&#10;at completion_tool.go:139: calling [(*github.com/guild&#45;framework/guild&#45;core/pkg/gerror.GuildError).WithOperation]">
<path fill="none" stroke="saddlebrown" d="M227.85,-468.61C241.75,-462.7 254.53,-454.46 264.29,-443 338.51,-355.87 217.12,-273.31 292.29,-187 293.97,-185.08 295.74,-183.26 297.61,-181.55"/>
<polygon fill="saddlebrown" stroke="saddlebrown" points="299.42,-184.58 305.12,-175.64 295.09,-179.08 299.42,-184.58"/>
</a>
</g>
</g>
<!-- (*github.com/guild&#45;framework/guild&#45;core/pkg/lsp.Manager).GetCompletion -->
<g id="node16" class="node">
<title>(*github.com/guild&#45;framework/guild&#45;core/pkg/lsp.Manager).GetCompletion</title>
<g id="a_node16"><a xlink:title="(*github.com/guild&#45;framework/guild&#45;core/pkg/lsp.Manager).GetCompletion | defined in manager.go:99">
<path fill="moccasin" stroke="black" stroke-width="1.5" d="M510.83,-506C510.83,-506 322.04,-506 322.04,-506 316.04,-506 310.04,-500 310.04,-494 310.04,-494 310.04,-482 310.04,-482 310.04,-476 316.04,-470 322.04,-470 322.04,-470 510.83,-470 510.83,-470 516.83,-470 522.83,-476 522.83,-482 522.83,-482 522.83,-494 522.83,-494 522.83,-500 516.83,-506 510.83,-506"/>
<text xml:space="preserve" text-anchor="middle" x="416.43" y="-483.32" font-family="Verdana" font-size="14.00">(*Manager).GetCompletion</text>
</a>
</g>
</g>
<!-- (*github.com/guild&#45;framework/guild&#45;core/pkg/lsp/tools.CompletionTool).Execute&#45;&gt;(*github.com/guild&#45;framework/guild&#45;core/pkg/lsp.Manager).GetCompletion -->
<g id="edge10" class="edge">
<title>(*github.com/guild&#45;framework/guild&#45;core/pkg/lsp/tools.CompletionTool).Execute&#45;&gt;(*github.com/guild&#45;framework/guild&#45;core/pkg/lsp.Manager).GetCompletion</title>
<g id="a_edge10"><a xlink:title="at completion_tool.go:102: calling [(*github.com/guild&#45;framework/guild&#45;core/pkg/lsp.Manager).GetCompletion]">
<path fill="none" stroke="saddlebrown" d="M227.76,-494.44C239.73,-495.49 251.76,-496.39 263.29,-497 274.6,-497.6 286.39,-497.75 298.17,-497.58"/>
<polygon fill="saddlebrown" stroke="saddlebrown" points="298.02,-501.08 307.94,-497.36 297.86,-494.09 298.02,-501.08"/>
</a>
</g>
</g>
<!-- (*github.com/guild&#45;framework/guild&#45;core/pkg/lsp/tools.CompletionTool).Execute&#45;&gt;github.com/guild&#45;framework/guild&#45;core/tools.NewToolResult -->
<g id="edge25" class="edge">
<title>(*github.com/guild&#45;framework/guild&#45;core/pkg/lsp/tools.CompletionTool).Execute&#45;&gt;github.com/guild&#45;framework/guild&#45;core/tools.NewToolResult</title>
<g id="a_edge25"><a xlink:title="at completion_tool.go:152: calling [github.com/guild&#45;framework/guild&#45;core/tools.NewToolResult]">
<path fill="none" stroke="saddlebrown" d="M208.25,-500.73C215.07,-504.16 221.54,-508.21 227.29,-513 254.47,-535.65 240.91,-556.6 263.29,-584 273.69,-596.74 277.29,-600.24 292.29,-607 307.96,-614.07 325.72,-618.87 342.77,-622.13"/>
<polygon fill="saddlebrown" stroke="saddlebrown" points="341.9,-625.53 352.35,-623.8 343.1,-618.63 341.9,-625.53"/>
</a>
</g>
</g>
<!-- github.com/guild&#45;framework/guild&#45;core/pkg/lsp/tools.NewDefinitionTool -->
<g id="node7" class="node">
<title>github.com/guild&#45;framework/guild&#45;core/pkg/lsp/tools.NewDefinitionTool</title>
<g id="a_node7"><a xlink:title="github.com/guild&#45;framework/guild&#45;core/pkg/lsp/tools.NewDefinitionTool | defined in definition_tool.go:46&#10;at definition_tool.go:72: calling [github.com/guild&#45;framework/guild&#45;core/tools.NewBaseTool]">
<path fill="lightblue" stroke="black" stroke-width="1.5" d="M183.41,-683C183.41,-683 59.87,-683 59.87,-683 53.88,-683 47.87,-677 47.87,-671 47.87,-671 47.87,-659 47.87,-659 47.87,-653 53.87,-647 59.87,-647 59.87,-647 183.41,-647 183.41,-647 189.41,-647 195.41,-653 195.41,-659 195.41,-659 195.41,-671 195.41,-671 195.41,-677 189.41,-683 183.41,-683"/>
<text xml:space="preserve" text-anchor="middle" x="121.64" y="-660.33" font-family="Verdana" font-size="14.00">NewDefinitionTool</text>
</a>
</g>
</g>
<!-- github.com/guild&#45;framework/guild&#45;core/pkg/lsp/tools.NewDefinitionTool&#45;&gt;github.com/guild&#45;framework/guild&#45;core/tools.NewBaseTool -->
<g id="edge26" class="edge">
<title>github.com/guild&#45;framework/guild&#45;core/pkg/lsp/tools.NewDefinitionTool&#45;&gt;github.com/guild&#45;framework/guild&#45;core/tools.NewBaseTool</title>
<g id="a_edge26"><a xlink:title="at definition_tool.go:72: calling [github.com/guild&#45;framework/guild&#45;core/tools.NewBaseTool]">
<path fill="none" stroke="saddlebrown" d="M196.15,-671.28C242.84,-675.26 302.82,-680.38 348.24,-684.26"/>
<polygon fill="saddlebrown" stroke="saddlebrown" points="347.69,-687.73 357.95,-685.09 348.28,-680.75 347.69,-687.73"/>
</a>
</g>
</g>
<!-- github.com/guild&#45;framework/guild&#45;core/pkg/lsp/tools.NewCompletionTool -->
<g id="node8" class="node">
<title>github.com/guild&#45;framework/guild&#45;core/pkg/lsp/tools.NewCompletionTool</title>
<g id="a_node8"><a xlink:title="github.com/guild&#45;framework/guild&#45;core/pkg/lsp/tools.NewCompletionTool | defined in completion_tool.go:49&#10;at completion_tool.go:79: calling [github.com/guild&#45;framework/guild&#45;core/tools.NewBaseTool]">
<path fill="lightblue" stroke="black" stroke-width="1.5" d="M189.41,-744C189.41,-744 53.87,-744 53.87,-744 47.87,-744 41.87,-738 41.87,-732 41.87,-732 41.87,-720 41.87,-720 41.87,-714 47.87,-708 53.87,-708 53.87,-708 189.41,-708 189.41,-708 195.41,-708 201.41,-714 201.41,-720 201.41,-720 201.41,-732 201.41,-732 201.41,-738 195.41,-744 189.41,-744"/>
<text xml:space="preserve" text-anchor="middle" x="121.64" y="-721.33" font-family="Verdana" font-size="14.00">NewCompletionTool</text>
</a>
</g>
</g>
<!-- github.com/guild&#45;framework/guild&#45;core/pkg/lsp/tools.NewCompletionTool&#45;&gt;github.com/guild&#45;framework/guild&#45;core/tools.NewBaseTool -->
<g id="edge1" class="edge">
<title>github.com/guild&#45;framework/guild&#45;core/pkg/lsp/tools.NewCompletionTool&#45;&gt;github.com/guild&#45;framework/guild&#45;core/tools.NewBaseTool</title>
<g id="a_edge1"><a xlink:title="at completion_tool.go:79: calling [github.com/guild&#45;framework/guild&#45;core/tools.NewBaseTool]">
<path fill="none" stroke="saddlebrown" d="M201.88,-716.26C247.58,-710.64 304.44,-703.65 348,-698.29"/>
<polygon fill="saddlebrown" stroke="saddlebrown" points="348.34,-701.78 357.83,-697.08 347.48,-694.83 348.34,-701.78"/>
</a>
</g>
</g>
<!-- (*github.com/guild&#45;framework/guild&#45;core/pkg/lsp/tools.DefinitionTool).Execute -->
<g id="node9" class="node">
<title>(*github.com/guild&#45;framework/guild&#45;core/pkg/lsp/tools.DefinitionTool).Execute</title>
<g id="a_node9"><a xlink:title="(*github.com/guild&#45;framework/guild&#45;core/pkg/lsp/tools.DefinitionTool).Execute | defined in definition_tool.go:85&#10;at definition_tool.go:89: calling [github.com/guild&#45;framework/guild&#45;core/pkg/gerror.Wrap]&#10;at definition_tool.go:121: calling [github.com/guild&#45;framework/guild&#45;core/pkg/gerror.Wrap]&#10;at definition_tool.go:91: calling [(*github.com/guild&#45;framework/guild&#45;core/pkg/gerror.GuildError).WithOperation]&#10;at definition_tool.go:123: calling [(*github.com/guild&#45;framework/guild&#45;core/pkg/gerror.GuildError).WithOperation]&#10;at definition_tool.go:95: calling [(*github.com/guild&#45;framework/guild&#45;core/pkg/lsp.Manager).GetDefinition]&#10;at definition_tool.go:90: calling [(*github.com/guild&#45;framework/guild&#45;core/pkg/gerror.GuildError).WithComponent]&#10;at definition_tool.go:122: calling [(*github.com/guild&#45;framework/guild&#45;core/pkg/gerror.GuildError).WithComponent]&#10;at definition_tool.go:132: calling [github.com/guild&#45;framework/guild&#45;core/tools.NewToolResult]">
<path fill="lightblue" stroke="black" stroke-width="1.5" d="M209.29,-238C209.29,-238 34,-238 34,-238 28,-238 22,-232 22,-226 22,-226 22,-214 22,-214 22,-208 28,-202 34,-202 34,-202 209.29,-202 209.29,-202 215.29,-202 221.29,-208 221.29,-214 221.29,-214 221.29,-226 221.29,-226 221.29,-232 215.29,-238 209.29,-238"/>
<text xml:space="preserve" text-anchor="middle" x="121.64" y="-215.32" font-family="Verdana" font-size="14.00">(*DefinitionTool).Execute</text>
</a>
</g>
</g>
<!-- (*github.com/guild&#45;framework/guild&#45;core/pkg/lsp/tools.DefinitionTool).Execute&#45;&gt;github.com/guild&#45;framework/guild&#45;core/pkg/gerror.Wrap -->
<g id="edge7" class="edge">
<title>(*github.com/guild&#45;framework/guild&#45;core/pkg/lsp/tools.DefinitionTool).Execute&#45;&gt;github.com/guild&#45;framework/guild&#45;core/pkg/gerror.Wrap</title>
<g id="a_edge7"><a xlink:title="at definition_tool.go:89: calling [github.com/guild&#45;framework/guild&#45;core/pkg/gerror.Wrap]&#10;at definition_tool.go:121: calling [github.com/guild&#45;framework/guild&#45;core/pkg/gerror.Wrap]">
<path fill="none" stroke="saddlebrown" d="M150.94,-201.31C183.73,-180.37 239.99,-146.66 292.29,-126 319.02,-115.44 350.46,-107.6 374.88,-102.44"/>
<polygon fill="saddlebrown" stroke="saddlebrown" points="375.32,-105.92 384.42,-100.5 373.92,-99.06 375.32,-105.92"/>
</a>
</g>
</g>
<!-- (*github.com/guild&#45;framework/guild&#45;core/pkg/lsp/tools.DefinitionTool).Execute&#45;&gt;(*github.com/guild&#45;framework/guild&#45;core/pkg/gerror.GuildError).WithComponent -->
<g id="edge19" class="edge">
<title>(*github.com/guild&#45;framework/guild&#45;core/pkg/lsp/tools.DefinitionTool).Execute&#45;&gt;(*github.com/guild&#45;framework/guild&#45;core/pkg/gerror.GuildError).WithComponent</title>
<g id="a_edge19"><a xlink:title="at definition_tool.go:90: calling [(*github.com/guild&#45;framework/guild&#45;core/pkg/gerror.GuildError).WithComponent]&#10;at definition_tool.go:122: calling [(*github.com/guild&#45;framework/guild&#45;core/pkg/gerror.GuildError).WithComponent]">
<path fill="none" stroke="saddlebrown" d="M221.77,-218.98C243.2,-218.76 266.14,-218.53 288.47,-218.3"/>
<polygon fill="saddlebrown" stroke="saddlebrown" points="288.25,-221.8 298.22,-218.2 288.18,-214.8 288.25,-221.8"/>
</a>
</g>
</g>
<!-- (*github.com/guild&#45;framework/guild&#45;core/pkg/lsp/tools.DefinitionTool).Execute&#45;&gt;(*github.com/guild&#45;framework/guild&#45;core/pkg/gerror.GuildError).WithOperation -->
<g id="edge11" class="edge">
<title>(*github.com/guild&#45;framework/guild&#45;core/pkg/lsp/tools.DefinitionTool).Execute&#45;&gt;(*github.com/guild&#45;framework/guild&#45;core/pkg/gerror.GuildError).WithOperation</title>
<g id="a_edge11"><a xlink:title="at definition_tool.go:91: calling [(*github.com/guild&#45;framework/guild&#45;core/pkg/gerror.GuildError).WithOperation]&#10;at definition_tool.go:123: calling [(*github.com/guild&#45;framework/guild&#45;core/pkg/gerror.GuildError).WithOperation]">
<path fill="none" stroke="saddlebrown" d="M208.12,-201.32C242.84,-193.73 283.13,-184.92 318.91,-177.1"/>
<polygon fill="saddlebrown" stroke="saddlebrown" points="319.35,-180.58 328.38,-175.03 317.86,-173.75 319.35,-180.58"/>
</a>
</g>
</g>
<!-- (*github.com/guild&#45;framework/guild&#45;core/pkg/lsp.Manager).GetDefinition -->
<g id="node17" class="node">
<title>(*github.com/guild&#45;framework/guild&#45;core/pkg/lsp.Manager).GetDefinition</title>
<g id="a_node17"><a xlink:title="(*github.com/guild&#45;framework/guild&#45;core/pkg/lsp.Manager).GetDefinition | defined in manager.go:152">
<path fill="moccasin" stroke="black" stroke-width="1.5" d="M504.83,-384C504.83,-384 328.04,-384 328.04,-384 322.04,-384 316.04,-378 316.04,-372 316.04,-372 316.04,-360 316.04,-360 316.04,-354 322.04,-348 328.04,-348 328.04,-348 504.83,-348 504.83,-348 510.83,-348 516.83,-354 516.83,-360 516.83,-360 516.83,-372 516.83,-372 516.83,-378 510.83,-384 504.83,-384"/>
<text xml:space="preserve" text-anchor="middle" x="416.43" y="-361.32" font-family="Verdana" font-size="14.00">(*Manager).GetDefinition</text>
</a>
</g>
</g>
<!-- (*github.com/guild&#45;framework/guild&#45;core/pkg/lsp/tools.DefinitionTool).Execute&#45;&gt;(*github.com/guild&#45;framework/guild&#45;core/pkg/lsp.Manager).GetDefinition -->
<g id="edge12" class="edge">
<title>(*github.com/guild&#45;framework/guild&#45;core/pkg/lsp/tools.DefinitionTool).Execute&#45;&gt;(*github.com/guild&#45;framework/guild&#45;core/pkg/lsp.Manager).GetDefinition</title>
<g id="a_edge12"><a xlink:title="at definition_tool.go:95: calling [(*github.com/guild&#45;framework/guild&#45;core/pkg/lsp.Manager).GetDefinition]">
<path fill="none" stroke="saddlebrown" d="M144.14,-238.54C174.93,-264.16 234.28,-310.14 292.29,-336 298.62,-338.82 305.26,-341.4 312.03,-343.76"/>
<polygon fill="saddlebrown" stroke="saddlebrown" points="310.73,-347.02 321.32,-346.81 312.91,-340.37 310.73,-347.02"/>
</a>
</g>
</g>
<!-- (*github.com/guild&#45;framework/guild&#45;core/pkg/lsp/tools.DefinitionTool).Execute&#45;&gt;github.com/guild&#45;framework/guild&#45;core/tools.NewToolResult -->
<g id="edge20" class="edge">
<title>(*github.com/guild&#45;framework/guild&#45;core/pkg/lsp/tools.DefinitionTool).Execute&#45;&gt;github.com/guild&#45;framework/guild&#45;core/tools.NewToolResult</title>
<g id="a_edge20"><a xlink:title="at definition_tool.go:132: calling [github.com/guild&#45;framework/guild&#45;core/tools.NewToolResult]">
<path fill="none" stroke="saddlebrown" d="M148.26,-238.74C172.36,-257.76 207.61,-289.41 227.29,-325 258.41,-381.28 245.7,-562.67 292.29,-607 305.78,-619.83 324.04,-626.54 342.36,-629.78"/>
<polygon fill="saddlebrown" stroke="saddlebrown" points="341.85,-633.24 352.24,-631.16 342.82,-626.31 341.85,-633.24"/>
</a>
</g>
</g>
<!-- github.com/guild&#45;framework/guild&#45;core/pkg/lsp/tools.NewHoverTool -->
<g id="node10" class="node">
<title>github.com/guild&#45;framework/guild&#45;core/pkg/lsp/tools.NewHoverTool</title>
<g id="a_node10"><a xlink:title="github.com/guild&#45;framework/guild&#45;core/pkg/lsp/tools.NewHoverTool | defined in hover_tool.go:39&#10;at hover_tool.go:65: calling [github.com/guild&#45;framework/guild&#45;core/tools.NewBaseTool]">
<path fill="lightblue" stroke="black" stroke-width="1.5" d="M170.66,-561C170.66,-561 72.62,-561 72.62,-561 66.62,-561 60.62,-555 60.62,-549 60.62,-549 60.62,-537 60.62,-537 60.62,-531 66.62,-525 72.62,-525 72.62,-525 170.66,-525 170.66,-525 176.66,-525 182.66,-531 182.66,-537 182.66,-537 182.66,-549 182.66,-549 182.66,-555 176.66,-561 170.66,-561"/>
<text xml:space="preserve" text-anchor="middle" x="121.64" y="-538.33" font-family="Verdana" font-size="14.00">NewHoverTool</text>
</a>
</g>
</g>
<!-- github.com/guild&#45;framework/guild&#45;core/pkg/lsp/tools.NewHoverTool&#45;&gt;github.com/guild&#45;framework/guild&#45;core/tools.NewBaseTool -->
<g id="edge13" class="edge">
<title>github.com/guild&#45;framework/guild&#45;core/pkg/lsp/tools.NewHoverTool&#45;&gt;github.com/guild&#45;framework/guild&#45;core/tools.NewBaseTool</title>
<g id="a_edge13"><a xlink:title="at hover_tool.go:65: calling [github.com/guild&#45;framework/guild&#45;core/tools.NewBaseTool]">
<path fill="none" stroke="saddlebrown" d="M183.16,-553.9C198.44,-558.48 214.21,-564.94 227.29,-574 266.68,-601.28 252.25,-633.69 292.29,-660 308.89,-670.91 329.1,-677.85 348.31,-682.27"/>
<polygon fill="saddlebrown" stroke="saddlebrown" points="347.48,-685.68 357.98,-684.29 348.91,-678.82 347.48,-685.68"/>
</a>
</g>
</g>
</g>
</svg>
