<?xml version="1.0" encoding="UTF-8" standalone="no"?>
<!DOCTYPE svg PUBLIC "-//W3C//DTD SVG 1.1//EN"
 "http://www.w3.org/Graphics/SVG/1.1/DTD/svg11.dtd">
<!-- Generated by graphviz version 14.1.1 (20251213.1925)
 -->
<!-- Title: gocallvis Pages: 1 -->
<svg width="1153pt" height="580pt"
 viewBox="0.00 0.00 1153.00 580.00" xmlns="http://www.w3.org/2000/svg" xmlns:xlink="http://www.w3.org/1999/xlink">
<g id="graph0" class="graph" transform="scale(1 1) rotate(0) translate(0 580)">
<title>gocallvis</title>
<polygon fill="lightgray" stroke="none" points="0,0 0,-580 1153.12,-580 1153.12,0 0,0"/>
<g id="clust1" class="cluster">
<title>cluster_focus</title>
<polygon fill="#e6ecfa" stroke="black" stroke-width="0.5" points="8,-8 8,-572 1145.12,-572 1145.12,-8 8,-8"/>
<text xml:space="preserve" text-anchor="middle" x="576.56" y="-550.9" font-family="Arial" font-size="18.00">scoring</text>
</g>
<g id="clust2" class="cluster">
<title>cluster_github.com/guild&#45;framework/guild&#45;core/pkg/gerror</title>
<g id="a_clust2"><a xlink:href="/?f=github.com/guild-framework/guild-core/pkg/gerror" xlink:title="package: github.com/guild&#45;framework/guild&#45;core/pkg/gerror">
<polygon fill="lightyellow" stroke="black" stroke-width="0.8" points="837.58,-130 837.58,-393 1085.87,-393 1085.87,-130 837.58,-130"/>
<text xml:space="preserve" text-anchor="middle" x="961.73" y="-373.8" font-family="Tahoma bold" font-size="16.00">gerror</text>
</a>
</g>
</g>
<g id="clust3" class="cluster">
<title>cluster_github.com/guild&#45;framework/guild&#45;core/pkg/observability</title>
<g id="a_clust3"><a xlink:href="/?f=github.com/guild-framework/guild-core/pkg/observability" xlink:title="package: github.com/guild&#45;framework/guild&#45;core/pkg/observability">
<polygon fill="lightyellow" stroke="black" stroke-width="0.8" points="494.44,-455 494.44,-535 612.44,-535 612.44,-455 494.44,-455"/>
<text xml:space="preserve" text-anchor="middle" x="553.44" y="-515.8" font-family="Tahoma bold" font-size="16.00">observability</text>
</a>
</g>
</g>
<!-- (*github.com/guild&#45;framework/guild&#45;core/pkg/corpus/scoring.RelevanceEngine).RegisterDomainModel -->
<g id="node1" class="node">
<title>(*github.com/guild&#45;framework/guild&#45;core/pkg/corpus/scoring.RelevanceEngine).RegisterDomainModel</title>
<g id="a_node1"><a xlink:title="(*github.com/guild&#45;framework/guild&#45;core/pkg/corpus/scoring.RelevanceEngine).RegisterDomainModel | defined in relevance.go:71&#10;at relevance.go:73: calling [github.com/guild&#45;framework/guild&#45;core/pkg/gerror.New]&#10;at relevance.go:74: calling [(*github.com/guild&#45;framework/guild&#45;core/pkg/gerror.GuildError).WithComponent]&#10;at relevance.go:75: calling [(*github.com/guild&#45;framework/guild&#45;core/pkg/gerror.GuildError).WithOperation]">
<path fill="lightblue" stroke="black" stroke-width="1.5" d="M701.33,-113C701.33,-113 404.54,-113 404.54,-113 398.54,-113 392.54,-107 392.54,-101 392.54,-101 392.54,-89 392.54,-89 392.54,-83 398.54,-77 404.54,-77 404.54,-77 701.33,-77 701.33,-77 707.33,-77 713.33,-83 713.33,-89 713.33,-89 713.33,-101 713.33,-101 713.33,-107 707.33,-113 701.33,-113"/>
<text xml:space="preserve" text-anchor="middle" x="552.94" y="-90.33" font-family="Verdana" font-size="14.00">(*RelevanceEngine).RegisterDomainModel</text>
</a>
</g>
</g>
<!-- github.com/guild&#45;framework/guild&#45;core/pkg/gerror.New -->
<g id="node10" class="node">
<title>github.com/guild&#45;framework/guild&#45;core/pkg/gerror.New</title>
<g id="a_node10"><a xlink:title="github.com/guild&#45;framework/guild&#45;core/pkg/gerror.New | defined in errors.go:190">
<path fill="moccasin" stroke="black" stroke-width="1.5" d="M976.73,-296C976.73,-296 946.73,-296 946.73,-296 940.73,-296 934.73,-290 934.73,-284 934.73,-284 934.73,-272 934.73,-272 934.73,-266 940.73,-260 946.73,-260 946.73,-260 976.73,-260 976.73,-260 982.73,-260 988.73,-266 988.73,-272 988.73,-272 988.73,-284 988.73,-284 988.73,-290 982.73,-296 976.73,-296"/>
<text xml:space="preserve" text-anchor="middle" x="961.73" y="-273.32" font-family="Verdana" font-size="14.00">New</text>
</a>
</g>
</g>
<!-- (*github.com/guild&#45;framework/guild&#45;core/pkg/corpus/scoring.RelevanceEngine).RegisterDomainModel&#45;&gt;github.com/guild&#45;framework/guild&#45;core/pkg/gerror.New -->
<g id="edge7" class="edge">
<title>(*github.com/guild&#45;framework/guild&#45;core/pkg/corpus/scoring.RelevanceEngine).RegisterDomainModel&#45;&gt;github.com/guild&#45;framework/guild&#45;core/pkg/gerror.New</title>
<g id="a_edge7"><a xlink:title="at relevance.go:73: calling [github.com/guild&#45;framework/guild&#45;core/pkg/gerror.New]">
<path fill="none" stroke="saddlebrown" d="M691.48,-113.64C699.17,-117.14 706.52,-121.22 713.33,-126 765.06,-162.29 734.21,-212.27 786.33,-248 826.91,-275.82 884.98,-280.57 922.77,-280.23"/>
<polygon fill="saddlebrown" stroke="saddlebrown" points="922.85,-283.73 932.76,-280 922.68,-276.73 922.85,-283.73"/>
</a>
</g>
</g>
<!-- (*github.com/guild&#45;framework/guild&#45;core/pkg/gerror.GuildError).WithComponent -->
<g id="node11" class="node">
<title>(*github.com/guild&#45;framework/guild&#45;core/pkg/gerror.GuildError).WithComponent</title>
<g id="a_node11"><a xlink:title="(*github.com/guild&#45;framework/guild&#45;core/pkg/gerror.GuildError).WithComponent | defined in errors.go:156">
<path fill="moccasin" stroke="black" stroke-width="1.5" d="M1065.87,-174C1065.87,-174 857.58,-174 857.58,-174 851.58,-174 845.58,-168 845.58,-162 845.58,-162 845.58,-150 845.58,-150 845.58,-144 851.58,-138 857.58,-138 857.58,-138 1065.87,-138 1065.87,-138 1071.87,-138 1077.87,-144 1077.87,-150 1077.87,-150 1077.87,-162 1077.87,-162 1077.87,-168 1071.87,-174 1065.87,-174"/>
<text xml:space="preserve" text-anchor="middle" x="961.73" y="-151.32" font-family="Verdana" font-size="14.00">(*GuildError).WithComponent</text>
</a>
</g>
</g>
<!-- (*github.com/guild&#45;framework/guild&#45;core/pkg/corpus/scoring.RelevanceEngine).RegisterDomainModel&#45;&gt;(*github.com/guild&#45;framework/guild&#45;core/pkg/gerror.GuildError).WithComponent -->
<g id="edge14" class="edge">
<title>(*github.com/guild&#45;framework/guild&#45;core/pkg/corpus/scoring.RelevanceEngine).RegisterDomainModel&#45;&gt;(*github.com/guild&#45;framework/guild&#45;core/pkg/gerror.GuildError).WithComponent</title>
<g id="a_edge14"><a xlink:title="at relevance.go:74: calling [(*github.com/guild&#45;framework/guild&#45;core/pkg/gerror.GuildError).WithComponent]">
<path fill="none" stroke="saddlebrown" d="M659.94,-113.73C699.54,-120.47 744.94,-127.92 786.33,-134 801.78,-136.27 818.03,-138.51 834.14,-140.65"/>
<polygon fill="saddlebrown" stroke="saddlebrown" points="833.38,-144.08 843.75,-141.91 834.29,-137.14 833.38,-144.08"/>
</a>
</g>
</g>
<!-- (*github.com/guild&#45;framework/guild&#45;core/pkg/gerror.GuildError).WithOperation -->
<g id="node12" class="node">
<title>(*github.com/guild&#45;framework/guild&#45;core/pkg/gerror.GuildError).WithOperation</title>
<g id="a_node12"><a xlink:title="(*github.com/guild&#45;framework/guild&#45;core/pkg/gerror.GuildError).WithOperation | defined in errors.go:162">
<path fill="moccasin" stroke="black" stroke-width="1.5" d="M1060.25,-235C1060.25,-235 863.21,-235 863.21,-235 857.21,-235 851.21,-229 851.21,-223 851.21,-223 851.21,-211 851.21,-211 851.21,-205 857.21,-199 863.21,-199 863.21,-199 1060.25,-199 1060.25,-199 1066.25,-199 1072.25,-205 1072.25,-211 1072.25,-211 1072.25,-223 1072.25,-223 1072.25,-229 1066.25,-235 1060.25,-235"/>
<text xml:space="preserve" text-anchor="middle" x="961.73" y="-212.32" font-family="Verdana" font-size="14.00">(*GuildError).WithOperation</text>
</a>
</g>
</g>
<!-- (*github.com/guild&#45;framework/guild&#45;core/pkg/corpus/scoring.RelevanceEngine).RegisterDomainModel&#45;&gt;(*github.com/guild&#45;framework/guild&#45;core/pkg/gerror.GuildError).WithOperation -->
<g id="edge15" class="edge">
<title>(*github.com/guild&#45;framework/guild&#45;core/pkg/corpus/scoring.RelevanceEngine).RegisterDomainModel&#45;&gt;(*github.com/guild&#45;framework/guild&#45;core/pkg/gerror.GuildError).WithOperation</title>
<g id="a_edge15"><a xlink:title="at relevance.go:75: calling [(*github.com/guild&#45;framework/guild&#45;core/pkg/gerror.GuildError).WithOperation]">
<path fill="none" stroke="saddlebrown" d="M681.54,-113.75C692.53,-117.17 703.27,-121.22 713.33,-126 751.51,-144.17 747.96,-169.25 786.33,-187 802.92,-194.67 821.21,-200.4 839.53,-204.67"/>
<polygon fill="saddlebrown" stroke="saddlebrown" points="838.61,-208.05 849.13,-206.76 840.1,-201.21 838.61,-208.05"/>
</a>
</g>
</g>
<!-- (*github.com/guild&#45;framework/guild&#45;core/pkg/corpus/scoring.RelevanceEngine).CalculateRelevance -->
<g id="node2" class="node">
<title>(*github.com/guild&#45;framework/guild&#45;core/pkg/corpus/scoring.RelevanceEngine).CalculateRelevance</title>
<g id="a_node2"><a xlink:title="(*github.com/guild&#45;framework/guild&#45;core/pkg/corpus/scoring.RelevanceEngine).CalculateRelevance | defined in relevance.go:83&#10;at relevance.go:120: calling [(*github.com/guild&#45;framework/guild&#45;core/pkg/corpus/scoring.RelevanceEngine).temporalRelevance]&#10;at relevance.go:84: calling [github.com/guild&#45;framework/guild&#45;core/pkg/observability.GetLogger]&#10;at relevance.go:90: calling [(*github.com/guild&#45;framework/guild&#45;core/pkg/gerror.GuildError).WithComponent]&#10;at relevance.go:102: calling [(*github.com/guild&#45;framework/guild&#45;core/pkg/corpus/scoring.RelevanceEngine).semanticSimilarity]&#10;at relevance.go:109: calling [github.com/guild&#45;framework/guild&#45;core/pkg/corpus/scoring.formatFloat]&#10;at relevance.go:116: calling [github.com/guild&#45;framework/guild&#45;core/pkg/corpus/scoring.formatFloat]&#10;at relevance.go:123: calling [github.com/guild&#45;framework/guild&#45;core/pkg/corpus/scoring.formatFloat]&#10;at relevance.go:132: calling [github.com/guild&#45;framework/guild&#45;core/pkg/corpus/scoring.formatFloat]&#10;at relevance.go:140: calling [github.com/guild&#45;framework/guild&#45;core/pkg/corpus/scoring.formatFloat]&#10;at relevance.go:113: calling [(*github.com/guild&#45;framework/guild&#45;core/pkg/corpus/scoring.RelevanceEngine).keywordRelevance]&#10;at relevance.go:89: calling [github.com/guild&#45;framework/guild&#45;core/pkg/gerror.Wrap]&#10;at relevance.go:91: calling [(*github.com/guild&#45;framework/guild&#45;core/pkg/gerror.GuildError).WithOperation]&#10;at relevance.go:137: calling [(*github.com/guild&#45;framework/guild&#45;core/pkg/corpus/scoring.RelevanceEngine).citationRelevance]">
<path fill="lightblue" stroke="black" stroke-width="1.5" d="M307.54,-357C307.54,-357 28,-357 28,-357 22,-357 16,-351 16,-345 16,-345 16,-333 16,-333 16,-327 22,-321 28,-321 28,-321 307.54,-321 307.54,-321 313.54,-321 319.54,-327 319.54,-333 319.54,-333 319.54,-345 319.54,-345 319.54,-351 313.54,-357 307.54,-357"/>
<text xml:space="preserve" text-anchor="middle" x="167.77" y="-334.32" font-family="Verdana" font-size="14.00">(*RelevanceEngine).CalculateRelevance</text>
</a>
</g>
</g>
<!-- (*github.com/guild&#45;framework/guild&#45;core/pkg/corpus/scoring.RelevanceEngine).semanticSimilarity -->
<g id="node3" class="node">
<title>(*github.com/guild&#45;framework/guild&#45;core/pkg/corpus/scoring.RelevanceEngine).semanticSimilarity</title>
<g id="a_node3"><a xlink:title="(*github.com/guild&#45;framework/guild&#45;core/pkg/corpus/scoring.RelevanceEngine).semanticSimilarity | defined in relevance.go:165&#10;at relevance.go:173: calling [github.com/guild&#45;framework/guild&#45;core/pkg/gerror.Wrap]&#10;at relevance.go:181: calling [github.com/guild&#45;framework/guild&#45;core/pkg/gerror.Wrap]&#10;at relevance.go:175: calling [(*github.com/guild&#45;framework/guild&#45;core/pkg/gerror.GuildError).WithOperation]&#10;at relevance.go:183: calling [(*github.com/guild&#45;framework/guild&#45;core/pkg/gerror.GuildError).WithOperation]&#10;at relevance.go:187: calling [github.com/guild&#45;framework/guild&#45;core/pkg/corpus/scoring.cosineSimilarity]&#10;at relevance.go:171: calling [(*github.com/guild&#45;framework/guild&#45;core/pkg/corpus/scoring.RelevanceEngine).getOrComputeEmbedding]&#10;at relevance.go:174: calling [(*github.com/guild&#45;framework/guild&#45;core/pkg/gerror.GuildError).WithComponent]&#10;at relevance.go:182: calling [(*github.com/guild&#45;framework/guild&#45;core/pkg/gerror.GuildError).WithComponent]">
<path fill="lightblue" stroke="black" stroke-width="0.5" d="M689.71,-52C689.71,-52 416.17,-52 416.17,-52 410.17,-52 404.17,-46 404.17,-40 404.17,-40 404.17,-28 404.17,-28 404.17,-22 410.17,-16 416.17,-16 416.17,-16 689.71,-16 689.71,-16 695.71,-16 701.71,-22 701.71,-28 701.71,-28 701.71,-40 701.71,-40 701.71,-46 695.71,-52 689.71,-52"/>
<text xml:space="preserve" text-anchor="middle" x="552.94" y="-29.32" font-family="Verdana" font-size="14.00">(*RelevanceEngine).semanticSimilarity</text>
</a>
</g>
</g>
<!-- (*github.com/guild&#45;framework/guild&#45;core/pkg/corpus/scoring.RelevanceEngine).CalculateRelevance&#45;&gt;(*github.com/guild&#45;framework/guild&#45;core/pkg/corpus/scoring.RelevanceEngine).semanticSimilarity -->
<g id="edge4" class="edge">
<title>(*github.com/guild&#45;framework/guild&#45;core/pkg/corpus/scoring.RelevanceEngine).CalculateRelevance&#45;&gt;(*github.com/guild&#45;framework/guild&#45;core/pkg/corpus/scoring.RelevanceEngine).semanticSimilarity</title>
<g id="a_edge4"><a xlink:title="at relevance.go:102: calling [(*github.com/guild&#45;framework/guild&#45;core/pkg/corpus/scoring.RelevanceEngine).semanticSimilarity]">
<path fill="none" stroke="black" d="M178.04,-320.27C204.08,-269.8 283.17,-130.42 392.54,-65 397.83,-61.83 403.38,-58.98 409.11,-56.42"/>
<polygon fill="black" stroke="black" points="410.28,-59.72 418.2,-52.67 407.62,-53.25 410.28,-59.72"/>
</a>
</g>
</g>
<!-- github.com/guild&#45;framework/guild&#45;core/pkg/corpus/scoring.formatFloat -->
<g id="node6" class="node">
<title>github.com/guild&#45;framework/guild&#45;core/pkg/corpus/scoring.formatFloat</title>
<g id="a_node6"><a xlink:title="github.com/guild&#45;framework/guild&#45;core/pkg/corpus/scoring.formatFloat | defined in relevance.go:315">
<path fill="lightblue" stroke="black" stroke-width="0.5" d="M592.58,-174C592.58,-174 513.29,-174 513.29,-174 507.29,-174 501.29,-168 501.29,-162 501.29,-162 501.29,-150 501.29,-150 501.29,-144 507.29,-138 513.29,-138 513.29,-138 592.58,-138 592.58,-138 598.58,-138 604.58,-144 604.58,-150 604.58,-150 604.58,-162 604.58,-162 604.58,-168 598.58,-174 592.58,-174"/>
<text xml:space="preserve" text-anchor="middle" x="552.94" y="-151.32" font-family="Verdana" font-size="14.00">formatFloat</text>
</a>
</g>
</g>
<!-- (*github.com/guild&#45;framework/guild&#45;core/pkg/corpus/scoring.RelevanceEngine).CalculateRelevance&#45;&gt;github.com/guild&#45;framework/guild&#45;core/pkg/corpus/scoring.formatFloat -->
<g id="edge5" class="edge">
<title>(*github.com/guild&#45;framework/guild&#45;core/pkg/corpus/scoring.RelevanceEngine).CalculateRelevance&#45;&gt;github.com/guild&#45;framework/guild&#45;core/pkg/corpus/scoring.formatFloat</title>
<g id="a_edge5"><a xlink:title="at relevance.go:109: calling [github.com/guild&#45;framework/guild&#45;core/pkg/corpus/scoring.formatFloat]&#10;at relevance.go:116: calling [github.com/guild&#45;framework/guild&#45;core/pkg/corpus/scoring.formatFloat]&#10;at relevance.go:123: calling [github.com/guild&#45;framework/guild&#45;core/pkg/corpus/scoring.formatFloat]&#10;at relevance.go:132: calling [github.com/guild&#45;framework/guild&#45;core/pkg/corpus/scoring.formatFloat]&#10;at relevance.go:140: calling [github.com/guild&#45;framework/guild&#45;core/pkg/corpus/scoring.formatFloat]">
<path fill="none" stroke="black" d="M189.59,-320.48C227.24,-288.05 310.38,-221.2 392.54,-187 423.35,-174.18 459.75,-166.58 489.98,-162.13"/>
<polygon fill="black" stroke="black" points="490.31,-165.61 499.74,-160.78 489.35,-158.68 490.31,-165.61"/>
</a>
</g>
</g>
<!-- (*github.com/guild&#45;framework/guild&#45;core/pkg/corpus/scoring.RelevanceEngine).keywordRelevance -->
<g id="node7" class="node">
<title>(*github.com/guild&#45;framework/guild&#45;core/pkg/corpus/scoring.RelevanceEngine).keywordRelevance</title>
<g id="a_node7"><a xlink:title="(*github.com/guild&#45;framework/guild&#45;core/pkg/corpus/scoring.RelevanceEngine).keywordRelevance | defined in relevance.go:203">
<path fill="lightblue" stroke="black" stroke-width="0.5" d="M690.46,-235C690.46,-235 415.42,-235 415.42,-235 409.42,-235 403.42,-229 403.42,-223 403.42,-223 403.42,-211 403.42,-211 403.42,-205 409.42,-199 415.42,-199 415.42,-199 690.46,-199 690.46,-199 696.46,-199 702.46,-205 702.46,-211 702.46,-211 702.46,-223 702.46,-223 702.46,-229 696.46,-235 690.46,-235"/>
<text xml:space="preserve" text-anchor="middle" x="552.94" y="-212.32" font-family="Verdana" font-size="14.00">(*RelevanceEngine).keywordRelevance</text>
</a>
</g>
</g>
<!-- (*github.com/guild&#45;framework/guild&#45;core/pkg/corpus/scoring.RelevanceEngine).CalculateRelevance&#45;&gt;(*github.com/guild&#45;framework/guild&#45;core/pkg/corpus/scoring.RelevanceEngine).keywordRelevance -->
<g id="edge6" class="edge">
<title>(*github.com/guild&#45;framework/guild&#45;core/pkg/corpus/scoring.RelevanceEngine).CalculateRelevance&#45;&gt;(*github.com/guild&#45;framework/guild&#45;core/pkg/corpus/scoring.RelevanceEngine).keywordRelevance</title>
<g id="a_edge6"><a xlink:title="at relevance.go:113: calling [(*github.com/guild&#45;framework/guild&#45;core/pkg/corpus/scoring.RelevanceEngine).keywordRelevance]">
<path fill="none" stroke="black" d="M207.95,-320.34C251.98,-300.03 326.01,-267.79 392.54,-248 405.33,-244.19 418.85,-240.74 432.37,-237.63"/>
<polygon fill="black" stroke="black" points="432.74,-241.13 441.74,-235.54 431.21,-234.3 432.74,-241.13"/>
</a>
</g>
</g>
<!-- (*github.com/guild&#45;framework/guild&#45;core/pkg/corpus/scoring.RelevanceEngine).temporalRelevance -->
<g id="node8" class="node">
<title>(*github.com/guild&#45;framework/guild&#45;core/pkg/corpus/scoring.RelevanceEngine).temporalRelevance</title>
<g id="a_node8"><a xlink:title="(*github.com/guild&#45;framework/guild&#45;core/pkg/corpus/scoring.RelevanceEngine).temporalRelevance | defined in relevance.go:238">
<path fill="lightblue" stroke="black" stroke-width="0.5" d="M691.96,-296C691.96,-296 413.92,-296 413.92,-296 407.92,-296 401.92,-290 401.92,-284 401.92,-284 401.92,-272 401.92,-272 401.92,-266 407.92,-260 413.92,-260 413.92,-260 691.96,-260 691.96,-260 697.96,-260 703.96,-266 703.96,-272 703.96,-272 703.96,-284 703.96,-284 703.96,-290 697.96,-296 691.96,-296"/>
<text xml:space="preserve" text-anchor="middle" x="552.94" y="-273.32" font-family="Verdana" font-size="14.00">(*RelevanceEngine).temporalRelevance</text>
</a>
</g>
</g>
<!-- (*github.com/guild&#45;framework/guild&#45;core/pkg/corpus/scoring.RelevanceEngine).CalculateRelevance&#45;&gt;(*github.com/guild&#45;framework/guild&#45;core/pkg/corpus/scoring.RelevanceEngine).temporalRelevance -->
<g id="edge1" class="edge">
<title>(*github.com/guild&#45;framework/guild&#45;core/pkg/corpus/scoring.RelevanceEngine).CalculateRelevance&#45;&gt;(*github.com/guild&#45;framework/guild&#45;core/pkg/corpus/scoring.RelevanceEngine).temporalRelevance</title>
<g id="a_edge1"><a xlink:title="at relevance.go:120: calling [(*github.com/guild&#45;framework/guild&#45;core/pkg/corpus/scoring.RelevanceEngine).temporalRelevance]">
<path fill="none" stroke="black" d="M286.34,-320.28C330.65,-313.23 381.2,-305.18 426.23,-298.01"/>
<polygon fill="black" stroke="black" points="426.73,-301.48 436.06,-296.45 425.63,-294.56 426.73,-301.48"/>
</a>
</g>
</g>
<!-- (*github.com/guild&#45;framework/guild&#45;core/pkg/corpus/scoring.RelevanceEngine).citationRelevance -->
<g id="node9" class="node">
<title>(*github.com/guild&#45;framework/guild&#45;core/pkg/corpus/scoring.RelevanceEngine).citationRelevance</title>
<g id="a_node9"><a xlink:title="(*github.com/guild&#45;framework/guild&#45;core/pkg/corpus/scoring.RelevanceEngine).citationRelevance | defined in relevance.go:269">
<path fill="lightblue" stroke="black" stroke-width="0.5" d="M686.33,-357C686.33,-357 419.54,-357 419.54,-357 413.54,-357 407.54,-351 407.54,-345 407.54,-345 407.54,-333 407.54,-333 407.54,-327 413.54,-321 419.54,-321 419.54,-321 686.33,-321 686.33,-321 692.33,-321 698.33,-327 698.33,-333 698.33,-333 698.33,-345 698.33,-345 698.33,-351 692.33,-357 686.33,-357"/>
<text xml:space="preserve" text-anchor="middle" x="552.94" y="-334.32" font-family="Verdana" font-size="14.00">(*RelevanceEngine).citationRelevance</text>
</a>
</g>
</g>
<!-- (*github.com/guild&#45;framework/guild&#45;core/pkg/corpus/scoring.RelevanceEngine).CalculateRelevance&#45;&gt;(*github.com/guild&#45;framework/guild&#45;core/pkg/corpus/scoring.RelevanceEngine).citationRelevance -->
<g id="edge13" class="edge">
<title>(*github.com/guild&#45;framework/guild&#45;core/pkg/corpus/scoring.RelevanceEngine).CalculateRelevance&#45;&gt;(*github.com/guild&#45;framework/guild&#45;core/pkg/corpus/scoring.RelevanceEngine).citationRelevance</title>
<g id="a_edge13"><a xlink:title="at relevance.go:137: calling [(*github.com/guild&#45;framework/guild&#45;core/pkg/corpus/scoring.RelevanceEngine).citationRelevance]">
<path fill="none" stroke="black" d="M320.21,-339C345.15,-339 371.04,-339 396.09,-339"/>
<polygon fill="black" stroke="black" points="396.02,-342.5 406.02,-339 396.02,-335.5 396.02,-342.5"/>
</a>
</g>
</g>
<!-- (*github.com/guild&#45;framework/guild&#45;core/pkg/corpus/scoring.RelevanceEngine).CalculateRelevance&#45;&gt;(*github.com/guild&#45;framework/guild&#45;core/pkg/gerror.GuildError).WithComponent -->
<g id="edge3" class="edge">
<title>(*github.com/guild&#45;framework/guild&#45;core/pkg/corpus/scoring.RelevanceEngine).CalculateRelevance&#45;&gt;(*github.com/guild&#45;framework/guild&#45;core/pkg/gerror.GuildError).WithComponent</title>
<g id="a_edge3"><a xlink:title="at relevance.go:90: calling [(*github.com/guild&#45;framework/guild&#45;core/pkg/gerror.GuildError).WithComponent]">
<path fill="none" stroke="saddlebrown" d="M281.72,-357.73C317.09,-362.77 356.35,-367.5 392.54,-370 463.66,-374.9 654.32,-409.99 713.33,-370 785.82,-320.87 718.44,-242.3 786.33,-187 800.25,-175.66 816.89,-167.88 834.29,-162.63"/>
<polygon fill="saddlebrown" stroke="saddlebrown" points="835,-166.06 843.74,-160.07 833.17,-159.3 835,-166.06"/>
</a>
</g>
</g>
<!-- (*github.com/guild&#45;framework/guild&#45;core/pkg/corpus/scoring.RelevanceEngine).CalculateRelevance&#45;&gt;(*github.com/guild&#45;framework/guild&#45;core/pkg/gerror.GuildError).WithOperation -->
<g id="edge9" class="edge">
<title>(*github.com/guild&#45;framework/guild&#45;core/pkg/corpus/scoring.RelevanceEngine).CalculateRelevance&#45;&gt;(*github.com/guild&#45;framework/guild&#45;core/pkg/gerror.GuildError).WithOperation</title>
<g id="a_edge9"><a xlink:title="at relevance.go:91: calling [(*github.com/guild&#45;framework/guild&#45;core/pkg/gerror.GuildError).WithOperation]">
<path fill="none" stroke="saddlebrown" d="M222.33,-357.72C259.25,-369.6 309.73,-383.86 355.54,-390 442.49,-401.66 681.09,-443.88 750.33,-390 801.71,-350.02 738.66,-292.34 786.33,-248 801.15,-234.22 819.87,-225.47 839.52,-220.08"/>
<polygon fill="saddlebrown" stroke="saddlebrown" points="840.14,-223.54 849.04,-217.78 838.49,-216.73 840.14,-223.54"/>
</a>
</g>
</g>
<!-- github.com/guild&#45;framework/guild&#45;core/pkg/gerror.Wrap -->
<g id="node13" class="node">
<title>github.com/guild&#45;framework/guild&#45;core/pkg/gerror.Wrap</title>
<g id="a_node13"><a xlink:title="github.com/guild&#45;framework/guild&#45;core/pkg/gerror.Wrap | defined in errors.go:223">
<path fill="moccasin" stroke="black" stroke-width="1.5" d="M979.62,-357C979.62,-357 943.83,-357 943.83,-357 937.83,-357 931.83,-351 931.83,-345 931.83,-345 931.83,-333 931.83,-333 931.83,-327 937.83,-321 943.83,-321 943.83,-321 979.62,-321 979.62,-321 985.62,-321 991.62,-327 991.62,-333 991.62,-333 991.62,-345 991.62,-345 991.62,-351 985.62,-357 979.62,-357"/>
<text xml:space="preserve" text-anchor="middle" x="961.73" y="-334.32" font-family="Verdana" font-size="14.00">Wrap</text>
</a>
</g>
</g>
<!-- (*github.com/guild&#45;framework/guild&#45;core/pkg/corpus/scoring.RelevanceEngine).CalculateRelevance&#45;&gt;github.com/guild&#45;framework/guild&#45;core/pkg/gerror.Wrap -->
<g id="edge8" class="edge">
<title>(*github.com/guild&#45;framework/guild&#45;core/pkg/corpus/scoring.RelevanceEngine).CalculateRelevance&#45;&gt;github.com/guild&#45;framework/guild&#45;core/pkg/gerror.Wrap</title>
<g id="a_edge8"><a xlink:title="at relevance.go:89: calling [github.com/guild&#45;framework/guild&#45;core/pkg/gerror.Wrap]">
<path fill="none" stroke="saddlebrown" d="M201.9,-357.59C238.28,-376.85 299.04,-405.68 355.54,-417 527.58,-451.48 577.62,-447.98 750.33,-417 812.24,-405.89 879.74,-377.77 921.16,-358.52"/>
<polygon fill="saddlebrown" stroke="saddlebrown" points="922.44,-361.78 929.99,-354.35 919.45,-355.45 922.44,-361.78"/>
</a>
</g>
</g>
<!-- github.com/guild&#45;framework/guild&#45;core/pkg/observability.GetLogger -->
<g id="node14" class="node">
<title>github.com/guild&#45;framework/guild&#45;core/pkg/observability.GetLogger</title>
<g id="a_node14"><a xlink:title="github.com/guild&#45;framework/guild&#45;core/pkg/observability.GetLogger | defined in logger.go:206">
<path fill="moccasin" stroke="black" stroke-width="1.5" d="M588.46,-499C588.46,-499 517.42,-499 517.42,-499 511.42,-499 505.42,-493 505.42,-487 505.42,-487 505.42,-475 505.42,-475 505.42,-469 511.42,-463 517.42,-463 517.42,-463 588.46,-463 588.46,-463 594.46,-463 600.46,-469 600.46,-475 600.46,-475 600.46,-487 600.46,-487 600.46,-493 594.46,-499 588.46,-499"/>
<text xml:space="preserve" text-anchor="middle" x="552.94" y="-476.32" font-family="Verdana" font-size="14.00">GetLogger</text>
</a>
</g>
</g>
<!-- (*github.com/guild&#45;framework/guild&#45;core/pkg/corpus/scoring.RelevanceEngine).CalculateRelevance&#45;&gt;github.com/guild&#45;framework/guild&#45;core/pkg/observability.GetLogger -->
<g id="edge2" class="edge">
<title>(*github.com/guild&#45;framework/guild&#45;core/pkg/corpus/scoring.RelevanceEngine).CalculateRelevance&#45;&gt;github.com/guild&#45;framework/guild&#45;core/pkg/observability.GetLogger</title>
<g id="a_edge2"><a xlink:title="at relevance.go:84: calling [github.com/guild&#45;framework/guild&#45;core/pkg/observability.GetLogger]">
<path fill="none" stroke="saddlebrown" d="M193.97,-357.63C233.75,-385.8 314.6,-438.17 392.54,-459 425.44,-467.79 463.16,-473.2 493.64,-476.45"/>
<polygon fill="saddlebrown" stroke="saddlebrown" points="493.14,-479.92 503.44,-477.45 493.84,-472.96 493.14,-479.92"/>
</a>
</g>
</g>
<!-- (*github.com/guild&#45;framework/guild&#45;core/pkg/corpus/scoring.RelevanceEngine).getOrComputeEmbedding -->
<g id="node4" class="node">
<title>(*github.com/guild&#45;framework/guild&#45;core/pkg/corpus/scoring.RelevanceEngine).getOrComputeEmbedding</title>
<g id="a_node4"><a xlink:title="(*github.com/guild&#45;framework/guild&#45;core/pkg/corpus/scoring.RelevanceEngine).getOrComputeEmbedding | defined in relevance.go:192">
<path fill="lightblue" stroke="black" stroke-width="0.5" d="M1125.12,-113C1125.12,-113 798.33,-113 798.33,-113 792.33,-113 786.33,-107 786.33,-101 786.33,-101 786.33,-89 786.33,-89 786.33,-83 792.33,-77 798.33,-77 798.33,-77 1125.12,-77 1125.12,-77 1131.12,-77 1137.12,-83 1137.12,-89 1137.12,-89 1137.12,-101 1137.12,-101 1137.12,-107 1131.12,-113 1125.12,-113"/>
<text xml:space="preserve" text-anchor="middle" x="961.73" y="-90.33" font-family="Verdana" font-size="14.00">(*RelevanceEngine).getOrComputeEmbedding</text>
</a>
</g>
</g>
<!-- (*github.com/guild&#45;framework/guild&#45;core/pkg/corpus/scoring.RelevanceEngine).semanticSimilarity&#45;&gt;(*github.com/guild&#45;framework/guild&#45;core/pkg/corpus/scoring.RelevanceEngine).getOrComputeEmbedding -->
<g id="edge16" class="edge">
<title>(*github.com/guild&#45;framework/guild&#45;core/pkg/corpus/scoring.RelevanceEngine).semanticSimilarity&#45;&gt;(*github.com/guild&#45;framework/guild&#45;core/pkg/corpus/scoring.RelevanceEngine).getOrComputeEmbedding</title>
<g id="a_edge16"><a xlink:title="at relevance.go:171: calling [(*github.com/guild&#45;framework/guild&#45;core/pkg/corpus/scoring.RelevanceEngine).getOrComputeEmbedding]">
<path fill="none" stroke="black" d="M675.43,-52.22C723.43,-59.42 778.74,-67.71 827.8,-75.07"/>
<polygon fill="black" stroke="black" points="827.24,-78.52 837.65,-76.54 828.28,-71.6 827.24,-78.52"/>
</a>
</g>
</g>
<!-- github.com/guild&#45;framework/guild&#45;core/pkg/corpus/scoring.cosineSimilarity -->
<g id="node5" class="node">
<title>github.com/guild&#45;framework/guild&#45;core/pkg/corpus/scoring.cosineSimilarity</title>
<g id="a_node5"><a xlink:title="github.com/guild&#45;framework/guild&#45;core/pkg/corpus/scoring.cosineSimilarity | defined in relevance.go:294">
<path fill="lightblue" stroke="black" stroke-width="0.5" d="M1016.37,-52C1016.37,-52 907.08,-52 907.08,-52 901.08,-52 895.08,-46 895.08,-40 895.08,-40 895.08,-28 895.08,-28 895.08,-22 901.08,-16 907.08,-16 907.08,-16 1016.37,-16 1016.37,-16 1022.37,-16 1028.37,-22 1028.37,-28 1028.37,-28 1028.37,-40 1028.37,-40 1028.37,-46 1022.37,-52 1016.37,-52"/>
<text xml:space="preserve" text-anchor="middle" x="961.73" y="-29.32" font-family="Verdana" font-size="14.00">cosineSimilarity</text>
</a>
</g>
</g>
<!-- (*github.com/guild&#45;framework/guild&#45;core/pkg/corpus/scoring.RelevanceEngine).semanticSimilarity&#45;&gt;github.com/guild&#45;framework/guild&#45;core/pkg/corpus/scoring.cosineSimilarity -->
<g id="edge12" class="edge">
<title>(*github.com/guild&#45;framework/guild&#45;core/pkg/corpus/scoring.RelevanceEngine).semanticSimilarity&#45;&gt;github.com/guild&#45;framework/guild&#45;core/pkg/corpus/scoring.cosineSimilarity</title>
<g id="a_edge12"><a xlink:title="at relevance.go:187: calling [github.com/guild&#45;framework/guild&#45;core/pkg/corpus/scoring.cosineSimilarity]">
<path fill="none" stroke="black" d="M701.95,-34C763.51,-34 832.4,-34 883.62,-34"/>
<polygon fill="black" stroke="black" points="883.41,-37.5 893.41,-34 883.41,-30.5 883.41,-37.5"/>
</a>
</g>
</g>
<!-- (*github.com/guild&#45;framework/guild&#45;core/pkg/corpus/scoring.RelevanceEngine).semanticSimilarity&#45;&gt;(*github.com/guild&#45;framework/guild&#45;core/pkg/gerror.GuildError).WithComponent -->
<g id="edge17" class="edge">
<title>(*github.com/guild&#45;framework/guild&#45;core/pkg/corpus/scoring.RelevanceEngine).semanticSimilarity&#45;&gt;(*github.com/guild&#45;framework/guild&#45;core/pkg/gerror.GuildError).WithComponent</title>
<g id="a_edge17"><a xlink:title="at relevance.go:174: calling [(*github.com/guild&#45;framework/guild&#45;core/pkg/gerror.GuildError).WithComponent]&#10;at relevance.go:182: calling [(*github.com/guild&#45;framework/guild&#45;core/pkg/gerror.GuildError).WithComponent]">
<path fill="none" stroke="saddlebrown" d="M682.28,-52.23C693.05,-55.76 703.55,-59.98 713.33,-65 733.18,-75.2 766.15,-124.46 786.33,-134 801.27,-141.06 817.69,-146.11 834.3,-149.7"/>
<polygon fill="saddlebrown" stroke="saddlebrown" points="833.25,-153.06 843.74,-151.56 834.6,-146.19 833.25,-153.06"/>
</a>
</g>
</g>
<!-- (*github.com/guild&#45;framework/guild&#45;core/pkg/corpus/scoring.RelevanceEngine).semanticSimilarity&#45;&gt;(*github.com/guild&#45;framework/guild&#45;core/pkg/gerror.GuildError).WithOperation -->
<g id="edge11" class="edge">
<title>(*github.com/guild&#45;framework/guild&#45;core/pkg/corpus/scoring.RelevanceEngine).semanticSimilarity&#45;&gt;(*github.com/guild&#45;framework/guild&#45;core/pkg/gerror.GuildError).WithOperation</title>
<g id="a_edge11"><a xlink:title="at relevance.go:175: calling [(*github.com/guild&#45;framework/guild&#45;core/pkg/gerror.GuildError).WithOperation]&#10;at relevance.go:183: calling [(*github.com/guild&#45;framework/guild&#45;core/pkg/gerror.GuildError).WithOperation]">
<path fill="none" stroke="saddlebrown" d="M690.31,-52.11C698.42,-55.72 706.18,-59.98 713.33,-65 739.19,-83.15 760.27,-169.14 786.33,-187 802.11,-197.82 820.53,-205.15 839.38,-210.05"/>
<polygon fill="saddlebrown" stroke="saddlebrown" points="838.5,-213.44 849.04,-212.31 840.1,-206.62 838.5,-213.44"/>
</a>
</g>
</g>
<!-- (*github.com/guild&#45;framework/guild&#45;core/pkg/corpus/scoring.RelevanceEngine).semanticSimilarity&#45;&gt;github.com/guild&#45;framework/guild&#45;core/pkg/gerror.Wrap -->
<g id="edge10" class="edge">
<title>(*github.com/guild&#45;framework/guild&#45;core/pkg/corpus/scoring.RelevanceEngine).semanticSimilarity&#45;&gt;github.com/guild&#45;framework/guild&#45;core/pkg/gerror.Wrap</title>
<g id="a_edge10"><a xlink:title="at relevance.go:173: calling [github.com/guild&#45;framework/guild&#45;core/pkg/gerror.Wrap]&#10;at relevance.go:181: calling [github.com/guild&#45;framework/guild&#45;core/pkg/gerror.Wrap]">
<path fill="none" stroke="saddlebrown" d="M695.58,-52.19C701.93,-55.84 707.9,-60.08 713.33,-65 797.22,-141 701.62,-233.92 786.33,-309 822.69,-341.23 880.68,-345.09 919.7,-343.33"/>
<polygon fill="saddlebrown" stroke="saddlebrown" points="919.87,-346.82 929.64,-342.72 919.45,-339.84 919.87,-346.82"/>
</a>
</g>
</g>
</g>
</svg>
