<?xml version="1.0" encoding="UTF-8" standalone="no"?>
<!DOCTYPE svg PUBLIC "-//W3C//DTD SVG 1.1//EN"
 "http://www.w3.org/Graphics/SVG/1.1/DTD/svg11.dtd">
<!-- Generated by graphviz version 14.1.1 (20251213.1925)
 -->
<!-- Title: gocallvis Pages: 1 -->
<svg width="1176pt" height="456pt"
 viewBox="0.00 0.00 1176.00 456.00" xmlns="http://www.w3.org/2000/svg" xmlns:xlink="http://www.w3.org/1999/xlink">
<g id="graph0" class="graph" transform="scale(1 1) rotate(0) translate(0 456)">
<title>gocallvis</title>
<polygon fill="lightgray" stroke="none" points="0,0 0,-456 1175.62,-456 1175.62,0 0,0"/>
<g id="clust1" class="cluster">
<title>cluster_focus</title>
<polygon fill="#e6ecfa" stroke="black" stroke-width="0.5" points="8,-8 8,-448 1167.62,-448 1167.62,-8 8,-8"/>
<text xml:space="preserve" text-anchor="middle" x="587.81" y="-426.9" font-family="Arial" font-size="18.00">promptchain</text>
</g>
<g id="clust2" class="cluster">
<title>cluster_github.com/guild&#45;framework/guild&#45;core/pkg/gerror</title>
<g id="a_clust2"><a xlink:href="/?f=github.com/guild-framework/guild-core/pkg/gerror" xlink:title="package: github.com/guild&#45;framework/guild&#45;core/pkg/gerror">
<polygon fill="lightyellow" stroke="black" stroke-width="0.8" points="920.08,-156 920.08,-297 995.87,-297 995.87,-156 920.08,-156"/>
<text xml:space="preserve" text-anchor="middle" x="957.98" y="-277.8" font-family="Tahoma bold" font-size="16.00">gerror</text>
</a>
</g>
</g>
<!-- (*github.com/guild&#45;framework/guild&#45;core/pkg/storage/promptchain.sqliteChainManager).GetChain -->
<g id="node1" class="node">
<title>(*github.com/guild&#45;framework/guild&#45;core/pkg/storage/promptchain.sqliteChainManager).GetChain</title>
<g id="a_node1"><a xlink:title="(*github.com/guild&#45;framework/guild&#45;core/pkg/storage/promptchain.sqliteChainManager).GetChain | defined in sqlite_chain_manager.go:60&#10;at sqlite_chain_manager.go:62: calling [github.com/guild&#45;framework/guild&#45;core/pkg/gerror.New]&#10;at sqlite_chain_manager.go:67: calling [github.com/guild&#45;framework/guild&#45;core/pkg/gerror.Wrap]&#10;at sqlite_chain_manager.go:70: calling [(*github.com/guild&#45;framework/guild&#45;core/pkg/storage/promptchain.sqliteChainManager).convertStorageChainToDomain]">
<path fill="lightblue" stroke="black" stroke-width="1.5" d="M637.96,-52C637.96,-52 410.92,-52 410.92,-52 404.92,-52 398.92,-46 398.92,-40 398.92,-40 398.92,-28 398.92,-28 398.92,-22 404.92,-16 410.92,-16 410.92,-16 637.96,-16 637.96,-16 643.96,-16 649.96,-22 649.96,-28 649.96,-28 649.96,-40 649.96,-40 649.96,-46 643.96,-52 637.96,-52"/>
<text xml:space="preserve" text-anchor="middle" x="524.44" y="-29.32" font-family="Verdana" font-size="14.00">(*sqliteChainManager).GetChain</text>
</a>
</g>
</g>
<!-- (*github.com/guild&#45;framework/guild&#45;core/pkg/storage/promptchain.sqliteChainManager).convertStorageChainToDomain -->
<g id="node2" class="node">
<title>(*github.com/guild&#45;framework/guild&#45;core/pkg/storage/promptchain.sqliteChainManager).convertStorageChainToDomain</title>
<g id="a_node2"><a xlink:title="(*github.com/guild&#45;framework/guild&#45;core/pkg/storage/promptchain.sqliteChainManager).convertStorageChainToDomain | defined in sqlite_chain_manager.go:276">
<path fill="lightblue" stroke="black" stroke-width="0.5" d="M1147.62,-52C1147.62,-52 768.33,-52 768.33,-52 762.33,-52 756.33,-46 756.33,-40 756.33,-40 756.33,-28 756.33,-28 756.33,-22 762.33,-16 768.33,-16 768.33,-16 1147.62,-16 1147.62,-16 1153.62,-16 1159.62,-22 1159.62,-28 1159.62,-28 1159.62,-40 1159.62,-40 1159.62,-46 1153.62,-52 1147.62,-52"/>
<text xml:space="preserve" text-anchor="middle" x="957.98" y="-29.32" font-family="Verdana" font-size="14.00">(*sqliteChainManager).convertStorageChainToDomain</text>
</a>
</g>
</g>
<!-- (*github.com/guild&#45;framework/guild&#45;core/pkg/storage/promptchain.sqliteChainManager).GetChain&#45;&gt;(*github.com/guild&#45;framework/guild&#45;core/pkg/storage/promptchain.sqliteChainManager).convertStorageChainToDomain -->
<g id="edge15" class="edge">
<title>(*github.com/guild&#45;framework/guild&#45;core/pkg/storage/promptchain.sqliteChainManager).GetChain&#45;&gt;(*github.com/guild&#45;framework/guild&#45;core/pkg/storage/promptchain.sqliteChainManager).convertStorageChainToDomain</title>
<g id="a_edge15"><a xlink:title="at sqlite_chain_manager.go:70: calling [(*github.com/guild&#45;framework/guild&#45;core/pkg/storage/promptchain.sqliteChainManager).convertStorageChainToDomain]">
<path fill="none" stroke="black" d="M650.54,-34C680.16,-34 712.55,-34 744.84,-34"/>
<polygon fill="black" stroke="black" points="744.74,-37.5 754.74,-34 744.74,-30.5 744.74,-37.5"/>
</a>
</g>
</g>
<!-- github.com/guild&#45;framework/guild&#45;core/pkg/gerror.New -->
<g id="node9" class="node">
<title>github.com/guild&#45;framework/guild&#45;core/pkg/gerror.New</title>
<g id="a_node9"><a xlink:title="github.com/guild&#45;framework/guild&#45;core/pkg/gerror.New | defined in errors.go:190">
<path fill="moccasin" stroke="black" stroke-width="1.5" d="M972.98,-261C972.98,-261 942.98,-261 942.98,-261 936.98,-261 930.98,-255 930.98,-249 930.98,-249 930.98,-237 930.98,-237 930.98,-231 936.98,-225 942.98,-225 942.98,-225 972.98,-225 972.98,-225 978.98,-225 984.98,-231 984.98,-237 984.98,-237 984.98,-249 984.98,-249 984.98,-255 978.98,-261 972.98,-261"/>
<text xml:space="preserve" text-anchor="middle" x="957.98" y="-238.32" font-family="Verdana" font-size="14.00">New</text>
</a>
</g>
</g>
<!-- (*github.com/guild&#45;framework/guild&#45;core/pkg/storage/promptchain.sqliteChainManager).GetChain&#45;&gt;github.com/guild&#45;framework/guild&#45;core/pkg/gerror.New -->
<g id="edge13" class="edge">
<title>(*github.com/guild&#45;framework/guild&#45;core/pkg/storage/promptchain.sqliteChainManager).GetChain&#45;&gt;github.com/guild&#45;framework/guild&#45;core/pkg/gerror.New</title>
<g id="a_edge13"><a xlink:title="at sqlite_chain_manager.go:62: calling [github.com/guild&#45;framework/guild&#45;core/pkg/gerror.New]">
<path fill="none" stroke="saddlebrown" d="M608.03,-52.74C634.1,-61.54 661.71,-74.15 683.33,-92 731.77,-131.98 704.08,-178.15 756.33,-213 805.35,-245.69 875.97,-248.47 919.04,-246.47"/>
<polygon fill="saddlebrown" stroke="saddlebrown" points="919.13,-249.97 928.9,-245.89 918.72,-242.98 919.13,-249.97"/>
</a>
</g>
</g>
<!-- github.com/guild&#45;framework/guild&#45;core/pkg/gerror.Wrap -->
<g id="node10" class="node">
<title>github.com/guild&#45;framework/guild&#45;core/pkg/gerror.Wrap</title>
<g id="a_node10"><a xlink:title="github.com/guild&#45;framework/guild&#45;core/pkg/gerror.Wrap | defined in errors.go:223">
<path fill="moccasin" stroke="black" stroke-width="1.5" d="M975.87,-200C975.87,-200 940.08,-200 940.08,-200 934.08,-200 928.08,-194 928.08,-188 928.08,-188 928.08,-176 928.08,-176 928.08,-170 934.08,-164 940.08,-164 940.08,-164 975.87,-164 975.87,-164 981.87,-164 987.87,-170 987.87,-176 987.87,-176 987.87,-188 987.87,-188 987.87,-194 981.87,-200 975.87,-200"/>
<text xml:space="preserve" text-anchor="middle" x="957.98" y="-177.32" font-family="Verdana" font-size="14.00">Wrap</text>
</a>
</g>
</g>
<!-- (*github.com/guild&#45;framework/guild&#45;core/pkg/storage/promptchain.sqliteChainManager).GetChain&#45;&gt;github.com/guild&#45;framework/guild&#45;core/pkg/gerror.Wrap -->
<g id="edge14" class="edge">
<title>(*github.com/guild&#45;framework/guild&#45;core/pkg/storage/promptchain.sqliteChainManager).GetChain&#45;&gt;github.com/guild&#45;framework/guild&#45;core/pkg/gerror.Wrap</title>
<g id="a_edge14"><a xlink:title="at sqlite_chain_manager.go:67: calling [github.com/guild&#45;framework/guild&#45;core/pkg/gerror.Wrap]">
<path fill="none" stroke="saddlebrown" d="M650.51,-38.88C675.7,-44.79 700.49,-54.73 720.33,-71 753.32,-98.06 722.31,-134.25 756.33,-160 802.28,-194.77 871.97,-193.95 915.96,-188.92"/>
<polygon fill="saddlebrown" stroke="saddlebrown" points="916.4,-192.39 925.87,-187.64 915.5,-185.45 916.4,-192.39"/>
</a>
</g>
</g>
<!-- (*github.com/guild&#45;framework/guild&#45;core/pkg/storage/promptchain.sqliteChainManager).CreateChain -->
<g id="node3" class="node">
<title>(*github.com/guild&#45;framework/guild&#45;core/pkg/storage/promptchain.sqliteChainManager).CreateChain</title>
<g id="a_node3"><a xlink:title="(*github.com/guild&#45;framework/guild&#45;core/pkg/storage/promptchain.sqliteChainManager).CreateChain | defined in sqlite_chain_manager.go:30&#10;at sqlite_chain_manager.go:32: calling [github.com/guild&#45;framework/guild&#45;core/pkg/gerror.New]&#10;at sqlite_chain_manager.go:53: calling [github.com/guild&#45;framework/guild&#45;core/pkg/gerror.Wrap]">
<path fill="lightblue" stroke="black" stroke-width="1.5" d="M648.83,-323C648.83,-323 400.04,-323 400.04,-323 394.04,-323 388.04,-317 388.04,-311 388.04,-311 388.04,-299 388.04,-299 388.04,-293 394.04,-287 400.04,-287 400.04,-287 648.83,-287 648.83,-287 654.83,-287 660.83,-293 660.83,-299 660.83,-299 660.83,-311 660.83,-311 660.83,-317 654.83,-323 648.83,-323"/>
<text xml:space="preserve" text-anchor="middle" x="524.44" y="-300.32" font-family="Verdana" font-size="14.00">(*sqliteChainManager).CreateChain</text>
</a>
</g>
</g>
<!-- (*github.com/guild&#45;framework/guild&#45;core/pkg/storage/promptchain.sqliteChainManager).CreateChain&#45;&gt;github.com/guild&#45;framework/guild&#45;core/pkg/gerror.New -->
<g id="edge16" class="edge">
<title>(*github.com/guild&#45;framework/guild&#45;core/pkg/storage/promptchain.sqliteChainManager).CreateChain&#45;&gt;github.com/guild&#45;framework/guild&#45;core/pkg/gerror.New</title>
<g id="a_edge16"><a xlink:title="at sqlite_chain_manager.go:32: calling [github.com/guild&#45;framework/guild&#45;core/pkg/gerror.New]">
<path fill="none" stroke="saddlebrown" d="M661.56,-288.88C681.29,-286.36 701.34,-283.69 720.33,-281 790.78,-271.01 872.71,-257.41 919.34,-249.48"/>
<polygon fill="saddlebrown" stroke="saddlebrown" points="919.65,-252.98 928.91,-247.85 918.47,-246.08 919.65,-252.98"/>
</a>
</g>
</g>
<!-- (*github.com/guild&#45;framework/guild&#45;core/pkg/storage/promptchain.sqliteChainManager).CreateChain&#45;&gt;github.com/guild&#45;framework/guild&#45;core/pkg/gerror.Wrap -->
<g id="edge17" class="edge">
<title>(*github.com/guild&#45;framework/guild&#45;core/pkg/storage/promptchain.sqliteChainManager).CreateChain&#45;&gt;github.com/guild&#45;framework/guild&#45;core/pkg/gerror.Wrap</title>
<g id="a_edge17"><a xlink:title="at sqlite_chain_manager.go:53: calling [github.com/guild&#45;framework/guild&#45;core/pkg/gerror.Wrap]">
<path fill="none" stroke="saddlebrown" d="M654.35,-286.34C664.36,-283.14 674.14,-279.39 683.33,-275 721.73,-256.64 717.61,-230.69 756.33,-213 808.09,-189.35 874.36,-183.2 916.26,-181.88"/>
<polygon fill="saddlebrown" stroke="saddlebrown" points="916.22,-185.38 926.14,-181.66 916.07,-178.39 916.22,-185.38"/>
</a>
</g>
</g>
<!-- (*github.com/guild&#45;framework/guild&#45;core/pkg/storage/promptchain.sqliteChainManager).GetChainsByTask -->
<g id="node4" class="node">
<title>(*github.com/guild&#45;framework/guild&#45;core/pkg/storage/promptchain.sqliteChainManager).GetChainsByTask</title>
<g id="a_node4"><a xlink:title="(*github.com/guild&#45;framework/guild&#45;core/pkg/storage/promptchain.sqliteChainManager).GetChainsByTask | defined in sqlite_chain_manager.go:148&#10;at sqlite_chain_manager.go:150: calling [github.com/guild&#45;framework/guild&#45;core/pkg/gerror.New]&#10;at sqlite_chain_manager.go:155: calling [github.com/guild&#45;framework/guild&#45;core/pkg/gerror.Wrap]">
<path fill="lightblue" stroke="black" stroke-width="1.5" d="M666.08,-384C666.08,-384 382.79,-384 382.79,-384 376.79,-384 370.79,-378 370.79,-372 370.79,-372 370.79,-360 370.79,-360 370.79,-354 376.79,-348 382.79,-348 382.79,-348 666.08,-348 666.08,-348 672.08,-348 678.08,-354 678.08,-360 678.08,-360 678.08,-372 678.08,-372 678.08,-378 672.08,-384 666.08,-384"/>
<text xml:space="preserve" text-anchor="middle" x="524.44" y="-361.32" font-family="Verdana" font-size="14.00">(*sqliteChainManager).GetChainsByTask</text>
</a>
</g>
</g>
<!-- (*github.com/guild&#45;framework/guild&#45;core/pkg/storage/promptchain.sqliteChainManager).GetChainsByTask&#45;&gt;github.com/guild&#45;framework/guild&#45;core/pkg/gerror.New -->
<g id="edge3" class="edge">
<title>(*github.com/guild&#45;framework/guild&#45;core/pkg/storage/promptchain.sqliteChainManager).GetChainsByTask&#45;&gt;github.com/guild&#45;framework/guild&#45;core/pkg/gerror.New</title>
<g id="a_edge3"><a xlink:title="at sqlite_chain_manager.go:150: calling [github.com/guild&#45;framework/guild&#45;core/pkg/gerror.New]">
<path fill="none" stroke="saddlebrown" d="M678.7,-362.97C692.89,-361.01 706.95,-358.41 720.33,-355 795.48,-335.87 875.56,-292.5 920.63,-265.69"/>
<polygon fill="saddlebrown" stroke="saddlebrown" points="922.17,-268.85 928.94,-260.69 918.56,-262.85 922.17,-268.85"/>
</a>
</g>
</g>
<!-- (*github.com/guild&#45;framework/guild&#45;core/pkg/storage/promptchain.sqliteChainManager).GetChainsByTask&#45;&gt;github.com/guild&#45;framework/guild&#45;core/pkg/gerror.Wrap -->
<g id="edge6" class="edge">
<title>(*github.com/guild&#45;framework/guild&#45;core/pkg/storage/promptchain.sqliteChainManager).GetChainsByTask&#45;&gt;github.com/guild&#45;framework/guild&#45;core/pkg/gerror.Wrap</title>
<g id="a_edge6"><a xlink:title="at sqlite_chain_manager.go:155: calling [github.com/guild&#45;framework/guild&#45;core/pkg/gerror.Wrap]">
<path fill="none" stroke="saddlebrown" d="M663.62,-347.31C670.54,-344.07 677.16,-340.32 683.33,-336 735.38,-299.51 703.66,-248.59 756.33,-213 804.22,-180.64 873.07,-177.02 916.39,-178.59"/>
<polygon fill="saddlebrown" stroke="saddlebrown" points="915.96,-182.08 926.11,-179.07 916.3,-175.08 915.96,-182.08"/>
</a>
</g>
</g>
<!-- (*github.com/guild&#45;framework/guild&#45;core/pkg/storage/promptchain.sqliteChainManager).AddMessage -->
<g id="node5" class="node">
<title>(*github.com/guild&#45;framework/guild&#45;core/pkg/storage/promptchain.sqliteChainManager).AddMessage</title>
<g id="a_node5"><a xlink:title="(*github.com/guild&#45;framework/guild&#45;core/pkg/storage/promptchain.sqliteChainManager).AddMessage | defined in sqlite_chain_manager.go:74&#10;at sqlite_chain_manager.go:108: calling [github.com/guild&#45;framework/guild&#45;core/pkg/gerror.Wrap]&#10;at sqlite_chain_manager.go:76: calling [github.com/guild&#45;framework/guild&#45;core/pkg/gerror.New]&#10;at sqlite_chain_manager.go:80: calling [github.com/guild&#45;framework/guild&#45;core/pkg/gerror.New]&#10;at sqlite_chain_manager.go:84: calling [github.com/guild&#45;framework/guild&#45;core/pkg/gerror.New]">
<path fill="lightblue" stroke="black" stroke-width="1.5" d="M650.33,-201C650.33,-201 398.54,-201 398.54,-201 392.54,-201 386.54,-195 386.54,-189 386.54,-189 386.54,-177 386.54,-177 386.54,-171 392.54,-165 398.54,-165 398.54,-165 650.33,-165 650.33,-165 656.33,-165 662.33,-171 662.33,-177 662.33,-177 662.33,-189 662.33,-189 662.33,-195 656.33,-201 650.33,-201"/>
<text xml:space="preserve" text-anchor="middle" x="524.44" y="-178.32" font-family="Verdana" font-size="14.00">(*sqliteChainManager).AddMessage</text>
</a>
</g>
</g>
<!-- (*github.com/guild&#45;framework/guild&#45;core/pkg/storage/promptchain.sqliteChainManager).AddMessage&#45;&gt;github.com/guild&#45;framework/guild&#45;core/pkg/gerror.New -->
<g id="edge18" class="edge">
<title>(*github.com/guild&#45;framework/guild&#45;core/pkg/storage/promptchain.sqliteChainManager).AddMessage&#45;&gt;github.com/guild&#45;framework/guild&#45;core/pkg/gerror.New</title>
<g id="a_edge18"><a xlink:title="at sqlite_chain_manager.go:76: calling [github.com/guild&#45;framework/guild&#45;core/pkg/gerror.New]&#10;at sqlite_chain_manager.go:80: calling [github.com/guild&#45;framework/guild&#45;core/pkg/gerror.New]&#10;at sqlite_chain_manager.go:84: calling [github.com/guild&#45;framework/guild&#45;core/pkg/gerror.New]">
<path fill="none" stroke="saddlebrown" d="M653.31,-201.74C663.71,-205.16 673.86,-209.21 683.33,-214 702.7,-223.79 699.1,-239.13 719.33,-247 785.94,-272.91 871.21,-261.93 919.39,-252.11"/>
<polygon fill="saddlebrown" stroke="saddlebrown" points="920,-255.56 929.04,-250.05 918.53,-248.72 920,-255.56"/>
</a>
</g>
</g>
<!-- (*github.com/guild&#45;framework/guild&#45;core/pkg/storage/promptchain.sqliteChainManager).AddMessage&#45;&gt;github.com/guild&#45;framework/guild&#45;core/pkg/gerror.Wrap -->
<g id="edge1" class="edge">
<title>(*github.com/guild&#45;framework/guild&#45;core/pkg/storage/promptchain.sqliteChainManager).AddMessage&#45;&gt;github.com/guild&#45;framework/guild&#45;core/pkg/gerror.Wrap</title>
<g id="a_edge1"><a xlink:title="at sqlite_chain_manager.go:108: calling [github.com/guild&#45;framework/guild&#45;core/pkg/gerror.Wrap]">
<path fill="none" stroke="saddlebrown" d="M623.21,-164.27C653.86,-159.24 687.9,-154.5 719.33,-152 736.1,-150.67 739.73,-157.25 756.33,-160 811.4,-169.11 875.61,-175.4 916.27,-178.85"/>
<polygon fill="saddlebrown" stroke="saddlebrown" points="915.83,-182.33 926.09,-179.67 916.41,-175.35 915.83,-182.33"/>
</a>
</g>
</g>
<!-- (*github.com/guild&#45;framework/guild&#45;core/pkg/storage/promptchain.sqliteChainManager).GetChainsByAgent -->
<g id="node6" class="node">
<title>(*github.com/guild&#45;framework/guild&#45;core/pkg/storage/promptchain.sqliteChainManager).GetChainsByAgent</title>
<g id="a_node6"><a xlink:title="(*github.com/guild&#45;framework/guild&#45;core/pkg/storage/promptchain.sqliteChainManager).GetChainsByAgent | defined in sqlite_chain_manager.go:115&#10;at sqlite_chain_manager.go:122: calling [github.com/guild&#45;framework/guild&#45;core/pkg/gerror.Wrap]&#10;at sqlite_chain_manager.go:117: calling [github.com/guild&#45;framework/guild&#45;core/pkg/gerror.New]">
<path fill="lightblue" stroke="black" stroke-width="1.5" d="M671.33,-140C671.33,-140 377.54,-140 377.54,-140 371.54,-140 365.54,-134 365.54,-128 365.54,-128 365.54,-116 365.54,-116 365.54,-110 371.54,-104 377.54,-104 377.54,-104 671.33,-104 671.33,-104 677.33,-104 683.33,-110 683.33,-116 683.33,-116 683.33,-128 683.33,-128 683.33,-134 677.33,-140 671.33,-140"/>
<text xml:space="preserve" text-anchor="middle" x="524.44" y="-117.33" font-family="Verdana" font-size="14.00">(*sqliteChainManager).GetChainsByAgent</text>
</a>
</g>
</g>
<!-- (*github.com/guild&#45;framework/guild&#45;core/pkg/storage/promptchain.sqliteChainManager).GetChainsByAgent&#45;&gt;github.com/guild&#45;framework/guild&#45;core/pkg/gerror.New -->
<g id="edge9" class="edge">
<title>(*github.com/guild&#45;framework/guild&#45;core/pkg/storage/promptchain.sqliteChainManager).GetChainsByAgent&#45;&gt;github.com/guild&#45;framework/guild&#45;core/pkg/gerror.New</title>
<g id="a_edge9"><a xlink:title="at sqlite_chain_manager.go:117: calling [github.com/guild&#45;framework/guild&#45;core/pkg/gerror.New]">
<path fill="none" stroke="saddlebrown" d="M662.72,-140.73C669.99,-144.21 676.92,-148.27 683.33,-153 710.53,-173.07 691.19,-201.27 719.33,-220 779.87,-260.28 869.04,-256.16 919.17,-249.57"/>
<polygon fill="saddlebrown" stroke="saddlebrown" points="919.53,-253.05 928.94,-248.17 918.54,-246.12 919.53,-253.05"/>
</a>
</g>
</g>
<!-- (*github.com/guild&#45;framework/guild&#45;core/pkg/storage/promptchain.sqliteChainManager).GetChainsByAgent&#45;&gt;github.com/guild&#45;framework/guild&#45;core/pkg/gerror.Wrap -->
<g id="edge7" class="edge">
<title>(*github.com/guild&#45;framework/guild&#45;core/pkg/storage/promptchain.sqliteChainManager).GetChainsByAgent&#45;&gt;github.com/guild&#45;framework/guild&#45;core/pkg/gerror.Wrap</title>
<g id="a_edge7"><a xlink:title="at sqlite_chain_manager.go:122: calling [github.com/guild&#45;framework/guild&#45;core/pkg/gerror.Wrap]">
<path fill="none" stroke="saddlebrown" d="M684.01,-138.17C696.37,-140.45 708.59,-143.04 720.33,-146 736.98,-150.19 739.65,-155.92 756.33,-160 810.7,-173.31 875.34,-178.57 916.26,-180.65"/>
<polygon fill="saddlebrown" stroke="saddlebrown" points="915.99,-184.14 926.14,-181.11 916.31,-177.15 915.99,-184.14"/>
</a>
</g>
</g>
<!-- (*github.com/guild&#45;framework/guild&#45;core/pkg/storage/promptchain.sqliteChainManager).DeleteChain -->
<g id="node7" class="node">
<title>(*github.com/guild&#45;framework/guild&#45;core/pkg/storage/promptchain.sqliteChainManager).DeleteChain</title>
<g id="a_node7"><a xlink:title="(*github.com/guild&#45;framework/guild&#45;core/pkg/storage/promptchain.sqliteChainManager).DeleteChain | defined in sqlite_chain_manager.go:262&#10;at sqlite_chain_manager.go:269: calling [github.com/guild&#45;framework/guild&#45;core/pkg/gerror.Wrap]&#10;at sqlite_chain_manager.go:264: calling [github.com/guild&#45;framework/guild&#45;core/pkg/gerror.New]">
<path fill="lightblue" stroke="black" stroke-width="1.5" d="M648.08,-262C648.08,-262 400.79,-262 400.79,-262 394.79,-262 388.79,-256 388.79,-250 388.79,-250 388.79,-238 388.79,-238 388.79,-232 394.79,-226 400.79,-226 400.79,-226 648.08,-226 648.08,-226 654.08,-226 660.08,-232 660.08,-238 660.08,-238 660.08,-250 660.08,-250 660.08,-256 654.08,-262 648.08,-262"/>
<text xml:space="preserve" text-anchor="middle" x="524.44" y="-239.32" font-family="Verdana" font-size="14.00">(*sqliteChainManager).DeleteChain</text>
</a>
</g>
</g>
<!-- (*github.com/guild&#45;framework/guild&#45;core/pkg/storage/promptchain.sqliteChainManager).DeleteChain&#45;&gt;github.com/guild&#45;framework/guild&#45;core/pkg/gerror.New -->
<g id="edge10" class="edge">
<title>(*github.com/guild&#45;framework/guild&#45;core/pkg/storage/promptchain.sqliteChainManager).DeleteChain&#45;&gt;github.com/guild&#45;framework/guild&#45;core/pkg/gerror.New</title>
<g id="a_edge10"><a xlink:title="at sqlite_chain_manager.go:264: calling [github.com/guild&#45;framework/guild&#45;core/pkg/gerror.New]">
<path fill="none" stroke="saddlebrown" d="M626.98,-262.71C656.64,-267.37 689.19,-271.68 719.33,-274 790.27,-279.46 872.48,-263.79 919.24,-252.79"/>
<polygon fill="saddlebrown" stroke="saddlebrown" points="919.97,-256.21 928.87,-250.46 918.33,-249.41 919.97,-256.21"/>
</a>
</g>
</g>
<!-- (*github.com/guild&#45;framework/guild&#45;core/pkg/storage/promptchain.sqliteChainManager).DeleteChain&#45;&gt;github.com/guild&#45;framework/guild&#45;core/pkg/gerror.Wrap -->
<g id="edge2" class="edge">
<title>(*github.com/guild&#45;framework/guild&#45;core/pkg/storage/promptchain.sqliteChainManager).DeleteChain&#45;&gt;github.com/guild&#45;framework/guild&#45;core/pkg/gerror.Wrap</title>
<g id="a_edge2"><a xlink:title="at sqlite_chain_manager.go:269: calling [github.com/guild&#45;framework/guild&#45;core/pkg/gerror.Wrap]">
<path fill="none" stroke="saddlebrown" d="M656.73,-225.32C665.95,-222.12 674.91,-218.38 683.33,-214 703.13,-203.7 698.65,-187.39 719.33,-179 784.28,-152.63 867.68,-162.58 916.44,-172.26"/>
<polygon fill="saddlebrown" stroke="saddlebrown" points="915.48,-175.63 925.99,-174.25 916.91,-168.78 915.48,-175.63"/>
</a>
</g>
</g>
<!-- (*github.com/guild&#45;framework/guild&#45;core/pkg/storage/promptchain.sqliteChainManager).BuildContext -->
<g id="node8" class="node">
<title>(*github.com/guild&#45;framework/guild&#45;core/pkg/storage/promptchain.sqliteChainManager).BuildContext</title>
<g id="a_node8"><a xlink:title="(*github.com/guild&#45;framework/guild&#45;core/pkg/storage/promptchain.sqliteChainManager).BuildContext | defined in sqlite_chain_manager.go:181&#10;at sqlite_chain_manager.go:194: calling [github.com/guild&#45;framework/guild&#45;core/pkg/gerror.Wrap]&#10;at sqlite_chain_manager.go:200: calling [github.com/guild&#45;framework/guild&#45;core/pkg/gerror.Wrap]&#10;at sqlite_chain_manager.go:209: calling [(*github.com/guild&#45;framework/guild&#45;core/pkg/storage/promptchain.sqliteChainManager).GetChain]&#10;at sqlite_chain_manager.go:192: calling [(*github.com/guild&#45;framework/guild&#45;core/pkg/storage/promptchain.sqliteChainManager).GetChainsByTask]&#10;at sqlite_chain_manager.go:183: calling [github.com/guild&#45;framework/guild&#45;core/pkg/gerror.New]&#10;at sqlite_chain_manager.go:198: calling [(*github.com/guild&#45;framework/guild&#45;core/pkg/storage/promptchain.sqliteChainManager).GetChainsByAgent]">
<path fill="lightblue" stroke="black" stroke-width="1.5" d="M280.54,-140C280.54,-140 28,-140 28,-140 22,-140 16,-134 16,-128 16,-128 16,-116 16,-116 16,-110 22,-104 28,-104 28,-104 280.54,-104 280.54,-104 286.54,-104 292.54,-110 292.54,-116 292.54,-116 292.54,-128 292.54,-128 292.54,-134 286.54,-140 280.54,-140"/>
<text xml:space="preserve" text-anchor="middle" x="154.27" y="-117.33" font-family="Verdana" font-size="14.00">(*sqliteChainManager).BuildContext</text>
</a>
</g>
</g>
<!-- (*github.com/guild&#45;framework/guild&#45;core/pkg/storage/promptchain.sqliteChainManager).BuildContext&#45;&gt;(*github.com/guild&#45;framework/guild&#45;core/pkg/storage/promptchain.sqliteChainManager).GetChain -->
<g id="edge5" class="edge">
<title>(*github.com/guild&#45;framework/guild&#45;core/pkg/storage/promptchain.sqliteChainManager).BuildContext&#45;&gt;(*github.com/guild&#45;framework/guild&#45;core/pkg/storage/promptchain.sqliteChainManager).GetChain</title>
<g id="a_edge5"><a xlink:title="at sqlite_chain_manager.go:209: calling [(*github.com/guild&#45;framework/guild&#45;core/pkg/storage/promptchain.sqliteChainManager).GetChain]">
<path fill="none" stroke="black" d="M213.43,-103.32C246.88,-92.97 289.83,-80.35 328.54,-71 352.67,-65.17 378.67,-59.69 403.56,-54.83"/>
<polygon fill="black" stroke="black" points="403.89,-58.33 413.04,-53 402.56,-51.46 403.89,-58.33"/>
</a>
</g>
</g>
<!-- (*github.com/guild&#45;framework/guild&#45;core/pkg/storage/promptchain.sqliteChainManager).BuildContext&#45;&gt;(*github.com/guild&#45;framework/guild&#45;core/pkg/storage/promptchain.sqliteChainManager).GetChainsByTask -->
<g id="edge8" class="edge">
<title>(*github.com/guild&#45;framework/guild&#45;core/pkg/storage/promptchain.sqliteChainManager).BuildContext&#45;&gt;(*github.com/guild&#45;framework/guild&#45;core/pkg/storage/promptchain.sqliteChainManager).GetChainsByTask</title>
<g id="a_edge8"><a xlink:title="at sqlite_chain_manager.go:192: calling [(*github.com/guild&#45;framework/guild&#45;core/pkg/storage/promptchain.sqliteChainManager).GetChainsByTask]">
<path fill="none" stroke="black" d="M167.43,-140.55C196.24,-182.87 273.21,-286.64 365.54,-336 370.56,-338.69 375.79,-341.13 381.15,-343.37"/>
<polygon fill="black" stroke="black" points="379.62,-346.53 390.21,-346.85 382.14,-339.99 379.62,-346.53"/>
</a>
</g>
</g>
<!-- (*github.com/guild&#45;framework/guild&#45;core/pkg/storage/promptchain.sqliteChainManager).BuildContext&#45;&gt;(*github.com/guild&#45;framework/guild&#45;core/pkg/storage/promptchain.sqliteChainManager).GetChainsByAgent -->
<g id="edge12" class="edge">
<title>(*github.com/guild&#45;framework/guild&#45;core/pkg/storage/promptchain.sqliteChainManager).BuildContext&#45;&gt;(*github.com/guild&#45;framework/guild&#45;core/pkg/storage/promptchain.sqliteChainManager).GetChainsByAgent</title>
<g id="a_edge12"><a xlink:title="at sqlite_chain_manager.go:198: calling [(*github.com/guild&#45;framework/guild&#45;core/pkg/storage/promptchain.sqliteChainManager).GetChainsByAgent]">
<path fill="none" stroke="black" d="M293.15,-122C312.78,-122 333.16,-122 353.31,-122"/>
<polygon fill="black" stroke="black" points="353.3,-125.5 363.3,-122 353.3,-118.5 353.3,-125.5"/>
</a>
</g>
</g>
<!-- (*github.com/guild&#45;framework/guild&#45;core/pkg/storage/promptchain.sqliteChainManager).BuildContext&#45;&gt;github.com/guild&#45;framework/guild&#45;core/pkg/gerror.New -->
<g id="edge11" class="edge">
<title>(*github.com/guild&#45;framework/guild&#45;core/pkg/storage/promptchain.sqliteChainManager).BuildContext&#45;&gt;github.com/guild&#45;framework/guild&#45;core/pkg/gerror.New</title>
<g id="a_edge11"><a xlink:title="at sqlite_chain_manager.go:183: calling [github.com/guild&#45;framework/guild&#45;core/pkg/gerror.New]">
<path fill="none" stroke="saddlebrown" d="M162.39,-140.4C183.71,-192.56 252.66,-341.22 365.54,-397 492.16,-459.58 546.7,-432.8 683.33,-397 778.74,-372 875.98,-305.41 924.8,-268.51"/>
<polygon fill="saddlebrown" stroke="saddlebrown" points="926.89,-271.32 932.7,-262.46 922.63,-265.76 926.89,-271.32"/>
</a>
</g>
</g>
<!-- (*github.com/guild&#45;framework/guild&#45;core/pkg/storage/promptchain.sqliteChainManager).BuildContext&#45;&gt;github.com/guild&#45;framework/guild&#45;core/pkg/gerror.Wrap -->
<g id="edge4" class="edge">
<title>(*github.com/guild&#45;framework/guild&#45;core/pkg/storage/promptchain.sqliteChainManager).BuildContext&#45;&gt;github.com/guild&#45;framework/guild&#45;core/pkg/gerror.Wrap</title>
<g id="a_edge4"><a xlink:title="at sqlite_chain_manager.go:194: calling [github.com/guild&#45;framework/guild&#45;core/pkg/gerror.Wrap]&#10;at sqlite_chain_manager.go:200: calling [github.com/guild&#45;framework/guild&#45;core/pkg/gerror.Wrap]">
<path fill="none" stroke="saddlebrown" d="M265.45,-103.28C297.61,-98.63 332.9,-94.32 365.54,-92 506.43,-82 551.9,-40.27 683.33,-92 724.59,-108.24 716.02,-141.53 756.33,-160 807.76,-183.56 874.12,-186.16 916.13,-184.86"/>
<polygon fill="saddlebrown" stroke="saddlebrown" points="916.2,-188.36 926.04,-184.45 915.91,-181.36 916.2,-188.36"/>
</a>
</g>
</g>
</g>
</svg>
