<?xml version="1.0" encoding="UTF-8" standalone="no"?>
<!DOCTYPE svg PUBLIC "-//W3C//DTD SVG 1.1//EN"
 "http://www.w3.org/Graphics/SVG/1.1/DTD/svg11.dtd">
<!-- Generated by graphviz version 14.1.1 (20251213.1925)
 -->
<!-- Title: gocallvis Pages: 1 -->
<svg width="971pt" height="468pt"
 viewBox="0.00 0.00 971.00 468.00" xmlns="http://www.w3.org/2000/svg" xmlns:xlink="http://www.w3.org/1999/xlink">
<g id="graph0" class="graph" transform="scale(1 1) rotate(0) translate(0 468)">
<title>gocallvis</title>
<polygon fill="lightgray" stroke="none" points="0,0 0,-468 971.41,-468 971.41,0 0,0"/>
<g id="clust1" class="cluster">
<title>cluster_focus</title>
<polygon fill="#e6ecfa" stroke="black" stroke-width="0.5" points="8,-8 8,-460 963.41,-460 963.41,-8 8,-8"/>
<text xml:space="preserve" text-anchor="middle" x="485.7" y="-438.9" font-family="Arial" font-size="18.00">paths</text>
</g>
<g id="clust2" class="cluster">
<title>cluster_github.com/guild&#45;framework/guild&#45;core/pkg/gerror</title>
<g id="a_clust2"><a xlink:href="/?f=github.com/guild-framework/guild-core/pkg/gerror" xlink:title="package: github.com/guild&#45;framework/guild&#45;core/pkg/gerror">
<polygon fill="lightyellow" stroke="black" stroke-width="0.8" points="707.12,-99 707.12,-423 955.41,-423 955.41,-99 707.12,-99"/>
<text xml:space="preserve" text-anchor="middle" x="831.26" y="-403.8" font-family="Tahoma bold" font-size="16.00">gerror</text>
</a>
</g>
</g>
<!-- github.com/guild&#45;framework/guild&#45;core/pkg/paths.GuildRunDir -->
<g id="node1" class="node">
<title>github.com/guild&#45;framework/guild&#45;core/pkg/paths.GuildRunDir</title>
<g id="a_node1"><a xlink:title="github.com/guild&#45;framework/guild&#45;core/pkg/paths.GuildRunDir | defined in run.go:19&#10;at run.go:24: calling [(*github.com/guild&#45;framework/guild&#45;core/pkg/gerror.GuildError).WithOperation]&#10;at run.go:33: calling [(*github.com/guild&#45;framework/guild&#45;core/pkg/gerror.GuildError).WithOperation]&#10;at run.go:41: calling [(*github.com/guild&#45;framework/guild&#45;core/pkg/gerror.GuildError).WithOperation]&#10;at run.go:22: calling [github.com/guild&#45;framework/guild&#45;core/pkg/gerror.Wrap]&#10;at run.go:31: calling [github.com/guild&#45;framework/guild&#45;core/pkg/gerror.Wrap]&#10;at run.go:39: calling [github.com/guild&#45;framework/guild&#45;core/pkg/gerror.Wrap]&#10;at run.go:23: calling [(*github.com/guild&#45;framework/guild&#45;core/pkg/gerror.GuildError).WithComponent]&#10;at run.go:32: calling [(*github.com/guild&#45;framework/guild&#45;core/pkg/gerror.GuildError).WithComponent]&#10;at run.go:40: calling [(*github.com/guild&#45;framework/guild&#45;core/pkg/gerror.GuildError).WithComponent]&#10;at run.go:34: calling [(*github.com/guild&#45;framework/guild&#45;core/pkg/gerror.GuildError).WithDetails]&#10;at run.go:42: calling [(*github.com/guild&#45;framework/guild&#45;core/pkg/gerror.GuildError).WithDetails]">
<path fill="lightblue" stroke="black" stroke-width="1.5" d="M607.24,-227C607.24,-227 524.2,-227 524.2,-227 518.2,-227 512.2,-221 512.2,-215 512.2,-215 512.2,-203 512.2,-203 512.2,-197 518.2,-191 524.2,-191 524.2,-191 607.24,-191 607.24,-191 613.24,-191 619.24,-197 619.24,-203 619.24,-203 619.24,-215 619.24,-215 619.24,-221 613.24,-227 607.24,-227"/>
<text xml:space="preserve" text-anchor="middle" x="565.72" y="-204.32" font-family="Verdana" font-size="14.00">GuildRunDir</text>
</a>
</g>
</g>
<!-- github.com/guild&#45;framework/guild&#45;core/pkg/gerror.Wrap -->
<g id="node7" class="node">
<title>github.com/guild&#45;framework/guild&#45;core/pkg/gerror.Wrap</title>
<g id="a_node7"><a xlink:title="github.com/guild&#45;framework/guild&#45;core/pkg/gerror.Wrap | defined in errors.go:223">
<path fill="moccasin" stroke="black" stroke-width="1.5" d="M849.16,-143C849.16,-143 813.37,-143 813.37,-143 807.37,-143 801.37,-137 801.37,-131 801.37,-131 801.37,-119 801.37,-119 801.37,-113 807.37,-107 813.37,-107 813.37,-107 849.16,-107 849.16,-107 855.16,-107 861.16,-113 861.16,-119 861.16,-119 861.16,-131 861.16,-131 861.16,-137 855.16,-143 849.16,-143"/>
<text xml:space="preserve" text-anchor="middle" x="831.26" y="-120.33" font-family="Verdana" font-size="14.00">Wrap</text>
</a>
</g>
</g>
<!-- github.com/guild&#45;framework/guild&#45;core/pkg/paths.GuildRunDir&#45;&gt;github.com/guild&#45;framework/guild&#45;core/pkg/gerror.Wrap -->
<g id="edge14" class="edge">
<title>github.com/guild&#45;framework/guild&#45;core/pkg/paths.GuildRunDir&#45;&gt;github.com/guild&#45;framework/guild&#45;core/pkg/gerror.Wrap</title>
<g id="a_edge14"><a xlink:title="at run.go:22: calling [github.com/guild&#45;framework/guild&#45;core/pkg/gerror.Wrap]&#10;at run.go:31: calling [github.com/guild&#45;framework/guild&#45;core/pkg/gerror.Wrap]&#10;at run.go:39: calling [github.com/guild&#45;framework/guild&#45;core/pkg/gerror.Wrap]">
<path fill="none" stroke="saddlebrown" d="M612.11,-190.36C639.38,-179.54 674.93,-166.09 707.12,-156 734.36,-147.46 765.55,-139.63 789.73,-133.97"/>
<polygon fill="saddlebrown" stroke="saddlebrown" points="790.21,-137.45 799.17,-131.8 788.63,-130.63 790.21,-137.45"/>
</a>
</g>
</g>
<!-- (*github.com/guild&#45;framework/guild&#45;core/pkg/gerror.GuildError).WithComponent -->
<g id="node8" class="node">
<title>(*github.com/guild&#45;framework/guild&#45;core/pkg/gerror.GuildError).WithComponent</title>
<g id="a_node8"><a xlink:title="(*github.com/guild&#45;framework/guild&#45;core/pkg/gerror.GuildError).WithComponent | defined in errors.go:156">
<path fill="moccasin" stroke="black" stroke-width="1.5" d="M935.41,-204C935.41,-204 727.12,-204 727.12,-204 721.12,-204 715.12,-198 715.12,-192 715.12,-192 715.12,-180 715.12,-180 715.12,-174 721.12,-168 727.12,-168 727.12,-168 935.41,-168 935.41,-168 941.41,-168 947.41,-174 947.41,-180 947.41,-180 947.41,-192 947.41,-192 947.41,-198 941.41,-204 935.41,-204"/>
<text xml:space="preserve" text-anchor="middle" x="831.26" y="-181.32" font-family="Verdana" font-size="14.00">(*GuildError).WithComponent</text>
</a>
</g>
</g>
<!-- github.com/guild&#45;framework/guild&#45;core/pkg/paths.GuildRunDir&#45;&gt;(*github.com/guild&#45;framework/guild&#45;core/pkg/gerror.GuildError).WithComponent -->
<g id="edge15" class="edge">
<title>github.com/guild&#45;framework/guild&#45;core/pkg/paths.GuildRunDir&#45;&gt;(*github.com/guild&#45;framework/guild&#45;core/pkg/gerror.GuildError).WithComponent</title>
<g id="a_edge15"><a xlink:title="at run.go:23: calling [(*github.com/guild&#45;framework/guild&#45;core/pkg/gerror.GuildError).WithComponent]&#10;at run.go:32: calling [(*github.com/guild&#45;framework/guild&#45;core/pkg/gerror.GuildError).WithComponent]&#10;at run.go:40: calling [(*github.com/guild&#45;framework/guild&#45;core/pkg/gerror.GuildError).WithComponent]">
<path fill="none" stroke="saddlebrown" d="M619.74,-204.37C643.93,-202.26 673.71,-199.66 703.18,-197.09"/>
<polygon fill="saddlebrown" stroke="saddlebrown" points="703.29,-200.6 712.94,-196.24 702.68,-193.62 703.29,-200.6"/>
</a>
</g>
</g>
<!-- (*github.com/guild&#45;framework/guild&#45;core/pkg/gerror.GuildError).WithOperation -->
<g id="node9" class="node">
<title>(*github.com/guild&#45;framework/guild&#45;core/pkg/gerror.GuildError).WithOperation</title>
<g id="a_node9"><a xlink:title="(*github.com/guild&#45;framework/guild&#45;core/pkg/gerror.GuildError).WithOperation | defined in errors.go:162">
<path fill="moccasin" stroke="black" stroke-width="1.5" d="M929.78,-265C929.78,-265 732.74,-265 732.74,-265 726.74,-265 720.74,-259 720.74,-253 720.74,-253 720.74,-241 720.74,-241 720.74,-235 726.74,-229 732.74,-229 732.74,-229 929.78,-229 929.78,-229 935.78,-229 941.78,-235 941.78,-241 941.78,-241 941.78,-253 941.78,-253 941.78,-259 935.78,-265 929.78,-265"/>
<text xml:space="preserve" text-anchor="middle" x="831.26" y="-242.32" font-family="Verdana" font-size="14.00">(*GuildError).WithOperation</text>
</a>
</g>
</g>
<!-- github.com/guild&#45;framework/guild&#45;core/pkg/paths.GuildRunDir&#45;&gt;(*github.com/guild&#45;framework/guild&#45;core/pkg/gerror.GuildError).WithOperation -->
<g id="edge5" class="edge">
<title>github.com/guild&#45;framework/guild&#45;core/pkg/paths.GuildRunDir&#45;&gt;(*github.com/guild&#45;framework/guild&#45;core/pkg/gerror.GuildError).WithOperation</title>
<g id="a_edge5"><a xlink:title="at run.go:24: calling [(*github.com/guild&#45;framework/guild&#45;core/pkg/gerror.GuildError).WithOperation]&#10;at run.go:33: calling [(*github.com/guild&#45;framework/guild&#45;core/pkg/gerror.GuildError).WithOperation]&#10;at run.go:41: calling [(*github.com/guild&#45;framework/guild&#45;core/pkg/gerror.GuildError).WithOperation]">
<path fill="none" stroke="saddlebrown" d="M619.74,-216.64C645.55,-220.37 677.74,-225.01 709.12,-229.53"/>
<polygon fill="saddlebrown" stroke="saddlebrown" points="708.28,-232.95 718.67,-230.91 709.27,-226.02 708.28,-232.95"/>
</a>
</g>
</g>
<!-- (*github.com/guild&#45;framework/guild&#45;core/pkg/gerror.GuildError).WithDetails -->
<g id="node10" class="node">
<title>(*github.com/guild&#45;framework/guild&#45;core/pkg/gerror.GuildError).WithDetails</title>
<g id="a_node10"><a xlink:title="(*github.com/guild&#45;framework/guild&#45;core/pkg/gerror.GuildError).WithDetails | defined in errors.go:147">
<path fill="moccasin" stroke="black" stroke-width="1.5" d="M918.91,-326C918.91,-326 743.62,-326 743.62,-326 737.62,-326 731.62,-320 731.62,-314 731.62,-314 731.62,-302 731.62,-302 731.62,-296 737.62,-290 743.62,-290 743.62,-290 918.91,-290 918.91,-290 924.91,-290 930.91,-296 930.91,-302 930.91,-302 930.91,-314 930.91,-314 930.91,-320 924.91,-326 918.91,-326"/>
<text xml:space="preserve" text-anchor="middle" x="831.26" y="-303.32" font-family="Verdana" font-size="14.00">(*GuildError).WithDetails</text>
</a>
</g>
</g>
<!-- github.com/guild&#45;framework/guild&#45;core/pkg/paths.GuildRunDir&#45;&gt;(*github.com/guild&#45;framework/guild&#45;core/pkg/gerror.GuildError).WithDetails -->
<g id="edge18" class="edge">
<title>github.com/guild&#45;framework/guild&#45;core/pkg/paths.GuildRunDir&#45;&gt;(*github.com/guild&#45;framework/guild&#45;core/pkg/gerror.GuildError).WithDetails</title>
<g id="a_edge18"><a xlink:title="at run.go:34: calling [(*github.com/guild&#45;framework/guild&#45;core/pkg/gerror.GuildError).WithDetails]&#10;at run.go:42: calling [(*github.com/guild&#45;framework/guild&#45;core/pkg/gerror.GuildError).WithDetails]">
<path fill="none" stroke="saddlebrown" d="M604.7,-227.62C616.67,-233.5 629.95,-240.02 642.12,-246 671.02,-260.2 676.85,-267.01 707.12,-278 715.19,-280.93 723.66,-283.66 732.23,-286.19"/>
<polygon fill="saddlebrown" stroke="saddlebrown" points="731.07,-289.5 741.64,-288.87 732.98,-282.77 731.07,-289.5"/>
</a>
</g>
</g>
<!-- github.com/guild&#45;framework/guild&#45;core/pkg/paths.GetGuildConfigDir -->
<g id="node2" class="node">
<title>github.com/guild&#45;framework/guild&#45;core/pkg/paths.GetGuildConfigDir</title>
<g id="a_node2"><a xlink:title="github.com/guild&#45;framework/guild&#45;core/pkg/paths.GetGuildConfigDir | defined in run.go:87&#10;at run.go:90: calling [github.com/guild&#45;framework/guild&#45;core/pkg/gerror.Wrap]&#10;at run.go:99: calling [github.com/guild&#45;framework/guild&#45;core/pkg/gerror.Wrap]&#10;at run.go:92: calling [(*github.com/guild&#45;framework/guild&#45;core/pkg/gerror.GuildError).WithOperation]&#10;at run.go:101: calling [(*github.com/guild&#45;framework/guild&#45;core/pkg/gerror.GuildError).WithOperation]&#10;at run.go:102: calling [(*github.com/guild&#45;framework/guild&#45;core/pkg/gerror.GuildError).WithDetails]&#10;at run.go:91: calling [(*github.com/guild&#45;framework/guild&#45;core/pkg/gerror.GuildError).WithComponent]&#10;at run.go:100: calling [(*github.com/guild&#45;framework/guild&#45;core/pkg/gerror.GuildError).WithComponent]">
<path fill="lightblue" stroke="black" stroke-width="1.5" d="M627.87,-136C627.87,-136 503.58,-136 503.58,-136 497.58,-136 491.58,-130 491.58,-124 491.58,-124 491.58,-112 491.58,-112 491.58,-106 497.58,-100 503.58,-100 503.58,-100 627.87,-100 627.87,-100 633.87,-100 639.87,-106 639.87,-112 639.87,-112 639.87,-124 639.87,-124 639.87,-130 633.87,-136 627.87,-136"/>
<text xml:space="preserve" text-anchor="middle" x="565.72" y="-113.33" font-family="Verdana" font-size="14.00">GetGuildConfigDir</text>
</a>
</g>
</g>
<!-- github.com/guild&#45;framework/guild&#45;core/pkg/paths.GetGuildConfigDir&#45;&gt;github.com/guild&#45;framework/guild&#45;core/pkg/gerror.Wrap -->
<g id="edge10" class="edge">
<title>github.com/guild&#45;framework/guild&#45;core/pkg/paths.GetGuildConfigDir&#45;&gt;github.com/guild&#45;framework/guild&#45;core/pkg/gerror.Wrap</title>
<g id="a_edge10"><a xlink:title="at run.go:90: calling [github.com/guild&#45;framework/guild&#45;core/pkg/gerror.Wrap]&#10;at run.go:99: calling [github.com/guild&#45;framework/guild&#45;core/pkg/gerror.Wrap]">
<path fill="none" stroke="saddlebrown" d="M632.52,-99.32C647.39,-95.86 663.2,-92.78 678.12,-91 716.66,-86.4 759.76,-97.62 790.22,-108.38"/>
<polygon fill="saddlebrown" stroke="saddlebrown" points="788.82,-111.6 799.41,-111.77 791.24,-105.03 788.82,-111.6"/>
</a>
</g>
</g>
<!-- github.com/guild&#45;framework/guild&#45;core/pkg/paths.GetGuildConfigDir&#45;&gt;(*github.com/guild&#45;framework/guild&#45;core/pkg/gerror.GuildError).WithComponent -->
<g id="edge19" class="edge">
<title>github.com/guild&#45;framework/guild&#45;core/pkg/paths.GetGuildConfigDir&#45;&gt;(*github.com/guild&#45;framework/guild&#45;core/pkg/gerror.GuildError).WithComponent</title>
<g id="a_edge19"><a xlink:title="at run.go:91: calling [(*github.com/guild&#45;framework/guild&#45;core/pkg/gerror.GuildError).WithComponent]&#10;at run.go:100: calling [(*github.com/guild&#45;framework/guild&#45;core/pkg/gerror.GuildError).WithComponent]">
<path fill="none" stroke="saddlebrown" d="M640.38,-108.32C653.8,-109.21 667.28,-112.02 679.12,-118 697.84,-127.46 689.66,-144.37 707.12,-156 710.62,-158.33 714.29,-160.48 718.08,-162.47"/>
<polygon fill="saddlebrown" stroke="saddlebrown" points="716.45,-165.57 726.98,-166.69 719.45,-159.24 716.45,-165.57"/>
</a>
</g>
</g>
<!-- github.com/guild&#45;framework/guild&#45;core/pkg/paths.GetGuildConfigDir&#45;&gt;(*github.com/guild&#45;framework/guild&#45;core/pkg/gerror.GuildError).WithOperation -->
<g id="edge11" class="edge">
<title>github.com/guild&#45;framework/guild&#45;core/pkg/paths.GetGuildConfigDir&#45;&gt;(*github.com/guild&#45;framework/guild&#45;core/pkg/gerror.GuildError).WithOperation</title>
<g id="a_edge11"><a xlink:title="at run.go:92: calling [(*github.com/guild&#45;framework/guild&#45;core/pkg/gerror.GuildError).WithOperation]&#10;at run.go:101: calling [(*github.com/guild&#45;framework/guild&#45;core/pkg/gerror.GuildError).WithOperation]">
<path fill="none" stroke="saddlebrown" d="M621.1,-136.73C640.87,-145.35 662.44,-157.04 679.12,-172 696.66,-187.73 688.04,-203.19 707.12,-217 710.15,-219.19 713.32,-221.23 716.6,-223.11"/>
<polygon fill="saddlebrown" stroke="saddlebrown" points="714.9,-226.17 725.39,-227.65 718.11,-219.95 714.9,-226.17"/>
</a>
</g>
</g>
<!-- github.com/guild&#45;framework/guild&#45;core/pkg/paths.GetGuildConfigDir&#45;&gt;(*github.com/guild&#45;framework/guild&#45;core/pkg/gerror.GuildError).WithDetails -->
<g id="edge16" class="edge">
<title>github.com/guild&#45;framework/guild&#45;core/pkg/paths.GetGuildConfigDir&#45;&gt;(*github.com/guild&#45;framework/guild&#45;core/pkg/gerror.GuildError).WithDetails</title>
<g id="a_edge16"><a xlink:title="at run.go:102: calling [(*github.com/guild&#45;framework/guild&#45;core/pkg/gerror.GuildError).WithDetails]">
<path fill="none" stroke="saddlebrown" d="M593.57,-136.52C608.81,-147.77 627.66,-163.02 642.12,-179 677.45,-218.02 664.11,-247.66 707.12,-278 711.33,-280.97 715.8,-283.65 720.45,-286.06"/>
<polygon fill="saddlebrown" stroke="saddlebrown" points="718.96,-289.23 729.5,-290.3 721.92,-282.89 718.96,-289.23"/>
</a>
</g>
</g>
<!-- github.com/guild&#45;framework/guild&#45;core/pkg/paths.GetCampaignDir -->
<g id="node3" class="node">
<title>github.com/guild&#45;framework/guild&#45;core/pkg/paths.GetCampaignDir</title>
<g id="a_node3"><a xlink:title="github.com/guild&#45;framework/guild&#45;core/pkg/paths.GetCampaignDir | defined in run.go:109&#10;at run.go:110: calling [github.com/guild&#45;framework/guild&#45;core/pkg/paths.GetGuildConfigDir]">
<path fill="lightblue" stroke="black" stroke-width="1.5" d="M390.83,-136C390.83,-136 277.04,-136 277.04,-136 271.04,-136 265.04,-130 265.04,-124 265.04,-124 265.04,-112 265.04,-112 265.04,-106 271.04,-100 277.04,-100 277.04,-100 390.83,-100 390.83,-100 396.83,-100 402.83,-106 402.83,-112 402.83,-112 402.83,-124 402.83,-124 402.83,-130 396.83,-136 390.83,-136"/>
<text xml:space="preserve" text-anchor="middle" x="333.93" y="-113.33" font-family="Verdana" font-size="14.00">GetCampaignDir</text>
</a>
</g>
</g>
<!-- github.com/guild&#45;framework/guild&#45;core/pkg/paths.GetCampaignDir&#45;&gt;github.com/guild&#45;framework/guild&#45;core/pkg/paths.GetGuildConfigDir -->
<g id="edge6" class="edge">
<title>github.com/guild&#45;framework/guild&#45;core/pkg/paths.GetCampaignDir&#45;&gt;github.com/guild&#45;framework/guild&#45;core/pkg/paths.GetGuildConfigDir</title>
<g id="a_edge6"><a xlink:title="at run.go:110: calling [github.com/guild&#45;framework/guild&#45;core/pkg/paths.GetGuildConfigDir]">
<path fill="none" stroke="black" d="M403.57,-118C427.42,-118 454.47,-118 479.5,-118"/>
<polygon fill="black" stroke="black" points="479.33,-121.5 489.33,-118 479.33,-114.5 479.33,-121.5"/>
</a>
</g>
</g>
<!-- github.com/guild&#45;framework/guild&#45;core/pkg/paths.EnsureCampaignDir -->
<g id="node4" class="node">
<title>github.com/guild&#45;framework/guild&#45;core/pkg/paths.EnsureCampaignDir</title>
<g id="a_node4"><a xlink:title="github.com/guild&#45;framework/guild&#45;core/pkg/paths.EnsureCampaignDir | defined in run.go:120&#10;at run.go:121: calling [github.com/guild&#45;framework/guild&#45;core/pkg/paths.GetCampaignDir]&#10;at run.go:138: calling [(*github.com/guild&#45;framework/guild&#45;core/pkg/gerror.GuildError).WithOperation]&#10;at run.go:139: calling [(*github.com/guild&#45;framework/guild&#45;core/pkg/gerror.GuildError).WithDetails]&#10;at run.go:137: calling [(*github.com/guild&#45;framework/guild&#45;core/pkg/gerror.GuildError).WithComponent]&#10;at run.go:136: calling [github.com/guild&#45;framework/guild&#45;core/pkg/gerror.Wrap]">
<path fill="lightblue" stroke="black" stroke-width="1.5" d="M166.54,-136C166.54,-136 28,-136 28,-136 22,-136 16,-130 16,-124 16,-124 16,-112 16,-112 16,-106 22,-100 28,-100 28,-100 166.54,-100 166.54,-100 172.54,-100 178.54,-106 178.54,-112 178.54,-112 178.54,-124 178.54,-124 178.54,-130 172.54,-136 166.54,-136"/>
<text xml:space="preserve" text-anchor="middle" x="97.27" y="-113.33" font-family="Verdana" font-size="14.00">EnsureCampaignDir</text>
</a>
</g>
</g>
<!-- github.com/guild&#45;framework/guild&#45;core/pkg/paths.EnsureCampaignDir&#45;&gt;github.com/guild&#45;framework/guild&#45;core/pkg/paths.GetCampaignDir -->
<g id="edge7" class="edge">
<title>github.com/guild&#45;framework/guild&#45;core/pkg/paths.EnsureCampaignDir&#45;&gt;github.com/guild&#45;framework/guild&#45;core/pkg/paths.GetCampaignDir</title>
<g id="a_edge7"><a xlink:title="at run.go:121: calling [github.com/guild&#45;framework/guild&#45;core/pkg/paths.GetCampaignDir]">
<path fill="none" stroke="black" d="M179.03,-118C203.06,-118 229.37,-118 253.33,-118"/>
<polygon fill="black" stroke="black" points="253.01,-121.5 263.01,-118 253.01,-114.5 253.01,-121.5"/>
</a>
</g>
</g>
<!-- github.com/guild&#45;framework/guild&#45;core/pkg/paths.EnsureCampaignDir&#45;&gt;github.com/guild&#45;framework/guild&#45;core/pkg/gerror.Wrap -->
<g id="edge20" class="edge">
<title>github.com/guild&#45;framework/guild&#45;core/pkg/paths.EnsureCampaignDir&#45;&gt;github.com/guild&#45;framework/guild&#45;core/pkg/gerror.Wrap</title>
<g id="a_edge20"><a xlink:title="at run.go:136: calling [github.com/guild&#45;framework/guild&#45;core/pkg/gerror.Wrap]">
<path fill="none" stroke="saddlebrown" d="M122.81,-99.48C163.94,-70.32 250.44,-17 332.93,-17 332.93,-17 332.93,-17 566.72,-17 653.92,-17 746.05,-68.25 794.93,-100.14"/>
<polygon fill="saddlebrown" stroke="saddlebrown" points="792.87,-102.98 803.14,-105.6 796.75,-97.15 792.87,-102.98"/>
</a>
</g>
</g>
<!-- github.com/guild&#45;framework/guild&#45;core/pkg/paths.EnsureCampaignDir&#45;&gt;(*github.com/guild&#45;framework/guild&#45;core/pkg/gerror.GuildError).WithComponent -->
<g id="edge17" class="edge">
<title>github.com/guild&#45;framework/guild&#45;core/pkg/paths.EnsureCampaignDir&#45;&gt;(*github.com/guild&#45;framework/guild&#45;core/pkg/gerror.GuildError).WithComponent</title>
<g id="a_edge17"><a xlink:title="at run.go:137: calling [(*github.com/guild&#45;framework/guild&#45;core/pkg/gerror.GuildError).WithComponent]">
<path fill="none" stroke="saddlebrown" d="M157.9,-99.29C204.94,-86.18 272.48,-71 332.93,-71 332.93,-71 332.93,-71 566.72,-71 619.9,-71 641.68,-74.24 679.12,-112 695.44,-128.46 688.28,-142.5 707.12,-156 710.16,-158.18 713.34,-160.2 716.63,-162.07"/>
<polygon fill="saddlebrown" stroke="saddlebrown" points="714.94,-165.14 725.43,-166.58 718.13,-158.91 714.94,-165.14"/>
</a>
</g>
</g>
<!-- github.com/guild&#45;framework/guild&#45;core/pkg/paths.EnsureCampaignDir&#45;&gt;(*github.com/guild&#45;framework/guild&#45;core/pkg/gerror.GuildError).WithOperation -->
<g id="edge8" class="edge">
<title>github.com/guild&#45;framework/guild&#45;core/pkg/paths.EnsureCampaignDir&#45;&gt;(*github.com/guild&#45;framework/guild&#45;core/pkg/gerror.GuildError).WithOperation</title>
<g id="a_edge8"><a xlink:title="at run.go:138: calling [(*github.com/guild&#45;framework/guild&#45;core/pkg/gerror.GuildError).WithOperation]">
<path fill="none" stroke="saddlebrown" d="M157.9,-136.71C204.94,-149.82 272.48,-165 332.93,-165 332.93,-165 332.93,-165 453.33,-165 537.47,-165 561.78,-154.01 642.12,-179 674.07,-188.94 676.09,-204.46 707.12,-217 714.26,-219.89 721.75,-222.54 729.36,-224.98"/>
<polygon fill="saddlebrown" stroke="saddlebrown" points="728.15,-228.27 738.73,-227.84 730.19,-221.57 728.15,-228.27"/>
</a>
</g>
</g>
<!-- github.com/guild&#45;framework/guild&#45;core/pkg/paths.EnsureCampaignDir&#45;&gt;(*github.com/guild&#45;framework/guild&#45;core/pkg/gerror.GuildError).WithDetails -->
<g id="edge13" class="edge">
<title>github.com/guild&#45;framework/guild&#45;core/pkg/paths.EnsureCampaignDir&#45;&gt;(*github.com/guild&#45;framework/guild&#45;core/pkg/gerror.GuildError).WithDetails</title>
<g id="a_edge13"><a xlink:title="at run.go:139: calling [(*github.com/guild&#45;framework/guild&#45;core/pkg/gerror.GuildError).WithDetails]">
<path fill="none" stroke="saddlebrown" d="M115.44,-136.49C151.74,-173.46 240.58,-253 332.93,-253 332.93,-253 332.93,-253 453.33,-253 551.5,-253 662.57,-271.49 738.56,-287.03"/>
<polygon fill="saddlebrown" stroke="saddlebrown" points="737.53,-290.39 748.03,-289 738.95,-283.54 737.53,-290.39"/>
</a>
</g>
</g>
<!-- github.com/guild&#45;framework/guild&#45;core/pkg/paths.GetCampaignSocket -->
<g id="node5" class="node">
<title>github.com/guild&#45;framework/guild&#45;core/pkg/paths.GetCampaignSocket</title>
<g id="a_node5"><a xlink:title="github.com/guild&#45;framework/guild&#45;core/pkg/paths.GetCampaignSocket | defined in run.go:50&#10;at run.go:51: calling [github.com/guild&#45;framework/guild&#45;core/pkg/paths.GuildRunDir]&#10;at run.go:68: calling [github.com/guild&#45;framework/guild&#45;core/pkg/gerror.New]&#10;at run.go:70: calling [(*github.com/guild&#45;framework/guild&#45;core/pkg/gerror.GuildError).WithOperation]&#10;at run.go:71: calling [(*github.com/guild&#45;framework/guild&#45;core/pkg/gerror.GuildError).WithDetails]&#10;at run.go:72: calling [(*github.com/guild&#45;framework/guild&#45;core/pkg/gerror.GuildError).WithDetails]&#10;at run.go:57: calling [github.com/guild&#45;framework/guild&#45;core/pkg/paths.GetCampaignHash]&#10;at run.go:69: calling [(*github.com/guild&#45;framework/guild&#45;core/pkg/gerror.GuildError).WithComponent]">
<path fill="lightblue" stroke="black" stroke-width="1.5" d="M404.33,-338C404.33,-338 263.54,-338 263.54,-338 257.54,-338 251.54,-332 251.54,-326 251.54,-326 251.54,-314 251.54,-314 251.54,-308 257.54,-302 263.54,-302 263.54,-302 404.33,-302 404.33,-302 410.33,-302 416.33,-308 416.33,-314 416.33,-314 416.33,-326 416.33,-326 416.33,-332 410.33,-338 404.33,-338"/>
<text xml:space="preserve" text-anchor="middle" x="333.93" y="-315.32" font-family="Verdana" font-size="14.00">GetCampaignSocket</text>
</a>
</g>
</g>
<!-- github.com/guild&#45;framework/guild&#45;core/pkg/paths.GetCampaignSocket&#45;&gt;github.com/guild&#45;framework/guild&#45;core/pkg/paths.GuildRunDir -->
<g id="edge1" class="edge">
<title>github.com/guild&#45;framework/guild&#45;core/pkg/paths.GetCampaignSocket&#45;&gt;github.com/guild&#45;framework/guild&#45;core/pkg/paths.GuildRunDir</title>
<g id="a_edge1"><a xlink:title="at run.go:51: calling [github.com/guild&#45;framework/guild&#45;core/pkg/paths.GuildRunDir]">
<path fill="none" stroke="black" d="M373.66,-301.3C412.89,-282.35 473.68,-252.98 516.13,-232.48"/>
<polygon fill="black" stroke="black" points="517.38,-235.76 524.87,-228.25 514.34,-229.45 517.38,-235.76"/>
</a>
</g>
</g>
<!-- github.com/guild&#45;framework/guild&#45;core/pkg/paths.GetCampaignHash -->
<g id="node6" class="node">
<title>github.com/guild&#45;framework/guild&#45;core/pkg/paths.GetCampaignHash</title>
<g id="a_node6"><a xlink:title="github.com/guild&#45;framework/guild&#45;core/pkg/paths.GetCampaignHash | defined in run.go:80">
<path fill="lightblue" stroke="black" stroke-width="1.5" d="M630.12,-396C630.12,-396 501.33,-396 501.33,-396 495.33,-396 489.33,-390 489.33,-384 489.33,-384 489.33,-372 489.33,-372 489.33,-366 495.33,-360 501.33,-360 501.33,-360 630.12,-360 630.12,-360 636.12,-360 642.12,-366 642.12,-372 642.12,-372 642.12,-384 642.12,-384 642.12,-390 636.12,-396 630.12,-396"/>
<text xml:space="preserve" text-anchor="middle" x="565.72" y="-373.32" font-family="Verdana" font-size="14.00">GetCampaignHash</text>
</a>
</g>
</g>
<!-- github.com/guild&#45;framework/guild&#45;core/pkg/paths.GetCampaignSocket&#45;&gt;github.com/guild&#45;framework/guild&#45;core/pkg/paths.GetCampaignHash -->
<g id="edge9" class="edge">
<title>github.com/guild&#45;framework/guild&#45;core/pkg/paths.GetCampaignSocket&#45;&gt;github.com/guild&#45;framework/guild&#45;core/pkg/paths.GetCampaignHash</title>
<g id="a_edge9"><a xlink:title="at run.go:57: calling [github.com/guild&#45;framework/guild&#45;core/pkg/paths.GetCampaignHash]">
<path fill="none" stroke="black" d="M408.91,-338.67C431.45,-344.36 456.4,-350.66 479.62,-356.52"/>
<polygon fill="black" stroke="black" points="478.48,-359.84 489.03,-358.89 480.19,-353.05 478.48,-359.84"/>
</a>
</g>
</g>
<!-- github.com/guild&#45;framework/guild&#45;core/pkg/paths.GetCampaignSocket&#45;&gt;(*github.com/guild&#45;framework/guild&#45;core/pkg/gerror.GuildError).WithComponent -->
<g id="edge12" class="edge">
<title>github.com/guild&#45;framework/guild&#45;core/pkg/paths.GetCampaignSocket&#45;&gt;(*github.com/guild&#45;framework/guild&#45;core/pkg/gerror.GuildError).WithComponent</title>
<g id="a_edge12"><a xlink:title="at run.go:69: calling [(*github.com/guild&#45;framework/guild&#45;core/pkg/gerror.GuildError).WithComponent]">
<path fill="none" stroke="saddlebrown" d="M357.6,-338.62C411.72,-380.7 550.75,-474.53 642.12,-409 715.33,-356.49 640.93,-278.11 707.12,-217 709.55,-214.76 712.12,-212.67 714.8,-210.73"/>
<polygon fill="saddlebrown" stroke="saddlebrown" points="716.48,-213.81 723.04,-205.49 712.72,-207.9 716.48,-213.81"/>
</a>
</g>
</g>
<!-- github.com/guild&#45;framework/guild&#45;core/pkg/paths.GetCampaignSocket&#45;&gt;(*github.com/guild&#45;framework/guild&#45;core/pkg/gerror.GuildError).WithOperation -->
<g id="edge3" class="edge">
<title>github.com/guild&#45;framework/guild&#45;core/pkg/paths.GetCampaignSocket&#45;&gt;(*github.com/guild&#45;framework/guild&#45;core/pkg/gerror.GuildError).WithOperation</title>
<g id="a_edge3"><a xlink:title="at run.go:70: calling [(*github.com/guild&#45;framework/guild&#45;core/pkg/gerror.GuildError).WithOperation]">
<path fill="none" stroke="saddlebrown" d="M411.11,-301.26C424.78,-298.24 438.94,-295.35 452.33,-293 537.63,-278.04 634.62,-266.35 708.98,-258.49"/>
<polygon fill="saddlebrown" stroke="saddlebrown" points="709.16,-261.99 718.75,-257.47 708.44,-255.03 709.16,-261.99"/>
</a>
</g>
</g>
<!-- github.com/guild&#45;framework/guild&#45;core/pkg/paths.GetCampaignSocket&#45;&gt;(*github.com/guild&#45;framework/guild&#45;core/pkg/gerror.GuildError).WithDetails -->
<g id="edge4" class="edge">
<title>github.com/guild&#45;framework/guild&#45;core/pkg/paths.GetCampaignSocket&#45;&gt;(*github.com/guild&#45;framework/guild&#45;core/pkg/gerror.GuildError).WithDetails</title>
<g id="a_edge4"><a xlink:title="at run.go:71: calling [(*github.com/guild&#45;framework/guild&#45;core/pkg/gerror.GuildError).WithDetails]&#10;at run.go:72: calling [(*github.com/guild&#45;framework/guild&#45;core/pkg/gerror.GuildError).WithDetails]">
<path fill="none" stroke="saddlebrown" d="M416.99,-303.17C481.76,-294.14 572.5,-291.2 642.12,-327 666.07,-339.32 654.92,-386.83 679.12,-375 697.33,-366.09 690.14,-350.08 707.12,-339 711.39,-336.21 715.89,-333.68 720.55,-331.37"/>
<polygon fill="saddlebrown" stroke="saddlebrown" points="721.91,-334.6 729.59,-327.3 719.04,-328.21 721.91,-334.6"/>
</a>
</g>
</g>
<!-- github.com/guild&#45;framework/guild&#45;core/pkg/gerror.New -->
<g id="node11" class="node">
<title>github.com/guild&#45;framework/guild&#45;core/pkg/gerror.New</title>
<g id="a_node11"><a xlink:title="github.com/guild&#45;framework/guild&#45;core/pkg/gerror.New | defined in errors.go:190">
<path fill="moccasin" stroke="black" stroke-width="1.5" d="M846.26,-387C846.26,-387 816.26,-387 816.26,-387 810.26,-387 804.26,-381 804.26,-375 804.26,-375 804.26,-363 804.26,-363 804.26,-357 810.26,-351 816.26,-351 816.26,-351 846.26,-351 846.26,-351 852.26,-351 858.26,-357 858.26,-363 858.26,-363 858.26,-375 858.26,-375 858.26,-381 852.26,-387 846.26,-387"/>
<text xml:space="preserve" text-anchor="middle" x="831.26" y="-364.32" font-family="Verdana" font-size="14.00">New</text>
</a>
</g>
</g>
<!-- github.com/guild&#45;framework/guild&#45;core/pkg/paths.GetCampaignSocket&#45;&gt;github.com/guild&#45;framework/guild&#45;core/pkg/gerror.New -->
<g id="edge2" class="edge">
<title>github.com/guild&#45;framework/guild&#45;core/pkg/paths.GetCampaignSocket&#45;&gt;github.com/guild&#45;framework/guild&#45;core/pkg/gerror.New</title>
<g id="a_edge2"><a xlink:title="at run.go:68: calling [github.com/guild&#45;framework/guild&#45;core/pkg/gerror.New]">
<path fill="none" stroke="saddlebrown" d="M416.74,-321.46C493.87,-323.91 603.25,-330.46 642.12,-348 662.48,-357.19 656.81,-382.96 679.12,-382 717.68,-380.34 761.62,-376.32 792.15,-373.19"/>
<polygon fill="saddlebrown" stroke="saddlebrown" points="792.47,-376.68 802.05,-372.15 791.74,-369.71 792.47,-376.68"/>
</a>
</g>
</g>
</g>
</svg>
