<?xml version="1.0" encoding="UTF-8" standalone="no"?>
<!DOCTYPE svg PUBLIC "-//W3C//DTD SVG 1.1//EN"
 "http://www.w3.org/Graphics/SVG/1.1/DTD/svg11.dtd">
<!-- Generated by graphviz version 14.1.1 (20251213.1925)
 -->
<!-- Title: gocallvis Pages: 1 -->
<svg width="746pt" height="361pt"
 viewBox="0.00 0.00 746.00 361.00" xmlns="http://www.w3.org/2000/svg" xmlns:xlink="http://www.w3.org/1999/xlink">
<g id="graph0" class="graph" transform="scale(1 1) rotate(0) translate(0 361)">
<title>gocallvis</title>
<polygon fill="lightgray" stroke="none" points="0,0 0,-361 746.37,-361 746.37,0 0,0"/>
<g id="clust1" class="cluster">
<title>cluster_focus</title>
<polygon fill="#e6ecfa" stroke="black" stroke-width="0.5" points="8,-8 8,-353 738.37,-353 738.37,-8 8,-8"/>
<text xml:space="preserve" text-anchor="middle" x="373.19" y="-331.9" font-family="Arial" font-size="18.00">collectors</text>
</g>
<g id="clust2" class="cluster">
<title>cluster_github.com/guild&#45;framework/guild&#45;core/pkg/gerror</title>
<g id="a_clust2"><a xlink:href="/?f=github.com/guild-framework/guild-core/pkg/gerror" xlink:title="package: github.com/guild&#45;framework/guild&#45;core/pkg/gerror">
<polygon fill="lightyellow" stroke="black" stroke-width="0.8" points="654.58,-157 654.58,-237 730.37,-237 730.37,-157 654.58,-157"/>
<text xml:space="preserve" text-anchor="middle" x="692.48" y="-217.8" font-family="Tahoma bold" font-size="16.00">gerror</text>
</a>
</g>
</g>
<!-- (*github.com/guild&#45;framework/guild&#45;core/pkg/telemetry/collectors.ChatCollector).initializeMetrics -->
<g id="node1" class="node">
<title>(*github.com/guild&#45;framework/guild&#45;core/pkg/telemetry/collectors.ChatCollector).initializeMetrics</title>
<g id="a_node1"><a xlink:title="(*github.com/guild&#45;framework/guild&#45;core/pkg/telemetry/collectors.ChatCollector).initializeMetrics | defined in chat.go:37&#10;at chat.go:45: calling [github.com/guild&#45;framework/guild&#45;core/pkg/gerror.Wrap]&#10;at chat.go:54: calling [github.com/guild&#45;framework/guild&#45;core/pkg/gerror.Wrap]&#10;at chat.go:63: calling [github.com/guild&#45;framework/guild&#45;core/pkg/gerror.Wrap]&#10;at chat.go:71: calling [github.com/guild&#45;framework/guild&#45;core/pkg/gerror.Wrap]&#10;at chat.go:80: calling [github.com/guild&#45;framework/guild&#45;core/pkg/gerror.Wrap]&#10;at chat.go:88: calling [github.com/guild&#45;framework/guild&#45;core/pkg/gerror.Wrap]&#10;at chat.go:96: calling [github.com/guild&#45;framework/guild&#45;core/pkg/gerror.Wrap]&#10;at chat.go:104: calling [github.com/guild&#45;framework/guild&#45;core/pkg/gerror.Wrap]">
<path fill="lightblue" stroke="black" stroke-width="0.5" d="M551.33,-52C551.33,-52 325.79,-52 325.79,-52 319.79,-52 313.79,-46 313.79,-40 313.79,-40 313.79,-28 313.79,-28 313.79,-22 319.79,-16 325.79,-16 325.79,-16 551.33,-16 551.33,-16 557.33,-16 563.33,-22 563.33,-28 563.33,-28 563.33,-40 563.33,-40 563.33,-46 557.33,-52 551.33,-52"/>
<text xml:space="preserve" text-anchor="middle" x="438.56" y="-29.32" font-family="Verdana" font-size="14.00">(*ChatCollector).initializeMetrics</text>
</a>
</g>
</g>
<!-- github.com/guild&#45;framework/guild&#45;core/pkg/gerror.Wrap -->
<g id="node8" class="node">
<title>github.com/guild&#45;framework/guild&#45;core/pkg/gerror.Wrap</title>
<g id="a_node8"><a xlink:title="github.com/guild&#45;framework/guild&#45;core/pkg/gerror.Wrap | defined in errors.go:223">
<path fill="moccasin" stroke="black" stroke-width="1.5" d="M710.37,-201C710.37,-201 674.58,-201 674.58,-201 668.58,-201 662.58,-195 662.58,-189 662.58,-189 662.58,-177 662.58,-177 662.58,-171 668.58,-165 674.58,-165 674.58,-165 710.37,-165 710.37,-165 716.37,-165 722.37,-171 722.37,-177 722.37,-177 722.37,-189 722.37,-189 722.37,-195 716.37,-201 710.37,-201"/>
<text xml:space="preserve" text-anchor="middle" x="692.48" y="-178.32" font-family="Verdana" font-size="14.00">Wrap</text>
</a>
</g>
</g>
<!-- (*github.com/guild&#45;framework/guild&#45;core/pkg/telemetry/collectors.ChatCollector).initializeMetrics&#45;&gt;github.com/guild&#45;framework/guild&#45;core/pkg/gerror.Wrap -->
<g id="edge9" class="edge">
<title>(*github.com/guild&#45;framework/guild&#45;core/pkg/telemetry/collectors.ChatCollector).initializeMetrics&#45;&gt;github.com/guild&#45;framework/guild&#45;core/pkg/gerror.Wrap</title>
<g id="a_edge9"><a xlink:title="at chat.go:45: calling [github.com/guild&#45;framework/guild&#45;core/pkg/gerror.Wrap]&#10;at chat.go:54: calling [github.com/guild&#45;framework/guild&#45;core/pkg/gerror.Wrap]&#10;at chat.go:63: calling [github.com/guild&#45;framework/guild&#45;core/pkg/gerror.Wrap]&#10;at chat.go:71: calling [github.com/guild&#45;framework/guild&#45;core/pkg/gerror.Wrap]&#10;at chat.go:80: calling [github.com/guild&#45;framework/guild&#45;core/pkg/gerror.Wrap]&#10;at chat.go:88: calling [github.com/guild&#45;framework/guild&#45;core/pkg/gerror.Wrap]&#10;at chat.go:96: calling [github.com/guild&#45;framework/guild&#45;core/pkg/gerror.Wrap]&#10;at chat.go:104: calling [github.com/guild&#45;framework/guild&#45;core/pkg/gerror.Wrap]">
<path fill="none" stroke="saddlebrown" d="M563.4,-43.13C585.85,-48.91 608,-57.72 626.58,-71 654.93,-91.26 672.74,-128.06 682.39,-153.94"/>
<polygon fill="saddlebrown" stroke="saddlebrown" points="679.02,-154.92 685.64,-163.19 685.62,-152.6 679.02,-154.92"/>
</a>
</g>
</g>
<!-- github.com/guild&#45;framework/guild&#45;core/pkg/telemetry/collectors.NewChatCollector -->
<g id="node2" class="node">
<title>github.com/guild&#45;framework/guild&#45;core/pkg/telemetry/collectors.NewChatCollector</title>
<g id="a_node2"><a xlink:title="github.com/guild&#45;framework/guild&#45;core/pkg/telemetry/collectors.NewChatCollector | defined in chat.go:26&#10;at chat.go:30: calling [github.com/guild&#45;framework/guild&#45;core/pkg/gerror.Wrap]&#10;at chat.go:29: calling [(*github.com/guild&#45;framework/guild&#45;core/pkg/telemetry/collectors.ChatCollector).initializeMetrics]">
<path fill="lightblue" stroke="black" stroke-width="1.5" d="M176.29,-74C176.29,-74 54.25,-74 54.25,-74 48.25,-74 42.25,-68 42.25,-62 42.25,-62 42.25,-50 42.25,-50 42.25,-44 48.25,-38 54.25,-38 54.25,-38 176.29,-38 176.29,-38 182.29,-38 188.29,-44 188.29,-50 188.29,-50 188.29,-62 188.29,-62 188.29,-68 182.29,-74 176.29,-74"/>
<text xml:space="preserve" text-anchor="middle" x="115.27" y="-51.33" font-family="Verdana" font-size="14.00">NewChatCollector</text>
</a>
</g>
</g>
<!-- github.com/guild&#45;framework/guild&#45;core/pkg/telemetry/collectors.NewChatCollector&#45;&gt;(*github.com/guild&#45;framework/guild&#45;core/pkg/telemetry/collectors.ChatCollector).initializeMetrics -->
<g id="edge10" class="edge">
<title>github.com/guild&#45;framework/guild&#45;core/pkg/telemetry/collectors.NewChatCollector&#45;&gt;(*github.com/guild&#45;framework/guild&#45;core/pkg/telemetry/collectors.ChatCollector).initializeMetrics</title>
<g id="a_edge10"><a xlink:title="at chat.go:29: calling [(*github.com/guild&#45;framework/guild&#45;core/pkg/telemetry/collectors.ChatCollector).initializeMetrics]">
<path fill="none" stroke="black" d="M188.77,-51.04C222.3,-48.74 263.23,-45.94 302.15,-43.27"/>
<polygon fill="black" stroke="black" points="302.35,-46.77 312.09,-42.59 301.88,-39.78 302.35,-46.77"/>
</a>
</g>
</g>
<!-- github.com/guild&#45;framework/guild&#45;core/pkg/telemetry/collectors.NewChatCollector&#45;&gt;github.com/guild&#45;framework/guild&#45;core/pkg/gerror.Wrap -->
<g id="edge1" class="edge">
<title>github.com/guild&#45;framework/guild&#45;core/pkg/telemetry/collectors.NewChatCollector&#45;&gt;github.com/guild&#45;framework/guild&#45;core/pkg/gerror.Wrap</title>
<g id="a_edge1"><a xlink:title="at chat.go:30: calling [github.com/guild&#45;framework/guild&#45;core/pkg/gerror.Wrap]">
<path fill="none" stroke="saddlebrown" d="M188.81,-60.29C316.92,-68.05 571.48,-84.29 589.58,-92 622.04,-105.82 651.18,-134.3 669.9,-155.74"/>
<polygon fill="saddlebrown" stroke="saddlebrown" points="667.15,-157.91 676.29,-163.28 672.49,-153.39 667.15,-157.91"/>
</a>
</g>
</g>
<!-- (*github.com/guild&#45;framework/guild&#45;core/pkg/telemetry/collectors.AgentCollector).initializeMetrics -->
<g id="node3" class="node">
<title>(*github.com/guild&#45;framework/guild&#45;core/pkg/telemetry/collectors.AgentCollector).initializeMetrics</title>
<g id="a_node3"><a xlink:title="(*github.com/guild&#45;framework/guild&#45;core/pkg/telemetry/collectors.AgentCollector).initializeMetrics | defined in agent.go:36&#10;at agent.go:45: calling [github.com/guild&#45;framework/guild&#45;core/pkg/gerror.Wrap]&#10;at agent.go:53: calling [github.com/guild&#45;framework/guild&#45;core/pkg/gerror.Wrap]&#10;at agent.go:61: calling [github.com/guild&#45;framework/guild&#45;core/pkg/gerror.Wrap]&#10;at agent.go:69: calling [github.com/guild&#45;framework/guild&#45;core/pkg/gerror.Wrap]&#10;at agent.go:77: calling [github.com/guild&#45;framework/guild&#45;core/pkg/gerror.Wrap]&#10;at agent.go:85: calling [github.com/guild&#45;framework/guild&#45;core/pkg/gerror.Wrap]&#10;at agent.go:94: calling [github.com/guild&#45;framework/guild&#45;core/pkg/gerror.Wrap]">
<path fill="lightblue" stroke="black" stroke-width="0.5" d="M555.83,-201C555.83,-201 321.29,-201 321.29,-201 315.29,-201 309.29,-195 309.29,-189 309.29,-189 309.29,-177 309.29,-177 309.29,-171 315.29,-165 321.29,-165 321.29,-165 555.83,-165 555.83,-165 561.83,-165 567.83,-171 567.83,-177 567.83,-177 567.83,-189 567.83,-189 567.83,-195 561.83,-201 555.83,-201"/>
<text xml:space="preserve" text-anchor="middle" x="438.56" y="-178.32" font-family="Verdana" font-size="14.00">(*AgentCollector).initializeMetrics</text>
</a>
</g>
</g>
<!-- (*github.com/guild&#45;framework/guild&#45;core/pkg/telemetry/collectors.AgentCollector).initializeMetrics&#45;&gt;github.com/guild&#45;framework/guild&#45;core/pkg/gerror.Wrap -->
<g id="edge5" class="edge">
<title>(*github.com/guild&#45;framework/guild&#45;core/pkg/telemetry/collectors.AgentCollector).initializeMetrics&#45;&gt;github.com/guild&#45;framework/guild&#45;core/pkg/gerror.Wrap</title>
<g id="a_edge5"><a xlink:title="at agent.go:45: calling [github.com/guild&#45;framework/guild&#45;core/pkg/gerror.Wrap]&#10;at agent.go:53: calling [github.com/guild&#45;framework/guild&#45;core/pkg/gerror.Wrap]&#10;at agent.go:61: calling [github.com/guild&#45;framework/guild&#45;core/pkg/gerror.Wrap]&#10;at agent.go:69: calling [github.com/guild&#45;framework/guild&#45;core/pkg/gerror.Wrap]&#10;at agent.go:77: calling [github.com/guild&#45;framework/guild&#45;core/pkg/gerror.Wrap]&#10;at agent.go:85: calling [github.com/guild&#45;framework/guild&#45;core/pkg/gerror.Wrap]&#10;at agent.go:94: calling [github.com/guild&#45;framework/guild&#45;core/pkg/gerror.Wrap]">
<path fill="none" stroke="saddlebrown" d="M567.73,-183C597.95,-183 628.01,-183 650.93,-183"/>
<polygon fill="saddlebrown" stroke="saddlebrown" points="650.71,-186.5 660.71,-183 650.71,-179.5 650.71,-186.5"/>
</a>
</g>
</g>
<!-- (*github.com/guild&#45;framework/guild&#45;core/pkg/telemetry/collectors.SystemCollector).Register -->
<g id="node4" class="node">
<title>(*github.com/guild&#45;framework/guild&#45;core/pkg/telemetry/collectors.SystemCollector).Register</title>
<g id="a_node4"><a xlink:title="(*github.com/guild&#45;framework/guild&#45;core/pkg/telemetry/collectors.SystemCollector).Register | defined in system.go:36&#10;at system.go:47: calling [github.com/guild&#45;framework/guild&#45;core/pkg/gerror.Wrap]&#10;at system.go:58: calling [github.com/guild&#45;framework/guild&#45;core/pkg/gerror.Wrap]&#10;at system.go:69: calling [github.com/guild&#45;framework/guild&#45;core/pkg/gerror.Wrap]&#10;at system.go:79: calling [github.com/guild&#45;framework/guild&#45;core/pkg/gerror.Wrap]&#10;at system.go:89: calling [github.com/guild&#45;framework/guild&#45;core/pkg/gerror.Wrap]&#10;at system.go:100: calling [github.com/guild&#45;framework/guild&#45;core/pkg/gerror.Wrap]&#10;at system.go:110: calling [github.com/guild&#45;framework/guild&#45;core/pkg/gerror.Wrap]&#10;at system.go:121: calling [github.com/guild&#45;framework/guild&#45;core/pkg/gerror.Wrap]&#10;at system.go:131: calling [github.com/guild&#45;framework/guild&#45;core/pkg/gerror.Wrap]&#10;at system.go:140: calling [github.com/guild&#45;framework/guild&#45;core/pkg/gerror.Wrap]">
<path fill="lightblue" stroke="black" stroke-width="1.5" d="M536.71,-140C536.71,-140 340.42,-140 340.42,-140 334.42,-140 328.42,-134 328.42,-128 328.42,-128 328.42,-116 328.42,-116 328.42,-110 334.42,-104 340.42,-104 340.42,-104 536.71,-104 536.71,-104 542.71,-104 548.71,-110 548.71,-116 548.71,-116 548.71,-128 548.71,-128 548.71,-134 542.71,-140 536.71,-140"/>
<text xml:space="preserve" text-anchor="middle" x="438.56" y="-117.33" font-family="Verdana" font-size="14.00">(*SystemCollector).Register</text>
</a>
</g>
</g>
<!-- (*github.com/guild&#45;framework/guild&#45;core/pkg/telemetry/collectors.SystemCollector).Register&#45;&gt;github.com/guild&#45;framework/guild&#45;core/pkg/gerror.Wrap -->
<g id="edge6" class="edge">
<title>(*github.com/guild&#45;framework/guild&#45;core/pkg/telemetry/collectors.SystemCollector).Register&#45;&gt;github.com/guild&#45;framework/guild&#45;core/pkg/gerror.Wrap</title>
<g id="a_edge6"><a xlink:title="at system.go:47: calling [github.com/guild&#45;framework/guild&#45;core/pkg/gerror.Wrap]&#10;at system.go:58: calling [github.com/guild&#45;framework/guild&#45;core/pkg/gerror.Wrap]&#10;at system.go:69: calling [github.com/guild&#45;framework/guild&#45;core/pkg/gerror.Wrap]&#10;at system.go:79: calling [github.com/guild&#45;framework/guild&#45;core/pkg/gerror.Wrap]&#10;at system.go:89: calling [github.com/guild&#45;framework/guild&#45;core/pkg/gerror.Wrap]&#10;at system.go:100: calling [github.com/guild&#45;framework/guild&#45;core/pkg/gerror.Wrap]&#10;at system.go:110: calling [github.com/guild&#45;framework/guild&#45;core/pkg/gerror.Wrap]&#10;at system.go:121: calling [github.com/guild&#45;framework/guild&#45;core/pkg/gerror.Wrap]&#10;at system.go:131: calling [github.com/guild&#45;framework/guild&#45;core/pkg/gerror.Wrap]&#10;at system.go:140: calling [github.com/guild&#45;framework/guild&#45;core/pkg/gerror.Wrap]">
<path fill="none" stroke="saddlebrown" d="M535.86,-140.67C553.78,-144.49 572.29,-148.68 589.58,-153 610.12,-158.14 632.73,-164.7 651.43,-170.38"/>
<polygon fill="saddlebrown" stroke="saddlebrown" points="650.19,-173.66 660.77,-173.25 652.24,-166.97 650.19,-173.66"/>
</a>
</g>
</g>
<!-- (*github.com/guild&#45;framework/guild&#45;core/pkg/telemetry/collectors.CommissionCollector).initializeMetrics -->
<g id="node5" class="node">
<title>(*github.com/guild&#45;framework/guild&#45;core/pkg/telemetry/collectors.CommissionCollector).initializeMetrics</title>
<g id="a_node5"><a xlink:title="(*github.com/guild&#45;framework/guild&#45;core/pkg/telemetry/collectors.CommissionCollector).initializeMetrics | defined in commission.go:38&#10;at commission.go:47: calling [github.com/guild&#45;framework/guild&#45;core/pkg/gerror.Wrap]&#10;at commission.go:55: calling [github.com/guild&#45;framework/guild&#45;core/pkg/gerror.Wrap]&#10;at commission.go:63: calling [github.com/guild&#45;framework/guild&#45;core/pkg/gerror.Wrap]&#10;at commission.go:71: calling [github.com/guild&#45;framework/guild&#45;core/pkg/gerror.Wrap]&#10;at commission.go:79: calling [github.com/guild&#45;framework/guild&#45;core/pkg/gerror.Wrap]&#10;at commission.go:87: calling [github.com/guild&#45;framework/guild&#45;core/pkg/gerror.Wrap]&#10;at commission.go:95: calling [github.com/guild&#45;framework/guild&#45;core/pkg/gerror.Wrap]&#10;at commission.go:103: calling [github.com/guild&#45;framework/guild&#45;core/pkg/gerror.Wrap]&#10;at commission.go:112: calling [github.com/guild&#45;framework/guild&#45;core/pkg/gerror.Wrap]">
<path fill="lightblue" stroke="black" stroke-width="0.5" d="M577.58,-289C577.58,-289 299.54,-289 299.54,-289 293.54,-289 287.54,-283 287.54,-277 287.54,-277 287.54,-265 287.54,-265 287.54,-259 293.54,-253 299.54,-253 299.54,-253 577.58,-253 577.58,-253 583.58,-253 589.58,-259 589.58,-265 589.58,-265 589.58,-277 589.58,-277 589.58,-283 583.58,-289 577.58,-289"/>
<text xml:space="preserve" text-anchor="middle" x="438.56" y="-266.32" font-family="Verdana" font-size="14.00">(*CommissionCollector).initializeMetrics</text>
</a>
</g>
</g>
<!-- (*github.com/guild&#45;framework/guild&#45;core/pkg/telemetry/collectors.CommissionCollector).initializeMetrics&#45;&gt;github.com/guild&#45;framework/guild&#45;core/pkg/gerror.Wrap -->
<g id="edge7" class="edge">
<title>(*github.com/guild&#45;framework/guild&#45;core/pkg/telemetry/collectors.CommissionCollector).initializeMetrics&#45;&gt;github.com/guild&#45;framework/guild&#45;core/pkg/gerror.Wrap</title>
<g id="a_edge7"><a xlink:title="at commission.go:47: calling [github.com/guild&#45;framework/guild&#45;core/pkg/gerror.Wrap]&#10;at commission.go:55: calling [github.com/guild&#45;framework/guild&#45;core/pkg/gerror.Wrap]&#10;at commission.go:63: calling [github.com/guild&#45;framework/guild&#45;core/pkg/gerror.Wrap]&#10;at commission.go:71: calling [github.com/guild&#45;framework/guild&#45;core/pkg/gerror.Wrap]&#10;at commission.go:79: calling [github.com/guild&#45;framework/guild&#45;core/pkg/gerror.Wrap]&#10;at commission.go:87: calling [github.com/guild&#45;framework/guild&#45;core/pkg/gerror.Wrap]&#10;at commission.go:95: calling [github.com/guild&#45;framework/guild&#45;core/pkg/gerror.Wrap]&#10;at commission.go:103: calling [github.com/guild&#45;framework/guild&#45;core/pkg/gerror.Wrap]&#10;at commission.go:112: calling [github.com/guild&#45;framework/guild&#45;core/pkg/gerror.Wrap]">
<path fill="none" stroke="saddlebrown" d="M572.31,-252.84C590.99,-247.97 609.59,-241.81 626.58,-234 640.01,-227.83 653.15,-218.36 664.05,-209.24"/>
<polygon fill="saddlebrown" stroke="saddlebrown" points="666.27,-211.95 671.5,-202.74 661.67,-206.68 666.27,-211.95"/>
</a>
</g>
</g>
<!-- github.com/guild&#45;framework/guild&#45;core/pkg/telemetry/collectors.NewAgentCollector -->
<g id="node6" class="node">
<title>github.com/guild&#45;framework/guild&#45;core/pkg/telemetry/collectors.NewAgentCollector</title>
<g id="a_node6"><a xlink:title="github.com/guild&#45;framework/guild&#45;core/pkg/telemetry/collectors.NewAgentCollector | defined in agent.go:25&#10;at agent.go:28: calling [(*github.com/guild&#45;framework/guild&#45;core/pkg/telemetry/collectors.AgentCollector).initializeMetrics]&#10;at agent.go:29: calling [github.com/guild&#45;framework/guild&#45;core/pkg/gerror.Wrap]">
<path fill="lightblue" stroke="black" stroke-width="1.5" d="M180.79,-223C180.79,-223 49.75,-223 49.75,-223 43.75,-223 37.75,-217 37.75,-211 37.75,-211 37.75,-199 37.75,-199 37.75,-193 43.75,-187 49.75,-187 49.75,-187 180.79,-187 180.79,-187 186.79,-187 192.79,-193 192.79,-199 192.79,-199 192.79,-211 192.79,-211 192.79,-217 186.79,-223 180.79,-223"/>
<text xml:space="preserve" text-anchor="middle" x="115.27" y="-200.32" font-family="Verdana" font-size="14.00">NewAgentCollector</text>
</a>
</g>
</g>
<!-- github.com/guild&#45;framework/guild&#45;core/pkg/telemetry/collectors.NewAgentCollector&#45;&gt;(*github.com/guild&#45;framework/guild&#45;core/pkg/telemetry/collectors.AgentCollector).initializeMetrics -->
<g id="edge2" class="edge">
<title>github.com/guild&#45;framework/guild&#45;core/pkg/telemetry/collectors.NewAgentCollector&#45;&gt;(*github.com/guild&#45;framework/guild&#45;core/pkg/telemetry/collectors.AgentCollector).initializeMetrics</title>
<g id="a_edge2"><a xlink:title="at agent.go:28: calling [(*github.com/guild&#45;framework/guild&#45;core/pkg/telemetry/collectors.AgentCollector).initializeMetrics]">
<path fill="none" stroke="black" d="M193.23,-199.73C224.69,-197.58 262.09,-195.02 298.05,-192.55"/>
<polygon fill="black" stroke="black" points="297.91,-196.07 307.65,-191.9 297.44,-189.09 297.91,-196.07"/>
</a>
</g>
</g>
<!-- github.com/guild&#45;framework/guild&#45;core/pkg/telemetry/collectors.NewAgentCollector&#45;&gt;github.com/guild&#45;framework/guild&#45;core/pkg/gerror.Wrap -->
<g id="edge3" class="edge">
<title>github.com/guild&#45;framework/guild&#45;core/pkg/telemetry/collectors.NewAgentCollector&#45;&gt;github.com/guild&#45;framework/guild&#45;core/pkg/gerror.Wrap</title>
<g id="a_edge3"><a xlink:title="at agent.go:29: calling [github.com/guild&#45;framework/guild&#45;core/pkg/gerror.Wrap]">
<path fill="none" stroke="saddlebrown" d="M193.42,-214.28C287.53,-223.81 451.18,-234.59 589.58,-214 610.43,-210.9 632.91,-204.41 651.44,-198.17"/>
<polygon fill="saddlebrown" stroke="saddlebrown" points="652.41,-201.54 660.71,-194.95 650.11,-194.93 652.41,-201.54"/>
</a>
</g>
</g>
<!-- github.com/guild&#45;framework/guild&#45;core/pkg/telemetry/collectors.NewCommissionCollector -->
<g id="node7" class="node">
<title>github.com/guild&#45;framework/guild&#45;core/pkg/telemetry/collectors.NewCommissionCollector</title>
<g id="a_node7"><a xlink:title="github.com/guild&#45;framework/guild&#45;core/pkg/telemetry/collectors.NewCommissionCollector | defined in commission.go:27&#10;at commission.go:30: calling [(*github.com/guild&#45;framework/guild&#45;core/pkg/telemetry/collectors.CommissionCollector).initializeMetrics]&#10;at commission.go:31: calling [github.com/guild&#45;framework/guild&#45;core/pkg/gerror.Wrap]">
<path fill="lightblue" stroke="black" stroke-width="1.5" d="M202.54,-311C202.54,-311 28,-311 28,-311 22,-311 16,-305 16,-299 16,-299 16,-287 16,-287 16,-281 22,-275 28,-275 28,-275 202.54,-275 202.54,-275 208.54,-275 214.54,-281 214.54,-287 214.54,-287 214.54,-299 214.54,-299 214.54,-305 208.54,-311 202.54,-311"/>
<text xml:space="preserve" text-anchor="middle" x="115.27" y="-288.32" font-family="Verdana" font-size="14.00">NewCommissionCollector</text>
</a>
</g>
</g>
<!-- github.com/guild&#45;framework/guild&#45;core/pkg/telemetry/collectors.NewCommissionCollector&#45;&gt;(*github.com/guild&#45;framework/guild&#45;core/pkg/telemetry/collectors.CommissionCollector).initializeMetrics -->
<g id="edge4" class="edge">
<title>github.com/guild&#45;framework/guild&#45;core/pkg/telemetry/collectors.NewCommissionCollector&#45;&gt;(*github.com/guild&#45;framework/guild&#45;core/pkg/telemetry/collectors.CommissionCollector).initializeMetrics</title>
<g id="a_edge4"><a xlink:title="at commission.go:30: calling [(*github.com/guild&#45;framework/guild&#45;core/pkg/telemetry/collectors.CommissionCollector).initializeMetrics]">
<path fill="none" stroke="black" d="M215.29,-286.22C234.67,-284.89 255.46,-283.47 276.26,-282.04"/>
<polygon fill="black" stroke="black" points="276.23,-285.56 285.97,-281.38 275.75,-278.57 276.23,-285.56"/>
</a>
</g>
</g>
<!-- github.com/guild&#45;framework/guild&#45;core/pkg/telemetry/collectors.NewCommissionCollector&#45;&gt;github.com/guild&#45;framework/guild&#45;core/pkg/gerror.Wrap -->
<g id="edge8" class="edge">
<title>github.com/guild&#45;framework/guild&#45;core/pkg/telemetry/collectors.NewCommissionCollector&#45;&gt;github.com/guild&#45;framework/guild&#45;core/pkg/gerror.Wrap</title>
<g id="a_edge8"><a xlink:title="at commission.go:31: calling [github.com/guild&#45;framework/guild&#45;core/pkg/gerror.Wrap]">
<path fill="none" stroke="saddlebrown" d="M183.1,-311.74C278.28,-334.68 456.13,-363.42 589.58,-302 629.85,-283.47 660.14,-240.3 676.84,-211.37"/>
<polygon fill="saddlebrown" stroke="saddlebrown" points="679.83,-213.2 681.64,-202.76 673.72,-209.79 679.83,-213.2"/>
</a>
</g>
</g>
</g>
</svg>
