<?xml version="1.0" encoding="UTF-8" standalone="no"?>
<!DOCTYPE svg PUBLIC "-//W3C//DTD SVG 1.1//EN"
 "http://www.w3.org/Graphics/SVG/1.1/DTD/svg11.dtd">
<!-- Generated by graphviz version 14.1.1 (20251213.1925)
 -->
<!-- Title: gocallvis Pages: 1 -->
<svg width="575pt" height="585pt"
 viewBox="0.00 0.00 575.00 585.00" xmlns="http://www.w3.org/2000/svg" xmlns:xlink="http://www.w3.org/1999/xlink">
<g id="graph0" class="graph" transform="scale(1 1) rotate(0) translate(0 585)">
<title>gocallvis</title>
<polygon fill="lightgray" stroke="none" points="0,0 0,-585 574.58,-585 574.58,0 0,0"/>
<g id="clust1" class="cluster">
<title>cluster_focus</title>
<polygon fill="#e6ecfa" stroke="black" stroke-width="0.5" points="8,-8 8,-577 566.58,-577 566.58,-8 8,-8"/>
<text xml:space="preserve" text-anchor="middle" x="287.29" y="-555.9" font-family="Arial" font-size="18.00">grpc</text>
</g>
<g id="clust2" class="cluster">
<title>cluster_github.com/guild&#45;framework/guild&#45;core/pkg/mcp/server</title>
<g id="a_clust2"><a xlink:href="/?f=github.com/guild-framework/guild-core/pkg/mcp/server" xlink:title="package: github.com/guild&#45;framework/guild&#45;core/pkg/mcp/server">
<polygon fill="lightyellow" stroke="black" stroke-width="0.8" points="327.54,-218 327.54,-420 558.58,-420 558.58,-218 327.54,-218"/>
<text xml:space="preserve" text-anchor="middle" x="443.06" y="-400.8" font-family="Tahoma bold" font-size="16.00">server</text>
</a>
</g>
</g>
<g id="clust3" class="cluster">
<title>cluster_github.com/guild&#45;framework/guild&#45;core/pkg/mcp/tools</title>
<g id="a_clust3"><a xlink:href="/?f=github.com/guild-framework/guild-core/pkg/mcp/tools" xlink:title="package: github.com/guild&#45;framework/guild&#45;core/pkg/mcp/tools">
<polygon fill="lightyellow" stroke="black" stroke-width="0.8" points="378.54,-16 378.54,-96 507.58,-96 507.58,-16 378.54,-16"/>
<text xml:space="preserve" text-anchor="middle" x="443.06" y="-76.8" font-family="Tahoma bold" font-size="16.00">tools</text>
</a>
</g>
</g>
<!-- (*github.com/guild&#45;framework/guild&#45;core/pkg/mcp/grpc.MCPService).QueryCosts -->
<g id="node1" class="node">
<title>(*github.com/guild&#45;framework/guild&#45;core/pkg/mcp/grpc.MCPService).QueryCosts</title>
<g id="a_node1"><a xlink:title="(*github.com/guild&#45;framework/guild&#45;core/pkg/mcp/grpc.MCPService).QueryCosts | defined in service.go:222&#10;at service.go:232: calling [(*github.com/guild&#45;framework/guild&#45;core/pkg/mcp/server.Server).GetCostObserver]">
<path fill="lightblue" stroke="black" stroke-width="1.5" d="M233.29,-174C233.29,-174 45.25,-174 45.25,-174 39.25,-174 33.25,-168 33.25,-162 33.25,-162 33.25,-150 33.25,-150 33.25,-144 39.25,-138 45.25,-138 45.25,-138 233.29,-138 233.29,-138 239.29,-138 245.29,-144 245.29,-150 245.29,-150 245.29,-162 245.29,-162 245.29,-168 239.29,-174 233.29,-174"/>
<text xml:space="preserve" text-anchor="middle" x="139.27" y="-151.32" font-family="Verdana" font-size="14.00">(*MCPService).QueryCosts</text>
</a>
</g>
</g>
<!-- (*github.com/guild&#45;framework/guild&#45;core/pkg/mcp/server.Server).GetCostObserver -->
<g id="node14" class="node">
<title>(*github.com/guild&#45;framework/guild&#45;core/pkg/mcp/server.Server).GetCostObserver</title>
<g id="a_node14"><a xlink:title="(*github.com/guild&#45;framework/guild&#45;core/pkg/mcp/server.Server).GetCostObserver | defined in server.go:841">
<path fill="moccasin" stroke="black" stroke-width="1.5" d="M538.58,-262C538.58,-262 347.54,-262 347.54,-262 341.54,-262 335.54,-256 335.54,-250 335.54,-250 335.54,-238 335.54,-238 335.54,-232 341.54,-226 347.54,-226 347.54,-226 538.58,-226 538.58,-226 544.58,-226 550.58,-232 550.58,-238 550.58,-238 550.58,-250 550.58,-250 550.58,-256 544.58,-262 538.58,-262"/>
<text xml:space="preserve" text-anchor="middle" x="443.06" y="-239.32" font-family="Verdana" font-size="14.00">(*Server).GetCostObserver</text>
</a>
</g>
</g>
<!-- (*github.com/guild&#45;framework/guild&#45;core/pkg/mcp/grpc.MCPService).QueryCosts&#45;&gt;(*github.com/guild&#45;framework/guild&#45;core/pkg/mcp/server.Server).GetCostObserver -->
<g id="edge13" class="edge">
<title>(*github.com/guild&#45;framework/guild&#45;core/pkg/mcp/grpc.MCPService).QueryCosts&#45;&gt;(*github.com/guild&#45;framework/guild&#45;core/pkg/mcp/server.Server).GetCostObserver</title>
<g id="a_edge13"><a xlink:title="at service.go:232: calling [(*github.com/guild&#45;framework/guild&#45;core/pkg/mcp/server.Server).GetCostObserver]">
<path fill="none" stroke="saddlebrown" d="M225.31,-174.68C237.95,-178.28 250.7,-182.39 262.54,-187 290.25,-197.78 295.73,-208.73 326.91,-221.33"/>
<polygon fill="saddlebrown" stroke="saddlebrown" points="325.46,-224.52 336.05,-224.76 327.92,-217.97 325.46,-224.52"/>
</a>
</g>
</g>
<!-- (*github.com/guild&#45;framework/guild&#45;core/pkg/mcp/grpc.MCPService).Ping -->
<g id="node2" class="node">
<title>(*github.com/guild&#45;framework/guild&#45;core/pkg/mcp/grpc.MCPService).Ping</title>
<g id="a_node2"><a xlink:title="(*github.com/guild&#45;framework/guild&#45;core/pkg/mcp/grpc.MCPService).Ping | defined in service.go:272&#10;at service.go:275: calling [(*github.com/guild&#45;framework/guild&#45;core/pkg/mcp/server.Server).GetConfig]">
<path fill="lightblue" stroke="black" stroke-width="1.5" d="M207.79,-479C207.79,-479 70.75,-479 70.75,-479 64.75,-479 58.75,-473 58.75,-467 58.75,-467 58.75,-455 58.75,-455 58.75,-449 64.75,-443 70.75,-443 70.75,-443 207.79,-443 207.79,-443 213.79,-443 219.79,-449 219.79,-455 219.79,-455 219.79,-467 219.79,-467 219.79,-473 213.79,-479 207.79,-479"/>
<text xml:space="preserve" text-anchor="middle" x="139.27" y="-456.32" font-family="Verdana" font-size="14.00">(*MCPService).Ping</text>
</a>
</g>
</g>
<!-- (*github.com/guild&#45;framework/guild&#45;core/pkg/mcp/server.Server).GetConfig -->
<g id="node15" class="node">
<title>(*github.com/guild&#45;framework/guild&#45;core/pkg/mcp/server.Server).GetConfig</title>
<g id="a_node15"><a xlink:title="(*github.com/guild&#45;framework/guild&#45;core/pkg/mcp/server.Server).GetConfig | defined in server.go:831">
<path fill="moccasin" stroke="black" stroke-width="1.5" d="M513.45,-384C513.45,-384 372.66,-384 372.66,-384 366.66,-384 360.66,-378 360.66,-372 360.66,-372 360.66,-360 360.66,-360 360.66,-354 366.66,-348 372.66,-348 372.66,-348 513.45,-348 513.45,-348 519.45,-348 525.45,-354 525.45,-360 525.45,-360 525.45,-372 525.45,-372 525.45,-378 519.45,-384 513.45,-384"/>
<text xml:space="preserve" text-anchor="middle" x="443.06" y="-361.32" font-family="Verdana" font-size="14.00">(*Server).GetConfig</text>
</a>
</g>
</g>
<!-- (*github.com/guild&#45;framework/guild&#45;core/pkg/mcp/grpc.MCPService).Ping&#45;&gt;(*github.com/guild&#45;framework/guild&#45;core/pkg/mcp/server.Server).GetConfig -->
<g id="edge4" class="edge">
<title>(*github.com/guild&#45;framework/guild&#45;core/pkg/mcp/grpc.MCPService).Ping&#45;&gt;(*github.com/guild&#45;framework/guild&#45;core/pkg/mcp/server.Server).GetConfig</title>
<g id="a_edge4"><a xlink:title="at service.go:275: calling [(*github.com/guild&#45;framework/guild&#45;core/pkg/mcp/server.Server).GetConfig]">
<path fill="none" stroke="saddlebrown" d="M220.51,-445.51C234.8,-441.58 249.32,-436.78 262.54,-431 294.27,-417.11 295.47,-401.08 327.54,-388 334.47,-385.18 341.78,-382.71 349.23,-380.55"/>
<polygon fill="saddlebrown" stroke="saddlebrown" points="349.98,-383.98 358.73,-378.01 348.17,-377.21 349.98,-383.98"/>
</a>
</g>
</g>
<!-- (*github.com/guild&#45;framework/guild&#45;core/pkg/mcp/grpc.MCPService).RegisterTool -->
<g id="node3" class="node">
<title>(*github.com/guild&#45;framework/guild&#45;core/pkg/mcp/grpc.MCPService).RegisterTool</title>
<g id="a_node3"><a xlink:title="(*github.com/guild&#45;framework/guild&#45;core/pkg/mcp/grpc.MCPService).RegisterTool | defined in service.go:36&#10;at service.go:47: calling [github.com/guild&#45;framework/guild&#45;core/pkg/mcp/grpc.convertParameters]&#10;at service.go:48: calling [github.com/guild&#45;framework/guild&#45;core/pkg/mcp/grpc.convertParameters]&#10;at service.go:49: calling [github.com/guild&#45;framework/guild&#45;core/pkg/mcp/grpc.convertCostProfile]&#10;at service.go:63: calling [github.com/guild&#45;framework/guild&#45;core/pkg/mcp/tools.NewBaseTool]&#10;at service.go:76: calling [(*github.com/guild&#45;framework/guild&#45;core/pkg/mcp/server.Server).GetToolRegistry]">
<path fill="lightblue" stroke="black" stroke-width="1.5" d="M235.54,-52C235.54,-52 43,-52 43,-52 37,-52 31,-46 31,-40 31,-40 31,-28 31,-28 31,-22 37,-16 43,-16 43,-16 235.54,-16 235.54,-16 241.54,-16 247.54,-22 247.54,-28 247.54,-28 247.54,-40 247.54,-40 247.54,-46 241.54,-52 235.54,-52"/>
<text xml:space="preserve" text-anchor="middle" x="139.27" y="-29.32" font-family="Verdana" font-size="14.00">(*MCPService).RegisterTool</text>
</a>
</g>
</g>
<!-- github.com/guild&#45;framework/guild&#45;core/pkg/mcp/grpc.convertParameters -->
<g id="node4" class="node">
<title>github.com/guild&#45;framework/guild&#45;core/pkg/mcp/grpc.convertParameters</title>
<g id="a_node4"><a xlink:title="github.com/guild&#45;framework/guild&#45;core/pkg/mcp/grpc.convertParameters | defined in service.go:304">
<path fill="lightblue" stroke="black" stroke-width="0.5" d="M508.58,-140C508.58,-140 377.54,-140 377.54,-140 371.54,-140 365.54,-134 365.54,-128 365.54,-128 365.54,-116 365.54,-116 365.54,-110 371.54,-104 377.54,-104 377.54,-104 508.58,-104 508.58,-104 514.58,-104 520.58,-110 520.58,-116 520.58,-116 520.58,-128 520.58,-128 520.58,-134 514.58,-140 508.58,-140"/>
<text xml:space="preserve" text-anchor="middle" x="443.06" y="-117.33" font-family="Verdana" font-size="14.00">convertParameters</text>
</a>
</g>
</g>
<!-- (*github.com/guild&#45;framework/guild&#45;core/pkg/mcp/grpc.MCPService).RegisterTool&#45;&gt;github.com/guild&#45;framework/guild&#45;core/pkg/mcp/grpc.convertParameters -->
<g id="edge5" class="edge">
<title>(*github.com/guild&#45;framework/guild&#45;core/pkg/mcp/grpc.MCPService).RegisterTool&#45;&gt;github.com/guild&#45;framework/guild&#45;core/pkg/mcp/grpc.convertParameters</title>
<g id="a_edge5"><a xlink:title="at service.go:47: calling [github.com/guild&#45;framework/guild&#45;core/pkg/mcp/grpc.convertParameters]&#10;at service.go:48: calling [github.com/guild&#45;framework/guild&#45;core/pkg/mcp/grpc.convertParameters]">
<path fill="none" stroke="black" d="M225.31,-52.68C237.95,-56.28 250.7,-60.39 262.54,-65 293.12,-76.9 296.63,-89 327.54,-100 336.08,-103.04 345.14,-105.69 354.28,-107.99"/>
<polygon fill="black" stroke="black" points="353.41,-111.38 363.95,-110.28 355.03,-104.57 353.41,-111.38"/>
</a>
</g>
</g>
<!-- github.com/guild&#45;framework/guild&#45;core/pkg/mcp/grpc.convertCostProfile -->
<g id="node5" class="node">
<title>github.com/guild&#45;framework/guild&#45;core/pkg/mcp/grpc.convertCostProfile</title>
<g id="a_node5"><a xlink:title="github.com/guild&#45;framework/guild&#45;core/pkg/mcp/grpc.convertCostProfile | defined in service.go:341">
<path fill="lightblue" stroke="black" stroke-width="0.5" d="M505.95,-201C505.95,-201 380.16,-201 380.16,-201 374.16,-201 368.16,-195 368.16,-189 368.16,-189 368.16,-177 368.16,-177 368.16,-171 374.16,-165 380.16,-165 380.16,-165 505.95,-165 505.95,-165 511.95,-165 517.95,-171 517.95,-177 517.95,-177 517.95,-189 517.95,-189 517.95,-195 511.95,-201 505.95,-201"/>
<text xml:space="preserve" text-anchor="middle" x="443.06" y="-178.32" font-family="Verdana" font-size="14.00">convertCostProfile</text>
</a>
</g>
</g>
<!-- (*github.com/guild&#45;framework/guild&#45;core/pkg/mcp/grpc.MCPService).RegisterTool&#45;&gt;github.com/guild&#45;framework/guild&#45;core/pkg/mcp/grpc.convertCostProfile -->
<g id="edge7" class="edge">
<title>(*github.com/guild&#45;framework/guild&#45;core/pkg/mcp/grpc.MCPService).RegisterTool&#45;&gt;github.com/guild&#45;framework/guild&#45;core/pkg/mcp/grpc.convertCostProfile</title>
<g id="a_edge7"><a xlink:title="at service.go:49: calling [github.com/guild&#45;framework/guild&#45;core/pkg/mcp/grpc.convertCostProfile]">
<path fill="none" stroke="black" d="M239.3,-52.67C247.48,-56.1 255.36,-60.18 262.54,-65 302.9,-92.11 287.28,-125.73 327.54,-153 336.6,-159.14 346.85,-164.02 357.39,-167.9"/>
<polygon fill="black" stroke="black" points="355.98,-171.12 366.57,-170.98 358.21,-164.48 355.98,-171.12"/>
</a>
</g>
</g>
<!-- (*github.com/guild&#45;framework/guild&#45;core/pkg/mcp/server.Server).GetToolRegistry -->
<g id="node16" class="node">
<title>(*github.com/guild&#45;framework/guild&#45;core/pkg/mcp/server.Server).GetToolRegistry</title>
<g id="a_node16"><a xlink:title="(*github.com/guild&#45;framework/guild&#45;core/pkg/mcp/server.Server).GetToolRegistry | defined in server.go:836">
<path fill="moccasin" stroke="black" stroke-width="1.5" d="M533.7,-323C533.7,-323 352.41,-323 352.41,-323 346.41,-323 340.41,-317 340.41,-311 340.41,-311 340.41,-299 340.41,-299 340.41,-293 346.41,-287 352.41,-287 352.41,-287 533.7,-287 533.7,-287 539.7,-287 545.7,-293 545.7,-299 545.7,-299 545.7,-311 545.7,-311 545.7,-317 539.7,-323 533.7,-323"/>
<text xml:space="preserve" text-anchor="middle" x="443.06" y="-300.32" font-family="Verdana" font-size="14.00">(*Server).GetToolRegistry</text>
</a>
</g>
</g>
<!-- (*github.com/guild&#45;framework/guild&#45;core/pkg/mcp/grpc.MCPService).RegisterTool&#45;&gt;(*github.com/guild&#45;framework/guild&#45;core/pkg/mcp/server.Server).GetToolRegistry -->
<g id="edge9" class="edge">
<title>(*github.com/guild&#45;framework/guild&#45;core/pkg/mcp/grpc.MCPService).RegisterTool&#45;&gt;(*github.com/guild&#45;framework/guild&#45;core/pkg/mcp/server.Server).GetToolRegistry</title>
<g id="a_edge9"><a xlink:title="at service.go:76: calling [(*github.com/guild&#45;framework/guild&#45;core/pkg/mcp/server.Server).GetToolRegistry]">
<path fill="none" stroke="saddlebrown" d="M245.9,-52.75C251.91,-56.2 257.54,-60.25 262.54,-65 333.39,-132.27 256.95,-207.45 327.54,-275 329.38,-276.76 331.31,-278.42 333.32,-279.99"/>
<polygon fill="saddlebrown" stroke="saddlebrown" points="331.08,-282.7 341.32,-285.41 335.01,-276.9 331.08,-282.7"/>
</a>
</g>
</g>
<!-- github.com/guild&#45;framework/guild&#45;core/pkg/mcp/tools.NewBaseTool -->
<g id="node17" class="node">
<title>github.com/guild&#45;framework/guild&#45;core/pkg/mcp/tools.NewBaseTool</title>
<g id="a_node17"><a xlink:title="github.com/guild&#45;framework/guild&#45;core/pkg/mcp/tools.NewBaseTool | defined in registry.go:282">
<path fill="moccasin" stroke="black" stroke-width="1.5" d="M487.58,-60C487.58,-60 398.54,-60 398.54,-60 392.54,-60 386.54,-54 386.54,-48 386.54,-48 386.54,-36 386.54,-36 386.54,-30 392.54,-24 398.54,-24 398.54,-24 487.58,-24 487.58,-24 493.58,-24 499.58,-30 499.58,-36 499.58,-36 499.58,-48 499.58,-48 499.58,-54 493.58,-60 487.58,-60"/>
<text xml:space="preserve" text-anchor="middle" x="443.06" y="-37.33" font-family="Verdana" font-size="14.00">NewBaseTool</text>
</a>
</g>
</g>
<!-- (*github.com/guild&#45;framework/guild&#45;core/pkg/mcp/grpc.MCPService).RegisterTool&#45;&gt;github.com/guild&#45;framework/guild&#45;core/pkg/mcp/tools.NewBaseTool -->
<g id="edge8" class="edge">
<title>(*github.com/guild&#45;framework/guild&#45;core/pkg/mcp/grpc.MCPService).RegisterTool&#45;&gt;github.com/guild&#45;framework/guild&#45;core/pkg/mcp/tools.NewBaseTool</title>
<g id="a_edge8"><a xlink:title="at service.go:63: calling [github.com/guild&#45;framework/guild&#45;core/pkg/mcp/tools.NewBaseTool]">
<path fill="none" stroke="saddlebrown" d="M247.94,-36.85C290.29,-37.98 337.58,-39.23 374.89,-40.22"/>
<polygon fill="saddlebrown" stroke="saddlebrown" points="374.53,-43.71 384.62,-40.48 374.72,-36.71 374.53,-43.71"/>
</a>
</g>
</g>
<!-- (*github.com/guild&#45;framework/guild&#45;core/pkg/mcp/grpc.MCPService).GetSystemInfo -->
<g id="node6" class="node">
<title>(*github.com/guild&#45;framework/guild&#45;core/pkg/mcp/grpc.MCPService).GetSystemInfo</title>
<g id="a_node6"><a xlink:title="(*github.com/guild&#45;framework/guild&#45;core/pkg/mcp/grpc.MCPService).GetSystemInfo | defined in service.go:280&#10;at service.go:281: calling [(*github.com/guild&#45;framework/guild&#45;core/pkg/mcp/server.Server).GetConfig]&#10;at service.go:294: calling [(*github.com/guild&#45;framework/guild&#45;core/pkg/mcp/server.Server).GetToolRegistry]">
<path fill="lightblue" stroke="black" stroke-width="1.5" d="M245.29,-357C245.29,-357 33.25,-357 33.25,-357 27.25,-357 21.25,-351 21.25,-345 21.25,-345 21.25,-333 21.25,-333 21.25,-327 27.25,-321 33.25,-321 33.25,-321 245.29,-321 245.29,-321 251.29,-321 257.29,-327 257.29,-333 257.29,-333 257.29,-345 257.29,-345 257.29,-351 251.29,-357 245.29,-357"/>
<text xml:space="preserve" text-anchor="middle" x="139.27" y="-334.32" font-family="Verdana" font-size="14.00">(*MCPService).GetSystemInfo</text>
</a>
</g>
</g>
<!-- (*github.com/guild&#45;framework/guild&#45;core/pkg/mcp/grpc.MCPService).GetSystemInfo&#45;&gt;(*github.com/guild&#45;framework/guild&#45;core/pkg/mcp/server.Server).GetConfig -->
<g id="edge1" class="edge">
<title>(*github.com/guild&#45;framework/guild&#45;core/pkg/mcp/grpc.MCPService).GetSystemInfo&#45;&gt;(*github.com/guild&#45;framework/guild&#45;core/pkg/mcp/server.Server).GetConfig</title>
<g id="a_edge1"><a xlink:title="at service.go:281: calling [(*github.com/guild&#45;framework/guild&#45;core/pkg/mcp/server.Server).GetConfig]">
<path fill="none" stroke="saddlebrown" d="M257.81,-349.52C288.06,-352.22 320.18,-355.1 349,-357.67"/>
<polygon fill="saddlebrown" stroke="saddlebrown" points="348.5,-361.14 358.77,-358.55 349.13,-354.17 348.5,-361.14"/>
</a>
</g>
</g>
<!-- (*github.com/guild&#45;framework/guild&#45;core/pkg/mcp/grpc.MCPService).GetSystemInfo&#45;&gt;(*github.com/guild&#45;framework/guild&#45;core/pkg/mcp/server.Server).GetToolRegistry -->
<g id="edge6" class="edge">
<title>(*github.com/guild&#45;framework/guild&#45;core/pkg/mcp/grpc.MCPService).GetSystemInfo&#45;&gt;(*github.com/guild&#45;framework/guild&#45;core/pkg/mcp/server.Server).GetToolRegistry</title>
<g id="a_edge6"><a xlink:title="at service.go:294: calling [(*github.com/guild&#45;framework/guild&#45;core/pkg/mcp/server.Server).GetToolRegistry]">
<path fill="none" stroke="saddlebrown" d="M257.81,-325.76C281.14,-323.13 305.58,-320.38 328.76,-317.76"/>
<polygon fill="saddlebrown" stroke="saddlebrown" points="328.98,-321.26 338.53,-316.66 328.2,-314.31 328.98,-321.26"/>
</a>
</g>
</g>
<!-- (*github.com/guild&#45;framework/guild&#45;core/pkg/mcp/grpc.MCPService).ExecuteTool -->
<g id="node7" class="node">
<title>(*github.com/guild&#45;framework/guild&#45;core/pkg/mcp/grpc.MCPService).ExecuteTool</title>
<g id="a_node7"><a xlink:title="(*github.com/guild&#45;framework/guild&#45;core/pkg/mcp/grpc.MCPService).ExecuteTool | defined in service.go:136&#10;at service.go:142: calling [(*github.com/guild&#45;framework/guild&#45;core/pkg/mcp/server.Server).GetToolRegistry]">
<path fill="lightblue" stroke="black" stroke-width="1.5" d="M233.66,-235C233.66,-235 44.88,-235 44.88,-235 38.88,-235 32.87,-229 32.87,-223 32.87,-223 32.87,-211 32.87,-211 32.87,-205 38.87,-199 44.87,-199 44.87,-199 233.66,-199 233.66,-199 239.66,-199 245.66,-205 245.66,-211 245.66,-211 245.66,-223 245.66,-223 245.66,-229 239.66,-235 233.66,-235"/>
<text xml:space="preserve" text-anchor="middle" x="139.27" y="-212.32" font-family="Verdana" font-size="14.00">(*MCPService).ExecuteTool</text>
</a>
</g>
</g>
<!-- (*github.com/guild&#45;framework/guild&#45;core/pkg/mcp/grpc.MCPService).ExecuteTool&#45;&gt;(*github.com/guild&#45;framework/guild&#45;core/pkg/mcp/server.Server).GetToolRegistry -->
<g id="edge14" class="edge">
<title>(*github.com/guild&#45;framework/guild&#45;core/pkg/mcp/grpc.MCPService).ExecuteTool&#45;&gt;(*github.com/guild&#45;framework/guild&#45;core/pkg/mcp/server.Server).GetToolRegistry</title>
<g id="a_edge14"><a xlink:title="at service.go:142: calling [(*github.com/guild&#45;framework/guild&#45;core/pkg/mcp/server.Server).GetToolRegistry]">
<path fill="none" stroke="saddlebrown" d="M220.99,-235.69C234.95,-239.43 249.24,-243.58 262.54,-248 292.22,-257.87 297.9,-265.01 327.54,-275 335.99,-277.85 344.86,-280.59 353.77,-283.18"/>
<polygon fill="saddlebrown" stroke="saddlebrown" points="352.6,-286.49 363.17,-285.85 354.51,-279.75 352.6,-286.49"/>
</a>
</g>
</g>
<!-- (*github.com/guild&#45;framework/guild&#45;core/pkg/mcp/grpc.MCPService).CheckToolHealth -->
<g id="node8" class="node">
<title>(*github.com/guild&#45;framework/guild&#45;core/pkg/mcp/grpc.MCPService).CheckToolHealth</title>
<g id="a_node8"><a xlink:title="(*github.com/guild&#45;framework/guild&#45;core/pkg/mcp/grpc.MCPService).CheckToolHealth | defined in service.go:177&#10;at service.go:182: calling [(*github.com/guild&#45;framework/guild&#45;core/pkg/mcp/server.Server).GetToolRegistry]">
<path fill="lightblue" stroke="black" stroke-width="1.5" d="M250.54,-296C250.54,-296 28,-296 28,-296 22,-296 16,-290 16,-284 16,-284 16,-272 16,-272 16,-266 22,-260 28,-260 28,-260 250.54,-260 250.54,-260 256.54,-260 262.54,-266 262.54,-272 262.54,-272 262.54,-284 262.54,-284 262.54,-290 256.54,-296 250.54,-296"/>
<text xml:space="preserve" text-anchor="middle" x="139.27" y="-273.32" font-family="Verdana" font-size="14.00">(*MCPService).CheckToolHealth</text>
</a>
</g>
</g>
<!-- (*github.com/guild&#45;framework/guild&#45;core/pkg/mcp/grpc.MCPService).CheckToolHealth&#45;&gt;(*github.com/guild&#45;framework/guild&#45;core/pkg/mcp/server.Server).GetToolRegistry -->
<g id="edge10" class="edge">
<title>(*github.com/guild&#45;framework/guild&#45;core/pkg/mcp/grpc.MCPService).CheckToolHealth&#45;&gt;(*github.com/guild&#45;framework/guild&#45;core/pkg/mcp/server.Server).GetToolRegistry</title>
<g id="a_edge10"><a xlink:title="at service.go:182: calling [(*github.com/guild&#45;framework/guild&#45;core/pkg/mcp/server.Server).GetToolRegistry]">
<path fill="none" stroke="saddlebrown" d="M263.02,-288.98C284.6,-290.91 306.97,-292.91 328.29,-294.82"/>
<polygon fill="saddlebrown" stroke="saddlebrown" points="327.9,-298.3 338.17,-295.71 328.52,-291.33 327.9,-298.3"/>
</a>
</g>
</g>
<!-- (*github.com/guild&#45;framework/guild&#45;core/pkg/mcp/grpc.MCPService).ReportCost -->
<g id="node9" class="node">
<title>(*github.com/guild&#45;framework/guild&#45;core/pkg/mcp/grpc.MCPService).ReportCost</title>
<g id="a_node9"><a xlink:title="(*github.com/guild&#45;framework/guild&#45;core/pkg/mcp/grpc.MCPService).ReportCost | defined in service.go:196&#10;at service.go:214: calling [(*github.com/guild&#45;framework/guild&#45;core/pkg/mcp/server.Server).GetCostObserver]">
<path fill="lightblue" stroke="black" stroke-width="1.5" d="M231.41,-113C231.41,-113 47.12,-113 47.12,-113 41.12,-113 35.12,-107 35.12,-101 35.12,-101 35.12,-89 35.12,-89 35.12,-83 41.12,-77 47.12,-77 47.12,-77 231.41,-77 231.41,-77 237.41,-77 243.41,-83 243.41,-89 243.41,-89 243.41,-101 243.41,-101 243.41,-107 237.41,-113 231.41,-113"/>
<text xml:space="preserve" text-anchor="middle" x="139.27" y="-90.33" font-family="Verdana" font-size="14.00">(*MCPService).ReportCost</text>
</a>
</g>
</g>
<!-- (*github.com/guild&#45;framework/guild&#45;core/pkg/mcp/grpc.MCPService).ReportCost&#45;&gt;(*github.com/guild&#45;framework/guild&#45;core/pkg/mcp/server.Server).GetCostObserver -->
<g id="edge11" class="edge">
<title>(*github.com/guild&#45;framework/guild&#45;core/pkg/mcp/grpc.MCPService).ReportCost&#45;&gt;(*github.com/guild&#45;framework/guild&#45;core/pkg/mcp/server.Server).GetCostObserver</title>
<g id="a_edge11"><a xlink:title="at service.go:214: calling [(*github.com/guild&#45;framework/guild&#45;core/pkg/mcp/server.Server).GetCostObserver]">
<path fill="none" stroke="saddlebrown" d="M240.13,-113.62C248.05,-117.07 255.64,-121.16 262.54,-126 301.92,-153.64 286.92,-188.63 325.74,-219.79"/>
<polygon fill="saddlebrown" stroke="saddlebrown" points="323.49,-222.48 333.65,-225.49 327.58,-216.8 323.49,-222.48"/>
</a>
</g>
</g>
<!-- (*github.com/guild&#45;framework/guild&#45;core/pkg/mcp/grpc.MCPService).DiscoverTools -->
<g id="node10" class="node">
<title>(*github.com/guild&#45;framework/guild&#45;core/pkg/mcp/grpc.MCPService).DiscoverTools</title>
<g id="a_node10"><a xlink:title="(*github.com/guild&#45;framework/guild&#45;core/pkg/mcp/grpc.MCPService).DiscoverTools | defined in service.go:102&#10;at service.go:124: calling [github.com/guild&#45;framework/guild&#45;core/pkg/mcp/grpc.convertParametersToGRPC]&#10;at service.go:125: calling [github.com/guild&#45;framework/guild&#45;core/pkg/mcp/grpc.convertParametersToGRPC]&#10;at service.go:126: calling [github.com/guild&#45;framework/guild&#45;core/pkg/mcp/grpc.convertCostProfileToGRPC]&#10;at service.go:111: calling [(*github.com/guild&#45;framework/guild&#45;core/pkg/mcp/server.Server).GetToolRegistry]">
<path fill="lightblue" stroke="black" stroke-width="1.5" d="M240.41,-540C240.41,-540 38.12,-540 38.12,-540 32.13,-540 26.12,-534 26.12,-528 26.12,-528 26.12,-516 26.12,-516 26.12,-510 32.12,-504 38.12,-504 38.12,-504 240.41,-504 240.41,-504 246.41,-504 252.41,-510 252.41,-516 252.41,-516 252.41,-528 252.41,-528 252.41,-534 246.41,-540 240.41,-540"/>
<text xml:space="preserve" text-anchor="middle" x="139.27" y="-517.33" font-family="Verdana" font-size="14.00">(*MCPService).DiscoverTools</text>
</a>
</g>
</g>
<!-- github.com/guild&#45;framework/guild&#45;core/pkg/mcp/grpc.convertParametersToGRPC -->
<g id="node11" class="node">
<title>github.com/guild&#45;framework/guild&#45;core/pkg/mcp/grpc.convertParametersToGRPC</title>
<g id="a_node11"><a xlink:title="github.com/guild&#45;framework/guild&#45;core/pkg/mcp/grpc.convertParametersToGRPC | defined in service.go:318">
<path fill="lightblue" stroke="black" stroke-width="0.5" d="M535.58,-479C535.58,-479 350.54,-479 350.54,-479 344.54,-479 338.54,-473 338.54,-467 338.54,-467 338.54,-455 338.54,-455 338.54,-449 344.54,-443 350.54,-443 350.54,-443 535.58,-443 535.58,-443 541.58,-443 547.58,-449 547.58,-455 547.58,-455 547.58,-467 547.58,-467 547.58,-473 541.58,-479 535.58,-479"/>
<text xml:space="preserve" text-anchor="middle" x="443.06" y="-456.32" font-family="Verdana" font-size="14.00">convertParametersToGRPC</text>
</a>
</g>
</g>
<!-- (*github.com/guild&#45;framework/guild&#45;core/pkg/mcp/grpc.MCPService).DiscoverTools&#45;&gt;github.com/guild&#45;framework/guild&#45;core/pkg/mcp/grpc.convertParametersToGRPC -->
<g id="edge2" class="edge">
<title>(*github.com/guild&#45;framework/guild&#45;core/pkg/mcp/grpc.MCPService).DiscoverTools&#45;&gt;github.com/guild&#45;framework/guild&#45;core/pkg/mcp/grpc.convertParametersToGRPC</title>
<g id="a_edge2"><a xlink:title="at service.go:124: calling [github.com/guild&#45;framework/guild&#45;core/pkg/mcp/grpc.convertParametersToGRPC]&#10;at service.go:125: calling [github.com/guild&#45;framework/guild&#45;core/pkg/mcp/grpc.convertParametersToGRPC]">
<path fill="none" stroke="black" d="M232.87,-503.28C267.03,-496.38 305.9,-488.52 340.79,-481.47"/>
<polygon fill="black" stroke="black" points="341.38,-484.92 350.48,-479.51 339.99,-478.06 341.38,-484.92"/>
</a>
</g>
</g>
<!-- github.com/guild&#45;framework/guild&#45;core/pkg/mcp/grpc.convertCostProfileToGRPC -->
<g id="node12" class="node">
<title>github.com/guild&#45;framework/guild&#45;core/pkg/mcp/grpc.convertCostProfileToGRPC</title>
<g id="a_node12"><a xlink:title="github.com/guild&#45;framework/guild&#45;core/pkg/mcp/grpc.convertCostProfileToGRPC | defined in service.go:353">
<path fill="lightblue" stroke="black" stroke-width="0.5" d="M532.2,-540C532.2,-540 353.91,-540 353.91,-540 347.91,-540 341.91,-534 341.91,-528 341.91,-528 341.91,-516 341.91,-516 341.91,-510 347.91,-504 353.91,-504 353.91,-504 532.2,-504 532.2,-504 538.2,-504 544.2,-510 544.2,-516 544.2,-516 544.2,-528 544.2,-528 544.2,-534 538.2,-540 532.2,-540"/>
<text xml:space="preserve" text-anchor="middle" x="443.06" y="-517.33" font-family="Verdana" font-size="14.00">convertCostProfileToGRPC</text>
</a>
</g>
</g>
<!-- (*github.com/guild&#45;framework/guild&#45;core/pkg/mcp/grpc.MCPService).DiscoverTools&#45;&gt;github.com/guild&#45;framework/guild&#45;core/pkg/mcp/grpc.convertCostProfileToGRPC -->
<g id="edge12" class="edge">
<title>(*github.com/guild&#45;framework/guild&#45;core/pkg/mcp/grpc.MCPService).DiscoverTools&#45;&gt;github.com/guild&#45;framework/guild&#45;core/pkg/mcp/grpc.convertCostProfileToGRPC</title>
<g id="a_edge12"><a xlink:title="at service.go:126: calling [github.com/guild&#45;framework/guild&#45;core/pkg/mcp/grpc.convertCostProfileToGRPC]">
<path fill="none" stroke="black" d="M253.07,-522C278.34,-522 305.12,-522 330.34,-522"/>
<polygon fill="black" stroke="black" points="330.29,-525.5 340.29,-522 330.29,-518.5 330.29,-525.5"/>
</a>
</g>
</g>
<!-- (*github.com/guild&#45;framework/guild&#45;core/pkg/mcp/grpc.MCPService).DiscoverTools&#45;&gt;(*github.com/guild&#45;framework/guild&#45;core/pkg/mcp/server.Server).GetToolRegistry -->
<g id="edge15" class="edge">
<title>(*github.com/guild&#45;framework/guild&#45;core/pkg/mcp/grpc.MCPService).DiscoverTools&#45;&gt;(*github.com/guild&#45;framework/guild&#45;core/pkg/mcp/server.Server).GetToolRegistry</title>
<g id="a_edge15"><a xlink:title="at service.go:111: calling [(*github.com/guild&#45;framework/guild&#45;core/pkg/mcp/server.Server).GetToolRegistry]">
<path fill="none" stroke="saddlebrown" d="M245.96,-503.27C251.89,-500.07 257.48,-496.34 262.54,-492 319.58,-443.14 271.08,-385.54 327.54,-336 330.2,-333.66 333.02,-331.5 335.97,-329.5"/>
<polygon fill="saddlebrown" stroke="saddlebrown" points="337.68,-332.56 344.47,-324.42 334.09,-326.55 337.68,-332.56"/>
</a>
</g>
</g>
<!-- (*github.com/guild&#45;framework/guild&#45;core/pkg/mcp/grpc.MCPService).DeregisterTool -->
<g id="node13" class="node">
<title>(*github.com/guild&#45;framework/guild&#45;core/pkg/mcp/grpc.MCPService).DeregisterTool</title>
<g id="a_node13"><a xlink:title="(*github.com/guild&#45;framework/guild&#45;core/pkg/mcp/grpc.MCPService).DeregisterTool | defined in service.go:87&#10;at service.go:92: calling [(*github.com/guild&#45;framework/guild&#45;core/pkg/mcp/server.Server).GetToolRegistry]">
<path fill="lightblue" stroke="black" stroke-width="1.5" d="M243.04,-418C243.04,-418 35.5,-418 35.5,-418 29.5,-418 23.5,-412 23.5,-406 23.5,-406 23.5,-394 23.5,-394 23.5,-388 29.5,-382 35.5,-382 35.5,-382 243.04,-382 243.04,-382 249.04,-382 255.04,-388 255.04,-394 255.04,-394 255.04,-406 255.04,-406 255.04,-412 249.04,-418 243.04,-418"/>
<text xml:space="preserve" text-anchor="middle" x="139.27" y="-395.32" font-family="Verdana" font-size="14.00">(*MCPService).DeregisterTool</text>
</a>
</g>
</g>
<!-- (*github.com/guild&#45;framework/guild&#45;core/pkg/mcp/grpc.MCPService).DeregisterTool&#45;&gt;(*github.com/guild&#45;framework/guild&#45;core/pkg/mcp/server.Server).GetToolRegistry -->
<g id="edge3" class="edge">
<title>(*github.com/guild&#45;framework/guild&#45;core/pkg/mcp/grpc.MCPService).DeregisterTool&#45;&gt;(*github.com/guild&#45;framework/guild&#45;core/pkg/mcp/server.Server).GetToolRegistry</title>
<g id="a_edge3"><a xlink:title="at service.go:92: calling [(*github.com/guild&#45;framework/guild&#45;core/pkg/mcp/server.Server).GetToolRegistry]">
<path fill="none" stroke="saddlebrown" d="M227.56,-381.33C239.46,-377.99 251.4,-374.21 262.54,-370 293.04,-358.48 297.18,-347.89 327.54,-336 335.79,-332.77 344.5,-329.75 353.28,-326.96"/>
<polygon fill="saddlebrown" stroke="saddlebrown" points="354.02,-330.4 362.56,-324.12 351.97,-323.7 354.02,-330.4"/>
</a>
</g>
</g>
</g>
</svg>
