<?xml version="1.0" encoding="UTF-8" standalone="no"?>
<!DOCTYPE svg PUBLIC "-//W3C//DTD SVG 1.1//EN"
 "http://www.w3.org/Graphics/SVG/1.1/DTD/svg11.dtd">
<!-- Generated by graphviz version 14.1.1 (20251213.1925)
 -->
<!-- Title: gocallvis Pages: 1 -->
<svg width="857pt" height="707pt"
 viewBox="0.00 0.00 857.00 707.00" xmlns="http://www.w3.org/2000/svg" xmlns:xlink="http://www.w3.org/1999/xlink">
<g id="graph0" class="graph" transform="scale(1 1) rotate(0) translate(0 707)">
<title>gocallvis</title>
<polygon fill="lightgray" stroke="none" points="0,0 0,-707 857.37,-707 857.37,0 0,0"/>
<g id="clust1" class="cluster">
<title>cluster_focus</title>
<polygon fill="#e6ecfa" stroke="black" stroke-width="0.5" points="8,-8 8,-699 849.37,-699 849.37,-8 8,-8"/>
<text xml:space="preserve" text-anchor="middle" x="428.68" y="-677.9" font-family="Arial" font-size="18.00">channel</text>
</g>
<g id="clust2" class="cluster">
<title>cluster_github.com/guild&#45;framework/guild&#45;core/pkg/gerror</title>
<g id="a_clust2"><a xlink:href="/?f=github.com/guild-framework/guild-core/pkg/gerror" xlink:title="package: github.com/guild&#45;framework/guild&#45;core/pkg/gerror">
<polygon fill="lightyellow" stroke="black" stroke-width="0.8" points="593.08,-148 593.08,-411 841.37,-411 841.37,-148 593.08,-148"/>
<text xml:space="preserve" text-anchor="middle" x="717.22" y="-391.8" font-family="Tahoma bold" font-size="16.00">gerror</text>
</a>
</g>
</g>
<!-- github.com/guild&#45;framework/guild&#45;core/pkg/comms/channel.newTopicRegistry -->
<g id="node1" class="node">
<title>github.com/guild&#45;framework/guild&#45;core/pkg/comms/channel.newTopicRegistry</title>
<g id="a_node1"><a xlink:title="github.com/guild&#45;framework/guild&#45;core/pkg/comms/channel.newTopicRegistry | defined in channel.go:90&#10;at channel.go:99: calling [(*github.com/guild&#45;framework/guild&#45;core/pkg/comms/channel.topicRegistry).run]">
<path fill="lightblue" stroke="black" stroke-width="0.5" d="M476.33,-662C476.33,-662 355.04,-662 355.04,-662 349.04,-662 343.04,-656 343.04,-650 343.04,-650 343.04,-638 343.04,-638 343.04,-632 349.04,-626 355.04,-626 355.04,-626 476.33,-626 476.33,-626 482.33,-626 488.33,-632 488.33,-638 488.33,-638 488.33,-650 488.33,-650 488.33,-656 482.33,-662 476.33,-662"/>
<text xml:space="preserve" text-anchor="middle" x="415.68" y="-639.33" font-family="Verdana" font-size="14.00">newTopicRegistry</text>
</a>
</g>
</g>
<!-- (*github.com/guild&#45;framework/guild&#45;core/pkg/comms/channel.topicRegistry).run -->
<g id="node2" class="node">
<title>(*github.com/guild&#45;framework/guild&#45;core/pkg/comms/channel.topicRegistry).run</title>
<g id="a_node2"><a xlink:title="(*github.com/guild&#45;framework/guild&#45;core/pkg/comms/channel.topicRegistry).run | defined in channel.go:103">
<path fill="lightblue" stroke="black" stroke-width="0.5" d="M787.62,-662C787.62,-662 646.83,-662 646.83,-662 640.83,-662 634.83,-656 634.83,-650 634.83,-650 634.83,-638 634.83,-638 634.83,-632 640.83,-626 646.83,-626 646.83,-626 787.62,-626 787.62,-626 793.62,-626 799.62,-632 799.62,-638 799.62,-638 799.62,-650 799.62,-650 799.62,-656 793.62,-662 787.62,-662"/>
<text xml:space="preserve" text-anchor="middle" x="717.22" y="-639.33" font-family="Verdana" font-size="14.00">(*topicRegistry).run</text>
</a>
</g>
</g>
<!-- github.com/guild&#45;framework/guild&#45;core/pkg/comms/channel.newTopicRegistry&#45;&gt;(*github.com/guild&#45;framework/guild&#45;core/pkg/comms/channel.topicRegistry).run -->
<g id="edge13" class="edge">
<title>github.com/guild&#45;framework/guild&#45;core/pkg/comms/channel.newTopicRegistry&#45;&gt;(*github.com/guild&#45;framework/guild&#45;core/pkg/comms/channel.topicRegistry).run</title>
<g id="a_edge13"><a xlink:title="at channel.go:99: calling [(*github.com/guild&#45;framework/guild&#45;core/pkg/comms/channel.topicRegistry).run]">
<path fill="none" stroke="black" d="M488.43,-644C524.65,-644 569.32,-644 609.47,-644"/>
<polygon fill="black" stroke="black" points="623.24,-647.5 633.24,-644 623.24,-640.5 623.24,-647.5"/>
<polyline fill="none" stroke="black" points="622.74,-644 617.74,-644"/>
<ellipse fill="none" stroke="black" cx="613.24" cy="-644" rx="4" ry="4"/>
</a>
</g>
</g>
<!-- (*github.com/guild&#45;framework/guild&#45;core/pkg/comms/channel.PubSub).Close -->
<g id="node3" class="node">
<title>(*github.com/guild&#45;framework/guild&#45;core/pkg/comms/channel.PubSub).Close</title>
<g id="a_node3"><a xlink:title="(*github.com/guild&#45;framework/guild&#45;core/pkg/comms/channel.PubSub).Close | defined in channel.go:387&#10;at channel.go:388: calling [(*github.com/guild&#45;framework/guild&#45;core/pkg/comms/channel.Publisher).Close]&#10;at channel.go:389: calling [(*github.com/guild&#45;framework/guild&#45;core/pkg/comms/channel.subscriber).Close]">
<path fill="lightblue" stroke="black" stroke-width="1.5" d="M181.54,-82C181.54,-82 64.75,-82 64.75,-82 58.75,-82 52.75,-76 52.75,-70 52.75,-70 52.75,-58 52.75,-58 52.75,-52 58.75,-46 64.75,-46 64.75,-46 181.54,-46 181.54,-46 187.54,-46 193.54,-52 193.54,-58 193.54,-58 193.54,-70 193.54,-70 193.54,-76 187.54,-82 181.54,-82"/>
<text xml:space="preserve" text-anchor="middle" x="123.14" y="-59.33" font-family="Verdana" font-size="14.00">(*PubSub).Close</text>
</a>
</g>
</g>
<!-- (*github.com/guild&#45;framework/guild&#45;core/pkg/comms/channel.Publisher).Close -->
<g id="node4" class="node">
<title>(*github.com/guild&#45;framework/guild&#45;core/pkg/comms/channel.Publisher).Close</title>
<g id="a_node4"><a xlink:title="(*github.com/guild&#45;framework/guild&#45;core/pkg/comms/channel.Publisher).Close | defined in channel.go:203">
<path fill="lightblue" stroke="black" stroke-width="1.5" d="M479.33,-52C479.33,-52 352.04,-52 352.04,-52 346.04,-52 340.04,-46 340.04,-40 340.04,-40 340.04,-28 340.04,-28 340.04,-22 346.04,-16 352.04,-16 352.04,-16 479.33,-16 479.33,-16 485.33,-16 491.33,-22 491.33,-28 491.33,-28 491.33,-40 491.33,-40 491.33,-46 485.33,-52 479.33,-52"/>
<text xml:space="preserve" text-anchor="middle" x="415.68" y="-29.32" font-family="Verdana" font-size="14.00">(*Publisher).Close</text>
</a>
</g>
</g>
<!-- (*github.com/guild&#45;framework/guild&#45;core/pkg/comms/channel.PubSub).Close&#45;&gt;(*github.com/guild&#45;framework/guild&#45;core/pkg/comms/channel.Publisher).Close -->
<g id="edge21" class="edge">
<title>(*github.com/guild&#45;framework/guild&#45;core/pkg/comms/channel.PubSub).Close&#45;&gt;(*github.com/guild&#45;framework/guild&#45;core/pkg/comms/channel.Publisher).Close</title>
<g id="a_edge21"><a xlink:title="at channel.go:388: calling [(*github.com/guild&#45;framework/guild&#45;core/pkg/comms/channel.Publisher).Close]">
<path fill="none" stroke="black" d="M194.11,-56.78C234.41,-52.61 285.41,-47.35 328.22,-42.93"/>
<polygon fill="black" stroke="black" points="328.39,-46.43 337.98,-41.92 327.67,-39.47 328.39,-46.43"/>
</a>
</g>
</g>
<!-- (*github.com/guild&#45;framework/guild&#45;core/pkg/comms/channel.subscriber).Close -->
<g id="node5" class="node">
<title>(*github.com/guild&#45;framework/guild&#45;core/pkg/comms/channel.subscriber).Close</title>
<g id="a_node5"><a xlink:title="(*github.com/guild&#45;framework/guild&#45;core/pkg/comms/channel.subscriber).Close | defined in channel.go:334">
<path fill="lightblue" stroke="black" stroke-width="1.5" d="M483.83,-113C483.83,-113 347.54,-113 347.54,-113 341.54,-113 335.54,-107 335.54,-101 335.54,-101 335.54,-89 335.54,-89 335.54,-83 341.54,-77 347.54,-77 347.54,-77 483.83,-77 483.83,-77 489.83,-77 495.83,-83 495.83,-89 495.83,-89 495.83,-101 495.83,-101 495.83,-107 489.83,-113 483.83,-113"/>
<text xml:space="preserve" text-anchor="middle" x="415.68" y="-90.33" font-family="Verdana" font-size="14.00">(*subscriber).Close</text>
</a>
</g>
</g>
<!-- (*github.com/guild&#45;framework/guild&#45;core/pkg/comms/channel.PubSub).Close&#45;&gt;(*github.com/guild&#45;framework/guild&#45;core/pkg/comms/channel.subscriber).Close -->
<g id="edge22" class="edge">
<title>(*github.com/guild&#45;framework/guild&#45;core/pkg/comms/channel.PubSub).Close&#45;&gt;(*github.com/guild&#45;framework/guild&#45;core/pkg/comms/channel.subscriber).Close</title>
<g id="a_edge22"><a xlink:title="at channel.go:389: calling [(*github.com/guild&#45;framework/guild&#45;core/pkg/comms/channel.subscriber).Close]">
<path fill="none" stroke="black" d="M194.11,-71.46C232.94,-75.61 281.71,-80.81 323.5,-85.27"/>
<polygon fill="black" stroke="black" points="322.99,-88.74 333.3,-86.32 323.73,-81.78 322.99,-88.74"/>
</a>
</g>
</g>
<!-- (*github.com/guild&#45;framework/guild&#45;core/pkg/comms/channel.Transport).NewPublisher -->
<g id="node6" class="node">
<title>(*github.com/guild&#45;framework/guild&#45;core/pkg/comms/channel.Transport).NewPublisher</title>
<g id="a_node6"><a xlink:title="(*github.com/guild&#45;framework/guild&#45;core/pkg/comms/channel.Transport).NewPublisher | defined in channel.go:30&#10;at channel.go:36: calling [github.com/guild&#45;framework/guild&#45;core/pkg/comms/channel.newPublisher]">
<path fill="lightblue" stroke="black" stroke-width="1.5" d="M508.95,-174C508.95,-174 322.41,-174 322.41,-174 316.41,-174 310.41,-168 310.41,-162 310.41,-162 310.41,-150 310.41,-150 310.41,-144 316.41,-138 322.41,-138 322.41,-138 508.95,-138 508.95,-138 514.95,-138 520.95,-144 520.95,-150 520.95,-150 520.95,-162 520.95,-162 520.95,-168 514.95,-174 508.95,-174"/>
<text xml:space="preserve" text-anchor="middle" x="415.68" y="-151.32" font-family="Verdana" font-size="14.00">(*Transport).NewPublisher</text>
</a>
</g>
</g>
<!-- github.com/guild&#45;framework/guild&#45;core/pkg/comms/channel.newPublisher -->
<g id="node7" class="node">
<title>github.com/guild&#45;framework/guild&#45;core/pkg/comms/channel.newPublisher</title>
<g id="a_node7"><a xlink:title="github.com/guild&#45;framework/guild&#45;core/pkg/comms/channel.newPublisher | defined in channel.go:163">
<path fill="lightblue" stroke="black" stroke-width="0.5" d="M763.24,-131C763.24,-131 671.2,-131 671.2,-131 665.2,-131 659.2,-125 659.2,-119 659.2,-119 659.2,-107 659.2,-107 659.2,-101 665.2,-95 671.2,-95 671.2,-95 763.24,-95 763.24,-95 769.24,-95 775.24,-101 775.24,-107 775.24,-107 775.24,-119 775.24,-119 775.24,-125 769.24,-131 763.24,-131"/>
<text xml:space="preserve" text-anchor="middle" x="717.22" y="-108.33" font-family="Verdana" font-size="14.00">newPublisher</text>
</a>
</g>
</g>
<!-- (*github.com/guild&#45;framework/guild&#45;core/pkg/comms/channel.Transport).NewPublisher&#45;&gt;github.com/guild&#45;framework/guild&#45;core/pkg/comms/channel.newPublisher -->
<g id="edge14" class="edge">
<title>(*github.com/guild&#45;framework/guild&#45;core/pkg/comms/channel.Transport).NewPublisher&#45;&gt;github.com/guild&#45;framework/guild&#45;core/pkg/comms/channel.newPublisher</title>
<g id="a_edge14"><a xlink:title="at channel.go:36: calling [github.com/guild&#45;framework/guild&#45;core/pkg/comms/channel.newPublisher]">
<path fill="none" stroke="black" d="M521.45,-140.96C563.34,-134.95 610.41,-128.19 647.79,-122.82"/>
<polygon fill="black" stroke="black" points="648.16,-126.31 657.56,-121.42 647.16,-119.38 648.16,-126.31"/>
</a>
</g>
</g>
<!-- (*github.com/guild&#45;framework/guild&#45;core/pkg/comms/channel.subscriber).Subscribe -->
<g id="node8" class="node">
<title>(*github.com/guild&#45;framework/guild&#45;core/pkg/comms/channel.subscriber).Subscribe</title>
<g id="a_node8"><a xlink:title="(*github.com/guild&#45;framework/guild&#45;core/pkg/comms/channel.subscriber).Subscribe | defined in channel.go:233&#10;at channel.go:260: calling [(*github.com/guild&#45;framework/guild&#45;core/pkg/gerror.GuildError).WithOperation]&#10;at channel.go:261: calling [(*github.com/guild&#45;framework/guild&#45;core/pkg/gerror.GuildError).WithDetails]&#10;at channel.go:258: calling [github.com/guild&#45;framework/guild&#45;core/pkg/gerror.Wrap]&#10;at channel.go:259: calling [(*github.com/guild&#45;framework/guild&#45;core/pkg/gerror.GuildError).WithComponent]">
<path fill="lightblue" stroke="black" stroke-width="1.5" d="M499.95,-235C499.95,-235 331.41,-235 331.41,-235 325.41,-235 319.41,-229 319.41,-223 319.41,-223 319.41,-211 319.41,-211 319.41,-205 325.41,-199 331.41,-199 331.41,-199 499.95,-199 499.95,-199 505.95,-199 511.95,-205 511.95,-211 511.95,-211 511.95,-223 511.95,-223 511.95,-229 505.95,-235 499.95,-235"/>
<text xml:space="preserve" text-anchor="middle" x="415.68" y="-212.32" font-family="Verdana" font-size="14.00">(*subscriber).Subscribe</text>
</a>
</g>
</g>
<!-- github.com/guild&#45;framework/guild&#45;core/pkg/gerror.Wrap -->
<g id="node23" class="node">
<title>github.com/guild&#45;framework/guild&#45;core/pkg/gerror.Wrap</title>
<g id="a_node23"><a xlink:title="github.com/guild&#45;framework/guild&#45;core/pkg/gerror.Wrap | defined in errors.go:223">
<path fill="moccasin" stroke="black" stroke-width="1.5" d="M735.12,-192C735.12,-192 699.33,-192 699.33,-192 693.33,-192 687.33,-186 687.33,-180 687.33,-180 687.33,-168 687.33,-168 687.33,-162 693.33,-156 699.33,-156 699.33,-156 735.12,-156 735.12,-156 741.12,-156 747.12,-162 747.12,-168 747.12,-168 747.12,-180 747.12,-180 747.12,-186 741.12,-192 735.12,-192"/>
<text xml:space="preserve" text-anchor="middle" x="717.22" y="-169.32" font-family="Verdana" font-size="14.00">Wrap</text>
</a>
</g>
</g>
<!-- (*github.com/guild&#45;framework/guild&#45;core/pkg/comms/channel.subscriber).Subscribe&#45;&gt;github.com/guild&#45;framework/guild&#45;core/pkg/gerror.Wrap -->
<g id="edge15" class="edge">
<title>(*github.com/guild&#45;framework/guild&#45;core/pkg/comms/channel.subscriber).Subscribe&#45;&gt;github.com/guild&#45;framework/guild&#45;core/pkg/gerror.Wrap</title>
<g id="a_edge15"><a xlink:title="at channel.go:258: calling [github.com/guild&#45;framework/guild&#45;core/pkg/gerror.Wrap]">
<path fill="none" stroke="saddlebrown" d="M512.7,-203.22C567.64,-195.33 633.71,-185.85 675.34,-179.87"/>
<polygon fill="saddlebrown" stroke="saddlebrown" points="675.77,-183.34 685.17,-178.46 674.77,-176.41 675.77,-183.34"/>
</a>
</g>
</g>
<!-- (*github.com/guild&#45;framework/guild&#45;core/pkg/gerror.GuildError).WithComponent -->
<g id="node24" class="node">
<title>(*github.com/guild&#45;framework/guild&#45;core/pkg/gerror.GuildError).WithComponent</title>
<g id="a_node24"><a xlink:title="(*github.com/guild&#45;framework/guild&#45;core/pkg/gerror.GuildError).WithComponent | defined in errors.go:156">
<path fill="moccasin" stroke="black" stroke-width="1.5" d="M821.37,-253C821.37,-253 613.08,-253 613.08,-253 607.08,-253 601.08,-247 601.08,-241 601.08,-241 601.08,-229 601.08,-229 601.08,-223 607.08,-217 613.08,-217 613.08,-217 821.37,-217 821.37,-217 827.37,-217 833.37,-223 833.37,-229 833.37,-229 833.37,-241 833.37,-241 833.37,-247 827.37,-253 821.37,-253"/>
<text xml:space="preserve" text-anchor="middle" x="717.22" y="-230.32" font-family="Verdana" font-size="14.00">(*GuildError).WithComponent</text>
</a>
</g>
</g>
<!-- (*github.com/guild&#45;framework/guild&#45;core/pkg/comms/channel.subscriber).Subscribe&#45;&gt;(*github.com/guild&#45;framework/guild&#45;core/pkg/gerror.GuildError).WithComponent -->
<g id="edge23" class="edge">
<title>(*github.com/guild&#45;framework/guild&#45;core/pkg/comms/channel.subscriber).Subscribe&#45;&gt;(*github.com/guild&#45;framework/guild&#45;core/pkg/gerror.GuildError).WithComponent</title>
<g id="a_edge23"><a xlink:title="at channel.go:259: calling [(*github.com/guild&#45;framework/guild&#45;core/pkg/gerror.GuildError).WithComponent]">
<path fill="none" stroke="saddlebrown" d="M512.51,-202.37C530,-201.29 548.09,-201.22 565.08,-203 586.89,-205.28 610.18,-209.37 631.79,-213.88"/>
<polygon fill="saddlebrown" stroke="saddlebrown" points="630.92,-217.27 641.43,-215.95 632.39,-210.43 630.92,-217.27"/>
</a>
</g>
</g>
<!-- (*github.com/guild&#45;framework/guild&#45;core/pkg/gerror.GuildError).WithOperation -->
<g id="node25" class="node">
<title>(*github.com/guild&#45;framework/guild&#45;core/pkg/gerror.GuildError).WithOperation</title>
<g id="a_node25"><a xlink:title="(*github.com/guild&#45;framework/guild&#45;core/pkg/gerror.GuildError).WithOperation | defined in errors.go:162">
<path fill="moccasin" stroke="black" stroke-width="1.5" d="M815.74,-314C815.74,-314 618.7,-314 618.7,-314 612.7,-314 606.7,-308 606.7,-302 606.7,-302 606.7,-290 606.7,-290 606.7,-284 612.7,-278 618.7,-278 618.7,-278 815.74,-278 815.74,-278 821.74,-278 827.74,-284 827.74,-290 827.74,-290 827.74,-302 827.74,-302 827.74,-308 821.74,-314 815.74,-314"/>
<text xml:space="preserve" text-anchor="middle" x="717.22" y="-291.32" font-family="Verdana" font-size="14.00">(*GuildError).WithOperation</text>
</a>
</g>
</g>
<!-- (*github.com/guild&#45;framework/guild&#45;core/pkg/comms/channel.subscriber).Subscribe&#45;&gt;(*github.com/guild&#45;framework/guild&#45;core/pkg/gerror.GuildError).WithOperation -->
<g id="edge1" class="edge">
<title>(*github.com/guild&#45;framework/guild&#45;core/pkg/comms/channel.subscriber).Subscribe&#45;&gt;(*github.com/guild&#45;framework/guild&#45;core/pkg/gerror.GuildError).WithOperation</title>
<g id="a_edge1"><a xlink:title="at channel.go:260: calling [(*github.com/guild&#45;framework/guild&#45;core/pkg/gerror.GuildError).WithOperation]">
<path fill="none" stroke="saddlebrown" d="M512.68,-213.91C530.88,-216.45 549.18,-221.34 565.08,-230 582.88,-239.69 576.06,-254.99 593.08,-266 596.77,-268.39 600.63,-270.58 604.61,-272.6"/>
<polygon fill="saddlebrown" stroke="saddlebrown" points="602.83,-275.63 613.37,-276.65 605.76,-269.28 602.83,-275.63"/>
</a>
</g>
</g>
<!-- (*github.com/guild&#45;framework/guild&#45;core/pkg/gerror.GuildError).WithDetails -->
<g id="node26" class="node">
<title>(*github.com/guild&#45;framework/guild&#45;core/pkg/gerror.GuildError).WithDetails</title>
<g id="a_node26"><a xlink:title="(*github.com/guild&#45;framework/guild&#45;core/pkg/gerror.GuildError).WithDetails | defined in errors.go:147">
<path fill="moccasin" stroke="black" stroke-width="1.5" d="M804.87,-375C804.87,-375 629.58,-375 629.58,-375 623.58,-375 617.58,-369 617.58,-363 617.58,-363 617.58,-351 617.58,-351 617.58,-345 623.58,-339 629.58,-339 629.58,-339 804.87,-339 804.87,-339 810.87,-339 816.87,-345 816.87,-351 816.87,-351 816.87,-363 816.87,-363 816.87,-369 810.87,-375 804.87,-375"/>
<text xml:space="preserve" text-anchor="middle" x="717.22" y="-352.32" font-family="Verdana" font-size="14.00">(*GuildError).WithDetails</text>
</a>
</g>
</g>
<!-- (*github.com/guild&#45;framework/guild&#45;core/pkg/comms/channel.subscriber).Subscribe&#45;&gt;(*github.com/guild&#45;framework/guild&#45;core/pkg/gerror.GuildError).WithDetails -->
<g id="edge2" class="edge">
<title>(*github.com/guild&#45;framework/guild&#45;core/pkg/comms/channel.subscriber).Subscribe&#45;&gt;(*github.com/guild&#45;framework/guild&#45;core/pkg/gerror.GuildError).WithDetails</title>
<g id="a_edge2"><a xlink:title="at channel.go:261: calling [(*github.com/guild&#45;framework/guild&#45;core/pkg/gerror.GuildError).WithDetails]">
<path fill="none" stroke="saddlebrown" d="M501.55,-235.74C510.78,-239.19 519.81,-243.25 528.08,-248 547.97,-259.43 550.51,-266.28 565.08,-284 579.56,-301.62 574.47,-313.82 593.08,-327 597.45,-330.1 602.1,-332.87 606.95,-335.37"/>
<polygon fill="saddlebrown" stroke="saddlebrown" points="605.21,-338.42 615.75,-339.46 608.16,-332.07 605.21,-338.42"/>
</a>
</g>
</g>
<!-- (*github.com/guild&#45;framework/guild&#45;core/pkg/comms/channel.Publisher).PublishMessage -->
<g id="node9" class="node">
<title>(*github.com/guild&#45;framework/guild&#45;core/pkg/comms/channel.Publisher).PublishMessage</title>
<g id="a_node9"><a xlink:title="(*github.com/guild&#45;framework/guild&#45;core/pkg/comms/channel.Publisher).PublishMessage | defined in channel.go:195&#10;at channel.go:199: calling [(*github.com/guild&#45;framework/guild&#45;core/pkg/comms/channel.Publisher).Publish]">
<path fill="lightblue" stroke="black" stroke-width="1.5" d="M516.08,-601C516.08,-601 315.29,-601 315.29,-601 309.29,-601 303.29,-595 303.29,-589 303.29,-589 303.29,-577 303.29,-577 303.29,-571 309.29,-565 315.29,-565 315.29,-565 516.08,-565 516.08,-565 522.08,-565 528.08,-571 528.08,-577 528.08,-577 528.08,-589 528.08,-589 528.08,-595 522.08,-601 516.08,-601"/>
<text xml:space="preserve" text-anchor="middle" x="415.68" y="-578.33" font-family="Verdana" font-size="14.00">(*Publisher).PublishMessage</text>
</a>
</g>
</g>
<!-- (*github.com/guild&#45;framework/guild&#45;core/pkg/comms/channel.Publisher).Publish -->
<g id="node10" class="node">
<title>(*github.com/guild&#45;framework/guild&#45;core/pkg/comms/channel.Publisher).Publish</title>
<g id="a_node10"><a xlink:title="(*github.com/guild&#45;framework/guild&#45;core/pkg/comms/channel.Publisher).Publish | defined in channel.go:170">
<path fill="lightblue" stroke="black" stroke-width="1.5" d="M787.24,-557C787.24,-557 647.2,-557 647.2,-557 641.2,-557 635.2,-551 635.2,-545 635.2,-545 635.2,-533 635.2,-533 635.2,-527 641.2,-521 647.2,-521 647.2,-521 787.24,-521 787.24,-521 793.24,-521 799.24,-527 799.24,-533 799.24,-533 799.24,-545 799.24,-545 799.24,-551 793.24,-557 787.24,-557"/>
<text xml:space="preserve" text-anchor="middle" x="717.22" y="-534.33" font-family="Verdana" font-size="14.00">(*Publisher).Publish</text>
</a>
</g>
</g>
<!-- (*github.com/guild&#45;framework/guild&#45;core/pkg/comms/channel.Publisher).PublishMessage&#45;&gt;(*github.com/guild&#45;framework/guild&#45;core/pkg/comms/channel.Publisher).Publish -->
<g id="edge8" class="edge">
<title>(*github.com/guild&#45;framework/guild&#45;core/pkg/comms/channel.Publisher).PublishMessage&#45;&gt;(*github.com/guild&#45;framework/guild&#45;core/pkg/comms/channel.Publisher).Publish</title>
<g id="a_edge8"><a xlink:title="at channel.go:199: calling [(*github.com/guild&#45;framework/guild&#45;core/pkg/comms/channel.Publisher).Publish]">
<path fill="none" stroke="black" d="M528.65,-566.55C559.89,-561.96 593.47,-557.03 623.47,-552.62"/>
<polygon fill="black" stroke="black" points="623.9,-556.1 633.28,-551.18 622.88,-549.17 623.9,-556.1"/>
</a>
</g>
</g>
<!-- (*github.com/guild&#45;framework/guild&#45;core/pkg/comms/channel.subscriber).Unsubscribe -->
<g id="node11" class="node">
<title>(*github.com/guild&#45;framework/guild&#45;core/pkg/comms/channel.subscriber).Unsubscribe</title>
<g id="a_node11"><a xlink:title="(*github.com/guild&#45;framework/guild&#45;core/pkg/comms/channel.subscriber).Unsubscribe | defined in channel.go:275&#10;at channel.go:302: calling [(*github.com/guild&#45;framework/guild&#45;core/pkg/gerror.GuildError).WithOperation]&#10;at channel.go:300: calling [github.com/guild&#45;framework/guild&#45;core/pkg/gerror.Wrap]&#10;at channel.go:301: calling [(*github.com/guild&#45;framework/guild&#45;core/pkg/gerror.GuildError).WithComponent]&#10;at channel.go:303: calling [(*github.com/guild&#45;framework/guild&#45;core/pkg/gerror.GuildError).WithDetails]">
<path fill="lightblue" stroke="black" stroke-width="1.5" d="M508.58,-357C508.58,-357 322.79,-357 322.79,-357 316.79,-357 310.79,-351 310.79,-345 310.79,-345 310.79,-333 310.79,-333 310.79,-327 316.79,-321 322.79,-321 322.79,-321 508.58,-321 508.58,-321 514.58,-321 520.58,-327 520.58,-333 520.58,-333 520.58,-345 520.58,-345 520.58,-351 514.58,-357 508.58,-357"/>
<text xml:space="preserve" text-anchor="middle" x="415.68" y="-334.32" font-family="Verdana" font-size="14.00">(*subscriber).Unsubscribe</text>
</a>
</g>
</g>
<!-- (*github.com/guild&#45;framework/guild&#45;core/pkg/comms/channel.subscriber).Unsubscribe&#45;&gt;github.com/guild&#45;framework/guild&#45;core/pkg/gerror.Wrap -->
<g id="edge9" class="edge">
<title>(*github.com/guild&#45;framework/guild&#45;core/pkg/comms/channel.subscriber).Unsubscribe&#45;&gt;github.com/guild&#45;framework/guild&#45;core/pkg/gerror.Wrap</title>
<g id="a_edge9"><a xlink:title="at channel.go:300: calling [github.com/guild&#45;framework/guild&#45;core/pkg/gerror.Wrap]">
<path fill="none" stroke="saddlebrown" d="M504.28,-320.31C512.58,-317.1 520.65,-313.36 528.08,-309 548.41,-297.07 552.03,-290.63 565.08,-271 582.72,-244.46 568.88,-225.72 593.08,-205 615.91,-185.45 649.35,-177.93 675.62,-175.17"/>
<polygon fill="saddlebrown" stroke="saddlebrown" points="675.57,-178.69 685.25,-174.37 674.99,-171.72 675.57,-178.69"/>
</a>
</g>
</g>
<!-- (*github.com/guild&#45;framework/guild&#45;core/pkg/comms/channel.subscriber).Unsubscribe&#45;&gt;(*github.com/guild&#45;framework/guild&#45;core/pkg/gerror.GuildError).WithComponent -->
<g id="edge10" class="edge">
<title>(*github.com/guild&#45;framework/guild&#45;core/pkg/comms/channel.subscriber).Unsubscribe&#45;&gt;(*github.com/guild&#45;framework/guild&#45;core/pkg/gerror.GuildError).WithComponent</title>
<g id="a_edge10"><a xlink:title="at channel.go:301: calling [(*github.com/guild&#45;framework/guild&#45;core/pkg/gerror.GuildError).WithComponent]">
<path fill="none" stroke="saddlebrown" d="M521.31,-342.77C536.96,-339.59 552.15,-334.05 565.08,-325 588.86,-308.35 570.64,-284.41 593.08,-266 596.11,-263.51 599.32,-261.22 602.66,-259.11"/>
<polygon fill="saddlebrown" stroke="saddlebrown" points="604.08,-262.33 611.07,-254.37 600.64,-256.23 604.08,-262.33"/>
</a>
</g>
</g>
<!-- (*github.com/guild&#45;framework/guild&#45;core/pkg/comms/channel.subscriber).Unsubscribe&#45;&gt;(*github.com/guild&#45;framework/guild&#45;core/pkg/gerror.GuildError).WithOperation -->
<g id="edge5" class="edge">
<title>(*github.com/guild&#45;framework/guild&#45;core/pkg/comms/channel.subscriber).Unsubscribe&#45;&gt;(*github.com/guild&#45;framework/guild&#45;core/pkg/gerror.GuildError).WithOperation</title>
<g id="a_edge5"><a xlink:title="at channel.go:302: calling [(*github.com/guild&#45;framework/guild&#45;core/pkg/gerror.GuildError).WithOperation]">
<path fill="none" stroke="saddlebrown" d="M486.8,-357.71C512.15,-361.25 540.55,-361.36 565.08,-352 580.67,-346.05 578.34,-334.82 593.08,-327 598.88,-323.92 605,-321.14 611.28,-318.63"/>
<polygon fill="saddlebrown" stroke="saddlebrown" points="612.42,-321.94 620.57,-315.18 609.98,-315.38 612.42,-321.94"/>
</a>
</g>
</g>
<!-- (*github.com/guild&#45;framework/guild&#45;core/pkg/comms/channel.subscriber).Unsubscribe&#45;&gt;(*github.com/guild&#45;framework/guild&#45;core/pkg/gerror.GuildError).WithDetails -->
<g id="edge16" class="edge">
<title>(*github.com/guild&#45;framework/guild&#45;core/pkg/comms/channel.subscriber).Unsubscribe&#45;&gt;(*github.com/guild&#45;framework/guild&#45;core/pkg/gerror.GuildError).WithDetails</title>
<g id="a_edge16"><a xlink:title="at channel.go:303: calling [(*github.com/guild&#45;framework/guild&#45;core/pkg/gerror.GuildError).WithDetails]">
<path fill="none" stroke="saddlebrown" d="M483.88,-357.66C520.69,-367.81 559.74,-378.42 564.08,-379 573.23,-380.22 588.53,-379.17 606,-377"/>
<polygon fill="saddlebrown" stroke="saddlebrown" points="606.18,-380.51 615.62,-375.71 605.25,-373.57 606.18,-380.51"/>
</a>
</g>
</g>
<!-- github.com/guild&#45;framework/guild&#45;core/pkg/comms/channel.newPubSub -->
<g id="node12" class="node">
<title>github.com/guild&#45;framework/guild&#45;core/pkg/comms/channel.newPubSub</title>
<g id="a_node12"><a xlink:title="github.com/guild&#45;framework/guild&#45;core/pkg/comms/channel.newPubSub | defined in channel.go:354&#10;at channel.go:357: calling [github.com/guild&#45;framework/guild&#45;core/pkg/comms/channel.newSubscriber]&#10;at channel.go:356: calling [github.com/guild&#45;framework/guild&#45;core/pkg/comms/channel.newPublisher]">
<path fill="lightblue" stroke="black" stroke-width="0.5" d="M456.45,-296C456.45,-296 374.91,-296 374.91,-296 368.91,-296 362.91,-290 362.91,-284 362.91,-284 362.91,-272 362.91,-272 362.91,-266 368.91,-260 374.91,-260 374.91,-260 456.45,-260 456.45,-260 462.45,-260 468.45,-266 468.45,-272 468.45,-272 468.45,-284 468.45,-284 468.45,-290 462.45,-296 456.45,-296"/>
<text xml:space="preserve" text-anchor="middle" x="415.68" y="-273.32" font-family="Verdana" font-size="14.00">newPubSub</text>
</a>
</g>
</g>
<!-- github.com/guild&#45;framework/guild&#45;core/pkg/comms/channel.newPubSub&#45;&gt;github.com/guild&#45;framework/guild&#45;core/pkg/comms/channel.newPublisher -->
<g id="edge17" class="edge">
<title>github.com/guild&#45;framework/guild&#45;core/pkg/comms/channel.newPubSub&#45;&gt;github.com/guild&#45;framework/guild&#45;core/pkg/comms/channel.newPublisher</title>
<g id="a_edge17"><a xlink:title="at channel.go:356: calling [github.com/guild&#45;framework/guild&#45;core/pkg/comms/channel.newPublisher]">
<path fill="none" stroke="black" d="M468.52,-272.38C488.64,-268.18 510.92,-260.83 528.08,-248 572.34,-214.91 548.3,-174.38 593.08,-142 609,-130.49 628.83,-123.48 647.89,-119.24"/>
<polygon fill="black" stroke="black" points="648.37,-122.71 657.51,-117.34 647.02,-115.84 648.37,-122.71"/>
</a>
</g>
</g>
<!-- github.com/guild&#45;framework/guild&#45;core/pkg/comms/channel.newSubscriber -->
<g id="node13" class="node">
<title>github.com/guild&#45;framework/guild&#45;core/pkg/comms/channel.newSubscriber</title>
<g id="a_node13"><a xlink:title="github.com/guild&#45;framework/guild&#45;core/pkg/comms/channel.newSubscriber | defined in channel.go:224">
<path fill="lightblue" stroke="black" stroke-width="0.5" d="M768.87,-455C768.87,-455 665.58,-455 665.58,-455 659.58,-455 653.58,-449 653.58,-443 653.58,-443 653.58,-431 653.58,-431 653.58,-425 659.58,-419 665.58,-419 665.58,-419 768.87,-419 768.87,-419 774.87,-419 780.87,-425 780.87,-431 780.87,-431 780.87,-443 780.87,-443 780.87,-449 774.87,-455 768.87,-455"/>
<text xml:space="preserve" text-anchor="middle" x="717.22" y="-432.32" font-family="Verdana" font-size="14.00">newSubscriber</text>
</a>
</g>
</g>
<!-- github.com/guild&#45;framework/guild&#45;core/pkg/comms/channel.newPubSub&#45;&gt;github.com/guild&#45;framework/guild&#45;core/pkg/comms/channel.newSubscriber -->
<g id="edge3" class="edge">
<title>github.com/guild&#45;framework/guild&#45;core/pkg/comms/channel.newPubSub&#45;&gt;github.com/guild&#45;framework/guild&#45;core/pkg/comms/channel.newSubscriber</title>
<g id="a_edge3"><a xlink:title="at channel.go:357: calling [github.com/guild&#45;framework/guild&#45;core/pkg/comms/channel.newSubscriber]">
<path fill="none" stroke="black" d="M468.54,-284.14C488.66,-288.53 510.93,-296.07 528.08,-309 572.21,-342.27 547.43,-383.85 593.08,-415 607.5,-424.84 625.01,-430.67 642.24,-434.04"/>
<polygon fill="black" stroke="black" points="641.56,-437.47 652,-435.66 642.71,-430.57 641.56,-437.47"/>
</a>
</g>
</g>
<!-- (*github.com/guild&#45;framework/guild&#45;core/pkg/comms/channel.PubSub).PublishMessage -->
<g id="node14" class="node">
<title>(*github.com/guild&#45;framework/guild&#45;core/pkg/comms/channel.PubSub).PublishMessage</title>
<g id="a_node14"><a xlink:title="(*github.com/guild&#45;framework/guild&#45;core/pkg/comms/channel.PubSub).PublishMessage | defined in channel.go:367&#10;at channel.go:368: calling [(*github.com/guild&#45;framework/guild&#45;core/pkg/comms/channel.Publisher).PublishMessage]">
<path fill="lightblue" stroke="black" stroke-width="1.5" d="M218.29,-601C218.29,-601 28,-601 28,-601 22,-601 16,-595 16,-589 16,-589 16,-577 16,-577 16,-571 22,-565 28,-565 28,-565 218.29,-565 218.29,-565 224.29,-565 230.29,-571 230.29,-577 230.29,-577 230.29,-589 230.29,-589 230.29,-595 224.29,-601 218.29,-601"/>
<text xml:space="preserve" text-anchor="middle" x="123.14" y="-578.33" font-family="Verdana" font-size="14.00">(*PubSub).PublishMessage</text>
</a>
</g>
</g>
<!-- (*github.com/guild&#45;framework/guild&#45;core/pkg/comms/channel.PubSub).PublishMessage&#45;&gt;(*github.com/guild&#45;framework/guild&#45;core/pkg/comms/channel.Publisher).PublishMessage -->
<g id="edge18" class="edge">
<title>(*github.com/guild&#45;framework/guild&#45;core/pkg/comms/channel.PubSub).PublishMessage&#45;&gt;(*github.com/guild&#45;framework/guild&#45;core/pkg/comms/channel.Publisher).PublishMessage</title>
<g id="a_edge18"><a xlink:title="at channel.go:368: calling [(*github.com/guild&#45;framework/guild&#45;core/pkg/comms/channel.Publisher).PublishMessage]">
<path fill="none" stroke="black" d="M230.68,-583C250.4,-583 271.15,-583 291.33,-583"/>
<polygon fill="black" stroke="black" points="291.28,-586.5 301.28,-583 291.28,-579.5 291.28,-586.5"/>
</a>
</g>
</g>
<!-- (*github.com/guild&#45;framework/guild&#45;core/pkg/comms/channel.PubSub).Unsubscribe -->
<g id="node15" class="node">
<title>(*github.com/guild&#45;framework/guild&#45;core/pkg/comms/channel.PubSub).Unsubscribe</title>
<g id="a_node15"><a xlink:title="(*github.com/guild&#45;framework/guild&#45;core/pkg/comms/channel.PubSub).Unsubscribe | defined in channel.go:377&#10;at channel.go:378: calling [(*github.com/guild&#45;framework/guild&#45;core/pkg/comms/channel.subscriber).Unsubscribe]">
<path fill="lightblue" stroke="black" stroke-width="1.5" d="M206.29,-357C206.29,-357 40,-357 40,-357 34,-357 28,-351 28,-345 28,-345 28,-333 28,-333 28,-327 34,-321 40,-321 40,-321 206.29,-321 206.29,-321 212.29,-321 218.29,-327 218.29,-333 218.29,-333 218.29,-345 218.29,-345 218.29,-351 212.29,-357 206.29,-357"/>
<text xml:space="preserve" text-anchor="middle" x="123.14" y="-334.32" font-family="Verdana" font-size="14.00">(*PubSub).Unsubscribe</text>
</a>
</g>
</g>
<!-- (*github.com/guild&#45;framework/guild&#45;core/pkg/comms/channel.PubSub).Unsubscribe&#45;&gt;(*github.com/guild&#45;framework/guild&#45;core/pkg/comms/channel.subscriber).Unsubscribe -->
<g id="edge4" class="edge">
<title>(*github.com/guild&#45;framework/guild&#45;core/pkg/comms/channel.PubSub).Unsubscribe&#45;&gt;(*github.com/guild&#45;framework/guild&#45;core/pkg/comms/channel.subscriber).Unsubscribe</title>
<g id="a_edge4"><a xlink:title="at channel.go:378: calling [(*github.com/guild&#45;framework/guild&#45;core/pkg/comms/channel.subscriber).Unsubscribe]">
<path fill="none" stroke="black" d="M218.88,-339C244.45,-339 272.41,-339 298.99,-339"/>
<polygon fill="black" stroke="black" points="298.78,-342.5 308.78,-339 298.78,-335.5 298.78,-342.5"/>
</a>
</g>
</g>
<!-- (*github.com/guild&#45;framework/guild&#45;core/pkg/comms/channel.Transport).NewPubSub -->
<g id="node16" class="node">
<title>(*github.com/guild&#45;framework/guild&#45;core/pkg/comms/channel.Transport).NewPubSub</title>
<g id="a_node16"><a xlink:title="(*github.com/guild&#45;framework/guild&#45;core/pkg/comms/channel.Transport).NewPubSub | defined in channel.go:50&#10;at channel.go:56: calling [github.com/guild&#45;framework/guild&#45;core/pkg/comms/channel.newPubSub]">
<path fill="lightblue" stroke="black" stroke-width="1.5" d="M211.16,-296C211.16,-296 35.12,-296 35.12,-296 29.12,-296 23.12,-290 23.12,-284 23.12,-284 23.12,-272 23.12,-272 23.12,-266 29.12,-260 35.12,-260 35.12,-260 211.16,-260 211.16,-260 217.16,-260 223.16,-266 223.16,-272 223.16,-272 223.16,-284 223.16,-284 223.16,-290 217.16,-296 211.16,-296"/>
<text xml:space="preserve" text-anchor="middle" x="123.14" y="-273.32" font-family="Verdana" font-size="14.00">(*Transport).NewPubSub</text>
</a>
</g>
</g>
<!-- (*github.com/guild&#45;framework/guild&#45;core/pkg/comms/channel.Transport).NewPubSub&#45;&gt;github.com/guild&#45;framework/guild&#45;core/pkg/comms/channel.newPubSub -->
<g id="edge19" class="edge">
<title>(*github.com/guild&#45;framework/guild&#45;core/pkg/comms/channel.Transport).NewPubSub&#45;&gt;github.com/guild&#45;framework/guild&#45;core/pkg/comms/channel.newPubSub</title>
<g id="a_edge19"><a xlink:title="at channel.go:56: calling [github.com/guild&#45;framework/guild&#45;core/pkg/comms/channel.newPubSub]">
<path fill="none" stroke="black" d="M223.73,-278C266.15,-278 314.37,-278 351.74,-278"/>
<polygon fill="black" stroke="black" points="351.45,-281.5 361.45,-278 351.45,-274.5 351.45,-281.5"/>
</a>
</g>
</g>
<!-- (*github.com/guild&#45;framework/guild&#45;core/pkg/comms/channel.PubSub).Subscribe -->
<g id="node17" class="node">
<title>(*github.com/guild&#45;framework/guild&#45;core/pkg/comms/channel.PubSub).Subscribe</title>
<g id="a_node17"><a xlink:title="(*github.com/guild&#45;framework/guild&#45;core/pkg/comms/channel.PubSub).Subscribe | defined in channel.go:372&#10;at channel.go:373: calling [(*github.com/guild&#45;framework/guild&#45;core/pkg/comms/channel.subscriber).Subscribe]">
<path fill="lightblue" stroke="black" stroke-width="1.5" d="M197.66,-235C197.66,-235 48.62,-235 48.62,-235 42.62,-235 36.62,-229 36.62,-223 36.62,-223 36.62,-211 36.62,-211 36.62,-205 42.62,-199 48.62,-199 48.62,-199 197.66,-199 197.66,-199 203.66,-199 209.66,-205 209.66,-211 209.66,-211 209.66,-223 209.66,-223 209.66,-229 203.66,-235 197.66,-235"/>
<text xml:space="preserve" text-anchor="middle" x="123.14" y="-212.32" font-family="Verdana" font-size="14.00">(*PubSub).Subscribe</text>
</a>
</g>
</g>
<!-- (*github.com/guild&#45;framework/guild&#45;core/pkg/comms/channel.PubSub).Subscribe&#45;&gt;(*github.com/guild&#45;framework/guild&#45;core/pkg/comms/channel.subscriber).Subscribe -->
<g id="edge11" class="edge">
<title>(*github.com/guild&#45;framework/guild&#45;core/pkg/comms/channel.PubSub).Subscribe&#45;&gt;(*github.com/guild&#45;framework/guild&#45;core/pkg/comms/channel.subscriber).Subscribe</title>
<g id="a_edge11"><a xlink:title="at channel.go:373: calling [(*github.com/guild&#45;framework/guild&#45;core/pkg/comms/channel.subscriber).Subscribe]">
<path fill="none" stroke="black" d="M210.14,-217C240.67,-217 275.43,-217 307.51,-217"/>
<polygon fill="black" stroke="black" points="307.22,-220.5 317.22,-217 307.22,-213.5 307.22,-220.5"/>
</a>
</g>
</g>
<!-- (*github.com/guild&#45;framework/guild&#45;core/pkg/comms/channel.PubSub).Publish -->
<g id="node18" class="node">
<title>(*github.com/guild&#45;framework/guild&#45;core/pkg/comms/channel.PubSub).Publish</title>
<g id="a_node18"><a xlink:title="(*github.com/guild&#45;framework/guild&#45;core/pkg/comms/channel.PubSub).Publish | defined in channel.go:362&#10;at channel.go:363: calling [(*github.com/guild&#45;framework/guild&#45;core/pkg/comms/channel.Publisher).Publish]">
<path fill="lightblue" stroke="black" stroke-width="1.5" d="M480.45,-479C480.45,-479 350.91,-479 350.91,-479 344.91,-479 338.91,-473 338.91,-467 338.91,-467 338.91,-455 338.91,-455 338.91,-449 344.91,-443 350.91,-443 350.91,-443 480.45,-443 480.45,-443 486.45,-443 492.45,-449 492.45,-455 492.45,-455 492.45,-467 492.45,-467 492.45,-473 486.45,-479 480.45,-479"/>
<text xml:space="preserve" text-anchor="middle" x="415.68" y="-456.32" font-family="Verdana" font-size="14.00">(*PubSub).Publish</text>
</a>
</g>
</g>
<!-- (*github.com/guild&#45;framework/guild&#45;core/pkg/comms/channel.PubSub).Publish&#45;&gt;(*github.com/guild&#45;framework/guild&#45;core/pkg/comms/channel.Publisher).Publish -->
<g id="edge6" class="edge">
<title>(*github.com/guild&#45;framework/guild&#45;core/pkg/comms/channel.PubSub).Publish&#45;&gt;(*github.com/guild&#45;framework/guild&#45;core/pkg/comms/channel.Publisher).Publish</title>
<g id="a_edge6"><a xlink:title="at channel.go:363: calling [(*github.com/guild&#45;framework/guild&#45;core/pkg/comms/channel.Publisher).Publish]">
<path fill="none" stroke="black" d="M488.43,-479.68C532,-491.03 587.8,-505.56 633.26,-517.4"/>
<polygon fill="black" stroke="black" points="632.26,-520.75 642.82,-519.89 634.02,-513.98 632.26,-520.75"/>
</a>
</g>
</g>
<!-- (*github.com/guild&#45;framework/guild&#45;core/pkg/comms/channel.PubSub).Receive -->
<g id="node19" class="node">
<title>(*github.com/guild&#45;framework/guild&#45;core/pkg/comms/channel.PubSub).Receive</title>
<g id="a_node19"><a xlink:title="(*github.com/guild&#45;framework/guild&#45;core/pkg/comms/channel.PubSub).Receive | defined in channel.go:382&#10;at channel.go:383: calling [(*github.com/guild&#45;framework/guild&#45;core/pkg/comms/channel.subscriber).Receive]">
<path fill="lightblue" stroke="black" stroke-width="1.5" d="M189.79,-540C189.79,-540 56.5,-540 56.5,-540 50.5,-540 44.5,-534 44.5,-528 44.5,-528 44.5,-516 44.5,-516 44.5,-510 50.5,-504 56.5,-504 56.5,-504 189.79,-504 189.79,-504 195.79,-504 201.79,-510 201.79,-516 201.79,-516 201.79,-528 201.79,-528 201.79,-534 195.79,-540 189.79,-540"/>
<text xml:space="preserve" text-anchor="middle" x="123.14" y="-517.33" font-family="Verdana" font-size="14.00">(*PubSub).Receive</text>
</a>
</g>
</g>
<!-- (*github.com/guild&#45;framework/guild&#45;core/pkg/comms/channel.subscriber).Receive -->
<g id="node20" class="node">
<title>(*github.com/guild&#45;framework/guild&#45;core/pkg/comms/channel.subscriber).Receive</title>
<g id="a_node20"><a xlink:title="(*github.com/guild&#45;framework/guild&#45;core/pkg/comms/channel.subscriber).Receive | defined in channel.go:317">
<path fill="lightblue" stroke="black" stroke-width="1.5" d="M492.08,-540C492.08,-540 339.29,-540 339.29,-540 333.29,-540 327.29,-534 327.29,-528 327.29,-528 327.29,-516 327.29,-516 327.29,-510 333.29,-504 339.29,-504 339.29,-504 492.08,-504 492.08,-504 498.08,-504 504.08,-510 504.08,-516 504.08,-516 504.08,-528 504.08,-528 504.08,-534 498.08,-540 492.08,-540"/>
<text xml:space="preserve" text-anchor="middle" x="415.68" y="-517.33" font-family="Verdana" font-size="14.00">(*subscriber).Receive</text>
</a>
</g>
</g>
<!-- (*github.com/guild&#45;framework/guild&#45;core/pkg/comms/channel.PubSub).Receive&#45;&gt;(*github.com/guild&#45;framework/guild&#45;core/pkg/comms/channel.subscriber).Receive -->
<g id="edge20" class="edge">
<title>(*github.com/guild&#45;framework/guild&#45;core/pkg/comms/channel.PubSub).Receive&#45;&gt;(*github.com/guild&#45;framework/guild&#45;core/pkg/comms/channel.subscriber).Receive</title>
<g id="a_edge20"><a xlink:title="at channel.go:383: calling [(*github.com/guild&#45;framework/guild&#45;core/pkg/comms/channel.subscriber).Receive]">
<path fill="none" stroke="black" d="M202.39,-522C237.11,-522 278.39,-522 315.27,-522"/>
<polygon fill="black" stroke="black" points="315.05,-525.5 325.05,-522 315.05,-518.5 315.05,-525.5"/>
</a>
</g>
</g>
<!-- (*github.com/guild&#45;framework/guild&#45;core/pkg/comms/channel.Transport).NewSubscriber -->
<g id="node21" class="node">
<title>(*github.com/guild&#45;framework/guild&#45;core/pkg/comms/channel.Transport).NewSubscriber</title>
<g id="a_node21"><a xlink:title="(*github.com/guild&#45;framework/guild&#45;core/pkg/comms/channel.Transport).NewSubscriber | defined in channel.go:40&#10;at channel.go:46: calling [github.com/guild&#45;framework/guild&#45;core/pkg/comms/channel.newSubscriber]">
<path fill="lightblue" stroke="black" stroke-width="1.5" d="M514.58,-418C514.58,-418 316.79,-418 316.79,-418 310.79,-418 304.79,-412 304.79,-406 304.79,-406 304.79,-394 304.79,-394 304.79,-388 310.79,-382 316.79,-382 316.79,-382 514.58,-382 514.58,-382 520.58,-382 526.58,-388 526.58,-394 526.58,-394 526.58,-406 526.58,-406 526.58,-412 520.58,-418 514.58,-418"/>
<text xml:space="preserve" text-anchor="middle" x="415.68" y="-395.32" font-family="Verdana" font-size="14.00">(*Transport).NewSubscriber</text>
</a>
</g>
</g>
<!-- (*github.com/guild&#45;framework/guild&#45;core/pkg/comms/channel.Transport).NewSubscriber&#45;&gt;github.com/guild&#45;framework/guild&#45;core/pkg/comms/channel.newSubscriber -->
<g id="edge12" class="edge">
<title>(*github.com/guild&#45;framework/guild&#45;core/pkg/comms/channel.Transport).NewSubscriber&#45;&gt;github.com/guild&#45;framework/guild&#45;core/pkg/comms/channel.newSubscriber</title>
<g id="a_edge12"><a xlink:title="at channel.go:46: calling [github.com/guild&#45;framework/guild&#45;core/pkg/comms/channel.newSubscriber]">
<path fill="none" stroke="black" d="M526.95,-413.62C565.48,-418.38 607.77,-423.6 642.59,-427.9"/>
<polygon fill="black" stroke="black" points="641.76,-431.33 652.11,-429.08 642.62,-424.38 641.76,-431.33"/>
</a>
</g>
</g>
<!-- github.com/guild&#45;framework/guild&#45;core/pkg/comms/channel.NewTransport -->
<g id="node22" class="node">
<title>github.com/guild&#45;framework/guild&#45;core/pkg/comms/channel.NewTransport</title>
<g id="a_node22"><a xlink:title="github.com/guild&#45;framework/guild&#45;core/pkg/comms/channel.NewTransport | defined in channel.go:23&#10;at channel.go:25: calling [github.com/guild&#45;framework/guild&#45;core/pkg/comms/channel.newTopicRegistry]">
<path fill="lightblue" stroke="black" stroke-width="1.5" d="M171.04,-662C171.04,-662 75.25,-662 75.25,-662 69.25,-662 63.25,-656 63.25,-650 63.25,-650 63.25,-638 63.25,-638 63.25,-632 69.25,-626 75.25,-626 75.25,-626 171.04,-626 171.04,-626 177.04,-626 183.04,-632 183.04,-638 183.04,-638 183.04,-650 183.04,-650 183.04,-656 177.04,-662 171.04,-662"/>
<text xml:space="preserve" text-anchor="middle" x="123.14" y="-639.33" font-family="Verdana" font-size="14.00">NewTransport</text>
</a>
</g>
</g>
<!-- github.com/guild&#45;framework/guild&#45;core/pkg/comms/channel.NewTransport&#45;&gt;github.com/guild&#45;framework/guild&#45;core/pkg/comms/channel.newTopicRegistry -->
<g id="edge7" class="edge">
<title>github.com/guild&#45;framework/guild&#45;core/pkg/comms/channel.NewTransport&#45;&gt;github.com/guild&#45;framework/guild&#45;core/pkg/comms/channel.newTopicRegistry</title>
<g id="a_edge7"><a xlink:title="at channel.go:25: calling [github.com/guild&#45;framework/guild&#45;core/pkg/comms/channel.newTopicRegistry]">
<path fill="none" stroke="black" d="M183.64,-644C226.28,-644 284.27,-644 331.49,-644"/>
<polygon fill="black" stroke="black" points="331.43,-647.5 341.43,-644 331.43,-640.5 331.43,-647.5"/>
</a>
</g>
</g>
</g>
</svg>
