<?xml version="1.0" encoding="UTF-8" standalone="no"?>
<!DOCTYPE svg PUBLIC "-//W3C//DTD SVG 1.1//EN"
 "http://www.w3.org/Graphics/SVG/1.1/DTD/svg11.dtd">
<!-- Generated by graphviz version 14.1.1 (20251213.1925)
 -->
<!-- Title: gocallvis Pages: 1 -->
<svg width="1176pt" height="456pt"
 viewBox="0.00 0.00 1176.00 456.00" xmlns="http://www.w3.org/2000/svg" xmlns:xlink="http://www.w3.org/1999/xlink">
<g id="graph0" class="graph" transform="scale(1 1) rotate(0) translate(0 456)">
<title>gocallvis</title>
<polygon fill="lightgray" stroke="none" points="0,0 0,-456 1175.62,-456 1175.62,0 0,0"/>
<g id="clust1" class="cluster">
<title>cluster_focus</title>
<polygon fill="#e6ecfa" stroke="black" stroke-width="0.5" points="8,-8 8,-448 1167.62,-448 1167.62,-8 8,-8"/>
<text xml:space="preserve" text-anchor="middle" x="587.81" y="-426.9" font-family="Arial" font-size="18.00">promptchain</text>
</g>
<g id="clust2" class="cluster">
<title>cluster_github.com/guild&#45;framework/guild&#45;core/pkg/gerror</title>
<g id="a_clust2"><a xlink:href="/?f=github.com/guild-framework/guild-core/pkg/gerror" xlink:title="package: github.com/guild&#45;framework/guild&#45;core/pkg/gerror">
<polygon fill="lightyellow" stroke="black" stroke-width="0.8" points="920.08,-163 920.08,-304 995.87,-304 995.87,-163 920.08,-163"/>
<text xml:space="preserve" text-anchor="middle" x="957.98" y="-284.8" font-family="Tahoma bold" font-size="16.00">gerror</text>
</a>
</g>
</g>
<!-- (*github.com/guild&#45;framework/guild&#45;core/pkg/storage/promptchain.sqliteChainManager).AddMessage -->
<g id="node1" class="node">
<title>(*github.com/guild&#45;framework/guild&#45;core/pkg/storage/promptchain.sqliteChainManager).AddMessage</title>
<g id="a_node1"><a xlink:title="(*github.com/guild&#45;framework/guild&#45;core/pkg/storage/promptchain.sqliteChainManager).AddMessage | defined in sqlite_chain_manager.go:74&#10;at sqlite_chain_manager.go:76: calling [github.com/guild&#45;framework/guild&#45;core/pkg/gerror.New]&#10;at sqlite_chain_manager.go:80: calling [github.com/guild&#45;framework/guild&#45;core/pkg/gerror.New]&#10;at sqlite_chain_manager.go:84: calling [github.com/guild&#45;framework/guild&#45;core/pkg/gerror.New]&#10;at sqlite_chain_manager.go:108: calling [github.com/guild&#45;framework/guild&#45;core/pkg/gerror.Wrap]">
<path fill="lightblue" stroke="black" stroke-width="1.5" d="M650.33,-384C650.33,-384 398.54,-384 398.54,-384 392.54,-384 386.54,-378 386.54,-372 386.54,-372 386.54,-360 386.54,-360 386.54,-354 392.54,-348 398.54,-348 398.54,-348 650.33,-348 650.33,-348 656.33,-348 662.33,-354 662.33,-360 662.33,-360 662.33,-372 662.33,-372 662.33,-378 656.33,-384 650.33,-384"/>
<text xml:space="preserve" text-anchor="middle" x="524.44" y="-361.32" font-family="Verdana" font-size="14.00">(*sqliteChainManager).AddMessage</text>
</a>
</g>
</g>
<!-- github.com/guild&#45;framework/guild&#45;core/pkg/gerror.New -->
<g id="node9" class="node">
<title>github.com/guild&#45;framework/guild&#45;core/pkg/gerror.New</title>
<g id="a_node9"><a xlink:title="github.com/guild&#45;framework/guild&#45;core/pkg/gerror.New | defined in errors.go:190">
<path fill="moccasin" stroke="black" stroke-width="1.5" d="M972.98,-268C972.98,-268 942.98,-268 942.98,-268 936.98,-268 930.98,-262 930.98,-256 930.98,-256 930.98,-244 930.98,-244 930.98,-238 936.98,-232 942.98,-232 942.98,-232 972.98,-232 972.98,-232 978.98,-232 984.98,-238 984.98,-244 984.98,-244 984.98,-256 984.98,-256 984.98,-262 978.98,-268 972.98,-268"/>
<text xml:space="preserve" text-anchor="middle" x="957.98" y="-245.32" font-family="Verdana" font-size="14.00">New</text>
</a>
</g>
</g>
<!-- (*github.com/guild&#45;framework/guild&#45;core/pkg/storage/promptchain.sqliteChainManager).AddMessage&#45;&gt;github.com/guild&#45;framework/guild&#45;core/pkg/gerror.New -->
<g id="edge1" class="edge">
<title>(*github.com/guild&#45;framework/guild&#45;core/pkg/storage/promptchain.sqliteChainManager).AddMessage&#45;&gt;github.com/guild&#45;framework/guild&#45;core/pkg/gerror.New</title>
<g id="a_edge1"><a xlink:title="at sqlite_chain_manager.go:76: calling [github.com/guild&#45;framework/guild&#45;core/pkg/gerror.New]&#10;at sqlite_chain_manager.go:80: calling [github.com/guild&#45;framework/guild&#45;core/pkg/gerror.New]&#10;at sqlite_chain_manager.go:84: calling [github.com/guild&#45;framework/guild&#45;core/pkg/gerror.New]">
<path fill="none" stroke="saddlebrown" d="M662.87,-358.53C682.32,-355.97 701.94,-352.55 720.33,-348 794.06,-329.77 874.75,-292.24 920.29,-269.28"/>
<polygon fill="saddlebrown" stroke="saddlebrown" points="921.88,-272.4 929.2,-264.74 918.7,-266.16 921.88,-272.4"/>
</a>
</g>
</g>
<!-- github.com/guild&#45;framework/guild&#45;core/pkg/gerror.Wrap -->
<g id="node10" class="node">
<title>github.com/guild&#45;framework/guild&#45;core/pkg/gerror.Wrap</title>
<g id="a_node10"><a xlink:title="github.com/guild&#45;framework/guild&#45;core/pkg/gerror.Wrap | defined in errors.go:223">
<path fill="moccasin" stroke="black" stroke-width="1.5" d="M975.87,-207C975.87,-207 940.08,-207 940.08,-207 934.08,-207 928.08,-201 928.08,-195 928.08,-195 928.08,-183 928.08,-183 928.08,-177 934.08,-171 940.08,-171 940.08,-171 975.87,-171 975.87,-171 981.87,-171 987.87,-177 987.87,-183 987.87,-183 987.87,-195 987.87,-195 987.87,-201 981.87,-207 975.87,-207"/>
<text xml:space="preserve" text-anchor="middle" x="957.98" y="-184.32" font-family="Verdana" font-size="14.00">Wrap</text>
</a>
</g>
</g>
<!-- (*github.com/guild&#45;framework/guild&#45;core/pkg/storage/promptchain.sqliteChainManager).AddMessage&#45;&gt;github.com/guild&#45;framework/guild&#45;core/pkg/gerror.Wrap -->
<g id="edge2" class="edge">
<title>(*github.com/guild&#45;framework/guild&#45;core/pkg/storage/promptchain.sqliteChainManager).AddMessage&#45;&gt;github.com/guild&#45;framework/guild&#45;core/pkg/gerror.Wrap</title>
<g id="a_edge2"><a xlink:title="at sqlite_chain_manager.go:108: calling [github.com/guild&#45;framework/guild&#45;core/pkg/gerror.Wrap]">
<path fill="none" stroke="saddlebrown" d="M662.72,-347.47C669.94,-344.2 676.87,-340.4 683.33,-336 733.66,-301.68 705.42,-253.44 756.33,-220 804.4,-188.43 872.7,-184.51 915.91,-185.82"/>
<polygon fill="saddlebrown" stroke="saddlebrown" points="915.75,-189.31 925.89,-186.24 916.05,-182.32 915.75,-189.31"/>
</a>
</g>
</g>
<!-- (*github.com/guild&#45;framework/guild&#45;core/pkg/storage/promptchain.sqliteChainManager).BuildContext -->
<g id="node2" class="node">
<title>(*github.com/guild&#45;framework/guild&#45;core/pkg/storage/promptchain.sqliteChainManager).BuildContext</title>
<g id="a_node2"><a xlink:title="(*github.com/guild&#45;framework/guild&#45;core/pkg/storage/promptchain.sqliteChainManager).BuildContext | defined in sqlite_chain_manager.go:181&#10;at sqlite_chain_manager.go:192: calling [(*github.com/guild&#45;framework/guild&#45;core/pkg/storage/promptchain.sqliteChainManager).GetChainsByTask]&#10;at sqlite_chain_manager.go:198: calling [(*github.com/guild&#45;framework/guild&#45;core/pkg/storage/promptchain.sqliteChainManager).GetChainsByAgent]&#10;at sqlite_chain_manager.go:209: calling [(*github.com/guild&#45;framework/guild&#45;core/pkg/storage/promptchain.sqliteChainManager).GetChain]&#10;at sqlite_chain_manager.go:183: calling [github.com/guild&#45;framework/guild&#45;core/pkg/gerror.New]&#10;at sqlite_chain_manager.go:194: calling [github.com/guild&#45;framework/guild&#45;core/pkg/gerror.Wrap]&#10;at sqlite_chain_manager.go:200: calling [github.com/guild&#45;framework/guild&#45;core/pkg/gerror.Wrap]">
<path fill="lightblue" stroke="black" stroke-width="1.5" d="M280.54,-140C280.54,-140 28,-140 28,-140 22,-140 16,-134 16,-128 16,-128 16,-116 16,-116 16,-110 22,-104 28,-104 28,-104 280.54,-104 280.54,-104 286.54,-104 292.54,-110 292.54,-116 292.54,-116 292.54,-128 292.54,-128 292.54,-134 286.54,-140 280.54,-140"/>
<text xml:space="preserve" text-anchor="middle" x="154.27" y="-117.33" font-family="Verdana" font-size="14.00">(*sqliteChainManager).BuildContext</text>
</a>
</g>
</g>
<!-- (*github.com/guild&#45;framework/guild&#45;core/pkg/storage/promptchain.sqliteChainManager).GetChainsByTask -->
<g id="node3" class="node">
<title>(*github.com/guild&#45;framework/guild&#45;core/pkg/storage/promptchain.sqliteChainManager).GetChainsByTask</title>
<g id="a_node3"><a xlink:title="(*github.com/guild&#45;framework/guild&#45;core/pkg/storage/promptchain.sqliteChainManager).GetChainsByTask | defined in sqlite_chain_manager.go:148&#10;at sqlite_chain_manager.go:150: calling [github.com/guild&#45;framework/guild&#45;core/pkg/gerror.New]&#10;at sqlite_chain_manager.go:155: calling [github.com/guild&#45;framework/guild&#45;core/pkg/gerror.Wrap]">
<path fill="lightblue" stroke="black" stroke-width="1.5" d="M666.08,-140C666.08,-140 382.79,-140 382.79,-140 376.79,-140 370.79,-134 370.79,-128 370.79,-128 370.79,-116 370.79,-116 370.79,-110 376.79,-104 382.79,-104 382.79,-104 666.08,-104 666.08,-104 672.08,-104 678.08,-110 678.08,-116 678.08,-116 678.08,-128 678.08,-128 678.08,-134 672.08,-140 666.08,-140"/>
<text xml:space="preserve" text-anchor="middle" x="524.44" y="-117.33" font-family="Verdana" font-size="14.00">(*sqliteChainManager).GetChainsByTask</text>
</a>
</g>
</g>
<!-- (*github.com/guild&#45;framework/guild&#45;core/pkg/storage/promptchain.sqliteChainManager).BuildContext&#45;&gt;(*github.com/guild&#45;framework/guild&#45;core/pkg/storage/promptchain.sqliteChainManager).GetChainsByTask -->
<g id="edge3" class="edge">
<title>(*github.com/guild&#45;framework/guild&#45;core/pkg/storage/promptchain.sqliteChainManager).BuildContext&#45;&gt;(*github.com/guild&#45;framework/guild&#45;core/pkg/storage/promptchain.sqliteChainManager).GetChainsByTask</title>
<g id="a_edge3"><a xlink:title="at sqlite_chain_manager.go:192: calling [(*github.com/guild&#45;framework/guild&#45;core/pkg/storage/promptchain.sqliteChainManager).GetChainsByTask]">
<path fill="none" stroke="black" d="M293.15,-122C314.53,-122 336.8,-122 358.7,-122"/>
<polygon fill="black" stroke="black" points="358.6,-125.5 368.6,-122 358.6,-118.5 358.6,-125.5"/>
</a>
</g>
</g>
<!-- (*github.com/guild&#45;framework/guild&#45;core/pkg/storage/promptchain.sqliteChainManager).GetChainsByAgent -->
<g id="node4" class="node">
<title>(*github.com/guild&#45;framework/guild&#45;core/pkg/storage/promptchain.sqliteChainManager).GetChainsByAgent</title>
<g id="a_node4"><a xlink:title="(*github.com/guild&#45;framework/guild&#45;core/pkg/storage/promptchain.sqliteChainManager).GetChainsByAgent | defined in sqlite_chain_manager.go:115&#10;at sqlite_chain_manager.go:122: calling [github.com/guild&#45;framework/guild&#45;core/pkg/gerror.Wrap]&#10;at sqlite_chain_manager.go:117: calling [github.com/guild&#45;framework/guild&#45;core/pkg/gerror.New]">
<path fill="lightblue" stroke="black" stroke-width="1.5" d="M671.33,-262C671.33,-262 377.54,-262 377.54,-262 371.54,-262 365.54,-256 365.54,-250 365.54,-250 365.54,-238 365.54,-238 365.54,-232 371.54,-226 377.54,-226 377.54,-226 671.33,-226 671.33,-226 677.33,-226 683.33,-232 683.33,-238 683.33,-238 683.33,-250 683.33,-250 683.33,-256 677.33,-262 671.33,-262"/>
<text xml:space="preserve" text-anchor="middle" x="524.44" y="-239.32" font-family="Verdana" font-size="14.00">(*sqliteChainManager).GetChainsByAgent</text>
</a>
</g>
</g>
<!-- (*github.com/guild&#45;framework/guild&#45;core/pkg/storage/promptchain.sqliteChainManager).BuildContext&#45;&gt;(*github.com/guild&#45;framework/guild&#45;core/pkg/storage/promptchain.sqliteChainManager).GetChainsByAgent -->
<g id="edge12" class="edge">
<title>(*github.com/guild&#45;framework/guild&#45;core/pkg/storage/promptchain.sqliteChainManager).BuildContext&#45;&gt;(*github.com/guild&#45;framework/guild&#45;core/pkg/storage/promptchain.sqliteChainManager).GetChainsByAgent</title>
<g id="a_edge12"><a xlink:title="at sqlite_chain_manager.go:198: calling [(*github.com/guild&#45;framework/guild&#45;core/pkg/storage/promptchain.sqliteChainManager).GetChainsByAgent]">
<path fill="none" stroke="black" d="M191.16,-140.68C232.28,-161.37 302.16,-194.39 365.54,-214 375.84,-217.19 386.62,-220.09 397.51,-222.73"/>
<polygon fill="black" stroke="black" points="396.41,-226.07 406.95,-224.94 398.01,-219.26 396.41,-226.07"/>
</a>
</g>
</g>
<!-- (*github.com/guild&#45;framework/guild&#45;core/pkg/storage/promptchain.sqliteChainManager).GetChain -->
<g id="node5" class="node">
<title>(*github.com/guild&#45;framework/guild&#45;core/pkg/storage/promptchain.sqliteChainManager).GetChain</title>
<g id="a_node5"><a xlink:title="(*github.com/guild&#45;framework/guild&#45;core/pkg/storage/promptchain.sqliteChainManager).GetChain | defined in sqlite_chain_manager.go:60&#10;at sqlite_chain_manager.go:62: calling [github.com/guild&#45;framework/guild&#45;core/pkg/gerror.New]&#10;at sqlite_chain_manager.go:67: calling [github.com/guild&#45;framework/guild&#45;core/pkg/gerror.Wrap]&#10;at sqlite_chain_manager.go:70: calling [(*github.com/guild&#45;framework/guild&#45;core/pkg/storage/promptchain.sqliteChainManager).convertStorageChainToDomain]">
<path fill="lightblue" stroke="black" stroke-width="1.5" d="M637.96,-52C637.96,-52 410.92,-52 410.92,-52 404.92,-52 398.92,-46 398.92,-40 398.92,-40 398.92,-28 398.92,-28 398.92,-22 404.92,-16 410.92,-16 410.92,-16 637.96,-16 637.96,-16 643.96,-16 649.96,-22 649.96,-28 649.96,-28 649.96,-40 649.96,-40 649.96,-46 643.96,-52 637.96,-52"/>
<text xml:space="preserve" text-anchor="middle" x="524.44" y="-29.32" font-family="Verdana" font-size="14.00">(*sqliteChainManager).GetChain</text>
</a>
</g>
</g>
<!-- (*github.com/guild&#45;framework/guild&#45;core/pkg/storage/promptchain.sqliteChainManager).BuildContext&#45;&gt;(*github.com/guild&#45;framework/guild&#45;core/pkg/storage/promptchain.sqliteChainManager).GetChain -->
<g id="edge13" class="edge">
<title>(*github.com/guild&#45;framework/guild&#45;core/pkg/storage/promptchain.sqliteChainManager).BuildContext&#45;&gt;(*github.com/guild&#45;framework/guild&#45;core/pkg/storage/promptchain.sqliteChainManager).GetChain</title>
<g id="a_edge13"><a xlink:title="at sqlite_chain_manager.go:209: calling [(*github.com/guild&#45;framework/guild&#45;core/pkg/storage/promptchain.sqliteChainManager).GetChain]">
<path fill="none" stroke="black" d="M213.43,-103.32C246.88,-92.97 289.83,-80.35 328.54,-71 352.67,-65.17 378.67,-59.69 403.56,-54.83"/>
<polygon fill="black" stroke="black" points="403.89,-58.33 413.04,-53 402.56,-51.46 403.89,-58.33"/>
</a>
</g>
</g>
<!-- (*github.com/guild&#45;framework/guild&#45;core/pkg/storage/promptchain.sqliteChainManager).BuildContext&#45;&gt;github.com/guild&#45;framework/guild&#45;core/pkg/gerror.New -->
<g id="edge15" class="edge">
<title>(*github.com/guild&#45;framework/guild&#45;core/pkg/storage/promptchain.sqliteChainManager).BuildContext&#45;&gt;github.com/guild&#45;framework/guild&#45;core/pkg/gerror.New</title>
<g id="a_edge15"><a xlink:title="at sqlite_chain_manager.go:183: calling [github.com/guild&#45;framework/guild&#45;core/pkg/gerror.New]">
<path fill="none" stroke="saddlebrown" d="M162.39,-140.4C183.71,-192.56 252.66,-341.22 365.54,-397 492.16,-459.58 546.36,-431.46 683.33,-397 777.22,-373.38 874,-310.59 923.45,-275.19"/>
<polygon fill="saddlebrown" stroke="saddlebrown" points="925.42,-278.08 931.46,-269.38 921.31,-272.41 925.42,-278.08"/>
</a>
</g>
</g>
<!-- (*github.com/guild&#45;framework/guild&#45;core/pkg/storage/promptchain.sqliteChainManager).BuildContext&#45;&gt;github.com/guild&#45;framework/guild&#45;core/pkg/gerror.Wrap -->
<g id="edge16" class="edge">
<title>(*github.com/guild&#45;framework/guild&#45;core/pkg/storage/promptchain.sqliteChainManager).BuildContext&#45;&gt;github.com/guild&#45;framework/guild&#45;core/pkg/gerror.Wrap</title>
<g id="a_edge16"><a xlink:title="at sqlite_chain_manager.go:194: calling [github.com/guild&#45;framework/guild&#45;core/pkg/gerror.Wrap]&#10;at sqlite_chain_manager.go:200: calling [github.com/guild&#45;framework/guild&#45;core/pkg/gerror.Wrap]">
<path fill="none" stroke="saddlebrown" d="M265.45,-103.28C297.61,-98.63 332.9,-94.32 365.54,-92 506.43,-82 553.21,-37.07 683.33,-92 726.18,-110.09 714.53,-146.6 756.33,-167 807.17,-191.81 873.69,-194.08 915.88,-192.37"/>
<polygon fill="saddlebrown" stroke="saddlebrown" points="916.05,-195.87 925.86,-191.86 915.69,-188.87 916.05,-195.87"/>
</a>
</g>
</g>
<!-- (*github.com/guild&#45;framework/guild&#45;core/pkg/storage/promptchain.sqliteChainManager).GetChainsByTask&#45;&gt;github.com/guild&#45;framework/guild&#45;core/pkg/gerror.New -->
<g id="edge9" class="edge">
<title>(*github.com/guild&#45;framework/guild&#45;core/pkg/storage/promptchain.sqliteChainManager).GetChainsByTask&#45;&gt;github.com/guild&#45;framework/guild&#45;core/pkg/gerror.New</title>
<g id="a_edge9"><a xlink:title="at sqlite_chain_manager.go:150: calling [github.com/guild&#45;framework/guild&#45;core/pkg/gerror.New]">
<path fill="none" stroke="saddlebrown" d="M653.32,-140.73C663.72,-144.16 673.86,-148.21 683.33,-153 722.63,-172.87 716.59,-201.02 756.33,-220 808.95,-245.13 877.42,-250.3 919.24,-250.82"/>
<polygon fill="saddlebrown" stroke="saddlebrown" points="919.02,-254.32 929.03,-250.85 919.04,-247.32 919.02,-254.32"/>
</a>
</g>
</g>
<!-- (*github.com/guild&#45;framework/guild&#45;core/pkg/storage/promptchain.sqliteChainManager).GetChainsByTask&#45;&gt;github.com/guild&#45;framework/guild&#45;core/pkg/gerror.Wrap -->
<g id="edge10" class="edge">
<title>(*github.com/guild&#45;framework/guild&#45;core/pkg/storage/promptchain.sqliteChainManager).GetChainsByTask&#45;&gt;github.com/guild&#45;framework/guild&#45;core/pkg/gerror.Wrap</title>
<g id="a_edge10"><a xlink:title="at sqlite_chain_manager.go:155: calling [github.com/guild&#45;framework/guild&#45;core/pkg/gerror.Wrap]">
<path fill="none" stroke="saddlebrown" d="M678.74,-133.7C692.99,-136.7 707.05,-140.41 720.33,-145 738.05,-151.13 738.58,-160.94 756.33,-167 809.57,-185.17 874.94,-189.2 916.29,-189.68"/>
<polygon fill="saddlebrown" stroke="saddlebrown" points="916.01,-193.18 926.03,-189.73 916.04,-186.18 916.01,-193.18"/>
</a>
</g>
</g>
<!-- (*github.com/guild&#45;framework/guild&#45;core/pkg/storage/promptchain.sqliteChainManager).GetChainsByAgent&#45;&gt;github.com/guild&#45;framework/guild&#45;core/pkg/gerror.New -->
<g id="edge11" class="edge">
<title>(*github.com/guild&#45;framework/guild&#45;core/pkg/storage/promptchain.sqliteChainManager).GetChainsByAgent&#45;&gt;github.com/guild&#45;framework/guild&#45;core/pkg/gerror.New</title>
<g id="a_edge11"><a xlink:title="at sqlite_chain_manager.go:117: calling [github.com/guild&#45;framework/guild&#45;core/pkg/gerror.New]">
<path fill="none" stroke="saddlebrown" d="M683.98,-246.2C768.97,-247.39 866.72,-248.75 919.11,-249.47"/>
<polygon fill="saddlebrown" stroke="saddlebrown" points="918.94,-252.97 928.98,-249.61 919.03,-245.97 918.94,-252.97"/>
</a>
</g>
</g>
<!-- (*github.com/guild&#45;framework/guild&#45;core/pkg/storage/promptchain.sqliteChainManager).GetChainsByAgent&#45;&gt;github.com/guild&#45;framework/guild&#45;core/pkg/gerror.Wrap -->
<g id="edge4" class="edge">
<title>(*github.com/guild&#45;framework/guild&#45;core/pkg/storage/promptchain.sqliteChainManager).GetChainsByAgent&#45;&gt;github.com/guild&#45;framework/guild&#45;core/pkg/gerror.Wrap</title>
<g id="a_edge4"><a xlink:title="at sqlite_chain_manager.go:122: calling [github.com/guild&#45;framework/guild&#45;core/pkg/gerror.Wrap]">
<path fill="none" stroke="saddlebrown" d="M672.44,-225.26C758.64,-214.28 861.18,-201.21 916.59,-194.15"/>
<polygon fill="saddlebrown" stroke="saddlebrown" points="916.7,-197.66 926.18,-192.93 915.82,-190.72 916.7,-197.66"/>
</a>
</g>
</g>
<!-- (*github.com/guild&#45;framework/guild&#45;core/pkg/storage/promptchain.sqliteChainManager).convertStorageChainToDomain -->
<g id="node6" class="node">
<title>(*github.com/guild&#45;framework/guild&#45;core/pkg/storage/promptchain.sqliteChainManager).convertStorageChainToDomain</title>
<g id="a_node6"><a xlink:title="(*github.com/guild&#45;framework/guild&#45;core/pkg/storage/promptchain.sqliteChainManager).convertStorageChainToDomain | defined in sqlite_chain_manager.go:276">
<path fill="lightblue" stroke="black" stroke-width="0.5" d="M1147.62,-52C1147.62,-52 768.33,-52 768.33,-52 762.33,-52 756.33,-46 756.33,-40 756.33,-40 756.33,-28 756.33,-28 756.33,-22 762.33,-16 768.33,-16 768.33,-16 1147.62,-16 1147.62,-16 1153.62,-16 1159.62,-22 1159.62,-28 1159.62,-28 1159.62,-40 1159.62,-40 1159.62,-46 1153.62,-52 1147.62,-52"/>
<text xml:space="preserve" text-anchor="middle" x="957.98" y="-29.32" font-family="Verdana" font-size="14.00">(*sqliteChainManager).convertStorageChainToDomain</text>
</a>
</g>
</g>
<!-- (*github.com/guild&#45;framework/guild&#45;core/pkg/storage/promptchain.sqliteChainManager).GetChain&#45;&gt;(*github.com/guild&#45;framework/guild&#45;core/pkg/storage/promptchain.sqliteChainManager).convertStorageChainToDomain -->
<g id="edge7" class="edge">
<title>(*github.com/guild&#45;framework/guild&#45;core/pkg/storage/promptchain.sqliteChainManager).GetChain&#45;&gt;(*github.com/guild&#45;framework/guild&#45;core/pkg/storage/promptchain.sqliteChainManager).convertStorageChainToDomain</title>
<g id="a_edge7"><a xlink:title="at sqlite_chain_manager.go:70: calling [(*github.com/guild&#45;framework/guild&#45;core/pkg/storage/promptchain.sqliteChainManager).convertStorageChainToDomain]">
<path fill="none" stroke="black" d="M650.54,-34C680.16,-34 712.55,-34 744.84,-34"/>
<polygon fill="black" stroke="black" points="744.74,-37.5 754.74,-34 744.74,-30.5 744.74,-37.5"/>
</a>
</g>
</g>
<!-- (*github.com/guild&#45;framework/guild&#45;core/pkg/storage/promptchain.sqliteChainManager).GetChain&#45;&gt;github.com/guild&#45;framework/guild&#45;core/pkg/gerror.New -->
<g id="edge5" class="edge">
<title>(*github.com/guild&#45;framework/guild&#45;core/pkg/storage/promptchain.sqliteChainManager).GetChain&#45;&gt;github.com/guild&#45;framework/guild&#45;core/pkg/gerror.New</title>
<g id="a_edge5"><a xlink:title="at sqlite_chain_manager.go:62: calling [github.com/guild&#45;framework/guild&#45;core/pkg/gerror.New]">
<path fill="none" stroke="saddlebrown" d="M609.11,-52.7C634.95,-61.47 662.15,-74.08 683.33,-92 733.32,-134.3 702.3,-183 756.33,-220 804.94,-253.29 875.69,-255.88 918.89,-253.68"/>
<polygon fill="saddlebrown" stroke="saddlebrown" points="919.04,-257.18 928.8,-253.05 918.59,-250.2 919.04,-257.18"/>
</a>
</g>
</g>
<!-- (*github.com/guild&#45;framework/guild&#45;core/pkg/storage/promptchain.sqliteChainManager).GetChain&#45;&gt;github.com/guild&#45;framework/guild&#45;core/pkg/gerror.Wrap -->
<g id="edge6" class="edge">
<title>(*github.com/guild&#45;framework/guild&#45;core/pkg/storage/promptchain.sqliteChainManager).GetChain&#45;&gt;github.com/guild&#45;framework/guild&#45;core/pkg/gerror.Wrap</title>
<g id="a_edge6"><a xlink:title="at sqlite_chain_manager.go:67: calling [github.com/guild&#45;framework/guild&#45;core/pkg/gerror.Wrap]">
<path fill="none" stroke="saddlebrown" d="M650.59,-33.22C675.85,-38.27 700.65,-47.64 720.33,-64 757.62,-95 718.38,-136.81 756.33,-167 801.65,-203.04 872.05,-201.72 916.28,-196.26"/>
<polygon fill="saddlebrown" stroke="saddlebrown" points="916.55,-199.75 925.98,-194.92 915.59,-192.82 916.55,-199.75"/>
</a>
</g>
</g>
<!-- (*github.com/guild&#45;framework/guild&#45;core/pkg/storage/promptchain.sqliteChainManager).DeleteChain -->
<g id="node7" class="node">
<title>(*github.com/guild&#45;framework/guild&#45;core/pkg/storage/promptchain.sqliteChainManager).DeleteChain</title>
<g id="a_node7"><a xlink:title="(*github.com/guild&#45;framework/guild&#45;core/pkg/storage/promptchain.sqliteChainManager).DeleteChain | defined in sqlite_chain_manager.go:262&#10;at sqlite_chain_manager.go:269: calling [github.com/guild&#45;framework/guild&#45;core/pkg/gerror.Wrap]&#10;at sqlite_chain_manager.go:264: calling [github.com/guild&#45;framework/guild&#45;core/pkg/gerror.New]">
<path fill="lightblue" stroke="black" stroke-width="1.5" d="M648.08,-323C648.08,-323 400.79,-323 400.79,-323 394.79,-323 388.79,-317 388.79,-311 388.79,-311 388.79,-299 388.79,-299 388.79,-293 394.79,-287 400.79,-287 400.79,-287 648.08,-287 648.08,-287 654.08,-287 660.08,-293 660.08,-299 660.08,-299 660.08,-311 660.08,-311 660.08,-317 654.08,-323 648.08,-323"/>
<text xml:space="preserve" text-anchor="middle" x="524.44" y="-300.32" font-family="Verdana" font-size="14.00">(*sqliteChainManager).DeleteChain</text>
</a>
</g>
</g>
<!-- (*github.com/guild&#45;framework/guild&#45;core/pkg/storage/promptchain.sqliteChainManager).DeleteChain&#45;&gt;github.com/guild&#45;framework/guild&#45;core/pkg/gerror.New -->
<g id="edge17" class="edge">
<title>(*github.com/guild&#45;framework/guild&#45;core/pkg/storage/promptchain.sqliteChainManager).DeleteChain&#45;&gt;github.com/guild&#45;framework/guild&#45;core/pkg/gerror.New</title>
<g id="a_edge17"><a xlink:title="at sqlite_chain_manager.go:264: calling [github.com/guild&#45;framework/guild&#45;core/pkg/gerror.New]">
<path fill="none" stroke="saddlebrown" d="M660.62,-299.61C680.67,-298.16 701.07,-296.32 720.33,-294 791.28,-285.44 873.04,-268.68 919.5,-258.5"/>
<polygon fill="saddlebrown" stroke="saddlebrown" points="920.04,-261.96 929.05,-256.39 918.53,-255.13 920.04,-261.96"/>
</a>
</g>
</g>
<!-- (*github.com/guild&#45;framework/guild&#45;core/pkg/storage/promptchain.sqliteChainManager).DeleteChain&#45;&gt;github.com/guild&#45;framework/guild&#45;core/pkg/gerror.Wrap -->
<g id="edge14" class="edge">
<title>(*github.com/guild&#45;framework/guild&#45;core/pkg/storage/promptchain.sqliteChainManager).DeleteChain&#45;&gt;github.com/guild&#45;framework/guild&#45;core/pkg/gerror.Wrap</title>
<g id="a_edge14"><a xlink:title="at sqlite_chain_manager.go:269: calling [github.com/guild&#45;framework/guild&#45;core/pkg/gerror.Wrap]">
<path fill="none" stroke="saddlebrown" d="M652,-286.37C662.8,-283.16 673.38,-279.4 683.33,-275 720.48,-258.56 718.91,-235.8 756.33,-220 808.61,-197.93 874.48,-191.36 916.18,-189.52"/>
<polygon fill="saddlebrown" stroke="saddlebrown" points="916.14,-193.02 926.01,-189.17 915.89,-186.03 916.14,-193.02"/>
</a>
</g>
</g>
<!-- (*github.com/guild&#45;framework/guild&#45;core/pkg/storage/promptchain.sqliteChainManager).CreateChain -->
<g id="node8" class="node">
<title>(*github.com/guild&#45;framework/guild&#45;core/pkg/storage/promptchain.sqliteChainManager).CreateChain</title>
<g id="a_node8"><a xlink:title="(*github.com/guild&#45;framework/guild&#45;core/pkg/storage/promptchain.sqliteChainManager).CreateChain | defined in sqlite_chain_manager.go:30&#10;at sqlite_chain_manager.go:53: calling [github.com/guild&#45;framework/guild&#45;core/pkg/gerror.Wrap]&#10;at sqlite_chain_manager.go:32: calling [github.com/guild&#45;framework/guild&#45;core/pkg/gerror.New]">
<path fill="lightblue" stroke="black" stroke-width="1.5" d="M648.83,-201C648.83,-201 400.04,-201 400.04,-201 394.04,-201 388.04,-195 388.04,-189 388.04,-189 388.04,-177 388.04,-177 388.04,-171 394.04,-165 400.04,-165 400.04,-165 648.83,-165 648.83,-165 654.83,-165 660.83,-171 660.83,-177 660.83,-177 660.83,-189 660.83,-189 660.83,-195 654.83,-201 648.83,-201"/>
<text xml:space="preserve" text-anchor="middle" x="524.44" y="-178.32" font-family="Verdana" font-size="14.00">(*sqliteChainManager).CreateChain</text>
</a>
</g>
</g>
<!-- (*github.com/guild&#45;framework/guild&#45;core/pkg/storage/promptchain.sqliteChainManager).CreateChain&#45;&gt;github.com/guild&#45;framework/guild&#45;core/pkg/gerror.New -->
<g id="edge18" class="edge">
<title>(*github.com/guild&#45;framework/guild&#45;core/pkg/storage/promptchain.sqliteChainManager).CreateChain&#45;&gt;github.com/guild&#45;framework/guild&#45;core/pkg/gerror.New</title>
<g id="a_edge18"><a xlink:title="at sqlite_chain_manager.go:32: calling [github.com/guild&#45;framework/guild&#45;core/pkg/gerror.New]">
<path fill="none" stroke="saddlebrown" d="M640.79,-201.73C677.69,-207.65 718.72,-214.17 756.33,-220 813.04,-228.78 878.83,-238.54 919.18,-244.47"/>
<polygon fill="saddlebrown" stroke="saddlebrown" points="918.45,-247.9 928.85,-245.89 919.46,-240.97 918.45,-247.9"/>
</a>
</g>
</g>
<!-- (*github.com/guild&#45;framework/guild&#45;core/pkg/storage/promptchain.sqliteChainManager).CreateChain&#45;&gt;github.com/guild&#45;framework/guild&#45;core/pkg/gerror.Wrap -->
<g id="edge8" class="edge">
<title>(*github.com/guild&#45;framework/guild&#45;core/pkg/storage/promptchain.sqliteChainManager).CreateChain&#45;&gt;github.com/guild&#45;framework/guild&#45;core/pkg/gerror.Wrap</title>
<g id="a_edge8"><a xlink:title="at sqlite_chain_manager.go:53: calling [github.com/guild&#45;framework/guild&#45;core/pkg/gerror.Wrap]">
<path fill="none" stroke="saddlebrown" d="M661.38,-184.89C749.68,-186.12 858.73,-187.63 916.54,-188.44"/>
<polygon fill="saddlebrown" stroke="saddlebrown" points="916.17,-191.93 926.22,-188.57 916.27,-184.93 916.17,-191.93"/>
</a>
</g>
</g>
</g>
</svg>
