<?xml version="1.0" encoding="UTF-8" standalone="no"?>
<!DOCTYPE svg PUBLIC "-//W3C//DTD SVG 1.1//EN"
 "http://www.w3.org/Graphics/SVG/1.1/DTD/svg11.dtd">
<!-- Generated by graphviz version 14.1.1 (20251213.1925)
 -->
<!-- Title: gocallvis Pages: 1 -->
<svg width="971pt" height="468pt"
 viewBox="0.00 0.00 971.00 468.00" xmlns="http://www.w3.org/2000/svg" xmlns:xlink="http://www.w3.org/1999/xlink">
<g id="graph0" class="graph" transform="scale(1 1) rotate(0) translate(0 468)">
<title>gocallvis</title>
<polygon fill="lightgray" stroke="none" points="0,0 0,-468 971.41,-468 971.41,0 0,0"/>
<g id="clust1" class="cluster">
<title>cluster_focus</title>
<polygon fill="#e6ecfa" stroke="black" stroke-width="0.5" points="8,-8 8,-460 963.41,-460 963.41,-8 8,-8"/>
<text xml:space="preserve" text-anchor="middle" x="485.7" y="-438.9" font-family="Arial" font-size="18.00">paths</text>
</g>
<g id="clust2" class="cluster">
<title>cluster_github.com/guild&#45;framework/guild&#45;core/pkg/gerror</title>
<g id="a_clust2"><a xlink:href="/?f=github.com/guild-framework/guild-core/pkg/gerror" xlink:title="package: github.com/guild&#45;framework/guild&#45;core/pkg/gerror">
<polygon fill="lightyellow" stroke="black" stroke-width="0.8" points="707.12,-41 707.12,-365 955.41,-365 955.41,-41 707.12,-41"/>
<text xml:space="preserve" text-anchor="middle" x="831.26" y="-345.8" font-family="Tahoma bold" font-size="16.00">gerror</text>
</a>
</g>
</g>
<!-- github.com/guild&#45;framework/guild&#45;core/pkg/paths.GetGuildConfigDir -->
<g id="node1" class="node">
<title>github.com/guild&#45;framework/guild&#45;core/pkg/paths.GetGuildConfigDir</title>
<g id="a_node1"><a xlink:title="github.com/guild&#45;framework/guild&#45;core/pkg/paths.GetGuildConfigDir | defined in run.go:87&#10;at run.go:92: calling [(*github.com/guild&#45;framework/guild&#45;core/pkg/gerror.GuildError).WithOperation]&#10;at run.go:101: calling [(*github.com/guild&#45;framework/guild&#45;core/pkg/gerror.GuildError).WithOperation]&#10;at run.go:91: calling [(*github.com/guild&#45;framework/guild&#45;core/pkg/gerror.GuildError).WithComponent]&#10;at run.go:100: calling [(*github.com/guild&#45;framework/guild&#45;core/pkg/gerror.GuildError).WithComponent]&#10;at run.go:90: calling [github.com/guild&#45;framework/guild&#45;core/pkg/gerror.Wrap]&#10;at run.go:99: calling [github.com/guild&#45;framework/guild&#45;core/pkg/gerror.Wrap]&#10;at run.go:102: calling [(*github.com/guild&#45;framework/guild&#45;core/pkg/gerror.GuildError).WithDetails]">
<path fill="lightblue" stroke="black" stroke-width="1.5" d="M627.87,-282C627.87,-282 503.58,-282 503.58,-282 497.58,-282 491.58,-276 491.58,-270 491.58,-270 491.58,-258 491.58,-258 491.58,-252 497.58,-246 503.58,-246 503.58,-246 627.87,-246 627.87,-246 633.87,-246 639.87,-252 639.87,-258 639.87,-258 639.87,-270 639.87,-270 639.87,-276 633.87,-282 627.87,-282"/>
<text xml:space="preserve" text-anchor="middle" x="565.72" y="-259.32" font-family="Verdana" font-size="14.00">GetGuildConfigDir</text>
</a>
</g>
</g>
<!-- github.com/guild&#45;framework/guild&#45;core/pkg/gerror.Wrap -->
<g id="node7" class="node">
<title>github.com/guild&#45;framework/guild&#45;core/pkg/gerror.Wrap</title>
<g id="a_node7"><a xlink:title="github.com/guild&#45;framework/guild&#45;core/pkg/gerror.Wrap | defined in errors.go:223">
<path fill="moccasin" stroke="black" stroke-width="1.5" d="M849.16,-329C849.16,-329 813.37,-329 813.37,-329 807.37,-329 801.37,-323 801.37,-317 801.37,-317 801.37,-305 801.37,-305 801.37,-299 807.37,-293 813.37,-293 813.37,-293 849.16,-293 849.16,-293 855.16,-293 861.16,-299 861.16,-305 861.16,-305 861.16,-317 861.16,-317 861.16,-323 855.16,-329 849.16,-329"/>
<text xml:space="preserve" text-anchor="middle" x="831.26" y="-306.32" font-family="Verdana" font-size="14.00">Wrap</text>
</a>
</g>
</g>
<!-- github.com/guild&#45;framework/guild&#45;core/pkg/paths.GetGuildConfigDir&#45;&gt;github.com/guild&#45;framework/guild&#45;core/pkg/gerror.Wrap -->
<g id="edge15" class="edge">
<title>github.com/guild&#45;framework/guild&#45;core/pkg/paths.GetGuildConfigDir&#45;&gt;github.com/guild&#45;framework/guild&#45;core/pkg/gerror.Wrap</title>
<g id="a_edge15"><a xlink:title="at run.go:90: calling [github.com/guild&#45;framework/guild&#45;core/pkg/gerror.Wrap]&#10;at run.go:99: calling [github.com/guild&#45;framework/guild&#45;core/pkg/gerror.Wrap]">
<path fill="none" stroke="saddlebrown" d="M583.85,-282.74C604.05,-303.32 639.76,-335.16 678.12,-348 715.64,-360.56 759.67,-346.88 790.69,-332.73"/>
<polygon fill="saddlebrown" stroke="saddlebrown" points="791.8,-336.08 799.32,-328.61 788.78,-329.77 791.8,-336.08"/>
</a>
</g>
</g>
<!-- (*github.com/guild&#45;framework/guild&#45;core/pkg/gerror.GuildError).WithComponent -->
<g id="node8" class="node">
<title>(*github.com/guild&#45;framework/guild&#45;core/pkg/gerror.GuildError).WithComponent</title>
<g id="a_node8"><a xlink:title="(*github.com/guild&#45;framework/guild&#45;core/pkg/gerror.GuildError).WithComponent | defined in errors.go:156">
<path fill="moccasin" stroke="black" stroke-width="1.5" d="M935.41,-207C935.41,-207 727.12,-207 727.12,-207 721.12,-207 715.12,-201 715.12,-195 715.12,-195 715.12,-183 715.12,-183 715.12,-177 721.12,-171 727.12,-171 727.12,-171 935.41,-171 935.41,-171 941.41,-171 947.41,-177 947.41,-183 947.41,-183 947.41,-195 947.41,-195 947.41,-201 941.41,-207 935.41,-207"/>
<text xml:space="preserve" text-anchor="middle" x="831.26" y="-184.32" font-family="Verdana" font-size="14.00">(*GuildError).WithComponent</text>
</a>
</g>
</g>
<!-- github.com/guild&#45;framework/guild&#45;core/pkg/paths.GetGuildConfigDir&#45;&gt;(*github.com/guild&#45;framework/guild&#45;core/pkg/gerror.GuildError).WithComponent -->
<g id="edge12" class="edge">
<title>github.com/guild&#45;framework/guild&#45;core/pkg/paths.GetGuildConfigDir&#45;&gt;(*github.com/guild&#45;framework/guild&#45;core/pkg/gerror.GuildError).WithComponent</title>
<g id="a_edge12"><a xlink:title="at run.go:91: calling [(*github.com/guild&#45;framework/guild&#45;core/pkg/gerror.GuildError).WithComponent]&#10;at run.go:100: calling [(*github.com/guild&#45;framework/guild&#45;core/pkg/gerror.GuildError).WithComponent]">
<path fill="none" stroke="saddlebrown" d="M623.88,-245.27C649.27,-237.17 679.59,-227.77 707.12,-220 718.49,-216.79 730.5,-213.56 742.38,-210.47"/>
<polygon fill="saddlebrown" stroke="saddlebrown" points="742.95,-213.94 751.76,-208.05 741.2,-207.16 742.95,-213.94"/>
</a>
</g>
</g>
<!-- (*github.com/guild&#45;framework/guild&#45;core/pkg/gerror.GuildError).WithOperation -->
<g id="node9" class="node">
<title>(*github.com/guild&#45;framework/guild&#45;core/pkg/gerror.GuildError).WithOperation</title>
<g id="a_node9"><a xlink:title="(*github.com/guild&#45;framework/guild&#45;core/pkg/gerror.GuildError).WithOperation | defined in errors.go:162">
<path fill="moccasin" stroke="black" stroke-width="1.5" d="M929.78,-268C929.78,-268 732.74,-268 732.74,-268 726.74,-268 720.74,-262 720.74,-256 720.74,-256 720.74,-244 720.74,-244 720.74,-238 726.74,-232 732.74,-232 732.74,-232 929.78,-232 929.78,-232 935.78,-232 941.78,-238 941.78,-244 941.78,-244 941.78,-256 941.78,-256 941.78,-262 935.78,-268 929.78,-268"/>
<text xml:space="preserve" text-anchor="middle" x="831.26" y="-245.32" font-family="Verdana" font-size="14.00">(*GuildError).WithOperation</text>
</a>
</g>
</g>
<!-- github.com/guild&#45;framework/guild&#45;core/pkg/paths.GetGuildConfigDir&#45;&gt;(*github.com/guild&#45;framework/guild&#45;core/pkg/gerror.GuildError).WithOperation -->
<g id="edge1" class="edge">
<title>github.com/guild&#45;framework/guild&#45;core/pkg/paths.GetGuildConfigDir&#45;&gt;(*github.com/guild&#45;framework/guild&#45;core/pkg/gerror.GuildError).WithOperation</title>
<g id="a_edge1"><a xlink:title="at run.go:92: calling [(*github.com/guild&#45;framework/guild&#45;core/pkg/gerror.GuildError).WithOperation]&#10;at run.go:101: calling [(*github.com/guild&#45;framework/guild&#45;core/pkg/gerror.GuildError).WithOperation]">
<path fill="none" stroke="saddlebrown" d="M640.42,-266.26C653,-266.57 665.93,-266.84 678.12,-267 688.17,-267.14 698.57,-266.86 709,-266.29"/>
<polygon fill="saddlebrown" stroke="saddlebrown" points="709.05,-269.8 718.81,-265.66 708.6,-262.81 709.05,-269.8"/>
</a>
</g>
</g>
<!-- (*github.com/guild&#45;framework/guild&#45;core/pkg/gerror.GuildError).WithDetails -->
<g id="node10" class="node">
<title>(*github.com/guild&#45;framework/guild&#45;core/pkg/gerror.GuildError).WithDetails</title>
<g id="a_node10"><a xlink:title="(*github.com/guild&#45;framework/guild&#45;core/pkg/gerror.GuildError).WithDetails | defined in errors.go:147">
<path fill="moccasin" stroke="black" stroke-width="1.5" d="M918.91,-146C918.91,-146 743.62,-146 743.62,-146 737.62,-146 731.62,-140 731.62,-134 731.62,-134 731.62,-122 731.62,-122 731.62,-116 737.62,-110 743.62,-110 743.62,-110 918.91,-110 918.91,-110 924.91,-110 930.91,-116 930.91,-122 930.91,-122 930.91,-134 930.91,-134 930.91,-140 924.91,-146 918.91,-146"/>
<text xml:space="preserve" text-anchor="middle" x="831.26" y="-123.33" font-family="Verdana" font-size="14.00">(*GuildError).WithDetails</text>
</a>
</g>
</g>
<!-- github.com/guild&#45;framework/guild&#45;core/pkg/paths.GetGuildConfigDir&#45;&gt;(*github.com/guild&#45;framework/guild&#45;core/pkg/gerror.GuildError).WithDetails -->
<g id="edge16" class="edge">
<title>github.com/guild&#45;framework/guild&#45;core/pkg/paths.GetGuildConfigDir&#45;&gt;(*github.com/guild&#45;framework/guild&#45;core/pkg/gerror.GuildError).WithDetails</title>
<g id="a_edge16"><a xlink:title="at run.go:102: calling [(*github.com/guild&#45;framework/guild&#45;core/pkg/gerror.GuildError).WithDetails]">
<path fill="none" stroke="saddlebrown" d="M585.99,-245.59C611.63,-222.09 659.3,-181.77 707.12,-159 713.73,-155.85 720.7,-153 727.81,-150.42"/>
<polygon fill="saddlebrown" stroke="saddlebrown" points="728.94,-153.73 737.28,-147.2 726.68,-147.11 728.94,-153.73"/>
</a>
</g>
</g>
<!-- github.com/guild&#45;framework/guild&#45;core/pkg/paths.GetCampaignDir -->
<g id="node2" class="node">
<title>github.com/guild&#45;framework/guild&#45;core/pkg/paths.GetCampaignDir</title>
<g id="a_node2"><a xlink:title="github.com/guild&#45;framework/guild&#45;core/pkg/paths.GetCampaignDir | defined in run.go:109&#10;at run.go:110: calling [github.com/guild&#45;framework/guild&#45;core/pkg/paths.GetGuildConfigDir]">
<path fill="lightblue" stroke="black" stroke-width="1.5" d="M390.83,-298C390.83,-298 277.04,-298 277.04,-298 271.04,-298 265.04,-292 265.04,-286 265.04,-286 265.04,-274 265.04,-274 265.04,-268 271.04,-262 277.04,-262 277.04,-262 390.83,-262 390.83,-262 396.83,-262 402.83,-268 402.83,-274 402.83,-274 402.83,-286 402.83,-286 402.83,-292 396.83,-298 390.83,-298"/>
<text xml:space="preserve" text-anchor="middle" x="333.93" y="-275.32" font-family="Verdana" font-size="14.00">GetCampaignDir</text>
</a>
</g>
</g>
<!-- github.com/guild&#45;framework/guild&#45;core/pkg/paths.GetCampaignDir&#45;&gt;github.com/guild&#45;framework/guild&#45;core/pkg/paths.GetGuildConfigDir -->
<g id="edge5" class="edge">
<title>github.com/guild&#45;framework/guild&#45;core/pkg/paths.GetCampaignDir&#45;&gt;github.com/guild&#45;framework/guild&#45;core/pkg/paths.GetGuildConfigDir</title>
<g id="a_edge5"><a xlink:title="at run.go:110: calling [github.com/guild&#45;framework/guild&#45;core/pkg/paths.GetGuildConfigDir]">
<path fill="none" stroke="black" d="M403.57,-275.22C427.42,-273.56 454.47,-271.68 479.5,-269.93"/>
<polygon fill="black" stroke="black" points="479.6,-273.44 489.33,-269.25 479.11,-266.45 479.6,-273.44"/>
</a>
</g>
</g>
<!-- github.com/guild&#45;framework/guild&#45;core/pkg/paths.GuildRunDir -->
<g id="node3" class="node">
<title>github.com/guild&#45;framework/guild&#45;core/pkg/paths.GuildRunDir</title>
<g id="a_node3"><a xlink:title="github.com/guild&#45;framework/guild&#45;core/pkg/paths.GuildRunDir | defined in run.go:19&#10;at run.go:23: calling [(*github.com/guild&#45;framework/guild&#45;core/pkg/gerror.GuildError).WithComponent]&#10;at run.go:32: calling [(*github.com/guild&#45;framework/guild&#45;core/pkg/gerror.GuildError).WithComponent]&#10;at run.go:40: calling [(*github.com/guild&#45;framework/guild&#45;core/pkg/gerror.GuildError).WithComponent]&#10;at run.go:34: calling [(*github.com/guild&#45;framework/guild&#45;core/pkg/gerror.GuildError).WithDetails]&#10;at run.go:42: calling [(*github.com/guild&#45;framework/guild&#45;core/pkg/gerror.GuildError).WithDetails]&#10;at run.go:22: calling [github.com/guild&#45;framework/guild&#45;core/pkg/gerror.Wrap]&#10;at run.go:31: calling [github.com/guild&#45;framework/guild&#45;core/pkg/gerror.Wrap]&#10;at run.go:39: calling [github.com/guild&#45;framework/guild&#45;core/pkg/gerror.Wrap]&#10;at run.go:24: calling [(*github.com/guild&#45;framework/guild&#45;core/pkg/gerror.GuildError).WithOperation]&#10;at run.go:33: calling [(*github.com/guild&#45;framework/guild&#45;core/pkg/gerror.GuildError).WithOperation]&#10;at run.go:41: calling [(*github.com/guild&#45;framework/guild&#45;core/pkg/gerror.GuildError).WithOperation]">
<path fill="lightblue" stroke="black" stroke-width="1.5" d="M607.24,-106C607.24,-106 524.2,-106 524.2,-106 518.2,-106 512.2,-100 512.2,-94 512.2,-94 512.2,-82 512.2,-82 512.2,-76 518.2,-70 524.2,-70 524.2,-70 607.24,-70 607.24,-70 613.24,-70 619.24,-76 619.24,-82 619.24,-82 619.24,-94 619.24,-94 619.24,-100 613.24,-106 607.24,-106"/>
<text xml:space="preserve" text-anchor="middle" x="565.72" y="-83.33" font-family="Verdana" font-size="14.00">GuildRunDir</text>
</a>
</g>
</g>
<!-- github.com/guild&#45;framework/guild&#45;core/pkg/paths.GuildRunDir&#45;&gt;github.com/guild&#45;framework/guild&#45;core/pkg/gerror.Wrap -->
<g id="edge6" class="edge">
<title>github.com/guild&#45;framework/guild&#45;core/pkg/paths.GuildRunDir&#45;&gt;github.com/guild&#45;framework/guild&#45;core/pkg/gerror.Wrap</title>
<g id="a_edge6"><a xlink:title="at run.go:22: calling [github.com/guild&#45;framework/guild&#45;core/pkg/gerror.Wrap]&#10;at run.go:31: calling [github.com/guild&#45;framework/guild&#45;core/pkg/gerror.Wrap]&#10;at run.go:39: calling [github.com/guild&#45;framework/guild&#45;core/pkg/gerror.Wrap]">
<path fill="none" stroke="saddlebrown" d="M619.96,-103.5C628.09,-107.58 635.84,-112.67 642.12,-119 696.74,-174.09 648.49,-230.19 707.12,-281 729.79,-300.65 763.24,-307.88 789.55,-310.34"/>
<polygon fill="saddlebrown" stroke="saddlebrown" points="788.97,-313.81 799.2,-311.04 789.48,-306.83 788.97,-313.81"/>
</a>
</g>
</g>
<!-- github.com/guild&#45;framework/guild&#45;core/pkg/paths.GuildRunDir&#45;&gt;(*github.com/guild&#45;framework/guild&#45;core/pkg/gerror.GuildError).WithComponent -->
<g id="edge2" class="edge">
<title>github.com/guild&#45;framework/guild&#45;core/pkg/paths.GuildRunDir&#45;&gt;(*github.com/guild&#45;framework/guild&#45;core/pkg/gerror.GuildError).WithComponent</title>
<g id="a_edge2"><a xlink:title="at run.go:23: calling [(*github.com/guild&#45;framework/guild&#45;core/pkg/gerror.GuildError).WithComponent]&#10;at run.go:32: calling [(*github.com/guild&#45;framework/guild&#45;core/pkg/gerror.GuildError).WithComponent]&#10;at run.go:40: calling [(*github.com/guild&#45;framework/guild&#45;core/pkg/gerror.GuildError).WithComponent]">
<path fill="none" stroke="saddlebrown" d="M615.51,-106.71C624.48,-110.52 633.67,-114.7 642.12,-119 672.35,-134.39 675.82,-145.94 707.12,-159 714.01,-161.88 721.24,-164.52 728.59,-166.93"/>
<polygon fill="saddlebrown" stroke="saddlebrown" points="727.4,-170.23 737.99,-169.86 729.48,-163.54 727.4,-170.23"/>
</a>
</g>
</g>
<!-- github.com/guild&#45;framework/guild&#45;core/pkg/paths.GuildRunDir&#45;&gt;(*github.com/guild&#45;framework/guild&#45;core/pkg/gerror.GuildError).WithOperation -->
<g id="edge17" class="edge">
<title>github.com/guild&#45;framework/guild&#45;core/pkg/paths.GuildRunDir&#45;&gt;(*github.com/guild&#45;framework/guild&#45;core/pkg/gerror.GuildError).WithOperation</title>
<g id="a_edge17"><a xlink:title="at run.go:24: calling [(*github.com/guild&#45;framework/guild&#45;core/pkg/gerror.GuildError).WithOperation]&#10;at run.go:33: calling [(*github.com/guild&#45;framework/guild&#45;core/pkg/gerror.GuildError).WithOperation]&#10;at run.go:41: calling [(*github.com/guild&#45;framework/guild&#45;core/pkg/gerror.GuildError).WithOperation]">
<path fill="none" stroke="saddlebrown" d="M619.77,-104.94C627.73,-108.82 635.49,-113.47 642.12,-119 683.14,-153.17 663.64,-189.03 707.12,-220 710.31,-222.27 713.65,-224.37 717.1,-226.31"/>
<polygon fill="saddlebrown" stroke="saddlebrown" points="715.26,-229.3 725.76,-230.7 718.42,-223.06 715.26,-229.3"/>
</a>
</g>
</g>
<!-- github.com/guild&#45;framework/guild&#45;core/pkg/paths.GuildRunDir&#45;&gt;(*github.com/guild&#45;framework/guild&#45;core/pkg/gerror.GuildError).WithDetails -->
<g id="edge3" class="edge">
<title>github.com/guild&#45;framework/guild&#45;core/pkg/paths.GuildRunDir&#45;&gt;(*github.com/guild&#45;framework/guild&#45;core/pkg/gerror.GuildError).WithDetails</title>
<g id="a_edge3"><a xlink:title="at run.go:34: calling [(*github.com/guild&#45;framework/guild&#45;core/pkg/gerror.GuildError).WithDetails]&#10;at run.go:42: calling [(*github.com/guild&#45;framework/guild&#45;core/pkg/gerror.GuildError).WithDetails]">
<path fill="none" stroke="saddlebrown" d="M619.81,-87.04C638.61,-87.33 659.88,-88.37 679.12,-91 691.83,-92.74 694.67,-94.93 707.12,-98 718.37,-100.78 730.21,-103.68 741.91,-106.54"/>
<polygon fill="saddlebrown" stroke="saddlebrown" points="741.05,-109.94 751.59,-108.91 742.71,-103.14 741.05,-109.94"/>
</a>
</g>
</g>
<!-- github.com/guild&#45;framework/guild&#45;core/pkg/paths.GetCampaignSocket -->
<g id="node4" class="node">
<title>github.com/guild&#45;framework/guild&#45;core/pkg/paths.GetCampaignSocket</title>
<g id="a_node4"><a xlink:title="github.com/guild&#45;framework/guild&#45;core/pkg/paths.GetCampaignSocket | defined in run.go:50&#10;at run.go:68: calling [github.com/guild&#45;framework/guild&#45;core/pkg/gerror.New]&#10;at run.go:51: calling [github.com/guild&#45;framework/guild&#45;core/pkg/paths.GuildRunDir]&#10;at run.go:70: calling [(*github.com/guild&#45;framework/guild&#45;core/pkg/gerror.GuildError).WithOperation]&#10;at run.go:71: calling [(*github.com/guild&#45;framework/guild&#45;core/pkg/gerror.GuildError).WithDetails]&#10;at run.go:72: calling [(*github.com/guild&#45;framework/guild&#45;core/pkg/gerror.GuildError).WithDetails]&#10;at run.go:57: calling [github.com/guild&#45;framework/guild&#45;core/pkg/paths.GetCampaignHash]&#10;at run.go:69: calling [(*github.com/guild&#45;framework/guild&#45;core/pkg/gerror.GuildError).WithComponent]">
<path fill="lightblue" stroke="black" stroke-width="1.5" d="M404.33,-137C404.33,-137 263.54,-137 263.54,-137 257.54,-137 251.54,-131 251.54,-125 251.54,-125 251.54,-113 251.54,-113 251.54,-107 257.54,-101 263.54,-101 263.54,-101 404.33,-101 404.33,-101 410.33,-101 416.33,-107 416.33,-113 416.33,-113 416.33,-125 416.33,-125 416.33,-131 410.33,-137 404.33,-137"/>
<text xml:space="preserve" text-anchor="middle" x="333.93" y="-114.33" font-family="Verdana" font-size="14.00">GetCampaignSocket</text>
</a>
</g>
</g>
<!-- github.com/guild&#45;framework/guild&#45;core/pkg/paths.GetCampaignSocket&#45;&gt;github.com/guild&#45;framework/guild&#45;core/pkg/paths.GuildRunDir -->
<g id="edge7" class="edge">
<title>github.com/guild&#45;framework/guild&#45;core/pkg/paths.GetCampaignSocket&#45;&gt;github.com/guild&#45;framework/guild&#45;core/pkg/paths.GuildRunDir</title>
<g id="a_edge7"><a xlink:title="at run.go:51: calling [github.com/guild&#45;framework/guild&#45;core/pkg/paths.GuildRunDir]">
<path fill="none" stroke="black" d="M416.92,-107.94C444.32,-104.24 474.44,-100.18 500.3,-96.69"/>
<polygon fill="black" stroke="black" points="500.54,-100.19 509.98,-95.39 499.6,-93.25 500.54,-100.19"/>
</a>
</g>
</g>
<!-- github.com/guild&#45;framework/guild&#45;core/pkg/paths.GetCampaignHash -->
<g id="node5" class="node">
<title>github.com/guild&#45;framework/guild&#45;core/pkg/paths.GetCampaignHash</title>
<g id="a_node5"><a xlink:title="github.com/guild&#45;framework/guild&#45;core/pkg/paths.GetCampaignHash | defined in run.go:80">
<path fill="lightblue" stroke="black" stroke-width="1.5" d="M630.12,-167C630.12,-167 501.33,-167 501.33,-167 495.33,-167 489.33,-161 489.33,-155 489.33,-155 489.33,-143 489.33,-143 489.33,-137 495.33,-131 501.33,-131 501.33,-131 630.12,-131 630.12,-131 636.12,-131 642.12,-137 642.12,-143 642.12,-143 642.12,-155 642.12,-155 642.12,-161 636.12,-167 630.12,-167"/>
<text xml:space="preserve" text-anchor="middle" x="565.72" y="-144.32" font-family="Verdana" font-size="14.00">GetCampaignHash</text>
</a>
</g>
</g>
<!-- github.com/guild&#45;framework/guild&#45;core/pkg/paths.GetCampaignSocket&#45;&gt;github.com/guild&#45;framework/guild&#45;core/pkg/paths.GetCampaignHash -->
<g id="edge13" class="edge">
<title>github.com/guild&#45;framework/guild&#45;core/pkg/paths.GetCampaignSocket&#45;&gt;github.com/guild&#45;framework/guild&#45;core/pkg/paths.GetCampaignHash</title>
<g id="a_edge13"><a xlink:title="at run.go:57: calling [github.com/guild&#45;framework/guild&#45;core/pkg/paths.GetCampaignHash]">
<path fill="none" stroke="black" d="M416.92,-129.7C436.62,-132.28 457.73,-135.03 477.66,-137.63"/>
<polygon fill="black" stroke="black" points="477.04,-141.08 487.41,-138.91 477.94,-134.14 477.04,-141.08"/>
</a>
</g>
</g>
<!-- github.com/guild&#45;framework/guild&#45;core/pkg/paths.GetCampaignSocket&#45;&gt;(*github.com/guild&#45;framework/guild&#45;core/pkg/gerror.GuildError).WithComponent -->
<g id="edge18" class="edge">
<title>github.com/guild&#45;framework/guild&#45;core/pkg/paths.GetCampaignSocket&#45;&gt;(*github.com/guild&#45;framework/guild&#45;core/pkg/gerror.GuildError).WithComponent</title>
<g id="a_edge18"><a xlink:title="at run.go:69: calling [(*github.com/guild&#45;framework/guild&#45;core/pkg/gerror.GuildError).WithComponent]">
<path fill="none" stroke="saddlebrown" d="M371.56,-137.71C402.16,-152.29 447.4,-171.44 489.33,-180 559.11,-194.24 638.58,-197.09 703.23,-196.1"/>
<polygon fill="saddlebrown" stroke="saddlebrown" points="703.26,-199.6 713.2,-195.91 703.13,-192.6 703.26,-199.6"/>
</a>
</g>
</g>
<!-- github.com/guild&#45;framework/guild&#45;core/pkg/paths.GetCampaignSocket&#45;&gt;(*github.com/guild&#45;framework/guild&#45;core/pkg/gerror.GuildError).WithOperation -->
<g id="edge8" class="edge">
<title>github.com/guild&#45;framework/guild&#45;core/pkg/paths.GetCampaignSocket&#45;&gt;(*github.com/guild&#45;framework/guild&#45;core/pkg/gerror.GuildError).WithOperation</title>
<g id="a_edge8"><a xlink:title="at run.go:70: calling [(*github.com/guild&#45;framework/guild&#45;core/pkg/gerror.GuildError).WithOperation]">
<path fill="none" stroke="saddlebrown" d="M372.71,-137.73C395.71,-149.12 425.69,-163.94 452.33,-177 468.75,-185.05 471.89,-189.48 489.33,-195 560.39,-217.48 642.83,-231.09 708.84,-239.16"/>
<polygon fill="saddlebrown" stroke="saddlebrown" points="708.28,-242.61 718.62,-240.32 709.11,-235.66 708.28,-242.61"/>
</a>
</g>
</g>
<!-- github.com/guild&#45;framework/guild&#45;core/pkg/paths.GetCampaignSocket&#45;&gt;(*github.com/guild&#45;framework/guild&#45;core/pkg/gerror.GuildError).WithDetails -->
<g id="edge9" class="edge">
<title>github.com/guild&#45;framework/guild&#45;core/pkg/paths.GetCampaignSocket&#45;&gt;(*github.com/guild&#45;framework/guild&#45;core/pkg/gerror.GuildError).WithDetails</title>
<g id="a_edge9"><a xlink:title="at run.go:71: calling [(*github.com/guild&#45;framework/guild&#45;core/pkg/gerror.GuildError).WithDetails]&#10;at run.go:72: calling [(*github.com/guild&#45;framework/guild&#45;core/pkg/gerror.GuildError).WithDetails]">
<path fill="none" stroke="saddlebrown" d="M370.89,-100.3C401.46,-85.51 447,-66.06 489.33,-58 556.04,-45.3 576.78,-39.51 642.12,-58 674.76,-67.24 675.82,-84.94 707.12,-98 714.01,-100.88 721.24,-103.52 728.59,-105.93"/>
<polygon fill="saddlebrown" stroke="saddlebrown" points="727.4,-109.23 737.99,-108.86 729.48,-102.54 727.4,-109.23"/>
</a>
</g>
</g>
<!-- github.com/guild&#45;framework/guild&#45;core/pkg/gerror.New -->
<g id="node11" class="node">
<title>github.com/guild&#45;framework/guild&#45;core/pkg/gerror.New</title>
<g id="a_node11"><a xlink:title="github.com/guild&#45;framework/guild&#45;core/pkg/gerror.New | defined in errors.go:190">
<path fill="moccasin" stroke="black" stroke-width="1.5" d="M846.26,-85C846.26,-85 816.26,-85 816.26,-85 810.26,-85 804.26,-79 804.26,-73 804.26,-73 804.26,-61 804.26,-61 804.26,-55 810.26,-49 816.26,-49 816.26,-49 846.26,-49 846.26,-49 852.26,-49 858.26,-55 858.26,-61 858.26,-61 858.26,-73 858.26,-73 858.26,-79 852.26,-85 846.26,-85"/>
<text xml:space="preserve" text-anchor="middle" x="831.26" y="-62.33" font-family="Verdana" font-size="14.00">New</text>
</a>
</g>
</g>
<!-- github.com/guild&#45;framework/guild&#45;core/pkg/paths.GetCampaignSocket&#45;&gt;github.com/guild&#45;framework/guild&#45;core/pkg/gerror.New -->
<g id="edge4" class="edge">
<title>github.com/guild&#45;framework/guild&#45;core/pkg/paths.GetCampaignSocket&#45;&gt;github.com/guild&#45;framework/guild&#45;core/pkg/gerror.New</title>
<g id="a_edge4"><a xlink:title="at run.go:68: calling [github.com/guild&#45;framework/guild&#45;core/pkg/gerror.New]">
<path fill="none" stroke="saddlebrown" d="M361.55,-100.38C391.16,-80.91 441.18,-51.6 489.33,-40 597.2,-14.01 729.25,-40.35 792.7,-56.47"/>
<polygon fill="saddlebrown" stroke="saddlebrown" points="791.71,-59.83 802.27,-58.96 793.48,-53.05 791.71,-59.83"/>
</a>
</g>
</g>
<!-- github.com/guild&#45;framework/guild&#45;core/pkg/paths.EnsureCampaignDir -->
<g id="node6" class="node">
<title>github.com/guild&#45;framework/guild&#45;core/pkg/paths.EnsureCampaignDir</title>
<g id="a_node6"><a xlink:title="github.com/guild&#45;framework/guild&#45;core/pkg/paths.EnsureCampaignDir | defined in run.go:120&#10;at run.go:136: calling [github.com/guild&#45;framework/guild&#45;core/pkg/gerror.Wrap]&#10;at run.go:137: calling [(*github.com/guild&#45;framework/guild&#45;core/pkg/gerror.GuildError).WithComponent]&#10;at run.go:139: calling [(*github.com/guild&#45;framework/guild&#45;core/pkg/gerror.GuildError).WithDetails]&#10;at run.go:121: calling [github.com/guild&#45;framework/guild&#45;core/pkg/paths.GetCampaignDir]&#10;at run.go:138: calling [(*github.com/guild&#45;framework/guild&#45;core/pkg/gerror.GuildError).WithOperation]">
<path fill="lightblue" stroke="black" stroke-width="1.5" d="M166.54,-380C166.54,-380 28,-380 28,-380 22,-380 16,-374 16,-368 16,-368 16,-356 16,-356 16,-350 22,-344 28,-344 28,-344 166.54,-344 166.54,-344 172.54,-344 178.54,-350 178.54,-356 178.54,-356 178.54,-368 178.54,-368 178.54,-374 172.54,-380 166.54,-380"/>
<text xml:space="preserve" text-anchor="middle" x="97.27" y="-357.32" font-family="Verdana" font-size="14.00">EnsureCampaignDir</text>
</a>
</g>
</g>
<!-- github.com/guild&#45;framework/guild&#45;core/pkg/paths.EnsureCampaignDir&#45;&gt;github.com/guild&#45;framework/guild&#45;core/pkg/paths.GetCampaignDir -->
<g id="edge19" class="edge">
<title>github.com/guild&#45;framework/guild&#45;core/pkg/paths.EnsureCampaignDir&#45;&gt;github.com/guild&#45;framework/guild&#45;core/pkg/paths.GetCampaignDir</title>
<g id="a_edge19"><a xlink:title="at run.go:121: calling [github.com/guild&#45;framework/guild&#45;core/pkg/paths.GetCampaignDir]">
<path fill="none" stroke="black" d="M151.81,-343.29C186.66,-331.12 232.28,-315.17 269.02,-302.33"/>
<polygon fill="black" stroke="black" points="269.91,-305.73 278.19,-299.13 267.6,-299.12 269.91,-305.73"/>
</a>
</g>
</g>
<!-- github.com/guild&#45;framework/guild&#45;core/pkg/paths.EnsureCampaignDir&#45;&gt;github.com/guild&#45;framework/guild&#45;core/pkg/gerror.Wrap -->
<g id="edge10" class="edge">
<title>github.com/guild&#45;framework/guild&#45;core/pkg/paths.EnsureCampaignDir&#45;&gt;github.com/guild&#45;framework/guild&#45;core/pkg/gerror.Wrap</title>
<g id="a_edge10"><a xlink:title="at run.go:136: calling [github.com/guild&#45;framework/guild&#45;core/pkg/gerror.Wrap]">
<path fill="none" stroke="saddlebrown" d="M143.26,-380.66C189.87,-398.27 265.23,-422 332.93,-422 332.93,-422 332.93,-422 566.72,-422 617.46,-422 631.62,-419.83 679.12,-402 722.46,-385.73 767.31,-356.95 796.78,-336.11"/>
<polygon fill="saddlebrown" stroke="saddlebrown" points="798.47,-339.2 804.56,-330.53 794.39,-333.51 798.47,-339.2"/>
</a>
</g>
</g>
<!-- github.com/guild&#45;framework/guild&#45;core/pkg/paths.EnsureCampaignDir&#45;&gt;(*github.com/guild&#45;framework/guild&#45;core/pkg/gerror.GuildError).WithComponent -->
<g id="edge11" class="edge">
<title>github.com/guild&#45;framework/guild&#45;core/pkg/paths.EnsureCampaignDir&#45;&gt;(*github.com/guild&#45;framework/guild&#45;core/pkg/gerror.GuildError).WithComponent</title>
<g id="a_edge11"><a xlink:title="at run.go:137: calling [(*github.com/guild&#45;framework/guild&#45;core/pkg/gerror.GuildError).WithComponent]">
<path fill="none" stroke="saddlebrown" d="M179.19,-348.07C224.29,-341.46 281.57,-335 332.93,-335 332.93,-335 332.93,-335 453.33,-335 539.1,-335 568.24,-338.56 642.12,-295 680.12,-272.6 669.55,-243.12 707.12,-220 711.75,-217.15 716.62,-214.57 721.66,-212.22"/>
<polygon fill="saddlebrown" stroke="saddlebrown" points="722.98,-215.46 730.8,-208.32 720.23,-209.02 722.98,-215.46"/>
</a>
</g>
</g>
<!-- github.com/guild&#45;framework/guild&#45;core/pkg/paths.EnsureCampaignDir&#45;&gt;(*github.com/guild&#45;framework/guild&#45;core/pkg/gerror.GuildError).WithOperation -->
<g id="edge20" class="edge">
<title>github.com/guild&#45;framework/guild&#45;core/pkg/paths.EnsureCampaignDir&#45;&gt;(*github.com/guild&#45;framework/guild&#45;core/pkg/gerror.GuildError).WithOperation</title>
<g id="a_edge20"><a xlink:title="at run.go:138: calling [(*github.com/guild&#45;framework/guild&#45;core/pkg/gerror.GuildError).WithOperation]">
<path fill="none" stroke="saddlebrown" d="M179.06,-379.03C224.13,-387.1 281.41,-395 332.93,-395 332.93,-395 332.93,-395 566.72,-395 626.53,-395 636.23,-362.68 679.12,-321 694.68,-305.88 689.25,-293.31 707.12,-281 711.05,-278.29 715.2,-275.82 719.5,-273.56"/>
<polygon fill="saddlebrown" stroke="saddlebrown" points="720.88,-276.78 728.41,-269.33 717.87,-270.46 720.88,-276.78"/>
</a>
</g>
</g>
<!-- github.com/guild&#45;framework/guild&#45;core/pkg/paths.EnsureCampaignDir&#45;&gt;(*github.com/guild&#45;framework/guild&#45;core/pkg/gerror.GuildError).WithDetails -->
<g id="edge14" class="edge">
<title>github.com/guild&#45;framework/guild&#45;core/pkg/paths.EnsureCampaignDir&#45;&gt;(*github.com/guild&#45;framework/guild&#45;core/pkg/gerror.GuildError).WithDetails</title>
<g id="a_edge14"><a xlink:title="at run.go:139: calling [(*github.com/guild&#45;framework/guild&#45;core/pkg/gerror.GuildError).WithDetails]">
<path fill="none" stroke="saddlebrown" d="M178.84,-374.56C293.25,-387.82 504.18,-394.85 642.12,-295 696.39,-255.72 655.27,-201.43 707.12,-159 711.37,-155.52 715.97,-152.42 720.8,-149.67"/>
<polygon fill="saddlebrown" stroke="saddlebrown" points="722.32,-152.82 729.65,-145.16 719.15,-146.58 722.32,-152.82"/>
</a>
</g>
</g>
</g>
</svg>
