<?xml version="1.0" encoding="UTF-8" standalone="no"?>
<!DOCTYPE svg PUBLIC "-//W3C//DTD SVG 1.1//EN"
 "http://www.w3.org/Graphics/SVG/1.1/DTD/svg11.dtd">
<!-- Generated by graphviz version 14.1.1 (20251213.1925)
 -->
<!-- Title: gocallvis Pages: 1 -->
<svg width="834pt" height="324pt"
 viewBox="0.00 0.00 834.00 324.00" xmlns="http://www.w3.org/2000/svg" xmlns:xlink="http://www.w3.org/1999/xlink">
<g id="graph0" class="graph" transform="scale(1 1) rotate(0) translate(0 324)">
<title>gocallvis</title>
<polygon fill="lightgray" stroke="none" points="0,0 0,-324 834.12,-324 834.12,0 0,0"/>
<g id="clust1" class="cluster">
<title>cluster_focus</title>
<polygon fill="#e6ecfa" stroke="black" stroke-width="0.5" points="8,-8 8,-316 826.12,-316 826.12,-8 8,-8"/>
<text xml:space="preserve" text-anchor="middle" x="417.06" y="-294.9" font-family="Arial" font-size="18.00">context</text>
</g>
<g id="clust2" class="cluster">
<title>cluster_github.com/guild&#45;framework/guild&#45;core/pkg/gerror</title>
<g id="a_clust2"><a xlink:href="/?f=github.com/guild-framework/guild-core/pkg/gerror" xlink:title="package: github.com/guild&#45;framework/guild&#45;core/pkg/gerror">
<polygon fill="lightyellow" stroke="black" stroke-width="0.8" points="569.83,-16 569.83,-279 818.12,-279 818.12,-16 569.83,-16"/>
<text xml:space="preserve" text-anchor="middle" x="693.97" y="-259.8" font-family="Tahoma bold" font-size="16.00">gerror</text>
</a>
</g>
</g>
<!-- github.com/guild&#45;framework/guild&#45;core/pkg/prompts/layered/context.NewXMLFormatter -->
<g id="node1" class="node">
<title>github.com/guild&#45;framework/guild&#45;core/pkg/prompts/layered/context.NewXMLFormatter</title>
<g id="a_node1"><a xlink:title="github.com/guild&#45;framework/guild&#45;core/pkg/prompts/layered/context.NewXMLFormatter | defined in formatter.go:52&#10;at formatter.go:95: calling [github.com/guild&#45;framework/guild&#45;core/pkg/gerror.Wrap]&#10;at formatter.go:96: calling [(*github.com/guild&#45;framework/guild&#45;core/pkg/gerror.GuildError).WithComponent]&#10;at formatter.go:98: calling [(*github.com/guild&#45;framework/guild&#45;core/pkg/gerror.GuildError).WithDetails]&#10;at formatter.go:97: calling [(*github.com/guild&#45;framework/guild&#45;core/pkg/gerror.GuildError).WithOperation]">
<path fill="lightblue" stroke="black" stroke-width="1.5" d="M446.7,-192C446.7,-192 319.41,-192 319.41,-192 313.41,-192 307.41,-186 307.41,-180 307.41,-180 307.41,-168 307.41,-168 307.41,-162 313.41,-156 319.41,-156 319.41,-156 446.7,-156 446.7,-156 452.7,-156 458.7,-162 458.7,-168 458.7,-168 458.7,-180 458.7,-180 458.7,-186 452.7,-192 446.7,-192"/>
<text xml:space="preserve" text-anchor="middle" x="383.06" y="-169.32" font-family="Verdana" font-size="14.00">NewXMLFormatter</text>
</a>
</g>
</g>
<!-- github.com/guild&#45;framework/guild&#45;core/pkg/gerror.Wrap -->
<g id="node4" class="node">
<title>github.com/guild&#45;framework/guild&#45;core/pkg/gerror.Wrap</title>
<g id="a_node4"><a xlink:title="github.com/guild&#45;framework/guild&#45;core/pkg/gerror.Wrap | defined in errors.go:223">
<path fill="moccasin" stroke="black" stroke-width="1.5" d="M711.87,-121C711.87,-121 676.08,-121 676.08,-121 670.08,-121 664.08,-115 664.08,-109 664.08,-109 664.08,-97 664.08,-97 664.08,-91 670.08,-85 676.08,-85 676.08,-85 711.87,-85 711.87,-85 717.87,-85 723.87,-91 723.87,-97 723.87,-97 723.87,-109 723.87,-109 723.87,-115 717.87,-121 711.87,-121"/>
<text xml:space="preserve" text-anchor="middle" x="693.97" y="-98.33" font-family="Verdana" font-size="14.00">Wrap</text>
</a>
</g>
</g>
<!-- github.com/guild&#45;framework/guild&#45;core/pkg/prompts/layered/context.NewXMLFormatter&#45;&gt;github.com/guild&#45;framework/guild&#45;core/pkg/gerror.Wrap -->
<g id="edge1" class="edge">
<title>github.com/guild&#45;framework/guild&#45;core/pkg/prompts/layered/context.NewXMLFormatter&#45;&gt;github.com/guild&#45;framework/guild&#45;core/pkg/gerror.Wrap</title>
<g id="a_edge1"><a xlink:title="at formatter.go:95: calling [github.com/guild&#45;framework/guild&#45;core/pkg/gerror.Wrap]">
<path fill="none" stroke="saddlebrown" d="M459.23,-156.72C520.08,-142.74 603.44,-123.58 652.42,-112.32"/>
<polygon fill="saddlebrown" stroke="saddlebrown" points="653.07,-115.76 662.03,-110.11 651.5,-108.94 653.07,-115.76"/>
</a>
</g>
</g>
<!-- (*github.com/guild&#45;framework/guild&#45;core/pkg/gerror.GuildError).WithComponent -->
<g id="node5" class="node">
<title>(*github.com/guild&#45;framework/guild&#45;core/pkg/gerror.GuildError).WithComponent</title>
<g id="a_node5"><a xlink:title="(*github.com/guild&#45;framework/guild&#45;core/pkg/gerror.GuildError).WithComponent | defined in errors.go:156">
<path fill="moccasin" stroke="black" stroke-width="1.5" d="M798.12,-60C798.12,-60 589.83,-60 589.83,-60 583.83,-60 577.83,-54 577.83,-48 577.83,-48 577.83,-36 577.83,-36 577.83,-30 583.83,-24 589.83,-24 589.83,-24 798.12,-24 798.12,-24 804.12,-24 810.12,-30 810.12,-36 810.12,-36 810.12,-48 810.12,-48 810.12,-54 804.12,-60 798.12,-60"/>
<text xml:space="preserve" text-anchor="middle" x="693.97" y="-37.33" font-family="Verdana" font-size="14.00">(*GuildError).WithComponent</text>
</a>
</g>
</g>
<!-- github.com/guild&#45;framework/guild&#45;core/pkg/prompts/layered/context.NewXMLFormatter&#45;&gt;(*github.com/guild&#45;framework/guild&#45;core/pkg/gerror.GuildError).WithComponent -->
<g id="edge2" class="edge">
<title>github.com/guild&#45;framework/guild&#45;core/pkg/prompts/layered/context.NewXMLFormatter&#45;&gt;(*github.com/guild&#45;framework/guild&#45;core/pkg/gerror.GuildError).WithComponent</title>
<g id="a_edge2"><a xlink:title="at formatter.go:96: calling [(*github.com/guild&#45;framework/guild&#45;core/pkg/gerror.GuildError).WithComponent]">
<path fill="none" stroke="saddlebrown" d="M431.91,-155.28C454.56,-145.76 481.65,-133.37 504.83,-120 535.71,-102.19 537.52,-88.07 569.83,-73 576.68,-69.81 583.9,-66.91 591.27,-64.3"/>
<polygon fill="saddlebrown" stroke="saddlebrown" points="592.34,-67.63 600.71,-61.14 590.12,-60.99 592.34,-67.63"/>
</a>
</g>
</g>
<!-- (*github.com/guild&#45;framework/guild&#45;core/pkg/gerror.GuildError).WithOperation -->
<g id="node6" class="node">
<title>(*github.com/guild&#45;framework/guild&#45;core/pkg/gerror.GuildError).WithOperation</title>
<g id="a_node6"><a xlink:title="(*github.com/guild&#45;framework/guild&#45;core/pkg/gerror.GuildError).WithOperation | defined in errors.go:162">
<path fill="moccasin" stroke="black" stroke-width="1.5" d="M792.49,-243C792.49,-243 595.45,-243 595.45,-243 589.45,-243 583.45,-237 583.45,-231 583.45,-231 583.45,-219 583.45,-219 583.45,-213 589.45,-207 595.45,-207 595.45,-207 792.49,-207 792.49,-207 798.49,-207 804.49,-213 804.49,-219 804.49,-219 804.49,-231 804.49,-231 804.49,-237 798.49,-243 792.49,-243"/>
<text xml:space="preserve" text-anchor="middle" x="693.97" y="-220.32" font-family="Verdana" font-size="14.00">(*GuildError).WithOperation</text>
</a>
</g>
</g>
<!-- github.com/guild&#45;framework/guild&#45;core/pkg/prompts/layered/context.NewXMLFormatter&#45;&gt;(*github.com/guild&#45;framework/guild&#45;core/pkg/gerror.GuildError).WithOperation -->
<g id="edge6" class="edge">
<title>github.com/guild&#45;framework/guild&#45;core/pkg/prompts/layered/context.NewXMLFormatter&#45;&gt;(*github.com/guild&#45;framework/guild&#45;core/pkg/gerror.GuildError).WithOperation</title>
<g id="a_edge6"><a xlink:title="at formatter.go:97: calling [(*github.com/guild&#45;framework/guild&#45;core/pkg/gerror.GuildError).WithOperation]">
<path fill="none" stroke="saddlebrown" d="M459.23,-186.41C493.04,-191.99 533.81,-198.72 571.76,-204.99"/>
<polygon fill="saddlebrown" stroke="saddlebrown" points="570.98,-208.41 581.41,-206.58 572.12,-201.5 570.98,-208.41"/>
</a>
</g>
</g>
<!-- (*github.com/guild&#45;framework/guild&#45;core/pkg/gerror.GuildError).WithDetails -->
<g id="node7" class="node">
<title>(*github.com/guild&#45;framework/guild&#45;core/pkg/gerror.GuildError).WithDetails</title>
<g id="a_node7"><a xlink:title="(*github.com/guild&#45;framework/guild&#45;core/pkg/gerror.GuildError).WithDetails | defined in errors.go:147">
<path fill="moccasin" stroke="black" stroke-width="1.5" d="M781.62,-182C781.62,-182 606.33,-182 606.33,-182 600.33,-182 594.33,-176 594.33,-170 594.33,-170 594.33,-158 594.33,-158 594.33,-152 600.33,-146 606.33,-146 606.33,-146 781.62,-146 781.62,-146 787.62,-146 793.62,-152 793.62,-158 793.62,-158 793.62,-170 793.62,-170 793.62,-176 787.62,-182 781.62,-182"/>
<text xml:space="preserve" text-anchor="middle" x="693.97" y="-159.32" font-family="Verdana" font-size="14.00">(*GuildError).WithDetails</text>
</a>
</g>
</g>
<!-- github.com/guild&#45;framework/guild&#45;core/pkg/prompts/layered/context.NewXMLFormatter&#45;&gt;(*github.com/guild&#45;framework/guild&#45;core/pkg/gerror.GuildError).WithDetails -->
<g id="edge3" class="edge">
<title>github.com/guild&#45;framework/guild&#45;core/pkg/prompts/layered/context.NewXMLFormatter&#45;&gt;(*github.com/guild&#45;framework/guild&#45;core/pkg/gerror.GuildError).WithDetails</title>
<g id="a_edge3"><a xlink:title="at formatter.go:98: calling [(*github.com/guild&#45;framework/guild&#45;core/pkg/gerror.GuildError).WithDetails]">
<path fill="none" stroke="saddlebrown" d="M459.23,-171.57C496.21,-170.37 541.5,-168.9 582.34,-167.58"/>
<polygon fill="saddlebrown" stroke="saddlebrown" points="582.33,-171.08 592.21,-167.26 582.11,-164.09 582.33,-171.08"/>
</a>
</g>
</g>
<!-- (*github.com/guild&#45;framework/guild&#45;core/pkg/prompts/layered/context.XMLFormatter).FormatAsXML -->
<g id="node2" class="node">
<title>(*github.com/guild&#45;framework/guild&#45;core/pkg/prompts/layered/context.XMLFormatter).FormatAsXML</title>
<g id="a_node2"><a xlink:title="(*github.com/guild&#45;framework/guild&#45;core/pkg/prompts/layered/context.XMLFormatter).FormatAsXML | defined in formatter.go:105&#10;at formatter.go:109: calling [(*github.com/guild&#45;framework/guild&#45;core/pkg/gerror.GuildError).WithComponent]&#10;at formatter.go:108: calling [github.com/guild&#45;framework/guild&#45;core/pkg/gerror.Wrap]&#10;at formatter.go:110: calling [(*github.com/guild&#45;framework/guild&#45;core/pkg/gerror.GuildError).WithOperation]&#10;at formatter.go:111: calling [(*github.com/guild&#45;framework/guild&#45;core/pkg/gerror.GuildError).WithDetails]">
<path fill="lightblue" stroke="black" stroke-width="1.5" d="M492.83,-107C492.83,-107 273.29,-107 273.29,-107 267.29,-107 261.29,-101 261.29,-95 261.29,-95 261.29,-83 261.29,-83 261.29,-77 267.29,-71 273.29,-71 273.29,-71 492.83,-71 492.83,-71 498.83,-71 504.83,-77 504.83,-83 504.83,-83 504.83,-95 504.83,-95 504.83,-101 498.83,-107 492.83,-107"/>
<text xml:space="preserve" text-anchor="middle" x="383.06" y="-84.33" font-family="Verdana" font-size="14.00">(*XMLFormatter).FormatAsXML</text>
</a>
</g>
</g>
<!-- (*github.com/guild&#45;framework/guild&#45;core/pkg/prompts/layered/context.XMLFormatter).FormatAsXML&#45;&gt;github.com/guild&#45;framework/guild&#45;core/pkg/gerror.Wrap -->
<g id="edge7" class="edge">
<title>(*github.com/guild&#45;framework/guild&#45;core/pkg/prompts/layered/context.XMLFormatter).FormatAsXML&#45;&gt;github.com/guild&#45;framework/guild&#45;core/pkg/gerror.Wrap</title>
<g id="a_edge7"><a xlink:title="at formatter.go:108: calling [github.com/guild&#45;framework/guild&#45;core/pkg/gerror.Wrap]">
<path fill="none" stroke="saddlebrown" d="M505.26,-94.49C557.28,-96.85 614.57,-99.45 652.01,-101.14"/>
<polygon fill="saddlebrown" stroke="saddlebrown" points="651.77,-104.64 661.92,-101.59 652.09,-97.64 651.77,-104.64"/>
</a>
</g>
</g>
<!-- (*github.com/guild&#45;framework/guild&#45;core/pkg/prompts/layered/context.XMLFormatter).FormatAsXML&#45;&gt;(*github.com/guild&#45;framework/guild&#45;core/pkg/gerror.GuildError).WithComponent -->
<g id="edge4" class="edge">
<title>(*github.com/guild&#45;framework/guild&#45;core/pkg/prompts/layered/context.XMLFormatter).FormatAsXML&#45;&gt;(*github.com/guild&#45;framework/guild&#45;core/pkg/gerror.GuildError).WithComponent</title>
<g id="a_edge4"><a xlink:title="at formatter.go:109: calling [(*github.com/guild&#45;framework/guild&#45;core/pkg/gerror.GuildError).WithComponent]">
<path fill="none" stroke="saddlebrown" d="M505.26,-70.56C525.14,-67.54 545.78,-64.39 565.8,-61.35"/>
<polygon fill="saddlebrown" stroke="saddlebrown" points="566.31,-64.81 575.67,-59.85 565.26,-57.89 566.31,-64.81"/>
</a>
</g>
</g>
<!-- (*github.com/guild&#45;framework/guild&#45;core/pkg/prompts/layered/context.XMLFormatter).FormatAsXML&#45;&gt;(*github.com/guild&#45;framework/guild&#45;core/pkg/gerror.GuildError).WithOperation -->
<g id="edge8" class="edge">
<title>(*github.com/guild&#45;framework/guild&#45;core/pkg/prompts/layered/context.XMLFormatter).FormatAsXML&#45;&gt;(*github.com/guild&#45;framework/guild&#45;core/pkg/gerror.GuildError).WithOperation</title>
<g id="a_edge8"><a xlink:title="at formatter.go:110: calling [(*github.com/guild&#45;framework/guild&#45;core/pkg/gerror.GuildError).WithOperation]">
<path fill="none" stroke="saddlebrown" d="M431.84,-107.65C454.59,-117.3 481.8,-130 504.83,-144 536.21,-163.08 536.8,-178.96 569.83,-195 575.54,-197.77 581.52,-200.3 587.64,-202.6"/>
<polygon fill="saddlebrown" stroke="saddlebrown" points="586.04,-205.75 596.63,-205.77 588.36,-199.15 586.04,-205.75"/>
</a>
</g>
</g>
<!-- (*github.com/guild&#45;framework/guild&#45;core/pkg/prompts/layered/context.XMLFormatter).FormatAsXML&#45;&gt;(*github.com/guild&#45;framework/guild&#45;core/pkg/gerror.GuildError).WithDetails -->
<g id="edge9" class="edge">
<title>(*github.com/guild&#45;framework/guild&#45;core/pkg/prompts/layered/context.XMLFormatter).FormatAsXML&#45;&gt;(*github.com/guild&#45;framework/guild&#45;core/pkg/gerror.GuildError).WithDetails</title>
<g id="a_edge9"><a xlink:title="at formatter.go:111: calling [(*github.com/guild&#45;framework/guild&#45;core/pkg/gerror.GuildError).WithDetails]">
<path fill="none" stroke="saddlebrown" d="M461.22,-107.73C504.88,-118.33 559.66,-131.63 604.99,-142.64"/>
<polygon fill="saddlebrown" stroke="saddlebrown" points="603.99,-146 614.53,-144.95 605.64,-139.19 603.99,-146"/>
</a>
</g>
</g>
<!-- github.com/guild&#45;framework/guild&#45;core/pkg/prompts/layered/context.NewDefaultFormatter -->
<g id="node3" class="node">
<title>github.com/guild&#45;framework/guild&#45;core/pkg/prompts/layered/context.NewDefaultFormatter</title>
<g id="a_node3"><a xlink:title="github.com/guild&#45;framework/guild&#45;core/pkg/prompts/layered/context.NewDefaultFormatter | defined in formatter.go:218&#10;at formatter.go:219: calling [github.com/guild&#45;framework/guild&#45;core/pkg/prompts/layered/context.NewXMLFormatter]">
<path fill="lightblue" stroke="black" stroke-width="1.5" d="M176.29,-192C176.29,-192 28,-192 28,-192 22,-192 16,-186 16,-180 16,-180 16,-168 16,-168 16,-162 22,-156 28,-156 28,-156 176.29,-156 176.29,-156 182.29,-156 188.29,-162 188.29,-168 188.29,-168 188.29,-180 188.29,-180 188.29,-186 182.29,-192 176.29,-192"/>
<text xml:space="preserve" text-anchor="middle" x="102.14" y="-169.32" font-family="Verdana" font-size="14.00">NewDefaultFormatter</text>
</a>
</g>
</g>
<!-- github.com/guild&#45;framework/guild&#45;core/pkg/prompts/layered/context.NewDefaultFormatter&#45;&gt;github.com/guild&#45;framework/guild&#45;core/pkg/prompts/layered/context.NewXMLFormatter -->
<g id="edge5" class="edge">
<title>github.com/guild&#45;framework/guild&#45;core/pkg/prompts/layered/context.NewDefaultFormatter&#45;&gt;github.com/guild&#45;framework/guild&#45;core/pkg/prompts/layered/context.NewXMLFormatter</title>
<g id="a_edge5"><a xlink:title="at formatter.go:219: calling [github.com/guild&#45;framework/guild&#45;core/pkg/prompts/layered/context.NewXMLFormatter]">
<path fill="none" stroke="black" d="M188.72,-174C222.68,-174 261.67,-174 295.7,-174"/>
<polygon fill="black" stroke="black" points="295.52,-177.5 305.52,-174 295.52,-170.5 295.52,-177.5"/>
</a>
</g>
</g>
</g>
</svg>
