<?xml version="1.0" encoding="UTF-8" standalone="no"?>
<!DOCTYPE svg PUBLIC "-//W3C//DTD SVG 1.1//EN"
 "http://www.w3.org/Graphics/SVG/1.1/DTD/svg11.dtd">
<!-- Generated by graphviz version 14.1.1 (20251213.1925)
 -->
<!-- Title: gocallvis Pages: 1 -->
<svg width="1112pt" height="503pt"
 viewBox="0.00 0.00 1112.00 503.00" xmlns="http://www.w3.org/2000/svg" xmlns:xlink="http://www.w3.org/1999/xlink">
<g id="graph0" class="graph" transform="scale(1 1) rotate(0) translate(0 503)">
<title>gocallvis</title>
<polygon fill="lightgray" stroke="none" points="0,0 0,-503 1111.95,-503 1111.95,0 0,0"/>
<g id="clust1" class="cluster">
<title>cluster_focus</title>
<polygon fill="#e6ecfa" stroke="black" stroke-width="0.5" points="8,-8 8,-495 1103.95,-495 1103.95,-8 8,-8"/>
<text xml:space="preserve" text-anchor="middle" x="555.97" y="-473.9" font-family="Arial" font-size="18.00">telemetry</text>
</g>
<g id="clust2" class="cluster">
<title>cluster_github.com/guild&#45;framework/guild&#45;core/pkg/gerror</title>
<g id="a_clust2"><a xlink:href="/?f=github.com/guild-framework/guild-core/pkg/gerror" xlink:title="package: github.com/guild&#45;framework/guild&#45;core/pkg/gerror">
<polygon fill="lightyellow" stroke="black" stroke-width="0.8" points="1004.53,-246 1004.53,-387 1080.32,-387 1080.32,-246 1004.53,-246"/>
<text xml:space="preserve" text-anchor="middle" x="1042.43" y="-367.8" font-family="Tahoma bold" font-size="16.00">gerror</text>
</a>
</g>
</g>
<g id="clust3" class="cluster">
<title>cluster_github.com/guild&#45;framework/guild&#45;core/pkg/telemetry/collectors</title>
<g id="a_clust3"><a xlink:href="/?f=github.com/guild-framework/guild-core/pkg/telemetry/collectors" xlink:title="package: github.com/guild&#45;framework/guild&#45;core/pkg/telemetry/collectors">
<polygon fill="lightyellow" stroke="black" stroke-width="0.8" points="172.66,-97 172.66,-238 408.95,-238 408.95,-97 172.66,-97"/>
<text xml:space="preserve" text-anchor="middle" x="290.81" y="-218.8" font-family="Tahoma bold" font-size="16.00">collectors</text>
</a>
</g>
</g>
<!-- github.com/guild&#45;framework/guild&#45;core/pkg/telemetry.setupOTelProviders -->
<g id="node1" class="node">
<title>github.com/guild&#45;framework/guild&#45;core/pkg/telemetry.setupOTelProviders</title>
<g id="a_node1"><a xlink:title="github.com/guild&#45;framework/guild&#45;core/pkg/telemetry.setupOTelProviders | defined in exporters.go:25&#10;at exporters.go:42: calling [github.com/guild&#45;framework/guild&#45;core/pkg/telemetry.setupTraceProvider]&#10;at exporters.go:29: calling [github.com/guild&#45;framework/guild&#45;core/pkg/telemetry.createResource]&#10;at exporters.go:31: calling [github.com/guild&#45;framework/guild&#45;core/pkg/gerror.Wrap]&#10;at exporters.go:44: calling [github.com/guild&#45;framework/guild&#45;core/pkg/gerror.Wrap]&#10;at exporters.go:56: calling [github.com/guild&#45;framework/guild&#45;core/pkg/gerror.Wrap]&#10;at exporters.go:50: calling [github.com/guild&#45;framework/guild&#45;core/pkg/telemetry.setupMetricProvider]">
<path fill="lightblue" stroke="black" stroke-width="0.5" d="M357.08,-282C357.08,-282 224.54,-282 224.54,-282 218.54,-282 212.54,-276 212.54,-270 212.54,-270 212.54,-258 212.54,-258 212.54,-252 218.54,-246 224.54,-246 224.54,-246 357.08,-246 357.08,-246 363.08,-246 369.08,-252 369.08,-258 369.08,-258 369.08,-270 369.08,-270 369.08,-276 363.08,-282 357.08,-282"/>
<text xml:space="preserve" text-anchor="middle" x="290.81" y="-259.32" font-family="Verdana" font-size="14.00">setupOTelProviders</text>
</a>
</g>
</g>
<!-- github.com/guild&#45;framework/guild&#45;core/pkg/telemetry.createResource -->
<g id="node2" class="node">
<title>github.com/guild&#45;framework/guild&#45;core/pkg/telemetry.createResource</title>
<g id="a_node2"><a xlink:title="github.com/guild&#45;framework/guild&#45;core/pkg/telemetry.createResource | defined in exporters.go:78">
<path fill="lightblue" stroke="black" stroke-width="0.5" d="M611.37,-255C611.37,-255 504.33,-255 504.33,-255 498.33,-255 492.33,-249 492.33,-243 492.33,-243 492.33,-231 492.33,-231 492.33,-225 498.33,-219 504.33,-219 504.33,-219 611.37,-219 611.37,-219 617.37,-219 623.37,-225 623.37,-231 623.37,-231 623.37,-243 623.37,-243 623.37,-249 617.37,-255 611.37,-255"/>
<text xml:space="preserve" text-anchor="middle" x="557.85" y="-232.32" font-family="Verdana" font-size="14.00">createResource</text>
</a>
</g>
</g>
<!-- github.com/guild&#45;framework/guild&#45;core/pkg/telemetry.setupOTelProviders&#45;&gt;github.com/guild&#45;framework/guild&#45;core/pkg/telemetry.createResource -->
<g id="edge8" class="edge">
<title>github.com/guild&#45;framework/guild&#45;core/pkg/telemetry.setupOTelProviders&#45;&gt;github.com/guild&#45;framework/guild&#45;core/pkg/telemetry.createResource</title>
<g id="a_edge8"><a xlink:title="at exporters.go:29: calling [github.com/guild&#45;framework/guild&#45;core/pkg/telemetry.createResource]">
<path fill="none" stroke="black" d="M369.18,-256.12C404.48,-252.52 446.13,-248.28 481.21,-244.71"/>
<polygon fill="black" stroke="black" points="481.25,-248.22 490.85,-243.72 480.54,-241.26 481.25,-248.22"/>
</a>
</g>
</g>
<!-- github.com/guild&#45;framework/guild&#45;core/pkg/telemetry.setupTraceProvider -->
<g id="node4" class="node">
<title>github.com/guild&#45;framework/guild&#45;core/pkg/telemetry.setupTraceProvider</title>
<g id="a_node4"><a xlink:title="github.com/guild&#45;framework/guild&#45;core/pkg/telemetry.setupTraceProvider | defined in exporters.go:88&#10;at exporters.go:101: calling [github.com/guild&#45;framework/guild&#45;core/pkg/gerror.Wrap]&#10;at exporters.go:94: calling [github.com/guild&#45;framework/guild&#45;core/pkg/telemetry.createOTLPTraceExporter]&#10;at exporters.go:97: calling [github.com/guild&#45;framework/guild&#45;core/pkg/telemetry.createOTLPTraceExporter]">
<path fill="lightblue" stroke="black" stroke-width="0.5" d="M624.49,-316C624.49,-316 491.2,-316 491.2,-316 485.2,-316 479.2,-310 479.2,-304 479.2,-304 479.2,-292 479.2,-292 479.2,-286 485.2,-280 491.2,-280 491.2,-280 624.49,-280 624.49,-280 630.49,-280 636.49,-286 636.49,-292 636.49,-292 636.49,-304 636.49,-304 636.49,-310 630.49,-316 624.49,-316"/>
<text xml:space="preserve" text-anchor="middle" x="557.85" y="-293.32" font-family="Verdana" font-size="14.00">setupTraceProvider</text>
</a>
</g>
</g>
<!-- github.com/guild&#45;framework/guild&#45;core/pkg/telemetry.setupOTelProviders&#45;&gt;github.com/guild&#45;framework/guild&#45;core/pkg/telemetry.setupTraceProvider -->
<g id="edge4" class="edge">
<title>github.com/guild&#45;framework/guild&#45;core/pkg/telemetry.setupOTelProviders&#45;&gt;github.com/guild&#45;framework/guild&#45;core/pkg/telemetry.setupTraceProvider</title>
<g id="a_edge4"><a xlink:title="at exporters.go:42: calling [github.com/guild&#45;framework/guild&#45;core/pkg/telemetry.setupTraceProvider]">
<path fill="none" stroke="black" d="M369.18,-273.93C400.21,-277.91 436.14,-282.52 468.21,-286.63"/>
<polygon fill="black" stroke="black" points="467.52,-290.07 477.88,-287.87 468.41,-283.13 467.52,-290.07"/>
</a>
</g>
</g>
<!-- github.com/guild&#45;framework/guild&#45;core/pkg/telemetry.setupMetricProvider -->
<g id="node5" class="node">
<title>github.com/guild&#45;framework/guild&#45;core/pkg/telemetry.setupMetricProvider</title>
<g id="a_node5"><a xlink:title="github.com/guild&#45;framework/guild&#45;core/pkg/telemetry.setupMetricProvider | defined in exporters.go:124&#10;at exporters.go:131: calling [github.com/guild&#45;framework/guild&#45;core/pkg/gerror.Wrap]&#10;at exporters.go:155: calling [github.com/guild&#45;framework/guild&#45;core/pkg/gerror.Wrap]&#10;at exporters.go:136: calling [github.com/guild&#45;framework/guild&#45;core/pkg/telemetry.setupMetricProvider$1]&#10;at exporters.go:153: calling [github.com/guild&#45;framework/guild&#45;core/pkg/telemetry.createOTLPMetricExporter]">
<path fill="lightblue" stroke="black" stroke-width="0.5" d="M627.12,-167C627.12,-167 488.58,-167 488.58,-167 482.58,-167 476.58,-161 476.58,-155 476.58,-155 476.58,-143 476.58,-143 476.58,-137 482.58,-131 488.58,-131 488.58,-131 627.12,-131 627.12,-131 633.12,-131 639.12,-137 639.12,-143 639.12,-143 639.12,-155 639.12,-155 639.12,-161 633.12,-167 627.12,-167"/>
<text xml:space="preserve" text-anchor="middle" x="557.85" y="-144.32" font-family="Verdana" font-size="14.00">setupMetricProvider</text>
</a>
</g>
</g>
<!-- github.com/guild&#45;framework/guild&#45;core/pkg/telemetry.setupOTelProviders&#45;&gt;github.com/guild&#45;framework/guild&#45;core/pkg/telemetry.setupMetricProvider -->
<g id="edge12" class="edge">
<title>github.com/guild&#45;framework/guild&#45;core/pkg/telemetry.setupOTelProviders&#45;&gt;github.com/guild&#45;framework/guild&#45;core/pkg/telemetry.setupMetricProvider</title>
<g id="a_edge12"><a xlink:title="at exporters.go:50: calling [github.com/guild&#45;framework/guild&#45;core/pkg/telemetry.setupMetricProvider]">
<path fill="none" stroke="black" d="M369.21,-259.44C383.36,-255.93 397.32,-250.45 408.95,-242 431.91,-225.33 417.67,-204.01 439.58,-186 447.51,-179.48 456.61,-174.1 466.14,-169.67"/>
<polygon fill="black" stroke="black" points="467.4,-172.94 475.23,-165.81 464.66,-166.5 467.4,-172.94"/>
</a>
</g>
</g>
<!-- github.com/guild&#45;framework/guild&#45;core/pkg/gerror.Wrap -->
<g id="node14" class="node">
<title>github.com/guild&#45;framework/guild&#45;core/pkg/gerror.Wrap</title>
<g id="a_node14"><a xlink:title="github.com/guild&#45;framework/guild&#45;core/pkg/gerror.Wrap | defined in errors.go:223">
<path fill="moccasin" stroke="black" stroke-width="1.5" d="M1060.32,-290C1060.32,-290 1024.53,-290 1024.53,-290 1018.53,-290 1012.53,-284 1012.53,-278 1012.53,-278 1012.53,-266 1012.53,-266 1012.53,-260 1018.53,-254 1024.53,-254 1024.53,-254 1060.32,-254 1060.32,-254 1066.32,-254 1072.32,-260 1072.32,-266 1072.32,-266 1072.32,-278 1072.32,-278 1072.32,-284 1066.32,-290 1060.32,-290"/>
<text xml:space="preserve" text-anchor="middle" x="1042.43" y="-267.32" font-family="Verdana" font-size="14.00">Wrap</text>
</a>
</g>
</g>
<!-- github.com/guild&#45;framework/guild&#45;core/pkg/telemetry.setupOTelProviders&#45;&gt;github.com/guild&#45;framework/guild&#45;core/pkg/gerror.Wrap -->
<g id="edge9" class="edge">
<title>github.com/guild&#45;framework/guild&#45;core/pkg/telemetry.setupOTelProviders&#45;&gt;github.com/guild&#45;framework/guild&#45;core/pkg/gerror.Wrap</title>
<g id="a_edge9"><a xlink:title="at exporters.go:31: calling [github.com/guild&#45;framework/guild&#45;core/pkg/gerror.Wrap]&#10;at exporters.go:44: calling [github.com/guild&#45;framework/guild&#45;core/pkg/gerror.Wrap]&#10;at exporters.go:56: calling [github.com/guild&#45;framework/guild&#45;core/pkg/gerror.Wrap]">
<path fill="none" stroke="saddlebrown" d="M369.21,-252.78C382.64,-249.9 396.34,-246.35 408.95,-242 440.95,-230.98 443.7,-215 476.58,-207 576.62,-182.65 888.72,-241.15 1000.82,-263.64"/>
<polygon fill="saddlebrown" stroke="saddlebrown" points="999.98,-267.04 1010.47,-265.59 1001.36,-260.18 999.98,-267.04"/>
</a>
</g>
</g>
<!-- github.com/guild&#45;framework/guild&#45;core/pkg/telemetry.createOTLPTraceExporter -->
<g id="node3" class="node">
<title>github.com/guild&#45;framework/guild&#45;core/pkg/telemetry.createOTLPTraceExporter</title>
<g id="a_node3"><a xlink:title="github.com/guild&#45;framework/guild&#45;core/pkg/telemetry.createOTLPTraceExporter | defined in exporters.go:182&#10;at exporters.go:189: calling [github.com/guild&#45;framework/guild&#45;core/pkg/gerror.Wrap]">
<path fill="lightblue" stroke="black" stroke-width="0.5" d="M901.28,-316C901.28,-316 726.74,-316 726.74,-316 720.74,-316 714.74,-310 714.74,-304 714.74,-304 714.74,-292 714.74,-292 714.74,-286 720.74,-280 726.74,-280 726.74,-280 901.28,-280 901.28,-280 907.28,-280 913.28,-286 913.28,-292 913.28,-292 913.28,-304 913.28,-304 913.28,-310 907.28,-316 901.28,-316"/>
<text xml:space="preserve" text-anchor="middle" x="814.01" y="-293.32" font-family="Verdana" font-size="14.00">createOTLPTraceExporter</text>
</a>
</g>
</g>
<!-- github.com/guild&#45;framework/guild&#45;core/pkg/telemetry.createOTLPTraceExporter&#45;&gt;github.com/guild&#45;framework/guild&#45;core/pkg/gerror.Wrap -->
<g id="edge10" class="edge">
<title>github.com/guild&#45;framework/guild&#45;core/pkg/telemetry.createOTLPTraceExporter&#45;&gt;github.com/guild&#45;framework/guild&#45;core/pkg/gerror.Wrap</title>
<g id="a_edge10"><a xlink:title="at exporters.go:189: calling [github.com/guild&#45;framework/guild&#45;core/pkg/gerror.Wrap]">
<path fill="none" stroke="saddlebrown" d="M913.34,-286.71C944,-283.19 976.15,-279.5 1000.57,-276.69"/>
<polygon fill="saddlebrown" stroke="saddlebrown" points="1000.86,-280.18 1010.39,-275.56 1000.06,-273.23 1000.86,-280.18"/>
</a>
</g>
</g>
<!-- github.com/guild&#45;framework/guild&#45;core/pkg/telemetry.setupTraceProvider&#45;&gt;github.com/guild&#45;framework/guild&#45;core/pkg/telemetry.createOTLPTraceExporter -->
<g id="edge11" class="edge">
<title>github.com/guild&#45;framework/guild&#45;core/pkg/telemetry.setupTraceProvider&#45;&gt;github.com/guild&#45;framework/guild&#45;core/pkg/telemetry.createOTLPTraceExporter</title>
<g id="a_edge11"><a xlink:title="at exporters.go:94: calling [github.com/guild&#45;framework/guild&#45;core/pkg/telemetry.createOTLPTraceExporter]&#10;at exporters.go:97: calling [github.com/guild&#45;framework/guild&#45;core/pkg/telemetry.createOTLPTraceExporter]">
<path fill="none" stroke="black" d="M636.49,-298C657.59,-298 680.86,-298 703.37,-298"/>
<polygon fill="black" stroke="black" points="703.19,-301.5 713.19,-298 703.19,-294.5 703.19,-301.5"/>
</a>
</g>
</g>
<!-- github.com/guild&#45;framework/guild&#45;core/pkg/telemetry.setupTraceProvider&#45;&gt;github.com/guild&#45;framework/guild&#45;core/pkg/gerror.Wrap -->
<g id="edge3" class="edge">
<title>github.com/guild&#45;framework/guild&#45;core/pkg/telemetry.setupTraceProvider&#45;&gt;github.com/guild&#45;framework/guild&#45;core/pkg/gerror.Wrap</title>
<g id="a_edge3"><a xlink:title="at exporters.go:101: calling [github.com/guild&#45;framework/guild&#45;core/pkg/gerror.Wrap]">
<path fill="none" stroke="saddlebrown" d="M636.39,-279.8C660.51,-274.96 687.29,-270.41 712.12,-268 802.27,-259.26 825.35,-266.56 915.91,-268 944.2,-268.45 976.06,-269.47 1000.6,-270.37"/>
<polygon fill="saddlebrown" stroke="saddlebrown" points="1000.38,-273.86 1010.5,-270.74 1000.64,-266.87 1000.38,-273.86"/>
</a>
</g>
</g>
<!-- github.com/guild&#45;framework/guild&#45;core/pkg/telemetry.setupMetricProvider$1 -->
<g id="node6" class="node">
<title>github.com/guild&#45;framework/guild&#45;core/pkg/telemetry.setupMetricProvider$1</title>
<g id="a_node6"><a xlink:title="github.com/guild&#45;framework/guild&#45;core/pkg/telemetry.setupMetricProvider$1 | defined in exporters.go:136">
<polygon fill="lightblue" stroke="black" stroke-dasharray="1,5" points="904.28,-52 723.74,-52 723.74,-16 904.28,-16 904.28,-52"/>
<text xml:space="preserve" text-anchor="middle" x="814.01" y="-29.32" font-family="Verdana" font-size="14.00">setupMetricProvider$1</text>
</a>
</g>
</g>
<!-- github.com/guild&#45;framework/guild&#45;core/pkg/telemetry.setupMetricProvider&#45;&gt;github.com/guild&#45;framework/guild&#45;core/pkg/telemetry.setupMetricProvider$1 -->
<g id="edge21" class="edge">
<title>github.com/guild&#45;framework/guild&#45;core/pkg/telemetry.setupMetricProvider&#45;&gt;github.com/guild&#45;framework/guild&#45;core/pkg/telemetry.setupMetricProvider$1</title>
<g id="a_edge21"><a xlink:title="at exporters.go:136: calling [github.com/guild&#45;framework/guild&#45;core/pkg/telemetry.setupMetricProvider$1]">
<path fill="none" stroke="black" d="M587.63,-130.91C617.79,-112.51 666.98,-84.07 712.12,-65 715.41,-63.61 718.79,-62.25 722.21,-60.93"/>
<polygon fill="black" stroke="black" points="736.43,-59.6 744.69,-52.96 734.09,-53 736.43,-59.6"/>
<polyline fill="none" stroke="black" points="734.79,-56.47 730.08,-58.14"/>
<ellipse fill="none" stroke="black" cx="725.84" cy="-59.64" rx="4" ry="4"/>
</a>
</g>
</g>
<!-- github.com/guild&#45;framework/guild&#45;core/pkg/telemetry.createOTLPMetricExporter -->
<g id="node7" class="node">
<title>github.com/guild&#45;framework/guild&#45;core/pkg/telemetry.createOTLPMetricExporter</title>
<g id="a_node7"><a xlink:title="github.com/guild&#45;framework/guild&#45;core/pkg/telemetry.createOTLPMetricExporter | defined in exporters.go:199&#10;at exporters.go:206: calling [github.com/guild&#45;framework/guild&#45;core/pkg/gerror.Wrap]">
<path fill="lightblue" stroke="black" stroke-width="0.5" d="M903.91,-174C903.91,-174 724.12,-174 724.12,-174 718.12,-174 712.12,-168 712.12,-162 712.12,-162 712.12,-150 712.12,-150 712.12,-144 718.12,-138 724.12,-138 724.12,-138 903.91,-138 903.91,-138 909.91,-138 915.91,-144 915.91,-150 915.91,-150 915.91,-162 915.91,-162 915.91,-168 909.91,-174 903.91,-174"/>
<text xml:space="preserve" text-anchor="middle" x="814.01" y="-151.32" font-family="Verdana" font-size="14.00">createOTLPMetricExporter</text>
</a>
</g>
</g>
<!-- github.com/guild&#45;framework/guild&#45;core/pkg/telemetry.setupMetricProvider&#45;&gt;github.com/guild&#45;framework/guild&#45;core/pkg/telemetry.createOTLPMetricExporter -->
<g id="edge22" class="edge">
<title>github.com/guild&#45;framework/guild&#45;core/pkg/telemetry.setupMetricProvider&#45;&gt;github.com/guild&#45;framework/guild&#45;core/pkg/telemetry.createOTLPMetricExporter</title>
<g id="a_edge22"><a xlink:title="at exporters.go:153: calling [github.com/guild&#45;framework/guild&#45;core/pkg/telemetry.createOTLPMetricExporter]">
<path fill="none" stroke="black" d="M639.27,-151.21C658.78,-151.75 680,-152.34 700.68,-152.91"/>
<polygon fill="black" stroke="black" points="700.5,-156.4 710.59,-153.18 700.69,-149.41 700.5,-156.4"/>
</a>
</g>
</g>
<!-- github.com/guild&#45;framework/guild&#45;core/pkg/telemetry.setupMetricProvider&#45;&gt;github.com/guild&#45;framework/guild&#45;core/pkg/gerror.Wrap -->
<g id="edge20" class="edge">
<title>github.com/guild&#45;framework/guild&#45;core/pkg/telemetry.setupMetricProvider&#45;&gt;github.com/guild&#45;framework/guild&#45;core/pkg/gerror.Wrap</title>
<g id="a_edge20"><a xlink:title="at exporters.go:131: calling [github.com/guild&#45;framework/guild&#45;core/pkg/gerror.Wrap]&#10;at exporters.go:155: calling [github.com/guild&#45;framework/guild&#45;core/pkg/gerror.Wrap]">
<path fill="none" stroke="saddlebrown" d="M625.65,-167.21C652.4,-174.07 683.58,-181.52 712.12,-187 818.2,-207.36 854.08,-176.4 952.91,-220 971.97,-228.41 971.11,-239.19 988.91,-250 992.95,-252.45 997.31,-254.76 1001.74,-256.88"/>
<polygon fill="saddlebrown" stroke="saddlebrown" points="1000.11,-259.99 1010.67,-260.88 1002.97,-253.6 1000.11,-259.99"/>
</a>
</g>
</g>
<!-- github.com/guild&#45;framework/guild&#45;core/pkg/telemetry.createOTLPMetricExporter&#45;&gt;github.com/guild&#45;framework/guild&#45;core/pkg/gerror.Wrap -->
<g id="edge5" class="edge">
<title>github.com/guild&#45;framework/guild&#45;core/pkg/telemetry.createOTLPMetricExporter&#45;&gt;github.com/guild&#45;framework/guild&#45;core/pkg/gerror.Wrap</title>
<g id="a_edge5"><a xlink:title="at exporters.go:206: calling [github.com/guild&#45;framework/guild&#45;core/pkg/gerror.Wrap]">
<path fill="none" stroke="saddlebrown" d="M915.89,-173.52C929.08,-178.48 941.83,-184.84 952.91,-193 977.04,-210.77 966.03,-230.65 988.91,-250 992.75,-253.25 997.14,-256.07 1001.7,-258.52"/>
<polygon fill="saddlebrown" stroke="saddlebrown" points="999.93,-261.55 1010.47,-262.63 1002.9,-255.21 999.93,-261.55"/>
</a>
</g>
</g>
<!-- github.com/guild&#45;framework/guild&#45;core/pkg/telemetry.TracedError -->
<g id="node8" class="node">
<title>github.com/guild&#45;framework/guild&#45;core/pkg/telemetry.TracedError</title>
<g id="a_node8"><a xlink:title="github.com/guild&#45;framework/guild&#45;core/pkg/telemetry.TracedError | defined in tracing.go:131&#10;at tracing.go:135: calling [github.com/guild&#45;framework/guild&#45;core/pkg/telemetry.RecordError]&#10;at tracing.go:136: calling [github.com/guild&#45;framework/guild&#45;core/pkg/gerror.Wrap]">
<path fill="lightblue" stroke="black" stroke-width="1.5" d="M854.41,-113C854.41,-113 773.62,-113 773.62,-113 767.62,-113 761.62,-107 761.62,-101 761.62,-101 761.62,-89 761.62,-89 761.62,-83 767.62,-77 773.62,-77 773.62,-77 854.41,-77 854.41,-77 860.41,-77 866.41,-83 866.41,-89 866.41,-89 866.41,-101 866.41,-101 866.41,-107 860.41,-113 854.41,-113"/>
<text xml:space="preserve" text-anchor="middle" x="814.01" y="-90.33" font-family="Verdana" font-size="14.00">TracedError</text>
</a>
</g>
</g>
<!-- github.com/guild&#45;framework/guild&#45;core/pkg/telemetry.RecordError -->
<g id="node9" class="node">
<title>github.com/guild&#45;framework/guild&#45;core/pkg/telemetry.RecordError</title>
<g id="a_node9"><a xlink:title="github.com/guild&#45;framework/guild&#45;core/pkg/telemetry.RecordError | defined in tracing.go:122">
<path fill="lightblue" stroke="black" stroke-width="1.5" d="M1083.95,-113C1083.95,-113 1000.91,-113 1000.91,-113 994.91,-113 988.91,-107 988.91,-101 988.91,-101 988.91,-89 988.91,-89 988.91,-83 994.91,-77 1000.91,-77 1000.91,-77 1083.95,-77 1083.95,-77 1089.95,-77 1095.95,-83 1095.95,-89 1095.95,-89 1095.95,-101 1095.95,-101 1095.95,-107 1089.95,-113 1083.95,-113"/>
<text xml:space="preserve" text-anchor="middle" x="1042.43" y="-90.33" font-family="Verdana" font-size="14.00">RecordError</text>
</a>
</g>
</g>
<!-- github.com/guild&#45;framework/guild&#45;core/pkg/telemetry.TracedError&#45;&gt;github.com/guild&#45;framework/guild&#45;core/pkg/telemetry.RecordError -->
<g id="edge7" class="edge">
<title>github.com/guild&#45;framework/guild&#45;core/pkg/telemetry.TracedError&#45;&gt;github.com/guild&#45;framework/guild&#45;core/pkg/telemetry.RecordError</title>
<g id="a_edge7"><a xlink:title="at tracing.go:135: calling [github.com/guild&#45;framework/guild&#45;core/pkg/telemetry.RecordError]">
<path fill="none" stroke="black" d="M866.96,-95C899.69,-95 942.19,-95 977.05,-95"/>
<polygon fill="black" stroke="black" points="977.04,-98.5 987.04,-95 977.04,-91.5 977.04,-98.5"/>
</a>
</g>
</g>
<!-- github.com/guild&#45;framework/guild&#45;core/pkg/telemetry.TracedError&#45;&gt;github.com/guild&#45;framework/guild&#45;core/pkg/gerror.Wrap -->
<g id="edge15" class="edge">
<title>github.com/guild&#45;framework/guild&#45;core/pkg/telemetry.TracedError&#45;&gt;github.com/guild&#45;framework/guild&#45;core/pkg/gerror.Wrap</title>
<g id="a_edge15"><a xlink:title="at tracing.go:136: calling [github.com/guild&#45;framework/guild&#45;core/pkg/gerror.Wrap]">
<path fill="none" stroke="saddlebrown" d="M866.94,-103.31C883.82,-107.91 901.82,-115.02 915.91,-126 966.36,-165.3 941.01,-207.63 988.91,-250 992.72,-253.37 997.12,-256.27 1001.72,-258.76"/>
<polygon fill="saddlebrown" stroke="saddlebrown" points="1000.04,-261.84 1010.58,-262.93 1003.02,-255.51 1000.04,-261.84"/>
</a>
</g>
</g>
<!-- github.com/guild&#45;framework/guild&#45;core/pkg/telemetry.New -->
<g id="node10" class="node">
<title>github.com/guild&#45;framework/guild&#45;core/pkg/telemetry.New</title>
<g id="a_node10"><a xlink:title="github.com/guild&#45;framework/guild&#45;core/pkg/telemetry.New | defined in metrics.go:71&#10;at metrics.go:79: calling [github.com/guild&#45;framework/guild&#45;core/pkg/gerror.Wrap]&#10;at metrics.go:96: calling [github.com/guild&#45;framework/guild&#45;core/pkg/gerror.Wrap]&#10;at metrics.go:103: calling [github.com/guild&#45;framework/guild&#45;core/pkg/gerror.Wrap]&#10;at metrics.go:93: calling [(*github.com/guild&#45;framework/guild&#45;core/pkg/telemetry.Telemetry).initializeMetrics]&#10;at metrics.go:100: calling [github.com/guild&#45;framework/guild&#45;core/pkg/telemetry/collectors.NewSystemCollector]&#10;at metrics.go:73: calling [github.com/guild&#45;framework/guild&#45;core/pkg/gerror.New]&#10;at metrics.go:77: calling [github.com/guild&#45;framework/guild&#45;core/pkg/telemetry.setupOTelProviders]&#10;at metrics.go:101: calling [(*github.com/guild&#45;framework/guild&#45;core/pkg/telemetry/collectors.SystemCollector).Register]">
<path fill="lightblue" stroke="black" stroke-width="1.5" d="M75.52,-309C75.52,-309 45.52,-309 45.52,-309 39.52,-309 33.52,-303 33.52,-297 33.52,-297 33.52,-285 33.52,-285 33.52,-279 39.52,-273 45.52,-273 45.52,-273 75.52,-273 75.52,-273 81.52,-273 87.52,-279 87.52,-285 87.52,-285 87.52,-297 87.52,-297 87.52,-303 81.52,-309 75.52,-309"/>
<text xml:space="preserve" text-anchor="middle" x="60.52" y="-286.32" font-family="Verdana" font-size="14.00">New</text>
</a>
</g>
</g>
<!-- github.com/guild&#45;framework/guild&#45;core/pkg/telemetry.New&#45;&gt;github.com/guild&#45;framework/guild&#45;core/pkg/telemetry.setupOTelProviders -->
<g id="edge17" class="edge">
<title>github.com/guild&#45;framework/guild&#45;core/pkg/telemetry.New&#45;&gt;github.com/guild&#45;framework/guild&#45;core/pkg/telemetry.setupOTelProviders</title>
<g id="a_edge17"><a xlink:title="at metrics.go:77: calling [github.com/guild&#45;framework/guild&#45;core/pkg/telemetry.setupOTelProviders]">
<path fill="none" stroke="black" d="M88.15,-287.85C115.84,-284.58 160.69,-279.27 201.07,-274.5"/>
<polygon fill="black" stroke="black" points="201.3,-277.99 210.81,-273.34 200.47,-271.04 201.3,-277.99"/>
</a>
</g>
</g>
<!-- (*github.com/guild&#45;framework/guild&#45;core/pkg/telemetry.Telemetry).initializeMetrics -->
<g id="node11" class="node">
<title>(*github.com/guild&#45;framework/guild&#45;core/pkg/telemetry.Telemetry).initializeMetrics</title>
<g id="a_node11"><a xlink:title="(*github.com/guild&#45;framework/guild&#45;core/pkg/telemetry.Telemetry).initializeMetrics | defined in metrics.go:110&#10;at metrics.go:120: calling [github.com/guild&#45;framework/guild&#45;core/pkg/gerror.Wrap]&#10;at metrics.go:128: calling [github.com/guild&#45;framework/guild&#45;core/pkg/gerror.Wrap]&#10;at metrics.go:136: calling [github.com/guild&#45;framework/guild&#45;core/pkg/gerror.Wrap]&#10;at metrics.go:145: calling [github.com/guild&#45;framework/guild&#45;core/pkg/gerror.Wrap]&#10;at metrics.go:153: calling [github.com/guild&#45;framework/guild&#45;core/pkg/gerror.Wrap]&#10;at metrics.go:161: calling [github.com/guild&#45;framework/guild&#45;core/pkg/gerror.Wrap]&#10;at metrics.go:169: calling [github.com/guild&#45;framework/guild&#45;core/pkg/gerror.Wrap]">
<path fill="lightblue" stroke="black" stroke-width="0.5" d="M391.58,-370C391.58,-370 190.04,-370 190.04,-370 184.04,-370 178.04,-364 178.04,-358 178.04,-358 178.04,-346 178.04,-346 178.04,-340 184.04,-334 190.04,-334 190.04,-334 391.58,-334 391.58,-334 397.58,-334 403.58,-340 403.58,-346 403.58,-346 403.58,-358 403.58,-358 403.58,-364 397.58,-370 391.58,-370"/>
<text xml:space="preserve" text-anchor="middle" x="290.81" y="-347.32" font-family="Verdana" font-size="14.00">(*Telemetry).initializeMetrics</text>
</a>
</g>
</g>
<!-- github.com/guild&#45;framework/guild&#45;core/pkg/telemetry.New&#45;&gt;(*github.com/guild&#45;framework/guild&#45;core/pkg/telemetry.Telemetry).initializeMetrics -->
<g id="edge13" class="edge">
<title>github.com/guild&#45;framework/guild&#45;core/pkg/telemetry.New&#45;&gt;(*github.com/guild&#45;framework/guild&#45;core/pkg/telemetry.Telemetry).initializeMetrics</title>
<g id="a_edge13"><a xlink:title="at metrics.go:93: calling [(*github.com/guild&#45;framework/guild&#45;core/pkg/telemetry.Telemetry).initializeMetrics]">
<path fill="none" stroke="black" d="M87.93,-299.33C103.36,-304.1 123.24,-310.1 141.04,-315 160.85,-320.45 182.24,-325.98 202.46,-331.04"/>
<polygon fill="black" stroke="black" points="201.54,-334.42 212.09,-333.44 203.23,-327.62 201.54,-334.42"/>
</a>
</g>
</g>
<!-- github.com/guild&#45;framework/guild&#45;core/pkg/telemetry.New&#45;&gt;github.com/guild&#45;framework/guild&#45;core/pkg/gerror.Wrap -->
<g id="edge1" class="edge">
<title>github.com/guild&#45;framework/guild&#45;core/pkg/telemetry.New&#45;&gt;github.com/guild&#45;framework/guild&#45;core/pkg/gerror.Wrap</title>
<g id="a_edge1"><a xlink:title="at metrics.go:79: calling [github.com/guild&#45;framework/guild&#45;core/pkg/gerror.Wrap]&#10;at metrics.go:96: calling [github.com/guild&#45;framework/guild&#45;core/pkg/gerror.Wrap]&#10;at metrics.go:103: calling [github.com/guild&#45;framework/guild&#45;core/pkg/gerror.Wrap]">
<path fill="none" stroke="saddlebrown" d="M88.12,-293.24C146.32,-298.18 289.3,-310.47 408.95,-322 439.03,-324.9 446.47,-326.46 476.58,-329 564.7,-336.44 586.69,-342 675.12,-342 675.12,-342 675.12,-342 815.01,-342 860.23,-342 872.42,-341.37 915.91,-329 945.79,-320.5 977.63,-305.97 1001.77,-293.7"/>
<polygon fill="saddlebrown" stroke="saddlebrown" points="1003.34,-296.84 1010.61,-289.13 1000.12,-290.62 1003.34,-296.84"/>
</a>
</g>
</g>
<!-- github.com/guild&#45;framework/guild&#45;core/pkg/gerror.New -->
<g id="node15" class="node">
<title>github.com/guild&#45;framework/guild&#45;core/pkg/gerror.New</title>
<g id="a_node15"><a xlink:title="github.com/guild&#45;framework/guild&#45;core/pkg/gerror.New | defined in errors.go:190">
<path fill="moccasin" stroke="black" stroke-width="1.5" d="M1057.43,-351C1057.43,-351 1027.43,-351 1027.43,-351 1021.43,-351 1015.43,-345 1015.43,-339 1015.43,-339 1015.43,-327 1015.43,-327 1015.43,-321 1021.43,-315 1027.43,-315 1027.43,-315 1057.43,-315 1057.43,-315 1063.43,-315 1069.43,-321 1069.43,-327 1069.43,-327 1069.43,-339 1069.43,-339 1069.43,-345 1063.43,-351 1057.43,-351"/>
<text xml:space="preserve" text-anchor="middle" x="1042.43" y="-328.32" font-family="Verdana" font-size="14.00">New</text>
</a>
</g>
</g>
<!-- github.com/guild&#45;framework/guild&#45;core/pkg/telemetry.New&#45;&gt;github.com/guild&#45;framework/guild&#45;core/pkg/gerror.New -->
<g id="edge16" class="edge">
<title>github.com/guild&#45;framework/guild&#45;core/pkg/telemetry.New&#45;&gt;github.com/guild&#45;framework/guild&#45;core/pkg/gerror.New</title>
<g id="a_edge16"><a xlink:title="at metrics.go:73: calling [github.com/guild&#45;framework/guild&#45;core/pkg/gerror.New]">
<path fill="none" stroke="saddlebrown" d="M77.45,-309.54C97.31,-331.26 133.46,-366.38 172.66,-383 220.89,-403.45 237.43,-396 289.81,-396 289.81,-396 289.81,-396 815.01,-396 883.85,-396 960.29,-368.64 1004.41,-349.98"/>
<polygon fill="saddlebrown" stroke="saddlebrown" points="1005.73,-353.23 1013.52,-346.05 1002.95,-346.8 1005.73,-353.23"/>
</a>
</g>
</g>
<!-- github.com/guild&#45;framework/guild&#45;core/pkg/telemetry/collectors.NewSystemCollector -->
<g id="node16" class="node">
<title>github.com/guild&#45;framework/guild&#45;core/pkg/telemetry/collectors.NewSystemCollector</title>
<g id="a_node16"><a xlink:title="github.com/guild&#45;framework/guild&#45;core/pkg/telemetry/collectors.NewSystemCollector | defined in system.go:31">
<path fill="moccasin" stroke="black" stroke-width="1.5" d="M361.95,-141C361.95,-141 219.66,-141 219.66,-141 213.66,-141 207.66,-135 207.66,-129 207.66,-129 207.66,-117 207.66,-117 207.66,-111 213.66,-105 219.66,-105 219.66,-105 361.95,-105 361.95,-105 367.95,-105 373.95,-111 373.95,-117 373.95,-117 373.95,-129 373.95,-129 373.95,-135 367.95,-141 361.95,-141"/>
<text xml:space="preserve" text-anchor="middle" x="290.81" y="-118.33" font-family="Verdana" font-size="14.00">NewSystemCollector</text>
</a>
</g>
</g>
<!-- github.com/guild&#45;framework/guild&#45;core/pkg/telemetry.New&#45;&gt;github.com/guild&#45;framework/guild&#45;core/pkg/telemetry/collectors.NewSystemCollector -->
<g id="edge14" class="edge">
<title>github.com/guild&#45;framework/guild&#45;core/pkg/telemetry.New&#45;&gt;github.com/guild&#45;framework/guild&#45;core/pkg/telemetry/collectors.NewSystemCollector</title>
<g id="a_edge14"><a xlink:title="at metrics.go:100: calling [github.com/guild&#45;framework/guild&#45;core/pkg/telemetry/collectors.NewSystemCollector]">
<path fill="none" stroke="saddlebrown" d="M71.45,-272.33C88.23,-242.61 125.08,-184.76 172.66,-154 179.99,-149.26 188.02,-145.24 196.33,-141.84"/>
<polygon fill="saddlebrown" stroke="saddlebrown" points="197.43,-145.17 205.56,-138.38 194.97,-138.61 197.43,-145.17"/>
</a>
</g>
</g>
<!-- (*github.com/guild&#45;framework/guild&#45;core/pkg/telemetry/collectors.SystemCollector).Register -->
<g id="node17" class="node">
<title>(*github.com/guild&#45;framework/guild&#45;core/pkg/telemetry/collectors.SystemCollector).Register</title>
<g id="a_node17"><a xlink:title="(*github.com/guild&#45;framework/guild&#45;core/pkg/telemetry/collectors.SystemCollector).Register | defined in system.go:36">
<path fill="moccasin" stroke="black" stroke-width="1.5" d="M388.95,-202C388.95,-202 192.66,-202 192.66,-202 186.66,-202 180.66,-196 180.66,-190 180.66,-190 180.66,-178 180.66,-178 180.66,-172 186.66,-166 192.66,-166 192.66,-166 388.95,-166 388.95,-166 394.95,-166 400.95,-172 400.95,-178 400.95,-178 400.95,-190 400.95,-190 400.95,-196 394.95,-202 388.95,-202"/>
<text xml:space="preserve" text-anchor="middle" x="290.81" y="-179.32" font-family="Verdana" font-size="14.00">(*SystemCollector).Register</text>
</a>
</g>
</g>
<!-- github.com/guild&#45;framework/guild&#45;core/pkg/telemetry.New&#45;&gt;(*github.com/guild&#45;framework/guild&#45;core/pkg/telemetry/collectors.SystemCollector).Register -->
<g id="edge19" class="edge">
<title>github.com/guild&#45;framework/guild&#45;core/pkg/telemetry.New&#45;&gt;(*github.com/guild&#45;framework/guild&#45;core/pkg/telemetry/collectors.SystemCollector).Register</title>
<g id="a_edge19"><a xlink:title="at metrics.go:101: calling [(*github.com/guild&#45;framework/guild&#45;core/pkg/telemetry/collectors.SystemCollector).Register]">
<path fill="none" stroke="saddlebrown" d="M79.79,-272.6C98.85,-254.45 130.58,-227.03 170.46,-207.45"/>
<polygon fill="saddlebrown" stroke="saddlebrown" points="171.81,-210.68 179.4,-203.29 168.86,-204.33 171.81,-210.68"/>
</a>
</g>
</g>
<!-- (*github.com/guild&#45;framework/guild&#45;core/pkg/telemetry.Telemetry).initializeMetrics&#45;&gt;github.com/guild&#45;framework/guild&#45;core/pkg/gerror.Wrap -->
<g id="edge18" class="edge">
<title>(*github.com/guild&#45;framework/guild&#45;core/pkg/telemetry.Telemetry).initializeMetrics&#45;&gt;github.com/guild&#45;framework/guild&#45;core/pkg/gerror.Wrap</title>
<g id="a_edge18"><a xlink:title="at metrics.go:120: calling [github.com/guild&#45;framework/guild&#45;core/pkg/gerror.Wrap]&#10;at metrics.go:128: calling [github.com/guild&#45;framework/guild&#45;core/pkg/gerror.Wrap]&#10;at metrics.go:136: calling [github.com/guild&#45;framework/guild&#45;core/pkg/gerror.Wrap]&#10;at metrics.go:145: calling [github.com/guild&#45;framework/guild&#45;core/pkg/gerror.Wrap]&#10;at metrics.go:153: calling [github.com/guild&#45;framework/guild&#45;core/pkg/gerror.Wrap]&#10;at metrics.go:161: calling [github.com/guild&#45;framework/guild&#45;core/pkg/gerror.Wrap]&#10;at metrics.go:169: calling [github.com/guild&#45;framework/guild&#45;core/pkg/gerror.Wrap]">
<path fill="none" stroke="saddlebrown" d="M403.58,-362.35C450.83,-365.9 506.48,-369 556.85,-369 556.85,-369 556.85,-369 815.01,-369 876.94,-369 899.33,-380.06 952.91,-349 975.37,-335.98 969.39,-320.12 988.91,-303 993.02,-299.39 997.61,-295.98 1002.32,-292.83"/>
<polygon fill="saddlebrown" stroke="saddlebrown" points="1004.13,-295.82 1010.76,-287.55 1000.42,-289.89 1004.13,-295.82"/>
</a>
</g>
</g>
<!-- (github.com/guild&#45;framework/guild&#45;core/pkg/telemetry.Config).Validate -->
<g id="node12" class="node">
<title>(github.com/guild&#45;framework/guild&#45;core/pkg/telemetry.Config).Validate</title>
<g id="a_node12"><a xlink:title="(github.com/guild&#45;framework/guild&#45;core/pkg/telemetry.Config).Validate | defined in metrics.go:49&#10;at metrics.go:51: calling [github.com/guild&#45;framework/guild&#45;core/pkg/gerror.New]&#10;at metrics.go:54: calling [github.com/guild&#45;framework/guild&#45;core/pkg/gerror.New]">
<path fill="lightblue" stroke="black" stroke-width="1.5" d="M872.41,-458C872.41,-458 755.62,-458 755.62,-458 749.62,-458 743.62,-452 743.62,-446 743.62,-446 743.62,-434 743.62,-434 743.62,-428 749.62,-422 755.62,-422 755.62,-422 872.41,-422 872.41,-422 878.41,-422 884.41,-428 884.41,-434 884.41,-434 884.41,-446 884.41,-446 884.41,-452 878.41,-458 872.41,-458"/>
<text xml:space="preserve" text-anchor="middle" x="814.01" y="-435.32" font-family="Verdana" font-size="14.00">(Config).Validate</text>
</a>
</g>
</g>
<!-- (github.com/guild&#45;framework/guild&#45;core/pkg/telemetry.Config).Validate&#45;&gt;github.com/guild&#45;framework/guild&#45;core/pkg/gerror.New -->
<g id="edge6" class="edge">
<title>(github.com/guild&#45;framework/guild&#45;core/pkg/telemetry.Config).Validate&#45;&gt;github.com/guild&#45;framework/guild&#45;core/pkg/gerror.New</title>
<g id="a_edge6"><a xlink:title="at metrics.go:51: calling [github.com/guild&#45;framework/guild&#45;core/pkg/gerror.New]&#10;at metrics.go:54: calling [github.com/guild&#45;framework/guild&#45;core/pkg/gerror.New]">
<path fill="none" stroke="saddlebrown" d="M885.07,-427.05C907.46,-421.39 931.87,-413.57 952.91,-403 975.57,-391.61 997.95,-373.85 1014.53,-359.06"/>
<polygon fill="saddlebrown" stroke="saddlebrown" points="1016.5,-362 1021.53,-352.67 1011.78,-356.83 1016.5,-362"/>
</a>
</g>
</g>
<!-- github.com/guild&#45;framework/guild&#45;core/pkg/telemetry.NewNoop -->
<g id="node13" class="node">
<title>github.com/guild&#45;framework/guild&#45;core/pkg/telemetry.NewNoop</title>
<g id="a_node13"><a xlink:title="github.com/guild&#45;framework/guild&#45;core/pkg/telemetry.NewNoop | defined in exporters.go:221&#10;at exporters.go:235: calling [(*github.com/guild&#45;framework/guild&#45;core/pkg/telemetry.Telemetry).initializeMetrics]">
<path fill="lightblue" stroke="black" stroke-width="1.5" d="M93.04,-441C93.04,-441 28,-441 28,-441 22,-441 16,-435 16,-429 16,-429 16,-417 16,-417 16,-411 22,-405 28,-405 28,-405 93.04,-405 93.04,-405 99.04,-405 105.04,-411 105.04,-417 105.04,-417 105.04,-429 105.04,-429 105.04,-435 99.04,-441 93.04,-441"/>
<text xml:space="preserve" text-anchor="middle" x="60.52" y="-418.32" font-family="Verdana" font-size="14.00">NewNoop</text>
</a>
</g>
</g>
<!-- github.com/guild&#45;framework/guild&#45;core/pkg/telemetry.NewNoop&#45;&gt;(*github.com/guild&#45;framework/guild&#45;core/pkg/telemetry.Telemetry).initializeMetrics -->
<g id="edge2" class="edge">
<title>github.com/guild&#45;framework/guild&#45;core/pkg/telemetry.NewNoop&#45;&gt;(*github.com/guild&#45;framework/guild&#45;core/pkg/telemetry.Telemetry).initializeMetrics</title>
<g id="a_edge2"><a xlink:title="at exporters.go:235: calling [(*github.com/guild&#45;framework/guild&#45;core/pkg/telemetry.Telemetry).initializeMetrics]">
<path fill="none" stroke="black" d="M105.54,-409.31C138.08,-399.19 183.05,-385.2 220.42,-373.58"/>
<polygon fill="black" stroke="black" points="221.29,-376.98 229.8,-370.66 219.21,-370.29 221.29,-376.98"/>
</a>
</g>
</g>
</g>
</svg>
