<?xml version="1.0" encoding="UTF-8" standalone="no"?>
<!DOCTYPE svg PUBLIC "-//W3C//DTD SVG 1.1//EN"
 "http://www.w3.org/Graphics/SVG/1.1/DTD/svg11.dtd">
<!-- Generated by graphviz version 14.1.1 (20251213.1925)
 -->
<!-- Title: gocallvis Pages: 1 -->
<svg width="746pt" height="361pt"
 viewBox="0.00 0.00 746.00 361.00" xmlns="http://www.w3.org/2000/svg" xmlns:xlink="http://www.w3.org/1999/xlink">
<g id="graph0" class="graph" transform="scale(1 1) rotate(0) translate(0 361)">
<title>gocallvis</title>
<polygon fill="lightgray" stroke="none" points="0,0 0,-361 746.37,-361 746.37,0 0,0"/>
<g id="clust1" class="cluster">
<title>cluster_focus</title>
<polygon fill="#e6ecfa" stroke="black" stroke-width="0.5" points="8,-8 8,-353 738.37,-353 738.37,-8 8,-8"/>
<text xml:space="preserve" text-anchor="middle" x="373.19" y="-331.9" font-family="Arial" font-size="18.00">collectors</text>
</g>
<g id="clust2" class="cluster">
<title>cluster_github.com/guild&#45;framework/guild&#45;core/pkg/gerror</title>
<g id="a_clust2"><a xlink:href="/?f=github.com/guild-framework/guild-core/pkg/gerror" xlink:title="package: github.com/guild&#45;framework/guild&#45;core/pkg/gerror">
<polygon fill="lightyellow" stroke="black" stroke-width="0.8" points="654.58,-140 654.58,-220 730.37,-220 730.37,-140 654.58,-140"/>
<text xml:space="preserve" text-anchor="middle" x="692.48" y="-200.8" font-family="Tahoma bold" font-size="16.00">gerror</text>
</a>
</g>
</g>
<!-- (*github.com/guild&#45;framework/guild&#45;core/pkg/telemetry/collectors.AgentCollector).initializeMetrics -->
<g id="node1" class="node">
<title>(*github.com/guild&#45;framework/guild&#45;core/pkg/telemetry/collectors.AgentCollector).initializeMetrics</title>
<g id="a_node1"><a xlink:title="(*github.com/guild&#45;framework/guild&#45;core/pkg/telemetry/collectors.AgentCollector).initializeMetrics | defined in agent.go:36&#10;at agent.go:45: calling [github.com/guild&#45;framework/guild&#45;core/pkg/gerror.Wrap]&#10;at agent.go:53: calling [github.com/guild&#45;framework/guild&#45;core/pkg/gerror.Wrap]&#10;at agent.go:61: calling [github.com/guild&#45;framework/guild&#45;core/pkg/gerror.Wrap]&#10;at agent.go:69: calling [github.com/guild&#45;framework/guild&#45;core/pkg/gerror.Wrap]&#10;at agent.go:77: calling [github.com/guild&#45;framework/guild&#45;core/pkg/gerror.Wrap]&#10;at agent.go:85: calling [github.com/guild&#45;framework/guild&#45;core/pkg/gerror.Wrap]&#10;at agent.go:94: calling [github.com/guild&#45;framework/guild&#45;core/pkg/gerror.Wrap]">
<path fill="lightblue" stroke="black" stroke-width="0.5" d="M555.83,-52C555.83,-52 321.29,-52 321.29,-52 315.29,-52 309.29,-46 309.29,-40 309.29,-40 309.29,-28 309.29,-28 309.29,-22 315.29,-16 321.29,-16 321.29,-16 555.83,-16 555.83,-16 561.83,-16 567.83,-22 567.83,-28 567.83,-28 567.83,-40 567.83,-40 567.83,-46 561.83,-52 555.83,-52"/>
<text xml:space="preserve" text-anchor="middle" x="438.56" y="-29.32" font-family="Verdana" font-size="14.00">(*AgentCollector).initializeMetrics</text>
</a>
</g>
</g>
<!-- github.com/guild&#45;framework/guild&#45;core/pkg/gerror.Wrap -->
<g id="node8" class="node">
<title>github.com/guild&#45;framework/guild&#45;core/pkg/gerror.Wrap</title>
<g id="a_node8"><a xlink:title="github.com/guild&#45;framework/guild&#45;core/pkg/gerror.Wrap | defined in errors.go:223">
<path fill="moccasin" stroke="black" stroke-width="1.5" d="M710.37,-184C710.37,-184 674.58,-184 674.58,-184 668.58,-184 662.58,-178 662.58,-172 662.58,-172 662.58,-160 662.58,-160 662.58,-154 668.58,-148 674.58,-148 674.58,-148 710.37,-148 710.37,-148 716.37,-148 722.37,-154 722.37,-160 722.37,-160 722.37,-172 722.37,-172 722.37,-178 716.37,-184 710.37,-184"/>
<text xml:space="preserve" text-anchor="middle" x="692.48" y="-161.32" font-family="Verdana" font-size="14.00">Wrap</text>
</a>
</g>
</g>
<!-- (*github.com/guild&#45;framework/guild&#45;core/pkg/telemetry/collectors.AgentCollector).initializeMetrics&#45;&gt;github.com/guild&#45;framework/guild&#45;core/pkg/gerror.Wrap -->
<g id="edge8" class="edge">
<title>(*github.com/guild&#45;framework/guild&#45;core/pkg/telemetry/collectors.AgentCollector).initializeMetrics&#45;&gt;github.com/guild&#45;framework/guild&#45;core/pkg/gerror.Wrap</title>
<g id="a_edge8"><a xlink:title="at agent.go:45: calling [github.com/guild&#45;framework/guild&#45;core/pkg/gerror.Wrap]&#10;at agent.go:53: calling [github.com/guild&#45;framework/guild&#45;core/pkg/gerror.Wrap]&#10;at agent.go:61: calling [github.com/guild&#45;framework/guild&#45;core/pkg/gerror.Wrap]&#10;at agent.go:69: calling [github.com/guild&#45;framework/guild&#45;core/pkg/gerror.Wrap]&#10;at agent.go:77: calling [github.com/guild&#45;framework/guild&#45;core/pkg/gerror.Wrap]&#10;at agent.go:85: calling [github.com/guild&#45;framework/guild&#45;core/pkg/gerror.Wrap]&#10;at agent.go:94: calling [github.com/guild&#45;framework/guild&#45;core/pkg/gerror.Wrap]">
<path fill="none" stroke="saddlebrown" d="M568.01,-45.66C588.69,-51.31 609.04,-59.42 626.58,-71 650.82,-87 668.46,-115.48 679.18,-137.1"/>
<polygon fill="saddlebrown" stroke="saddlebrown" points="675.95,-138.45 683.37,-146 682.28,-135.47 675.95,-138.45"/>
</a>
</g>
</g>
<!-- (*github.com/guild&#45;framework/guild&#45;core/pkg/telemetry/collectors.ChatCollector).initializeMetrics -->
<g id="node2" class="node">
<title>(*github.com/guild&#45;framework/guild&#45;core/pkg/telemetry/collectors.ChatCollector).initializeMetrics</title>
<g id="a_node2"><a xlink:title="(*github.com/guild&#45;framework/guild&#45;core/pkg/telemetry/collectors.ChatCollector).initializeMetrics | defined in chat.go:37&#10;at chat.go:45: calling [github.com/guild&#45;framework/guild&#45;core/pkg/gerror.Wrap]&#10;at chat.go:54: calling [github.com/guild&#45;framework/guild&#45;core/pkg/gerror.Wrap]&#10;at chat.go:63: calling [github.com/guild&#45;framework/guild&#45;core/pkg/gerror.Wrap]&#10;at chat.go:71: calling [github.com/guild&#45;framework/guild&#45;core/pkg/gerror.Wrap]&#10;at chat.go:80: calling [github.com/guild&#45;framework/guild&#45;core/pkg/gerror.Wrap]&#10;at chat.go:88: calling [github.com/guild&#45;framework/guild&#45;core/pkg/gerror.Wrap]&#10;at chat.go:96: calling [github.com/guild&#45;framework/guild&#45;core/pkg/gerror.Wrap]&#10;at chat.go:104: calling [github.com/guild&#45;framework/guild&#45;core/pkg/gerror.Wrap]">
<path fill="lightblue" stroke="black" stroke-width="0.5" d="M551.33,-140C551.33,-140 325.79,-140 325.79,-140 319.79,-140 313.79,-134 313.79,-128 313.79,-128 313.79,-116 313.79,-116 313.79,-110 319.79,-104 325.79,-104 325.79,-104 551.33,-104 551.33,-104 557.33,-104 563.33,-110 563.33,-116 563.33,-116 563.33,-128 563.33,-128 563.33,-134 557.33,-140 551.33,-140"/>
<text xml:space="preserve" text-anchor="middle" x="438.56" y="-117.33" font-family="Verdana" font-size="14.00">(*ChatCollector).initializeMetrics</text>
</a>
</g>
</g>
<!-- (*github.com/guild&#45;framework/guild&#45;core/pkg/telemetry/collectors.ChatCollector).initializeMetrics&#45;&gt;github.com/guild&#45;framework/guild&#45;core/pkg/gerror.Wrap -->
<g id="edge5" class="edge">
<title>(*github.com/guild&#45;framework/guild&#45;core/pkg/telemetry/collectors.ChatCollector).initializeMetrics&#45;&gt;github.com/guild&#45;framework/guild&#45;core/pkg/gerror.Wrap</title>
<g id="a_edge5"><a xlink:title="at chat.go:45: calling [github.com/guild&#45;framework/guild&#45;core/pkg/gerror.Wrap]&#10;at chat.go:54: calling [github.com/guild&#45;framework/guild&#45;core/pkg/gerror.Wrap]&#10;at chat.go:63: calling [github.com/guild&#45;framework/guild&#45;core/pkg/gerror.Wrap]&#10;at chat.go:71: calling [github.com/guild&#45;framework/guild&#45;core/pkg/gerror.Wrap]&#10;at chat.go:80: calling [github.com/guild&#45;framework/guild&#45;core/pkg/gerror.Wrap]&#10;at chat.go:88: calling [github.com/guild&#45;framework/guild&#45;core/pkg/gerror.Wrap]&#10;at chat.go:96: calling [github.com/guild&#45;framework/guild&#45;core/pkg/gerror.Wrap]&#10;at chat.go:104: calling [github.com/guild&#45;framework/guild&#45;core/pkg/gerror.Wrap]">
<path fill="none" stroke="saddlebrown" d="M543.84,-140.21C581.44,-146.78 621.69,-153.81 650.65,-158.87"/>
<polygon fill="saddlebrown" stroke="saddlebrown" points="649.99,-162.31 660.45,-160.58 651.2,-155.41 649.99,-162.31"/>
</a>
</g>
</g>
<!-- github.com/guild&#45;framework/guild&#45;core/pkg/telemetry/collectors.NewAgentCollector -->
<g id="node3" class="node">
<title>github.com/guild&#45;framework/guild&#45;core/pkg/telemetry/collectors.NewAgentCollector</title>
<g id="a_node3"><a xlink:title="github.com/guild&#45;framework/guild&#45;core/pkg/telemetry/collectors.NewAgentCollector | defined in agent.go:25&#10;at agent.go:29: calling [github.com/guild&#45;framework/guild&#45;core/pkg/gerror.Wrap]&#10;at agent.go:28: calling [(*github.com/guild&#45;framework/guild&#45;core/pkg/telemetry/collectors.AgentCollector).initializeMetrics]">
<path fill="lightblue" stroke="black" stroke-width="1.5" d="M180.79,-74C180.79,-74 49.75,-74 49.75,-74 43.75,-74 37.75,-68 37.75,-62 37.75,-62 37.75,-50 37.75,-50 37.75,-44 43.75,-38 49.75,-38 49.75,-38 180.79,-38 180.79,-38 186.79,-38 192.79,-44 192.79,-50 192.79,-50 192.79,-62 192.79,-62 192.79,-68 186.79,-74 180.79,-74"/>
<text xml:space="preserve" text-anchor="middle" x="115.27" y="-51.33" font-family="Verdana" font-size="14.00">NewAgentCollector</text>
</a>
</g>
</g>
<!-- github.com/guild&#45;framework/guild&#45;core/pkg/telemetry/collectors.NewAgentCollector&#45;&gt;(*github.com/guild&#45;framework/guild&#45;core/pkg/telemetry/collectors.AgentCollector).initializeMetrics -->
<g id="edge9" class="edge">
<title>github.com/guild&#45;framework/guild&#45;core/pkg/telemetry/collectors.NewAgentCollector&#45;&gt;(*github.com/guild&#45;framework/guild&#45;core/pkg/telemetry/collectors.AgentCollector).initializeMetrics</title>
<g id="a_edge9"><a xlink:title="at agent.go:28: calling [(*github.com/guild&#45;framework/guild&#45;core/pkg/telemetry/collectors.AgentCollector).initializeMetrics]">
<path fill="none" stroke="black" d="M193.23,-50.73C224.69,-48.58 262.09,-46.02 298.05,-43.55"/>
<polygon fill="black" stroke="black" points="297.91,-47.07 307.65,-42.9 297.44,-40.09 297.91,-47.07"/>
</a>
</g>
</g>
<!-- github.com/guild&#45;framework/guild&#45;core/pkg/telemetry/collectors.NewAgentCollector&#45;&gt;github.com/guild&#45;framework/guild&#45;core/pkg/gerror.Wrap -->
<g id="edge6" class="edge">
<title>github.com/guild&#45;framework/guild&#45;core/pkg/telemetry/collectors.NewAgentCollector&#45;&gt;github.com/guild&#45;framework/guild&#45;core/pkg/gerror.Wrap</title>
<g id="a_edge6"><a xlink:title="at agent.go:29: calling [github.com/guild&#45;framework/guild&#45;core/pkg/gerror.Wrap]">
<path fill="none" stroke="saddlebrown" d="M193.32,-60.76C322.69,-68.91 571.33,-85.3 589.58,-92 617.75,-102.35 645,-122.87 664.23,-139.69"/>
<polygon fill="saddlebrown" stroke="saddlebrown" points="661.83,-142.24 671.6,-146.33 666.51,-137.04 661.83,-142.24"/>
</a>
</g>
</g>
<!-- (*github.com/guild&#45;framework/guild&#45;core/pkg/telemetry/collectors.CommissionCollector).initializeMetrics -->
<g id="node4" class="node">
<title>(*github.com/guild&#45;framework/guild&#45;core/pkg/telemetry/collectors.CommissionCollector).initializeMetrics</title>
<g id="a_node4"><a xlink:title="(*github.com/guild&#45;framework/guild&#45;core/pkg/telemetry/collectors.CommissionCollector).initializeMetrics | defined in commission.go:38&#10;at commission.go:47: calling [github.com/guild&#45;framework/guild&#45;core/pkg/gerror.Wrap]&#10;at commission.go:55: calling [github.com/guild&#45;framework/guild&#45;core/pkg/gerror.Wrap]&#10;at commission.go:63: calling [github.com/guild&#45;framework/guild&#45;core/pkg/gerror.Wrap]&#10;at commission.go:71: calling [github.com/guild&#45;framework/guild&#45;core/pkg/gerror.Wrap]&#10;at commission.go:79: calling [github.com/guild&#45;framework/guild&#45;core/pkg/gerror.Wrap]&#10;at commission.go:87: calling [github.com/guild&#45;framework/guild&#45;core/pkg/gerror.Wrap]&#10;at commission.go:95: calling [github.com/guild&#45;framework/guild&#45;core/pkg/gerror.Wrap]&#10;at commission.go:103: calling [github.com/guild&#45;framework/guild&#45;core/pkg/gerror.Wrap]&#10;at commission.go:112: calling [github.com/guild&#45;framework/guild&#45;core/pkg/gerror.Wrap]">
<path fill="lightblue" stroke="black" stroke-width="0.5" d="M577.58,-228C577.58,-228 299.54,-228 299.54,-228 293.54,-228 287.54,-222 287.54,-216 287.54,-216 287.54,-204 287.54,-204 287.54,-198 293.54,-192 299.54,-192 299.54,-192 577.58,-192 577.58,-192 583.58,-192 589.58,-198 589.58,-204 589.58,-204 589.58,-216 589.58,-216 589.58,-222 583.58,-228 577.58,-228"/>
<text xml:space="preserve" text-anchor="middle" x="438.56" y="-205.32" font-family="Verdana" font-size="14.00">(*CommissionCollector).initializeMetrics</text>
</a>
</g>
</g>
<!-- (*github.com/guild&#45;framework/guild&#45;core/pkg/telemetry/collectors.CommissionCollector).initializeMetrics&#45;&gt;github.com/guild&#45;framework/guild&#45;core/pkg/gerror.Wrap -->
<g id="edge10" class="edge">
<title>(*github.com/guild&#45;framework/guild&#45;core/pkg/telemetry/collectors.CommissionCollector).initializeMetrics&#45;&gt;github.com/guild&#45;framework/guild&#45;core/pkg/gerror.Wrap</title>
<g id="a_edge10"><a xlink:title="at commission.go:47: calling [github.com/guild&#45;framework/guild&#45;core/pkg/gerror.Wrap]&#10;at commission.go:55: calling [github.com/guild&#45;framework/guild&#45;core/pkg/gerror.Wrap]&#10;at commission.go:63: calling [github.com/guild&#45;framework/guild&#45;core/pkg/gerror.Wrap]&#10;at commission.go:71: calling [github.com/guild&#45;framework/guild&#45;core/pkg/gerror.Wrap]&#10;at commission.go:79: calling [github.com/guild&#45;framework/guild&#45;core/pkg/gerror.Wrap]&#10;at commission.go:87: calling [github.com/guild&#45;framework/guild&#45;core/pkg/gerror.Wrap]&#10;at commission.go:95: calling [github.com/guild&#45;framework/guild&#45;core/pkg/gerror.Wrap]&#10;at commission.go:103: calling [github.com/guild&#45;framework/guild&#45;core/pkg/gerror.Wrap]&#10;at commission.go:112: calling [github.com/guild&#45;framework/guild&#45;core/pkg/gerror.Wrap]">
<path fill="none" stroke="saddlebrown" d="M543.84,-191.79C581.44,-185.22 621.69,-178.19 650.65,-173.13"/>
<polygon fill="saddlebrown" stroke="saddlebrown" points="651.2,-176.59 660.45,-171.42 649.99,-169.69 651.2,-176.59"/>
</a>
</g>
</g>
<!-- github.com/guild&#45;framework/guild&#45;core/pkg/telemetry/collectors.NewChatCollector -->
<g id="node5" class="node">
<title>github.com/guild&#45;framework/guild&#45;core/pkg/telemetry/collectors.NewChatCollector</title>
<g id="a_node5"><a xlink:title="github.com/guild&#45;framework/guild&#45;core/pkg/telemetry/collectors.NewChatCollector | defined in chat.go:26&#10;at chat.go:29: calling [(*github.com/guild&#45;framework/guild&#45;core/pkg/telemetry/collectors.ChatCollector).initializeMetrics]&#10;at chat.go:30: calling [github.com/guild&#45;framework/guild&#45;core/pkg/gerror.Wrap]">
<path fill="lightblue" stroke="black" stroke-width="1.5" d="M176.29,-162C176.29,-162 54.25,-162 54.25,-162 48.25,-162 42.25,-156 42.25,-150 42.25,-150 42.25,-138 42.25,-138 42.25,-132 48.25,-126 54.25,-126 54.25,-126 176.29,-126 176.29,-126 182.29,-126 188.29,-132 188.29,-138 188.29,-138 188.29,-150 188.29,-150 188.29,-156 182.29,-162 176.29,-162"/>
<text xml:space="preserve" text-anchor="middle" x="115.27" y="-139.32" font-family="Verdana" font-size="14.00">NewChatCollector</text>
</a>
</g>
</g>
<!-- github.com/guild&#45;framework/guild&#45;core/pkg/telemetry/collectors.NewChatCollector&#45;&gt;(*github.com/guild&#45;framework/guild&#45;core/pkg/telemetry/collectors.ChatCollector).initializeMetrics -->
<g id="edge1" class="edge">
<title>github.com/guild&#45;framework/guild&#45;core/pkg/telemetry/collectors.NewChatCollector&#45;&gt;(*github.com/guild&#45;framework/guild&#45;core/pkg/telemetry/collectors.ChatCollector).initializeMetrics</title>
<g id="a_edge1"><a xlink:title="at chat.go:29: calling [(*github.com/guild&#45;framework/guild&#45;core/pkg/telemetry/collectors.ChatCollector).initializeMetrics]">
<path fill="none" stroke="black" d="M188.77,-139.04C222.3,-136.74 263.23,-133.94 302.15,-131.27"/>
<polygon fill="black" stroke="black" points="302.35,-134.77 312.09,-130.59 301.88,-127.78 302.35,-134.77"/>
</a>
</g>
</g>
<!-- github.com/guild&#45;framework/guild&#45;core/pkg/telemetry/collectors.NewChatCollector&#45;&gt;github.com/guild&#45;framework/guild&#45;core/pkg/gerror.Wrap -->
<g id="edge2" class="edge">
<title>github.com/guild&#45;framework/guild&#45;core/pkg/telemetry/collectors.NewChatCollector&#45;&gt;github.com/guild&#45;framework/guild&#45;core/pkg/gerror.Wrap</title>
<g id="a_edge2"><a xlink:title="at chat.go:30: calling [github.com/guild&#45;framework/guild&#45;core/pkg/gerror.Wrap]">
<path fill="none" stroke="saddlebrown" d="M188.76,-148.14C219.25,-149.79 255.11,-151.63 287.54,-153 420.35,-158.63 577.81,-163.04 650.7,-164.96"/>
<polygon fill="saddlebrown" stroke="saddlebrown" points="650.47,-168.46 660.56,-165.22 650.65,-161.46 650.47,-168.46"/>
</a>
</g>
</g>
<!-- github.com/guild&#45;framework/guild&#45;core/pkg/telemetry/collectors.NewCommissionCollector -->
<g id="node6" class="node">
<title>github.com/guild&#45;framework/guild&#45;core/pkg/telemetry/collectors.NewCommissionCollector</title>
<g id="a_node6"><a xlink:title="github.com/guild&#45;framework/guild&#45;core/pkg/telemetry/collectors.NewCommissionCollector | defined in commission.go:27&#10;at commission.go:31: calling [github.com/guild&#45;framework/guild&#45;core/pkg/gerror.Wrap]&#10;at commission.go:30: calling [(*github.com/guild&#45;framework/guild&#45;core/pkg/telemetry/collectors.CommissionCollector).initializeMetrics]">
<path fill="lightblue" stroke="black" stroke-width="1.5" d="M202.54,-254C202.54,-254 28,-254 28,-254 22,-254 16,-248 16,-242 16,-242 16,-230 16,-230 16,-224 22,-218 28,-218 28,-218 202.54,-218 202.54,-218 208.54,-218 214.54,-224 214.54,-230 214.54,-230 214.54,-242 214.54,-242 214.54,-248 208.54,-254 202.54,-254"/>
<text xml:space="preserve" text-anchor="middle" x="115.27" y="-231.32" font-family="Verdana" font-size="14.00">NewCommissionCollector</text>
</a>
</g>
</g>
<!-- github.com/guild&#45;framework/guild&#45;core/pkg/telemetry/collectors.NewCommissionCollector&#45;&gt;(*github.com/guild&#45;framework/guild&#45;core/pkg/telemetry/collectors.CommissionCollector).initializeMetrics -->
<g id="edge7" class="edge">
<title>github.com/guild&#45;framework/guild&#45;core/pkg/telemetry/collectors.NewCommissionCollector&#45;&gt;(*github.com/guild&#45;framework/guild&#45;core/pkg/telemetry/collectors.CommissionCollector).initializeMetrics</title>
<g id="a_edge7"><a xlink:title="at commission.go:30: calling [(*github.com/guild&#45;framework/guild&#45;core/pkg/telemetry/collectors.CommissionCollector).initializeMetrics]">
<path fill="none" stroke="black" d="M215.29,-227.99C234.67,-226.42 255.46,-224.74 276.26,-223.05"/>
<polygon fill="black" stroke="black" points="276.28,-226.56 285.97,-222.27 275.72,-219.59 276.28,-226.56"/>
</a>
</g>
</g>
<!-- github.com/guild&#45;framework/guild&#45;core/pkg/telemetry/collectors.NewCommissionCollector&#45;&gt;github.com/guild&#45;framework/guild&#45;core/pkg/gerror.Wrap -->
<g id="edge3" class="edge">
<title>github.com/guild&#45;framework/guild&#45;core/pkg/telemetry/collectors.NewCommissionCollector&#45;&gt;github.com/guild&#45;framework/guild&#45;core/pkg/gerror.Wrap</title>
<g id="a_edge3"><a xlink:title="at commission.go:31: calling [github.com/guild&#45;framework/guild&#45;core/pkg/gerror.Wrap]">
<path fill="none" stroke="saddlebrown" d="M215.05,-244.46C332.96,-253.27 522.63,-262.98 589.58,-241 618.9,-231.37 646.72,-209.73 665.87,-192.15"/>
<polygon fill="saddlebrown" stroke="saddlebrown" points="668.07,-194.88 672.93,-185.46 663.26,-189.8 668.07,-194.88"/>
</a>
</g>
</g>
<!-- (*github.com/guild&#45;framework/guild&#45;core/pkg/telemetry/collectors.SystemCollector).Register -->
<g id="node7" class="node">
<title>(*github.com/guild&#45;framework/guild&#45;core/pkg/telemetry/collectors.SystemCollector).Register</title>
<g id="a_node7"><a xlink:title="(*github.com/guild&#45;framework/guild&#45;core/pkg/telemetry/collectors.SystemCollector).Register | defined in system.go:36&#10;at system.go:47: calling [github.com/guild&#45;framework/guild&#45;core/pkg/gerror.Wrap]&#10;at system.go:58: calling [github.com/guild&#45;framework/guild&#45;core/pkg/gerror.Wrap]&#10;at system.go:69: calling [github.com/guild&#45;framework/guild&#45;core/pkg/gerror.Wrap]&#10;at system.go:79: calling [github.com/guild&#45;framework/guild&#45;core/pkg/gerror.Wrap]&#10;at system.go:89: calling [github.com/guild&#45;framework/guild&#45;core/pkg/gerror.Wrap]&#10;at system.go:100: calling [github.com/guild&#45;framework/guild&#45;core/pkg/gerror.Wrap]&#10;at system.go:110: calling [github.com/guild&#45;framework/guild&#45;core/pkg/gerror.Wrap]&#10;at system.go:121: calling [github.com/guild&#45;framework/guild&#45;core/pkg/gerror.Wrap]&#10;at system.go:131: calling [github.com/guild&#45;framework/guild&#45;core/pkg/gerror.Wrap]&#10;at system.go:140: calling [github.com/guild&#45;framework/guild&#45;core/pkg/gerror.Wrap]">
<path fill="lightblue" stroke="black" stroke-width="1.5" d="M536.71,-316C536.71,-316 340.42,-316 340.42,-316 334.42,-316 328.42,-310 328.42,-304 328.42,-304 328.42,-292 328.42,-292 328.42,-286 334.42,-280 340.42,-280 340.42,-280 536.71,-280 536.71,-280 542.71,-280 548.71,-286 548.71,-292 548.71,-292 548.71,-304 548.71,-304 548.71,-310 542.71,-316 536.71,-316"/>
<text xml:space="preserve" text-anchor="middle" x="438.56" y="-293.32" font-family="Verdana" font-size="14.00">(*SystemCollector).Register</text>
</a>
</g>
</g>
<!-- (*github.com/guild&#45;framework/guild&#45;core/pkg/telemetry/collectors.SystemCollector).Register&#45;&gt;github.com/guild&#45;framework/guild&#45;core/pkg/gerror.Wrap -->
<g id="edge4" class="edge">
<title>(*github.com/guild&#45;framework/guild&#45;core/pkg/telemetry/collectors.SystemCollector).Register&#45;&gt;github.com/guild&#45;framework/guild&#45;core/pkg/gerror.Wrap</title>
<g id="a_edge4"><a xlink:title="at system.go:47: calling [github.com/guild&#45;framework/guild&#45;core/pkg/gerror.Wrap]&#10;at system.go:58: calling [github.com/guild&#45;framework/guild&#45;core/pkg/gerror.Wrap]&#10;at system.go:69: calling [github.com/guild&#45;framework/guild&#45;core/pkg/gerror.Wrap]&#10;at system.go:79: calling [github.com/guild&#45;framework/guild&#45;core/pkg/gerror.Wrap]&#10;at system.go:89: calling [github.com/guild&#45;framework/guild&#45;core/pkg/gerror.Wrap]&#10;at system.go:100: calling [github.com/guild&#45;framework/guild&#45;core/pkg/gerror.Wrap]&#10;at system.go:110: calling [github.com/guild&#45;framework/guild&#45;core/pkg/gerror.Wrap]&#10;at system.go:121: calling [github.com/guild&#45;framework/guild&#45;core/pkg/gerror.Wrap]&#10;at system.go:131: calling [github.com/guild&#45;framework/guild&#45;core/pkg/gerror.Wrap]&#10;at system.go:140: calling [github.com/guild&#45;framework/guild&#45;core/pkg/gerror.Wrap]">
<path fill="none" stroke="saddlebrown" d="M549.43,-290.78C576.27,-285.23 603.79,-276.04 626.58,-261 650.82,-245 668.46,-216.52 679.18,-194.9"/>
<polygon fill="saddlebrown" stroke="saddlebrown" points="682.28,-196.53 683.37,-186 675.95,-193.55 682.28,-196.53"/>
</a>
</g>
</g>
</g>
</svg>
