<?xml version="1.0" encoding="UTF-8" standalone="no"?>
<!DOCTYPE svg PUBLIC "-//W3C//DTD SVG 1.1//EN"
 "http://www.w3.org/Graphics/SVG/1.1/DTD/svg11.dtd">
<!-- Generated by graphviz version 14.1.1 (20251213.1925)
 -->
<!-- Title: gocallvis Pages: 1 -->
<svg width="1135pt" height="495pt"
 viewBox="0.00 0.00 1135.00 495.00" xmlns="http://www.w3.org/2000/svg" xmlns:xlink="http://www.w3.org/1999/xlink">
<g id="graph0" class="graph" transform="scale(1 1) rotate(0) translate(0 495)">
<title>gocallvis</title>
<polygon fill="lightgray" stroke="none" points="0,0 0,-495 1134.91,-495 1134.91,0 0,0"/>
<g id="clust1" class="cluster">
<title>cluster_focus</title>
<polygon fill="#e6ecfa" stroke="black" stroke-width="0.5" points="8,-8 8,-487 1126.91,-487 1126.91,-8 8,-8"/>
<text xml:space="preserve" text-anchor="middle" x="567.45" y="-465.9" font-family="Arial" font-size="18.00">ollama</text>
</g>
<g id="clust2" class="cluster">
<title>cluster_github.com/guild&#45;framework/guild&#45;core/pkg/gerror</title>
<g id="a_clust2"><a xlink:href="/?f=github.com/guild-framework/guild-core/pkg/gerror" xlink:title="package: github.com/guild&#45;framework/guild&#45;core/pkg/gerror">
<polygon fill="lightyellow" stroke="black" stroke-width="0.8" points="870.62,-44 870.62,-429 1118.91,-429 1118.91,-44 870.62,-44"/>
<text xml:space="preserve" text-anchor="middle" x="994.76" y="-409.8" font-family="Tahoma bold" font-size="16.00">gerror</text>
</a>
</g>
</g>
<!-- (*github.com/guild&#45;framework/guild&#45;core/pkg/providers/ollama.Client).makeRequest -->
<g id="node1" class="node">
<title>(*github.com/guild&#45;framework/guild&#45;core/pkg/providers/ollama.Client).makeRequest</title>
<g id="a_node1"><a xlink:title="(*github.com/guild&#45;framework/guild&#45;core/pkg/providers/ollama.Client).makeRequest | defined in client.go:377&#10;at client.go:407: calling [(*github.com/guild&#45;framework/guild&#45;core/pkg/gerror.GuildError).WithDetails]&#10;at client.go:408: calling [(*github.com/guild&#45;framework/guild&#45;core/pkg/gerror.GuildError).WithDetails]&#10;at client.go:409: calling [(*github.com/guild&#45;framework/guild&#45;core/pkg/gerror.GuildError).WithDetails]&#10;at client.go:406: calling [(*github.com/guild&#45;framework/guild&#45;core/pkg/gerror.GuildError).WithOperation]&#10;at client.go:404: calling [github.com/guild&#45;framework/guild&#45;core/pkg/gerror.Newf]&#10;at client.go:405: calling [(*github.com/guild&#45;framework/guild&#45;core/pkg/gerror.GuildError).WithComponent]">
<path fill="lightblue" stroke="black" stroke-width="0.5" d="M760.24,-202C760.24,-202 599.95,-202 599.95,-202 593.95,-202 587.95,-196 587.95,-190 587.95,-190 587.95,-178 587.95,-178 587.95,-172 593.95,-166 599.95,-166 599.95,-166 760.24,-166 760.24,-166 766.24,-166 772.24,-172 772.24,-178 772.24,-178 772.24,-190 772.24,-190 772.24,-196 766.24,-202 760.24,-202"/>
<text xml:space="preserve" text-anchor="middle" x="680.1" y="-179.32" font-family="Verdana" font-size="14.00">(*Client).makeRequest</text>
</a>
</g>
</g>
<!-- github.com/guild&#45;framework/guild&#45;core/pkg/gerror.Newf -->
<g id="node12" class="node">
<title>github.com/guild&#45;framework/guild&#45;core/pkg/gerror.Newf</title>
<g id="a_node12"><a xlink:title="github.com/guild&#45;framework/guild&#45;core/pkg/gerror.Newf | defined in errors.go:218">
<path fill="moccasin" stroke="black" stroke-width="1.5" d="M1011.91,-210C1011.91,-210 977.62,-210 977.62,-210 971.62,-210 965.62,-204 965.62,-198 965.62,-198 965.62,-186 965.62,-186 965.62,-180 971.62,-174 977.62,-174 977.62,-174 1011.91,-174 1011.91,-174 1017.91,-174 1023.91,-180 1023.91,-186 1023.91,-186 1023.91,-198 1023.91,-198 1023.91,-204 1017.91,-210 1011.91,-210"/>
<text xml:space="preserve" text-anchor="middle" x="994.76" y="-187.32" font-family="Verdana" font-size="14.00">Newf</text>
</a>
</g>
</g>
<!-- (*github.com/guild&#45;framework/guild&#45;core/pkg/providers/ollama.Client).makeRequest&#45;&gt;github.com/guild&#45;framework/guild&#45;core/pkg/gerror.Newf -->
<g id="edge22" class="edge">
<title>(*github.com/guild&#45;framework/guild&#45;core/pkg/providers/ollama.Client).makeRequest&#45;&gt;github.com/guild&#45;framework/guild&#45;core/pkg/gerror.Newf</title>
<g id="a_edge22"><a xlink:title="at client.go:404: calling [github.com/guild&#45;framework/guild&#45;core/pkg/gerror.Newf]">
<path fill="none" stroke="saddlebrown" d="M772.38,-186.34C832.44,-187.87 908.1,-189.81 953.61,-190.97"/>
<polygon fill="saddlebrown" stroke="saddlebrown" points="953.45,-194.47 963.54,-191.23 953.63,-187.47 953.45,-194.47"/>
</a>
</g>
</g>
<!-- (*github.com/guild&#45;framework/guild&#45;core/pkg/gerror.GuildError).WithComponent -->
<g id="node13" class="node">
<title>(*github.com/guild&#45;framework/guild&#45;core/pkg/gerror.GuildError).WithComponent</title>
<g id="a_node13"><a xlink:title="(*github.com/guild&#45;framework/guild&#45;core/pkg/gerror.GuildError).WithComponent | defined in errors.go:156">
<path fill="moccasin" stroke="black" stroke-width="1.5" d="M1098.91,-332C1098.91,-332 890.62,-332 890.62,-332 884.62,-332 878.62,-326 878.62,-320 878.62,-320 878.62,-308 878.62,-308 878.62,-302 884.62,-296 890.62,-296 890.62,-296 1098.91,-296 1098.91,-296 1104.91,-296 1110.91,-302 1110.91,-308 1110.91,-308 1110.91,-320 1110.91,-320 1110.91,-326 1104.91,-332 1098.91,-332"/>
<text xml:space="preserve" text-anchor="middle" x="994.76" y="-309.32" font-family="Verdana" font-size="14.00">(*GuildError).WithComponent</text>
</a>
</g>
</g>
<!-- (*github.com/guild&#45;framework/guild&#45;core/pkg/providers/ollama.Client).makeRequest&#45;&gt;(*github.com/guild&#45;framework/guild&#45;core/pkg/gerror.GuildError).WithComponent -->
<g id="edge23" class="edge">
<title>(*github.com/guild&#45;framework/guild&#45;core/pkg/providers/ollama.Client).makeRequest&#45;&gt;(*github.com/guild&#45;framework/guild&#45;core/pkg/gerror.GuildError).WithComponent</title>
<g id="a_edge23"><a xlink:title="at client.go:405: calling [(*github.com/guild&#45;framework/guild&#45;core/pkg/gerror.GuildError).WithComponent]">
<path fill="none" stroke="saddlebrown" d="M765.52,-202.21C779.41,-206.93 793.29,-212.78 805.62,-220 840.61,-240.48 835.2,-264.27 870.62,-284 875.3,-286.61 880.2,-288.99 885.24,-291.17"/>
<polygon fill="saddlebrown" stroke="saddlebrown" points="883.77,-294.35 894.35,-294.79 886.36,-287.84 883.77,-294.35"/>
</a>
</g>
</g>
<!-- (*github.com/guild&#45;framework/guild&#45;core/pkg/gerror.GuildError).WithOperation -->
<g id="node14" class="node">
<title>(*github.com/guild&#45;framework/guild&#45;core/pkg/gerror.GuildError).WithOperation</title>
<g id="a_node14"><a xlink:title="(*github.com/guild&#45;framework/guild&#45;core/pkg/gerror.GuildError).WithOperation | defined in errors.go:162">
<path fill="moccasin" stroke="black" stroke-width="1.5" d="M1093.28,-271C1093.28,-271 896.24,-271 896.24,-271 890.24,-271 884.24,-265 884.24,-259 884.24,-259 884.24,-247 884.24,-247 884.24,-241 890.24,-235 896.24,-235 896.24,-235 1093.28,-235 1093.28,-235 1099.28,-235 1105.28,-241 1105.28,-247 1105.28,-247 1105.28,-259 1105.28,-259 1105.28,-265 1099.28,-271 1093.28,-271"/>
<text xml:space="preserve" text-anchor="middle" x="994.76" y="-248.32" font-family="Verdana" font-size="14.00">(*GuildError).WithOperation</text>
</a>
</g>
</g>
<!-- (*github.com/guild&#45;framework/guild&#45;core/pkg/providers/ollama.Client).makeRequest&#45;&gt;(*github.com/guild&#45;framework/guild&#45;core/pkg/gerror.GuildError).WithOperation -->
<g id="edge17" class="edge">
<title>(*github.com/guild&#45;framework/guild&#45;core/pkg/providers/ollama.Client).makeRequest&#45;&gt;(*github.com/guild&#45;framework/guild&#45;core/pkg/gerror.GuildError).WithOperation</title>
<g id="a_edge17"><a xlink:title="at client.go:406: calling [(*github.com/guild&#45;framework/guild&#45;core/pkg/gerror.GuildError).WithOperation]">
<path fill="none" stroke="saddlebrown" d="M763.66,-202.22C804.85,-211.31 854.91,-222.36 897.81,-231.82"/>
<polygon fill="saddlebrown" stroke="saddlebrown" points="896.84,-235.19 907.36,-233.93 898.35,-228.36 896.84,-235.19"/>
</a>
</g>
</g>
<!-- (*github.com/guild&#45;framework/guild&#45;core/pkg/gerror.GuildError).WithDetails -->
<g id="node15" class="node">
<title>(*github.com/guild&#45;framework/guild&#45;core/pkg/gerror.GuildError).WithDetails</title>
<g id="a_node15"><a xlink:title="(*github.com/guild&#45;framework/guild&#45;core/pkg/gerror.GuildError).WithDetails | defined in errors.go:147">
<path fill="moccasin" stroke="black" stroke-width="1.5" d="M1082.41,-149C1082.41,-149 907.12,-149 907.12,-149 901.12,-149 895.12,-143 895.12,-137 895.12,-137 895.12,-125 895.12,-125 895.12,-119 901.12,-113 907.12,-113 907.12,-113 1082.41,-113 1082.41,-113 1088.41,-113 1094.41,-119 1094.41,-125 1094.41,-125 1094.41,-137 1094.41,-137 1094.41,-143 1088.41,-149 1082.41,-149"/>
<text xml:space="preserve" text-anchor="middle" x="994.76" y="-126.33" font-family="Verdana" font-size="14.00">(*GuildError).WithDetails</text>
</a>
</g>
</g>
<!-- (*github.com/guild&#45;framework/guild&#45;core/pkg/providers/ollama.Client).makeRequest&#45;&gt;(*github.com/guild&#45;framework/guild&#45;core/pkg/gerror.GuildError).WithDetails -->
<g id="edge1" class="edge">
<title>(*github.com/guild&#45;framework/guild&#45;core/pkg/providers/ollama.Client).makeRequest&#45;&gt;(*github.com/guild&#45;framework/guild&#45;core/pkg/gerror.GuildError).WithDetails</title>
<g id="a_edge1"><a xlink:title="at client.go:407: calling [(*github.com/guild&#45;framework/guild&#45;core/pkg/gerror.GuildError).WithDetails]&#10;at client.go:408: calling [(*github.com/guild&#45;framework/guild&#45;core/pkg/gerror.GuildError).WithDetails]&#10;at client.go:409: calling [(*github.com/guild&#45;framework/guild&#45;core/pkg/gerror.GuildError).WithDetails]">
<path fill="none" stroke="saddlebrown" d="M746.64,-165.77C775.56,-158.33 810.08,-150.25 841.62,-145 855.04,-142.76 869.19,-140.86 883.24,-139.25"/>
<polygon fill="saddlebrown" stroke="saddlebrown" points="883.4,-142.75 892.96,-138.18 882.64,-135.8 883.4,-142.75"/>
</a>
</g>
</g>
<!-- (*github.com/guild&#45;framework/guild&#45;core/pkg/providers/ollama.Client).ChatCompletion -->
<g id="node2" class="node">
<title>(*github.com/guild&#45;framework/guild&#45;core/pkg/providers/ollama.Client).ChatCompletion</title>
<g id="a_node2"><a xlink:title="(*github.com/guild&#45;framework/guild&#45;core/pkg/providers/ollama.Client).ChatCompletion | defined in client.go:109&#10;at client.go:171: calling [(*github.com/guild&#45;framework/guild&#45;core/pkg/gerror.GuildError).WithDetails]&#10;at client.go:169: calling [(*github.com/guild&#45;framework/guild&#45;core/pkg/gerror.GuildError).WithComponent]&#10;at client.go:145: calling [(*github.com/guild&#45;framework/guild&#45;core/pkg/providers/ollama.Client).makeRequest]&#10;at client.go:170: calling [(*github.com/guild&#45;framework/guild&#45;core/pkg/gerror.GuildError).WithOperation]&#10;at client.go:168: calling [github.com/guild&#45;framework/guild&#45;core/pkg/gerror.Wrap]">
<path fill="lightblue" stroke="black" stroke-width="1.5" d="M462.45,-89C462.45,-89 286.41,-89 286.41,-89 280.41,-89 274.41,-83 274.41,-77 274.41,-77 274.41,-65 274.41,-65 274.41,-59 280.41,-53 286.41,-53 286.41,-53 462.45,-53 462.45,-53 468.45,-53 474.45,-59 474.45,-65 474.45,-65 474.45,-77 474.45,-77 474.45,-83 468.45,-89 462.45,-89"/>
<text xml:space="preserve" text-anchor="middle" x="374.43" y="-66.33" font-family="Verdana" font-size="14.00">(*Client).ChatCompletion</text>
</a>
</g>
</g>
<!-- (*github.com/guild&#45;framework/guild&#45;core/pkg/providers/ollama.Client).ChatCompletion&#45;&gt;(*github.com/guild&#45;framework/guild&#45;core/pkg/providers/ollama.Client).makeRequest -->
<g id="edge11" class="edge">
<title>(*github.com/guild&#45;framework/guild&#45;core/pkg/providers/ollama.Client).ChatCompletion&#45;&gt;(*github.com/guild&#45;framework/guild&#45;core/pkg/providers/ollama.Client).makeRequest</title>
<g id="a_edge11"><a xlink:title="at client.go:145: calling [(*github.com/guild&#45;framework/guild&#45;core/pkg/providers/ollama.Client).makeRequest]">
<path fill="none" stroke="black" d="M425.58,-89.66C478.91,-109.51 563.22,-140.88 619.81,-161.94"/>
<polygon fill="black" stroke="black" points="618.38,-165.14 628.97,-165.35 620.82,-158.58 618.38,-165.14"/>
</a>
</g>
</g>
<!-- (*github.com/guild&#45;framework/guild&#45;core/pkg/providers/ollama.Client).ChatCompletion&#45;&gt;(*github.com/guild&#45;framework/guild&#45;core/pkg/gerror.GuildError).WithComponent -->
<g id="edge7" class="edge">
<title>(*github.com/guild&#45;framework/guild&#45;core/pkg/providers/ollama.Client).ChatCompletion&#45;&gt;(*github.com/guild&#45;framework/guild&#45;core/pkg/gerror.GuildError).WithComponent</title>
<g id="a_edge7"><a xlink:title="at client.go:169: calling [(*github.com/guild&#45;framework/guild&#45;core/pkg/gerror.GuildError).WithComponent]">
<path fill="none" stroke="saddlebrown" d="M426.31,-89.75C445.93,-99.19 467.09,-112.44 481.58,-130 533.13,-192.48 484.16,-256.97 554.58,-297 659.6,-356.69 802.69,-349.06 896.6,-334.54"/>
<polygon fill="saddlebrown" stroke="saddlebrown" points="896.99,-338.02 906.31,-332.98 895.88,-331.11 896.99,-338.02"/>
</a>
</g>
</g>
<!-- (*github.com/guild&#45;framework/guild&#45;core/pkg/providers/ollama.Client).ChatCompletion&#45;&gt;(*github.com/guild&#45;framework/guild&#45;core/pkg/gerror.GuildError).WithOperation -->
<g id="edge12" class="edge">
<title>(*github.com/guild&#45;framework/guild&#45;core/pkg/providers/ollama.Client).ChatCompletion&#45;&gt;(*github.com/guild&#45;framework/guild&#45;core/pkg/gerror.GuildError).WithOperation</title>
<g id="a_edge12"><a xlink:title="at client.go:170: calling [(*github.com/guild&#45;framework/guild&#45;core/pkg/gerror.GuildError).WithOperation]">
<path fill="none" stroke="saddlebrown" d="M423.02,-89.71C443.02,-99.39 465.37,-112.83 481.58,-130 532.77,-184.19 491.43,-241.39 554.58,-281 608.08,-314.56 775.64,-293.1 887.63,-273.68"/>
<polygon fill="saddlebrown" stroke="saddlebrown" points="888.23,-277.13 897.48,-271.95 887.02,-270.24 888.23,-277.13"/>
</a>
</g>
</g>
<!-- (*github.com/guild&#45;framework/guild&#45;core/pkg/providers/ollama.Client).ChatCompletion&#45;&gt;(*github.com/guild&#45;framework/guild&#45;core/pkg/gerror.GuildError).WithDetails -->
<g id="edge2" class="edge">
<title>(*github.com/guild&#45;framework/guild&#45;core/pkg/providers/ollama.Client).ChatCompletion&#45;&gt;(*github.com/guild&#45;framework/guild&#45;core/pkg/gerror.GuildError).WithDetails</title>
<g id="a_edge2"><a xlink:title="at client.go:171: calling [(*github.com/guild&#45;framework/guild&#45;core/pkg/gerror.GuildError).WithDetails]">
<path fill="none" stroke="saddlebrown" d="M474.88,-66.7C570.15,-64.58 717.53,-66.57 842.62,-91 855.59,-93.53 857.96,-97.21 870.62,-101 880.3,-103.9 890.46,-106.72 900.63,-109.4"/>
<polygon fill="saddlebrown" stroke="saddlebrown" points="899.61,-112.76 910.17,-111.87 901.37,-105.98 899.61,-112.76"/>
</a>
</g>
</g>
<!-- github.com/guild&#45;framework/guild&#45;core/pkg/gerror.Wrap -->
<g id="node16" class="node">
<title>github.com/guild&#45;framework/guild&#45;core/pkg/gerror.Wrap</title>
<g id="a_node16"><a xlink:title="github.com/guild&#45;framework/guild&#45;core/pkg/gerror.Wrap | defined in errors.go:223">
<path fill="moccasin" stroke="black" stroke-width="1.5" d="M1012.66,-88C1012.66,-88 976.87,-88 976.87,-88 970.87,-88 964.87,-82 964.87,-76 964.87,-76 964.87,-64 964.87,-64 964.87,-58 970.87,-52 976.87,-52 976.87,-52 1012.66,-52 1012.66,-52 1018.66,-52 1024.66,-58 1024.66,-64 1024.66,-64 1024.66,-76 1024.66,-76 1024.66,-82 1018.66,-88 1012.66,-88"/>
<text xml:space="preserve" text-anchor="middle" x="994.76" y="-65.33" font-family="Verdana" font-size="14.00">Wrap</text>
</a>
</g>
</g>
<!-- (*github.com/guild&#45;framework/guild&#45;core/pkg/providers/ollama.Client).ChatCompletion&#45;&gt;github.com/guild&#45;framework/guild&#45;core/pkg/gerror.Wrap -->
<g id="edge18" class="edge">
<title>(*github.com/guild&#45;framework/guild&#45;core/pkg/providers/ollama.Client).ChatCompletion&#45;&gt;github.com/guild&#45;framework/guild&#45;core/pkg/gerror.Wrap</title>
<g id="a_edge18"><a xlink:title="at client.go:168: calling [github.com/guild&#45;framework/guild&#45;core/pkg/gerror.Wrap]">
<path fill="none" stroke="saddlebrown" d="M439.61,-52.27C463.82,-46.1 491.75,-40.05 517.58,-37 661.05,-20.08 698.99,-21.5 842.62,-37 880.62,-41.1 923.09,-50.84 953.3,-58.68"/>
<polygon fill="saddlebrown" stroke="saddlebrown" points="952.22,-62.02 962.79,-61.19 954.01,-55.25 952.22,-62.02"/>
</a>
</g>
</g>
<!-- (*github.com/guild&#45;framework/guild&#45;core/pkg/providers/ollama.Client).Complete -->
<g id="node3" class="node">
<title>(*github.com/guild&#45;framework/guild&#45;core/pkg/providers/ollama.Client).Complete</title>
<g id="a_node3"><a xlink:title="(*github.com/guild&#45;framework/guild&#45;core/pkg/providers/ollama.Client).Complete | defined in client.go:476&#10;at client.go:484: calling [(*github.com/guild&#45;framework/guild&#45;core/pkg/providers/ollama.Client).ChatCompletion]">
<path fill="lightblue" stroke="black" stroke-width="1.5" d="M170.66,-89C170.66,-89 39.62,-89 39.62,-89 33.62,-89 27.62,-83 27.62,-77 27.62,-77 27.62,-65 27.62,-65 27.62,-59 33.62,-53 39.62,-53 39.62,-53 170.66,-53 170.66,-53 176.66,-53 182.66,-59 182.66,-65 182.66,-65 182.66,-77 182.66,-77 182.66,-83 176.66,-89 170.66,-89"/>
<text xml:space="preserve" text-anchor="middle" x="105.14" y="-66.33" font-family="Verdana" font-size="14.00">(*Client).Complete</text>
</a>
</g>
</g>
<!-- (*github.com/guild&#45;framework/guild&#45;core/pkg/providers/ollama.Client).Complete&#45;&gt;(*github.com/guild&#45;framework/guild&#45;core/pkg/providers/ollama.Client).ChatCompletion -->
<g id="edge13" class="edge">
<title>(*github.com/guild&#45;framework/guild&#45;core/pkg/providers/ollama.Client).Complete&#45;&gt;(*github.com/guild&#45;framework/guild&#45;core/pkg/providers/ollama.Client).ChatCompletion</title>
<g id="a_edge13"><a xlink:title="at client.go:484: calling [(*github.com/guild&#45;framework/guild&#45;core/pkg/providers/ollama.Client).ChatCompletion]">
<path fill="none" stroke="black" d="M183.1,-71C207.93,-71 235.96,-71 262.73,-71"/>
<polygon fill="black" stroke="black" points="262.6,-74.5 272.6,-71 262.6,-67.5 262.6,-74.5"/>
</a>
</g>
</g>
<!-- (*github.com/guild&#45;framework/guild&#45;core/pkg/providers/ollama.ollamaStream).Next -->
<g id="node4" class="node">
<title>(*github.com/guild&#45;framework/guild&#45;core/pkg/providers/ollama.ollamaStream).Next</title>
<g id="a_node4"><a xlink:title="(*github.com/guild&#45;framework/guild&#45;core/pkg/providers/ollama.ollamaStream).Next | defined in client.go:421&#10;at client.go:449: calling [(*github.com/guild&#45;framework/guild&#45;core/pkg/providers/ollama.ollamaStream).Next$1]">
<path fill="lightblue" stroke="black" stroke-width="1.5" d="M182.29,-178C182.29,-178 28,-178 28,-178 22,-178 16,-172 16,-166 16,-166 16,-154 16,-154 16,-148 22,-142 28,-142 28,-142 182.29,-142 182.29,-142 188.29,-142 194.29,-148 194.29,-154 194.29,-154 194.29,-166 194.29,-166 194.29,-172 188.29,-178 182.29,-178"/>
<text xml:space="preserve" text-anchor="middle" x="105.14" y="-155.32" font-family="Verdana" font-size="14.00">(*ollamaStream).Next</text>
</a>
</g>
</g>
<!-- (*github.com/guild&#45;framework/guild&#45;core/pkg/providers/ollama.ollamaStream).Next$1 -->
<g id="node5" class="node">
<title>(*github.com/guild&#45;framework/guild&#45;core/pkg/providers/ollama.ollamaStream).Next$1</title>
<g id="a_node5"><a xlink:title="(*github.com/guild&#45;framework/guild&#45;core/pkg/providers/ollama.ollamaStream).Next$1 | defined in client.go:444">
<polygon fill="lightblue" stroke="black" stroke-dasharray="1,5" points="472.58,-178 276.29,-178 276.29,-142 472.58,-142 472.58,-178"/>
<text xml:space="preserve" text-anchor="middle" x="374.43" y="-155.32" font-family="Verdana" font-size="14.00">(*ollamaStream).Next$1</text>
</a>
</g>
</g>
<!-- (*github.com/guild&#45;framework/guild&#45;core/pkg/providers/ollama.ollamaStream).Next&#45;&gt;(*github.com/guild&#45;framework/guild&#45;core/pkg/providers/ollama.ollamaStream).Next$1 -->
<g id="edge14" class="edge">
<title>(*github.com/guild&#45;framework/guild&#45;core/pkg/providers/ollama.ollamaStream).Next&#45;&gt;(*github.com/guild&#45;framework/guild&#45;core/pkg/providers/ollama.ollamaStream).Next$1</title>
<g id="a_edge14"><a xlink:title="at client.go:449: calling [(*github.com/guild&#45;framework/guild&#45;core/pkg/providers/ollama.ollamaStream).Next$1]">
<path fill="none" stroke="black" d="M194.78,-160C217.11,-160 241.34,-160 264.54,-160"/>
<polygon fill="black" stroke="black" points="264.32,-163.5 274.32,-160 264.32,-156.5 264.32,-163.5"/>
</a>
</g>
</g>
<!-- (*github.com/guild&#45;framework/guild&#45;core/pkg/providers/ollama.Client).StreamChatCompletion -->
<g id="node6" class="node">
<title>(*github.com/guild&#45;framework/guild&#45;core/pkg/providers/ollama.Client).StreamChatCompletion</title>
<g id="a_node6"><a xlink:title="(*github.com/guild&#45;framework/guild&#45;core/pkg/providers/ollama.Client).StreamChatCompletion | defined in client.go:197&#10;at client.go:236: calling [(*github.com/guild&#45;framework/guild&#45;core/pkg/gerror.GuildError).WithOperation]&#10;at client.go:234: calling [github.com/guild&#45;framework/guild&#45;core/pkg/gerror.Newf]&#10;at client.go:235: calling [(*github.com/guild&#45;framework/guild&#45;core/pkg/gerror.GuildError).WithComponent]&#10;at client.go:237: calling [(*github.com/guild&#45;framework/guild&#45;core/pkg/gerror.GuildError).WithDetails]&#10;at client.go:238: calling [(*github.com/guild&#45;framework/guild&#45;core/pkg/gerror.GuildError).WithDetails]">
<path fill="lightblue" stroke="black" stroke-width="1.5" d="M793.62,-268C793.62,-268 566.58,-268 566.58,-268 560.58,-268 554.58,-262 554.58,-256 554.58,-256 554.58,-244 554.58,-244 554.58,-238 560.58,-232 566.58,-232 566.58,-232 793.62,-232 793.62,-232 799.62,-232 805.62,-238 805.62,-244 805.62,-244 805.62,-256 805.62,-256 805.62,-262 799.62,-268 793.62,-268"/>
<text xml:space="preserve" text-anchor="middle" x="680.1" y="-245.32" font-family="Verdana" font-size="14.00">(*Client).StreamChatCompletion</text>
</a>
</g>
</g>
<!-- (*github.com/guild&#45;framework/guild&#45;core/pkg/providers/ollama.Client).StreamChatCompletion&#45;&gt;github.com/guild&#45;framework/guild&#45;core/pkg/gerror.Newf -->
<g id="edge19" class="edge">
<title>(*github.com/guild&#45;framework/guild&#45;core/pkg/providers/ollama.Client).StreamChatCompletion&#45;&gt;github.com/guild&#45;framework/guild&#45;core/pkg/gerror.Newf</title>
<g id="a_edge19"><a xlink:title="at client.go:234: calling [github.com/guild&#45;framework/guild&#45;core/pkg/gerror.Newf]">
<path fill="none" stroke="saddlebrown" d="M781.75,-231.33C840.29,-220.47 910.82,-207.39 953.96,-199.38"/>
<polygon fill="saddlebrown" stroke="saddlebrown" points="954.42,-202.86 963.62,-197.59 953.15,-195.97 954.42,-202.86"/>
</a>
</g>
</g>
<!-- (*github.com/guild&#45;framework/guild&#45;core/pkg/providers/ollama.Client).StreamChatCompletion&#45;&gt;(*github.com/guild&#45;framework/guild&#45;core/pkg/gerror.GuildError).WithComponent -->
<g id="edge20" class="edge">
<title>(*github.com/guild&#45;framework/guild&#45;core/pkg/providers/ollama.Client).StreamChatCompletion&#45;&gt;(*github.com/guild&#45;framework/guild&#45;core/pkg/gerror.GuildError).WithComponent</title>
<g id="a_edge20"><a xlink:title="at client.go:235: calling [(*github.com/guild&#45;framework/guild&#45;core/pkg/gerror.GuildError).WithComponent]">
<path fill="none" stroke="saddlebrown" d="M741.61,-268.69C771.48,-277.38 808.2,-287.26 841.62,-294 849.79,-295.65 858.24,-297.19 866.77,-298.63"/>
<polygon fill="saddlebrown" stroke="saddlebrown" points="866.09,-302.07 876.53,-300.23 867.22,-295.16 866.09,-302.07"/>
</a>
</g>
</g>
<!-- (*github.com/guild&#45;framework/guild&#45;core/pkg/providers/ollama.Client).StreamChatCompletion&#45;&gt;(*github.com/guild&#45;framework/guild&#45;core/pkg/gerror.GuildError).WithOperation -->
<g id="edge3" class="edge">
<title>(*github.com/guild&#45;framework/guild&#45;core/pkg/providers/ollama.Client).StreamChatCompletion&#45;&gt;(*github.com/guild&#45;framework/guild&#45;core/pkg/gerror.GuildError).WithOperation</title>
<g id="a_edge3"><a xlink:title="at client.go:236: calling [(*github.com/guild&#45;framework/guild&#45;core/pkg/gerror.GuildError).WithOperation]">
<path fill="none" stroke="saddlebrown" d="M806.02,-251.2C827.89,-251.41 850.62,-251.63 872.39,-251.84"/>
<polygon fill="saddlebrown" stroke="saddlebrown" points="872.14,-255.33 882.17,-251.93 872.21,-248.33 872.14,-255.33"/>
</a>
</g>
</g>
<!-- (*github.com/guild&#45;framework/guild&#45;core/pkg/providers/ollama.Client).StreamChatCompletion&#45;&gt;(*github.com/guild&#45;framework/guild&#45;core/pkg/gerror.GuildError).WithDetails -->
<g id="edge21" class="edge">
<title>(*github.com/guild&#45;framework/guild&#45;core/pkg/providers/ollama.Client).StreamChatCompletion&#45;&gt;(*github.com/guild&#45;framework/guild&#45;core/pkg/gerror.GuildError).WithDetails</title>
<g id="a_edge21"><a xlink:title="at client.go:237: calling [(*github.com/guild&#45;framework/guild&#45;core/pkg/gerror.GuildError).WithDetails]&#10;at client.go:238: calling [(*github.com/guild&#45;framework/guild&#45;core/pkg/gerror.GuildError).WithDetails]">
<path fill="none" stroke="saddlebrown" d="M765.63,-231.33C779.37,-226.87 793.16,-221.47 805.62,-215 838.7,-197.82 837.31,-178.73 870.62,-162 876.83,-158.88 883.37,-156.07 890.07,-153.52"/>
<polygon fill="saddlebrown" stroke="saddlebrown" points="891.04,-156.89 899.29,-150.24 888.69,-150.29 891.04,-156.89"/>
</a>
</g>
</g>
<!-- (*github.com/guild&#45;framework/guild&#45;core/pkg/providers/ollama.Client).PullModel -->
<g id="node7" class="node">
<title>(*github.com/guild&#45;framework/guild&#45;core/pkg/providers/ollama.Client).PullModel</title>
<g id="a_node7"><a xlink:title="(*github.com/guild&#45;framework/guild&#45;core/pkg/providers/ollama.Client).PullModel | defined in client.go:303&#10;at client.go:318: calling [(*github.com/guild&#45;framework/guild&#45;core/pkg/providers/ollama.Client).PullModel$1]">
<path fill="lightblue" stroke="black" stroke-width="1.5" d="M170.66,-269C170.66,-269 39.62,-269 39.62,-269 33.62,-269 27.62,-263 27.62,-257 27.62,-257 27.62,-245 27.62,-245 27.62,-239 33.62,-233 39.62,-233 39.62,-233 170.66,-233 170.66,-233 176.66,-233 182.66,-239 182.66,-245 182.66,-245 182.66,-257 182.66,-257 182.66,-263 176.66,-269 170.66,-269"/>
<text xml:space="preserve" text-anchor="middle" x="105.14" y="-246.32" font-family="Verdana" font-size="14.00">(*Client).PullModel</text>
</a>
</g>
</g>
<!-- (*github.com/guild&#45;framework/guild&#45;core/pkg/providers/ollama.Client).PullModel$1 -->
<g id="node8" class="node">
<title>(*github.com/guild&#45;framework/guild&#45;core/pkg/providers/ollama.Client).PullModel$1</title>
<g id="a_node8"><a xlink:title="(*github.com/guild&#45;framework/guild&#45;core/pkg/providers/ollama.Client).PullModel$1 | defined in client.go:318">
<polygon fill="lightblue" stroke="black" stroke-dasharray="1,5" points="460.95,-269 287.91,-269 287.91,-233 460.95,-233 460.95,-269"/>
<text xml:space="preserve" text-anchor="middle" x="374.43" y="-246.32" font-family="Verdana" font-size="14.00">(*Client).PullModel$1</text>
</a>
</g>
</g>
<!-- (*github.com/guild&#45;framework/guild&#45;core/pkg/providers/ollama.Client).PullModel&#45;&gt;(*github.com/guild&#45;framework/guild&#45;core/pkg/providers/ollama.Client).PullModel$1 -->
<g id="edge8" class="edge">
<title>(*github.com/guild&#45;framework/guild&#45;core/pkg/providers/ollama.Client).PullModel&#45;&gt;(*github.com/guild&#45;framework/guild&#45;core/pkg/providers/ollama.Client).PullModel$1</title>
<g id="a_edge8"><a xlink:title="at client.go:318: calling [(*github.com/guild&#45;framework/guild&#45;core/pkg/providers/ollama.Client).PullModel$1]">
<path fill="none" stroke="black" d="M183.1,-251C206.6,-251 232.97,-251 258.42,-251"/>
<polygon fill="black" stroke="black" points="276.13,-254.5 286.13,-251 276.13,-247.5 276.13,-254.5"/>
<polyline fill="none" stroke="black" points="275.63,-251 270.63,-251"/>
<polygon fill="none" stroke="black" points="257.73,-251 263.73,-247 269.73,-251 263.73,-255 257.73,-251"/>
</a>
</g>
</g>
<!-- (*github.com/guild&#45;framework/guild&#45;core/pkg/providers/ollama.Client).CreateEmbedding -->
<g id="node9" class="node">
<title>(*github.com/guild&#45;framework/guild&#45;core/pkg/providers/ollama.Client).CreateEmbedding</title>
<g id="a_node9"><a xlink:title="(*github.com/guild&#45;framework/guild&#45;core/pkg/providers/ollama.Client).CreateEmbedding | defined in client.go:248&#10;at client.go:252: calling [(*github.com/guild&#45;framework/guild&#45;core/pkg/gerror.GuildError).WithComponent]&#10;at client.go:276: calling [(*github.com/guild&#45;framework/guild&#45;core/pkg/gerror.GuildError).WithComponent]&#10;at client.go:265: calling [(*github.com/guild&#45;framework/guild&#45;core/pkg/providers/ollama.Client).makeRequest]&#10;at client.go:275: calling [github.com/guild&#45;framework/guild&#45;core/pkg/gerror.Wrap]&#10;at client.go:251: calling [github.com/guild&#45;framework/guild&#45;core/pkg/gerror.New]&#10;at client.go:253: calling [(*github.com/guild&#45;framework/guild&#45;core/pkg/gerror.GuildError).WithOperation]&#10;at client.go:277: calling [(*github.com/guild&#45;framework/guild&#45;core/pkg/gerror.GuildError).WithOperation]&#10;at client.go:254: calling [(*github.com/guild&#45;framework/guild&#45;core/pkg/gerror.GuildError).WithDetails]&#10;at client.go:278: calling [(*github.com/guild&#45;framework/guild&#45;core/pkg/gerror.GuildError).WithDetails]">
<path fill="lightblue" stroke="black" stroke-width="1.5" d="M469.58,-387C469.58,-387 279.29,-387 279.29,-387 273.29,-387 267.29,-381 267.29,-375 267.29,-375 267.29,-363 267.29,-363 267.29,-357 273.29,-351 279.29,-351 279.29,-351 469.58,-351 469.58,-351 475.58,-351 481.58,-357 481.58,-363 481.58,-363 481.58,-375 481.58,-375 481.58,-381 475.58,-387 469.58,-387"/>
<text xml:space="preserve" text-anchor="middle" x="374.43" y="-364.32" font-family="Verdana" font-size="14.00">(*Client).CreateEmbedding</text>
</a>
</g>
</g>
<!-- (*github.com/guild&#45;framework/guild&#45;core/pkg/providers/ollama.Client).CreateEmbedding&#45;&gt;(*github.com/guild&#45;framework/guild&#45;core/pkg/providers/ollama.Client).makeRequest -->
<g id="edge5" class="edge">
<title>(*github.com/guild&#45;framework/guild&#45;core/pkg/providers/ollama.Client).CreateEmbedding&#45;&gt;(*github.com/guild&#45;framework/guild&#45;core/pkg/providers/ollama.Client).makeRequest</title>
<g id="a_edge5"><a xlink:title="at client.go:265: calling [(*github.com/guild&#45;framework/guild&#45;core/pkg/providers/ollama.Client).makeRequest]">
<path fill="none" stroke="black" d="M398.31,-350.45C419.87,-332.91 453.04,-305.81 481.58,-282 514.26,-254.73 517.08,-240.14 554.58,-220 564.65,-214.59 575.62,-209.92 586.74,-205.89"/>
<polygon fill="black" stroke="black" points="587.67,-209.27 595.99,-202.72 585.4,-202.65 587.67,-209.27"/>
</a>
</g>
</g>
<!-- (*github.com/guild&#45;framework/guild&#45;core/pkg/providers/ollama.Client).CreateEmbedding&#45;&gt;(*github.com/guild&#45;framework/guild&#45;core/pkg/gerror.GuildError).WithComponent -->
<g id="edge4" class="edge">
<title>(*github.com/guild&#45;framework/guild&#45;core/pkg/providers/ollama.Client).CreateEmbedding&#45;&gt;(*github.com/guild&#45;framework/guild&#45;core/pkg/gerror.GuildError).WithComponent</title>
<g id="a_edge4"><a xlink:title="at client.go:252: calling [(*github.com/guild&#45;framework/guild&#45;core/pkg/gerror.GuildError).WithComponent]&#10;at client.go:276: calling [(*github.com/guild&#45;framework/guild&#45;core/pkg/gerror.GuildError).WithComponent]">
<path fill="none" stroke="saddlebrown" d="M441.77,-387.7C465.49,-393.51 492.54,-399.13 517.58,-402 589.34,-410.22 781.31,-440.19 842.62,-402 866.58,-387.08 848.68,-362.76 870.62,-345 873.67,-342.53 876.89,-340.26 880.24,-338.16"/>
<polygon fill="saddlebrown" stroke="saddlebrown" points="881.65,-341.38 888.68,-333.45 878.25,-335.27 881.65,-341.38"/>
</a>
</g>
</g>
<!-- (*github.com/guild&#45;framework/guild&#45;core/pkg/providers/ollama.Client).CreateEmbedding&#45;&gt;(*github.com/guild&#45;framework/guild&#45;core/pkg/gerror.GuildError).WithOperation -->
<g id="edge10" class="edge">
<title>(*github.com/guild&#45;framework/guild&#45;core/pkg/providers/ollama.Client).CreateEmbedding&#45;&gt;(*github.com/guild&#45;framework/guild&#45;core/pkg/gerror.GuildError).WithOperation</title>
<g id="a_edge10"><a xlink:title="at client.go:253: calling [(*github.com/guild&#45;framework/guild&#45;core/pkg/gerror.GuildError).WithOperation]&#10;at client.go:277: calling [(*github.com/guild&#45;framework/guild&#45;core/pkg/gerror.GuildError).WithOperation]">
<path fill="none" stroke="saddlebrown" d="M482.1,-376.89C601.67,-383.56 786.23,-386.72 842.62,-348 868.22,-330.43 846.92,-304.06 870.62,-284 873.44,-281.61 876.42,-279.41 879.52,-277.37"/>
<polygon fill="saddlebrown" stroke="saddlebrown" points="880.99,-280.56 887.86,-272.5 877.46,-274.52 880.99,-280.56"/>
</a>
</g>
</g>
<!-- (*github.com/guild&#45;framework/guild&#45;core/pkg/providers/ollama.Client).CreateEmbedding&#45;&gt;(*github.com/guild&#45;framework/guild&#45;core/pkg/gerror.GuildError).WithDetails -->
<g id="edge15" class="edge">
<title>(*github.com/guild&#45;framework/guild&#45;core/pkg/providers/ollama.Client).CreateEmbedding&#45;&gt;(*github.com/guild&#45;framework/guild&#45;core/pkg/gerror.GuildError).WithDetails</title>
<g id="a_edge15"><a xlink:title="at client.go:254: calling [(*github.com/guild&#45;framework/guild&#45;core/pkg/gerror.GuildError).WithDetails]&#10;at client.go:278: calling [(*github.com/guild&#45;framework/guild&#45;core/pkg/gerror.GuildError).WithDetails]">
<path fill="none" stroke="saddlebrown" d="M403.56,-350.33C426.48,-334.15 458.67,-309.12 481.58,-282 523.83,-231.96 498.83,-188.37 554.58,-154 657.01,-90.86 799.76,-96.74 894.38,-110.59"/>
<polygon fill="saddlebrown" stroke="saddlebrown" points="893.76,-114.04 904.17,-112.09 894.82,-107.12 893.76,-114.04"/>
</a>
</g>
</g>
<!-- (*github.com/guild&#45;framework/guild&#45;core/pkg/providers/ollama.Client).CreateEmbedding&#45;&gt;github.com/guild&#45;framework/guild&#45;core/pkg/gerror.Wrap -->
<g id="edge6" class="edge">
<title>(*github.com/guild&#45;framework/guild&#45;core/pkg/providers/ollama.Client).CreateEmbedding&#45;&gt;github.com/guild&#45;framework/guild&#45;core/pkg/gerror.Wrap</title>
<g id="a_edge6"><a xlink:title="at client.go:275: calling [github.com/guild&#45;framework/guild&#45;core/pkg/gerror.Wrap]">
<path fill="none" stroke="saddlebrown" d="M405.6,-350.54C429.09,-334.84 461.04,-310.37 481.58,-282 533.67,-210.07 482.6,-148.01 554.58,-96 676.24,-8.1 869.9,-39.83 953.34,-59.32"/>
<polygon fill="saddlebrown" stroke="saddlebrown" points="952.35,-62.68 962.9,-61.62 953.99,-55.88 952.35,-62.68"/>
</a>
</g>
</g>
<!-- github.com/guild&#45;framework/guild&#45;core/pkg/gerror.New -->
<g id="node17" class="node">
<title>github.com/guild&#45;framework/guild&#45;core/pkg/gerror.New</title>
<g id="a_node17"><a xlink:title="github.com/guild&#45;framework/guild&#45;core/pkg/gerror.New | defined in errors.go:190">
<path fill="moccasin" stroke="black" stroke-width="1.5" d="M1009.76,-393C1009.76,-393 979.76,-393 979.76,-393 973.76,-393 967.76,-387 967.76,-381 967.76,-381 967.76,-369 967.76,-369 967.76,-363 973.76,-357 979.76,-357 979.76,-357 1009.76,-357 1009.76,-357 1015.76,-357 1021.76,-363 1021.76,-369 1021.76,-369 1021.76,-381 1021.76,-381 1021.76,-387 1015.76,-393 1009.76,-393"/>
<text xml:space="preserve" text-anchor="middle" x="994.76" y="-370.32" font-family="Verdana" font-size="14.00">New</text>
</a>
</g>
</g>
<!-- (*github.com/guild&#45;framework/guild&#45;core/pkg/providers/ollama.Client).CreateEmbedding&#45;&gt;github.com/guild&#45;framework/guild&#45;core/pkg/gerror.New -->
<g id="edge9" class="edge">
<title>(*github.com/guild&#45;framework/guild&#45;core/pkg/providers/ollama.Client).CreateEmbedding&#45;&gt;github.com/guild&#45;framework/guild&#45;core/pkg/gerror.New</title>
<g id="a_edge9"><a xlink:title="at client.go:251: calling [github.com/guild&#45;framework/guild&#45;core/pkg/gerror.New]">
<path fill="none" stroke="saddlebrown" d="M450.19,-387.72C460.98,-391.51 471.75,-395.92 481.58,-401 499.59,-410.3 498.41,-422.42 517.58,-429 654.22,-475.88 700.28,-453.66 842.62,-429 882.97,-422.01 926.8,-405.25 956.82,-392.24"/>
<polygon fill="saddlebrown" stroke="saddlebrown" points="958.1,-395.5 965.84,-388.26 955.27,-389.1 958.1,-395.5"/>
</a>
</g>
</g>
<!-- (*github.com/guild&#45;framework/guild&#45;core/pkg/providers/ollama.Client).ListModels -->
<g id="node10" class="node">
<title>(*github.com/guild&#45;framework/guild&#45;core/pkg/providers/ollama.Client).ListModels</title>
<g id="a_node10"><a xlink:title="(*github.com/guild&#45;framework/guild&#45;core/pkg/providers/ollama.Client).ListModels | defined in client.go:341&#10;at client.go:351: calling [(*github.com/guild&#45;framework/guild&#45;core/pkg/providers/ollama.Client).ListModels$1]">
<path fill="lightblue" stroke="black" stroke-width="1.5" d="M174.04,-449C174.04,-449 36.25,-449 36.25,-449 30.25,-449 24.25,-443 24.25,-437 24.25,-437 24.25,-425 24.25,-425 24.25,-419 30.25,-413 36.25,-413 36.25,-413 174.04,-413 174.04,-413 180.04,-413 186.04,-419 186.04,-425 186.04,-425 186.04,-437 186.04,-437 186.04,-443 180.04,-449 174.04,-449"/>
<text xml:space="preserve" text-anchor="middle" x="105.14" y="-426.32" font-family="Verdana" font-size="14.00">(*Client).ListModels</text>
</a>
</g>
</g>
<!-- (*github.com/guild&#45;framework/guild&#45;core/pkg/providers/ollama.Client).ListModels$1 -->
<g id="node11" class="node">
<title>(*github.com/guild&#45;framework/guild&#45;core/pkg/providers/ollama.Client).ListModels$1</title>
<g id="a_node11"><a xlink:title="(*github.com/guild&#45;framework/guild&#45;core/pkg/providers/ollama.Client).ListModels$1 | defined in client.go:351">
<polygon fill="lightblue" stroke="black" stroke-dasharray="1,5" points="464.33,-449 284.54,-449 284.54,-413 464.33,-413 464.33,-449"/>
<text xml:space="preserve" text-anchor="middle" x="374.43" y="-426.32" font-family="Verdana" font-size="14.00">(*Client).ListModels$1</text>
</a>
</g>
</g>
<!-- (*github.com/guild&#45;framework/guild&#45;core/pkg/providers/ollama.Client).ListModels&#45;&gt;(*github.com/guild&#45;framework/guild&#45;core/pkg/providers/ollama.Client).ListModels$1 -->
<g id="edge16" class="edge">
<title>(*github.com/guild&#45;framework/guild&#45;core/pkg/providers/ollama.Client).ListModels&#45;&gt;(*github.com/guild&#45;framework/guild&#45;core/pkg/providers/ollama.Client).ListModels$1</title>
<g id="a_edge16"><a xlink:title="at client.go:351: calling [(*github.com/guild&#45;framework/guild&#45;core/pkg/providers/ollama.Client).ListModels$1]">
<path fill="none" stroke="black" d="M186.7,-431C208.2,-431 231.88,-431 254.96,-431"/>
<polygon fill="black" stroke="black" points="272.66,-434.5 282.66,-431 272.66,-427.5 272.66,-434.5"/>
<polyline fill="none" stroke="black" points="272.16,-431 267.16,-431"/>
<polygon fill="none" stroke="black" points="254.26,-431 260.26,-427 266.26,-431 260.26,-435 254.26,-431"/>
</a>
</g>
</g>
</g>
</svg>
