<?xml version="1.0" encoding="UTF-8" standalone="no"?>
<!DOCTYPE svg PUBLIC "-//W3C//DTD SVG 1.1//EN"
 "http://www.w3.org/Graphics/SVG/1.1/DTD/svg11.dtd">
<!-- Generated by graphviz version 14.1.1 (20251213.1925)
 -->
<!-- Title: gocallvis Pages: 1 -->
<svg width="1082pt" height="537pt"
 viewBox="0.00 0.00 1082.00 537.00" xmlns="http://www.w3.org/2000/svg" xmlns:xlink="http://www.w3.org/1999/xlink">
<g id="graph0" class="graph" transform="scale(1 1) rotate(0) translate(0 536.66)">
<title>gocallvis</title>
<polygon fill="lightgray" stroke="none" points="0,0 0,-536.66 1082.41,-536.66 1082.41,0 0,0"/>
<g id="clust1" class="cluster">
<title>cluster_focus</title>
<polygon fill="#e6ecfa" stroke="black" stroke-width="0.5" points="8,-14.66 8,-528.66 1074.41,-528.66 1074.41,-14.66 8,-14.66"/>
<text xml:space="preserve" text-anchor="middle" x="541.2" y="-507.56" font-family="Arial" font-size="18.00">writers</text>
</g>
<g id="clust2" class="cluster">
<title>cluster_github.com/guild&#45;framework/guild&#45;core/pkg/gerror</title>
<g id="a_clust2"><a xlink:href="/?f=github.com/guild-framework/guild-core/pkg/gerror" xlink:title="package: github.com/guild&#45;framework/guild&#45;core/pkg/gerror">
<polygon fill="lightyellow" stroke="black" stroke-width="0.8" points="851.12,-250.66 851.12,-452.66 1066.41,-452.66 1066.41,-250.66 851.12,-250.66"/>
<text xml:space="preserve" text-anchor="middle" x="958.76" y="-433.46" font-family="Tahoma bold" font-size="16.00">gerror</text>
</a>
</g>
</g>
<!-- (*github.com/guild&#45;framework/guild&#45;core/pkg/logging/writers.RotatingWriter).openFile -->
<g id="node1" class="node">
<title>(*github.com/guild&#45;framework/guild&#45;core/pkg/logging/writers.RotatingWriter).openFile</title>
<g id="a_node1"><a xlink:title="(*github.com/guild&#45;framework/guild&#45;core/pkg/logging/writers.RotatingWriter).openFile | defined in rotating.go:99&#10;at rotating.go:110: calling [github.com/guild&#45;framework/guild&#45;core/pkg/gerror.Wrap]&#10;at rotating.go:111: calling [(*github.com/guild&#45;framework/guild&#45;core/pkg/gerror.GuildError).WithDetails]">
<path fill="lightblue" stroke="black" stroke-width="0.5" d="M754.62,-261.66C754.62,-261.66 569.58,-261.66 569.58,-261.66 563.58,-261.66 557.58,-255.66 557.58,-249.66 557.58,-249.66 557.58,-237.66 557.58,-237.66 557.58,-231.66 563.58,-225.66 569.58,-225.66 569.58,-225.66 754.62,-225.66 754.62,-225.66 760.62,-225.66 766.62,-231.66 766.62,-237.66 766.62,-237.66 766.62,-249.66 766.62,-249.66 766.62,-255.66 760.62,-261.66 754.62,-261.66"/>
<text xml:space="preserve" text-anchor="middle" x="662.1" y="-238.98" font-family="Verdana" font-size="14.00">(*RotatingWriter).openFile</text>
</a>
</g>
</g>
<!-- github.com/guild&#45;framework/guild&#45;core/pkg/gerror.Wrap -->
<g id="node10" class="node">
<title>github.com/guild&#45;framework/guild&#45;core/pkg/gerror.Wrap</title>
<g id="a_node10"><a xlink:title="github.com/guild&#45;framework/guild&#45;core/pkg/gerror.Wrap | defined in errors.go:223">
<path fill="moccasin" stroke="black" stroke-width="1.5" d="M976.66,-294.66C976.66,-294.66 940.87,-294.66 940.87,-294.66 934.87,-294.66 928.87,-288.66 928.87,-282.66 928.87,-282.66 928.87,-270.66 928.87,-270.66 928.87,-264.66 934.87,-258.66 940.87,-258.66 940.87,-258.66 976.66,-258.66 976.66,-258.66 982.66,-258.66 988.66,-264.66 988.66,-270.66 988.66,-270.66 988.66,-282.66 988.66,-282.66 988.66,-288.66 982.66,-294.66 976.66,-294.66"/>
<text xml:space="preserve" text-anchor="middle" x="958.76" y="-271.98" font-family="Verdana" font-size="14.00">Wrap</text>
</a>
</g>
</g>
<!-- (*github.com/guild&#45;framework/guild&#45;core/pkg/logging/writers.RotatingWriter).openFile&#45;&gt;github.com/guild&#45;framework/guild&#45;core/pkg/gerror.Wrap -->
<g id="edge6" class="edge">
<title>(*github.com/guild&#45;framework/guild&#45;core/pkg/logging/writers.RotatingWriter).openFile&#45;&gt;github.com/guild&#45;framework/guild&#45;core/pkg/gerror.Wrap</title>
<g id="a_edge6"><a xlink:title="at rotating.go:110: calling [github.com/guild&#45;framework/guild&#45;core/pkg/gerror.Wrap]">
<path fill="none" stroke="saddlebrown" d="M718.14,-225.44C749.03,-218.2 787.75,-214.2 820.12,-226.66 837.45,-233.32 834.56,-246.26 851.12,-254.66 871.51,-264.99 896.44,-270.47 917.06,-273.38"/>
<polygon fill="saddlebrown" stroke="saddlebrown" points="916.48,-276.83 926.83,-274.59 917.34,-269.88 916.48,-276.83"/>
</a>
</g>
</g>
<!-- (*github.com/guild&#45;framework/guild&#45;core/pkg/gerror.GuildError).WithDetails -->
<g id="node11" class="node">
<title>(*github.com/guild&#45;framework/guild&#45;core/pkg/gerror.GuildError).WithDetails</title>
<g id="a_node11"><a xlink:title="(*github.com/guild&#45;framework/guild&#45;core/pkg/gerror.GuildError).WithDetails | defined in errors.go:147">
<path fill="moccasin" stroke="black" stroke-width="1.5" d="M1046.41,-355.66C1046.41,-355.66 871.12,-355.66 871.12,-355.66 865.12,-355.66 859.12,-349.66 859.12,-343.66 859.12,-343.66 859.12,-331.66 859.12,-331.66 859.12,-325.66 865.12,-319.66 871.12,-319.66 871.12,-319.66 1046.41,-319.66 1046.41,-319.66 1052.41,-319.66 1058.41,-325.66 1058.41,-331.66 1058.41,-331.66 1058.41,-343.66 1058.41,-343.66 1058.41,-349.66 1052.41,-355.66 1046.41,-355.66"/>
<text xml:space="preserve" text-anchor="middle" x="958.76" y="-332.98" font-family="Verdana" font-size="14.00">(*GuildError).WithDetails</text>
</a>
</g>
</g>
<!-- (*github.com/guild&#45;framework/guild&#45;core/pkg/logging/writers.RotatingWriter).openFile&#45;&gt;(*github.com/guild&#45;framework/guild&#45;core/pkg/gerror.GuildError).WithDetails -->
<g id="edge17" class="edge">
<title>(*github.com/guild&#45;framework/guild&#45;core/pkg/logging/writers.RotatingWriter).openFile&#45;&gt;(*github.com/guild&#45;framework/guild&#45;core/pkg/gerror.GuildError).WithDetails</title>
<g id="a_edge17"><a xlink:title="at rotating.go:111: calling [(*github.com/guild&#45;framework/guild&#45;core/pkg/gerror.GuildError).WithDetails]">
<path fill="none" stroke="saddlebrown" d="M713.93,-261.79C751.62,-275.03 804.36,-293.13 851.12,-307.66 859.8,-310.35 868.92,-313.08 878.01,-315.73"/>
<polygon fill="saddlebrown" stroke="saddlebrown" points="877.02,-319.08 887.59,-318.49 878.96,-312.36 877.02,-319.08"/>
</a>
</g>
</g>
<!-- (*github.com/guild&#45;framework/guild&#45;core/pkg/logging/writers.MultiWriter).Close -->
<g id="node2" class="node">
<title>(*github.com/guild&#45;framework/guild&#45;core/pkg/logging/writers.MultiWriter).Close</title>
<g id="a_node2"><a xlink:title="(*github.com/guild&#45;framework/guild&#45;core/pkg/logging/writers.MultiWriter).Close | defined in multi.go:69&#10;at multi.go:84: calling [(*github.com/guild&#45;framework/guild&#45;core/pkg/gerror.GuildError).WithDetails]&#10;at multi.go:83: calling [github.com/guild&#45;framework/guild&#45;core/pkg/gerror.New]">
<path fill="lightblue" stroke="black" stroke-width="1.5" d="M731.74,-403.66C731.74,-403.66 592.45,-403.66 592.45,-403.66 586.45,-403.66 580.45,-397.66 580.45,-391.66 580.45,-391.66 580.45,-379.66 580.45,-379.66 580.45,-373.66 586.45,-367.66 592.45,-367.66 592.45,-367.66 731.74,-367.66 731.74,-367.66 737.74,-367.66 743.74,-373.66 743.74,-379.66 743.74,-379.66 743.74,-391.66 743.74,-391.66 743.74,-397.66 737.74,-403.66 731.74,-403.66"/>
<text xml:space="preserve" text-anchor="middle" x="662.1" y="-380.98" font-family="Verdana" font-size="14.00">(*MultiWriter).Close</text>
</a>
</g>
</g>
<!-- (*github.com/guild&#45;framework/guild&#45;core/pkg/logging/writers.MultiWriter).Close&#45;&gt;(*github.com/guild&#45;framework/guild&#45;core/pkg/gerror.GuildError).WithDetails -->
<g id="edge7" class="edge">
<title>(*github.com/guild&#45;framework/guild&#45;core/pkg/logging/writers.MultiWriter).Close&#45;&gt;(*github.com/guild&#45;framework/guild&#45;core/pkg/gerror.GuildError).WithDetails</title>
<g id="a_edge7"><a xlink:title="at multi.go:84: calling [(*github.com/guild&#45;framework/guild&#45;core/pkg/gerror.GuildError).WithDetails]">
<path fill="none" stroke="saddlebrown" d="M744.4,-372.41C776.29,-367.22 813.4,-361.17 847.63,-355.6"/>
<polygon fill="saddlebrown" stroke="saddlebrown" points="847.83,-359.11 857.14,-354.05 846.71,-352.2 847.83,-359.11"/>
</a>
</g>
</g>
<!-- github.com/guild&#45;framework/guild&#45;core/pkg/gerror.New -->
<g id="node12" class="node">
<title>github.com/guild&#45;framework/guild&#45;core/pkg/gerror.New</title>
<g id="a_node12"><a xlink:title="github.com/guild&#45;framework/guild&#45;core/pkg/gerror.New | defined in errors.go:190">
<path fill="moccasin" stroke="black" stroke-width="1.5" d="M973.76,-416.66C973.76,-416.66 943.76,-416.66 943.76,-416.66 937.76,-416.66 931.76,-410.66 931.76,-404.66 931.76,-404.66 931.76,-392.66 931.76,-392.66 931.76,-386.66 937.76,-380.66 943.76,-380.66 943.76,-380.66 973.76,-380.66 973.76,-380.66 979.76,-380.66 985.76,-386.66 985.76,-392.66 985.76,-392.66 985.76,-404.66 985.76,-404.66 985.76,-410.66 979.76,-416.66 973.76,-416.66"/>
<text xml:space="preserve" text-anchor="middle" x="958.76" y="-393.98" font-family="Verdana" font-size="14.00">New</text>
</a>
</g>
</g>
<!-- (*github.com/guild&#45;framework/guild&#45;core/pkg/logging/writers.MultiWriter).Close&#45;&gt;github.com/guild&#45;framework/guild&#45;core/pkg/gerror.New -->
<g id="edge13" class="edge">
<title>(*github.com/guild&#45;framework/guild&#45;core/pkg/logging/writers.MultiWriter).Close&#45;&gt;github.com/guild&#45;framework/guild&#45;core/pkg/gerror.New</title>
<g id="a_edge13"><a xlink:title="at multi.go:83: calling [github.com/guild&#45;framework/guild&#45;core/pkg/gerror.New]">
<path fill="none" stroke="saddlebrown" d="M744.4,-389.24C801.67,-391.77 875.72,-395.04 919.82,-396.98"/>
<polygon fill="saddlebrown" stroke="saddlebrown" points="919.51,-400.47 929.65,-397.41 919.81,-393.48 919.51,-400.47"/>
</a>
</g>
</g>
<!-- (*github.com/guild&#45;framework/guild&#45;core/pkg/logging/writers.RotatingWriter).cleanupLoop -->
<g id="node3" class="node">
<title>(*github.com/guild&#45;framework/guild&#45;core/pkg/logging/writers.RotatingWriter).cleanupLoop</title>
<g id="a_node3"><a xlink:title="(*github.com/guild&#45;framework/guild&#45;core/pkg/logging/writers.RotatingWriter).cleanupLoop | defined in rotating.go:252&#10;at rotating.go:257: calling [(*github.com/guild&#45;framework/guild&#45;core/pkg/logging/writers.RotatingWriter).cleanup]">
<path fill="lightblue" stroke="black" stroke-width="0.5" d="M769.24,-173.66C769.24,-173.66 554.95,-173.66 554.95,-173.66 548.95,-173.66 542.95,-167.66 542.95,-161.66 542.95,-161.66 542.95,-149.66 542.95,-149.66 542.95,-143.66 548.95,-137.66 554.95,-137.66 554.95,-137.66 769.24,-137.66 769.24,-137.66 775.24,-137.66 781.24,-143.66 781.24,-149.66 781.24,-149.66 781.24,-161.66 781.24,-161.66 781.24,-167.66 775.24,-173.66 769.24,-173.66"/>
<text xml:space="preserve" text-anchor="middle" x="662.1" y="-150.98" font-family="Verdana" font-size="14.00">(*RotatingWriter).cleanupLoop</text>
</a>
</g>
</g>
<!-- (*github.com/guild&#45;framework/guild&#45;core/pkg/logging/writers.RotatingWriter).cleanup -->
<g id="node4" class="node">
<title>(*github.com/guild&#45;framework/guild&#45;core/pkg/logging/writers.RotatingWriter).cleanup</title>
<g id="a_node4"><a xlink:title="(*github.com/guild&#45;framework/guild&#45;core/pkg/logging/writers.RotatingWriter).cleanup | defined in rotating.go:196">
<path fill="lightblue" stroke="black" stroke-width="0.5" d="M1049.41,-146.66C1049.41,-146.66 868.12,-146.66 868.12,-146.66 862.12,-146.66 856.12,-140.66 856.12,-134.66 856.12,-134.66 856.12,-122.66 856.12,-122.66 856.12,-116.66 862.12,-110.66 868.12,-110.66 868.12,-110.66 1049.41,-110.66 1049.41,-110.66 1055.41,-110.66 1061.41,-116.66 1061.41,-122.66 1061.41,-122.66 1061.41,-134.66 1061.41,-134.66 1061.41,-140.66 1055.41,-146.66 1049.41,-146.66"/>
<text xml:space="preserve" text-anchor="middle" x="958.76" y="-123.98" font-family="Verdana" font-size="14.00">(*RotatingWriter).cleanup</text>
</a>
</g>
</g>
<!-- (*github.com/guild&#45;framework/guild&#45;core/pkg/logging/writers.RotatingWriter).cleanupLoop&#45;&gt;(*github.com/guild&#45;framework/guild&#45;core/pkg/logging/writers.RotatingWriter).cleanup -->
<g id="edge18" class="edge">
<title>(*github.com/guild&#45;framework/guild&#45;core/pkg/logging/writers.RotatingWriter).cleanupLoop&#45;&gt;(*github.com/guild&#45;framework/guild&#45;core/pkg/logging/writers.RotatingWriter).cleanup</title>
<g id="a_edge18"><a xlink:title="at rotating.go:257: calling [(*github.com/guild&#45;framework/guild&#45;core/pkg/logging/writers.RotatingWriter).cleanup]">
<path fill="none" stroke="black" d="M781.25,-144.83C802.19,-142.91 823.95,-140.92 844.75,-139.01"/>
<polygon fill="black" stroke="black" points="845.04,-142.5 854.68,-138.1 844.4,-135.53 845.04,-142.5"/>
</a>
</g>
</g>
<!-- github.com/guild&#45;framework/guild&#45;core/pkg/logging/writers.NewRotatingWriter -->
<g id="node5" class="node">
<title>github.com/guild&#45;framework/guild&#45;core/pkg/logging/writers.NewRotatingWriter</title>
<g id="a_node5"><a xlink:title="github.com/guild&#45;framework/guild&#45;core/pkg/logging/writers.NewRotatingWriter | defined in rotating.go:31&#10;at rotating.go:55: calling [(*github.com/guild&#45;framework/guild&#45;core/pkg/logging/writers.RotatingWriter).openFile]&#10;at rotating.go:33: calling [github.com/guild&#45;framework/guild&#45;core/pkg/gerror.New]&#10;at rotating.go:41: calling [github.com/guild&#45;framework/guild&#45;core/pkg/gerror.Wrap]&#10;at rotating.go:42: calling [(*github.com/guild&#45;framework/guild&#45;core/pkg/gerror.GuildError).WithDetails]&#10;at rotating.go:60: calling [(*github.com/guild&#45;framework/guild&#45;core/pkg/logging/writers.RotatingWriter).cleanupLoop]">
<path fill="lightblue" stroke="black" stroke-width="1.5" d="M437.33,-305.66C437.33,-305.66 307.04,-305.66 307.04,-305.66 301.04,-305.66 295.04,-299.66 295.04,-293.66 295.04,-293.66 295.04,-281.66 295.04,-281.66 295.04,-275.66 301.04,-269.66 307.04,-269.66 307.04,-269.66 437.33,-269.66 437.33,-269.66 443.33,-269.66 449.33,-275.66 449.33,-281.66 449.33,-281.66 449.33,-293.66 449.33,-293.66 449.33,-299.66 443.33,-305.66 437.33,-305.66"/>
<text xml:space="preserve" text-anchor="middle" x="372.18" y="-282.98" font-family="Verdana" font-size="14.00">NewRotatingWriter</text>
</a>
</g>
</g>
<!-- github.com/guild&#45;framework/guild&#45;core/pkg/logging/writers.NewRotatingWriter&#45;&gt;(*github.com/guild&#45;framework/guild&#45;core/pkg/logging/writers.RotatingWriter).openFile -->
<g id="edge1" class="edge">
<title>github.com/guild&#45;framework/guild&#45;core/pkg/logging/writers.NewRotatingWriter&#45;&gt;(*github.com/guild&#45;framework/guild&#45;core/pkg/logging/writers.RotatingWriter).openFile</title>
<g id="a_edge1"><a xlink:title="at rotating.go:55: calling [(*github.com/guild&#45;framework/guild&#45;core/pkg/logging/writers.RotatingWriter).openFile]">
<path fill="none" stroke="black" d="M449.96,-275.92C479.47,-271.41 513.83,-266.16 546.15,-261.22"/>
<polygon fill="black" stroke="black" points="546.63,-264.69 555.99,-259.72 545.57,-257.77 546.63,-264.69"/>
</a>
</g>
</g>
<!-- github.com/guild&#45;framework/guild&#45;core/pkg/logging/writers.NewRotatingWriter&#45;&gt;(*github.com/guild&#45;framework/guild&#45;core/pkg/logging/writers.RotatingWriter).cleanupLoop -->
<g id="edge19" class="edge">
<title>github.com/guild&#45;framework/guild&#45;core/pkg/logging/writers.NewRotatingWriter&#45;&gt;(*github.com/guild&#45;framework/guild&#45;core/pkg/logging/writers.RotatingWriter).cleanupLoop</title>
<g id="a_edge19"><a xlink:title="at rotating.go:60: calling [(*github.com/guild&#45;framework/guild&#45;core/pkg/logging/writers.RotatingWriter).cleanupLoop]">
<path fill="none" stroke="black" d="M413.83,-269.02C461.89,-246.98 542.45,-210.05 598.5,-184.36"/>
<polygon fill="black" stroke="black" points="612.58,-181.75 620.21,-174.4 609.67,-175.39 612.58,-181.75"/>
<polyline fill="none" stroke="black" points="610.67,-178.78 606.12,-180.86"/>
<ellipse fill="none" stroke="black" cx="602.03" cy="-182.74" rx="4" ry="4"/>
</a>
</g>
</g>
<!-- github.com/guild&#45;framework/guild&#45;core/pkg/logging/writers.NewRotatingWriter&#45;&gt;github.com/guild&#45;framework/guild&#45;core/pkg/gerror.Wrap -->
<g id="edge9" class="edge">
<title>github.com/guild&#45;framework/guild&#45;core/pkg/logging/writers.NewRotatingWriter&#45;&gt;github.com/guild&#45;framework/guild&#45;core/pkg/gerror.Wrap</title>
<g id="a_edge9"><a xlink:title="at rotating.go:41: calling [github.com/guild&#45;framework/guild&#45;core/pkg/gerror.Wrap]">
<path fill="none" stroke="saddlebrown" d="M449.91,-286.21C575.39,-283.85 820.24,-279.24 917.01,-277.42"/>
<polygon fill="saddlebrown" stroke="saddlebrown" points="916.88,-280.93 926.81,-277.24 916.74,-273.93 916.88,-280.93"/>
</a>
</g>
</g>
<!-- github.com/guild&#45;framework/guild&#45;core/pkg/logging/writers.NewRotatingWriter&#45;&gt;(*github.com/guild&#45;framework/guild&#45;core/pkg/gerror.GuildError).WithDetails -->
<g id="edge14" class="edge">
<title>github.com/guild&#45;framework/guild&#45;core/pkg/logging/writers.NewRotatingWriter&#45;&gt;(*github.com/guild&#45;framework/guild&#45;core/pkg/gerror.GuildError).WithDetails</title>
<g id="a_edge14"><a xlink:title="at rotating.go:42: calling [(*github.com/guild&#45;framework/guild&#45;core/pkg/gerror.GuildError).WithDetails]">
<path fill="none" stroke="saddlebrown" d="M449.91,-294.22C551.38,-302.9 730.91,-318.25 847.07,-328.19"/>
<polygon fill="saddlebrown" stroke="saddlebrown" points="846.69,-331.67 856.95,-329.03 847.28,-324.69 846.69,-331.67"/>
</a>
</g>
</g>
<!-- github.com/guild&#45;framework/guild&#45;core/pkg/logging/writers.NewRotatingWriter&#45;&gt;github.com/guild&#45;framework/guild&#45;core/pkg/gerror.New -->
<g id="edge8" class="edge">
<title>github.com/guild&#45;framework/guild&#45;core/pkg/logging/writers.NewRotatingWriter&#45;&gt;github.com/guild&#45;framework/guild&#45;core/pkg/gerror.New</title>
<g id="a_edge8"><a xlink:title="at rotating.go:33: calling [github.com/guild&#45;framework/guild&#45;core/pkg/gerror.New]">
<path fill="none" stroke="saddlebrown" d="M382.57,-306.36C404.07,-346.81 461.22,-441.65 541.08,-477.66 639.15,-521.87 677.96,-500.33 783.12,-477.66 833.75,-466.74 887.37,-439.9 921.63,-420.53"/>
<polygon fill="saddlebrown" stroke="saddlebrown" points="922.95,-423.8 929.88,-415.79 919.46,-417.74 922.95,-423.8"/>
</a>
</g>
</g>
<!-- (*github.com/guild&#45;framework/guild&#45;core/pkg/logging/writers.RotatingWriter).rotate -->
<g id="node6" class="node">
<title>(*github.com/guild&#45;framework/guild&#45;core/pkg/logging/writers.RotatingWriter).rotate</title>
<g id="a_node6"><a xlink:title="(*github.com/guild&#45;framework/guild&#45;core/pkg/logging/writers.RotatingWriter).rotate | defined in rotating.go:119&#10;at rotating.go:123: calling [github.com/guild&#45;framework/guild&#45;core/pkg/gerror.Wrap]&#10;at rotating.go:137: calling [github.com/guild&#45;framework/guild&#45;core/pkg/gerror.Wrap]&#10;at rotating.go:148: calling [(*github.com/guild&#45;framework/guild&#45;core/pkg/logging/writers.RotatingWriter).openFile]&#10;at rotating.go:144: calling [(*github.com/guild&#45;framework/guild&#45;core/pkg/logging/writers.RotatingWriter).compressFile]&#10;at rotating.go:156: calling [(*github.com/guild&#45;framework/guild&#45;core/pkg/logging/writers.RotatingWriter).cleanup]&#10;at rotating.go:138: calling [(*github.com/guild&#45;framework/guild&#45;core/pkg/gerror.GuildError).WithDetails]&#10;at rotating.go:139: calling [(*github.com/guild&#45;framework/guild&#45;core/pkg/gerror.GuildError).WithDetails]">
<path fill="lightblue" stroke="black" stroke-width="0.5" d="M456.08,-163.66C456.08,-163.66 288.29,-163.66 288.29,-163.66 282.29,-163.66 276.29,-157.66 276.29,-151.66 276.29,-151.66 276.29,-139.66 276.29,-139.66 276.29,-133.66 282.29,-127.66 288.29,-127.66 288.29,-127.66 456.08,-127.66 456.08,-127.66 462.08,-127.66 468.08,-133.66 468.08,-139.66 468.08,-139.66 468.08,-151.66 468.08,-151.66 468.08,-157.66 462.08,-163.66 456.08,-163.66"/>
<text xml:space="preserve" text-anchor="middle" x="372.18" y="-140.98" font-family="Verdana" font-size="14.00">(*RotatingWriter).rotate</text>
</a>
</g>
</g>
<!-- (*github.com/guild&#45;framework/guild&#45;core/pkg/logging/writers.RotatingWriter).rotate&#45;&gt;(*github.com/guild&#45;framework/guild&#45;core/pkg/logging/writers.RotatingWriter).openFile -->
<g id="edge3" class="edge">
<title>(*github.com/guild&#45;framework/guild&#45;core/pkg/logging/writers.RotatingWriter).rotate&#45;&gt;(*github.com/guild&#45;framework/guild&#45;core/pkg/logging/writers.RotatingWriter).openFile</title>
<g id="a_edge3"><a xlink:title="at rotating.go:148: calling [(*github.com/guild&#45;framework/guild&#45;core/pkg/logging/writers.RotatingWriter).openFile]">
<path fill="none" stroke="black" d="M421.09,-163.77C454.56,-176.26 500.36,-192.99 541.08,-206.66 556.53,-211.84 573.19,-217.15 589.04,-222.07"/>
<polygon fill="black" stroke="black" points="587.82,-225.36 598.41,-224.97 589.89,-218.67 587.82,-225.36"/>
</a>
</g>
</g>
<!-- (*github.com/guild&#45;framework/guild&#45;core/pkg/logging/writers.RotatingWriter).rotate&#45;&gt;(*github.com/guild&#45;framework/guild&#45;core/pkg/logging/writers.RotatingWriter).cleanup -->
<g id="edge11" class="edge">
<title>(*github.com/guild&#45;framework/guild&#45;core/pkg/logging/writers.RotatingWriter).rotate&#45;&gt;(*github.com/guild&#45;framework/guild&#45;core/pkg/logging/writers.RotatingWriter).cleanup</title>
<g id="a_edge11"><a xlink:title="at rotating.go:156: calling [(*github.com/guild&#45;framework/guild&#45;core/pkg/logging/writers.RotatingWriter).cleanup]">
<path fill="none" stroke="black" d="M468.02,-132.37C491.82,-129.58 517.34,-127.06 541.08,-125.66 638.22,-119.89 748.32,-121.01 830.94,-123.37"/>
<polygon fill="black" stroke="black" points="844.59,-127.3 854.69,-124.11 844.8,-120.3 844.59,-127.3"/>
<polyline fill="none" stroke="black" points="844.19,-123.79 839.2,-123.63"/>
<ellipse fill="none" stroke="black" cx="834.7" cy="-123.49" rx="4" ry="4"/>
</a>
</g>
</g>
<!-- (*github.com/guild&#45;framework/guild&#45;core/pkg/logging/writers.RotatingWriter).compressFile -->
<g id="node7" class="node">
<title>(*github.com/guild&#45;framework/guild&#45;core/pkg/logging/writers.RotatingWriter).compressFile</title>
<g id="a_node7"><a xlink:title="(*github.com/guild&#45;framework/guild&#45;core/pkg/logging/writers.RotatingWriter).compressFile | defined in rotating.go:162">
<path fill="lightblue" stroke="black" stroke-width="0.5" d="M771.12,-85.66C771.12,-85.66 553.08,-85.66 553.08,-85.66 547.08,-85.66 541.08,-79.66 541.08,-73.66 541.08,-73.66 541.08,-61.66 541.08,-61.66 541.08,-55.66 547.08,-49.66 553.08,-49.66 553.08,-49.66 771.12,-49.66 771.12,-49.66 777.12,-49.66 783.12,-55.66 783.12,-61.66 783.12,-61.66 783.12,-73.66 783.12,-73.66 783.12,-79.66 777.12,-85.66 771.12,-85.66"/>
<text xml:space="preserve" text-anchor="middle" x="662.1" y="-62.98" font-family="Verdana" font-size="14.00">(*RotatingWriter).compressFile</text>
</a>
</g>
</g>
<!-- (*github.com/guild&#45;framework/guild&#45;core/pkg/logging/writers.RotatingWriter).rotate&#45;&gt;(*github.com/guild&#45;framework/guild&#45;core/pkg/logging/writers.RotatingWriter).compressFile -->
<g id="edge10" class="edge">
<title>(*github.com/guild&#45;framework/guild&#45;core/pkg/logging/writers.RotatingWriter).rotate&#45;&gt;(*github.com/guild&#45;framework/guild&#45;core/pkg/logging/writers.RotatingWriter).compressFile</title>
<g id="a_edge10"><a xlink:title="at rotating.go:144: calling [(*github.com/guild&#45;framework/guild&#45;core/pkg/logging/writers.RotatingWriter).compressFile]">
<path fill="none" stroke="black" d="M428.33,-127.41C451.6,-119.97 479.05,-111.52 504.08,-104.66 520.23,-100.23 537.4,-95.85 554.23,-91.74"/>
<polygon fill="black" stroke="black" points="568.53,-91.92 577.44,-86.19 566.9,-85.12 568.53,-91.92"/>
<polyline fill="none" stroke="black" points="567.23,-88.64 562.37,-89.8"/>
<ellipse fill="none" stroke="black" cx="557.99" cy="-90.85" rx="4" ry="4"/>
</a>
</g>
</g>
<!-- (*github.com/guild&#45;framework/guild&#45;core/pkg/logging/writers.RotatingWriter).rotate&#45;&gt;github.com/guild&#45;framework/guild&#45;core/pkg/gerror.Wrap -->
<g id="edge2" class="edge">
<title>(*github.com/guild&#45;framework/guild&#45;core/pkg/logging/writers.RotatingWriter).rotate&#45;&gt;github.com/guild&#45;framework/guild&#45;core/pkg/gerror.Wrap</title>
<g id="a_edge2"><a xlink:title="at rotating.go:123: calling [github.com/guild&#45;framework/guild&#45;core/pkg/gerror.Wrap]&#10;at rotating.go:137: calling [github.com/guild&#45;framework/guild&#45;core/pkg/gerror.Wrap]">
<path fill="none" stroke="saddlebrown" d="M439.36,-163.89C470.1,-171.83 507.25,-180.66 541.08,-186.66 664.1,-208.44 711.04,-159.75 820.12,-220.66 837.97,-230.62 833.35,-244.54 851.12,-254.66 871.13,-266.04 896.23,-271.58 917.06,-274.25"/>
<polygon fill="saddlebrown" stroke="saddlebrown" points="916.61,-277.72 926.93,-275.32 917.37,-270.76 916.61,-277.72"/>
</a>
</g>
</g>
<!-- (*github.com/guild&#45;framework/guild&#45;core/pkg/logging/writers.RotatingWriter).rotate&#45;&gt;(*github.com/guild&#45;framework/guild&#45;core/pkg/gerror.GuildError).WithDetails -->
<g id="edge15" class="edge">
<title>(*github.com/guild&#45;framework/guild&#45;core/pkg/logging/writers.RotatingWriter).rotate&#45;&gt;(*github.com/guild&#45;framework/guild&#45;core/pkg/gerror.GuildError).WithDetails</title>
<g id="a_edge15"><a xlink:title="at rotating.go:138: calling [(*github.com/guild&#45;framework/guild&#45;core/pkg/gerror.GuildError).WithDetails]&#10;at rotating.go:139: calling [(*github.com/guild&#45;framework/guild&#45;core/pkg/gerror.GuildError).WithDetails]">
<path fill="none" stroke="saddlebrown" d="M392.48,-127.83C421.88,-102.01 480.89,-55.34 541.08,-37.66 644.29,-7.33 698.27,28.47 783.12,-37.66 880.72,-113.73 764.83,-218.96 851.12,-307.66 852.86,-309.45 854.7,-311.13 856.63,-312.72"/>
<polygon fill="saddlebrown" stroke="saddlebrown" points="854.15,-315.25 864.33,-318.2 858.21,-309.55 854.15,-315.25"/>
</a>
</g>
</g>
<!-- (*github.com/guild&#45;framework/guild&#45;core/pkg/logging/writers.RotatingWriter).Write -->
<g id="node8" class="node">
<title>(*github.com/guild&#45;framework/guild&#45;core/pkg/logging/writers.RotatingWriter).Write</title>
<g id="a_node8"><a xlink:title="(*github.com/guild&#45;framework/guild&#45;core/pkg/logging/writers.RotatingWriter).Write | defined in rotating.go:66&#10;at rotating.go:72: calling [(*github.com/guild&#45;framework/guild&#45;core/pkg/logging/writers.RotatingWriter).rotate]&#10;at rotating.go:73: calling [github.com/guild&#45;framework/guild&#45;core/pkg/gerror.Wrap]&#10;at rotating.go:80: calling [github.com/guild&#45;framework/guild&#45;core/pkg/gerror.Wrap]">
<path fill="lightblue" stroke="black" stroke-width="1.5" d="M191.29,-305.66C191.29,-305.66 28,-305.66 28,-305.66 22,-305.66 16,-299.66 16,-293.66 16,-293.66 16,-281.66 16,-281.66 16,-275.66 22,-269.66 28,-269.66 28,-269.66 191.29,-269.66 191.29,-269.66 197.29,-269.66 203.29,-275.66 203.29,-281.66 203.29,-281.66 203.29,-293.66 203.29,-293.66 203.29,-299.66 197.29,-305.66 191.29,-305.66"/>
<text xml:space="preserve" text-anchor="middle" x="109.64" y="-282.98" font-family="Verdana" font-size="14.00">(*RotatingWriter).Write</text>
</a>
</g>
</g>
<!-- (*github.com/guild&#45;framework/guild&#45;core/pkg/logging/writers.RotatingWriter).Write&#45;&gt;(*github.com/guild&#45;framework/guild&#45;core/pkg/logging/writers.RotatingWriter).rotate -->
<g id="edge4" class="edge">
<title>(*github.com/guild&#45;framework/guild&#45;core/pkg/logging/writers.RotatingWriter).Write&#45;&gt;(*github.com/guild&#45;framework/guild&#45;core/pkg/logging/writers.RotatingWriter).rotate</title>
<g id="a_edge4"><a xlink:title="at rotating.go:72: calling [(*github.com/guild&#45;framework/guild&#45;core/pkg/logging/writers.RotatingWriter).rotate]">
<path fill="none" stroke="black" d="M144.97,-268.95C192.13,-243.25 276.91,-197.03 328.22,-169.07"/>
<polygon fill="black" stroke="black" points="329.58,-172.32 336.69,-164.46 326.23,-166.17 329.58,-172.32"/>
</a>
</g>
</g>
<!-- (*github.com/guild&#45;framework/guild&#45;core/pkg/logging/writers.RotatingWriter).Write&#45;&gt;github.com/guild&#45;framework/guild&#45;core/pkg/gerror.Wrap -->
<g id="edge5" class="edge">
<title>(*github.com/guild&#45;framework/guild&#45;core/pkg/logging/writers.RotatingWriter).Write&#45;&gt;github.com/guild&#45;framework/guild&#45;core/pkg/gerror.Wrap</title>
<g id="a_edge5"><a xlink:title="at rotating.go:73: calling [github.com/guild&#45;framework/guild&#45;core/pkg/gerror.Wrap]&#10;at rotating.go:80: calling [github.com/guild&#45;framework/guild&#45;core/pkg/gerror.Wrap]">
<path fill="none" stroke="saddlebrown" d="M194.06,-306.38C220.24,-311.41 249.34,-316.16 276.29,-318.66 518.89,-341.16 811.24,-300.45 917.06,-283.53"/>
<polygon fill="saddlebrown" stroke="saddlebrown" points="917.35,-287.03 926.66,-281.97 916.23,-280.12 917.35,-287.03"/>
</a>
</g>
</g>
<!-- (*github.com/guild&#45;framework/guild&#45;core/pkg/logging/writers.MultiWriter).Write -->
<g id="node9" class="node">
<title>(*github.com/guild&#45;framework/guild&#45;core/pkg/logging/writers.MultiWriter).Write</title>
<g id="a_node9"><a xlink:title="(*github.com/guild&#45;framework/guild&#45;core/pkg/logging/writers.MultiWriter).Write | defined in multi.go:24&#10;at multi.go:41: calling [(*github.com/guild&#45;framework/guild&#45;core/pkg/gerror.GuildError).WithDetails]&#10;at multi.go:40: calling [github.com/guild&#45;framework/guild&#45;core/pkg/gerror.New]">
<path fill="lightblue" stroke="black" stroke-width="1.5" d="M731.37,-464.66C731.37,-464.66 592.83,-464.66 592.83,-464.66 586.83,-464.66 580.83,-458.66 580.83,-452.66 580.83,-452.66 580.83,-440.66 580.83,-440.66 580.83,-434.66 586.83,-428.66 592.83,-428.66 592.83,-428.66 731.37,-428.66 731.37,-428.66 737.37,-428.66 743.37,-434.66 743.37,-440.66 743.37,-440.66 743.37,-452.66 743.37,-452.66 743.37,-458.66 737.37,-464.66 731.37,-464.66"/>
<text xml:space="preserve" text-anchor="middle" x="662.1" y="-441.98" font-family="Verdana" font-size="14.00">(*MultiWriter).Write</text>
</a>
</g>
</g>
<!-- (*github.com/guild&#45;framework/guild&#45;core/pkg/logging/writers.MultiWriter).Write&#45;&gt;(*github.com/guild&#45;framework/guild&#45;core/pkg/gerror.GuildError).WithDetails -->
<g id="edge12" class="edge">
<title>(*github.com/guild&#45;framework/guild&#45;core/pkg/logging/writers.MultiWriter).Write&#45;&gt;(*github.com/guild&#45;framework/guild&#45;core/pkg/gerror.GuildError).WithDetails</title>
<g id="a_edge12"><a xlink:title="at multi.go:41: calling [(*github.com/guild&#45;framework/guild&#45;core/pkg/gerror.GuildError).WithDetails]">
<path fill="none" stroke="saddlebrown" d="M743.92,-430.83C757.3,-426.97 770.82,-422.29 783.12,-416.66 816.75,-401.24 817.79,-384.71 851.12,-368.66 857.45,-365.61 864.13,-362.8 870.95,-360.23"/>
<polygon fill="saddlebrown" stroke="saddlebrown" points="872.06,-363.54 880.3,-356.88 869.71,-356.95 872.06,-363.54"/>
</a>
</g>
</g>
<!-- (*github.com/guild&#45;framework/guild&#45;core/pkg/logging/writers.MultiWriter).Write&#45;&gt;github.com/guild&#45;framework/guild&#45;core/pkg/gerror.New -->
<g id="edge16" class="edge">
<title>(*github.com/guild&#45;framework/guild&#45;core/pkg/logging/writers.MultiWriter).Write&#45;&gt;github.com/guild&#45;framework/guild&#45;core/pkg/gerror.New</title>
<g id="a_edge16"><a xlink:title="at multi.go:40: calling [github.com/guild&#45;framework/guild&#45;core/pkg/gerror.New]">
<path fill="none" stroke="saddlebrown" d="M744.03,-439.67C768.55,-437.08 795.51,-433.75 820.12,-429.66 854.16,-424 892.42,-415.18 919.94,-408.39"/>
<polygon fill="saddlebrown" stroke="saddlebrown" points="920.72,-411.81 929.57,-405.99 919.02,-405.02 920.72,-411.81"/>
</a>
</g>
</g>
</g>
</svg>
