<?xml version="1.0" encoding="UTF-8" standalone="no"?>
<!DOCTYPE svg PUBLIC "-//W3C//DTD SVG 1.1//EN"
 "http://www.w3.org/Graphics/SVG/1.1/DTD/svg11.dtd">
<!-- Generated by graphviz version 14.1.1 (20251213.1925)
 -->
<!-- Title: gocallvis Pages: 1 -->
<svg width="1518pt" height="526pt"
 viewBox="0.00 0.00 1518.00 526.00" xmlns="http://www.w3.org/2000/svg" xmlns:xlink="http://www.w3.org/1999/xlink">
<g id="graph0" class="graph" transform="scale(1 1) rotate(0) translate(0 526)">
<title>gocallvis</title>
<polygon fill="lightgray" stroke="none" points="0,0 0,-526 1518.45,-526 1518.45,0 0,0"/>
<g id="clust1" class="cluster">
<title>cluster_focus</title>
<polygon fill="#e6ecfa" stroke="black" stroke-width="0.5" points="8,-8 8,-518 1510.45,-518 1510.45,-8 8,-8"/>
<text xml:space="preserve" text-anchor="middle" x="759.22" y="-496.9" font-family="Arial" font-size="18.00">executor</text>
</g>
<g id="clust2" class="cluster">
<title>cluster_github.com/guild&#45;framework/guild&#45;core/pkg/gerror</title>
<g id="a_clust2"><a xlink:href="/?f=github.com/guild-framework/guild-core/pkg/gerror" xlink:title="package: github.com/guild&#45;framework/guild&#45;core/pkg/gerror">
<polygon fill="lightyellow" stroke="black" stroke-width="0.8" points="912.24,-218 912.24,-481 1160.53,-481 1160.53,-218 912.24,-218"/>
<text xml:space="preserve" text-anchor="middle" x="1036.39" y="-461.8" font-family="Tahoma bold" font-size="16.00">gerror</text>
</a>
</g>
</g>
<g id="clust3" class="cluster">
<title>cluster_github.com/guild&#45;framework/guild&#45;core/pkg/tools</title>
<g id="a_clust3"><a xlink:href="/?f=github.com/guild-framework/guild-core/pkg/tools" xlink:title="package: github.com/guild&#45;framework/guild&#45;core/pkg/tools">
<polygon fill="lightyellow" stroke="black" stroke-width="0.8" points="1265.16,-69 1265.16,-210 1475.2,-210 1475.2,-69 1265.16,-69"/>
<text xml:space="preserve" text-anchor="middle" x="1370.18" y="-190.8" font-family="Tahoma bold" font-size="16.00">tools</text>
</a>
</g>
</g>
<!-- (*github.com/guild&#45;framework/guild&#45;core/pkg/tools/executor.toolExecutor).GetAvailableTools -->
<g id="node1" class="node">
<title>(*github.com/guild&#45;framework/guild&#45;core/pkg/tools/executor.toolExecutor).GetAvailableTools</title>
<g id="a_node1"><a xlink:title="(*github.com/guild&#45;framework/guild&#45;core/pkg/tools/executor.toolExecutor).GetAvailableTools | defined in executor.go:199&#10;at executor.go:206: calling [(*github.com/guild&#45;framework/guild&#45;core/pkg/tools.ToolRegistry).ListTools]&#10;at executor.go:219: calling [(*github.com/guild&#45;framework/guild&#45;core/pkg/tools/executor.toolExecutor).extractParameters]&#10;at executor.go:208: calling [(*github.com/guild&#45;framework/guild&#45;core/pkg/tools.ToolRegistry).GetTool]">
<path fill="lightblue" stroke="black" stroke-width="1.5" d="M1152.91,-52C1152.91,-52 919.87,-52 919.87,-52 913.87,-52 907.87,-46 907.87,-40 907.87,-40 907.87,-28 907.87,-28 907.87,-22 913.87,-16 919.87,-16 919.87,-16 1152.91,-16 1152.91,-16 1158.91,-16 1164.91,-22 1164.91,-28 1164.91,-28 1164.91,-40 1164.91,-40 1164.91,-46 1158.91,-52 1152.91,-52"/>
<text xml:space="preserve" text-anchor="middle" x="1036.39" y="-29.32" font-family="Verdana" font-size="14.00">(*toolExecutor).GetAvailableTools</text>
</a>
</g>
</g>
<!-- (*github.com/guild&#45;framework/guild&#45;core/pkg/tools/executor.toolExecutor).extractParameters -->
<g id="node2" class="node">
<title>(*github.com/guild&#45;framework/guild&#45;core/pkg/tools/executor.toolExecutor).extractParameters</title>
<g id="a_node2"><a xlink:title="(*github.com/guild&#45;framework/guild&#45;core/pkg/tools/executor.toolExecutor).extractParameters | defined in executor.go:230">
<path fill="lightblue" stroke="black" stroke-width="0.5" d="M1490.45,-52C1490.45,-52 1249.91,-52 1249.91,-52 1243.91,-52 1237.91,-46 1237.91,-40 1237.91,-40 1237.91,-28 1237.91,-28 1237.91,-22 1243.91,-16 1249.91,-16 1249.91,-16 1490.45,-16 1490.45,-16 1496.45,-16 1502.45,-22 1502.45,-28 1502.45,-28 1502.45,-40 1502.45,-40 1502.45,-46 1496.45,-52 1490.45,-52"/>
<text xml:space="preserve" text-anchor="middle" x="1370.18" y="-29.32" font-family="Verdana" font-size="14.00">(*toolExecutor).extractParameters</text>
</a>
</g>
</g>
<!-- (*github.com/guild&#45;framework/guild&#45;core/pkg/tools/executor.toolExecutor).GetAvailableTools&#45;&gt;(*github.com/guild&#45;framework/guild&#45;core/pkg/tools/executor.toolExecutor).extractParameters -->
<g id="edge9" class="edge">
<title>(*github.com/guild&#45;framework/guild&#45;core/pkg/tools/executor.toolExecutor).GetAvailableTools&#45;&gt;(*github.com/guild&#45;framework/guild&#45;core/pkg/tools/executor.toolExecutor).extractParameters</title>
<g id="a_edge9"><a xlink:title="at executor.go:219: calling [(*github.com/guild&#45;framework/guild&#45;core/pkg/tools/executor.toolExecutor).extractParameters]">
<path fill="none" stroke="black" d="M1165.19,-34C1185.29,-34 1206.18,-34 1226.59,-34"/>
<polygon fill="black" stroke="black" points="1226.36,-37.5 1236.36,-34 1226.36,-30.5 1226.36,-37.5"/>
</a>
</g>
</g>
<!-- (*github.com/guild&#45;framework/guild&#45;core/pkg/tools.ToolRegistry).ListTools -->
<g id="node13" class="node">
<title>(*github.com/guild&#45;framework/guild&#45;core/pkg/tools.ToolRegistry).ListTools</title>
<g id="a_node13"><a xlink:title="(*github.com/guild&#45;framework/guild&#45;core/pkg/tools.ToolRegistry).ListTools | defined in tool.go:80">
<path fill="moccasin" stroke="black" stroke-width="1.5" d="M1455.2,-113C1455.2,-113 1285.16,-113 1285.16,-113 1279.16,-113 1273.16,-107 1273.16,-101 1273.16,-101 1273.16,-89 1273.16,-89 1273.16,-83 1279.16,-77 1285.16,-77 1285.16,-77 1455.2,-77 1455.2,-77 1461.2,-77 1467.2,-83 1467.2,-89 1467.2,-89 1467.2,-101 1467.2,-101 1467.2,-107 1461.2,-113 1455.2,-113"/>
<text xml:space="preserve" text-anchor="middle" x="1370.18" y="-90.33" font-family="Verdana" font-size="14.00">(*ToolRegistry).ListTools</text>
</a>
</g>
</g>
<!-- (*github.com/guild&#45;framework/guild&#45;core/pkg/tools/executor.toolExecutor).GetAvailableTools&#45;&gt;(*github.com/guild&#45;framework/guild&#45;core/pkg/tools.ToolRegistry).ListTools -->
<g id="edge8" class="edge">
<title>(*github.com/guild&#45;framework/guild&#45;core/pkg/tools/executor.toolExecutor).GetAvailableTools&#45;&gt;(*github.com/guild&#45;framework/guild&#45;core/pkg/tools.ToolRegistry).ListTools</title>
<g id="a_edge8"><a xlink:title="at executor.go:206: calling [(*github.com/guild&#45;framework/guild&#45;core/pkg/tools.ToolRegistry).ListTools]">
<path fill="none" stroke="saddlebrown" d="M1130.89,-52.71C1164.59,-59.31 1202.93,-66.67 1237.91,-73 1245.56,-74.38 1253.47,-75.79 1261.43,-77.17"/>
<polygon fill="saddlebrown" stroke="saddlebrown" points="1260.76,-80.61 1271.22,-78.87 1261.96,-73.71 1260.76,-80.61"/>
</a>
</g>
</g>
<!-- (*github.com/guild&#45;framework/guild&#45;core/pkg/tools.ToolRegistry).GetTool -->
<g id="node14" class="node">
<title>(*github.com/guild&#45;framework/guild&#45;core/pkg/tools.ToolRegistry).GetTool</title>
<g id="a_node14"><a xlink:title="(*github.com/guild&#45;framework/guild&#45;core/pkg/tools.ToolRegistry).GetTool | defined in tool.go:68">
<path fill="moccasin" stroke="black" stroke-width="1.5" d="M1451.45,-174C1451.45,-174 1288.91,-174 1288.91,-174 1282.91,-174 1276.91,-168 1276.91,-162 1276.91,-162 1276.91,-150 1276.91,-150 1276.91,-144 1282.91,-138 1288.91,-138 1288.91,-138 1451.45,-138 1451.45,-138 1457.45,-138 1463.45,-144 1463.45,-150 1463.45,-150 1463.45,-162 1463.45,-162 1463.45,-168 1457.45,-174 1451.45,-174"/>
<text xml:space="preserve" text-anchor="middle" x="1370.18" y="-151.32" font-family="Verdana" font-size="14.00">(*ToolRegistry).GetTool</text>
</a>
</g>
</g>
<!-- (*github.com/guild&#45;framework/guild&#45;core/pkg/tools/executor.toolExecutor).GetAvailableTools&#45;&gt;(*github.com/guild&#45;framework/guild&#45;core/pkg/tools.ToolRegistry).GetTool -->
<g id="edge15" class="edge">
<title>(*github.com/guild&#45;framework/guild&#45;core/pkg/tools/executor.toolExecutor).GetAvailableTools&#45;&gt;(*github.com/guild&#45;framework/guild&#45;core/pkg/tools.ToolRegistry).GetTool</title>
<g id="a_edge15"><a xlink:title="at executor.go:208: calling [(*github.com/guild&#45;framework/guild&#45;core/pkg/tools.ToolRegistry).GetTool]">
<path fill="none" stroke="saddlebrown" d="M1134.81,-52.71C1145.22,-56.17 1155.45,-60.23 1164.91,-65 1202.66,-84.05 1200.03,-107.22 1237.91,-126 1246.58,-130.3 1255.89,-134 1265.39,-137.17"/>
<polygon fill="saddlebrown" stroke="saddlebrown" points="1264.14,-140.45 1274.73,-140.08 1266.23,-133.76 1264.14,-140.45"/>
</a>
</g>
</g>
<!-- (*github.com/guild&#45;framework/guild&#45;core/pkg/tools/executor.toolExecutor).Execute -->
<g id="node3" class="node">
<title>(*github.com/guild&#45;framework/guild&#45;core/pkg/tools/executor.toolExecutor).Execute</title>
<g id="a_node3"><a xlink:title="(*github.com/guild&#45;framework/guild&#45;core/pkg/tools/executor.toolExecutor).Execute | defined in executor.go:36&#10;at executor.go:39: calling [github.com/guild&#45;framework/guild&#45;core/pkg/gerror.Wrap]&#10;at executor.go:61: calling [github.com/guild&#45;framework/guild&#45;core/pkg/gerror.Wrap]&#10;at executor.go:80: calling [github.com/guild&#45;framework/guild&#45;core/pkg/gerror.Wrap]&#10;at executor.go:116: calling [github.com/guild&#45;framework/guild&#45;core/pkg/gerror.Wrap]&#10;at executor.go:54: calling [(*github.com/guild&#45;framework/guild&#45;core/pkg/tools.ToolRegistry).GetTool]&#10;at executor.go:41: calling [(*github.com/guild&#45;framework/guild&#45;core/pkg/gerror.GuildError).WithOperation]&#10;at executor.go:63: calling [(*github.com/guild&#45;framework/guild&#45;core/pkg/gerror.GuildError).WithOperation]&#10;at executor.go:82: calling [(*github.com/guild&#45;framework/guild&#45;core/pkg/gerror.GuildError).WithOperation]&#10;at executor.go:118: calling [(*github.com/guild&#45;framework/guild&#45;core/pkg/gerror.GuildError).WithOperation]&#10;at executor.go:42: calling [(*github.com/guild&#45;framework/guild&#45;core/pkg/gerror.GuildError).WithDetails]&#10;at executor.go:64: calling [(*github.com/guild&#45;framework/guild&#45;core/pkg/gerror.GuildError).WithDetails]&#10;at executor.go:65: calling [(*github.com/guild&#45;framework/guild&#45;core/pkg/gerror.GuildError).WithDetails]&#10;at executor.go:83: calling [(*github.com/guild&#45;framework/guild&#45;core/pkg/gerror.GuildError).WithDetails]&#10;at executor.go:84: calling [(*github.com/guild&#45;framework/guild&#45;core/pkg/gerror.GuildError).WithDetails]&#10;at executor.go:119: calling [(*github.com/guild&#45;framework/guild&#45;core/pkg/gerror.GuildError).WithDetails]&#10;at executor.go:120: calling [(*github.com/guild&#45;framework/guild&#45;core/pkg/gerror.GuildError).WithDetails]&#10;at executor.go:106: calling [(*github.com/guild&#45;framework/guild&#45;core/pkg/tools/executor.toolExecutor).Execute$1]&#10;at executor.go:40: calling [(*github.com/guild&#45;framework/guild&#45;core/pkg/gerror.GuildError).WithComponent]&#10;at executor.go:62: calling [(*github.com/guild&#45;framework/guild&#45;core/pkg/gerror.GuildError).WithComponent]&#10;at executor.go:81: calling [(*github.com/guild&#45;framework/guild&#45;core/pkg/gerror.GuildError).WithComponent]&#10;at executor.go:117: calling [(*github.com/guild&#45;framework/guild&#45;core/pkg/gerror.GuildError).WithComponent]&#10;at executor.go:65: calling [(*github.com/guild&#45;framework/guild&#45;core/pkg/tools/executor.toolExecutor).getToolNames]">
<path fill="lightblue" stroke="black" stroke-width="1.5" d="M822.87,-214C822.87,-214 655.08,-214 655.08,-214 649.08,-214 643.08,-208 643.08,-202 643.08,-202 643.08,-190 643.08,-190 643.08,-184 649.08,-178 655.08,-178 655.08,-178 822.87,-178 822.87,-178 828.87,-178 834.87,-184 834.87,-190 834.87,-190 834.87,-202 834.87,-202 834.87,-208 828.87,-214 822.87,-214"/>
<text xml:space="preserve" text-anchor="middle" x="738.97" y="-191.32" font-family="Verdana" font-size="14.00">(*toolExecutor).Execute</text>
</a>
</g>
</g>
<!-- (*github.com/guild&#45;framework/guild&#45;core/pkg/tools/executor.toolExecutor).getToolNames -->
<g id="node4" class="node">
<title>(*github.com/guild&#45;framework/guild&#45;core/pkg/tools/executor.toolExecutor).getToolNames</title>
<g id="a_node4"><a xlink:title="(*github.com/guild&#45;framework/guild&#45;core/pkg/tools/executor.toolExecutor).getToolNames | defined in executor.go:249&#10;at executor.go:250: calling [(*github.com/guild&#45;framework/guild&#45;core/pkg/tools.ToolRegistry).ListTools]">
<path fill="lightblue" stroke="black" stroke-width="0.5" d="M1141.66,-113C1141.66,-113 931.12,-113 931.12,-113 925.12,-113 919.12,-107 919.12,-101 919.12,-101 919.12,-89 919.12,-89 919.12,-83 925.12,-77 931.12,-77 931.12,-77 1141.66,-77 1141.66,-77 1147.66,-77 1153.66,-83 1153.66,-89 1153.66,-89 1153.66,-101 1153.66,-101 1153.66,-107 1147.66,-113 1141.66,-113"/>
<text xml:space="preserve" text-anchor="middle" x="1036.39" y="-90.33" font-family="Verdana" font-size="14.00">(*toolExecutor).getToolNames</text>
</a>
</g>
</g>
<!-- (*github.com/guild&#45;framework/guild&#45;core/pkg/tools/executor.toolExecutor).Execute&#45;&gt;(*github.com/guild&#45;framework/guild&#45;core/pkg/tools/executor.toolExecutor).getToolNames -->
<g id="edge17" class="edge">
<title>(*github.com/guild&#45;framework/guild&#45;core/pkg/tools/executor.toolExecutor).Execute&#45;&gt;(*github.com/guild&#45;framework/guild&#45;core/pkg/tools/executor.toolExecutor).getToolNames</title>
<g id="a_edge17"><a xlink:title="at executor.go:65: calling [(*github.com/guild&#45;framework/guild&#45;core/pkg/tools/executor.toolExecutor).getToolNames]">
<path fill="none" stroke="black" d="M772.68,-177.34C798.61,-163.21 836.15,-144.2 870.87,-132 888.34,-125.86 907.21,-120.5 925.73,-115.9"/>
<polygon fill="black" stroke="black" points="926.52,-119.31 935.42,-113.57 924.88,-112.51 926.52,-119.31"/>
</a>
</g>
</g>
<!-- (*github.com/guild&#45;framework/guild&#45;core/pkg/tools/executor.toolExecutor).Execute$1 -->
<g id="node5" class="node">
<title>(*github.com/guild&#45;framework/guild&#45;core/pkg/tools/executor.toolExecutor).Execute$1</title>
<g id="a_node5"><a xlink:title="(*github.com/guild&#45;framework/guild&#45;core/pkg/tools/executor.toolExecutor).Execute$1 | defined in executor.go:106">
<polygon fill="lightblue" stroke="black" stroke-dasharray="1,5" points="1141.28,-201 931.49,-201 931.49,-165 1141.28,-165 1141.28,-201"/>
<text xml:space="preserve" text-anchor="middle" x="1036.39" y="-178.32" font-family="Verdana" font-size="14.00">(*toolExecutor).Execute$1</text>
</a>
</g>
</g>
<!-- (*github.com/guild&#45;framework/guild&#45;core/pkg/tools/executor.toolExecutor).Execute&#45;&gt;(*github.com/guild&#45;framework/guild&#45;core/pkg/tools/executor.toolExecutor).Execute$1 -->
<g id="edge12" class="edge">
<title>(*github.com/guild&#45;framework/guild&#45;core/pkg/tools/executor.toolExecutor).Execute&#45;&gt;(*github.com/guild&#45;framework/guild&#45;core/pkg/tools/executor.toolExecutor).Execute$1</title>
<g id="a_edge12"><a xlink:title="at executor.go:106: calling [(*github.com/guild&#45;framework/guild&#45;core/pkg/tools/executor.toolExecutor).Execute$1]">
<path fill="none" stroke="black" d="M835.48,-191.8C857.89,-190.81 882.13,-189.74 905.75,-188.7"/>
<polygon fill="black" stroke="black" points="919.67,-191.6 929.51,-187.66 919.37,-184.6 919.67,-191.6"/>
<polyline fill="none" stroke="black" points="919.02,-188.12 914.03,-188.34"/>
<ellipse fill="none" stroke="black" cx="909.53" cy="-188.54" rx="4" ry="4"/>
</a>
</g>
</g>
<!-- github.com/guild&#45;framework/guild&#45;core/pkg/gerror.Wrap -->
<g id="node9" class="node">
<title>github.com/guild&#45;framework/guild&#45;core/pkg/gerror.Wrap</title>
<g id="a_node9"><a xlink:title="github.com/guild&#45;framework/guild&#45;core/pkg/gerror.Wrap | defined in errors.go:223">
<path fill="moccasin" stroke="black" stroke-width="1.5" d="M1054.28,-262C1054.28,-262 1018.49,-262 1018.49,-262 1012.49,-262 1006.49,-256 1006.49,-250 1006.49,-250 1006.49,-238 1006.49,-238 1006.49,-232 1012.49,-226 1018.49,-226 1018.49,-226 1054.28,-226 1054.28,-226 1060.28,-226 1066.28,-232 1066.28,-238 1066.28,-238 1066.28,-250 1066.28,-250 1066.28,-256 1060.28,-262 1054.28,-262"/>
<text xml:space="preserve" text-anchor="middle" x="1036.39" y="-239.32" font-family="Verdana" font-size="14.00">Wrap</text>
</a>
</g>
</g>
<!-- (*github.com/guild&#45;framework/guild&#45;core/pkg/tools/executor.toolExecutor).Execute&#45;&gt;github.com/guild&#45;framework/guild&#45;core/pkg/gerror.Wrap -->
<g id="edge1" class="edge">
<title>(*github.com/guild&#45;framework/guild&#45;core/pkg/tools/executor.toolExecutor).Execute&#45;&gt;github.com/guild&#45;framework/guild&#45;core/pkg/gerror.Wrap</title>
<g id="a_edge1"><a xlink:title="at executor.go:39: calling [github.com/guild&#45;framework/guild&#45;core/pkg/gerror.Wrap]&#10;at executor.go:61: calling [github.com/guild&#45;framework/guild&#45;core/pkg/gerror.Wrap]&#10;at executor.go:80: calling [github.com/guild&#45;framework/guild&#45;core/pkg/gerror.Wrap]&#10;at executor.go:116: calling [github.com/guild&#45;framework/guild&#45;core/pkg/gerror.Wrap]">
<path fill="none" stroke="saddlebrown" d="M835.48,-211.52C889.45,-220.29 954.09,-230.79 994.95,-237.43"/>
<polygon fill="saddlebrown" stroke="saddlebrown" points="994.15,-240.84 1004.58,-238.99 995.27,-233.94 994.15,-240.84"/>
</a>
</g>
</g>
<!-- (*github.com/guild&#45;framework/guild&#45;core/pkg/gerror.GuildError).WithComponent -->
<g id="node10" class="node">
<title>(*github.com/guild&#45;framework/guild&#45;core/pkg/gerror.GuildError).WithComponent</title>
<g id="a_node10"><a xlink:title="(*github.com/guild&#45;framework/guild&#45;core/pkg/gerror.GuildError).WithComponent | defined in errors.go:156">
<path fill="moccasin" stroke="black" stroke-width="1.5" d="M1140.53,-323C1140.53,-323 932.24,-323 932.24,-323 926.24,-323 920.24,-317 920.24,-311 920.24,-311 920.24,-299 920.24,-299 920.24,-293 926.24,-287 932.24,-287 932.24,-287 1140.53,-287 1140.53,-287 1146.53,-287 1152.53,-293 1152.53,-299 1152.53,-299 1152.53,-311 1152.53,-311 1152.53,-317 1146.53,-323 1140.53,-323"/>
<text xml:space="preserve" text-anchor="middle" x="1036.39" y="-300.32" font-family="Verdana" font-size="14.00">(*GuildError).WithComponent</text>
</a>
</g>
</g>
<!-- (*github.com/guild&#45;framework/guild&#45;core/pkg/tools/executor.toolExecutor).Execute&#45;&gt;(*github.com/guild&#45;framework/guild&#45;core/pkg/gerror.GuildError).WithComponent -->
<g id="edge16" class="edge">
<title>(*github.com/guild&#45;framework/guild&#45;core/pkg/tools/executor.toolExecutor).Execute&#45;&gt;(*github.com/guild&#45;framework/guild&#45;core/pkg/gerror.GuildError).WithComponent</title>
<g id="a_edge16"><a xlink:title="at executor.go:40: calling [(*github.com/guild&#45;framework/guild&#45;core/pkg/gerror.GuildError).WithComponent]&#10;at executor.go:62: calling [(*github.com/guild&#45;framework/guild&#45;core/pkg/gerror.GuildError).WithComponent]&#10;at executor.go:81: calling [(*github.com/guild&#45;framework/guild&#45;core/pkg/gerror.GuildError).WithComponent]&#10;at executor.go:117: calling [(*github.com/guild&#45;framework/guild&#45;core/pkg/gerror.GuildError).WithComponent]">
<path fill="none" stroke="saddlebrown" d="M774.14,-214.67C807.45,-232.25 859.96,-258.3 907.87,-275 916.34,-277.95 925.23,-280.71 934.21,-283.26"/>
<polygon fill="saddlebrown" stroke="saddlebrown" points="933.16,-286.6 943.73,-285.86 935.01,-279.85 933.16,-286.6"/>
</a>
</g>
</g>
<!-- (*github.com/guild&#45;framework/guild&#45;core/pkg/gerror.GuildError).WithOperation -->
<g id="node11" class="node">
<title>(*github.com/guild&#45;framework/guild&#45;core/pkg/gerror.GuildError).WithOperation</title>
<g id="a_node11"><a xlink:title="(*github.com/guild&#45;framework/guild&#45;core/pkg/gerror.GuildError).WithOperation | defined in errors.go:162">
<path fill="moccasin" stroke="black" stroke-width="1.5" d="M1134.91,-445C1134.91,-445 937.87,-445 937.87,-445 931.87,-445 925.87,-439 925.87,-433 925.87,-433 925.87,-421 925.87,-421 925.87,-415 931.87,-409 937.87,-409 937.87,-409 1134.91,-409 1134.91,-409 1140.91,-409 1146.91,-415 1146.91,-421 1146.91,-421 1146.91,-433 1146.91,-433 1146.91,-439 1140.91,-445 1134.91,-445"/>
<text xml:space="preserve" text-anchor="middle" x="1036.39" y="-422.32" font-family="Verdana" font-size="14.00">(*GuildError).WithOperation</text>
</a>
</g>
</g>
<!-- (*github.com/guild&#45;framework/guild&#45;core/pkg/tools/executor.toolExecutor).Execute&#45;&gt;(*github.com/guild&#45;framework/guild&#45;core/pkg/gerror.GuildError).WithOperation -->
<g id="edge5" class="edge">
<title>(*github.com/guild&#45;framework/guild&#45;core/pkg/tools/executor.toolExecutor).Execute&#45;&gt;(*github.com/guild&#45;framework/guild&#45;core/pkg/gerror.GuildError).WithOperation</title>
<g id="a_edge5"><a xlink:title="at executor.go:41: calling [(*github.com/guild&#45;framework/guild&#45;core/pkg/gerror.GuildError).WithOperation]&#10;at executor.go:63: calling [(*github.com/guild&#45;framework/guild&#45;core/pkg/gerror.GuildError).WithOperation]&#10;at executor.go:82: calling [(*github.com/guild&#45;framework/guild&#45;core/pkg/gerror.GuildError).WithOperation]&#10;at executor.go:118: calling [(*github.com/guild&#45;framework/guild&#45;core/pkg/gerror.GuildError).WithOperation]">
<path fill="none" stroke="saddlebrown" d="M749.96,-214.69C772.42,-254.86 831.07,-349.6 907.87,-397 911.84,-399.45 916,-401.7 920.28,-403.77"/>
<polygon fill="saddlebrown" stroke="saddlebrown" points="918.54,-406.83 929.1,-407.66 921.36,-400.42 918.54,-406.83"/>
</a>
</g>
</g>
<!-- (*github.com/guild&#45;framework/guild&#45;core/pkg/gerror.GuildError).WithDetails -->
<g id="node12" class="node">
<title>(*github.com/guild&#45;framework/guild&#45;core/pkg/gerror.GuildError).WithDetails</title>
<g id="a_node12"><a xlink:title="(*github.com/guild&#45;framework/guild&#45;core/pkg/gerror.GuildError).WithDetails | defined in errors.go:147">
<path fill="moccasin" stroke="black" stroke-width="1.5" d="M1124.03,-384C1124.03,-384 948.74,-384 948.74,-384 942.74,-384 936.74,-378 936.74,-372 936.74,-372 936.74,-360 936.74,-360 936.74,-354 942.74,-348 948.74,-348 948.74,-348 1124.03,-348 1124.03,-348 1130.03,-348 1136.03,-354 1136.03,-360 1136.03,-360 1136.03,-372 1136.03,-372 1136.03,-378 1130.03,-384 1124.03,-384"/>
<text xml:space="preserve" text-anchor="middle" x="1036.39" y="-361.32" font-family="Verdana" font-size="14.00">(*GuildError).WithDetails</text>
</a>
</g>
</g>
<!-- (*github.com/guild&#45;framework/guild&#45;core/pkg/tools/executor.toolExecutor).Execute&#45;&gt;(*github.com/guild&#45;framework/guild&#45;core/pkg/gerror.GuildError).WithDetails -->
<g id="edge10" class="edge">
<title>(*github.com/guild&#45;framework/guild&#45;core/pkg/tools/executor.toolExecutor).Execute&#45;&gt;(*github.com/guild&#45;framework/guild&#45;core/pkg/gerror.GuildError).WithDetails</title>
<g id="a_edge10"><a xlink:title="at executor.go:42: calling [(*github.com/guild&#45;framework/guild&#45;core/pkg/gerror.GuildError).WithDetails]&#10;at executor.go:64: calling [(*github.com/guild&#45;framework/guild&#45;core/pkg/gerror.GuildError).WithDetails]&#10;at executor.go:65: calling [(*github.com/guild&#45;framework/guild&#45;core/pkg/gerror.GuildError).WithDetails]&#10;at executor.go:83: calling [(*github.com/guild&#45;framework/guild&#45;core/pkg/gerror.GuildError).WithDetails]&#10;at executor.go:84: calling [(*github.com/guild&#45;framework/guild&#45;core/pkg/gerror.GuildError).WithDetails]&#10;at executor.go:119: calling [(*github.com/guild&#45;framework/guild&#45;core/pkg/gerror.GuildError).WithDetails]&#10;at executor.go:120: calling [(*github.com/guild&#45;framework/guild&#45;core/pkg/gerror.GuildError).WithDetails]">
<path fill="none" stroke="saddlebrown" d="M756.6,-214.61C784.7,-244.85 844.71,-304.47 907.87,-336 913.61,-338.86 919.62,-341.46 925.79,-343.81"/>
<polygon fill="saddlebrown" stroke="saddlebrown" points="924.28,-346.99 934.87,-347.04 926.62,-340.39 924.28,-346.99"/>
</a>
</g>
</g>
<!-- (*github.com/guild&#45;framework/guild&#45;core/pkg/tools/executor.toolExecutor).Execute&#45;&gt;(*github.com/guild&#45;framework/guild&#45;core/pkg/tools.ToolRegistry).GetTool -->
<g id="edge2" class="edge">
<title>(*github.com/guild&#45;framework/guild&#45;core/pkg/tools/executor.toolExecutor).Execute&#45;&gt;(*github.com/guild&#45;framework/guild&#45;core/pkg/tools.ToolRegistry).GetTool</title>
<g id="a_edge2"><a xlink:title="at executor.go:54: calling [(*github.com/guild&#45;framework/guild&#45;core/pkg/tools.ToolRegistry).GetTool]">
<path fill="none" stroke="saddlebrown" d="M797.94,-177.33C829.98,-167.98 870.7,-157.68 907.87,-153 1029.73,-137.64 1171.13,-141.76 1264.93,-147.53"/>
<polygon fill="saddlebrown" stroke="saddlebrown" points="1264.7,-151.03 1274.91,-148.17 1265.15,-144.04 1264.7,-151.03"/>
</a>
</g>
</g>
<!-- (*github.com/guild&#45;framework/guild&#45;core/pkg/tools/executor.toolExecutor).getToolNames&#45;&gt;(*github.com/guild&#45;framework/guild&#45;core/pkg/tools.ToolRegistry).ListTools -->
<g id="edge11" class="edge">
<title>(*github.com/guild&#45;framework/guild&#45;core/pkg/tools/executor.toolExecutor).getToolNames&#45;&gt;(*github.com/guild&#45;framework/guild&#45;core/pkg/tools.ToolRegistry).ListTools</title>
<g id="a_edge11"><a xlink:title="at executor.go:250: calling [(*github.com/guild&#45;framework/guild&#45;core/pkg/tools.ToolRegistry).ListTools]">
<path fill="none" stroke="saddlebrown" d="M1153.9,-95C1188.71,-95 1226.71,-95 1260.97,-95"/>
<polygon fill="saddlebrown" stroke="saddlebrown" points="1260.92,-98.5 1270.92,-95 1260.92,-91.5 1260.92,-98.5"/>
</a>
</g>
</g>
<!-- (*github.com/guild&#45;framework/guild&#45;core/pkg/tools/executor.toolExecutor).ExecuteBatch$1 -->
<g id="node6" class="node">
<title>(*github.com/guild&#45;framework/guild&#45;core/pkg/tools/executor.toolExecutor).ExecuteBatch$1</title>
<g id="a_node6"><a xlink:title="(*github.com/guild&#45;framework/guild&#45;core/pkg/tools/executor.toolExecutor).ExecuteBatch$1 | defined in executor.go:162&#10;at executor.go:165: calling [(*github.com/guild&#45;framework/guild&#45;core/pkg/tools/executor.toolExecutor).Execute]">
<polygon fill="lightblue" stroke="black" stroke-dasharray="1,5" points="570.08,-199 320.54,-199 320.54,-163 570.08,-163 570.08,-199"/>
<text xml:space="preserve" text-anchor="middle" x="445.31" y="-176.32" font-family="Verdana" font-size="14.00">(*toolExecutor).ExecuteBatch$1</text>
</a>
</g>
</g>
<!-- (*github.com/guild&#45;framework/guild&#45;core/pkg/tools/executor.toolExecutor).ExecuteBatch$1&#45;&gt;(*github.com/guild&#45;framework/guild&#45;core/pkg/tools/executor.toolExecutor).Execute -->
<g id="edge6" class="edge">
<title>(*github.com/guild&#45;framework/guild&#45;core/pkg/tools/executor.toolExecutor).ExecuteBatch$1&#45;&gt;(*github.com/guild&#45;framework/guild&#45;core/pkg/tools/executor.toolExecutor).Execute</title>
<g id="a_edge6"><a xlink:title="at executor.go:165: calling [(*github.com/guild&#45;framework/guild&#45;core/pkg/tools/executor.toolExecutor).Execute]">
<path fill="none" stroke="black" d="M570.43,-187.38C590.74,-188.43 611.63,-189.5 631.47,-190.52"/>
<polygon fill="black" stroke="black" points="631.01,-194 641.18,-191.02 631.37,-187.01 631.01,-194"/>
</a>
</g>
</g>
<!-- (*github.com/guild&#45;framework/guild&#45;core/pkg/tools/executor.toolExecutor).ExecuteBatch -->
<g id="node7" class="node">
<title>(*github.com/guild&#45;framework/guild&#45;core/pkg/tools/executor.toolExecutor).ExecuteBatch</title>
<g id="a_node7"><a xlink:title="(*github.com/guild&#45;framework/guild&#45;core/pkg/tools/executor.toolExecutor).ExecuteBatch | defined in executor.go:143&#10;at executor.go:152: calling [(*github.com/guild&#45;framework/guild&#45;core/pkg/gerror.GuildError).WithOperation]&#10;at executor.go:191: calling [(*github.com/guild&#45;framework/guild&#45;core/pkg/gerror.GuildError).WithOperation]&#10;at executor.go:181: calling [(*github.com/guild&#45;framework/guild&#45;core/pkg/tools/executor.toolExecutor).ExecuteBatch$2]&#10;at executor.go:151: calling [(*github.com/guild&#45;framework/guild&#45;core/pkg/gerror.GuildError).WithComponent]&#10;at executor.go:190: calling [(*github.com/guild&#45;framework/guild&#45;core/pkg/gerror.GuildError).WithComponent]&#10;at executor.go:150: calling [github.com/guild&#45;framework/guild&#45;core/pkg/gerror.Wrap]&#10;at executor.go:189: calling [github.com/guild&#45;framework/guild&#45;core/pkg/gerror.Wrap]&#10;at executor.go:162: calling [(*github.com/guild&#45;framework/guild&#45;core/pkg/tools/executor.toolExecutor).ExecuteBatch$1]&#10;at executor.go:153: calling [(*github.com/guild&#45;framework/guild&#45;core/pkg/gerror.GuildError).WithDetails]&#10;at executor.go:192: calling [(*github.com/guild&#45;framework/guild&#45;core/pkg/gerror.GuildError).WithDetails]">
<path fill="lightblue" stroke="black" stroke-width="1.5" d="M235.54,-320C235.54,-320 28,-320 28,-320 22,-320 16,-314 16,-308 16,-308 16,-296 16,-296 16,-290 22,-284 28,-284 28,-284 235.54,-284 235.54,-284 241.54,-284 247.54,-290 247.54,-296 247.54,-296 247.54,-308 247.54,-308 247.54,-314 241.54,-320 235.54,-320"/>
<text xml:space="preserve" text-anchor="middle" x="131.77" y="-297.32" font-family="Verdana" font-size="14.00">(*toolExecutor).ExecuteBatch</text>
</a>
</g>
</g>
<!-- (*github.com/guild&#45;framework/guild&#45;core/pkg/tools/executor.toolExecutor).ExecuteBatch&#45;&gt;(*github.com/guild&#45;framework/guild&#45;core/pkg/tools/executor.toolExecutor).ExecuteBatch$1 -->
<g id="edge14" class="edge">
<title>(*github.com/guild&#45;framework/guild&#45;core/pkg/tools/executor.toolExecutor).ExecuteBatch&#45;&gt;(*github.com/guild&#45;framework/guild&#45;core/pkg/tools/executor.toolExecutor).ExecuteBatch$1</title>
<g id="a_edge14"><a xlink:title="at executor.go:162: calling [(*github.com/guild&#45;framework/guild&#45;core/pkg/tools/executor.toolExecutor).ExecuteBatch$1]">
<path fill="none" stroke="black" d="M166.48,-283.28C203.4,-263.39 264.77,-232.12 320.54,-212 325.75,-210.12 331.11,-208.32 336.57,-206.58"/>
<polygon fill="black" stroke="black" points="350.67,-206.09 359.28,-199.91 348.7,-199.37 350.67,-206.09"/>
<polyline fill="none" stroke="black" points="349.2,-202.87 344.41,-204.28"/>
<ellipse fill="none" stroke="black" cx="340.09" cy="-205.55" rx="4" ry="4"/>
</a>
</g>
</g>
<!-- (*github.com/guild&#45;framework/guild&#45;core/pkg/tools/executor.toolExecutor).ExecuteBatch$2 -->
<g id="node8" class="node">
<title>(*github.com/guild&#45;framework/guild&#45;core/pkg/tools/executor.toolExecutor).ExecuteBatch$2</title>
<g id="a_node8"><a xlink:title="(*github.com/guild&#45;framework/guild&#45;core/pkg/tools/executor.toolExecutor).ExecuteBatch$2 | defined in executor.go:181">
<polygon fill="lightblue" stroke="black" stroke-dasharray="1,5" points="570.08,-260 320.54,-260 320.54,-224 570.08,-224 570.08,-260"/>
<text xml:space="preserve" text-anchor="middle" x="445.31" y="-237.32" font-family="Verdana" font-size="14.00">(*toolExecutor).ExecuteBatch$2</text>
</a>
</g>
</g>
<!-- (*github.com/guild&#45;framework/guild&#45;core/pkg/tools/executor.toolExecutor).ExecuteBatch&#45;&gt;(*github.com/guild&#45;framework/guild&#45;core/pkg/tools/executor.toolExecutor).ExecuteBatch$2 -->
<g id="edge4" class="edge">
<title>(*github.com/guild&#45;framework/guild&#45;core/pkg/tools/executor.toolExecutor).ExecuteBatch&#45;&gt;(*github.com/guild&#45;framework/guild&#45;core/pkg/tools/executor.toolExecutor).ExecuteBatch$2</title>
<g id="a_edge4"><a xlink:title="at executor.go:181: calling [(*github.com/guild&#45;framework/guild&#45;core/pkg/tools/executor.toolExecutor).ExecuteBatch$2]">
<path fill="none" stroke="black" d="M230.06,-283.26C259.64,-277.57 292.51,-271.24 323.44,-265.28"/>
<polygon fill="black" stroke="black" points="337.65,-266.11 346.8,-260.78 336.32,-259.23 337.65,-266.11"/>
<polyline fill="none" stroke="black" points="336.49,-262.76 331.58,-263.71"/>
<ellipse fill="none" stroke="black" cx="327.16" cy="-264.56" rx="4" ry="4"/>
</a>
</g>
</g>
<!-- (*github.com/guild&#45;framework/guild&#45;core/pkg/tools/executor.toolExecutor).ExecuteBatch&#45;&gt;github.com/guild&#45;framework/guild&#45;core/pkg/gerror.Wrap -->
<g id="edge13" class="edge">
<title>(*github.com/guild&#45;framework/guild&#45;core/pkg/tools/executor.toolExecutor).ExecuteBatch&#45;&gt;github.com/guild&#45;framework/guild&#45;core/pkg/gerror.Wrap</title>
<g id="a_edge13"><a xlink:title="at executor.go:150: calling [github.com/guild&#45;framework/guild&#45;core/pkg/gerror.Wrap]&#10;at executor.go:189: calling [github.com/guild&#45;framework/guild&#45;core/pkg/gerror.Wrap]">
<path fill="none" stroke="saddlebrown" d="M248,-294.6C451.02,-281.55 863.35,-255.05 994.42,-246.63"/>
<polygon fill="saddlebrown" stroke="saddlebrown" points="994.6,-250.13 1004.35,-245.99 994.15,-243.14 994.6,-250.13"/>
</a>
</g>
</g>
<!-- (*github.com/guild&#45;framework/guild&#45;core/pkg/tools/executor.toolExecutor).ExecuteBatch&#45;&gt;(*github.com/guild&#45;framework/guild&#45;core/pkg/gerror.GuildError).WithComponent -->
<g id="edge7" class="edge">
<title>(*github.com/guild&#45;framework/guild&#45;core/pkg/tools/executor.toolExecutor).ExecuteBatch&#45;&gt;(*github.com/guild&#45;framework/guild&#45;core/pkg/gerror.GuildError).WithComponent</title>
<g id="a_edge7"><a xlink:title="at executor.go:151: calling [(*github.com/guild&#45;framework/guild&#45;core/pkg/gerror.GuildError).WithComponent]&#10;at executor.go:190: calling [(*github.com/guild&#45;framework/guild&#45;core/pkg/gerror.GuildError).WithComponent]">
<path fill="none" stroke="saddlebrown" d="M248.1,-310.75C306.8,-314.48 379.32,-318 444.31,-318 444.31,-318 444.31,-318 739.97,-318 795.22,-318 856.21,-315.7 908.36,-313.04"/>
<polygon fill="saddlebrown" stroke="saddlebrown" points="908.38,-316.54 918.18,-312.53 908.01,-309.55 908.38,-316.54"/>
</a>
</g>
</g>
<!-- (*github.com/guild&#45;framework/guild&#45;core/pkg/tools/executor.toolExecutor).ExecuteBatch&#45;&gt;(*github.com/guild&#45;framework/guild&#45;core/pkg/gerror.GuildError).WithOperation -->
<g id="edge3" class="edge">
<title>(*github.com/guild&#45;framework/guild&#45;core/pkg/tools/executor.toolExecutor).ExecuteBatch&#45;&gt;(*github.com/guild&#45;framework/guild&#45;core/pkg/gerror.GuildError).WithOperation</title>
<g id="a_edge3"><a xlink:title="at executor.go:152: calling [(*github.com/guild&#45;framework/guild&#45;core/pkg/gerror.GuildError).WithOperation]&#10;at executor.go:191: calling [(*github.com/guild&#45;framework/guild&#45;core/pkg/gerror.GuildError).WithOperation]">
<path fill="none" stroke="saddlebrown" d="M162.89,-320.58C217.07,-352.18 335.5,-413 444.31,-413 444.31,-413 444.31,-413 739.97,-413 797.26,-413 860.72,-415.66 914.09,-418.66"/>
<polygon fill="saddlebrown" stroke="saddlebrown" points="913.63,-422.14 923.81,-419.22 914.03,-415.15 913.63,-422.14"/>
</a>
</g>
</g>
<!-- (*github.com/guild&#45;framework/guild&#45;core/pkg/tools/executor.toolExecutor).ExecuteBatch&#45;&gt;(*github.com/guild&#45;framework/guild&#45;core/pkg/gerror.GuildError).WithDetails -->
<g id="edge18" class="edge">
<title>(*github.com/guild&#45;framework/guild&#45;core/pkg/tools/executor.toolExecutor).ExecuteBatch&#45;&gt;(*github.com/guild&#45;framework/guild&#45;core/pkg/gerror.GuildError).WithDetails</title>
<g id="a_edge18"><a xlink:title="at executor.go:153: calling [(*github.com/guild&#45;framework/guild&#45;core/pkg/gerror.GuildError).WithDetails]&#10;at executor.go:192: calling [(*github.com/guild&#45;framework/guild&#45;core/pkg/gerror.GuildError).WithDetails]">
<path fill="none" stroke="saddlebrown" d="M183.53,-320.67C244.55,-341.4 350.49,-372 444.31,-372 444.31,-372 444.31,-372 739.97,-372 801.16,-372 869.47,-370.7 924.97,-369.31"/>
<polygon fill="saddlebrown" stroke="saddlebrown" points="924.83,-372.81 934.74,-369.06 924.66,-365.81 924.83,-372.81"/>
</a>
</g>
</g>
</g>
</svg>
