<?xml version="1.0" encoding="UTF-8" standalone="no"?>
<!DOCTYPE svg PUBLIC "-//W3C//DTD SVG 1.1//EN"
 "http://www.w3.org/Graphics/SVG/1.1/DTD/svg11.dtd">
<!-- Generated by graphviz version 14.1.1 (20251213.1925)
 -->
<!-- Title: gocallvis Pages: 1 -->
<svg width="1000pt" height="675pt"
 viewBox="0.00 0.00 1000.00 675.00" xmlns="http://www.w3.org/2000/svg" xmlns:xlink="http://www.w3.org/1999/xlink">
<g id="graph0" class="graph" transform="scale(1 1) rotate(0) translate(0 675)">
<title>gocallvis</title>
<polygon fill="lightgray" stroke="none" points="0,0 0,-675 999.87,-675 999.87,0 0,0"/>
<g id="clust1" class="cluster">
<title>cluster_focus</title>
<polygon fill="#e6ecfa" stroke="black" stroke-width="0.5" points="8,-8 8,-667 991.87,-667 991.87,-8 8,-8"/>
<text xml:space="preserve" text-anchor="middle" x="499.94" y="-645.9" font-family="Arial" font-size="18.00">objective</text>
</g>
<g id="clust2" class="cluster">
<title>cluster_github.com/guild&#45;framework/guild&#45;core/pkg/commission</title>
<g id="a_clust2"><a xlink:href="/?f=github.com/guild-framework/guild-core/pkg/commission" xlink:title="package: github.com/guild&#45;framework/guild&#45;core/pkg/commission">
<polygon fill="lightyellow" stroke="black" stroke-width="0.8" points="745.71,-16 745.71,-157 945.25,-157 945.25,-16 745.71,-16"/>
<text xml:space="preserve" text-anchor="middle" x="845.48" y="-137.8" font-family="Tahoma bold" font-size="16.00">commission</text>
</a>
</g>
</g>
<g id="clust3" class="cluster">
<title>cluster_github.com/guild&#45;framework/guild&#45;core/pkg/gerror</title>
<g id="a_clust3"><a xlink:href="/?f=github.com/guild-framework/guild-core/pkg/gerror" xlink:title="package: github.com/guild&#45;framework/guild&#45;core/pkg/gerror">
<polygon fill="lightyellow" stroke="black" stroke-width="0.8" points="721.33,-218 721.33,-481 969.62,-481 969.62,-218 721.33,-218"/>
<text xml:space="preserve" text-anchor="middle" x="845.48" y="-461.8" font-family="Tahoma bold" font-size="16.00">gerror</text>
</a>
</g>
</g>
<g id="clust4" class="cluster">
<title>cluster_github.com/guild&#45;framework/guild&#45;core/pkg/prompts</title>
<g id="a_clust4"><a xlink:href="/?f=github.com/guild-framework/guild-core/pkg/prompts" xlink:title="package: github.com/guild&#45;framework/guild&#45;core/pkg/prompts">
<polygon fill="lightyellow" stroke="black" stroke-width="0.8" points="707.08,-489 707.08,-630 983.87,-630 983.87,-489 707.08,-489"/>
<text xml:space="preserve" text-anchor="middle" x="845.48" y="-610.8" font-family="Tahoma bold" font-size="16.00">prompts</text>
</a>
</g>
</g>
<!-- (*github.com/guild&#45;framework/guild&#45;core/pkg/generator/commission.Generator).GenerateCommission$1 -->
<g id="node1" class="node">
<title>(*github.com/guild&#45;framework/guild&#45;core/pkg/generator/commission.Generator).GenerateCommission$1</title>
<g id="a_node1"><a xlink:title="(*github.com/guild&#45;framework/guild&#45;core/pkg/generator/commission.Generator).GenerateCommission$1 | defined in generator.go:79&#10;at generator.go:83: calling [(*github.com/guild&#45;framework/guild&#45;core/pkg/gerror.GuildError).WithOperation]&#10;at generator.go:81: calling [github.com/guild&#45;framework/guild&#45;core/pkg/gerror.Wrap]&#10;at generator.go:82: calling [(*github.com/guild&#45;framework/guild&#45;core/pkg/gerror.GuildError).WithComponent]">
<polygon fill="lightblue" stroke="black" stroke-dasharray="1,5" points="642.08,-398 356.54,-398 356.54,-362 642.08,-362 642.08,-398"/>
<text xml:space="preserve" text-anchor="middle" x="499.31" y="-375.32" font-family="Verdana" font-size="14.00">(*Generator).GenerateCommission$1</text>
</a>
</g>
</g>
<!-- github.com/guild&#45;framework/guild&#45;core/pkg/gerror.Wrap -->
<g id="node9" class="node">
<title>github.com/guild&#45;framework/guild&#45;core/pkg/gerror.Wrap</title>
<g id="a_node9"><a xlink:title="github.com/guild&#45;framework/guild&#45;core/pkg/gerror.Wrap | defined in errors.go:223">
<path fill="moccasin" stroke="black" stroke-width="1.5" d="M863.37,-445C863.37,-445 827.58,-445 827.58,-445 821.58,-445 815.58,-439 815.58,-433 815.58,-433 815.58,-421 815.58,-421 815.58,-415 821.58,-409 827.58,-409 827.58,-409 863.37,-409 863.37,-409 869.37,-409 875.37,-415 875.37,-421 875.37,-421 875.37,-433 875.37,-433 875.37,-439 869.37,-445 863.37,-445"/>
<text xml:space="preserve" text-anchor="middle" x="845.48" y="-422.32" font-family="Verdana" font-size="14.00">Wrap</text>
</a>
</g>
</g>
<!-- (*github.com/guild&#45;framework/guild&#45;core/pkg/generator/commission.Generator).GenerateCommission$1&#45;&gt;github.com/guild&#45;framework/guild&#45;core/pkg/gerror.Wrap -->
<g id="edge15" class="edge">
<title>(*github.com/guild&#45;framework/guild&#45;core/pkg/generator/commission.Generator).GenerateCommission$1&#45;&gt;github.com/guild&#45;framework/guild&#45;core/pkg/gerror.Wrap</title>
<g id="a_edge15"><a xlink:title="at generator.go:81: calling [github.com/guild&#45;framework/guild&#45;core/pkg/gerror.Wrap]">
<path fill="none" stroke="saddlebrown" d="M560.55,-398.49C594.67,-408.05 638.36,-418.79 678.08,-424 720.62,-429.58 769.79,-429.69 803.59,-428.81"/>
<polygon fill="saddlebrown" stroke="saddlebrown" points="803.47,-432.31 813.36,-428.51 803.25,-425.32 803.47,-432.31"/>
</a>
</g>
</g>
<!-- (*github.com/guild&#45;framework/guild&#45;core/pkg/gerror.GuildError).WithComponent -->
<g id="node10" class="node">
<title>(*github.com/guild&#45;framework/guild&#45;core/pkg/gerror.GuildError).WithComponent</title>
<g id="a_node10"><a xlink:title="(*github.com/guild&#45;framework/guild&#45;core/pkg/gerror.GuildError).WithComponent | defined in errors.go:156">
<path fill="moccasin" stroke="black" stroke-width="1.5" d="M949.62,-323C949.62,-323 741.33,-323 741.33,-323 735.33,-323 729.33,-317 729.33,-311 729.33,-311 729.33,-299 729.33,-299 729.33,-293 735.33,-287 741.33,-287 741.33,-287 949.62,-287 949.62,-287 955.62,-287 961.62,-293 961.62,-299 961.62,-299 961.62,-311 961.62,-311 961.62,-317 955.62,-323 949.62,-323"/>
<text xml:space="preserve" text-anchor="middle" x="845.48" y="-300.32" font-family="Verdana" font-size="14.00">(*GuildError).WithComponent</text>
</a>
</g>
</g>
<!-- (*github.com/guild&#45;framework/guild&#45;core/pkg/generator/commission.Generator).GenerateCommission$1&#45;&gt;(*github.com/guild&#45;framework/guild&#45;core/pkg/gerror.GuildError).WithComponent -->
<g id="edge19" class="edge">
<title>(*github.com/guild&#45;framework/guild&#45;core/pkg/generator/commission.Generator).GenerateCommission$1&#45;&gt;(*github.com/guild&#45;framework/guild&#45;core/pkg/gerror.GuildError).WithComponent</title>
<g id="a_edge19"><a xlink:title="at generator.go:82: calling [(*github.com/guild&#45;framework/guild&#45;core/pkg/gerror.GuildError).WithComponent]">
<path fill="none" stroke="saddlebrown" d="M584.94,-361.56C634.17,-350.83 696.41,-337.27 747.59,-326.11"/>
<polygon fill="saddlebrown" stroke="saddlebrown" points="748.17,-329.57 757.2,-324.02 746.68,-322.73 748.17,-329.57"/>
</a>
</g>
</g>
<!-- (*github.com/guild&#45;framework/guild&#45;core/pkg/gerror.GuildError).WithOperation -->
<g id="node11" class="node">
<title>(*github.com/guild&#45;framework/guild&#45;core/pkg/gerror.GuildError).WithOperation</title>
<g id="a_node11"><a xlink:title="(*github.com/guild&#45;framework/guild&#45;core/pkg/gerror.GuildError).WithOperation | defined in errors.go:162">
<path fill="moccasin" stroke="black" stroke-width="1.5" d="M944,-384C944,-384 746.96,-384 746.96,-384 740.96,-384 734.96,-378 734.96,-372 734.96,-372 734.96,-360 734.96,-360 734.96,-354 740.96,-348 746.96,-348 746.96,-348 944,-348 944,-348 950,-348 956,-354 956,-360 956,-360 956,-372 956,-372 956,-378 950,-384 944,-384"/>
<text xml:space="preserve" text-anchor="middle" x="845.48" y="-361.32" font-family="Verdana" font-size="14.00">(*GuildError).WithOperation</text>
</a>
</g>
</g>
<!-- (*github.com/guild&#45;framework/guild&#45;core/pkg/generator/commission.Generator).GenerateCommission$1&#45;&gt;(*github.com/guild&#45;framework/guild&#45;core/pkg/gerror.GuildError).WithOperation -->
<g id="edge9" class="edge">
<title>(*github.com/guild&#45;framework/guild&#45;core/pkg/generator/commission.Generator).GenerateCommission$1&#45;&gt;(*github.com/guild&#45;framework/guild&#45;core/pkg/gerror.GuildError).WithOperation</title>
<g id="a_edge9"><a xlink:title="at generator.go:83: calling [(*github.com/guild&#45;framework/guild&#45;core/pkg/gerror.GuildError).WithOperation]">
<path fill="none" stroke="saddlebrown" d="M642.28,-374.22C669.06,-373.14 696.84,-372.01 722.92,-370.94"/>
<polygon fill="saddlebrown" stroke="saddlebrown" points="723.01,-374.44 732.86,-370.54 722.73,-367.45 723.01,-374.44"/>
</a>
</g>
</g>
<!-- github.com/guild&#45;framework/guild&#45;core/pkg/generator/commission.newGenerator -->
<g id="node2" class="node">
<title>github.com/guild&#45;framework/guild&#45;core/pkg/generator/commission.newGenerator</title>
<g id="a_node2"><a xlink:title="github.com/guild&#45;framework/guild&#45;core/pkg/generator/commission.newGenerator | defined in generator.go:25&#10;at generator.go:29: calling [github.com/guild&#45;framework/guild&#45;core/pkg/gerror.Wrap]&#10;at generator.go:27: calling [github.com/guild&#45;framework/guild&#45;core/pkg/prompts.NewPromptManager]&#10;at generator.go:30: calling [(*github.com/guild&#45;framework/guild&#45;core/pkg/gerror.GuildError).WithComponent]&#10;at generator.go:31: calling [(*github.com/guild&#45;framework/guild&#45;core/pkg/gerror.GuildError).WithOperation]">
<path fill="lightblue" stroke="black" stroke-width="0.5" d="M547.95,-516C547.95,-516 450.66,-516 450.66,-516 444.66,-516 438.66,-510 438.66,-504 438.66,-504 438.66,-492 438.66,-492 438.66,-486 444.66,-480 450.66,-480 450.66,-480 547.95,-480 547.95,-480 553.95,-480 559.95,-486 559.95,-492 559.95,-492 559.95,-504 559.95,-504 559.95,-510 553.95,-516 547.95,-516"/>
<text xml:space="preserve" text-anchor="middle" x="499.31" y="-493.32" font-family="Verdana" font-size="14.00">newGenerator</text>
</a>
</g>
</g>
<!-- github.com/guild&#45;framework/guild&#45;core/pkg/generator/commission.newGenerator&#45;&gt;github.com/guild&#45;framework/guild&#45;core/pkg/gerror.Wrap -->
<g id="edge10" class="edge">
<title>github.com/guild&#45;framework/guild&#45;core/pkg/generator/commission.newGenerator&#45;&gt;github.com/guild&#45;framework/guild&#45;core/pkg/gerror.Wrap</title>
<g id="a_edge10"><a xlink:title="at generator.go:29: calling [github.com/guild&#45;framework/guild&#45;core/pkg/gerror.Wrap]">
<path fill="none" stroke="saddlebrown" d="M559.93,-494.15C594.9,-491.19 639.79,-486.18 679.08,-478 722.69,-468.92 771.25,-453.26 804.41,-441.68"/>
<polygon fill="saddlebrown" stroke="saddlebrown" points="805.35,-445.06 813.61,-438.42 803.01,-438.46 805.35,-445.06"/>
</a>
</g>
</g>
<!-- github.com/guild&#45;framework/guild&#45;core/pkg/generator/commission.newGenerator&#45;&gt;(*github.com/guild&#45;framework/guild&#45;core/pkg/gerror.GuildError).WithComponent -->
<g id="edge20" class="edge">
<title>github.com/guild&#45;framework/guild&#45;core/pkg/generator/commission.newGenerator&#45;&gt;(*github.com/guild&#45;framework/guild&#45;core/pkg/gerror.GuildError).WithComponent</title>
<g id="a_edge20"><a xlink:title="at generator.go:30: calling [(*github.com/guild&#45;framework/guild&#45;core/pkg/gerror.GuildError).WithComponent]">
<path fill="none" stroke="saddlebrown" d="M536.41,-479.86C566.34,-463.91 609.16,-438.93 642.08,-411 675.72,-382.46 669.23,-358.65 707.08,-336 712,-333.05 717.18,-330.39 722.52,-327.97"/>
<polygon fill="saddlebrown" stroke="saddlebrown" points="723.67,-331.28 731.56,-324.22 720.99,-324.82 723.67,-331.28"/>
</a>
</g>
</g>
<!-- github.com/guild&#45;framework/guild&#45;core/pkg/generator/commission.newGenerator&#45;&gt;(*github.com/guild&#45;framework/guild&#45;core/pkg/gerror.GuildError).WithOperation -->
<g id="edge21" class="edge">
<title>github.com/guild&#45;framework/guild&#45;core/pkg/generator/commission.newGenerator&#45;&gt;(*github.com/guild&#45;framework/guild&#45;core/pkg/gerror.GuildError).WithOperation</title>
<g id="a_edge21"><a xlink:title="at generator.go:31: calling [(*github.com/guild&#45;framework/guild&#45;core/pkg/gerror.GuildError).WithOperation]">
<path fill="none" stroke="saddlebrown" d="M531.55,-479.88C571.2,-457.55 642.26,-419.8 707.08,-397 716.84,-393.57 727.12,-390.42 737.5,-387.57"/>
<polygon fill="saddlebrown" stroke="saddlebrown" points="738.09,-391.03 746.85,-385.08 736.29,-384.27 738.09,-391.03"/>
</a>
</g>
</g>
<!-- github.com/guild&#45;framework/guild&#45;core/pkg/prompts.NewPromptManager -->
<g id="node13" class="node">
<title>github.com/guild&#45;framework/guild&#45;core/pkg/prompts.NewPromptManager</title>
<g id="a_node13"><a xlink:title="github.com/guild&#45;framework/guild&#45;core/pkg/prompts.NewPromptManager | defined in manager.go:22">
<path fill="moccasin" stroke="black" stroke-width="1.5" d="M915.5,-533C915.5,-533 775.46,-533 775.46,-533 769.46,-533 763.46,-527 763.46,-521 763.46,-521 763.46,-509 763.46,-509 763.46,-503 769.46,-497 775.46,-497 775.46,-497 915.5,-497 915.5,-497 921.5,-497 927.5,-503 927.5,-509 927.5,-509 927.5,-521 927.5,-521 927.5,-527 921.5,-533 915.5,-533"/>
<text xml:space="preserve" text-anchor="middle" x="845.48" y="-510.32" font-family="Verdana" font-size="14.00">NewPromptManager</text>
</a>
</g>
</g>
<!-- github.com/guild&#45;framework/guild&#45;core/pkg/generator/commission.newGenerator&#45;&gt;github.com/guild&#45;framework/guild&#45;core/pkg/prompts.NewPromptManager -->
<g id="edge16" class="edge">
<title>github.com/guild&#45;framework/guild&#45;core/pkg/generator/commission.newGenerator&#45;&gt;github.com/guild&#45;framework/guild&#45;core/pkg/prompts.NewPromptManager</title>
<g id="a_edge16"><a xlink:title="at generator.go:27: calling [github.com/guild&#45;framework/guild&#45;core/pkg/prompts.NewPromptManager]">
<path fill="none" stroke="saddlebrown" d="M559.87,-500.94C612.66,-503.55 690.62,-507.4 751.61,-510.41"/>
<polygon fill="saddlebrown" stroke="saddlebrown" points="751.11,-513.89 761.27,-510.89 751.46,-506.9 751.11,-513.89"/>
</a>
</g>
</g>
<!-- github.com/guild&#45;framework/guild&#45;core/pkg/generator/commission.DefaultGeneratorFactory -->
<g id="node3" class="node">
<title>github.com/guild&#45;framework/guild&#45;core/pkg/generator/commission.DefaultGeneratorFactory</title>
<g id="a_node3"><a xlink:title="github.com/guild&#45;framework/guild&#45;core/pkg/generator/commission.DefaultGeneratorFactory | defined in generator.go:41&#10;at generator.go:42: calling [github.com/guild&#45;framework/guild&#45;core/pkg/generator/commission.newGenerator]">
<path fill="lightblue" stroke="black" stroke-width="1.5" d="M234.79,-630C234.79,-630 64.75,-630 64.75,-630 58.75,-630 52.75,-624 52.75,-618 52.75,-618 52.75,-606 52.75,-606 52.75,-600 58.75,-594 64.75,-594 64.75,-594 234.79,-594 234.79,-594 240.79,-594 246.79,-600 246.79,-606 246.79,-606 246.79,-618 246.79,-618 246.79,-624 240.79,-630 234.79,-630"/>
<text xml:space="preserve" text-anchor="middle" x="149.77" y="-607.33" font-family="Verdana" font-size="14.00">DefaultGeneratorFactory</text>
</a>
</g>
</g>
<!-- github.com/guild&#45;framework/guild&#45;core/pkg/generator/commission.DefaultGeneratorFactory&#45;&gt;github.com/guild&#45;framework/guild&#45;core/pkg/generator/commission.newGenerator -->
<g id="edge22" class="edge">
<title>github.com/guild&#45;framework/guild&#45;core/pkg/generator/commission.DefaultGeneratorFactory&#45;&gt;github.com/guild&#45;framework/guild&#45;core/pkg/generator/commission.newGenerator</title>
<g id="a_edge22"><a xlink:title="at generator.go:42: calling [github.com/guild&#45;framework/guild&#45;core/pkg/generator/commission.newGenerator]">
<path fill="none" stroke="black" d="M207.77,-593.3C269.21,-573.15 366.89,-541.11 431.8,-519.82"/>
<polygon fill="black" stroke="black" points="432.87,-523.15 441.28,-516.71 430.69,-516.5 432.87,-523.15"/>
</a>
</g>
</g>
<!-- (*github.com/guild&#45;framework/guild&#45;core/pkg/generator/commission.Generator).GenerateAIDocs -->
<g id="node4" class="node">
<title>(*github.com/guild&#45;framework/guild&#45;core/pkg/generator/commission.Generator).GenerateAIDocs</title>
<g id="a_node4"><a xlink:title="(*github.com/guild&#45;framework/guild&#45;core/pkg/generator/commission.Generator).GenerateAIDocs | defined in generator.go:101&#10;at generator.go:111: calling [github.com/guild&#45;framework/guild&#45;core/pkg/gerror.Wrap]&#10;at generator.go:120: calling [github.com/guild&#45;framework/guild&#45;core/pkg/gerror.Wrap]&#10;at generator.go:113: calling [(*github.com/guild&#45;framework/guild&#45;core/pkg/gerror.GuildError).WithOperation]&#10;at generator.go:122: calling [(*github.com/guild&#45;framework/guild&#45;core/pkg/gerror.GuildError).WithOperation]&#10;at generator.go:127: calling [github.com/guild&#45;framework/guild&#45;core/pkg/generator/commission.parseMultipleMarkdownDocs]&#10;at generator.go:109: calling [(*github.com/guild&#45;framework/guild&#45;core/pkg/prompts.PromptManager).RenderPrompt]&#10;at generator.go:112: calling [(*github.com/guild&#45;framework/guild&#45;core/pkg/gerror.GuildError).WithComponent]&#10;at generator.go:121: calling [(*github.com/guild&#45;framework/guild&#45;core/pkg/gerror.GuildError).WithComponent]&#10;at generator.go:114: calling [(*github.com/guild&#45;framework/guild&#45;core/pkg/gerror.GuildError).WithDetails]&#10;at generator.go:123: calling [(*github.com/guild&#45;framework/guild&#45;core/pkg/gerror.GuildError).WithDetails]&#10;at generator.go:104: calling [(*github.com/guild&#45;framework/guild&#45;core/pkg/commission.Commission).Format]">
<path fill="lightblue" stroke="black" stroke-width="1.5" d="M603.45,-229C603.45,-229 395.16,-229 395.16,-229 389.16,-229 383.16,-223 383.16,-217 383.16,-217 383.16,-205 383.16,-205 383.16,-199 389.16,-193 395.16,-193 395.16,-193 603.45,-193 603.45,-193 609.45,-193 615.45,-199 615.45,-205 615.45,-205 615.45,-217 615.45,-217 615.45,-223 609.45,-229 603.45,-229"/>
<text xml:space="preserve" text-anchor="middle" x="499.31" y="-206.32" font-family="Verdana" font-size="14.00">(*Generator).GenerateAIDocs</text>
</a>
</g>
</g>
<!-- github.com/guild&#45;framework/guild&#45;core/pkg/generator/commission.parseMultipleMarkdownDocs -->
<g id="node5" class="node">
<title>github.com/guild&#45;framework/guild&#45;core/pkg/generator/commission.parseMultipleMarkdownDocs</title>
<g id="a_node5"><a xlink:title="github.com/guild&#45;framework/guild&#45;core/pkg/generator/commission.parseMultipleMarkdownDocs | defined in generator.go:148">
<path fill="lightblue" stroke="black" stroke-width="0.5" d="M944.75,-201C944.75,-201 746.21,-201 746.21,-201 740.21,-201 734.21,-195 734.21,-189 734.21,-189 734.21,-177 734.21,-177 734.21,-171 740.21,-165 746.21,-165 746.21,-165 944.75,-165 944.75,-165 950.75,-165 956.75,-171 956.75,-177 956.75,-177 956.75,-189 956.75,-189 956.75,-195 950.75,-201 944.75,-201"/>
<text xml:space="preserve" text-anchor="middle" x="845.48" y="-178.32" font-family="Verdana" font-size="14.00">parseMultipleMarkdownDocs</text>
</a>
</g>
</g>
<!-- (*github.com/guild&#45;framework/guild&#45;core/pkg/generator/commission.Generator).GenerateAIDocs&#45;&gt;github.com/guild&#45;framework/guild&#45;core/pkg/generator/commission.parseMultipleMarkdownDocs -->
<g id="edge3" class="edge">
<title>(*github.com/guild&#45;framework/guild&#45;core/pkg/generator/commission.Generator).GenerateAIDocs&#45;&gt;github.com/guild&#45;framework/guild&#45;core/pkg/generator/commission.parseMultipleMarkdownDocs</title>
<g id="a_edge3"><a xlink:title="at generator.go:127: calling [github.com/guild&#45;framework/guild&#45;core/pkg/generator/commission.parseMultipleMarkdownDocs]">
<path fill="none" stroke="black" d="M615.97,-199.44C636.65,-197.52 657.99,-195.62 678.08,-194 692.71,-192.82 708.07,-191.67 723.3,-190.59"/>
<polygon fill="black" stroke="black" points="723.11,-194.12 732.84,-189.93 722.62,-187.13 723.11,-194.12"/>
</a>
</g>
</g>
<!-- (*github.com/guild&#45;framework/guild&#45;core/pkg/commission.Commission).Format -->
<g id="node7" class="node">
<title>(*github.com/guild&#45;framework/guild&#45;core/pkg/commission.Commission).Format</title>
<g id="a_node7"><a xlink:title="(*github.com/guild&#45;framework/guild&#45;core/pkg/commission.Commission).Format | defined in models.go:62">
<path fill="moccasin" stroke="black" stroke-width="1.5" d="M925.25,-121C925.25,-121 765.71,-121 765.71,-121 759.71,-121 753.71,-115 753.71,-109 753.71,-109 753.71,-97 753.71,-97 753.71,-91 759.71,-85 765.71,-85 765.71,-85 925.25,-85 925.25,-85 931.25,-85 937.25,-91 937.25,-97 937.25,-97 937.25,-109 937.25,-109 937.25,-115 931.25,-121 925.25,-121"/>
<text xml:space="preserve" text-anchor="middle" x="845.48" y="-98.33" font-family="Verdana" font-size="14.00">(*Commission).Format</text>
</a>
</g>
</g>
<!-- (*github.com/guild&#45;framework/guild&#45;core/pkg/generator/commission.Generator).GenerateAIDocs&#45;&gt;(*github.com/guild&#45;framework/guild&#45;core/pkg/commission.Commission).Format -->
<g id="edge17" class="edge">
<title>(*github.com/guild&#45;framework/guild&#45;core/pkg/generator/commission.Generator).GenerateAIDocs&#45;&gt;(*github.com/guild&#45;framework/guild&#45;core/pkg/commission.Commission).Format</title>
<g id="a_edge17"><a xlink:title="at generator.go:104: calling [(*github.com/guild&#45;framework/guild&#45;core/pkg/commission.Commission).Format]">
<path fill="none" stroke="saddlebrown" d="M537.46,-192.41C578.13,-172.8 645.74,-142.4 707.08,-125 718.38,-121.79 730.34,-119.01 742.31,-116.61"/>
<polygon fill="saddlebrown" stroke="saddlebrown" points="742.63,-120.11 751.79,-114.79 741.31,-113.24 742.63,-120.11"/>
</a>
</g>
</g>
<!-- (*github.com/guild&#45;framework/guild&#45;core/pkg/generator/commission.Generator).GenerateAIDocs&#45;&gt;github.com/guild&#45;framework/guild&#45;core/pkg/gerror.Wrap -->
<g id="edge1" class="edge">
<title>(*github.com/guild&#45;framework/guild&#45;core/pkg/generator/commission.Generator).GenerateAIDocs&#45;&gt;github.com/guild&#45;framework/guild&#45;core/pkg/gerror.Wrap</title>
<g id="a_edge1"><a xlink:title="at generator.go:111: calling [github.com/guild&#45;framework/guild&#45;core/pkg/gerror.Wrap]&#10;at generator.go:120: calling [github.com/guild&#45;framework/guild&#45;core/pkg/gerror.Wrap]">
<path fill="none" stroke="saddlebrown" d="M518.55,-229.68C560.55,-272.32 663.79,-374.81 707.08,-397 737.35,-412.52 775.36,-420.03 803.72,-423.66"/>
<polygon fill="saddlebrown" stroke="saddlebrown" points="803.01,-427.1 813.35,-424.77 803.82,-420.14 803.01,-427.1"/>
</a>
</g>
</g>
<!-- (*github.com/guild&#45;framework/guild&#45;core/pkg/generator/commission.Generator).GenerateAIDocs&#45;&gt;(*github.com/guild&#45;framework/guild&#45;core/pkg/gerror.GuildError).WithComponent -->
<g id="edge6" class="edge">
<title>(*github.com/guild&#45;framework/guild&#45;core/pkg/generator/commission.Generator).GenerateAIDocs&#45;&gt;(*github.com/guild&#45;framework/guild&#45;core/pkg/gerror.GuildError).WithComponent</title>
<g id="a_edge6"><a xlink:title="at generator.go:112: calling [(*github.com/guild&#45;framework/guild&#45;core/pkg/gerror.GuildError).WithComponent]&#10;at generator.go:121: calling [(*github.com/guild&#45;framework/guild&#45;core/pkg/gerror.GuildError).WithComponent]">
<path fill="none" stroke="saddlebrown" d="M616.16,-225.04C637.84,-230.4 659.74,-237.79 679.08,-248 694.37,-256.07 691.84,-266.85 707.08,-275 712.07,-277.67 717.27,-280.1 722.62,-282.31"/>
<polygon fill="saddlebrown" stroke="saddlebrown" points="721.06,-285.46 731.65,-285.76 723.56,-278.92 721.06,-285.46"/>
</a>
</g>
</g>
<!-- (*github.com/guild&#45;framework/guild&#45;core/pkg/generator/commission.Generator).GenerateAIDocs&#45;&gt;(*github.com/guild&#45;framework/guild&#45;core/pkg/gerror.GuildError).WithOperation -->
<g id="edge2" class="edge">
<title>(*github.com/guild&#45;framework/guild&#45;core/pkg/generator/commission.Generator).GenerateAIDocs&#45;&gt;(*github.com/guild&#45;framework/guild&#45;core/pkg/gerror.GuildError).WithOperation</title>
<g id="a_edge2"><a xlink:title="at generator.go:113: calling [(*github.com/guild&#45;framework/guild&#45;core/pkg/gerror.GuildError).WithOperation]&#10;at generator.go:122: calling [(*github.com/guild&#45;framework/guild&#45;core/pkg/gerror.GuildError).WithOperation]">
<path fill="none" stroke="saddlebrown" d="M524.99,-229.66C562.39,-257.04 636.55,-307.88 707.08,-336 714.49,-338.95 722.24,-341.64 730.13,-344.08"/>
<polygon fill="saddlebrown" stroke="saddlebrown" points="728.92,-347.37 739.5,-346.84 730.89,-340.66 728.92,-347.37"/>
</a>
</g>
</g>
<!-- (*github.com/guild&#45;framework/guild&#45;core/pkg/gerror.GuildError).WithDetails -->
<g id="node12" class="node">
<title>(*github.com/guild&#45;framework/guild&#45;core/pkg/gerror.GuildError).WithDetails</title>
<g id="a_node12"><a xlink:title="(*github.com/guild&#45;framework/guild&#45;core/pkg/gerror.GuildError).WithDetails | defined in errors.go:147">
<path fill="moccasin" stroke="black" stroke-width="1.5" d="M933.12,-262C933.12,-262 757.83,-262 757.83,-262 751.83,-262 745.83,-256 745.83,-250 745.83,-250 745.83,-238 745.83,-238 745.83,-232 751.83,-226 757.83,-226 757.83,-226 933.12,-226 933.12,-226 939.12,-226 945.12,-232 945.12,-238 945.12,-238 945.12,-250 945.12,-250 945.12,-256 939.12,-262 933.12,-262"/>
<text xml:space="preserve" text-anchor="middle" x="845.48" y="-239.32" font-family="Verdana" font-size="14.00">(*GuildError).WithDetails</text>
</a>
</g>
</g>
<!-- (*github.com/guild&#45;framework/guild&#45;core/pkg/generator/commission.Generator).GenerateAIDocs&#45;&gt;(*github.com/guild&#45;framework/guild&#45;core/pkg/gerror.GuildError).WithDetails -->
<g id="edge7" class="edge">
<title>(*github.com/guild&#45;framework/guild&#45;core/pkg/generator/commission.Generator).GenerateAIDocs&#45;&gt;(*github.com/guild&#45;framework/guild&#45;core/pkg/gerror.GuildError).WithDetails</title>
<g id="a_edge7"><a xlink:title="at generator.go:114: calling [(*github.com/guild&#45;framework/guild&#45;core/pkg/gerror.GuildError).WithDetails]&#10;at generator.go:123: calling [(*github.com/guild&#45;framework/guild&#45;core/pkg/gerror.GuildError).WithDetails]">
<path fill="none" stroke="saddlebrown" d="M615.82,-216.06C636.89,-217.39 658.66,-219.01 679.08,-221 696.88,-222.73 715.71,-224.97 734.03,-227.36"/>
<polygon fill="saddlebrown" stroke="saddlebrown" points="733.49,-230.82 743.87,-228.67 734.41,-223.88 733.49,-230.82"/>
</a>
</g>
</g>
<!-- (*github.com/guild&#45;framework/guild&#45;core/pkg/prompts.PromptManager).RenderPrompt -->
<g id="node14" class="node">
<title>(*github.com/guild&#45;framework/guild&#45;core/pkg/prompts.PromptManager).RenderPrompt</title>
<g id="a_node14"><a xlink:title="(*github.com/guild&#45;framework/guild&#45;core/pkg/prompts.PromptManager).RenderPrompt | defined in manager.go:47">
<path fill="moccasin" stroke="black" stroke-width="1.5" d="M963.87,-594C963.87,-594 727.08,-594 727.08,-594 721.08,-594 715.08,-588 715.08,-582 715.08,-582 715.08,-570 715.08,-570 715.08,-564 721.08,-558 727.08,-558 727.08,-558 963.87,-558 963.87,-558 969.87,-558 975.87,-564 975.87,-570 975.87,-570 975.87,-582 975.87,-582 975.87,-588 969.87,-594 963.87,-594"/>
<text xml:space="preserve" text-anchor="middle" x="845.48" y="-571.33" font-family="Verdana" font-size="14.00">(*PromptManager).RenderPrompt</text>
</a>
</g>
</g>
<!-- (*github.com/guild&#45;framework/guild&#45;core/pkg/generator/commission.Generator).GenerateAIDocs&#45;&gt;(*github.com/guild&#45;framework/guild&#45;core/pkg/prompts.PromptManager).RenderPrompt -->
<g id="edge5" class="edge">
<title>(*github.com/guild&#45;framework/guild&#45;core/pkg/generator/commission.Generator).GenerateAIDocs&#45;&gt;(*github.com/guild&#45;framework/guild&#45;core/pkg/prompts.PromptManager).RenderPrompt</title>
<g id="a_edge5"><a xlink:title="at generator.go:109: calling [(*github.com/guild&#45;framework/guild&#45;core/pkg/prompts.PromptManager).RenderPrompt]">
<path fill="none" stroke="saddlebrown" d="M525.67,-229.62C557.18,-253.98 610.61,-299.55 642.08,-350 690.65,-427.87 638.86,-484.61 707.08,-546 709.18,-547.89 711.38,-549.68 713.65,-551.36"/>
<polygon fill="saddlebrown" stroke="saddlebrown" points="711.24,-553.96 721.52,-556.5 715.07,-548.1 711.24,-553.96"/>
</a>
</g>
</g>
<!-- (*github.com/guild&#45;framework/guild&#45;core/pkg/generator/commission.Generator).GenerateCommission -->
<g id="node6" class="node">
<title>(*github.com/guild&#45;framework/guild&#45;core/pkg/generator/commission.Generator).GenerateCommission</title>
<g id="a_node6"><a xlink:title="(*github.com/guild&#45;framework/guild&#45;core/pkg/generator/commission.Generator).GenerateCommission | defined in generator.go:46&#10;at generator.go:55: calling [github.com/guild&#45;framework/guild&#45;core/pkg/gerror.Wrap]&#10;at generator.go:64: calling [github.com/guild&#45;framework/guild&#45;core/pkg/gerror.Wrap]&#10;at generator.go:73: calling [github.com/guild&#45;framework/guild&#45;core/pkg/gerror.Wrap]&#10;at generator.go:90: calling [github.com/guild&#45;framework/guild&#45;core/pkg/gerror.Wrap]&#10;at generator.go:88: calling [github.com/guild&#45;framework/guild&#45;core/pkg/commission.ParseFile]&#10;at generator.go:53: calling [(*github.com/guild&#45;framework/guild&#45;core/pkg/prompts.PromptManager).RenderPrompt]&#10;at generator.go:56: calling [(*github.com/guild&#45;framework/guild&#45;core/pkg/gerror.GuildError).WithComponent]&#10;at generator.go:65: calling [(*github.com/guild&#45;framework/guild&#45;core/pkg/gerror.GuildError).WithComponent]&#10;at generator.go:74: calling [(*github.com/guild&#45;framework/guild&#45;core/pkg/gerror.GuildError).WithComponent]&#10;at generator.go:91: calling [(*github.com/guild&#45;framework/guild&#45;core/pkg/gerror.GuildError).WithComponent]&#10;at generator.go:58: calling [(*github.com/guild&#45;framework/guild&#45;core/pkg/gerror.GuildError).WithDetails]&#10;at generator.go:67: calling [(*github.com/guild&#45;framework/guild&#45;core/pkg/gerror.GuildError).WithDetails]&#10;at generator.go:76: calling [(*github.com/guild&#45;framework/guild&#45;core/pkg/gerror.GuildError).WithDetails]&#10;at generator.go:77: calling [(*github.com/guild&#45;framework/guild&#45;core/pkg/gerror.GuildError).WithDetails]&#10;at generator.go:93: calling [(*github.com/guild&#45;framework/guild&#45;core/pkg/gerror.GuildError).WithDetails]&#10;at generator.go:94: calling [(*github.com/guild&#45;framework/guild&#45;core/pkg/gerror.GuildError).WithDetails]&#10;at generator.go:79: calling [(*github.com/guild&#45;framework/guild&#45;core/pkg/generator/commission.Generator).GenerateCommission$1]&#10;at generator.go:57: calling [(*github.com/guild&#45;framework/guild&#45;core/pkg/gerror.GuildError).WithOperation]&#10;at generator.go:66: calling [(*github.com/guild&#45;framework/guild&#45;core/pkg/gerror.GuildError).WithOperation]&#10;at generator.go:75: calling [(*github.com/guild&#45;framework/guild&#45;core/pkg/gerror.GuildError).WithOperation]&#10;at generator.go:92: calling [(*github.com/guild&#45;framework/guild&#45;core/pkg/gerror.GuildError).WithOperation]">
<path fill="lightblue" stroke="black" stroke-width="1.5" d="M271.54,-354C271.54,-354 28,-354 28,-354 22,-354 16,-348 16,-342 16,-342 16,-330 16,-330 16,-324 22,-318 28,-318 28,-318 271.54,-318 271.54,-318 277.54,-318 283.54,-324 283.54,-330 283.54,-330 283.54,-342 283.54,-342 283.54,-348 277.54,-354 271.54,-354"/>
<text xml:space="preserve" text-anchor="middle" x="149.77" y="-331.32" font-family="Verdana" font-size="14.00">(*Generator).GenerateCommission</text>
</a>
</g>
</g>
<!-- (*github.com/guild&#45;framework/guild&#45;core/pkg/generator/commission.Generator).GenerateCommission&#45;&gt;(*github.com/guild&#45;framework/guild&#45;core/pkg/generator/commission.Generator).GenerateCommission$1 -->
<g id="edge14" class="edge">
<title>(*github.com/guild&#45;framework/guild&#45;core/pkg/generator/commission.Generator).GenerateCommission&#45;&gt;(*github.com/guild&#45;framework/guild&#45;core/pkg/generator/commission.Generator).GenerateCommission$1</title>
<g id="a_edge14"><a xlink:title="at generator.go:79: calling [(*github.com/guild&#45;framework/guild&#45;core/pkg/generator/commission.Generator).GenerateCommission$1]">
<path fill="none" stroke="black" d="M284.14,-352.89C298.12,-354.66 312.47,-356.47 326.8,-358.29"/>
<polygon fill="black" stroke="black" points="344.2,-364.02 354.56,-361.8 345.08,-357.07 344.2,-364.02"/>
<polyline fill="none" stroke="black" points="344.14,-360.48 339.18,-359.85"/>
<polygon fill="none" stroke="black" points="326.38,-358.23 332.84,-355.02 338.29,-359.74 331.83,-362.95 326.38,-358.23"/>
</a>
</g>
</g>
<!-- github.com/guild&#45;framework/guild&#45;core/pkg/commission.ParseFile -->
<g id="node8" class="node">
<title>github.com/guild&#45;framework/guild&#45;core/pkg/commission.ParseFile</title>
<g id="a_node8"><a xlink:title="github.com/guild&#45;framework/guild&#45;core/pkg/commission.ParseFile | defined in parser.go:139">
<path fill="moccasin" stroke="black" stroke-width="1.5" d="M876.12,-60C876.12,-60 814.83,-60 814.83,-60 808.83,-60 802.83,-54 802.83,-48 802.83,-48 802.83,-36 802.83,-36 802.83,-30 808.83,-24 814.83,-24 814.83,-24 876.12,-24 876.12,-24 882.12,-24 888.12,-30 888.12,-36 888.12,-36 888.12,-48 888.12,-48 888.12,-54 882.12,-60 876.12,-60"/>
<text xml:space="preserve" text-anchor="middle" x="845.48" y="-37.33" font-family="Verdana" font-size="14.00">ParseFile</text>
</a>
</g>
</g>
<!-- (*github.com/guild&#45;framework/guild&#45;core/pkg/generator/commission.Generator).GenerateCommission&#45;&gt;github.com/guild&#45;framework/guild&#45;core/pkg/commission.ParseFile -->
<g id="edge8" class="edge">
<title>(*github.com/guild&#45;framework/guild&#45;core/pkg/generator/commission.Generator).GenerateCommission&#45;&gt;github.com/guild&#45;framework/guild&#45;core/pkg/commission.ParseFile</title>
<g id="a_edge8"><a xlink:title="at generator.go:88: calling [github.com/guild&#45;framework/guild&#45;core/pkg/commission.ParseFile]">
<path fill="none" stroke="saddlebrown" d="M165,-317.51C195.57,-279.16 271.67,-190.91 356.54,-147 501.56,-71.97 697.47,-50.5 790.76,-44.4"/>
<polygon fill="saddlebrown" stroke="saddlebrown" points="790.88,-47.9 800.65,-43.79 790.45,-40.91 790.88,-47.9"/>
</a>
</g>
</g>
<!-- (*github.com/guild&#45;framework/guild&#45;core/pkg/generator/commission.Generator).GenerateCommission&#45;&gt;github.com/guild&#45;framework/guild&#45;core/pkg/gerror.Wrap -->
<g id="edge4" class="edge">
<title>(*github.com/guild&#45;framework/guild&#45;core/pkg/generator/commission.Generator).GenerateCommission&#45;&gt;github.com/guild&#45;framework/guild&#45;core/pkg/gerror.Wrap</title>
<g id="a_edge4"><a xlink:title="at generator.go:55: calling [github.com/guild&#45;framework/guild&#45;core/pkg/gerror.Wrap]&#10;at generator.go:64: calling [github.com/guild&#45;framework/guild&#45;core/pkg/gerror.Wrap]&#10;at generator.go:73: calling [github.com/guild&#45;framework/guild&#45;core/pkg/gerror.Wrap]&#10;at generator.go:90: calling [github.com/guild&#45;framework/guild&#45;core/pkg/gerror.Wrap]">
<path fill="none" stroke="saddlebrown" d="M162.93,-354.49C191.1,-395.44 265.45,-492.97 356.54,-529 474.55,-575.68 521.14,-567.46 642.08,-529 675.81,-518.27 676.05,-500.01 707.08,-483 738.49,-465.78 776.31,-450.75 804.31,-440.61"/>
<polygon fill="saddlebrown" stroke="saddlebrown" points="805.23,-443.99 813.48,-437.34 802.89,-437.4 805.23,-443.99"/>
</a>
</g>
</g>
<!-- (*github.com/guild&#45;framework/guild&#45;core/pkg/generator/commission.Generator).GenerateCommission&#45;&gt;(*github.com/guild&#45;framework/guild&#45;core/pkg/gerror.GuildError).WithComponent -->
<g id="edge12" class="edge">
<title>(*github.com/guild&#45;framework/guild&#45;core/pkg/generator/commission.Generator).GenerateCommission&#45;&gt;(*github.com/guild&#45;framework/guild&#45;core/pkg/gerror.GuildError).WithComponent</title>
<g id="a_edge12"><a xlink:title="at generator.go:56: calling [(*github.com/guild&#45;framework/guild&#45;core/pkg/gerror.GuildError).WithComponent]&#10;at generator.go:65: calling [(*github.com/guild&#45;framework/guild&#45;core/pkg/gerror.GuildError).WithComponent]&#10;at generator.go:74: calling [(*github.com/guild&#45;framework/guild&#45;core/pkg/gerror.GuildError).WithComponent]&#10;at generator.go:91: calling [(*github.com/guild&#45;framework/guild&#45;core/pkg/gerror.GuildError).WithComponent]">
<path fill="none" stroke="saddlebrown" d="M284.11,-330.04C409.1,-324.46 594.64,-316.16 717.51,-310.67"/>
<polygon fill="saddlebrown" stroke="saddlebrown" points="717.49,-314.18 727.32,-310.24 717.18,-307.19 717.49,-314.18"/>
</a>
</g>
</g>
<!-- (*github.com/guild&#45;framework/guild&#45;core/pkg/generator/commission.Generator).GenerateCommission&#45;&gt;(*github.com/guild&#45;framework/guild&#45;core/pkg/gerror.GuildError).WithOperation -->
<g id="edge18" class="edge">
<title>(*github.com/guild&#45;framework/guild&#45;core/pkg/generator/commission.Generator).GenerateCommission&#45;&gt;(*github.com/guild&#45;framework/guild&#45;core/pkg/gerror.GuildError).WithOperation</title>
<g id="a_edge18"><a xlink:title="at generator.go:57: calling [(*github.com/guild&#45;framework/guild&#45;core/pkg/gerror.GuildError).WithOperation]&#10;at generator.go:66: calling [(*github.com/guild&#45;framework/guild&#45;core/pkg/gerror.GuildError).WithOperation]&#10;at generator.go:75: calling [(*github.com/guild&#45;framework/guild&#45;core/pkg/gerror.GuildError).WithOperation]&#10;at generator.go:92: calling [(*github.com/guild&#45;framework/guild&#45;core/pkg/gerror.GuildError).WithOperation]">
<path fill="none" stroke="saddlebrown" d="M284.04,-337.98C382.91,-339.9 520.98,-343.49 642.08,-350 668.26,-351.41 696.31,-353.35 722.93,-355.39"/>
<polygon fill="saddlebrown" stroke="saddlebrown" points="722.5,-358.87 732.74,-356.15 723.04,-351.89 722.5,-358.87"/>
</a>
</g>
</g>
<!-- (*github.com/guild&#45;framework/guild&#45;core/pkg/generator/commission.Generator).GenerateCommission&#45;&gt;(*github.com/guild&#45;framework/guild&#45;core/pkg/gerror.GuildError).WithDetails -->
<g id="edge13" class="edge">
<title>(*github.com/guild&#45;framework/guild&#45;core/pkg/generator/commission.Generator).GenerateCommission&#45;&gt;(*github.com/guild&#45;framework/guild&#45;core/pkg/gerror.GuildError).WithDetails</title>
<g id="a_edge13"><a xlink:title="at generator.go:58: calling [(*github.com/guild&#45;framework/guild&#45;core/pkg/gerror.GuildError).WithDetails]&#10;at generator.go:67: calling [(*github.com/guild&#45;framework/guild&#45;core/pkg/gerror.GuildError).WithDetails]&#10;at generator.go:76: calling [(*github.com/guild&#45;framework/guild&#45;core/pkg/gerror.GuildError).WithDetails]&#10;at generator.go:77: calling [(*github.com/guild&#45;framework/guild&#45;core/pkg/gerror.GuildError).WithDetails]&#10;at generator.go:93: calling [(*github.com/guild&#45;framework/guild&#45;core/pkg/gerror.GuildError).WithDetails]&#10;at generator.go:94: calling [(*github.com/guild&#45;framework/guild&#45;core/pkg/gerror.GuildError).WithDetails]">
<path fill="none" stroke="saddlebrown" d="M167.15,-317.43C199.29,-282.58 274.68,-208.38 356.54,-181 476.89,-140.74 520.16,-145.76 642.08,-181 674.89,-190.48 675.12,-209.94 707.08,-222 715.77,-225.28 724.95,-228.07 734.28,-230.44"/>
<polygon fill="saddlebrown" stroke="saddlebrown" points="733.26,-233.8 743.8,-232.7 734.87,-226.99 733.26,-233.8"/>
</a>
</g>
</g>
<!-- (*github.com/guild&#45;framework/guild&#45;core/pkg/generator/commission.Generator).GenerateCommission&#45;&gt;(*github.com/guild&#45;framework/guild&#45;core/pkg/prompts.PromptManager).RenderPrompt -->
<g id="edge11" class="edge">
<title>(*github.com/guild&#45;framework/guild&#45;core/pkg/generator/commission.Generator).GenerateCommission&#45;&gt;(*github.com/guild&#45;framework/guild&#45;core/pkg/prompts.PromptManager).RenderPrompt</title>
<g id="a_edge11"><a xlink:title="at generator.go:53: calling [(*github.com/guild&#45;framework/guild&#45;core/pkg/prompts.PromptManager).RenderPrompt]">
<path fill="none" stroke="saddlebrown" d="M161.1,-354.72C186.99,-399.38 259.54,-511.43 356.54,-552 466.35,-597.93 602.4,-600.71 702.92,-593.86"/>
<polygon fill="saddlebrown" stroke="saddlebrown" points="703.15,-597.35 712.87,-593.13 702.65,-590.37 703.15,-597.35"/>
</a>
</g>
</g>
</g>
</svg>
