<?xml version="1.0" encoding="UTF-8" standalone="no"?>
<!DOCTYPE svg PUBLIC "-//W3C//DTD SVG 1.1//EN"
 "http://www.w3.org/Graphics/SVG/1.1/DTD/svg11.dtd">
<!-- Generated by graphviz version 14.1.1 (20251213.1925)
 -->
<!-- Title: gocallvis Pages: 1 -->
<svg width="802pt" height="621pt"
 viewBox="0.00 0.00 802.00 621.00" xmlns="http://www.w3.org/2000/svg" xmlns:xlink="http://www.w3.org/1999/xlink">
<g id="graph0" class="graph" transform="scale(1 1) rotate(0) translate(0 621)">
<title>gocallvis</title>
<polygon fill="lightgray" stroke="none" points="0,0 0,-621 801.87,-621 801.87,0 0,0"/>
<g id="clust1" class="cluster">
<title>cluster_focus</title>
<polygon fill="#e6ecfa" stroke="black" stroke-width="0.5" points="8,-8 8,-613 793.87,-613 793.87,-8 8,-8"/>
<text xml:space="preserve" text-anchor="middle" x="400.93" y="-591.9" font-family="Arial" font-size="18.00">global</text>
</g>
<g id="clust2" class="cluster">
<title>cluster_github.com/guild&#45;framework/guild&#45;core/pkg/gerror</title>
<g id="a_clust2"><a xlink:href="/?f=github.com/guild-framework/guild-core/pkg/gerror" xlink:title="package: github.com/guild&#45;framework/guild&#45;core/pkg/gerror">
<polygon fill="lightyellow" stroke="black" stroke-width="0.8" points="537.58,-252 537.58,-576 785.87,-576 785.87,-252 537.58,-252"/>
<text xml:space="preserve" text-anchor="middle" x="661.72" y="-556.8" font-family="Tahoma bold" font-size="16.00">gerror</text>
</a>
</g>
</g>
<!-- github.com/guild&#45;framework/guild&#45;core/pkg/project/global.GlobalTemplatePath -->
<g id="node1" class="node">
<title>github.com/guild&#45;framework/guild&#45;core/pkg/project/global.GlobalTemplatePath</title>
<g id="a_node1"><a xlink:title="github.com/guild&#45;framework/guild&#45;core/pkg/project/global.GlobalTemplatePath | defined in global.go:379&#10;at global.go:380: calling [github.com/guild&#45;framework/guild&#45;core/pkg/project/global.GlobalGuildDir]">
<path fill="lightblue" stroke="black" stroke-width="1.5" d="M441.08,-201C441.08,-201 304.04,-201 304.04,-201 298.04,-201 292.04,-195 292.04,-189 292.04,-189 292.04,-177 292.04,-177 292.04,-171 298.04,-165 304.04,-165 304.04,-165 441.08,-165 441.08,-165 447.08,-165 453.08,-171 453.08,-177 453.08,-177 453.08,-189 453.08,-189 453.08,-195 447.08,-201 441.08,-201"/>
<text xml:space="preserve" text-anchor="middle" x="372.56" y="-178.32" font-family="Verdana" font-size="14.00">GlobalTemplatePath</text>
</a>
</g>
</g>
<!-- github.com/guild&#45;framework/guild&#45;core/pkg/project/global.GlobalGuildDir -->
<g id="node2" class="node">
<title>github.com/guild&#45;framework/guild&#45;core/pkg/project/global.GlobalGuildDir</title>
<g id="a_node2"><a xlink:title="github.com/guild&#45;framework/guild&#45;core/pkg/project/global.GlobalGuildDir | defined in global.go:26">
<path fill="lightblue" stroke="black" stroke-width="1.5" d="M711.12,-52C711.12,-52 612.33,-52 612.33,-52 606.33,-52 600.33,-46 600.33,-40 600.33,-40 600.33,-28 600.33,-28 600.33,-22 606.33,-16 612.33,-16 612.33,-16 711.12,-16 711.12,-16 717.12,-16 723.12,-22 723.12,-28 723.12,-28 723.12,-40 723.12,-40 723.12,-46 717.12,-52 711.12,-52"/>
<text xml:space="preserve" text-anchor="middle" x="661.72" y="-29.32" font-family="Verdana" font-size="14.00">GlobalGuildDir</text>
</a>
</g>
</g>
<!-- github.com/guild&#45;framework/guild&#45;core/pkg/project/global.GlobalTemplatePath&#45;&gt;github.com/guild&#45;framework/guild&#45;core/pkg/project/global.GlobalGuildDir -->
<g id="edge1" class="edge">
<title>github.com/guild&#45;framework/guild&#45;core/pkg/project/global.GlobalTemplatePath&#45;&gt;github.com/guild&#45;framework/guild&#45;core/pkg/project/global.GlobalGuildDir</title>
<g id="a_edge1"><a xlink:title="at global.go:380: calling [github.com/guild&#45;framework/guild&#45;core/pkg/project/global.GlobalGuildDir]">
<path fill="none" stroke="black" d="M452.54,-164.27C459.61,-161.08 466.42,-157.35 472.58,-153 512.31,-124.97 497.19,-92.08 537.58,-65 552.67,-54.88 570.81,-48.06 588.47,-43.47"/>
<polygon fill="black" stroke="black" points="589.27,-46.88 598.2,-41.18 587.66,-40.07 589.27,-46.88"/>
</a>
</g>
</g>
<!-- github.com/guild&#45;framework/guild&#45;core/pkg/project/global.EnsureGlobalInitialized -->
<g id="node3" class="node">
<title>github.com/guild&#45;framework/guild&#45;core/pkg/project/global.EnsureGlobalInitialized</title>
<g id="a_node3"><a xlink:title="github.com/guild&#45;framework/guild&#45;core/pkg/project/global.EnsureGlobalInitialized | defined in global.go:355&#10;at global.go:365: calling [github.com/guild&#45;framework/guild&#45;core/pkg/project/global.InitializeGlobal]&#10;at global.go:356: calling [github.com/guild&#45;framework/guild&#45;core/pkg/project/global.GlobalGuildDir]">
<path fill="lightblue" stroke="black" stroke-width="1.5" d="M187.54,-57C187.54,-57 28,-57 28,-57 22,-57 16,-51 16,-45 16,-45 16,-33 16,-33 16,-27 22,-21 28,-21 28,-21 187.54,-21 187.54,-21 193.54,-21 199.54,-27 199.54,-33 199.54,-33 199.54,-45 199.54,-45 199.54,-51 193.54,-57 187.54,-57"/>
<text xml:space="preserve" text-anchor="middle" x="107.77" y="-34.33" font-family="Verdana" font-size="14.00">EnsureGlobalInitialized</text>
</a>
</g>
</g>
<!-- github.com/guild&#45;framework/guild&#45;core/pkg/project/global.EnsureGlobalInitialized&#45;&gt;github.com/guild&#45;framework/guild&#45;core/pkg/project/global.GlobalGuildDir -->
<g id="edge13" class="edge">
<title>github.com/guild&#45;framework/guild&#45;core/pkg/project/global.EnsureGlobalInitialized&#45;&gt;github.com/guild&#45;framework/guild&#45;core/pkg/project/global.GlobalGuildDir</title>
<g id="a_edge13"><a xlink:title="at global.go:356: calling [github.com/guild&#45;framework/guild&#45;core/pkg/project/global.GlobalGuildDir]">
<path fill="none" stroke="black" d="M200.13,-33.75C223.71,-32.61 249.06,-31.57 272.54,-31 382.83,-28.31 510.8,-30.29 588.74,-32.06"/>
<polygon fill="black" stroke="black" points="588.27,-35.55 598.35,-32.29 588.44,-28.55 588.27,-35.55"/>
</a>
</g>
</g>
<!-- github.com/guild&#45;framework/guild&#45;core/pkg/project/global.InitializeGlobal -->
<g id="node4" class="node">
<title>github.com/guild&#45;framework/guild&#45;core/pkg/project/global.InitializeGlobal</title>
<g id="a_node4"><a xlink:title="github.com/guild&#45;framework/guild&#45;core/pkg/project/global.InitializeGlobal | defined in global.go:36&#10;at global.go:51: calling [github.com/guild&#45;framework/guild&#45;core/pkg/gerror.Wrap]&#10;at global.go:69: calling [github.com/guild&#45;framework/guild&#45;core/pkg/gerror.Wrap]&#10;at global.go:76: calling [github.com/guild&#45;framework/guild&#45;core/pkg/gerror.Wrap]&#10;at global.go:83: calling [github.com/guild&#45;framework/guild&#45;core/pkg/gerror.Wrap]&#10;at global.go:82: calling [github.com/guild&#45;framework/guild&#45;core/pkg/project/global.createTemplates]&#10;at global.go:37: calling [github.com/guild&#45;framework/guild&#45;core/pkg/project/global.GlobalGuildDir]&#10;at global.go:53: calling [(*github.com/guild&#45;framework/guild&#45;core/pkg/gerror.GuildError).WithOperation]&#10;at global.go:63: calling [(*github.com/guild&#45;framework/guild&#45;core/pkg/gerror.GuildError).WithOperation]&#10;at global.go:71: calling [(*github.com/guild&#45;framework/guild&#45;core/pkg/gerror.GuildError).WithOperation]&#10;at global.go:78: calling [(*github.com/guild&#45;framework/guild&#45;core/pkg/gerror.GuildError).WithOperation]&#10;at global.go:85: calling [(*github.com/guild&#45;framework/guild&#45;core/pkg/gerror.GuildError).WithOperation]&#10;at global.go:54: calling [(*github.com/guild&#45;framework/guild&#45;core/pkg/gerror.GuildError).WithDetails]&#10;at global.go:68: calling [github.com/guild&#45;framework/guild&#45;core/pkg/project/global.createDefaultGlobalConfig]&#10;at global.go:75: calling [github.com/guild&#45;framework/guild&#45;core/pkg/project/global.createProviderConfigs]&#10;at global.go:52: calling [(*github.com/guild&#45;framework/guild&#45;core/pkg/gerror.GuildError).WithComponent]&#10;at global.go:62: calling [(*github.com/guild&#45;framework/guild&#45;core/pkg/gerror.GuildError).WithComponent]&#10;at global.go:70: calling [(*github.com/guild&#45;framework/guild&#45;core/pkg/gerror.GuildError).WithComponent]&#10;at global.go:77: calling [(*github.com/guild&#45;framework/guild&#45;core/pkg/gerror.GuildError).WithComponent]&#10;at global.go:84: calling [(*github.com/guild&#45;framework/guild&#45;core/pkg/gerror.GuildError).WithComponent]&#10;at global.go:61: calling [github.com/guild&#45;framework/guild&#45;core/pkg/gerror.Wrapf]">
<path fill="lightblue" stroke="black" stroke-width="1.5" d="M423.45,-267C423.45,-267 321.66,-267 321.66,-267 315.66,-267 309.66,-261 309.66,-255 309.66,-255 309.66,-243 309.66,-243 309.66,-237 315.66,-231 321.66,-231 321.66,-231 423.45,-231 423.45,-231 429.45,-231 435.45,-237 435.45,-243 435.45,-243 435.45,-255 435.45,-255 435.45,-261 429.45,-267 423.45,-267"/>
<text xml:space="preserve" text-anchor="middle" x="372.56" y="-244.32" font-family="Verdana" font-size="14.00">InitializeGlobal</text>
</a>
</g>
</g>
<!-- github.com/guild&#45;framework/guild&#45;core/pkg/project/global.EnsureGlobalInitialized&#45;&gt;github.com/guild&#45;framework/guild&#45;core/pkg/project/global.InitializeGlobal -->
<g id="edge5" class="edge">
<title>github.com/guild&#45;framework/guild&#45;core/pkg/project/global.EnsureGlobalInitialized&#45;&gt;github.com/guild&#45;framework/guild&#45;core/pkg/project/global.InitializeGlobal</title>
<g id="a_edge5"><a xlink:title="at global.go:365: calling [github.com/guild&#45;framework/guild&#45;core/pkg/project/global.InitializeGlobal]">
<path fill="none" stroke="black" d="M121.43,-57.59C146.38,-92.9 205.33,-170.05 272.54,-214 280.49,-219.2 289.31,-223.73 298.31,-227.66"/>
<polygon fill="black" stroke="black" points="296.94,-230.88 307.52,-231.41 299.58,-224.39 296.94,-230.88"/>
</a>
</g>
</g>
<!-- github.com/guild&#45;framework/guild&#45;core/pkg/project/global.InitializeGlobal&#45;&gt;github.com/guild&#45;framework/guild&#45;core/pkg/project/global.GlobalGuildDir -->
<g id="edge8" class="edge">
<title>github.com/guild&#45;framework/guild&#45;core/pkg/project/global.InitializeGlobal&#45;&gt;github.com/guild&#45;framework/guild&#45;core/pkg/project/global.GlobalGuildDir</title>
<g id="a_edge8"><a xlink:title="at global.go:37: calling [github.com/guild&#45;framework/guild&#45;core/pkg/project/global.GlobalGuildDir]">
<path fill="none" stroke="black" d="M436.02,-235.62C449.25,-230.54 462.3,-223.57 472.58,-214 525.46,-164.77 482.46,-111.71 537.58,-65 551.86,-52.9 570.2,-45.42 588.35,-40.82"/>
<polygon fill="black" stroke="black" points="589.12,-44.23 598.11,-38.64 587.59,-37.4 589.12,-44.23"/>
</a>
</g>
</g>
<!-- github.com/guild&#45;framework/guild&#45;core/pkg/project/global.createDefaultGlobalConfig -->
<g id="node5" class="node">
<title>github.com/guild&#45;framework/guild&#45;core/pkg/project/global.createDefaultGlobalConfig</title>
<g id="a_node5"><a xlink:title="github.com/guild&#45;framework/guild&#45;core/pkg/project/global.createDefaultGlobalConfig | defined in global.go:92">
<path fill="lightblue" stroke="black" stroke-width="0.5" d="M752.37,-113C752.37,-113 571.08,-113 571.08,-113 565.08,-113 559.08,-107 559.08,-101 559.08,-101 559.08,-89 559.08,-89 559.08,-83 565.08,-77 571.08,-77 571.08,-77 752.37,-77 752.37,-77 758.37,-77 764.37,-83 764.37,-89 764.37,-89 764.37,-101 764.37,-101 764.37,-107 758.37,-113 752.37,-113"/>
<text xml:space="preserve" text-anchor="middle" x="661.72" y="-90.33" font-family="Verdana" font-size="14.00">createDefaultGlobalConfig</text>
</a>
</g>
</g>
<!-- github.com/guild&#45;framework/guild&#45;core/pkg/project/global.InitializeGlobal&#45;&gt;github.com/guild&#45;framework/guild&#45;core/pkg/project/global.createDefaultGlobalConfig -->
<g id="edge11" class="edge">
<title>github.com/guild&#45;framework/guild&#45;core/pkg/project/global.InitializeGlobal&#45;&gt;github.com/guild&#45;framework/guild&#45;core/pkg/project/global.createDefaultGlobalConfig</title>
<g id="a_edge11"><a xlink:title="at global.go:68: calling [github.com/guild&#45;framework/guild&#45;core/pkg/project/global.createDefaultGlobalConfig]">
<path fill="none" stroke="black" d="M436.1,-233.25C448.89,-228.34 461.73,-222.03 472.58,-214 511.66,-185.07 497.19,-153.08 537.58,-126 542.04,-123.01 546.76,-120.31 551.66,-117.87"/>
<polygon fill="black" stroke="black" points="552.89,-121.16 560.55,-113.84 550,-114.78 552.89,-121.16"/>
</a>
</g>
</g>
<!-- github.com/guild&#45;framework/guild&#45;core/pkg/project/global.createProviderConfigs -->
<g id="node6" class="node">
<title>github.com/guild&#45;framework/guild&#45;core/pkg/project/global.createProviderConfigs</title>
<g id="a_node6"><a xlink:title="github.com/guild&#45;framework/guild&#45;core/pkg/project/global.createProviderConfigs | defined in global.go:143">
<path fill="lightblue" stroke="black" stroke-width="0.5" d="M738.12,-174C738.12,-174 585.33,-174 585.33,-174 579.33,-174 573.33,-168 573.33,-162 573.33,-162 573.33,-150 573.33,-150 573.33,-144 579.33,-138 585.33,-138 585.33,-138 738.12,-138 738.12,-138 744.12,-138 750.12,-144 750.12,-150 750.12,-150 750.12,-162 750.12,-162 750.12,-168 744.12,-174 738.12,-174"/>
<text xml:space="preserve" text-anchor="middle" x="661.72" y="-151.32" font-family="Verdana" font-size="14.00">createProviderConfigs</text>
</a>
</g>
</g>
<!-- github.com/guild&#45;framework/guild&#45;core/pkg/project/global.InitializeGlobal&#45;&gt;github.com/guild&#45;framework/guild&#45;core/pkg/project/global.createProviderConfigs -->
<g id="edge12" class="edge">
<title>github.com/guild&#45;framework/guild&#45;core/pkg/project/global.InitializeGlobal&#45;&gt;github.com/guild&#45;framework/guild&#45;core/pkg/project/global.createProviderConfigs</title>
<g id="a_edge12"><a xlink:title="at global.go:75: calling [github.com/guild&#45;framework/guild&#45;core/pkg/project/global.createProviderConfigs]">
<path fill="none" stroke="black" d="M428.23,-230.27C442.71,-225.15 458.28,-219.49 472.58,-214 501.78,-202.78 507.89,-196.84 537.58,-187 548.02,-183.54 559.06,-180.25 570.08,-177.2"/>
<polygon fill="black" stroke="black" points="570.87,-180.61 579.61,-174.62 569.04,-173.85 570.87,-180.61"/>
</a>
</g>
</g>
<!-- github.com/guild&#45;framework/guild&#45;core/pkg/project/global.createTemplates -->
<g id="node7" class="node">
<title>github.com/guild&#45;framework/guild&#45;core/pkg/project/global.createTemplates</title>
<g id="a_node7"><a xlink:title="github.com/guild&#45;framework/guild&#45;core/pkg/project/global.createTemplates | defined in global.go:219">
<path fill="lightblue" stroke="black" stroke-width="0.5" d="M717.87,-235C717.87,-235 605.58,-235 605.58,-235 599.58,-235 593.58,-229 593.58,-223 593.58,-223 593.58,-211 593.58,-211 593.58,-205 599.58,-199 605.58,-199 605.58,-199 717.87,-199 717.87,-199 723.87,-199 729.87,-205 729.87,-211 729.87,-211 729.87,-223 729.87,-223 729.87,-229 723.87,-235 717.87,-235"/>
<text xml:space="preserve" text-anchor="middle" x="661.72" y="-212.32" font-family="Verdana" font-size="14.00">createTemplates</text>
</a>
</g>
</g>
<!-- github.com/guild&#45;framework/guild&#45;core/pkg/project/global.InitializeGlobal&#45;&gt;github.com/guild&#45;framework/guild&#45;core/pkg/project/global.createTemplates -->
<g id="edge4" class="edge">
<title>github.com/guild&#45;framework/guild&#45;core/pkg/project/global.InitializeGlobal&#45;&gt;github.com/guild&#45;framework/guild&#45;core/pkg/project/global.createTemplates</title>
<g id="a_edge4"><a xlink:title="at global.go:82: calling [github.com/guild&#45;framework/guild&#45;core/pkg/project/global.createTemplates]">
<path fill="none" stroke="black" d="M435.87,-242.06C478.84,-237.27 536.3,-230.86 582.38,-225.73"/>
<polygon fill="black" stroke="black" points="582.47,-229.24 592.02,-224.66 581.7,-222.28 582.47,-229.24"/>
</a>
</g>
</g>
<!-- github.com/guild&#45;framework/guild&#45;core/pkg/gerror.Wrap -->
<g id="node11" class="node">
<title>github.com/guild&#45;framework/guild&#45;core/pkg/gerror.Wrap</title>
<g id="a_node11"><a xlink:title="github.com/guild&#45;framework/guild&#45;core/pkg/gerror.Wrap | defined in errors.go:223">
<path fill="moccasin" stroke="black" stroke-width="1.5" d="M679.62,-479C679.62,-479 643.83,-479 643.83,-479 637.83,-479 631.83,-473 631.83,-467 631.83,-467 631.83,-455 631.83,-455 631.83,-449 637.83,-443 643.83,-443 643.83,-443 679.62,-443 679.62,-443 685.62,-443 691.62,-449 691.62,-455 691.62,-455 691.62,-467 691.62,-467 691.62,-473 685.62,-479 679.62,-479"/>
<text xml:space="preserve" text-anchor="middle" x="661.72" y="-456.32" font-family="Verdana" font-size="14.00">Wrap</text>
</a>
</g>
</g>
<!-- github.com/guild&#45;framework/guild&#45;core/pkg/project/global.InitializeGlobal&#45;&gt;github.com/guild&#45;framework/guild&#45;core/pkg/gerror.Wrap -->
<g id="edge2" class="edge">
<title>github.com/guild&#45;framework/guild&#45;core/pkg/project/global.InitializeGlobal&#45;&gt;github.com/guild&#45;framework/guild&#45;core/pkg/gerror.Wrap</title>
<g id="a_edge2"><a xlink:title="at global.go:51: calling [github.com/guild&#45;framework/guild&#45;core/pkg/gerror.Wrap]&#10;at global.go:69: calling [github.com/guild&#45;framework/guild&#45;core/pkg/gerror.Wrap]&#10;at global.go:76: calling [github.com/guild&#45;framework/guild&#45;core/pkg/gerror.Wrap]&#10;at global.go:83: calling [github.com/guild&#45;framework/guild&#45;core/pkg/gerror.Wrap]">
<path fill="none" stroke="saddlebrown" d="M384.75,-267.55C408.18,-304.71 466.18,-388.38 537.58,-431 562.62,-445.95 594.73,-453.46 619.89,-457.23"/>
<polygon fill="saddlebrown" stroke="saddlebrown" points="619.38,-460.69 629.76,-458.55 620.31,-453.75 619.38,-460.69"/>
</a>
</g>
</g>
<!-- (*github.com/guild&#45;framework/guild&#45;core/pkg/gerror.GuildError).WithComponent -->
<g id="node12" class="node">
<title>(*github.com/guild&#45;framework/guild&#45;core/pkg/gerror.GuildError).WithComponent</title>
<g id="a_node12"><a xlink:title="(*github.com/guild&#45;framework/guild&#45;core/pkg/gerror.GuildError).WithComponent | defined in errors.go:156">
<path fill="moccasin" stroke="black" stroke-width="1.5" d="M765.87,-540C765.87,-540 557.58,-540 557.58,-540 551.58,-540 545.58,-534 545.58,-528 545.58,-528 545.58,-516 545.58,-516 545.58,-510 551.58,-504 557.58,-504 557.58,-504 765.87,-504 765.87,-504 771.87,-504 777.87,-510 777.87,-516 777.87,-516 777.87,-528 777.87,-528 777.87,-534 771.87,-540 765.87,-540"/>
<text xml:space="preserve" text-anchor="middle" x="661.72" y="-517.33" font-family="Verdana" font-size="14.00">(*GuildError).WithComponent</text>
</a>
</g>
</g>
<!-- github.com/guild&#45;framework/guild&#45;core/pkg/project/global.InitializeGlobal&#45;&gt;(*github.com/guild&#45;framework/guild&#45;core/pkg/gerror.GuildError).WithComponent -->
<g id="edge14" class="edge">
<title>github.com/guild&#45;framework/guild&#45;core/pkg/project/global.InitializeGlobal&#45;&gt;(*github.com/guild&#45;framework/guild&#45;core/pkg/gerror.GuildError).WithComponent</title>
<g id="a_edge14"><a xlink:title="at global.go:52: calling [(*github.com/guild&#45;framework/guild&#45;core/pkg/gerror.GuildError).WithComponent]&#10;at global.go:62: calling [(*github.com/guild&#45;framework/guild&#45;core/pkg/gerror.GuildError).WithComponent]&#10;at global.go:70: calling [(*github.com/guild&#45;framework/guild&#45;core/pkg/gerror.GuildError).WithComponent]&#10;at global.go:77: calling [(*github.com/guild&#45;framework/guild&#45;core/pkg/gerror.GuildError).WithComponent]&#10;at global.go:84: calling [(*github.com/guild&#45;framework/guild&#45;core/pkg/gerror.GuildError).WithComponent]">
<path fill="none" stroke="saddlebrown" d="M385.94,-267.73C423.19,-324.03 532.04,-488.15 537.58,-492 540.84,-494.27 544.25,-496.37 547.78,-498.31"/>
<polygon fill="saddlebrown" stroke="saddlebrown" points="546.12,-501.39 556.63,-502.69 549.23,-495.12 546.12,-501.39"/>
</a>
</g>
</g>
<!-- (*github.com/guild&#45;framework/guild&#45;core/pkg/gerror.GuildError).WithOperation -->
<g id="node13" class="node">
<title>(*github.com/guild&#45;framework/guild&#45;core/pkg/gerror.GuildError).WithOperation</title>
<g id="a_node13"><a xlink:title="(*github.com/guild&#45;framework/guild&#45;core/pkg/gerror.GuildError).WithOperation | defined in errors.go:162">
<path fill="moccasin" stroke="black" stroke-width="1.5" d="M760.24,-418C760.24,-418 563.2,-418 563.2,-418 557.2,-418 551.2,-412 551.2,-406 551.2,-406 551.2,-394 551.2,-394 551.2,-388 557.2,-382 563.2,-382 563.2,-382 760.24,-382 760.24,-382 766.24,-382 772.24,-388 772.24,-394 772.24,-394 772.24,-406 772.24,-406 772.24,-412 766.24,-418 760.24,-418"/>
<text xml:space="preserve" text-anchor="middle" x="661.72" y="-395.32" font-family="Verdana" font-size="14.00">(*GuildError).WithOperation</text>
</a>
</g>
</g>
<!-- github.com/guild&#45;framework/guild&#45;core/pkg/project/global.InitializeGlobal&#45;&gt;(*github.com/guild&#45;framework/guild&#45;core/pkg/gerror.GuildError).WithOperation -->
<g id="edge9" class="edge">
<title>github.com/guild&#45;framework/guild&#45;core/pkg/project/global.InitializeGlobal&#45;&gt;(*github.com/guild&#45;framework/guild&#45;core/pkg/gerror.GuildError).WithOperation</title>
<g id="a_edge9"><a xlink:title="at global.go:53: calling [(*github.com/guild&#45;framework/guild&#45;core/pkg/gerror.GuildError).WithOperation]&#10;at global.go:63: calling [(*github.com/guild&#45;framework/guild&#45;core/pkg/gerror.GuildError).WithOperation]&#10;at global.go:71: calling [(*github.com/guild&#45;framework/guild&#45;core/pkg/gerror.GuildError).WithOperation]&#10;at global.go:78: calling [(*github.com/guild&#45;framework/guild&#45;core/pkg/gerror.GuildError).WithOperation]&#10;at global.go:85: calling [(*github.com/guild&#45;framework/guild&#45;core/pkg/gerror.GuildError).WithOperation]">
<path fill="none" stroke="saddlebrown" d="M393.09,-267.53C422.23,-294.16 479.88,-343.03 537.58,-370 543.52,-372.78 549.74,-375.31 556.1,-377.63"/>
<polygon fill="saddlebrown" stroke="saddlebrown" points="554.89,-380.91 565.48,-380.83 557.15,-374.28 554.89,-380.91"/>
</a>
</g>
</g>
<!-- (*github.com/guild&#45;framework/guild&#45;core/pkg/gerror.GuildError).WithDetails -->
<g id="node14" class="node">
<title>(*github.com/guild&#45;framework/guild&#45;core/pkg/gerror.GuildError).WithDetails</title>
<g id="a_node14"><a xlink:title="(*github.com/guild&#45;framework/guild&#45;core/pkg/gerror.GuildError).WithDetails | defined in errors.go:147">
<path fill="moccasin" stroke="black" stroke-width="1.5" d="M749.37,-357C749.37,-357 574.08,-357 574.08,-357 568.08,-357 562.08,-351 562.08,-345 562.08,-345 562.08,-333 562.08,-333 562.08,-327 568.08,-321 574.08,-321 574.08,-321 749.37,-321 749.37,-321 755.37,-321 761.37,-327 761.37,-333 761.37,-333 761.37,-345 761.37,-345 761.37,-351 755.37,-357 749.37,-357"/>
<text xml:space="preserve" text-anchor="middle" x="661.72" y="-334.32" font-family="Verdana" font-size="14.00">(*GuildError).WithDetails</text>
</a>
</g>
</g>
<!-- github.com/guild&#45;framework/guild&#45;core/pkg/project/global.InitializeGlobal&#45;&gt;(*github.com/guild&#45;framework/guild&#45;core/pkg/gerror.GuildError).WithDetails -->
<g id="edge10" class="edge">
<title>github.com/guild&#45;framework/guild&#45;core/pkg/project/global.InitializeGlobal&#45;&gt;(*github.com/guild&#45;framework/guild&#45;core/pkg/gerror.GuildError).WithDetails</title>
<g id="a_edge10"><a xlink:title="at global.go:54: calling [(*github.com/guild&#45;framework/guild&#45;core/pkg/gerror.GuildError).WithDetails]">
<path fill="none" stroke="saddlebrown" d="M420.46,-267.74C453.01,-280.36 497.54,-296.84 537.58,-309 547.17,-311.91 557.24,-314.74 567.32,-317.41"/>
<polygon fill="saddlebrown" stroke="saddlebrown" points="566.22,-320.74 576.78,-319.87 567.98,-313.97 566.22,-320.74"/>
</a>
</g>
</g>
<!-- github.com/guild&#45;framework/guild&#45;core/pkg/gerror.Wrapf -->
<g id="node15" class="node">
<title>github.com/guild&#45;framework/guild&#45;core/pkg/gerror.Wrapf</title>
<g id="a_node15"><a xlink:title="github.com/guild&#45;framework/guild&#45;core/pkg/gerror.Wrapf | defined in errors.go:245">
<path fill="moccasin" stroke="black" stroke-width="1.5" d="M682.24,-296C682.24,-296 641.2,-296 641.2,-296 635.2,-296 629.2,-290 629.2,-284 629.2,-284 629.2,-272 629.2,-272 629.2,-266 635.2,-260 641.2,-260 641.2,-260 682.24,-260 682.24,-260 688.24,-260 694.24,-266 694.24,-272 694.24,-272 694.24,-284 694.24,-284 694.24,-290 688.24,-296 682.24,-296"/>
<text xml:space="preserve" text-anchor="middle" x="661.72" y="-273.32" font-family="Verdana" font-size="14.00">Wrapf</text>
</a>
</g>
</g>
<!-- github.com/guild&#45;framework/guild&#45;core/pkg/project/global.InitializeGlobal&#45;&gt;github.com/guild&#45;framework/guild&#45;core/pkg/gerror.Wrapf -->
<g id="edge15" class="edge">
<title>github.com/guild&#45;framework/guild&#45;core/pkg/project/global.InitializeGlobal&#45;&gt;github.com/guild&#45;framework/guild&#45;core/pkg/gerror.Wrapf</title>
<g id="a_edge15"><a xlink:title="at global.go:61: calling [github.com/guild&#45;framework/guild&#45;core/pkg/gerror.Wrapf]">
<path fill="none" stroke="saddlebrown" d="M435.87,-255.29C490.73,-260.83 569.2,-268.76 617.45,-273.63"/>
<polygon fill="saddlebrown" stroke="saddlebrown" points="616.93,-277.1 627.23,-274.62 617.64,-270.13 616.93,-277.1"/>
</a>
</g>
</g>
<!-- github.com/guild&#45;framework/guild&#45;core/pkg/project/global.GlobalConfigPath -->
<g id="node8" class="node">
<title>github.com/guild&#45;framework/guild&#45;core/pkg/project/global.GlobalConfigPath</title>
<g id="a_node8"><a xlink:title="github.com/guild&#45;framework/guild&#45;core/pkg/project/global.GlobalConfigPath | defined in global.go:369&#10;at global.go:370: calling [github.com/guild&#45;framework/guild&#45;core/pkg/project/global.GlobalGuildDir]">
<path fill="lightblue" stroke="black" stroke-width="1.5" d="M431.7,-79C431.7,-79 313.41,-79 313.41,-79 307.41,-79 301.41,-73 301.41,-67 301.41,-67 301.41,-55 301.41,-55 301.41,-49 307.41,-43 313.41,-43 313.41,-43 431.7,-43 431.7,-43 437.7,-43 443.7,-49 443.7,-55 443.7,-55 443.7,-67 443.7,-67 443.7,-73 437.7,-79 431.7,-79"/>
<text xml:space="preserve" text-anchor="middle" x="372.56" y="-56.33" font-family="Verdana" font-size="14.00">GlobalConfigPath</text>
</a>
</g>
</g>
<!-- github.com/guild&#45;framework/guild&#45;core/pkg/project/global.GlobalConfigPath&#45;&gt;github.com/guild&#45;framework/guild&#45;core/pkg/project/global.GlobalGuildDir -->
<g id="edge3" class="edge">
<title>github.com/guild&#45;framework/guild&#45;core/pkg/project/global.GlobalConfigPath&#45;&gt;github.com/guild&#45;framework/guild&#45;core/pkg/project/global.GlobalGuildDir</title>
<g id="a_edge3"><a xlink:title="at global.go:370: calling [github.com/guild&#45;framework/guild&#45;core/pkg/project/global.GlobalGuildDir]">
<path fill="none" stroke="black" d="M444.18,-54.36C488.02,-50.24 544.23,-44.95 588.39,-40.8"/>
<polygon fill="black" stroke="black" points="588.5,-44.31 598.13,-39.89 587.84,-37.34 588.5,-44.31"/>
</a>
</g>
</g>
<!-- github.com/guild&#45;framework/guild&#45;core/pkg/project/global.GlobalProviderConfigPath -->
<g id="node9" class="node">
<title>github.com/guild&#45;framework/guild&#45;core/pkg/project/global.GlobalProviderConfigPath</title>
<g id="a_node9"><a xlink:title="github.com/guild&#45;framework/guild&#45;core/pkg/project/global.GlobalProviderConfigPath | defined in global.go:374&#10;at global.go:375: calling [github.com/guild&#45;framework/guild&#45;core/pkg/project/global.GlobalGuildDir]">
<path fill="lightblue" stroke="black" stroke-width="1.5" d="M460.58,-140C460.58,-140 284.54,-140 284.54,-140 278.54,-140 272.54,-134 272.54,-128 272.54,-128 272.54,-116 272.54,-116 272.54,-110 278.54,-104 284.54,-104 284.54,-104 460.58,-104 460.58,-104 466.58,-104 472.58,-110 472.58,-116 472.58,-116 472.58,-128 472.58,-128 472.58,-134 466.58,-140 460.58,-140"/>
<text xml:space="preserve" text-anchor="middle" x="372.56" y="-117.33" font-family="Verdana" font-size="14.00">GlobalProviderConfigPath</text>
</a>
</g>
</g>
<!-- github.com/guild&#45;framework/guild&#45;core/pkg/project/global.GlobalProviderConfigPath&#45;&gt;github.com/guild&#45;framework/guild&#45;core/pkg/project/global.GlobalGuildDir -->
<g id="edge6" class="edge">
<title>github.com/guild&#45;framework/guild&#45;core/pkg/project/global.GlobalProviderConfigPath&#45;&gt;github.com/guild&#45;framework/guild&#45;core/pkg/project/global.GlobalGuildDir</title>
<g id="a_edge6"><a xlink:title="at global.go:375: calling [github.com/guild&#45;framework/guild&#45;core/pkg/project/global.GlobalGuildDir]">
<path fill="none" stroke="black" d="M438.58,-103.31C449.98,-99.75 461.67,-95.91 472.58,-92 502.03,-81.45 507.89,-74.84 537.58,-65 553.97,-59.56 571.87,-54.55 588.8,-50.21"/>
<polygon fill="black" stroke="black" points="589.46,-53.66 598.3,-47.83 587.75,-46.87 589.46,-53.66"/>
</a>
</g>
</g>
<!-- github.com/guild&#45;framework/guild&#45;core/pkg/project/global.ListTemplates -->
<g id="node10" class="node">
<title>github.com/guild&#45;framework/guild&#45;core/pkg/project/global.ListTemplates</title>
<g id="a_node10"><a xlink:title="github.com/guild&#45;framework/guild&#45;core/pkg/project/global.ListTemplates | defined in global.go:384&#10;at global.go:394: calling [(*github.com/guild&#45;framework/guild&#45;core/pkg/gerror.GuildError).WithOperation]&#10;at global.go:385: calling [github.com/guild&#45;framework/guild&#45;core/pkg/project/global.GlobalGuildDir]&#10;at global.go:392: calling [github.com/guild&#45;framework/guild&#45;core/pkg/gerror.Wrap]&#10;at global.go:393: calling [(*github.com/guild&#45;framework/guild&#45;core/pkg/gerror.GuildError).WithComponent]">
<path fill="lightblue" stroke="black" stroke-width="1.5" d="M419.7,-446C419.7,-446 325.41,-446 325.41,-446 319.41,-446 313.41,-440 313.41,-434 313.41,-434 313.41,-422 313.41,-422 313.41,-416 319.41,-410 325.41,-410 325.41,-410 419.7,-410 419.7,-410 425.7,-410 431.7,-416 431.7,-422 431.7,-422 431.7,-434 431.7,-434 431.7,-440 425.7,-446 419.7,-446"/>
<text xml:space="preserve" text-anchor="middle" x="372.56" y="-423.32" font-family="Verdana" font-size="14.00">ListTemplates</text>
</a>
</g>
</g>
<!-- github.com/guild&#45;framework/guild&#45;core/pkg/project/global.ListTemplates&#45;&gt;github.com/guild&#45;framework/guild&#45;core/pkg/project/global.GlobalGuildDir -->
<g id="edge16" class="edge">
<title>github.com/guild&#45;framework/guild&#45;core/pkg/project/global.ListTemplates&#45;&gt;github.com/guild&#45;framework/guild&#45;core/pkg/project/global.GlobalGuildDir</title>
<g id="a_edge16"><a xlink:title="at global.go:385: calling [github.com/guild&#45;framework/guild&#45;core/pkg/project/global.GlobalGuildDir]">
<path fill="none" stroke="black" d="M388.63,-409.46C409.94,-382.45 448.93,-330.03 472.58,-280 493.91,-234.88 501.47,-99.46 537.58,-65 551.38,-51.83 569.92,-44.02 588.42,-39.46"/>
<polygon fill="black" stroke="black" points="589.06,-42.9 598.1,-37.39 587.59,-36.05 589.06,-42.9"/>
</a>
</g>
</g>
<!-- github.com/guild&#45;framework/guild&#45;core/pkg/project/global.ListTemplates&#45;&gt;github.com/guild&#45;framework/guild&#45;core/pkg/gerror.Wrap -->
<g id="edge17" class="edge">
<title>github.com/guild&#45;framework/guild&#45;core/pkg/project/global.ListTemplates&#45;&gt;github.com/guild&#45;framework/guild&#45;core/pkg/gerror.Wrap</title>
<g id="a_edge17"><a xlink:title="at global.go:392: calling [github.com/guild&#45;framework/guild&#45;core/pkg/gerror.Wrap]">
<path fill="none" stroke="saddlebrown" d="M432.37,-434.76C488.3,-441.19 570.98,-450.69 620,-456.32"/>
<polygon fill="saddlebrown" stroke="saddlebrown" points="619.57,-459.79 629.9,-457.46 620.37,-452.84 619.57,-459.79"/>
</a>
</g>
</g>
<!-- github.com/guild&#45;framework/guild&#45;core/pkg/project/global.ListTemplates&#45;&gt;(*github.com/guild&#45;framework/guild&#45;core/pkg/gerror.GuildError).WithComponent -->
<g id="edge18" class="edge">
<title>github.com/guild&#45;framework/guild&#45;core/pkg/project/global.ListTemplates&#45;&gt;(*github.com/guild&#45;framework/guild&#45;core/pkg/gerror.GuildError).WithComponent</title>
<g id="a_edge18"><a xlink:title="at global.go:393: calling [(*github.com/guild&#45;framework/guild&#45;core/pkg/gerror.GuildError).WithComponent]">
<path fill="none" stroke="saddlebrown" d="M416.85,-446.72C449.6,-460.42 495.89,-478.85 537.58,-492 546.88,-494.93 556.65,-497.75 566.45,-500.4"/>
<polygon fill="saddlebrown" stroke="saddlebrown" points="565.48,-503.77 576.04,-502.94 567.27,-497 565.48,-503.77"/>
</a>
</g>
</g>
<!-- github.com/guild&#45;framework/guild&#45;core/pkg/project/global.ListTemplates&#45;&gt;(*github.com/guild&#45;framework/guild&#45;core/pkg/gerror.GuildError).WithOperation -->
<g id="edge7" class="edge">
<title>github.com/guild&#45;framework/guild&#45;core/pkg/project/global.ListTemplates&#45;&gt;(*github.com/guild&#45;framework/guild&#45;core/pkg/gerror.GuildError).WithOperation</title>
<g id="a_edge7"><a xlink:title="at global.go:394: calling [(*github.com/guild&#45;framework/guild&#45;core/pkg/gerror.GuildError).WithOperation]">
<path fill="none" stroke="saddlebrown" d="M432.37,-422.27C463.22,-419.26 502.22,-415.46 539.21,-411.85"/>
<polygon fill="saddlebrown" stroke="saddlebrown" points="539.5,-415.34 549.11,-410.88 538.82,-408.37 539.5,-415.34"/>
</a>
</g>
</g>
</g>
</svg>
