<?xml version="1.0" encoding="UTF-8" standalone="no"?>
<!DOCTYPE svg PUBLIC "-//W3C//DTD SVG 1.1//EN"
 "http://www.w3.org/Graphics/SVG/1.1/DTD/svg11.dtd">
<!-- Generated by graphviz version 14.1.1 (20251213.1925)
 -->
<!-- Title: gocallvis Pages: 1 -->
<svg width="1082pt" height="530pt"
 viewBox="0.00 0.00 1082.00 530.00" xmlns="http://www.w3.org/2000/svg" xmlns:xlink="http://www.w3.org/1999/xlink">
<g id="graph0" class="graph" transform="scale(1 1) rotate(0) translate(0 530)">
<title>gocallvis</title>
<polygon fill="lightgray" stroke="none" points="0,0 0,-530 1082.41,-530 1082.41,0 0,0"/>
<g id="clust1" class="cluster">
<title>cluster_focus</title>
<polygon fill="#e6ecfa" stroke="black" stroke-width="0.5" points="8,-8 8,-522 1074.41,-522 1074.41,-8 8,-8"/>
<text xml:space="preserve" text-anchor="middle" x="541.2" y="-500.9" font-family="Arial" font-size="18.00">writers</text>
</g>
<g id="clust2" class="cluster">
<title>cluster_github.com/guild&#45;framework/guild&#45;core/pkg/gerror</title>
<g id="a_clust2"><a xlink:href="/?f=github.com/guild-framework/guild-core/pkg/gerror" xlink:title="package: github.com/guild&#45;framework/guild&#45;core/pkg/gerror">
<polygon fill="lightyellow" stroke="black" stroke-width="0.8" points="851.12,-100 851.12,-302 1066.41,-302 1066.41,-100 851.12,-100"/>
<text xml:space="preserve" text-anchor="middle" x="958.76" y="-282.8" font-family="Tahoma bold" font-size="16.00">gerror</text>
</a>
</g>
</g>
<!-- (*github.com/guild&#45;framework/guild&#45;core/pkg/logging/writers.RotatingWriter).cleanupLoop -->
<g id="node1" class="node">
<title>(*github.com/guild&#45;framework/guild&#45;core/pkg/logging/writers.RotatingWriter).cleanupLoop</title>
<g id="a_node1"><a xlink:title="(*github.com/guild&#45;framework/guild&#45;core/pkg/logging/writers.RotatingWriter).cleanupLoop | defined in rotating.go:252&#10;at rotating.go:257: calling [(*github.com/guild&#45;framework/guild&#45;core/pkg/logging/writers.RotatingWriter).cleanup]">
<path fill="lightblue" stroke="black" stroke-width="0.5" d="M769.24,-485C769.24,-485 554.95,-485 554.95,-485 548.95,-485 542.95,-479 542.95,-473 542.95,-473 542.95,-461 542.95,-461 542.95,-455 548.95,-449 554.95,-449 554.95,-449 769.24,-449 769.24,-449 775.24,-449 781.24,-455 781.24,-461 781.24,-461 781.24,-473 781.24,-473 781.24,-479 775.24,-485 769.24,-485"/>
<text xml:space="preserve" text-anchor="middle" x="662.1" y="-462.32" font-family="Verdana" font-size="14.00">(*RotatingWriter).cleanupLoop</text>
</a>
</g>
</g>
<!-- (*github.com/guild&#45;framework/guild&#45;core/pkg/logging/writers.RotatingWriter).cleanup -->
<g id="node2" class="node">
<title>(*github.com/guild&#45;framework/guild&#45;core/pkg/logging/writers.RotatingWriter).cleanup</title>
<g id="a_node2"><a xlink:title="(*github.com/guild&#45;framework/guild&#45;core/pkg/logging/writers.RotatingWriter).cleanup | defined in rotating.go:196">
<path fill="lightblue" stroke="black" stroke-width="0.5" d="M1049.41,-458C1049.41,-458 868.12,-458 868.12,-458 862.12,-458 856.12,-452 856.12,-446 856.12,-446 856.12,-434 856.12,-434 856.12,-428 862.12,-422 868.12,-422 868.12,-422 1049.41,-422 1049.41,-422 1055.41,-422 1061.41,-428 1061.41,-434 1061.41,-434 1061.41,-446 1061.41,-446 1061.41,-452 1055.41,-458 1049.41,-458"/>
<text xml:space="preserve" text-anchor="middle" x="958.76" y="-435.32" font-family="Verdana" font-size="14.00">(*RotatingWriter).cleanup</text>
</a>
</g>
</g>
<!-- (*github.com/guild&#45;framework/guild&#45;core/pkg/logging/writers.RotatingWriter).cleanupLoop&#45;&gt;(*github.com/guild&#45;framework/guild&#45;core/pkg/logging/writers.RotatingWriter).cleanup -->
<g id="edge9" class="edge">
<title>(*github.com/guild&#45;framework/guild&#45;core/pkg/logging/writers.RotatingWriter).cleanupLoop&#45;&gt;(*github.com/guild&#45;framework/guild&#45;core/pkg/logging/writers.RotatingWriter).cleanup</title>
<g id="a_edge9"><a xlink:title="at rotating.go:257: calling [(*github.com/guild&#45;framework/guild&#45;core/pkg/logging/writers.RotatingWriter).cleanup]">
<path fill="none" stroke="black" d="M781.25,-456.17C802.19,-454.25 823.95,-452.26 844.75,-450.36"/>
<polygon fill="black" stroke="black" points="845.04,-453.84 854.68,-449.45 844.4,-446.87 845.04,-453.84"/>
</a>
</g>
</g>
<!-- (*github.com/guild&#45;framework/guild&#45;core/pkg/logging/writers.RotatingWriter).openFile -->
<g id="node3" class="node">
<title>(*github.com/guild&#45;framework/guild&#45;core/pkg/logging/writers.RotatingWriter).openFile</title>
<g id="a_node3"><a xlink:title="(*github.com/guild&#45;framework/guild&#45;core/pkg/logging/writers.RotatingWriter).openFile | defined in rotating.go:99&#10;at rotating.go:111: calling [(*github.com/guild&#45;framework/guild&#45;core/pkg/gerror.GuildError).WithDetails]&#10;at rotating.go:110: calling [github.com/guild&#45;framework/guild&#45;core/pkg/gerror.Wrap]">
<path fill="lightblue" stroke="black" stroke-width="0.5" d="M754.62,-316C754.62,-316 569.58,-316 569.58,-316 563.58,-316 557.58,-310 557.58,-304 557.58,-304 557.58,-292 557.58,-292 557.58,-286 563.58,-280 569.58,-280 569.58,-280 754.62,-280 754.62,-280 760.62,-280 766.62,-286 766.62,-292 766.62,-292 766.62,-304 766.62,-304 766.62,-310 760.62,-316 754.62,-316"/>
<text xml:space="preserve" text-anchor="middle" x="662.1" y="-293.32" font-family="Verdana" font-size="14.00">(*RotatingWriter).openFile</text>
</a>
</g>
</g>
<!-- github.com/guild&#45;framework/guild&#45;core/pkg/gerror.Wrap -->
<g id="node10" class="node">
<title>github.com/guild&#45;framework/guild&#45;core/pkg/gerror.Wrap</title>
<g id="a_node10"><a xlink:title="github.com/guild&#45;framework/guild&#45;core/pkg/gerror.Wrap | defined in errors.go:223">
<path fill="moccasin" stroke="black" stroke-width="1.5" d="M976.66,-266C976.66,-266 940.87,-266 940.87,-266 934.87,-266 928.87,-260 928.87,-254 928.87,-254 928.87,-242 928.87,-242 928.87,-236 934.87,-230 940.87,-230 940.87,-230 976.66,-230 976.66,-230 982.66,-230 988.66,-236 988.66,-242 988.66,-242 988.66,-254 988.66,-254 988.66,-260 982.66,-266 976.66,-266"/>
<text xml:space="preserve" text-anchor="middle" x="958.76" y="-243.32" font-family="Verdana" font-size="14.00">Wrap</text>
</a>
</g>
</g>
<!-- (*github.com/guild&#45;framework/guild&#45;core/pkg/logging/writers.RotatingWriter).openFile&#45;&gt;github.com/guild&#45;framework/guild&#45;core/pkg/gerror.Wrap -->
<g id="edge13" class="edge">
<title>(*github.com/guild&#45;framework/guild&#45;core/pkg/logging/writers.RotatingWriter).openFile&#45;&gt;github.com/guild&#45;framework/guild&#45;core/pkg/gerror.Wrap</title>
<g id="a_edge13"><a xlink:title="at rotating.go:110: calling [github.com/guild&#45;framework/guild&#45;core/pkg/gerror.Wrap]">
<path fill="none" stroke="saddlebrown" d="M766.53,-287.9C784.48,-285.46 802.9,-282.52 820.12,-279 834.18,-276.13 837.19,-273.45 851.12,-270 872.75,-264.64 897.07,-259.55 917.01,-255.62"/>
<polygon fill="saddlebrown" stroke="saddlebrown" points="917.57,-259.08 926.72,-253.74 916.23,-252.21 917.57,-259.08"/>
</a>
</g>
</g>
<!-- (*github.com/guild&#45;framework/guild&#45;core/pkg/gerror.GuildError).WithDetails -->
<g id="node11" class="node">
<title>(*github.com/guild&#45;framework/guild&#45;core/pkg/gerror.GuildError).WithDetails</title>
<g id="a_node11"><a xlink:title="(*github.com/guild&#45;framework/guild&#45;core/pkg/gerror.GuildError).WithDetails | defined in errors.go:147">
<path fill="moccasin" stroke="black" stroke-width="1.5" d="M1046.41,-205C1046.41,-205 871.12,-205 871.12,-205 865.12,-205 859.12,-199 859.12,-193 859.12,-193 859.12,-181 859.12,-181 859.12,-175 865.12,-169 871.12,-169 871.12,-169 1046.41,-169 1046.41,-169 1052.41,-169 1058.41,-175 1058.41,-181 1058.41,-181 1058.41,-193 1058.41,-193 1058.41,-199 1052.41,-205 1046.41,-205"/>
<text xml:space="preserve" text-anchor="middle" x="958.76" y="-182.32" font-family="Verdana" font-size="14.00">(*GuildError).WithDetails</text>
</a>
</g>
</g>
<!-- (*github.com/guild&#45;framework/guild&#45;core/pkg/logging/writers.RotatingWriter).openFile&#45;&gt;(*github.com/guild&#45;framework/guild&#45;core/pkg/gerror.GuildError).WithDetails -->
<g id="edge1" class="edge">
<title>(*github.com/guild&#45;framework/guild&#45;core/pkg/logging/writers.RotatingWriter).openFile&#45;&gt;(*github.com/guild&#45;framework/guild&#45;core/pkg/gerror.GuildError).WithDetails</title>
<g id="a_edge1"><a xlink:title="at rotating.go:111: calling [(*github.com/guild&#45;framework/guild&#45;core/pkg/gerror.GuildError).WithDetails]">
<path fill="none" stroke="saddlebrown" d="M762.49,-279.79C769.79,-276.49 776.77,-272.59 783.12,-268 807.4,-250.44 794.21,-227.66 819.12,-211 827.86,-205.15 837.58,-200.6 847.71,-197.06"/>
<polygon fill="saddlebrown" stroke="saddlebrown" points="848.43,-200.5 856.94,-194.18 846.35,-193.82 848.43,-200.5"/>
</a>
</g>
</g>
<!-- (*github.com/guild&#45;framework/guild&#45;core/pkg/logging/writers.RotatingWriter).rotate -->
<g id="node4" class="node">
<title>(*github.com/guild&#45;framework/guild&#45;core/pkg/logging/writers.RotatingWriter).rotate</title>
<g id="a_node4"><a xlink:title="(*github.com/guild&#45;framework/guild&#45;core/pkg/logging/writers.RotatingWriter).rotate | defined in rotating.go:119&#10;at rotating.go:123: calling [github.com/guild&#45;framework/guild&#45;core/pkg/gerror.Wrap]&#10;at rotating.go:137: calling [github.com/guild&#45;framework/guild&#45;core/pkg/gerror.Wrap]&#10;at rotating.go:138: calling [(*github.com/guild&#45;framework/guild&#45;core/pkg/gerror.GuildError).WithDetails]&#10;at rotating.go:139: calling [(*github.com/guild&#45;framework/guild&#45;core/pkg/gerror.GuildError).WithDetails]&#10;at rotating.go:144: calling [(*github.com/guild&#45;framework/guild&#45;core/pkg/logging/writers.RotatingWriter).compressFile]&#10;at rotating.go:148: calling [(*github.com/guild&#45;framework/guild&#45;core/pkg/logging/writers.RotatingWriter).openFile]&#10;at rotating.go:156: calling [(*github.com/guild&#45;framework/guild&#45;core/pkg/logging/writers.RotatingWriter).cleanup]">
<path fill="lightblue" stroke="black" stroke-width="0.5" d="M456.08,-226C456.08,-226 288.29,-226 288.29,-226 282.29,-226 276.29,-220 276.29,-214 276.29,-214 276.29,-202 276.29,-202 276.29,-196 282.29,-190 288.29,-190 288.29,-190 456.08,-190 456.08,-190 462.08,-190 468.08,-196 468.08,-202 468.08,-202 468.08,-214 468.08,-214 468.08,-220 462.08,-226 456.08,-226"/>
<text xml:space="preserve" text-anchor="middle" x="372.18" y="-203.32" font-family="Verdana" font-size="14.00">(*RotatingWriter).rotate</text>
</a>
</g>
</g>
<!-- (*github.com/guild&#45;framework/guild&#45;core/pkg/logging/writers.RotatingWriter).rotate&#45;&gt;(*github.com/guild&#45;framework/guild&#45;core/pkg/logging/writers.RotatingWriter).cleanup -->
<g id="edge6" class="edge">
<title>(*github.com/guild&#45;framework/guild&#45;core/pkg/logging/writers.RotatingWriter).rotate&#45;&gt;(*github.com/guild&#45;framework/guild&#45;core/pkg/logging/writers.RotatingWriter).cleanup</title>
<g id="a_edge6"><a xlink:title="at rotating.go:156: calling [(*github.com/guild&#45;framework/guild&#45;core/pkg/logging/writers.RotatingWriter).cleanup]">
<path fill="none" stroke="black" d="M392.84,-225.9C422.71,-252.2 482.31,-301.16 541.08,-329 633.71,-372.88 746.44,-401.57 831.28,-418.77"/>
<polygon fill="black" stroke="black" points="844.13,-424.86 854.62,-423.35 845.48,-417.99 844.13,-424.86"/>
<polyline fill="none" stroke="black" points="844.31,-421.33 839.41,-420.37"/>
<ellipse fill="none" stroke="black" cx="834.99" cy="-419.5" rx="4" ry="4"/>
</a>
</g>
</g>
<!-- (*github.com/guild&#45;framework/guild&#45;core/pkg/logging/writers.RotatingWriter).rotate&#45;&gt;(*github.com/guild&#45;framework/guild&#45;core/pkg/logging/writers.RotatingWriter).openFile -->
<g id="edge5" class="edge">
<title>(*github.com/guild&#45;framework/guild&#45;core/pkg/logging/writers.RotatingWriter).rotate&#45;&gt;(*github.com/guild&#45;framework/guild&#45;core/pkg/logging/writers.RotatingWriter).openFile</title>
<g id="a_edge5"><a xlink:title="at rotating.go:148: calling [(*github.com/guild&#45;framework/guild&#45;core/pkg/logging/writers.RotatingWriter).openFile]">
<path fill="none" stroke="black" d="M420.17,-226.19C453.61,-238.79 499.75,-255.48 541.08,-268 551.23,-271.07 561.92,-274.08 572.57,-276.92"/>
<polygon fill="black" stroke="black" points="571.61,-280.29 582.18,-279.44 573.39,-273.52 571.61,-280.29"/>
</a>
</g>
</g>
<!-- (*github.com/guild&#45;framework/guild&#45;core/pkg/logging/writers.RotatingWriter).compressFile -->
<g id="node5" class="node">
<title>(*github.com/guild&#45;framework/guild&#45;core/pkg/logging/writers.RotatingWriter).compressFile</title>
<g id="a_node5"><a xlink:title="(*github.com/guild&#45;framework/guild&#45;core/pkg/logging/writers.RotatingWriter).compressFile | defined in rotating.go:162">
<path fill="lightblue" stroke="black" stroke-width="0.5" d="M771.12,-255C771.12,-255 553.08,-255 553.08,-255 547.08,-255 541.08,-249 541.08,-243 541.08,-243 541.08,-231 541.08,-231 541.08,-225 547.08,-219 553.08,-219 553.08,-219 771.12,-219 771.12,-219 777.12,-219 783.12,-225 783.12,-231 783.12,-231 783.12,-243 783.12,-243 783.12,-249 777.12,-255 771.12,-255"/>
<text xml:space="preserve" text-anchor="middle" x="662.1" y="-232.32" font-family="Verdana" font-size="14.00">(*RotatingWriter).compressFile</text>
</a>
</g>
</g>
<!-- (*github.com/guild&#45;framework/guild&#45;core/pkg/logging/writers.RotatingWriter).rotate&#45;&gt;(*github.com/guild&#45;framework/guild&#45;core/pkg/logging/writers.RotatingWriter).compressFile -->
<g id="edge4" class="edge">
<title>(*github.com/guild&#45;framework/guild&#45;core/pkg/logging/writers.RotatingWriter).rotate&#45;&gt;(*github.com/guild&#45;framework/guild&#45;core/pkg/logging/writers.RotatingWriter).compressFile</title>
<g id="a_edge4"><a xlink:title="at rotating.go:144: calling [(*github.com/guild&#45;framework/guild&#45;core/pkg/logging/writers.RotatingWriter).compressFile]">
<path fill="none" stroke="black" d="M468.26,-217.58C483.52,-219.11 499.62,-220.73 515.74,-222.36"/>
<polygon fill="black" stroke="black" points="529.16,-227.23 539.46,-224.75 529.86,-220.26 529.16,-227.23"/>
<polyline fill="none" stroke="black" points="529.02,-223.7 524.04,-223.19"/>
<ellipse fill="none" stroke="black" cx="519.56" cy="-222.74" rx="4" ry="4"/>
</a>
</g>
</g>
<!-- (*github.com/guild&#45;framework/guild&#45;core/pkg/logging/writers.RotatingWriter).rotate&#45;&gt;github.com/guild&#45;framework/guild&#45;core/pkg/gerror.Wrap -->
<g id="edge2" class="edge">
<title>(*github.com/guild&#45;framework/guild&#45;core/pkg/logging/writers.RotatingWriter).rotate&#45;&gt;github.com/guild&#45;framework/guild&#45;core/pkg/gerror.Wrap</title>
<g id="a_edge2"><a xlink:title="at rotating.go:123: calling [github.com/guild&#45;framework/guild&#45;core/pkg/gerror.Wrap]&#10;at rotating.go:137: calling [github.com/guild&#45;framework/guild&#45;core/pkg/gerror.Wrap]">
<path fill="none" stroke="saddlebrown" d="M468.19,-207.34C491.99,-207.2 517.47,-207.07 541.08,-207 594.87,-206.84 734.64,-183.7 783.12,-207 806.2,-218.1 796.04,-240.9 819.12,-252 819.52,-252.19 819.68,-252.01 820.12,-252 852.6,-251.53 889.39,-250.43 916.75,-249.5"/>
<polygon fill="saddlebrown" stroke="saddlebrown" points="916.85,-253 926.72,-249.16 916.61,-246.01 916.85,-253"/>
</a>
</g>
</g>
<!-- (*github.com/guild&#45;framework/guild&#45;core/pkg/logging/writers.RotatingWriter).rotate&#45;&gt;(*github.com/guild&#45;framework/guild&#45;core/pkg/gerror.GuildError).WithDetails -->
<g id="edge3" class="edge">
<title>(*github.com/guild&#45;framework/guild&#45;core/pkg/logging/writers.RotatingWriter).rotate&#45;&gt;(*github.com/guild&#45;framework/guild&#45;core/pkg/gerror.GuildError).WithDetails</title>
<g id="a_edge3"><a xlink:title="at rotating.go:138: calling [(*github.com/guild&#45;framework/guild&#45;core/pkg/gerror.GuildError).WithDetails]&#10;at rotating.go:139: calling [(*github.com/guild&#45;framework/guild&#45;core/pkg/gerror.GuildError).WithDetails]">
<path fill="none" stroke="saddlebrown" d="M468.03,-190.15C480.13,-188.44 492.37,-186.98 504.08,-186 620.87,-176.25 755.16,-178.17 847.16,-181.49"/>
<polygon fill="saddlebrown" stroke="saddlebrown" points="846.81,-184.98 856.93,-181.86 847.07,-177.99 846.81,-184.98"/>
</a>
</g>
</g>
<!-- (*github.com/guild&#45;framework/guild&#45;core/pkg/logging/writers.RotatingWriter).Write -->
<g id="node6" class="node">
<title>(*github.com/guild&#45;framework/guild&#45;core/pkg/logging/writers.RotatingWriter).Write</title>
<g id="a_node6"><a xlink:title="(*github.com/guild&#45;framework/guild&#45;core/pkg/logging/writers.RotatingWriter).Write | defined in rotating.go:66&#10;at rotating.go:73: calling [github.com/guild&#45;framework/guild&#45;core/pkg/gerror.Wrap]&#10;at rotating.go:80: calling [github.com/guild&#45;framework/guild&#45;core/pkg/gerror.Wrap]&#10;at rotating.go:72: calling [(*github.com/guild&#45;framework/guild&#45;core/pkg/logging/writers.RotatingWriter).rotate]">
<path fill="lightblue" stroke="black" stroke-width="1.5" d="M191.29,-170C191.29,-170 28,-170 28,-170 22,-170 16,-164 16,-158 16,-158 16,-146 16,-146 16,-140 22,-134 28,-134 28,-134 191.29,-134 191.29,-134 197.29,-134 203.29,-140 203.29,-146 203.29,-146 203.29,-158 203.29,-158 203.29,-164 197.29,-170 191.29,-170"/>
<text xml:space="preserve" text-anchor="middle" x="109.64" y="-147.32" font-family="Verdana" font-size="14.00">(*RotatingWriter).Write</text>
</a>
</g>
</g>
<!-- (*github.com/guild&#45;framework/guild&#45;core/pkg/logging/writers.RotatingWriter).Write&#45;&gt;(*github.com/guild&#45;framework/guild&#45;core/pkg/logging/writers.RotatingWriter).rotate -->
<g id="edge10" class="edge">
<title>(*github.com/guild&#45;framework/guild&#45;core/pkg/logging/writers.RotatingWriter).Write&#45;&gt;(*github.com/guild&#45;framework/guild&#45;core/pkg/logging/writers.RotatingWriter).rotate</title>
<g id="a_edge10"><a xlink:title="at rotating.go:72: calling [(*github.com/guild&#45;framework/guild&#45;core/pkg/logging/writers.RotatingWriter).rotate]">
<path fill="none" stroke="black" d="M197.76,-170.73C222.63,-176.07 249.87,-181.92 275.24,-187.38"/>
<polygon fill="black" stroke="black" points="274.37,-190.77 284.88,-189.45 275.84,-183.93 274.37,-190.77"/>
</a>
</g>
</g>
<!-- (*github.com/guild&#45;framework/guild&#45;core/pkg/logging/writers.RotatingWriter).Write&#45;&gt;github.com/guild&#45;framework/guild&#45;core/pkg/gerror.Wrap -->
<g id="edge7" class="edge">
<title>(*github.com/guild&#45;framework/guild&#45;core/pkg/logging/writers.RotatingWriter).Write&#45;&gt;github.com/guild&#45;framework/guild&#45;core/pkg/gerror.Wrap</title>
<g id="a_edge7"><a xlink:title="at rotating.go:73: calling [github.com/guild&#45;framework/guild&#45;core/pkg/gerror.Wrap]&#10;at rotating.go:80: calling [github.com/guild&#45;framework/guild&#45;core/pkg/gerror.Wrap]">
<path fill="none" stroke="saddlebrown" d="M203.74,-145.1C253.41,-141.99 315.59,-139 371.18,-139 371.18,-139 371.18,-139 505.08,-139 630.8,-139 662.35,-156.09 783.12,-191 814.36,-200.03 820.32,-207.58 851.12,-218 872.85,-225.35 897.48,-232.36 917.59,-237.76"/>
<polygon fill="saddlebrown" stroke="saddlebrown" points="916.52,-241.09 927.08,-240.27 918.31,-234.33 916.52,-241.09"/>
</a>
</g>
</g>
<!-- (*github.com/guild&#45;framework/guild&#45;core/pkg/logging/writers.MultiWriter).Write -->
<g id="node7" class="node">
<title>(*github.com/guild&#45;framework/guild&#45;core/pkg/logging/writers.MultiWriter).Write</title>
<g id="a_node7"><a xlink:title="(*github.com/guild&#45;framework/guild&#45;core/pkg/logging/writers.MultiWriter).Write | defined in multi.go:24&#10;at multi.go:41: calling [(*github.com/guild&#45;framework/guild&#45;core/pkg/gerror.GuildError).WithDetails]&#10;at multi.go:40: calling [github.com/guild&#45;framework/guild&#45;core/pkg/gerror.New]">
<path fill="lightblue" stroke="black" stroke-width="1.5" d="M731.37,-52C731.37,-52 592.83,-52 592.83,-52 586.83,-52 580.83,-46 580.83,-40 580.83,-40 580.83,-28 580.83,-28 580.83,-22 586.83,-16 592.83,-16 592.83,-16 731.37,-16 731.37,-16 737.37,-16 743.37,-22 743.37,-28 743.37,-28 743.37,-40 743.37,-40 743.37,-46 737.37,-52 731.37,-52"/>
<text xml:space="preserve" text-anchor="middle" x="662.1" y="-29.32" font-family="Verdana" font-size="14.00">(*MultiWriter).Write</text>
</a>
</g>
</g>
<!-- (*github.com/guild&#45;framework/guild&#45;core/pkg/logging/writers.MultiWriter).Write&#45;&gt;(*github.com/guild&#45;framework/guild&#45;core/pkg/gerror.GuildError).WithDetails -->
<g id="edge8" class="edge">
<title>(*github.com/guild&#45;framework/guild&#45;core/pkg/logging/writers.MultiWriter).Write&#45;&gt;(*github.com/guild&#45;framework/guild&#45;core/pkg/gerror.GuildError).WithDetails</title>
<g id="a_edge8"><a xlink:title="at multi.go:41: calling [(*github.com/guild&#45;framework/guild&#45;core/pkg/gerror.GuildError).WithDetails]">
<path fill="none" stroke="saddlebrown" d="M743.84,-46.75C757.66,-51.15 771.35,-57.06 783.12,-65 825.27,-93.44 809.28,-128.11 851.12,-157 854.38,-159.25 857.82,-161.34 861.36,-163.27"/>
<polygon fill="saddlebrown" stroke="saddlebrown" points="859.76,-166.38 870.28,-167.64 862.84,-160.09 859.76,-166.38"/>
</a>
</g>
</g>
<!-- github.com/guild&#45;framework/guild&#45;core/pkg/gerror.New -->
<g id="node12" class="node">
<title>github.com/guild&#45;framework/guild&#45;core/pkg/gerror.New</title>
<g id="a_node12"><a xlink:title="github.com/guild&#45;framework/guild&#45;core/pkg/gerror.New | defined in errors.go:190">
<path fill="moccasin" stroke="black" stroke-width="1.5" d="M973.76,-144C973.76,-144 943.76,-144 943.76,-144 937.76,-144 931.76,-138 931.76,-132 931.76,-132 931.76,-120 931.76,-120 931.76,-114 937.76,-108 943.76,-108 943.76,-108 973.76,-108 973.76,-108 979.76,-108 985.76,-114 985.76,-120 985.76,-120 985.76,-132 985.76,-132 985.76,-138 979.76,-144 973.76,-144"/>
<text xml:space="preserve" text-anchor="middle" x="958.76" y="-121.33" font-family="Verdana" font-size="14.00">New</text>
</a>
</g>
</g>
<!-- (*github.com/guild&#45;framework/guild&#45;core/pkg/logging/writers.MultiWriter).Write&#45;&gt;github.com/guild&#45;framework/guild&#45;core/pkg/gerror.New -->
<g id="edge17" class="edge">
<title>(*github.com/guild&#45;framework/guild&#45;core/pkg/logging/writers.MultiWriter).Write&#45;&gt;github.com/guild&#45;framework/guild&#45;core/pkg/gerror.New</title>
<g id="a_edge17"><a xlink:title="at multi.go:40: calling [github.com/guild&#45;framework/guild&#45;core/pkg/gerror.New]">
<path fill="none" stroke="saddlebrown" d="M739.56,-52.73C754.08,-56.58 769.12,-60.75 783.12,-65 830.96,-79.51 885.19,-98.92 920.35,-111.92"/>
<polygon fill="saddlebrown" stroke="saddlebrown" points="919.05,-115.17 929.65,-115.37 921.49,-108.61 919.05,-115.17"/>
</a>
</g>
</g>
<!-- (*github.com/guild&#45;framework/guild&#45;core/pkg/logging/writers.MultiWriter).Close -->
<g id="node8" class="node">
<title>(*github.com/guild&#45;framework/guild&#45;core/pkg/logging/writers.MultiWriter).Close</title>
<g id="a_node8"><a xlink:title="(*github.com/guild&#45;framework/guild&#45;core/pkg/logging/writers.MultiWriter).Close | defined in multi.go:69&#10;at multi.go:84: calling [(*github.com/guild&#45;framework/guild&#45;core/pkg/gerror.GuildError).WithDetails]&#10;at multi.go:83: calling [github.com/guild&#45;framework/guild&#45;core/pkg/gerror.New]">
<path fill="lightblue" stroke="black" stroke-width="1.5" d="M731.74,-113C731.74,-113 592.45,-113 592.45,-113 586.45,-113 580.45,-107 580.45,-101 580.45,-101 580.45,-89 580.45,-89 580.45,-83 586.45,-77 592.45,-77 592.45,-77 731.74,-77 731.74,-77 737.74,-77 743.74,-83 743.74,-89 743.74,-89 743.74,-101 743.74,-101 743.74,-107 737.74,-113 731.74,-113"/>
<text xml:space="preserve" text-anchor="middle" x="662.1" y="-90.33" font-family="Verdana" font-size="14.00">(*MultiWriter).Close</text>
</a>
</g>
</g>
<!-- (*github.com/guild&#45;framework/guild&#45;core/pkg/logging/writers.MultiWriter).Close&#45;&gt;(*github.com/guild&#45;framework/guild&#45;core/pkg/gerror.GuildError).WithDetails -->
<g id="edge14" class="edge">
<title>(*github.com/guild&#45;framework/guild&#45;core/pkg/logging/writers.MultiWriter).Close&#45;&gt;(*github.com/guild&#45;framework/guild&#45;core/pkg/gerror.GuildError).WithDetails</title>
<g id="a_edge14"><a xlink:title="at multi.go:84: calling [(*github.com/guild&#45;framework/guild&#45;core/pkg/gerror.GuildError).WithDetails]">
<path fill="none" stroke="saddlebrown" d="M725.91,-113.67C744.4,-119.36 764.63,-125.76 783.12,-132 813.63,-142.3 820.49,-147.08 851.12,-157 859.58,-159.74 868.45,-162.47 877.33,-165.1"/>
<polygon fill="saddlebrown" stroke="saddlebrown" points="876.08,-168.38 886.66,-167.83 878.05,-161.66 876.08,-168.38"/>
</a>
</g>
</g>
<!-- (*github.com/guild&#45;framework/guild&#45;core/pkg/logging/writers.MultiWriter).Close&#45;&gt;github.com/guild&#45;framework/guild&#45;core/pkg/gerror.New -->
<g id="edge18" class="edge">
<title>(*github.com/guild&#45;framework/guild&#45;core/pkg/logging/writers.MultiWriter).Close&#45;&gt;github.com/guild&#45;framework/guild&#45;core/pkg/gerror.New</title>
<g id="a_edge18"><a xlink:title="at multi.go:83: calling [github.com/guild&#45;framework/guild&#45;core/pkg/gerror.New]">
<path fill="none" stroke="saddlebrown" d="M744.4,-103.55C801.67,-109.58 875.72,-117.37 919.82,-122.01"/>
<polygon fill="saddlebrown" stroke="saddlebrown" points="919.35,-125.48 929.66,-123.04 920.08,-118.52 919.35,-125.48"/>
</a>
</g>
</g>
<!-- github.com/guild&#45;framework/guild&#45;core/pkg/logging/writers.NewRotatingWriter -->
<g id="node9" class="node">
<title>github.com/guild&#45;framework/guild&#45;core/pkg/logging/writers.NewRotatingWriter</title>
<g id="a_node9"><a xlink:title="github.com/guild&#45;framework/guild&#45;core/pkg/logging/writers.NewRotatingWriter | defined in rotating.go:31&#10;at rotating.go:33: calling [github.com/guild&#45;framework/guild&#45;core/pkg/gerror.New]&#10;at rotating.go:41: calling [github.com/guild&#45;framework/guild&#45;core/pkg/gerror.Wrap]&#10;at rotating.go:42: calling [(*github.com/guild&#45;framework/guild&#45;core/pkg/gerror.GuildError).WithDetails]&#10;at rotating.go:55: calling [(*github.com/guild&#45;framework/guild&#45;core/pkg/logging/writers.RotatingWriter).openFile]&#10;at rotating.go:60: calling [(*github.com/guild&#45;framework/guild&#45;core/pkg/logging/writers.RotatingWriter).cleanupLoop]">
<path fill="lightblue" stroke="black" stroke-width="1.5" d="M437.33,-387C437.33,-387 307.04,-387 307.04,-387 301.04,-387 295.04,-381 295.04,-375 295.04,-375 295.04,-363 295.04,-363 295.04,-357 301.04,-351 307.04,-351 307.04,-351 437.33,-351 437.33,-351 443.33,-351 449.33,-357 449.33,-363 449.33,-363 449.33,-375 449.33,-375 449.33,-381 443.33,-387 437.33,-387"/>
<text xml:space="preserve" text-anchor="middle" x="372.18" y="-364.32" font-family="Verdana" font-size="14.00">NewRotatingWriter</text>
</a>
</g>
</g>
<!-- github.com/guild&#45;framework/guild&#45;core/pkg/logging/writers.NewRotatingWriter&#45;&gt;(*github.com/guild&#45;framework/guild&#45;core/pkg/logging/writers.RotatingWriter).cleanupLoop -->
<g id="edge19" class="edge">
<title>github.com/guild&#45;framework/guild&#45;core/pkg/logging/writers.NewRotatingWriter&#45;&gt;(*github.com/guild&#45;framework/guild&#45;core/pkg/logging/writers.RotatingWriter).cleanupLoop</title>
<g id="a_edge19"><a xlink:title="at rotating.go:60: calling [(*github.com/guild&#45;framework/guild&#45;core/pkg/logging/writers.RotatingWriter).cleanupLoop]">
<path fill="none" stroke="black" d="M422.55,-387.66C455.88,-400.08 500.95,-416.53 541.08,-430 552.22,-433.74 564,-437.54 575.64,-441.22"/>
<polygon fill="black" stroke="black" points="587.82,-448.68 598.41,-448.31 589.9,-442 587.82,-448.68"/>
<polyline fill="none" stroke="black" points="588.38,-445.19 583.61,-443.7"/>
<ellipse fill="none" stroke="black" cx="579.31" cy="-442.37" rx="4" ry="4"/>
</a>
</g>
</g>
<!-- github.com/guild&#45;framework/guild&#45;core/pkg/logging/writers.NewRotatingWriter&#45;&gt;(*github.com/guild&#45;framework/guild&#45;core/pkg/logging/writers.RotatingWriter).openFile -->
<g id="edge16" class="edge">
<title>github.com/guild&#45;framework/guild&#45;core/pkg/logging/writers.NewRotatingWriter&#45;&gt;(*github.com/guild&#45;framework/guild&#45;core/pkg/logging/writers.RotatingWriter).openFile</title>
<g id="a_edge16"><a xlink:title="at rotating.go:55: calling [(*github.com/guild&#45;framework/guild&#45;core/pkg/logging/writers.RotatingWriter).openFile]">
<path fill="none" stroke="black" d="M444.1,-350.27C463.52,-345.22 484.59,-339.83 504.08,-335 525.82,-329.61 549.31,-323.98 571.33,-318.78"/>
<polygon fill="black" stroke="black" points="571.94,-322.24 580.87,-316.54 570.33,-315.42 571.94,-322.24"/>
</a>
</g>
</g>
<!-- github.com/guild&#45;framework/guild&#45;core/pkg/logging/writers.NewRotatingWriter&#45;&gt;github.com/guild&#45;framework/guild&#45;core/pkg/gerror.Wrap -->
<g id="edge12" class="edge">
<title>github.com/guild&#45;framework/guild&#45;core/pkg/logging/writers.NewRotatingWriter&#45;&gt;github.com/guild&#45;framework/guild&#45;core/pkg/gerror.Wrap</title>
<g id="a_edge12"><a xlink:title="at rotating.go:41: calling [github.com/guild&#45;framework/guild&#45;core/pkg/gerror.Wrap]">
<path fill="none" stroke="saddlebrown" d="M449.89,-375.06C534.92,-378.76 674.39,-375.73 783.12,-329 819.88,-313.2 815.25,-287.73 851.12,-270 871.62,-259.87 896.55,-254.4 917.15,-251.45"/>
<polygon fill="saddlebrown" stroke="saddlebrown" points="917.42,-254.94 926.9,-250.21 916.54,-248 917.42,-254.94"/>
</a>
</g>
</g>
<!-- github.com/guild&#45;framework/guild&#45;core/pkg/logging/writers.NewRotatingWriter&#45;&gt;(*github.com/guild&#45;framework/guild&#45;core/pkg/gerror.GuildError).WithDetails -->
<g id="edge15" class="edge">
<title>github.com/guild&#45;framework/guild&#45;core/pkg/logging/writers.NewRotatingWriter&#45;&gt;(*github.com/guild&#45;framework/guild&#45;core/pkg/gerror.GuildError).WithDetails</title>
<g id="a_edge15"><a xlink:title="at rotating.go:42: calling [(*github.com/guild&#45;framework/guild&#45;core/pkg/gerror.GuildError).WithDetails]">
<path fill="none" stroke="saddlebrown" d="M449.89,-380.75C537.43,-390.06 681.59,-392.54 783.12,-329 832.16,-298.31 805.13,-253.11 851.12,-218 854.46,-215.45 858,-213.11 861.69,-210.97"/>
<polygon fill="saddlebrown" stroke="saddlebrown" points="863.16,-214.15 870.4,-206.42 859.92,-207.94 863.16,-214.15"/>
</a>
</g>
</g>
<!-- github.com/guild&#45;framework/guild&#45;core/pkg/logging/writers.NewRotatingWriter&#45;&gt;github.com/guild&#45;framework/guild&#45;core/pkg/gerror.New -->
<g id="edge11" class="edge">
<title>github.com/guild&#45;framework/guild&#45;core/pkg/logging/writers.NewRotatingWriter&#45;&gt;github.com/guild&#45;framework/guild&#45;core/pkg/gerror.New</title>
<g id="a_edge11"><a xlink:title="at rotating.go:33: calling [github.com/guild&#45;framework/guild&#45;core/pkg/gerror.New]">
<path fill="none" stroke="saddlebrown" d="M450,-385.28C540.68,-399.71 690.82,-407.83 783.12,-329 845.63,-275.61 790.34,-212.34 851.12,-157 869.94,-139.87 897.7,-132.16 920.18,-128.71"/>
<polygon fill="saddlebrown" stroke="saddlebrown" points="920.41,-132.21 929.88,-127.47 919.52,-125.27 920.41,-132.21"/>
</a>
</g>
</g>
</g>
</svg>
