<?xml version="1.0" encoding="UTF-8" standalone="no"?>
<!DOCTYPE svg PUBLIC "-//W3C//DTD SVG 1.1//EN"
 "http://www.w3.org/Graphics/SVG/1.1/DTD/svg11.dtd">
<!-- Generated by graphviz version 14.1.1 (20251213.1925)
 -->
<!-- Title: gocallvis Pages: 1 -->
<svg width="1021pt" height="307pt"
 viewBox="0.00 0.00 1021.00 307.00" xmlns="http://www.w3.org/2000/svg" xmlns:xlink="http://www.w3.org/1999/xlink">
<g id="graph0" class="graph" transform="scale(1 1) rotate(0) translate(0 307)">
<title>gocallvis</title>
<polygon fill="lightgray" stroke="none" points="0,0 0,-307 1021.12,-307 1021.12,0 0,0"/>
<g id="clust1" class="cluster">
<title>cluster_focus</title>
<polygon fill="#e6ecfa" stroke="black" stroke-width="0.5" points="8,-8 8,-299 1013.12,-299 1013.12,-8 8,-8"/>
<text xml:space="preserve" text-anchor="middle" x="510.56" y="-277.9" font-family="Arial" font-size="18.00">cost</text>
</g>
<!-- (*github.com/guild&#45;framework/guild&#45;core/pkg/mcp/cost.MemoryObserver).GetTotalCost -->
<g id="node1" class="node">
<title>(*github.com/guild&#45;framework/guild&#45;core/pkg/mcp/cost.MemoryObserver).GetTotalCost</title>
<g id="a_node1"><a xlink:title="(*github.com/guild&#45;framework/guild&#45;core/pkg/mcp/cost.MemoryObserver).GetTotalCost | defined in observer.go:184&#10;at observer.go:185: calling [(*github.com/guild&#45;framework/guild&#45;core/pkg/mcp/cost.MemoryObserver).GetCosts]">
<path fill="lightblue" stroke="black" stroke-width="1.5" d="M636.08,-174C636.08,-174 402.29,-174 402.29,-174 396.29,-174 390.29,-168 390.29,-162 390.29,-162 390.29,-150 390.29,-150 390.29,-144 396.29,-138 402.29,-138 402.29,-138 636.08,-138 636.08,-138 642.08,-138 648.08,-144 648.08,-150 648.08,-150 648.08,-162 648.08,-162 648.08,-168 642.08,-174 636.08,-174"/>
<text xml:space="preserve" text-anchor="middle" x="519.18" y="-151.32" font-family="Verdana" font-size="14.00">(*MemoryObserver).GetTotalCost</text>
</a>
</g>
</g>
<!-- (*github.com/guild&#45;framework/guild&#45;core/pkg/mcp/cost.MemoryObserver).GetCosts -->
<g id="node2" class="node">
<title>(*github.com/guild&#45;framework/guild&#45;core/pkg/mcp/cost.MemoryObserver).GetCosts</title>
<g id="a_node2"><a xlink:title="(*github.com/guild&#45;framework/guild&#45;core/pkg/mcp/cost.MemoryObserver).GetCosts | defined in observer.go:104">
<path fill="lightblue" stroke="black" stroke-width="1.5" d="M993.12,-174C993.12,-174 784.83,-174 784.83,-174 778.83,-174 772.83,-168 772.83,-162 772.83,-162 772.83,-150 772.83,-150 772.83,-144 778.83,-138 784.83,-138 784.83,-138 993.12,-138 993.12,-138 999.12,-138 1005.12,-144 1005.12,-150 1005.12,-150 1005.12,-162 1005.12,-162 1005.12,-168 999.12,-174 993.12,-174"/>
<text xml:space="preserve" text-anchor="middle" x="888.97" y="-151.32" font-family="Verdana" font-size="14.00">(*MemoryObserver).GetCosts</text>
</a>
</g>
</g>
<!-- (*github.com/guild&#45;framework/guild&#45;core/pkg/mcp/cost.MemoryObserver).GetTotalCost&#45;&gt;(*github.com/guild&#45;framework/guild&#45;core/pkg/mcp/cost.MemoryObserver).GetCosts -->
<g id="edge2" class="edge">
<title>(*github.com/guild&#45;framework/guild&#45;core/pkg/mcp/cost.MemoryObserver).GetTotalCost&#45;&gt;(*github.com/guild&#45;framework/guild&#45;core/pkg/mcp/cost.MemoryObserver).GetCosts</title>
<g id="a_edge2"><a xlink:title="at observer.go:185: calling [(*github.com/guild&#45;framework/guild&#45;core/pkg/mcp/cost.MemoryObserver).GetCosts]">
<path fill="none" stroke="black" d="M648.82,-156C685.24,-156 724.85,-156 761.16,-156"/>
<polygon fill="black" stroke="black" points="760.8,-159.5 770.8,-156 760.8,-152.5 760.8,-159.5"/>
</a>
</g>
</g>
<!-- (*github.com/guild&#45;framework/guild&#45;core/pkg/mcp/cost.MemoryObserver).GetAverageCost -->
<g id="node3" class="node">
<title>(*github.com/guild&#45;framework/guild&#45;core/pkg/mcp/cost.MemoryObserver).GetAverageCost</title>
<g id="a_node3"><a xlink:title="(*github.com/guild&#45;framework/guild&#45;core/pkg/mcp/cost.MemoryObserver).GetAverageCost | defined in observer.go:149&#10;at observer.go:150: calling [(*github.com/guild&#45;framework/guild&#45;core/pkg/mcp/cost.MemoryObserver).GetCosts]">
<path fill="lightblue" stroke="black" stroke-width="1.5" d="M648.45,-52C648.45,-52 389.91,-52 389.91,-52 383.91,-52 377.91,-46 377.91,-40 377.91,-40 377.91,-28 377.91,-28 377.91,-22 383.91,-16 389.91,-16 389.91,-16 648.45,-16 648.45,-16 654.45,-16 660.45,-22 660.45,-28 660.45,-28 660.45,-40 660.45,-40 660.45,-46 654.45,-52 648.45,-52"/>
<text xml:space="preserve" text-anchor="middle" x="519.18" y="-29.32" font-family="Verdana" font-size="14.00">(*MemoryObserver).GetAverageCost</text>
</a>
</g>
</g>
<!-- (*github.com/guild&#45;framework/guild&#45;core/pkg/mcp/cost.MemoryObserver).GetAverageCost&#45;&gt;(*github.com/guild&#45;framework/guild&#45;core/pkg/mcp/cost.MemoryObserver).GetCosts -->
<g id="edge3" class="edge">
<title>(*github.com/guild&#45;framework/guild&#45;core/pkg/mcp/cost.MemoryObserver).GetAverageCost&#45;&gt;(*github.com/guild&#45;framework/guild&#45;core/pkg/mcp/cost.MemoryObserver).GetCosts</title>
<g id="a_edge3"><a xlink:title="at observer.go:150: calling [(*github.com/guild&#45;framework/guild&#45;core/pkg/mcp/cost.MemoryObserver).GetCosts]">
<path fill="none" stroke="black" d="M653.64,-52.73C669.37,-56.2 685.06,-60.26 699.83,-65 752.57,-81.93 809.31,-111.03 846.52,-131.76"/>
<polygon fill="black" stroke="black" points="844.74,-134.77 855.17,-136.63 848.17,-128.67 844.74,-134.77"/>
</a>
</g>
</g>
<!-- (*github.com/guild&#45;framework/guild&#45;core/pkg/mcp/cost.MemoryObserver).RecordCost -->
<g id="node4" class="node">
<title>(*github.com/guild&#45;framework/guild&#45;core/pkg/mcp/cost.MemoryObserver).RecordCost</title>
<g id="a_node4"><a xlink:title="(*github.com/guild&#45;framework/guild&#45;core/pkg/mcp/cost.MemoryObserver).RecordCost | defined in observer.go:71&#10;at observer.go:88: calling [(*github.com/guild&#45;framework/guild&#45;core/pkg/mcp/cost.MemoryObserver).rebuildIndices]">
<path fill="lightblue" stroke="black" stroke-width="1.5" d="M253.54,-113C253.54,-113 28,-113 28,-113 22,-113 16,-107 16,-101 16,-101 16,-89 16,-89 16,-83 22,-77 28,-77 28,-77 253.54,-77 253.54,-77 259.54,-77 265.54,-83 265.54,-89 265.54,-89 265.54,-101 265.54,-101 265.54,-107 259.54,-113 253.54,-113"/>
<text xml:space="preserve" text-anchor="middle" x="140.77" y="-90.33" font-family="Verdana" font-size="14.00">(*MemoryObserver).RecordCost</text>
</a>
</g>
</g>
<!-- (*github.com/guild&#45;framework/guild&#45;core/pkg/mcp/cost.MemoryObserver).rebuildIndices -->
<g id="node5" class="node">
<title>(*github.com/guild&#45;framework/guild&#45;core/pkg/mcp/cost.MemoryObserver).rebuildIndices</title>
<g id="a_node5"><a xlink:title="(*github.com/guild&#45;framework/guild&#45;core/pkg/mcp/cost.MemoryObserver).rebuildIndices | defined in observer.go:330">
<path fill="lightblue" stroke="black" stroke-width="0.5" d="M642.08,-113C642.08,-113 396.29,-113 396.29,-113 390.29,-113 384.29,-107 384.29,-101 384.29,-101 384.29,-89 384.29,-89 384.29,-83 390.29,-77 396.29,-77 396.29,-77 642.08,-77 642.08,-77 648.08,-77 654.08,-83 654.08,-89 654.08,-89 654.08,-101 654.08,-101 654.08,-107 648.08,-113 642.08,-113"/>
<text xml:space="preserve" text-anchor="middle" x="519.18" y="-90.33" font-family="Verdana" font-size="14.00">(*MemoryObserver).rebuildIndices</text>
</a>
</g>
</g>
<!-- (*github.com/guild&#45;framework/guild&#45;core/pkg/mcp/cost.MemoryObserver).RecordCost&#45;&gt;(*github.com/guild&#45;framework/guild&#45;core/pkg/mcp/cost.MemoryObserver).rebuildIndices -->
<g id="edge4" class="edge">
<title>(*github.com/guild&#45;framework/guild&#45;core/pkg/mcp/cost.MemoryObserver).RecordCost&#45;&gt;(*github.com/guild&#45;framework/guild&#45;core/pkg/mcp/cost.MemoryObserver).rebuildIndices</title>
<g id="a_edge4"><a xlink:title="at observer.go:88: calling [(*github.com/guild&#45;framework/guild&#45;core/pkg/mcp/cost.MemoryObserver).rebuildIndices]">
<path fill="none" stroke="black" d="M266.07,-95C300.27,-95 337.66,-95 372.94,-95"/>
<polygon fill="black" stroke="black" points="372.79,-98.5 382.79,-95 372.79,-91.5 372.79,-98.5"/>
</a>
</g>
</g>
<!-- (*github.com/guild&#45;framework/guild&#45;core/pkg/mcp/cost.MemoryObserver).Analyze -->
<g id="node6" class="node">
<title>(*github.com/guild&#45;framework/guild&#45;core/pkg/mcp/cost.MemoryObserver).Analyze</title>
<g id="a_node6"><a xlink:title="(*github.com/guild&#45;framework/guild&#45;core/pkg/mcp/cost.MemoryObserver).Analyze | defined in observer.go:204&#10;at observer.go:319: calling [(*github.com/guild&#45;framework/guild&#45;core/pkg/mcp/cost.MemoryObserver).generateRecommendations]&#10;at observer.go:216: calling [(*github.com/guild&#45;framework/guild&#45;core/pkg/mcp/cost.MemoryObserver).GetTotalCost]&#10;at observer.go:309: calling [(*github.com/guild&#45;framework/guild&#45;core/pkg/mcp/cost.MemoryObserver).GetCosts]">
<path fill="lightblue" stroke="black" stroke-width="1.5" d="M241.16,-218C241.16,-218 40.38,-218 40.38,-218 34.38,-218 28.37,-212 28.37,-206 28.37,-206 28.37,-194 28.37,-194 28.37,-188 34.37,-182 40.37,-182 40.37,-182 241.16,-182 241.16,-182 247.16,-182 253.16,-188 253.16,-194 253.16,-194 253.16,-206 253.16,-206 253.16,-212 247.16,-218 241.16,-218"/>
<text xml:space="preserve" text-anchor="middle" x="140.77" y="-195.32" font-family="Verdana" font-size="14.00">(*MemoryObserver).Analyze</text>
</a>
</g>
</g>
<!-- (*github.com/guild&#45;framework/guild&#45;core/pkg/mcp/cost.MemoryObserver).Analyze&#45;&gt;(*github.com/guild&#45;framework/guild&#45;core/pkg/mcp/cost.MemoryObserver).GetTotalCost -->
<g id="edge5" class="edge">
<title>(*github.com/guild&#45;framework/guild&#45;core/pkg/mcp/cost.MemoryObserver).Analyze&#45;&gt;(*github.com/guild&#45;framework/guild&#45;core/pkg/mcp/cost.MemoryObserver).GetTotalCost</title>
<g id="a_edge5"><a xlink:title="at observer.go:216: calling [(*github.com/guild&#45;framework/guild&#45;core/pkg/mcp/cost.MemoryObserver).GetTotalCost]">
<path fill="none" stroke="black" d="M253.69,-186.92C292.89,-182.33 337.42,-177.13 378.6,-172.32"/>
<polygon fill="black" stroke="black" points="378.81,-175.82 388.34,-171.18 378,-168.86 378.81,-175.82"/>
</a>
</g>
</g>
<!-- (*github.com/guild&#45;framework/guild&#45;core/pkg/mcp/cost.MemoryObserver).Analyze&#45;&gt;(*github.com/guild&#45;framework/guild&#45;core/pkg/mcp/cost.MemoryObserver).GetCosts -->
<g id="edge6" class="edge">
<title>(*github.com/guild&#45;framework/guild&#45;core/pkg/mcp/cost.MemoryObserver).Analyze&#45;&gt;(*github.com/guild&#45;framework/guild&#45;core/pkg/mcp/cost.MemoryObserver).GetCosts</title>
<g id="a_edge6"><a xlink:title="at observer.go:309: calling [(*github.com/guild&#45;framework/guild&#45;core/pkg/mcp/cost.MemoryObserver).GetCosts]">
<path fill="none" stroke="black" d="M253.74,-201.99C366.61,-202.91 545.69,-201.42 699.83,-187 725.79,-184.57 753.58,-180.7 779.62,-176.51"/>
<polygon fill="black" stroke="black" points="779.87,-180.02 789.17,-174.94 778.73,-173.11 779.87,-180.02"/>
</a>
</g>
</g>
<!-- (*github.com/guild&#45;framework/guild&#45;core/pkg/mcp/cost.MemoryObserver).generateRecommendations -->
<g id="node7" class="node">
<title>(*github.com/guild&#45;framework/guild&#45;core/pkg/mcp/cost.MemoryObserver).generateRecommendations</title>
<g id="a_node7"><a xlink:title="(*github.com/guild&#45;framework/guild&#45;core/pkg/mcp/cost.MemoryObserver).generateRecommendations | defined in observer.go:342">
<path fill="lightblue" stroke="black" stroke-width="0.5" d="M687.83,-262C687.83,-262 350.54,-262 350.54,-262 344.54,-262 338.54,-256 338.54,-250 338.54,-250 338.54,-238 338.54,-238 338.54,-232 344.54,-226 350.54,-226 350.54,-226 687.83,-226 687.83,-226 693.83,-226 699.83,-232 699.83,-238 699.83,-238 699.83,-250 699.83,-250 699.83,-256 693.83,-262 687.83,-262"/>
<text xml:space="preserve" text-anchor="middle" x="519.18" y="-239.32" font-family="Verdana" font-size="14.00">(*MemoryObserver).generateRecommendations</text>
</a>
</g>
</g>
<!-- (*github.com/guild&#45;framework/guild&#45;core/pkg/mcp/cost.MemoryObserver).Analyze&#45;&gt;(*github.com/guild&#45;framework/guild&#45;core/pkg/mcp/cost.MemoryObserver).generateRecommendations -->
<g id="edge1" class="edge">
<title>(*github.com/guild&#45;framework/guild&#45;core/pkg/mcp/cost.MemoryObserver).Analyze&#45;&gt;(*github.com/guild&#45;framework/guild&#45;core/pkg/mcp/cost.MemoryObserver).generateRecommendations</title>
<g id="a_edge1"><a xlink:title="at observer.go:319: calling [(*github.com/guild&#45;framework/guild&#45;core/pkg/mcp/cost.MemoryObserver).generateRecommendations]">
<path fill="none" stroke="black" d="M253.69,-213.08C284.26,-216.66 318.06,-220.61 350.99,-224.46"/>
<polygon fill="black" stroke="black" points="350.27,-227.9 360.61,-225.58 351.09,-220.94 350.27,-227.9"/>
</a>
</g>
</g>
</g>
</svg>
