<?xml version="1.0" encoding="UTF-8" standalone="no"?>
<!DOCTYPE svg PUBLIC "-//W3C//DTD SVG 1.1//EN"
 "http://www.w3.org/Graphics/SVG/1.1/DTD/svg11.dtd">
<!-- Generated by graphviz version 14.1.1 (20251213.1925)
 -->
<!-- Title: gocallvis Pages: 1 -->
<svg width="945pt" height="603pt"
 viewBox="0.00 0.00 945.00 603.00" xmlns="http://www.w3.org/2000/svg" xmlns:xlink="http://www.w3.org/1999/xlink">
<g id="graph0" class="graph" transform="scale(1 1) rotate(0) translate(0 603)">
<title>gocallvis</title>
<polygon fill="lightgray" stroke="none" points="0,0 0,-603 944.62,-603 944.62,0 0,0"/>
<g id="clust1" class="cluster">
<title>cluster_focus</title>
<polygon fill="#e6ecfa" stroke="black" stroke-width="0.5" points="8,-8 8,-595 936.62,-595 936.62,-8 8,-8"/>
<text xml:space="preserve" text-anchor="middle" x="472.31" y="-573.9" font-family="Arial" font-size="18.00">tools</text>
</g>
<g id="clust2" class="cluster">
<title>cluster_github.com/guild&#45;framework/guild&#45;core/pkg/gerror</title>
<g id="a_clust2"><a xlink:href="/?f=github.com/guild-framework/guild-core/pkg/gerror" xlink:title="package: github.com/guild&#45;framework/guild&#45;core/pkg/gerror">
<polygon fill="lightyellow" stroke="black" stroke-width="0.8" points="662.08,-156 662.08,-419 910.37,-419 910.37,-156 662.08,-156"/>
<text xml:space="preserve" text-anchor="middle" x="786.23" y="-399.8" font-family="Tahoma bold" font-size="16.00">gerror</text>
</a>
</g>
</g>
<!-- (*github.com/guild&#45;framework/guild&#45;core/pkg/mcp/tools.MemoryRegistry).GetTool -->
<g id="node1" class="node">
<title>(*github.com/guild&#45;framework/guild&#45;core/pkg/mcp/tools.MemoryRegistry).GetTool</title>
<g id="a_node1"><a xlink:title="(*github.com/guild&#45;framework/guild&#45;core/pkg/mcp/tools.MemoryRegistry).GetTool | defined in registry.go:148&#10;at registry.go:157: calling [(*github.com/guild&#45;framework/guild&#45;core/pkg/gerror.GuildError).WithDetails]&#10;at registry.go:154: calling [github.com/guild&#45;framework/guild&#45;core/pkg/gerror.New]&#10;at registry.go:155: calling [(*github.com/guild&#45;framework/guild&#45;core/pkg/gerror.GuildError).WithComponent]&#10;at registry.go:156: calling [(*github.com/guild&#45;framework/guild&#45;core/pkg/gerror.GuildError).WithOperation]">
<path fill="lightblue" stroke="black" stroke-width="1.5" d="M523.95,-353C523.95,-353 332.91,-353 332.91,-353 326.91,-353 320.91,-347 320.91,-341 320.91,-341 320.91,-329 320.91,-329 320.91,-323 326.91,-317 332.91,-317 332.91,-317 523.95,-317 523.95,-317 529.95,-317 535.95,-323 535.95,-329 535.95,-329 535.95,-341 535.95,-341 535.95,-347 529.95,-353 523.95,-353"/>
<text xml:space="preserve" text-anchor="middle" x="428.43" y="-330.32" font-family="Verdana" font-size="14.00">(*MemoryRegistry).GetTool</text>
</a>
</g>
</g>
<!-- github.com/guild&#45;framework/guild&#45;core/pkg/gerror.New -->
<g id="node8" class="node">
<title>github.com/guild&#45;framework/guild&#45;core/pkg/gerror.New</title>
<g id="a_node8"><a xlink:title="github.com/guild&#45;framework/guild&#45;core/pkg/gerror.New | defined in errors.go:190">
<path fill="moccasin" stroke="black" stroke-width="1.5" d="M801.23,-322C801.23,-322 771.23,-322 771.23,-322 765.23,-322 759.23,-316 759.23,-310 759.23,-310 759.23,-298 759.23,-298 759.23,-292 765.23,-286 771.23,-286 771.23,-286 801.23,-286 801.23,-286 807.23,-286 813.23,-292 813.23,-298 813.23,-298 813.23,-310 813.23,-310 813.23,-316 807.23,-322 801.23,-322"/>
<text xml:space="preserve" text-anchor="middle" x="786.23" y="-299.32" font-family="Verdana" font-size="14.00">New</text>
</a>
</g>
</g>
<!-- (*github.com/guild&#45;framework/guild&#45;core/pkg/mcp/tools.MemoryRegistry).GetTool&#45;&gt;github.com/guild&#45;framework/guild&#45;core/pkg/gerror.New -->
<g id="edge10" class="edge">
<title>(*github.com/guild&#45;framework/guild&#45;core/pkg/mcp/tools.MemoryRegistry).GetTool&#45;&gt;github.com/guild&#45;framework/guild&#45;core/pkg/gerror.New</title>
<g id="a_edge10"><a xlink:title="at registry.go:154: calling [github.com/guild&#45;framework/guild&#45;core/pkg/gerror.New]">
<path fill="none" stroke="saddlebrown" d="M536.61,-332.45C560.1,-331.43 584.83,-330 607.83,-328 656.3,-323.78 711.83,-315.75 747.66,-310.14"/>
<polygon fill="saddlebrown" stroke="saddlebrown" points="747.74,-313.67 757.07,-308.65 746.65,-306.76 747.74,-313.67"/>
</a>
</g>
</g>
<!-- (*github.com/guild&#45;framework/guild&#45;core/pkg/gerror.GuildError).WithComponent -->
<g id="node9" class="node">
<title>(*github.com/guild&#45;framework/guild&#45;core/pkg/gerror.GuildError).WithComponent</title>
<g id="a_node9"><a xlink:title="(*github.com/guild&#45;framework/guild&#45;core/pkg/gerror.GuildError).WithComponent | defined in errors.go:156">
<path fill="moccasin" stroke="black" stroke-width="1.5" d="M890.37,-200C890.37,-200 682.08,-200 682.08,-200 676.08,-200 670.08,-194 670.08,-188 670.08,-188 670.08,-176 670.08,-176 670.08,-170 676.08,-164 682.08,-164 682.08,-164 890.37,-164 890.37,-164 896.37,-164 902.37,-170 902.37,-176 902.37,-176 902.37,-188 902.37,-188 902.37,-194 896.37,-200 890.37,-200"/>
<text xml:space="preserve" text-anchor="middle" x="786.23" y="-177.32" font-family="Verdana" font-size="14.00">(*GuildError).WithComponent</text>
</a>
</g>
</g>
<!-- (*github.com/guild&#45;framework/guild&#45;core/pkg/mcp/tools.MemoryRegistry).GetTool&#45;&gt;(*github.com/guild&#45;framework/guild&#45;core/pkg/gerror.GuildError).WithComponent -->
<g id="edge11" class="edge">
<title>(*github.com/guild&#45;framework/guild&#45;core/pkg/mcp/tools.MemoryRegistry).GetTool&#45;&gt;(*github.com/guild&#45;framework/guild&#45;core/pkg/gerror.GuildError).WithComponent</title>
<g id="a_edge11"><a xlink:title="at registry.go:155: calling [(*github.com/guild&#45;framework/guild&#45;core/pkg/gerror.GuildError).WithComponent]">
<path fill="none" stroke="saddlebrown" d="M536.53,-326.64C549.34,-321.73 561.25,-314.76 570.83,-305 630.11,-244.59 541.57,-171.89 606.83,-118 651.34,-81.24 718.62,-124.92 756.57,-156.05"/>
<polygon fill="saddlebrown" stroke="saddlebrown" points="754.04,-158.5 763.94,-162.27 758.55,-153.15 754.04,-158.5"/>
</a>
</g>
</g>
<!-- (*github.com/guild&#45;framework/guild&#45;core/pkg/gerror.GuildError).WithOperation -->
<g id="node10" class="node">
<title>(*github.com/guild&#45;framework/guild&#45;core/pkg/gerror.GuildError).WithOperation</title>
<g id="a_node10"><a xlink:title="(*github.com/guild&#45;framework/guild&#45;core/pkg/gerror.GuildError).WithOperation | defined in errors.go:162">
<path fill="moccasin" stroke="black" stroke-width="1.5" d="M884.75,-261C884.75,-261 687.71,-261 687.71,-261 681.71,-261 675.71,-255 675.71,-249 675.71,-249 675.71,-237 675.71,-237 675.71,-231 681.71,-225 687.71,-225 687.71,-225 884.75,-225 884.75,-225 890.75,-225 896.75,-231 896.75,-237 896.75,-237 896.75,-249 896.75,-249 896.75,-255 890.75,-261 884.75,-261"/>
<text xml:space="preserve" text-anchor="middle" x="786.23" y="-238.32" font-family="Verdana" font-size="14.00">(*GuildError).WithOperation</text>
</a>
</g>
</g>
<!-- (*github.com/guild&#45;framework/guild&#45;core/pkg/mcp/tools.MemoryRegistry).GetTool&#45;&gt;(*github.com/guild&#45;framework/guild&#45;core/pkg/gerror.GuildError).WithOperation -->
<g id="edge16" class="edge">
<title>(*github.com/guild&#45;framework/guild&#45;core/pkg/mcp/tools.MemoryRegistry).GetTool&#45;&gt;(*github.com/guild&#45;framework/guild&#45;core/pkg/gerror.GuildError).WithOperation</title>
<g id="a_edge16"><a xlink:title="at registry.go:156: calling [(*github.com/guild&#45;framework/guild&#45;core/pkg/gerror.GuildError).WithOperation]">
<path fill="none" stroke="saddlebrown" d="M536.46,-321.49C548.63,-317.33 560.38,-311.95 570.83,-305 594.23,-289.43 582.31,-266.74 606.83,-253 624.1,-243.32 643.85,-237.85 663.77,-235.09"/>
<polygon fill="saddlebrown" stroke="saddlebrown" points="664.12,-238.57 673.66,-233.96 663.33,-231.61 664.12,-238.57"/>
</a>
</g>
</g>
<!-- (*github.com/guild&#45;framework/guild&#45;core/pkg/gerror.GuildError).WithDetails -->
<g id="node11" class="node">
<title>(*github.com/guild&#45;framework/guild&#45;core/pkg/gerror.GuildError).WithDetails</title>
<g id="a_node11"><a xlink:title="(*github.com/guild&#45;framework/guild&#45;core/pkg/gerror.GuildError).WithDetails | defined in errors.go:147">
<path fill="moccasin" stroke="black" stroke-width="1.5" d="M873.87,-383C873.87,-383 698.58,-383 698.58,-383 692.58,-383 686.58,-377 686.58,-371 686.58,-371 686.58,-359 686.58,-359 686.58,-353 692.58,-347 698.58,-347 698.58,-347 873.87,-347 873.87,-347 879.87,-347 885.87,-353 885.87,-359 885.87,-359 885.87,-371 885.87,-371 885.87,-377 879.87,-383 873.87,-383"/>
<text xml:space="preserve" text-anchor="middle" x="786.23" y="-360.32" font-family="Verdana" font-size="14.00">(*GuildError).WithDetails</text>
</a>
</g>
</g>
<!-- (*github.com/guild&#45;framework/guild&#45;core/pkg/mcp/tools.MemoryRegistry).GetTool&#45;&gt;(*github.com/guild&#45;framework/guild&#45;core/pkg/gerror.GuildError).WithDetails -->
<g id="edge2" class="edge">
<title>(*github.com/guild&#45;framework/guild&#45;core/pkg/mcp/tools.MemoryRegistry).GetTool&#45;&gt;(*github.com/guild&#45;framework/guild&#45;core/pkg/gerror.GuildError).WithDetails</title>
<g id="a_edge2"><a xlink:title="at registry.go:157: calling [(*github.com/guild&#45;framework/guild&#45;core/pkg/gerror.GuildError).WithDetails]">
<path fill="none" stroke="saddlebrown" d="M536.67,-345.55C549.23,-350.36 561.03,-356.98 570.83,-366 610.86,-402.85 563.07,-450.68 606.83,-483 643.61,-510.17 608.37,-415.87 643.83,-387 653.03,-379.51 663.71,-374.05 675.01,-370.12"/>
<polygon fill="saddlebrown" stroke="saddlebrown" points="675.99,-373.49 684.55,-367.25 673.97,-366.78 675.99,-373.49"/>
</a>
</g>
</g>
<!-- (*github.com/guild&#45;framework/guild&#45;core/pkg/mcp/tools.MemoryRegistry).RegisterTool -->
<g id="node2" class="node">
<title>(*github.com/guild&#45;framework/guild&#45;core/pkg/mcp/tools.MemoryRegistry).RegisterTool</title>
<g id="a_node2"><a xlink:title="(*github.com/guild&#45;framework/guild&#45;core/pkg/mcp/tools.MemoryRegistry).RegisterTool | defined in registry.go:87&#10;at registry.go:89: calling [github.com/guild&#45;framework/guild&#45;core/pkg/gerror.New]&#10;at registry.go:99: calling [github.com/guild&#45;framework/guild&#45;core/pkg/gerror.New]&#10;at registry.go:102: calling [(*github.com/guild&#45;framework/guild&#45;core/pkg/gerror.GuildError).WithDetails]&#10;at registry.go:91: calling [(*github.com/guild&#45;framework/guild&#45;core/pkg/gerror.GuildError).WithOperation]&#10;at registry.go:101: calling [(*github.com/guild&#45;framework/guild&#45;core/pkg/gerror.GuildError).WithOperation]&#10;at registry.go:90: calling [(*github.com/guild&#45;framework/guild&#45;core/pkg/gerror.GuildError).WithComponent]&#10;at registry.go:100: calling [(*github.com/guild&#45;framework/guild&#45;core/pkg/gerror.GuildError).WithComponent]">
<path fill="lightblue" stroke="black" stroke-width="1.5" d="M540.83,-231C540.83,-231 316.04,-231 316.04,-231 310.04,-231 304.04,-225 304.04,-219 304.04,-219 304.04,-207 304.04,-207 304.04,-201 310.04,-195 316.04,-195 316.04,-195 540.83,-195 540.83,-195 546.83,-195 552.83,-201 552.83,-207 552.83,-207 552.83,-219 552.83,-219 552.83,-225 546.83,-231 540.83,-231"/>
<text xml:space="preserve" text-anchor="middle" x="428.43" y="-208.32" font-family="Verdana" font-size="14.00">(*MemoryRegistry).RegisterTool</text>
</a>
</g>
</g>
<!-- (*github.com/guild&#45;framework/guild&#45;core/pkg/mcp/tools.MemoryRegistry).RegisterTool&#45;&gt;github.com/guild&#45;framework/guild&#45;core/pkg/gerror.New -->
<g id="edge3" class="edge">
<title>(*github.com/guild&#45;framework/guild&#45;core/pkg/mcp/tools.MemoryRegistry).RegisterTool&#45;&gt;github.com/guild&#45;framework/guild&#45;core/pkg/gerror.New</title>
<g id="a_edge3"><a xlink:title="at registry.go:89: calling [github.com/guild&#45;framework/guild&#45;core/pkg/gerror.New]&#10;at registry.go:99: calling [github.com/guild&#45;framework/guild&#45;core/pkg/gerror.New]">
<path fill="none" stroke="saddlebrown" d="M547.19,-231.62C555.49,-235.08 563.48,-239.17 570.83,-244 593.72,-259.04 582.82,-280.84 606.83,-294 650.46,-317.92 709.46,-315.79 747.43,-310.86"/>
<polygon fill="saddlebrown" stroke="saddlebrown" points="747.6,-314.37 757,-309.49 746.61,-307.45 747.6,-314.37"/>
</a>
</g>
</g>
<!-- (*github.com/guild&#45;framework/guild&#45;core/pkg/mcp/tools.MemoryRegistry).RegisterTool&#45;&gt;(*github.com/guild&#45;framework/guild&#45;core/pkg/gerror.GuildError).WithComponent -->
<g id="edge19" class="edge">
<title>(*github.com/guild&#45;framework/guild&#45;core/pkg/mcp/tools.MemoryRegistry).RegisterTool&#45;&gt;(*github.com/guild&#45;framework/guild&#45;core/pkg/gerror.GuildError).WithComponent</title>
<g id="a_edge19"><a xlink:title="at registry.go:90: calling [(*github.com/guild&#45;framework/guild&#45;core/pkg/gerror.GuildError).WithComponent]&#10;at registry.go:100: calling [(*github.com/guild&#45;framework/guild&#45;core/pkg/gerror.GuildError).WithComponent]">
<path fill="none" stroke="saddlebrown" d="M553.48,-195.5C559.72,-191.97 565.56,-187.84 570.83,-183 611.52,-145.62 562.46,-96.93 606.83,-64 663.48,-21.95 734.3,-107.3 767.06,-154.12"/>
<polygon fill="saddlebrown" stroke="saddlebrown" points="764.06,-155.94 772.6,-162.22 769.84,-151.99 764.06,-155.94"/>
</a>
</g>
</g>
<!-- (*github.com/guild&#45;framework/guild&#45;core/pkg/mcp/tools.MemoryRegistry).RegisterTool&#45;&gt;(*github.com/guild&#45;framework/guild&#45;core/pkg/gerror.GuildError).WithOperation -->
<g id="edge17" class="edge">
<title>(*github.com/guild&#45;framework/guild&#45;core/pkg/mcp/tools.MemoryRegistry).RegisterTool&#45;&gt;(*github.com/guild&#45;framework/guild&#45;core/pkg/gerror.GuildError).WithOperation</title>
<g id="a_edge17"><a xlink:title="at registry.go:91: calling [(*github.com/guild&#45;framework/guild&#45;core/pkg/gerror.GuildError).WithOperation]&#10;at registry.go:101: calling [(*github.com/guild&#45;framework/guild&#45;core/pkg/gerror.GuildError).WithOperation]">
<path fill="none" stroke="saddlebrown" d="M553.21,-194.86C571.6,-194.6 590.27,-195.71 607.83,-199 624.7,-202.17 627.38,-208.09 643.83,-213 654.2,-216.09 665.09,-219 676.03,-221.69"/>
<polygon fill="saddlebrown" stroke="saddlebrown" points="674.95,-225.03 685.49,-223.95 676.58,-218.22 674.95,-225.03"/>
</a>
</g>
</g>
<!-- (*github.com/guild&#45;framework/guild&#45;core/pkg/mcp/tools.MemoryRegistry).RegisterTool&#45;&gt;(*github.com/guild&#45;framework/guild&#45;core/pkg/gerror.GuildError).WithDetails -->
<g id="edge4" class="edge">
<title>(*github.com/guild&#45;framework/guild&#45;core/pkg/mcp/tools.MemoryRegistry).RegisterTool&#45;&gt;(*github.com/guild&#45;framework/guild&#45;core/pkg/gerror.GuildError).WithDetails</title>
<g id="a_edge4"><a xlink:title="at registry.go:102: calling [(*github.com/guild&#45;framework/guild&#45;core/pkg/gerror.GuildError).WithDetails]">
<path fill="none" stroke="saddlebrown" d="M553.47,-230.4C559.79,-234.2 565.65,-238.7 570.83,-244 629.36,-303.93 542.19,-375.73 606.83,-429 626.03,-444.82 622.1,-399.11 643.83,-387 653.51,-381.6 664.12,-377.42 675.03,-374.19"/>
<polygon fill="saddlebrown" stroke="saddlebrown" points="675.79,-377.61 684.56,-371.66 673.99,-370.85 675.79,-377.61"/>
</a>
</g>
</g>
<!-- (*github.com/guild&#45;framework/guild&#45;core/pkg/mcp/tools.BaseTool).Execute -->
<g id="node3" class="node">
<title>(*github.com/guild&#45;framework/guild&#45;core/pkg/mcp/tools.BaseTool).Execute</title>
<g id="a_node3"><a xlink:title="(*github.com/guild&#45;framework/guild&#45;core/pkg/mcp/tools.BaseTool).Execute | defined in registry.go:323&#10;at registry.go:325: calling [github.com/guild&#45;framework/guild&#45;core/pkg/gerror.New]&#10;at registry.go:335: calling [github.com/guild&#45;framework/guild&#45;core/pkg/gerror.New]&#10;at registry.go:328: calling [(*github.com/guild&#45;framework/guild&#45;core/pkg/gerror.GuildError).WithDetails]&#10;at registry.go:338: calling [(*github.com/guild&#45;framework/guild&#45;core/pkg/gerror.GuildError).WithDetails]&#10;at registry.go:339: calling [(*github.com/guild&#45;framework/guild&#45;core/pkg/gerror.GuildError).WithDetails]&#10;at registry.go:326: calling [(*github.com/guild&#45;framework/guild&#45;core/pkg/gerror.GuildError).WithComponent]&#10;at registry.go:336: calling [(*github.com/guild&#45;framework/guild&#45;core/pkg/gerror.GuildError).WithComponent]&#10;at registry.go:327: calling [(*github.com/guild&#45;framework/guild&#45;core/pkg/gerror.GuildError).WithOperation]&#10;at registry.go:337: calling [(*github.com/guild&#45;framework/guild&#45;core/pkg/gerror.GuildError).WithOperation]">
<path fill="lightblue" stroke="black" stroke-width="1.5" d="M498.83,-292C498.83,-292 358.04,-292 358.04,-292 352.04,-292 346.04,-286 346.04,-280 346.04,-280 346.04,-268 346.04,-268 346.04,-262 352.04,-256 358.04,-256 358.04,-256 498.83,-256 498.83,-256 504.83,-256 510.83,-262 510.83,-268 510.83,-268 510.83,-280 510.83,-280 510.83,-286 504.83,-292 498.83,-292"/>
<text xml:space="preserve" text-anchor="middle" x="428.43" y="-269.32" font-family="Verdana" font-size="14.00">(*BaseTool).Execute</text>
</a>
</g>
</g>
<!-- (*github.com/guild&#45;framework/guild&#45;core/pkg/mcp/tools.BaseTool).Execute&#45;&gt;github.com/guild&#45;framework/guild&#45;core/pkg/gerror.New -->
<g id="edge5" class="edge">
<title>(*github.com/guild&#45;framework/guild&#45;core/pkg/mcp/tools.BaseTool).Execute&#45;&gt;github.com/guild&#45;framework/guild&#45;core/pkg/gerror.New</title>
<g id="a_edge5"><a xlink:title="at registry.go:325: calling [github.com/guild&#45;framework/guild&#45;core/pkg/gerror.New]&#10;at registry.go:335: calling [github.com/guild&#45;framework/guild&#45;core/pkg/gerror.New]">
<path fill="none" stroke="saddlebrown" d="M511.32,-289.01C531.02,-293.42 551.85,-298.77 570.83,-305 587.47,-310.46 589.7,-317.37 606.83,-321 654.75,-331.17 711.21,-322.4 747.58,-314.14"/>
<polygon fill="saddlebrown" stroke="saddlebrown" points="748.26,-317.57 757.17,-311.85 746.63,-310.77 748.26,-317.57"/>
</a>
</g>
</g>
<!-- (*github.com/guild&#45;framework/guild&#45;core/pkg/mcp/tools.BaseTool).Execute&#45;&gt;(*github.com/guild&#45;framework/guild&#45;core/pkg/gerror.GuildError).WithComponent -->
<g id="edge20" class="edge">
<title>(*github.com/guild&#45;framework/guild&#45;core/pkg/mcp/tools.BaseTool).Execute&#45;&gt;(*github.com/guild&#45;framework/guild&#45;core/pkg/gerror.GuildError).WithComponent</title>
<g id="a_edge20"><a xlink:title="at registry.go:326: calling [(*github.com/guild&#45;framework/guild&#45;core/pkg/gerror.GuildError).WithComponent]&#10;at registry.go:336: calling [(*github.com/guild&#45;framework/guild&#45;core/pkg/gerror.GuildError).WithComponent]">
<path fill="none" stroke="saddlebrown" d="M511.43,-272.22C533.16,-267.91 554.95,-259.53 570.83,-244 620.77,-195.15 552.07,-134.37 606.83,-91 657,-51.26 727.26,-115.72 762.77,-155.08"/>
<polygon fill="saddlebrown" stroke="saddlebrown" points="759.98,-157.2 769.21,-162.39 765.23,-152.57 759.98,-157.2"/>
</a>
</g>
</g>
<!-- (*github.com/guild&#45;framework/guild&#45;core/pkg/mcp/tools.BaseTool).Execute&#45;&gt;(*github.com/guild&#45;framework/guild&#45;core/pkg/gerror.GuildError).WithOperation -->
<g id="edge21" class="edge">
<title>(*github.com/guild&#45;framework/guild&#45;core/pkg/mcp/tools.BaseTool).Execute&#45;&gt;(*github.com/guild&#45;framework/guild&#45;core/pkg/gerror.GuildError).WithOperation</title>
<g id="a_edge21"><a xlink:title="at registry.go:327: calling [(*github.com/guild&#45;framework/guild&#45;core/pkg/gerror.GuildError).WithOperation]&#10;at registry.go:337: calling [(*github.com/guild&#45;framework/guild&#45;core/pkg/gerror.GuildError).WithOperation]">
<path fill="none" stroke="saddlebrown" d="M511.54,-260.27C531.23,-255.97 552,-250.58 570.83,-244 587.72,-238.1 589.42,-230.11 606.83,-226 634.51,-219.47 665.16,-219.77 693.14,-222.85"/>
<polygon fill="saddlebrown" stroke="saddlebrown" points="692.68,-226.32 703.04,-224.09 693.55,-219.38 692.68,-226.32"/>
</a>
</g>
</g>
<!-- (*github.com/guild&#45;framework/guild&#45;core/pkg/mcp/tools.BaseTool).Execute&#45;&gt;(*github.com/guild&#45;framework/guild&#45;core/pkg/gerror.GuildError).WithDetails -->
<g id="edge6" class="edge">
<title>(*github.com/guild&#45;framework/guild&#45;core/pkg/mcp/tools.BaseTool).Execute&#45;&gt;(*github.com/guild&#45;framework/guild&#45;core/pkg/gerror.GuildError).WithDetails</title>
<g id="a_edge6"><a xlink:title="at registry.go:328: calling [(*github.com/guild&#45;framework/guild&#45;core/pkg/gerror.GuildError).WithDetails]&#10;at registry.go:338: calling [(*github.com/guild&#45;framework/guild&#45;core/pkg/gerror.GuildError).WithDetails]&#10;at registry.go:339: calling [(*github.com/guild&#45;framework/guild&#45;core/pkg/gerror.GuildError).WithDetails]">
<path fill="none" stroke="saddlebrown" d="M511.44,-276.43C533.17,-280.9 554.96,-289.42 570.83,-305 620.06,-353.34 552.68,-413.24 606.83,-456 634.14,-477.56 615.55,-407.28 643.83,-387 653.24,-380.25 663.91,-375.23 675.07,-371.54"/>
<polygon fill="saddlebrown" stroke="saddlebrown" points="675.82,-374.96 684.44,-368.81 673.86,-368.24 675.82,-374.96"/>
</a>
</g>
</g>
<!-- (*github.com/guild&#45;framework/guild&#45;core/pkg/mcp/tools.BaseTool).HealthCheck -->
<g id="node4" class="node">
<title>(*github.com/guild&#45;framework/guild&#45;core/pkg/mcp/tools.BaseTool).HealthCheck</title>
<g id="a_node4"><a xlink:title="(*github.com/guild&#45;framework/guild&#45;core/pkg/mcp/tools.BaseTool).HealthCheck | defined in registry.go:348&#10;at registry.go:353: calling [(*github.com/guild&#45;framework/guild&#45;core/pkg/mcp/tools.BaseTool).Execute]">
<path fill="lightblue" stroke="black" stroke-width="1.5" d="M201.04,-292C201.04,-292 28,-292 28,-292 22,-292 16,-286 16,-280 16,-280 16,-268 16,-268 16,-262 22,-256 28,-256 28,-256 201.04,-256 201.04,-256 207.04,-256 213.04,-262 213.04,-268 213.04,-268 213.04,-280 213.04,-280 213.04,-286 207.04,-292 201.04,-292"/>
<text xml:space="preserve" text-anchor="middle" x="114.52" y="-269.32" font-family="Verdana" font-size="14.00">(*BaseTool).HealthCheck</text>
</a>
</g>
</g>
<!-- (*github.com/guild&#45;framework/guild&#45;core/pkg/mcp/tools.BaseTool).HealthCheck&#45;&gt;(*github.com/guild&#45;framework/guild&#45;core/pkg/mcp/tools.BaseTool).Execute -->
<g id="edge7" class="edge">
<title>(*github.com/guild&#45;framework/guild&#45;core/pkg/mcp/tools.BaseTool).HealthCheck&#45;&gt;(*github.com/guild&#45;framework/guild&#45;core/pkg/mcp/tools.BaseTool).Execute</title>
<g id="a_edge7"><a xlink:title="at registry.go:353: calling [(*github.com/guild&#45;framework/guild&#45;core/pkg/mcp/tools.BaseTool).Execute]">
<path fill="none" stroke="black" d="M213.78,-274C252.3,-274 296.29,-274 334.3,-274"/>
<polygon fill="black" stroke="black" points="333.85,-277.5 343.85,-274 333.85,-270.5 333.85,-277.5"/>
</a>
</g>
</g>
<!-- (*github.com/guild&#45;framework/guild&#45;core/pkg/mcp/tools.MemoryRegistry).DeregisterTool -->
<g id="node5" class="node">
<title>(*github.com/guild&#45;framework/guild&#45;core/pkg/mcp/tools.MemoryRegistry).DeregisterTool</title>
<g id="a_node5"><a xlink:title="(*github.com/guild&#45;framework/guild&#45;core/pkg/mcp/tools.MemoryRegistry).DeregisterTool | defined in registry.go:118&#10;at registry.go:124: calling [github.com/guild&#45;framework/guild&#45;core/pkg/gerror.New]&#10;at registry.go:125: calling [(*github.com/guild&#45;framework/guild&#45;core/pkg/gerror.GuildError).WithComponent]&#10;at registry.go:127: calling [(*github.com/guild&#45;framework/guild&#45;core/pkg/gerror.GuildError).WithDetails]&#10;at registry.go:137: calling [(*github.com/guild&#45;framework/guild&#45;core/pkg/mcp/tools.MemoryRegistry).removeFromSlice]&#10;at registry.go:126: calling [(*github.com/guild&#45;framework/guild&#45;core/pkg/gerror.GuildError).WithOperation]">
<path fill="lightblue" stroke="black" stroke-width="1.5" d="M548.33,-414C548.33,-414 308.54,-414 308.54,-414 302.54,-414 296.54,-408 296.54,-402 296.54,-402 296.54,-390 296.54,-390 296.54,-384 302.54,-378 308.54,-378 308.54,-378 548.33,-378 548.33,-378 554.33,-378 560.33,-384 560.33,-390 560.33,-390 560.33,-402 560.33,-402 560.33,-408 554.33,-414 548.33,-414"/>
<text xml:space="preserve" text-anchor="middle" x="428.43" y="-391.32" font-family="Verdana" font-size="14.00">(*MemoryRegistry).DeregisterTool</text>
</a>
</g>
</g>
<!-- (*github.com/guild&#45;framework/guild&#45;core/pkg/mcp/tools.MemoryRegistry).removeFromSlice -->
<g id="node6" class="node">
<title>(*github.com/guild&#45;framework/guild&#45;core/pkg/mcp/tools.MemoryRegistry).removeFromSlice</title>
<g id="a_node6"><a xlink:title="(*github.com/guild&#45;framework/guild&#45;core/pkg/mcp/tools.MemoryRegistry).removeFromSlice | defined in registry.go:260">
<path fill="lightblue" stroke="black" stroke-width="0.5" d="M916.62,-558C916.62,-558 655.83,-558 655.83,-558 649.83,-558 643.83,-552 643.83,-546 643.83,-546 643.83,-534 643.83,-534 643.83,-528 649.83,-522 655.83,-522 655.83,-522 916.62,-522 916.62,-522 922.62,-522 928.62,-528 928.62,-534 928.62,-534 928.62,-546 928.62,-546 928.62,-552 922.62,-558 916.62,-558"/>
<text xml:space="preserve" text-anchor="middle" x="786.23" y="-535.33" font-family="Verdana" font-size="14.00">(*MemoryRegistry).removeFromSlice</text>
</a>
</g>
</g>
<!-- (*github.com/guild&#45;framework/guild&#45;core/pkg/mcp/tools.MemoryRegistry).DeregisterTool&#45;&gt;(*github.com/guild&#45;framework/guild&#45;core/pkg/mcp/tools.MemoryRegistry).removeFromSlice -->
<g id="edge14" class="edge">
<title>(*github.com/guild&#45;framework/guild&#45;core/pkg/mcp/tools.MemoryRegistry).DeregisterTool&#45;&gt;(*github.com/guild&#45;framework/guild&#45;core/pkg/mcp/tools.MemoryRegistry).removeFromSlice</title>
<g id="a_edge14"><a xlink:title="at registry.go:137: calling [(*github.com/guild&#45;framework/guild&#45;core/pkg/mcp/tools.MemoryRegistry).removeFromSlice]">
<path fill="none" stroke="black" d="M456.48,-414.63C490.26,-437.12 550.49,-474.69 606.83,-497 628.95,-505.76 653.34,-513.07 676.8,-519.02"/>
<polygon fill="black" stroke="black" points="675.85,-522.39 686.4,-521.39 677.53,-515.6 675.85,-522.39"/>
</a>
</g>
</g>
<!-- (*github.com/guild&#45;framework/guild&#45;core/pkg/mcp/tools.MemoryRegistry).DeregisterTool&#45;&gt;github.com/guild&#45;framework/guild&#45;core/pkg/gerror.New -->
<g id="edge8" class="edge">
<title>(*github.com/guild&#45;framework/guild&#45;core/pkg/mcp/tools.MemoryRegistry).DeregisterTool&#45;&gt;github.com/guild&#45;framework/guild&#45;core/pkg/gerror.New</title>
<g id="a_edge8"><a xlink:title="at registry.go:124: calling [github.com/guild&#45;framework/guild&#45;core/pkg/gerror.New]">
<path fill="none" stroke="saddlebrown" d="M529.33,-377.32C543.38,-373.97 557.55,-370.19 570.83,-366 604.45,-355.4 610.25,-345.71 643.83,-335 678.24,-324.03 718.57,-315.61 747.33,-310.33"/>
<polygon fill="saddlebrown" stroke="saddlebrown" points="747.8,-313.8 757.03,-308.59 746.57,-306.91 747.8,-313.8"/>
</a>
</g>
</g>
<!-- (*github.com/guild&#45;framework/guild&#45;core/pkg/mcp/tools.MemoryRegistry).DeregisterTool&#45;&gt;(*github.com/guild&#45;framework/guild&#45;core/pkg/gerror.GuildError).WithComponent -->
<g id="edge12" class="edge">
<title>(*github.com/guild&#45;framework/guild&#45;core/pkg/mcp/tools.MemoryRegistry).DeregisterTool&#45;&gt;(*github.com/guild&#45;framework/guild&#45;core/pkg/gerror.GuildError).WithComponent</title>
<g id="a_edge12"><a xlink:title="at registry.go:125: calling [(*github.com/guild&#45;framework/guild&#45;core/pkg/gerror.GuildError).WithComponent]">
<path fill="none" stroke="saddlebrown" d="M552.99,-377.35C559.31,-374.1 565.31,-370.35 570.83,-366 630.01,-319.37 584.81,-259.83 643.83,-213 648.69,-209.14 653.93,-205.74 659.43,-202.75"/>
<polygon fill="saddlebrown" stroke="saddlebrown" points="660.77,-205.98 668.22,-198.44 657.7,-199.7 660.77,-205.98"/>
</a>
</g>
</g>
<!-- (*github.com/guild&#45;framework/guild&#45;core/pkg/mcp/tools.MemoryRegistry).DeregisterTool&#45;&gt;(*github.com/guild&#45;framework/guild&#45;core/pkg/gerror.GuildError).WithOperation -->
<g id="edge18" class="edge">
<title>(*github.com/guild&#45;framework/guild&#45;core/pkg/mcp/tools.MemoryRegistry).DeregisterTool&#45;&gt;(*github.com/guild&#45;framework/guild&#45;core/pkg/gerror.GuildError).WithOperation</title>
<g id="a_edge18"><a xlink:title="at registry.go:126: calling [(*github.com/guild&#45;framework/guild&#45;core/pkg/gerror.GuildError).WithOperation]">
<path fill="none" stroke="saddlebrown" d="M548.36,-377.29C556.22,-374.1 563.79,-370.36 570.83,-366 615.2,-338.51 599.55,-301.64 643.83,-274 650.42,-269.89 657.49,-266.31 664.81,-263.21"/>
<polygon fill="saddlebrown" stroke="saddlebrown" points="665.85,-266.56 673.91,-259.68 663.32,-260.04 665.85,-266.56"/>
</a>
</g>
</g>
<!-- (*github.com/guild&#45;framework/guild&#45;core/pkg/mcp/tools.MemoryRegistry).DeregisterTool&#45;&gt;(*github.com/guild&#45;framework/guild&#45;core/pkg/gerror.GuildError).WithDetails -->
<g id="edge13" class="edge">
<title>(*github.com/guild&#45;framework/guild&#45;core/pkg/mcp/tools.MemoryRegistry).DeregisterTool&#45;&gt;(*github.com/guild&#45;framework/guild&#45;core/pkg/gerror.GuildError).WithDetails</title>
<g id="a_edge13"><a xlink:title="at registry.go:127: calling [(*github.com/guild&#45;framework/guild&#45;core/pkg/gerror.GuildError).WithDetails]">
<path fill="none" stroke="saddlebrown" d="M444.05,-414.47C475.5,-451.95 551.31,-530.12 607.83,-490 647.37,-461.93 606.57,-418.03 643.83,-387 653.11,-379.27 663.97,-373.68 675.46,-369.7"/>
<polygon fill="saddlebrown" stroke="saddlebrown" points="676.16,-373.15 684.73,-366.92 674.14,-366.45 676.16,-373.15"/>
</a>
</g>
</g>
<!-- (*github.com/guild&#45;framework/guild&#45;core/pkg/mcp/tools.MemoryRegistry).UpdateToolStatus -->
<g id="node7" class="node">
<title>(*github.com/guild&#45;framework/guild&#45;core/pkg/mcp/tools.MemoryRegistry).UpdateToolStatus</title>
<g id="a_node7"><a xlink:title="(*github.com/guild&#45;framework/guild&#45;core/pkg/mcp/tools.MemoryRegistry).UpdateToolStatus | defined in registry.go:244&#10;at registry.go:252: calling [(*github.com/guild&#45;framework/guild&#45;core/pkg/gerror.GuildError).WithDetails]&#10;at registry.go:249: calling [github.com/guild&#45;framework/guild&#45;core/pkg/gerror.New]&#10;at registry.go:251: calling [(*github.com/guild&#45;framework/guild&#45;core/pkg/gerror.GuildError).WithOperation]&#10;at registry.go:250: calling [(*github.com/guild&#45;framework/guild&#45;core/pkg/gerror.GuildError).WithComponent]">
<path fill="lightblue" stroke="black" stroke-width="1.5" d="M558.83,-170C558.83,-170 298.04,-170 298.04,-170 292.04,-170 286.04,-164 286.04,-158 286.04,-158 286.04,-146 286.04,-146 286.04,-140 292.04,-134 298.04,-134 298.04,-134 558.83,-134 558.83,-134 564.83,-134 570.83,-140 570.83,-146 570.83,-146 570.83,-158 570.83,-158 570.83,-164 564.83,-170 558.83,-170"/>
<text xml:space="preserve" text-anchor="middle" x="428.43" y="-147.32" font-family="Verdana" font-size="14.00">(*MemoryRegistry).UpdateToolStatus</text>
</a>
</g>
</g>
<!-- (*github.com/guild&#45;framework/guild&#45;core/pkg/mcp/tools.MemoryRegistry).UpdateToolStatus&#45;&gt;github.com/guild&#45;framework/guild&#45;core/pkg/gerror.New -->
<g id="edge9" class="edge">
<title>(*github.com/guild&#45;framework/guild&#45;core/pkg/mcp/tools.MemoryRegistry).UpdateToolStatus&#45;&gt;github.com/guild&#45;framework/guild&#45;core/pkg/gerror.New</title>
<g id="a_edge9"><a xlink:title="at registry.go:249: calling [github.com/guild&#45;framework/guild&#45;core/pkg/gerror.New]">
<path fill="none" stroke="saddlebrown" d="M545.84,-170.62C554.59,-174.08 563.04,-178.16 570.83,-183 614.89,-210.33 599.68,-246.82 643.83,-274 675.24,-293.34 717.19,-300.36 747.23,-302.83"/>
<polygon fill="saddlebrown" stroke="saddlebrown" points="746.78,-306.31 757,-303.49 747.26,-299.33 746.78,-306.31"/>
</a>
</g>
</g>
<!-- (*github.com/guild&#45;framework/guild&#45;core/pkg/mcp/tools.MemoryRegistry).UpdateToolStatus&#45;&gt;(*github.com/guild&#45;framework/guild&#45;core/pkg/gerror.GuildError).WithComponent -->
<g id="edge22" class="edge">
<title>(*github.com/guild&#45;framework/guild&#45;core/pkg/mcp/tools.MemoryRegistry).UpdateToolStatus&#45;&gt;(*github.com/guild&#45;framework/guild&#45;core/pkg/gerror.GuildError).WithComponent</title>
<g id="a_edge22"><a xlink:title="at registry.go:250: calling [(*github.com/guild&#45;framework/guild&#45;core/pkg/gerror.GuildError).WithComponent]">
<path fill="none" stroke="saddlebrown" d="M441.96,-133.48C469.63,-95.1 538.94,-12.43 607.83,-37 673.63,-60.47 732.63,-119.98 763.2,-155.03"/>
<polygon fill="saddlebrown" stroke="saddlebrown" points="760.2,-156.91 769.36,-162.23 765.52,-152.36 760.2,-156.91"/>
</a>
</g>
</g>
<!-- (*github.com/guild&#45;framework/guild&#45;core/pkg/mcp/tools.MemoryRegistry).UpdateToolStatus&#45;&gt;(*github.com/guild&#45;framework/guild&#45;core/pkg/gerror.GuildError).WithOperation -->
<g id="edge15" class="edge">
<title>(*github.com/guild&#45;framework/guild&#45;core/pkg/mcp/tools.MemoryRegistry).UpdateToolStatus&#45;&gt;(*github.com/guild&#45;framework/guild&#45;core/pkg/gerror.GuildError).WithOperation</title>
<g id="a_edge15"><a xlink:title="at registry.go:251: calling [(*github.com/guild&#45;framework/guild&#45;core/pkg/gerror.GuildError).WithOperation]">
<path fill="none" stroke="saddlebrown" d="M536.34,-170.72C560.31,-176.52 585.3,-183.86 607.83,-193 624.79,-199.88 626.69,-206.59 643.83,-213 651.93,-216.03 660.41,-218.79 669.02,-221.29"/>
<polygon fill="saddlebrown" stroke="saddlebrown" points="667.95,-224.63 678.52,-223.93 669.82,-217.88 667.95,-224.63"/>
</a>
</g>
</g>
<!-- (*github.com/guild&#45;framework/guild&#45;core/pkg/mcp/tools.MemoryRegistry).UpdateToolStatus&#45;&gt;(*github.com/guild&#45;framework/guild&#45;core/pkg/gerror.GuildError).WithDetails -->
<g id="edge1" class="edge">
<title>(*github.com/guild&#45;framework/guild&#45;core/pkg/mcp/tools.MemoryRegistry).UpdateToolStatus&#45;&gt;(*github.com/guild&#45;framework/guild&#45;core/pkg/gerror.GuildError).WithDetails</title>
<g id="a_edge1"><a xlink:title="at registry.go:252: calling [(*github.com/guild&#45;framework/guild&#45;core/pkg/gerror.GuildError).WithDetails]">
<path fill="none" stroke="saddlebrown" d="M551.3,-170.71C558.23,-174.18 564.82,-178.24 570.83,-183 629.6,-229.51 584.91,-288.69 643.83,-335 653.27,-342.42 664.12,-348.11 675.53,-352.47"/>
<polygon fill="saddlebrown" stroke="saddlebrown" points="674.11,-355.68 684.7,-355.61 676.38,-349.06 674.11,-355.68"/>
</a>
</g>
</g>
</g>
</svg>
