<?xml version="1.0" encoding="UTF-8" standalone="no"?>
<!DOCTYPE svg PUBLIC "-//W3C//DTD SVG 1.1//EN"
 "http://www.w3.org/Graphics/SVG/1.1/DTD/svg11.dtd">
<!-- Generated by graphviz version 14.1.1 (20251213.1925)
 -->
<!-- Title: gocallvis Pages: 1 -->
<svg width="945pt" height="603pt"
 viewBox="0.00 0.00 945.00 603.00" xmlns="http://www.w3.org/2000/svg" xmlns:xlink="http://www.w3.org/1999/xlink">
<g id="graph0" class="graph" transform="scale(1 1) rotate(0) translate(0 603)">
<title>gocallvis</title>
<polygon fill="lightgray" stroke="none" points="0,0 0,-603 944.62,-603 944.62,0 0,0"/>
<g id="clust1" class="cluster">
<title>cluster_focus</title>
<polygon fill="#e6ecfa" stroke="black" stroke-width="0.5" points="8,-8 8,-595 936.62,-595 936.62,-8 8,-8"/>
<text xml:space="preserve" text-anchor="middle" x="472.31" y="-573.9" font-family="Arial" font-size="18.00">tools</text>
</g>
<g id="clust2" class="cluster">
<title>cluster_github.com/guild&#45;framework/guild&#45;core/pkg/gerror</title>
<g id="a_clust2"><a xlink:href="/?f=github.com/guild-framework/guild-core/pkg/gerror" xlink:title="package: github.com/guild&#45;framework/guild&#45;core/pkg/gerror">
<polygon fill="lightyellow" stroke="black" stroke-width="0.8" points="662.08,-183 662.08,-446 910.37,-446 910.37,-183 662.08,-183"/>
<text xml:space="preserve" text-anchor="middle" x="786.23" y="-426.8" font-family="Tahoma bold" font-size="16.00">gerror</text>
</a>
</g>
</g>
<!-- (*github.com/guild&#45;framework/guild&#45;core/pkg/mcp/tools.MemoryRegistry).UpdateToolStatus -->
<g id="node1" class="node">
<title>(*github.com/guild&#45;framework/guild&#45;core/pkg/mcp/tools.MemoryRegistry).UpdateToolStatus</title>
<g id="a_node1"><a xlink:title="(*github.com/guild&#45;framework/guild&#45;core/pkg/mcp/tools.MemoryRegistry).UpdateToolStatus | defined in registry.go:244&#10;at registry.go:252: calling [(*github.com/guild&#45;framework/guild&#45;core/pkg/gerror.GuildError).WithDetails]&#10;at registry.go:250: calling [(*github.com/guild&#45;framework/guild&#45;core/pkg/gerror.GuildError).WithComponent]&#10;at registry.go:249: calling [github.com/guild&#45;framework/guild&#45;core/pkg/gerror.New]&#10;at registry.go:251: calling [(*github.com/guild&#45;framework/guild&#45;core/pkg/gerror.GuildError).WithOperation]">
<path fill="lightblue" stroke="black" stroke-width="1.5" d="M558.83,-257C558.83,-257 298.04,-257 298.04,-257 292.04,-257 286.04,-251 286.04,-245 286.04,-245 286.04,-233 286.04,-233 286.04,-227 292.04,-221 298.04,-221 298.04,-221 558.83,-221 558.83,-221 564.83,-221 570.83,-227 570.83,-233 570.83,-233 570.83,-245 570.83,-245 570.83,-251 564.83,-257 558.83,-257"/>
<text xml:space="preserve" text-anchor="middle" x="428.43" y="-234.32" font-family="Verdana" font-size="14.00">(*MemoryRegistry).UpdateToolStatus</text>
</a>
</g>
</g>
<!-- github.com/guild&#45;framework/guild&#45;core/pkg/gerror.New -->
<g id="node8" class="node">
<title>github.com/guild&#45;framework/guild&#45;core/pkg/gerror.New</title>
<g id="a_node8"><a xlink:title="github.com/guild&#45;framework/guild&#45;core/pkg/gerror.New | defined in errors.go:190">
<path fill="moccasin" stroke="black" stroke-width="1.5" d="M801.23,-349C801.23,-349 771.23,-349 771.23,-349 765.23,-349 759.23,-343 759.23,-337 759.23,-337 759.23,-325 759.23,-325 759.23,-319 765.23,-313 771.23,-313 771.23,-313 801.23,-313 801.23,-313 807.23,-313 813.23,-319 813.23,-325 813.23,-325 813.23,-337 813.23,-337 813.23,-343 807.23,-349 801.23,-349"/>
<text xml:space="preserve" text-anchor="middle" x="786.23" y="-326.32" font-family="Verdana" font-size="14.00">New</text>
</a>
</g>
</g>
<!-- (*github.com/guild&#45;framework/guild&#45;core/pkg/mcp/tools.MemoryRegistry).UpdateToolStatus&#45;&gt;github.com/guild&#45;framework/guild&#45;core/pkg/gerror.New -->
<g id="edge21" class="edge">
<title>(*github.com/guild&#45;framework/guild&#45;core/pkg/mcp/tools.MemoryRegistry).UpdateToolStatus&#45;&gt;github.com/guild&#45;framework/guild&#45;core/pkg/gerror.New</title>
<g id="a_edge21"><a xlink:title="at registry.go:249: calling [github.com/guild&#45;framework/guild&#45;core/pkg/gerror.New]">
<path fill="none" stroke="saddlebrown" d="M547.59,-257.69C555.76,-261.14 563.61,-265.21 570.83,-270 593.95,-285.34 582.56,-307.55 606.83,-321 650.47,-345.19 709.71,-342.93 747.7,-337.91"/>
<polygon fill="saddlebrown" stroke="saddlebrown" points="747.89,-341.42 757.28,-336.5 746.88,-334.49 747.89,-341.42"/>
</a>
</g>
</g>
<!-- (*github.com/guild&#45;framework/guild&#45;core/pkg/gerror.GuildError).WithComponent -->
<g id="node9" class="node">
<title>(*github.com/guild&#45;framework/guild&#45;core/pkg/gerror.GuildError).WithComponent</title>
<g id="a_node9"><a xlink:title="(*github.com/guild&#45;framework/guild&#45;core/pkg/gerror.GuildError).WithComponent | defined in errors.go:156">
<path fill="moccasin" stroke="black" stroke-width="1.5" d="M890.37,-227C890.37,-227 682.08,-227 682.08,-227 676.08,-227 670.08,-221 670.08,-215 670.08,-215 670.08,-203 670.08,-203 670.08,-197 676.08,-191 682.08,-191 682.08,-191 890.37,-191 890.37,-191 896.37,-191 902.37,-197 902.37,-203 902.37,-203 902.37,-215 902.37,-215 902.37,-221 896.37,-227 890.37,-227"/>
<text xml:space="preserve" text-anchor="middle" x="786.23" y="-204.32" font-family="Verdana" font-size="14.00">(*GuildError).WithComponent</text>
</a>
</g>
</g>
<!-- (*github.com/guild&#45;framework/guild&#45;core/pkg/mcp/tools.MemoryRegistry).UpdateToolStatus&#45;&gt;(*github.com/guild&#45;framework/guild&#45;core/pkg/gerror.GuildError).WithComponent -->
<g id="edge17" class="edge">
<title>(*github.com/guild&#45;framework/guild&#45;core/pkg/mcp/tools.MemoryRegistry).UpdateToolStatus&#45;&gt;(*github.com/guild&#45;framework/guild&#45;core/pkg/gerror.GuildError).WithComponent</title>
<g id="a_edge17"><a xlink:title="at registry.go:250: calling [(*github.com/guild&#45;framework/guild&#45;core/pkg/gerror.GuildError).WithComponent]">
<path fill="none" stroke="saddlebrown" d="M555.43,-220.35C560.93,-217.08 566.11,-213.32 570.83,-209 611.25,-171.95 562.76,-123.63 606.83,-91 643.58,-63.79 608.37,-158.13 643.83,-187 648.65,-190.92 653.87,-194.29 659.38,-197.17"/>
<polygon fill="saddlebrown" stroke="saddlebrown" points="657.64,-200.22 668.19,-201.21 660.56,-193.86 657.64,-200.22"/>
</a>
</g>
</g>
<!-- (*github.com/guild&#45;framework/guild&#45;core/pkg/gerror.GuildError).WithOperation -->
<g id="node10" class="node">
<title>(*github.com/guild&#45;framework/guild&#45;core/pkg/gerror.GuildError).WithOperation</title>
<g id="a_node10"><a xlink:title="(*github.com/guild&#45;framework/guild&#45;core/pkg/gerror.GuildError).WithOperation | defined in errors.go:162">
<path fill="moccasin" stroke="black" stroke-width="1.5" d="M884.75,-288C884.75,-288 687.71,-288 687.71,-288 681.71,-288 675.71,-282 675.71,-276 675.71,-276 675.71,-264 675.71,-264 675.71,-258 681.71,-252 687.71,-252 687.71,-252 884.75,-252 884.75,-252 890.75,-252 896.75,-258 896.75,-264 896.75,-264 896.75,-276 896.75,-276 896.75,-282 890.75,-288 884.75,-288"/>
<text xml:space="preserve" text-anchor="middle" x="786.23" y="-265.32" font-family="Verdana" font-size="14.00">(*GuildError).WithOperation</text>
</a>
</g>
</g>
<!-- (*github.com/guild&#45;framework/guild&#45;core/pkg/mcp/tools.MemoryRegistry).UpdateToolStatus&#45;&gt;(*github.com/guild&#45;framework/guild&#45;core/pkg/gerror.GuildError).WithOperation -->
<g id="edge22" class="edge">
<title>(*github.com/guild&#45;framework/guild&#45;core/pkg/mcp/tools.MemoryRegistry).UpdateToolStatus&#45;&gt;(*github.com/guild&#45;framework/guild&#45;core/pkg/gerror.GuildError).WithOperation</title>
<g id="a_edge22"><a xlink:title="at registry.go:251: calling [(*github.com/guild&#45;framework/guild&#45;core/pkg/gerror.GuildError).WithOperation]">
<path fill="none" stroke="saddlebrown" d="M571.19,-244.27C583.59,-245.06 595.94,-245.96 607.83,-247 625.98,-248.58 645.12,-250.64 663.86,-252.89"/>
<polygon fill="saddlebrown" stroke="saddlebrown" points="663.29,-256.34 673.64,-254.08 664.13,-249.39 663.29,-256.34"/>
</a>
</g>
</g>
<!-- (*github.com/guild&#45;framework/guild&#45;core/pkg/gerror.GuildError).WithDetails -->
<g id="node11" class="node">
<title>(*github.com/guild&#45;framework/guild&#45;core/pkg/gerror.GuildError).WithDetails</title>
<g id="a_node11"><a xlink:title="(*github.com/guild&#45;framework/guild&#45;core/pkg/gerror.GuildError).WithDetails | defined in errors.go:147">
<path fill="moccasin" stroke="black" stroke-width="1.5" d="M873.87,-410C873.87,-410 698.58,-410 698.58,-410 692.58,-410 686.58,-404 686.58,-398 686.58,-398 686.58,-386 686.58,-386 686.58,-380 692.58,-374 698.58,-374 698.58,-374 873.87,-374 873.87,-374 879.87,-374 885.87,-380 885.87,-386 885.87,-386 885.87,-398 885.87,-398 885.87,-404 879.87,-410 873.87,-410"/>
<text xml:space="preserve" text-anchor="middle" x="786.23" y="-387.32" font-family="Verdana" font-size="14.00">(*GuildError).WithDetails</text>
</a>
</g>
</g>
<!-- (*github.com/guild&#45;framework/guild&#45;core/pkg/mcp/tools.MemoryRegistry).UpdateToolStatus&#45;&gt;(*github.com/guild&#45;framework/guild&#45;core/pkg/gerror.GuildError).WithDetails -->
<g id="edge11" class="edge">
<title>(*github.com/guild&#45;framework/guild&#45;core/pkg/mcp/tools.MemoryRegistry).UpdateToolStatus&#45;&gt;(*github.com/guild&#45;framework/guild&#45;core/pkg/gerror.GuildError).WithDetails</title>
<g id="a_edge11"><a xlink:title="at registry.go:252: calling [(*github.com/guild&#45;framework/guild&#45;core/pkg/gerror.GuildError).WithDetails]">
<path fill="none" stroke="saddlebrown" d="M555.39,-257.58C560.98,-261.12 566.18,-265.23 570.83,-270 629.63,-330.27 541.88,-402.42 606.83,-456 651.36,-492.74 718.64,-449.07 756.57,-417.94"/>
<polygon fill="saddlebrown" stroke="saddlebrown" points="758.56,-420.84 763.95,-411.72 754.04,-415.49 758.56,-420.84"/>
</a>
</g>
</g>
<!-- (*github.com/guild&#45;framework/guild&#45;core/pkg/mcp/tools.MemoryRegistry).DeregisterTool -->
<g id="node2" class="node">
<title>(*github.com/guild&#45;framework/guild&#45;core/pkg/mcp/tools.MemoryRegistry).DeregisterTool</title>
<g id="a_node2"><a xlink:title="(*github.com/guild&#45;framework/guild&#45;core/pkg/mcp/tools.MemoryRegistry).DeregisterTool | defined in registry.go:118&#10;at registry.go:127: calling [(*github.com/guild&#45;framework/guild&#45;core/pkg/gerror.GuildError).WithDetails]&#10;at registry.go:124: calling [github.com/guild&#45;framework/guild&#45;core/pkg/gerror.New]&#10;at registry.go:125: calling [(*github.com/guild&#45;framework/guild&#45;core/pkg/gerror.GuildError).WithComponent]&#10;at registry.go:126: calling [(*github.com/guild&#45;framework/guild&#45;core/pkg/gerror.GuildError).WithOperation]&#10;at registry.go:137: calling [(*github.com/guild&#45;framework/guild&#45;core/pkg/mcp/tools.MemoryRegistry).removeFromSlice]">
<path fill="lightblue" stroke="black" stroke-width="1.5" d="M548.33,-196C548.33,-196 308.54,-196 308.54,-196 302.54,-196 296.54,-190 296.54,-184 296.54,-184 296.54,-172 296.54,-172 296.54,-166 302.54,-160 308.54,-160 308.54,-160 548.33,-160 548.33,-160 554.33,-160 560.33,-166 560.33,-172 560.33,-172 560.33,-184 560.33,-184 560.33,-190 554.33,-196 548.33,-196"/>
<text xml:space="preserve" text-anchor="middle" x="428.43" y="-173.32" font-family="Verdana" font-size="14.00">(*MemoryRegistry).DeregisterTool</text>
</a>
</g>
</g>
<!-- (*github.com/guild&#45;framework/guild&#45;core/pkg/mcp/tools.MemoryRegistry).removeFromSlice -->
<g id="node3" class="node">
<title>(*github.com/guild&#45;framework/guild&#45;core/pkg/mcp/tools.MemoryRegistry).removeFromSlice</title>
<g id="a_node3"><a xlink:title="(*github.com/guild&#45;framework/guild&#45;core/pkg/mcp/tools.MemoryRegistry).removeFromSlice | defined in registry.go:260">
<path fill="lightblue" stroke="black" stroke-width="0.5" d="M916.62,-52C916.62,-52 655.83,-52 655.83,-52 649.83,-52 643.83,-46 643.83,-40 643.83,-40 643.83,-28 643.83,-28 643.83,-22 649.83,-16 655.83,-16 655.83,-16 916.62,-16 916.62,-16 922.62,-16 928.62,-22 928.62,-28 928.62,-28 928.62,-40 928.62,-40 928.62,-46 922.62,-52 916.62,-52"/>
<text xml:space="preserve" text-anchor="middle" x="786.23" y="-29.32" font-family="Verdana" font-size="14.00">(*MemoryRegistry).removeFromSlice</text>
</a>
</g>
</g>
<!-- (*github.com/guild&#45;framework/guild&#45;core/pkg/mcp/tools.MemoryRegistry).DeregisterTool&#45;&gt;(*github.com/guild&#45;framework/guild&#45;core/pkg/mcp/tools.MemoryRegistry).removeFromSlice -->
<g id="edge13" class="edge">
<title>(*github.com/guild&#45;framework/guild&#45;core/pkg/mcp/tools.MemoryRegistry).DeregisterTool&#45;&gt;(*github.com/guild&#45;framework/guild&#45;core/pkg/mcp/tools.MemoryRegistry).removeFromSlice</title>
<g id="a_edge13"><a xlink:title="at registry.go:137: calling [(*github.com/guild&#45;framework/guild&#45;core/pkg/mcp/tools.MemoryRegistry).removeFromSlice]">
<path fill="none" stroke="black" d="M457.48,-159.29C491.52,-137.31 551.27,-101.07 606.83,-79 630.88,-69.45 657.57,-61.44 682.83,-54.94"/>
<polygon fill="black" stroke="black" points="683.61,-58.36 692.46,-52.53 681.91,-51.57 683.61,-58.36"/>
</a>
</g>
</g>
<!-- (*github.com/guild&#45;framework/guild&#45;core/pkg/mcp/tools.MemoryRegistry).DeregisterTool&#45;&gt;github.com/guild&#45;framework/guild&#45;core/pkg/gerror.New -->
<g id="edge6" class="edge">
<title>(*github.com/guild&#45;framework/guild&#45;core/pkg/mcp/tools.MemoryRegistry).DeregisterTool&#45;&gt;github.com/guild&#45;framework/guild&#45;core/pkg/gerror.New</title>
<g id="a_edge6"><a xlink:title="at registry.go:124: calling [github.com/guild&#45;framework/guild&#45;core/pkg/gerror.New]">
<path fill="none" stroke="saddlebrown" d="M546.22,-196.72C554.84,-200.15 563.15,-204.21 570.83,-209 615.11,-236.64 599.46,-273.51 643.83,-301 675.19,-320.42 717.15,-327.43 747.2,-329.88"/>
<polygon fill="saddlebrown" stroke="saddlebrown" points="746.77,-333.36 756.98,-330.53 747.23,-326.37 746.77,-333.36"/>
</a>
</g>
</g>
<!-- (*github.com/guild&#45;framework/guild&#45;core/pkg/mcp/tools.MemoryRegistry).DeregisterTool&#45;&gt;(*github.com/guild&#45;framework/guild&#45;core/pkg/gerror.GuildError).WithComponent -->
<g id="edge7" class="edge">
<title>(*github.com/guild&#45;framework/guild&#45;core/pkg/mcp/tools.MemoryRegistry).DeregisterTool&#45;&gt;(*github.com/guild&#45;framework/guild&#45;core/pkg/gerror.GuildError).WithComponent</title>
<g id="a_edge7"><a xlink:title="at registry.go:125: calling [(*github.com/guild&#45;framework/guild&#45;core/pkg/gerror.GuildError).WithComponent]">
<path fill="none" stroke="saddlebrown" d="M444.3,-159.41C475.91,-122.14 551.52,-45.16 607.83,-85 647.07,-112.77 606.84,-156.29 643.83,-187 648.61,-190.97 653.8,-194.37 659.28,-197.28"/>
<polygon fill="saddlebrown" stroke="saddlebrown" points="657.52,-200.32 668.06,-201.36 660.47,-193.97 657.52,-200.32"/>
</a>
</g>
</g>
<!-- (*github.com/guild&#45;framework/guild&#45;core/pkg/mcp/tools.MemoryRegistry).DeregisterTool&#45;&gt;(*github.com/guild&#45;framework/guild&#45;core/pkg/gerror.GuildError).WithOperation -->
<g id="edge12" class="edge">
<title>(*github.com/guild&#45;framework/guild&#45;core/pkg/mcp/tools.MemoryRegistry).DeregisterTool&#45;&gt;(*github.com/guild&#45;framework/guild&#45;core/pkg/gerror.GuildError).WithOperation</title>
<g id="a_edge12"><a xlink:title="at registry.go:126: calling [(*github.com/guild&#45;framework/guild&#45;core/pkg/gerror.GuildError).WithOperation]">
<path fill="none" stroke="saddlebrown" d="M526.29,-196.72C541.32,-200.35 556.58,-204.46 570.83,-209 604.41,-219.71 610.21,-229.4 643.83,-240 653.69,-243.11 664.04,-245.99 674.46,-248.64"/>
<polygon fill="saddlebrown" stroke="saddlebrown" points="673.31,-251.97 683.86,-250.96 674.99,-245.17 673.31,-251.97"/>
</a>
</g>
</g>
<!-- (*github.com/guild&#45;framework/guild&#45;core/pkg/mcp/tools.MemoryRegistry).DeregisterTool&#45;&gt;(*github.com/guild&#45;framework/guild&#45;core/pkg/gerror.GuildError).WithDetails -->
<g id="edge1" class="edge">
<title>(*github.com/guild&#45;framework/guild&#45;core/pkg/mcp/tools.MemoryRegistry).DeregisterTool&#45;&gt;(*github.com/guild&#45;framework/guild&#45;core/pkg/gerror.GuildError).WithDetails</title>
<g id="a_edge1"><a xlink:title="at registry.go:127: calling [(*github.com/guild&#45;framework/guild&#45;core/pkg/gerror.GuildError).WithDetails]">
<path fill="none" stroke="saddlebrown" d="M551.31,-196.7C558.24,-200.17 564.83,-204.24 570.83,-209 629.85,-255.83 584.65,-315.37 643.83,-362 653.26,-369.43 664.11,-375.13 675.51,-379.49"/>
<polygon fill="saddlebrown" stroke="saddlebrown" points="674.09,-382.7 684.68,-382.64 676.36,-376.08 674.09,-382.7"/>
</a>
</g>
</g>
<!-- (*github.com/guild&#45;framework/guild&#45;core/pkg/mcp/tools.BaseTool).Execute -->
<g id="node4" class="node">
<title>(*github.com/guild&#45;framework/guild&#45;core/pkg/mcp/tools.BaseTool).Execute</title>
<g id="a_node4"><a xlink:title="(*github.com/guild&#45;framework/guild&#45;core/pkg/mcp/tools.BaseTool).Execute | defined in registry.go:323&#10;at registry.go:325: calling [github.com/guild&#45;framework/guild&#45;core/pkg/gerror.New]&#10;at registry.go:335: calling [github.com/guild&#45;framework/guild&#45;core/pkg/gerror.New]&#10;at registry.go:328: calling [(*github.com/guild&#45;framework/guild&#45;core/pkg/gerror.GuildError).WithDetails]&#10;at registry.go:338: calling [(*github.com/guild&#45;framework/guild&#45;core/pkg/gerror.GuildError).WithDetails]&#10;at registry.go:339: calling [(*github.com/guild&#45;framework/guild&#45;core/pkg/gerror.GuildError).WithDetails]&#10;at registry.go:327: calling [(*github.com/guild&#45;framework/guild&#45;core/pkg/gerror.GuildError).WithOperation]&#10;at registry.go:337: calling [(*github.com/guild&#45;framework/guild&#45;core/pkg/gerror.GuildError).WithOperation]&#10;at registry.go:326: calling [(*github.com/guild&#45;framework/guild&#45;core/pkg/gerror.GuildError).WithComponent]&#10;at registry.go:336: calling [(*github.com/guild&#45;framework/guild&#45;core/pkg/gerror.GuildError).WithComponent]">
<path fill="lightblue" stroke="black" stroke-width="1.5" d="M498.83,-440C498.83,-440 358.04,-440 358.04,-440 352.04,-440 346.04,-434 346.04,-428 346.04,-428 346.04,-416 346.04,-416 346.04,-410 352.04,-404 358.04,-404 358.04,-404 498.83,-404 498.83,-404 504.83,-404 510.83,-410 510.83,-416 510.83,-416 510.83,-428 510.83,-428 510.83,-434 504.83,-440 498.83,-440"/>
<text xml:space="preserve" text-anchor="middle" x="428.43" y="-417.32" font-family="Verdana" font-size="14.00">(*BaseTool).Execute</text>
</a>
</g>
</g>
<!-- (*github.com/guild&#45;framework/guild&#45;core/pkg/mcp/tools.BaseTool).Execute&#45;&gt;github.com/guild&#45;framework/guild&#45;core/pkg/gerror.New -->
<g id="edge2" class="edge">
<title>(*github.com/guild&#45;framework/guild&#45;core/pkg/mcp/tools.BaseTool).Execute&#45;&gt;github.com/guild&#45;framework/guild&#45;core/pkg/gerror.New</title>
<g id="a_edge2"><a xlink:title="at registry.go:325: calling [github.com/guild&#45;framework/guild&#45;core/pkg/gerror.New]&#10;at registry.go:335: calling [github.com/guild&#45;framework/guild&#45;core/pkg/gerror.New]">
<path fill="none" stroke="saddlebrown" d="M511.48,-405.39C530.98,-401.22 551.68,-396.62 570.83,-392 587.39,-388.01 592.05,-388.41 607.83,-382 624.79,-375.12 626.71,-368.47 643.83,-362 677.71,-349.19 718.27,-340.98 747.24,-336.25"/>
<polygon fill="saddlebrown" stroke="saddlebrown" points="747.67,-339.72 757.01,-334.72 746.59,-332.81 747.67,-339.72"/>
</a>
</g>
</g>
<!-- (*github.com/guild&#45;framework/guild&#45;core/pkg/mcp/tools.BaseTool).Execute&#45;&gt;(*github.com/guild&#45;framework/guild&#45;core/pkg/gerror.GuildError).WithComponent -->
<g id="edge18" class="edge">
<title>(*github.com/guild&#45;framework/guild&#45;core/pkg/mcp/tools.BaseTool).Execute&#45;&gt;(*github.com/guild&#45;framework/guild&#45;core/pkg/gerror.GuildError).WithComponent</title>
<g id="a_edge18"><a xlink:title="at registry.go:326: calling [(*github.com/guild&#45;framework/guild&#45;core/pkg/gerror.GuildError).WithComponent]&#10;at registry.go:336: calling [(*github.com/guild&#45;framework/guild&#45;core/pkg/gerror.GuildError).WithComponent]">
<path fill="none" stroke="saddlebrown" d="M511.23,-417.52C532.34,-413.1 553.86,-405.33 570.83,-392 629.75,-345.69 585.06,-286.51 643.83,-240 648.7,-236.15 653.94,-232.75 659.44,-229.76"/>
<polygon fill="saddlebrown" stroke="saddlebrown" points="660.79,-233 668.23,-225.46 657.71,-226.71 660.79,-233"/>
</a>
</g>
</g>
<!-- (*github.com/guild&#45;framework/guild&#45;core/pkg/mcp/tools.BaseTool).Execute&#45;&gt;(*github.com/guild&#45;framework/guild&#45;core/pkg/gerror.GuildError).WithOperation -->
<g id="edge14" class="edge">
<title>(*github.com/guild&#45;framework/guild&#45;core/pkg/mcp/tools.BaseTool).Execute&#45;&gt;(*github.com/guild&#45;framework/guild&#45;core/pkg/gerror.GuildError).WithOperation</title>
<g id="a_edge14"><a xlink:title="at registry.go:327: calling [(*github.com/guild&#45;framework/guild&#45;core/pkg/gerror.GuildError).WithOperation]&#10;at registry.go:337: calling [(*github.com/guild&#45;framework/guild&#45;core/pkg/gerror.GuildError).WithOperation]">
<path fill="none" stroke="saddlebrown" d="M511.58,-414.38C532,-409.91 553.09,-402.92 570.83,-392 614.98,-364.82 599.77,-328.33 643.83,-301 650.29,-296.99 657.19,-293.5 664.35,-290.46"/>
<polygon fill="saddlebrown" stroke="saddlebrown" points="665.53,-293.75 673.58,-286.86 662.99,-287.23 665.53,-293.75"/>
</a>
</g>
</g>
<!-- (*github.com/guild&#45;framework/guild&#45;core/pkg/mcp/tools.BaseTool).Execute&#45;&gt;(*github.com/guild&#45;framework/guild&#45;core/pkg/gerror.GuildError).WithDetails -->
<g id="edge8" class="edge">
<title>(*github.com/guild&#45;framework/guild&#45;core/pkg/mcp/tools.BaseTool).Execute&#45;&gt;(*github.com/guild&#45;framework/guild&#45;core/pkg/gerror.GuildError).WithDetails</title>
<g id="a_edge8"><a xlink:title="at registry.go:328: calling [(*github.com/guild&#45;framework/guild&#45;core/pkg/gerror.GuildError).WithDetails]&#10;at registry.go:338: calling [(*github.com/guild&#45;framework/guild&#45;core/pkg/gerror.GuildError).WithDetails]&#10;at registry.go:339: calling [(*github.com/guild&#45;framework/guild&#45;core/pkg/gerror.GuildError).WithDetails]">
<path fill="none" stroke="saddlebrown" d="M441.96,-440.52C469.63,-478.9 538.94,-561.57 607.83,-537 673.63,-513.53 732.63,-454.02 763.2,-418.97"/>
<polygon fill="saddlebrown" stroke="saddlebrown" points="765.52,-421.64 769.36,-411.77 760.2,-417.09 765.52,-421.64"/>
</a>
</g>
</g>
<!-- (*github.com/guild&#45;framework/guild&#45;core/pkg/mcp/tools.MemoryRegistry).GetTool -->
<g id="node5" class="node">
<title>(*github.com/guild&#45;framework/guild&#45;core/pkg/mcp/tools.MemoryRegistry).GetTool</title>
<g id="a_node5"><a xlink:title="(*github.com/guild&#45;framework/guild&#45;core/pkg/mcp/tools.MemoryRegistry).GetTool | defined in registry.go:148&#10;at registry.go:156: calling [(*github.com/guild&#45;framework/guild&#45;core/pkg/gerror.GuildError).WithOperation]&#10;at registry.go:154: calling [github.com/guild&#45;framework/guild&#45;core/pkg/gerror.New]&#10;at registry.go:155: calling [(*github.com/guild&#45;framework/guild&#45;core/pkg/gerror.GuildError).WithComponent]&#10;at registry.go:157: calling [(*github.com/guild&#45;framework/guild&#45;core/pkg/gerror.GuildError).WithDetails]">
<path fill="lightblue" stroke="black" stroke-width="1.5" d="M523.95,-379C523.95,-379 332.91,-379 332.91,-379 326.91,-379 320.91,-373 320.91,-367 320.91,-367 320.91,-355 320.91,-355 320.91,-349 326.91,-343 332.91,-343 332.91,-343 523.95,-343 523.95,-343 529.95,-343 535.95,-349 535.95,-355 535.95,-355 535.95,-367 535.95,-367 535.95,-373 529.95,-379 523.95,-379"/>
<text xml:space="preserve" text-anchor="middle" x="428.43" y="-356.32" font-family="Verdana" font-size="14.00">(*MemoryRegistry).GetTool</text>
</a>
</g>
</g>
<!-- (*github.com/guild&#45;framework/guild&#45;core/pkg/mcp/tools.MemoryRegistry).GetTool&#45;&gt;github.com/guild&#45;framework/guild&#45;core/pkg/gerror.New -->
<g id="edge9" class="edge">
<title>(*github.com/guild&#45;framework/guild&#45;core/pkg/mcp/tools.MemoryRegistry).GetTool&#45;&gt;github.com/guild&#45;framework/guild&#45;core/pkg/gerror.New</title>
<g id="a_edge9"><a xlink:title="at registry.go:154: calling [github.com/guild&#45;framework/guild&#45;core/pkg/gerror.New]">
<path fill="none" stroke="saddlebrown" d="M536.45,-378.12C560.06,-379.48 584.88,-379.02 607.83,-375 624.59,-372.07 627.49,-366.72 643.83,-362 678.52,-351.98 718.82,-343.44 747.5,-337.88"/>
<polygon fill="saddlebrown" stroke="saddlebrown" points="747.99,-341.35 757.16,-336.03 746.68,-334.47 747.99,-341.35"/>
</a>
</g>
</g>
<!-- (*github.com/guild&#45;framework/guild&#45;core/pkg/mcp/tools.MemoryRegistry).GetTool&#45;&gt;(*github.com/guild&#45;framework/guild&#45;core/pkg/gerror.GuildError).WithComponent -->
<g id="edge15" class="edge">
<title>(*github.com/guild&#45;framework/guild&#45;core/pkg/mcp/tools.MemoryRegistry).GetTool&#45;&gt;(*github.com/guild&#45;framework/guild&#45;core/pkg/gerror.GuildError).WithComponent</title>
<g id="a_edge15"><a xlink:title="at registry.go:155: calling [(*github.com/guild&#45;framework/guild&#45;core/pkg/gerror.GuildError).WithComponent]">
<path fill="none" stroke="saddlebrown" d="M536.52,-352.63C549.33,-347.72 561.25,-340.76 570.83,-331 629.83,-270.93 541.88,-198.58 606.83,-145 626.02,-129.17 622.1,-174.89 643.83,-187 648.6,-189.66 653.59,-192.02 658.73,-194.12"/>
<polygon fill="saddlebrown" stroke="saddlebrown" points="657.45,-197.38 668.05,-197.54 659.87,-190.81 657.45,-197.38"/>
</a>
</g>
</g>
<!-- (*github.com/guild&#45;framework/guild&#45;core/pkg/mcp/tools.MemoryRegistry).GetTool&#45;&gt;(*github.com/guild&#45;framework/guild&#45;core/pkg/gerror.GuildError).WithOperation -->
<g id="edge3" class="edge">
<title>(*github.com/guild&#45;framework/guild&#45;core/pkg/mcp/tools.MemoryRegistry).GetTool&#45;&gt;(*github.com/guild&#45;framework/guild&#45;core/pkg/gerror.GuildError).WithOperation</title>
<g id="a_edge3"><a xlink:title="at registry.go:156: calling [(*github.com/guild&#45;framework/guild&#45;core/pkg/gerror.GuildError).WithOperation]">
<path fill="none" stroke="saddlebrown" d="M536.4,-347.4C548.57,-343.25 560.35,-337.9 570.83,-331 594,-315.73 582.56,-293.45 606.83,-280 624.15,-270.4 643.92,-264.97 663.85,-262.22"/>
<polygon fill="saddlebrown" stroke="saddlebrown" points="664.2,-265.7 673.74,-261.1 663.41,-258.75 664.2,-265.7"/>
</a>
</g>
</g>
<!-- (*github.com/guild&#45;framework/guild&#45;core/pkg/mcp/tools.MemoryRegistry).GetTool&#45;&gt;(*github.com/guild&#45;framework/guild&#45;core/pkg/gerror.GuildError).WithDetails -->
<g id="edge19" class="edge">
<title>(*github.com/guild&#45;framework/guild&#45;core/pkg/mcp/tools.MemoryRegistry).GetTool&#45;&gt;(*github.com/guild&#45;framework/guild&#45;core/pkg/gerror.GuildError).WithDetails</title>
<g id="a_edge19"><a xlink:title="at registry.go:157: calling [(*github.com/guild&#45;framework/guild&#45;core/pkg/gerror.GuildError).WithDetails]">
<path fill="none" stroke="saddlebrown" d="M536.69,-371.52C549.25,-376.35 561.04,-382.97 570.83,-392 611.13,-429.18 562.76,-477.37 606.83,-510 663.53,-551.98 734.32,-466.66 767.07,-419.87"/>
<polygon fill="saddlebrown" stroke="saddlebrown" points="769.84,-422.01 772.6,-411.78 764.07,-418.05 769.84,-422.01"/>
</a>
</g>
</g>
<!-- (*github.com/guild&#45;framework/guild&#45;core/pkg/mcp/tools.MemoryRegistry).RegisterTool -->
<g id="node6" class="node">
<title>(*github.com/guild&#45;framework/guild&#45;core/pkg/mcp/tools.MemoryRegistry).RegisterTool</title>
<g id="a_node6"><a xlink:title="(*github.com/guild&#45;framework/guild&#45;core/pkg/mcp/tools.MemoryRegistry).RegisterTool | defined in registry.go:87&#10;at registry.go:89: calling [github.com/guild&#45;framework/guild&#45;core/pkg/gerror.New]&#10;at registry.go:99: calling [github.com/guild&#45;framework/guild&#45;core/pkg/gerror.New]&#10;at registry.go:91: calling [(*github.com/guild&#45;framework/guild&#45;core/pkg/gerror.GuildError).WithOperation]&#10;at registry.go:101: calling [(*github.com/guild&#45;framework/guild&#45;core/pkg/gerror.GuildError).WithOperation]&#10;at registry.go:90: calling [(*github.com/guild&#45;framework/guild&#45;core/pkg/gerror.GuildError).WithComponent]&#10;at registry.go:100: calling [(*github.com/guild&#45;framework/guild&#45;core/pkg/gerror.GuildError).WithComponent]&#10;at registry.go:102: calling [(*github.com/guild&#45;framework/guild&#45;core/pkg/gerror.GuildError).WithDetails]">
<path fill="lightblue" stroke="black" stroke-width="1.5" d="M540.83,-318C540.83,-318 316.04,-318 316.04,-318 310.04,-318 304.04,-312 304.04,-306 304.04,-306 304.04,-294 304.04,-294 304.04,-288 310.04,-282 316.04,-282 316.04,-282 540.83,-282 540.83,-282 546.83,-282 552.83,-288 552.83,-294 552.83,-294 552.83,-306 552.83,-306 552.83,-312 546.83,-318 540.83,-318"/>
<text xml:space="preserve" text-anchor="middle" x="428.43" y="-295.32" font-family="Verdana" font-size="14.00">(*MemoryRegistry).RegisterTool</text>
</a>
</g>
</g>
<!-- (*github.com/guild&#45;framework/guild&#45;core/pkg/mcp/tools.MemoryRegistry).RegisterTool&#45;&gt;github.com/guild&#45;framework/guild&#45;core/pkg/gerror.New -->
<g id="edge4" class="edge">
<title>(*github.com/guild&#45;framework/guild&#45;core/pkg/mcp/tools.MemoryRegistry).RegisterTool&#45;&gt;github.com/guild&#45;framework/guild&#45;core/pkg/gerror.New</title>
<g id="a_edge4"><a xlink:title="at registry.go:89: calling [github.com/guild&#45;framework/guild&#45;core/pkg/gerror.New]&#10;at registry.go:99: calling [github.com/guild&#45;framework/guild&#45;core/pkg/gerror.New]">
<path fill="none" stroke="saddlebrown" d="M528.34,-318.7C542.74,-322.28 557.27,-326.38 570.83,-331 587.58,-336.71 589.56,-344.13 606.83,-348 654.63,-358.72 711.12,-349.82 747.52,-341.38"/>
<polygon fill="saddlebrown" stroke="saddlebrown" points="748.24,-344.81 757.13,-339.04 746.59,-338.01 748.24,-344.81"/>
</a>
</g>
</g>
<!-- (*github.com/guild&#45;framework/guild&#45;core/pkg/mcp/tools.MemoryRegistry).RegisterTool&#45;&gt;(*github.com/guild&#45;framework/guild&#45;core/pkg/gerror.GuildError).WithComponent -->
<g id="edge16" class="edge">
<title>(*github.com/guild&#45;framework/guild&#45;core/pkg/mcp/tools.MemoryRegistry).RegisterTool&#45;&gt;(*github.com/guild&#45;framework/guild&#45;core/pkg/gerror.GuildError).WithComponent</title>
<g id="a_edge16"><a xlink:title="at registry.go:90: calling [(*github.com/guild&#45;framework/guild&#45;core/pkg/gerror.GuildError).WithComponent]&#10;at registry.go:100: calling [(*github.com/guild&#45;framework/guild&#45;core/pkg/gerror.GuildError).WithComponent]">
<path fill="none" stroke="saddlebrown" d="M553.52,-283.06C559.78,-279.4 565.62,-275.09 570.83,-270 620.49,-221.49 552.38,-161.06 606.83,-118 634.12,-96.42 615.55,-166.72 643.83,-187 648.63,-190.44 653.75,-193.43 659.1,-196.03"/>
<polygon fill="saddlebrown" stroke="saddlebrown" points="657.69,-199.23 668.26,-199.95 660.44,-192.79 657.69,-199.23"/>
</a>
</g>
</g>
<!-- (*github.com/guild&#45;framework/guild&#45;core/pkg/mcp/tools.MemoryRegistry).RegisterTool&#45;&gt;(*github.com/guild&#45;framework/guild&#45;core/pkg/gerror.GuildError).WithOperation -->
<g id="edge10" class="edge">
<title>(*github.com/guild&#45;framework/guild&#45;core/pkg/mcp/tools.MemoryRegistry).RegisterTool&#45;&gt;(*github.com/guild&#45;framework/guild&#45;core/pkg/gerror.GuildError).WithOperation</title>
<g id="a_edge10"><a xlink:title="at registry.go:91: calling [(*github.com/guild&#45;framework/guild&#45;core/pkg/gerror.GuildError).WithOperation]&#10;at registry.go:101: calling [(*github.com/guild&#45;framework/guild&#45;core/pkg/gerror.GuildError).WithOperation]">
<path fill="none" stroke="saddlebrown" d="M531.38,-281.34C544.78,-278.02 558.23,-274.25 570.83,-270 587.6,-264.35 589.56,-256.87 606.83,-253 633.78,-246.96 663.49,-247.15 690.8,-249.98"/>
<polygon fill="saddlebrown" stroke="saddlebrown" points="690.1,-253.42 700.44,-251.11 690.92,-246.47 690.1,-253.42"/>
</a>
</g>
</g>
<!-- (*github.com/guild&#45;framework/guild&#45;core/pkg/mcp/tools.MemoryRegistry).RegisterTool&#45;&gt;(*github.com/guild&#45;framework/guild&#45;core/pkg/gerror.GuildError).WithDetails -->
<g id="edge20" class="edge">
<title>(*github.com/guild&#45;framework/guild&#45;core/pkg/mcp/tools.MemoryRegistry).RegisterTool&#45;&gt;(*github.com/guild&#45;framework/guild&#45;core/pkg/gerror.GuildError).WithDetails</title>
<g id="a_edge20"><a xlink:title="at registry.go:102: calling [(*github.com/guild&#45;framework/guild&#45;core/pkg/gerror.GuildError).WithDetails]">
<path fill="none" stroke="saddlebrown" d="M553.54,-317.84C559.8,-321.54 565.63,-325.89 570.83,-331 620.33,-379.68 552.38,-439.94 606.83,-483 657.03,-522.7 727.27,-458.26 762.78,-418.91"/>
<polygon fill="saddlebrown" stroke="saddlebrown" points="765.23,-421.42 769.22,-411.61 759.98,-416.8 765.23,-421.42"/>
</a>
</g>
</g>
<!-- (*github.com/guild&#45;framework/guild&#45;core/pkg/mcp/tools.BaseTool).HealthCheck -->
<g id="node7" class="node">
<title>(*github.com/guild&#45;framework/guild&#45;core/pkg/mcp/tools.BaseTool).HealthCheck</title>
<g id="a_node7"><a xlink:title="(*github.com/guild&#45;framework/guild&#45;core/pkg/mcp/tools.BaseTool).HealthCheck | defined in registry.go:348&#10;at registry.go:353: calling [(*github.com/guild&#45;framework/guild&#45;core/pkg/mcp/tools.BaseTool).Execute]">
<path fill="lightblue" stroke="black" stroke-width="1.5" d="M201.04,-440C201.04,-440 28,-440 28,-440 22,-440 16,-434 16,-428 16,-428 16,-416 16,-416 16,-410 22,-404 28,-404 28,-404 201.04,-404 201.04,-404 207.04,-404 213.04,-410 213.04,-416 213.04,-416 213.04,-428 213.04,-428 213.04,-434 207.04,-440 201.04,-440"/>
<text xml:space="preserve" text-anchor="middle" x="114.52" y="-417.32" font-family="Verdana" font-size="14.00">(*BaseTool).HealthCheck</text>
</a>
</g>
</g>
<!-- (*github.com/guild&#45;framework/guild&#45;core/pkg/mcp/tools.BaseTool).HealthCheck&#45;&gt;(*github.com/guild&#45;framework/guild&#45;core/pkg/mcp/tools.BaseTool).Execute -->
<g id="edge5" class="edge">
<title>(*github.com/guild&#45;framework/guild&#45;core/pkg/mcp/tools.BaseTool).HealthCheck&#45;&gt;(*github.com/guild&#45;framework/guild&#45;core/pkg/mcp/tools.BaseTool).Execute</title>
<g id="a_edge5"><a xlink:title="at registry.go:353: calling [(*github.com/guild&#45;framework/guild&#45;core/pkg/mcp/tools.BaseTool).Execute]">
<path fill="none" stroke="black" d="M213.78,-422C252.3,-422 296.29,-422 334.3,-422"/>
<polygon fill="black" stroke="black" points="333.85,-425.5 343.85,-422 333.85,-418.5 333.85,-425.5"/>
</a>
</g>
</g>
</g>
</svg>
