<?xml version="1.0" encoding="UTF-8" standalone="no"?>
<!DOCTYPE svg PUBLIC "-//W3C//DTD SVG 1.1//EN"
 "http://www.w3.org/Graphics/SVG/1.1/DTD/svg11.dtd">
<!-- Generated by graphviz version 14.1.1 (20251213.1925)
 -->
<!-- Title: gocallvis Pages: 1 -->
<svg width="852pt" height="341pt"
 viewBox="0.00 0.00 852.00 341.00" xmlns="http://www.w3.org/2000/svg" xmlns:xlink="http://www.w3.org/1999/xlink">
<g id="graph0" class="graph" transform="scale(1 1) rotate(0) translate(0 341)">
<title>gocallvis</title>
<polygon fill="lightgray" stroke="none" points="0,0 0,-341 851.62,-341 851.62,0 0,0"/>
<g id="clust1" class="cluster">
<title>cluster_focus</title>
<polygon fill="#e6ecfa" stroke="black" stroke-width="0.5" points="8,-8 8,-333 843.62,-333 843.62,-8 8,-8"/>
<text xml:space="preserve" text-anchor="middle" x="425.81" y="-311.9" font-family="Arial" font-size="18.00">hooks</text>
</g>
<!-- (*github.com/guild&#45;framework/guild&#45;core/pkg/logging/hooks.MetricsHook).emitLoop -->
<g id="node1" class="node">
<title>(*github.com/guild&#45;framework/guild&#45;core/pkg/logging/hooks.MetricsHook).emitLoop</title>
<g id="a_node1"><a xlink:title="(*github.com/guild&#45;framework/guild&#45;core/pkg/logging/hooks.MetricsHook).emitLoop | defined in metrics.go:95&#10;at metrics.go:102: calling [(*github.com/guild&#45;framework/guild&#45;core/pkg/logging/hooks.MetricsHook).emit]">
<path fill="lightblue" stroke="black" stroke-width="0.5" d="M553.2,-113C553.2,-113 378.66,-113 378.66,-113 372.66,-113 366.66,-107 366.66,-101 366.66,-101 366.66,-89 366.66,-89 366.66,-83 372.66,-77 378.66,-77 378.66,-77 553.2,-77 553.2,-77 559.2,-77 565.2,-83 565.2,-89 565.2,-89 565.2,-101 565.2,-101 565.2,-107 559.2,-113 553.2,-113"/>
<text xml:space="preserve" text-anchor="middle" x="465.93" y="-90.33" font-family="Verdana" font-size="14.00">(*MetricsHook).emitLoop</text>
</a>
</g>
</g>
<!-- (*github.com/guild&#45;framework/guild&#45;core/pkg/logging/hooks.MetricsHook).emit -->
<g id="node2" class="node">
<title>(*github.com/guild&#45;framework/guild&#45;core/pkg/logging/hooks.MetricsHook).emit</title>
<g id="a_node2"><a xlink:title="(*github.com/guild&#45;framework/guild&#45;core/pkg/logging/hooks.MetricsHook).emit | defined in metrics.go:110">
<path fill="lightblue" stroke="black" stroke-width="0.5" d="M823.62,-113C823.62,-113 682.08,-113 682.08,-113 676.08,-113 670.08,-107 670.08,-101 670.08,-101 670.08,-89 670.08,-89 670.08,-83 676.08,-77 682.08,-77 682.08,-77 823.62,-77 823.62,-77 829.62,-77 835.62,-83 835.62,-89 835.62,-89 835.62,-101 835.62,-101 835.62,-107 829.62,-113 823.62,-113"/>
<text xml:space="preserve" text-anchor="middle" x="752.85" y="-90.33" font-family="Verdana" font-size="14.00">(*MetricsHook).emit</text>
</a>
</g>
</g>
<!-- (*github.com/guild&#45;framework/guild&#45;core/pkg/logging/hooks.MetricsHook).emitLoop&#45;&gt;(*github.com/guild&#45;framework/guild&#45;core/pkg/logging/hooks.MetricsHook).emit -->
<g id="edge3" class="edge">
<title>(*github.com/guild&#45;framework/guild&#45;core/pkg/logging/hooks.MetricsHook).emitLoop&#45;&gt;(*github.com/guild&#45;framework/guild&#45;core/pkg/logging/hooks.MetricsHook).emit</title>
<g id="a_edge3"><a xlink:title="at metrics.go:102: calling [(*github.com/guild&#45;framework/guild&#45;core/pkg/logging/hooks.MetricsHook).emit]">
<path fill="none" stroke="black" d="M565.39,-95C595.62,-95 628.79,-95 658.66,-95"/>
<polygon fill="black" stroke="black" points="658.43,-98.5 668.43,-95 658.43,-91.5 658.43,-98.5"/>
</a>
</g>
</g>
<!-- (*github.com/guild&#45;framework/guild&#45;core/pkg/logging/hooks.SensitiveDataHook).Process -->
<g id="node3" class="node">
<title>(*github.com/guild&#45;framework/guild&#45;core/pkg/logging/hooks.SensitiveDataHook).Process</title>
<g id="a_node3"><a xlink:title="(*github.com/guild&#45;framework/guild&#45;core/pkg/logging/hooks.SensitiveDataHook).Process | defined in sensitive.go:120&#10;at sensitive.go:125: calling [(*github.com/guild&#45;framework/guild&#45;core/pkg/logging/hooks.SensitiveDataHook).scrubString]">
<path fill="lightblue" stroke="black" stroke-width="1.5" d="M243.79,-174C243.79,-174 34,-174 34,-174 28,-174 22,-168 22,-162 22,-162 22,-150 22,-150 22,-144 28,-138 34,-138 34,-138 243.79,-138 243.79,-138 249.79,-138 255.79,-144 255.79,-150 255.79,-150 255.79,-162 255.79,-162 255.79,-168 249.79,-174 243.79,-174"/>
<text xml:space="preserve" text-anchor="middle" x="138.89" y="-151.32" font-family="Verdana" font-size="14.00">(*SensitiveDataHook).Process</text>
</a>
</g>
</g>
<!-- (*github.com/guild&#45;framework/guild&#45;core/pkg/logging/hooks.SensitiveDataHook).scrubString -->
<g id="node4" class="node">
<title>(*github.com/guild&#45;framework/guild&#45;core/pkg/logging/hooks.SensitiveDataHook).scrubString</title>
<g id="a_node4"><a xlink:title="(*github.com/guild&#45;framework/guild&#45;core/pkg/logging/hooks.SensitiveDataHook).scrubString | defined in sensitive.go:177">
<path fill="lightblue" stroke="black" stroke-width="0.5" d="M585.08,-174C585.08,-174 346.79,-174 346.79,-174 340.79,-174 334.79,-168 334.79,-162 334.79,-162 334.79,-150 334.79,-150 334.79,-144 340.79,-138 346.79,-138 346.79,-138 585.08,-138 585.08,-138 591.08,-138 597.08,-144 597.08,-150 597.08,-150 597.08,-162 597.08,-162 597.08,-168 591.08,-174 585.08,-174"/>
<text xml:space="preserve" text-anchor="middle" x="465.93" y="-151.32" font-family="Verdana" font-size="14.00">(*SensitiveDataHook).scrubString</text>
</a>
</g>
</g>
<!-- (*github.com/guild&#45;framework/guild&#45;core/pkg/logging/hooks.SensitiveDataHook).Process&#45;&gt;(*github.com/guild&#45;framework/guild&#45;core/pkg/logging/hooks.SensitiveDataHook).scrubString -->
<g id="edge4" class="edge">
<title>(*github.com/guild&#45;framework/guild&#45;core/pkg/logging/hooks.SensitiveDataHook).Process&#45;&gt;(*github.com/guild&#45;framework/guild&#45;core/pkg/logging/hooks.SensitiveDataHook).scrubString</title>
<g id="a_edge4"><a xlink:title="at sensitive.go:125: calling [(*github.com/guild&#45;framework/guild&#45;core/pkg/logging/hooks.SensitiveDataHook).scrubString]">
<path fill="none" stroke="black" d="M256.32,-156C278.06,-156 301,-156 323.4,-156"/>
<polygon fill="black" stroke="black" points="323.18,-159.5 333.18,-156 323.18,-152.5 323.18,-159.5"/>
</a>
</g>
</g>
<!-- (*github.com/guild&#45;framework/guild&#45;core/pkg/logging/hooks.ErrorHook).Process -->
<g id="node5" class="node">
<title>(*github.com/guild&#45;framework/guild&#45;core/pkg/logging/hooks.ErrorHook).Process</title>
<g id="a_node5"><a xlink:title="(*github.com/guild&#45;framework/guild&#45;core/pkg/logging/hooks.ErrorHook).Process | defined in error.go:41&#10;at error.go:83: calling [(*github.com/guild&#45;framework/guild&#45;core/pkg/logging/hooks.ErrorHook).captureStackTrace]">
<path fill="lightblue" stroke="black" stroke-width="1.5" d="M213.41,-52C213.41,-52 64.37,-52 64.37,-52 58.37,-52 52.37,-46 52.37,-40 52.37,-40 52.37,-28 52.37,-28 52.37,-22 58.37,-16 64.37,-16 64.37,-16 213.41,-16 213.41,-16 219.41,-16 225.41,-22 225.41,-28 225.41,-28 225.41,-40 225.41,-40 225.41,-46 219.41,-52 213.41,-52"/>
<text xml:space="preserve" text-anchor="middle" x="138.89" y="-29.32" font-family="Verdana" font-size="14.00">(*ErrorHook).Process</text>
</a>
</g>
</g>
<!-- (*github.com/guild&#45;framework/guild&#45;core/pkg/logging/hooks.ErrorHook).captureStackTrace -->
<g id="node6" class="node">
<title>(*github.com/guild&#45;framework/guild&#45;core/pkg/logging/hooks.ErrorHook).captureStackTrace</title>
<g id="a_node6"><a xlink:title="(*github.com/guild&#45;framework/guild&#45;core/pkg/logging/hooks.ErrorHook).captureStackTrace | defined in error.go:188">
<path fill="lightblue" stroke="black" stroke-width="0.5" d="M578.7,-52C578.7,-52 353.16,-52 353.16,-52 347.16,-52 341.16,-46 341.16,-40 341.16,-40 341.16,-28 341.16,-28 341.16,-22 347.16,-16 353.16,-16 353.16,-16 578.7,-16 578.7,-16 584.7,-16 590.7,-22 590.7,-28 590.7,-28 590.7,-40 590.7,-40 590.7,-46 584.7,-52 578.7,-52"/>
<text xml:space="preserve" text-anchor="middle" x="465.93" y="-29.32" font-family="Verdana" font-size="14.00">(*ErrorHook).captureStackTrace</text>
</a>
</g>
</g>
<!-- (*github.com/guild&#45;framework/guild&#45;core/pkg/logging/hooks.ErrorHook).Process&#45;&gt;(*github.com/guild&#45;framework/guild&#45;core/pkg/logging/hooks.ErrorHook).captureStackTrace -->
<g id="edge5" class="edge">
<title>(*github.com/guild&#45;framework/guild&#45;core/pkg/logging/hooks.ErrorHook).Process&#45;&gt;(*github.com/guild&#45;framework/guild&#45;core/pkg/logging/hooks.ErrorHook).captureStackTrace</title>
<g id="a_edge5"><a xlink:title="at error.go:83: calling [(*github.com/guild&#45;framework/guild&#45;core/pkg/logging/hooks.ErrorHook).captureStackTrace]">
<path fill="none" stroke="black" d="M226.15,-34C257.88,-34 294.64,-34 329.65,-34"/>
<polygon fill="black" stroke="black" points="329.44,-37.5 339.44,-34 329.44,-30.5 329.44,-37.5"/>
</a>
</g>
</g>
<!-- github.com/guild&#45;framework/guild&#45;core/pkg/logging/hooks.NewMetricsHook -->
<g id="node7" class="node">
<title>github.com/guild&#45;framework/guild&#45;core/pkg/logging/hooks.NewMetricsHook</title>
<g id="a_node7"><a xlink:title="github.com/guild&#45;framework/guild&#45;core/pkg/logging/hooks.NewMetricsHook | defined in metrics.go:27&#10;at metrics.go:37: calling [(*github.com/guild&#45;framework/guild&#45;core/pkg/logging/hooks.MetricsHook).emitLoop]">
<path fill="lightblue" stroke="black" stroke-width="1.5" d="M196.16,-113C196.16,-113 81.62,-113 81.62,-113 75.62,-113 69.62,-107 69.62,-101 69.62,-101 69.62,-89 69.62,-89 69.62,-83 75.62,-77 81.62,-77 81.62,-77 196.16,-77 196.16,-77 202.16,-77 208.16,-83 208.16,-89 208.16,-89 208.16,-101 208.16,-101 208.16,-107 202.16,-113 196.16,-113"/>
<text xml:space="preserve" text-anchor="middle" x="138.89" y="-90.33" font-family="Verdana" font-size="14.00">NewMetricsHook</text>
</a>
</g>
</g>
<!-- github.com/guild&#45;framework/guild&#45;core/pkg/logging/hooks.NewMetricsHook&#45;&gt;(*github.com/guild&#45;framework/guild&#45;core/pkg/logging/hooks.MetricsHook).emitLoop -->
<g id="edge6" class="edge">
<title>github.com/guild&#45;framework/guild&#45;core/pkg/logging/hooks.NewMetricsHook&#45;&gt;(*github.com/guild&#45;framework/guild&#45;core/pkg/logging/hooks.MetricsHook).emitLoop</title>
<g id="a_edge6"><a xlink:title="at metrics.go:37: calling [(*github.com/guild&#45;framework/guild&#45;core/pkg/logging/hooks.MetricsHook).emitLoop]">
<path fill="none" stroke="black" d="M208.83,-95C247.24,-95 296.23,-95 341.06,-95"/>
<polygon fill="black" stroke="black" points="354.99,-98.5 364.99,-95 354.99,-91.5 354.99,-98.5"/>
<polyline fill="none" stroke="black" points="354.49,-95 349.49,-95"/>
<ellipse fill="none" stroke="black" cx="344.99" cy="-95" rx="4" ry="4"/>
</a>
</g>
</g>
<!-- (*github.com/guild&#45;framework/guild&#45;core/pkg/logging/hooks.SensitiveDataHook).scrubAttr -->
<g id="node8" class="node">
<title>(*github.com/guild&#45;framework/guild&#45;core/pkg/logging/hooks.SensitiveDataHook).scrubAttr</title>
<g id="a_node8"><a xlink:title="(*github.com/guild&#45;framework/guild&#45;core/pkg/logging/hooks.SensitiveDataHook).scrubAttr | defined in sensitive.go:186&#10;at sensitive.go:203: calling [github.com/guild&#45;framework/guild&#45;core/pkg/logging/hooks.attributesEqual]&#10;at sensitive.go:208: calling [github.com/guild&#45;framework/guild&#45;core/pkg/logging/hooks.attrsToAny]&#10;at sensitive.go:188: calling [(*github.com/guild&#45;framework/guild&#45;core/pkg/logging/hooks.SensitiveDataHook).scrubString]&#10;at sensitive.go:193: calling [(*github.com/guild&#45;framework/guild&#45;core/pkg/logging/hooks.SensitiveDataHook).scrubString]&#10;at sensitive.go:213: calling [(*github.com/guild&#45;framework/guild&#45;core/pkg/logging/hooks.SensitiveDataHook).scrubString]&#10;at sensitive.go:202: calling [(*github.com/guild&#45;framework/guild&#45;core/pkg/logging/hooks.SensitiveDataHook).scrubAttr]">
<path fill="lightblue" stroke="black" stroke-width="0.5" d="M249.79,-235C249.79,-235 28,-235 28,-235 22,-235 16,-229 16,-223 16,-223 16,-211 16,-211 16,-205 22,-199 28,-199 28,-199 249.79,-199 249.79,-199 255.79,-199 261.79,-205 261.79,-211 261.79,-211 261.79,-223 261.79,-223 261.79,-229 255.79,-235 249.79,-235"/>
<text xml:space="preserve" text-anchor="middle" x="138.89" y="-212.32" font-family="Verdana" font-size="14.00">(*SensitiveDataHook).scrubAttr</text>
</a>
</g>
</g>
<!-- (*github.com/guild&#45;framework/guild&#45;core/pkg/logging/hooks.SensitiveDataHook).scrubAttr&#45;&gt;(*github.com/guild&#45;framework/guild&#45;core/pkg/logging/hooks.SensitiveDataHook).scrubString -->
<g id="edge7" class="edge">
<title>(*github.com/guild&#45;framework/guild&#45;core/pkg/logging/hooks.SensitiveDataHook).scrubAttr&#45;&gt;(*github.com/guild&#45;framework/guild&#45;core/pkg/logging/hooks.SensitiveDataHook).scrubString</title>
<g id="a_edge7"><a xlink:title="at sensitive.go:188: calling [(*github.com/guild&#45;framework/guild&#45;core/pkg/logging/hooks.SensitiveDataHook).scrubString]&#10;at sensitive.go:193: calling [(*github.com/guild&#45;framework/guild&#45;core/pkg/logging/hooks.SensitiveDataHook).scrubString]&#10;at sensitive.go:213: calling [(*github.com/guild&#45;framework/guild&#45;core/pkg/logging/hooks.SensitiveDataHook).scrubString]">
<path fill="none" stroke="black" d="M236.98,-198.78C274.6,-191.72 317.85,-183.6 356.49,-176.35"/>
<polygon fill="black" stroke="black" points="357.12,-179.79 366.3,-174.51 355.83,-172.91 357.12,-179.79"/>
</a>
</g>
</g>
<!-- (*github.com/guild&#45;framework/guild&#45;core/pkg/logging/hooks.SensitiveDataHook).scrubAttr&#45;&gt;(*github.com/guild&#45;framework/guild&#45;core/pkg/logging/hooks.SensitiveDataHook).scrubAttr -->
<g id="edge8" class="edge">
<title>(*github.com/guild&#45;framework/guild&#45;core/pkg/logging/hooks.SensitiveDataHook).scrubAttr&#45;&gt;(*github.com/guild&#45;framework/guild&#45;core/pkg/logging/hooks.SensitiveDataHook).scrubAttr</title>
<g id="a_edge8"><a xlink:title="at sensitive.go:202: calling [(*github.com/guild&#45;framework/guild&#45;core/pkg/logging/hooks.SensitiveDataHook).scrubAttr]">
<path fill="none" stroke="black" d="M111.93,-235.12C103.75,-247.65 112.74,-260 138.89,-260 157.08,-260 166.96,-254.03 168.55,-246.18"/>
<polygon fill="black" stroke="black" points="171.98,-245.48 166.22,-236.59 165.18,-247.13 171.98,-245.48"/>
</a>
</g>
</g>
<!-- github.com/guild&#45;framework/guild&#45;core/pkg/logging/hooks.attributesEqual -->
<g id="node9" class="node">
<title>github.com/guild&#45;framework/guild&#45;core/pkg/logging/hooks.attributesEqual</title>
<g id="a_node9"><a xlink:title="github.com/guild&#45;framework/guild&#45;core/pkg/logging/hooks.attributesEqual | defined in sensitive.go:228">
<path fill="lightblue" stroke="black" stroke-width="0.5" d="M518.7,-235C518.7,-235 413.16,-235 413.16,-235 407.16,-235 401.16,-229 401.16,-223 401.16,-223 401.16,-211 401.16,-211 401.16,-205 407.16,-199 413.16,-199 413.16,-199 518.7,-199 518.7,-199 524.7,-199 530.7,-205 530.7,-211 530.7,-211 530.7,-223 530.7,-223 530.7,-229 524.7,-235 518.7,-235"/>
<text xml:space="preserve" text-anchor="middle" x="465.93" y="-212.32" font-family="Verdana" font-size="14.00">attributesEqual</text>
</a>
</g>
</g>
<!-- (*github.com/guild&#45;framework/guild&#45;core/pkg/logging/hooks.SensitiveDataHook).scrubAttr&#45;&gt;github.com/guild&#45;framework/guild&#45;core/pkg/logging/hooks.attributesEqual -->
<g id="edge1" class="edge">
<title>(*github.com/guild&#45;framework/guild&#45;core/pkg/logging/hooks.SensitiveDataHook).scrubAttr&#45;&gt;github.com/guild&#45;framework/guild&#45;core/pkg/logging/hooks.attributesEqual</title>
<g id="a_edge1"><a xlink:title="at sensitive.go:203: calling [github.com/guild&#45;framework/guild&#45;core/pkg/logging/hooks.attributesEqual]">
<path fill="none" stroke="black" d="M261.85,-217C304.79,-217 351.76,-217 389.7,-217"/>
<polygon fill="black" stroke="black" points="389.66,-220.5 399.66,-217 389.66,-213.5 389.66,-220.5"/>
</a>
</g>
</g>
<!-- github.com/guild&#45;framework/guild&#45;core/pkg/logging/hooks.attrsToAny -->
<g id="node10" class="node">
<title>github.com/guild&#45;framework/guild&#45;core/pkg/logging/hooks.attrsToAny</title>
<g id="a_node10"><a xlink:title="github.com/guild&#45;framework/guild&#45;core/pkg/logging/hooks.attrsToAny | defined in sensitive.go:236">
<path fill="lightblue" stroke="black" stroke-width="0.5" d="M502.95,-296C502.95,-296 428.91,-296 428.91,-296 422.91,-296 416.91,-290 416.91,-284 416.91,-284 416.91,-272 416.91,-272 416.91,-266 422.91,-260 428.91,-260 428.91,-260 502.95,-260 502.95,-260 508.95,-260 514.95,-266 514.95,-272 514.95,-272 514.95,-284 514.95,-284 514.95,-290 508.95,-296 502.95,-296"/>
<text xml:space="preserve" text-anchor="middle" x="465.93" y="-273.32" font-family="Verdana" font-size="14.00">attrsToAny</text>
</a>
</g>
</g>
<!-- (*github.com/guild&#45;framework/guild&#45;core/pkg/logging/hooks.SensitiveDataHook).scrubAttr&#45;&gt;github.com/guild&#45;framework/guild&#45;core/pkg/logging/hooks.attrsToAny -->
<g id="edge2" class="edge">
<title>(*github.com/guild&#45;framework/guild&#45;core/pkg/logging/hooks.SensitiveDataHook).scrubAttr&#45;&gt;github.com/guild&#45;framework/guild&#45;core/pkg/logging/hooks.attrsToAny</title>
<g id="a_edge2"><a xlink:title="at sensitive.go:208: calling [github.com/guild&#45;framework/guild&#45;core/pkg/logging/hooks.attrsToAny]">
<path fill="none" stroke="black" d="M236.98,-235.22C291.76,-245.5 358.45,-258.02 405.51,-266.85"/>
<polygon fill="black" stroke="black" points="404.77,-270.27 415.24,-268.67 406.06,-263.39 404.77,-270.27"/>
</a>
</g>
</g>
</g>
</svg>
