<?xml version="1.0" encoding="UTF-8" standalone="no"?>
<!DOCTYPE svg PUBLIC "-//W3C//DTD SVG 1.1//EN"
 "http://www.w3.org/Graphics/SVG/1.1/DTD/svg11.dtd">
<!-- Generated by graphviz version 14.1.1 (20251213.1925)
 -->
<!-- Title: gocallvis Pages: 1 -->
<svg width="834pt" height="402pt"
 viewBox="0.00 0.00 834.00 402.00" xmlns="http://www.w3.org/2000/svg" xmlns:xlink="http://www.w3.org/1999/xlink">
<g id="graph0" class="graph" transform="scale(1 1) rotate(0) translate(0 402)">
<title>gocallvis</title>
<polygon fill="lightgray" stroke="none" points="0,0 0,-402 833.87,-402 833.87,0 0,0"/>
<g id="clust1" class="cluster">
<title>cluster_focus</title>
<polygon fill="#e6ecfa" stroke="black" stroke-width="0.5" points="8,-8 8,-394 825.87,-394 825.87,-8 8,-8"/>
<text xml:space="preserve" text-anchor="middle" x="416.93" y="-372.9" font-family="Arial" font-size="18.00">gerror</text>
</g>
<!-- github.com/guild&#45;framework/guild&#45;core/pkg/gerror.New -->
<g id="node1" class="node">
<title>github.com/guild&#45;framework/guild&#45;core/pkg/gerror.New</title>
<g id="a_node1"><a xlink:title="github.com/guild&#45;framework/guild&#45;core/pkg/gerror.New | defined in errors.go:190&#10;at errors.go:196: calling [github.com/guild&#45;framework/guild&#45;core/pkg/gerror.captureStack]">
<path fill="lightblue" stroke="black" stroke-width="1.5" d="M617.58,-235C617.58,-235 587.58,-235 587.58,-235 581.58,-235 575.58,-229 575.58,-223 575.58,-223 575.58,-211 575.58,-211 575.58,-205 581.58,-199 587.58,-199 587.58,-199 617.58,-199 617.58,-199 623.58,-199 629.58,-205 629.58,-211 629.58,-211 629.58,-223 629.58,-223 629.58,-229 623.58,-235 617.58,-235"/>
<text xml:space="preserve" text-anchor="middle" x="602.58" y="-212.32" font-family="Verdana" font-size="14.00">New</text>
</a>
</g>
</g>
<!-- github.com/guild&#45;framework/guild&#45;core/pkg/gerror.captureStack -->
<g id="node2" class="node">
<title>github.com/guild&#45;framework/guild&#45;core/pkg/gerror.captureStack</title>
<g id="a_node2"><a xlink:title="github.com/guild&#45;framework/guild&#45;core/pkg/gerror.captureStack | defined in errors.go:261">
<path fill="lightblue" stroke="black" stroke-width="0.5" d="M805.87,-235C805.87,-235 714.58,-235 714.58,-235 708.58,-235 702.58,-229 702.58,-223 702.58,-223 702.58,-211 702.58,-211 702.58,-205 708.58,-199 714.58,-199 714.58,-199 805.87,-199 805.87,-199 811.87,-199 817.87,-205 817.87,-211 817.87,-211 817.87,-223 817.87,-223 817.87,-229 811.87,-235 805.87,-235"/>
<text xml:space="preserve" text-anchor="middle" x="760.22" y="-212.32" font-family="Verdana" font-size="14.00">captureStack</text>
</a>
</g>
</g>
<!-- github.com/guild&#45;framework/guild&#45;core/pkg/gerror.New&#45;&gt;github.com/guild&#45;framework/guild&#45;core/pkg/gerror.captureStack -->
<g id="edge8" class="edge">
<title>github.com/guild&#45;framework/guild&#45;core/pkg/gerror.New&#45;&gt;github.com/guild&#45;framework/guild&#45;core/pkg/gerror.captureStack</title>
<g id="a_edge8"><a xlink:title="at errors.go:196: calling [github.com/guild&#45;framework/guild&#45;core/pkg/gerror.captureStack]">
<path fill="none" stroke="black" d="M629.98,-217C646.9,-217 669.67,-217 691.4,-217"/>
<polygon fill="black" stroke="black" points="691.11,-220.5 701.11,-217 691.11,-213.5 691.11,-220.5"/>
</a>
</g>
</g>
<!-- github.com/guild&#45;framework/guild&#45;core/pkg/gerror.Wrap -->
<g id="node3" class="node">
<title>github.com/guild&#45;framework/guild&#45;core/pkg/gerror.Wrap</title>
<g id="a_node3"><a xlink:title="github.com/guild&#45;framework/guild&#45;core/pkg/gerror.Wrap | defined in errors.go:223&#10;at errors.go:230: calling [github.com/guild&#45;framework/guild&#45;core/pkg/gerror.New]&#10;at errors.go:241: calling [github.com/guild&#45;framework/guild&#45;core/pkg/gerror.New]">
<path fill="lightblue" stroke="black" stroke-width="1.5" d="M420.08,-235C420.08,-235 384.29,-235 384.29,-235 378.29,-235 372.29,-229 372.29,-223 372.29,-223 372.29,-211 372.29,-211 372.29,-205 378.29,-199 384.29,-199 384.29,-199 420.08,-199 420.08,-199 426.08,-199 432.08,-205 432.08,-211 432.08,-211 432.08,-223 432.08,-223 432.08,-229 426.08,-235 420.08,-235"/>
<text xml:space="preserve" text-anchor="middle" x="402.18" y="-212.32" font-family="Verdana" font-size="14.00">Wrap</text>
</a>
</g>
</g>
<!-- github.com/guild&#45;framework/guild&#45;core/pkg/gerror.Wrap&#45;&gt;github.com/guild&#45;framework/guild&#45;core/pkg/gerror.New -->
<g id="edge1" class="edge">
<title>github.com/guild&#45;framework/guild&#45;core/pkg/gerror.Wrap&#45;&gt;github.com/guild&#45;framework/guild&#45;core/pkg/gerror.New</title>
<g id="a_edge1"><a xlink:title="at errors.go:230: calling [github.com/guild&#45;framework/guild&#45;core/pkg/gerror.New]&#10;at errors.go:241: calling [github.com/guild&#45;framework/guild&#45;core/pkg/gerror.New]">
<path fill="none" stroke="black" d="M432.46,-217C467.33,-217 525.66,-217 563.88,-217"/>
<polygon fill="black" stroke="black" points="563.53,-220.5 573.53,-217 563.53,-213.5 563.53,-220.5"/>
</a>
</g>
</g>
<!-- github.com/guild&#45;framework/guild&#45;core/pkg/gerror.IsRetryable -->
<g id="node4" class="node">
<title>github.com/guild&#45;framework/guild&#45;core/pkg/gerror.IsRetryable</title>
<g id="a_node4"><a xlink:title="github.com/guild&#45;framework/guild&#45;core/pkg/gerror.IsRetryable | defined in errors.go:348&#10;at errors.go:351: calling [(*github.com/guild&#45;framework/guild&#45;core/pkg/gerror.GuildError).IsRetryable]">
<path fill="lightblue" stroke="black" stroke-width="1.5" d="M162.04,-52C162.04,-52 82.75,-52 82.75,-52 76.75,-52 70.75,-46 70.75,-40 70.75,-40 70.75,-28 70.75,-28 70.75,-22 76.75,-16 82.75,-16 82.75,-16 162.04,-16 162.04,-16 168.04,-16 174.04,-22 174.04,-28 174.04,-28 174.04,-40 174.04,-40 174.04,-46 168.04,-52 162.04,-52"/>
<text xml:space="preserve" text-anchor="middle" x="122.39" y="-29.32" font-family="Verdana" font-size="14.00">IsRetryable</text>
</a>
</g>
</g>
<!-- (*github.com/guild&#45;framework/guild&#45;core/pkg/gerror.GuildError).IsRetryable -->
<g id="node5" class="node">
<title>(*github.com/guild&#45;framework/guild&#45;core/pkg/gerror.GuildError).IsRetryable</title>
<g id="a_node5"><a xlink:title="(*github.com/guild&#45;framework/guild&#45;core/pkg/gerror.GuildError).IsRetryable | defined in errors.go:168">
<path fill="lightblue" stroke="black" stroke-width="1.5" d="M490.58,-52C490.58,-52 313.79,-52 313.79,-52 307.79,-52 301.79,-46 301.79,-40 301.79,-40 301.79,-28 301.79,-28 301.79,-22 307.79,-16 313.79,-16 313.79,-16 490.58,-16 490.58,-16 496.58,-16 502.58,-22 502.58,-28 502.58,-28 502.58,-40 502.58,-40 502.58,-46 496.58,-52 490.58,-52"/>
<text xml:space="preserve" text-anchor="middle" x="402.18" y="-29.32" font-family="Verdana" font-size="14.00">(*GuildError).IsRetryable</text>
</a>
</g>
</g>
<!-- github.com/guild&#45;framework/guild&#45;core/pkg/gerror.IsRetryable&#45;&gt;(*github.com/guild&#45;framework/guild&#45;core/pkg/gerror.GuildError).IsRetryable -->
<g id="edge2" class="edge">
<title>github.com/guild&#45;framework/guild&#45;core/pkg/gerror.IsRetryable&#45;&gt;(*github.com/guild&#45;framework/guild&#45;core/pkg/gerror.GuildError).IsRetryable</title>
<g id="a_edge2"><a xlink:title="at errors.go:351: calling [(*github.com/guild&#45;framework/guild&#45;core/pkg/gerror.GuildError).IsRetryable]">
<path fill="none" stroke="black" d="M174.67,-34C206.99,-34 250,-34 289.85,-34"/>
<polygon fill="black" stroke="black" points="289.76,-37.5 299.76,-34 289.76,-30.5 289.76,-37.5"/>
</a>
</g>
</g>
<!-- github.com/guild&#45;framework/guild&#45;core/pkg/gerror.IsUserSafe -->
<g id="node6" class="node">
<title>github.com/guild&#45;framework/guild&#45;core/pkg/gerror.IsUserSafe</title>
<g id="a_node6"><a xlink:title="github.com/guild&#45;framework/guild&#45;core/pkg/gerror.IsUserSafe | defined in errors.go:357&#10;at errors.go:360: calling [(*github.com/guild&#45;framework/guild&#45;core/pkg/gerror.GuildError).IsUserSafe]">
<path fill="lightblue" stroke="black" stroke-width="1.5" d="M160.54,-113C160.54,-113 84.25,-113 84.25,-113 78.25,-113 72.25,-107 72.25,-101 72.25,-101 72.25,-89 72.25,-89 72.25,-83 78.25,-77 84.25,-77 84.25,-77 160.54,-77 160.54,-77 166.54,-77 172.54,-83 172.54,-89 172.54,-89 172.54,-101 172.54,-101 172.54,-107 166.54,-113 160.54,-113"/>
<text xml:space="preserve" text-anchor="middle" x="122.39" y="-90.33" font-family="Verdana" font-size="14.00">IsUserSafe</text>
</a>
</g>
</g>
<!-- (*github.com/guild&#45;framework/guild&#45;core/pkg/gerror.GuildError).IsUserSafe -->
<g id="node7" class="node">
<title>(*github.com/guild&#45;framework/guild&#45;core/pkg/gerror.GuildError).IsUserSafe</title>
<g id="a_node7"><a xlink:title="(*github.com/guild&#45;framework/guild&#45;core/pkg/gerror.GuildError).IsUserSafe | defined in errors.go:173">
<path fill="lightblue" stroke="black" stroke-width="1.5" d="M489.08,-113C489.08,-113 315.29,-113 315.29,-113 309.29,-113 303.29,-107 303.29,-101 303.29,-101 303.29,-89 303.29,-89 303.29,-83 309.29,-77 315.29,-77 315.29,-77 489.08,-77 489.08,-77 495.08,-77 501.08,-83 501.08,-89 501.08,-89 501.08,-101 501.08,-101 501.08,-107 495.08,-113 489.08,-113"/>
<text xml:space="preserve" text-anchor="middle" x="402.18" y="-90.33" font-family="Verdana" font-size="14.00">(*GuildError).IsUserSafe</text>
</a>
</g>
</g>
<!-- github.com/guild&#45;framework/guild&#45;core/pkg/gerror.IsUserSafe&#45;&gt;(*github.com/guild&#45;framework/guild&#45;core/pkg/gerror.GuildError).IsUserSafe -->
<g id="edge3" class="edge">
<title>github.com/guild&#45;framework/guild&#45;core/pkg/gerror.IsUserSafe&#45;&gt;(*github.com/guild&#45;framework/guild&#45;core/pkg/gerror.GuildError).IsUserSafe</title>
<g id="a_edge3"><a xlink:title="at errors.go:360: calling [(*github.com/guild&#45;framework/guild&#45;core/pkg/gerror.GuildError).IsUserSafe]">
<path fill="none" stroke="black" d="M173.06,-95C205.94,-95 250.39,-95 291.32,-95"/>
<polygon fill="black" stroke="black" points="291.24,-98.5 301.24,-95 291.24,-91.5 291.24,-98.5"/>
</a>
</g>
</g>
<!-- github.com/guild&#45;framework/guild&#45;core/pkg/gerror.Newf -->
<g id="node8" class="node">
<title>github.com/guild&#45;framework/guild&#45;core/pkg/gerror.Newf</title>
<g id="a_node8"><a xlink:title="github.com/guild&#45;framework/guild&#45;core/pkg/gerror.Newf | defined in errors.go:218&#10;at errors.go:219: calling [github.com/guild&#45;framework/guild&#45;core/pkg/gerror.New]">
<path fill="lightblue" stroke="black" stroke-width="1.5" d="M419.33,-174C419.33,-174 385.04,-174 385.04,-174 379.04,-174 373.04,-168 373.04,-162 373.04,-162 373.04,-150 373.04,-150 373.04,-144 379.04,-138 385.04,-138 385.04,-138 419.33,-138 419.33,-138 425.33,-138 431.33,-144 431.33,-150 431.33,-150 431.33,-162 431.33,-162 431.33,-168 425.33,-174 419.33,-174"/>
<text xml:space="preserve" text-anchor="middle" x="402.18" y="-151.32" font-family="Verdana" font-size="14.00">Newf</text>
</a>
</g>
</g>
<!-- github.com/guild&#45;framework/guild&#45;core/pkg/gerror.Newf&#45;&gt;github.com/guild&#45;framework/guild&#45;core/pkg/gerror.New -->
<g id="edge4" class="edge">
<title>github.com/guild&#45;framework/guild&#45;core/pkg/gerror.Newf&#45;&gt;github.com/guild&#45;framework/guild&#45;core/pkg/gerror.New</title>
<g id="a_edge4"><a xlink:title="at errors.go:219: calling [github.com/guild&#45;framework/guild&#45;core/pkg/gerror.New]">
<path fill="none" stroke="black" d="M432.03,-164.87C466.95,-175.61 525.83,-193.71 564.2,-205.51"/>
<polygon fill="black" stroke="black" points="562.89,-208.76 573.47,-208.36 564.94,-202.07 562.89,-208.76"/>
</a>
</g>
</g>
<!-- github.com/guild&#45;framework/guild&#45;core/pkg/gerror.Wrapf -->
<g id="node9" class="node">
<title>github.com/guild&#45;framework/guild&#45;core/pkg/gerror.Wrapf</title>
<g id="a_node9"><a xlink:title="github.com/guild&#45;framework/guild&#45;core/pkg/gerror.Wrapf | defined in errors.go:245&#10;at errors.go:246: calling [github.com/guild&#45;framework/guild&#45;core/pkg/gerror.Wrap]">
<path fill="lightblue" stroke="black" stroke-width="1.5" d="M142.91,-235C142.91,-235 101.87,-235 101.87,-235 95.87,-235 89.87,-229 89.87,-223 89.87,-223 89.87,-211 89.87,-211 89.87,-205 95.87,-199 101.87,-199 101.87,-199 142.91,-199 142.91,-199 148.91,-199 154.91,-205 154.91,-211 154.91,-211 154.91,-223 154.91,-223 154.91,-229 148.91,-235 142.91,-235"/>
<text xml:space="preserve" text-anchor="middle" x="122.39" y="-212.32" font-family="Verdana" font-size="14.00">Wrapf</text>
</a>
</g>
</g>
<!-- github.com/guild&#45;framework/guild&#45;core/pkg/gerror.Wrapf&#45;&gt;github.com/guild&#45;framework/guild&#45;core/pkg/gerror.Wrap -->
<g id="edge5" class="edge">
<title>github.com/guild&#45;framework/guild&#45;core/pkg/gerror.Wrapf&#45;&gt;github.com/guild&#45;framework/guild&#45;core/pkg/gerror.Wrap</title>
<g id="a_edge5"><a xlink:title="at errors.go:246: calling [github.com/guild&#45;framework/guild&#45;core/pkg/gerror.Wrap]">
<path fill="none" stroke="black" d="M155.53,-217C206.33,-217 305.11,-217 360.69,-217"/>
<polygon fill="black" stroke="black" points="360.34,-220.5 370.34,-217 360.34,-213.5 360.34,-220.5"/>
</a>
</g>
</g>
<!-- (*github.com/guild&#45;framework/guild&#45;core/pkg/gerror.GuildError).MarshalJSON -->
<g id="node10" class="node">
<title>(*github.com/guild&#45;framework/guild&#45;core/pkg/gerror.GuildError).MarshalJSON</title>
<g id="a_node10"><a xlink:title="(*github.com/guild&#45;framework/guild&#45;core/pkg/gerror.GuildError).MarshalJSON | defined in errors.go:178&#10;at errors.go:185: calling [(*github.com/guild&#45;framework/guild&#45;core/pkg/gerror.GuildError).Error]">
<path fill="lightblue" stroke="black" stroke-width="1.5" d="M216.79,-296C216.79,-296 28,-296 28,-296 22,-296 16,-290 16,-284 16,-284 16,-272 16,-272 16,-266 22,-260 28,-260 28,-260 216.79,-260 216.79,-260 222.79,-260 228.79,-266 228.79,-272 228.79,-272 228.79,-284 228.79,-284 228.79,-290 222.79,-296 216.79,-296"/>
<text xml:space="preserve" text-anchor="middle" x="122.39" y="-273.32" font-family="Verdana" font-size="14.00">(*GuildError).MarshalJSON</text>
</a>
</g>
</g>
<!-- (*github.com/guild&#45;framework/guild&#45;core/pkg/gerror.GuildError).Error -->
<g id="node11" class="node">
<title>(*github.com/guild&#45;framework/guild&#45;core/pkg/gerror.GuildError).Error</title>
<g id="a_node11"><a xlink:title="(*github.com/guild&#45;framework/guild&#45;core/pkg/gerror.GuildError).Error | defined in errors.go:119">
<path fill="lightblue" stroke="black" stroke-width="1.5" d="M468.08,-296C468.08,-296 336.29,-296 336.29,-296 330.29,-296 324.29,-290 324.29,-284 324.29,-284 324.29,-272 324.29,-272 324.29,-266 330.29,-260 336.29,-260 336.29,-260 468.08,-260 468.08,-260 474.08,-260 480.08,-266 480.08,-272 480.08,-272 480.08,-284 480.08,-284 480.08,-290 474.08,-296 468.08,-296"/>
<text xml:space="preserve" text-anchor="middle" x="402.18" y="-273.32" font-family="Verdana" font-size="14.00">(*GuildError).Error</text>
</a>
</g>
</g>
<!-- (*github.com/guild&#45;framework/guild&#45;core/pkg/gerror.GuildError).MarshalJSON&#45;&gt;(*github.com/guild&#45;framework/guild&#45;core/pkg/gerror.GuildError).Error -->
<g id="edge6" class="edge">
<title>(*github.com/guild&#45;framework/guild&#45;core/pkg/gerror.GuildError).MarshalJSON&#45;&gt;(*github.com/guild&#45;framework/guild&#45;core/pkg/gerror.GuildError).Error</title>
<g id="a_edge6"><a xlink:title="at errors.go:185: calling [(*github.com/guild&#45;framework/guild&#45;core/pkg/gerror.GuildError).Error]">
<path fill="none" stroke="black" d="M229.21,-278C256.71,-278 286.05,-278 312.57,-278"/>
<polygon fill="black" stroke="black" points="312.23,-281.5 322.23,-278 312.23,-274.5 312.23,-281.5"/>
</a>
</g>
</g>
<!-- github.com/guild&#45;framework/guild&#45;core/pkg/gerror.init -->
<g id="node12" class="node">
<title>github.com/guild&#45;framework/guild&#45;core/pkg/gerror.init</title>
<g id="a_node12"><a xlink:title="github.com/guild&#45;framework/guild&#45;core/pkg/gerror.init | defined in .:0&#10;at errors.go:292: calling [github.com/guild&#45;framework/guild&#45;core/pkg/gerror.New]&#10;at errors.go:293: calling [github.com/guild&#45;framework/guild&#45;core/pkg/gerror.New]&#10;at errors.go:296: calling [github.com/guild&#45;framework/guild&#45;core/pkg/gerror.New]&#10;at errors.go:297: calling [github.com/guild&#45;framework/guild&#45;core/pkg/gerror.New]&#10;at errors.go:300: calling [github.com/guild&#45;framework/guild&#45;core/pkg/gerror.New]&#10;at errors.go:301: calling [github.com/guild&#45;framework/guild&#45;core/pkg/gerror.New]&#10;at errors.go:302: calling [github.com/guild&#45;framework/guild&#45;core/pkg/gerror.New]&#10;at errors.go:303: calling [github.com/guild&#45;framework/guild&#45;core/pkg/gerror.New]&#10;at errors.go:306: calling [github.com/guild&#45;framework/guild&#45;core/pkg/gerror.New]&#10;at errors.go:307: calling [github.com/guild&#45;framework/guild&#45;core/pkg/gerror.New]&#10;at errors.go:308: calling [github.com/guild&#45;framework/guild&#45;core/pkg/gerror.New]">
<path fill="lightblue" stroke="black" stroke-width="0.5" d="M417.18,-357C417.18,-357 387.18,-357 387.18,-357 381.18,-357 375.18,-351 375.18,-345 375.18,-345 375.18,-333 375.18,-333 375.18,-327 381.18,-321 387.18,-321 387.18,-321 417.18,-321 417.18,-321 423.18,-321 429.18,-327 429.18,-333 429.18,-333 429.18,-345 429.18,-345 429.18,-351 423.18,-357 417.18,-357"/>
<text xml:space="preserve" text-anchor="middle" x="402.18" y="-334.32" font-family="Verdana" font-size="14.00">init</text>
</a>
</g>
</g>
<!-- github.com/guild&#45;framework/guild&#45;core/pkg/gerror.init&#45;&gt;github.com/guild&#45;framework/guild&#45;core/pkg/gerror.New -->
<g id="edge7" class="edge">
<title>github.com/guild&#45;framework/guild&#45;core/pkg/gerror.init&#45;&gt;github.com/guild&#45;framework/guild&#45;core/pkg/gerror.New</title>
<g id="a_edge7"><a xlink:title="at errors.go:292: calling [github.com/guild&#45;framework/guild&#45;core/pkg/gerror.New]&#10;at errors.go:293: calling [github.com/guild&#45;framework/guild&#45;core/pkg/gerror.New]&#10;at errors.go:296: calling [github.com/guild&#45;framework/guild&#45;core/pkg/gerror.New]&#10;at errors.go:297: calling [github.com/guild&#45;framework/guild&#45;core/pkg/gerror.New]&#10;at errors.go:300: calling [github.com/guild&#45;framework/guild&#45;core/pkg/gerror.New]&#10;at errors.go:301: calling [github.com/guild&#45;framework/guild&#45;core/pkg/gerror.New]&#10;at errors.go:302: calling [github.com/guild&#45;framework/guild&#45;core/pkg/gerror.New]&#10;at errors.go:303: calling [github.com/guild&#45;framework/guild&#45;core/pkg/gerror.New]&#10;at errors.go:306: calling [github.com/guild&#45;framework/guild&#45;core/pkg/gerror.New]&#10;at errors.go:307: calling [github.com/guild&#45;framework/guild&#45;core/pkg/gerror.New]&#10;at errors.go:308: calling [github.com/guild&#45;framework/guild&#45;core/pkg/gerror.New]">
<path fill="none" stroke="black" d="M429.4,-334.49C450.24,-330.12 479.6,-322.19 502.58,-309 532.18,-292.01 560.11,-264.62 578.71,-244.14"/>
<polygon fill="black" stroke="black" points="581.3,-246.49 585.32,-236.69 576.07,-241.84 581.3,-246.49"/>
</a>
</g>
</g>
</g>
</svg>
