<?xml version="1.0" encoding="UTF-8" standalone="no"?>
<!DOCTYPE svg PUBLIC "-//W3C//DTD SVG 1.1//EN"
 "http://www.w3.org/Graphics/SVG/1.1/DTD/svg11.dtd">
<!-- Generated by graphviz version 14.1.1 (20251213.1925)
 -->
<!-- Title: gocallvis Pages: 1 -->
<svg width="865pt" height="772pt"
 viewBox="0.00 0.00 865.00 772.00" xmlns="http://www.w3.org/2000/svg" xmlns:xlink="http://www.w3.org/1999/xlink">
<g id="graph0" class="graph" transform="scale(1 1) rotate(0) translate(0 772)">
<title>gocallvis</title>
<polygon fill="lightgray" stroke="none" points="0,0 0,-772 864.83,-772 864.83,0 0,0"/>
<g id="clust1" class="cluster">
<title>cluster_focus</title>
<polygon fill="#e6ecfa" stroke="black" stroke-width="0.5" points="8,-8 8,-764 856.83,-764 856.83,-8 8,-8"/>
<text xml:space="preserve" text-anchor="middle" x="432.42" y="-742.9" font-family="Arial" font-size="18.00">mocks</text>
</g>
<g id="clust2" class="cluster">
<title>cluster_github.com/guild&#45;framework/guild&#45;core/pkg/commission</title>
<g id="a_clust2"><a xlink:href="/?f=github.com/guild-framework/guild-core/pkg/commission" xlink:title="package: github.com/guild&#45;framework/guild&#45;core/pkg/commission">
<polygon fill="lightyellow" stroke="black" stroke-width="0.8" points="592.29,-16 592.29,-96 746.08,-96 746.08,-16 592.29,-16"/>
<text xml:space="preserve" text-anchor="middle" x="669.19" y="-76.8" font-family="Tahoma bold" font-size="16.00">commission</text>
</a>
</g>
</g>
<g id="clust3" class="cluster">
<title>cluster_github.com/guild&#45;framework/guild&#45;core/pkg/gerror</title>
<g id="a_clust3"><a xlink:href="/?f=github.com/guild-framework/guild-core/pkg/gerror" xlink:title="package: github.com/guild&#45;framework/guild&#45;core/pkg/gerror">
<polygon fill="lightyellow" stroke="black" stroke-width="0.8" points="545.04,-157 545.04,-420 793.33,-420 793.33,-157 545.04,-157"/>
<text xml:space="preserve" text-anchor="middle" x="669.19" y="-400.8" font-family="Tahoma bold" font-size="16.00">gerror</text>
</a>
</g>
</g>
<g id="clust4" class="cluster">
<title>cluster_github.com/guild&#45;framework/guild&#45;core/pkg/registry</title>
<g id="a_clust4"><a xlink:href="/?f=github.com/guild-framework/guild-core/pkg/registry" xlink:title="package: github.com/guild&#45;framework/guild&#45;core/pkg/registry">
<polygon fill="lightyellow" stroke="black" stroke-width="0.8" points="489.54,-481 489.54,-622 848.83,-622 848.83,-481 489.54,-481"/>
<text xml:space="preserve" text-anchor="middle" x="669.19" y="-602.8" font-family="Tahoma bold" font-size="16.00">registry</text>
</a>
</g>
</g>
<!-- (*github.com/guild&#45;framework/guild&#45;core/pkg/agents/core/mocks.MockCommissionManager).LoadCommissionFromFile -->
<g id="node1" class="node">
<title>(*github.com/guild&#45;framework/guild&#45;core/pkg/agents/core/mocks.MockCommissionManager).LoadCommissionFromFile</title>
<g id="a_node1"><a xlink:title="(*github.com/guild&#45;framework/guild&#45;core/pkg/agents/core/mocks.MockCommissionManager).LoadCommissionFromFile | defined in mock_commission_manager.go:119&#10;at mock_commission_manager.go:125: calling [github.com/guild&#45;framework/guild&#45;core/pkg/commission.NewCommission]">
<path fill="lightblue" stroke="black" stroke-width="1.5" d="M412.54,-60C412.54,-60 28,-60 28,-60 22,-60 16,-54 16,-48 16,-48 16,-36 16,-36 16,-30 22,-24 28,-24 28,-24 412.54,-24 412.54,-24 418.54,-24 424.54,-30 424.54,-36 424.54,-36 424.54,-48 424.54,-48 424.54,-54 418.54,-60 412.54,-60"/>
<text xml:space="preserve" text-anchor="middle" x="220.27" y="-37.33" font-family="Verdana" font-size="14.00">(*MockCommissionManager).LoadCommissionFromFile</text>
</a>
</g>
</g>
<!-- github.com/guild&#45;framework/guild&#45;core/pkg/commission.NewCommission -->
<g id="node12" class="node">
<title>github.com/guild&#45;framework/guild&#45;core/pkg/commission.NewCommission</title>
<g id="a_node12"><a xlink:title="github.com/guild&#45;framework/guild&#45;core/pkg/commission.NewCommission | defined in models.go:185">
<path fill="moccasin" stroke="black" stroke-width="1.5" d="M726.08,-60C726.08,-60 612.29,-60 612.29,-60 606.29,-60 600.29,-54 600.29,-48 600.29,-48 600.29,-36 600.29,-36 600.29,-30 606.29,-24 612.29,-24 612.29,-24 726.08,-24 726.08,-24 732.08,-24 738.08,-30 738.08,-36 738.08,-36 738.08,-48 738.08,-48 738.08,-54 732.08,-60 726.08,-60"/>
<text xml:space="preserve" text-anchor="middle" x="669.19" y="-37.33" font-family="Verdana" font-size="14.00">NewCommission</text>
</a>
</g>
</g>
<!-- (*github.com/guild&#45;framework/guild&#45;core/pkg/agents/core/mocks.MockCommissionManager).LoadCommissionFromFile&#45;&gt;github.com/guild&#45;framework/guild&#45;core/pkg/commission.NewCommission -->
<g id="edge10" class="edge">
<title>(*github.com/guild&#45;framework/guild&#45;core/pkg/agents/core/mocks.MockCommissionManager).LoadCommissionFromFile&#45;&gt;github.com/guild&#45;framework/guild&#45;core/pkg/commission.NewCommission</title>
<g id="a_edge10"><a xlink:title="at mock_commission_manager.go:125: calling [github.com/guild&#45;framework/guild&#45;core/pkg/commission.NewCommission]">
<path fill="none" stroke="saddlebrown" d="M425.11,-42C482.94,-42 542.54,-42 588.25,-42"/>
<polygon fill="saddlebrown" stroke="saddlebrown" points="588.05,-45.5 598.05,-42 588.05,-38.5 588.05,-45.5"/>
</a>
</g>
</g>
<!-- (*github.com/guild&#45;framework/guild&#45;core/pkg/agents/core/mocks.MockToolRegistry).ExecuteTool -->
<g id="node2" class="node">
<title>(*github.com/guild&#45;framework/guild&#45;core/pkg/agents/core/mocks.MockToolRegistry).ExecuteTool</title>
<g id="a_node2"><a xlink:title="(*github.com/guild&#45;framework/guild&#45;core/pkg/agents/core/mocks.MockToolRegistry).ExecuteTool | defined in mock_tool_registry.go:91&#10;at mock_tool_registry.go:111: calling [github.com/guild&#45;framework/guild&#45;core/pkg/gerror.New]&#10;at mock_tool_registry.go:113: calling [(*github.com/guild&#45;framework/guild&#45;core/pkg/gerror.GuildError).WithOperation]&#10;at mock_tool_registry.go:112: calling [(*github.com/guild&#45;framework/guild&#45;core/pkg/gerror.GuildError).WithComponent]&#10;at mock_tool_registry.go:114: calling [(*github.com/guild&#45;framework/guild&#45;core/pkg/gerror.GuildError).WithDetails]">
<path fill="lightblue" stroke="black" stroke-width="1.5" d="M334.54,-282C334.54,-282 106,-282 106,-282 100,-282 94,-276 94,-270 94,-270 94,-258 94,-258 94,-252 100,-246 106,-246 106,-246 334.54,-246 334.54,-246 340.54,-246 346.54,-252 346.54,-258 346.54,-258 346.54,-270 346.54,-270 346.54,-276 340.54,-282 334.54,-282"/>
<text xml:space="preserve" text-anchor="middle" x="220.27" y="-259.32" font-family="Verdana" font-size="14.00">(*MockToolRegistry).ExecuteTool</text>
</a>
</g>
</g>
<!-- github.com/guild&#45;framework/guild&#45;core/pkg/gerror.New -->
<g id="node13" class="node">
<title>github.com/guild&#45;framework/guild&#45;core/pkg/gerror.New</title>
<g id="a_node13"><a xlink:title="github.com/guild&#45;framework/guild&#45;core/pkg/gerror.New | defined in errors.go:190">
<path fill="moccasin" stroke="black" stroke-width="1.5" d="M684.19,-201C684.19,-201 654.19,-201 654.19,-201 648.19,-201 642.19,-195 642.19,-189 642.19,-189 642.19,-177 642.19,-177 642.19,-171 648.19,-165 654.19,-165 654.19,-165 684.19,-165 684.19,-165 690.19,-165 696.19,-171 696.19,-177 696.19,-177 696.19,-189 696.19,-189 696.19,-195 690.19,-201 684.19,-201"/>
<text xml:space="preserve" text-anchor="middle" x="669.19" y="-178.32" font-family="Verdana" font-size="14.00">New</text>
</a>
</g>
</g>
<!-- (*github.com/guild&#45;framework/guild&#45;core/pkg/agents/core/mocks.MockToolRegistry).ExecuteTool&#45;&gt;github.com/guild&#45;framework/guild&#45;core/pkg/gerror.New -->
<g id="edge5" class="edge">
<title>(*github.com/guild&#45;framework/guild&#45;core/pkg/agents/core/mocks.MockToolRegistry).ExecuteTool&#45;&gt;github.com/guild&#45;framework/guild&#45;core/pkg/gerror.New</title>
<g id="a_edge5"><a xlink:title="at mock_tool_registry.go:111: calling [github.com/guild&#45;framework/guild&#45;core/pkg/gerror.New]">
<path fill="none" stroke="saddlebrown" d="M319.96,-245.3C370.62,-235.78 433.35,-224.11 489.54,-214 538.18,-205.25 594.36,-195.57 630.53,-189.39"/>
<polygon fill="saddlebrown" stroke="saddlebrown" points="630.77,-192.9 640.04,-187.77 629.59,-186 630.77,-192.9"/>
</a>
</g>
</g>
<!-- (*github.com/guild&#45;framework/guild&#45;core/pkg/gerror.GuildError).WithComponent -->
<g id="node14" class="node">
<title>(*github.com/guild&#45;framework/guild&#45;core/pkg/gerror.GuildError).WithComponent</title>
<g id="a_node14"><a xlink:title="(*github.com/guild&#45;framework/guild&#45;core/pkg/gerror.GuildError).WithComponent | defined in errors.go:156">
<path fill="moccasin" stroke="black" stroke-width="1.5" d="M773.33,-262C773.33,-262 565.04,-262 565.04,-262 559.04,-262 553.04,-256 553.04,-250 553.04,-250 553.04,-238 553.04,-238 553.04,-232 559.04,-226 565.04,-226 565.04,-226 773.33,-226 773.33,-226 779.33,-226 785.33,-232 785.33,-238 785.33,-238 785.33,-250 785.33,-250 785.33,-256 779.33,-262 773.33,-262"/>
<text xml:space="preserve" text-anchor="middle" x="669.19" y="-239.32" font-family="Verdana" font-size="14.00">(*GuildError).WithComponent</text>
</a>
</g>
</g>
<!-- (*github.com/guild&#45;framework/guild&#45;core/pkg/agents/core/mocks.MockToolRegistry).ExecuteTool&#45;&gt;(*github.com/guild&#45;framework/guild&#45;core/pkg/gerror.GuildError).WithComponent -->
<g id="edge11" class="edge">
<title>(*github.com/guild&#45;framework/guild&#45;core/pkg/agents/core/mocks.MockToolRegistry).ExecuteTool&#45;&gt;(*github.com/guild&#45;framework/guild&#45;core/pkg/gerror.GuildError).WithComponent</title>
<g id="a_edge11"><a xlink:title="at mock_tool_registry.go:112: calling [(*github.com/guild&#45;framework/guild&#45;core/pkg/gerror.GuildError).WithComponent]">
<path fill="none" stroke="saddlebrown" d="M347.25,-258.36C407.88,-255.65 480.43,-252.4 541.19,-249.68"/>
<polygon fill="saddlebrown" stroke="saddlebrown" points="541.05,-253.19 550.88,-249.25 540.74,-246.2 541.05,-253.19"/>
</a>
</g>
</g>
<!-- (*github.com/guild&#45;framework/guild&#45;core/pkg/gerror.GuildError).WithOperation -->
<g id="node15" class="node">
<title>(*github.com/guild&#45;framework/guild&#45;core/pkg/gerror.GuildError).WithOperation</title>
<g id="a_node15"><a xlink:title="(*github.com/guild&#45;framework/guild&#45;core/pkg/gerror.GuildError).WithOperation | defined in errors.go:162">
<path fill="moccasin" stroke="black" stroke-width="1.5" d="M767.71,-323C767.71,-323 570.67,-323 570.67,-323 564.67,-323 558.67,-317 558.67,-311 558.67,-311 558.67,-299 558.67,-299 558.67,-293 564.67,-287 570.67,-287 570.67,-287 767.71,-287 767.71,-287 773.71,-287 779.71,-293 779.71,-299 779.71,-299 779.71,-311 779.71,-311 779.71,-317 773.71,-323 767.71,-323"/>
<text xml:space="preserve" text-anchor="middle" x="669.19" y="-300.32" font-family="Verdana" font-size="14.00">(*GuildError).WithOperation</text>
</a>
</g>
</g>
<!-- (*github.com/guild&#45;framework/guild&#45;core/pkg/agents/core/mocks.MockToolRegistry).ExecuteTool&#45;&gt;(*github.com/guild&#45;framework/guild&#45;core/pkg/gerror.GuildError).WithOperation -->
<g id="edge6" class="edge">
<title>(*github.com/guild&#45;framework/guild&#45;core/pkg/agents/core/mocks.MockToolRegistry).ExecuteTool&#45;&gt;(*github.com/guild&#45;framework/guild&#45;core/pkg/gerror.GuildError).WithOperation</title>
<g id="a_edge6"><a xlink:title="at mock_tool_registry.go:113: calling [(*github.com/guild&#45;framework/guild&#45;core/pkg/gerror.GuildError).WithOperation]">
<path fill="none" stroke="saddlebrown" d="M347.25,-275.56C409.7,-281.29 484.8,-288.18 546.64,-293.85"/>
<polygon fill="saddlebrown" stroke="saddlebrown" points="546.24,-297.33 556.52,-294.76 546.88,-290.36 546.24,-297.33"/>
</a>
</g>
</g>
<!-- (*github.com/guild&#45;framework/guild&#45;core/pkg/gerror.GuildError).WithDetails -->
<g id="node16" class="node">
<title>(*github.com/guild&#45;framework/guild&#45;core/pkg/gerror.GuildError).WithDetails</title>
<g id="a_node16"><a xlink:title="(*github.com/guild&#45;framework/guild&#45;core/pkg/gerror.GuildError).WithDetails | defined in errors.go:147">
<path fill="moccasin" stroke="black" stroke-width="1.5" d="M756.83,-384C756.83,-384 581.54,-384 581.54,-384 575.54,-384 569.54,-378 569.54,-372 569.54,-372 569.54,-360 569.54,-360 569.54,-354 575.54,-348 581.54,-348 581.54,-348 756.83,-348 756.83,-348 762.83,-348 768.83,-354 768.83,-360 768.83,-360 768.83,-372 768.83,-372 768.83,-378 762.83,-384 756.83,-384"/>
<text xml:space="preserve" text-anchor="middle" x="669.19" y="-361.32" font-family="Verdana" font-size="14.00">(*GuildError).WithDetails</text>
</a>
</g>
</g>
<!-- (*github.com/guild&#45;framework/guild&#45;core/pkg/agents/core/mocks.MockToolRegistry).ExecuteTool&#45;&gt;(*github.com/guild&#45;framework/guild&#45;core/pkg/gerror.GuildError).WithDetails -->
<g id="edge12" class="edge">
<title>(*github.com/guild&#45;framework/guild&#45;core/pkg/agents/core/mocks.MockToolRegistry).ExecuteTool&#45;&gt;(*github.com/guild&#45;framework/guild&#45;core/pkg/gerror.GuildError).WithDetails</title>
<g id="a_edge12"><a xlink:title="at mock_tool_registry.go:114: calling [(*github.com/guild&#45;framework/guild&#45;core/pkg/gerror.GuildError).WithDetails]">
<path fill="none" stroke="saddlebrown" d="M284.27,-282.74C338.37,-298.39 418.62,-320.57 489.54,-336 511.59,-340.8 535.32,-345.26 558.04,-349.21"/>
<polygon fill="saddlebrown" stroke="saddlebrown" points="557.17,-352.61 567.62,-350.84 558.35,-345.71 557.17,-352.61"/>
</a>
</g>
</g>
<!-- (*github.com/guild&#45;framework/guild&#45;core/pkg/agents/core/mocks.MockCostManager).CanAfford -->
<g id="node3" class="node">
<title>(*github.com/guild&#45;framework/guild&#45;core/pkg/agents/core/mocks.MockCostManager).CanAfford</title>
<g id="a_node3"><a xlink:title="(*github.com/guild&#45;framework/guild&#45;core/pkg/agents/core/mocks.MockCostManager).CanAfford | defined in mock_cost_manager.go:131&#10;at mock_cost_manager.go:132: calling [(*github.com/guild&#45;framework/guild&#45;core/pkg/agents/core/mocks.MockCostManager).ExceedsBudget]">
<path fill="lightblue" stroke="black" stroke-width="1.5" d="M331.91,-128C331.91,-128 108.63,-128 108.63,-128 102.62,-128 96.62,-122 96.62,-116 96.62,-116 96.62,-104 96.62,-104 96.62,-98 102.62,-92 108.62,-92 108.62,-92 331.91,-92 331.91,-92 337.91,-92 343.91,-98 343.91,-104 343.91,-104 343.91,-116 343.91,-116 343.91,-122 337.91,-128 331.91,-128"/>
<text xml:space="preserve" text-anchor="middle" x="220.27" y="-105.33" font-family="Verdana" font-size="14.00">(*MockCostManager).CanAfford</text>
</a>
</g>
</g>
<!-- (*github.com/guild&#45;framework/guild&#45;core/pkg/agents/core/mocks.MockCostManager).ExceedsBudget -->
<g id="node4" class="node">
<title>(*github.com/guild&#45;framework/guild&#45;core/pkg/agents/core/mocks.MockCostManager).ExceedsBudget</title>
<g id="a_node4"><a xlink:title="(*github.com/guild&#45;framework/guild&#45;core/pkg/agents/core/mocks.MockCostManager).ExceedsBudget | defined in mock_cost_manager.go:111">
<path fill="lightblue" stroke="black" stroke-width="1.5" d="M799.58,-140C799.58,-140 538.79,-140 538.79,-140 532.79,-140 526.79,-134 526.79,-128 526.79,-128 526.79,-116 526.79,-116 526.79,-110 532.79,-104 538.79,-104 538.79,-104 799.58,-104 799.58,-104 805.58,-104 811.58,-110 811.58,-116 811.58,-116 811.58,-128 811.58,-128 811.58,-134 805.58,-140 799.58,-140"/>
<text xml:space="preserve" text-anchor="middle" x="669.19" y="-117.33" font-family="Verdana" font-size="14.00">(*MockCostManager).ExceedsBudget</text>
</a>
</g>
</g>
<!-- (*github.com/guild&#45;framework/guild&#45;core/pkg/agents/core/mocks.MockCostManager).CanAfford&#45;&gt;(*github.com/guild&#45;framework/guild&#45;core/pkg/agents/core/mocks.MockCostManager).ExceedsBudget -->
<g id="edge7" class="edge">
<title>(*github.com/guild&#45;framework/guild&#45;core/pkg/agents/core/mocks.MockCostManager).CanAfford&#45;&gt;(*github.com/guild&#45;framework/guild&#45;core/pkg/agents/core/mocks.MockCostManager).ExceedsBudget</title>
<g id="a_edge7"><a xlink:title="at mock_cost_manager.go:132: calling [(*github.com/guild&#45;framework/guild&#45;core/pkg/agents/core/mocks.MockCostManager).ExceedsBudget]">
<path fill="none" stroke="black" d="M344.57,-113.31C397.27,-114.73 459.33,-116.39 514.94,-117.89"/>
<polygon fill="black" stroke="black" points="514.73,-121.38 524.82,-118.15 514.92,-114.38 514.73,-121.38"/>
</a>
</g>
</g>
<!-- (*github.com/guild&#45;framework/guild&#45;core/pkg/agents/core/mocks.MockToolRegistry).ExecuteToolWithParams -->
<g id="node5" class="node">
<title>(*github.com/guild&#45;framework/guild&#45;core/pkg/agents/core/mocks.MockToolRegistry).ExecuteToolWithParams</title>
<g id="a_node5"><a xlink:title="(*github.com/guild&#45;framework/guild&#45;core/pkg/agents/core/mocks.MockToolRegistry).ExecuteToolWithParams | defined in mock_tool_registry.go:122&#10;at mock_tool_registry.go:144: calling [(*github.com/guild&#45;framework/guild&#45;core/pkg/gerror.GuildError).WithOperation]&#10;at mock_tool_registry.go:143: calling [(*github.com/guild&#45;framework/guild&#45;core/pkg/gerror.GuildError).WithComponent]&#10;at mock_tool_registry.go:142: calling [github.com/guild&#45;framework/guild&#45;core/pkg/gerror.New]&#10;at mock_tool_registry.go:145: calling [(*github.com/guild&#45;framework/guild&#45;core/pkg/gerror.GuildError).WithDetails]">
<path fill="lightblue" stroke="black" stroke-width="1.5" d="M376.16,-389C376.16,-389 64.38,-389 64.38,-389 58.38,-389 52.37,-383 52.37,-377 52.37,-377 52.37,-365 52.37,-365 52.37,-359 58.37,-353 64.37,-353 64.37,-353 376.16,-353 376.16,-353 382.16,-353 388.16,-359 388.16,-365 388.16,-365 388.16,-377 388.16,-377 388.16,-383 382.16,-389 376.16,-389"/>
<text xml:space="preserve" text-anchor="middle" x="220.27" y="-366.32" font-family="Verdana" font-size="14.00">(*MockToolRegistry).ExecuteToolWithParams</text>
</a>
</g>
</g>
<!-- (*github.com/guild&#45;framework/guild&#45;core/pkg/agents/core/mocks.MockToolRegistry).ExecuteToolWithParams&#45;&gt;github.com/guild&#45;framework/guild&#45;core/pkg/gerror.New -->
<g id="edge15" class="edge">
<title>(*github.com/guild&#45;framework/guild&#45;core/pkg/agents/core/mocks.MockToolRegistry).ExecuteToolWithParams&#45;&gt;github.com/guild&#45;framework/guild&#45;core/pkg/gerror.New</title>
<g id="a_edge15"><a xlink:title="at mock_tool_registry.go:142: calling [github.com/guild&#45;framework/guild&#45;core/pkg/gerror.New]">
<path fill="none" stroke="saddlebrown" d="M299.92,-352.32C339.78,-340.31 387.45,-321.83 424.54,-295 461.94,-267.95 449.79,-237.46 489.54,-214 533.15,-188.26 592.49,-182.63 630.57,-182"/>
<polygon fill="saddlebrown" stroke="saddlebrown" points="630.17,-185.5 640.15,-181.95 630.14,-178.5 630.17,-185.5"/>
</a>
</g>
</g>
<!-- (*github.com/guild&#45;framework/guild&#45;core/pkg/agents/core/mocks.MockToolRegistry).ExecuteToolWithParams&#45;&gt;(*github.com/guild&#45;framework/guild&#45;core/pkg/gerror.GuildError).WithComponent -->
<g id="edge13" class="edge">
<title>(*github.com/guild&#45;framework/guild&#45;core/pkg/agents/core/mocks.MockToolRegistry).ExecuteToolWithParams&#45;&gt;(*github.com/guild&#45;framework/guild&#45;core/pkg/gerror.GuildError).WithComponent</title>
<g id="a_edge13"><a xlink:title="at mock_tool_registry.go:143: calling [(*github.com/guild&#45;framework/guild&#45;core/pkg/gerror.GuildError).WithComponent]">
<path fill="none" stroke="saddlebrown" d="M388.89,-370.19C415.02,-364.03 440.34,-353.94 461.54,-338 486.03,-319.59 465.38,-293.84 489.54,-275 504.69,-263.19 522.77,-255.25 541.52,-250"/>
<polygon fill="saddlebrown" stroke="saddlebrown" points="542.3,-253.41 551.15,-247.58 540.6,-246.62 542.3,-253.41"/>
</a>
</g>
</g>
<!-- (*github.com/guild&#45;framework/guild&#45;core/pkg/agents/core/mocks.MockToolRegistry).ExecuteToolWithParams&#45;&gt;(*github.com/guild&#45;framework/guild&#45;core/pkg/gerror.GuildError).WithOperation -->
<g id="edge8" class="edge">
<title>(*github.com/guild&#45;framework/guild&#45;core/pkg/agents/core/mocks.MockToolRegistry).ExecuteToolWithParams&#45;&gt;(*github.com/guild&#45;framework/guild&#45;core/pkg/gerror.GuildError).WithOperation</title>
<g id="a_edge8"><a xlink:title="at mock_tool_registry.go:144: calling [(*github.com/guild&#45;framework/guild&#45;core/pkg/gerror.GuildError).WithOperation]">
<path fill="none" stroke="saddlebrown" d="M388.78,-383.44C413.88,-380.61 438.91,-374.94 461.54,-365 477.94,-357.79 473.71,-344.39 489.54,-336 507.26,-326.61 527.22,-319.97 547.21,-315.3"/>
<polygon fill="saddlebrown" stroke="saddlebrown" points="547.79,-318.76 556.83,-313.22 546.31,-311.91 547.79,-318.76"/>
</a>
</g>
</g>
<!-- (*github.com/guild&#45;framework/guild&#45;core/pkg/agents/core/mocks.MockToolRegistry).ExecuteToolWithParams&#45;&gt;(*github.com/guild&#45;framework/guild&#45;core/pkg/gerror.GuildError).WithDetails -->
<g id="edge16" class="edge">
<title>(*github.com/guild&#45;framework/guild&#45;core/pkg/agents/core/mocks.MockToolRegistry).ExecuteToolWithParams&#45;&gt;(*github.com/guild&#45;framework/guild&#45;core/pkg/gerror.GuildError).WithDetails</title>
<g id="a_edge16"><a xlink:title="at mock_tool_registry.go:145: calling [(*github.com/guild&#45;framework/guild&#45;core/pkg/gerror.GuildError).WithDetails]">
<path fill="none" stroke="saddlebrown" d="M388.81,-387.58C412.86,-389.41 437.31,-390.98 460.54,-392 473.54,-392.57 476.64,-389.72 489.54,-388 511.53,-385.07 535.07,-382.08 557.6,-379.28"/>
<polygon fill="saddlebrown" stroke="saddlebrown" points="557.93,-382.77 567.42,-378.06 557.07,-375.82 557.93,-382.77"/>
</a>
</g>
</g>
<!-- (*github.com/guild&#45;framework/guild&#45;core/pkg/agents/core/mocks.MockToolRegistry).RegisterTool -->
<g id="node6" class="node">
<title>(*github.com/guild&#45;framework/guild&#45;core/pkg/agents/core/mocks.MockToolRegistry).RegisterTool</title>
<g id="a_node6"><a xlink:title="(*github.com/guild&#45;framework/guild&#45;core/pkg/agents/core/mocks.MockToolRegistry).RegisterTool | defined in mock_tool_registry.go:54&#10;at mock_tool_registry.go:61: calling [(*github.com/guild&#45;framework/guild&#45;core/pkg/gerror.GuildError).WithOperation]&#10;at mock_tool_registry.go:59: calling [github.com/guild&#45;framework/guild&#45;core/pkg/gerror.New]&#10;at mock_tool_registry.go:60: calling [(*github.com/guild&#45;framework/guild&#45;core/pkg/gerror.GuildError).WithComponent]">
<path fill="lightblue" stroke="black" stroke-width="1.5" d="M336.41,-189C336.41,-189 104.12,-189 104.12,-189 98.13,-189 92.12,-183 92.12,-177 92.12,-177 92.12,-165 92.12,-165 92.12,-159 98.12,-153 104.12,-153 104.12,-153 336.41,-153 336.41,-153 342.41,-153 348.41,-159 348.41,-165 348.41,-165 348.41,-177 348.41,-177 348.41,-183 342.41,-189 336.41,-189"/>
<text xml:space="preserve" text-anchor="middle" x="220.27" y="-166.32" font-family="Verdana" font-size="14.00">(*MockToolRegistry).RegisterTool</text>
</a>
</g>
</g>
<!-- (*github.com/guild&#45;framework/guild&#45;core/pkg/agents/core/mocks.MockToolRegistry).RegisterTool&#45;&gt;github.com/guild&#45;framework/guild&#45;core/pkg/gerror.New -->
<g id="edge9" class="edge">
<title>(*github.com/guild&#45;framework/guild&#45;core/pkg/agents/core/mocks.MockToolRegistry).RegisterTool&#45;&gt;github.com/guild&#45;framework/guild&#45;core/pkg/gerror.New</title>
<g id="a_edge9"><a xlink:title="at mock_tool_registry.go:59: calling [github.com/guild&#45;framework/guild&#45;core/pkg/gerror.New]">
<path fill="none" stroke="saddlebrown" d="M349.11,-162.03C385.45,-160.62 425.06,-160.15 461.54,-162 520.67,-165 588.95,-172.79 630.32,-177.99"/>
<polygon fill="saddlebrown" stroke="saddlebrown" points="629.64,-181.43 640,-179.22 630.52,-174.49 629.64,-181.43"/>
</a>
</g>
</g>
<!-- (*github.com/guild&#45;framework/guild&#45;core/pkg/agents/core/mocks.MockToolRegistry).RegisterTool&#45;&gt;(*github.com/guild&#45;framework/guild&#45;core/pkg/gerror.GuildError).WithComponent -->
<g id="edge17" class="edge">
<title>(*github.com/guild&#45;framework/guild&#45;core/pkg/agents/core/mocks.MockToolRegistry).RegisterTool&#45;&gt;(*github.com/guild&#45;framework/guild&#45;core/pkg/gerror.GuildError).WithComponent</title>
<g id="a_edge17"><a xlink:title="at mock_tool_registry.go:60: calling [(*github.com/guild&#45;framework/guild&#45;core/pkg/gerror.GuildError).WithComponent]">
<path fill="none" stroke="saddlebrown" d="M349,-165.28C386.46,-167.61 426.7,-174.19 461.54,-189 476.89,-195.52 474.5,-206.78 489.54,-214 505.62,-221.72 523.35,-227.49 541.2,-231.8"/>
<polygon fill="saddlebrown" stroke="saddlebrown" points="540.32,-235.19 550.84,-233.97 541.85,-228.36 540.32,-235.19"/>
</a>
</g>
</g>
<!-- (*github.com/guild&#45;framework/guild&#45;core/pkg/agents/core/mocks.MockToolRegistry).RegisterTool&#45;&gt;(*github.com/guild&#45;framework/guild&#45;core/pkg/gerror.GuildError).WithOperation -->
<g id="edge1" class="edge">
<title>(*github.com/guild&#45;framework/guild&#45;core/pkg/agents/core/mocks.MockToolRegistry).RegisterTool&#45;&gt;(*github.com/guild&#45;framework/guild&#45;core/pkg/gerror.GuildError).WithOperation</title>
<g id="a_edge1"><a xlink:title="at mock_tool_registry.go:61: calling [(*github.com/guild&#45;framework/guild&#45;core/pkg/gerror.GuildError).WithOperation]">
<path fill="none" stroke="saddlebrown" d="M298.33,-189.74C337.09,-200.45 384.27,-215.45 424.54,-234 455.56,-248.29 457.63,-262.82 489.54,-275 507.68,-281.92 527.45,-287.25 547.03,-291.35"/>
<polygon fill="saddlebrown" stroke="saddlebrown" points="546.21,-294.76 556.7,-293.27 547.58,-287.89 546.21,-294.76"/>
</a>
</g>
</g>
<!-- (*github.com/guild&#45;framework/guild&#45;core/pkg/agents/core/mocks.MockCostManager).RecordLLMCost -->
<g id="node7" class="node">
<title>(*github.com/guild&#45;framework/guild&#45;core/pkg/agents/core/mocks.MockCostManager).RecordLLMCost</title>
<g id="a_node7"><a xlink:title="(*github.com/guild&#45;framework/guild&#45;core/pkg/agents/core/mocks.MockCostManager).RecordLLMCost | defined in mock_cost_manager.go:136&#10;at mock_cost_manager.go:143: calling [(*github.com/guild&#45;framework/guild&#45;core/pkg/agents/core/mocks.MockCostManager).TrackCost]">
<path fill="lightblue" stroke="black" stroke-width="1.5" d="M349.91,-464C349.91,-464 90.63,-464 90.63,-464 84.62,-464 78.62,-458 78.62,-452 78.62,-452 78.62,-440 78.62,-440 78.62,-434 84.62,-428 90.62,-428 90.62,-428 349.91,-428 349.91,-428 355.91,-428 361.91,-434 361.91,-440 361.91,-440 361.91,-452 361.91,-452 361.91,-458 355.91,-464 349.91,-464"/>
<text xml:space="preserve" text-anchor="middle" x="220.27" y="-441.32" font-family="Verdana" font-size="14.00">(*MockCostManager).RecordLLMCost</text>
</a>
</g>
</g>
<!-- (*github.com/guild&#45;framework/guild&#45;core/pkg/agents/core/mocks.MockCostManager).TrackCost -->
<g id="node8" class="node">
<title>(*github.com/guild&#45;framework/guild&#45;core/pkg/agents/core/mocks.MockCostManager).TrackCost</title>
<g id="a_node8"><a xlink:title="(*github.com/guild&#45;framework/guild&#45;core/pkg/agents/core/mocks.MockCostManager).TrackCost | defined in mock_cost_manager.go:38">
<path fill="lightblue" stroke="black" stroke-width="1.5" d="M779.71,-464C779.71,-464 558.67,-464 558.67,-464 552.67,-464 546.67,-458 546.67,-452 546.67,-452 546.67,-440 546.67,-440 546.67,-434 552.67,-428 558.67,-428 558.67,-428 779.71,-428 779.71,-428 785.71,-428 791.71,-434 791.71,-440 791.71,-440 791.71,-452 791.71,-452 791.71,-458 785.71,-464 779.71,-464"/>
<text xml:space="preserve" text-anchor="middle" x="669.19" y="-441.32" font-family="Verdana" font-size="14.00">(*MockCostManager).TrackCost</text>
</a>
</g>
</g>
<!-- (*github.com/guild&#45;framework/guild&#45;core/pkg/agents/core/mocks.MockCostManager).RecordLLMCost&#45;&gt;(*github.com/guild&#45;framework/guild&#45;core/pkg/agents/core/mocks.MockCostManager).TrackCost -->
<g id="edge2" class="edge">
<title>(*github.com/guild&#45;framework/guild&#45;core/pkg/agents/core/mocks.MockCostManager).RecordLLMCost&#45;&gt;(*github.com/guild&#45;framework/guild&#45;core/pkg/agents/core/mocks.MockCostManager).TrackCost</title>
<g id="a_edge2"><a xlink:title="at mock_cost_manager.go:143: calling [(*github.com/guild&#45;framework/guild&#45;core/pkg/agents/core/mocks.MockCostManager).TrackCost]">
<path fill="none" stroke="black" d="M362.37,-446C417.41,-446 480.21,-446 534.52,-446"/>
<polygon fill="black" stroke="black" points="534.46,-449.5 544.46,-446 534.46,-442.5 534.46,-449.5"/>
</a>
</g>
</g>
<!-- github.com/guild&#45;framework/guild&#45;core/pkg/agents/core/mocks.NewMockGuildArtisan -->
<g id="node9" class="node">
<title>github.com/guild&#45;framework/guild&#45;core/pkg/agents/core/mocks.NewMockGuildArtisan</title>
<g id="a_node9"><a xlink:title="github.com/guild&#45;framework/guild&#45;core/pkg/agents/core/mocks.NewMockGuildArtisan | defined in mock_agent.go:62&#10;at mock_agent.go:64: calling [github.com/guild&#45;framework/guild&#45;core/pkg/agents/core/mocks.NewMockAgent]&#10;at mock_agent.go:65: calling [(*github.com/guild&#45;framework/guild&#45;core/pkg/registry.DefaultToolRegistry).GetUnderlyingRegistry]&#10;at mock_agent.go:65: calling [github.com/guild&#45;framework/guild&#45;core/pkg/registry.NewToolRegistry]&#10;at mock_agent.go:67: calling [github.com/guild&#45;framework/guild&#45;core/pkg/agents/core/mocks.NewMockLLMClient]">
<path fill="lightblue" stroke="black" stroke-width="1.5" d="M295.54,-625C295.54,-625 145,-625 145,-625 139,-625 133,-619 133,-613 133,-613 133,-601 133,-601 133,-595 139,-589 145,-589 145,-589 295.54,-589 295.54,-589 301.54,-589 307.54,-595 307.54,-601 307.54,-601 307.54,-613 307.54,-613 307.54,-619 301.54,-625 295.54,-625"/>
<text xml:space="preserve" text-anchor="middle" x="220.27" y="-602.33" font-family="Verdana" font-size="14.00">NewMockGuildArtisan</text>
</a>
</g>
</g>
<!-- github.com/guild&#45;framework/guild&#45;core/pkg/agents/core/mocks.NewMockAgent -->
<g id="node10" class="node">
<title>github.com/guild&#45;framework/guild&#45;core/pkg/agents/core/mocks.NewMockAgent</title>
<g id="a_node10"><a xlink:title="github.com/guild&#45;framework/guild&#45;core/pkg/agents/core/mocks.NewMockAgent | defined in mock_agent.go:25">
<path fill="lightblue" stroke="black" stroke-width="1.5" d="M722.33,-666C722.33,-666 616.04,-666 616.04,-666 610.04,-666 604.04,-660 604.04,-654 604.04,-654 604.04,-642 604.04,-642 604.04,-636 610.04,-630 616.04,-630 616.04,-630 722.33,-630 722.33,-630 728.33,-630 734.33,-636 734.33,-642 734.33,-642 734.33,-654 734.33,-654 734.33,-660 728.33,-666 722.33,-666"/>
<text xml:space="preserve" text-anchor="middle" x="669.19" y="-643.33" font-family="Verdana" font-size="14.00">NewMockAgent</text>
</a>
</g>
</g>
<!-- github.com/guild&#45;framework/guild&#45;core/pkg/agents/core/mocks.NewMockGuildArtisan&#45;&gt;github.com/guild&#45;framework/guild&#45;core/pkg/agents/core/mocks.NewMockAgent -->
<g id="edge3" class="edge">
<title>github.com/guild&#45;framework/guild&#45;core/pkg/agents/core/mocks.NewMockGuildArtisan&#45;&gt;github.com/guild&#45;framework/guild&#45;core/pkg/agents/core/mocks.NewMockAgent</title>
<g id="a_edge3"><a xlink:title="at mock_agent.go:64: calling [github.com/guild&#45;framework/guild&#45;core/pkg/agents/core/mocks.NewMockAgent]">
<path fill="none" stroke="black" d="M308.23,-614.98C390.77,-622.55 513.56,-633.82 592.25,-641.03"/>
<polygon fill="black" stroke="black" points="591.74,-644.5 602.02,-641.93 592.38,-637.53 591.74,-644.5"/>
</a>
</g>
</g>
<!-- github.com/guild&#45;framework/guild&#45;core/pkg/agents/core/mocks.NewMockLLMClient -->
<g id="node11" class="node">
<title>github.com/guild&#45;framework/guild&#45;core/pkg/agents/core/mocks.NewMockLLMClient</title>
<g id="a_node11"><a xlink:title="github.com/guild&#45;framework/guild&#45;core/pkg/agents/core/mocks.NewMockLLMClient | defined in mock_llm_client.go:22">
<path fill="lightblue" stroke="black" stroke-width="1.5" d="M735.08,-727C735.08,-727 603.29,-727 603.29,-727 597.29,-727 591.29,-721 591.29,-715 591.29,-715 591.29,-703 591.29,-703 591.29,-697 597.29,-691 603.29,-691 603.29,-691 735.08,-691 735.08,-691 741.08,-691 747.08,-697 747.08,-703 747.08,-703 747.08,-715 747.08,-715 747.08,-721 741.08,-727 735.08,-727"/>
<text xml:space="preserve" text-anchor="middle" x="669.19" y="-704.33" font-family="Verdana" font-size="14.00">NewMockLLMClient</text>
</a>
</g>
</g>
<!-- github.com/guild&#45;framework/guild&#45;core/pkg/agents/core/mocks.NewMockGuildArtisan&#45;&gt;github.com/guild&#45;framework/guild&#45;core/pkg/agents/core/mocks.NewMockLLMClient -->
<g id="edge18" class="edge">
<title>github.com/guild&#45;framework/guild&#45;core/pkg/agents/core/mocks.NewMockGuildArtisan&#45;&gt;github.com/guild&#45;framework/guild&#45;core/pkg/agents/core/mocks.NewMockLLMClient</title>
<g id="a_edge18"><a xlink:title="at mock_agent.go:67: calling [github.com/guild&#45;framework/guild&#45;core/pkg/agents/core/mocks.NewMockLLMClient]">
<path fill="none" stroke="black" d="M284.27,-625.74C338.37,-641.39 418.62,-663.57 489.54,-679 518.7,-685.35 550.79,-691.11 579.64,-695.85"/>
<polygon fill="black" stroke="black" points="579.01,-699.3 589.44,-697.44 580.13,-692.39 579.01,-699.3"/>
</a>
</g>
</g>
<!-- github.com/guild&#45;framework/guild&#45;core/pkg/registry.NewToolRegistry -->
<g id="node17" class="node">
<title>github.com/guild&#45;framework/guild&#45;core/pkg/registry.NewToolRegistry</title>
<g id="a_node17"><a xlink:title="github.com/guild&#45;framework/guild&#45;core/pkg/registry.NewToolRegistry | defined in tool_registry.go:23">
<path fill="moccasin" stroke="black" stroke-width="1.5" d="M726.46,-525C726.46,-525 611.92,-525 611.92,-525 605.92,-525 599.92,-519 599.92,-513 599.92,-513 599.92,-501 599.92,-501 599.92,-495 605.92,-489 611.92,-489 611.92,-489 726.46,-489 726.46,-489 732.46,-489 738.46,-495 738.46,-501 738.46,-501 738.46,-513 738.46,-513 738.46,-519 732.46,-525 726.46,-525"/>
<text xml:space="preserve" text-anchor="middle" x="669.19" y="-502.32" font-family="Verdana" font-size="14.00">NewToolRegistry</text>
</a>
</g>
</g>
<!-- github.com/guild&#45;framework/guild&#45;core/pkg/agents/core/mocks.NewMockGuildArtisan&#45;&gt;github.com/guild&#45;framework/guild&#45;core/pkg/registry.NewToolRegistry -->
<g id="edge14" class="edge">
<title>github.com/guild&#45;framework/guild&#45;core/pkg/agents/core/mocks.NewMockGuildArtisan&#45;&gt;github.com/guild&#45;framework/guild&#45;core/pkg/registry.NewToolRegistry</title>
<g id="a_edge14"><a xlink:title="at mock_agent.go:65: calling [github.com/guild&#45;framework/guild&#45;core/pkg/registry.NewToolRegistry]">
<path fill="none" stroke="saddlebrown" d="M287.89,-588.28C341.96,-573.48 420.31,-552.89 489.54,-538 521.61,-531.11 557.17,-524.69 588.07,-519.5"/>
<polygon fill="saddlebrown" stroke="saddlebrown" points="588.44,-522.99 597.73,-517.89 587.29,-516.08 588.44,-522.99"/>
</a>
</g>
</g>
<!-- (*github.com/guild&#45;framework/guild&#45;core/pkg/registry.DefaultToolRegistry).GetUnderlyingRegistry -->
<g id="node18" class="node">
<title>(*github.com/guild&#45;framework/guild&#45;core/pkg/registry.DefaultToolRegistry).GetUnderlyingRegistry</title>
<g id="a_node18"><a xlink:title="(*github.com/guild&#45;framework/guild&#45;core/pkg/registry.DefaultToolRegistry).GetUnderlyingRegistry | defined in tool_registry.go:106">
<path fill="moccasin" stroke="black" stroke-width="1.5" d="M828.83,-586C828.83,-586 509.54,-586 509.54,-586 503.54,-586 497.54,-580 497.54,-574 497.54,-574 497.54,-562 497.54,-562 497.54,-556 503.54,-550 509.54,-550 509.54,-550 828.83,-550 828.83,-550 834.83,-550 840.83,-556 840.83,-562 840.83,-562 840.83,-574 840.83,-574 840.83,-580 834.83,-586 828.83,-586"/>
<text xml:space="preserve" text-anchor="middle" x="669.19" y="-563.33" font-family="Verdana" font-size="14.00">(*DefaultToolRegistry).GetUnderlyingRegistry</text>
</a>
</g>
</g>
<!-- github.com/guild&#45;framework/guild&#45;core/pkg/agents/core/mocks.NewMockGuildArtisan&#45;&gt;(*github.com/guild&#45;framework/guild&#45;core/pkg/registry.DefaultToolRegistry).GetUnderlyingRegistry -->
<g id="edge4" class="edge">
<title>github.com/guild&#45;framework/guild&#45;core/pkg/agents/core/mocks.NewMockGuildArtisan&#45;&gt;(*github.com/guild&#45;framework/guild&#45;core/pkg/registry.DefaultToolRegistry).GetUnderlyingRegistry</title>
<g id="a_edge4"><a xlink:title="at mock_agent.go:65: calling [(*github.com/guild&#45;framework/guild&#45;core/pkg/registry.DefaultToolRegistry).GetUnderlyingRegistry]">
<path fill="none" stroke="saddlebrown" d="M308.23,-599.41C358.68,-595.01 424.16,-589.3 485.41,-583.95"/>
<polygon fill="saddlebrown" stroke="saddlebrown" points="485.63,-587.44 495.29,-583.09 485.02,-580.47 485.63,-587.44"/>
</a>
</g>
</g>
</g>
</svg>
