<?xml version="1.0" encoding="UTF-8" standalone="no"?>
<!DOCTYPE svg PUBLIC "-//W3C//DTD SVG 1.1//EN"
 "http://www.w3.org/Graphics/SVG/1.1/DTD/svg11.dtd">
<!-- Generated by graphviz version 14.1.1 (20251213.1925)
 -->
<!-- Title: gocallvis Pages: 1 -->
<svg width="1257pt" height="421pt"
 viewBox="0.00 0.00 1257.00 421.00" xmlns="http://www.w3.org/2000/svg" xmlns:xlink="http://www.w3.org/1999/xlink">
<g id="graph0" class="graph" transform="scale(1 1) rotate(0) translate(0 421)">
<title>gocallvis</title>
<polygon fill="lightgray" stroke="none" points="0,0 0,-421 1256.62,-421 1256.62,0 0,0"/>
<g id="clust1" class="cluster">
<title>cluster_focus</title>
<polygon fill="#e6ecfa" stroke="black" stroke-width="0.5" points="8,-8 8,-413 1248.62,-413 1248.62,-8 8,-8"/>
<text xml:space="preserve" text-anchor="middle" x="628.31" y="-391.9" font-family="Arial" font-size="18.00">base</text>
</g>
<g id="clust2" class="cluster">
<title>cluster_github.com/guild&#45;framework/guild&#45;core/pkg/gerror</title>
<g id="a_clust2"><a xlink:href="/?f=github.com/guild-framework/guild-core/pkg/gerror" xlink:title="package: github.com/guild&#45;framework/guild&#45;core/pkg/gerror">
<polygon fill="lightyellow" stroke="black" stroke-width="0.8" points="529.67,-69 529.67,-332 777.96,-332 777.96,-69 529.67,-69"/>
<text xml:space="preserve" text-anchor="middle" x="653.81" y="-312.8" font-family="Tahoma bold" font-size="16.00">gerror</text>
</a>
</g>
</g>
<!-- (*github.com/guild&#45;framework/guild&#45;core/pkg/providers/base.OpenAICompatibleProvider).StreamChatCompletion -->
<g id="node1" class="node">
<title>(*github.com/guild&#45;framework/guild&#45;core/pkg/providers/base.OpenAICompatibleProvider).StreamChatCompletion</title>
<g id="a_node1"><a xlink:title="(*github.com/guild&#45;framework/guild&#45;core/pkg/providers/base.OpenAICompatibleProvider).StreamChatCompletion | defined in openai_compatible.go:140&#10;at openai_compatible.go:182: calling [(*github.com/guild&#45;framework/guild&#45;core/pkg/providers/base.OpenAICompatibleProvider).parseError]">
<path fill="lightblue" stroke="black" stroke-width="1.5" d="M842.33,-52C842.33,-52 465.29,-52 465.29,-52 459.29,-52 453.29,-46 453.29,-40 453.29,-40 453.29,-28 453.29,-28 453.29,-22 459.29,-16 465.29,-16 465.29,-16 842.33,-16 842.33,-16 848.33,-16 854.33,-22 854.33,-28 854.33,-28 854.33,-40 854.33,-40 854.33,-46 848.33,-52 842.33,-52"/>
<text xml:space="preserve" text-anchor="middle" x="653.81" y="-29.32" font-family="Verdana" font-size="14.00">(*OpenAICompatibleProvider).StreamChatCompletion</text>
</a>
</g>
</g>
<!-- (*github.com/guild&#45;framework/guild&#45;core/pkg/providers/base.OpenAICompatibleProvider).parseError -->
<g id="node2" class="node">
<title>(*github.com/guild&#45;framework/guild&#45;core/pkg/providers/base.OpenAICompatibleProvider).parseError</title>
<g id="a_node2"><a xlink:title="(*github.com/guild&#45;framework/guild&#45;core/pkg/providers/base.OpenAICompatibleProvider).parseError | defined in openai_compatible.go:285">
<path fill="lightblue" stroke="black" stroke-width="0.5" d="M1228.62,-139C1228.62,-139 939.33,-139 939.33,-139 933.33,-139 927.33,-133 927.33,-127 927.33,-127 927.33,-115 927.33,-115 927.33,-109 933.33,-103 939.33,-103 939.33,-103 1228.62,-103 1228.62,-103 1234.62,-103 1240.62,-109 1240.62,-115 1240.62,-115 1240.62,-127 1240.62,-127 1240.62,-133 1234.62,-139 1228.62,-139"/>
<text xml:space="preserve" text-anchor="middle" x="1083.98" y="-116.33" font-family="Verdana" font-size="14.00">(*OpenAICompatibleProvider).parseError</text>
</a>
</g>
</g>
<!-- (*github.com/guild&#45;framework/guild&#45;core/pkg/providers/base.OpenAICompatibleProvider).StreamChatCompletion&#45;&gt;(*github.com/guild&#45;framework/guild&#45;core/pkg/providers/base.OpenAICompatibleProvider).parseError -->
<g id="edge5" class="edge">
<title>(*github.com/guild&#45;framework/guild&#45;core/pkg/providers/base.OpenAICompatibleProvider).StreamChatCompletion&#45;&gt;(*github.com/guild&#45;framework/guild&#45;core/pkg/providers/base.OpenAICompatibleProvider).parseError</title>
<g id="a_edge5"><a xlink:title="at openai_compatible.go:182: calling [(*github.com/guild&#45;framework/guild&#45;core/pkg/providers/base.OpenAICompatibleProvider).parseError]">
<path fill="none" stroke="black" d="M796.55,-52.74C816.02,-55.86 835.71,-59.29 854.33,-63 905.98,-73.28 963.44,-87.86 1007.84,-99.84"/>
<polygon fill="black" stroke="black" points="1006.8,-103.19 1017.37,-102.43 1008.63,-96.43 1006.8,-103.19"/>
</a>
</g>
</g>
<!-- (*github.com/guild&#45;framework/guild&#45;core/pkg/providers/base.openAIStream).Next -->
<g id="node3" class="node">
<title>(*github.com/guild&#45;framework/guild&#45;core/pkg/providers/base.openAIStream).Next</title>
<g id="a_node3"><a xlink:title="(*github.com/guild&#45;framework/guild&#45;core/pkg/providers/base.openAIStream).Next | defined in openai_compatible.go:335&#10;at openai_compatible.go:365: calling [github.com/guild&#45;framework/guild&#45;core/pkg/gerror.Wrap]&#10;at openai_compatible.go:367: calling [(*github.com/guild&#45;framework/guild&#45;core/pkg/gerror.GuildError).WithOperation]&#10;at openai_compatible.go:366: calling [(*github.com/guild&#45;framework/guild&#45;core/pkg/gerror.GuildError).WithComponent]">
<path fill="lightblue" stroke="black" stroke-width="1.5" d="M277.54,-93C277.54,-93 118.75,-93 118.75,-93 112.75,-93 106.75,-87 106.75,-81 106.75,-81 106.75,-69 106.75,-69 106.75,-63 112.75,-57 118.75,-57 118.75,-57 277.54,-57 277.54,-57 283.54,-57 289.54,-63 289.54,-69 289.54,-69 289.54,-81 289.54,-81 289.54,-87 283.54,-93 277.54,-93"/>
<text xml:space="preserve" text-anchor="middle" x="198.14" y="-70.33" font-family="Verdana" font-size="14.00">(*openAIStream).Next</text>
</a>
</g>
</g>
<!-- github.com/guild&#45;framework/guild&#45;core/pkg/gerror.Wrap -->
<g id="node7" class="node">
<title>github.com/guild&#45;framework/guild&#45;core/pkg/gerror.Wrap</title>
<g id="a_node7"><a xlink:title="github.com/guild&#45;framework/guild&#45;core/pkg/gerror.Wrap | defined in errors.go:223">
<path fill="moccasin" stroke="black" stroke-width="1.5" d="M671.71,-235C671.71,-235 635.92,-235 635.92,-235 629.92,-235 623.92,-229 623.92,-223 623.92,-223 623.92,-211 623.92,-211 623.92,-205 629.92,-199 635.92,-199 635.92,-199 671.71,-199 671.71,-199 677.71,-199 683.71,-205 683.71,-211 683.71,-211 683.71,-223 683.71,-223 683.71,-229 677.71,-235 671.71,-235"/>
<text xml:space="preserve" text-anchor="middle" x="653.81" y="-212.32" font-family="Verdana" font-size="14.00">Wrap</text>
</a>
</g>
</g>
<!-- (*github.com/guild&#45;framework/guild&#45;core/pkg/providers/base.openAIStream).Next&#45;&gt;github.com/guild&#45;framework/guild&#45;core/pkg/gerror.Wrap -->
<g id="edge1" class="edge">
<title>(*github.com/guild&#45;framework/guild&#45;core/pkg/providers/base.openAIStream).Next&#45;&gt;github.com/guild&#45;framework/guild&#45;core/pkg/gerror.Wrap</title>
<g id="a_edge1"><a xlink:title="at openai_compatible.go:365: calling [github.com/guild&#45;framework/guild&#45;core/pkg/gerror.Wrap]">
<path fill="none" stroke="saddlebrown" d="M243.6,-93.71C280.37,-109.29 333.89,-132.21 380.29,-153 412.95,-167.63 419.02,-176.68 453.29,-187 506.86,-203.14 571.26,-210.82 612.11,-214.31"/>
<polygon fill="saddlebrown" stroke="saddlebrown" points="611.74,-217.79 621.98,-215.1 612.3,-210.81 611.74,-217.79"/>
</a>
</g>
</g>
<!-- (*github.com/guild&#45;framework/guild&#45;core/pkg/gerror.GuildError).WithComponent -->
<g id="node8" class="node">
<title>(*github.com/guild&#45;framework/guild&#45;core/pkg/gerror.GuildError).WithComponent</title>
<g id="a_node8"><a xlink:title="(*github.com/guild&#45;framework/guild&#45;core/pkg/gerror.GuildError).WithComponent | defined in errors.go:156">
<path fill="moccasin" stroke="black" stroke-width="1.5" d="M757.96,-113C757.96,-113 549.67,-113 549.67,-113 543.67,-113 537.67,-107 537.67,-101 537.67,-101 537.67,-89 537.67,-89 537.67,-83 543.67,-77 549.67,-77 549.67,-77 757.96,-77 757.96,-77 763.96,-77 769.96,-83 769.96,-89 769.96,-89 769.96,-101 769.96,-101 769.96,-107 763.96,-113 757.96,-113"/>
<text xml:space="preserve" text-anchor="middle" x="653.81" y="-90.33" font-family="Verdana" font-size="14.00">(*GuildError).WithComponent</text>
</a>
</g>
</g>
<!-- (*github.com/guild&#45;framework/guild&#45;core/pkg/providers/base.openAIStream).Next&#45;&gt;(*github.com/guild&#45;framework/guild&#45;core/pkg/gerror.GuildError).WithComponent -->
<g id="edge9" class="edge">
<title>(*github.com/guild&#45;framework/guild&#45;core/pkg/providers/base.openAIStream).Next&#45;&gt;(*github.com/guild&#45;framework/guild&#45;core/pkg/gerror.GuildError).WithComponent</title>
<g id="a_edge9"><a xlink:title="at openai_compatible.go:366: calling [(*github.com/guild&#45;framework/guild&#45;core/pkg/gerror.GuildError).WithComponent]">
<path fill="none" stroke="saddlebrown" d="M290.25,-71.41C329.09,-70.05 374.9,-68.67 416.29,-68 432.88,-67.73 436.82,-70.95 453.29,-73 476.65,-75.91 501.58,-78.82 525.61,-81.52"/>
<polygon fill="saddlebrown" stroke="saddlebrown" points="525.12,-84.98 535.45,-82.62 525.9,-78.03 525.12,-84.98"/>
</a>
</g>
</g>
<!-- (*github.com/guild&#45;framework/guild&#45;core/pkg/gerror.GuildError).WithOperation -->
<g id="node9" class="node">
<title>(*github.com/guild&#45;framework/guild&#45;core/pkg/gerror.GuildError).WithOperation</title>
<g id="a_node9"><a xlink:title="(*github.com/guild&#45;framework/guild&#45;core/pkg/gerror.GuildError).WithOperation | defined in errors.go:162">
<path fill="moccasin" stroke="black" stroke-width="1.5" d="M752.33,-174C752.33,-174 555.29,-174 555.29,-174 549.29,-174 543.29,-168 543.29,-162 543.29,-162 543.29,-150 543.29,-150 543.29,-144 549.29,-138 555.29,-138 555.29,-138 752.33,-138 752.33,-138 758.33,-138 764.33,-144 764.33,-150 764.33,-150 764.33,-162 764.33,-162 764.33,-168 758.33,-174 752.33,-174"/>
<text xml:space="preserve" text-anchor="middle" x="653.81" y="-151.32" font-family="Verdana" font-size="14.00">(*GuildError).WithOperation</text>
</a>
</g>
</g>
<!-- (*github.com/guild&#45;framework/guild&#45;core/pkg/providers/base.openAIStream).Next&#45;&gt;(*github.com/guild&#45;framework/guild&#45;core/pkg/gerror.GuildError).WithOperation -->
<g id="edge2" class="edge">
<title>(*github.com/guild&#45;framework/guild&#45;core/pkg/providers/base.openAIStream).Next&#45;&gt;(*github.com/guild&#45;framework/guild&#45;core/pkg/gerror.GuildError).WithOperation</title>
<g id="a_edge2"><a xlink:title="at openai_compatible.go:367: calling [(*github.com/guild&#45;framework/guild&#45;core/pkg/gerror.GuildError).WithOperation]">
<path fill="none" stroke="saddlebrown" d="M290.27,-71.04C330.59,-72.36 377.73,-78.22 417.29,-95 436.73,-103.25 434.1,-117.2 453.29,-126 477.46,-137.09 504.83,-144.24 531.39,-148.81"/>
<polygon fill="saddlebrown" stroke="saddlebrown" points="530.79,-152.26 541.22,-150.38 531.89,-145.34 530.79,-152.26"/>
</a>
</g>
</g>
<!-- (*github.com/guild&#45;framework/guild&#45;core/pkg/providers/base.OpenAICompatibleProvider).makeRequest -->
<g id="node4" class="node">
<title>(*github.com/guild&#45;framework/guild&#45;core/pkg/providers/base.OpenAICompatibleProvider).makeRequest</title>
<g id="a_node4"><a xlink:title="(*github.com/guild&#45;framework/guild&#45;core/pkg/providers/base.OpenAICompatibleProvider).makeRequest | defined in openai_compatible.go:250&#10;at openai_compatible.go:278: calling [(*github.com/guild&#45;framework/guild&#45;core/pkg/providers/base.OpenAICompatibleProvider).parseError]">
<path fill="lightblue" stroke="black" stroke-width="0.5" d="M808.96,-376C808.96,-376 498.67,-376 498.67,-376 492.67,-376 486.67,-370 486.67,-364 486.67,-364 486.67,-352 486.67,-352 486.67,-346 492.67,-340 498.67,-340 498.67,-340 808.96,-340 808.96,-340 814.96,-340 820.96,-346 820.96,-352 820.96,-352 820.96,-364 820.96,-364 820.96,-370 814.96,-376 808.96,-376"/>
<text xml:space="preserve" text-anchor="middle" x="653.81" y="-353.32" font-family="Verdana" font-size="14.00">(*OpenAICompatibleProvider).makeRequest</text>
</a>
</g>
</g>
<!-- (*github.com/guild&#45;framework/guild&#45;core/pkg/providers/base.OpenAICompatibleProvider).makeRequest&#45;&gt;(*github.com/guild&#45;framework/guild&#45;core/pkg/providers/base.OpenAICompatibleProvider).parseError -->
<g id="edge7" class="edge">
<title>(*github.com/guild&#45;framework/guild&#45;core/pkg/providers/base.OpenAICompatibleProvider).makeRequest&#45;&gt;(*github.com/guild&#45;framework/guild&#45;core/pkg/providers/base.OpenAICompatibleProvider).parseError</title>
<g id="a_edge7"><a xlink:title="at openai_compatible.go:278: calling [(*github.com/guild&#45;framework/guild&#45;core/pkg/providers/base.OpenAICompatibleProvider).parseError]">
<path fill="none" stroke="black" d="M820.95,-348.11C832.49,-344.88 843.73,-340.89 854.33,-336 948.06,-292.76 1028.28,-195.77 1063.66,-148.27"/>
<polygon fill="black" stroke="black" points="1066.33,-150.54 1069.42,-140.41 1060.69,-146.4 1066.33,-150.54"/>
</a>
</g>
</g>
<!-- (*github.com/guild&#45;framework/guild&#45;core/pkg/providers/base.OpenAICompatibleProvider).CreateEmbedding -->
<g id="node5" class="node">
<title>(*github.com/guild&#45;framework/guild&#45;core/pkg/providers/base.OpenAICompatibleProvider).CreateEmbedding</title>
<g id="a_node5"><a xlink:title="(*github.com/guild&#45;framework/guild&#45;core/pkg/providers/base.OpenAICompatibleProvider).CreateEmbedding | defined in openai_compatible.go:193&#10;at openai_compatible.go:200: calling [(*github.com/guild&#45;framework/guild&#45;core/pkg/providers/base.OpenAICompatibleProvider).makeRequest]&#10;at openai_compatible.go:219: calling [github.com/guild&#45;framework/guild&#45;core/pkg/gerror.Wrap]&#10;at openai_compatible.go:220: calling [(*github.com/guild&#45;framework/guild&#45;core/pkg/gerror.GuildError).WithComponent]&#10;at openai_compatible.go:221: calling [(*github.com/guild&#45;framework/guild&#45;core/pkg/gerror.GuildError).WithOperation]&#10;at openai_compatible.go:222: calling [(*github.com/guild&#45;framework/guild&#45;core/pkg/gerror.GuildError).WithDetails]">
<path fill="lightblue" stroke="black" stroke-width="1.5" d="M368.29,-201C368.29,-201 28,-201 28,-201 22,-201 16,-195 16,-189 16,-189 16,-177 16,-177 16,-171 22,-165 28,-165 28,-165 368.29,-165 368.29,-165 374.29,-165 380.29,-171 380.29,-177 380.29,-177 380.29,-189 380.29,-189 380.29,-195 374.29,-201 368.29,-201"/>
<text xml:space="preserve" text-anchor="middle" x="198.14" y="-178.32" font-family="Verdana" font-size="14.00">(*OpenAICompatibleProvider).CreateEmbedding</text>
</a>
</g>
</g>
<!-- (*github.com/guild&#45;framework/guild&#45;core/pkg/providers/base.OpenAICompatibleProvider).CreateEmbedding&#45;&gt;(*github.com/guild&#45;framework/guild&#45;core/pkg/providers/base.OpenAICompatibleProvider).makeRequest -->
<g id="edge10" class="edge">
<title>(*github.com/guild&#45;framework/guild&#45;core/pkg/providers/base.OpenAICompatibleProvider).CreateEmbedding&#45;&gt;(*github.com/guild&#45;framework/guild&#45;core/pkg/providers/base.OpenAICompatibleProvider).makeRequest</title>
<g id="a_edge10"><a xlink:title="at openai_compatible.go:200: calling [(*github.com/guild&#45;framework/guild&#45;core/pkg/providers/base.OpenAICompatibleProvider).makeRequest]">
<path fill="none" stroke="black" d="M232.53,-201.61C269.13,-222.18 329.42,-256.57 380.29,-288 413.32,-308.41 416.76,-322.84 453.29,-336 460.45,-338.58 467.84,-340.88 475.37,-342.93"/>
<polygon fill="black" stroke="black" points="474.47,-346.31 485.02,-345.38 476.19,-339.52 474.47,-346.31"/>
</a>
</g>
</g>
<!-- (*github.com/guild&#45;framework/guild&#45;core/pkg/providers/base.OpenAICompatibleProvider).CreateEmbedding&#45;&gt;github.com/guild&#45;framework/guild&#45;core/pkg/gerror.Wrap -->
<g id="edge11" class="edge">
<title>(*github.com/guild&#45;framework/guild&#45;core/pkg/providers/base.OpenAICompatibleProvider).CreateEmbedding&#45;&gt;github.com/guild&#45;framework/guild&#45;core/pkg/gerror.Wrap</title>
<g id="a_edge11"><a xlink:title="at openai_compatible.go:219: calling [github.com/guild&#45;framework/guild&#45;core/pkg/gerror.Wrap]">
<path fill="none" stroke="saddlebrown" d="M380.73,-196.61C465.85,-202.99 559.84,-210.03 612.07,-213.95"/>
<polygon fill="saddlebrown" stroke="saddlebrown" points="611.74,-217.43 621.98,-214.69 612.27,-210.45 611.74,-217.43"/>
</a>
</g>
</g>
<!-- (*github.com/guild&#45;framework/guild&#45;core/pkg/providers/base.OpenAICompatibleProvider).CreateEmbedding&#45;&gt;(*github.com/guild&#45;framework/guild&#45;core/pkg/gerror.GuildError).WithComponent -->
<g id="edge12" class="edge">
<title>(*github.com/guild&#45;framework/guild&#45;core/pkg/providers/base.OpenAICompatibleProvider).CreateEmbedding&#45;&gt;(*github.com/guild&#45;framework/guild&#45;core/pkg/gerror.GuildError).WithComponent</title>
<g id="a_edge12"><a xlink:title="at openai_compatible.go:220: calling [(*github.com/guild&#45;framework/guild&#45;core/pkg/gerror.GuildError).WithComponent]">
<path fill="none" stroke="saddlebrown" d="M276.45,-164.26C326.67,-152.43 393.65,-137.31 453.29,-126 476.74,-121.55 501.82,-117.28 526.01,-113.4"/>
<polygon fill="saddlebrown" stroke="saddlebrown" points="526.24,-116.91 535.56,-111.89 525.14,-110 526.24,-116.91"/>
</a>
</g>
</g>
<!-- (*github.com/guild&#45;framework/guild&#45;core/pkg/providers/base.OpenAICompatibleProvider).CreateEmbedding&#45;&gt;(*github.com/guild&#45;framework/guild&#45;core/pkg/gerror.GuildError).WithOperation -->
<g id="edge13" class="edge">
<title>(*github.com/guild&#45;framework/guild&#45;core/pkg/providers/base.OpenAICompatibleProvider).CreateEmbedding&#45;&gt;(*github.com/guild&#45;framework/guild&#45;core/pkg/gerror.GuildError).WithOperation</title>
<g id="a_edge13"><a xlink:title="at openai_compatible.go:221: calling [(*github.com/guild&#45;framework/guild&#45;core/pkg/gerror.GuildError).WithOperation]">
<path fill="none" stroke="saddlebrown" d="M380.73,-172.19C431.43,-169.18 485.27,-165.97 531.57,-163.22"/>
<polygon fill="saddlebrown" stroke="saddlebrown" points="531.57,-166.72 541.35,-162.63 531.15,-159.73 531.57,-166.72"/>
</a>
</g>
</g>
<!-- (*github.com/guild&#45;framework/guild&#45;core/pkg/gerror.GuildError).WithDetails -->
<g id="node10" class="node">
<title>(*github.com/guild&#45;framework/guild&#45;core/pkg/gerror.GuildError).WithDetails</title>
<g id="a_node10"><a xlink:title="(*github.com/guild&#45;framework/guild&#45;core/pkg/gerror.GuildError).WithDetails | defined in errors.go:147">
<path fill="moccasin" stroke="black" stroke-width="1.5" d="M741.46,-296C741.46,-296 566.17,-296 566.17,-296 560.17,-296 554.17,-290 554.17,-284 554.17,-284 554.17,-272 554.17,-272 554.17,-266 560.17,-260 566.17,-260 566.17,-260 741.46,-260 741.46,-260 747.46,-260 753.46,-266 753.46,-272 753.46,-272 753.46,-284 753.46,-284 753.46,-290 747.46,-296 741.46,-296"/>
<text xml:space="preserve" text-anchor="middle" x="653.81" y="-273.32" font-family="Verdana" font-size="14.00">(*GuildError).WithDetails</text>
</a>
</g>
</g>
<!-- (*github.com/guild&#45;framework/guild&#45;core/pkg/providers/base.OpenAICompatibleProvider).CreateEmbedding&#45;&gt;(*github.com/guild&#45;framework/guild&#45;core/pkg/gerror.GuildError).WithDetails -->
<g id="edge14" class="edge">
<title>(*github.com/guild&#45;framework/guild&#45;core/pkg/providers/base.OpenAICompatibleProvider).CreateEmbedding&#45;&gt;(*github.com/guild&#45;framework/guild&#45;core/pkg/gerror.GuildError).WithDetails</title>
<g id="a_edge14"><a xlink:title="at openai_compatible.go:222: calling [(*github.com/guild&#45;framework/guild&#45;core/pkg/gerror.GuildError).WithDetails]">
<path fill="none" stroke="saddlebrown" d="M312.18,-201.72C346.44,-208.89 383.85,-218.25 417.29,-230 434.17,-235.93 436.23,-242.6 453.29,-248 481.57,-256.95 512.97,-263.26 542.34,-267.7"/>
<polygon fill="saddlebrown" stroke="saddlebrown" points="541.59,-271.13 551.98,-269.09 542.59,-264.2 541.59,-271.13"/>
</a>
</g>
</g>
<!-- (*github.com/guild&#45;framework/guild&#45;core/pkg/providers/base.OpenAICompatibleProvider).ChatCompletion -->
<g id="node6" class="node">
<title>(*github.com/guild&#45;framework/guild&#45;core/pkg/providers/base.OpenAICompatibleProvider).ChatCompletion</title>
<g id="a_node6"><a xlink:title="(*github.com/guild&#45;framework/guild&#45;core/pkg/providers/base.OpenAICompatibleProvider).ChatCompletion | defined in openai_compatible.go:50&#10;at openai_compatible.go:109: calling [(*github.com/guild&#45;framework/guild&#45;core/pkg/gerror.GuildError).WithComponent]&#10;at openai_compatible.go:110: calling [(*github.com/guild&#45;framework/guild&#45;core/pkg/gerror.GuildError).WithOperation]&#10;at openai_compatible.go:111: calling [(*github.com/guild&#45;framework/guild&#45;core/pkg/gerror.GuildError).WithDetails]&#10;at openai_compatible.go:83: calling [(*github.com/guild&#45;framework/guild&#45;core/pkg/providers/base.OpenAICompatibleProvider).makeRequest]&#10;at openai_compatible.go:108: calling [github.com/guild&#45;framework/guild&#45;core/pkg/gerror.Wrap]">
<path fill="lightblue" stroke="black" stroke-width="1.5" d="M361.16,-336C361.16,-336 35.13,-336 35.13,-336 29.12,-336 23.12,-330 23.12,-324 23.12,-324 23.12,-312 23.12,-312 23.12,-306 29.12,-300 35.12,-300 35.12,-300 361.16,-300 361.16,-300 367.16,-300 373.16,-306 373.16,-312 373.16,-312 373.16,-324 373.16,-324 373.16,-330 367.16,-336 361.16,-336"/>
<text xml:space="preserve" text-anchor="middle" x="198.14" y="-313.32" font-family="Verdana" font-size="14.00">(*OpenAICompatibleProvider).ChatCompletion</text>
</a>
</g>
</g>
<!-- (*github.com/guild&#45;framework/guild&#45;core/pkg/providers/base.OpenAICompatibleProvider).ChatCompletion&#45;&gt;(*github.com/guild&#45;framework/guild&#45;core/pkg/providers/base.OpenAICompatibleProvider).makeRequest -->
<g id="edge8" class="edge">
<title>(*github.com/guild&#45;framework/guild&#45;core/pkg/providers/base.OpenAICompatibleProvider).ChatCompletion&#45;&gt;(*github.com/guild&#45;framework/guild&#45;core/pkg/providers/base.OpenAICompatibleProvider).makeRequest</title>
<g id="a_edge8"><a xlink:title="at openai_compatible.go:83: calling [(*github.com/guild&#45;framework/guild&#45;core/pkg/providers/base.OpenAICompatibleProvider).makeRequest]">
<path fill="none" stroke="black" d="M373.89,-333.41C407.2,-336.34 442.08,-339.42 475.46,-342.36"/>
<polygon fill="black" stroke="black" points="474.95,-345.83 485.22,-343.22 475.56,-338.86 474.95,-345.83"/>
</a>
</g>
</g>
<!-- (*github.com/guild&#45;framework/guild&#45;core/pkg/providers/base.OpenAICompatibleProvider).ChatCompletion&#45;&gt;github.com/guild&#45;framework/guild&#45;core/pkg/gerror.Wrap -->
<g id="edge15" class="edge">
<title>(*github.com/guild&#45;framework/guild&#45;core/pkg/providers/base.OpenAICompatibleProvider).ChatCompletion&#45;&gt;github.com/guild&#45;framework/guild&#45;core/pkg/gerror.Wrap</title>
<g id="a_edge15"><a xlink:title="at openai_compatible.go:108: calling [github.com/guild&#45;framework/guild&#45;core/pkg/gerror.Wrap]">
<path fill="none" stroke="saddlebrown" d="M373.65,-315.74C388.95,-311.51 403.75,-305.74 417.29,-298 441.07,-284.42 429.95,-262.32 453.29,-248 501.9,-218.17 569.31,-213.73 611.99,-214.46"/>
<polygon fill="saddlebrown" stroke="saddlebrown" points="611.73,-217.96 621.83,-214.75 611.93,-210.96 611.73,-217.96"/>
</a>
</g>
</g>
<!-- (*github.com/guild&#45;framework/guild&#45;core/pkg/providers/base.OpenAICompatibleProvider).ChatCompletion&#45;&gt;(*github.com/guild&#45;framework/guild&#45;core/pkg/gerror.GuildError).WithComponent -->
<g id="edge3" class="edge">
<title>(*github.com/guild&#45;framework/guild&#45;core/pkg/providers/base.OpenAICompatibleProvider).ChatCompletion&#45;&gt;(*github.com/guild&#45;framework/guild&#45;core/pkg/gerror.GuildError).WithComponent</title>
<g id="a_edge3"><a xlink:title="at openai_compatible.go:109: calling [(*github.com/guild&#45;framework/guild&#45;core/pkg/gerror.GuildError).WithComponent]">
<path fill="none" stroke="saddlebrown" d="M241.03,-299.29C279.58,-280.89 337.15,-250.32 380.29,-214 419.17,-181.27 409.1,-151.08 453.29,-126 475.27,-113.53 500.68,-105.62 525.87,-100.7"/>
<polygon fill="saddlebrown" stroke="saddlebrown" points="526.3,-104.18 535.53,-98.97 525.07,-97.29 526.3,-104.18"/>
</a>
</g>
</g>
<!-- (*github.com/guild&#45;framework/guild&#45;core/pkg/providers/base.OpenAICompatibleProvider).ChatCompletion&#45;&gt;(*github.com/guild&#45;framework/guild&#45;core/pkg/gerror.GuildError).WithOperation -->
<g id="edge4" class="edge">
<title>(*github.com/guild&#45;framework/guild&#45;core/pkg/providers/base.OpenAICompatibleProvider).ChatCompletion&#45;&gt;(*github.com/guild&#45;framework/guild&#45;core/pkg/gerror.GuildError).WithOperation</title>
<g id="a_edge4"><a xlink:title="at openai_compatible.go:110: calling [(*github.com/guild&#45;framework/guild&#45;core/pkg/gerror.GuildError).WithOperation]">
<path fill="none" stroke="saddlebrown" d="M367.36,-299.29C385.43,-292.33 402.56,-283.13 417.29,-271 448.64,-245.18 421.2,-211.9 453.29,-187 475.6,-169.69 503.62,-160.2 531.56,-155.33"/>
<polygon fill="saddlebrown" stroke="saddlebrown" points="531.81,-158.83 541.17,-153.85 530.75,-151.91 531.81,-158.83"/>
</a>
</g>
</g>
<!-- (*github.com/guild&#45;framework/guild&#45;core/pkg/providers/base.OpenAICompatibleProvider).ChatCompletion&#45;&gt;(*github.com/guild&#45;framework/guild&#45;core/pkg/gerror.GuildError).WithDetails -->
<g id="edge6" class="edge">
<title>(*github.com/guild&#45;framework/guild&#45;core/pkg/providers/base.OpenAICompatibleProvider).ChatCompletion&#45;&gt;(*github.com/guild&#45;framework/guild&#45;core/pkg/gerror.GuildError).WithDetails</title>
<g id="a_edge6"><a xlink:title="at openai_compatible.go:111: calling [(*github.com/guild&#45;framework/guild&#45;core/pkg/gerror.GuildError).WithDetails]">
<path fill="none" stroke="saddlebrown" d="M373.65,-324.12C388.07,-324.47 402.43,-324.78 416.29,-325 436.13,-325.32 434.7,-306.96 453.29,-300 481.21,-289.54 512.76,-283.61 542.39,-280.36"/>
<polygon fill="saddlebrown" stroke="saddlebrown" points="542.53,-283.86 552.14,-279.39 541.84,-276.9 542.53,-283.86"/>
</a>
</g>
</g>
</g>
</svg>
