<?xml version="1.0" encoding="UTF-8" standalone="no"?>
<!DOCTYPE svg PUBLIC "-//W3C//DTD SVG 1.1//EN"
 "http://www.w3.org/Graphics/SVG/1.1/DTD/svg11.dtd">
<!-- Generated by graphviz version 14.1.1 (20251213.1925)
 -->
<!-- Title: gocallvis Pages: 1 -->
<svg width="1082pt" height="530pt"
 viewBox="0.00 0.00 1082.00 530.00" xmlns="http://www.w3.org/2000/svg" xmlns:xlink="http://www.w3.org/1999/xlink">
<g id="graph0" class="graph" transform="scale(1 1) rotate(0) translate(0 530)">
<title>gocallvis</title>
<polygon fill="lightgray" stroke="none" points="0,0 0,-530 1082.41,-530 1082.41,0 0,0"/>
<g id="clust1" class="cluster">
<title>cluster_focus</title>
<polygon fill="#e6ecfa" stroke="black" stroke-width="0.5" points="8,-8 8,-522 1074.41,-522 1074.41,-8 8,-8"/>
<text xml:space="preserve" text-anchor="middle" x="541.2" y="-500.9" font-family="Arial" font-size="18.00">writers</text>
</g>
<g id="clust2" class="cluster">
<title>cluster_github.com/guild&#45;framework/guild&#45;core/pkg/gerror</title>
<g id="a_clust2"><a xlink:href="/?f=github.com/guild-framework/guild-core/pkg/gerror" xlink:title="package: github.com/guild&#45;framework/guild&#45;core/pkg/gerror">
<polygon fill="lightyellow" stroke="black" stroke-width="0.8" points="851.12,-93 851.12,-295 1066.41,-295 1066.41,-93 851.12,-93"/>
<text xml:space="preserve" text-anchor="middle" x="958.76" y="-275.8" font-family="Tahoma bold" font-size="16.00">gerror</text>
</a>
</g>
</g>
<!-- (*github.com/guild&#45;framework/guild&#45;core/pkg/logging/writers.RotatingWriter).rotate -->
<g id="node1" class="node">
<title>(*github.com/guild&#45;framework/guild&#45;core/pkg/logging/writers.RotatingWriter).rotate</title>
<g id="a_node1"><a xlink:title="(*github.com/guild&#45;framework/guild&#45;core/pkg/logging/writers.RotatingWriter).rotate | defined in rotating.go:119&#10;at rotating.go:148: calling [(*github.com/guild&#45;framework/guild&#45;core/pkg/logging/writers.RotatingWriter).openFile]&#10;at rotating.go:156: calling [(*github.com/guild&#45;framework/guild&#45;core/pkg/logging/writers.RotatingWriter).cleanup]&#10;at rotating.go:138: calling [(*github.com/guild&#45;framework/guild&#45;core/pkg/gerror.GuildError).WithDetails]&#10;at rotating.go:139: calling [(*github.com/guild&#45;framework/guild&#45;core/pkg/gerror.GuildError).WithDetails]&#10;at rotating.go:123: calling [github.com/guild&#45;framework/guild&#45;core/pkg/gerror.Wrap]&#10;at rotating.go:137: calling [github.com/guild&#45;framework/guild&#45;core/pkg/gerror.Wrap]&#10;at rotating.go:144: calling [(*github.com/guild&#45;framework/guild&#45;core/pkg/logging/writers.RotatingWriter).compressFile]">
<path fill="lightblue" stroke="black" stroke-width="0.5" d="M456.08,-241C456.08,-241 288.29,-241 288.29,-241 282.29,-241 276.29,-235 276.29,-229 276.29,-229 276.29,-217 276.29,-217 276.29,-211 282.29,-205 288.29,-205 288.29,-205 456.08,-205 456.08,-205 462.08,-205 468.08,-211 468.08,-217 468.08,-217 468.08,-229 468.08,-229 468.08,-235 462.08,-241 456.08,-241"/>
<text xml:space="preserve" text-anchor="middle" x="372.18" y="-218.32" font-family="Verdana" font-size="14.00">(*RotatingWriter).rotate</text>
</a>
</g>
</g>
<!-- (*github.com/guild&#45;framework/guild&#45;core/pkg/logging/writers.RotatingWriter).compressFile -->
<g id="node2" class="node">
<title>(*github.com/guild&#45;framework/guild&#45;core/pkg/logging/writers.RotatingWriter).compressFile</title>
<g id="a_node2"><a xlink:title="(*github.com/guild&#45;framework/guild&#45;core/pkg/logging/writers.RotatingWriter).compressFile | defined in rotating.go:162">
<path fill="lightblue" stroke="black" stroke-width="0.5" d="M771.12,-228C771.12,-228 553.08,-228 553.08,-228 547.08,-228 541.08,-222 541.08,-216 541.08,-216 541.08,-204 541.08,-204 541.08,-198 547.08,-192 553.08,-192 553.08,-192 771.12,-192 771.12,-192 777.12,-192 783.12,-198 783.12,-204 783.12,-204 783.12,-216 783.12,-216 783.12,-222 777.12,-228 771.12,-228"/>
<text xml:space="preserve" text-anchor="middle" x="662.1" y="-205.32" font-family="Verdana" font-size="14.00">(*RotatingWriter).compressFile</text>
</a>
</g>
</g>
<!-- (*github.com/guild&#45;framework/guild&#45;core/pkg/logging/writers.RotatingWriter).rotate&#45;&gt;(*github.com/guild&#45;framework/guild&#45;core/pkg/logging/writers.RotatingWriter).compressFile -->
<g id="edge18" class="edge">
<title>(*github.com/guild&#45;framework/guild&#45;core/pkg/logging/writers.RotatingWriter).rotate&#45;&gt;(*github.com/guild&#45;framework/guild&#45;core/pkg/logging/writers.RotatingWriter).compressFile</title>
<g id="a_edge18"><a xlink:title="at rotating.go:144: calling [(*github.com/guild&#45;framework/guild&#45;core/pkg/logging/writers.RotatingWriter).compressFile]">
<path fill="none" stroke="black" d="M468.26,-218.71C483.52,-218.02 499.62,-217.29 515.74,-216.56"/>
<polygon fill="black" stroke="black" points="529.63,-219.44 539.46,-215.49 529.31,-212.45 529.63,-219.44"/>
<polyline fill="none" stroke="black" points="528.97,-215.97 523.97,-216.19"/>
<ellipse fill="none" stroke="black" cx="519.48" cy="-216.39" rx="4" ry="4"/>
</a>
</g>
</g>
<!-- (*github.com/guild&#45;framework/guild&#45;core/pkg/logging/writers.RotatingWriter).openFile -->
<g id="node3" class="node">
<title>(*github.com/guild&#45;framework/guild&#45;core/pkg/logging/writers.RotatingWriter).openFile</title>
<g id="a_node3"><a xlink:title="(*github.com/guild&#45;framework/guild&#45;core/pkg/logging/writers.RotatingWriter).openFile | defined in rotating.go:99&#10;at rotating.go:111: calling [(*github.com/guild&#45;framework/guild&#45;core/pkg/gerror.GuildError).WithDetails]&#10;at rotating.go:110: calling [github.com/guild&#45;framework/guild&#45;core/pkg/gerror.Wrap]">
<path fill="lightblue" stroke="black" stroke-width="0.5" d="M754.62,-316C754.62,-316 569.58,-316 569.58,-316 563.58,-316 557.58,-310 557.58,-304 557.58,-304 557.58,-292 557.58,-292 557.58,-286 563.58,-280 569.58,-280 569.58,-280 754.62,-280 754.62,-280 760.62,-280 766.62,-286 766.62,-292 766.62,-292 766.62,-304 766.62,-304 766.62,-310 760.62,-316 754.62,-316"/>
<text xml:space="preserve" text-anchor="middle" x="662.1" y="-293.32" font-family="Verdana" font-size="14.00">(*RotatingWriter).openFile</text>
</a>
</g>
</g>
<!-- (*github.com/guild&#45;framework/guild&#45;core/pkg/logging/writers.RotatingWriter).rotate&#45;&gt;(*github.com/guild&#45;framework/guild&#45;core/pkg/logging/writers.RotatingWriter).openFile -->
<g id="edge1" class="edge">
<title>(*github.com/guild&#45;framework/guild&#45;core/pkg/logging/writers.RotatingWriter).rotate&#45;&gt;(*github.com/guild&#45;framework/guild&#45;core/pkg/logging/writers.RotatingWriter).openFile</title>
<g id="a_edge1"><a xlink:title="at rotating.go:148: calling [(*github.com/guild&#45;framework/guild&#45;core/pkg/logging/writers.RotatingWriter).openFile]">
<path fill="none" stroke="black" d="M442.88,-241.16C484.22,-251.92 536.8,-265.62 580,-276.87"/>
<polygon fill="black" stroke="black" points="579.02,-280.24 589.58,-279.37 580.79,-273.46 579.02,-280.24"/>
</a>
</g>
</g>
<!-- (*github.com/guild&#45;framework/guild&#45;core/pkg/logging/writers.RotatingWriter).cleanup -->
<g id="node4" class="node">
<title>(*github.com/guild&#45;framework/guild&#45;core/pkg/logging/writers.RotatingWriter).cleanup</title>
<g id="a_node4"><a xlink:title="(*github.com/guild&#45;framework/guild&#45;core/pkg/logging/writers.RotatingWriter).cleanup | defined in rotating.go:196">
<path fill="lightblue" stroke="black" stroke-width="0.5" d="M1049.41,-445C1049.41,-445 868.12,-445 868.12,-445 862.12,-445 856.12,-439 856.12,-433 856.12,-433 856.12,-421 856.12,-421 856.12,-415 862.12,-409 868.12,-409 868.12,-409 1049.41,-409 1049.41,-409 1055.41,-409 1061.41,-415 1061.41,-421 1061.41,-421 1061.41,-433 1061.41,-433 1061.41,-439 1055.41,-445 1049.41,-445"/>
<text xml:space="preserve" text-anchor="middle" x="958.76" y="-422.32" font-family="Verdana" font-size="14.00">(*RotatingWriter).cleanup</text>
</a>
</g>
</g>
<!-- (*github.com/guild&#45;framework/guild&#45;core/pkg/logging/writers.RotatingWriter).rotate&#45;&gt;(*github.com/guild&#45;framework/guild&#45;core/pkg/logging/writers.RotatingWriter).cleanup -->
<g id="edge2" class="edge">
<title>(*github.com/guild&#45;framework/guild&#45;core/pkg/logging/writers.RotatingWriter).rotate&#45;&gt;(*github.com/guild&#45;framework/guild&#45;core/pkg/logging/writers.RotatingWriter).cleanup</title>
<g id="a_edge2"><a xlink:title="at rotating.go:156: calling [(*github.com/guild&#45;framework/guild&#45;core/pkg/logging/writers.RotatingWriter).cleanup]">
<path fill="none" stroke="black" d="M396.27,-241.11C427.42,-264.7 485.45,-305.67 541.08,-329 634.5,-368.17 746.57,-393.42 830.95,-408.45"/>
<polygon fill="black" stroke="black" points="843.97,-414.25 854.42,-412.5 845.16,-407.35 843.97,-414.25"/>
<polyline fill="none" stroke="black" points="844.07,-410.71 839.14,-409.87"/>
<ellipse fill="none" stroke="black" cx="834.71" cy="-409.1" rx="4" ry="4"/>
</a>
</g>
</g>
<!-- github.com/guild&#45;framework/guild&#45;core/pkg/gerror.Wrap -->
<g id="node10" class="node">
<title>github.com/guild&#45;framework/guild&#45;core/pkg/gerror.Wrap</title>
<g id="a_node10"><a xlink:title="github.com/guild&#45;framework/guild&#45;core/pkg/gerror.Wrap | defined in errors.go:223">
<path fill="moccasin" stroke="black" stroke-width="1.5" d="M976.66,-137C976.66,-137 940.87,-137 940.87,-137 934.87,-137 928.87,-131 928.87,-125 928.87,-125 928.87,-113 928.87,-113 928.87,-107 934.87,-101 940.87,-101 940.87,-101 976.66,-101 976.66,-101 982.66,-101 988.66,-107 988.66,-113 988.66,-113 988.66,-125 988.66,-125 988.66,-131 982.66,-137 976.66,-137"/>
<text xml:space="preserve" text-anchor="middle" x="958.76" y="-114.33" font-family="Verdana" font-size="14.00">Wrap</text>
</a>
</g>
</g>
<!-- (*github.com/guild&#45;framework/guild&#45;core/pkg/logging/writers.RotatingWriter).rotate&#45;&gt;github.com/guild&#45;framework/guild&#45;core/pkg/gerror.Wrap -->
<g id="edge15" class="edge">
<title>(*github.com/guild&#45;framework/guild&#45;core/pkg/logging/writers.RotatingWriter).rotate&#45;&gt;github.com/guild&#45;framework/guild&#45;core/pkg/gerror.Wrap</title>
<g id="a_edge15"><a xlink:title="at rotating.go:123: calling [github.com/guild&#45;framework/guild&#45;core/pkg/gerror.Wrap]&#10;at rotating.go:137: calling [github.com/guild&#45;framework/guild&#45;core/pkg/gerror.Wrap]">
<path fill="none" stroke="saddlebrown" d="M384.49,-204.78C408.21,-168.53 467.13,-88.25 541.08,-58 671.63,-4.59 842.06,-66.32 918.12,-99.99"/>
<polygon fill="saddlebrown" stroke="saddlebrown" points="916.28,-103 926.83,-103.92 919.15,-96.62 916.28,-103"/>
</a>
</g>
</g>
<!-- (*github.com/guild&#45;framework/guild&#45;core/pkg/gerror.GuildError).WithDetails -->
<g id="node11" class="node">
<title>(*github.com/guild&#45;framework/guild&#45;core/pkg/gerror.GuildError).WithDetails</title>
<g id="a_node11"><a xlink:title="(*github.com/guild&#45;framework/guild&#45;core/pkg/gerror.GuildError).WithDetails | defined in errors.go:147">
<path fill="moccasin" stroke="black" stroke-width="1.5" d="M1046.41,-259C1046.41,-259 871.12,-259 871.12,-259 865.12,-259 859.12,-253 859.12,-247 859.12,-247 859.12,-235 859.12,-235 859.12,-229 865.12,-223 871.12,-223 871.12,-223 1046.41,-223 1046.41,-223 1052.41,-223 1058.41,-229 1058.41,-235 1058.41,-235 1058.41,-247 1058.41,-247 1058.41,-253 1052.41,-259 1046.41,-259"/>
<text xml:space="preserve" text-anchor="middle" x="958.76" y="-236.32" font-family="Verdana" font-size="14.00">(*GuildError).WithDetails</text>
</a>
</g>
</g>
<!-- (*github.com/guild&#45;framework/guild&#45;core/pkg/logging/writers.RotatingWriter).rotate&#45;&gt;(*github.com/guild&#45;framework/guild&#45;core/pkg/gerror.GuildError).WithDetails -->
<g id="edge13" class="edge">
<title>(*github.com/guild&#45;framework/guild&#45;core/pkg/logging/writers.RotatingWriter).rotate&#45;&gt;(*github.com/guild&#45;framework/guild&#45;core/pkg/gerror.GuildError).WithDetails</title>
<g id="a_edge13"><a xlink:title="at rotating.go:138: calling [(*github.com/guild&#45;framework/guild&#45;core/pkg/gerror.GuildError).WithDetails]&#10;at rotating.go:139: calling [(*github.com/guild&#45;framework/guild&#45;core/pkg/gerror.GuildError).WithDetails]">
<path fill="none" stroke="saddlebrown" d="M468.05,-234.96C491.85,-237.47 517.37,-239.73 541.08,-241 644.85,-246.55 763.36,-245.87 847.4,-244.21"/>
<polygon fill="saddlebrown" stroke="saddlebrown" points="847.32,-247.71 857.25,-244 847.18,-240.71 847.32,-247.71"/>
</a>
</g>
</g>
<!-- (*github.com/guild&#45;framework/guild&#45;core/pkg/logging/writers.RotatingWriter).openFile&#45;&gt;github.com/guild&#45;framework/guild&#45;core/pkg/gerror.Wrap -->
<g id="edge19" class="edge">
<title>(*github.com/guild&#45;framework/guild&#45;core/pkg/logging/writers.RotatingWriter).openFile&#45;&gt;github.com/guild&#45;framework/guild&#45;core/pkg/gerror.Wrap</title>
<g id="a_edge19"><a xlink:title="at rotating.go:110: calling [github.com/guild&#45;framework/guild&#45;core/pkg/gerror.Wrap]">
<path fill="none" stroke="saddlebrown" d="M715.03,-279.85C737.43,-270.44 763.04,-257.44 783.12,-241 822.18,-209.01 809.62,-178.76 851.12,-150 870.64,-136.47 896.07,-128.79 917.2,-124.45"/>
<polygon fill="saddlebrown" stroke="saddlebrown" points="917.75,-127.91 926.94,-122.65 916.47,-121.03 917.75,-127.91"/>
</a>
</g>
</g>
<!-- (*github.com/guild&#45;framework/guild&#45;core/pkg/logging/writers.RotatingWriter).openFile&#45;&gt;(*github.com/guild&#45;framework/guild&#45;core/pkg/gerror.GuildError).WithDetails -->
<g id="edge7" class="edge">
<title>(*github.com/guild&#45;framework/guild&#45;core/pkg/logging/writers.RotatingWriter).openFile&#45;&gt;(*github.com/guild&#45;framework/guild&#45;core/pkg/gerror.GuildError).WithDetails</title>
<g id="a_edge7"><a xlink:title="at rotating.go:111: calling [(*github.com/guild&#45;framework/guild&#45;core/pkg/gerror.GuildError).WithDetails]">
<path fill="none" stroke="saddlebrown" d="M766.84,-300.41C785.03,-298.31 803.45,-294.49 820.12,-288 833.91,-282.63 835.12,-274.05 848.94,-265.02"/>
<polygon fill="saddlebrown" stroke="saddlebrown" points="850.3,-268.27 857.4,-260.4 846.94,-262.12 850.3,-268.27"/>
</a>
</g>
</g>
<!-- (*github.com/guild&#45;framework/guild&#45;core/pkg/logging/writers.RotatingWriter).Write -->
<g id="node5" class="node">
<title>(*github.com/guild&#45;framework/guild&#45;core/pkg/logging/writers.RotatingWriter).Write</title>
<g id="a_node5"><a xlink:title="(*github.com/guild&#45;framework/guild&#45;core/pkg/logging/writers.RotatingWriter).Write | defined in rotating.go:66&#10;at rotating.go:73: calling [github.com/guild&#45;framework/guild&#45;core/pkg/gerror.Wrap]&#10;at rotating.go:80: calling [github.com/guild&#45;framework/guild&#45;core/pkg/gerror.Wrap]&#10;at rotating.go:72: calling [(*github.com/guild&#45;framework/guild&#45;core/pkg/logging/writers.RotatingWriter).rotate]">
<path fill="lightblue" stroke="black" stroke-width="1.5" d="M191.29,-57C191.29,-57 28,-57 28,-57 22,-57 16,-51 16,-45 16,-45 16,-33 16,-33 16,-27 22,-21 28,-21 28,-21 191.29,-21 191.29,-21 197.29,-21 203.29,-27 203.29,-33 203.29,-33 203.29,-45 203.29,-45 203.29,-51 197.29,-57 191.29,-57"/>
<text xml:space="preserve" text-anchor="middle" x="109.64" y="-34.33" font-family="Verdana" font-size="14.00">(*RotatingWriter).Write</text>
</a>
</g>
</g>
<!-- (*github.com/guild&#45;framework/guild&#45;core/pkg/logging/writers.RotatingWriter).Write&#45;&gt;(*github.com/guild&#45;framework/guild&#45;core/pkg/logging/writers.RotatingWriter).rotate -->
<g id="edge16" class="edge">
<title>(*github.com/guild&#45;framework/guild&#45;core/pkg/logging/writers.RotatingWriter).Write&#45;&gt;(*github.com/guild&#45;framework/guild&#45;core/pkg/logging/writers.RotatingWriter).rotate</title>
<g id="a_edge16"><a xlink:title="at rotating.go:72: calling [(*github.com/guild&#45;framework/guild&#45;core/pkg/logging/writers.RotatingWriter).rotate]">
<path fill="none" stroke="black" d="M137.06,-57.66C184.31,-91.03 283.3,-160.94 336.16,-198.27"/>
<polygon fill="black" stroke="black" points="334.05,-201.06 344.24,-203.97 338.09,-195.34 334.05,-201.06"/>
</a>
</g>
</g>
<!-- (*github.com/guild&#45;framework/guild&#45;core/pkg/logging/writers.RotatingWriter).Write&#45;&gt;github.com/guild&#45;framework/guild&#45;core/pkg/gerror.Wrap -->
<g id="edge8" class="edge">
<title>(*github.com/guild&#45;framework/guild&#45;core/pkg/logging/writers.RotatingWriter).Write&#45;&gt;github.com/guild&#45;framework/guild&#45;core/pkg/gerror.Wrap</title>
<g id="a_edge8"><a xlink:title="at rotating.go:73: calling [github.com/guild&#45;framework/guild&#45;core/pkg/gerror.Wrap]&#10;at rotating.go:80: calling [github.com/guild&#45;framework/guild&#45;core/pkg/gerror.Wrap]">
<path fill="none" stroke="saddlebrown" d="M203.94,-27.29C253.53,-22.04 315.58,-17 371.18,-17 371.18,-17 371.18,-17 663.1,-17 716.8,-17 731.68,-15.57 783.12,-31 832.55,-45.83 884.85,-74.07 919.19,-94.57"/>
<polygon fill="saddlebrown" stroke="saddlebrown" points="917.15,-97.43 927.51,-99.61 920.77,-91.44 917.15,-97.43"/>
</a>
</g>
</g>
<!-- (*github.com/guild&#45;framework/guild&#45;core/pkg/logging/writers.MultiWriter).Write -->
<g id="node6" class="node">
<title>(*github.com/guild&#45;framework/guild&#45;core/pkg/logging/writers.MultiWriter).Write</title>
<g id="a_node6"><a xlink:title="(*github.com/guild&#45;framework/guild&#45;core/pkg/logging/writers.MultiWriter).Write | defined in multi.go:24&#10;at multi.go:40: calling [github.com/guild&#45;framework/guild&#45;core/pkg/gerror.New]&#10;at multi.go:41: calling [(*github.com/guild&#45;framework/guild&#45;core/pkg/gerror.GuildError).WithDetails]">
<path fill="lightblue" stroke="black" stroke-width="1.5" d="M731.37,-167C731.37,-167 592.83,-167 592.83,-167 586.83,-167 580.83,-161 580.83,-155 580.83,-155 580.83,-143 580.83,-143 580.83,-137 586.83,-131 592.83,-131 592.83,-131 731.37,-131 731.37,-131 737.37,-131 743.37,-137 743.37,-143 743.37,-143 743.37,-155 743.37,-155 743.37,-161 737.37,-167 731.37,-167"/>
<text xml:space="preserve" text-anchor="middle" x="662.1" y="-144.32" font-family="Verdana" font-size="14.00">(*MultiWriter).Write</text>
</a>
</g>
</g>
<!-- (*github.com/guild&#45;framework/guild&#45;core/pkg/logging/writers.MultiWriter).Write&#45;&gt;(*github.com/guild&#45;framework/guild&#45;core/pkg/gerror.GuildError).WithDetails -->
<g id="edge9" class="edge">
<title>(*github.com/guild&#45;framework/guild&#45;core/pkg/logging/writers.MultiWriter).Write&#45;&gt;(*github.com/guild&#45;framework/guild&#45;core/pkg/gerror.GuildError).WithDetails</title>
<g id="a_edge9"><a xlink:title="at multi.go:41: calling [(*github.com/guild&#45;framework/guild&#45;core/pkg/gerror.GuildError).WithDetails]">
<path fill="none" stroke="saddlebrown" d="M743.42,-167.67C756.8,-171.37 770.44,-175.51 783.12,-180 814.43,-191.08 819.93,-199.58 851.12,-211 858.69,-213.77 866.65,-216.44 874.66,-218.97"/>
<polygon fill="saddlebrown" stroke="saddlebrown" points="873.54,-222.29 884.13,-221.88 875.6,-215.6 873.54,-222.29"/>
</a>
</g>
</g>
<!-- github.com/guild&#45;framework/guild&#45;core/pkg/gerror.New -->
<g id="node12" class="node">
<title>github.com/guild&#45;framework/guild&#45;core/pkg/gerror.New</title>
<g id="a_node12"><a xlink:title="github.com/guild&#45;framework/guild&#45;core/pkg/gerror.New | defined in errors.go:190">
<path fill="moccasin" stroke="black" stroke-width="1.5" d="M973.76,-198C973.76,-198 943.76,-198 943.76,-198 937.76,-198 931.76,-192 931.76,-186 931.76,-186 931.76,-174 931.76,-174 931.76,-168 937.76,-162 943.76,-162 943.76,-162 973.76,-162 973.76,-162 979.76,-162 985.76,-168 985.76,-174 985.76,-174 985.76,-186 985.76,-186 985.76,-192 979.76,-198 973.76,-198"/>
<text xml:space="preserve" text-anchor="middle" x="958.76" y="-175.32" font-family="Verdana" font-size="14.00">New</text>
</a>
</g>
</g>
<!-- (*github.com/guild&#45;framework/guild&#45;core/pkg/logging/writers.MultiWriter).Write&#45;&gt;github.com/guild&#45;framework/guild&#45;core/pkg/gerror.New -->
<g id="edge3" class="edge">
<title>(*github.com/guild&#45;framework/guild&#45;core/pkg/logging/writers.MultiWriter).Write&#45;&gt;github.com/guild&#45;framework/guild&#45;core/pkg/gerror.New</title>
<g id="a_edge3"><a xlink:title="at multi.go:40: calling [github.com/guild&#45;framework/guild&#45;core/pkg/gerror.New]">
<path fill="none" stroke="saddlebrown" d="M744.01,-157.51C801.28,-163.54 875.5,-171.35 919.72,-176"/>
<polygon fill="saddlebrown" stroke="saddlebrown" points="919.27,-179.47 929.58,-177.04 920,-172.51 919.27,-179.47"/>
</a>
</g>
</g>
<!-- (*github.com/guild&#45;framework/guild&#45;core/pkg/logging/writers.RotatingWriter).cleanupLoop -->
<g id="node7" class="node">
<title>(*github.com/guild&#45;framework/guild&#45;core/pkg/logging/writers.RotatingWriter).cleanupLoop</title>
<g id="a_node7"><a xlink:title="(*github.com/guild&#45;framework/guild&#45;core/pkg/logging/writers.RotatingWriter).cleanupLoop | defined in rotating.go:252&#10;at rotating.go:257: calling [(*github.com/guild&#45;framework/guild&#45;core/pkg/logging/writers.RotatingWriter).cleanup]">
<path fill="lightblue" stroke="black" stroke-width="0.5" d="M769.24,-485C769.24,-485 554.95,-485 554.95,-485 548.95,-485 542.95,-479 542.95,-473 542.95,-473 542.95,-461 542.95,-461 542.95,-455 548.95,-449 554.95,-449 554.95,-449 769.24,-449 769.24,-449 775.24,-449 781.24,-455 781.24,-461 781.24,-461 781.24,-473 781.24,-473 781.24,-479 775.24,-485 769.24,-485"/>
<text xml:space="preserve" text-anchor="middle" x="662.1" y="-462.32" font-family="Verdana" font-size="14.00">(*RotatingWriter).cleanupLoop</text>
</a>
</g>
</g>
<!-- (*github.com/guild&#45;framework/guild&#45;core/pkg/logging/writers.RotatingWriter).cleanupLoop&#45;&gt;(*github.com/guild&#45;framework/guild&#45;core/pkg/logging/writers.RotatingWriter).cleanup -->
<g id="edge4" class="edge">
<title>(*github.com/guild&#45;framework/guild&#45;core/pkg/logging/writers.RotatingWriter).cleanupLoop&#45;&gt;(*github.com/guild&#45;framework/guild&#45;core/pkg/logging/writers.RotatingWriter).cleanup</title>
<g id="a_edge4"><a xlink:title="at rotating.go:257: calling [(*github.com/guild&#45;framework/guild&#45;core/pkg/logging/writers.RotatingWriter).cleanup]">
<path fill="none" stroke="black" d="M781.25,-450.96C802.29,-448.11 824.15,-445.14 845.03,-442.3"/>
<polygon fill="black" stroke="black" points="845.25,-445.81 854.69,-440.99 844.31,-438.87 845.25,-445.81"/>
</a>
</g>
</g>
<!-- github.com/guild&#45;framework/guild&#45;core/pkg/logging/writers.NewRotatingWriter -->
<g id="node8" class="node">
<title>github.com/guild&#45;framework/guild&#45;core/pkg/logging/writers.NewRotatingWriter</title>
<g id="a_node8"><a xlink:title="github.com/guild&#45;framework/guild&#45;core/pkg/logging/writers.NewRotatingWriter | defined in rotating.go:31&#10;at rotating.go:55: calling [(*github.com/guild&#45;framework/guild&#45;core/pkg/logging/writers.RotatingWriter).openFile]&#10;at rotating.go:60: calling [(*github.com/guild&#45;framework/guild&#45;core/pkg/logging/writers.RotatingWriter).cleanupLoop]&#10;at rotating.go:33: calling [github.com/guild&#45;framework/guild&#45;core/pkg/gerror.New]&#10;at rotating.go:42: calling [(*github.com/guild&#45;framework/guild&#45;core/pkg/gerror.GuildError).WithDetails]&#10;at rotating.go:41: calling [github.com/guild&#45;framework/guild&#45;core/pkg/gerror.Wrap]">
<path fill="lightblue" stroke="black" stroke-width="1.5" d="M437.33,-390C437.33,-390 307.04,-390 307.04,-390 301.04,-390 295.04,-384 295.04,-378 295.04,-378 295.04,-366 295.04,-366 295.04,-360 301.04,-354 307.04,-354 307.04,-354 437.33,-354 437.33,-354 443.33,-354 449.33,-360 449.33,-366 449.33,-366 449.33,-378 449.33,-378 449.33,-384 443.33,-390 437.33,-390"/>
<text xml:space="preserve" text-anchor="middle" x="372.18" y="-367.32" font-family="Verdana" font-size="14.00">NewRotatingWriter</text>
</a>
</g>
</g>
<!-- github.com/guild&#45;framework/guild&#45;core/pkg/logging/writers.NewRotatingWriter&#45;&gt;(*github.com/guild&#45;framework/guild&#45;core/pkg/logging/writers.RotatingWriter).openFile -->
<g id="edge5" class="edge">
<title>github.com/guild&#45;framework/guild&#45;core/pkg/logging/writers.NewRotatingWriter&#45;&gt;(*github.com/guild&#45;framework/guild&#45;core/pkg/logging/writers.RotatingWriter).openFile</title>
<g id="a_edge5"><a xlink:title="at rotating.go:55: calling [(*github.com/guild&#45;framework/guild&#45;core/pkg/logging/writers.RotatingWriter).openFile]">
<path fill="none" stroke="black" d="M444.84,-353.32C464.07,-348.33 484.87,-342.94 504.08,-338 528.18,-331.8 554.37,-325.11 578.33,-319.01"/>
<polygon fill="black" stroke="black" points="578.87,-322.48 587.7,-316.62 577.15,-315.7 578.87,-322.48"/>
</a>
</g>
</g>
<!-- github.com/guild&#45;framework/guild&#45;core/pkg/logging/writers.NewRotatingWriter&#45;&gt;(*github.com/guild&#45;framework/guild&#45;core/pkg/logging/writers.RotatingWriter).cleanupLoop -->
<g id="edge6" class="edge">
<title>github.com/guild&#45;framework/guild&#45;core/pkg/logging/writers.NewRotatingWriter&#45;&gt;(*github.com/guild&#45;framework/guild&#45;core/pkg/logging/writers.RotatingWriter).cleanupLoop</title>
<g id="a_edge6"><a xlink:title="at rotating.go:60: calling [(*github.com/guild&#45;framework/guild&#45;core/pkg/logging/writers.RotatingWriter).cleanupLoop]">
<path fill="none" stroke="black" d="M410.25,-390.64C436.07,-403.07 471.57,-419.07 504.08,-430 517.6,-434.55 531.96,-438.75 546.29,-442.56"/>
<polygon fill="black" stroke="black" points="559.01,-449.38 569.56,-448.43 560.72,-442.59 559.01,-449.38"/>
<polyline fill="none" stroke="black" points="559.38,-445.86 554.53,-444.64"/>
<ellipse fill="none" stroke="black" cx="550.17" cy="-443.54" rx="4" ry="4"/>
</a>
</g>
</g>
<!-- github.com/guild&#45;framework/guild&#45;core/pkg/logging/writers.NewRotatingWriter&#45;&gt;github.com/guild&#45;framework/guild&#45;core/pkg/gerror.Wrap -->
<g id="edge17" class="edge">
<title>github.com/guild&#45;framework/guild&#45;core/pkg/logging/writers.NewRotatingWriter&#45;&gt;github.com/guild&#45;framework/guild&#45;core/pkg/gerror.Wrap</title>
<g id="a_edge17"><a xlink:title="at rotating.go:41: calling [github.com/guild&#45;framework/guild&#45;core/pkg/gerror.Wrap]">
<path fill="none" stroke="saddlebrown" d="M450.07,-366.02C565.13,-356.76 770.11,-339.01 783.12,-329 850.55,-277.08 788.58,-207.72 851.12,-150 869.02,-133.48 895.21,-125.72 917.16,-122.09"/>
<polygon fill="saddlebrown" stroke="saddlebrown" points="917.59,-125.56 927.01,-120.72 916.63,-118.63 917.59,-125.56"/>
</a>
</g>
</g>
<!-- github.com/guild&#45;framework/guild&#45;core/pkg/logging/writers.NewRotatingWriter&#45;&gt;(*github.com/guild&#45;framework/guild&#45;core/pkg/gerror.GuildError).WithDetails -->
<g id="edge11" class="edge">
<title>github.com/guild&#45;framework/guild&#45;core/pkg/logging/writers.NewRotatingWriter&#45;&gt;(*github.com/guild&#45;framework/guild&#45;core/pkg/gerror.GuildError).WithDetails</title>
<g id="a_edge11"><a xlink:title="at rotating.go:42: calling [(*github.com/guild&#45;framework/guild&#45;core/pkg/gerror.GuildError).WithDetails]">
<path fill="none" stroke="saddlebrown" d="M424.05,-390.72C514.2,-420.3 703.47,-465.84 820.12,-376 858.64,-346.33 819.14,-304.62 850.73,-265.32"/>
<polygon fill="saddlebrown" stroke="saddlebrown" points="853.24,-267.75 857.56,-258.07 848.15,-262.95 853.24,-267.75"/>
</a>
</g>
</g>
<!-- github.com/guild&#45;framework/guild&#45;core/pkg/logging/writers.NewRotatingWriter&#45;&gt;github.com/guild&#45;framework/guild&#45;core/pkg/gerror.New -->
<g id="edge10" class="edge">
<title>github.com/guild&#45;framework/guild&#45;core/pkg/logging/writers.NewRotatingWriter&#45;&gt;github.com/guild&#45;framework/guild&#45;core/pkg/gerror.New</title>
<g id="a_edge10"><a xlink:title="at rotating.go:33: calling [github.com/guild&#45;framework/guild&#45;core/pkg/gerror.New]">
<path fill="none" stroke="saddlebrown" d="M449.62,-378.74C562.42,-386.96 766,-394.64 820.12,-349 868.17,-308.47 808.07,-256.8 851.12,-211 868.66,-192.34 896.72,-184.69 919.65,-181.66"/>
<polygon fill="saddlebrown" stroke="saddlebrown" points="920,-185.14 929.58,-180.62 919.27,-178.18 920,-185.14"/>
</a>
</g>
</g>
<!-- (*github.com/guild&#45;framework/guild&#45;core/pkg/logging/writers.MultiWriter).Close -->
<g id="node9" class="node">
<title>(*github.com/guild&#45;framework/guild&#45;core/pkg/logging/writers.MultiWriter).Close</title>
<g id="a_node9"><a xlink:title="(*github.com/guild&#45;framework/guild&#45;core/pkg/logging/writers.MultiWriter).Close | defined in multi.go:69&#10;at multi.go:84: calling [(*github.com/guild&#45;framework/guild&#45;core/pkg/gerror.GuildError).WithDetails]&#10;at multi.go:83: calling [github.com/guild&#45;framework/guild&#45;core/pkg/gerror.New]">
<path fill="lightblue" stroke="black" stroke-width="1.5" d="M731.74,-106C731.74,-106 592.45,-106 592.45,-106 586.45,-106 580.45,-100 580.45,-94 580.45,-94 580.45,-82 580.45,-82 580.45,-76 586.45,-70 592.45,-70 592.45,-70 731.74,-70 731.74,-70 737.74,-70 743.74,-76 743.74,-82 743.74,-82 743.74,-94 743.74,-94 743.74,-100 737.74,-106 731.74,-106"/>
<text xml:space="preserve" text-anchor="middle" x="662.1" y="-83.33" font-family="Verdana" font-size="14.00">(*MultiWriter).Close</text>
</a>
</g>
</g>
<!-- (*github.com/guild&#45;framework/guild&#45;core/pkg/logging/writers.MultiWriter).Close&#45;&gt;(*github.com/guild&#45;framework/guild&#45;core/pkg/gerror.GuildError).WithDetails -->
<g id="edge12" class="edge">
<title>(*github.com/guild&#45;framework/guild&#45;core/pkg/logging/writers.MultiWriter).Close&#45;&gt;(*github.com/guild&#45;framework/guild&#45;core/pkg/gerror.GuildError).WithDetails</title>
<g id="a_edge12"><a xlink:title="at multi.go:84: calling [(*github.com/guild&#45;framework/guild&#45;core/pkg/gerror.GuildError).WithDetails]">
<path fill="none" stroke="saddlebrown" d="M744.47,-100.95C758.08,-105.33 771.52,-111.18 783.12,-119 825.27,-147.44 809.28,-182.11 851.12,-211 854.38,-213.25 857.82,-215.34 861.36,-217.27"/>
<polygon fill="saddlebrown" stroke="saddlebrown" points="859.76,-220.38 870.28,-221.64 862.84,-214.09 859.76,-220.38"/>
</a>
</g>
</g>
<!-- (*github.com/guild&#45;framework/guild&#45;core/pkg/logging/writers.MultiWriter).Close&#45;&gt;github.com/guild&#45;framework/guild&#45;core/pkg/gerror.New -->
<g id="edge14" class="edge">
<title>(*github.com/guild&#45;framework/guild&#45;core/pkg/logging/writers.MultiWriter).Close&#45;&gt;github.com/guild&#45;framework/guild&#45;core/pkg/gerror.New</title>
<g id="a_edge14"><a xlink:title="at multi.go:83: calling [github.com/guild&#45;framework/guild&#45;core/pkg/gerror.New]">
<path fill="none" stroke="saddlebrown" d="M744.15,-99.89C769.31,-105.45 796.6,-113.49 820.12,-125 836.02,-132.78 835.39,-141.88 851.12,-150 872.75,-161.16 899.06,-168.62 920.13,-173.31"/>
<polygon fill="saddlebrown" stroke="saddlebrown" points="919.25,-176.7 929.76,-175.32 920.69,-169.85 919.25,-176.7"/>
</a>
</g>
</g>
</g>
</svg>
