<?xml version="1.0" encoding="UTF-8" standalone="no"?>
<!DOCTYPE svg PUBLIC "-//W3C//DTD SVG 1.1//EN"
 "http://www.w3.org/Graphics/SVG/1.1/DTD/svg11.dtd">
<!-- Generated by graphviz version 14.1.1 (20251213.1925)
 -->
<!-- Title: gocallvis Pages: 1 -->
<svg width="613pt" height="255pt"
 viewBox="0.00 0.00 613.00 255.00" xmlns="http://www.w3.org/2000/svg" xmlns:xlink="http://www.w3.org/1999/xlink">
<g id="graph0" class="graph" transform="scale(1 1) rotate(0) translate(0 255)">
<title>gocallvis</title>
<polygon fill="lightgray" stroke="none" points="0,0 0,-255 612.83,-255 612.83,0 0,0"/>
<g id="clust1" class="cluster">
<title>cluster_focus</title>
<polygon fill="#e6ecfa" stroke="black" stroke-width="0.5" points="8,-8 8,-247 604.83,-247 604.83,-8 8,-8"/>
<text xml:space="preserve" text-anchor="middle" x="306.42" y="-225.9" font-family="Arial" font-size="18.00">mocks</text>
</g>
<g id="clust2" class="cluster">
<title>cluster_github.com/guild&#45;framework/guild&#45;core/pkg/kanban</title>
<g id="a_clust2"><a xlink:href="/?f=github.com/guild-framework/guild-core/pkg/kanban" xlink:title="package: github.com/guild&#45;framework/guild&#45;core/pkg/kanban">
<polygon fill="lightyellow" stroke="black" stroke-width="0.8" points="405.54,-130 405.54,-210 596.83,-210 596.83,-130 405.54,-130"/>
<text xml:space="preserve" text-anchor="middle" x="501.19" y="-190.8" font-family="Tahoma bold" font-size="16.00">kanban</text>
</a>
</g>
</g>
<!-- (*github.com/guild&#45;framework/guild&#45;core/pkg/orchestrator/mocks.MockAgentFactory).CreateAgent -->
<g id="node1" class="node">
<title>(*github.com/guild&#45;framework/guild&#45;core/pkg/orchestrator/mocks.MockAgentFactory).CreateAgent</title>
<g id="a_node1"><a xlink:title="(*github.com/guild&#45;framework/guild&#45;core/pkg/orchestrator/mocks.MockAgentFactory).CreateAgent | defined in mock_agent_factory.go:27&#10;at mock_agent_factory.go:39: calling [github.com/guild&#45;framework/guild&#45;core/pkg/orchestrator/mocks.NewMockAgent]">
<path fill="lightblue" stroke="black" stroke-width="1.5" d="M298.54,-52C298.54,-52 58,-52 58,-52 52,-52 46,-46 46,-40 46,-40 46,-28 46,-28 46,-22 52,-16 58,-16 58,-16 298.54,-16 298.54,-16 304.54,-16 310.54,-22 310.54,-28 310.54,-28 310.54,-40 310.54,-40 310.54,-46 304.54,-52 298.54,-52"/>
<text xml:space="preserve" text-anchor="middle" x="178.27" y="-29.32" font-family="Verdana" font-size="14.00">(*MockAgentFactory).CreateAgent</text>
</a>
</g>
</g>
<!-- github.com/guild&#45;framework/guild&#45;core/pkg/orchestrator/mocks.NewMockAgent -->
<g id="node2" class="node">
<title>github.com/guild&#45;framework/guild&#45;core/pkg/orchestrator/mocks.NewMockAgent</title>
<g id="a_node2"><a xlink:title="github.com/guild&#45;framework/guild&#45;core/pkg/orchestrator/mocks.NewMockAgent | defined in mock_agent.go:22">
<path fill="lightblue" stroke="black" stroke-width="1.5" d="M554.33,-52C554.33,-52 448.04,-52 448.04,-52 442.04,-52 436.04,-46 436.04,-40 436.04,-40 436.04,-28 436.04,-28 436.04,-22 442.04,-16 448.04,-16 448.04,-16 554.33,-16 554.33,-16 560.33,-16 566.33,-22 566.33,-28 566.33,-28 566.33,-40 566.33,-40 566.33,-46 560.33,-52 554.33,-52"/>
<text xml:space="preserve" text-anchor="middle" x="501.19" y="-29.32" font-family="Verdana" font-size="14.00">NewMockAgent</text>
</a>
</g>
</g>
<!-- (*github.com/guild&#45;framework/guild&#45;core/pkg/orchestrator/mocks.MockAgentFactory).CreateAgent&#45;&gt;github.com/guild&#45;framework/guild&#45;core/pkg/orchestrator/mocks.NewMockAgent -->
<g id="edge1" class="edge">
<title>(*github.com/guild&#45;framework/guild&#45;core/pkg/orchestrator/mocks.MockAgentFactory).CreateAgent&#45;&gt;github.com/guild&#45;framework/guild&#45;core/pkg/orchestrator/mocks.NewMockAgent</title>
<g id="a_edge1"><a xlink:title="at mock_agent_factory.go:39: calling [github.com/guild&#45;framework/guild&#45;core/pkg/orchestrator/mocks.NewMockAgent]">
<path fill="none" stroke="black" d="M311.19,-34C349.71,-34 390.49,-34 424.28,-34"/>
<polygon fill="black" stroke="black" points="423.94,-37.5 433.94,-34 423.94,-30.5 423.94,-37.5"/>
</a>
</g>
</g>
<!-- (*github.com/guild&#45;framework/guild&#45;core/pkg/orchestrator/mocks.MockAgentFactory).RegisterAgent -->
<g id="node3" class="node">
<title>(*github.com/guild&#45;framework/guild&#45;core/pkg/orchestrator/mocks.MockAgentFactory).RegisterAgent</title>
<g id="a_node3"><a xlink:title="(*github.com/guild&#45;framework/guild&#45;core/pkg/orchestrator/mocks.MockAgentFactory).RegisterAgent | defined in mock_agent_factory.go:48&#10;at mock_agent_factory.go:52: calling [(*github.com/guild&#45;framework/guild&#45;core/pkg/orchestrator/mocks.MockAgent).GetID]">
<path fill="lightblue" stroke="black" stroke-width="1.5" d="M304.54,-113C304.54,-113 52,-113 52,-113 46,-113 40,-107 40,-101 40,-101 40,-89 40,-89 40,-83 46,-77 52,-77 52,-77 304.54,-77 304.54,-77 310.54,-77 316.54,-83 316.54,-89 316.54,-89 316.54,-101 316.54,-101 316.54,-107 310.54,-113 304.54,-113"/>
<text xml:space="preserve" text-anchor="middle" x="178.27" y="-90.33" font-family="Verdana" font-size="14.00">(*MockAgentFactory).RegisterAgent</text>
</a>
</g>
</g>
<!-- (*github.com/guild&#45;framework/guild&#45;core/pkg/orchestrator/mocks.MockAgent).GetID -->
<g id="node4" class="node">
<title>(*github.com/guild&#45;framework/guild&#45;core/pkg/orchestrator/mocks.MockAgent).GetID</title>
<g id="a_node4"><a xlink:title="(*github.com/guild&#45;framework/guild&#45;core/pkg/orchestrator/mocks.MockAgent).GetID | defined in mock_agent.go:42">
<path fill="lightblue" stroke="black" stroke-width="1.5" d="M572.71,-113C572.71,-113 429.67,-113 429.67,-113 423.67,-113 417.67,-107 417.67,-101 417.67,-101 417.67,-89 417.67,-89 417.67,-83 423.67,-77 429.67,-77 429.67,-77 572.71,-77 572.71,-77 578.71,-77 584.71,-83 584.71,-89 584.71,-89 584.71,-101 584.71,-101 584.71,-107 578.71,-113 572.71,-113"/>
<text xml:space="preserve" text-anchor="middle" x="501.19" y="-90.33" font-family="Verdana" font-size="14.00">(*MockAgent).GetID</text>
</a>
</g>
</g>
<!-- (*github.com/guild&#45;framework/guild&#45;core/pkg/orchestrator/mocks.MockAgentFactory).RegisterAgent&#45;&gt;(*github.com/guild&#45;framework/guild&#45;core/pkg/orchestrator/mocks.MockAgent).GetID -->
<g id="edge2" class="edge">
<title>(*github.com/guild&#45;framework/guild&#45;core/pkg/orchestrator/mocks.MockAgentFactory).RegisterAgent&#45;&gt;(*github.com/guild&#45;framework/guild&#45;core/pkg/orchestrator/mocks.MockAgent).GetID</title>
<g id="a_edge2"><a xlink:title="at mock_agent_factory.go:52: calling [(*github.com/guild&#45;framework/guild&#45;core/pkg/orchestrator/mocks.MockAgent).GetID]">
<path fill="none" stroke="black" d="M317.23,-95C347.09,-95 378.01,-95 405.75,-95"/>
<polygon fill="black" stroke="black" points="405.51,-98.5 415.51,-95 405.51,-91.5 405.51,-98.5"/>
</a>
</g>
</g>
<!-- (*github.com/guild&#45;framework/guild&#45;core/pkg/orchestrator/mocks.MockKanbanManager).UpdateTaskStatus -->
<g id="node5" class="node">
<title>(*github.com/guild&#45;framework/guild&#45;core/pkg/orchestrator/mocks.MockKanbanManager).UpdateTaskStatus</title>
<g id="a_node5"><a xlink:title="(*github.com/guild&#45;framework/guild&#45;core/pkg/orchestrator/mocks.MockKanbanManager).UpdateTaskStatus | defined in mock_kanban.go:60&#10;at mock_kanban.go:85: calling [(*github.com/guild&#45;framework/guild&#45;core/pkg/kanban.Task).UpdateStatus]">
<path fill="lightblue" stroke="black" stroke-width="1.5" d="M328.54,-174C328.54,-174 28,-174 28,-174 22,-174 16,-168 16,-162 16,-162 16,-150 16,-150 16,-144 22,-138 28,-138 28,-138 328.54,-138 328.54,-138 334.54,-138 340.54,-144 340.54,-150 340.54,-150 340.54,-162 340.54,-162 340.54,-168 334.54,-174 328.54,-174"/>
<text xml:space="preserve" text-anchor="middle" x="178.27" y="-151.32" font-family="Verdana" font-size="14.00">(*MockKanbanManager).UpdateTaskStatus</text>
</a>
</g>
</g>
<!-- (*github.com/guild&#45;framework/guild&#45;core/pkg/kanban.Task).UpdateStatus -->
<g id="node6" class="node">
<title>(*github.com/guild&#45;framework/guild&#45;core/pkg/kanban.Task).UpdateStatus</title>
<g id="a_node6"><a xlink:title="(*github.com/guild&#45;framework/guild&#45;core/pkg/kanban.Task).UpdateStatus | defined in taskmodel.go:143">
<path fill="moccasin" stroke="black" stroke-width="1.5" d="M576.83,-174C576.83,-174 425.54,-174 425.54,-174 419.54,-174 413.54,-168 413.54,-162 413.54,-162 413.54,-150 413.54,-150 413.54,-144 419.54,-138 425.54,-138 425.54,-138 576.83,-138 576.83,-138 582.83,-138 588.83,-144 588.83,-150 588.83,-150 588.83,-162 588.83,-162 588.83,-168 582.83,-174 576.83,-174"/>
<text xml:space="preserve" text-anchor="middle" x="501.19" y="-151.32" font-family="Verdana" font-size="14.00">(*Task).UpdateStatus</text>
</a>
</g>
</g>
<!-- (*github.com/guild&#45;framework/guild&#45;core/pkg/orchestrator/mocks.MockKanbanManager).UpdateTaskStatus&#45;&gt;(*github.com/guild&#45;framework/guild&#45;core/pkg/kanban.Task).UpdateStatus -->
<g id="edge3" class="edge">
<title>(*github.com/guild&#45;framework/guild&#45;core/pkg/orchestrator/mocks.MockKanbanManager).UpdateTaskStatus&#45;&gt;(*github.com/guild&#45;framework/guild&#45;core/pkg/kanban.Task).UpdateStatus</title>
<g id="a_edge3"><a xlink:title="at mock_kanban.go:85: calling [(*github.com/guild&#45;framework/guild&#45;core/pkg/kanban.Task).UpdateStatus]">
<path fill="none" stroke="saddlebrown" d="M341.14,-156C361.75,-156 382.32,-156 401.51,-156"/>
<polygon fill="saddlebrown" stroke="saddlebrown" points="401.43,-159.5 411.43,-156 401.43,-152.5 401.43,-159.5"/>
</a>
</g>
</g>
</g>
</svg>
