<?xml version="1.0" encoding="UTF-8" standalone="no"?>
<!DOCTYPE svg PUBLIC "-//W3C//DTD SVG 1.1//EN"
 "http://www.w3.org/Graphics/SVG/1.1/DTD/svg11.dtd">
<!-- Generated by graphviz version 14.1.1 (20251213.1925)
 -->
<!-- Title: gocallvis Pages: 1 -->
<svg width="1021pt" height="307pt"
 viewBox="0.00 0.00 1021.00 307.00" xmlns="http://www.w3.org/2000/svg" xmlns:xlink="http://www.w3.org/1999/xlink">
<g id="graph0" class="graph" transform="scale(1 1) rotate(0) translate(0 307)">
<title>gocallvis</title>
<polygon fill="lightgray" stroke="none" points="0,0 0,-307 1021.12,-307 1021.12,0 0,0"/>
<g id="clust1" class="cluster">
<title>cluster_focus</title>
<polygon fill="#e6ecfa" stroke="black" stroke-width="0.5" points="8,-8 8,-299 1013.12,-299 1013.12,-8 8,-8"/>
<text xml:space="preserve" text-anchor="middle" x="510.56" y="-277.9" font-family="Arial" font-size="18.00">cost</text>
</g>
<!-- (*github.com/guild&#45;framework/guild&#45;core/pkg/mcp/cost.MemoryObserver).GetAverageCost -->
<g id="node1" class="node">
<title>(*github.com/guild&#45;framework/guild&#45;core/pkg/mcp/cost.MemoryObserver).GetAverageCost</title>
<g id="a_node1"><a xlink:title="(*github.com/guild&#45;framework/guild&#45;core/pkg/mcp/cost.MemoryObserver).GetAverageCost | defined in observer.go:149&#10;at observer.go:150: calling [(*github.com/guild&#45;framework/guild&#45;core/pkg/mcp/cost.MemoryObserver).GetCosts]">
<path fill="lightblue" stroke="black" stroke-width="1.5" d="M648.45,-52C648.45,-52 389.91,-52 389.91,-52 383.91,-52 377.91,-46 377.91,-40 377.91,-40 377.91,-28 377.91,-28 377.91,-22 383.91,-16 389.91,-16 389.91,-16 648.45,-16 648.45,-16 654.45,-16 660.45,-22 660.45,-28 660.45,-28 660.45,-40 660.45,-40 660.45,-46 654.45,-52 648.45,-52"/>
<text xml:space="preserve" text-anchor="middle" x="519.18" y="-29.32" font-family="Verdana" font-size="14.00">(*MemoryObserver).GetAverageCost</text>
</a>
</g>
</g>
<!-- (*github.com/guild&#45;framework/guild&#45;core/pkg/mcp/cost.MemoryObserver).GetCosts -->
<g id="node2" class="node">
<title>(*github.com/guild&#45;framework/guild&#45;core/pkg/mcp/cost.MemoryObserver).GetCosts</title>
<g id="a_node2"><a xlink:title="(*github.com/guild&#45;framework/guild&#45;core/pkg/mcp/cost.MemoryObserver).GetCosts | defined in observer.go:104">
<path fill="lightblue" stroke="black" stroke-width="1.5" d="M993.12,-157C993.12,-157 784.83,-157 784.83,-157 778.83,-157 772.83,-151 772.83,-145 772.83,-145 772.83,-133 772.83,-133 772.83,-127 778.83,-121 784.83,-121 784.83,-121 993.12,-121 993.12,-121 999.12,-121 1005.12,-127 1005.12,-133 1005.12,-133 1005.12,-145 1005.12,-145 1005.12,-151 999.12,-157 993.12,-157"/>
<text xml:space="preserve" text-anchor="middle" x="888.97" y="-134.32" font-family="Verdana" font-size="14.00">(*MemoryObserver).GetCosts</text>
</a>
</g>
</g>
<!-- (*github.com/guild&#45;framework/guild&#45;core/pkg/mcp/cost.MemoryObserver).GetAverageCost&#45;&gt;(*github.com/guild&#45;framework/guild&#45;core/pkg/mcp/cost.MemoryObserver).GetCosts -->
<g id="edge5" class="edge">
<title>(*github.com/guild&#45;framework/guild&#45;core/pkg/mcp/cost.MemoryObserver).GetAverageCost&#45;&gt;(*github.com/guild&#45;framework/guild&#45;core/pkg/mcp/cost.MemoryObserver).GetCosts</title>
<g id="a_edge5"><a xlink:title="at observer.go:150: calling [(*github.com/guild&#45;framework/guild&#45;core/pkg/mcp/cost.MemoryObserver).GetCosts]">
<path fill="none" stroke="black" d="M648,-52.75C665.54,-56.28 683.22,-60.35 699.83,-65 747.72,-78.4 800.23,-99.63 837.58,-115.92"/>
<polygon fill="black" stroke="black" points="835.74,-118.94 846.31,-119.77 838.56,-112.54 835.74,-118.94"/>
</a>
</g>
</g>
<!-- (*github.com/guild&#45;framework/guild&#45;core/pkg/mcp/cost.MemoryObserver).GetTotalCost -->
<g id="node3" class="node">
<title>(*github.com/guild&#45;framework/guild&#45;core/pkg/mcp/cost.MemoryObserver).GetTotalCost</title>
<g id="a_node3"><a xlink:title="(*github.com/guild&#45;framework/guild&#45;core/pkg/mcp/cost.MemoryObserver).GetTotalCost | defined in observer.go:184&#10;at observer.go:185: calling [(*github.com/guild&#45;framework/guild&#45;core/pkg/mcp/cost.MemoryObserver).GetCosts]">
<path fill="lightblue" stroke="black" stroke-width="1.5" d="M636.08,-201C636.08,-201 402.29,-201 402.29,-201 396.29,-201 390.29,-195 390.29,-189 390.29,-189 390.29,-177 390.29,-177 390.29,-171 396.29,-165 402.29,-165 402.29,-165 636.08,-165 636.08,-165 642.08,-165 648.08,-171 648.08,-177 648.08,-177 648.08,-189 648.08,-189 648.08,-195 642.08,-201 636.08,-201"/>
<text xml:space="preserve" text-anchor="middle" x="519.18" y="-178.32" font-family="Verdana" font-size="14.00">(*MemoryObserver).GetTotalCost</text>
</a>
</g>
</g>
<!-- (*github.com/guild&#45;framework/guild&#45;core/pkg/mcp/cost.MemoryObserver).GetTotalCost&#45;&gt;(*github.com/guild&#45;framework/guild&#45;core/pkg/mcp/cost.MemoryObserver).GetCosts -->
<g id="edge6" class="edge">
<title>(*github.com/guild&#45;framework/guild&#45;core/pkg/mcp/cost.MemoryObserver).GetTotalCost&#45;&gt;(*github.com/guild&#45;framework/guild&#45;core/pkg/mcp/cost.MemoryObserver).GetCosts</title>
<g id="a_edge6"><a xlink:title="at observer.go:185: calling [(*github.com/guild&#45;framework/guild&#45;core/pkg/mcp/cost.MemoryObserver).GetCosts]">
<path fill="none" stroke="black" d="M648.82,-167.61C685.24,-163.25 724.85,-158.52 761.16,-154.17"/>
<polygon fill="black" stroke="black" points="761.3,-157.68 770.81,-153.02 760.47,-150.73 761.3,-157.68"/>
</a>
</g>
</g>
<!-- (*github.com/guild&#45;framework/guild&#45;core/pkg/mcp/cost.MemoryObserver).RecordCost -->
<g id="node4" class="node">
<title>(*github.com/guild&#45;framework/guild&#45;core/pkg/mcp/cost.MemoryObserver).RecordCost</title>
<g id="a_node4"><a xlink:title="(*github.com/guild&#45;framework/guild&#45;core/pkg/mcp/cost.MemoryObserver).RecordCost | defined in observer.go:71&#10;at observer.go:88: calling [(*github.com/guild&#45;framework/guild&#45;core/pkg/mcp/cost.MemoryObserver).rebuildIndices]">
<path fill="lightblue" stroke="black" stroke-width="1.5" d="M253.54,-113C253.54,-113 28,-113 28,-113 22,-113 16,-107 16,-101 16,-101 16,-89 16,-89 16,-83 22,-77 28,-77 28,-77 253.54,-77 253.54,-77 259.54,-77 265.54,-83 265.54,-89 265.54,-89 265.54,-101 265.54,-101 265.54,-107 259.54,-113 253.54,-113"/>
<text xml:space="preserve" text-anchor="middle" x="140.77" y="-90.33" font-family="Verdana" font-size="14.00">(*MemoryObserver).RecordCost</text>
</a>
</g>
</g>
<!-- (*github.com/guild&#45;framework/guild&#45;core/pkg/mcp/cost.MemoryObserver).rebuildIndices -->
<g id="node5" class="node">
<title>(*github.com/guild&#45;framework/guild&#45;core/pkg/mcp/cost.MemoryObserver).rebuildIndices</title>
<g id="a_node5"><a xlink:title="(*github.com/guild&#45;framework/guild&#45;core/pkg/mcp/cost.MemoryObserver).rebuildIndices | defined in observer.go:330">
<path fill="lightblue" stroke="black" stroke-width="0.5" d="M642.08,-113C642.08,-113 396.29,-113 396.29,-113 390.29,-113 384.29,-107 384.29,-101 384.29,-101 384.29,-89 384.29,-89 384.29,-83 390.29,-77 396.29,-77 396.29,-77 642.08,-77 642.08,-77 648.08,-77 654.08,-83 654.08,-89 654.08,-89 654.08,-101 654.08,-101 654.08,-107 648.08,-113 642.08,-113"/>
<text xml:space="preserve" text-anchor="middle" x="519.18" y="-90.33" font-family="Verdana" font-size="14.00">(*MemoryObserver).rebuildIndices</text>
</a>
</g>
</g>
<!-- (*github.com/guild&#45;framework/guild&#45;core/pkg/mcp/cost.MemoryObserver).RecordCost&#45;&gt;(*github.com/guild&#45;framework/guild&#45;core/pkg/mcp/cost.MemoryObserver).rebuildIndices -->
<g id="edge1" class="edge">
<title>(*github.com/guild&#45;framework/guild&#45;core/pkg/mcp/cost.MemoryObserver).RecordCost&#45;&gt;(*github.com/guild&#45;framework/guild&#45;core/pkg/mcp/cost.MemoryObserver).rebuildIndices</title>
<g id="a_edge1"><a xlink:title="at observer.go:88: calling [(*github.com/guild&#45;framework/guild&#45;core/pkg/mcp/cost.MemoryObserver).rebuildIndices]">
<path fill="none" stroke="black" d="M266.07,-95C300.27,-95 337.66,-95 372.94,-95"/>
<polygon fill="black" stroke="black" points="372.79,-98.5 382.79,-95 372.79,-91.5 372.79,-98.5"/>
</a>
</g>
</g>
<!-- (*github.com/guild&#45;framework/guild&#45;core/pkg/mcp/cost.MemoryObserver).Analyze -->
<g id="node6" class="node">
<title>(*github.com/guild&#45;framework/guild&#45;core/pkg/mcp/cost.MemoryObserver).Analyze</title>
<g id="a_node6"><a xlink:title="(*github.com/guild&#45;framework/guild&#45;core/pkg/mcp/cost.MemoryObserver).Analyze | defined in observer.go:204&#10;at observer.go:216: calling [(*github.com/guild&#45;framework/guild&#45;core/pkg/mcp/cost.MemoryObserver).GetTotalCost]&#10;at observer.go:309: calling [(*github.com/guild&#45;framework/guild&#45;core/pkg/mcp/cost.MemoryObserver).GetCosts]&#10;at observer.go:319: calling [(*github.com/guild&#45;framework/guild&#45;core/pkg/mcp/cost.MemoryObserver).generateRecommendations]">
<path fill="lightblue" stroke="black" stroke-width="1.5" d="M241.16,-201C241.16,-201 40.38,-201 40.38,-201 34.38,-201 28.37,-195 28.37,-189 28.37,-189 28.37,-177 28.37,-177 28.37,-171 34.37,-165 40.37,-165 40.37,-165 241.16,-165 241.16,-165 247.16,-165 253.16,-171 253.16,-177 253.16,-177 253.16,-189 253.16,-189 253.16,-195 247.16,-201 241.16,-201"/>
<text xml:space="preserve" text-anchor="middle" x="140.77" y="-178.32" font-family="Verdana" font-size="14.00">(*MemoryObserver).Analyze</text>
</a>
</g>
</g>
<!-- (*github.com/guild&#45;framework/guild&#45;core/pkg/mcp/cost.MemoryObserver).Analyze&#45;&gt;(*github.com/guild&#45;framework/guild&#45;core/pkg/mcp/cost.MemoryObserver).GetCosts -->
<g id="edge3" class="edge">
<title>(*github.com/guild&#45;framework/guild&#45;core/pkg/mcp/cost.MemoryObserver).Analyze&#45;&gt;(*github.com/guild&#45;framework/guild&#45;core/pkg/mcp/cost.MemoryObserver).GetCosts</title>
<g id="a_edge3"><a xlink:title="at observer.go:309: calling [(*github.com/guild&#45;framework/guild&#45;core/pkg/mcp/cost.MemoryObserver).GetCosts]">
<path fill="none" stroke="black" d="M248.19,-164.27C277.39,-159.82 309.11,-155.61 338.54,-153 482.92,-140.21 649.42,-137.67 760.94,-137.72"/>
<polygon fill="black" stroke="black" points="760.72,-141.22 770.72,-137.73 760.73,-134.22 760.72,-141.22"/>
</a>
</g>
</g>
<!-- (*github.com/guild&#45;framework/guild&#45;core/pkg/mcp/cost.MemoryObserver).Analyze&#45;&gt;(*github.com/guild&#45;framework/guild&#45;core/pkg/mcp/cost.MemoryObserver).GetTotalCost -->
<g id="edge2" class="edge">
<title>(*github.com/guild&#45;framework/guild&#45;core/pkg/mcp/cost.MemoryObserver).Analyze&#45;&gt;(*github.com/guild&#45;framework/guild&#45;core/pkg/mcp/cost.MemoryObserver).GetTotalCost</title>
<g id="a_edge2"><a xlink:title="at observer.go:216: calling [(*github.com/guild&#45;framework/guild&#45;core/pkg/mcp/cost.MemoryObserver).GetTotalCost]">
<path fill="none" stroke="black" d="M253.69,-183C292.81,-183 337.23,-183 378.34,-183"/>
<polygon fill="black" stroke="black" points="378.33,-186.5 388.33,-183 378.33,-179.5 378.33,-186.5"/>
</a>
</g>
</g>
<!-- (*github.com/guild&#45;framework/guild&#45;core/pkg/mcp/cost.MemoryObserver).generateRecommendations -->
<g id="node7" class="node">
<title>(*github.com/guild&#45;framework/guild&#45;core/pkg/mcp/cost.MemoryObserver).generateRecommendations</title>
<g id="a_node7"><a xlink:title="(*github.com/guild&#45;framework/guild&#45;core/pkg/mcp/cost.MemoryObserver).generateRecommendations | defined in observer.go:342">
<path fill="lightblue" stroke="black" stroke-width="0.5" d="M687.83,-262C687.83,-262 350.54,-262 350.54,-262 344.54,-262 338.54,-256 338.54,-250 338.54,-250 338.54,-238 338.54,-238 338.54,-232 344.54,-226 350.54,-226 350.54,-226 687.83,-226 687.83,-226 693.83,-226 699.83,-232 699.83,-238 699.83,-238 699.83,-250 699.83,-250 699.83,-256 693.83,-262 687.83,-262"/>
<text xml:space="preserve" text-anchor="middle" x="519.18" y="-239.32" font-family="Verdana" font-size="14.00">(*MemoryObserver).generateRecommendations</text>
</a>
</g>
</g>
<!-- (*github.com/guild&#45;framework/guild&#45;core/pkg/mcp/cost.MemoryObserver).Analyze&#45;&gt;(*github.com/guild&#45;framework/guild&#45;core/pkg/mcp/cost.MemoryObserver).generateRecommendations -->
<g id="edge4" class="edge">
<title>(*github.com/guild&#45;framework/guild&#45;core/pkg/mcp/cost.MemoryObserver).Analyze&#45;&gt;(*github.com/guild&#45;framework/guild&#45;core/pkg/mcp/cost.MemoryObserver).generateRecommendations</title>
<g id="a_edge4"><a xlink:title="at observer.go:319: calling [(*github.com/guild&#45;framework/guild&#45;core/pkg/mcp/cost.MemoryObserver).generateRecommendations]">
<path fill="none" stroke="black" d="M253.69,-201.14C298.03,-208.32 349.18,-216.61 394.61,-223.97"/>
<polygon fill="black" stroke="black" points="393.8,-227.39 404.23,-225.53 394.92,-220.48 393.8,-227.39"/>
</a>
</g>
</g>
</g>
</svg>
