<?xml version="1.0" encoding="UTF-8" standalone="no"?>
<!DOCTYPE svg PUBLIC "-//W3C//DTD SVG 1.1//EN"
 "http://www.w3.org/Graphics/SVG/1.1/DTD/svg11.dtd">
<!-- Generated by graphviz version 14.1.1 (20251213.1925)
 -->
<!-- Title: gocallvis Pages: 1 -->
<svg width="1031pt" height="603pt"
 viewBox="0.00 0.00 1031.00 603.00" xmlns="http://www.w3.org/2000/svg" xmlns:xlink="http://www.w3.org/1999/xlink">
<g id="graph0" class="graph" transform="scale(1 1) rotate(0) translate(0 603)">
<title>gocallvis</title>
<polygon fill="lightgray" stroke="none" points="0,0 0,-603 1031.41,-603 1031.41,0 0,0"/>
<g id="clust1" class="cluster">
<title>cluster_focus</title>
<polygon fill="#e6ecfa" stroke="black" stroke-width="0.5" points="8,-8 8,-595 1023.41,-595 1023.41,-8 8,-8"/>
<text xml:space="preserve" text-anchor="middle" x="515.7" y="-573.9" font-family="Arial" font-size="18.00">client</text>
</g>
<g id="clust2" class="cluster">
<title>cluster_github.com/guild&#45;framework/guild&#45;core/pkg/gerror</title>
<g id="a_clust2"><a xlink:href="/?f=github.com/guild-framework/guild-core/pkg/gerror" xlink:title="package: github.com/guild&#45;framework/guild&#45;core/pkg/gerror">
<polygon fill="lightyellow" stroke="black" stroke-width="0.8" points="767.12,-85 767.12,-470 1015.41,-470 1015.41,-85 767.12,-85"/>
<text xml:space="preserve" text-anchor="middle" x="891.26" y="-450.8" font-family="Tahoma bold" font-size="16.00">gerror</text>
</a>
</g>
</g>
<!-- (*github.com/guild&#45;framework/guild&#45;core/pkg/client.Client).Do -->
<g id="node1" class="node">
<title>(*github.com/guild&#45;framework/guild&#45;core/pkg/client.Client).Do</title>
<g id="a_node1"><a xlink:title="(*github.com/guild&#45;framework/guild&#45;core/pkg/client.Client).Do | defined in transport.go:162&#10;at transport.go:172: calling [github.com/guild&#45;framework/guild&#45;core/pkg/gerror.Wrap]&#10;at transport.go:179: calling [github.com/guild&#45;framework/guild&#45;core/pkg/gerror.Wrap]&#10;at transport.go:173: calling [(*github.com/guild&#45;framework/guild&#45;core/pkg/gerror.GuildError).WithComponent]&#10;at transport.go:180: calling [(*github.com/guild&#45;framework/guild&#45;core/pkg/gerror.GuildError).WithComponent]&#10;at transport.go:175: calling [(*github.com/guild&#45;framework/guild&#45;core/pkg/gerror.GuildError).WithDetails]&#10;at transport.go:182: calling [(*github.com/guild&#45;framework/guild&#45;core/pkg/gerror.GuildError).WithDetails]&#10;at transport.go:183: calling [(*github.com/guild&#45;framework/guild&#45;core/pkg/gerror.GuildError).WithDetails]&#10;at transport.go:184: calling [(*github.com/guild&#45;framework/guild&#45;core/pkg/gerror.GuildError).WithDetails]&#10;at transport.go:174: calling [(*github.com/guild&#45;framework/guild&#45;core/pkg/gerror.GuildError).WithOperation]&#10;at transport.go:181: calling [(*github.com/guild&#45;framework/guild&#45;core/pkg/gerror.GuildError).WithOperation]&#10;at transport.go:176: calling [(*github.com/guild&#45;framework/guild&#45;core/pkg/gerror.GuildError).FromContext]">
<path fill="lightblue" stroke="black" stroke-width="1.5" d="M610.99,-273C610.99,-273 527.2,-273 527.2,-273 521.2,-273 515.2,-267 515.2,-261 515.2,-261 515.2,-249 515.2,-249 515.2,-243 521.2,-237 527.2,-237 527.2,-237 610.99,-237 610.99,-237 616.99,-237 622.99,-243 622.99,-249 622.99,-249 622.99,-261 622.99,-261 622.99,-267 616.99,-273 610.99,-273"/>
<text xml:space="preserve" text-anchor="middle" x="569.1" y="-250.32" font-family="Verdana" font-size="14.00">(*Client).Do</text>
</a>
</g>
</g>
<!-- github.com/guild&#45;framework/guild&#45;core/pkg/gerror.Wrap -->
<g id="node8" class="node">
<title>github.com/guild&#45;framework/guild&#45;core/pkg/gerror.Wrap</title>
<g id="a_node8"><a xlink:title="github.com/guild&#45;framework/guild&#45;core/pkg/gerror.Wrap | defined in errors.go:223">
<path fill="moccasin" stroke="black" stroke-width="1.5" d="M909.16,-434C909.16,-434 873.37,-434 873.37,-434 867.37,-434 861.37,-428 861.37,-422 861.37,-422 861.37,-410 861.37,-410 861.37,-404 867.37,-398 873.37,-398 873.37,-398 909.16,-398 909.16,-398 915.16,-398 921.16,-404 921.16,-410 921.16,-410 921.16,-422 921.16,-422 921.16,-428 915.16,-434 909.16,-434"/>
<text xml:space="preserve" text-anchor="middle" x="891.26" y="-411.32" font-family="Verdana" font-size="14.00">Wrap</text>
</a>
</g>
</g>
<!-- (*github.com/guild&#45;framework/guild&#45;core/pkg/client.Client).Do&#45;&gt;github.com/guild&#45;framework/guild&#45;core/pkg/gerror.Wrap -->
<g id="edge2" class="edge">
<title>(*github.com/guild&#45;framework/guild&#45;core/pkg/client.Client).Do&#45;&gt;github.com/guild&#45;framework/guild&#45;core/pkg/gerror.Wrap</title>
<g id="a_edge2"><a xlink:title="at transport.go:172: calling [github.com/guild&#45;framework/guild&#45;core/pkg/gerror.Wrap]&#10;at transport.go:179: calling [github.com/guild&#45;framework/guild&#45;core/pkg/gerror.Wrap]">
<path fill="none" stroke="saddlebrown" d="M601.2,-273.65C628.22,-290.06 668.24,-314.89 702.12,-338 731.79,-358.24 734.59,-370.78 767.12,-386 793.27,-398.23 824.97,-405.81 849.66,-410.29"/>
<polygon fill="saddlebrown" stroke="saddlebrown" points="848.87,-413.7 859.32,-411.93 850.05,-406.8 848.87,-413.7"/>
</a>
</g>
</g>
<!-- (*github.com/guild&#45;framework/guild&#45;core/pkg/gerror.GuildError).WithComponent -->
<g id="node9" class="node">
<title>(*github.com/guild&#45;framework/guild&#45;core/pkg/gerror.GuildError).WithComponent</title>
<g id="a_node9"><a xlink:title="(*github.com/guild&#45;framework/guild&#45;core/pkg/gerror.GuildError).WithComponent | defined in errors.go:156">
<path fill="moccasin" stroke="black" stroke-width="1.5" d="M995.41,-251C995.41,-251 787.12,-251 787.12,-251 781.12,-251 775.12,-245 775.12,-239 775.12,-239 775.12,-227 775.12,-227 775.12,-221 781.12,-215 787.12,-215 787.12,-215 995.41,-215 995.41,-215 1001.41,-215 1007.41,-221 1007.41,-227 1007.41,-227 1007.41,-239 1007.41,-239 1007.41,-245 1001.41,-251 995.41,-251"/>
<text xml:space="preserve" text-anchor="middle" x="891.26" y="-228.32" font-family="Verdana" font-size="14.00">(*GuildError).WithComponent</text>
</a>
</g>
</g>
<!-- (*github.com/guild&#45;framework/guild&#45;core/pkg/client.Client).Do&#45;&gt;(*github.com/guild&#45;framework/guild&#45;core/pkg/gerror.GuildError).WithComponent -->
<g id="edge8" class="edge">
<title>(*github.com/guild&#45;framework/guild&#45;core/pkg/client.Client).Do&#45;&gt;(*github.com/guild&#45;framework/guild&#45;core/pkg/gerror.GuildError).WithComponent</title>
<g id="a_edge8"><a xlink:title="at transport.go:173: calling [(*github.com/guild&#45;framework/guild&#45;core/pkg/gerror.GuildError).WithComponent]&#10;at transport.go:180: calling [(*github.com/guild&#45;framework/guild&#45;core/pkg/gerror.GuildError).WithComponent]">
<path fill="none" stroke="saddlebrown" d="M623.69,-251.32C661.84,-248.7 714.76,-245.06 763.39,-241.72"/>
<polygon fill="saddlebrown" stroke="saddlebrown" points="763.43,-245.22 773.16,-241.05 762.95,-238.24 763.43,-245.22"/>
</a>
</g>
</g>
<!-- (*github.com/guild&#45;framework/guild&#45;core/pkg/gerror.GuildError).WithOperation -->
<g id="node10" class="node">
<title>(*github.com/guild&#45;framework/guild&#45;core/pkg/gerror.GuildError).WithOperation</title>
<g id="a_node10"><a xlink:title="(*github.com/guild&#45;framework/guild&#45;core/pkg/gerror.GuildError).WithOperation | defined in errors.go:162">
<path fill="moccasin" stroke="black" stroke-width="1.5" d="M989.78,-190C989.78,-190 792.74,-190 792.74,-190 786.74,-190 780.74,-184 780.74,-178 780.74,-178 780.74,-166 780.74,-166 780.74,-160 786.74,-154 792.74,-154 792.74,-154 989.78,-154 989.78,-154 995.78,-154 1001.78,-160 1001.78,-166 1001.78,-166 1001.78,-178 1001.78,-178 1001.78,-184 995.78,-190 989.78,-190"/>
<text xml:space="preserve" text-anchor="middle" x="891.26" y="-167.32" font-family="Verdana" font-size="14.00">(*GuildError).WithOperation</text>
</a>
</g>
</g>
<!-- (*github.com/guild&#45;framework/guild&#45;core/pkg/client.Client).Do&#45;&gt;(*github.com/guild&#45;framework/guild&#45;core/pkg/gerror.GuildError).WithOperation -->
<g id="edge13" class="edge">
<title>(*github.com/guild&#45;framework/guild&#45;core/pkg/client.Client).Do&#45;&gt;(*github.com/guild&#45;framework/guild&#45;core/pkg/gerror.GuildError).WithOperation</title>
<g id="a_edge13"><a xlink:title="at transport.go:174: calling [(*github.com/guild&#45;framework/guild&#45;core/pkg/gerror.GuildError).WithOperation]&#10;at transport.go:181: calling [(*github.com/guild&#45;framework/guild&#45;core/pkg/gerror.GuildError).WithOperation]">
<path fill="none" stroke="saddlebrown" d="M623.57,-240.71C663.18,-230.17 718.48,-215.54 767.12,-203 779.17,-199.89 791.9,-196.65 804.42,-193.48"/>
<polygon fill="saddlebrown" stroke="saddlebrown" points="805.04,-196.93 813.87,-191.09 803.32,-190.14 805.04,-196.93"/>
</a>
</g>
</g>
<!-- (*github.com/guild&#45;framework/guild&#45;core/pkg/gerror.GuildError).WithDetails -->
<g id="node11" class="node">
<title>(*github.com/guild&#45;framework/guild&#45;core/pkg/gerror.GuildError).WithDetails</title>
<g id="a_node11"><a xlink:title="(*github.com/guild&#45;framework/guild&#45;core/pkg/gerror.GuildError).WithDetails | defined in errors.go:147">
<path fill="moccasin" stroke="black" stroke-width="1.5" d="M978.91,-373C978.91,-373 803.62,-373 803.62,-373 797.62,-373 791.62,-367 791.62,-361 791.62,-361 791.62,-349 791.62,-349 791.62,-343 797.62,-337 803.62,-337 803.62,-337 978.91,-337 978.91,-337 984.91,-337 990.91,-343 990.91,-349 990.91,-349 990.91,-361 990.91,-361 990.91,-367 984.91,-373 978.91,-373"/>
<text xml:space="preserve" text-anchor="middle" x="891.26" y="-350.32" font-family="Verdana" font-size="14.00">(*GuildError).WithDetails</text>
</a>
</g>
</g>
<!-- (*github.com/guild&#45;framework/guild&#45;core/pkg/client.Client).Do&#45;&gt;(*github.com/guild&#45;framework/guild&#45;core/pkg/gerror.GuildError).WithDetails -->
<g id="edge9" class="edge">
<title>(*github.com/guild&#45;framework/guild&#45;core/pkg/client.Client).Do&#45;&gt;(*github.com/guild&#45;framework/guild&#45;core/pkg/gerror.GuildError).WithDetails</title>
<g id="a_edge9"><a xlink:title="at transport.go:175: calling [(*github.com/guild&#45;framework/guild&#45;core/pkg/gerror.GuildError).WithDetails]&#10;at transport.go:182: calling [(*github.com/guild&#45;framework/guild&#45;core/pkg/gerror.GuildError).WithDetails]&#10;at transport.go:183: calling [(*github.com/guild&#45;framework/guild&#45;core/pkg/gerror.GuildError).WithDetails]&#10;at transport.go:184: calling [(*github.com/guild&#45;framework/guild&#45;core/pkg/gerror.GuildError).WithDetails]">
<path fill="none" stroke="saddlebrown" d="M618.22,-273.66C657.84,-288.63 715.64,-309.63 767.12,-325 776.87,-327.91 787.13,-330.75 797.38,-333.45"/>
<polygon fill="saddlebrown" stroke="saddlebrown" points="796.45,-336.83 807.01,-335.94 798.2,-330.05 796.45,-336.83"/>
</a>
</g>
</g>
<!-- (*github.com/guild&#45;framework/guild&#45;core/pkg/gerror.GuildError).FromContext -->
<g id="node12" class="node">
<title>(*github.com/guild&#45;framework/guild&#45;core/pkg/gerror.GuildError).FromContext</title>
<g id="a_node12"><a xlink:title="(*github.com/guild&#45;framework/guild&#45;core/pkg/gerror.GuildError).FromContext | defined in errors.go:250">
<path fill="moccasin" stroke="black" stroke-width="1.5" d="M984.53,-312C984.53,-312 797.99,-312 797.99,-312 791.99,-312 785.99,-306 785.99,-300 785.99,-300 785.99,-288 785.99,-288 785.99,-282 791.99,-276 797.99,-276 797.99,-276 984.53,-276 984.53,-276 990.53,-276 996.53,-282 996.53,-288 996.53,-288 996.53,-300 996.53,-300 996.53,-306 990.53,-312 984.53,-312"/>
<text xml:space="preserve" text-anchor="middle" x="891.26" y="-289.32" font-family="Verdana" font-size="14.00">(*GuildError).FromContext</text>
</a>
</g>
</g>
<!-- (*github.com/guild&#45;framework/guild&#45;core/pkg/client.Client).Do&#45;&gt;(*github.com/guild&#45;framework/guild&#45;core/pkg/gerror.GuildError).FromContext -->
<g id="edge20" class="edge">
<title>(*github.com/guild&#45;framework/guild&#45;core/pkg/client.Client).Do&#45;&gt;(*github.com/guild&#45;framework/guild&#45;core/pkg/gerror.GuildError).FromContext</title>
<g id="a_edge20"><a xlink:title="at transport.go:176: calling [(*github.com/guild&#45;framework/guild&#45;core/pkg/gerror.GuildError).FromContext]">
<path fill="none" stroke="saddlebrown" d="M623.69,-261.53C664.65,-266.52 722.64,-273.58 774.08,-279.85"/>
<polygon fill="saddlebrown" stroke="saddlebrown" points="773.43,-283.29 783.78,-281.03 774.28,-276.35 773.43,-283.29"/>
</a>
</g>
</g>
<!-- (*github.com/guild&#45;framework/guild&#45;core/pkg/client.Client).Post -->
<g id="node2" class="node">
<title>(*github.com/guild&#45;framework/guild&#45;core/pkg/client.Client).Post</title>
<g id="a_node2"><a xlink:title="(*github.com/guild&#45;framework/guild&#45;core/pkg/client.Client).Post | defined in transport.go:204&#10;at transport.go:210: calling [(*github.com/guild&#45;framework/guild&#45;core/pkg/gerror.GuildError).WithDetails]&#10;at transport.go:217: calling [(*github.com/guild&#45;framework/guild&#45;core/pkg/client.Client).Do]&#10;at transport.go:207: calling [github.com/guild&#45;framework/guild&#45;core/pkg/gerror.Wrap]&#10;at transport.go:208: calling [(*github.com/guild&#45;framework/guild&#45;core/pkg/gerror.GuildError).WithComponent]&#10;at transport.go:209: calling [(*github.com/guild&#45;framework/guild&#45;core/pkg/gerror.GuildError).WithOperation]">
<path fill="lightblue" stroke="black" stroke-width="1.5" d="M351.08,-197C351.08,-197 256.79,-197 256.79,-197 250.79,-197 244.79,-191 244.79,-185 244.79,-185 244.79,-173 244.79,-173 244.79,-167 250.79,-161 256.79,-161 256.79,-161 351.08,-161 351.08,-161 357.08,-161 363.08,-167 363.08,-173 363.08,-173 363.08,-185 363.08,-185 363.08,-191 357.08,-197 351.08,-197"/>
<text xml:space="preserve" text-anchor="middle" x="303.93" y="-174.32" font-family="Verdana" font-size="14.00">(*Client).Post</text>
</a>
</g>
</g>
<!-- (*github.com/guild&#45;framework/guild&#45;core/pkg/client.Client).Post&#45;&gt;(*github.com/guild&#45;framework/guild&#45;core/pkg/client.Client).Do -->
<g id="edge14" class="edge">
<title>(*github.com/guild&#45;framework/guild&#45;core/pkg/client.Client).Post&#45;&gt;(*github.com/guild&#45;framework/guild&#45;core/pkg/client.Client).Do</title>
<g id="a_edge14"><a xlink:title="at transport.go:217: calling [(*github.com/guild&#45;framework/guild&#45;core/pkg/client.Client).Do]">
<path fill="none" stroke="black" d="M363.67,-195.96C405.19,-207.95 460.86,-224.03 503.62,-236.38"/>
<polygon fill="black" stroke="black" points="502.44,-239.68 513.02,-239.09 504.38,-232.96 502.44,-239.68"/>
</a>
</g>
</g>
<!-- (*github.com/guild&#45;framework/guild&#45;core/pkg/client.Client).Post&#45;&gt;github.com/guild&#45;framework/guild&#45;core/pkg/gerror.Wrap -->
<g id="edge21" class="edge">
<title>(*github.com/guild&#45;framework/guild&#45;core/pkg/client.Client).Post&#45;&gt;github.com/guild&#45;framework/guild&#45;core/pkg/gerror.Wrap</title>
<g id="a_edge21"><a xlink:title="at transport.go:207: calling [github.com/guild&#45;framework/guild&#45;core/pkg/gerror.Wrap]">
<path fill="none" stroke="saddlebrown" d="M335.85,-197.65C345.83,-205.04 356.1,-214.34 363.08,-225 414.19,-303.14 354.55,-376.49 436.08,-422 571.36,-497.51 766.51,-453.59 849.95,-429.07"/>
<polygon fill="saddlebrown" stroke="saddlebrown" points="850.72,-432.5 859.29,-426.27 848.7,-425.79 850.72,-432.5"/>
</a>
</g>
</g>
<!-- (*github.com/guild&#45;framework/guild&#45;core/pkg/client.Client).Post&#45;&gt;(*github.com/guild&#45;framework/guild&#45;core/pkg/gerror.GuildError).WithComponent -->
<g id="edge22" class="edge">
<title>(*github.com/guild&#45;framework/guild&#45;core/pkg/client.Client).Post&#45;&gt;(*github.com/guild&#45;framework/guild&#45;core/pkg/gerror.GuildError).WithComponent</title>
<g id="a_edge22"><a xlink:title="at transport.go:208: calling [(*github.com/guild&#45;framework/guild&#45;core/pkg/gerror.GuildError).WithComponent]">
<path fill="none" stroke="saddlebrown" d="M336.16,-160.3C354.3,-151.38 377.89,-143.02 400.08,-145 541.05,-157.55 702.16,-190.03 800.01,-211.82"/>
<polygon fill="saddlebrown" stroke="saddlebrown" points="799.04,-215.19 809.57,-213.96 800.57,-208.36 799.04,-215.19"/>
</a>
</g>
</g>
<!-- (*github.com/guild&#45;framework/guild&#45;core/pkg/client.Client).Post&#45;&gt;(*github.com/guild&#45;framework/guild&#45;core/pkg/gerror.GuildError).WithOperation -->
<g id="edge23" class="edge">
<title>(*github.com/guild&#45;framework/guild&#45;core/pkg/client.Client).Post&#45;&gt;(*github.com/guild&#45;framework/guild&#45;core/pkg/gerror.GuildError).WithOperation</title>
<g id="a_edge23"><a xlink:title="at transport.go:209: calling [(*github.com/guild&#45;framework/guild&#45;core/pkg/gerror.GuildError).WithOperation]">
<path fill="none" stroke="saddlebrown" d="M325.94,-160.25C343.92,-145.54 371.25,-126.23 399.08,-118 544.01,-75.15 597.38,-65.57 739.12,-118 754.49,-123.69 752.54,-134.52 767.12,-142 772.44,-144.73 778.03,-147.22 783.75,-149.49"/>
<polygon fill="saddlebrown" stroke="saddlebrown" points="782.17,-152.63 792.77,-152.81 784.59,-146.07 782.17,-152.63"/>
</a>
</g>
</g>
<!-- (*github.com/guild&#45;framework/guild&#45;core/pkg/client.Client).Post&#45;&gt;(*github.com/guild&#45;framework/guild&#45;core/pkg/gerror.GuildError).WithDetails -->
<g id="edge10" class="edge">
<title>(*github.com/guild&#45;framework/guild&#45;core/pkg/client.Client).Post&#45;&gt;(*github.com/guild&#45;framework/guild&#45;core/pkg/gerror.GuildError).WithDetails</title>
<g id="a_edge10"><a xlink:title="at transport.go:210: calling [(*github.com/guild&#45;framework/guild&#45;core/pkg/gerror.GuildError).WithDetails]">
<path fill="none" stroke="saddlebrown" d="M334.12,-197.56C344.3,-205.12 355.14,-214.54 363.08,-225 413.79,-291.79 366.24,-352.57 436.08,-399 534.54,-464.47 584.66,-412.55 702.12,-399 712.68,-397.78 758.91,-386.98 802.9,-376.39"/>
<polygon fill="saddlebrown" stroke="saddlebrown" points="803.64,-379.81 812.54,-374.06 802,-373.01 803.64,-379.81"/>
</a>
</g>
</g>
<!-- github.com/guild&#45;framework/guild&#45;core/pkg/client.NewUnixSocketTransport -->
<g id="node3" class="node">
<title>github.com/guild&#45;framework/guild&#45;core/pkg/client.NewUnixSocketTransport</title>
<g id="a_node3"><a xlink:title="github.com/guild&#45;framework/guild&#45;core/pkg/client.NewUnixSocketTransport | defined in transport.go:24&#10;at transport.go:27: calling [(*github.com/guild&#45;framework/guild&#45;core/pkg/gerror.GuildError).WithComponent]&#10;at transport.go:26: calling [github.com/guild&#45;framework/guild&#45;core/pkg/gerror.New]&#10;at transport.go:28: calling [(*github.com/guild&#45;framework/guild&#45;core/pkg/gerror.GuildError).WithOperation]">
<path fill="lightblue" stroke="black" stroke-width="1.5" d="M656.37,-52C656.37,-52 481.83,-52 481.83,-52 475.83,-52 469.83,-46 469.83,-40 469.83,-40 469.83,-28 469.83,-28 469.83,-22 475.83,-16 481.83,-16 481.83,-16 656.37,-16 656.37,-16 662.37,-16 668.37,-22 668.37,-28 668.37,-28 668.37,-40 668.37,-40 668.37,-46 662.37,-52 656.37,-52"/>
<text xml:space="preserve" text-anchor="middle" x="569.1" y="-29.32" font-family="Verdana" font-size="14.00">NewUnixSocketTransport</text>
</a>
</g>
</g>
<!-- github.com/guild&#45;framework/guild&#45;core/pkg/client.NewUnixSocketTransport&#45;&gt;(*github.com/guild&#45;framework/guild&#45;core/pkg/gerror.GuildError).WithComponent -->
<g id="edge11" class="edge">
<title>github.com/guild&#45;framework/guild&#45;core/pkg/client.NewUnixSocketTransport&#45;&gt;(*github.com/guild&#45;framework/guild&#45;core/pkg/gerror.GuildError).WithComponent</title>
<g id="a_edge11"><a xlink:title="at transport.go:27: calling [(*github.com/guild&#45;framework/guild&#45;core/pkg/gerror.GuildError).WithComponent]">
<path fill="none" stroke="saddlebrown" d="M635.26,-52.69C670.39,-65.79 711.98,-86.67 739.12,-118 765.16,-148.06 737.9,-176.01 767.12,-203 769.02,-204.76 771.01,-206.42 773.08,-207.99"/>
<polygon fill="saddlebrown" stroke="saddlebrown" points="771.03,-210.83 781.3,-213.44 774.9,-205 771.03,-210.83"/>
</a>
</g>
</g>
<!-- github.com/guild&#45;framework/guild&#45;core/pkg/client.NewUnixSocketTransport&#45;&gt;(*github.com/guild&#45;framework/guild&#45;core/pkg/gerror.GuildError).WithOperation -->
<g id="edge16" class="edge">
<title>github.com/guild&#45;framework/guild&#45;core/pkg/client.NewUnixSocketTransport&#45;&gt;(*github.com/guild&#45;framework/guild&#45;core/pkg/gerror.GuildError).WithOperation</title>
<g id="a_edge16"><a xlink:title="at transport.go:28: calling [(*github.com/guild&#45;framework/guild&#45;core/pkg/gerror.GuildError).WithOperation]">
<path fill="none" stroke="saddlebrown" d="M668.8,-34.25C694.03,-38.66 719.53,-47.47 739.12,-64 767.27,-87.75 739.74,-117.37 767.12,-142 769.23,-143.9 771.44,-145.68 773.74,-147.36"/>
<polygon fill="saddlebrown" stroke="saddlebrown" points="771.4,-150.02 781.71,-152.48 775.19,-144.13 771.4,-150.02"/>
</a>
</g>
</g>
<!-- github.com/guild&#45;framework/guild&#45;core/pkg/gerror.New -->
<g id="node13" class="node">
<title>github.com/guild&#45;framework/guild&#45;core/pkg/gerror.New</title>
<g id="a_node13"><a xlink:title="github.com/guild&#45;framework/guild&#45;core/pkg/gerror.New | defined in errors.go:190">
<path fill="moccasin" stroke="black" stroke-width="1.5" d="M906.26,-129C906.26,-129 876.26,-129 876.26,-129 870.26,-129 864.26,-123 864.26,-117 864.26,-117 864.26,-105 864.26,-105 864.26,-99 870.26,-93 876.26,-93 876.26,-93 906.26,-93 906.26,-93 912.26,-93 918.26,-99 918.26,-105 918.26,-105 918.26,-117 918.26,-117 918.26,-123 912.26,-129 906.26,-129"/>
<text xml:space="preserve" text-anchor="middle" x="891.26" y="-106.33" font-family="Verdana" font-size="14.00">New</text>
</a>
</g>
</g>
<!-- github.com/guild&#45;framework/guild&#45;core/pkg/client.NewUnixSocketTransport&#45;&gt;github.com/guild&#45;framework/guild&#45;core/pkg/gerror.New -->
<g id="edge15" class="edge">
<title>github.com/guild&#45;framework/guild&#45;core/pkg/client.NewUnixSocketTransport&#45;&gt;github.com/guild&#45;framework/guild&#45;core/pkg/gerror.New</title>
<g id="a_edge15"><a xlink:title="at transport.go:26: calling [github.com/guild&#45;framework/guild&#45;core/pkg/gerror.New]">
<path fill="none" stroke="saddlebrown" d="M668.89,-28.54C692.17,-29.23 716.72,-31.6 739.12,-37 780.97,-47.09 824.72,-70.08 854.31,-87.78"/>
<polygon fill="saddlebrown" stroke="saddlebrown" points="852.13,-90.54 862.49,-92.76 855.77,-84.57 852.13,-90.54"/>
</a>
</g>
</g>
<!-- github.com/guild&#45;framework/guild&#45;core/pkg/client.NewClient -->
<g id="node4" class="node">
<title>github.com/guild&#45;framework/guild&#45;core/pkg/client.NewClient</title>
<g id="a_node4"><a xlink:title="github.com/guild&#45;framework/guild&#45;core/pkg/client.NewClient | defined in transport.go:122&#10;at transport.go:123: calling [github.com/guild&#45;framework/guild&#45;core/pkg/client.NewUnixSocketTransport]">
<path fill="lightblue" stroke="black" stroke-width="1.5" d="M338.33,-52C338.33,-52 269.54,-52 269.54,-52 263.54,-52 257.54,-46 257.54,-40 257.54,-40 257.54,-28 257.54,-28 257.54,-22 263.54,-16 269.54,-16 269.54,-16 338.33,-16 338.33,-16 344.33,-16 350.33,-22 350.33,-28 350.33,-28 350.33,-40 350.33,-40 350.33,-46 344.33,-52 338.33,-52"/>
<text xml:space="preserve" text-anchor="middle" x="303.93" y="-29.32" font-family="Verdana" font-size="14.00">NewClient</text>
</a>
</g>
</g>
<!-- github.com/guild&#45;framework/guild&#45;core/pkg/client.NewClient&#45;&gt;github.com/guild&#45;framework/guild&#45;core/pkg/client.NewUnixSocketTransport -->
<g id="edge3" class="edge">
<title>github.com/guild&#45;framework/guild&#45;core/pkg/client.NewClient&#45;&gt;github.com/guild&#45;framework/guild&#45;core/pkg/client.NewUnixSocketTransport</title>
<g id="a_edge3"><a xlink:title="at transport.go:123: calling [github.com/guild&#45;framework/guild&#45;core/pkg/client.NewUnixSocketTransport]">
<path fill="none" stroke="black" d="M351.08,-34C380.79,-34 420.76,-34 458.29,-34"/>
<polygon fill="black" stroke="black" points="457.81,-37.5 467.81,-34 457.81,-30.5 457.81,-37.5"/>
</a>
</g>
</g>
<!-- (*github.com/guild&#45;framework/guild&#45;core/pkg/client.Client).Get -->
<g id="node5" class="node">
<title>(*github.com/guild&#45;framework/guild&#45;core/pkg/client.Client).Get</title>
<g id="a_node5"><a xlink:title="(*github.com/guild&#45;framework/guild&#45;core/pkg/client.Client).Get | defined in transport.go:191&#10;at transport.go:197: calling [(*github.com/guild&#45;framework/guild&#45;core/pkg/gerror.GuildError).WithDetails]&#10;at transport.go:200: calling [(*github.com/guild&#45;framework/guild&#45;core/pkg/client.Client).Do]&#10;at transport.go:195: calling [(*github.com/guild&#45;framework/guild&#45;core/pkg/gerror.GuildError).WithComponent]&#10;at transport.go:194: calling [github.com/guild&#45;framework/guild&#45;core/pkg/gerror.Wrap]&#10;at transport.go:196: calling [(*github.com/guild&#45;framework/guild&#45;core/pkg/gerror.GuildError).WithOperation]">
<path fill="lightblue" stroke="black" stroke-width="1.5" d="M348.45,-273C348.45,-273 259.41,-273 259.41,-273 253.41,-273 247.41,-267 247.41,-261 247.41,-261 247.41,-249 247.41,-249 247.41,-243 253.41,-237 259.41,-237 259.41,-237 348.45,-237 348.45,-237 354.45,-237 360.45,-243 360.45,-249 360.45,-249 360.45,-261 360.45,-261 360.45,-267 354.45,-273 348.45,-273"/>
<text xml:space="preserve" text-anchor="middle" x="303.93" y="-250.32" font-family="Verdana" font-size="14.00">(*Client).Get</text>
</a>
</g>
</g>
<!-- (*github.com/guild&#45;framework/guild&#45;core/pkg/client.Client).Get&#45;&gt;(*github.com/guild&#45;framework/guild&#45;core/pkg/client.Client).Do -->
<g id="edge4" class="edge">
<title>(*github.com/guild&#45;framework/guild&#45;core/pkg/client.Client).Get&#45;&gt;(*github.com/guild&#45;framework/guild&#45;core/pkg/client.Client).Do</title>
<g id="a_edge4"><a xlink:title="at transport.go:200: calling [(*github.com/guild&#45;framework/guild&#45;core/pkg/client.Client).Do]">
<path fill="none" stroke="black" d="M361.07,-255C402.78,-255 459.76,-255 503.39,-255"/>
<polygon fill="black" stroke="black" points="503.23,-258.5 513.23,-255 503.23,-251.5 503.23,-258.5"/>
</a>
</g>
</g>
<!-- (*github.com/guild&#45;framework/guild&#45;core/pkg/client.Client).Get&#45;&gt;github.com/guild&#45;framework/guild&#45;core/pkg/gerror.Wrap -->
<g id="edge24" class="edge">
<title>(*github.com/guild&#45;framework/guild&#45;core/pkg/client.Client).Get&#45;&gt;github.com/guild&#45;framework/guild&#45;core/pkg/gerror.Wrap</title>
<g id="a_edge24"><a xlink:title="at transport.go:194: calling [github.com/guild&#45;framework/guild&#45;core/pkg/gerror.Wrap]">
<path fill="none" stroke="saddlebrown" d="M307.54,-273.49C315.69,-323.06 345.74,-458.3 436.08,-505 556.39,-567.19 611.33,-581.85 739.12,-537 792.24,-518.36 840.54,-472.32 867.6,-442.72"/>
<polygon fill="saddlebrown" stroke="saddlebrown" points="869.9,-445.38 873.96,-435.6 864.69,-440.72 869.9,-445.38"/>
</a>
</g>
</g>
<!-- (*github.com/guild&#45;framework/guild&#45;core/pkg/client.Client).Get&#45;&gt;(*github.com/guild&#45;framework/guild&#45;core/pkg/gerror.GuildError).WithComponent -->
<g id="edge17" class="edge">
<title>(*github.com/guild&#45;framework/guild&#45;core/pkg/client.Client).Get&#45;&gt;(*github.com/guild&#45;framework/guild&#45;core/pkg/gerror.GuildError).WithComponent</title>
<g id="a_edge17"><a xlink:title="at transport.go:195: calling [(*github.com/guild&#45;framework/guild&#45;core/pkg/gerror.GuildError).WithComponent]">
<path fill="none" stroke="saddlebrown" d="M360.94,-239.27C384.01,-233.56 411.13,-227.82 436.08,-225 546.1,-212.58 672.05,-216.19 763.36,-221.98"/>
<polygon fill="saddlebrown" stroke="saddlebrown" points="762.89,-225.45 773.09,-222.62 763.34,-218.47 762.89,-225.45"/>
</a>
</g>
</g>
<!-- (*github.com/guild&#45;framework/guild&#45;core/pkg/client.Client).Get&#45;&gt;(*github.com/guild&#45;framework/guild&#45;core/pkg/gerror.GuildError).WithOperation -->
<g id="edge25" class="edge">
<title>(*github.com/guild&#45;framework/guild&#45;core/pkg/client.Client).Get&#45;&gt;(*github.com/guild&#45;framework/guild&#45;core/pkg/gerror.GuildError).WithOperation</title>
<g id="a_edge25"><a xlink:title="at transport.go:196: calling [(*github.com/guild&#45;framework/guild&#45;core/pkg/gerror.GuildError).WithOperation]">
<path fill="none" stroke="saddlebrown" d="M351.53,-236.35C376.26,-227.23 407.39,-216.96 436.08,-211 547.29,-187.91 676.55,-178.46 768.67,-174.6"/>
<polygon fill="saddlebrown" stroke="saddlebrown" points="768.64,-178.1 778.49,-174.21 768.36,-171.11 768.64,-178.1"/>
</a>
</g>
</g>
<!-- (*github.com/guild&#45;framework/guild&#45;core/pkg/client.Client).Get&#45;&gt;(*github.com/guild&#45;framework/guild&#45;core/pkg/gerror.GuildError).WithDetails -->
<g id="edge1" class="edge">
<title>(*github.com/guild&#45;framework/guild&#45;core/pkg/client.Client).Get&#45;&gt;(*github.com/guild&#45;framework/guild&#45;core/pkg/gerror.GuildError).WithDetails</title>
<g id="a_edge1"><a xlink:title="at transport.go:197: calling [(*github.com/guild&#45;framework/guild&#45;core/pkg/gerror.GuildError).WithDetails]">
<path fill="none" stroke="saddlebrown" d="M307.14,-273.71C313.17,-315.23 334.05,-414.65 399.08,-456 526.61,-537.09 613.98,-540.73 739.12,-456 766.87,-437.21 741.89,-408.06 767.12,-386 771.42,-382.24 776.11,-378.93 781.06,-376"/>
<polygon fill="saddlebrown" stroke="saddlebrown" points="782.32,-379.3 789.55,-371.55 779.07,-373.1 782.32,-379.3"/>
</a>
</g>
</g>
<!-- (*github.com/guild&#45;framework/guild&#45;core/pkg/client.Client).IsHealthy -->
<g id="node6" class="node">
<title>(*github.com/guild&#45;framework/guild&#45;core/pkg/client.Client).IsHealthy</title>
<g id="a_node6"><a xlink:title="(*github.com/guild&#45;framework/guild&#45;core/pkg/client.Client).IsHealthy | defined in transport.go:232&#10;at transport.go:237: calling [(*github.com/guild&#45;framework/guild&#45;core/pkg/client.Client).Get]">
<path fill="lightblue" stroke="black" stroke-width="1.5" d="M159.79,-273C159.79,-273 28,-273 28,-273 22,-273 16,-267 16,-261 16,-261 16,-249 16,-249 16,-243 22,-237 28,-237 28,-237 159.79,-237 159.79,-237 165.79,-237 171.79,-243 171.79,-249 171.79,-249 171.79,-261 171.79,-261 171.79,-267 165.79,-273 159.79,-273"/>
<text xml:space="preserve" text-anchor="middle" x="93.89" y="-250.32" font-family="Verdana" font-size="14.00">(*Client).IsHealthy</text>
</a>
</g>
</g>
<!-- (*github.com/guild&#45;framework/guild&#45;core/pkg/client.Client).IsHealthy&#45;&gt;(*github.com/guild&#45;framework/guild&#45;core/pkg/client.Client).Get -->
<g id="edge5" class="edge">
<title>(*github.com/guild&#45;framework/guild&#45;core/pkg/client.Client).IsHealthy&#45;&gt;(*github.com/guild&#45;framework/guild&#45;core/pkg/client.Client).Get</title>
<g id="a_edge5"><a xlink:title="at transport.go:237: calling [(*github.com/guild&#45;framework/guild&#45;core/pkg/client.Client).Get]">
<path fill="none" stroke="black" d="M172.36,-255C193.12,-255 215.4,-255 235.57,-255"/>
<polygon fill="black" stroke="black" points="235.34,-258.5 245.34,-255 235.34,-251.5 235.34,-258.5"/>
</a>
</g>
</g>
<!-- (*github.com/guild&#45;framework/guild&#45;core/pkg/client.UnixSocketTransport).RoundTrip -->
<g id="node7" class="node">
<title>(*github.com/guild&#45;framework/guild&#45;core/pkg/client.UnixSocketTransport).RoundTrip</title>
<g id="a_node7"><a xlink:title="(*github.com/guild&#45;framework/guild&#45;core/pkg/client.UnixSocketTransport).RoundTrip | defined in transport.go:72&#10;at transport.go:86: calling [(*github.com/guild&#45;framework/guild&#45;core/pkg/gerror.GuildError).WithOperation]&#10;at transport.go:95: calling [(*github.com/guild&#45;framework/guild&#45;core/pkg/gerror.GuildError).WithOperation]&#10;at transport.go:87: calling [(*github.com/guild&#45;framework/guild&#45;core/pkg/gerror.GuildError).WithDetails]&#10;at transport.go:88: calling [(*github.com/guild&#45;framework/guild&#45;core/pkg/gerror.GuildError).WithDetails]&#10;at transport.go:96: calling [(*github.com/guild&#45;framework/guild&#45;core/pkg/gerror.GuildError).WithDetails]&#10;at transport.go:97: calling [(*github.com/guild&#45;framework/guild&#45;core/pkg/gerror.GuildError).WithDetails]&#10;at transport.go:98: calling [(*github.com/guild&#45;framework/guild&#45;core/pkg/gerror.GuildError).WithDetails]&#10;at transport.go:84: calling [github.com/guild&#45;framework/guild&#45;core/pkg/gerror.Wrap]&#10;at transport.go:93: calling [github.com/guild&#45;framework/guild&#45;core/pkg/gerror.Wrap]&#10;at transport.go:85: calling [(*github.com/guild&#45;framework/guild&#45;core/pkg/gerror.GuildError).WithComponent]&#10;at transport.go:94: calling [(*github.com/guild&#45;framework/guild&#45;core/pkg/gerror.GuildError).WithComponent]&#10;at transport.go:89: calling [(*github.com/guild&#45;framework/guild&#45;core/pkg/gerror.GuildError).FromContext]">
<path fill="lightblue" stroke="black" stroke-width="1.5" d="M690.12,-386C690.12,-386 448.08,-386 448.08,-386 442.08,-386 436.08,-380 436.08,-374 436.08,-374 436.08,-362 436.08,-362 436.08,-356 442.08,-350 448.08,-350 448.08,-350 690.12,-350 690.12,-350 696.12,-350 702.12,-356 702.12,-362 702.12,-362 702.12,-374 702.12,-374 702.12,-380 696.12,-386 690.12,-386"/>
<text xml:space="preserve" text-anchor="middle" x="569.1" y="-363.32" font-family="Verdana" font-size="14.00">(*UnixSocketTransport).RoundTrip</text>
</a>
</g>
</g>
<!-- (*github.com/guild&#45;framework/guild&#45;core/pkg/client.UnixSocketTransport).RoundTrip&#45;&gt;github.com/guild&#45;framework/guild&#45;core/pkg/gerror.Wrap -->
<g id="edge12" class="edge">
<title>(*github.com/guild&#45;framework/guild&#45;core/pkg/client.UnixSocketTransport).RoundTrip&#45;&gt;github.com/guild&#45;framework/guild&#45;core/pkg/gerror.Wrap</title>
<g id="a_edge12"><a xlink:title="at transport.go:84: calling [github.com/guild&#45;framework/guild&#45;core/pkg/gerror.Wrap]&#10;at transport.go:93: calling [github.com/guild&#45;framework/guild&#45;core/pkg/gerror.Wrap]">
<path fill="none" stroke="saddlebrown" d="M694.8,-386.7C749.7,-394.93 810.44,-404.03 849.41,-409.88"/>
<polygon fill="saddlebrown" stroke="saddlebrown" points="848.87,-413.33 859.28,-411.35 849.91,-406.41 848.87,-413.33"/>
</a>
</g>
</g>
<!-- (*github.com/guild&#45;framework/guild&#45;core/pkg/client.UnixSocketTransport).RoundTrip&#45;&gt;(*github.com/guild&#45;framework/guild&#45;core/pkg/gerror.GuildError).WithComponent -->
<g id="edge18" class="edge">
<title>(*github.com/guild&#45;framework/guild&#45;core/pkg/client.UnixSocketTransport).RoundTrip&#45;&gt;(*github.com/guild&#45;framework/guild&#45;core/pkg/gerror.GuildError).WithComponent</title>
<g id="a_edge18"><a xlink:title="at transport.go:85: calling [(*github.com/guild&#45;framework/guild&#45;core/pkg/gerror.GuildError).WithComponent]&#10;at transport.go:94: calling [(*github.com/guild&#45;framework/guild&#45;core/pkg/gerror.GuildError).WithComponent]">
<path fill="none" stroke="saddlebrown" d="M599.75,-349.45C637.42,-326.58 705,-287.82 767.12,-264 775.7,-260.71 784.75,-257.67 793.9,-254.88"/>
<polygon fill="saddlebrown" stroke="saddlebrown" points="794.58,-258.33 803.19,-252.16 792.61,-251.61 794.58,-258.33"/>
</a>
</g>
</g>
<!-- (*github.com/guild&#45;framework/guild&#45;core/pkg/client.UnixSocketTransport).RoundTrip&#45;&gt;(*github.com/guild&#45;framework/guild&#45;core/pkg/gerror.GuildError).WithOperation -->
<g id="edge6" class="edge">
<title>(*github.com/guild&#45;framework/guild&#45;core/pkg/client.UnixSocketTransport).RoundTrip&#45;&gt;(*github.com/guild&#45;framework/guild&#45;core/pkg/gerror.GuildError).WithOperation</title>
<g id="a_edge6"><a xlink:title="at transport.go:86: calling [(*github.com/guild&#45;framework/guild&#45;core/pkg/gerror.GuildError).WithOperation]&#10;at transport.go:95: calling [(*github.com/guild&#45;framework/guild&#45;core/pkg/gerror.GuildError).WithOperation]">
<path fill="none" stroke="saddlebrown" d="M607.48,-349.39C635.3,-334.49 673.3,-311.85 702.12,-286 737,-254.72 727.84,-228.54 767.12,-203 771.39,-200.22 775.9,-197.69 780.56,-195.39"/>
<polygon fill="saddlebrown" stroke="saddlebrown" points="781.92,-198.61 789.61,-191.32 779.05,-192.23 781.92,-198.61"/>
</a>
</g>
</g>
<!-- (*github.com/guild&#45;framework/guild&#45;core/pkg/client.UnixSocketTransport).RoundTrip&#45;&gt;(*github.com/guild&#45;framework/guild&#45;core/pkg/gerror.GuildError).WithDetails -->
<g id="edge7" class="edge">
<title>(*github.com/guild&#45;framework/guild&#45;core/pkg/client.UnixSocketTransport).RoundTrip&#45;&gt;(*github.com/guild&#45;framework/guild&#45;core/pkg/gerror.GuildError).WithDetails</title>
<g id="a_edge7"><a xlink:title="at transport.go:87: calling [(*github.com/guild&#45;framework/guild&#45;core/pkg/gerror.GuildError).WithDetails]&#10;at transport.go:88: calling [(*github.com/guild&#45;framework/guild&#45;core/pkg/gerror.GuildError).WithDetails]&#10;at transport.go:96: calling [(*github.com/guild&#45;framework/guild&#45;core/pkg/gerror.GuildError).WithDetails]&#10;at transport.go:97: calling [(*github.com/guild&#45;framework/guild&#45;core/pkg/gerror.GuildError).WithDetails]&#10;at transport.go:98: calling [(*github.com/guild&#45;framework/guild&#45;core/pkg/gerror.GuildError).WithDetails]">
<path fill="none" stroke="saddlebrown" d="M702.54,-376.19C714.91,-376.14 727.25,-375.78 739.12,-375 752.46,-374.12 766.42,-372.81 780.23,-371.27"/>
<polygon fill="saddlebrown" stroke="saddlebrown" points="780.23,-374.8 789.76,-370.17 779.42,-367.84 780.23,-374.8"/>
</a>
</g>
</g>
<!-- (*github.com/guild&#45;framework/guild&#45;core/pkg/client.UnixSocketTransport).RoundTrip&#45;&gt;(*github.com/guild&#45;framework/guild&#45;core/pkg/gerror.GuildError).FromContext -->
<g id="edge19" class="edge">
<title>(*github.com/guild&#45;framework/guild&#45;core/pkg/client.UnixSocketTransport).RoundTrip&#45;&gt;(*github.com/guild&#45;framework/guild&#45;core/pkg/gerror.GuildError).FromContext</title>
<g id="a_edge19"><a xlink:title="at transport.go:89: calling [(*github.com/guild&#45;framework/guild&#45;core/pkg/gerror.GuildError).FromContext]">
<path fill="none" stroke="saddlebrown" d="M650.89,-349.33C695.74,-338.96 751.69,-326.03 798.22,-315.27"/>
<polygon fill="saddlebrown" stroke="saddlebrown" points="798.79,-318.73 807.75,-313.07 797.22,-311.91 798.79,-318.73"/>
</a>
</g>
</g>
</g>
</svg>
