<?xml version="1.0" encoding="UTF-8" standalone="no"?>
<!DOCTYPE svg PUBLIC "-//W3C//DTD SVG 1.1//EN"
 "http://www.w3.org/Graphics/SVG/1.1/DTD/svg11.dtd">
<!-- Generated by graphviz version 14.1.1 (20251213.1925)
 -->
<!-- Title: gocallvis Pages: 1 -->
<svg width="557pt" height="788pt"
 viewBox="0.00 0.00 557.00 788.00" xmlns="http://www.w3.org/2000/svg" xmlns:xlink="http://www.w3.org/1999/xlink">
<g id="graph0" class="graph" transform="scale(1 1) rotate(0) translate(0 788)">
<title>gocallvis</title>
<polygon fill="lightgray" stroke="none" points="0,0 0,-788 556.58,-788 556.58,0 0,0"/>
<g id="clust1" class="cluster">
<title>cluster_focus</title>
<polygon fill="#e6ecfa" stroke="black" stroke-width="0.5" points="8,-8 8,-780 548.58,-780 548.58,-8 8,-8"/>
<text xml:space="preserve" text-anchor="middle" x="278.29" y="-758.9" font-family="Arial" font-size="18.00">tools</text>
</g>
<g id="clust2" class="cluster">
<title>cluster_github.com/guild&#45;framework/guild&#45;core/pkg/gerror</title>
<g id="a_clust2"><a xlink:href="/?f=github.com/guild-framework/guild-core/pkg/gerror" xlink:title="package: github.com/guild&#45;framework/guild&#45;core/pkg/gerror">
<polygon fill="lightyellow" stroke="black" stroke-width="0.8" points="292.29,-165 292.29,-367 540.58,-367 540.58,-165 292.29,-165"/>
<text xml:space="preserve" text-anchor="middle" x="416.43" y="-347.8" font-family="Tahoma bold" font-size="16.00">gerror</text>
</a>
</g>
</g>
<g id="clust3" class="cluster">
<title>cluster_github.com/guild&#45;framework/guild&#45;core/pkg/lsp</title>
<g id="a_clust3"><a xlink:href="/?f=github.com/guild-framework/guild-core/pkg/lsp" xlink:title="package: github.com/guild&#45;framework/guild&#45;core/pkg/lsp">
<polygon fill="lightyellow" stroke="black" stroke-width="0.8" points="302.04,-375 302.04,-638 530.83,-638 530.83,-375 302.04,-375"/>
<text xml:space="preserve" text-anchor="middle" x="416.43" y="-618.8" font-family="Tahoma bold" font-size="16.00">lsp</text>
</a>
</g>
</g>
<g id="clust4" class="cluster">
<title>cluster_github.com/guild&#45;framework/guild&#45;core/tools</title>
<g id="a_clust4"><a xlink:href="/?f=github.com/guild-framework/guild-core/tools" xlink:title="package: github.com/guild&#45;framework/guild&#45;core/tools">
<polygon fill="lightyellow" stroke="black" stroke-width="0.8" points="346.29,-16 346.29,-157 486.58,-157 486.58,-16 346.29,-16"/>
<text xml:space="preserve" text-anchor="middle" x="416.43" y="-137.8" font-family="Tahoma bold" font-size="16.00">tools</text>
</a>
</g>
</g>
<!-- github.com/guild&#45;framework/guild&#45;core/pkg/lsp/tools.NewReferencesTool -->
<g id="node1" class="node">
<title>github.com/guild&#45;framework/guild&#45;core/pkg/lsp/tools.NewReferencesTool</title>
<g id="a_node1"><a xlink:title="github.com/guild&#45;framework/guild&#45;core/pkg/lsp/tools.NewReferencesTool | defined in references_tool.go:38&#10;at references_tool.go:69: calling [github.com/guild&#45;framework/guild&#45;core/tools.NewBaseTool]">
<path fill="lightblue" stroke="black" stroke-width="1.5" d="M189.04,-174C189.04,-174 54.25,-174 54.25,-174 48.25,-174 42.25,-168 42.25,-162 42.25,-162 42.25,-150 42.25,-150 42.25,-144 48.25,-138 54.25,-138 54.25,-138 189.04,-138 189.04,-138 195.04,-138 201.04,-144 201.04,-150 201.04,-150 201.04,-162 201.04,-162 201.04,-168 195.04,-174 189.04,-174"/>
<text xml:space="preserve" text-anchor="middle" x="121.64" y="-151.32" font-family="Verdana" font-size="14.00">NewReferencesTool</text>
</a>
</g>
</g>
<!-- github.com/guild&#45;framework/guild&#45;core/tools.NewBaseTool -->
<g id="node18" class="node">
<title>github.com/guild&#45;framework/guild&#45;core/tools.NewBaseTool</title>
<g id="a_node18"><a xlink:title="github.com/guild&#45;framework/guild&#45;core/tools.NewBaseTool | defined in tool.go:61">
<path fill="moccasin" stroke="black" stroke-width="1.5" d="M460.95,-60C460.95,-60 371.91,-60 371.91,-60 365.91,-60 359.91,-54 359.91,-48 359.91,-48 359.91,-36 359.91,-36 359.91,-30 365.91,-24 371.91,-24 371.91,-24 460.95,-24 460.95,-24 466.95,-24 472.95,-30 472.95,-36 472.95,-36 472.95,-48 472.95,-48 472.95,-54 466.95,-60 460.95,-60"/>
<text xml:space="preserve" text-anchor="middle" x="416.43" y="-37.33" font-family="Verdana" font-size="14.00">NewBaseTool</text>
</a>
</g>
</g>
<!-- github.com/guild&#45;framework/guild&#45;core/pkg/lsp/tools.NewReferencesTool&#45;&gt;github.com/guild&#45;framework/guild&#45;core/tools.NewBaseTool -->
<g id="edge22" class="edge">
<title>github.com/guild&#45;framework/guild&#45;core/pkg/lsp/tools.NewReferencesTool&#45;&gt;github.com/guild&#45;framework/guild&#45;core/tools.NewBaseTool</title>
<g id="a_edge22"><a xlink:title="at references_tool.go:69: calling [github.com/guild&#45;framework/guild&#45;core/tools.NewBaseTool]">
<path fill="none" stroke="saddlebrown" d="M201.16,-137.29C210.18,-134.04 219.08,-130.29 227.29,-126 260.32,-108.73 258.98,-89.73 292.29,-73 309.58,-64.32 329.5,-57.94 348.2,-53.32"/>
<polygon fill="saddlebrown" stroke="saddlebrown" points="348.93,-56.74 357.87,-51.07 347.34,-49.92 348.93,-56.74"/>
</a>
</g>
</g>
<!-- (*github.com/guild&#45;framework/guild&#45;core/pkg/lsp/tools.HoverTool).Execute -->
<g id="node2" class="node">
<title>(*github.com/guild&#45;framework/guild&#45;core/pkg/lsp/tools.HoverTool).Execute</title>
<g id="a_node2"><a xlink:title="(*github.com/guild&#45;framework/guild&#45;core/pkg/lsp/tools.HoverTool).Execute | defined in hover_tool.go:78&#10;at hover_tool.go:84: calling [(*github.com/guild&#45;framework/guild&#45;core/pkg/gerror.GuildError).WithOperation]&#10;at hover_tool.go:142: calling [(*github.com/guild&#45;framework/guild&#45;core/pkg/gerror.GuildError).WithOperation]&#10;at hover_tool.go:83: calling [(*github.com/guild&#45;framework/guild&#45;core/pkg/gerror.GuildError).WithComponent]&#10;at hover_tool.go:141: calling [(*github.com/guild&#45;framework/guild&#45;core/pkg/gerror.GuildError).WithComponent]&#10;at hover_tool.go:88: calling [(*github.com/guild&#45;framework/guild&#45;core/pkg/lsp.Manager).GetHover]&#10;at hover_tool.go:82: calling [github.com/guild&#45;framework/guild&#45;core/pkg/gerror.Wrap]&#10;at hover_tool.go:140: calling [github.com/guild&#45;framework/guild&#45;core/pkg/gerror.Wrap]&#10;at hover_tool.go:157: calling [github.com/guild&#45;framework/guild&#45;core/tools.NewToolResult]&#10;at hover_tool.go:155: calling [github.com/guild&#45;framework/guild&#45;core/pkg/lsp/tools.extractHoverInfo]">
<path fill="lightblue" stroke="black" stroke-width="1.5" d="M196.54,-499C196.54,-499 46.75,-499 46.75,-499 40.75,-499 34.75,-493 34.75,-487 34.75,-487 34.75,-475 34.75,-475 34.75,-469 40.75,-463 46.75,-463 46.75,-463 196.54,-463 196.54,-463 202.54,-463 208.54,-469 208.54,-475 208.54,-475 208.54,-487 208.54,-487 208.54,-493 202.54,-499 196.54,-499"/>
<text xml:space="preserve" text-anchor="middle" x="121.64" y="-476.32" font-family="Verdana" font-size="14.00">(*HoverTool).Execute</text>
</a>
</g>
</g>
<!-- github.com/guild&#45;framework/guild&#45;core/pkg/lsp/tools.extractHoverInfo -->
<g id="node3" class="node">
<title>github.com/guild&#45;framework/guild&#45;core/pkg/lsp/tools.extractHoverInfo</title>
<g id="a_node3"><a xlink:title="github.com/guild&#45;framework/guild&#45;core/pkg/lsp/tools.extractHoverInfo | defined in hover_tool.go:161">
<path fill="lightblue" stroke="black" stroke-width="0.5" d="M475.2,-682C475.2,-682 357.66,-682 357.66,-682 351.66,-682 345.66,-676 345.66,-670 345.66,-670 345.66,-658 345.66,-658 345.66,-652 351.66,-646 357.66,-646 357.66,-646 475.2,-646 475.2,-646 481.2,-646 487.2,-652 487.2,-658 487.2,-658 487.2,-670 487.2,-670 487.2,-676 481.2,-682 475.2,-682"/>
<text xml:space="preserve" text-anchor="middle" x="416.43" y="-659.33" font-family="Verdana" font-size="14.00">extractHoverInfo</text>
</a>
</g>
</g>
<!-- (*github.com/guild&#45;framework/guild&#45;core/pkg/lsp/tools.HoverTool).Execute&#45;&gt;github.com/guild&#45;framework/guild&#45;core/pkg/lsp/tools.extractHoverInfo -->
<g id="edge23" class="edge">
<title>(*github.com/guild&#45;framework/guild&#45;core/pkg/lsp/tools.HoverTool).Execute&#45;&gt;github.com/guild&#45;framework/guild&#45;core/pkg/lsp/tools.extractHoverInfo</title>
<g id="a_edge23"><a xlink:title="at hover_tool.go:155: calling [github.com/guild&#45;framework/guild&#45;core/pkg/lsp/tools.extractHoverInfo]">
<path fill="none" stroke="black" d="M136.11,-499.56C162.08,-533.85 222.71,-606.83 292.29,-642 305.34,-648.6 320.05,-653.25 334.63,-656.51"/>
<polygon fill="black" stroke="black" points="333.76,-659.91 344.25,-658.46 335.14,-653.05 333.76,-659.91"/>
</a>
</g>
</g>
<!-- github.com/guild&#45;framework/guild&#45;core/pkg/gerror.Wrap -->
<g id="node11" class="node">
<title>github.com/guild&#45;framework/guild&#45;core/pkg/gerror.Wrap</title>
<g id="a_node11"><a xlink:title="github.com/guild&#45;framework/guild&#45;core/pkg/gerror.Wrap | defined in errors.go:223">
<path fill="moccasin" stroke="black" stroke-width="1.5" d="M434.33,-209C434.33,-209 398.54,-209 398.54,-209 392.54,-209 386.54,-203 386.54,-197 386.54,-197 386.54,-185 386.54,-185 386.54,-179 392.54,-173 398.54,-173 398.54,-173 434.33,-173 434.33,-173 440.33,-173 446.33,-179 446.33,-185 446.33,-185 446.33,-197 446.33,-197 446.33,-203 440.33,-209 434.33,-209"/>
<text xml:space="preserve" text-anchor="middle" x="416.43" y="-186.32" font-family="Verdana" font-size="14.00">Wrap</text>
</a>
</g>
</g>
<!-- (*github.com/guild&#45;framework/guild&#45;core/pkg/lsp/tools.HoverTool).Execute&#45;&gt;github.com/guild&#45;framework/guild&#45;core/pkg/gerror.Wrap -->
<g id="edge15" class="edge">
<title>(*github.com/guild&#45;framework/guild&#45;core/pkg/lsp/tools.HoverTool).Execute&#45;&gt;github.com/guild&#45;framework/guild&#45;core/pkg/gerror.Wrap</title>
<g id="a_edge15"><a xlink:title="at hover_tool.go:82: calling [github.com/guild&#45;framework/guild&#45;core/pkg/gerror.Wrap]&#10;at hover_tool.go:140: calling [github.com/guild&#45;framework/guild&#45;core/pkg/gerror.Wrap]">
<path fill="none" stroke="saddlebrown" d="M204.87,-462.37C227.31,-453.43 249.49,-440.27 264.29,-421 318.69,-350.17 232.6,-288.44 292.29,-222 312.79,-199.18 347.38,-192.01 374.69,-190.22"/>
<polygon fill="saddlebrown" stroke="saddlebrown" points="374.53,-193.73 384.37,-189.81 374.23,-186.73 374.53,-193.73"/>
</a>
</g>
</g>
<!-- (*github.com/guild&#45;framework/guild&#45;core/pkg/gerror.GuildError).WithComponent -->
<g id="node12" class="node">
<title>(*github.com/guild&#45;framework/guild&#45;core/pkg/gerror.GuildError).WithComponent</title>
<g id="a_node12"><a xlink:title="(*github.com/guild&#45;framework/guild&#45;core/pkg/gerror.GuildError).WithComponent | defined in errors.go:156">
<path fill="moccasin" stroke="black" stroke-width="1.5" d="M520.58,-331C520.58,-331 312.29,-331 312.29,-331 306.29,-331 300.29,-325 300.29,-319 300.29,-319 300.29,-307 300.29,-307 300.29,-301 306.29,-295 312.29,-295 312.29,-295 520.58,-295 520.58,-295 526.58,-295 532.58,-301 532.58,-307 532.58,-307 532.58,-319 532.58,-319 532.58,-325 526.58,-331 520.58,-331"/>
<text xml:space="preserve" text-anchor="middle" x="416.43" y="-308.32" font-family="Verdana" font-size="14.00">(*GuildError).WithComponent</text>
</a>
</g>
</g>
<!-- (*github.com/guild&#45;framework/guild&#45;core/pkg/lsp/tools.HoverTool).Execute&#45;&gt;(*github.com/guild&#45;framework/guild&#45;core/pkg/gerror.GuildError).WithComponent -->
<g id="edge9" class="edge">
<title>(*github.com/guild&#45;framework/guild&#45;core/pkg/lsp/tools.HoverTool).Execute&#45;&gt;(*github.com/guild&#45;framework/guild&#45;core/pkg/gerror.GuildError).WithComponent</title>
<g id="a_edge9"><a xlink:title="at hover_tool.go:83: calling [(*github.com/guild&#45;framework/guild&#45;core/pkg/gerror.GuildError).WithComponent]&#10;at hover_tool.go:141: calling [(*github.com/guild&#45;framework/guild&#45;core/pkg/gerror.GuildError).WithComponent]">
<path fill="none" stroke="saddlebrown" d="M208.94,-493.94C228.87,-492.69 248.76,-487.5 264.29,-475 302.26,-444.46 260.86,-406.23 292.29,-369 304.08,-355.03 320.09,-344.38 336.66,-336.32"/>
<polygon fill="saddlebrown" stroke="saddlebrown" points="337.97,-339.57 345.64,-332.25 335.08,-333.19 337.97,-339.57"/>
</a>
</g>
</g>
<!-- (*github.com/guild&#45;framework/guild&#45;core/pkg/gerror.GuildError).WithOperation -->
<g id="node13" class="node">
<title>(*github.com/guild&#45;framework/guild&#45;core/pkg/gerror.GuildError).WithOperation</title>
<g id="a_node13"><a xlink:title="(*github.com/guild&#45;framework/guild&#45;core/pkg/gerror.GuildError).WithOperation | defined in errors.go:162">
<path fill="moccasin" stroke="black" stroke-width="1.5" d="M514.95,-270C514.95,-270 317.91,-270 317.91,-270 311.91,-270 305.91,-264 305.91,-258 305.91,-258 305.91,-246 305.91,-246 305.91,-240 311.91,-234 317.91,-234 317.91,-234 514.95,-234 514.95,-234 520.95,-234 526.95,-240 526.95,-246 526.95,-246 526.95,-258 526.95,-258 526.95,-264 520.95,-270 514.95,-270"/>
<text xml:space="preserve" text-anchor="middle" x="416.43" y="-247.32" font-family="Verdana" font-size="14.00">(*GuildError).WithOperation</text>
</a>
</g>
</g>
<!-- (*github.com/guild&#45;framework/guild&#45;core/pkg/lsp/tools.HoverTool).Execute&#45;&gt;(*github.com/guild&#45;framework/guild&#45;core/pkg/gerror.GuildError).WithOperation -->
<g id="edge2" class="edge">
<title>(*github.com/guild&#45;framework/guild&#45;core/pkg/lsp/tools.HoverTool).Execute&#45;&gt;(*github.com/guild&#45;framework/guild&#45;core/pkg/gerror.GuildError).WithOperation</title>
<g id="a_edge2"><a xlink:title="at hover_tool.go:84: calling [(*github.com/guild&#45;framework/guild&#45;core/pkg/gerror.GuildError).WithOperation]&#10;at hover_tool.go:142: calling [(*github.com/guild&#45;framework/guild&#45;core/pkg/gerror.GuildError).WithOperation]">
<path fill="none" stroke="saddlebrown" d="M209.23,-477.16C229.75,-472.2 249.84,-463.35 264.29,-448 315.26,-393.83 241.8,-337.62 292.29,-283 294.08,-281.06 295.98,-279.23 297.96,-277.51"/>
<polygon fill="saddlebrown" stroke="saddlebrown" points="300.04,-280.33 305.97,-271.55 295.86,-274.71 300.04,-280.33"/>
</a>
</g>
</g>
<!-- (*github.com/guild&#45;framework/guild&#45;core/pkg/lsp.Manager).GetHover -->
<g id="node14" class="node">
<title>(*github.com/guild&#45;framework/guild&#45;core/pkg/lsp.Manager).GetHover</title>
<g id="a_node14"><a xlink:title="(*github.com/guild&#45;framework/guild&#45;core/pkg/lsp.Manager).GetHover | defined in manager.go:231">
<path fill="moccasin" stroke="black" stroke-width="1.5" d="M492.08,-541C492.08,-541 340.79,-541 340.79,-541 334.79,-541 328.79,-535 328.79,-529 328.79,-529 328.79,-517 328.79,-517 328.79,-511 334.79,-505 340.79,-505 340.79,-505 492.08,-505 492.08,-505 498.08,-505 504.08,-511 504.08,-517 504.08,-517 504.08,-529 504.08,-529 504.08,-535 498.08,-541 492.08,-541"/>
<text xml:space="preserve" text-anchor="middle" x="416.43" y="-518.33" font-family="Verdana" font-size="14.00">(*Manager).GetHover</text>
</a>
</g>
</g>
<!-- (*github.com/guild&#45;framework/guild&#45;core/pkg/lsp/tools.HoverTool).Execute&#45;&gt;(*github.com/guild&#45;framework/guild&#45;core/pkg/lsp.Manager).GetHover -->
<g id="edge10" class="edge">
<title>(*github.com/guild&#45;framework/guild&#45;core/pkg/lsp/tools.HoverTool).Execute&#45;&gt;(*github.com/guild&#45;framework/guild&#45;core/pkg/lsp.Manager).GetHover</title>
<g id="a_edge10"><a xlink:title="at hover_tool.go:88: calling [(*github.com/guild&#45;framework/guild&#45;core/pkg/lsp.Manager).GetHover]">
<path fill="none" stroke="saddlebrown" d="M209.28,-494.09C227.13,-496.74 245.82,-499.49 263.29,-502 280.58,-504.48 298.99,-507.07 316.81,-509.55"/>
<polygon fill="saddlebrown" stroke="saddlebrown" points="316.23,-513 326.62,-510.91 317.19,-506.07 316.23,-513"/>
</a>
</g>
</g>
<!-- github.com/guild&#45;framework/guild&#45;core/tools.NewToolResult -->
<g id="node19" class="node">
<title>github.com/guild&#45;framework/guild&#45;core/tools.NewToolResult</title>
<g id="a_node19"><a xlink:title="github.com/guild&#45;framework/guild&#45;core/tools.NewToolResult | defined in tool.go:118">
<path fill="moccasin" stroke="black" stroke-width="1.5" d="M466.58,-121C466.58,-121 366.29,-121 366.29,-121 360.29,-121 354.29,-115 354.29,-109 354.29,-109 354.29,-97 354.29,-97 354.29,-91 360.29,-85 366.29,-85 366.29,-85 466.58,-85 466.58,-85 472.58,-85 478.58,-91 478.58,-97 478.58,-97 478.58,-109 478.58,-109 478.58,-115 472.58,-121 466.58,-121"/>
<text xml:space="preserve" text-anchor="middle" x="416.43" y="-98.33" font-family="Verdana" font-size="14.00">NewToolResult</text>
</a>
</g>
</g>
<!-- (*github.com/guild&#45;framework/guild&#45;core/pkg/lsp/tools.HoverTool).Execute&#45;&gt;github.com/guild&#45;framework/guild&#45;core/tools.NewToolResult -->
<g id="edge16" class="edge">
<title>(*github.com/guild&#45;framework/guild&#45;core/pkg/lsp/tools.HoverTool).Execute&#45;&gt;github.com/guild&#45;framework/guild&#45;core/tools.NewToolResult</title>
<g id="a_edge16"><a xlink:title="at hover_tool.go:157: calling [github.com/guild&#45;framework/guild&#45;core/tools.NewToolResult]">
<path fill="none" stroke="saddlebrown" d="M145.44,-462.47C169.08,-442.1 205.56,-407.3 227.29,-370 251.98,-327.6 259.89,-195.84 292.29,-159 305.9,-143.53 324.65,-132.08 343.42,-123.72"/>
<polygon fill="saddlebrown" stroke="saddlebrown" points="344.53,-127.05 352.41,-119.97 341.84,-120.59 344.53,-127.05"/>
</a>
</g>
</g>
<!-- github.com/guild&#45;framework/guild&#45;core/pkg/lsp/tools.NewDefinitionTool -->
<g id="node4" class="node">
<title>github.com/guild&#45;framework/guild&#45;core/pkg/lsp/tools.NewDefinitionTool</title>
<g id="a_node4"><a xlink:title="github.com/guild&#45;framework/guild&#45;core/pkg/lsp/tools.NewDefinitionTool | defined in definition_tool.go:46&#10;at definition_tool.go:72: calling [github.com/guild&#45;framework/guild&#45;core/tools.NewBaseTool]">
<path fill="lightblue" stroke="black" stroke-width="1.5" d="M183.41,-235C183.41,-235 59.87,-235 59.87,-235 53.88,-235 47.87,-229 47.87,-223 47.87,-223 47.87,-211 47.87,-211 47.87,-205 53.87,-199 59.87,-199 59.87,-199 183.41,-199 183.41,-199 189.41,-199 195.41,-205 195.41,-211 195.41,-211 195.41,-223 195.41,-223 195.41,-229 189.41,-235 183.41,-235"/>
<text xml:space="preserve" text-anchor="middle" x="121.64" y="-212.32" font-family="Verdana" font-size="14.00">NewDefinitionTool</text>
</a>
</g>
</g>
<!-- github.com/guild&#45;framework/guild&#45;core/pkg/lsp/tools.NewDefinitionTool&#45;&gt;github.com/guild&#45;framework/guild&#45;core/tools.NewBaseTool -->
<g id="edge3" class="edge">
<title>github.com/guild&#45;framework/guild&#45;core/pkg/lsp/tools.NewDefinitionTool&#45;&gt;github.com/guild&#45;framework/guild&#45;core/tools.NewBaseTool</title>
<g id="a_edge3"><a xlink:title="at definition_tool.go:72: calling [github.com/guild&#45;framework/guild&#45;core/tools.NewBaseTool]">
<path fill="none" stroke="saddlebrown" d="M195.97,-203.9C207.19,-199.73 218.08,-194.24 227.29,-187 273.15,-150.97 245.85,-108.28 292.29,-73 308.36,-60.79 328.69,-53.35 348.17,-48.83"/>
<polygon fill="saddlebrown" stroke="saddlebrown" points="348.62,-52.31 357.7,-46.85 347.2,-45.46 348.62,-52.31"/>
</a>
</g>
</g>
<!-- github.com/guild&#45;framework/guild&#45;core/pkg/lsp/tools.NewHoverTool -->
<g id="node5" class="node">
<title>github.com/guild&#45;framework/guild&#45;core/pkg/lsp/tools.NewHoverTool</title>
<g id="a_node5"><a xlink:title="github.com/guild&#45;framework/guild&#45;core/pkg/lsp/tools.NewHoverTool | defined in hover_tool.go:39&#10;at hover_tool.go:65: calling [github.com/guild&#45;framework/guild&#45;core/tools.NewBaseTool]">
<path fill="lightblue" stroke="black" stroke-width="1.5" d="M170.66,-52C170.66,-52 72.62,-52 72.62,-52 66.62,-52 60.62,-46 60.62,-40 60.62,-40 60.62,-28 60.62,-28 60.62,-22 66.62,-16 72.62,-16 72.62,-16 170.66,-16 170.66,-16 176.66,-16 182.66,-22 182.66,-28 182.66,-28 182.66,-40 182.66,-40 182.66,-46 176.66,-52 170.66,-52"/>
<text xml:space="preserve" text-anchor="middle" x="121.64" y="-29.32" font-family="Verdana" font-size="14.00">NewHoverTool</text>
</a>
</g>
</g>
<!-- github.com/guild&#45;framework/guild&#45;core/pkg/lsp/tools.NewHoverTool&#45;&gt;github.com/guild&#45;framework/guild&#45;core/tools.NewBaseTool -->
<g id="edge11" class="edge">
<title>github.com/guild&#45;framework/guild&#45;core/pkg/lsp/tools.NewHoverTool&#45;&gt;github.com/guild&#45;framework/guild&#45;core/tools.NewBaseTool</title>
<g id="a_edge11"><a xlink:title="at hover_tool.go:65: calling [github.com/guild&#45;framework/guild&#45;core/tools.NewBaseTool]">
<path fill="none" stroke="saddlebrown" d="M183.31,-35.66C231.33,-36.97 298.34,-38.8 348.03,-40.16"/>
<polygon fill="saddlebrown" stroke="saddlebrown" points="347.7,-43.65 357.8,-40.43 347.9,-36.65 347.7,-43.65"/>
</a>
</g>
</g>
<!-- (*github.com/guild&#45;framework/guild&#45;core/pkg/lsp/tools.ReferencesTool).Execute -->
<g id="node6" class="node">
<title>(*github.com/guild&#45;framework/guild&#45;core/pkg/lsp/tools.ReferencesTool).Execute</title>
<g id="a_node6"><a xlink:title="(*github.com/guild&#45;framework/guild&#45;core/pkg/lsp/tools.ReferencesTool).Execute | defined in references_tool.go:82&#10;at references_tool.go:148: calling [github.com/guild&#45;framework/guild&#45;core/tools.NewToolResult]&#10;at references_tool.go:86: calling [github.com/guild&#45;framework/guild&#45;core/pkg/gerror.Wrap]&#10;at references_tool.go:136: calling [github.com/guild&#45;framework/guild&#45;core/pkg/gerror.Wrap]&#10;at references_tool.go:87: calling [(*github.com/guild&#45;framework/guild&#45;core/pkg/gerror.GuildError).WithComponent]&#10;at references_tool.go:137: calling [(*github.com/guild&#45;framework/guild&#45;core/pkg/gerror.GuildError).WithComponent]&#10;at references_tool.go:88: calling [(*github.com/guild&#45;framework/guild&#45;core/pkg/gerror.GuildError).WithOperation]&#10;at references_tool.go:138: calling [(*github.com/guild&#45;framework/guild&#45;core/pkg/gerror.GuildError).WithOperation]&#10;at references_tool.go:97: calling [(*github.com/guild&#45;framework/guild&#45;core/pkg/lsp.Manager).GetReferences]">
<path fill="lightblue" stroke="black" stroke-width="1.5" d="M214.91,-296C214.91,-296 28.38,-296 28.38,-296 22.38,-296 16.37,-290 16.37,-284 16.37,-284 16.37,-272 16.37,-272 16.37,-266 22.37,-260 28.37,-260 28.37,-260 214.91,-260 214.91,-260 220.91,-260 226.91,-266 226.91,-272 226.91,-272 226.91,-284 226.91,-284 226.91,-290 220.91,-296 214.91,-296"/>
<text xml:space="preserve" text-anchor="middle" x="121.64" y="-273.32" font-family="Verdana" font-size="14.00">(*ReferencesTool).Execute</text>
</a>
</g>
</g>
<!-- (*github.com/guild&#45;framework/guild&#45;core/pkg/lsp/tools.ReferencesTool).Execute&#45;&gt;github.com/guild&#45;framework/guild&#45;core/pkg/gerror.Wrap -->
<g id="edge4" class="edge">
<title>(*github.com/guild&#45;framework/guild&#45;core/pkg/lsp/tools.ReferencesTool).Execute&#45;&gt;github.com/guild&#45;framework/guild&#45;core/pkg/gerror.Wrap</title>
<g id="a_edge4"><a xlink:title="at references_tool.go:86: calling [github.com/guild&#45;framework/guild&#45;core/pkg/gerror.Wrap]&#10;at references_tool.go:136: calling [github.com/guild&#45;framework/guild&#45;core/pkg/gerror.Wrap]">
<path fill="none" stroke="saddlebrown" d="M203.79,-259.25C211.98,-256.04 219.96,-252.32 227.29,-248 246.79,-236.52 243.03,-222.07 263.29,-212 298.27,-194.61 343.05,-190.25 374.94,-189.7"/>
<polygon fill="saddlebrown" stroke="saddlebrown" points="374.57,-193.2 384.56,-189.65 374.54,-186.2 374.57,-193.2"/>
</a>
</g>
</g>
<!-- (*github.com/guild&#45;framework/guild&#45;core/pkg/lsp/tools.ReferencesTool).Execute&#45;&gt;(*github.com/guild&#45;framework/guild&#45;core/pkg/gerror.GuildError).WithComponent -->
<g id="edge5" class="edge">
<title>(*github.com/guild&#45;framework/guild&#45;core/pkg/lsp/tools.ReferencesTool).Execute&#45;&gt;(*github.com/guild&#45;framework/guild&#45;core/pkg/gerror.GuildError).WithComponent</title>
<g id="a_edge5"><a xlink:title="at references_tool.go:87: calling [(*github.com/guild&#45;framework/guild&#45;core/pkg/gerror.GuildError).WithComponent]&#10;at references_tool.go:137: calling [(*github.com/guild&#45;framework/guild&#45;core/pkg/gerror.GuildError).WithComponent]">
<path fill="none" stroke="saddlebrown" d="M186.09,-259.3C220.27,-249.93 256.94,-241.28 264.29,-245 283.01,-254.46 274.83,-271.37 292.29,-283 295.79,-285.33 299.46,-287.48 303.25,-289.47"/>
<polygon fill="saddlebrown" stroke="saddlebrown" points="301.62,-292.57 312.15,-293.69 304.62,-286.24 301.62,-292.57"/>
</a>
</g>
</g>
<!-- (*github.com/guild&#45;framework/guild&#45;core/pkg/lsp/tools.ReferencesTool).Execute&#45;&gt;(*github.com/guild&#45;framework/guild&#45;core/pkg/gerror.GuildError).WithOperation -->
<g id="edge6" class="edge">
<title>(*github.com/guild&#45;framework/guild&#45;core/pkg/lsp/tools.ReferencesTool).Execute&#45;&gt;(*github.com/guild&#45;framework/guild&#45;core/pkg/gerror.GuildError).WithOperation</title>
<g id="a_edge6"><a xlink:title="at references_tool.go:88: calling [(*github.com/guild&#45;framework/guild&#45;core/pkg/gerror.GuildError).WithOperation]&#10;at references_tool.go:138: calling [(*github.com/guild&#45;framework/guild&#45;core/pkg/gerror.GuildError).WithOperation]">
<path fill="none" stroke="saddlebrown" d="M201.48,-259.28C210.4,-256.03 219.19,-252.29 227.29,-248 245.7,-238.25 243.71,-225.09 263.29,-218 266.86,-216.71 296.58,-223.09 328.82,-230.67"/>
<polygon fill="saddlebrown" stroke="saddlebrown" points="327.8,-234.02 338.34,-232.92 329.42,-227.21 327.8,-234.02"/>
</a>
</g>
</g>
<!-- (*github.com/guild&#45;framework/guild&#45;core/pkg/lsp.Manager).GetReferences -->
<g id="node15" class="node">
<title>(*github.com/guild&#45;framework/guild&#45;core/pkg/lsp.Manager).GetReferences</title>
<g id="a_node15"><a xlink:title="(*github.com/guild&#45;framework/guild&#45;core/pkg/lsp.Manager).GetReferences | defined in manager.go:189">
<path fill="moccasin" stroke="black" stroke-width="1.5" d="M510.45,-419C510.45,-419 322.41,-419 322.41,-419 316.41,-419 310.41,-413 310.41,-407 310.41,-407 310.41,-395 310.41,-395 310.41,-389 316.41,-383 322.41,-383 322.41,-383 510.45,-383 510.45,-383 516.45,-383 522.45,-389 522.45,-395 522.45,-395 522.45,-407 522.45,-407 522.45,-413 516.45,-419 510.45,-419"/>
<text xml:space="preserve" text-anchor="middle" x="416.43" y="-396.32" font-family="Verdana" font-size="14.00">(*Manager).GetReferences</text>
</a>
</g>
</g>
<!-- (*github.com/guild&#45;framework/guild&#45;core/pkg/lsp/tools.ReferencesTool).Execute&#45;&gt;(*github.com/guild&#45;framework/guild&#45;core/pkg/lsp.Manager).GetReferences -->
<g id="edge7" class="edge">
<title>(*github.com/guild&#45;framework/guild&#45;core/pkg/lsp/tools.ReferencesTool).Execute&#45;&gt;(*github.com/guild&#45;framework/guild&#45;core/pkg/lsp.Manager).GetReferences</title>
<g id="a_edge7"><a xlink:title="at references_tool.go:97: calling [(*github.com/guild&#45;framework/guild&#45;core/pkg/lsp.Manager).GetReferences]">
<path fill="none" stroke="saddlebrown" d="M201.3,-296.67C210.34,-300.15 219.21,-304.24 227.29,-309 262.21,-329.59 256.72,-353.54 292.29,-373 295.51,-374.76 298.84,-376.41 302.24,-377.96"/>
<polygon fill="saddlebrown" stroke="saddlebrown" points="300.69,-381.11 311.27,-381.72 303.38,-374.65 300.69,-381.11"/>
</a>
</g>
</g>
<!-- (*github.com/guild&#45;framework/guild&#45;core/pkg/lsp/tools.ReferencesTool).Execute&#45;&gt;github.com/guild&#45;framework/guild&#45;core/tools.NewToolResult -->
<g id="edge1" class="edge">
<title>(*github.com/guild&#45;framework/guild&#45;core/pkg/lsp/tools.ReferencesTool).Execute&#45;&gt;github.com/guild&#45;framework/guild&#45;core/tools.NewToolResult</title>
<g id="a_edge1"><a xlink:title="at references_tool.go:148: calling [github.com/guild&#45;framework/guild&#45;core/tools.NewToolResult]">
<path fill="none" stroke="saddlebrown" d="M206.92,-259.33C214.11,-256.13 221.01,-252.38 227.29,-248 267.45,-219.96 254.31,-189.93 292.29,-159 308.73,-145.61 328.89,-134.7 348.1,-126.19"/>
<polygon fill="saddlebrown" stroke="saddlebrown" points="349.42,-129.43 357.26,-122.29 346.68,-122.99 349.42,-129.43"/>
</a>
</g>
</g>
<!-- (*github.com/guild&#45;framework/guild&#45;core/pkg/lsp/tools.CompletionTool).Execute -->
<g id="node7" class="node">
<title>(*github.com/guild&#45;framework/guild&#45;core/pkg/lsp/tools.CompletionTool).Execute</title>
<g id="a_node7"><a xlink:title="(*github.com/guild&#45;framework/guild&#45;core/pkg/lsp/tools.CompletionTool).Execute | defined in completion_tool.go:92&#10;at completion_tool.go:152: calling [github.com/guild&#45;framework/guild&#45;core/tools.NewToolResult]&#10;at completion_tool.go:96: calling [github.com/guild&#45;framework/guild&#45;core/pkg/gerror.Wrap]&#10;at completion_tool.go:137: calling [github.com/guild&#45;framework/guild&#45;core/pkg/gerror.Wrap]&#10;at completion_tool.go:115: calling [github.com/guild&#45;framework/guild&#45;core/pkg/lsp/tools.completionKindToString]&#10;at completion_tool.go:97: calling [(*github.com/guild&#45;framework/guild&#45;core/pkg/gerror.GuildError).WithComponent]&#10;at completion_tool.go:138: calling [(*github.com/guild&#45;framework/guild&#45;core/pkg/gerror.GuildError).WithComponent]&#10;at completion_tool.go:98: calling [(*github.com/guild&#45;framework/guild&#45;core/pkg/gerror.GuildError).WithOperation]&#10;at completion_tool.go:139: calling [(*github.com/guild&#45;framework/guild&#45;core/pkg/gerror.GuildError).WithOperation]&#10;at completion_tool.go:102: calling [(*github.com/guild&#45;framework/guild&#45;core/pkg/lsp.Manager).GetCompletion]">
<path fill="lightblue" stroke="black" stroke-width="1.5" d="M215.29,-661C215.29,-661 28,-661 28,-661 22,-661 16,-655 16,-649 16,-649 16,-637 16,-637 16,-631 22,-625 28,-625 28,-625 215.29,-625 215.29,-625 221.29,-625 227.29,-631 227.29,-637 227.29,-637 227.29,-649 227.29,-649 227.29,-655 221.29,-661 215.29,-661"/>
<text xml:space="preserve" text-anchor="middle" x="121.64" y="-638.33" font-family="Verdana" font-size="14.00">(*CompletionTool).Execute</text>
</a>
</g>
</g>
<!-- github.com/guild&#45;framework/guild&#45;core/pkg/lsp/tools.completionKindToString -->
<g id="node8" class="node">
<title>github.com/guild&#45;framework/guild&#45;core/pkg/lsp/tools.completionKindToString</title>
<g id="a_node8"><a xlink:title="github.com/guild&#45;framework/guild&#45;core/pkg/lsp/tools.completionKindToString | defined in completion_tool.go:156">
<path fill="lightblue" stroke="black" stroke-width="0.5" d="M499.2,-743C499.2,-743 333.66,-743 333.66,-743 327.66,-743 321.66,-737 321.66,-731 321.66,-731 321.66,-719 321.66,-719 321.66,-713 327.66,-707 333.66,-707 333.66,-707 499.2,-707 499.2,-707 505.2,-707 511.2,-713 511.2,-719 511.2,-719 511.2,-731 511.2,-731 511.2,-737 505.2,-743 499.2,-743"/>
<text xml:space="preserve" text-anchor="middle" x="416.43" y="-720.33" font-family="Verdana" font-size="14.00">completionKindToString</text>
</a>
</g>
</g>
<!-- (*github.com/guild&#45;framework/guild&#45;core/pkg/lsp/tools.CompletionTool).Execute&#45;&gt;github.com/guild&#45;framework/guild&#45;core/pkg/lsp/tools.completionKindToString -->
<g id="edge18" class="edge">
<title>(*github.com/guild&#45;framework/guild&#45;core/pkg/lsp/tools.CompletionTool).Execute&#45;&gt;github.com/guild&#45;framework/guild&#45;core/pkg/lsp/tools.completionKindToString</title>
<g id="a_edge18"><a xlink:title="at completion_tool.go:115: calling [github.com/guild&#45;framework/guild&#45;core/pkg/lsp/tools.completionKindToString]">
<path fill="none" stroke="black" d="M180.5,-661.65C213.18,-671.96 254.86,-684.71 292.29,-695 303.38,-698.05 315.08,-701.1 326.68,-704.04"/>
<polygon fill="black" stroke="black" points="325.72,-707.4 336.27,-706.44 327.42,-700.61 325.72,-707.4"/>
</a>
</g>
</g>
<!-- (*github.com/guild&#45;framework/guild&#45;core/pkg/lsp/tools.CompletionTool).Execute&#45;&gt;github.com/guild&#45;framework/guild&#45;core/pkg/gerror.Wrap -->
<g id="edge17" class="edge">
<title>(*github.com/guild&#45;framework/guild&#45;core/pkg/lsp/tools.CompletionTool).Execute&#45;&gt;github.com/guild&#45;framework/guild&#45;core/pkg/gerror.Wrap</title>
<g id="a_edge17"><a xlink:title="at completion_tool.go:96: calling [github.com/guild&#45;framework/guild&#45;core/pkg/gerror.Wrap]&#10;at completion_tool.go:137: calling [github.com/guild&#45;framework/guild&#45;core/pkg/gerror.Wrap]">
<path fill="none" stroke="saddlebrown" d="M207.11,-624.34C229.06,-615.42 250.41,-602.29 264.29,-583 311.29,-517.69 240.41,-283.5 292.29,-222 312.13,-198.48 346.94,-191.39 374.5,-189.81"/>
<polygon fill="saddlebrown" stroke="saddlebrown" points="374.41,-193.32 384.29,-189.49 374.18,-186.32 374.41,-193.32"/>
</a>
</g>
</g>
<!-- (*github.com/guild&#45;framework/guild&#45;core/pkg/lsp/tools.CompletionTool).Execute&#45;&gt;(*github.com/guild&#45;framework/guild&#45;core/pkg/gerror.GuildError).WithComponent -->
<g id="edge24" class="edge">
<title>(*github.com/guild&#45;framework/guild&#45;core/pkg/lsp/tools.CompletionTool).Execute&#45;&gt;(*github.com/guild&#45;framework/guild&#45;core/pkg/gerror.GuildError).WithComponent</title>
<g id="a_edge24"><a xlink:title="at completion_tool.go:97: calling [(*github.com/guild&#45;framework/guild&#45;core/pkg/gerror.GuildError).WithComponent]&#10;at completion_tool.go:138: calling [(*github.com/guild&#45;framework/guild&#45;core/pkg/gerror.GuildError).WithComponent]">
<path fill="none" stroke="saddlebrown" d="M227.82,-655.18C241.38,-652.24 254.07,-646.61 264.29,-637 307.92,-595.99 257.3,-417.59 292.29,-369 302.31,-355.09 316.63,-344.55 331.98,-336.6"/>
<polygon fill="saddlebrown" stroke="saddlebrown" points="333.3,-339.86 340.82,-332.4 330.29,-333.54 333.3,-339.86"/>
</a>
</g>
</g>
<!-- (*github.com/guild&#45;framework/guild&#45;core/pkg/lsp/tools.CompletionTool).Execute&#45;&gt;(*github.com/guild&#45;framework/guild&#45;core/pkg/gerror.GuildError).WithOperation -->
<g id="edge25" class="edge">
<title>(*github.com/guild&#45;framework/guild&#45;core/pkg/lsp/tools.CompletionTool).Execute&#45;&gt;(*github.com/guild&#45;framework/guild&#45;core/pkg/gerror.GuildError).WithOperation</title>
<g id="a_edge25"><a xlink:title="at completion_tool.go:98: calling [(*github.com/guild&#45;framework/guild&#45;core/pkg/gerror.GuildError).WithOperation]&#10;at completion_tool.go:139: calling [(*github.com/guild&#45;framework/guild&#45;core/pkg/gerror.GuildError).WithOperation]">
<path fill="none" stroke="saddlebrown" d="M227.86,-634.46C241.76,-629.09 254.54,-621.26 264.29,-610 312.03,-554.87 245.04,-338.56 292.29,-283 293.94,-281.06 295.7,-279.22 297.55,-277.5"/>
<polygon fill="saddlebrown" stroke="saddlebrown" points="299.37,-280.52 304.99,-271.54 295,-275.05 299.37,-280.52"/>
</a>
</g>
</g>
<!-- (*github.com/guild&#45;framework/guild&#45;core/pkg/lsp.Manager).GetCompletion -->
<g id="node16" class="node">
<title>(*github.com/guild&#45;framework/guild&#45;core/pkg/lsp.Manager).GetCompletion</title>
<g id="a_node16"><a xlink:title="(*github.com/guild&#45;framework/guild&#45;core/pkg/lsp.Manager).GetCompletion | defined in manager.go:99">
<path fill="moccasin" stroke="black" stroke-width="1.5" d="M510.83,-602C510.83,-602 322.04,-602 322.04,-602 316.04,-602 310.04,-596 310.04,-590 310.04,-590 310.04,-578 310.04,-578 310.04,-572 316.04,-566 322.04,-566 322.04,-566 510.83,-566 510.83,-566 516.83,-566 522.83,-572 522.83,-578 522.83,-578 522.83,-590 522.83,-590 522.83,-596 516.83,-602 510.83,-602"/>
<text xml:space="preserve" text-anchor="middle" x="416.43" y="-579.33" font-family="Verdana" font-size="14.00">(*Manager).GetCompletion</text>
</a>
</g>
</g>
<!-- (*github.com/guild&#45;framework/guild&#45;core/pkg/lsp/tools.CompletionTool).Execute&#45;&gt;(*github.com/guild&#45;framework/guild&#45;core/pkg/lsp.Manager).GetCompletion -->
<g id="edge26" class="edge">
<title>(*github.com/guild&#45;framework/guild&#45;core/pkg/lsp/tools.CompletionTool).Execute&#45;&gt;(*github.com/guild&#45;framework/guild&#45;core/pkg/lsp.Manager).GetCompletion</title>
<g id="a_edge26"><a xlink:title="at completion_tool.go:102: calling [(*github.com/guild&#45;framework/guild&#45;core/pkg/lsp.Manager).GetCompletion]">
<path fill="none" stroke="saddlebrown" d="M160.98,-661.75C191.23,-673.62 233.34,-683.43 264.29,-664 288.53,-648.78 269.48,-623.3 292.29,-606 294.6,-604.25 297,-602.62 299.48,-601.11"/>
<polygon fill="saddlebrown" stroke="saddlebrown" points="300.89,-604.32 308.07,-596.53 297.6,-598.15 300.89,-604.32"/>
</a>
</g>
</g>
<!-- (*github.com/guild&#45;framework/guild&#45;core/pkg/lsp/tools.CompletionTool).Execute&#45;&gt;github.com/guild&#45;framework/guild&#45;core/tools.NewToolResult -->
<g id="edge8" class="edge">
<title>(*github.com/guild&#45;framework/guild&#45;core/pkg/lsp/tools.CompletionTool).Execute&#45;&gt;github.com/guild&#45;framework/guild&#45;core/tools.NewToolResult</title>
<g id="a_edge8"><a xlink:title="at completion_tool.go:152: calling [github.com/guild&#45;framework/guild&#45;core/tools.NewToolResult]">
<path fill="none" stroke="saddlebrown" d="M142.34,-624.66C166.41,-601.03 206.51,-557.55 227.29,-512 260.4,-439.43 243.19,-221.86 292.29,-159 305.16,-142.52 323.97,-130.73 343.03,-122.37"/>
<polygon fill="saddlebrown" stroke="saddlebrown" points="344.26,-125.64 352.21,-118.63 341.62,-119.16 344.26,-125.64"/>
</a>
</g>
</g>
<!-- github.com/guild&#45;framework/guild&#45;core/pkg/lsp/tools.NewCompletionTool -->
<g id="node9" class="node">
<title>github.com/guild&#45;framework/guild&#45;core/pkg/lsp/tools.NewCompletionTool</title>
<g id="a_node9"><a xlink:title="github.com/guild&#45;framework/guild&#45;core/pkg/lsp/tools.NewCompletionTool | defined in completion_tool.go:49&#10;at completion_tool.go:79: calling [github.com/guild&#45;framework/guild&#45;core/tools.NewBaseTool]">
<path fill="lightblue" stroke="black" stroke-width="1.5" d="M189.41,-113C189.41,-113 53.87,-113 53.87,-113 47.87,-113 41.87,-107 41.87,-101 41.87,-101 41.87,-89 41.87,-89 41.87,-83 47.87,-77 53.87,-77 53.87,-77 189.41,-77 189.41,-77 195.41,-77 201.41,-83 201.41,-89 201.41,-89 201.41,-101 201.41,-101 201.41,-107 195.41,-113 189.41,-113"/>
<text xml:space="preserve" text-anchor="middle" x="121.64" y="-90.33" font-family="Verdana" font-size="14.00">NewCompletionTool</text>
</a>
</g>
</g>
<!-- github.com/guild&#45;framework/guild&#45;core/pkg/lsp/tools.NewCompletionTool&#45;&gt;github.com/guild&#45;framework/guild&#45;core/tools.NewBaseTool -->
<g id="edge12" class="edge">
<title>github.com/guild&#45;framework/guild&#45;core/pkg/lsp/tools.NewCompletionTool&#45;&gt;github.com/guild&#45;framework/guild&#45;core/tools.NewBaseTool</title>
<g id="a_edge12"><a xlink:title="at completion_tool.go:79: calling [github.com/guild&#45;framework/guild&#45;core/tools.NewBaseTool]">
<path fill="none" stroke="saddlebrown" d="M201.88,-80.66C247.68,-72.37 304.68,-62.05 348.27,-54.16"/>
<polygon fill="saddlebrown" stroke="saddlebrown" points="348.63,-57.65 357.85,-52.42 347.38,-50.76 348.63,-57.65"/>
</a>
</g>
</g>
<!-- (*github.com/guild&#45;framework/guild&#45;core/pkg/lsp/tools.DefinitionTool).Execute -->
<g id="node10" class="node">
<title>(*github.com/guild&#45;framework/guild&#45;core/pkg/lsp/tools.DefinitionTool).Execute</title>
<g id="a_node10"><a xlink:title="(*github.com/guild&#45;framework/guild&#45;core/pkg/lsp/tools.DefinitionTool).Execute | defined in definition_tool.go:85&#10;at definition_tool.go:89: calling [github.com/guild&#45;framework/guild&#45;core/pkg/gerror.Wrap]&#10;at definition_tool.go:121: calling [github.com/guild&#45;framework/guild&#45;core/pkg/gerror.Wrap]&#10;at definition_tool.go:95: calling [(*github.com/guild&#45;framework/guild&#45;core/pkg/lsp.Manager).GetDefinition]&#10;at definition_tool.go:90: calling [(*github.com/guild&#45;framework/guild&#45;core/pkg/gerror.GuildError).WithComponent]&#10;at definition_tool.go:122: calling [(*github.com/guild&#45;framework/guild&#45;core/pkg/gerror.GuildError).WithComponent]&#10;at definition_tool.go:91: calling [(*github.com/guild&#45;framework/guild&#45;core/pkg/gerror.GuildError).WithOperation]&#10;at definition_tool.go:123: calling [(*github.com/guild&#45;framework/guild&#45;core/pkg/gerror.GuildError).WithOperation]&#10;at definition_tool.go:132: calling [github.com/guild&#45;framework/guild&#45;core/tools.NewToolResult]">
<path fill="lightblue" stroke="black" stroke-width="1.5" d="M209.29,-357C209.29,-357 34,-357 34,-357 28,-357 22,-351 22,-345 22,-345 22,-333 22,-333 22,-327 28,-321 34,-321 34,-321 209.29,-321 209.29,-321 215.29,-321 221.29,-327 221.29,-333 221.29,-333 221.29,-345 221.29,-345 221.29,-351 215.29,-357 209.29,-357"/>
<text xml:space="preserve" text-anchor="middle" x="121.64" y="-334.32" font-family="Verdana" font-size="14.00">(*DefinitionTool).Execute</text>
</a>
</g>
</g>
<!-- (*github.com/guild&#45;framework/guild&#45;core/pkg/lsp/tools.DefinitionTool).Execute&#45;&gt;github.com/guild&#45;framework/guild&#45;core/pkg/gerror.Wrap -->
<g id="edge13" class="edge">
<title>(*github.com/guild&#45;framework/guild&#45;core/pkg/lsp/tools.DefinitionTool).Execute&#45;&gt;github.com/guild&#45;framework/guild&#45;core/pkg/gerror.Wrap</title>
<g id="a_edge13"><a xlink:title="at definition_tool.go:89: calling [github.com/guild&#45;framework/guild&#45;core/pkg/gerror.Wrap]&#10;at definition_tool.go:121: calling [github.com/guild&#45;framework/guild&#45;core/pkg/gerror.Wrap]">
<path fill="none" stroke="saddlebrown" d="M197.58,-320.27C207.73,-316.94 217.88,-313.18 227.29,-309 244.99,-301.15 251.62,-300.64 264.29,-286 284.61,-262.53 268.59,-242.06 292.29,-222 315.23,-202.58 348.66,-195.05 374.9,-192.26"/>
<polygon fill="saddlebrown" stroke="saddlebrown" points="374.85,-195.78 384.51,-191.43 374.25,-188.8 374.85,-195.78"/>
</a>
</g>
</g>
<!-- (*github.com/guild&#45;framework/guild&#45;core/pkg/lsp/tools.DefinitionTool).Execute&#45;&gt;(*github.com/guild&#45;framework/guild&#45;core/pkg/gerror.GuildError).WithComponent -->
<g id="edge19" class="edge">
<title>(*github.com/guild&#45;framework/guild&#45;core/pkg/lsp/tools.DefinitionTool).Execute&#45;&gt;(*github.com/guild&#45;framework/guild&#45;core/pkg/gerror.GuildError).WithComponent</title>
<g id="a_edge19"><a xlink:title="at definition_tool.go:90: calling [(*github.com/guild&#45;framework/guild&#45;core/pkg/gerror.GuildError).WithComponent]&#10;at definition_tool.go:122: calling [(*github.com/guild&#45;framework/guild&#45;core/pkg/gerror.GuildError).WithComponent]">
<path fill="none" stroke="saddlebrown" d="M221.77,-339.79C235.71,-339.88 249.86,-339.95 263.29,-340 284.99,-340.08 308.17,-337.41 329.73,-333.72"/>
<polygon fill="saddlebrown" stroke="saddlebrown" points="330.13,-337.21 339.35,-331.98 328.88,-330.32 330.13,-337.21"/>
</a>
</g>
</g>
<!-- (*github.com/guild&#45;framework/guild&#45;core/pkg/lsp/tools.DefinitionTool).Execute&#45;&gt;(*github.com/guild&#45;framework/guild&#45;core/pkg/gerror.GuildError).WithOperation -->
<g id="edge20" class="edge">
<title>(*github.com/guild&#45;framework/guild&#45;core/pkg/lsp/tools.DefinitionTool).Execute&#45;&gt;(*github.com/guild&#45;framework/guild&#45;core/pkg/gerror.GuildError).WithOperation</title>
<g id="a_edge20"><a xlink:title="at definition_tool.go:91: calling [(*github.com/guild&#45;framework/guild&#45;core/pkg/gerror.GuildError).WithOperation]&#10;at definition_tool.go:123: calling [(*github.com/guild&#45;framework/guild&#45;core/pkg/gerror.GuildError).WithOperation]">
<path fill="none" stroke="saddlebrown" d="M221.83,-329.18C236.6,-325.37 251.24,-320.14 264.29,-313 280.29,-304.24 276.58,-292.27 292.29,-283 297.26,-280.06 302.51,-277.4 307.92,-274.99"/>
<polygon fill="saddlebrown" stroke="saddlebrown" points="309.17,-278.26 317.1,-271.24 306.52,-271.79 309.17,-278.26"/>
</a>
</g>
</g>
<!-- (*github.com/guild&#45;framework/guild&#45;core/pkg/lsp.Manager).GetDefinition -->
<g id="node17" class="node">
<title>(*github.com/guild&#45;framework/guild&#45;core/pkg/lsp.Manager).GetDefinition</title>
<g id="a_node17"><a xlink:title="(*github.com/guild&#45;framework/guild&#45;core/pkg/lsp.Manager).GetDefinition | defined in manager.go:152">
<path fill="moccasin" stroke="black" stroke-width="1.5" d="M504.83,-480C504.83,-480 328.04,-480 328.04,-480 322.04,-480 316.04,-474 316.04,-468 316.04,-468 316.04,-456 316.04,-456 316.04,-450 322.04,-444 328.04,-444 328.04,-444 504.83,-444 504.83,-444 510.83,-444 516.83,-450 516.83,-456 516.83,-456 516.83,-468 516.83,-468 516.83,-474 510.83,-480 504.83,-480"/>
<text xml:space="preserve" text-anchor="middle" x="416.43" y="-457.32" font-family="Verdana" font-size="14.00">(*Manager).GetDefinition</text>
</a>
</g>
</g>
<!-- (*github.com/guild&#45;framework/guild&#45;core/pkg/lsp/tools.DefinitionTool).Execute&#45;&gt;(*github.com/guild&#45;framework/guild&#45;core/pkg/lsp.Manager).GetDefinition -->
<g id="edge14" class="edge">
<title>(*github.com/guild&#45;framework/guild&#45;core/pkg/lsp/tools.DefinitionTool).Execute&#45;&gt;(*github.com/guild&#45;framework/guild&#45;core/pkg/lsp.Manager).GetDefinition</title>
<g id="a_edge14"><a xlink:title="at definition_tool.go:95: calling [(*github.com/guild&#45;framework/guild&#45;core/pkg/lsp.Manager).GetDefinition]">
<path fill="none" stroke="saddlebrown" d="M151.24,-357.73C184.08,-378.51 240.16,-411.77 292.29,-432 299.76,-434.9 307.61,-437.58 315.56,-440.05"/>
<polygon fill="saddlebrown" stroke="saddlebrown" points="314.42,-443.36 325,-442.85 316.41,-436.65 314.42,-443.36"/>
</a>
</g>
</g>
<!-- (*github.com/guild&#45;framework/guild&#45;core/pkg/lsp/tools.DefinitionTool).Execute&#45;&gt;github.com/guild&#45;framework/guild&#45;core/tools.NewToolResult -->
<g id="edge21" class="edge">
<title>(*github.com/guild&#45;framework/guild&#45;core/pkg/lsp/tools.DefinitionTool).Execute&#45;&gt;github.com/guild&#45;framework/guild&#45;core/tools.NewToolResult</title>
<g id="a_edge21"><a xlink:title="at definition_tool.go:132: calling [github.com/guild&#45;framework/guild&#45;core/tools.NewToolResult]">
<path fill="none" stroke="saddlebrown" d="M210.84,-320.29C216.75,-317.1 222.32,-313.36 227.29,-309 281.89,-261.06 241.38,-210.83 292.29,-159 306.39,-144.65 324.84,-133.63 343.15,-125.32"/>
<polygon fill="saddlebrown" stroke="saddlebrown" points="344.38,-128.61 352.19,-121.46 341.62,-122.17 344.38,-128.61"/>
</a>
</g>
</g>
</g>
</svg>
