<?xml version="1.0" encoding="UTF-8" standalone="no"?>
<!DOCTYPE svg PUBLIC "-//W3C//DTD SVG 1.1//EN"
 "http://www.w3.org/Graphics/SVG/1.1/DTD/svg11.dtd">
<!-- Generated by graphviz version 14.1.1 (20251213.1925)
 -->
<!-- Title: gocallvis Pages: 1 -->
<svg width="663pt" height="263pt"
 viewBox="0.00 0.00 663.00 263.00" xmlns="http://www.w3.org/2000/svg" xmlns:xlink="http://www.w3.org/1999/xlink">
<g id="graph0" class="graph" transform="scale(1 1) rotate(0) translate(0 263)">
<title>gocallvis</title>
<polygon fill="lightgray" stroke="none" points="0,0 0,-263 663.08,-263 663.08,0 0,0"/>
<g id="clust1" class="cluster">
<title>cluster_focus</title>
<polygon fill="#e6ecfa" stroke="black" stroke-width="0.5" points="8,-8 8,-255 655.08,-255 655.08,-8 8,-8"/>
<text xml:space="preserve" text-anchor="middle" x="331.54" y="-233.9" font-family="Arial" font-size="18.00">adapters</text>
</g>
<g id="clust2" class="cluster">
<title>cluster_github.com/guild&#45;framework/guild&#45;core/pkg/gerror</title>
<g id="a_clust2"><a xlink:href="/?f=github.com/guild-framework/guild-core/pkg/gerror" xlink:title="package: github.com/guild&#45;framework/guild&#45;core/pkg/gerror">
<polygon fill="lightyellow" stroke="black" stroke-width="0.8" points="398.79,-16 398.79,-218 647.08,-218 647.08,-16 398.79,-16"/>
<text xml:space="preserve" text-anchor="middle" x="522.93" y="-198.8" font-family="Tahoma bold" font-size="16.00">gerror</text>
</a>
</g>
</g>
<!-- (*github.com/guild&#45;framework/guild&#45;core/pkg/prompts/adapters.LayeredManagerAdapter).LoadTemplate -->
<g id="node1" class="node">
<title>(*github.com/guild&#45;framework/guild&#45;core/pkg/prompts/adapters.LayeredManagerAdapter).LoadTemplate</title>
<g id="a_node1"><a xlink:title="(*github.com/guild&#45;framework/guild&#45;core/pkg/prompts/adapters.LayeredManagerAdapter).LoadTemplate | defined in layered_adapter.go:70&#10;at layered_adapter.go:72: calling [(*github.com/guild&#45;framework/guild&#45;core/pkg/gerror.GuildError).WithComponent]&#10;at layered_adapter.go:73: calling [(*github.com/guild&#45;framework/guild&#45;core/pkg/gerror.GuildError).WithOperation]&#10;at layered_adapter.go:71: calling [github.com/guild&#45;framework/guild&#45;core/pkg/gerror.New]">
<path fill="lightblue" stroke="black" stroke-width="1.5" d="M321.79,-80C321.79,-80 28,-80 28,-80 22,-80 16,-74 16,-68 16,-68 16,-56 16,-56 16,-50 22,-44 28,-44 28,-44 321.79,-44 321.79,-44 327.79,-44 333.79,-50 333.79,-56 333.79,-56 333.79,-68 333.79,-68 333.79,-74 327.79,-80 321.79,-80"/>
<text xml:space="preserve" text-anchor="middle" x="174.89" y="-57.33" font-family="Verdana" font-size="14.00">(*LayeredManagerAdapter).LoadTemplate</text>
</a>
</g>
</g>
<!-- github.com/guild&#45;framework/guild&#45;core/pkg/gerror.New -->
<g id="node3" class="node">
<title>github.com/guild&#45;framework/guild&#45;core/pkg/gerror.New</title>
<g id="a_node3"><a xlink:title="github.com/guild&#45;framework/guild&#45;core/pkg/gerror.New | defined in errors.go:190">
<path fill="moccasin" stroke="black" stroke-width="1.5" d="M537.93,-60C537.93,-60 507.93,-60 507.93,-60 501.93,-60 495.93,-54 495.93,-48 495.93,-48 495.93,-36 495.93,-36 495.93,-30 501.93,-24 507.93,-24 507.93,-24 537.93,-24 537.93,-24 543.93,-24 549.93,-30 549.93,-36 549.93,-36 549.93,-48 549.93,-48 549.93,-54 543.93,-60 537.93,-60"/>
<text xml:space="preserve" text-anchor="middle" x="522.93" y="-37.33" font-family="Verdana" font-size="14.00">New</text>
</a>
</g>
</g>
<!-- (*github.com/guild&#45;framework/guild&#45;core/pkg/prompts/adapters.LayeredManagerAdapter).LoadTemplate&#45;&gt;github.com/guild&#45;framework/guild&#45;core/pkg/gerror.New -->
<g id="edge6" class="edge">
<title>(*github.com/guild&#45;framework/guild&#45;core/pkg/prompts/adapters.LayeredManagerAdapter).LoadTemplate&#45;&gt;github.com/guild&#45;framework/guild&#45;core/pkg/gerror.New</title>
<g id="a_edge6"><a xlink:title="at layered_adapter.go:71: calling [github.com/guild&#45;framework/guild&#45;core/pkg/gerror.New]">
<path fill="none" stroke="saddlebrown" d="M334.48,-52.83C390.16,-49.62 447.84,-46.28 484.26,-44.18"/>
<polygon fill="saddlebrown" stroke="saddlebrown" points="484.01,-47.7 493.79,-43.63 483.61,-40.71 484.01,-47.7"/>
</a>
</g>
</g>
<!-- (*github.com/guild&#45;framework/guild&#45;core/pkg/gerror.GuildError).WithComponent -->
<g id="node4" class="node">
<title>(*github.com/guild&#45;framework/guild&#45;core/pkg/gerror.GuildError).WithComponent</title>
<g id="a_node4"><a xlink:title="(*github.com/guild&#45;framework/guild&#45;core/pkg/gerror.GuildError).WithComponent | defined in errors.go:156">
<path fill="moccasin" stroke="black" stroke-width="1.5" d="M627.08,-121C627.08,-121 418.79,-121 418.79,-121 412.79,-121 406.79,-115 406.79,-109 406.79,-109 406.79,-97 406.79,-97 406.79,-91 412.79,-85 418.79,-85 418.79,-85 627.08,-85 627.08,-85 633.08,-85 639.08,-91 639.08,-97 639.08,-97 639.08,-109 639.08,-109 639.08,-115 633.08,-121 627.08,-121"/>
<text xml:space="preserve" text-anchor="middle" x="522.93" y="-98.33" font-family="Verdana" font-size="14.00">(*GuildError).WithComponent</text>
</a>
</g>
</g>
<!-- (*github.com/guild&#45;framework/guild&#45;core/pkg/prompts/adapters.LayeredManagerAdapter).LoadTemplate&#45;&gt;(*github.com/guild&#45;framework/guild&#45;core/pkg/gerror.GuildError).WithComponent -->
<g id="edge1" class="edge">
<title>(*github.com/guild&#45;framework/guild&#45;core/pkg/prompts/adapters.LayeredManagerAdapter).LoadTemplate&#45;&gt;(*github.com/guild&#45;framework/guild&#45;core/pkg/gerror.GuildError).WithComponent</title>
<g id="a_edge1"><a xlink:title="at layered_adapter.go:72: calling [(*github.com/guild&#45;framework/guild&#45;core/pkg/gerror.GuildError).WithComponent]">
<path fill="none" stroke="saddlebrown" d="M333.98,-80.73C354.4,-83.15 375.09,-85.6 394.92,-87.95"/>
<polygon fill="saddlebrown" stroke="saddlebrown" points="394.32,-91.4 404.66,-89.1 395.14,-84.45 394.32,-91.4"/>
</a>
</g>
</g>
<!-- (*github.com/guild&#45;framework/guild&#45;core/pkg/gerror.GuildError).WithOperation -->
<g id="node5" class="node">
<title>(*github.com/guild&#45;framework/guild&#45;core/pkg/gerror.GuildError).WithOperation</title>
<g id="a_node5"><a xlink:title="(*github.com/guild&#45;framework/guild&#45;core/pkg/gerror.GuildError).WithOperation | defined in errors.go:162">
<path fill="moccasin" stroke="black" stroke-width="1.5" d="M621.45,-182C621.45,-182 424.41,-182 424.41,-182 418.41,-182 412.41,-176 412.41,-170 412.41,-170 412.41,-158 412.41,-158 412.41,-152 418.41,-146 424.41,-146 424.41,-146 621.45,-146 621.45,-146 627.45,-146 633.45,-152 633.45,-158 633.45,-158 633.45,-170 633.45,-170 633.45,-176 627.45,-182 621.45,-182"/>
<text xml:space="preserve" text-anchor="middle" x="522.93" y="-159.32" font-family="Verdana" font-size="14.00">(*GuildError).WithOperation</text>
</a>
</g>
</g>
<!-- (*github.com/guild&#45;framework/guild&#45;core/pkg/prompts/adapters.LayeredManagerAdapter).LoadTemplate&#45;&gt;(*github.com/guild&#45;framework/guild&#45;core/pkg/gerror.GuildError).WithOperation -->
<g id="edge2" class="edge">
<title>(*github.com/guild&#45;framework/guild&#45;core/pkg/prompts/adapters.LayeredManagerAdapter).LoadTemplate&#45;&gt;(*github.com/guild&#45;framework/guild&#45;core/pkg/gerror.GuildError).WithOperation</title>
<g id="a_edge2"><a xlink:title="at layered_adapter.go:73: calling [(*github.com/guild&#45;framework/guild&#45;core/pkg/gerror.GuildError).WithOperation]">
<path fill="none" stroke="saddlebrown" d="M233.83,-80.72C299.83,-102.04 398.66,-133.96 398.79,-134 409,-136.89 419.74,-139.76 430.44,-142.5"/>
<polygon fill="saddlebrown" stroke="saddlebrown" points="429.54,-145.89 440.09,-144.95 431.26,-139.1 429.54,-145.89"/>
</a>
</g>
</g>
<!-- (*github.com/guild&#45;framework/guild&#45;core/pkg/prompts/adapters.LayeredAdapter).LoadTemplate -->
<g id="node2" class="node">
<title>(*github.com/guild&#45;framework/guild&#45;core/pkg/prompts/adapters.LayeredAdapter).LoadTemplate</title>
<g id="a_node2"><a xlink:title="(*github.com/guild&#45;framework/guild&#45;core/pkg/prompts/adapters.LayeredAdapter).LoadTemplate | defined in layered_adapter.go:40&#10;at layered_adapter.go:43: calling [github.com/guild&#45;framework/guild&#45;core/pkg/gerror.New]&#10;at layered_adapter.go:44: calling [(*github.com/guild&#45;framework/guild&#45;core/pkg/gerror.GuildError).WithComponent]&#10;at layered_adapter.go:45: calling [(*github.com/guild&#45;framework/guild&#45;core/pkg/gerror.GuildError).WithOperation]">
<path fill="lightblue" stroke="black" stroke-width="1.5" d="M291.41,-161C291.41,-161 58.38,-161 58.38,-161 52.38,-161 46.37,-155 46.37,-149 46.37,-149 46.37,-137 46.37,-137 46.37,-131 52.37,-125 58.37,-125 58.37,-125 291.41,-125 291.41,-125 297.41,-125 303.41,-131 303.41,-137 303.41,-137 303.41,-149 303.41,-149 303.41,-155 297.41,-161 291.41,-161"/>
<text xml:space="preserve" text-anchor="middle" x="174.89" y="-138.32" font-family="Verdana" font-size="14.00">(*LayeredAdapter).LoadTemplate</text>
</a>
</g>
</g>
<!-- (*github.com/guild&#45;framework/guild&#45;core/pkg/prompts/adapters.LayeredAdapter).LoadTemplate&#45;&gt;github.com/guild&#45;framework/guild&#45;core/pkg/gerror.New -->
<g id="edge3" class="edge">
<title>(*github.com/guild&#45;framework/guild&#45;core/pkg/prompts/adapters.LayeredAdapter).LoadTemplate&#45;&gt;github.com/guild&#45;framework/guild&#45;core/pkg/gerror.New</title>
<g id="a_edge3"><a xlink:title="at layered_adapter.go:43: calling [github.com/guild&#45;framework/guild&#45;core/pkg/gerror.New]">
<path fill="none" stroke="saddlebrown" d="M234.81,-124.3C295.28,-105.15 382.74,-77.54 398.79,-73 427.36,-64.92 459.95,-56.77 484.42,-50.85"/>
<polygon fill="saddlebrown" stroke="saddlebrown" points="485.02,-54.31 493.92,-48.57 483.38,-47.5 485.02,-54.31"/>
</a>
</g>
</g>
<!-- (*github.com/guild&#45;framework/guild&#45;core/pkg/prompts/adapters.LayeredAdapter).LoadTemplate&#45;&gt;(*github.com/guild&#45;framework/guild&#45;core/pkg/gerror.GuildError).WithComponent -->
<g id="edge4" class="edge">
<title>(*github.com/guild&#45;framework/guild&#45;core/pkg/prompts/adapters.LayeredAdapter).LoadTemplate&#45;&gt;(*github.com/guild&#45;framework/guild&#45;core/pkg/gerror.GuildError).WithComponent</title>
<g id="a_edge4"><a xlink:title="at layered_adapter.go:44: calling [(*github.com/guild&#45;framework/guild&#45;core/pkg/gerror.GuildError).WithComponent]">
<path fill="none" stroke="saddlebrown" d="M303.76,-128.22C333.55,-124.78 365.26,-121.11 395.01,-117.67"/>
<polygon fill="saddlebrown" stroke="saddlebrown" points="395.28,-121.16 404.81,-116.54 394.47,-114.21 395.28,-121.16"/>
</a>
</g>
</g>
<!-- (*github.com/guild&#45;framework/guild&#45;core/pkg/prompts/adapters.LayeredAdapter).LoadTemplate&#45;&gt;(*github.com/guild&#45;framework/guild&#45;core/pkg/gerror.GuildError).WithOperation -->
<g id="edge5" class="edge">
<title>(*github.com/guild&#45;framework/guild&#45;core/pkg/prompts/adapters.LayeredAdapter).LoadTemplate&#45;&gt;(*github.com/guild&#45;framework/guild&#45;core/pkg/gerror.GuildError).WithOperation</title>
<g id="a_edge5"><a xlink:title="at layered_adapter.go:45: calling [(*github.com/guild&#45;framework/guild&#45;core/pkg/gerror.GuildError).WithOperation]">
<path fill="none" stroke="saddlebrown" d="M303.76,-150.76C335.4,-152.68 369.2,-154.73 400.52,-156.63"/>
<polygon fill="saddlebrown" stroke="saddlebrown" points="400.23,-160.12 410.43,-157.23 400.66,-153.13 400.23,-160.12"/>
</a>
</g>
</g>
</g>
</svg>
