<?xml version="1.0" encoding="UTF-8" standalone="no"?>
<!DOCTYPE svg PUBLIC "-//W3C//DTD SVG 1.1//EN"
 "http://www.w3.org/Graphics/SVG/1.1/DTD/svg11.dtd">
<!-- Generated by graphviz version 14.1.1 (20251213.1925)
 -->
<!-- Title: gocallvis Pages: 1 -->
<svg width="618pt" height="202pt"
 viewBox="0.00 0.00 618.00 202.00" xmlns="http://www.w3.org/2000/svg" xmlns:xlink="http://www.w3.org/1999/xlink">
<g id="graph0" class="graph" transform="scale(1 1) rotate(0) translate(0 202)">
<title>gocallvis</title>
<polygon fill="lightgray" stroke="none" points="0,0 0,-202 618.08,-202 618.08,0 0,0"/>
<g id="clust1" class="cluster">
<title>cluster_focus</title>
<polygon fill="#e6ecfa" stroke="black" stroke-width="0.5" points="8,-8 8,-194 610.08,-194 610.08,-8 8,-8"/>
<text xml:space="preserve" text-anchor="middle" x="309.04" y="-172.9" font-family="Arial" font-size="18.00">openai</text>
</g>
<g id="clust2" class="cluster">
<title>cluster_github.com/guild&#45;framework/guild&#45;core/pkg/providers/base</title>
<g id="a_clust2"><a xlink:href="/?f=github.com/guild-framework/guild-core/pkg/providers/base" xlink:title="package: github.com/guild&#45;framework/guild&#45;core/pkg/providers/base">
<polygon fill="lightyellow" stroke="black" stroke-width="0.8" points="236.04,-16 236.04,-157 602.08,-157 602.08,-16 236.04,-16"/>
<text xml:space="preserve" text-anchor="middle" x="419.06" y="-137.8" font-family="Tahoma bold" font-size="16.00">base</text>
</a>
</g>
</g>
<!-- github.com/guild&#45;framework/guild&#45;core/pkg/providers/openai.NewClient -->
<g id="node1" class="node">
<title>github.com/guild&#45;framework/guild&#45;core/pkg/providers/openai.NewClient</title>
<g id="a_node1"><a xlink:title="github.com/guild&#45;framework/guild&#45;core/pkg/providers/openai.NewClient | defined in client.go:40&#10;at client.go:111: calling [github.com/guild&#45;framework/guild&#45;core/pkg/providers/base.NewOpenAICompatibleProvider]">
<path fill="lightblue" stroke="black" stroke-width="1.5" d="M127.91,-60C127.91,-60 59.12,-60 59.12,-60 53.12,-60 47.12,-54 47.12,-48 47.12,-48 47.12,-36 47.12,-36 47.12,-30 53.12,-24 59.12,-24 59.12,-24 127.91,-24 127.91,-24 133.91,-24 139.91,-30 139.91,-36 139.91,-36 139.91,-48 139.91,-48 139.91,-54 133.91,-60 127.91,-60"/>
<text xml:space="preserve" text-anchor="middle" x="93.52" y="-37.33" font-family="Verdana" font-size="14.00">NewClient</text>
</a>
</g>
</g>
<!-- github.com/guild&#45;framework/guild&#45;core/pkg/providers/base.NewOpenAICompatibleProvider -->
<g id="node3" class="node">
<title>github.com/guild&#45;framework/guild&#45;core/pkg/providers/base.NewOpenAICompatibleProvider</title>
<g id="a_node3"><a xlink:title="github.com/guild&#45;framework/guild&#45;core/pkg/providers/base.NewOpenAICompatibleProvider | defined in openai_compatible.go:32">
<path fill="moccasin" stroke="black" stroke-width="1.5" d="M528.46,-60C528.46,-60 309.67,-60 309.67,-60 303.67,-60 297.67,-54 297.67,-48 297.67,-48 297.67,-36 297.67,-36 297.67,-30 303.67,-24 309.67,-24 309.67,-24 528.46,-24 528.46,-24 534.46,-24 540.46,-30 540.46,-36 540.46,-36 540.46,-48 540.46,-48 540.46,-54 534.46,-60 528.46,-60"/>
<text xml:space="preserve" text-anchor="middle" x="419.06" y="-37.33" font-family="Verdana" font-size="14.00">NewOpenAICompatibleProvider</text>
</a>
</g>
</g>
<!-- github.com/guild&#45;framework/guild&#45;core/pkg/providers/openai.NewClient&#45;&gt;github.com/guild&#45;framework/guild&#45;core/pkg/providers/base.NewOpenAICompatibleProvider -->
<g id="edge1" class="edge">
<title>github.com/guild&#45;framework/guild&#45;core/pkg/providers/openai.NewClient&#45;&gt;github.com/guild&#45;framework/guild&#45;core/pkg/providers/base.NewOpenAICompatibleProvider</title>
<g id="a_edge1"><a xlink:title="at client.go:111: calling [github.com/guild&#45;framework/guild&#45;core/pkg/providers/base.NewOpenAICompatibleProvider]">
<path fill="none" stroke="saddlebrown" d="M140.53,-42C178.48,-42 234.29,-42 285.92,-42"/>
<polygon fill="saddlebrown" stroke="saddlebrown" points="285.69,-45.5 295.69,-42 285.69,-38.5 285.69,-45.5"/>
</a>
</g>
</g>
<!-- (*github.com/guild&#45;framework/guild&#45;core/pkg/providers/openai.Client).Complete -->
<g id="node2" class="node">
<title>(*github.com/guild&#45;framework/guild&#45;core/pkg/providers/openai.Client).Complete</title>
<g id="a_node2"><a xlink:title="(*github.com/guild&#45;framework/guild&#45;core/pkg/providers/openai.Client).Complete | defined in client.go:143&#10;at client.go:151: calling [(*github.com/guild&#45;framework/guild&#45;core/pkg/providers/base.OpenAICompatibleProvider).ChatCompletion]">
<path fill="lightblue" stroke="black" stroke-width="1.5" d="M159.04,-121C159.04,-121 28,-121 28,-121 22,-121 16,-115 16,-109 16,-109 16,-97 16,-97 16,-91 22,-85 28,-85 28,-85 159.04,-85 159.04,-85 165.04,-85 171.04,-91 171.04,-97 171.04,-97 171.04,-109 171.04,-109 171.04,-115 165.04,-121 159.04,-121"/>
<text xml:space="preserve" text-anchor="middle" x="93.52" y="-98.33" font-family="Verdana" font-size="14.00">(*Client).Complete</text>
</a>
</g>
</g>
<!-- (*github.com/guild&#45;framework/guild&#45;core/pkg/providers/base.OpenAICompatibleProvider).ChatCompletion -->
<g id="node4" class="node">
<title>(*github.com/guild&#45;framework/guild&#45;core/pkg/providers/base.OpenAICompatibleProvider).ChatCompletion</title>
<g id="a_node4"><a xlink:title="(*github.com/guild&#45;framework/guild&#45;core/pkg/providers/base.OpenAICompatibleProvider).ChatCompletion | defined in openai_compatible.go:50">
<path fill="moccasin" stroke="black" stroke-width="1.5" d="M582.08,-121C582.08,-121 256.04,-121 256.04,-121 250.04,-121 244.04,-115 244.04,-109 244.04,-109 244.04,-97 244.04,-97 244.04,-91 250.04,-85 256.04,-85 256.04,-85 582.08,-85 582.08,-85 588.08,-85 594.08,-91 594.08,-97 594.08,-97 594.08,-109 594.08,-109 594.08,-115 588.08,-121 582.08,-121"/>
<text xml:space="preserve" text-anchor="middle" x="419.06" y="-98.33" font-family="Verdana" font-size="14.00">(*OpenAICompatibleProvider).ChatCompletion</text>
</a>
</g>
</g>
<!-- (*github.com/guild&#45;framework/guild&#45;core/pkg/providers/openai.Client).Complete&#45;&gt;(*github.com/guild&#45;framework/guild&#45;core/pkg/providers/base.OpenAICompatibleProvider).ChatCompletion -->
<g id="edge2" class="edge">
<title>(*github.com/guild&#45;framework/guild&#45;core/pkg/providers/openai.Client).Complete&#45;&gt;(*github.com/guild&#45;framework/guild&#45;core/pkg/providers/base.OpenAICompatibleProvider).ChatCompletion</title>
<g id="a_edge2"><a xlink:title="at client.go:151: calling [(*github.com/guild&#45;framework/guild&#45;core/pkg/providers/base.OpenAICompatibleProvider).ChatCompletion]">
<path fill="none" stroke="saddlebrown" d="M171.6,-103C190.14,-103 210.74,-103 231.92,-103"/>
<polygon fill="saddlebrown" stroke="saddlebrown" points="231.87,-106.5 241.87,-103 231.87,-99.5 231.87,-106.5"/>
</a>
</g>
</g>
</g>
</svg>
