<?xml version="1.0" encoding="UTF-8" standalone="no"?>
<!DOCTYPE svg PUBLIC "-//W3C//DTD SVG 1.1//EN"
 "http://www.w3.org/Graphics/SVG/1.1/DTD/svg11.dtd">
<!-- Generated by graphviz version 14.1.1 (20251213.1925)
 -->
<!-- Title: gocallvis Pages: 1 -->
<svg width="485pt" height="202pt"
 viewBox="0.00 0.00 485.00 202.00" xmlns="http://www.w3.org/2000/svg" xmlns:xlink="http://www.w3.org/1999/xlink">
<g id="graph0" class="graph" transform="scale(1 1) rotate(0) translate(0 202)">
<title>gocallvis</title>
<polygon fill="lightgray" stroke="none" points="0,0 0,-202 484.58,-202 484.58,0 0,0"/>
<g id="clust1" class="cluster">
<title>cluster_focus</title>
<polygon fill="#e6ecfa" stroke="black" stroke-width="0.5" points="8,-8 8,-194 476.58,-194 476.58,-8 8,-8"/>
<text xml:space="preserve" text-anchor="middle" x="242.29" y="-172.9" font-family="Arial" font-size="18.00">guildobj</text>
</g>
<g id="clust2" class="cluster">
<title>cluster_github.com/guild&#45;framework/guild&#45;core/pkg/commission</title>
<g id="a_clust2"><a xlink:href="/?f=github.com/guild-framework/guild-core/pkg/commission" xlink:title="package: github.com/guild&#45;framework/guild&#45;core/pkg/commission">
<polygon fill="lightyellow" stroke="black" stroke-width="0.8" points="248.79,-16 248.79,-157 468.58,-157 468.58,-16 248.79,-16"/>
<text xml:space="preserve" text-anchor="middle" x="358.68" y="-137.8" font-family="Tahoma bold" font-size="16.00">commission</text>
</a>
</g>
</g>
<!-- github.com/guild&#45;framework/guild&#45;core/pkg/commission/guildobj.NewGuildParser -->
<g id="node1" class="node">
<title>github.com/guild&#45;framework/guild&#45;core/pkg/commission/guildobj.NewGuildParser</title>
<g id="a_node1"><a xlink:title="github.com/guild&#45;framework/guild&#45;core/pkg/commission/guildobj.NewGuildParser | defined in parser.go:16&#10;at parser.go:18: calling [github.com/guild&#45;framework/guild&#45;core/pkg/commission.NewMarkdownParser]">
<path fill="lightblue" stroke="black" stroke-width="1.5" d="M154.54,-60C154.54,-60 45.25,-60 45.25,-60 39.25,-60 33.25,-54 33.25,-48 33.25,-48 33.25,-36 33.25,-36 33.25,-30 39.25,-24 45.25,-24 45.25,-24 154.54,-24 154.54,-24 160.54,-24 166.54,-30 166.54,-36 166.54,-36 166.54,-48 166.54,-48 166.54,-54 160.54,-60 154.54,-60"/>
<text xml:space="preserve" text-anchor="middle" x="99.89" y="-37.33" font-family="Verdana" font-size="14.00">NewGuildParser</text>
</a>
</g>
</g>
<!-- github.com/guild&#45;framework/guild&#45;core/pkg/commission.NewMarkdownParser -->
<g id="node3" class="node">
<title>github.com/guild&#45;framework/guild&#45;core/pkg/commission.NewMarkdownParser</title>
<g id="a_node3"><a xlink:title="github.com/guild&#45;framework/guild&#45;core/pkg/commission.NewMarkdownParser | defined in parser.go:58">
<path fill="moccasin" stroke="black" stroke-width="1.5" d="M431.33,-60C431.33,-60 286.04,-60 286.04,-60 280.04,-60 274.04,-54 274.04,-48 274.04,-48 274.04,-36 274.04,-36 274.04,-30 280.04,-24 286.04,-24 286.04,-24 431.33,-24 431.33,-24 437.33,-24 443.33,-30 443.33,-36 443.33,-36 443.33,-48 443.33,-48 443.33,-54 437.33,-60 431.33,-60"/>
<text xml:space="preserve" text-anchor="middle" x="358.68" y="-37.33" font-family="Verdana" font-size="14.00">NewMarkdownParser</text>
</a>
</g>
</g>
<!-- github.com/guild&#45;framework/guild&#45;core/pkg/commission/guildobj.NewGuildParser&#45;&gt;github.com/guild&#45;framework/guild&#45;core/pkg/commission.NewMarkdownParser -->
<g id="edge1" class="edge">
<title>github.com/guild&#45;framework/guild&#45;core/pkg/commission/guildobj.NewGuildParser&#45;&gt;github.com/guild&#45;framework/guild&#45;core/pkg/commission.NewMarkdownParser</title>
<g id="a_edge1"><a xlink:title="at parser.go:18: calling [github.com/guild&#45;framework/guild&#45;core/pkg/commission.NewMarkdownParser]">
<path fill="none" stroke="saddlebrown" d="M167.02,-42C195.88,-42 230.26,-42 261.84,-42"/>
<polygon fill="saddlebrown" stroke="saddlebrown" points="261.82,-45.5 271.82,-42 261.82,-38.5 261.82,-45.5"/>
</a>
</g>
</g>
<!-- (*github.com/guild&#45;framework/guild&#45;core/pkg/commission/guildobj.GuildParser).Parse -->
<g id="node2" class="node">
<title>(*github.com/guild&#45;framework/guild&#45;core/pkg/commission/guildobj.GuildParser).Parse</title>
<g id="a_node2"><a xlink:title="(*github.com/guild&#45;framework/guild&#45;core/pkg/commission/guildobj.GuildParser).Parse | defined in parser.go:23&#10;at parser.go:25: calling [(*github.com/guild&#45;framework/guild&#45;core/pkg/commission.MarkdownParser).Parse]">
<path fill="lightblue" stroke="black" stroke-width="1.5" d="M171.79,-121C171.79,-121 28,-121 28,-121 22,-121 16,-115 16,-109 16,-109 16,-97 16,-97 16,-91 22,-85 28,-85 28,-85 171.79,-85 171.79,-85 177.79,-85 183.79,-91 183.79,-97 183.79,-97 183.79,-109 183.79,-109 183.79,-115 177.79,-121 171.79,-121"/>
<text xml:space="preserve" text-anchor="middle" x="99.89" y="-98.33" font-family="Verdana" font-size="14.00">(*GuildParser).Parse</text>
</a>
</g>
</g>
<!-- (*github.com/guild&#45;framework/guild&#45;core/pkg/commission.MarkdownParser).Parse -->
<g id="node4" class="node">
<title>(*github.com/guild&#45;framework/guild&#45;core/pkg/commission.MarkdownParser).Parse</title>
<g id="a_node4"><a xlink:title="(*github.com/guild&#45;framework/guild&#45;core/pkg/commission.MarkdownParser).Parse | defined in parser.go:68">
<path fill="moccasin" stroke="black" stroke-width="1.5" d="M448.58,-121C448.58,-121 268.79,-121 268.79,-121 262.79,-121 256.79,-115 256.79,-109 256.79,-109 256.79,-97 256.79,-97 256.79,-91 262.79,-85 268.79,-85 268.79,-85 448.58,-85 448.58,-85 454.58,-85 460.58,-91 460.58,-97 460.58,-97 460.58,-109 460.58,-109 460.58,-115 454.58,-121 448.58,-121"/>
<text xml:space="preserve" text-anchor="middle" x="358.68" y="-98.33" font-family="Verdana" font-size="14.00">(*MarkdownParser).Parse</text>
</a>
</g>
</g>
<!-- (*github.com/guild&#45;framework/guild&#45;core/pkg/commission/guildobj.GuildParser).Parse&#45;&gt;(*github.com/guild&#45;framework/guild&#45;core/pkg/commission.MarkdownParser).Parse -->
<g id="edge2" class="edge">
<title>(*github.com/guild&#45;framework/guild&#45;core/pkg/commission/guildobj.GuildParser).Parse&#45;&gt;(*github.com/guild&#45;framework/guild&#45;core/pkg/commission.MarkdownParser).Parse</title>
<g id="a_edge2"><a xlink:title="at parser.go:25: calling [(*github.com/guild&#45;framework/guild&#45;core/pkg/commission.MarkdownParser).Parse]">
<path fill="none" stroke="saddlebrown" d="M184.27,-103C203.67,-103 224.64,-103 245.07,-103"/>
<polygon fill="saddlebrown" stroke="saddlebrown" points="244.83,-106.5 254.83,-103 244.83,-99.5 244.83,-106.5"/>
</a>
</g>
</g>
</g>
</svg>
