<?xml version="1.0" encoding="UTF-8" standalone="no"?>
<!DOCTYPE svg PUBLIC "-//W3C//DTD SVG 1.1//EN"
 "http://www.w3.org/Graphics/SVG/1.1/DTD/svg11.dtd">
<!-- Generated by graphviz version 14.1.1 (20251213.1925)
 -->
<!-- Title: gocallvis Pages: 1 -->
<svg width="797pt" height="612pt"
 viewBox="0.00 0.00 797.00 612.00" xmlns="http://www.w3.org/2000/svg" xmlns:xlink="http://www.w3.org/1999/xlink">
<g id="graph0" class="graph" transform="scale(1 1) rotate(0) translate(0 612)">
<title>gocallvis</title>
<polygon fill="lightgray" stroke="none" points="0,0 0,-612 796.62,-612 796.62,0 0,0"/>
<g id="clust1" class="cluster">
<title>cluster_focus</title>
<polygon fill="#e6ecfa" stroke="black" stroke-width="0.5" points="8,-8 8,-604 788.62,-604 788.62,-8 8,-8"/>
<text xml:space="preserve" text-anchor="middle" x="398.31" y="-582.9" font-family="Arial" font-size="18.00">local</text>
</g>
<g id="clust2" class="cluster">
<title>cluster_github.com/guild&#45;framework/guild&#45;core/pkg/gerror</title>
<g id="a_clust2"><a xlink:href="/?f=github.com/guild-framework/guild-core/pkg/gerror" xlink:title="package: github.com/guild&#45;framework/guild&#45;core/pkg/gerror">
<polygon fill="lightyellow" stroke="black" stroke-width="0.8" points="532.33,-243 532.33,-567 780.62,-567 780.62,-243 532.33,-243"/>
<text xml:space="preserve" text-anchor="middle" x="656.47" y="-547.8" font-family="Tahoma bold" font-size="16.00">gerror</text>
</a>
</g>
</g>
<!-- github.com/guild&#45;framework/guild&#45;core/pkg/project/local.LocalWorkspacesPath -->
<g id="node1" class="node">
<title>github.com/guild&#45;framework/guild&#45;core/pkg/project/local.LocalWorkspacesPath</title>
<g id="a_node1"><a xlink:title="github.com/guild&#45;framework/guild&#45;core/pkg/project/local.LocalWorkspacesPath | defined in local.go:202&#10;at local.go:203: calling [github.com/guild&#45;framework/guild&#45;core/pkg/project/local.LocalGuildDir]">
<path fill="lightblue" stroke="black" stroke-width="1.5" d="M451.2,-52C451.2,-52 302.16,-52 302.16,-52 296.16,-52 290.16,-46 290.16,-40 290.16,-40 290.16,-28 290.16,-28 290.16,-22 296.16,-16 302.16,-16 302.16,-16 451.2,-16 451.2,-16 457.2,-16 463.2,-22 463.2,-28 463.2,-28 463.2,-40 463.2,-40 463.2,-46 457.2,-52 451.2,-52"/>
<text xml:space="preserve" text-anchor="middle" x="376.68" y="-29.32" font-family="Verdana" font-size="14.00">LocalWorkspacesPath</text>
</a>
</g>
</g>
<!-- github.com/guild&#45;framework/guild&#45;core/pkg/project/local.LocalGuildDir -->
<g id="node2" class="node">
<title>github.com/guild&#45;framework/guild&#45;core/pkg/project/local.LocalGuildDir</title>
<g id="a_node2"><a xlink:title="github.com/guild&#45;framework/guild&#45;core/pkg/project/local.LocalGuildDir | defined in local.go:29">
<path fill="lightblue" stroke="black" stroke-width="1.5" d="M701.74,-165C701.74,-165 611.2,-165 611.2,-165 605.2,-165 599.2,-159 599.2,-153 599.2,-153 599.2,-141 599.2,-141 599.2,-135 605.2,-129 611.2,-129 611.2,-129 701.74,-129 701.74,-129 707.74,-129 713.74,-135 713.74,-141 713.74,-141 713.74,-153 713.74,-153 713.74,-159 707.74,-165 701.74,-165"/>
<text xml:space="preserve" text-anchor="middle" x="656.47" y="-142.32" font-family="Verdana" font-size="14.00">LocalGuildDir</text>
</a>
</g>
</g>
<!-- github.com/guild&#45;framework/guild&#45;core/pkg/project/local.LocalWorkspacesPath&#45;&gt;github.com/guild&#45;framework/guild&#45;core/pkg/project/local.LocalGuildDir -->
<g id="edge1" class="edge">
<title>github.com/guild&#45;framework/guild&#45;core/pkg/project/local.LocalWorkspacesPath&#45;&gt;github.com/guild&#45;framework/guild&#45;core/pkg/project/local.LocalGuildDir</title>
<g id="a_edge1"><a xlink:title="at local.go:203: calling [github.com/guild&#45;framework/guild&#45;core/pkg/project/local.LocalGuildDir]">
<path fill="none" stroke="black" d="M433.88,-52.68C445.02,-56.59 456.59,-60.81 467.33,-65 514.51,-83.41 567.3,-106.65 604.93,-123.69"/>
<polygon fill="black" stroke="black" points="603.19,-126.74 613.74,-127.69 606.08,-120.37 603.19,-126.74"/>
</a>
</g>
</g>
<!-- github.com/guild&#45;framework/guild&#45;core/pkg/project/local.LocalCommissionsPath -->
<g id="node3" class="node">
<title>github.com/guild&#45;framework/guild&#45;core/pkg/project/local.LocalCommissionsPath</title>
<g id="a_node3"><a xlink:title="github.com/guild&#45;framework/guild&#45;core/pkg/project/local.LocalCommissionsPath | defined in local.go:192&#10;at local.go:193: calling [github.com/guild&#45;framework/guild&#45;core/pkg/project/local.LocalGuildDir]">
<path fill="lightblue" stroke="black" stroke-width="1.5" d="M455.33,-113C455.33,-113 298.04,-113 298.04,-113 292.04,-113 286.04,-107 286.04,-101 286.04,-101 286.04,-89 286.04,-89 286.04,-83 292.04,-77 298.04,-77 298.04,-77 455.33,-77 455.33,-77 461.33,-77 467.33,-83 467.33,-89 467.33,-89 467.33,-101 467.33,-101 467.33,-107 461.33,-113 455.33,-113"/>
<text xml:space="preserve" text-anchor="middle" x="376.68" y="-90.33" font-family="Verdana" font-size="14.00">LocalCommissionsPath</text>
</a>
</g>
</g>
<!-- github.com/guild&#45;framework/guild&#45;core/pkg/project/local.LocalCommissionsPath&#45;&gt;github.com/guild&#45;framework/guild&#45;core/pkg/project/local.LocalGuildDir -->
<g id="edge15" class="edge">
<title>github.com/guild&#45;framework/guild&#45;core/pkg/project/local.LocalCommissionsPath&#45;&gt;github.com/guild&#45;framework/guild&#45;core/pkg/project/local.LocalGuildDir</title>
<g id="a_edge15"><a xlink:title="at local.go:193: calling [github.com/guild&#45;framework/guild&#45;core/pkg/project/local.LocalGuildDir]">
<path fill="none" stroke="black" d="M467.88,-111.88C506.93,-119.19 551.86,-127.6 587.96,-134.36"/>
<polygon fill="black" stroke="black" points="586.9,-137.72 597.37,-136.12 588.19,-130.84 586.9,-137.72"/>
</a>
</g>
</g>
<!-- github.com/guild&#45;framework/guild&#45;core/pkg/project/local.LocalCorpusPath -->
<g id="node4" class="node">
<title>github.com/guild&#45;framework/guild&#45;core/pkg/project/local.LocalCorpusPath</title>
<g id="a_node4"><a xlink:title="github.com/guild&#45;framework/guild&#45;core/pkg/project/local.LocalCorpusPath | defined in local.go:187&#10;at local.go:188: calling [github.com/guild&#45;framework/guild&#45;core/pkg/project/local.LocalGuildDir]">
<path fill="lightblue" stroke="black" stroke-width="1.5" d="M433.95,-174C433.95,-174 319.41,-174 319.41,-174 313.41,-174 307.41,-168 307.41,-162 307.41,-162 307.41,-150 307.41,-150 307.41,-144 313.41,-138 319.41,-138 319.41,-138 433.95,-138 433.95,-138 439.95,-138 445.95,-144 445.95,-150 445.95,-150 445.95,-162 445.95,-162 445.95,-168 439.95,-174 433.95,-174"/>
<text xml:space="preserve" text-anchor="middle" x="376.68" y="-151.32" font-family="Verdana" font-size="14.00">LocalCorpusPath</text>
</a>
</g>
</g>
<!-- github.com/guild&#45;framework/guild&#45;core/pkg/project/local.LocalCorpusPath&#45;&gt;github.com/guild&#45;framework/guild&#45;core/pkg/project/local.LocalGuildDir -->
<g id="edge12" class="edge">
<title>github.com/guild&#45;framework/guild&#45;core/pkg/project/local.LocalCorpusPath&#45;&gt;github.com/guild&#45;framework/guild&#45;core/pkg/project/local.LocalGuildDir</title>
<g id="a_edge12"><a xlink:title="at local.go:188: calling [github.com/guild&#45;framework/guild&#45;core/pkg/project/local.LocalGuildDir]">
<path fill="none" stroke="black" d="M446.35,-153.78C489.33,-152.38 544.47,-150.6 587.35,-149.21"/>
<polygon fill="black" stroke="black" points="587.42,-152.71 597.3,-148.88 587.19,-145.71 587.42,-152.71"/>
</a>
</g>
</g>
<!-- github.com/guild&#45;framework/guild&#45;core/pkg/project/local.LocalDatabasePath -->
<g id="node5" class="node">
<title>github.com/guild&#45;framework/guild&#45;core/pkg/project/local.LocalDatabasePath</title>
<g id="a_node5"><a xlink:title="github.com/guild&#45;framework/guild&#45;core/pkg/project/local.LocalDatabasePath | defined in local.go:182&#10;at local.go:183: calling [github.com/guild&#45;framework/guild&#45;core/pkg/project/local.LocalGuildDir]">
<path fill="lightblue" stroke="black" stroke-width="1.5" d="M441.83,-235C441.83,-235 311.54,-235 311.54,-235 305.54,-235 299.54,-229 299.54,-223 299.54,-223 299.54,-211 299.54,-211 299.54,-205 305.54,-199 311.54,-199 311.54,-199 441.83,-199 441.83,-199 447.83,-199 453.83,-205 453.83,-211 453.83,-211 453.83,-223 453.83,-223 453.83,-229 447.83,-235 441.83,-235"/>
<text xml:space="preserve" text-anchor="middle" x="376.68" y="-212.32" font-family="Verdana" font-size="14.00">LocalDatabasePath</text>
</a>
</g>
</g>
<!-- github.com/guild&#45;framework/guild&#45;core/pkg/project/local.LocalDatabasePath&#45;&gt;github.com/guild&#45;framework/guild&#45;core/pkg/project/local.LocalGuildDir -->
<g id="edge2" class="edge">
<title>github.com/guild&#45;framework/guild&#45;core/pkg/project/local.LocalDatabasePath&#45;&gt;github.com/guild&#45;framework/guild&#45;core/pkg/project/local.LocalGuildDir</title>
<g id="a_edge2"><a xlink:title="at local.go:183: calling [github.com/guild&#45;framework/guild&#45;core/pkg/project/local.LocalGuildDir]">
<path fill="none" stroke="black" d="M451.62,-198.35C477.19,-191.9 506.02,-184.63 532.33,-178 550.21,-173.49 569.55,-168.62 587.49,-164.11"/>
<polygon fill="black" stroke="black" points="588.15,-167.55 596.99,-161.72 586.44,-160.76 588.15,-167.55"/>
</a>
</g>
</g>
<!-- github.com/guild&#45;framework/guild&#45;core/pkg/project/local.createDefaultLocalConfig -->
<g id="node6" class="node">
<title>github.com/guild&#45;framework/guild&#45;core/pkg/project/local.createDefaultLocalConfig</title>
<g id="a_node6"><a xlink:title="github.com/guild&#45;framework/guild&#45;core/pkg/project/local.createDefaultLocalConfig | defined in local.go:88&#10;at local.go:92: calling [github.com/guild&#45;framework/guild&#45;core/pkg/project/local.detectProjectType]&#10;at local.go:94: calling [github.com/guild&#45;framework/guild&#45;core/pkg/project/local.generateLocalConfig]">
<path fill="lightblue" stroke="black" stroke-width="0.5" d="M201.04,-326C201.04,-326 28,-326 28,-326 22,-326 16,-320 16,-314 16,-314 16,-302 16,-302 16,-296 22,-290 28,-290 28,-290 201.04,-290 201.04,-290 207.04,-290 213.04,-296 213.04,-302 213.04,-302 213.04,-314 213.04,-314 213.04,-320 207.04,-326 201.04,-326"/>
<text xml:space="preserve" text-anchor="middle" x="114.52" y="-303.32" font-family="Verdana" font-size="14.00">createDefaultLocalConfig</text>
</a>
</g>
</g>
<!-- github.com/guild&#45;framework/guild&#45;core/pkg/project/local.detectProjectType -->
<g id="node7" class="node">
<title>github.com/guild&#45;framework/guild&#45;core/pkg/project/local.detectProjectType</title>
<g id="a_node7"><a xlink:title="github.com/guild&#45;framework/guild&#45;core/pkg/project/local.detectProjectType | defined in local.go:100">
<path fill="lightblue" stroke="black" stroke-width="0.5" d="M438.45,-296C438.45,-296 314.91,-296 314.91,-296 308.91,-296 302.91,-290 302.91,-284 302.91,-284 302.91,-272 302.91,-272 302.91,-266 308.91,-260 314.91,-260 314.91,-260 438.45,-260 438.45,-260 444.45,-260 450.45,-266 450.45,-272 450.45,-272 450.45,-284 450.45,-284 450.45,-290 444.45,-296 438.45,-296"/>
<text xml:space="preserve" text-anchor="middle" x="376.68" y="-273.32" font-family="Verdana" font-size="14.00">detectProjectType</text>
</a>
</g>
</g>
<!-- github.com/guild&#45;framework/guild&#45;core/pkg/project/local.createDefaultLocalConfig&#45;&gt;github.com/guild&#45;framework/guild&#45;core/pkg/project/local.detectProjectType -->
<g id="edge3" class="edge">
<title>github.com/guild&#45;framework/guild&#45;core/pkg/project/local.createDefaultLocalConfig&#45;&gt;github.com/guild&#45;framework/guild&#45;core/pkg/project/local.detectProjectType</title>
<g id="a_edge3"><a xlink:title="at local.go:92: calling [github.com/guild&#45;framework/guild&#45;core/pkg/project/local.detectProjectType]">
<path fill="none" stroke="black" d="M213.14,-296.74C238.89,-293.77 266.47,-290.59 291.45,-287.71"/>
<polygon fill="black" stroke="black" points="291.69,-291.21 301.23,-286.59 290.89,-284.25 291.69,-291.21"/>
</a>
</g>
</g>
<!-- github.com/guild&#45;framework/guild&#45;core/pkg/project/local.generateLocalConfig -->
<g id="node8" class="node">
<title>github.com/guild&#45;framework/guild&#45;core/pkg/project/local.generateLocalConfig</title>
<g id="a_node8"><a xlink:title="github.com/guild&#45;framework/guild&#45;core/pkg/project/local.generateLocalConfig | defined in local.go:131">
<path fill="lightblue" stroke="black" stroke-width="0.5" d="M447.45,-357C447.45,-357 305.91,-357 305.91,-357 299.91,-357 293.91,-351 293.91,-345 293.91,-345 293.91,-333 293.91,-333 293.91,-327 299.91,-321 305.91,-321 305.91,-321 447.45,-321 447.45,-321 453.45,-321 459.45,-327 459.45,-333 459.45,-333 459.45,-345 459.45,-345 459.45,-351 453.45,-357 447.45,-357"/>
<text xml:space="preserve" text-anchor="middle" x="376.68" y="-334.32" font-family="Verdana" font-size="14.00">generateLocalConfig</text>
</a>
</g>
</g>
<!-- github.com/guild&#45;framework/guild&#45;core/pkg/project/local.createDefaultLocalConfig&#45;&gt;github.com/guild&#45;framework/guild&#45;core/pkg/project/local.generateLocalConfig -->
<g id="edge16" class="edge">
<title>github.com/guild&#45;framework/guild&#45;core/pkg/project/local.createDefaultLocalConfig&#45;&gt;github.com/guild&#45;framework/guild&#45;core/pkg/project/local.generateLocalConfig</title>
<g id="a_edge16"><a xlink:title="at local.go:94: calling [github.com/guild&#45;framework/guild&#45;core/pkg/project/local.generateLocalConfig]">
<path fill="none" stroke="black" d="M213.14,-319.63C235.83,-322.34 259.94,-325.21 282.44,-327.89"/>
<polygon fill="black" stroke="black" points="281.84,-331.34 292.19,-329.05 282.67,-324.39 281.84,-331.34"/>
</a>
</g>
</g>
<!-- github.com/guild&#45;framework/guild&#45;core/pkg/project/local.LocalConfigPath -->
<g id="node9" class="node">
<title>github.com/guild&#45;framework/guild&#45;core/pkg/project/local.LocalConfigPath</title>
<g id="a_node9"><a xlink:title="github.com/guild&#45;framework/guild&#45;core/pkg/project/local.LocalConfigPath | defined in local.go:177&#10;at local.go:178: calling [github.com/guild&#45;framework/guild&#45;core/pkg/project/local.LocalGuildDir]">
<path fill="lightblue" stroke="black" stroke-width="1.5" d="M431.7,-418C431.7,-418 321.66,-418 321.66,-418 315.66,-418 309.66,-412 309.66,-406 309.66,-406 309.66,-394 309.66,-394 309.66,-388 315.66,-382 321.66,-382 321.66,-382 431.7,-382 431.7,-382 437.7,-382 443.7,-388 443.7,-394 443.7,-394 443.7,-406 443.7,-406 443.7,-412 437.7,-418 431.7,-418"/>
<text xml:space="preserve" text-anchor="middle" x="376.68" y="-395.32" font-family="Verdana" font-size="14.00">LocalConfigPath</text>
</a>
</g>
</g>
<!-- github.com/guild&#45;framework/guild&#45;core/pkg/project/local.LocalConfigPath&#45;&gt;github.com/guild&#45;framework/guild&#45;core/pkg/project/local.LocalGuildDir -->
<g id="edge4" class="edge">
<title>github.com/guild&#45;framework/guild&#45;core/pkg/project/local.LocalConfigPath&#45;&gt;github.com/guild&#45;framework/guild&#45;core/pkg/project/local.LocalGuildDir</title>
<g id="a_edge4"><a xlink:title="at local.go:178: calling [github.com/guild&#45;framework/guild&#45;core/pkg/project/local.LocalGuildDir]">
<path fill="none" stroke="black" d="M444.42,-385.56C452.87,-381.57 460.82,-376.49 467.33,-370 531.14,-306.41 466.14,-239.11 532.33,-178 547.36,-164.12 567.68,-156.23 587.47,-151.81"/>
<polygon fill="black" stroke="black" points="588.06,-155.26 597.21,-149.93 586.73,-148.39 588.06,-155.26"/>
</a>
</g>
</g>
<!-- github.com/guild&#45;framework/guild&#45;core/pkg/project/local.EnsureLocalInitialized -->
<g id="node10" class="node">
<title>github.com/guild&#45;framework/guild&#45;core/pkg/project/local.EnsureLocalInitialized</title>
<g id="a_node10"><a xlink:title="github.com/guild&#45;framework/guild&#45;core/pkg/project/local.EnsureLocalInitialized | defined in local.go:207&#10;at local.go:217: calling [github.com/guild&#45;framework/guild&#45;core/pkg/project/local.InitializeLocal]&#10;at local.go:208: calling [github.com/guild&#45;framework/guild&#45;core/pkg/project/local.LocalGuildDir]">
<path fill="lightblue" stroke="black" stroke-width="1.5" d="M190.16,-475C190.16,-475 38.88,-475 38.88,-475 32.88,-475 26.87,-469 26.87,-463 26.87,-463 26.87,-451 26.87,-451 26.87,-445 32.87,-439 38.87,-439 38.87,-439 190.16,-439 190.16,-439 196.16,-439 202.16,-445 202.16,-451 202.16,-451 202.16,-463 202.16,-463 202.16,-469 196.16,-475 190.16,-475"/>
<text xml:space="preserve" text-anchor="middle" x="114.52" y="-452.32" font-family="Verdana" font-size="14.00">EnsureLocalInitialized</text>
</a>
</g>
</g>
<!-- github.com/guild&#45;framework/guild&#45;core/pkg/project/local.EnsureLocalInitialized&#45;&gt;github.com/guild&#45;framework/guild&#45;core/pkg/project/local.LocalGuildDir -->
<g id="edge17" class="edge">
<title>github.com/guild&#45;framework/guild&#45;core/pkg/project/local.EnsureLocalInitialized&#45;&gt;github.com/guild&#45;framework/guild&#45;core/pkg/project/local.LocalGuildDir</title>
<g id="a_edge17"><a xlink:title="at local.go:208: calling [github.com/guild&#45;framework/guild&#45;core/pkg/project/local.LocalGuildDir]">
<path fill="none" stroke="black" d="M202.49,-455.79C300.08,-453.63 447.45,-447.63 467.33,-431 511.86,-393.76 491.18,-218.95 532.33,-178 547.03,-163.37 567.56,-155.31 587.64,-150.96"/>
<polygon fill="black" stroke="black" points="588.03,-154.45 597.23,-149.18 586.76,-147.56 588.03,-154.45"/>
</a>
</g>
</g>
<!-- github.com/guild&#45;framework/guild&#45;core/pkg/project/local.InitializeLocal -->
<g id="node11" class="node">
<title>github.com/guild&#45;framework/guild&#45;core/pkg/project/local.InitializeLocal</title>
<g id="a_node11"><a xlink:title="github.com/guild&#45;framework/guild&#45;core/pkg/project/local.InitializeLocal | defined in local.go:34&#10;at local.go:49: calling [github.com/guild&#45;framework/guild&#45;core/pkg/gerror.Wrap]&#10;at local.go:68: calling [github.com/guild&#45;framework/guild&#45;core/pkg/gerror.Wrap]&#10;at local.go:79: calling [github.com/guild&#45;framework/guild&#45;core/pkg/gerror.Wrap]&#10;at local.go:50: calling [(*github.com/guild&#45;framework/guild&#45;core/pkg/gerror.GuildError).WithComponent]&#10;at local.go:60: calling [(*github.com/guild&#45;framework/guild&#45;core/pkg/gerror.GuildError).WithComponent]&#10;at local.go:69: calling [(*github.com/guild&#45;framework/guild&#45;core/pkg/gerror.GuildError).WithComponent]&#10;at local.go:80: calling [(*github.com/guild&#45;framework/guild&#45;core/pkg/gerror.GuildError).WithComponent]&#10;at local.go:52: calling [(*github.com/guild&#45;framework/guild&#45;core/pkg/gerror.GuildError).WithDetails]&#10;at local.go:78: calling [github.com/guild&#45;framework/guild&#45;core/pkg/project/local.createGitIgnore]&#10;at local.go:35: calling [github.com/guild&#45;framework/guild&#45;core/pkg/project/local.LocalGuildDir]&#10;at local.go:51: calling [(*github.com/guild&#45;framework/guild&#45;core/pkg/gerror.GuildError).WithOperation]&#10;at local.go:61: calling [(*github.com/guild&#45;framework/guild&#45;core/pkg/gerror.GuildError).WithOperation]&#10;at local.go:70: calling [(*github.com/guild&#45;framework/guild&#45;core/pkg/gerror.GuildError).WithOperation]&#10;at local.go:81: calling [(*github.com/guild&#45;framework/guild&#45;core/pkg/gerror.GuildError).WithOperation]&#10;at local.go:59: calling [github.com/guild&#45;framework/guild&#45;core/pkg/gerror.Wrapf]">
<path fill="lightblue" stroke="black" stroke-width="1.5" d="M423.45,-567C423.45,-567 329.91,-567 329.91,-567 323.91,-567 317.91,-561 317.91,-555 317.91,-555 317.91,-543 317.91,-543 317.91,-537 323.91,-531 329.91,-531 329.91,-531 423.45,-531 423.45,-531 429.45,-531 435.45,-537 435.45,-543 435.45,-543 435.45,-555 435.45,-555 435.45,-561 429.45,-567 423.45,-567"/>
<text xml:space="preserve" text-anchor="middle" x="376.68" y="-544.33" font-family="Verdana" font-size="14.00">InitializeLocal</text>
</a>
</g>
</g>
<!-- github.com/guild&#45;framework/guild&#45;core/pkg/project/local.EnsureLocalInitialized&#45;&gt;github.com/guild&#45;framework/guild&#45;core/pkg/project/local.InitializeLocal -->
<g id="edge10" class="edge">
<title>github.com/guild&#45;framework/guild&#45;core/pkg/project/local.EnsureLocalInitialized&#45;&gt;github.com/guild&#45;framework/guild&#45;core/pkg/project/local.InitializeLocal</title>
<g id="a_edge10"><a xlink:title="at local.go:217: calling [github.com/guild&#45;framework/guild&#45;core/pkg/project/local.InitializeLocal]">
<path fill="none" stroke="black" d="M165.76,-475.65C199.66,-488.14 245.44,-504.83 286.04,-519 293.31,-521.54 300.92,-524.15 308.51,-526.73"/>
<polygon fill="black" stroke="black" points="307.15,-529.96 317.75,-529.85 309.4,-523.33 307.15,-529.96"/>
</a>
</g>
</g>
<!-- github.com/guild&#45;framework/guild&#45;core/pkg/project/local.InitializeLocal&#45;&gt;github.com/guild&#45;framework/guild&#45;core/pkg/project/local.LocalGuildDir -->
<g id="edge9" class="edge">
<title>github.com/guild&#45;framework/guild&#45;core/pkg/project/local.InitializeLocal&#45;&gt;github.com/guild&#45;framework/guild&#45;core/pkg/project/local.LocalGuildDir</title>
<g id="a_edge9"><a xlink:title="at local.go:35: calling [github.com/guild&#45;framework/guild&#45;core/pkg/project/local.LocalGuildDir]">
<path fill="none" stroke="black" d="M435.82,-539C447.58,-534.58 458.9,-528.2 467.33,-519 514.89,-467.1 490.88,-434.1 504.33,-365 512.36,-323.75 504.11,-209.13 532.33,-178 546.39,-162.5 566.95,-154.23 587.26,-149.96"/>
<polygon fill="black" stroke="black" points="587.75,-153.43 596.98,-148.24 586.53,-146.53 587.75,-153.43"/>
</a>
</g>
</g>
<!-- github.com/guild&#45;framework/guild&#45;core/pkg/project/local.createGitIgnore -->
<g id="node12" class="node">
<title>github.com/guild&#45;framework/guild&#45;core/pkg/project/local.createGitIgnore</title>
<g id="a_node12"><a xlink:title="github.com/guild&#45;framework/guild&#45;core/pkg/project/local.createGitIgnore | defined in local.go:147">
<path fill="lightblue" stroke="black" stroke-width="0.5" d="M710.74,-226C710.74,-226 602.2,-226 602.2,-226 596.2,-226 590.2,-220 590.2,-214 590.2,-214 590.2,-202 590.2,-202 590.2,-196 596.2,-190 602.2,-190 602.2,-190 710.74,-190 710.74,-190 716.74,-190 722.74,-196 722.74,-202 722.74,-202 722.74,-214 722.74,-214 722.74,-220 716.74,-226 710.74,-226"/>
<text xml:space="preserve" text-anchor="middle" x="656.47" y="-203.32" font-family="Verdana" font-size="14.00">createGitIgnore</text>
</a>
</g>
</g>
<!-- github.com/guild&#45;framework/guild&#45;core/pkg/project/local.InitializeLocal&#45;&gt;github.com/guild&#45;framework/guild&#45;core/pkg/project/local.createGitIgnore -->
<g id="edge8" class="edge">
<title>github.com/guild&#45;framework/guild&#45;core/pkg/project/local.InitializeLocal&#45;&gt;github.com/guild&#45;framework/guild&#45;core/pkg/project/local.createGitIgnore</title>
<g id="a_edge8"><a xlink:title="at local.go:78: calling [github.com/guild&#45;framework/guild&#45;core/pkg/project/local.createGitIgnore]">
<path fill="none" stroke="black" d="M436.12,-538.05C447.59,-533.67 458.71,-527.56 467.33,-519 503.34,-483.25 492.03,-460.23 504.33,-411 523.31,-335.01 478.97,-294.34 532.33,-237 544.6,-223.82 561.64,-216.11 579.14,-211.71"/>
<polygon fill="black" stroke="black" points="579.52,-215.21 588.57,-209.7 578.06,-208.36 579.52,-215.21"/>
</a>
</g>
</g>
<!-- github.com/guild&#45;framework/guild&#45;core/pkg/gerror.Wrap -->
<g id="node14" class="node">
<title>github.com/guild&#45;framework/guild&#45;core/pkg/gerror.Wrap</title>
<g id="a_node14"><a xlink:title="github.com/guild&#45;framework/guild&#45;core/pkg/gerror.Wrap | defined in errors.go:223">
<path fill="moccasin" stroke="black" stroke-width="1.5" d="M674.37,-348C674.37,-348 638.58,-348 638.58,-348 632.58,-348 626.58,-342 626.58,-336 626.58,-336 626.58,-324 626.58,-324 626.58,-318 632.58,-312 638.58,-312 638.58,-312 674.37,-312 674.37,-312 680.37,-312 686.37,-318 686.37,-324 686.37,-324 686.37,-336 686.37,-336 686.37,-342 680.37,-348 674.37,-348"/>
<text xml:space="preserve" text-anchor="middle" x="656.47" y="-325.32" font-family="Verdana" font-size="14.00">Wrap</text>
</a>
</g>
</g>
<!-- github.com/guild&#45;framework/guild&#45;core/pkg/project/local.InitializeLocal&#45;&gt;github.com/guild&#45;framework/guild&#45;core/pkg/gerror.Wrap -->
<g id="edge5" class="edge">
<title>github.com/guild&#45;framework/guild&#45;core/pkg/project/local.InitializeLocal&#45;&gt;github.com/guild&#45;framework/guild&#45;core/pkg/gerror.Wrap</title>
<g id="a_edge5"><a xlink:title="at local.go:49: calling [github.com/guild&#45;framework/guild&#45;core/pkg/gerror.Wrap]&#10;at local.go:68: calling [github.com/guild&#45;framework/guild&#45;core/pkg/gerror.Wrap]&#10;at local.go:79: calling [github.com/guild&#45;framework/guild&#45;core/pkg/gerror.Wrap]">
<path fill="none" stroke="saddlebrown" d="M435.9,-535.64C446.99,-531.45 458.03,-526.02 467.33,-519 490.55,-501.47 492.15,-491.42 504.33,-465 524.37,-421.53 498.21,-394.57 532.33,-361 553.96,-339.72 587.93,-332.36 614.71,-330.11"/>
<polygon fill="saddlebrown" stroke="saddlebrown" points="614.79,-333.61 624.56,-329.5 614.36,-326.62 614.79,-333.61"/>
</a>
</g>
</g>
<!-- (*github.com/guild&#45;framework/guild&#45;core/pkg/gerror.GuildError).WithComponent -->
<g id="node15" class="node">
<title>(*github.com/guild&#45;framework/guild&#45;core/pkg/gerror.GuildError).WithComponent</title>
<g id="a_node15"><a xlink:title="(*github.com/guild&#45;framework/guild&#45;core/pkg/gerror.GuildError).WithComponent | defined in errors.go:156">
<path fill="moccasin" stroke="black" stroke-width="1.5" d="M760.62,-409C760.62,-409 552.33,-409 552.33,-409 546.33,-409 540.33,-403 540.33,-397 540.33,-397 540.33,-385 540.33,-385 540.33,-379 546.33,-373 552.33,-373 552.33,-373 760.62,-373 760.62,-373 766.62,-373 772.62,-379 772.62,-385 772.62,-385 772.62,-397 772.62,-397 772.62,-403 766.62,-409 760.62,-409"/>
<text xml:space="preserve" text-anchor="middle" x="656.47" y="-386.32" font-family="Verdana" font-size="14.00">(*GuildError).WithComponent</text>
</a>
</g>
</g>
<!-- github.com/guild&#45;framework/guild&#45;core/pkg/project/local.InitializeLocal&#45;&gt;(*github.com/guild&#45;framework/guild&#45;core/pkg/gerror.GuildError).WithComponent -->
<g id="edge6" class="edge">
<title>github.com/guild&#45;framework/guild&#45;core/pkg/project/local.InitializeLocal&#45;&gt;(*github.com/guild&#45;framework/guild&#45;core/pkg/gerror.GuildError).WithComponent</title>
<g id="a_edge6"><a xlink:title="at local.go:50: calling [(*github.com/guild&#45;framework/guild&#45;core/pkg/gerror.GuildError).WithComponent]&#10;at local.go:60: calling [(*github.com/guild&#45;framework/guild&#45;core/pkg/gerror.GuildError).WithComponent]&#10;at local.go:69: calling [(*github.com/guild&#45;framework/guild&#45;core/pkg/gerror.GuildError).WithComponent]&#10;at local.go:80: calling [(*github.com/guild&#45;framework/guild&#45;core/pkg/gerror.GuildError).WithComponent]">
<path fill="none" stroke="saddlebrown" d="M436.15,-532.34C446.76,-528.5 457.56,-524.05 467.33,-519 485.42,-509.66 491.84,-508.08 504.33,-492 524.89,-465.54 507.1,-444.06 532.33,-422 534.98,-419.68 537.78,-417.53 540.71,-415.54"/>
<polygon fill="saddlebrown" stroke="saddlebrown" points="542.36,-418.63 549.11,-410.47 538.74,-412.63 542.36,-418.63"/>
</a>
</g>
</g>
<!-- (*github.com/guild&#45;framework/guild&#45;core/pkg/gerror.GuildError).WithOperation -->
<g id="node16" class="node">
<title>(*github.com/guild&#45;framework/guild&#45;core/pkg/gerror.GuildError).WithOperation</title>
<g id="a_node16"><a xlink:title="(*github.com/guild&#45;framework/guild&#45;core/pkg/gerror.GuildError).WithOperation | defined in errors.go:162">
<path fill="moccasin" stroke="black" stroke-width="1.5" d="M754.99,-470C754.99,-470 557.95,-470 557.95,-470 551.95,-470 545.95,-464 545.95,-458 545.95,-458 545.95,-446 545.95,-446 545.95,-440 551.95,-434 557.95,-434 557.95,-434 754.99,-434 754.99,-434 760.99,-434 766.99,-440 766.99,-446 766.99,-446 766.99,-458 766.99,-458 766.99,-464 760.99,-470 754.99,-470"/>
<text xml:space="preserve" text-anchor="middle" x="656.47" y="-447.32" font-family="Verdana" font-size="14.00">(*GuildError).WithOperation</text>
</a>
</g>
</g>
<!-- github.com/guild&#45;framework/guild&#45;core/pkg/project/local.InitializeLocal&#45;&gt;(*github.com/guild&#45;framework/guild&#45;core/pkg/gerror.GuildError).WithOperation -->
<g id="edge13" class="edge">
<title>github.com/guild&#45;framework/guild&#45;core/pkg/project/local.InitializeLocal&#45;&gt;(*github.com/guild&#45;framework/guild&#45;core/pkg/gerror.GuildError).WithOperation</title>
<g id="a_edge13"><a xlink:title="at local.go:51: calling [(*github.com/guild&#45;framework/guild&#45;core/pkg/gerror.GuildError).WithOperation]&#10;at local.go:61: calling [(*github.com/guild&#45;framework/guild&#45;core/pkg/gerror.GuildError).WithOperation]&#10;at local.go:70: calling [(*github.com/guild&#45;framework/guild&#45;core/pkg/gerror.GuildError).WithOperation]&#10;at local.go:81: calling [(*github.com/guild&#45;framework/guild&#45;core/pkg/gerror.GuildError).WithOperation]">
<path fill="none" stroke="saddlebrown" d="M436.1,-543.57C458.77,-539.39 484.09,-532.01 504.33,-519 521.38,-508.04 515.35,-494.08 532.33,-483 536.6,-480.21 541.1,-477.68 545.76,-475.37"/>
<polygon fill="saddlebrown" stroke="saddlebrown" points="547.12,-478.6 554.8,-471.3 544.25,-472.21 547.12,-478.6"/>
</a>
</g>
</g>
<!-- (*github.com/guild&#45;framework/guild&#45;core/pkg/gerror.GuildError).WithDetails -->
<g id="node17" class="node">
<title>(*github.com/guild&#45;framework/guild&#45;core/pkg/gerror.GuildError).WithDetails</title>
<g id="a_node17"><a xlink:title="(*github.com/guild&#45;framework/guild&#45;core/pkg/gerror.GuildError).WithDetails | defined in errors.go:147">
<path fill="moccasin" stroke="black" stroke-width="1.5" d="M744.12,-531C744.12,-531 568.83,-531 568.83,-531 562.83,-531 556.83,-525 556.83,-519 556.83,-519 556.83,-507 556.83,-507 556.83,-501 562.83,-495 568.83,-495 568.83,-495 744.12,-495 744.12,-495 750.12,-495 756.12,-501 756.12,-507 756.12,-507 756.12,-519 756.12,-519 756.12,-525 750.12,-531 744.12,-531"/>
<text xml:space="preserve" text-anchor="middle" x="656.47" y="-508.32" font-family="Verdana" font-size="14.00">(*GuildError).WithDetails</text>
</a>
</g>
</g>
<!-- github.com/guild&#45;framework/guild&#45;core/pkg/project/local.InitializeLocal&#45;&gt;(*github.com/guild&#45;framework/guild&#45;core/pkg/gerror.GuildError).WithDetails -->
<g id="edge7" class="edge">
<title>github.com/guild&#45;framework/guild&#45;core/pkg/project/local.InitializeLocal&#45;&gt;(*github.com/guild&#45;framework/guild&#45;core/pkg/gerror.GuildError).WithDetails</title>
<g id="a_edge7"><a xlink:title="at local.go:52: calling [(*github.com/guild&#45;framework/guild&#45;core/pkg/gerror.GuildError).WithDetails]">
<path fill="none" stroke="saddlebrown" d="M436.17,-549.94C457.67,-549.68 482.17,-548.66 504.33,-546 526.57,-543.33 550.37,-538.9 572.34,-534.14"/>
<polygon fill="saddlebrown" stroke="saddlebrown" points="572.82,-537.61 581.83,-532.03 571.31,-530.78 572.82,-537.61"/>
</a>
</g>
</g>
<!-- github.com/guild&#45;framework/guild&#45;core/pkg/gerror.Wrapf -->
<g id="node18" class="node">
<title>github.com/guild&#45;framework/guild&#45;core/pkg/gerror.Wrapf</title>
<g id="a_node18"><a xlink:title="github.com/guild&#45;framework/guild&#45;core/pkg/gerror.Wrapf | defined in errors.go:245">
<path fill="moccasin" stroke="black" stroke-width="1.5" d="M676.99,-287C676.99,-287 635.95,-287 635.95,-287 629.95,-287 623.95,-281 623.95,-275 623.95,-275 623.95,-263 623.95,-263 623.95,-257 629.95,-251 635.95,-251 635.95,-251 676.99,-251 676.99,-251 682.99,-251 688.99,-257 688.99,-263 688.99,-263 688.99,-275 688.99,-275 688.99,-281 682.99,-287 676.99,-287"/>
<text xml:space="preserve" text-anchor="middle" x="656.47" y="-264.32" font-family="Verdana" font-size="14.00">Wrapf</text>
</a>
</g>
</g>
<!-- github.com/guild&#45;framework/guild&#45;core/pkg/project/local.InitializeLocal&#45;&gt;github.com/guild&#45;framework/guild&#45;core/pkg/gerror.Wrapf -->
<g id="edge14" class="edge">
<title>github.com/guild&#45;framework/guild&#45;core/pkg/project/local.InitializeLocal&#45;&gt;github.com/guild&#45;framework/guild&#45;core/pkg/gerror.Wrapf</title>
<g id="a_edge14"><a xlink:title="at local.go:59: calling [github.com/guild&#45;framework/guild&#45;core/pkg/gerror.Wrapf]">
<path fill="none" stroke="saddlebrown" d="M435.97,-537.21C447.31,-532.9 458.42,-527.01 467.33,-519 496.75,-492.53 492.09,-475.64 504.33,-438 523.68,-378.48 489.12,-345.27 532.33,-300 552.69,-278.68 585.37,-271.17 611.96,-268.87"/>
<polygon fill="saddlebrown" stroke="saddlebrown" points="612.02,-272.37 621.79,-268.25 611.59,-265.38 612.02,-272.37"/>
</a>
</g>
</g>
<!-- github.com/guild&#45;framework/guild&#45;core/pkg/project/local.LocalToolsPath -->
<g id="node13" class="node">
<title>github.com/guild&#45;framework/guild&#45;core/pkg/project/local.LocalToolsPath</title>
<g id="a_node13"><a xlink:title="github.com/guild&#45;framework/guild&#45;core/pkg/project/local.LocalToolsPath | defined in local.go:197&#10;at local.go:198: calling [github.com/guild&#45;framework/guild&#45;core/pkg/project/local.LocalGuildDir]">
<path fill="lightblue" stroke="black" stroke-width="1.5" d="M426.83,-506C426.83,-506 326.54,-506 326.54,-506 320.54,-506 314.54,-500 314.54,-494 314.54,-494 314.54,-482 314.54,-482 314.54,-476 320.54,-470 326.54,-470 326.54,-470 426.83,-470 426.83,-470 432.83,-470 438.83,-476 438.83,-482 438.83,-482 438.83,-494 438.83,-494 438.83,-500 432.83,-506 426.83,-506"/>
<text xml:space="preserve" text-anchor="middle" x="376.68" y="-483.32" font-family="Verdana" font-size="14.00">LocalToolsPath</text>
</a>
</g>
</g>
<!-- github.com/guild&#45;framework/guild&#45;core/pkg/project/local.LocalToolsPath&#45;&gt;github.com/guild&#45;framework/guild&#45;core/pkg/project/local.LocalGuildDir -->
<g id="edge11" class="edge">
<title>github.com/guild&#45;framework/guild&#45;core/pkg/project/local.LocalToolsPath&#45;&gt;github.com/guild&#45;framework/guild&#45;core/pkg/project/local.LocalGuildDir</title>
<g id="a_edge11"><a xlink:title="at local.go:198: calling [github.com/guild&#45;framework/guild&#45;core/pkg/project/local.LocalGuildDir]">
<path fill="none" stroke="black" d="M439.19,-470.43C449.51,-465.41 459.42,-459.04 467.33,-451 498.82,-418.99 492.57,-400.33 504.33,-357 525.43,-279.29 478.05,-237.48 532.33,-178 546.44,-162.54 567.01,-154.28 587.32,-150.01"/>
<polygon fill="black" stroke="black" points="587.8,-153.48 597.04,-148.3 586.58,-146.59 587.8,-153.48"/>
</a>
</g>
</g>
</g>
</svg>
