<?xml version="1.0" encoding="UTF-8" standalone="no"?>
<!DOCTYPE svg PUBLIC "-//W3C//DTD SVG 1.1//EN"
 "http://www.w3.org/Graphics/SVG/1.1/DTD/svg11.dtd">
<!-- Generated by graphviz version 14.1.1 (20251213.1925)
 -->
<!-- Title: gocallvis Pages: 1 -->
<svg width="485pt" height="202pt"
 viewBox="0.00 0.00 485.00 202.00" xmlns="http://www.w3.org/2000/svg" xmlns:xlink="http://www.w3.org/1999/xlink">
<g id="graph0" class="graph" transform="scale(1 1) rotate(0) translate(0 202)">
<title>gocallvis</title>
<polygon fill="lightgray" stroke="none" points="0,0 0,-202 484.58,-202 484.58,0 0,0"/>
<g id="clust1" class="cluster">
<title>cluster_focus</title>
<polygon fill="#e6ecfa" stroke="black" stroke-width="0.5" points="8,-8 8,-194 476.58,-194 476.58,-8 8,-8"/>
<text xml:space="preserve" text-anchor="middle" x="242.29" y="-172.9" font-family="Arial" font-size="18.00">guildobj</text>
</g>
<g id="clust2" class="cluster">
<title>cluster_github.com/guild&#45;framework/guild&#45;core/pkg/commission</title>
<g id="a_clust2"><a xlink:href="/?f=github.com/guild-framework/guild-core/pkg/commission" xlink:title="package: github.com/guild&#45;framework/guild&#45;core/pkg/commission">
<polygon fill="lightyellow" stroke="black" stroke-width="0.8" points="248.79,-16 248.79,-157 468.58,-157 468.58,-16 248.79,-16"/>
<text xml:space="preserve" text-anchor="middle" x="358.68" y="-137.8" font-family="Tahoma bold" font-size="16.00">commission</text>
</a>
</g>
</g>
<!-- (*github.com/guild&#45;framework/guild&#45;core/pkg/commission/guildobj.GuildParser).Parse -->
<g id="node1" class="node">
<title>(*github.com/guild&#45;framework/guild&#45;core/pkg/commission/guildobj.GuildParser).Parse</title>
<g id="a_node1"><a xlink:title="(*github.com/guild&#45;framework/guild&#45;core/pkg/commission/guildobj.GuildParser).Parse | defined in parser.go:23&#10;at parser.go:25: calling [(*github.com/guild&#45;framework/guild&#45;core/pkg/commission.MarkdownParser).Parse]">
<path fill="lightblue" stroke="black" stroke-width="1.5" d="M171.79,-60C171.79,-60 28,-60 28,-60 22,-60 16,-54 16,-48 16,-48 16,-36 16,-36 16,-30 22,-24 28,-24 28,-24 171.79,-24 171.79,-24 177.79,-24 183.79,-30 183.79,-36 183.79,-36 183.79,-48 183.79,-48 183.79,-54 177.79,-60 171.79,-60"/>
<text xml:space="preserve" text-anchor="middle" x="99.89" y="-37.33" font-family="Verdana" font-size="14.00">(*GuildParser).Parse</text>
</a>
</g>
</g>
<!-- (*github.com/guild&#45;framework/guild&#45;core/pkg/commission.MarkdownParser).Parse -->
<g id="node3" class="node">
<title>(*github.com/guild&#45;framework/guild&#45;core/pkg/commission.MarkdownParser).Parse</title>
<g id="a_node3"><a xlink:title="(*github.com/guild&#45;framework/guild&#45;core/pkg/commission.MarkdownParser).Parse | defined in parser.go:68">
<path fill="moccasin" stroke="black" stroke-width="1.5" d="M448.58,-60C448.58,-60 268.79,-60 268.79,-60 262.79,-60 256.79,-54 256.79,-48 256.79,-48 256.79,-36 256.79,-36 256.79,-30 262.79,-24 268.79,-24 268.79,-24 448.58,-24 448.58,-24 454.58,-24 460.58,-30 460.58,-36 460.58,-36 460.58,-48 460.58,-48 460.58,-54 454.58,-60 448.58,-60"/>
<text xml:space="preserve" text-anchor="middle" x="358.68" y="-37.33" font-family="Verdana" font-size="14.00">(*MarkdownParser).Parse</text>
</a>
</g>
</g>
<!-- (*github.com/guild&#45;framework/guild&#45;core/pkg/commission/guildobj.GuildParser).Parse&#45;&gt;(*github.com/guild&#45;framework/guild&#45;core/pkg/commission.MarkdownParser).Parse -->
<g id="edge1" class="edge">
<title>(*github.com/guild&#45;framework/guild&#45;core/pkg/commission/guildobj.GuildParser).Parse&#45;&gt;(*github.com/guild&#45;framework/guild&#45;core/pkg/commission.MarkdownParser).Parse</title>
<g id="a_edge1"><a xlink:title="at parser.go:25: calling [(*github.com/guild&#45;framework/guild&#45;core/pkg/commission.MarkdownParser).Parse]">
<path fill="none" stroke="saddlebrown" d="M184.27,-42C203.67,-42 224.64,-42 245.07,-42"/>
<polygon fill="saddlebrown" stroke="saddlebrown" points="244.83,-45.5 254.83,-42 244.83,-38.5 244.83,-45.5"/>
</a>
</g>
</g>
<!-- github.com/guild&#45;framework/guild&#45;core/pkg/commission/guildobj.NewGuildParser -->
<g id="node2" class="node">
<title>github.com/guild&#45;framework/guild&#45;core/pkg/commission/guildobj.NewGuildParser</title>
<g id="a_node2"><a xlink:title="github.com/guild&#45;framework/guild&#45;core/pkg/commission/guildobj.NewGuildParser | defined in parser.go:16&#10;at parser.go:18: calling [github.com/guild&#45;framework/guild&#45;core/pkg/commission.NewMarkdownParser]">
<path fill="lightblue" stroke="black" stroke-width="1.5" d="M154.54,-121C154.54,-121 45.25,-121 45.25,-121 39.25,-121 33.25,-115 33.25,-109 33.25,-109 33.25,-97 33.25,-97 33.25,-91 39.25,-85 45.25,-85 45.25,-85 154.54,-85 154.54,-85 160.54,-85 166.54,-91 166.54,-97 166.54,-97 166.54,-109 166.54,-109 166.54,-115 160.54,-121 154.54,-121"/>
<text xml:space="preserve" text-anchor="middle" x="99.89" y="-98.33" font-family="Verdana" font-size="14.00">NewGuildParser</text>
</a>
</g>
</g>
<!-- github.com/guild&#45;framework/guild&#45;core/pkg/commission.NewMarkdownParser -->
<g id="node4" class="node">
<title>github.com/guild&#45;framework/guild&#45;core/pkg/commission.NewMarkdownParser</title>
<g id="a_node4"><a xlink:title="github.com/guild&#45;framework/guild&#45;core/pkg/commission.NewMarkdownParser | defined in parser.go:58">
<path fill="moccasin" stroke="black" stroke-width="1.5" d="M431.33,-121C431.33,-121 286.04,-121 286.04,-121 280.04,-121 274.04,-115 274.04,-109 274.04,-109 274.04,-97 274.04,-97 274.04,-91 280.04,-85 286.04,-85 286.04,-85 431.33,-85 431.33,-85 437.33,-85 443.33,-91 443.33,-97 443.33,-97 443.33,-109 443.33,-109 443.33,-115 437.33,-121 431.33,-121"/>
<text xml:space="preserve" text-anchor="middle" x="358.68" y="-98.33" font-family="Verdana" font-size="14.00">NewMarkdownParser</text>
</a>
</g>
</g>
<!-- github.com/guild&#45;framework/guild&#45;core/pkg/commission/guildobj.NewGuildParser&#45;&gt;github.com/guild&#45;framework/guild&#45;core/pkg/commission.NewMarkdownParser -->
<g id="edge2" class="edge">
<title>github.com/guild&#45;framework/guild&#45;core/pkg/commission/guildobj.NewGuildParser&#45;&gt;github.com/guild&#45;framework/guild&#45;core/pkg/commission.NewMarkdownParser</title>
<g id="a_edge2"><a xlink:title="at parser.go:18: calling [github.com/guild&#45;framework/guild&#45;core/pkg/commission.NewMarkdownParser]">
<path fill="none" stroke="saddlebrown" d="M167.02,-103C195.88,-103 230.26,-103 261.84,-103"/>
<polygon fill="saddlebrown" stroke="saddlebrown" points="261.82,-106.5 271.82,-103 261.82,-99.5 261.82,-106.5"/>
</a>
</g>
</g>
</g>
</svg>
