<?xml version="1.0" encoding="UTF-8" standalone="no"?>
<!DOCTYPE svg PUBLIC "-//W3C//DTD SVG 1.1//EN"
 "http://www.w3.org/Graphics/SVG/1.1/DTD/svg11.dtd">
<!-- Generated by graphviz version 14.1.1 (20251213.1925)
 -->
<!-- Title: gocallvis Pages: 1 -->
<svg width="1257pt" height="429pt"
 viewBox="0.00 0.00 1257.00 429.00" xmlns="http://www.w3.org/2000/svg" xmlns:xlink="http://www.w3.org/1999/xlink">
<g id="graph0" class="graph" transform="scale(1 1) rotate(0) translate(0 429)">
<title>gocallvis</title>
<polygon fill="lightgray" stroke="none" points="0,0 0,-429 1256.62,-429 1256.62,0 0,0"/>
<g id="clust1" class="cluster">
<title>cluster_focus</title>
<polygon fill="#e6ecfa" stroke="black" stroke-width="0.5" points="8,-8 8,-421 1248.62,-421 1248.62,-8 8,-8"/>
<text xml:space="preserve" text-anchor="middle" x="628.31" y="-399.9" font-family="Arial" font-size="18.00">base</text>
</g>
<g id="clust2" class="cluster">
<title>cluster_github.com/guild&#45;framework/guild&#45;core/pkg/gerror</title>
<g id="a_clust2"><a xlink:href="/?f=github.com/guild-framework/guild-core/pkg/gerror" xlink:title="package: github.com/guild&#45;framework/guild&#45;core/pkg/gerror">
<polygon fill="lightyellow" stroke="black" stroke-width="0.8" points="529.67,-16 529.67,-279 777.96,-279 777.96,-16 529.67,-16"/>
<text xml:space="preserve" text-anchor="middle" x="653.81" y="-259.8" font-family="Tahoma bold" font-size="16.00">gerror</text>
</a>
</g>
</g>
<!-- (*github.com/guild&#45;framework/guild&#45;core/pkg/providers/base.openAIStream).Next -->
<g id="node1" class="node">
<title>(*github.com/guild&#45;framework/guild&#45;core/pkg/providers/base.openAIStream).Next</title>
<g id="a_node1"><a xlink:title="(*github.com/guild&#45;framework/guild&#45;core/pkg/providers/base.openAIStream).Next | defined in openai_compatible.go:335&#10;at openai_compatible.go:366: calling [(*github.com/guild&#45;framework/guild&#45;core/pkg/gerror.GuildError).WithComponent]&#10;at openai_compatible.go:365: calling [github.com/guild&#45;framework/guild&#45;core/pkg/gerror.Wrap]&#10;at openai_compatible.go:367: calling [(*github.com/guild&#45;framework/guild&#45;core/pkg/gerror.GuildError).WithOperation]">
<path fill="lightblue" stroke="black" stroke-width="1.5" d="M277.54,-62C277.54,-62 118.75,-62 118.75,-62 112.75,-62 106.75,-56 106.75,-50 106.75,-50 106.75,-38 106.75,-38 106.75,-32 112.75,-26 118.75,-26 118.75,-26 277.54,-26 277.54,-26 283.54,-26 289.54,-32 289.54,-38 289.54,-38 289.54,-50 289.54,-50 289.54,-56 283.54,-62 277.54,-62"/>
<text xml:space="preserve" text-anchor="middle" x="198.14" y="-39.33" font-family="Verdana" font-size="14.00">(*openAIStream).Next</text>
</a>
</g>
</g>
<!-- github.com/guild&#45;framework/guild&#45;core/pkg/gerror.Wrap -->
<g id="node7" class="node">
<title>github.com/guild&#45;framework/guild&#45;core/pkg/gerror.Wrap</title>
<g id="a_node7"><a xlink:title="github.com/guild&#45;framework/guild&#45;core/pkg/gerror.Wrap | defined in errors.go:223">
<path fill="moccasin" stroke="black" stroke-width="1.5" d="M671.71,-182C671.71,-182 635.92,-182 635.92,-182 629.92,-182 623.92,-176 623.92,-170 623.92,-170 623.92,-158 623.92,-158 623.92,-152 629.92,-146 635.92,-146 635.92,-146 671.71,-146 671.71,-146 677.71,-146 683.71,-152 683.71,-158 683.71,-158 683.71,-170 683.71,-170 683.71,-176 677.71,-182 671.71,-182"/>
<text xml:space="preserve" text-anchor="middle" x="653.81" y="-159.32" font-family="Verdana" font-size="14.00">Wrap</text>
</a>
</g>
</g>
<!-- (*github.com/guild&#45;framework/guild&#45;core/pkg/providers/base.openAIStream).Next&#45;&gt;github.com/guild&#45;framework/guild&#45;core/pkg/gerror.Wrap -->
<g id="edge9" class="edge">
<title>(*github.com/guild&#45;framework/guild&#45;core/pkg/providers/base.openAIStream).Next&#45;&gt;github.com/guild&#45;framework/guild&#45;core/pkg/gerror.Wrap</title>
<g id="a_edge9"><a xlink:title="at openai_compatible.go:365: calling [github.com/guild&#45;framework/guild&#45;core/pkg/gerror.Wrap]">
<path fill="none" stroke="saddlebrown" d="M243.34,-62.57C293.43,-82.92 377.91,-115.17 453.29,-134 507.42,-147.52 571.43,-155.83 612.07,-160.18"/>
<polygon fill="saddlebrown" stroke="saddlebrown" points="611.58,-163.65 621.88,-161.2 612.3,-156.68 611.58,-163.65"/>
</a>
</g>
</g>
<!-- (*github.com/guild&#45;framework/guild&#45;core/pkg/gerror.GuildError).WithComponent -->
<g id="node8" class="node">
<title>(*github.com/guild&#45;framework/guild&#45;core/pkg/gerror.GuildError).WithComponent</title>
<g id="a_node8"><a xlink:title="(*github.com/guild&#45;framework/guild&#45;core/pkg/gerror.GuildError).WithComponent | defined in errors.go:156">
<path fill="moccasin" stroke="black" stroke-width="1.5" d="M757.96,-60C757.96,-60 549.67,-60 549.67,-60 543.67,-60 537.67,-54 537.67,-48 537.67,-48 537.67,-36 537.67,-36 537.67,-30 543.67,-24 549.67,-24 549.67,-24 757.96,-24 757.96,-24 763.96,-24 769.96,-30 769.96,-36 769.96,-36 769.96,-48 769.96,-48 769.96,-54 763.96,-60 757.96,-60"/>
<text xml:space="preserve" text-anchor="middle" x="653.81" y="-37.33" font-family="Verdana" font-size="14.00">(*GuildError).WithComponent</text>
</a>
</g>
</g>
<!-- (*github.com/guild&#45;framework/guild&#45;core/pkg/providers/base.openAIStream).Next&#45;&gt;(*github.com/guild&#45;framework/guild&#45;core/pkg/gerror.GuildError).WithComponent -->
<g id="edge5" class="edge">
<title>(*github.com/guild&#45;framework/guild&#45;core/pkg/providers/base.openAIStream).Next&#45;&gt;(*github.com/guild&#45;framework/guild&#45;core/pkg/gerror.GuildError).WithComponent</title>
<g id="a_edge5"><a xlink:title="at openai_compatible.go:366: calling [(*github.com/guild&#45;framework/guild&#45;core/pkg/gerror.GuildError).WithComponent]">
<path fill="none" stroke="saddlebrown" d="M290.25,-40.41C329.09,-39.05 374.9,-37.67 416.29,-37 451.77,-36.43 490.24,-36.81 525.65,-37.57"/>
<polygon fill="saddlebrown" stroke="saddlebrown" points="525.43,-41.07 535.51,-37.8 525.59,-34.07 525.43,-41.07"/>
</a>
</g>
</g>
<!-- (*github.com/guild&#45;framework/guild&#45;core/pkg/gerror.GuildError).WithOperation -->
<g id="node9" class="node">
<title>(*github.com/guild&#45;framework/guild&#45;core/pkg/gerror.GuildError).WithOperation</title>
<g id="a_node9"><a xlink:title="(*github.com/guild&#45;framework/guild&#45;core/pkg/gerror.GuildError).WithOperation | defined in errors.go:162">
<path fill="moccasin" stroke="black" stroke-width="1.5" d="M752.33,-121C752.33,-121 555.29,-121 555.29,-121 549.29,-121 543.29,-115 543.29,-109 543.29,-109 543.29,-97 543.29,-97 543.29,-91 549.29,-85 555.29,-85 555.29,-85 752.33,-85 752.33,-85 758.33,-85 764.33,-91 764.33,-97 764.33,-97 764.33,-109 764.33,-109 764.33,-115 758.33,-121 752.33,-121"/>
<text xml:space="preserve" text-anchor="middle" x="653.81" y="-98.33" font-family="Verdana" font-size="14.00">(*GuildError).WithOperation</text>
</a>
</g>
</g>
<!-- (*github.com/guild&#45;framework/guild&#45;core/pkg/providers/base.openAIStream).Next&#45;&gt;(*github.com/guild&#45;framework/guild&#45;core/pkg/gerror.GuildError).WithOperation -->
<g id="edge15" class="edge">
<title>(*github.com/guild&#45;framework/guild&#45;core/pkg/providers/base.openAIStream).Next&#45;&gt;(*github.com/guild&#45;framework/guild&#45;core/pkg/gerror.GuildError).WithOperation</title>
<g id="a_edge15"><a xlink:title="at openai_compatible.go:367: calling [(*github.com/guild&#45;framework/guild&#45;core/pkg/gerror.GuildError).WithOperation]">
<path fill="none" stroke="saddlebrown" d="M290.03,-49.2C329.34,-52.26 375.76,-56.95 417.29,-64 433.55,-66.76 437.12,-69.77 453.29,-73 478.54,-78.04 505.73,-82.66 531.68,-86.69"/>
<polygon fill="saddlebrown" stroke="saddlebrown" points="530.8,-90.09 541.22,-88.14 531.86,-83.17 530.8,-90.09"/>
</a>
</g>
</g>
<!-- (*github.com/guild&#45;framework/guild&#45;core/pkg/providers/base.OpenAICompatibleProvider).makeRequest -->
<g id="node2" class="node">
<title>(*github.com/guild&#45;framework/guild&#45;core/pkg/providers/base.OpenAICompatibleProvider).makeRequest</title>
<g id="a_node2"><a xlink:title="(*github.com/guild&#45;framework/guild&#45;core/pkg/providers/base.OpenAICompatibleProvider).makeRequest | defined in openai_compatible.go:250&#10;at openai_compatible.go:278: calling [(*github.com/guild&#45;framework/guild&#45;core/pkg/providers/base.OpenAICompatibleProvider).parseError]">
<path fill="lightblue" stroke="black" stroke-width="0.5" d="M808.96,-323C808.96,-323 498.67,-323 498.67,-323 492.67,-323 486.67,-317 486.67,-311 486.67,-311 486.67,-299 486.67,-299 486.67,-293 492.67,-287 498.67,-287 498.67,-287 808.96,-287 808.96,-287 814.96,-287 820.96,-293 820.96,-299 820.96,-299 820.96,-311 820.96,-311 820.96,-317 814.96,-323 808.96,-323"/>
<text xml:space="preserve" text-anchor="middle" x="653.81" y="-300.32" font-family="Verdana" font-size="14.00">(*OpenAICompatibleProvider).makeRequest</text>
</a>
</g>
</g>
<!-- (*github.com/guild&#45;framework/guild&#45;core/pkg/providers/base.OpenAICompatibleProvider).parseError -->
<g id="node3" class="node">
<title>(*github.com/guild&#45;framework/guild&#45;core/pkg/providers/base.OpenAICompatibleProvider).parseError</title>
<g id="a_node3"><a xlink:title="(*github.com/guild&#45;framework/guild&#45;core/pkg/providers/base.OpenAICompatibleProvider).parseError | defined in openai_compatible.go:285">
<path fill="lightblue" stroke="black" stroke-width="0.5" d="M1228.62,-344C1228.62,-344 939.33,-344 939.33,-344 933.33,-344 927.33,-338 927.33,-332 927.33,-332 927.33,-320 927.33,-320 927.33,-314 933.33,-308 939.33,-308 939.33,-308 1228.62,-308 1228.62,-308 1234.62,-308 1240.62,-314 1240.62,-320 1240.62,-320 1240.62,-332 1240.62,-332 1240.62,-338 1234.62,-344 1228.62,-344"/>
<text xml:space="preserve" text-anchor="middle" x="1083.98" y="-321.32" font-family="Verdana" font-size="14.00">(*OpenAICompatibleProvider).parseError</text>
</a>
</g>
</g>
<!-- (*github.com/guild&#45;framework/guild&#45;core/pkg/providers/base.OpenAICompatibleProvider).makeRequest&#45;&gt;(*github.com/guild&#45;framework/guild&#45;core/pkg/providers/base.OpenAICompatibleProvider).parseError -->
<g id="edge3" class="edge">
<title>(*github.com/guild&#45;framework/guild&#45;core/pkg/providers/base.OpenAICompatibleProvider).makeRequest&#45;&gt;(*github.com/guild&#45;framework/guild&#45;core/pkg/providers/base.OpenAICompatibleProvider).parseError</title>
<g id="a_edge3"><a xlink:title="at openai_compatible.go:278: calling [(*github.com/guild&#45;framework/guild&#45;core/pkg/providers/base.OpenAICompatibleProvider).parseError]">
<path fill="none" stroke="black" d="M820.96,-313.15C852.05,-314.67 884.56,-316.27 915.69,-317.8"/>
<polygon fill="black" stroke="black" points="915.41,-321.29 925.57,-318.28 915.76,-314.29 915.41,-321.29"/>
</a>
</g>
</g>
<!-- (*github.com/guild&#45;framework/guild&#45;core/pkg/providers/base.OpenAICompatibleProvider).CreateEmbedding -->
<g id="node4" class="node">
<title>(*github.com/guild&#45;framework/guild&#45;core/pkg/providers/base.OpenAICompatibleProvider).CreateEmbedding</title>
<g id="a_node4"><a xlink:title="(*github.com/guild&#45;framework/guild&#45;core/pkg/providers/base.OpenAICompatibleProvider).CreateEmbedding | defined in openai_compatible.go:193&#10;at openai_compatible.go:219: calling [github.com/guild&#45;framework/guild&#45;core/pkg/gerror.Wrap]&#10;at openai_compatible.go:221: calling [(*github.com/guild&#45;framework/guild&#45;core/pkg/gerror.GuildError).WithOperation]&#10;at openai_compatible.go:222: calling [(*github.com/guild&#45;framework/guild&#45;core/pkg/gerror.GuildError).WithDetails]&#10;at openai_compatible.go:200: calling [(*github.com/guild&#45;framework/guild&#45;core/pkg/providers/base.OpenAICompatibleProvider).makeRequest]&#10;at openai_compatible.go:220: calling [(*github.com/guild&#45;framework/guild&#45;core/pkg/gerror.GuildError).WithComponent]">
<path fill="lightblue" stroke="black" stroke-width="1.5" d="M368.29,-170C368.29,-170 28,-170 28,-170 22,-170 16,-164 16,-158 16,-158 16,-146 16,-146 16,-140 22,-134 28,-134 28,-134 368.29,-134 368.29,-134 374.29,-134 380.29,-140 380.29,-146 380.29,-146 380.29,-158 380.29,-158 380.29,-164 374.29,-170 368.29,-170"/>
<text xml:space="preserve" text-anchor="middle" x="198.14" y="-147.32" font-family="Verdana" font-size="14.00">(*OpenAICompatibleProvider).CreateEmbedding</text>
</a>
</g>
</g>
<!-- (*github.com/guild&#45;framework/guild&#45;core/pkg/providers/base.OpenAICompatibleProvider).CreateEmbedding&#45;&gt;(*github.com/guild&#45;framework/guild&#45;core/pkg/providers/base.OpenAICompatibleProvider).makeRequest -->
<g id="edge6" class="edge">
<title>(*github.com/guild&#45;framework/guild&#45;core/pkg/providers/base.OpenAICompatibleProvider).CreateEmbedding&#45;&gt;(*github.com/guild&#45;framework/guild&#45;core/pkg/providers/base.OpenAICompatibleProvider).makeRequest</title>
<g id="a_edge6"><a xlink:title="at openai_compatible.go:200: calling [(*github.com/guild&#45;framework/guild&#45;core/pkg/providers/base.OpenAICompatibleProvider).makeRequest]">
<path fill="none" stroke="black" d="M226.66,-170.52C271.8,-199.88 365.37,-256.49 453.29,-283 460.52,-285.18 467.95,-287.15 475.51,-288.93"/>
<polygon fill="black" stroke="black" points="474.65,-292.32 485.17,-291.07 476.17,-285.49 474.65,-292.32"/>
</a>
</g>
</g>
<!-- (*github.com/guild&#45;framework/guild&#45;core/pkg/providers/base.OpenAICompatibleProvider).CreateEmbedding&#45;&gt;github.com/guild&#45;framework/guild&#45;core/pkg/gerror.Wrap -->
<g id="edge1" class="edge">
<title>(*github.com/guild&#45;framework/guild&#45;core/pkg/providers/base.OpenAICompatibleProvider).CreateEmbedding&#45;&gt;github.com/guild&#45;framework/guild&#45;core/pkg/gerror.Wrap</title>
<g id="a_edge1"><a xlink:title="at openai_compatible.go:219: calling [github.com/guild&#45;framework/guild&#45;core/pkg/gerror.Wrap]">
<path fill="none" stroke="saddlebrown" d="M380.73,-156.8C465.85,-159.05 559.84,-161.54 612.07,-162.92"/>
<polygon fill="saddlebrown" stroke="saddlebrown" points="611.89,-166.42 621.97,-163.18 612.07,-159.42 611.89,-166.42"/>
</a>
</g>
</g>
<!-- (*github.com/guild&#45;framework/guild&#45;core/pkg/providers/base.OpenAICompatibleProvider).CreateEmbedding&#45;&gt;(*github.com/guild&#45;framework/guild&#45;core/pkg/gerror.GuildError).WithComponent -->
<g id="edge7" class="edge">
<title>(*github.com/guild&#45;framework/guild&#45;core/pkg/providers/base.OpenAICompatibleProvider).CreateEmbedding&#45;&gt;(*github.com/guild&#45;framework/guild&#45;core/pkg/gerror.GuildError).WithComponent</title>
<g id="a_edge7"><a xlink:title="at openai_compatible.go:220: calling [(*github.com/guild&#45;framework/guild&#45;core/pkg/gerror.GuildError).WithComponent]">
<path fill="none" stroke="saddlebrown" d="M251.1,-133.38C302.03,-115.71 382.17,-89.48 453.29,-73 476.61,-67.59 501.69,-62.87 525.92,-58.84"/>
<polygon fill="saddlebrown" stroke="saddlebrown" points="526.19,-62.34 535.5,-57.28 525.07,-55.43 526.19,-62.34"/>
</a>
</g>
</g>
<!-- (*github.com/guild&#45;framework/guild&#45;core/pkg/providers/base.OpenAICompatibleProvider).CreateEmbedding&#45;&gt;(*github.com/guild&#45;framework/guild&#45;core/pkg/gerror.GuildError).WithOperation -->
<g id="edge2" class="edge">
<title>(*github.com/guild&#45;framework/guild&#45;core/pkg/providers/base.OpenAICompatibleProvider).CreateEmbedding&#45;&gt;(*github.com/guild&#45;framework/guild&#45;core/pkg/gerror.GuildError).WithOperation</title>
<g id="a_edge2"><a xlink:title="at openai_compatible.go:221: calling [(*github.com/guild&#45;framework/guild&#45;core/pkg/gerror.GuildError).WithOperation]">
<path fill="none" stroke="saddlebrown" d="M372.6,-133.27C425.62,-127.54 482.78,-121.37 531.55,-116.1"/>
<polygon fill="saddlebrown" stroke="saddlebrown" points="531.72,-119.6 541.28,-115.05 530.96,-112.64 531.72,-119.6"/>
</a>
</g>
</g>
<!-- (*github.com/guild&#45;framework/guild&#45;core/pkg/gerror.GuildError).WithDetails -->
<g id="node10" class="node">
<title>(*github.com/guild&#45;framework/guild&#45;core/pkg/gerror.GuildError).WithDetails</title>
<g id="a_node10"><a xlink:title="(*github.com/guild&#45;framework/guild&#45;core/pkg/gerror.GuildError).WithDetails | defined in errors.go:147">
<path fill="moccasin" stroke="black" stroke-width="1.5" d="M741.46,-243C741.46,-243 566.17,-243 566.17,-243 560.17,-243 554.17,-237 554.17,-231 554.17,-231 554.17,-219 554.17,-219 554.17,-213 560.17,-207 566.17,-207 566.17,-207 741.46,-207 741.46,-207 747.46,-207 753.46,-213 753.46,-219 753.46,-219 753.46,-231 753.46,-231 753.46,-237 747.46,-243 741.46,-243"/>
<text xml:space="preserve" text-anchor="middle" x="653.81" y="-220.32" font-family="Verdana" font-size="14.00">(*GuildError).WithDetails</text>
</a>
</g>
</g>
<!-- (*github.com/guild&#45;framework/guild&#45;core/pkg/providers/base.OpenAICompatibleProvider).CreateEmbedding&#45;&gt;(*github.com/guild&#45;framework/guild&#45;core/pkg/gerror.GuildError).WithDetails -->
<g id="edge4" class="edge">
<title>(*github.com/guild&#45;framework/guild&#45;core/pkg/providers/base.OpenAICompatibleProvider).CreateEmbedding&#45;&gt;(*github.com/guild&#45;framework/guild&#45;core/pkg/gerror.GuildError).WithDetails</title>
<g id="a_edge4"><a xlink:title="at openai_compatible.go:222: calling [(*github.com/guild&#45;framework/guild&#45;core/pkg/gerror.GuildError).WithDetails]">
<path fill="none" stroke="saddlebrown" d="M307.28,-170.75C352.39,-178.45 405.34,-187.34 453.29,-195 482.2,-199.62 513.49,-204.42 542.54,-208.79"/>
<polygon fill="saddlebrown" stroke="saddlebrown" points="541.65,-212.19 552.06,-210.22 542.69,-205.27 541.65,-212.19"/>
</a>
</g>
</g>
<!-- (*github.com/guild&#45;framework/guild&#45;core/pkg/providers/base.OpenAICompatibleProvider).StreamChatCompletion -->
<g id="node5" class="node">
<title>(*github.com/guild&#45;framework/guild&#45;core/pkg/providers/base.OpenAICompatibleProvider).StreamChatCompletion</title>
<g id="a_node5"><a xlink:title="(*github.com/guild&#45;framework/guild&#45;core/pkg/providers/base.OpenAICompatibleProvider).StreamChatCompletion | defined in openai_compatible.go:140&#10;at openai_compatible.go:182: calling [(*github.com/guild&#45;framework/guild&#45;core/pkg/providers/base.OpenAICompatibleProvider).parseError]">
<path fill="lightblue" stroke="black" stroke-width="1.5" d="M842.33,-384C842.33,-384 465.29,-384 465.29,-384 459.29,-384 453.29,-378 453.29,-372 453.29,-372 453.29,-360 453.29,-360 453.29,-354 459.29,-348 465.29,-348 465.29,-348 842.33,-348 842.33,-348 848.33,-348 854.33,-354 854.33,-360 854.33,-360 854.33,-372 854.33,-372 854.33,-378 848.33,-384 842.33,-384"/>
<text xml:space="preserve" text-anchor="middle" x="653.81" y="-361.32" font-family="Verdana" font-size="14.00">(*OpenAICompatibleProvider).StreamChatCompletion</text>
</a>
</g>
</g>
<!-- (*github.com/guild&#45;framework/guild&#45;core/pkg/providers/base.OpenAICompatibleProvider).StreamChatCompletion&#45;&gt;(*github.com/guild&#45;framework/guild&#45;core/pkg/providers/base.OpenAICompatibleProvider).parseError -->
<g id="edge10" class="edge">
<title>(*github.com/guild&#45;framework/guild&#45;core/pkg/providers/base.OpenAICompatibleProvider).StreamChatCompletion&#45;&gt;(*github.com/guild&#45;framework/guild&#45;core/pkg/providers/base.OpenAICompatibleProvider).parseError</title>
<g id="a_edge10"><a xlink:title="at openai_compatible.go:182: calling [(*github.com/guild&#45;framework/guild&#45;core/pkg/providers/base.OpenAICompatibleProvider).parseError]">
<path fill="none" stroke="black" d="M854.79,-347.32C875.19,-345.41 895.76,-343.49 915.75,-341.62"/>
<polygon fill="black" stroke="black" points="915.99,-345.12 925.62,-340.7 915.34,-338.15 915.99,-345.12"/>
</a>
</g>
</g>
<!-- (*github.com/guild&#45;framework/guild&#45;core/pkg/providers/base.OpenAICompatibleProvider).ChatCompletion -->
<g id="node6" class="node">
<title>(*github.com/guild&#45;framework/guild&#45;core/pkg/providers/base.OpenAICompatibleProvider).ChatCompletion</title>
<g id="a_node6"><a xlink:title="(*github.com/guild&#45;framework/guild&#45;core/pkg/providers/base.OpenAICompatibleProvider).ChatCompletion | defined in openai_compatible.go:50&#10;at openai_compatible.go:110: calling [(*github.com/guild&#45;framework/guild&#45;core/pkg/gerror.GuildError).WithOperation]&#10;at openai_compatible.go:83: calling [(*github.com/guild&#45;framework/guild&#45;core/pkg/providers/base.OpenAICompatibleProvider).makeRequest]&#10;at openai_compatible.go:108: calling [github.com/guild&#45;framework/guild&#45;core/pkg/gerror.Wrap]&#10;at openai_compatible.go:109: calling [(*github.com/guild&#45;framework/guild&#45;core/pkg/gerror.GuildError).WithComponent]&#10;at openai_compatible.go:111: calling [(*github.com/guild&#45;framework/guild&#45;core/pkg/gerror.GuildError).WithDetails]">
<path fill="lightblue" stroke="black" stroke-width="1.5" d="M361.16,-305C361.16,-305 35.13,-305 35.13,-305 29.12,-305 23.12,-299 23.12,-293 23.12,-293 23.12,-281 23.12,-281 23.12,-275 29.12,-269 35.12,-269 35.12,-269 361.16,-269 361.16,-269 367.16,-269 373.16,-275 373.16,-281 373.16,-281 373.16,-293 373.16,-293 373.16,-299 367.16,-305 361.16,-305"/>
<text xml:space="preserve" text-anchor="middle" x="198.14" y="-282.32" font-family="Verdana" font-size="14.00">(*OpenAICompatibleProvider).ChatCompletion</text>
</a>
</g>
</g>
<!-- (*github.com/guild&#45;framework/guild&#45;core/pkg/providers/base.OpenAICompatibleProvider).ChatCompletion&#45;&gt;(*github.com/guild&#45;framework/guild&#45;core/pkg/providers/base.OpenAICompatibleProvider).makeRequest -->
<g id="edge11" class="edge">
<title>(*github.com/guild&#45;framework/guild&#45;core/pkg/providers/base.OpenAICompatibleProvider).ChatCompletion&#45;&gt;(*github.com/guild&#45;framework/guild&#45;core/pkg/providers/base.OpenAICompatibleProvider).makeRequest</title>
<g id="a_edge11"><a xlink:title="at openai_compatible.go:83: calling [(*github.com/guild&#45;framework/guild&#45;core/pkg/providers/base.OpenAICompatibleProvider).makeRequest]">
<path fill="none" stroke="black" d="M297.67,-305.74C334.72,-311.91 377.3,-317.97 416.29,-321 435.42,-322.49 455.42,-322.9 475.34,-322.59"/>
<polygon fill="black" stroke="black" points="475.3,-326.09 485.21,-322.37 475.14,-319.09 475.3,-326.09"/>
</a>
</g>
</g>
<!-- (*github.com/guild&#45;framework/guild&#45;core/pkg/providers/base.OpenAICompatibleProvider).ChatCompletion&#45;&gt;github.com/guild&#45;framework/guild&#45;core/pkg/gerror.Wrap -->
<g id="edge12" class="edge">
<title>(*github.com/guild&#45;framework/guild&#45;core/pkg/providers/base.OpenAICompatibleProvider).ChatCompletion&#45;&gt;github.com/guild&#45;framework/guild&#45;core/pkg/gerror.Wrap</title>
<g id="a_edge12"><a xlink:title="at openai_compatible.go:108: calling [github.com/guild&#45;framework/guild&#45;core/pkg/gerror.Wrap]">
<path fill="none" stroke="saddlebrown" d="M373.68,-287.41C389.19,-282.68 404.02,-276.06 417.29,-267 446.83,-246.82 424.39,-216.1 453.29,-195 499.71,-161.11 568.52,-157.91 611.99,-160"/>
<polygon fill="saddlebrown" stroke="saddlebrown" points="611.57,-163.48 621.76,-160.59 611.99,-156.49 611.57,-163.48"/>
</a>
</g>
</g>
<!-- (*github.com/guild&#45;framework/guild&#45;core/pkg/providers/base.OpenAICompatibleProvider).ChatCompletion&#45;&gt;(*github.com/guild&#45;framework/guild&#45;core/pkg/gerror.GuildError).WithComponent -->
<g id="edge13" class="edge">
<title>(*github.com/guild&#45;framework/guild&#45;core/pkg/providers/base.OpenAICompatibleProvider).ChatCompletion&#45;&gt;(*github.com/guild&#45;framework/guild&#45;core/pkg/gerror.GuildError).WithComponent</title>
<g id="a_edge13"><a xlink:title="at openai_compatible.go:109: calling [(*github.com/guild&#45;framework/guild&#45;core/pkg/gerror.GuildError).WithComponent]">
<path fill="none" stroke="saddlebrown" d="M244.25,-268.29C283.38,-250.49 339.94,-220.82 380.29,-183 423.1,-142.87 403.88,-104.64 453.29,-73 474.83,-59.21 500.29,-50.76 525.7,-45.73"/>
<polygon fill="saddlebrown" stroke="saddlebrown" points="526.24,-49.19 535.47,-43.98 525.01,-42.3 526.24,-49.19"/>
</a>
</g>
</g>
<!-- (*github.com/guild&#45;framework/guild&#45;core/pkg/providers/base.OpenAICompatibleProvider).ChatCompletion&#45;&gt;(*github.com/guild&#45;framework/guild&#45;core/pkg/gerror.GuildError).WithOperation -->
<g id="edge8" class="edge">
<title>(*github.com/guild&#45;framework/guild&#45;core/pkg/providers/base.OpenAICompatibleProvider).ChatCompletion&#45;&gt;(*github.com/guild&#45;framework/guild&#45;core/pkg/gerror.GuildError).WithOperation</title>
<g id="a_edge8"><a xlink:title="at openai_compatible.go:110: calling [(*github.com/guild&#45;framework/guild&#45;core/pkg/gerror.GuildError).WithOperation]">
<path fill="none" stroke="saddlebrown" d="M371.02,-268.28C387.91,-261.26 403.77,-252.05 417.29,-240 454.44,-206.9 415.2,-166.01 453.29,-134 475.15,-115.64 503.29,-105.82 531.51,-100.97"/>
<polygon fill="saddlebrown" stroke="saddlebrown" points="531.86,-104.45 541.24,-99.51 530.83,-97.53 531.86,-104.45"/>
</a>
</g>
</g>
<!-- (*github.com/guild&#45;framework/guild&#45;core/pkg/providers/base.OpenAICompatibleProvider).ChatCompletion&#45;&gt;(*github.com/guild&#45;framework/guild&#45;core/pkg/gerror.GuildError).WithDetails -->
<g id="edge14" class="edge">
<title>(*github.com/guild&#45;framework/guild&#45;core/pkg/providers/base.OpenAICompatibleProvider).ChatCompletion&#45;&gt;(*github.com/guild&#45;framework/guild&#45;core/pkg/gerror.GuildError).WithDetails</title>
<g id="a_edge14"><a xlink:title="at openai_compatible.go:111: calling [(*github.com/guild&#45;framework/guild&#45;core/pkg/gerror.GuildError).WithDetails]">
<path fill="none" stroke="saddlebrown" d="M373.65,-293.12C388.07,-293.47 402.43,-293.78 416.29,-294 442.87,-294.43 430.13,-260.06 453.29,-247 480.05,-231.91 512.05,-224.6 542.5,-221.51"/>
<polygon fill="saddlebrown" stroke="saddlebrown" points="542.46,-225.02 552.13,-220.68 541.86,-218.05 542.46,-225.02"/>
</a>
</g>
</g>
</g>
</svg>
