<?xml version="1.0" encoding="UTF-8" standalone="no"?>
<!DOCTYPE svg PUBLIC "-//W3C//DTD SVG 1.1//EN"
 "http://www.w3.org/Graphics/SVG/1.1/DTD/svg11.dtd">
<!-- Generated by graphviz version 14.1.1 (20251213.1925)
 -->
<!-- Title: gocallvis Pages: 1 -->
<svg width="2236pt" height="316pt"
 viewBox="0.00 0.00 2236.00 316.00" xmlns="http://www.w3.org/2000/svg" xmlns:xlink="http://www.w3.org/1999/xlink">
<g id="graph0" class="graph" transform="scale(1 1) rotate(0) translate(0 316)">
<title>gocallvis</title>
<polygon fill="lightgray" stroke="none" points="0,0 0,-316 2236.28,-316 2236.28,0 0,0"/>
<g id="clust1" class="cluster">
<title>cluster_focus</title>
<polygon fill="#e6ecfa" stroke="black" stroke-width="0.5" points="8,-8 8,-308 2228.28,-308 2228.28,-8 8,-8"/>
<text xml:space="preserve" text-anchor="middle" x="1118.14" y="-286.9" font-family="Arial" font-size="18.00">testing</text>
</g>
<g id="clust2" class="cluster">
<title>cluster_github.com/guild&#45;framework/guild&#45;core/pkg/events</title>
<g id="a_clust2"><a xlink:href="/?f=github.com/guild-framework/guild-core/pkg/events" xlink:title="package: github.com/guild&#45;framework/guild&#45;core/pkg/events">
<polygon fill="lightyellow" stroke="black" stroke-width="0.8" points="2050.11,-69 2050.11,-271 2211.4,-271 2211.4,-69 2050.11,-69"/>
<text xml:space="preserve" text-anchor="middle" x="2130.76" y="-251.8" font-family="Tahoma bold" font-size="16.00">events</text>
</a>
</g>
</g>
<g id="clust3" class="cluster">
<title>cluster_github.com/guild&#45;framework/guild&#45;core/pkg/gerror</title>
<g id="a_clust3"><a xlink:href="/?f=github.com/guild-framework/guild-core/pkg/gerror" xlink:title="package: github.com/guild&#45;framework/guild&#45;core/pkg/gerror">
<polygon fill="lightyellow" stroke="black" stroke-width="0.8" points="378.06,-69 378.06,-149 448.06,-149 448.06,-69 378.06,-69"/>
<text xml:space="preserve" text-anchor="middle" x="413.06" y="-129.8" font-family="Tahoma bold" font-size="16.00">gerror</text>
</a>
</g>
</g>
<!-- (*github.com/guild&#45;framework/guild&#45;core/pkg/eventbus/testing.EventSimulator).createRandomEvent -->
<g id="node1" class="node">
<title>(*github.com/guild&#45;framework/guild&#45;core/pkg/eventbus/testing.EventSimulator).createRandomEvent</title>
<g id="a_node1"><a xlink:title="(*github.com/guild&#45;framework/guild&#45;core/pkg/eventbus/testing.EventSimulator).createRandomEvent | defined in simulator.go:168&#10;at simulator.go:180: calling [github.com/guild&#45;framework/guild&#45;core/pkg/events.NewTaskEvent]&#10;at simulator.go:193: calling [github.com/guild&#45;framework/guild&#45;core/pkg/events.NewSystemEvent]&#10;at simulator.go:187: calling [github.com/guild&#45;framework/guild&#45;core/pkg/events.NewAgentEvent]&#10;at simulator.go:178: calling [github.com/guild&#45;framework/guild&#45;core/pkg/eventbus/testing.getRandomTaskStatus]">
<path fill="lightblue" stroke="black" stroke-width="0.5" d="M1956.24,-116C1956.24,-116 1682.7,-116 1682.7,-116 1676.7,-116 1670.7,-110 1670.7,-104 1670.7,-104 1670.7,-92 1670.7,-92 1670.7,-86 1676.7,-80 1682.7,-80 1682.7,-80 1956.24,-80 1956.24,-80 1962.24,-80 1968.24,-86 1968.24,-92 1968.24,-92 1968.24,-104 1968.24,-104 1968.24,-110 1962.24,-116 1956.24,-116"/>
<text xml:space="preserve" text-anchor="middle" x="1819.47" y="-93.33" font-family="Verdana" font-size="14.00">(*EventSimulator).createRandomEvent</text>
</a>
</g>
</g>
<!-- github.com/guild&#45;framework/guild&#45;core/pkg/eventbus/testing.getRandomTaskStatus -->
<g id="node2" class="node">
<title>github.com/guild&#45;framework/guild&#45;core/pkg/eventbus/testing.getRandomTaskStatus</title>
<g id="a_node2"><a xlink:title="github.com/guild&#45;framework/guild&#45;core/pkg/eventbus/testing.getRandomTaskStatus | defined in simulator.go:198">
<path fill="lightblue" stroke="black" stroke-width="0.5" d="M2208.28,-52C2208.28,-52 2053.24,-52 2053.24,-52 2047.24,-52 2041.24,-46 2041.24,-40 2041.24,-40 2041.24,-28 2041.24,-28 2041.24,-22 2047.24,-16 2053.24,-16 2053.24,-16 2208.28,-16 2208.28,-16 2214.28,-16 2220.28,-22 2220.28,-28 2220.28,-28 2220.28,-40 2220.28,-40 2220.28,-46 2214.28,-52 2208.28,-52"/>
<text xml:space="preserve" text-anchor="middle" x="2130.76" y="-29.32" font-family="Verdana" font-size="14.00">getRandomTaskStatus</text>
</a>
</g>
</g>
<!-- (*github.com/guild&#45;framework/guild&#45;core/pkg/eventbus/testing.EventSimulator).createRandomEvent&#45;&gt;github.com/guild&#45;framework/guild&#45;core/pkg/eventbus/testing.getRandomTaskStatus -->
<g id="edge14" class="edge">
<title>(*github.com/guild&#45;framework/guild&#45;core/pkg/eventbus/testing.EventSimulator).createRandomEvent&#45;&gt;github.com/guild&#45;framework/guild&#45;core/pkg/eventbus/testing.getRandomTaskStatus</title>
<g id="a_edge14"><a xlink:title="at simulator.go:178: calling [github.com/guild&#45;framework/guild&#45;core/pkg/eventbus/testing.getRandomTaskStatus]">
<path fill="none" stroke="black" d="M1908.27,-79.83C1946.39,-71.94 1991.22,-62.67 2030.54,-54.53"/>
<polygon fill="black" stroke="black" points="2031.17,-57.97 2040.26,-52.52 2029.75,-51.12 2031.17,-57.97"/>
</a>
</g>
</g>
<!-- github.com/guild&#45;framework/guild&#45;core/pkg/events.NewTaskEvent -->
<g id="node12" class="node">
<title>github.com/guild&#45;framework/guild&#45;core/pkg/events.NewTaskEvent</title>
<g id="a_node12"><a xlink:title="github.com/guild&#45;framework/guild&#45;core/pkg/events.NewTaskEvent | defined in specialized.go:22">
<path fill="moccasin" stroke="black" stroke-width="1.5" d="M2180.53,-174C2180.53,-174 2080.99,-174 2080.99,-174 2074.99,-174 2068.99,-168 2068.99,-162 2068.99,-162 2068.99,-150 2068.99,-150 2068.99,-144 2074.99,-138 2080.99,-138 2080.99,-138 2180.53,-138 2180.53,-138 2186.53,-138 2192.53,-144 2192.53,-150 2192.53,-150 2192.53,-162 2192.53,-162 2192.53,-168 2186.53,-174 2180.53,-174"/>
<text xml:space="preserve" text-anchor="middle" x="2130.76" y="-151.32" font-family="Verdana" font-size="14.00">NewTaskEvent</text>
</a>
</g>
</g>
<!-- (*github.com/guild&#45;framework/guild&#45;core/pkg/eventbus/testing.EventSimulator).createRandomEvent&#45;&gt;github.com/guild&#45;framework/guild&#45;core/pkg/events.NewTaskEvent -->
<g id="edge5" class="edge">
<title>(*github.com/guild&#45;framework/guild&#45;core/pkg/eventbus/testing.EventSimulator).createRandomEvent&#45;&gt;github.com/guild&#45;framework/guild&#45;core/pkg/events.NewTaskEvent</title>
<g id="a_edge5"><a xlink:title="at simulator.go:180: calling [github.com/guild&#45;framework/guild&#45;core/pkg/events.NewTaskEvent]">
<path fill="none" stroke="saddlebrown" d="M1917.48,-116.19C1962.76,-124.68 2015.73,-134.62 2057.42,-142.44"/>
<polygon fill="saddlebrown" stroke="saddlebrown" points="2056.63,-145.85 2067.11,-144.25 2057.92,-138.97 2056.63,-145.85"/>
</a>
</g>
</g>
<!-- github.com/guild&#45;framework/guild&#45;core/pkg/events.NewAgentEvent -->
<g id="node13" class="node">
<title>github.com/guild&#45;framework/guild&#45;core/pkg/events.NewAgentEvent</title>
<g id="a_node13"><a xlink:title="github.com/guild&#45;framework/guild&#45;core/pkg/events.NewAgentEvent | defined in specialized.go:59">
<path fill="moccasin" stroke="black" stroke-width="1.5" d="M2185.78,-235C2185.78,-235 2075.74,-235 2075.74,-235 2069.74,-235 2063.74,-229 2063.74,-223 2063.74,-223 2063.74,-211 2063.74,-211 2063.74,-205 2069.74,-199 2075.74,-199 2075.74,-199 2185.78,-199 2185.78,-199 2191.78,-199 2197.78,-205 2197.78,-211 2197.78,-211 2197.78,-223 2197.78,-223 2197.78,-229 2191.78,-235 2185.78,-235"/>
<text xml:space="preserve" text-anchor="middle" x="2130.76" y="-212.32" font-family="Verdana" font-size="14.00">NewAgentEvent</text>
</a>
</g>
</g>
<!-- (*github.com/guild&#45;framework/guild&#45;core/pkg/eventbus/testing.EventSimulator).createRandomEvent&#45;&gt;github.com/guild&#45;framework/guild&#45;core/pkg/events.NewAgentEvent -->
<g id="edge10" class="edge">
<title>(*github.com/guild&#45;framework/guild&#45;core/pkg/eventbus/testing.EventSimulator).createRandomEvent&#45;&gt;github.com/guild&#45;framework/guild&#45;core/pkg/events.NewAgentEvent</title>
<g id="a_edge10"><a xlink:title="at simulator.go:187: calling [github.com/guild&#45;framework/guild&#45;core/pkg/events.NewAgentEvent]">
<path fill="none" stroke="saddlebrown" d="M1863.34,-116.12C1907.62,-134.64 1978.85,-163.87 2041.24,-187 2048.01,-189.51 2055.1,-192.05 2062.19,-194.54"/>
<polygon fill="saddlebrown" stroke="saddlebrown" points="2060.9,-197.8 2071.5,-197.77 2063.2,-191.19 2060.9,-197.8"/>
</a>
</g>
</g>
<!-- github.com/guild&#45;framework/guild&#45;core/pkg/events.NewSystemEvent -->
<g id="node14" class="node">
<title>github.com/guild&#45;framework/guild&#45;core/pkg/events.NewSystemEvent</title>
<g id="a_node14"><a xlink:title="github.com/guild&#45;framework/guild&#45;core/pkg/events.NewSystemEvent | defined in specialized.go:95">
<path fill="moccasin" stroke="black" stroke-width="1.5" d="M2191.4,-113C2191.4,-113 2070.11,-113 2070.11,-113 2064.11,-113 2058.11,-107 2058.11,-101 2058.11,-101 2058.11,-89 2058.11,-89 2058.11,-83 2064.11,-77 2070.11,-77 2070.11,-77 2191.4,-77 2191.4,-77 2197.4,-77 2203.4,-83 2203.4,-89 2203.4,-89 2203.4,-101 2203.4,-101 2203.4,-107 2197.4,-113 2191.4,-113"/>
<text xml:space="preserve" text-anchor="middle" x="2130.76" y="-90.33" font-family="Verdana" font-size="14.00">NewSystemEvent</text>
</a>
</g>
</g>
<!-- (*github.com/guild&#45;framework/guild&#45;core/pkg/eventbus/testing.EventSimulator).createRandomEvent&#45;&gt;github.com/guild&#45;framework/guild&#45;core/pkg/events.NewSystemEvent -->
<g id="edge6" class="edge">
<title>(*github.com/guild&#45;framework/guild&#45;core/pkg/eventbus/testing.EventSimulator).createRandomEvent&#45;&gt;github.com/guild&#45;framework/guild&#45;core/pkg/events.NewSystemEvent</title>
<g id="a_edge6"><a xlink:title="at simulator.go:193: calling [github.com/guild&#45;framework/guild&#45;core/pkg/events.NewSystemEvent]">
<path fill="none" stroke="saddlebrown" d="M1968.32,-96.57C1995.14,-96.31 2022.22,-96.04 2046.35,-95.81"/>
<polygon fill="saddlebrown" stroke="saddlebrown" points="2046.1,-99.31 2056.07,-95.71 2046.03,-92.31 2046.1,-99.31"/>
</a>
</g>
</g>
<!-- (*github.com/guild&#45;framework/guild&#45;core/pkg/eventbus/testing.EventSimulator).generateSingleEvent -->
<g id="node3" class="node">
<title>(*github.com/guild&#45;framework/guild&#45;core/pkg/eventbus/testing.EventSimulator).generateSingleEvent</title>
<g id="a_node3"><a xlink:title="(*github.com/guild&#45;framework/guild&#45;core/pkg/eventbus/testing.EventSimulator).generateSingleEvent | defined in simulator.go:142&#10;at simulator.go:143: calling [(*github.com/guild&#45;framework/guild&#45;core/pkg/eventbus/testing.EventSimulator).createRandomEvent]">
<path fill="lightblue" stroke="black" stroke-width="0.5" d="M1585.7,-96C1585.7,-96 1307.66,-96 1307.66,-96 1301.66,-96 1295.66,-90 1295.66,-84 1295.66,-84 1295.66,-72 1295.66,-72 1295.66,-66 1301.66,-60 1307.66,-60 1307.66,-60 1585.7,-60 1585.7,-60 1591.7,-60 1597.7,-66 1597.7,-72 1597.7,-72 1597.7,-84 1597.7,-84 1597.7,-90 1591.7,-96 1585.7,-96"/>
<text xml:space="preserve" text-anchor="middle" x="1446.68" y="-73.33" font-family="Verdana" font-size="14.00">(*EventSimulator).generateSingleEvent</text>
</a>
</g>
</g>
<!-- (*github.com/guild&#45;framework/guild&#45;core/pkg/eventbus/testing.EventSimulator).generateSingleEvent&#45;&gt;(*github.com/guild&#45;framework/guild&#45;core/pkg/eventbus/testing.EventSimulator).createRandomEvent -->
<g id="edge11" class="edge">
<title>(*github.com/guild&#45;framework/guild&#45;core/pkg/eventbus/testing.EventSimulator).generateSingleEvent&#45;&gt;(*github.com/guild&#45;framework/guild&#45;core/pkg/eventbus/testing.EventSimulator).createRandomEvent</title>
<g id="a_edge11"><a xlink:title="at simulator.go:143: calling [(*github.com/guild&#45;framework/guild&#45;core/pkg/eventbus/testing.EventSimulator).createRandomEvent]">
<path fill="none" stroke="black" d="M1597.69,-86.09C1617.95,-87.18 1638.78,-88.31 1659.19,-89.41"/>
<polygon fill="black" stroke="black" points="1658.79,-92.89 1668.97,-89.94 1659.17,-85.9 1658.79,-92.89"/>
</a>
</g>
</g>
<!-- (*github.com/guild&#45;framework/guild&#45;core/pkg/eventbus/testing.EventSimulator).generateBurst$1 -->
<g id="node4" class="node">
<title>(*github.com/guild&#45;framework/guild&#45;core/pkg/eventbus/testing.EventSimulator).generateBurst$1</title>
<g id="a_node4"><a xlink:title="(*github.com/guild&#45;framework/guild&#45;core/pkg/eventbus/testing.EventSimulator).generateBurst$1 | defined in simulator.go:158&#10;at simulator.go:160: calling [(*github.com/guild&#45;framework/guild&#45;core/pkg/eventbus/testing.EventSimulator).generateSingleEvent]">
<polygon fill="lightblue" stroke="black" stroke-dasharray="1,5" points="1222.66,-96 948.37,-96 948.37,-60 1222.66,-60 1222.66,-96"/>
<text xml:space="preserve" text-anchor="middle" x="1085.51" y="-73.33" font-family="Verdana" font-size="14.00">(*EventSimulator).generateBurst$1</text>
</a>
</g>
</g>
<!-- (*github.com/guild&#45;framework/guild&#45;core/pkg/eventbus/testing.EventSimulator).generateBurst$1&#45;&gt;(*github.com/guild&#45;framework/guild&#45;core/pkg/eventbus/testing.EventSimulator).generateSingleEvent -->
<g id="edge12" class="edge">
<title>(*github.com/guild&#45;framework/guild&#45;core/pkg/eventbus/testing.EventSimulator).generateBurst$1&#45;&gt;(*github.com/guild&#45;framework/guild&#45;core/pkg/eventbus/testing.EventSimulator).generateSingleEvent</title>
<g id="a_edge12"><a xlink:title="at simulator.go:160: calling [(*github.com/guild&#45;framework/guild&#45;core/pkg/eventbus/testing.EventSimulator).generateSingleEvent]">
<path fill="none" stroke="black" d="M1223.07,-78C1243.07,-78 1263.82,-78 1284.26,-78"/>
<polygon fill="black" stroke="black" points="1284.06,-81.5 1294.06,-78 1284.06,-74.5 1284.06,-81.5"/>
</a>
</g>
</g>
<!-- (*github.com/guild&#45;framework/guild&#45;core/pkg/eventbus/testing.EventSimulator).generateBurst -->
<g id="node5" class="node">
<title>(*github.com/guild&#45;framework/guild&#45;core/pkg/eventbus/testing.EventSimulator).generateBurst</title>
<g id="a_node5"><a xlink:title="(*github.com/guild&#45;framework/guild&#45;core/pkg/eventbus/testing.EventSimulator).generateBurst | defined in simulator.go:153&#10;at simulator.go:158: calling [(*github.com/guild&#45;framework/guild&#45;core/pkg/eventbus/testing.EventSimulator).generateBurst$1]">
<path fill="lightblue" stroke="black" stroke-width="0.5" d="M863.37,-96C863.37,-96 631.08,-96 631.08,-96 625.08,-96 619.08,-90 619.08,-84 619.08,-84 619.08,-72 619.08,-72 619.08,-66 625.08,-60 631.08,-60 631.08,-60 863.37,-60 863.37,-60 869.37,-60 875.37,-66 875.37,-72 875.37,-72 875.37,-84 875.37,-84 875.37,-90 869.37,-96 863.37,-96"/>
<text xml:space="preserve" text-anchor="middle" x="747.22" y="-73.33" font-family="Verdana" font-size="14.00">(*EventSimulator).generateBurst</text>
</a>
</g>
</g>
<!-- (*github.com/guild&#45;framework/guild&#45;core/pkg/eventbus/testing.EventSimulator).generateBurst&#45;&gt;(*github.com/guild&#45;framework/guild&#45;core/pkg/eventbus/testing.EventSimulator).generateBurst$1 -->
<g id="edge7" class="edge">
<title>(*github.com/guild&#45;framework/guild&#45;core/pkg/eventbus/testing.EventSimulator).generateBurst&#45;&gt;(*github.com/guild&#45;framework/guild&#45;core/pkg/eventbus/testing.EventSimulator).generateBurst$1</title>
<g id="a_edge7"><a xlink:title="at simulator.go:158: calling [(*github.com/guild&#45;framework/guild&#45;core/pkg/eventbus/testing.EventSimulator).generateBurst$1]">
<path fill="none" stroke="black" d="M875.36,-78C890.83,-78 906.8,-78 922.68,-78"/>
<polygon fill="black" stroke="black" points="936.42,-81.5 946.42,-78 936.42,-74.5 936.42,-81.5"/>
<polyline fill="none" stroke="black" points="935.92,-78 930.92,-78"/>
<ellipse fill="none" stroke="black" cx="926.42" cy="-78" rx="4" ry="4"/>
</a>
</g>
</g>
<!-- (*github.com/guild&#45;framework/guild&#45;core/pkg/eventbus/testing.EventSimulator).Start -->
<g id="node6" class="node">
<title>(*github.com/guild&#45;framework/guild&#45;core/pkg/eventbus/testing.EventSimulator).Start</title>
<g id="a_node6"><a xlink:title="(*github.com/guild&#45;framework/guild&#45;core/pkg/eventbus/testing.EventSimulator).Start | defined in simulator.go:91&#10;at simulator.go:97: calling [(*github.com/guild&#45;framework/guild&#45;core/pkg/eventbus/testing.EventSimulator).generateEvents]&#10;at simulator.go:93: calling [github.com/guild&#45;framework/guild&#45;core/pkg/gerror.New]">
<path fill="lightblue" stroke="black" stroke-width="1.5" d="M195.04,-66C195.04,-66 28,-66 28,-66 22,-66 16,-60 16,-54 16,-54 16,-42 16,-42 16,-36 22,-30 28,-30 28,-30 195.04,-30 195.04,-30 201.04,-30 207.04,-36 207.04,-42 207.04,-42 207.04,-54 207.04,-54 207.04,-60 201.04,-66 195.04,-66"/>
<text xml:space="preserve" text-anchor="middle" x="111.52" y="-43.33" font-family="Verdana" font-size="14.00">(*EventSimulator).Start</text>
</a>
</g>
</g>
<!-- (*github.com/guild&#45;framework/guild&#45;core/pkg/eventbus/testing.EventSimulator).generateEvents -->
<g id="node7" class="node">
<title>(*github.com/guild&#45;framework/guild&#45;core/pkg/eventbus/testing.EventSimulator).generateEvents</title>
<g id="a_node7"><a xlink:title="(*github.com/guild&#45;framework/guild&#45;core/pkg/eventbus/testing.EventSimulator).generateEvents | defined in simulator.go:118&#10;at simulator.go:135: calling [(*github.com/guild&#45;framework/guild&#45;core/pkg/eventbus/testing.EventSimulator).generateSingleEvent]&#10;at simulator.go:133: calling [(*github.com/guild&#45;framework/guild&#45;core/pkg/eventbus/testing.EventSimulator).generateBurst]">
<path fill="lightblue" stroke="black" stroke-width="0.5" d="M534.08,-52C534.08,-52 292.04,-52 292.04,-52 286.04,-52 280.04,-46 280.04,-40 280.04,-40 280.04,-28 280.04,-28 280.04,-22 286.04,-16 292.04,-16 292.04,-16 534.08,-16 534.08,-16 540.08,-16 546.08,-22 546.08,-28 546.08,-28 546.08,-40 546.08,-40 546.08,-46 540.08,-52 534.08,-52"/>
<text xml:space="preserve" text-anchor="middle" x="413.06" y="-29.32" font-family="Verdana" font-size="14.00">(*EventSimulator).generateEvents</text>
</a>
</g>
</g>
<!-- (*github.com/guild&#45;framework/guild&#45;core/pkg/eventbus/testing.EventSimulator).Start&#45;&gt;(*github.com/guild&#45;framework/guild&#45;core/pkg/eventbus/testing.EventSimulator).generateEvents -->
<g id="edge13" class="edge">
<title>(*github.com/guild&#45;framework/guild&#45;core/pkg/eventbus/testing.EventSimulator).Start&#45;&gt;(*github.com/guild&#45;framework/guild&#45;core/pkg/eventbus/testing.EventSimulator).generateEvents</title>
<g id="a_edge13"><a xlink:title="at simulator.go:97: calling [(*github.com/guild&#45;framework/guild&#45;core/pkg/eventbus/testing.EventSimulator).generateEvents]">
<path fill="none" stroke="black" d="M207.71,-43.55C222.68,-42.85 238.5,-42.11 254.44,-41.37"/>
<polygon fill="black" stroke="black" points="268.57,-44.21 278.4,-40.25 268.24,-37.22 268.57,-44.21"/>
<polyline fill="none" stroke="black" points="267.91,-40.74 262.91,-40.97"/>
<ellipse fill="none" stroke="black" cx="258.42" cy="-41.18" rx="4" ry="4"/>
</a>
</g>
</g>
<!-- github.com/guild&#45;framework/guild&#45;core/pkg/gerror.New -->
<g id="node15" class="node">
<title>github.com/guild&#45;framework/guild&#45;core/pkg/gerror.New</title>
<g id="a_node15"><a xlink:title="github.com/guild&#45;framework/guild&#45;core/pkg/gerror.New | defined in errors.go:190">
<path fill="moccasin" stroke="black" stroke-width="1.5" d="M428.06,-113C428.06,-113 398.06,-113 398.06,-113 392.06,-113 386.06,-107 386.06,-101 386.06,-101 386.06,-89 386.06,-89 386.06,-83 392.06,-77 398.06,-77 398.06,-77 428.06,-77 428.06,-77 434.06,-77 440.06,-83 440.06,-89 440.06,-89 440.06,-101 440.06,-101 440.06,-107 434.06,-113 428.06,-113"/>
<text xml:space="preserve" text-anchor="middle" x="413.06" y="-90.33" font-family="Verdana" font-size="14.00">New</text>
</a>
</g>
</g>
<!-- (*github.com/guild&#45;framework/guild&#45;core/pkg/eventbus/testing.EventSimulator).Start&#45;&gt;github.com/guild&#45;framework/guild&#45;core/pkg/gerror.New -->
<g id="edge15" class="edge">
<title>(*github.com/guild&#45;framework/guild&#45;core/pkg/eventbus/testing.EventSimulator).Start&#45;&gt;github.com/guild&#45;framework/guild&#45;core/pkg/gerror.New</title>
<g id="a_edge15"><a xlink:title="at simulator.go:93: calling [github.com/guild&#45;framework/guild&#45;core/pkg/gerror.New]">
<path fill="none" stroke="saddlebrown" d="M207.71,-62.94C264.11,-71.79 332.49,-82.51 374.11,-89.04"/>
<polygon fill="saddlebrown" stroke="saddlebrown" points="373.44,-92.48 383.86,-90.58 374.53,-85.57 373.44,-92.48"/>
</a>
</g>
</g>
<!-- (*github.com/guild&#45;framework/guild&#45;core/pkg/eventbus/testing.EventSimulator).generateEvents&#45;&gt;(*github.com/guild&#45;framework/guild&#45;core/pkg/eventbus/testing.EventSimulator).generateSingleEvent -->
<g id="edge3" class="edge">
<title>(*github.com/guild&#45;framework/guild&#45;core/pkg/eventbus/testing.EventSimulator).generateEvents&#45;&gt;(*github.com/guild&#45;framework/guild&#45;core/pkg/eventbus/testing.EventSimulator).generateSingleEvent</title>
<g id="a_edge3"><a xlink:title="at simulator.go:135: calling [(*github.com/guild&#45;framework/guild&#45;core/pkg/eventbus/testing.EventSimulator).generateSingleEvent]">
<path fill="none" stroke="black" d="M546.2,-34C607.1,-34 680.34,-34 746.22,-34 746.22,-34 746.22,-34 1086.51,-34 1171.64,-34 1267.27,-46.33 1338.44,-57.93"/>
<polygon fill="black" stroke="black" points="1337.72,-61.36 1348.16,-59.54 1338.86,-54.45 1337.72,-61.36"/>
</a>
</g>
</g>
<!-- (*github.com/guild&#45;framework/guild&#45;core/pkg/eventbus/testing.EventSimulator).generateEvents&#45;&gt;(*github.com/guild&#45;framework/guild&#45;core/pkg/eventbus/testing.EventSimulator).generateBurst -->
<g id="edge16" class="edge">
<title>(*github.com/guild&#45;framework/guild&#45;core/pkg/eventbus/testing.EventSimulator).generateEvents&#45;&gt;(*github.com/guild&#45;framework/guild&#45;core/pkg/eventbus/testing.EventSimulator).generateBurst</title>
<g id="a_edge16"><a xlink:title="at simulator.go:133: calling [(*github.com/guild&#45;framework/guild&#45;core/pkg/eventbus/testing.EventSimulator).generateBurst]">
<path fill="none" stroke="black" d="M546.29,-51.52C566.52,-54.2 587.45,-56.97 607.8,-59.66"/>
<polygon fill="black" stroke="black" points="607.17,-63.11 617.54,-60.95 608.09,-56.17 607.17,-63.11"/>
</a>
</g>
</g>
<!-- github.com/guild&#45;framework/guild&#45;core/pkg/eventbus/testing.NewEventSimulator -->
<g id="node8" class="node">
<title>github.com/guild&#45;framework/guild&#45;core/pkg/eventbus/testing.NewEventSimulator</title>
<g id="a_node8"><a xlink:title="github.com/guild&#45;framework/guild&#45;core/pkg/eventbus/testing.NewEventSimulator | defined in simulator.go:75&#10;at simulator.go:77: calling [github.com/guild&#45;framework/guild&#45;core/pkg/eventbus/testing.DefaultSimulatorConfig]">
<path fill="lightblue" stroke="black" stroke-width="1.5" d="M815.37,-193C815.37,-193 679.08,-193 679.08,-193 673.08,-193 667.08,-187 667.08,-181 667.08,-181 667.08,-169 667.08,-169 667.08,-163 673.08,-157 679.08,-157 679.08,-157 815.37,-157 815.37,-157 821.37,-157 827.37,-163 827.37,-169 827.37,-169 827.37,-181 827.37,-181 827.37,-187 821.37,-193 815.37,-193"/>
<text xml:space="preserve" text-anchor="middle" x="747.22" y="-170.32" font-family="Verdana" font-size="14.00">NewEventSimulator</text>
</a>
</g>
</g>
<!-- github.com/guild&#45;framework/guild&#45;core/pkg/eventbus/testing.DefaultSimulatorConfig -->
<g id="node9" class="node">
<title>github.com/guild&#45;framework/guild&#45;core/pkg/eventbus/testing.DefaultSimulatorConfig</title>
<g id="a_node9"><a xlink:title="github.com/guild&#45;framework/guild&#45;core/pkg/eventbus/testing.DefaultSimulatorConfig | defined in simulator.go:51">
<path fill="lightblue" stroke="black" stroke-width="1.5" d="M1166.41,-193C1166.41,-193 1004.62,-193 1004.62,-193 998.62,-193 992.62,-187 992.62,-181 992.62,-181 992.62,-169 992.62,-169 992.62,-163 998.62,-157 1004.62,-157 1004.62,-157 1166.41,-157 1166.41,-157 1172.41,-157 1178.41,-163 1178.41,-169 1178.41,-169 1178.41,-181 1178.41,-181 1178.41,-187 1172.41,-193 1166.41,-193"/>
<text xml:space="preserve" text-anchor="middle" x="1085.51" y="-170.32" font-family="Verdana" font-size="14.00">DefaultSimulatorConfig</text>
</a>
</g>
</g>
<!-- github.com/guild&#45;framework/guild&#45;core/pkg/eventbus/testing.NewEventSimulator&#45;&gt;github.com/guild&#45;framework/guild&#45;core/pkg/eventbus/testing.DefaultSimulatorConfig -->
<g id="edge1" class="edge">
<title>github.com/guild&#45;framework/guild&#45;core/pkg/eventbus/testing.NewEventSimulator&#45;&gt;github.com/guild&#45;framework/guild&#45;core/pkg/eventbus/testing.DefaultSimulatorConfig</title>
<g id="a_edge1"><a xlink:title="at simulator.go:77: calling [github.com/guild&#45;framework/guild&#45;core/pkg/eventbus/testing.DefaultSimulatorConfig]">
<path fill="none" stroke="black" d="M827.92,-175C873.6,-175 931.45,-175 980.66,-175"/>
<polygon fill="black" stroke="black" points="980.48,-178.5 990.48,-175 980.48,-171.5 980.48,-178.5"/>
</a>
</g>
</g>
<!-- (*github.com/guild&#45;framework/guild&#45;core/pkg/eventbus/testing.LoadTester).Run -->
<g id="node10" class="node">
<title>(*github.com/guild&#45;framework/guild&#45;core/pkg/eventbus/testing.LoadTester).Run</title>
<g id="a_node10"><a xlink:title="(*github.com/guild&#45;framework/guild&#45;core/pkg/eventbus/testing.LoadTester).Run | defined in simulator.go:232&#10;at simulator.go:234: calling [github.com/guild&#45;framework/guild&#45;core/pkg/gerror.New]&#10;at simulator.go:245: calling [(*github.com/guild&#45;framework/guild&#45;core/pkg/eventbus/testing.LoadTester).runWorker]">
<path fill="lightblue" stroke="black" stroke-width="1.5" d="M175.91,-140C175.91,-140 47.12,-140 47.12,-140 41.12,-140 35.12,-134 35.12,-128 35.12,-128 35.12,-116 35.12,-116 35.12,-110 41.12,-104 47.12,-104 47.12,-104 175.91,-104 175.91,-104 181.91,-104 187.91,-110 187.91,-116 187.91,-116 187.91,-128 187.91,-128 187.91,-134 181.91,-140 175.91,-140"/>
<text xml:space="preserve" text-anchor="middle" x="111.52" y="-117.33" font-family="Verdana" font-size="14.00">(*LoadTester).Run</text>
</a>
</g>
</g>
<!-- (*github.com/guild&#45;framework/guild&#45;core/pkg/eventbus/testing.LoadTester).runWorker -->
<g id="node11" class="node">
<title>(*github.com/guild&#45;framework/guild&#45;core/pkg/eventbus/testing.LoadTester).runWorker</title>
<g id="a_node11"><a xlink:title="(*github.com/guild&#45;framework/guild&#45;core/pkg/eventbus/testing.LoadTester).runWorker | defined in simulator.go:263&#10;at simulator.go:266: calling [github.com/guild&#45;framework/guild&#45;core/pkg/eventbus/testing.NewEventSimulator]&#10;at simulator.go:273: calling [(*github.com/guild&#45;framework/guild&#45;core/pkg/eventbus/testing.EventSimulator).createRandomEvent]">
<path fill="lightblue" stroke="black" stroke-width="0.5" d="M500.7,-193C500.7,-193 325.41,-193 325.41,-193 319.41,-193 313.41,-187 313.41,-181 313.41,-181 313.41,-169 313.41,-169 313.41,-163 319.41,-157 325.41,-157 325.41,-157 500.7,-157 500.7,-157 506.7,-157 512.7,-163 512.7,-169 512.7,-169 512.7,-181 512.7,-181 512.7,-187 506.7,-193 500.7,-193"/>
<text xml:space="preserve" text-anchor="middle" x="413.06" y="-170.32" font-family="Verdana" font-size="14.00">(*LoadTester).runWorker</text>
</a>
</g>
</g>
<!-- (*github.com/guild&#45;framework/guild&#45;core/pkg/eventbus/testing.LoadTester).Run&#45;&gt;(*github.com/guild&#45;framework/guild&#45;core/pkg/eventbus/testing.LoadTester).runWorker -->
<g id="edge9" class="edge">
<title>(*github.com/guild&#45;framework/guild&#45;core/pkg/eventbus/testing.LoadTester).Run&#45;&gt;(*github.com/guild&#45;framework/guild&#45;core/pkg/eventbus/testing.LoadTester).runWorker</title>
<g id="a_edge9"><a xlink:title="at simulator.go:245: calling [(*github.com/guild&#45;framework/guild&#45;core/pkg/eventbus/testing.LoadTester).runWorker]">
<path fill="none" stroke="black" d="M188.36,-136.33C217.06,-141.68 250.04,-147.72 280.04,-153 282.73,-153.47 285.45,-153.95 288.19,-154.43"/>
<polygon fill="black" stroke="black" points="301.32,-160.23 311.77,-158.48 302.51,-153.33 301.32,-160.23"/>
<polyline fill="none" stroke="black" points="301.42,-156.7 296.5,-155.85"/>
<ellipse fill="none" stroke="black" cx="292.06" cy="-155.09" rx="4" ry="4"/>
</a>
</g>
</g>
<!-- (*github.com/guild&#45;framework/guild&#45;core/pkg/eventbus/testing.LoadTester).Run&#45;&gt;github.com/guild&#45;framework/guild&#45;core/pkg/gerror.New -->
<g id="edge4" class="edge">
<title>(*github.com/guild&#45;framework/guild&#45;core/pkg/eventbus/testing.LoadTester).Run&#45;&gt;github.com/guild&#45;framework/guild&#45;core/pkg/gerror.New</title>
<g id="a_edge4"><a xlink:title="at simulator.go:234: calling [github.com/guild&#45;framework/guild&#45;core/pkg/gerror.New]">
<path fill="none" stroke="saddlebrown" d="M188.49,-115.15C247.81,-109.81 327.71,-102.6 374.18,-98.41"/>
<polygon fill="saddlebrown" stroke="saddlebrown" points="374.36,-101.91 384.01,-97.53 373.74,-94.94 374.36,-101.91"/>
</a>
</g>
</g>
<!-- (*github.com/guild&#45;framework/guild&#45;core/pkg/eventbus/testing.LoadTester).runWorker&#45;&gt;(*github.com/guild&#45;framework/guild&#45;core/pkg/eventbus/testing.EventSimulator).createRandomEvent -->
<g id="edge8" class="edge">
<title>(*github.com/guild&#45;framework/guild&#45;core/pkg/eventbus/testing.LoadTester).runWorker&#45;&gt;(*github.com/guild&#45;framework/guild&#45;core/pkg/eventbus/testing.EventSimulator).createRandomEvent</title>
<g id="a_edge8"><a xlink:title="at simulator.go:273: calling [(*github.com/guild&#45;framework/guild&#45;core/pkg/eventbus/testing.EventSimulator).createRandomEvent]">
<path fill="none" stroke="black" d="M512.71,-159.94C602.09,-146.52 723.23,-129 746.22,-129 746.22,-129 746.22,-129 1447.68,-129 1517.29,-129 1594.01,-123.51 1659.5,-117.14"/>
<polygon fill="black" stroke="black" points="1659.64,-120.65 1669.25,-116.18 1658.95,-113.68 1659.64,-120.65"/>
</a>
</g>
</g>
<!-- (*github.com/guild&#45;framework/guild&#45;core/pkg/eventbus/testing.LoadTester).runWorker&#45;&gt;github.com/guild&#45;framework/guild&#45;core/pkg/eventbus/testing.NewEventSimulator -->
<g id="edge2" class="edge">
<title>(*github.com/guild&#45;framework/guild&#45;core/pkg/eventbus/testing.LoadTester).runWorker&#45;&gt;github.com/guild&#45;framework/guild&#45;core/pkg/eventbus/testing.NewEventSimulator</title>
<g id="a_edge2"><a xlink:title="at simulator.go:266: calling [github.com/guild&#45;framework/guild&#45;core/pkg/eventbus/testing.NewEventSimulator]">
<path fill="none" stroke="black" d="M512.82,-175C557.95,-175 611.05,-175 655.2,-175"/>
<polygon fill="black" stroke="black" points="655,-178.5 665,-175 655,-171.5 655,-178.5"/>
</a>
</g>
</g>
</g>
</svg>
