<?xml version="1.0" encoding="UTF-8" standalone="no"?>
<!DOCTYPE svg PUBLIC "-//W3C//DTD SVG 1.1//EN"
 "http://www.w3.org/Graphics/SVG/1.1/DTD/svg11.dtd">
<!-- Generated by graphviz version 14.1.1 (20251213.1925)
 -->
<!-- Title: gocallvis Pages: 1 -->
<svg width="1053pt" height="429pt"
 viewBox="0.00 0.00 1053.00 429.00" xmlns="http://www.w3.org/2000/svg" xmlns:xlink="http://www.w3.org/1999/xlink">
<g id="graph0" class="graph" transform="scale(1 1) rotate(0) translate(0 429)">
<title>gocallvis</title>
<polygon fill="lightgray" stroke="none" points="0,0 0,-429 1052.66,-429 1052.66,0 0,0"/>
<g id="clust1" class="cluster">
<title>cluster_focus</title>
<polygon fill="#e6ecfa" stroke="black" stroke-width="0.5" points="8,-8 8,-421 1044.66,-421 1044.66,-8 8,-8"/>
<text xml:space="preserve" text-anchor="middle" x="526.33" y="-399.9" font-family="Arial" font-size="18.00">ora</text>
</g>
<g id="clust2" class="cluster">
<title>cluster_github.com/guild&#45;framework/guild&#45;core/pkg/gerror</title>
<g id="a_clust2"><a xlink:href="/?f=github.com/guild-framework/guild-core/pkg/gerror" xlink:title="package: github.com/guild&#45;framework/guild&#45;core/pkg/gerror">
<polygon fill="lightyellow" stroke="black" stroke-width="0.8" points="560.08,-16 560.08,-340 808.37,-340 808.37,-16 560.08,-16"/>
<text xml:space="preserve" text-anchor="middle" x="684.22" y="-320.8" font-family="Tahoma bold" font-size="16.00">gerror</text>
</a>
</g>
</g>
<!-- (*github.com/guild&#45;framework/guild&#45;core/pkg/providers/ora.Client).makeRequest -->
<g id="node1" class="node">
<title>(*github.com/guild&#45;framework/guild&#45;core/pkg/providers/ora.Client).makeRequest</title>
<g id="a_node1"><a xlink:title="(*github.com/guild&#45;framework/guild&#45;core/pkg/providers/ora.Client).makeRequest | defined in client.go:182&#10;at client.go:211: calling [(*github.com/guild&#45;framework/guild&#45;core/pkg/providers/ora.Client).parseError]">
<path fill="lightblue" stroke="black" stroke-width="0.5" d="M764.37,-384C764.37,-384 604.08,-384 604.08,-384 598.08,-384 592.08,-378 592.08,-372 592.08,-372 592.08,-360 592.08,-360 592.08,-354 598.08,-348 604.08,-348 604.08,-348 764.37,-348 764.37,-348 770.37,-348 776.37,-354 776.37,-360 776.37,-360 776.37,-372 776.37,-372 776.37,-378 770.37,-384 764.37,-384"/>
<text xml:space="preserve" text-anchor="middle" x="684.22" y="-361.32" font-family="Verdana" font-size="14.00">(*Client).makeRequest</text>
</a>
</g>
</g>
<!-- (*github.com/guild&#45;framework/guild&#45;core/pkg/providers/ora.Client).parseError -->
<g id="node2" class="node">
<title>(*github.com/guild&#45;framework/guild&#45;core/pkg/providers/ora.Client).parseError</title>
<g id="a_node2"><a xlink:title="(*github.com/guild&#45;framework/guild&#45;core/pkg/providers/ora.Client).parseError | defined in client.go:218">
<path fill="lightblue" stroke="black" stroke-width="0.5" d="M1024.66,-384C1024.66,-384 885.37,-384 885.37,-384 879.37,-384 873.37,-378 873.37,-372 873.37,-372 873.37,-360 873.37,-360 873.37,-354 879.37,-348 885.37,-348 885.37,-348 1024.66,-348 1024.66,-348 1030.66,-348 1036.66,-354 1036.66,-360 1036.66,-360 1036.66,-372 1036.66,-372 1036.66,-378 1030.66,-384 1024.66,-384"/>
<text xml:space="preserve" text-anchor="middle" x="955.01" y="-361.32" font-family="Verdana" font-size="14.00">(*Client).parseError</text>
</a>
</g>
</g>
<!-- (*github.com/guild&#45;framework/guild&#45;core/pkg/providers/ora.Client).makeRequest&#45;&gt;(*github.com/guild&#45;framework/guild&#45;core/pkg/providers/ora.Client).parseError -->
<g id="edge15" class="edge">
<title>(*github.com/guild&#45;framework/guild&#45;core/pkg/providers/ora.Client).makeRequest&#45;&gt;(*github.com/guild&#45;framework/guild&#45;core/pkg/providers/ora.Client).parseError</title>
<g id="a_edge15"><a xlink:title="at client.go:211: calling [(*github.com/guild&#45;framework/guild&#45;core/pkg/providers/ora.Client).parseError]">
<path fill="none" stroke="black" d="M776.6,-366C804.16,-366 834.41,-366 862,-366"/>
<polygon fill="black" stroke="black" points="861.73,-369.5 871.73,-366 861.73,-362.5 861.73,-369.5"/>
</a>
</g>
</g>
<!-- (*github.com/guild&#45;framework/guild&#45;core/pkg/providers/ora.Client).ChatCompletion -->
<g id="node3" class="node">
<title>(*github.com/guild&#45;framework/guild&#45;core/pkg/providers/ora.Client).ChatCompletion</title>
<g id="a_node3"><a xlink:title="(*github.com/guild&#45;framework/guild&#45;core/pkg/providers/ora.Client).ChatCompletion | defined in client.go:79&#10;at client.go:127: calling [(*github.com/guild&#45;framework/guild&#45;core/pkg/gerror.GuildError).WithComponent]&#10;at client.go:128: calling [(*github.com/guild&#45;framework/guild&#45;core/pkg/gerror.GuildError).WithOperation]&#10;at client.go:126: calling [github.com/guild&#45;framework/guild&#45;core/pkg/gerror.Wrap]&#10;at client.go:129: calling [(*github.com/guild&#45;framework/guild&#45;core/pkg/gerror.GuildError).WithDetails]&#10;at client.go:101: calling [(*github.com/guild&#45;framework/guild&#45;core/pkg/providers/ora.Client).makeRequest]">
<path fill="lightblue" stroke="black" stroke-width="1.5" d="M457.58,-310C457.58,-310 281.54,-310 281.54,-310 275.54,-310 269.54,-304 269.54,-298 269.54,-298 269.54,-286 269.54,-286 269.54,-280 275.54,-274 281.54,-274 281.54,-274 457.58,-274 457.58,-274 463.58,-274 469.58,-280 469.58,-286 469.58,-286 469.58,-298 469.58,-298 469.58,-304 463.58,-310 457.58,-310"/>
<text xml:space="preserve" text-anchor="middle" x="369.56" y="-287.32" font-family="Verdana" font-size="14.00">(*Client).ChatCompletion</text>
</a>
</g>
</g>
<!-- (*github.com/guild&#45;framework/guild&#45;core/pkg/providers/ora.Client).ChatCompletion&#45;&gt;(*github.com/guild&#45;framework/guild&#45;core/pkg/providers/ora.Client).makeRequest -->
<g id="edge14" class="edge">
<title>(*github.com/guild&#45;framework/guild&#45;core/pkg/providers/ora.Client).ChatCompletion&#45;&gt;(*github.com/guild&#45;framework/guild&#45;core/pkg/providers/ora.Client).makeRequest</title>
<g id="a_edge14"><a xlink:title="at client.go:101: calling [(*github.com/guild&#45;framework/guild&#45;core/pkg/providers/ora.Client).makeRequest]">
<path fill="none" stroke="black" d="M432.94,-310.65C469.73,-321.27 517.32,-334.33 560.08,-344 566.82,-345.52 573.79,-347.01 580.83,-348.44"/>
<polygon fill="black" stroke="black" points="579.94,-351.83 590.43,-350.35 581.31,-344.97 579.94,-351.83"/>
</a>
</g>
</g>
<!-- github.com/guild&#45;framework/guild&#45;core/pkg/gerror.Wrap -->
<g id="node7" class="node">
<title>github.com/guild&#45;framework/guild&#45;core/pkg/gerror.Wrap</title>
<g id="a_node7"><a xlink:title="github.com/guild&#45;framework/guild&#45;core/pkg/gerror.Wrap | defined in errors.go:223">
<path fill="moccasin" stroke="black" stroke-width="1.5" d="M702.12,-304C702.12,-304 666.33,-304 666.33,-304 660.33,-304 654.33,-298 654.33,-292 654.33,-292 654.33,-280 654.33,-280 654.33,-274 660.33,-268 666.33,-268 666.33,-268 702.12,-268 702.12,-268 708.12,-268 714.12,-274 714.12,-280 714.12,-280 714.12,-292 714.12,-292 714.12,-298 708.12,-304 702.12,-304"/>
<text xml:space="preserve" text-anchor="middle" x="684.22" y="-281.32" font-family="Verdana" font-size="14.00">Wrap</text>
</a>
</g>
</g>
<!-- (*github.com/guild&#45;framework/guild&#45;core/pkg/providers/ora.Client).ChatCompletion&#45;&gt;github.com/guild&#45;framework/guild&#45;core/pkg/gerror.Wrap -->
<g id="edge5" class="edge">
<title>(*github.com/guild&#45;framework/guild&#45;core/pkg/providers/ora.Client).ChatCompletion&#45;&gt;github.com/guild&#45;framework/guild&#45;core/pkg/gerror.Wrap</title>
<g id="a_edge5"><a xlink:title="at client.go:126: calling [github.com/guild&#45;framework/guild&#45;core/pkg/gerror.Wrap]">
<path fill="none" stroke="saddlebrown" d="M470.08,-299.01C490.58,-299.69 512.03,-299.86 532.08,-299 569.48,-297.39 611.94,-293.56 642.32,-290.48"/>
<polygon fill="saddlebrown" stroke="saddlebrown" points="642.64,-293.96 652.23,-289.45 641.92,-287 642.64,-293.96"/>
</a>
</g>
</g>
<!-- (*github.com/guild&#45;framework/guild&#45;core/pkg/gerror.GuildError).WithComponent -->
<g id="node8" class="node">
<title>(*github.com/guild&#45;framework/guild&#45;core/pkg/gerror.GuildError).WithComponent</title>
<g id="a_node8"><a xlink:title="(*github.com/guild&#45;framework/guild&#45;core/pkg/gerror.GuildError).WithComponent | defined in errors.go:156">
<path fill="moccasin" stroke="black" stroke-width="1.5" d="M788.37,-182C788.37,-182 580.08,-182 580.08,-182 574.08,-182 568.08,-176 568.08,-170 568.08,-170 568.08,-158 568.08,-158 568.08,-152 574.08,-146 580.08,-146 580.08,-146 788.37,-146 788.37,-146 794.37,-146 800.37,-152 800.37,-158 800.37,-158 800.37,-170 800.37,-170 800.37,-176 794.37,-182 788.37,-182"/>
<text xml:space="preserve" text-anchor="middle" x="684.22" y="-159.32" font-family="Verdana" font-size="14.00">(*GuildError).WithComponent</text>
</a>
</g>
</g>
<!-- (*github.com/guild&#45;framework/guild&#45;core/pkg/providers/ora.Client).ChatCompletion&#45;&gt;(*github.com/guild&#45;framework/guild&#45;core/pkg/gerror.GuildError).WithComponent -->
<g id="edge1" class="edge">
<title>(*github.com/guild&#45;framework/guild&#45;core/pkg/providers/ora.Client).ChatCompletion&#45;&gt;(*github.com/guild&#45;framework/guild&#45;core/pkg/gerror.GuildError).WithComponent</title>
<g id="a_edge1"><a xlink:title="at client.go:127: calling [(*github.com/guild&#45;framework/guild&#45;core/pkg/gerror.GuildError).WithComponent]">
<path fill="none" stroke="saddlebrown" d="M401.42,-273.44C438.13,-252.01 501.79,-216.93 560.08,-195 568.83,-191.71 578.06,-188.66 587.37,-185.85"/>
<polygon fill="saddlebrown" stroke="saddlebrown" points="588.23,-189.25 596.86,-183.1 586.28,-182.53 588.23,-189.25"/>
</a>
</g>
</g>
<!-- (*github.com/guild&#45;framework/guild&#45;core/pkg/gerror.GuildError).WithOperation -->
<g id="node9" class="node">
<title>(*github.com/guild&#45;framework/guild&#45;core/pkg/gerror.GuildError).WithOperation</title>
<g id="a_node9"><a xlink:title="(*github.com/guild&#45;framework/guild&#45;core/pkg/gerror.GuildError).WithOperation | defined in errors.go:162">
<path fill="moccasin" stroke="black" stroke-width="1.5" d="M782.74,-243C782.74,-243 585.7,-243 585.7,-243 579.7,-243 573.7,-237 573.7,-231 573.7,-231 573.7,-219 573.7,-219 573.7,-213 579.7,-207 585.7,-207 585.7,-207 782.74,-207 782.74,-207 788.74,-207 794.74,-213 794.74,-219 794.74,-219 794.74,-231 794.74,-231 794.74,-237 788.74,-243 782.74,-243"/>
<text xml:space="preserve" text-anchor="middle" x="684.22" y="-220.32" font-family="Verdana" font-size="14.00">(*GuildError).WithOperation</text>
</a>
</g>
</g>
<!-- (*github.com/guild&#45;framework/guild&#45;core/pkg/providers/ora.Client).ChatCompletion&#45;&gt;(*github.com/guild&#45;framework/guild&#45;core/pkg/gerror.GuildError).WithOperation -->
<g id="edge2" class="edge">
<title>(*github.com/guild&#45;framework/guild&#45;core/pkg/providers/ora.Client).ChatCompletion&#45;&gt;(*github.com/guild&#45;framework/guild&#45;core/pkg/gerror.GuildError).WithOperation</title>
<g id="a_edge2"><a xlink:title="at client.go:128: calling [(*github.com/guild&#45;framework/guild&#45;core/pkg/gerror.GuildError).WithOperation]">
<path fill="none" stroke="saddlebrown" d="M470.16,-285.93C490.96,-282.94 512.51,-278.51 532.08,-272 545.68,-267.48 546.78,-261.35 560.08,-256 568.29,-252.69 576.96,-249.66 585.74,-246.9"/>
<polygon fill="saddlebrown" stroke="saddlebrown" points="586.46,-250.33 595.03,-244.1 584.44,-243.63 586.46,-250.33"/>
</a>
</g>
</g>
<!-- (*github.com/guild&#45;framework/guild&#45;core/pkg/gerror.GuildError).WithDetails -->
<g id="node10" class="node">
<title>(*github.com/guild&#45;framework/guild&#45;core/pkg/gerror.GuildError).WithDetails</title>
<g id="a_node10"><a xlink:title="(*github.com/guild&#45;framework/guild&#45;core/pkg/gerror.GuildError).WithDetails | defined in errors.go:147">
<path fill="moccasin" stroke="black" stroke-width="1.5" d="M771.87,-121C771.87,-121 596.58,-121 596.58,-121 590.58,-121 584.58,-115 584.58,-109 584.58,-109 584.58,-97 584.58,-97 584.58,-91 590.58,-85 596.58,-85 596.58,-85 771.87,-85 771.87,-85 777.87,-85 783.87,-91 783.87,-97 783.87,-97 783.87,-109 783.87,-109 783.87,-115 777.87,-121 771.87,-121"/>
<text xml:space="preserve" text-anchor="middle" x="684.22" y="-98.33" font-family="Verdana" font-size="14.00">(*GuildError).WithDetails</text>
</a>
</g>
</g>
<!-- (*github.com/guild&#45;framework/guild&#45;core/pkg/providers/ora.Client).ChatCompletion&#45;&gt;(*github.com/guild&#45;framework/guild&#45;core/pkg/gerror.GuildError).WithDetails -->
<g id="edge6" class="edge">
<title>(*github.com/guild&#45;framework/guild&#45;core/pkg/providers/ora.Client).ChatCompletion&#45;&gt;(*github.com/guild&#45;framework/guild&#45;core/pkg/gerror.GuildError).WithDetails</title>
<g id="a_edge6"><a xlink:title="at client.go:129: calling [(*github.com/guild&#45;framework/guild&#45;core/pkg/gerror.GuildError).WithDetails]">
<path fill="none" stroke="saddlebrown" d="M390.44,-273.46C430.98,-235.96 522.57,-153.09 560.08,-134 566.2,-130.88 572.66,-128.07 579.28,-125.52"/>
<polygon fill="saddlebrown" stroke="saddlebrown" points="580.15,-128.93 588.37,-122.25 577.78,-122.34 580.15,-128.93"/>
</a>
</g>
</g>
<!-- (*github.com/guild&#45;framework/guild&#45;core/pkg/providers/ora.Client).CreateEmbedding -->
<g id="node4" class="node">
<title>(*github.com/guild&#45;framework/guild&#45;core/pkg/providers/ora.Client).CreateEmbedding</title>
<g id="a_node4"><a xlink:title="(*github.com/guild&#45;framework/guild&#45;core/pkg/providers/ora.Client).CreateEmbedding | defined in client.go:167&#10;at client.go:170: calling [(*github.com/guild&#45;framework/guild&#45;core/pkg/gerror.GuildError).WithComponent]&#10;at client.go:171: calling [(*github.com/guild&#45;framework/guild&#45;core/pkg/gerror.GuildError).WithOperation]&#10;at client.go:172: calling [(*github.com/guild&#45;framework/guild&#45;core/pkg/gerror.GuildError).WithDetails]&#10;at client.go:173: calling [(*github.com/guild&#45;framework/guild&#45;core/pkg/gerror.GuildError).WithDetails]&#10;at client.go:169: calling [github.com/guild&#45;framework/guild&#45;core/pkg/gerror.New]">
<path fill="lightblue" stroke="black" stroke-width="1.5" d="M464.7,-163C464.7,-163 274.41,-163 274.41,-163 268.41,-163 262.41,-157 262.41,-151 262.41,-151 262.41,-139 262.41,-139 262.41,-133 268.41,-127 274.41,-127 274.41,-127 464.7,-127 464.7,-127 470.7,-127 476.7,-133 476.7,-139 476.7,-139 476.7,-151 476.7,-151 476.7,-157 470.7,-163 464.7,-163"/>
<text xml:space="preserve" text-anchor="middle" x="369.56" y="-140.32" font-family="Verdana" font-size="14.00">(*Client).CreateEmbedding</text>
</a>
</g>
</g>
<!-- (*github.com/guild&#45;framework/guild&#45;core/pkg/providers/ora.Client).CreateEmbedding&#45;&gt;(*github.com/guild&#45;framework/guild&#45;core/pkg/gerror.GuildError).WithComponent -->
<g id="edge7" class="edge">
<title>(*github.com/guild&#45;framework/guild&#45;core/pkg/providers/ora.Client).CreateEmbedding&#45;&gt;(*github.com/guild&#45;framework/guild&#45;core/pkg/gerror.GuildError).WithComponent</title>
<g id="a_edge7"><a xlink:title="at client.go:170: calling [(*github.com/guild&#45;framework/guild&#45;core/pkg/gerror.GuildError).WithComponent]">
<path fill="none" stroke="saddlebrown" d="M477.29,-151.49C502.67,-153.03 530.01,-154.69 556.2,-156.28"/>
<polygon fill="saddlebrown" stroke="saddlebrown" points="555.64,-159.75 565.84,-156.87 556.07,-152.77 555.64,-159.75"/>
</a>
</g>
</g>
<!-- (*github.com/guild&#45;framework/guild&#45;core/pkg/providers/ora.Client).CreateEmbedding&#45;&gt;(*github.com/guild&#45;framework/guild&#45;core/pkg/gerror.GuildError).WithOperation -->
<g id="edge8" class="edge">
<title>(*github.com/guild&#45;framework/guild&#45;core/pkg/providers/ora.Client).CreateEmbedding&#45;&gt;(*github.com/guild&#45;framework/guild&#45;core/pkg/gerror.GuildError).WithOperation</title>
<g id="a_edge8"><a xlink:title="at client.go:171: calling [(*github.com/guild&#45;framework/guild&#45;core/pkg/gerror.GuildError).WithOperation]">
<path fill="none" stroke="saddlebrown" d="M401.85,-163.59C433.3,-181.2 483.76,-206.6 531.08,-218 540.99,-220.39 551.37,-222.21 561.85,-223.6"/>
<polygon fill="saddlebrown" stroke="saddlebrown" points="561.39,-227.07 571.73,-224.75 562.21,-220.11 561.39,-227.07"/>
</a>
</g>
</g>
<!-- (*github.com/guild&#45;framework/guild&#45;core/pkg/providers/ora.Client).CreateEmbedding&#45;&gt;(*github.com/guild&#45;framework/guild&#45;core/pkg/gerror.GuildError).WithDetails -->
<g id="edge9" class="edge">
<title>(*github.com/guild&#45;framework/guild&#45;core/pkg/providers/ora.Client).CreateEmbedding&#45;&gt;(*github.com/guild&#45;framework/guild&#45;core/pkg/gerror.GuildError).WithDetails</title>
<g id="a_edge9"><a xlink:title="at client.go:172: calling [(*github.com/guild&#45;framework/guild&#45;core/pkg/gerror.GuildError).WithDetails]&#10;at client.go:173: calling [(*github.com/guild&#45;framework/guild&#45;core/pkg/gerror.GuildError).WithDetails]">
<path fill="none" stroke="saddlebrown" d="M477.29,-130.66C508.09,-126.53 541.76,-122 572.78,-117.84"/>
<polygon fill="saddlebrown" stroke="saddlebrown" points="573.14,-121.32 582.58,-116.52 572.2,-114.38 573.14,-121.32"/>
</a>
</g>
</g>
<!-- github.com/guild&#45;framework/guild&#45;core/pkg/gerror.New -->
<g id="node11" class="node">
<title>github.com/guild&#45;framework/guild&#45;core/pkg/gerror.New</title>
<g id="a_node11"><a xlink:title="github.com/guild&#45;framework/guild&#45;core/pkg/gerror.New | defined in errors.go:190">
<path fill="moccasin" stroke="black" stroke-width="1.5" d="M699.22,-60C699.22,-60 669.22,-60 669.22,-60 663.22,-60 657.22,-54 657.22,-48 657.22,-48 657.22,-36 657.22,-36 657.22,-30 663.22,-24 669.22,-24 669.22,-24 699.22,-24 699.22,-24 705.22,-24 711.22,-30 711.22,-36 711.22,-36 711.22,-48 711.22,-48 711.22,-54 705.22,-60 699.22,-60"/>
<text xml:space="preserve" text-anchor="middle" x="684.22" y="-37.33" font-family="Verdana" font-size="14.00">New</text>
</a>
</g>
</g>
<!-- (*github.com/guild&#45;framework/guild&#45;core/pkg/providers/ora.Client).CreateEmbedding&#45;&gt;github.com/guild&#45;framework/guild&#45;core/pkg/gerror.New -->
<g id="edge13" class="edge">
<title>(*github.com/guild&#45;framework/guild&#45;core/pkg/providers/ora.Client).CreateEmbedding&#45;&gt;github.com/guild&#45;framework/guild&#45;core/pkg/gerror.New</title>
<g id="a_edge13"><a xlink:title="at client.go:169: calling [github.com/guild&#45;framework/guild&#45;core/pkg/gerror.New]">
<path fill="none" stroke="saddlebrown" d="M430.25,-126.31C450.95,-119.45 474.2,-111.31 495.08,-103 524.64,-91.23 530.08,-83.6 560.08,-73 588.25,-63.05 621.11,-54.95 645.8,-49.52"/>
<polygon fill="saddlebrown" stroke="saddlebrown" points="646.34,-52.99 655.38,-47.47 644.87,-46.14 646.34,-52.99"/>
</a>
</g>
</g>
<!-- (*github.com/guild&#45;framework/guild&#45;core/pkg/providers/ora.Client).Complete -->
<g id="node5" class="node">
<title>(*github.com/guild&#45;framework/guild&#45;core/pkg/providers/ora.Client).Complete</title>
<g id="a_node5"><a xlink:title="(*github.com/guild&#45;framework/guild&#45;core/pkg/providers/ora.Client).Complete | defined in client.go:273&#10;at client.go:281: calling [(*github.com/guild&#45;framework/guild&#45;core/pkg/providers/ora.Client).ChatCompletion]">
<path fill="lightblue" stroke="black" stroke-width="1.5" d="M159.04,-310C159.04,-310 28,-310 28,-310 22,-310 16,-304 16,-298 16,-298 16,-286 16,-286 16,-280 22,-274 28,-274 28,-274 159.04,-274 159.04,-274 165.04,-274 171.04,-280 171.04,-286 171.04,-286 171.04,-298 171.04,-298 171.04,-304 165.04,-310 159.04,-310"/>
<text xml:space="preserve" text-anchor="middle" x="93.52" y="-287.32" font-family="Verdana" font-size="14.00">(*Client).Complete</text>
</a>
</g>
</g>
<!-- (*github.com/guild&#45;framework/guild&#45;core/pkg/providers/ora.Client).Complete&#45;&gt;(*github.com/guild&#45;framework/guild&#45;core/pkg/providers/ora.Client).ChatCompletion -->
<g id="edge10" class="edge">
<title>(*github.com/guild&#45;framework/guild&#45;core/pkg/providers/ora.Client).Complete&#45;&gt;(*github.com/guild&#45;framework/guild&#45;core/pkg/providers/ora.Client).ChatCompletion</title>
<g id="a_edge10"><a xlink:title="at client.go:281: calling [(*github.com/guild&#45;framework/guild&#45;core/pkg/providers/ora.Client).ChatCompletion]">
<path fill="none" stroke="black" d="M171.58,-292C198.28,-292 228.75,-292 257.62,-292"/>
<polygon fill="black" stroke="black" points="257.51,-295.5 267.51,-292 257.51,-288.5 257.51,-295.5"/>
</a>
</g>
</g>
<!-- (*github.com/guild&#45;framework/guild&#45;core/pkg/providers/ora.Client).StreamChatCompletion -->
<g id="node6" class="node">
<title>(*github.com/guild&#45;framework/guild&#45;core/pkg/providers/ora.Client).StreamChatCompletion</title>
<g id="a_node6"><a xlink:title="(*github.com/guild&#45;framework/guild&#45;core/pkg/providers/ora.Client).StreamChatCompletion | defined in client.go:158&#10;at client.go:161: calling [(*github.com/guild&#45;framework/guild&#45;core/pkg/gerror.GuildError).WithComponent]&#10;at client.go:162: calling [(*github.com/guild&#45;framework/guild&#45;core/pkg/gerror.GuildError).WithOperation]&#10;at client.go:160: calling [github.com/guild&#45;framework/guild&#45;core/pkg/gerror.New]&#10;at client.go:163: calling [(*github.com/guild&#45;framework/guild&#45;core/pkg/gerror.GuildError).WithDetails]">
<path fill="lightblue" stroke="black" stroke-width="1.5" d="M483.08,-90C483.08,-90 256.04,-90 256.04,-90 250.04,-90 244.04,-84 244.04,-78 244.04,-78 244.04,-66 244.04,-66 244.04,-60 250.04,-54 256.04,-54 256.04,-54 483.08,-54 483.08,-54 489.08,-54 495.08,-60 495.08,-66 495.08,-66 495.08,-78 495.08,-78 495.08,-84 489.08,-90 483.08,-90"/>
<text xml:space="preserve" text-anchor="middle" x="369.56" y="-67.33" font-family="Verdana" font-size="14.00">(*Client).StreamChatCompletion</text>
</a>
</g>
</g>
<!-- (*github.com/guild&#45;framework/guild&#45;core/pkg/providers/ora.Client).StreamChatCompletion&#45;&gt;(*github.com/guild&#45;framework/guild&#45;core/pkg/gerror.GuildError).WithComponent -->
<g id="edge3" class="edge">
<title>(*github.com/guild&#45;framework/guild&#45;core/pkg/providers/ora.Client).StreamChatCompletion&#45;&gt;(*github.com/guild&#45;framework/guild&#45;core/pkg/gerror.GuildError).WithComponent</title>
<g id="a_edge3"><a xlink:title="at client.go:161: calling [(*github.com/guild&#45;framework/guild&#45;core/pkg/gerror.GuildError).WithComponent]">
<path fill="none" stroke="saddlebrown" d="M423.73,-90.61C461.53,-103.55 513.64,-120.77 560.08,-134 570.21,-136.89 580.86,-139.74 591.48,-142.48"/>
<polygon fill="saddlebrown" stroke="saddlebrown" points="590.49,-145.84 601.04,-144.91 592.21,-139.05 590.49,-145.84"/>
</a>
</g>
</g>
<!-- (*github.com/guild&#45;framework/guild&#45;core/pkg/providers/ora.Client).StreamChatCompletion&#45;&gt;(*github.com/guild&#45;framework/guild&#45;core/pkg/gerror.GuildError).WithOperation -->
<g id="edge4" class="edge">
<title>(*github.com/guild&#45;framework/guild&#45;core/pkg/providers/ora.Client).StreamChatCompletion&#45;&gt;(*github.com/guild&#45;framework/guild&#45;core/pkg/gerror.GuildError).WithOperation</title>
<g id="a_edge4"><a xlink:title="at client.go:162: calling [(*github.com/guild&#45;framework/guild&#45;core/pkg/gerror.GuildError).WithOperation]">
<path fill="none" stroke="saddlebrown" d="M446.57,-90.74C463.42,-96.89 480.56,-104.84 495.08,-115 532.62,-141.26 521.36,-170.52 560.08,-195 563.84,-197.38 567.78,-199.57 571.84,-201.59"/>
<polygon fill="saddlebrown" stroke="saddlebrown" points="570.23,-204.7 580.78,-205.63 573.11,-198.32 570.23,-204.7"/>
</a>
</g>
</g>
<!-- (*github.com/guild&#45;framework/guild&#45;core/pkg/providers/ora.Client).StreamChatCompletion&#45;&gt;(*github.com/guild&#45;framework/guild&#45;core/pkg/gerror.GuildError).WithDetails -->
<g id="edge12" class="edge">
<title>(*github.com/guild&#45;framework/guild&#45;core/pkg/providers/ora.Client).StreamChatCompletion&#45;&gt;(*github.com/guild&#45;framework/guild&#45;core/pkg/gerror.GuildError).WithDetails</title>
<g id="a_edge12"><a xlink:title="at client.go:163: calling [(*github.com/guild&#45;framework/guild&#45;core/pkg/gerror.GuildError).WithDetails]">
<path fill="none" stroke="saddlebrown" d="M495.48,-84.39C521,-86.92 547.68,-89.56 572.66,-92.04"/>
<polygon fill="saddlebrown" stroke="saddlebrown" points="572.2,-95.51 582.5,-93.01 572.89,-88.54 572.2,-95.51"/>
</a>
</g>
</g>
<!-- (*github.com/guild&#45;framework/guild&#45;core/pkg/providers/ora.Client).StreamChatCompletion&#45;&gt;github.com/guild&#45;framework/guild&#45;core/pkg/gerror.New -->
<g id="edge11" class="edge">
<title>(*github.com/guild&#45;framework/guild&#45;core/pkg/providers/ora.Client).StreamChatCompletion&#45;&gt;github.com/guild&#45;framework/guild&#45;core/pkg/gerror.New</title>
<g id="a_edge11"><a xlink:title="at client.go:160: calling [github.com/guild&#45;framework/guild&#45;core/pkg/gerror.New]">
<path fill="none" stroke="saddlebrown" d="M454.29,-53.33C478.9,-48.66 505.96,-44.33 531.08,-42 569.91,-38.4 614.56,-38.95 645.39,-40.07"/>
<polygon fill="saddlebrown" stroke="saddlebrown" points="644.85,-43.55 654.98,-40.45 645.13,-36.55 644.85,-43.55"/>
</a>
</g>
</g>
</g>
</svg>
