<?xml version="1.0" encoding="UTF-8" standalone="no"?>
<!DOCTYPE svg PUBLIC "-//W3C//DTD SVG 1.1//EN"
 "http://www.w3.org/Graphics/SVG/1.1/DTD/svg11.dtd">
<!-- Generated by graphviz version 14.1.1 (20251213.1925)
 -->
<!-- Title: gocallvis Pages: 1 -->
<svg width="746pt" height="361pt"
 viewBox="0.00 0.00 746.00 361.00" xmlns="http://www.w3.org/2000/svg" xmlns:xlink="http://www.w3.org/1999/xlink">
<g id="graph0" class="graph" transform="scale(1 1) rotate(0) translate(0 361)">
<title>gocallvis</title>
<polygon fill="lightgray" stroke="none" points="0,0 0,-361 746.37,-361 746.37,0 0,0"/>
<g id="clust1" class="cluster">
<title>cluster_focus</title>
<polygon fill="#e6ecfa" stroke="black" stroke-width="0.5" points="8,-8 8,-353 738.37,-353 738.37,-8 8,-8"/>
<text xml:space="preserve" text-anchor="middle" x="373.19" y="-331.9" font-family="Arial" font-size="18.00">collectors</text>
</g>
<g id="clust2" class="cluster">
<title>cluster_github.com/guild&#45;framework/guild&#45;core/pkg/gerror</title>
<g id="a_clust2"><a xlink:href="/?f=github.com/guild-framework/guild-core/pkg/gerror" xlink:title="package: github.com/guild&#45;framework/guild&#45;core/pkg/gerror">
<polygon fill="lightyellow" stroke="black" stroke-width="0.8" points="654.58,-140 654.58,-220 730.37,-220 730.37,-140 654.58,-140"/>
<text xml:space="preserve" text-anchor="middle" x="692.48" y="-200.8" font-family="Tahoma bold" font-size="16.00">gerror</text>
</a>
</g>
</g>
<!-- (*github.com/guild&#45;framework/guild&#45;core/pkg/telemetry/collectors.CommissionCollector).initializeMetrics -->
<g id="node1" class="node">
<title>(*github.com/guild&#45;framework/guild&#45;core/pkg/telemetry/collectors.CommissionCollector).initializeMetrics</title>
<g id="a_node1"><a xlink:title="(*github.com/guild&#45;framework/guild&#45;core/pkg/telemetry/collectors.CommissionCollector).initializeMetrics | defined in commission.go:38&#10;at commission.go:47: calling [github.com/guild&#45;framework/guild&#45;core/pkg/gerror.Wrap]&#10;at commission.go:55: calling [github.com/guild&#45;framework/guild&#45;core/pkg/gerror.Wrap]&#10;at commission.go:63: calling [github.com/guild&#45;framework/guild&#45;core/pkg/gerror.Wrap]&#10;at commission.go:71: calling [github.com/guild&#45;framework/guild&#45;core/pkg/gerror.Wrap]&#10;at commission.go:79: calling [github.com/guild&#45;framework/guild&#45;core/pkg/gerror.Wrap]&#10;at commission.go:87: calling [github.com/guild&#45;framework/guild&#45;core/pkg/gerror.Wrap]&#10;at commission.go:95: calling [github.com/guild&#45;framework/guild&#45;core/pkg/gerror.Wrap]&#10;at commission.go:103: calling [github.com/guild&#45;framework/guild&#45;core/pkg/gerror.Wrap]&#10;at commission.go:112: calling [github.com/guild&#45;framework/guild&#45;core/pkg/gerror.Wrap]">
<path fill="lightblue" stroke="black" stroke-width="0.5" d="M577.58,-52C577.58,-52 299.54,-52 299.54,-52 293.54,-52 287.54,-46 287.54,-40 287.54,-40 287.54,-28 287.54,-28 287.54,-22 293.54,-16 299.54,-16 299.54,-16 577.58,-16 577.58,-16 583.58,-16 589.58,-22 589.58,-28 589.58,-28 589.58,-40 589.58,-40 589.58,-46 583.58,-52 577.58,-52"/>
<text xml:space="preserve" text-anchor="middle" x="438.56" y="-29.32" font-family="Verdana" font-size="14.00">(*CommissionCollector).initializeMetrics</text>
</a>
</g>
</g>
<!-- github.com/guild&#45;framework/guild&#45;core/pkg/gerror.Wrap -->
<g id="node8" class="node">
<title>github.com/guild&#45;framework/guild&#45;core/pkg/gerror.Wrap</title>
<g id="a_node8"><a xlink:title="github.com/guild&#45;framework/guild&#45;core/pkg/gerror.Wrap | defined in errors.go:223">
<path fill="moccasin" stroke="black" stroke-width="1.5" d="M710.37,-184C710.37,-184 674.58,-184 674.58,-184 668.58,-184 662.58,-178 662.58,-172 662.58,-172 662.58,-160 662.58,-160 662.58,-154 668.58,-148 674.58,-148 674.58,-148 710.37,-148 710.37,-148 716.37,-148 722.37,-154 722.37,-160 722.37,-160 722.37,-172 722.37,-172 722.37,-178 716.37,-184 710.37,-184"/>
<text xml:space="preserve" text-anchor="middle" x="692.48" y="-161.32" font-family="Verdana" font-size="14.00">Wrap</text>
</a>
</g>
</g>
<!-- (*github.com/guild&#45;framework/guild&#45;core/pkg/telemetry/collectors.CommissionCollector).initializeMetrics&#45;&gt;github.com/guild&#45;framework/guild&#45;core/pkg/gerror.Wrap -->
<g id="edge7" class="edge">
<title>(*github.com/guild&#45;framework/guild&#45;core/pkg/telemetry/collectors.CommissionCollector).initializeMetrics&#45;&gt;github.com/guild&#45;framework/guild&#45;core/pkg/gerror.Wrap</title>
<g id="a_edge7"><a xlink:title="at commission.go:47: calling [github.com/guild&#45;framework/guild&#45;core/pkg/gerror.Wrap]&#10;at commission.go:55: calling [github.com/guild&#45;framework/guild&#45;core/pkg/gerror.Wrap]&#10;at commission.go:63: calling [github.com/guild&#45;framework/guild&#45;core/pkg/gerror.Wrap]&#10;at commission.go:71: calling [github.com/guild&#45;framework/guild&#45;core/pkg/gerror.Wrap]&#10;at commission.go:79: calling [github.com/guild&#45;framework/guild&#45;core/pkg/gerror.Wrap]&#10;at commission.go:87: calling [github.com/guild&#45;framework/guild&#45;core/pkg/gerror.Wrap]&#10;at commission.go:95: calling [github.com/guild&#45;framework/guild&#45;core/pkg/gerror.Wrap]&#10;at commission.go:103: calling [github.com/guild&#45;framework/guild&#45;core/pkg/gerror.Wrap]&#10;at commission.go:112: calling [github.com/guild&#45;framework/guild&#45;core/pkg/gerror.Wrap]">
<path fill="none" stroke="saddlebrown" d="M588.33,-52.11C601.84,-57.06 614.84,-63.25 626.58,-71 650.82,-87 668.46,-115.48 679.18,-137.1"/>
<polygon fill="saddlebrown" stroke="saddlebrown" points="675.95,-138.45 683.37,-146 682.28,-135.47 675.95,-138.45"/>
</a>
</g>
</g>
<!-- github.com/guild&#45;framework/guild&#45;core/pkg/telemetry/collectors.NewCommissionCollector -->
<g id="node2" class="node">
<title>github.com/guild&#45;framework/guild&#45;core/pkg/telemetry/collectors.NewCommissionCollector</title>
<g id="a_node2"><a xlink:title="github.com/guild&#45;framework/guild&#45;core/pkg/telemetry/collectors.NewCommissionCollector | defined in commission.go:27&#10;at commission.go:31: calling [github.com/guild&#45;framework/guild&#45;core/pkg/gerror.Wrap]&#10;at commission.go:30: calling [(*github.com/guild&#45;framework/guild&#45;core/pkg/telemetry/collectors.CommissionCollector).initializeMetrics]">
<path fill="lightblue" stroke="black" stroke-width="1.5" d="M202.54,-74C202.54,-74 28,-74 28,-74 22,-74 16,-68 16,-62 16,-62 16,-50 16,-50 16,-44 22,-38 28,-38 28,-38 202.54,-38 202.54,-38 208.54,-38 214.54,-44 214.54,-50 214.54,-50 214.54,-62 214.54,-62 214.54,-68 208.54,-74 202.54,-74"/>
<text xml:space="preserve" text-anchor="middle" x="115.27" y="-51.33" font-family="Verdana" font-size="14.00">NewCommissionCollector</text>
</a>
</g>
</g>
<!-- github.com/guild&#45;framework/guild&#45;core/pkg/telemetry/collectors.NewCommissionCollector&#45;&gt;(*github.com/guild&#45;framework/guild&#45;core/pkg/telemetry/collectors.CommissionCollector).initializeMetrics -->
<g id="edge8" class="edge">
<title>github.com/guild&#45;framework/guild&#45;core/pkg/telemetry/collectors.NewCommissionCollector&#45;&gt;(*github.com/guild&#45;framework/guild&#45;core/pkg/telemetry/collectors.CommissionCollector).initializeMetrics</title>
<g id="a_edge8"><a xlink:title="at commission.go:30: calling [(*github.com/guild&#45;framework/guild&#45;core/pkg/telemetry/collectors.CommissionCollector).initializeMetrics]">
<path fill="none" stroke="black" d="M215.29,-49.22C234.67,-47.89 255.46,-46.47 276.26,-45.04"/>
<polygon fill="black" stroke="black" points="276.23,-48.56 285.97,-44.38 275.75,-41.57 276.23,-48.56"/>
</a>
</g>
</g>
<!-- github.com/guild&#45;framework/guild&#45;core/pkg/telemetry/collectors.NewCommissionCollector&#45;&gt;github.com/guild&#45;framework/guild&#45;core/pkg/gerror.Wrap -->
<g id="edge2" class="edge">
<title>github.com/guild&#45;framework/guild&#45;core/pkg/telemetry/collectors.NewCommissionCollector&#45;&gt;github.com/guild&#45;framework/guild&#45;core/pkg/gerror.Wrap</title>
<g id="a_edge2"><a xlink:title="at commission.go:31: calling [github.com/guild&#45;framework/guild&#45;core/pkg/gerror.Wrap]">
<path fill="none" stroke="saddlebrown" d="M215.11,-62.14C348.7,-70.64 572.31,-85.66 589.58,-92 617.75,-102.35 645,-122.87 664.23,-139.69"/>
<polygon fill="saddlebrown" stroke="saddlebrown" points="661.83,-142.24 671.6,-146.33 666.51,-137.04 661.83,-142.24"/>
</a>
</g>
</g>
<!-- (*github.com/guild&#45;framework/guild&#45;core/pkg/telemetry/collectors.ChatCollector).initializeMetrics -->
<g id="node3" class="node">
<title>(*github.com/guild&#45;framework/guild&#45;core/pkg/telemetry/collectors.ChatCollector).initializeMetrics</title>
<g id="a_node3"><a xlink:title="(*github.com/guild&#45;framework/guild&#45;core/pkg/telemetry/collectors.ChatCollector).initializeMetrics | defined in chat.go:37&#10;at chat.go:45: calling [github.com/guild&#45;framework/guild&#45;core/pkg/gerror.Wrap]&#10;at chat.go:54: calling [github.com/guild&#45;framework/guild&#45;core/pkg/gerror.Wrap]&#10;at chat.go:63: calling [github.com/guild&#45;framework/guild&#45;core/pkg/gerror.Wrap]&#10;at chat.go:71: calling [github.com/guild&#45;framework/guild&#45;core/pkg/gerror.Wrap]&#10;at chat.go:80: calling [github.com/guild&#45;framework/guild&#45;core/pkg/gerror.Wrap]&#10;at chat.go:88: calling [github.com/guild&#45;framework/guild&#45;core/pkg/gerror.Wrap]&#10;at chat.go:96: calling [github.com/guild&#45;framework/guild&#45;core/pkg/gerror.Wrap]&#10;at chat.go:104: calling [github.com/guild&#45;framework/guild&#45;core/pkg/gerror.Wrap]">
<path fill="lightblue" stroke="black" stroke-width="0.5" d="M551.33,-140C551.33,-140 325.79,-140 325.79,-140 319.79,-140 313.79,-134 313.79,-128 313.79,-128 313.79,-116 313.79,-116 313.79,-110 319.79,-104 325.79,-104 325.79,-104 551.33,-104 551.33,-104 557.33,-104 563.33,-110 563.33,-116 563.33,-116 563.33,-128 563.33,-128 563.33,-134 557.33,-140 551.33,-140"/>
<text xml:space="preserve" text-anchor="middle" x="438.56" y="-117.33" font-family="Verdana" font-size="14.00">(*ChatCollector).initializeMetrics</text>
</a>
</g>
</g>
<!-- (*github.com/guild&#45;framework/guild&#45;core/pkg/telemetry/collectors.ChatCollector).initializeMetrics&#45;&gt;github.com/guild&#45;framework/guild&#45;core/pkg/gerror.Wrap -->
<g id="edge3" class="edge">
<title>(*github.com/guild&#45;framework/guild&#45;core/pkg/telemetry/collectors.ChatCollector).initializeMetrics&#45;&gt;github.com/guild&#45;framework/guild&#45;core/pkg/gerror.Wrap</title>
<g id="a_edge3"><a xlink:title="at chat.go:45: calling [github.com/guild&#45;framework/guild&#45;core/pkg/gerror.Wrap]&#10;at chat.go:54: calling [github.com/guild&#45;framework/guild&#45;core/pkg/gerror.Wrap]&#10;at chat.go:63: calling [github.com/guild&#45;framework/guild&#45;core/pkg/gerror.Wrap]&#10;at chat.go:71: calling [github.com/guild&#45;framework/guild&#45;core/pkg/gerror.Wrap]&#10;at chat.go:80: calling [github.com/guild&#45;framework/guild&#45;core/pkg/gerror.Wrap]&#10;at chat.go:88: calling [github.com/guild&#45;framework/guild&#45;core/pkg/gerror.Wrap]&#10;at chat.go:96: calling [github.com/guild&#45;framework/guild&#45;core/pkg/gerror.Wrap]&#10;at chat.go:104: calling [github.com/guild&#45;framework/guild&#45;core/pkg/gerror.Wrap]">
<path fill="none" stroke="saddlebrown" d="M543.84,-140.21C581.44,-146.78 621.69,-153.81 650.65,-158.87"/>
<polygon fill="saddlebrown" stroke="saddlebrown" points="649.99,-162.31 660.45,-160.58 651.2,-155.41 649.99,-162.31"/>
</a>
</g>
</g>
<!-- github.com/guild&#45;framework/guild&#45;core/pkg/telemetry/collectors.NewChatCollector -->
<g id="node4" class="node">
<title>github.com/guild&#45;framework/guild&#45;core/pkg/telemetry/collectors.NewChatCollector</title>
<g id="a_node4"><a xlink:title="github.com/guild&#45;framework/guild&#45;core/pkg/telemetry/collectors.NewChatCollector | defined in chat.go:26&#10;at chat.go:30: calling [github.com/guild&#45;framework/guild&#45;core/pkg/gerror.Wrap]&#10;at chat.go:29: calling [(*github.com/guild&#45;framework/guild&#45;core/pkg/telemetry/collectors.ChatCollector).initializeMetrics]">
<path fill="lightblue" stroke="black" stroke-width="1.5" d="M176.29,-162C176.29,-162 54.25,-162 54.25,-162 48.25,-162 42.25,-156 42.25,-150 42.25,-150 42.25,-138 42.25,-138 42.25,-132 48.25,-126 54.25,-126 54.25,-126 176.29,-126 176.29,-126 182.29,-126 188.29,-132 188.29,-138 188.29,-138 188.29,-150 188.29,-150 188.29,-156 182.29,-162 176.29,-162"/>
<text xml:space="preserve" text-anchor="middle" x="115.27" y="-139.32" font-family="Verdana" font-size="14.00">NewChatCollector</text>
</a>
</g>
</g>
<!-- github.com/guild&#45;framework/guild&#45;core/pkg/telemetry/collectors.NewChatCollector&#45;&gt;(*github.com/guild&#45;framework/guild&#45;core/pkg/telemetry/collectors.ChatCollector).initializeMetrics -->
<g id="edge9" class="edge">
<title>github.com/guild&#45;framework/guild&#45;core/pkg/telemetry/collectors.NewChatCollector&#45;&gt;(*github.com/guild&#45;framework/guild&#45;core/pkg/telemetry/collectors.ChatCollector).initializeMetrics</title>
<g id="a_edge9"><a xlink:title="at chat.go:29: calling [(*github.com/guild&#45;framework/guild&#45;core/pkg/telemetry/collectors.ChatCollector).initializeMetrics]">
<path fill="none" stroke="black" d="M188.77,-139.04C222.3,-136.74 263.23,-133.94 302.15,-131.27"/>
<polygon fill="black" stroke="black" points="302.35,-134.77 312.09,-130.59 301.88,-127.78 302.35,-134.77"/>
</a>
</g>
</g>
<!-- github.com/guild&#45;framework/guild&#45;core/pkg/telemetry/collectors.NewChatCollector&#45;&gt;github.com/guild&#45;framework/guild&#45;core/pkg/gerror.Wrap -->
<g id="edge4" class="edge">
<title>github.com/guild&#45;framework/guild&#45;core/pkg/telemetry/collectors.NewChatCollector&#45;&gt;github.com/guild&#45;framework/guild&#45;core/pkg/gerror.Wrap</title>
<g id="a_edge4"><a xlink:title="at chat.go:30: calling [github.com/guild&#45;framework/guild&#45;core/pkg/gerror.Wrap]">
<path fill="none" stroke="saddlebrown" d="M188.76,-148.14C219.25,-149.79 255.11,-151.63 287.54,-153 420.35,-158.63 577.81,-163.04 650.7,-164.96"/>
<polygon fill="saddlebrown" stroke="saddlebrown" points="650.47,-168.46 660.56,-165.22 650.65,-161.46 650.47,-168.46"/>
</a>
</g>
</g>
<!-- (*github.com/guild&#45;framework/guild&#45;core/pkg/telemetry/collectors.SystemCollector).Register -->
<g id="node5" class="node">
<title>(*github.com/guild&#45;framework/guild&#45;core/pkg/telemetry/collectors.SystemCollector).Register</title>
<g id="a_node5"><a xlink:title="(*github.com/guild&#45;framework/guild&#45;core/pkg/telemetry/collectors.SystemCollector).Register | defined in system.go:36&#10;at system.go:47: calling [github.com/guild&#45;framework/guild&#45;core/pkg/gerror.Wrap]&#10;at system.go:58: calling [github.com/guild&#45;framework/guild&#45;core/pkg/gerror.Wrap]&#10;at system.go:69: calling [github.com/guild&#45;framework/guild&#45;core/pkg/gerror.Wrap]&#10;at system.go:79: calling [github.com/guild&#45;framework/guild&#45;core/pkg/gerror.Wrap]&#10;at system.go:89: calling [github.com/guild&#45;framework/guild&#45;core/pkg/gerror.Wrap]&#10;at system.go:100: calling [github.com/guild&#45;framework/guild&#45;core/pkg/gerror.Wrap]&#10;at system.go:110: calling [github.com/guild&#45;framework/guild&#45;core/pkg/gerror.Wrap]&#10;at system.go:121: calling [github.com/guild&#45;framework/guild&#45;core/pkg/gerror.Wrap]&#10;at system.go:131: calling [github.com/guild&#45;framework/guild&#45;core/pkg/gerror.Wrap]&#10;at system.go:140: calling [github.com/guild&#45;framework/guild&#45;core/pkg/gerror.Wrap]">
<path fill="lightblue" stroke="black" stroke-width="1.5" d="M536.71,-228C536.71,-228 340.42,-228 340.42,-228 334.42,-228 328.42,-222 328.42,-216 328.42,-216 328.42,-204 328.42,-204 328.42,-198 334.42,-192 340.42,-192 340.42,-192 536.71,-192 536.71,-192 542.71,-192 548.71,-198 548.71,-204 548.71,-204 548.71,-216 548.71,-216 548.71,-222 542.71,-228 536.71,-228"/>
<text xml:space="preserve" text-anchor="middle" x="438.56" y="-205.32" font-family="Verdana" font-size="14.00">(*SystemCollector).Register</text>
</a>
</g>
</g>
<!-- (*github.com/guild&#45;framework/guild&#45;core/pkg/telemetry/collectors.SystemCollector).Register&#45;&gt;github.com/guild&#45;framework/guild&#45;core/pkg/gerror.Wrap -->
<g id="edge5" class="edge">
<title>(*github.com/guild&#45;framework/guild&#45;core/pkg/telemetry/collectors.SystemCollector).Register&#45;&gt;github.com/guild&#45;framework/guild&#45;core/pkg/gerror.Wrap</title>
<g id="a_edge5"><a xlink:title="at system.go:47: calling [github.com/guild&#45;framework/guild&#45;core/pkg/gerror.Wrap]&#10;at system.go:58: calling [github.com/guild&#45;framework/guild&#45;core/pkg/gerror.Wrap]&#10;at system.go:69: calling [github.com/guild&#45;framework/guild&#45;core/pkg/gerror.Wrap]&#10;at system.go:79: calling [github.com/guild&#45;framework/guild&#45;core/pkg/gerror.Wrap]&#10;at system.go:89: calling [github.com/guild&#45;framework/guild&#45;core/pkg/gerror.Wrap]&#10;at system.go:100: calling [github.com/guild&#45;framework/guild&#45;core/pkg/gerror.Wrap]&#10;at system.go:110: calling [github.com/guild&#45;framework/guild&#45;core/pkg/gerror.Wrap]&#10;at system.go:121: calling [github.com/guild&#45;framework/guild&#45;core/pkg/gerror.Wrap]&#10;at system.go:131: calling [github.com/guild&#45;framework/guild&#45;core/pkg/gerror.Wrap]&#10;at system.go:140: calling [github.com/guild&#45;framework/guild&#45;core/pkg/gerror.Wrap]">
<path fill="none" stroke="saddlebrown" d="M546.76,-191.28C583.6,-184.84 622.63,-178.02 650.86,-173.09"/>
<polygon fill="saddlebrown" stroke="saddlebrown" points="651.14,-176.6 660.39,-171.43 649.94,-169.7 651.14,-176.6"/>
</a>
</g>
</g>
<!-- (*github.com/guild&#45;framework/guild&#45;core/pkg/telemetry/collectors.AgentCollector).initializeMetrics -->
<g id="node6" class="node">
<title>(*github.com/guild&#45;framework/guild&#45;core/pkg/telemetry/collectors.AgentCollector).initializeMetrics</title>
<g id="a_node6"><a xlink:title="(*github.com/guild&#45;framework/guild&#45;core/pkg/telemetry/collectors.AgentCollector).initializeMetrics | defined in agent.go:36&#10;at agent.go:45: calling [github.com/guild&#45;framework/guild&#45;core/pkg/gerror.Wrap]&#10;at agent.go:53: calling [github.com/guild&#45;framework/guild&#45;core/pkg/gerror.Wrap]&#10;at agent.go:61: calling [github.com/guild&#45;framework/guild&#45;core/pkg/gerror.Wrap]&#10;at agent.go:69: calling [github.com/guild&#45;framework/guild&#45;core/pkg/gerror.Wrap]&#10;at agent.go:77: calling [github.com/guild&#45;framework/guild&#45;core/pkg/gerror.Wrap]&#10;at agent.go:85: calling [github.com/guild&#45;framework/guild&#45;core/pkg/gerror.Wrap]&#10;at agent.go:94: calling [github.com/guild&#45;framework/guild&#45;core/pkg/gerror.Wrap]">
<path fill="lightblue" stroke="black" stroke-width="0.5" d="M555.83,-289C555.83,-289 321.29,-289 321.29,-289 315.29,-289 309.29,-283 309.29,-277 309.29,-277 309.29,-265 309.29,-265 309.29,-259 315.29,-253 321.29,-253 321.29,-253 555.83,-253 555.83,-253 561.83,-253 567.83,-259 567.83,-265 567.83,-265 567.83,-277 567.83,-277 567.83,-283 561.83,-289 555.83,-289"/>
<text xml:space="preserve" text-anchor="middle" x="438.56" y="-266.32" font-family="Verdana" font-size="14.00">(*AgentCollector).initializeMetrics</text>
</a>
</g>
</g>
<!-- (*github.com/guild&#45;framework/guild&#45;core/pkg/telemetry/collectors.AgentCollector).initializeMetrics&#45;&gt;github.com/guild&#45;framework/guild&#45;core/pkg/gerror.Wrap -->
<g id="edge6" class="edge">
<title>(*github.com/guild&#45;framework/guild&#45;core/pkg/telemetry/collectors.AgentCollector).initializeMetrics&#45;&gt;github.com/guild&#45;framework/guild&#45;core/pkg/gerror.Wrap</title>
<g id="a_edge6"><a xlink:title="at agent.go:45: calling [github.com/guild&#45;framework/guild&#45;core/pkg/gerror.Wrap]&#10;at agent.go:53: calling [github.com/guild&#45;framework/guild&#45;core/pkg/gerror.Wrap]&#10;at agent.go:61: calling [github.com/guild&#45;framework/guild&#45;core/pkg/gerror.Wrap]&#10;at agent.go:69: calling [github.com/guild&#45;framework/guild&#45;core/pkg/gerror.Wrap]&#10;at agent.go:77: calling [github.com/guild&#45;framework/guild&#45;core/pkg/gerror.Wrap]&#10;at agent.go:85: calling [github.com/guild&#45;framework/guild&#45;core/pkg/gerror.Wrap]&#10;at agent.go:94: calling [github.com/guild&#45;framework/guild&#45;core/pkg/gerror.Wrap]">
<path fill="none" stroke="saddlebrown" d="M556.61,-252.84C567.96,-249.53 579.13,-245.61 589.58,-241 616.81,-228.97 643.77,-208.66 663.11,-192.2"/>
<polygon fill="saddlebrown" stroke="saddlebrown" points="665.32,-194.92 670.56,-185.72 660.72,-189.65 665.32,-194.92"/>
</a>
</g>
</g>
<!-- github.com/guild&#45;framework/guild&#45;core/pkg/telemetry/collectors.NewAgentCollector -->
<g id="node7" class="node">
<title>github.com/guild&#45;framework/guild&#45;core/pkg/telemetry/collectors.NewAgentCollector</title>
<g id="a_node7"><a xlink:title="github.com/guild&#45;framework/guild&#45;core/pkg/telemetry/collectors.NewAgentCollector | defined in agent.go:25&#10;at agent.go:29: calling [github.com/guild&#45;framework/guild&#45;core/pkg/gerror.Wrap]&#10;at agent.go:28: calling [(*github.com/guild&#45;framework/guild&#45;core/pkg/telemetry/collectors.AgentCollector).initializeMetrics]">
<path fill="lightblue" stroke="black" stroke-width="1.5" d="M180.79,-303C180.79,-303 49.75,-303 49.75,-303 43.75,-303 37.75,-297 37.75,-291 37.75,-291 37.75,-279 37.75,-279 37.75,-273 43.75,-267 49.75,-267 49.75,-267 180.79,-267 180.79,-267 186.79,-267 192.79,-273 192.79,-279 192.79,-279 192.79,-291 192.79,-291 192.79,-297 186.79,-303 180.79,-303"/>
<text xml:space="preserve" text-anchor="middle" x="115.27" y="-280.32" font-family="Verdana" font-size="14.00">NewAgentCollector</text>
</a>
</g>
</g>
<!-- github.com/guild&#45;framework/guild&#45;core/pkg/telemetry/collectors.NewAgentCollector&#45;&gt;(*github.com/guild&#45;framework/guild&#45;core/pkg/telemetry/collectors.AgentCollector).initializeMetrics -->
<g id="edge10" class="edge">
<title>github.com/guild&#45;framework/guild&#45;core/pkg/telemetry/collectors.NewAgentCollector&#45;&gt;(*github.com/guild&#45;framework/guild&#45;core/pkg/telemetry/collectors.AgentCollector).initializeMetrics</title>
<g id="a_edge10"><a xlink:title="at agent.go:28: calling [(*github.com/guild&#45;framework/guild&#45;core/pkg/telemetry/collectors.AgentCollector).initializeMetrics]">
<path fill="none" stroke="black" d="M193.23,-281.65C224.69,-280.28 262.09,-278.65 298.05,-277.08"/>
<polygon fill="black" stroke="black" points="297.81,-280.59 307.65,-276.66 297.51,-273.6 297.81,-280.59"/>
</a>
</g>
</g>
<!-- github.com/guild&#45;framework/guild&#45;core/pkg/telemetry/collectors.NewAgentCollector&#45;&gt;github.com/guild&#45;framework/guild&#45;core/pkg/gerror.Wrap -->
<g id="edge1" class="edge">
<title>github.com/guild&#45;framework/guild&#45;core/pkg/telemetry/collectors.NewAgentCollector&#45;&gt;github.com/guild&#45;framework/guild&#45;core/pkg/gerror.Wrap</title>
<g id="a_edge1"><a xlink:title="at agent.go:29: calling [github.com/guild&#45;framework/guild&#45;core/pkg/gerror.Wrap]">
<path fill="none" stroke="saddlebrown" d="M173.15,-303.69C265.93,-330.66 453.17,-370.25 589.58,-302 634.03,-279.76 664.1,-227.9 679.47,-195.03"/>
<polygon fill="saddlebrown" stroke="saddlebrown" points="682.59,-196.62 683.5,-186.07 676.21,-193.75 682.59,-196.62"/>
</a>
</g>
</g>
</g>
</svg>
