<?xml version="1.0" encoding="UTF-8" standalone="no"?>
<!DOCTYPE svg PUBLIC "-//W3C//DTD SVG 1.1//EN"
 "http://www.w3.org/Graphics/SVG/1.1/DTD/svg11.dtd">
<!-- Generated by graphviz version 14.1.1 (20251213.1925)
 -->
<!-- Title: gocallvis Pages: 1 -->
<svg width="613pt" height="246pt"
 viewBox="0.00 0.00 613.00 246.00" xmlns="http://www.w3.org/2000/svg" xmlns:xlink="http://www.w3.org/1999/xlink">
<g id="graph0" class="graph" transform="scale(1 1) rotate(0) translate(0 246)">
<title>gocallvis</title>
<polygon fill="lightgray" stroke="none" points="0,0 0,-246 612.83,-246 612.83,0 0,0"/>
<g id="clust1" class="cluster">
<title>cluster_focus</title>
<polygon fill="#e6ecfa" stroke="black" stroke-width="0.5" points="8,-8 8,-238 604.83,-238 604.83,-8 8,-8"/>
<text xml:space="preserve" text-anchor="middle" x="306.42" y="-216.9" font-family="Arial" font-size="18.00">mocks</text>
</g>
<g id="clust2" class="cluster">
<title>cluster_github.com/guild&#45;framework/guild&#45;core/pkg/kanban</title>
<g id="a_clust2"><a xlink:href="/?f=github.com/guild-framework/guild-core/pkg/kanban" xlink:title="package: github.com/guild&#45;framework/guild&#45;core/pkg/kanban">
<polygon fill="lightyellow" stroke="black" stroke-width="0.8" points="405.54,-16 405.54,-96 596.83,-96 596.83,-16 405.54,-16"/>
<text xml:space="preserve" text-anchor="middle" x="501.19" y="-76.8" font-family="Tahoma bold" font-size="16.00">kanban</text>
</a>
</g>
</g>
<!-- (*github.com/guild&#45;framework/guild&#45;core/pkg/orchestrator/mocks.MockKanbanManager).UpdateTaskStatus -->
<g id="node1" class="node">
<title>(*github.com/guild&#45;framework/guild&#45;core/pkg/orchestrator/mocks.MockKanbanManager).UpdateTaskStatus</title>
<g id="a_node1"><a xlink:title="(*github.com/guild&#45;framework/guild&#45;core/pkg/orchestrator/mocks.MockKanbanManager).UpdateTaskStatus | defined in mock_kanban.go:60&#10;at mock_kanban.go:85: calling [(*github.com/guild&#45;framework/guild&#45;core/pkg/kanban.Task).UpdateStatus]">
<path fill="lightblue" stroke="black" stroke-width="1.5" d="M328.54,-60C328.54,-60 28,-60 28,-60 22,-60 16,-54 16,-48 16,-48 16,-36 16,-36 16,-30 22,-24 28,-24 28,-24 328.54,-24 328.54,-24 334.54,-24 340.54,-30 340.54,-36 340.54,-36 340.54,-48 340.54,-48 340.54,-54 334.54,-60 328.54,-60"/>
<text xml:space="preserve" text-anchor="middle" x="178.27" y="-37.33" font-family="Verdana" font-size="14.00">(*MockKanbanManager).UpdateTaskStatus</text>
</a>
</g>
</g>
<!-- (*github.com/guild&#45;framework/guild&#45;core/pkg/kanban.Task).UpdateStatus -->
<g id="node6" class="node">
<title>(*github.com/guild&#45;framework/guild&#45;core/pkg/kanban.Task).UpdateStatus</title>
<g id="a_node6"><a xlink:title="(*github.com/guild&#45;framework/guild&#45;core/pkg/kanban.Task).UpdateStatus | defined in taskmodel.go:143">
<path fill="moccasin" stroke="black" stroke-width="1.5" d="M576.83,-60C576.83,-60 425.54,-60 425.54,-60 419.54,-60 413.54,-54 413.54,-48 413.54,-48 413.54,-36 413.54,-36 413.54,-30 419.54,-24 425.54,-24 425.54,-24 576.83,-24 576.83,-24 582.83,-24 588.83,-30 588.83,-36 588.83,-36 588.83,-48 588.83,-48 588.83,-54 582.83,-60 576.83,-60"/>
<text xml:space="preserve" text-anchor="middle" x="501.19" y="-37.33" font-family="Verdana" font-size="14.00">(*Task).UpdateStatus</text>
</a>
</g>
</g>
<!-- (*github.com/guild&#45;framework/guild&#45;core/pkg/orchestrator/mocks.MockKanbanManager).UpdateTaskStatus&#45;&gt;(*github.com/guild&#45;framework/guild&#45;core/pkg/kanban.Task).UpdateStatus -->
<g id="edge2" class="edge">
<title>(*github.com/guild&#45;framework/guild&#45;core/pkg/orchestrator/mocks.MockKanbanManager).UpdateTaskStatus&#45;&gt;(*github.com/guild&#45;framework/guild&#45;core/pkg/kanban.Task).UpdateStatus</title>
<g id="a_edge2"><a xlink:title="at mock_kanban.go:85: calling [(*github.com/guild&#45;framework/guild&#45;core/pkg/kanban.Task).UpdateStatus]">
<path fill="none" stroke="saddlebrown" d="M341.14,-42C361.75,-42 382.32,-42 401.51,-42"/>
<polygon fill="saddlebrown" stroke="saddlebrown" points="401.43,-45.5 411.43,-42 401.43,-38.5 401.43,-45.5"/>
</a>
</g>
</g>
<!-- (*github.com/guild&#45;framework/guild&#45;core/pkg/orchestrator/mocks.MockAgentFactory).RegisterAgent -->
<g id="node2" class="node">
<title>(*github.com/guild&#45;framework/guild&#45;core/pkg/orchestrator/mocks.MockAgentFactory).RegisterAgent</title>
<g id="a_node2"><a xlink:title="(*github.com/guild&#45;framework/guild&#45;core/pkg/orchestrator/mocks.MockAgentFactory).RegisterAgent | defined in mock_agent_factory.go:48&#10;at mock_agent_factory.go:52: calling [(*github.com/guild&#45;framework/guild&#45;core/pkg/orchestrator/mocks.MockAgent).GetID]">
<path fill="lightblue" stroke="black" stroke-width="1.5" d="M304.54,-140C304.54,-140 52,-140 52,-140 46,-140 40,-134 40,-128 40,-128 40,-116 40,-116 40,-110 46,-104 52,-104 52,-104 304.54,-104 304.54,-104 310.54,-104 316.54,-110 316.54,-116 316.54,-116 316.54,-128 316.54,-128 316.54,-134 310.54,-140 304.54,-140"/>
<text xml:space="preserve" text-anchor="middle" x="178.27" y="-117.33" font-family="Verdana" font-size="14.00">(*MockAgentFactory).RegisterAgent</text>
</a>
</g>
</g>
<!-- (*github.com/guild&#45;framework/guild&#45;core/pkg/orchestrator/mocks.MockAgent).GetID -->
<g id="node3" class="node">
<title>(*github.com/guild&#45;framework/guild&#45;core/pkg/orchestrator/mocks.MockAgent).GetID</title>
<g id="a_node3"><a xlink:title="(*github.com/guild&#45;framework/guild&#45;core/pkg/orchestrator/mocks.MockAgent).GetID | defined in mock_agent.go:42">
<path fill="lightblue" stroke="black" stroke-width="1.5" d="M572.71,-140C572.71,-140 429.67,-140 429.67,-140 423.67,-140 417.67,-134 417.67,-128 417.67,-128 417.67,-116 417.67,-116 417.67,-110 423.67,-104 429.67,-104 429.67,-104 572.71,-104 572.71,-104 578.71,-104 584.71,-110 584.71,-116 584.71,-116 584.71,-128 584.71,-128 584.71,-134 578.71,-140 572.71,-140"/>
<text xml:space="preserve" text-anchor="middle" x="501.19" y="-117.33" font-family="Verdana" font-size="14.00">(*MockAgent).GetID</text>
</a>
</g>
</g>
<!-- (*github.com/guild&#45;framework/guild&#45;core/pkg/orchestrator/mocks.MockAgentFactory).RegisterAgent&#45;&gt;(*github.com/guild&#45;framework/guild&#45;core/pkg/orchestrator/mocks.MockAgent).GetID -->
<g id="edge3" class="edge">
<title>(*github.com/guild&#45;framework/guild&#45;core/pkg/orchestrator/mocks.MockAgentFactory).RegisterAgent&#45;&gt;(*github.com/guild&#45;framework/guild&#45;core/pkg/orchestrator/mocks.MockAgent).GetID</title>
<g id="a_edge3"><a xlink:title="at mock_agent_factory.go:52: calling [(*github.com/guild&#45;framework/guild&#45;core/pkg/orchestrator/mocks.MockAgent).GetID]">
<path fill="none" stroke="black" d="M317.23,-122C347.09,-122 378.01,-122 405.75,-122"/>
<polygon fill="black" stroke="black" points="405.51,-125.5 415.51,-122 405.51,-118.5 405.51,-125.5"/>
</a>
</g>
</g>
<!-- (*github.com/guild&#45;framework/guild&#45;core/pkg/orchestrator/mocks.MockAgentFactory).CreateAgent -->
<g id="node4" class="node">
<title>(*github.com/guild&#45;framework/guild&#45;core/pkg/orchestrator/mocks.MockAgentFactory).CreateAgent</title>
<g id="a_node4"><a xlink:title="(*github.com/guild&#45;framework/guild&#45;core/pkg/orchestrator/mocks.MockAgentFactory).CreateAgent | defined in mock_agent_factory.go:27&#10;at mock_agent_factory.go:39: calling [github.com/guild&#45;framework/guild&#45;core/pkg/orchestrator/mocks.NewMockAgent]">
<path fill="lightblue" stroke="black" stroke-width="1.5" d="M298.54,-201C298.54,-201 58,-201 58,-201 52,-201 46,-195 46,-189 46,-189 46,-177 46,-177 46,-171 52,-165 58,-165 58,-165 298.54,-165 298.54,-165 304.54,-165 310.54,-171 310.54,-177 310.54,-177 310.54,-189 310.54,-189 310.54,-195 304.54,-201 298.54,-201"/>
<text xml:space="preserve" text-anchor="middle" x="178.27" y="-178.32" font-family="Verdana" font-size="14.00">(*MockAgentFactory).CreateAgent</text>
</a>
</g>
</g>
<!-- github.com/guild&#45;framework/guild&#45;core/pkg/orchestrator/mocks.NewMockAgent -->
<g id="node5" class="node">
<title>github.com/guild&#45;framework/guild&#45;core/pkg/orchestrator/mocks.NewMockAgent</title>
<g id="a_node5"><a xlink:title="github.com/guild&#45;framework/guild&#45;core/pkg/orchestrator/mocks.NewMockAgent | defined in mock_agent.go:22">
<path fill="lightblue" stroke="black" stroke-width="1.5" d="M554.33,-201C554.33,-201 448.04,-201 448.04,-201 442.04,-201 436.04,-195 436.04,-189 436.04,-189 436.04,-177 436.04,-177 436.04,-171 442.04,-165 448.04,-165 448.04,-165 554.33,-165 554.33,-165 560.33,-165 566.33,-171 566.33,-177 566.33,-177 566.33,-189 566.33,-189 566.33,-195 560.33,-201 554.33,-201"/>
<text xml:space="preserve" text-anchor="middle" x="501.19" y="-178.32" font-family="Verdana" font-size="14.00">NewMockAgent</text>
</a>
</g>
</g>
<!-- (*github.com/guild&#45;framework/guild&#45;core/pkg/orchestrator/mocks.MockAgentFactory).CreateAgent&#45;&gt;github.com/guild&#45;framework/guild&#45;core/pkg/orchestrator/mocks.NewMockAgent -->
<g id="edge1" class="edge">
<title>(*github.com/guild&#45;framework/guild&#45;core/pkg/orchestrator/mocks.MockAgentFactory).CreateAgent&#45;&gt;github.com/guild&#45;framework/guild&#45;core/pkg/orchestrator/mocks.NewMockAgent</title>
<g id="a_edge1"><a xlink:title="at mock_agent_factory.go:39: calling [github.com/guild&#45;framework/guild&#45;core/pkg/orchestrator/mocks.NewMockAgent]">
<path fill="none" stroke="black" d="M311.19,-183C349.71,-183 390.49,-183 424.28,-183"/>
<polygon fill="black" stroke="black" points="423.94,-186.5 433.94,-183 423.94,-179.5 423.94,-186.5"/>
</a>
</g>
</g>
</g>
</svg>
