<?xml version="1.0" encoding="UTF-8" standalone="no"?>
<!DOCTYPE svg PUBLIC "-//W3C//DTD SVG 1.1//EN"
 "http://www.w3.org/Graphics/SVG/1.1/DTD/svg11.dtd">
<!-- Generated by graphviz version 14.1.1 (20251213.1925)
 -->
<!-- Title: gocallvis Pages: 1 -->
<svg width="1000pt" height="675pt"
 viewBox="0.00 0.00 1000.00 675.00" xmlns="http://www.w3.org/2000/svg" xmlns:xlink="http://www.w3.org/1999/xlink">
<g id="graph0" class="graph" transform="scale(1 1) rotate(0) translate(0 675)">
<title>gocallvis</title>
<polygon fill="lightgray" stroke="none" points="0,0 0,-675 999.87,-675 999.87,0 0,0"/>
<g id="clust1" class="cluster">
<title>cluster_focus</title>
<polygon fill="#e6ecfa" stroke="black" stroke-width="0.5" points="8,-8 8,-667 991.87,-667 991.87,-8 8,-8"/>
<text xml:space="preserve" text-anchor="middle" x="499.94" y="-645.9" font-family="Arial" font-size="18.00">objective</text>
</g>
<g id="clust2" class="cluster">
<title>cluster_github.com/guild&#45;framework/guild&#45;core/pkg/commission</title>
<g id="a_clust2"><a xlink:href="/?f=github.com/guild-framework/guild-core/pkg/commission" xlink:title="package: github.com/guild&#45;framework/guild&#45;core/pkg/commission">
<polygon fill="lightyellow" stroke="black" stroke-width="0.8" points="745.71,-16 745.71,-157 945.25,-157 945.25,-16 745.71,-16"/>
<text xml:space="preserve" text-anchor="middle" x="845.48" y="-137.8" font-family="Tahoma bold" font-size="16.00">commission</text>
</a>
</g>
</g>
<g id="clust3" class="cluster">
<title>cluster_github.com/guild&#45;framework/guild&#45;core/pkg/gerror</title>
<g id="a_clust3"><a xlink:href="/?f=github.com/guild-framework/guild-core/pkg/gerror" xlink:title="package: github.com/guild&#45;framework/guild&#45;core/pkg/gerror">
<polygon fill="lightyellow" stroke="black" stroke-width="0.8" points="721.33,-218 721.33,-481 969.62,-481 969.62,-218 721.33,-218"/>
<text xml:space="preserve" text-anchor="middle" x="845.48" y="-461.8" font-family="Tahoma bold" font-size="16.00">gerror</text>
</a>
</g>
</g>
<g id="clust4" class="cluster">
<title>cluster_github.com/guild&#45;framework/guild&#45;core/pkg/prompts</title>
<g id="a_clust4"><a xlink:href="/?f=github.com/guild-framework/guild-core/pkg/prompts" xlink:title="package: github.com/guild&#45;framework/guild&#45;core/pkg/prompts">
<polygon fill="lightyellow" stroke="black" stroke-width="0.8" points="707.08,-489 707.08,-630 983.87,-630 983.87,-489 707.08,-489"/>
<text xml:space="preserve" text-anchor="middle" x="845.48" y="-610.8" font-family="Tahoma bold" font-size="16.00">prompts</text>
</a>
</g>
</g>
<!-- github.com/guild&#45;framework/guild&#45;core/pkg/generator/commission.newGenerator -->
<g id="node1" class="node">
<title>github.com/guild&#45;framework/guild&#45;core/pkg/generator/commission.newGenerator</title>
<g id="a_node1"><a xlink:title="github.com/guild&#45;framework/guild&#45;core/pkg/generator/commission.newGenerator | defined in generator.go:25&#10;at generator.go:27: calling [github.com/guild&#45;framework/guild&#45;core/pkg/prompts.NewPromptManager]&#10;at generator.go:29: calling [github.com/guild&#45;framework/guild&#45;core/pkg/gerror.Wrap]&#10;at generator.go:31: calling [(*github.com/guild&#45;framework/guild&#45;core/pkg/gerror.GuildError).WithOperation]&#10;at generator.go:30: calling [(*github.com/guild&#45;framework/guild&#45;core/pkg/gerror.GuildError).WithComponent]">
<path fill="lightblue" stroke="black" stroke-width="0.5" d="M547.95,-536C547.95,-536 450.66,-536 450.66,-536 444.66,-536 438.66,-530 438.66,-524 438.66,-524 438.66,-512 438.66,-512 438.66,-506 444.66,-500 450.66,-500 450.66,-500 547.95,-500 547.95,-500 553.95,-500 559.95,-506 559.95,-512 559.95,-512 559.95,-524 559.95,-524 559.95,-530 553.95,-536 547.95,-536"/>
<text xml:space="preserve" text-anchor="middle" x="499.31" y="-513.33" font-family="Verdana" font-size="14.00">newGenerator</text>
</a>
</g>
</g>
<!-- github.com/guild&#45;framework/guild&#45;core/pkg/gerror.Wrap -->
<g id="node9" class="node">
<title>github.com/guild&#45;framework/guild&#45;core/pkg/gerror.Wrap</title>
<g id="a_node9"><a xlink:title="github.com/guild&#45;framework/guild&#45;core/pkg/gerror.Wrap | defined in errors.go:223">
<path fill="moccasin" stroke="black" stroke-width="1.5" d="M863.37,-323C863.37,-323 827.58,-323 827.58,-323 821.58,-323 815.58,-317 815.58,-311 815.58,-311 815.58,-299 815.58,-299 815.58,-293 821.58,-287 827.58,-287 827.58,-287 863.37,-287 863.37,-287 869.37,-287 875.37,-293 875.37,-299 875.37,-299 875.37,-311 875.37,-311 875.37,-317 869.37,-323 863.37,-323"/>
<text xml:space="preserve" text-anchor="middle" x="845.48" y="-300.32" font-family="Verdana" font-size="14.00">Wrap</text>
</a>
</g>
</g>
<!-- github.com/guild&#45;framework/guild&#45;core/pkg/generator/commission.newGenerator&#45;&gt;github.com/guild&#45;framework/guild&#45;core/pkg/gerror.Wrap -->
<g id="edge2" class="edge">
<title>github.com/guild&#45;framework/guild&#45;core/pkg/generator/commission.newGenerator&#45;&gt;github.com/guild&#45;framework/guild&#45;core/pkg/gerror.Wrap</title>
<g id="a_edge2"><a xlink:title="at generator.go:29: calling [github.com/guild&#45;framework/guild&#45;core/pkg/gerror.Wrap]">
<path fill="none" stroke="saddlebrown" d="M515.06,-500C546.35,-463.08 623.38,-378.71 707.08,-336 737.42,-320.52 775.43,-312.7 803.77,-308.8"/>
<polygon fill="saddlebrown" stroke="saddlebrown" points="803.9,-312.31 813.39,-307.59 803.03,-305.37 803.9,-312.31"/>
</a>
</g>
</g>
<!-- (*github.com/guild&#45;framework/guild&#45;core/pkg/gerror.GuildError).WithComponent -->
<g id="node10" class="node">
<title>(*github.com/guild&#45;framework/guild&#45;core/pkg/gerror.GuildError).WithComponent</title>
<g id="a_node10"><a xlink:title="(*github.com/guild&#45;framework/guild&#45;core/pkg/gerror.GuildError).WithComponent | defined in errors.go:156">
<path fill="moccasin" stroke="black" stroke-width="1.5" d="M949.62,-445C949.62,-445 741.33,-445 741.33,-445 735.33,-445 729.33,-439 729.33,-433 729.33,-433 729.33,-421 729.33,-421 729.33,-415 735.33,-409 741.33,-409 741.33,-409 949.62,-409 949.62,-409 955.62,-409 961.62,-415 961.62,-421 961.62,-421 961.62,-433 961.62,-433 961.62,-439 955.62,-445 949.62,-445"/>
<text xml:space="preserve" text-anchor="middle" x="845.48" y="-422.32" font-family="Verdana" font-size="14.00">(*GuildError).WithComponent</text>
</a>
</g>
</g>
<!-- github.com/guild&#45;framework/guild&#45;core/pkg/generator/commission.newGenerator&#45;&gt;(*github.com/guild&#45;framework/guild&#45;core/pkg/gerror.GuildError).WithComponent -->
<g id="edge19" class="edge">
<title>github.com/guild&#45;framework/guild&#45;core/pkg/generator/commission.newGenerator&#45;&gt;(*github.com/guild&#45;framework/guild&#45;core/pkg/gerror.GuildError).WithComponent</title>
<g id="a_edge19"><a xlink:title="at generator.go:30: calling [(*github.com/guild&#45;framework/guild&#45;core/pkg/gerror.GuildError).WithComponent]">
<path fill="none" stroke="saddlebrown" d="M560.09,-510.82C595.11,-505.91 640,-498.39 679.08,-488 716.95,-477.93 758.31,-462.68 790.19,-449.94"/>
<polygon fill="saddlebrown" stroke="saddlebrown" points="791.26,-453.29 799.22,-446.3 788.64,-446.8 791.26,-453.29"/>
</a>
</g>
</g>
<!-- (*github.com/guild&#45;framework/guild&#45;core/pkg/gerror.GuildError).WithOperation -->
<g id="node11" class="node">
<title>(*github.com/guild&#45;framework/guild&#45;core/pkg/gerror.GuildError).WithOperation</title>
<g id="a_node11"><a xlink:title="(*github.com/guild&#45;framework/guild&#45;core/pkg/gerror.GuildError).WithOperation | defined in errors.go:162">
<path fill="moccasin" stroke="black" stroke-width="1.5" d="M944,-384C944,-384 746.96,-384 746.96,-384 740.96,-384 734.96,-378 734.96,-372 734.96,-372 734.96,-360 734.96,-360 734.96,-354 740.96,-348 746.96,-348 746.96,-348 944,-348 944,-348 950,-348 956,-354 956,-360 956,-360 956,-372 956,-372 956,-378 950,-384 944,-384"/>
<text xml:space="preserve" text-anchor="middle" x="845.48" y="-361.32" font-family="Verdana" font-size="14.00">(*GuildError).WithOperation</text>
</a>
</g>
</g>
<!-- github.com/guild&#45;framework/guild&#45;core/pkg/generator/commission.newGenerator&#45;&gt;(*github.com/guild&#45;framework/guild&#45;core/pkg/gerror.GuildError).WithOperation -->
<g id="edge6" class="edge">
<title>github.com/guild&#45;framework/guild&#45;core/pkg/generator/commission.newGenerator&#45;&gt;(*github.com/guild&#45;framework/guild&#45;core/pkg/gerror.GuildError).WithOperation</title>
<g id="a_edge6"><a xlink:title="at generator.go:31: calling [(*github.com/guild&#45;framework/guild&#45;core/pkg/gerror.GuildError).WithOperation]">
<path fill="none" stroke="saddlebrown" d="M525.43,-499.82C563.09,-473.4 637.24,-424.55 707.08,-397 715.66,-393.61 724.7,-390.55 733.87,-387.79"/>
<polygon fill="saddlebrown" stroke="saddlebrown" points="734.58,-391.23 743.23,-385.11 732.65,-384.5 734.58,-391.23"/>
</a>
</g>
</g>
<!-- github.com/guild&#45;framework/guild&#45;core/pkg/prompts.NewPromptManager -->
<g id="node13" class="node">
<title>github.com/guild&#45;framework/guild&#45;core/pkg/prompts.NewPromptManager</title>
<g id="a_node13"><a xlink:title="github.com/guild&#45;framework/guild&#45;core/pkg/prompts.NewPromptManager | defined in manager.go:22">
<path fill="moccasin" stroke="black" stroke-width="1.5" d="M915.5,-594C915.5,-594 775.46,-594 775.46,-594 769.46,-594 763.46,-588 763.46,-582 763.46,-582 763.46,-570 763.46,-570 763.46,-564 769.46,-558 775.46,-558 775.46,-558 915.5,-558 915.5,-558 921.5,-558 927.5,-564 927.5,-570 927.5,-570 927.5,-582 927.5,-582 927.5,-588 921.5,-594 915.5,-594"/>
<text xml:space="preserve" text-anchor="middle" x="845.48" y="-571.33" font-family="Verdana" font-size="14.00">NewPromptManager</text>
</a>
</g>
</g>
<!-- github.com/guild&#45;framework/guild&#45;core/pkg/generator/commission.newGenerator&#45;&gt;github.com/guild&#45;framework/guild&#45;core/pkg/prompts.NewPromptManager -->
<g id="edge1" class="edge">
<title>github.com/guild&#45;framework/guild&#45;core/pkg/generator/commission.newGenerator&#45;&gt;github.com/guild&#45;framework/guild&#45;core/pkg/prompts.NewPromptManager</title>
<g id="a_edge1"><a xlink:title="at generator.go:27: calling [github.com/guild&#45;framework/guild&#45;core/pkg/prompts.NewPromptManager]">
<path fill="none" stroke="saddlebrown" d="M559.87,-528.04C612.66,-536.93 690.62,-550.07 751.61,-560.35"/>
<polygon fill="saddlebrown" stroke="saddlebrown" points="750.85,-563.77 761.29,-561.98 752.01,-556.87 750.85,-563.77"/>
</a>
</g>
</g>
<!-- github.com/guild&#45;framework/guild&#45;core/pkg/generator/commission.DefaultGeneratorFactory -->
<g id="node2" class="node">
<title>github.com/guild&#45;framework/guild&#45;core/pkg/generator/commission.DefaultGeneratorFactory</title>
<g id="a_node2"><a xlink:title="github.com/guild&#45;framework/guild&#45;core/pkg/generator/commission.DefaultGeneratorFactory | defined in generator.go:41&#10;at generator.go:42: calling [github.com/guild&#45;framework/guild&#45;core/pkg/generator/commission.newGenerator]">
<path fill="lightblue" stroke="black" stroke-width="1.5" d="M234.79,-536C234.79,-536 64.75,-536 64.75,-536 58.75,-536 52.75,-530 52.75,-524 52.75,-524 52.75,-512 52.75,-512 52.75,-506 58.75,-500 64.75,-500 64.75,-500 234.79,-500 234.79,-500 240.79,-500 246.79,-506 246.79,-512 246.79,-512 246.79,-524 246.79,-524 246.79,-530 240.79,-536 234.79,-536"/>
<text xml:space="preserve" text-anchor="middle" x="149.77" y="-513.33" font-family="Verdana" font-size="14.00">DefaultGeneratorFactory</text>
</a>
</g>
</g>
<!-- github.com/guild&#45;framework/guild&#45;core/pkg/generator/commission.DefaultGeneratorFactory&#45;&gt;github.com/guild&#45;framework/guild&#45;core/pkg/generator/commission.newGenerator -->
<g id="edge7" class="edge">
<title>github.com/guild&#45;framework/guild&#45;core/pkg/generator/commission.DefaultGeneratorFactory&#45;&gt;github.com/guild&#45;framework/guild&#45;core/pkg/generator/commission.newGenerator</title>
<g id="a_edge7"><a xlink:title="at generator.go:42: calling [github.com/guild&#45;framework/guild&#45;core/pkg/generator/commission.newGenerator]">
<path fill="none" stroke="black" d="M247.12,-518C304.17,-518 375.23,-518 427.19,-518"/>
<polygon fill="black" stroke="black" points="427.12,-521.5 437.12,-518 427.12,-514.5 427.12,-521.5"/>
</a>
</g>
</g>
<!-- (*github.com/guild&#45;framework/guild&#45;core/pkg/generator/commission.Generator).GenerateCommission -->
<g id="node3" class="node">
<title>(*github.com/guild&#45;framework/guild&#45;core/pkg/generator/commission.Generator).GenerateCommission</title>
<g id="a_node3"><a xlink:title="(*github.com/guild&#45;framework/guild&#45;core/pkg/generator/commission.Generator).GenerateCommission | defined in generator.go:46&#10;at generator.go:57: calling [(*github.com/guild&#45;framework/guild&#45;core/pkg/gerror.GuildError).WithOperation]&#10;at generator.go:66: calling [(*github.com/guild&#45;framework/guild&#45;core/pkg/gerror.GuildError).WithOperation]&#10;at generator.go:75: calling [(*github.com/guild&#45;framework/guild&#45;core/pkg/gerror.GuildError).WithOperation]&#10;at generator.go:92: calling [(*github.com/guild&#45;framework/guild&#45;core/pkg/gerror.GuildError).WithOperation]&#10;at generator.go:53: calling [(*github.com/guild&#45;framework/guild&#45;core/pkg/prompts.PromptManager).RenderPrompt]&#10;at generator.go:56: calling [(*github.com/guild&#45;framework/guild&#45;core/pkg/gerror.GuildError).WithComponent]&#10;at generator.go:65: calling [(*github.com/guild&#45;framework/guild&#45;core/pkg/gerror.GuildError).WithComponent]&#10;at generator.go:74: calling [(*github.com/guild&#45;framework/guild&#45;core/pkg/gerror.GuildError).WithComponent]&#10;at generator.go:91: calling [(*github.com/guild&#45;framework/guild&#45;core/pkg/gerror.GuildError).WithComponent]&#10;at generator.go:58: calling [(*github.com/guild&#45;framework/guild&#45;core/pkg/gerror.GuildError).WithDetails]&#10;at generator.go:67: calling [(*github.com/guild&#45;framework/guild&#45;core/pkg/gerror.GuildError).WithDetails]&#10;at generator.go:76: calling [(*github.com/guild&#45;framework/guild&#45;core/pkg/gerror.GuildError).WithDetails]&#10;at generator.go:77: calling [(*github.com/guild&#45;framework/guild&#45;core/pkg/gerror.GuildError).WithDetails]&#10;at generator.go:93: calling [(*github.com/guild&#45;framework/guild&#45;core/pkg/gerror.GuildError).WithDetails]&#10;at generator.go:94: calling [(*github.com/guild&#45;framework/guild&#45;core/pkg/gerror.GuildError).WithDetails]&#10;at generator.go:55: calling [github.com/guild&#45;framework/guild&#45;core/pkg/gerror.Wrap]&#10;at generator.go:64: calling [github.com/guild&#45;framework/guild&#45;core/pkg/gerror.Wrap]&#10;at generator.go:73: calling [github.com/guild&#45;framework/guild&#45;core/pkg/gerror.Wrap]&#10;at generator.go:90: calling [github.com/guild&#45;framework/guild&#45;core/pkg/gerror.Wrap]&#10;at generator.go:79: calling [(*github.com/guild&#45;framework/guild&#45;core/pkg/generator/commission.Generator).GenerateCommission$1]&#10;at generator.go:88: calling [github.com/guild&#45;framework/guild&#45;core/pkg/commission.ParseFile]">
<path fill="lightblue" stroke="black" stroke-width="1.5" d="M271.54,-347C271.54,-347 28,-347 28,-347 22,-347 16,-341 16,-335 16,-335 16,-323 16,-323 16,-317 22,-311 28,-311 28,-311 271.54,-311 271.54,-311 277.54,-311 283.54,-317 283.54,-323 283.54,-323 283.54,-335 283.54,-335 283.54,-341 277.54,-347 271.54,-347"/>
<text xml:space="preserve" text-anchor="middle" x="149.77" y="-324.32" font-family="Verdana" font-size="14.00">(*Generator).GenerateCommission</text>
</a>
</g>
</g>
<!-- (*github.com/guild&#45;framework/guild&#45;core/pkg/generator/commission.Generator).GenerateCommission$1 -->
<g id="node4" class="node">
<title>(*github.com/guild&#45;framework/guild&#45;core/pkg/generator/commission.Generator).GenerateCommission$1</title>
<g id="a_node4"><a xlink:title="(*github.com/guild&#45;framework/guild&#45;core/pkg/generator/commission.Generator).GenerateCommission$1 | defined in generator.go:79&#10;at generator.go:82: calling [(*github.com/guild&#45;framework/guild&#45;core/pkg/gerror.GuildError).WithComponent]&#10;at generator.go:81: calling [github.com/guild&#45;framework/guild&#45;core/pkg/gerror.Wrap]&#10;at generator.go:83: calling [(*github.com/guild&#45;framework/guild&#45;core/pkg/gerror.GuildError).WithOperation]">
<polygon fill="lightblue" stroke="black" stroke-dasharray="1,5" points="642.08,-347 356.54,-347 356.54,-311 642.08,-311 642.08,-347"/>
<text xml:space="preserve" text-anchor="middle" x="499.31" y="-324.32" font-family="Verdana" font-size="14.00">(*Generator).GenerateCommission$1</text>
</a>
</g>
</g>
<!-- (*github.com/guild&#45;framework/guild&#45;core/pkg/generator/commission.Generator).GenerateCommission&#45;&gt;(*github.com/guild&#45;framework/guild&#45;core/pkg/generator/commission.Generator).GenerateCommission$1 -->
<g id="edge14" class="edge">
<title>(*github.com/guild&#45;framework/guild&#45;core/pkg/generator/commission.Generator).GenerateCommission&#45;&gt;(*github.com/guild&#45;framework/guild&#45;core/pkg/generator/commission.Generator).GenerateCommission$1</title>
<g id="a_edge14"><a xlink:title="at generator.go:79: calling [(*github.com/guild&#45;framework/guild&#45;core/pkg/generator/commission.Generator).GenerateCommission$1]">
<path fill="none" stroke="black" d="M284.14,-329C298.03,-329 312.28,-329 326.52,-329"/>
<polygon fill="black" stroke="black" points="344.55,-332.5 354.55,-329 344.55,-325.5 344.55,-332.5"/>
<polyline fill="none" stroke="black" points="344.05,-329 339.05,-329"/>
<polygon fill="none" stroke="black" points="326.14,-329 332.14,-325 338.14,-329 332.14,-333 326.14,-329"/>
</a>
</g>
</g>
<!-- github.com/guild&#45;framework/guild&#45;core/pkg/commission.ParseFile -->
<g id="node7" class="node">
<title>github.com/guild&#45;framework/guild&#45;core/pkg/commission.ParseFile</title>
<g id="a_node7"><a xlink:title="github.com/guild&#45;framework/guild&#45;core/pkg/commission.ParseFile | defined in parser.go:139">
<path fill="moccasin" stroke="black" stroke-width="1.5" d="M876.12,-60C876.12,-60 814.83,-60 814.83,-60 808.83,-60 802.83,-54 802.83,-48 802.83,-48 802.83,-36 802.83,-36 802.83,-30 808.83,-24 814.83,-24 814.83,-24 876.12,-24 876.12,-24 882.12,-24 888.12,-30 888.12,-36 888.12,-36 888.12,-48 888.12,-48 888.12,-54 882.12,-60 876.12,-60"/>
<text xml:space="preserve" text-anchor="middle" x="845.48" y="-37.33" font-family="Verdana" font-size="14.00">ParseFile</text>
</a>
</g>
</g>
<!-- (*github.com/guild&#45;framework/guild&#45;core/pkg/generator/commission.Generator).GenerateCommission&#45;&gt;github.com/guild&#45;framework/guild&#45;core/pkg/commission.ParseFile -->
<g id="edge20" class="edge">
<title>(*github.com/guild&#45;framework/guild&#45;core/pkg/generator/commission.Generator).GenerateCommission&#45;&gt;github.com/guild&#45;framework/guild&#45;core/pkg/commission.ParseFile</title>
<g id="a_edge20"><a xlink:title="at generator.go:88: calling [github.com/guild&#45;framework/guild&#45;core/pkg/commission.ParseFile]">
<path fill="none" stroke="saddlebrown" d="M164.34,-310.45C194.22,-271.09 269.96,-179.21 356.54,-135 501.26,-61.09 697.31,-45.6 790.7,-42.57"/>
<polygon fill="saddlebrown" stroke="saddlebrown" points="790.7,-46.07 800.6,-42.29 790.5,-39.07 790.7,-46.07"/>
</a>
</g>
</g>
<!-- (*github.com/guild&#45;framework/guild&#45;core/pkg/generator/commission.Generator).GenerateCommission&#45;&gt;github.com/guild&#45;framework/guild&#45;core/pkg/gerror.Wrap -->
<g id="edge13" class="edge">
<title>(*github.com/guild&#45;framework/guild&#45;core/pkg/generator/commission.Generator).GenerateCommission&#45;&gt;github.com/guild&#45;framework/guild&#45;core/pkg/gerror.Wrap</title>
<g id="a_edge13"><a xlink:title="at generator.go:55: calling [github.com/guild&#45;framework/guild&#45;core/pkg/gerror.Wrap]&#10;at generator.go:64: calling [github.com/guild&#45;framework/guild&#45;core/pkg/gerror.Wrap]&#10;at generator.go:73: calling [github.com/guild&#45;framework/guild&#45;core/pkg/gerror.Wrap]&#10;at generator.go:90: calling [github.com/guild&#45;framework/guild&#45;core/pkg/gerror.Wrap]">
<path fill="none" stroke="saddlebrown" d="M244.69,-310.3C350.27,-291.57 526.84,-267.11 679.08,-279 721.98,-282.35 770.58,-290.52 803.93,-296.82"/>
<polygon fill="saddlebrown" stroke="saddlebrown" points="803.09,-300.22 813.57,-298.67 804.41,-293.35 803.09,-300.22"/>
</a>
</g>
</g>
<!-- (*github.com/guild&#45;framework/guild&#45;core/pkg/generator/commission.Generator).GenerateCommission&#45;&gt;(*github.com/guild&#45;framework/guild&#45;core/pkg/gerror.GuildError).WithComponent -->
<g id="edge9" class="edge">
<title>(*github.com/guild&#45;framework/guild&#45;core/pkg/generator/commission.Generator).GenerateCommission&#45;&gt;(*github.com/guild&#45;framework/guild&#45;core/pkg/gerror.GuildError).WithComponent</title>
<g id="a_edge9"><a xlink:title="at generator.go:56: calling [(*github.com/guild&#45;framework/guild&#45;core/pkg/gerror.GuildError).WithComponent]&#10;at generator.go:65: calling [(*github.com/guild&#45;framework/guild&#45;core/pkg/gerror.GuildError).WithComponent]&#10;at generator.go:74: calling [(*github.com/guild&#45;framework/guild&#45;core/pkg/gerror.GuildError).WithComponent]&#10;at generator.go:91: calling [(*github.com/guild&#45;framework/guild&#45;core/pkg/gerror.GuildError).WithComponent]">
<path fill="none" stroke="saddlebrown" d="M198.88,-347.66C290.9,-381.45 498.75,-448.62 679.08,-441 691.55,-440.47 704.54,-439.72 717.5,-438.84"/>
<polygon fill="saddlebrown" stroke="saddlebrown" points="717.65,-442.34 727.37,-438.14 717.15,-435.36 717.65,-442.34"/>
</a>
</g>
</g>
<!-- (*github.com/guild&#45;framework/guild&#45;core/pkg/generator/commission.Generator).GenerateCommission&#45;&gt;(*github.com/guild&#45;framework/guild&#45;core/pkg/gerror.GuildError).WithOperation -->
<g id="edge3" class="edge">
<title>(*github.com/guild&#45;framework/guild&#45;core/pkg/generator/commission.Generator).GenerateCommission&#45;&gt;(*github.com/guild&#45;framework/guild&#45;core/pkg/gerror.GuildError).WithOperation</title>
<g id="a_edge3"><a xlink:title="at generator.go:57: calling [(*github.com/guild&#45;framework/guild&#45;core/pkg/gerror.GuildError).WithOperation]&#10;at generator.go:66: calling [(*github.com/guild&#45;framework/guild&#45;core/pkg/gerror.GuildError).WithOperation]&#10;at generator.go:75: calling [(*github.com/guild&#45;framework/guild&#45;core/pkg/gerror.GuildError).WithOperation]&#10;at generator.go:92: calling [(*github.com/guild&#45;framework/guild&#45;core/pkg/gerror.GuildError).WithOperation]">
<path fill="none" stroke="saddlebrown" d="M256.19,-347.72C288.3,-352.66 323.77,-357.34 356.54,-360 481.14,-370.1 624.22,-370.55 723.07,-369.12"/>
<polygon fill="saddlebrown" stroke="saddlebrown" points="722.84,-372.63 732.79,-368.97 722.73,-365.63 722.84,-372.63"/>
</a>
</g>
</g>
<!-- (*github.com/guild&#45;framework/guild&#45;core/pkg/gerror.GuildError).WithDetails -->
<g id="node12" class="node">
<title>(*github.com/guild&#45;framework/guild&#45;core/pkg/gerror.GuildError).WithDetails</title>
<g id="a_node12"><a xlink:title="(*github.com/guild&#45;framework/guild&#45;core/pkg/gerror.GuildError).WithDetails | defined in errors.go:147">
<path fill="moccasin" stroke="black" stroke-width="1.5" d="M933.12,-262C933.12,-262 757.83,-262 757.83,-262 751.83,-262 745.83,-256 745.83,-250 745.83,-250 745.83,-238 745.83,-238 745.83,-232 751.83,-226 757.83,-226 757.83,-226 933.12,-226 933.12,-226 939.12,-226 945.12,-232 945.12,-238 945.12,-238 945.12,-250 945.12,-250 945.12,-256 939.12,-262 933.12,-262"/>
<text xml:space="preserve" text-anchor="middle" x="845.48" y="-239.32" font-family="Verdana" font-size="14.00">(*GuildError).WithDetails</text>
</a>
</g>
</g>
<!-- (*github.com/guild&#45;framework/guild&#45;core/pkg/generator/commission.Generator).GenerateCommission&#45;&gt;(*github.com/guild&#45;framework/guild&#45;core/pkg/gerror.GuildError).WithDetails -->
<g id="edge10" class="edge">
<title>(*github.com/guild&#45;framework/guild&#45;core/pkg/generator/commission.Generator).GenerateCommission&#45;&gt;(*github.com/guild&#45;framework/guild&#45;core/pkg/gerror.GuildError).WithDetails</title>
<g id="a_edge10"><a xlink:title="at generator.go:58: calling [(*github.com/guild&#45;framework/guild&#45;core/pkg/gerror.GuildError).WithDetails]&#10;at generator.go:67: calling [(*github.com/guild&#45;framework/guild&#45;core/pkg/gerror.GuildError).WithDetails]&#10;at generator.go:76: calling [(*github.com/guild&#45;framework/guild&#45;core/pkg/gerror.GuildError).WithDetails]&#10;at generator.go:77: calling [(*github.com/guild&#45;framework/guild&#45;core/pkg/gerror.GuildError).WithDetails]&#10;at generator.go:93: calling [(*github.com/guild&#45;framework/guild&#45;core/pkg/gerror.GuildError).WithDetails]&#10;at generator.go:94: calling [(*github.com/guild&#45;framework/guild&#45;core/pkg/gerror.GuildError).WithDetails]">
<path fill="none" stroke="saddlebrown" d="M166.82,-310.36C198.68,-274.95 274.02,-199.03 356.54,-171 476.71,-130.19 521.43,-131.66 642.08,-171 661.43,-177.31 663.12,-185.37 679.08,-198 691.93,-208.17 692.21,-215.11 707.08,-222 715.67,-225.98 724.84,-229.25 734.23,-231.95"/>
<polygon fill="saddlebrown" stroke="saddlebrown" points="733.29,-235.32 743.85,-234.47 735.06,-228.55 733.29,-235.32"/>
</a>
</g>
</g>
<!-- (*github.com/guild&#45;framework/guild&#45;core/pkg/prompts.PromptManager).RenderPrompt -->
<g id="node14" class="node">
<title>(*github.com/guild&#45;framework/guild&#45;core/pkg/prompts.PromptManager).RenderPrompt</title>
<g id="a_node14"><a xlink:title="(*github.com/guild&#45;framework/guild&#45;core/pkg/prompts.PromptManager).RenderPrompt | defined in manager.go:47">
<path fill="moccasin" stroke="black" stroke-width="1.5" d="M963.87,-533C963.87,-533 727.08,-533 727.08,-533 721.08,-533 715.08,-527 715.08,-521 715.08,-521 715.08,-509 715.08,-509 715.08,-503 721.08,-497 727.08,-497 727.08,-497 963.87,-497 963.87,-497 969.87,-497 975.87,-503 975.87,-509 975.87,-509 975.87,-521 975.87,-521 975.87,-527 969.87,-533 963.87,-533"/>
<text xml:space="preserve" text-anchor="middle" x="845.48" y="-510.32" font-family="Verdana" font-size="14.00">(*PromptManager).RenderPrompt</text>
</a>
</g>
</g>
<!-- (*github.com/guild&#45;framework/guild&#45;core/pkg/generator/commission.Generator).GenerateCommission&#45;&gt;(*github.com/guild&#45;framework/guild&#45;core/pkg/prompts.PromptManager).RenderPrompt -->
<g id="edge8" class="edge">
<title>(*github.com/guild&#45;framework/guild&#45;core/pkg/generator/commission.Generator).GenerateCommission&#45;&gt;(*github.com/guild&#45;framework/guild&#45;core/pkg/prompts.PromptManager).RenderPrompt</title>
<g id="a_edge8"><a xlink:title="at generator.go:53: calling [(*github.com/guild&#45;framework/guild&#45;core/pkg/prompts.PromptManager).RenderPrompt]">
<path fill="none" stroke="saddlebrown" d="M166.5,-347.42C210.19,-398.37 331.47,-538.12 356.54,-549 472.96,-599.52 515.61,-559.55 642.08,-549 674.64,-546.28 709.83,-541.15 741.61,-535.68"/>
<polygon fill="saddlebrown" stroke="saddlebrown" points="741.96,-539.18 751.2,-534 740.75,-532.28 741.96,-539.18"/>
</a>
</g>
</g>
<!-- (*github.com/guild&#45;framework/guild&#45;core/pkg/generator/commission.Generator).GenerateCommission$1&#45;&gt;github.com/guild&#45;framework/guild&#45;core/pkg/gerror.Wrap -->
<g id="edge11" class="edge">
<title>(*github.com/guild&#45;framework/guild&#45;core/pkg/generator/commission.Generator).GenerateCommission$1&#45;&gt;github.com/guild&#45;framework/guild&#45;core/pkg/gerror.Wrap</title>
<g id="a_edge11"><a xlink:title="at generator.go:81: calling [github.com/guild&#45;framework/guild&#45;core/pkg/gerror.Wrap]">
<path fill="none" stroke="saddlebrown" d="M559.3,-310.58C593.59,-300.84 637.84,-289.91 678.08,-285 721.15,-279.75 770.52,-287.4 804.22,-294.71"/>
<polygon fill="saddlebrown" stroke="saddlebrown" points="803.01,-298.03 813.54,-296.82 804.56,-291.2 803.01,-298.03"/>
</a>
</g>
</g>
<!-- (*github.com/guild&#45;framework/guild&#45;core/pkg/generator/commission.Generator).GenerateCommission$1&#45;&gt;(*github.com/guild&#45;framework/guild&#45;core/pkg/gerror.GuildError).WithComponent -->
<g id="edge4" class="edge">
<title>(*github.com/guild&#45;framework/guild&#45;core/pkg/generator/commission.Generator).GenerateCommission$1&#45;&gt;(*github.com/guild&#45;framework/guild&#45;core/pkg/gerror.GuildError).WithComponent</title>
<g id="a_edge4"><a xlink:title="at generator.go:82: calling [(*github.com/guild&#45;framework/guild&#45;core/pkg/gerror.GuildError).WithComponent]">
<path fill="none" stroke="saddlebrown" d="M522.35,-347.41C554.28,-372.74 616.36,-417.13 678.08,-434 690.72,-437.45 704.1,-439.47 717.55,-440.44"/>
<polygon fill="saddlebrown" stroke="saddlebrown" points="717.19,-443.92 727.35,-440.94 717.55,-436.93 717.19,-443.92"/>
</a>
</g>
</g>
<!-- (*github.com/guild&#45;framework/guild&#45;core/pkg/generator/commission.Generator).GenerateCommission$1&#45;&gt;(*github.com/guild&#45;framework/guild&#45;core/pkg/gerror.GuildError).WithOperation -->
<g id="edge12" class="edge">
<title>(*github.com/guild&#45;framework/guild&#45;core/pkg/generator/commission.Generator).GenerateCommission$1&#45;&gt;(*github.com/guild&#45;framework/guild&#45;core/pkg/gerror.GuildError).WithOperation</title>
<g id="a_edge12"><a xlink:title="at generator.go:83: calling [(*github.com/guild&#45;framework/guild&#45;core/pkg/gerror.GuildError).WithOperation]">
<path fill="none" stroke="saddlebrown" d="M642.28,-344.26C669.18,-347.15 697.09,-350.15 723.27,-352.97"/>
<polygon fill="saddlebrown" stroke="saddlebrown" points="722.55,-356.41 732.87,-354 723.3,-349.45 722.55,-356.41"/>
</a>
</g>
</g>
<!-- (*github.com/guild&#45;framework/guild&#45;core/pkg/generator/commission.Generator).GenerateAIDocs -->
<g id="node5" class="node">
<title>(*github.com/guild&#45;framework/guild&#45;core/pkg/generator/commission.Generator).GenerateAIDocs</title>
<g id="a_node5"><a xlink:title="(*github.com/guild&#45;framework/guild&#45;core/pkg/generator/commission.Generator).GenerateAIDocs | defined in generator.go:101&#10;at generator.go:112: calling [(*github.com/guild&#45;framework/guild&#45;core/pkg/gerror.GuildError).WithComponent]&#10;at generator.go:121: calling [(*github.com/guild&#45;framework/guild&#45;core/pkg/gerror.GuildError).WithComponent]&#10;at generator.go:109: calling [(*github.com/guild&#45;framework/guild&#45;core/pkg/prompts.PromptManager).RenderPrompt]&#10;at generator.go:111: calling [github.com/guild&#45;framework/guild&#45;core/pkg/gerror.Wrap]&#10;at generator.go:120: calling [github.com/guild&#45;framework/guild&#45;core/pkg/gerror.Wrap]&#10;at generator.go:114: calling [(*github.com/guild&#45;framework/guild&#45;core/pkg/gerror.GuildError).WithDetails]&#10;at generator.go:123: calling [(*github.com/guild&#45;framework/guild&#45;core/pkg/gerror.GuildError).WithDetails]&#10;at generator.go:127: calling [github.com/guild&#45;framework/guild&#45;core/pkg/generator/commission.parseMultipleMarkdownDocs]&#10;at generator.go:104: calling [(*github.com/guild&#45;framework/guild&#45;core/pkg/commission.Commission).Format]&#10;at generator.go:113: calling [(*github.com/guild&#45;framework/guild&#45;core/pkg/gerror.GuildError).WithOperation]&#10;at generator.go:122: calling [(*github.com/guild&#45;framework/guild&#45;core/pkg/gerror.GuildError).WithOperation]">
<path fill="lightblue" stroke="black" stroke-width="1.5" d="M603.45,-219C603.45,-219 395.16,-219 395.16,-219 389.16,-219 383.16,-213 383.16,-207 383.16,-207 383.16,-195 383.16,-195 383.16,-189 389.16,-183 395.16,-183 395.16,-183 603.45,-183 603.45,-183 609.45,-183 615.45,-189 615.45,-195 615.45,-195 615.45,-207 615.45,-207 615.45,-213 609.45,-219 603.45,-219"/>
<text xml:space="preserve" text-anchor="middle" x="499.31" y="-196.32" font-family="Verdana" font-size="14.00">(*Generator).GenerateAIDocs</text>
</a>
</g>
</g>
<!-- github.com/guild&#45;framework/guild&#45;core/pkg/generator/commission.parseMultipleMarkdownDocs -->
<g id="node6" class="node">
<title>github.com/guild&#45;framework/guild&#45;core/pkg/generator/commission.parseMultipleMarkdownDocs</title>
<g id="a_node6"><a xlink:title="github.com/guild&#45;framework/guild&#45;core/pkg/generator/commission.parseMultipleMarkdownDocs | defined in generator.go:148">
<path fill="lightblue" stroke="black" stroke-width="0.5" d="M944.75,-201C944.75,-201 746.21,-201 746.21,-201 740.21,-201 734.21,-195 734.21,-189 734.21,-189 734.21,-177 734.21,-177 734.21,-171 740.21,-165 746.21,-165 746.21,-165 944.75,-165 944.75,-165 950.75,-165 956.75,-171 956.75,-177 956.75,-177 956.75,-189 956.75,-189 956.75,-195 950.75,-201 944.75,-201"/>
<text xml:space="preserve" text-anchor="middle" x="845.48" y="-178.32" font-family="Verdana" font-size="14.00">parseMultipleMarkdownDocs</text>
</a>
</g>
</g>
<!-- (*github.com/guild&#45;framework/guild&#45;core/pkg/generator/commission.Generator).GenerateAIDocs&#45;&gt;github.com/guild&#45;framework/guild&#45;core/pkg/generator/commission.parseMultipleMarkdownDocs -->
<g id="edge18" class="edge">
<title>(*github.com/guild&#45;framework/guild&#45;core/pkg/generator/commission.Generator).GenerateAIDocs&#45;&gt;github.com/guild&#45;framework/guild&#45;core/pkg/generator/commission.parseMultipleMarkdownDocs</title>
<g id="a_edge18"><a xlink:title="at generator.go:127: calling [github.com/guild&#45;framework/guild&#45;core/pkg/generator/commission.parseMultipleMarkdownDocs]">
<path fill="none" stroke="black" d="M599.29,-182.29C625.16,-178.89 653.09,-176.53 679.08,-177 693.27,-177.26 708.15,-177.64 722.91,-178.09"/>
<polygon fill="black" stroke="black" points="722.55,-181.58 732.66,-178.39 722.77,-174.58 722.55,-181.58"/>
</a>
</g>
</g>
<!-- (*github.com/guild&#45;framework/guild&#45;core/pkg/commission.Commission).Format -->
<g id="node8" class="node">
<title>(*github.com/guild&#45;framework/guild&#45;core/pkg/commission.Commission).Format</title>
<g id="a_node8"><a xlink:title="(*github.com/guild&#45;framework/guild&#45;core/pkg/commission.Commission).Format | defined in models.go:62">
<path fill="moccasin" stroke="black" stroke-width="1.5" d="M925.25,-121C925.25,-121 765.71,-121 765.71,-121 759.71,-121 753.71,-115 753.71,-109 753.71,-109 753.71,-97 753.71,-97 753.71,-91 759.71,-85 765.71,-85 765.71,-85 925.25,-85 925.25,-85 931.25,-85 937.25,-91 937.25,-97 937.25,-97 937.25,-109 937.25,-109 937.25,-115 931.25,-121 925.25,-121"/>
<text xml:space="preserve" text-anchor="middle" x="845.48" y="-98.33" font-family="Verdana" font-size="14.00">(*Commission).Format</text>
</a>
</g>
</g>
<!-- (*github.com/guild&#45;framework/guild&#45;core/pkg/generator/commission.Generator).GenerateAIDocs&#45;&gt;(*github.com/guild&#45;framework/guild&#45;core/pkg/commission.Commission).Format -->
<g id="edge21" class="edge">
<title>(*github.com/guild&#45;framework/guild&#45;core/pkg/generator/commission.Generator).GenerateAIDocs&#45;&gt;(*github.com/guild&#45;framework/guild&#45;core/pkg/commission.Commission).Format</title>
<g id="a_edge21"><a xlink:title="at generator.go:104: calling [(*github.com/guild&#45;framework/guild&#45;core/pkg/commission.Commission).Format]">
<path fill="none" stroke="saddlebrown" d="M543.49,-182.34C584.79,-165.16 649.17,-140.13 707.08,-125 718.24,-122.09 730.01,-119.49 741.79,-117.2"/>
<polygon fill="saddlebrown" stroke="saddlebrown" points="742.38,-120.65 751.57,-115.38 741.09,-113.77 742.38,-120.65"/>
</a>
</g>
</g>
<!-- (*github.com/guild&#45;framework/guild&#45;core/pkg/generator/commission.Generator).GenerateAIDocs&#45;&gt;github.com/guild&#45;framework/guild&#45;core/pkg/gerror.Wrap -->
<g id="edge16" class="edge">
<title>(*github.com/guild&#45;framework/guild&#45;core/pkg/generator/commission.Generator).GenerateAIDocs&#45;&gt;github.com/guild&#45;framework/guild&#45;core/pkg/gerror.Wrap</title>
<g id="a_edge16"><a xlink:title="at generator.go:111: calling [github.com/guild&#45;framework/guild&#45;core/pkg/gerror.Wrap]&#10;at generator.go:120: calling [github.com/guild&#45;framework/guild&#45;core/pkg/gerror.Wrap]">
<path fill="none" stroke="saddlebrown" d="M615.81,-205.92C638.1,-210.75 660.32,-218.57 679.08,-231 698.4,-243.8 688.07,-261.73 707.08,-275 735.41,-294.78 774.4,-301.86 803.61,-304.23"/>
<polygon fill="saddlebrown" stroke="saddlebrown" points="803.36,-307.72 813.56,-304.87 803.8,-300.74 803.36,-307.72"/>
</a>
</g>
</g>
<!-- (*github.com/guild&#45;framework/guild&#45;core/pkg/generator/commission.Generator).GenerateAIDocs&#45;&gt;(*github.com/guild&#45;framework/guild&#45;core/pkg/gerror.GuildError).WithComponent -->
<g id="edge5" class="edge">
<title>(*github.com/guild&#45;framework/guild&#45;core/pkg/generator/commission.Generator).GenerateAIDocs&#45;&gt;(*github.com/guild&#45;framework/guild&#45;core/pkg/gerror.GuildError).WithComponent</title>
<g id="a_edge5"><a xlink:title="at generator.go:112: calling [(*github.com/guild&#45;framework/guild&#45;core/pkg/gerror.GuildError).WithComponent]&#10;at generator.go:121: calling [(*github.com/guild&#45;framework/guild&#45;core/pkg/gerror.GuildError).WithComponent]">
<path fill="none" stroke="saddlebrown" d="M534.53,-219.61C565.06,-237.32 609.81,-266.11 642.08,-299 678.68,-336.31 663.95,-367.49 707.08,-397 710.77,-399.53 714.64,-401.84 718.64,-403.97"/>
<polygon fill="saddlebrown" stroke="saddlebrown" points="716.93,-407.03 727.46,-408.22 719.96,-400.73 716.93,-407.03"/>
</a>
</g>
</g>
<!-- (*github.com/guild&#45;framework/guild&#45;core/pkg/generator/commission.Generator).GenerateAIDocs&#45;&gt;(*github.com/guild&#45;framework/guild&#45;core/pkg/gerror.GuildError).WithOperation -->
<g id="edge22" class="edge">
<title>(*github.com/guild&#45;framework/guild&#45;core/pkg/generator/commission.Generator).GenerateAIDocs&#45;&gt;(*github.com/guild&#45;framework/guild&#45;core/pkg/gerror.GuildError).WithOperation</title>
<g id="a_edge22"><a xlink:title="at generator.go:113: calling [(*github.com/guild&#45;framework/guild&#45;core/pkg/gerror.GuildError).WithOperation]&#10;at generator.go:122: calling [(*github.com/guild&#45;framework/guild&#45;core/pkg/gerror.GuildError).WithOperation]">
<path fill="none" stroke="saddlebrown" d="M526.23,-219.63C572.8,-252.82 669.32,-320.18 707.08,-336 714.04,-338.92 721.32,-341.56 728.75,-343.97"/>
<polygon fill="saddlebrown" stroke="saddlebrown" points="727.67,-347.3 738.26,-346.88 729.72,-340.61 727.67,-347.3"/>
</a>
</g>
</g>
<!-- (*github.com/guild&#45;framework/guild&#45;core/pkg/generator/commission.Generator).GenerateAIDocs&#45;&gt;(*github.com/guild&#45;framework/guild&#45;core/pkg/gerror.GuildError).WithDetails -->
<g id="edge17" class="edge">
<title>(*github.com/guild&#45;framework/guild&#45;core/pkg/generator/commission.Generator).GenerateAIDocs&#45;&gt;(*github.com/guild&#45;framework/guild&#45;core/pkg/gerror.GuildError).WithDetails</title>
<g id="a_edge17"><a xlink:title="at generator.go:114: calling [(*github.com/guild&#45;framework/guild&#45;core/pkg/gerror.GuildError).WithDetails]&#10;at generator.go:123: calling [(*github.com/guild&#45;framework/guild&#45;core/pkg/gerror.GuildError).WithDetails]">
<path fill="none" stroke="saddlebrown" d="M615.73,-193.61C637.12,-194.85 659.03,-197.93 679.08,-204 693.24,-208.29 693.26,-216.72 707.08,-222 715.76,-225.32 724.93,-228.13 734.25,-230.52"/>
<polygon fill="saddlebrown" stroke="saddlebrown" points="733.22,-233.88 743.76,-232.79 734.85,-227.07 733.22,-233.88"/>
</a>
</g>
</g>
<!-- (*github.com/guild&#45;framework/guild&#45;core/pkg/generator/commission.Generator).GenerateAIDocs&#45;&gt;(*github.com/guild&#45;framework/guild&#45;core/pkg/prompts.PromptManager).RenderPrompt -->
<g id="edge15" class="edge">
<title>(*github.com/guild&#45;framework/guild&#45;core/pkg/generator/commission.Generator).GenerateAIDocs&#45;&gt;(*github.com/guild&#45;framework/guild&#45;core/pkg/prompts.PromptManager).RenderPrompt</title>
<g id="a_edge15"><a xlink:title="at generator.go:109: calling [(*github.com/guild&#45;framework/guild&#45;core/pkg/prompts.PromptManager).RenderPrompt]">
<path fill="none" stroke="saddlebrown" d="M540.1,-219.61C571.81,-236.3 615.21,-263.61 642.08,-299 695.54,-369.41 640.58,-428.74 707.08,-487 708.34,-488.1 709.63,-489.17 710.95,-490.19"/>
<polygon fill="saddlebrown" stroke="saddlebrown" points="708.57,-492.81 718.8,-495.58 712.53,-487.03 708.57,-492.81"/>
</a>
</g>
</g>
</g>
</svg>
