<?xml version="1.0" encoding="UTF-8" standalone="no"?>
<!DOCTYPE svg PUBLIC "-//W3C//DTD SVG 1.1//EN"
 "http://www.w3.org/Graphics/SVG/1.1/DTD/svg11.dtd">
<!-- Generated by graphviz version 14.1.1 (20251213.1925)
 -->
<!-- Title: gocallvis Pages: 1 -->
<svg width="618pt" height="202pt"
 viewBox="0.00 0.00 618.00 202.00" xmlns="http://www.w3.org/2000/svg" xmlns:xlink="http://www.w3.org/1999/xlink">
<g id="graph0" class="graph" transform="scale(1 1) rotate(0) translate(0 202)">
<title>gocallvis</title>
<polygon fill="lightgray" stroke="none" points="0,0 0,-202 618.08,-202 618.08,0 0,0"/>
<g id="clust1" class="cluster">
<title>cluster_focus</title>
<polygon fill="#e6ecfa" stroke="black" stroke-width="0.5" points="8,-8 8,-194 610.08,-194 610.08,-8 8,-8"/>
<text xml:space="preserve" text-anchor="middle" x="309.04" y="-172.9" font-family="Arial" font-size="18.00">deepseek</text>
</g>
<g id="clust2" class="cluster">
<title>cluster_github.com/guild&#45;framework/guild&#45;core/pkg/providers/base</title>
<g id="a_clust2"><a xlink:href="/?f=github.com/guild-framework/guild-core/pkg/providers/base" xlink:title="package: github.com/guild&#45;framework/guild&#45;core/pkg/providers/base">
<polygon fill="lightyellow" stroke="black" stroke-width="0.8" points="236.04,-16 236.04,-157 602.08,-157 602.08,-16 236.04,-16"/>
<text xml:space="preserve" text-anchor="middle" x="419.06" y="-137.8" font-family="Tahoma bold" font-size="16.00">base</text>
</a>
</g>
</g>
<!-- (*github.com/guild&#45;framework/guild&#45;core/pkg/providers/deepseek.Client).Complete -->
<g id="node1" class="node">
<title>(*github.com/guild&#45;framework/guild&#45;core/pkg/providers/deepseek.Client).Complete</title>
<g id="a_node1"><a xlink:title="(*github.com/guild&#45;framework/guild&#45;core/pkg/providers/deepseek.Client).Complete | defined in client.go:92&#10;at client.go:100: calling [(*github.com/guild&#45;framework/guild&#45;core/pkg/providers/base.OpenAICompatibleProvider).ChatCompletion]">
<path fill="lightblue" stroke="black" stroke-width="1.5" d="M159.04,-60C159.04,-60 28,-60 28,-60 22,-60 16,-54 16,-48 16,-48 16,-36 16,-36 16,-30 22,-24 28,-24 28,-24 159.04,-24 159.04,-24 165.04,-24 171.04,-30 171.04,-36 171.04,-36 171.04,-48 171.04,-48 171.04,-54 165.04,-60 159.04,-60"/>
<text xml:space="preserve" text-anchor="middle" x="93.52" y="-37.33" font-family="Verdana" font-size="14.00">(*Client).Complete</text>
</a>
</g>
</g>
<!-- (*github.com/guild&#45;framework/guild&#45;core/pkg/providers/base.OpenAICompatibleProvider).ChatCompletion -->
<g id="node3" class="node">
<title>(*github.com/guild&#45;framework/guild&#45;core/pkg/providers/base.OpenAICompatibleProvider).ChatCompletion</title>
<g id="a_node3"><a xlink:title="(*github.com/guild&#45;framework/guild&#45;core/pkg/providers/base.OpenAICompatibleProvider).ChatCompletion | defined in openai_compatible.go:50">
<path fill="moccasin" stroke="black" stroke-width="1.5" d="M582.08,-60C582.08,-60 256.04,-60 256.04,-60 250.04,-60 244.04,-54 244.04,-48 244.04,-48 244.04,-36 244.04,-36 244.04,-30 250.04,-24 256.04,-24 256.04,-24 582.08,-24 582.08,-24 588.08,-24 594.08,-30 594.08,-36 594.08,-36 594.08,-48 594.08,-48 594.08,-54 588.08,-60 582.08,-60"/>
<text xml:space="preserve" text-anchor="middle" x="419.06" y="-37.33" font-family="Verdana" font-size="14.00">(*OpenAICompatibleProvider).ChatCompletion</text>
</a>
</g>
</g>
<!-- (*github.com/guild&#45;framework/guild&#45;core/pkg/providers/deepseek.Client).Complete&#45;&gt;(*github.com/guild&#45;framework/guild&#45;core/pkg/providers/base.OpenAICompatibleProvider).ChatCompletion -->
<g id="edge1" class="edge">
<title>(*github.com/guild&#45;framework/guild&#45;core/pkg/providers/deepseek.Client).Complete&#45;&gt;(*github.com/guild&#45;framework/guild&#45;core/pkg/providers/base.OpenAICompatibleProvider).ChatCompletion</title>
<g id="a_edge1"><a xlink:title="at client.go:100: calling [(*github.com/guild&#45;framework/guild&#45;core/pkg/providers/base.OpenAICompatibleProvider).ChatCompletion]">
<path fill="none" stroke="saddlebrown" d="M171.6,-42C190.14,-42 210.74,-42 231.92,-42"/>
<polygon fill="saddlebrown" stroke="saddlebrown" points="231.87,-45.5 241.87,-42 231.87,-38.5 231.87,-45.5"/>
</a>
</g>
</g>
<!-- github.com/guild&#45;framework/guild&#45;core/pkg/providers/deepseek.NewClient -->
<g id="node2" class="node">
<title>github.com/guild&#45;framework/guild&#45;core/pkg/providers/deepseek.NewClient</title>
<g id="a_node2"><a xlink:title="github.com/guild&#45;framework/guild&#45;core/pkg/providers/deepseek.NewClient | defined in client.go:26&#10;at client.go:64: calling [github.com/guild&#45;framework/guild&#45;core/pkg/providers/base.NewOpenAICompatibleProvider]">
<path fill="lightblue" stroke="black" stroke-width="1.5" d="M127.91,-121C127.91,-121 59.12,-121 59.12,-121 53.12,-121 47.12,-115 47.12,-109 47.12,-109 47.12,-97 47.12,-97 47.12,-91 53.12,-85 59.12,-85 59.12,-85 127.91,-85 127.91,-85 133.91,-85 139.91,-91 139.91,-97 139.91,-97 139.91,-109 139.91,-109 139.91,-115 133.91,-121 127.91,-121"/>
<text xml:space="preserve" text-anchor="middle" x="93.52" y="-98.33" font-family="Verdana" font-size="14.00">NewClient</text>
</a>
</g>
</g>
<!-- github.com/guild&#45;framework/guild&#45;core/pkg/providers/base.NewOpenAICompatibleProvider -->
<g id="node4" class="node">
<title>github.com/guild&#45;framework/guild&#45;core/pkg/providers/base.NewOpenAICompatibleProvider</title>
<g id="a_node4"><a xlink:title="github.com/guild&#45;framework/guild&#45;core/pkg/providers/base.NewOpenAICompatibleProvider | defined in openai_compatible.go:32">
<path fill="moccasin" stroke="black" stroke-width="1.5" d="M528.46,-121C528.46,-121 309.67,-121 309.67,-121 303.67,-121 297.67,-115 297.67,-109 297.67,-109 297.67,-97 297.67,-97 297.67,-91 303.67,-85 309.67,-85 309.67,-85 528.46,-85 528.46,-85 534.46,-85 540.46,-91 540.46,-97 540.46,-97 540.46,-109 540.46,-109 540.46,-115 534.46,-121 528.46,-121"/>
<text xml:space="preserve" text-anchor="middle" x="419.06" y="-98.33" font-family="Verdana" font-size="14.00">NewOpenAICompatibleProvider</text>
</a>
</g>
</g>
<!-- github.com/guild&#45;framework/guild&#45;core/pkg/providers/deepseek.NewClient&#45;&gt;github.com/guild&#45;framework/guild&#45;core/pkg/providers/base.NewOpenAICompatibleProvider -->
<g id="edge2" class="edge">
<title>github.com/guild&#45;framework/guild&#45;core/pkg/providers/deepseek.NewClient&#45;&gt;github.com/guild&#45;framework/guild&#45;core/pkg/providers/base.NewOpenAICompatibleProvider</title>
<g id="a_edge2"><a xlink:title="at client.go:64: calling [github.com/guild&#45;framework/guild&#45;core/pkg/providers/base.NewOpenAICompatibleProvider]">
<path fill="none" stroke="saddlebrown" d="M140.53,-103C178.48,-103 234.29,-103 285.92,-103"/>
<polygon fill="saddlebrown" stroke="saddlebrown" points="285.69,-106.5 295.69,-103 285.69,-99.5 285.69,-106.5"/>
</a>
</g>
</g>
</g>
</svg>
