<?xml version="1.0" encoding="UTF-8" standalone="no"?>
<!DOCTYPE svg PUBLIC "-//W3C//DTD SVG 1.1//EN"
 "http://www.w3.org/Graphics/SVG/1.1/DTD/svg11.dtd">
<!-- Generated by graphviz version 14.1.1 (20251213.1925)
 -->
<!-- Title: gocallvis Pages: 1 -->
<svg width="1135pt" height="495pt"
 viewBox="0.00 0.00 1135.00 495.00" xmlns="http://www.w3.org/2000/svg" xmlns:xlink="http://www.w3.org/1999/xlink">
<g id="graph0" class="graph" transform="scale(1 1) rotate(0) translate(0 495)">
<title>gocallvis</title>
<polygon fill="lightgray" stroke="none" points="0,0 0,-495 1134.91,-495 1134.91,0 0,0"/>
<g id="clust1" class="cluster">
<title>cluster_focus</title>
<polygon fill="#e6ecfa" stroke="black" stroke-width="0.5" points="8,-8 8,-487 1126.91,-487 1126.91,-8 8,-8"/>
<text xml:space="preserve" text-anchor="middle" x="567.45" y="-465.9" font-family="Arial" font-size="18.00">ollama</text>
</g>
<g id="clust2" class="cluster">
<title>cluster_github.com/guild&#45;framework/guild&#45;core/pkg/gerror</title>
<g id="a_clust2"><a xlink:href="/?f=github.com/guild-framework/guild-core/pkg/gerror" xlink:title="package: github.com/guild&#45;framework/guild&#45;core/pkg/gerror">
<polygon fill="lightyellow" stroke="black" stroke-width="0.8" points="870.62,-44 870.62,-429 1118.91,-429 1118.91,-44 870.62,-44"/>
<text xml:space="preserve" text-anchor="middle" x="994.76" y="-409.8" font-family="Tahoma bold" font-size="16.00">gerror</text>
</a>
</g>
</g>
<!-- (*github.com/guild&#45;framework/guild&#45;core/pkg/providers/ollama.Client).ListModels -->
<g id="node1" class="node">
<title>(*github.com/guild&#45;framework/guild&#45;core/pkg/providers/ollama.Client).ListModels</title>
<g id="a_node1"><a xlink:title="(*github.com/guild&#45;framework/guild&#45;core/pkg/providers/ollama.Client).ListModels | defined in client.go:341&#10;at client.go:351: calling [(*github.com/guild&#45;framework/guild&#45;core/pkg/providers/ollama.Client).ListModels$1]">
<path fill="lightblue" stroke="black" stroke-width="1.5" d="M174.04,-52C174.04,-52 36.25,-52 36.25,-52 30.25,-52 24.25,-46 24.25,-40 24.25,-40 24.25,-28 24.25,-28 24.25,-22 30.25,-16 36.25,-16 36.25,-16 174.04,-16 174.04,-16 180.04,-16 186.04,-22 186.04,-28 186.04,-28 186.04,-40 186.04,-40 186.04,-46 180.04,-52 174.04,-52"/>
<text xml:space="preserve" text-anchor="middle" x="105.14" y="-29.32" font-family="Verdana" font-size="14.00">(*Client).ListModels</text>
</a>
</g>
</g>
<!-- (*github.com/guild&#45;framework/guild&#45;core/pkg/providers/ollama.Client).ListModels$1 -->
<g id="node2" class="node">
<title>(*github.com/guild&#45;framework/guild&#45;core/pkg/providers/ollama.Client).ListModels$1</title>
<g id="a_node2"><a xlink:title="(*github.com/guild&#45;framework/guild&#45;core/pkg/providers/ollama.Client).ListModels$1 | defined in client.go:351">
<polygon fill="lightblue" stroke="black" stroke-dasharray="1,5" points="464.33,-52 284.54,-52 284.54,-16 464.33,-16 464.33,-52"/>
<text xml:space="preserve" text-anchor="middle" x="374.43" y="-29.32" font-family="Verdana" font-size="14.00">(*Client).ListModels$1</text>
</a>
</g>
</g>
<!-- (*github.com/guild&#45;framework/guild&#45;core/pkg/providers/ollama.Client).ListModels&#45;&gt;(*github.com/guild&#45;framework/guild&#45;core/pkg/providers/ollama.Client).ListModels$1 -->
<g id="edge15" class="edge">
<title>(*github.com/guild&#45;framework/guild&#45;core/pkg/providers/ollama.Client).ListModels&#45;&gt;(*github.com/guild&#45;framework/guild&#45;core/pkg/providers/ollama.Client).ListModels$1</title>
<g id="a_edge15"><a xlink:title="at client.go:351: calling [(*github.com/guild&#45;framework/guild&#45;core/pkg/providers/ollama.Client).ListModels$1]">
<path fill="none" stroke="black" d="M186.7,-34C208.2,-34 231.88,-34 254.96,-34"/>
<polygon fill="black" stroke="black" points="272.66,-37.5 282.66,-34 272.66,-30.5 272.66,-37.5"/>
<polyline fill="none" stroke="black" points="272.16,-34 267.16,-34"/>
<polygon fill="none" stroke="black" points="254.26,-34 260.26,-30 266.26,-34 260.26,-38 254.26,-34"/>
</a>
</g>
</g>
<!-- (*github.com/guild&#45;framework/guild&#45;core/pkg/providers/ollama.Client).makeRequest -->
<g id="node3" class="node">
<title>(*github.com/guild&#45;framework/guild&#45;core/pkg/providers/ollama.Client).makeRequest</title>
<g id="a_node3"><a xlink:title="(*github.com/guild&#45;framework/guild&#45;core/pkg/providers/ollama.Client).makeRequest | defined in client.go:377&#10;at client.go:404: calling [github.com/guild&#45;framework/guild&#45;core/pkg/gerror.Newf]&#10;at client.go:405: calling [(*github.com/guild&#45;framework/guild&#45;core/pkg/gerror.GuildError).WithComponent]&#10;at client.go:406: calling [(*github.com/guild&#45;framework/guild&#45;core/pkg/gerror.GuildError).WithOperation]&#10;at client.go:407: calling [(*github.com/guild&#45;framework/guild&#45;core/pkg/gerror.GuildError).WithDetails]&#10;at client.go:408: calling [(*github.com/guild&#45;framework/guild&#45;core/pkg/gerror.GuildError).WithDetails]&#10;at client.go:409: calling [(*github.com/guild&#45;framework/guild&#45;core/pkg/gerror.GuildError).WithDetails]">
<path fill="lightblue" stroke="black" stroke-width="0.5" d="M760.24,-202C760.24,-202 599.95,-202 599.95,-202 593.95,-202 587.95,-196 587.95,-190 587.95,-190 587.95,-178 587.95,-178 587.95,-172 593.95,-166 599.95,-166 599.95,-166 760.24,-166 760.24,-166 766.24,-166 772.24,-172 772.24,-178 772.24,-178 772.24,-190 772.24,-190 772.24,-196 766.24,-202 760.24,-202"/>
<text xml:space="preserve" text-anchor="middle" x="680.1" y="-179.32" font-family="Verdana" font-size="14.00">(*Client).makeRequest</text>
</a>
</g>
</g>
<!-- github.com/guild&#45;framework/guild&#45;core/pkg/gerror.Newf -->
<g id="node12" class="node">
<title>github.com/guild&#45;framework/guild&#45;core/pkg/gerror.Newf</title>
<g id="a_node12"><a xlink:title="github.com/guild&#45;framework/guild&#45;core/pkg/gerror.Newf | defined in errors.go:218">
<path fill="moccasin" stroke="black" stroke-width="1.5" d="M1011.91,-210C1011.91,-210 977.62,-210 977.62,-210 971.62,-210 965.62,-204 965.62,-198 965.62,-198 965.62,-186 965.62,-186 965.62,-180 971.62,-174 977.62,-174 977.62,-174 1011.91,-174 1011.91,-174 1017.91,-174 1023.91,-180 1023.91,-186 1023.91,-186 1023.91,-198 1023.91,-198 1023.91,-204 1017.91,-210 1011.91,-210"/>
<text xml:space="preserve" text-anchor="middle" x="994.76" y="-187.32" font-family="Verdana" font-size="14.00">Newf</text>
</a>
</g>
</g>
<!-- (*github.com/guild&#45;framework/guild&#45;core/pkg/providers/ollama.Client).makeRequest&#45;&gt;github.com/guild&#45;framework/guild&#45;core/pkg/gerror.Newf -->
<g id="edge7" class="edge">
<title>(*github.com/guild&#45;framework/guild&#45;core/pkg/providers/ollama.Client).makeRequest&#45;&gt;github.com/guild&#45;framework/guild&#45;core/pkg/gerror.Newf</title>
<g id="a_edge7"><a xlink:title="at client.go:404: calling [github.com/guild&#45;framework/guild&#45;core/pkg/gerror.Newf]">
<path fill="none" stroke="saddlebrown" d="M772.38,-186.34C832.44,-187.87 908.1,-189.81 953.61,-190.97"/>
<polygon fill="saddlebrown" stroke="saddlebrown" points="953.45,-194.47 963.54,-191.23 953.63,-187.47 953.45,-194.47"/>
</a>
</g>
</g>
<!-- (*github.com/guild&#45;framework/guild&#45;core/pkg/gerror.GuildError).WithComponent -->
<g id="node13" class="node">
<title>(*github.com/guild&#45;framework/guild&#45;core/pkg/gerror.GuildError).WithComponent</title>
<g id="a_node13"><a xlink:title="(*github.com/guild&#45;framework/guild&#45;core/pkg/gerror.GuildError).WithComponent | defined in errors.go:156">
<path fill="moccasin" stroke="black" stroke-width="1.5" d="M1098.91,-332C1098.91,-332 890.62,-332 890.62,-332 884.62,-332 878.62,-326 878.62,-320 878.62,-320 878.62,-308 878.62,-308 878.62,-302 884.62,-296 890.62,-296 890.62,-296 1098.91,-296 1098.91,-296 1104.91,-296 1110.91,-302 1110.91,-308 1110.91,-308 1110.91,-320 1110.91,-320 1110.91,-326 1104.91,-332 1098.91,-332"/>
<text xml:space="preserve" text-anchor="middle" x="994.76" y="-309.32" font-family="Verdana" font-size="14.00">(*GuildError).WithComponent</text>
</a>
</g>
</g>
<!-- (*github.com/guild&#45;framework/guild&#45;core/pkg/providers/ollama.Client).makeRequest&#45;&gt;(*github.com/guild&#45;framework/guild&#45;core/pkg/gerror.GuildError).WithComponent -->
<g id="edge8" class="edge">
<title>(*github.com/guild&#45;framework/guild&#45;core/pkg/providers/ollama.Client).makeRequest&#45;&gt;(*github.com/guild&#45;framework/guild&#45;core/pkg/gerror.GuildError).WithComponent</title>
<g id="a_edge8"><a xlink:title="at client.go:405: calling [(*github.com/guild&#45;framework/guild&#45;core/pkg/gerror.GuildError).WithComponent]">
<path fill="none" stroke="saddlebrown" d="M753.45,-202.16C771.15,-208.11 789.59,-215.66 805.62,-225 839.33,-244.64 836.16,-265.71 870.62,-284 875.65,-286.67 880.93,-289.11 886.35,-291.34"/>
<polygon fill="saddlebrown" stroke="saddlebrown" points="884.91,-294.53 895.5,-294.82 887.39,-287.99 884.91,-294.53"/>
</a>
</g>
</g>
<!-- (*github.com/guild&#45;framework/guild&#45;core/pkg/gerror.GuildError).WithOperation -->
<g id="node14" class="node">
<title>(*github.com/guild&#45;framework/guild&#45;core/pkg/gerror.GuildError).WithOperation</title>
<g id="a_node14"><a xlink:title="(*github.com/guild&#45;framework/guild&#45;core/pkg/gerror.GuildError).WithOperation | defined in errors.go:162">
<path fill="moccasin" stroke="black" stroke-width="1.5" d="M1093.28,-271C1093.28,-271 896.24,-271 896.24,-271 890.24,-271 884.24,-265 884.24,-259 884.24,-259 884.24,-247 884.24,-247 884.24,-241 890.24,-235 896.24,-235 896.24,-235 1093.28,-235 1093.28,-235 1099.28,-235 1105.28,-241 1105.28,-247 1105.28,-247 1105.28,-259 1105.28,-259 1105.28,-265 1099.28,-271 1093.28,-271"/>
<text xml:space="preserve" text-anchor="middle" x="994.76" y="-248.32" font-family="Verdana" font-size="14.00">(*GuildError).WithOperation</text>
</a>
</g>
</g>
<!-- (*github.com/guild&#45;framework/guild&#45;core/pkg/providers/ollama.Client).makeRequest&#45;&gt;(*github.com/guild&#45;framework/guild&#45;core/pkg/gerror.GuildError).WithOperation -->
<g id="edge9" class="edge">
<title>(*github.com/guild&#45;framework/guild&#45;core/pkg/providers/ollama.Client).makeRequest&#45;&gt;(*github.com/guild&#45;framework/guild&#45;core/pkg/gerror.GuildError).WithOperation</title>
<g id="a_edge9"><a xlink:title="at client.go:406: calling [(*github.com/guild&#45;framework/guild&#45;core/pkg/gerror.GuildError).WithOperation]">
<path fill="none" stroke="saddlebrown" d="M763.66,-202.22C804.85,-211.31 854.91,-222.36 897.81,-231.82"/>
<polygon fill="saddlebrown" stroke="saddlebrown" points="896.84,-235.19 907.36,-233.93 898.35,-228.36 896.84,-235.19"/>
</a>
</g>
</g>
<!-- (*github.com/guild&#45;framework/guild&#45;core/pkg/gerror.GuildError).WithDetails -->
<g id="node15" class="node">
<title>(*github.com/guild&#45;framework/guild&#45;core/pkg/gerror.GuildError).WithDetails</title>
<g id="a_node15"><a xlink:title="(*github.com/guild&#45;framework/guild&#45;core/pkg/gerror.GuildError).WithDetails | defined in errors.go:147">
<path fill="moccasin" stroke="black" stroke-width="1.5" d="M1082.41,-149C1082.41,-149 907.12,-149 907.12,-149 901.12,-149 895.12,-143 895.12,-137 895.12,-137 895.12,-125 895.12,-125 895.12,-119 901.12,-113 907.12,-113 907.12,-113 1082.41,-113 1082.41,-113 1088.41,-113 1094.41,-119 1094.41,-125 1094.41,-125 1094.41,-137 1094.41,-137 1094.41,-143 1088.41,-149 1082.41,-149"/>
<text xml:space="preserve" text-anchor="middle" x="994.76" y="-126.33" font-family="Verdana" font-size="14.00">(*GuildError).WithDetails</text>
</a>
</g>
</g>
<!-- (*github.com/guild&#45;framework/guild&#45;core/pkg/providers/ollama.Client).makeRequest&#45;&gt;(*github.com/guild&#45;framework/guild&#45;core/pkg/gerror.GuildError).WithDetails -->
<g id="edge18" class="edge">
<title>(*github.com/guild&#45;framework/guild&#45;core/pkg/providers/ollama.Client).makeRequest&#45;&gt;(*github.com/guild&#45;framework/guild&#45;core/pkg/gerror.GuildError).WithDetails</title>
<g id="a_edge18"><a xlink:title="at client.go:407: calling [(*github.com/guild&#45;framework/guild&#45;core/pkg/gerror.GuildError).WithDetails]&#10;at client.go:408: calling [(*github.com/guild&#45;framework/guild&#45;core/pkg/gerror.GuildError).WithDetails]&#10;at client.go:409: calling [(*github.com/guild&#45;framework/guild&#45;core/pkg/gerror.GuildError).WithDetails]">
<path fill="none" stroke="saddlebrown" d="M746.64,-165.77C775.56,-158.33 810.08,-150.25 841.62,-145 855.04,-142.76 869.19,-140.86 883.24,-139.25"/>
<polygon fill="saddlebrown" stroke="saddlebrown" points="883.4,-142.75 892.96,-138.18 882.64,-135.8 883.4,-142.75"/>
</a>
</g>
</g>
<!-- (*github.com/guild&#45;framework/guild&#45;core/pkg/providers/ollama.Client).ChatCompletion -->
<g id="node4" class="node">
<title>(*github.com/guild&#45;framework/guild&#45;core/pkg/providers/ollama.Client).ChatCompletion</title>
<g id="a_node4"><a xlink:title="(*github.com/guild&#45;framework/guild&#45;core/pkg/providers/ollama.Client).ChatCompletion | defined in client.go:109&#10;at client.go:168: calling [github.com/guild&#45;framework/guild&#45;core/pkg/gerror.Wrap]&#10;at client.go:169: calling [(*github.com/guild&#45;framework/guild&#45;core/pkg/gerror.GuildError).WithComponent]&#10;at client.go:171: calling [(*github.com/guild&#45;framework/guild&#45;core/pkg/gerror.GuildError).WithDetails]&#10;at client.go:145: calling [(*github.com/guild&#45;framework/guild&#45;core/pkg/providers/ollama.Client).makeRequest]&#10;at client.go:170: calling [(*github.com/guild&#45;framework/guild&#45;core/pkg/gerror.GuildError).WithOperation]">
<path fill="lightblue" stroke="black" stroke-width="1.5" d="M462.45,-174C462.45,-174 286.41,-174 286.41,-174 280.41,-174 274.41,-168 274.41,-162 274.41,-162 274.41,-150 274.41,-150 274.41,-144 280.41,-138 286.41,-138 286.41,-138 462.45,-138 462.45,-138 468.45,-138 474.45,-144 474.45,-150 474.45,-150 474.45,-162 474.45,-162 474.45,-168 468.45,-174 462.45,-174"/>
<text xml:space="preserve" text-anchor="middle" x="374.43" y="-151.32" font-family="Verdana" font-size="14.00">(*Client).ChatCompletion</text>
</a>
</g>
</g>
<!-- (*github.com/guild&#45;framework/guild&#45;core/pkg/providers/ollama.Client).ChatCompletion&#45;&gt;(*github.com/guild&#45;framework/guild&#45;core/pkg/providers/ollama.Client).makeRequest -->
<g id="edge19" class="edge">
<title>(*github.com/guild&#45;framework/guild&#45;core/pkg/providers/ollama.Client).ChatCompletion&#45;&gt;(*github.com/guild&#45;framework/guild&#45;core/pkg/providers/ollama.Client).makeRequest</title>
<g id="a_edge19"><a xlink:title="at client.go:145: calling [(*github.com/guild&#45;framework/guild&#45;core/pkg/providers/ollama.Client).makeRequest]">
<path fill="none" stroke="black" d="M474.87,-165.17C507.44,-168.17 543.67,-171.51 576.48,-174.54"/>
<polygon fill="black" stroke="black" points="576.14,-178.02 586.42,-175.45 576.78,-171.05 576.14,-178.02"/>
</a>
</g>
</g>
<!-- (*github.com/guild&#45;framework/guild&#45;core/pkg/providers/ollama.Client).ChatCompletion&#45;&gt;(*github.com/guild&#45;framework/guild&#45;core/pkg/gerror.GuildError).WithComponent -->
<g id="edge10" class="edge">
<title>(*github.com/guild&#45;framework/guild&#45;core/pkg/providers/ollama.Client).ChatCompletion&#45;&gt;(*github.com/guild&#45;framework/guild&#45;core/pkg/gerror.GuildError).WithComponent</title>
<g id="a_edge10"><a xlink:title="at client.go:169: calling [(*github.com/guild&#45;framework/guild&#45;core/pkg/gerror.GuildError).WithComponent]">
<path fill="none" stroke="saddlebrown" d="M389.63,-174.53C417.03,-208.44 481.02,-279.13 554.58,-302 656.21,-333.59 777.53,-334.31 866.88,-328.43"/>
<polygon fill="saddlebrown" stroke="saddlebrown" points="866.92,-331.93 876.65,-327.74 866.43,-324.95 866.92,-331.93"/>
</a>
</g>
</g>
<!-- (*github.com/guild&#45;framework/guild&#45;core/pkg/providers/ollama.Client).ChatCompletion&#45;&gt;(*github.com/guild&#45;framework/guild&#45;core/pkg/gerror.GuildError).WithOperation -->
<g id="edge20" class="edge">
<title>(*github.com/guild&#45;framework/guild&#45;core/pkg/providers/ollama.Client).ChatCompletion&#45;&gt;(*github.com/guild&#45;framework/guild&#45;core/pkg/gerror.GuildError).WithOperation</title>
<g id="a_edge20"><a xlink:title="at client.go:170: calling [(*github.com/guild&#45;framework/guild&#45;core/pkg/gerror.GuildError).WithOperation]">
<path fill="none" stroke="saddlebrown" d="M392.57,-174.41C422.15,-204.67 486.23,-263.81 554.58,-286 660.7,-320.45 694.47,-295.67 805.62,-286 834.64,-283.47 865.9,-278.8 894.44,-273.74"/>
<polygon fill="saddlebrown" stroke="saddlebrown" points="894.94,-277.21 904.16,-271.98 893.7,-270.32 894.94,-277.21"/>
</a>
</g>
</g>
<!-- (*github.com/guild&#45;framework/guild&#45;core/pkg/providers/ollama.Client).ChatCompletion&#45;&gt;(*github.com/guild&#45;framework/guild&#45;core/pkg/gerror.GuildError).WithDetails -->
<g id="edge11" class="edge">
<title>(*github.com/guild&#45;framework/guild&#45;core/pkg/providers/ollama.Client).ChatCompletion&#45;&gt;(*github.com/guild&#45;framework/guild&#45;core/pkg/gerror.GuildError).WithDetails</title>
<g id="a_edge11"><a xlink:title="at client.go:171: calling [(*github.com/guild&#45;framework/guild&#45;core/pkg/gerror.GuildError).WithDetails]">
<path fill="none" stroke="saddlebrown" d="M462.99,-137.32C577.42,-114.04 771.61,-78.7 842.62,-91 855.64,-93.26 857.96,-97.21 870.62,-101 880.3,-103.9 890.46,-106.72 900.63,-109.4"/>
<polygon fill="saddlebrown" stroke="saddlebrown" points="899.61,-112.76 910.17,-111.87 901.37,-105.98 899.61,-112.76"/>
</a>
</g>
</g>
<!-- github.com/guild&#45;framework/guild&#45;core/pkg/gerror.Wrap -->
<g id="node16" class="node">
<title>github.com/guild&#45;framework/guild&#45;core/pkg/gerror.Wrap</title>
<g id="a_node16"><a xlink:title="github.com/guild&#45;framework/guild&#45;core/pkg/gerror.Wrap | defined in errors.go:223">
<path fill="moccasin" stroke="black" stroke-width="1.5" d="M1012.66,-88C1012.66,-88 976.87,-88 976.87,-88 970.87,-88 964.87,-82 964.87,-76 964.87,-76 964.87,-64 964.87,-64 964.87,-58 970.87,-52 976.87,-52 976.87,-52 1012.66,-52 1012.66,-52 1018.66,-52 1024.66,-58 1024.66,-64 1024.66,-64 1024.66,-76 1024.66,-76 1024.66,-82 1018.66,-88 1012.66,-88"/>
<text xml:space="preserve" text-anchor="middle" x="994.76" y="-65.33" font-family="Verdana" font-size="14.00">Wrap</text>
</a>
</g>
</g>
<!-- (*github.com/guild&#45;framework/guild&#45;core/pkg/providers/ollama.Client).ChatCompletion&#45;&gt;github.com/guild&#45;framework/guild&#45;core/pkg/gerror.Wrap -->
<g id="edge1" class="edge">
<title>(*github.com/guild&#45;framework/guild&#45;core/pkg/providers/ollama.Client).ChatCompletion&#45;&gt;github.com/guild&#45;framework/guild&#45;core/pkg/gerror.Wrap</title>
<g id="a_edge1"><a xlink:title="at client.go:168: calling [github.com/guild&#45;framework/guild&#45;core/pkg/gerror.Wrap]">
<path fill="none" stroke="saddlebrown" d="M451.11,-137.3C461.51,-133.96 471.92,-130.19 481.58,-126 516.34,-110.94 518.98,-94.95 554.58,-82 675.93,-37.85 712.88,-47.03 841.62,-37 880.26,-33.99 923.35,-44.7 953.78,-54.71"/>
<polygon fill="saddlebrown" stroke="saddlebrown" points="952.36,-57.93 962.95,-57.85 954.62,-51.3 952.36,-57.93"/>
</a>
</g>
</g>
<!-- (*github.com/guild&#45;framework/guild&#45;core/pkg/providers/ollama.Client).PullModel -->
<g id="node5" class="node">
<title>(*github.com/guild&#45;framework/guild&#45;core/pkg/providers/ollama.Client).PullModel</title>
<g id="a_node5"><a xlink:title="(*github.com/guild&#45;framework/guild&#45;core/pkg/providers/ollama.Client).PullModel | defined in client.go:303&#10;at client.go:318: calling [(*github.com/guild&#45;framework/guild&#45;core/pkg/providers/ollama.Client).PullModel$1]">
<path fill="lightblue" stroke="black" stroke-width="1.5" d="M170.66,-113C170.66,-113 39.62,-113 39.62,-113 33.62,-113 27.62,-107 27.62,-101 27.62,-101 27.62,-89 27.62,-89 27.62,-83 33.62,-77 39.62,-77 39.62,-77 170.66,-77 170.66,-77 176.66,-77 182.66,-83 182.66,-89 182.66,-89 182.66,-101 182.66,-101 182.66,-107 176.66,-113 170.66,-113"/>
<text xml:space="preserve" text-anchor="middle" x="105.14" y="-90.33" font-family="Verdana" font-size="14.00">(*Client).PullModel</text>
</a>
</g>
</g>
<!-- (*github.com/guild&#45;framework/guild&#45;core/pkg/providers/ollama.Client).PullModel$1 -->
<g id="node6" class="node">
<title>(*github.com/guild&#45;framework/guild&#45;core/pkg/providers/ollama.Client).PullModel$1</title>
<g id="a_node6"><a xlink:title="(*github.com/guild&#45;framework/guild&#45;core/pkg/providers/ollama.Client).PullModel$1 | defined in client.go:318">
<polygon fill="lightblue" stroke="black" stroke-dasharray="1,5" points="460.95,-113 287.91,-113 287.91,-77 460.95,-77 460.95,-113"/>
<text xml:space="preserve" text-anchor="middle" x="374.43" y="-90.33" font-family="Verdana" font-size="14.00">(*Client).PullModel$1</text>
</a>
</g>
</g>
<!-- (*github.com/guild&#45;framework/guild&#45;core/pkg/providers/ollama.Client).PullModel&#45;&gt;(*github.com/guild&#45;framework/guild&#45;core/pkg/providers/ollama.Client).PullModel$1 -->
<g id="edge2" class="edge">
<title>(*github.com/guild&#45;framework/guild&#45;core/pkg/providers/ollama.Client).PullModel&#45;&gt;(*github.com/guild&#45;framework/guild&#45;core/pkg/providers/ollama.Client).PullModel$1</title>
<g id="a_edge2"><a xlink:title="at client.go:318: calling [(*github.com/guild&#45;framework/guild&#45;core/pkg/providers/ollama.Client).PullModel$1]">
<path fill="none" stroke="black" d="M183.1,-95C206.6,-95 232.97,-95 258.42,-95"/>
<polygon fill="black" stroke="black" points="276.13,-98.5 286.13,-95 276.13,-91.5 276.13,-98.5"/>
<polyline fill="none" stroke="black" points="275.63,-95 270.63,-95"/>
<polygon fill="none" stroke="black" points="257.73,-95 263.73,-91 269.73,-95 263.73,-99 257.73,-95"/>
</a>
</g>
</g>
<!-- (*github.com/guild&#45;framework/guild&#45;core/pkg/providers/ollama.Client).Complete -->
<g id="node7" class="node">
<title>(*github.com/guild&#45;framework/guild&#45;core/pkg/providers/ollama.Client).Complete</title>
<g id="a_node7"><a xlink:title="(*github.com/guild&#45;framework/guild&#45;core/pkg/providers/ollama.Client).Complete | defined in client.go:476&#10;at client.go:484: calling [(*github.com/guild&#45;framework/guild&#45;core/pkg/providers/ollama.Client).ChatCompletion]">
<path fill="lightblue" stroke="black" stroke-width="1.5" d="M170.66,-174C170.66,-174 39.62,-174 39.62,-174 33.62,-174 27.62,-168 27.62,-162 27.62,-162 27.62,-150 27.62,-150 27.62,-144 33.62,-138 39.62,-138 39.62,-138 170.66,-138 170.66,-138 176.66,-138 182.66,-144 182.66,-150 182.66,-150 182.66,-162 182.66,-162 182.66,-168 176.66,-174 170.66,-174"/>
<text xml:space="preserve" text-anchor="middle" x="105.14" y="-151.32" font-family="Verdana" font-size="14.00">(*Client).Complete</text>
</a>
</g>
</g>
<!-- (*github.com/guild&#45;framework/guild&#45;core/pkg/providers/ollama.Client).Complete&#45;&gt;(*github.com/guild&#45;framework/guild&#45;core/pkg/providers/ollama.Client).ChatCompletion -->
<g id="edge21" class="edge">
<title>(*github.com/guild&#45;framework/guild&#45;core/pkg/providers/ollama.Client).Complete&#45;&gt;(*github.com/guild&#45;framework/guild&#45;core/pkg/providers/ollama.Client).ChatCompletion</title>
<g id="a_edge21"><a xlink:title="at client.go:484: calling [(*github.com/guild&#45;framework/guild&#45;core/pkg/providers/ollama.Client).ChatCompletion]">
<path fill="none" stroke="black" d="M183.1,-156C207.93,-156 235.96,-156 262.73,-156"/>
<polygon fill="black" stroke="black" points="262.6,-159.5 272.6,-156 262.6,-152.5 262.6,-159.5"/>
</a>
</g>
</g>
<!-- (*github.com/guild&#45;framework/guild&#45;core/pkg/providers/ollama.Client).StreamChatCompletion -->
<g id="node8" class="node">
<title>(*github.com/guild&#45;framework/guild&#45;core/pkg/providers/ollama.Client).StreamChatCompletion</title>
<g id="a_node8"><a xlink:title="(*github.com/guild&#45;framework/guild&#45;core/pkg/providers/ollama.Client).StreamChatCompletion | defined in client.go:197&#10;at client.go:236: calling [(*github.com/guild&#45;framework/guild&#45;core/pkg/gerror.GuildError).WithOperation]&#10;at client.go:235: calling [(*github.com/guild&#45;framework/guild&#45;core/pkg/gerror.GuildError).WithComponent]&#10;at client.go:237: calling [(*github.com/guild&#45;framework/guild&#45;core/pkg/gerror.GuildError).WithDetails]&#10;at client.go:238: calling [(*github.com/guild&#45;framework/guild&#45;core/pkg/gerror.GuildError).WithDetails]&#10;at client.go:234: calling [github.com/guild&#45;framework/guild&#45;core/pkg/gerror.Newf]">
<path fill="lightblue" stroke="black" stroke-width="1.5" d="M793.62,-273C793.62,-273 566.58,-273 566.58,-273 560.58,-273 554.58,-267 554.58,-261 554.58,-261 554.58,-249 554.58,-249 554.58,-243 560.58,-237 566.58,-237 566.58,-237 793.62,-237 793.62,-237 799.62,-237 805.62,-243 805.62,-249 805.62,-249 805.62,-261 805.62,-261 805.62,-267 799.62,-273 793.62,-273"/>
<text xml:space="preserve" text-anchor="middle" x="680.1" y="-250.32" font-family="Verdana" font-size="14.00">(*Client).StreamChatCompletion</text>
</a>
</g>
</g>
<!-- (*github.com/guild&#45;framework/guild&#45;core/pkg/providers/ollama.Client).StreamChatCompletion&#45;&gt;github.com/guild&#45;framework/guild&#45;core/pkg/gerror.Newf -->
<g id="edge22" class="edge">
<title>(*github.com/guild&#45;framework/guild&#45;core/pkg/providers/ollama.Client).StreamChatCompletion&#45;&gt;github.com/guild&#45;framework/guild&#45;core/pkg/gerror.Newf</title>
<g id="a_edge22"><a xlink:title="at client.go:234: calling [github.com/guild&#45;framework/guild&#45;core/pkg/gerror.Newf]">
<path fill="none" stroke="saddlebrown" d="M774.06,-236.27C834.01,-224.19 908.92,-209.1 953.97,-200.02"/>
<polygon fill="saddlebrown" stroke="saddlebrown" points="954.43,-203.5 963.54,-198.09 953.04,-196.63 954.43,-203.5"/>
</a>
</g>
</g>
<!-- (*github.com/guild&#45;framework/guild&#45;core/pkg/providers/ollama.Client).StreamChatCompletion&#45;&gt;(*github.com/guild&#45;framework/guild&#45;core/pkg/gerror.GuildError).WithComponent -->
<g id="edge12" class="edge">
<title>(*github.com/guild&#45;framework/guild&#45;core/pkg/providers/ollama.Client).StreamChatCompletion&#45;&gt;(*github.com/guild&#45;framework/guild&#45;core/pkg/gerror.GuildError).WithComponent</title>
<g id="a_edge12"><a xlink:title="at client.go:235: calling [(*github.com/guild&#45;framework/guild&#45;core/pkg/gerror.GuildError).WithComponent]">
<path fill="none" stroke="saddlebrown" d="M751.07,-273.73C779.08,-280.78 811.74,-288.42 841.62,-294 849.81,-295.53 858.28,-296.98 866.82,-298.36"/>
<polygon fill="saddlebrown" stroke="saddlebrown" points="866.17,-301.8 876.59,-299.89 867.25,-294.88 866.17,-301.8"/>
</a>
</g>
</g>
<!-- (*github.com/guild&#45;framework/guild&#45;core/pkg/providers/ollama.Client).StreamChatCompletion&#45;&gt;(*github.com/guild&#45;framework/guild&#45;core/pkg/gerror.GuildError).WithOperation -->
<g id="edge3" class="edge">
<title>(*github.com/guild&#45;framework/guild&#45;core/pkg/providers/ollama.Client).StreamChatCompletion&#45;&gt;(*github.com/guild&#45;framework/guild&#45;core/pkg/gerror.GuildError).WithOperation</title>
<g id="a_edge3"><a xlink:title="at client.go:236: calling [(*github.com/guild&#45;framework/guild&#45;core/pkg/gerror.GuildError).WithOperation]">
<path fill="none" stroke="saddlebrown" d="M806.02,-254.2C827.89,-254.06 850.62,-253.92 872.39,-253.78"/>
<polygon fill="saddlebrown" stroke="saddlebrown" points="872.19,-257.28 882.17,-253.71 872.15,-250.28 872.19,-257.28"/>
</a>
</g>
</g>
<!-- (*github.com/guild&#45;framework/guild&#45;core/pkg/providers/ollama.Client).StreamChatCompletion&#45;&gt;(*github.com/guild&#45;framework/guild&#45;core/pkg/gerror.GuildError).WithDetails -->
<g id="edge13" class="edge">
<title>(*github.com/guild&#45;framework/guild&#45;core/pkg/providers/ollama.Client).StreamChatCompletion&#45;&gt;(*github.com/guild&#45;framework/guild&#45;core/pkg/gerror.GuildError).WithDetails</title>
<g id="a_edge13"><a xlink:title="at client.go:237: calling [(*github.com/guild&#45;framework/guild&#45;core/pkg/gerror.GuildError).WithDetails]&#10;at client.go:238: calling [(*github.com/guild&#45;framework/guild&#45;core/pkg/gerror.GuildError).WithDetails]">
<path fill="none" stroke="saddlebrown" d="M754.76,-236.35C771.96,-230.65 789.86,-223.56 805.62,-215 838.38,-197.21 837.31,-178.73 870.62,-162 876.83,-158.88 883.37,-156.07 890.07,-153.52"/>
<polygon fill="saddlebrown" stroke="saddlebrown" points="891.04,-156.89 899.29,-150.24 888.69,-150.29 891.04,-156.89"/>
</a>
</g>
</g>
<!-- (*github.com/guild&#45;framework/guild&#45;core/pkg/providers/ollama.Client).CreateEmbedding -->
<g id="node9" class="node">
<title>(*github.com/guild&#45;framework/guild&#45;core/pkg/providers/ollama.Client).CreateEmbedding</title>
<g id="a_node9"><a xlink:title="(*github.com/guild&#45;framework/guild&#45;core/pkg/providers/ollama.Client).CreateEmbedding | defined in client.go:248&#10;at client.go:251: calling [github.com/guild&#45;framework/guild&#45;core/pkg/gerror.New]&#10;at client.go:265: calling [(*github.com/guild&#45;framework/guild&#45;core/pkg/providers/ollama.Client).makeRequest]&#10;at client.go:252: calling [(*github.com/guild&#45;framework/guild&#45;core/pkg/gerror.GuildError).WithComponent]&#10;at client.go:276: calling [(*github.com/guild&#45;framework/guild&#45;core/pkg/gerror.GuildError).WithComponent]&#10;at client.go:253: calling [(*github.com/guild&#45;framework/guild&#45;core/pkg/gerror.GuildError).WithOperation]&#10;at client.go:277: calling [(*github.com/guild&#45;framework/guild&#45;core/pkg/gerror.GuildError).WithOperation]&#10;at client.go:275: calling [github.com/guild&#45;framework/guild&#45;core/pkg/gerror.Wrap]&#10;at client.go:254: calling [(*github.com/guild&#45;framework/guild&#45;core/pkg/gerror.GuildError).WithDetails]&#10;at client.go:278: calling [(*github.com/guild&#45;framework/guild&#45;core/pkg/gerror.GuildError).WithDetails]">
<path fill="lightblue" stroke="black" stroke-width="1.5" d="M469.58,-387C469.58,-387 279.29,-387 279.29,-387 273.29,-387 267.29,-381 267.29,-375 267.29,-375 267.29,-363 267.29,-363 267.29,-357 273.29,-351 279.29,-351 279.29,-351 469.58,-351 469.58,-351 475.58,-351 481.58,-357 481.58,-363 481.58,-363 481.58,-375 481.58,-375 481.58,-381 475.58,-387 469.58,-387"/>
<text xml:space="preserve" text-anchor="middle" x="374.43" y="-364.32" font-family="Verdana" font-size="14.00">(*Client).CreateEmbedding</text>
</a>
</g>
</g>
<!-- (*github.com/guild&#45;framework/guild&#45;core/pkg/providers/ollama.Client).CreateEmbedding&#45;&gt;(*github.com/guild&#45;framework/guild&#45;core/pkg/providers/ollama.Client).makeRequest -->
<g id="edge5" class="edge">
<title>(*github.com/guild&#45;framework/guild&#45;core/pkg/providers/ollama.Client).CreateEmbedding&#45;&gt;(*github.com/guild&#45;framework/guild&#45;core/pkg/providers/ollama.Client).makeRequest</title>
<g id="a_edge5"><a xlink:title="at client.go:265: calling [(*github.com/guild&#45;framework/guild&#45;core/pkg/providers/ollama.Client).makeRequest]">
<path fill="none" stroke="black" d="M393.66,-350.53C424.34,-320.39 489.36,-260.43 554.58,-225 568.18,-217.61 583.34,-211.26 598.27,-205.91"/>
<polygon fill="black" stroke="black" points="599.33,-209.24 607.65,-202.68 597.05,-202.63 599.33,-209.24"/>
</a>
</g>
</g>
<!-- (*github.com/guild&#45;framework/guild&#45;core/pkg/providers/ollama.Client).CreateEmbedding&#45;&gt;(*github.com/guild&#45;framework/guild&#45;core/pkg/gerror.GuildError).WithComponent -->
<g id="edge14" class="edge">
<title>(*github.com/guild&#45;framework/guild&#45;core/pkg/providers/ollama.Client).CreateEmbedding&#45;&gt;(*github.com/guild&#45;framework/guild&#45;core/pkg/gerror.GuildError).WithComponent</title>
<g id="a_edge14"><a xlink:title="at client.go:252: calling [(*github.com/guild&#45;framework/guild&#45;core/pkg/gerror.GuildError).WithComponent]&#10;at client.go:276: calling [(*github.com/guild&#45;framework/guild&#45;core/pkg/gerror.GuildError).WithComponent]">
<path fill="none" stroke="saddlebrown" d="M441.77,-387.7C465.49,-393.51 492.54,-399.13 517.58,-402 589.34,-410.22 781.31,-440.19 842.62,-402 866.58,-387.08 848.68,-362.76 870.62,-345 873.67,-342.53 876.89,-340.26 880.24,-338.16"/>
<polygon fill="saddlebrown" stroke="saddlebrown" points="881.65,-341.38 888.68,-333.45 878.25,-335.27 881.65,-341.38"/>
</a>
</g>
</g>
<!-- (*github.com/guild&#45;framework/guild&#45;core/pkg/providers/ollama.Client).CreateEmbedding&#45;&gt;(*github.com/guild&#45;framework/guild&#45;core/pkg/gerror.GuildError).WithOperation -->
<g id="edge16" class="edge">
<title>(*github.com/guild&#45;framework/guild&#45;core/pkg/providers/ollama.Client).CreateEmbedding&#45;&gt;(*github.com/guild&#45;framework/guild&#45;core/pkg/gerror.GuildError).WithOperation</title>
<g id="a_edge16"><a xlink:title="at client.go:253: calling [(*github.com/guild&#45;framework/guild&#45;core/pkg/gerror.GuildError).WithOperation]&#10;at client.go:277: calling [(*github.com/guild&#45;framework/guild&#45;core/pkg/gerror.GuildError).WithOperation]">
<path fill="none" stroke="saddlebrown" d="M482.14,-355.87C569.57,-344.28 696.27,-325.57 805.62,-302 834.92,-295.68 841.64,-291.66 870.62,-284 882.37,-280.89 894.77,-277.69 906.99,-274.57"/>
<polygon fill="saddlebrown" stroke="saddlebrown" points="907.85,-277.96 916.68,-272.11 906.13,-271.18 907.85,-277.96"/>
</a>
</g>
</g>
<!-- (*github.com/guild&#45;framework/guild&#45;core/pkg/providers/ollama.Client).CreateEmbedding&#45;&gt;(*github.com/guild&#45;framework/guild&#45;core/pkg/gerror.GuildError).WithDetails -->
<g id="edge23" class="edge">
<title>(*github.com/guild&#45;framework/guild&#45;core/pkg/providers/ollama.Client).CreateEmbedding&#45;&gt;(*github.com/guild&#45;framework/guild&#45;core/pkg/gerror.GuildError).WithDetails</title>
<g id="a_edge23"><a xlink:title="at client.go:254: calling [(*github.com/guild&#45;framework/guild&#45;core/pkg/gerror.GuildError).WithDetails]&#10;at client.go:278: calling [(*github.com/guild&#45;framework/guild&#45;core/pkg/gerror.GuildError).WithDetails]">
<path fill="none" stroke="saddlebrown" d="M384.11,-350.53C405.72,-306.94 466.61,-198.05 554.58,-154 610.11,-126.2 772.39,-124.44 883.34,-126.86"/>
<polygon fill="saddlebrown" stroke="saddlebrown" points="882.99,-130.35 893.07,-127.08 883.15,-123.35 882.99,-130.35"/>
</a>
</g>
</g>
<!-- (*github.com/guild&#45;framework/guild&#45;core/pkg/providers/ollama.Client).CreateEmbedding&#45;&gt;github.com/guild&#45;framework/guild&#45;core/pkg/gerror.Wrap -->
<g id="edge17" class="edge">
<title>(*github.com/guild&#45;framework/guild&#45;core/pkg/providers/ollama.Client).CreateEmbedding&#45;&gt;github.com/guild&#45;framework/guild&#45;core/pkg/gerror.Wrap</title>
<g id="a_edge17"><a xlink:title="at client.go:275: calling [github.com/guild&#45;framework/guild&#45;core/pkg/gerror.Wrap]">
<path fill="none" stroke="saddlebrown" d="M386.03,-350.5C416.68,-297.68 506.28,-148.18 554.58,-120 621.64,-80.87 857.07,-72.36 952.81,-70.51"/>
<polygon fill="saddlebrown" stroke="saddlebrown" points="952.86,-74.01 962.79,-70.34 952.73,-67.01 952.86,-74.01"/>
</a>
</g>
</g>
<!-- github.com/guild&#45;framework/guild&#45;core/pkg/gerror.New -->
<g id="node17" class="node">
<title>github.com/guild&#45;framework/guild&#45;core/pkg/gerror.New</title>
<g id="a_node17"><a xlink:title="github.com/guild&#45;framework/guild&#45;core/pkg/gerror.New | defined in errors.go:190">
<path fill="moccasin" stroke="black" stroke-width="1.5" d="M1009.76,-393C1009.76,-393 979.76,-393 979.76,-393 973.76,-393 967.76,-387 967.76,-381 967.76,-381 967.76,-369 967.76,-369 967.76,-363 973.76,-357 979.76,-357 979.76,-357 1009.76,-357 1009.76,-357 1015.76,-357 1021.76,-363 1021.76,-369 1021.76,-369 1021.76,-381 1021.76,-381 1021.76,-387 1015.76,-393 1009.76,-393"/>
<text xml:space="preserve" text-anchor="middle" x="994.76" y="-370.32" font-family="Verdana" font-size="14.00">New</text>
</a>
</g>
</g>
<!-- (*github.com/guild&#45;framework/guild&#45;core/pkg/providers/ollama.Client).CreateEmbedding&#45;&gt;github.com/guild&#45;framework/guild&#45;core/pkg/gerror.New -->
<g id="edge4" class="edge">
<title>(*github.com/guild&#45;framework/guild&#45;core/pkg/providers/ollama.Client).CreateEmbedding&#45;&gt;github.com/guild&#45;framework/guild&#45;core/pkg/gerror.New</title>
<g id="a_edge4"><a xlink:title="at client.go:251: calling [github.com/guild&#45;framework/guild&#45;core/pkg/gerror.New]">
<path fill="none" stroke="saddlebrown" d="M450.19,-387.72C460.98,-391.51 471.75,-395.92 481.58,-401 499.59,-410.3 498.41,-422.42 517.58,-429 654.22,-475.88 700.28,-453.66 842.62,-429 882.97,-422.01 926.8,-405.25 956.82,-392.24"/>
<polygon fill="saddlebrown" stroke="saddlebrown" points="958.1,-395.5 965.84,-388.26 955.27,-389.1 958.1,-395.5"/>
</a>
</g>
</g>
<!-- (*github.com/guild&#45;framework/guild&#45;core/pkg/providers/ollama.ollamaStream).Next -->
<g id="node10" class="node">
<title>(*github.com/guild&#45;framework/guild&#45;core/pkg/providers/ollama.ollamaStream).Next</title>
<g id="a_node10"><a xlink:title="(*github.com/guild&#45;framework/guild&#45;core/pkg/providers/ollama.ollamaStream).Next | defined in client.go:421&#10;at client.go:449: calling [(*github.com/guild&#45;framework/guild&#45;core/pkg/providers/ollama.ollamaStream).Next$1]">
<path fill="lightblue" stroke="black" stroke-width="1.5" d="M182.29,-449C182.29,-449 28,-449 28,-449 22,-449 16,-443 16,-437 16,-437 16,-425 16,-425 16,-419 22,-413 28,-413 28,-413 182.29,-413 182.29,-413 188.29,-413 194.29,-419 194.29,-425 194.29,-425 194.29,-437 194.29,-437 194.29,-443 188.29,-449 182.29,-449"/>
<text xml:space="preserve" text-anchor="middle" x="105.14" y="-426.32" font-family="Verdana" font-size="14.00">(*ollamaStream).Next</text>
</a>
</g>
</g>
<!-- (*github.com/guild&#45;framework/guild&#45;core/pkg/providers/ollama.ollamaStream).Next$1 -->
<g id="node11" class="node">
<title>(*github.com/guild&#45;framework/guild&#45;core/pkg/providers/ollama.ollamaStream).Next$1</title>
<g id="a_node11"><a xlink:title="(*github.com/guild&#45;framework/guild&#45;core/pkg/providers/ollama.ollamaStream).Next$1 | defined in client.go:444">
<polygon fill="lightblue" stroke="black" stroke-dasharray="1,5" points="472.58,-449 276.29,-449 276.29,-413 472.58,-413 472.58,-449"/>
<text xml:space="preserve" text-anchor="middle" x="374.43" y="-426.32" font-family="Verdana" font-size="14.00">(*ollamaStream).Next$1</text>
</a>
</g>
</g>
<!-- (*github.com/guild&#45;framework/guild&#45;core/pkg/providers/ollama.ollamaStream).Next&#45;&gt;(*github.com/guild&#45;framework/guild&#45;core/pkg/providers/ollama.ollamaStream).Next$1 -->
<g id="edge6" class="edge">
<title>(*github.com/guild&#45;framework/guild&#45;core/pkg/providers/ollama.ollamaStream).Next&#45;&gt;(*github.com/guild&#45;framework/guild&#45;core/pkg/providers/ollama.ollamaStream).Next$1</title>
<g id="a_edge6"><a xlink:title="at client.go:449: calling [(*github.com/guild&#45;framework/guild&#45;core/pkg/providers/ollama.ollamaStream).Next$1]">
<path fill="none" stroke="black" d="M194.78,-431C217.11,-431 241.34,-431 264.54,-431"/>
<polygon fill="black" stroke="black" points="264.32,-434.5 274.32,-431 264.32,-427.5 264.32,-434.5"/>
</a>
</g>
</g>
</g>
</svg>
