<?xml version="1.0" encoding="UTF-8" standalone="no"?>
<!DOCTYPE svg PUBLIC "-//W3C//DTD SVG 1.1//EN"
 "http://www.w3.org/Graphics/SVG/1.1/DTD/svg11.dtd">
<!-- Generated by graphviz version 14.1.1 (20251213.1925)
 -->
<!-- Title: gocallvis Pages: 1 -->
<svg width="938pt" height="693pt"
 viewBox="0.00 0.00 938.00 693.00" xmlns="http://www.w3.org/2000/svg" xmlns:xlink="http://www.w3.org/1999/xlink">
<g id="graph0" class="graph" transform="scale(1 1) rotate(0) translate(0 693)">
<title>gocallvis</title>
<polygon fill="lightgray" stroke="none" points="0,0 0,-693 938.37,-693 938.37,0 0,0"/>
<g id="clust1" class="cluster">
<title>cluster_focus</title>
<polygon fill="#e6ecfa" stroke="black" stroke-width="0.5" points="8,-8 8,-685 930.37,-685 930.37,-8 8,-8"/>
<text xml:space="preserve" text-anchor="middle" x="469.18" y="-663.9" font-family="Arial" font-size="18.00">mock</text>
</g>
<g id="clust2" class="cluster">
<title>cluster_github.com/guild&#45;framework/guild&#45;core/pkg/gerror</title>
<g id="a_clust2"><a xlink:href="/?f=github.com/guild-framework/guild-core/pkg/gerror" xlink:title="package: github.com/guild&#45;framework/guild&#45;core/pkg/gerror">
<polygon fill="lightyellow" stroke="black" stroke-width="0.8" points="674.08,-69 674.08,-393 922.37,-393 922.37,-69 674.08,-69"/>
<text xml:space="preserve" text-anchor="middle" x="798.22" y="-373.8" font-family="Tahoma bold" font-size="16.00">gerror</text>
</a>
</g>
</g>
<!-- (*github.com/guild&#45;framework/guild&#45;core/pkg/providers/mock.Provider).ChatCompletion -->
<g id="node1" class="node">
<title>(*github.com/guild&#45;framework/guild&#45;core/pkg/providers/mock.Provider).ChatCompletion</title>
<g id="a_node1"><a xlink:title="(*github.com/guild&#45;framework/guild&#45;core/pkg/providers/mock.Provider).ChatCompletion | defined in provider.go:154&#10;at provider.go:157: calling [(*github.com/guild&#45;framework/guild&#45;core/pkg/gerror.GuildError).WithComponent]&#10;at provider.go:203: calling [(*github.com/guild&#45;framework/guild&#45;core/pkg/providers/mock.Provider).findYAMLResponse]&#10;at provider.go:158: calling [(*github.com/guild&#45;framework/guild&#45;core/pkg/gerror.GuildError).WithOperation]&#10;at provider.go:156: calling [github.com/guild&#45;framework/guild&#45;core/pkg/gerror.New]">
<path fill="lightblue" stroke="black" stroke-width="1.5" d="M579.08,-113C579.08,-113 385.04,-113 385.04,-113 379.04,-113 373.04,-107 373.04,-101 373.04,-101 373.04,-89 373.04,-89 373.04,-83 379.04,-77 385.04,-77 385.04,-77 579.08,-77 579.08,-77 585.08,-77 591.08,-83 591.08,-89 591.08,-89 591.08,-101 591.08,-101 591.08,-107 585.08,-113 579.08,-113"/>
<text xml:space="preserve" text-anchor="middle" x="482.06" y="-90.33" font-family="Verdana" font-size="14.00">(*Provider).ChatCompletion</text>
</a>
</g>
</g>
<!-- (*github.com/guild&#45;framework/guild&#45;core/pkg/providers/mock.Provider).findYAMLResponse -->
<g id="node2" class="node">
<title>(*github.com/guild&#45;framework/guild&#45;core/pkg/providers/mock.Provider).findYAMLResponse</title>
<g id="a_node2"><a xlink:title="(*github.com/guild&#45;framework/guild&#45;core/pkg/providers/mock.Provider).findYAMLResponse | defined in provider.go:263">
<path fill="lightblue" stroke="black" stroke-width="0.5" d="M905.37,-52C905.37,-52 691.08,-52 691.08,-52 685.08,-52 679.08,-46 679.08,-40 679.08,-40 679.08,-28 679.08,-28 679.08,-22 685.08,-16 691.08,-16 691.08,-16 905.37,-16 905.37,-16 911.37,-16 917.37,-22 917.37,-28 917.37,-28 917.37,-40 917.37,-40 917.37,-46 911.37,-52 905.37,-52"/>
<text xml:space="preserve" text-anchor="middle" x="798.22" y="-29.32" font-family="Verdana" font-size="14.00">(*Provider).findYAMLResponse</text>
</a>
</g>
</g>
<!-- (*github.com/guild&#45;framework/guild&#45;core/pkg/providers/mock.Provider).ChatCompletion&#45;&gt;(*github.com/guild&#45;framework/guild&#45;core/pkg/providers/mock.Provider).findYAMLResponse -->
<g id="edge7" class="edge">
<title>(*github.com/guild&#45;framework/guild&#45;core/pkg/providers/mock.Provider).ChatCompletion&#45;&gt;(*github.com/guild&#45;framework/guild&#45;core/pkg/providers/mock.Provider).findYAMLResponse</title>
<g id="a_edge7"><a xlink:title="at provider.go:203: calling [(*github.com/guild&#45;framework/guild&#45;core/pkg/providers/mock.Provider).findYAMLResponse]">
<path fill="none" stroke="black" d="M579.45,-76.28C615.17,-69.35 655.83,-61.45 692.27,-54.38"/>
<polygon fill="black" stroke="black" points="692.8,-57.84 701.95,-52.5 691.47,-50.97 692.8,-57.84"/>
</a>
</g>
</g>
<!-- github.com/guild&#45;framework/guild&#45;core/pkg/gerror.New -->
<g id="node19" class="node">
<title>github.com/guild&#45;framework/guild&#45;core/pkg/gerror.New</title>
<g id="a_node19"><a xlink:title="github.com/guild&#45;framework/guild&#45;core/pkg/gerror.New | defined in errors.go:190">
<path fill="moccasin" stroke="black" stroke-width="1.5" d="M813.22,-113C813.22,-113 783.22,-113 783.22,-113 777.22,-113 771.22,-107 771.22,-101 771.22,-101 771.22,-89 771.22,-89 771.22,-83 777.22,-77 783.22,-77 783.22,-77 813.22,-77 813.22,-77 819.22,-77 825.22,-83 825.22,-89 825.22,-89 825.22,-101 825.22,-101 825.22,-107 819.22,-113 813.22,-113"/>
<text xml:space="preserve" text-anchor="middle" x="798.22" y="-90.33" font-family="Verdana" font-size="14.00">New</text>
</a>
</g>
</g>
<!-- (*github.com/guild&#45;framework/guild&#45;core/pkg/providers/mock.Provider).ChatCompletion&#45;&gt;github.com/guild&#45;framework/guild&#45;core/pkg/gerror.New -->
<g id="edge20" class="edge">
<title>(*github.com/guild&#45;framework/guild&#45;core/pkg/providers/mock.Provider).ChatCompletion&#45;&gt;github.com/guild&#45;framework/guild&#45;core/pkg/gerror.New</title>
<g id="a_edge20"><a xlink:title="at provider.go:156: calling [github.com/guild&#45;framework/guild&#45;core/pkg/gerror.New]">
<path fill="none" stroke="saddlebrown" d="M591.62,-95C649.73,-95 717.67,-95 759.06,-95"/>
<polygon fill="saddlebrown" stroke="saddlebrown" points="758.99,-98.5 768.99,-95 758.99,-91.5 758.99,-98.5"/>
</a>
</g>
</g>
<!-- (*github.com/guild&#45;framework/guild&#45;core/pkg/gerror.GuildError).WithComponent -->
<g id="node20" class="node">
<title>(*github.com/guild&#45;framework/guild&#45;core/pkg/gerror.GuildError).WithComponent</title>
<g id="a_node20"><a xlink:title="(*github.com/guild&#45;framework/guild&#45;core/pkg/gerror.GuildError).WithComponent | defined in errors.go:156">
<path fill="moccasin" stroke="black" stroke-width="1.5" d="M902.37,-174C902.37,-174 694.08,-174 694.08,-174 688.08,-174 682.08,-168 682.08,-162 682.08,-162 682.08,-150 682.08,-150 682.08,-144 688.08,-138 694.08,-138 694.08,-138 902.37,-138 902.37,-138 908.37,-138 914.37,-144 914.37,-150 914.37,-150 914.37,-162 914.37,-162 914.37,-168 908.37,-174 902.37,-174"/>
<text xml:space="preserve" text-anchor="middle" x="798.22" y="-151.32" font-family="Verdana" font-size="14.00">(*GuildError).WithComponent</text>
</a>
</g>
</g>
<!-- (*github.com/guild&#45;framework/guild&#45;core/pkg/providers/mock.Provider).ChatCompletion&#45;&gt;(*github.com/guild&#45;framework/guild&#45;core/pkg/gerror.GuildError).WithComponent -->
<g id="edge1" class="edge">
<title>(*github.com/guild&#45;framework/guild&#45;core/pkg/providers/mock.Provider).ChatCompletion&#45;&gt;(*github.com/guild&#45;framework/guild&#45;core/pkg/gerror.GuildError).WithComponent</title>
<g id="a_edge1"><a xlink:title="at provider.go:157: calling [(*github.com/guild&#45;framework/guild&#45;core/pkg/gerror.GuildError).WithComponent]">
<path fill="none" stroke="saddlebrown" d="M579.45,-113.72C614.35,-120.49 653.98,-128.19 689.77,-135.14"/>
<polygon fill="saddlebrown" stroke="saddlebrown" points="688.77,-138.51 699.26,-136.98 690.11,-131.64 688.77,-138.51"/>
</a>
</g>
</g>
<!-- (*github.com/guild&#45;framework/guild&#45;core/pkg/gerror.GuildError).WithOperation -->
<g id="node21" class="node">
<title>(*github.com/guild&#45;framework/guild&#45;core/pkg/gerror.GuildError).WithOperation</title>
<g id="a_node21"><a xlink:title="(*github.com/guild&#45;framework/guild&#45;core/pkg/gerror.GuildError).WithOperation | defined in errors.go:162">
<path fill="moccasin" stroke="black" stroke-width="1.5" d="M896.74,-235C896.74,-235 699.7,-235 699.7,-235 693.7,-235 687.7,-229 687.7,-223 687.7,-223 687.7,-211 687.7,-211 687.7,-205 693.7,-199 699.7,-199 699.7,-199 896.74,-199 896.74,-199 902.74,-199 908.74,-205 908.74,-211 908.74,-211 908.74,-223 908.74,-223 908.74,-229 902.74,-235 896.74,-235"/>
<text xml:space="preserve" text-anchor="middle" x="798.22" y="-212.32" font-family="Verdana" font-size="14.00">(*GuildError).WithOperation</text>
</a>
</g>
</g>
<!-- (*github.com/guild&#45;framework/guild&#45;core/pkg/providers/mock.Provider).ChatCompletion&#45;&gt;(*github.com/guild&#45;framework/guild&#45;core/pkg/gerror.GuildError).WithOperation -->
<g id="edge12" class="edge">
<title>(*github.com/guild&#45;framework/guild&#45;core/pkg/providers/mock.Provider).ChatCompletion&#45;&gt;(*github.com/guild&#45;framework/guild&#45;core/pkg/gerror.GuildError).WithOperation</title>
<g id="a_edge12"><a xlink:title="at provider.go:158: calling [(*github.com/guild&#45;framework/guild&#45;core/pkg/gerror.GuildError).WithOperation]">
<path fill="none" stroke="saddlebrown" d="M516.3,-113.66C553.7,-134.03 616.73,-166.46 674.08,-187 682.24,-189.92 690.8,-192.65 699.45,-195.19"/>
<polygon fill="saddlebrown" stroke="saddlebrown" points="698.39,-198.52 708.97,-197.87 700.29,-191.79 698.39,-198.52"/>
</a>
</g>
</g>
<!-- (*github.com/guild&#45;framework/guild&#45;core/pkg/providers/mock.Provider).StreamChatCompletion -->
<g id="node3" class="node">
<title>(*github.com/guild&#45;framework/guild&#45;core/pkg/providers/mock.Provider).StreamChatCompletion</title>
<g id="a_node3"><a xlink:title="(*github.com/guild&#45;framework/guild&#45;core/pkg/providers/mock.Provider).StreamChatCompletion | defined in provider.go:292&#10;at provider.go:294: calling [(*github.com/guild&#45;framework/guild&#45;core/pkg/providers/mock.Provider).ChatCompletion]&#10;at provider.go:302: calling [github.com/guild&#45;framework/guild&#45;core/pkg/providers/mock.splitIntoChunks]">
<path fill="lightblue" stroke="black" stroke-width="1.5" d="M273.04,-69C273.04,-69 28,-69 28,-69 22,-69 16,-63 16,-57 16,-57 16,-45 16,-45 16,-39 22,-33 28,-33 28,-33 273.04,-33 273.04,-33 279.04,-33 285.04,-39 285.04,-45 285.04,-45 285.04,-57 285.04,-57 285.04,-63 279.04,-69 273.04,-69"/>
<text xml:space="preserve" text-anchor="middle" x="150.52" y="-46.33" font-family="Verdana" font-size="14.00">(*Provider).StreamChatCompletion</text>
</a>
</g>
</g>
<!-- (*github.com/guild&#45;framework/guild&#45;core/pkg/providers/mock.Provider).StreamChatCompletion&#45;&gt;(*github.com/guild&#45;framework/guild&#45;core/pkg/providers/mock.Provider).ChatCompletion -->
<g id="edge2" class="edge">
<title>(*github.com/guild&#45;framework/guild&#45;core/pkg/providers/mock.Provider).StreamChatCompletion&#45;&gt;(*github.com/guild&#45;framework/guild&#45;core/pkg/providers/mock.Provider).ChatCompletion</title>
<g id="a_edge2"><a xlink:title="at provider.go:294: calling [(*github.com/guild&#45;framework/guild&#45;core/pkg/providers/mock.Provider).ChatCompletion]">
<path fill="none" stroke="black" d="M285.56,-68.9C310.59,-72.24 336.6,-75.71 361.18,-78.99"/>
<polygon fill="black" stroke="black" points="360.48,-82.43 370.86,-80.29 361.41,-75.49 360.48,-82.43"/>
</a>
</g>
</g>
<!-- github.com/guild&#45;framework/guild&#45;core/pkg/providers/mock.splitIntoChunks -->
<g id="node4" class="node">
<title>github.com/guild&#45;framework/guild&#45;core/pkg/providers/mock.splitIntoChunks</title>
<g id="a_node4"><a xlink:title="github.com/guild&#45;framework/guild&#45;core/pkg/providers/mock.splitIntoChunks | defined in provider.go:410">
<path fill="lightblue" stroke="black" stroke-width="0.5" d="M536.7,-52C536.7,-52 427.41,-52 427.41,-52 421.41,-52 415.41,-46 415.41,-40 415.41,-40 415.41,-28 415.41,-28 415.41,-22 421.41,-16 427.41,-16 427.41,-16 536.7,-16 536.7,-16 542.7,-16 548.7,-22 548.7,-28 548.7,-28 548.7,-40 548.7,-40 548.7,-46 542.7,-52 536.7,-52"/>
<text xml:space="preserve" text-anchor="middle" x="482.06" y="-29.32" font-family="Verdana" font-size="14.00">splitIntoChunks</text>
</a>
</g>
</g>
<!-- (*github.com/guild&#45;framework/guild&#45;core/pkg/providers/mock.Provider).StreamChatCompletion&#45;&gt;github.com/guild&#45;framework/guild&#45;core/pkg/providers/mock.splitIntoChunks -->
<g id="edge3" class="edge">
<title>(*github.com/guild&#45;framework/guild&#45;core/pkg/providers/mock.Provider).StreamChatCompletion&#45;&gt;github.com/guild&#45;framework/guild&#45;core/pkg/providers/mock.splitIntoChunks</title>
<g id="a_edge3"><a xlink:title="at provider.go:302: calling [github.com/guild&#45;framework/guild&#45;core/pkg/providers/mock.splitIntoChunks]">
<path fill="none" stroke="black" d="M285.56,-44.09C325.92,-42 368.82,-39.79 404.13,-37.97"/>
<polygon fill="black" stroke="black" points="403.99,-41.48 413.8,-37.47 403.63,-34.49 403.99,-41.48"/>
</a>
</g>
</g>
<!-- github.com/guild&#45;framework/guild&#45;core/pkg/providers/mock.NewProvider -->
<g id="node5" class="node">
<title>github.com/guild&#45;framework/guild&#45;core/pkg/providers/mock.NewProvider</title>
<g id="a_node5"><a xlink:title="github.com/guild&#45;framework/guild&#45;core/pkg/providers/mock.NewProvider | defined in provider.go:42&#10;at provider.go:94: calling [(*github.com/guild&#45;framework/guild&#45;core/pkg/gerror.GuildError).WithOperation]&#10;at provider.go:90: calling [github.com/guild&#45;framework/guild&#45;core/pkg/providers/mock.loadResponses]&#10;at provider.go:93: calling [(*github.com/guild&#45;framework/guild&#45;core/pkg/gerror.GuildError).WithComponent]&#10;at provider.go:92: calling [github.com/guild&#45;framework/guild&#45;core/pkg/gerror.Wrap]">
<path fill="lightblue" stroke="black" stroke-width="1.5" d="M525.45,-282C525.45,-282 438.66,-282 438.66,-282 432.66,-282 426.66,-276 426.66,-270 426.66,-270 426.66,-258 426.66,-258 426.66,-252 432.66,-246 438.66,-246 438.66,-246 525.45,-246 525.45,-246 531.45,-246 537.45,-252 537.45,-258 537.45,-258 537.45,-270 537.45,-270 537.45,-276 531.45,-282 525.45,-282"/>
<text xml:space="preserve" text-anchor="middle" x="482.06" y="-259.32" font-family="Verdana" font-size="14.00">NewProvider</text>
</a>
</g>
</g>
<!-- github.com/guild&#45;framework/guild&#45;core/pkg/providers/mock.loadResponses -->
<g id="node6" class="node">
<title>github.com/guild&#45;framework/guild&#45;core/pkg/providers/mock.loadResponses</title>
<g id="a_node6"><a xlink:title="github.com/guild&#45;framework/guild&#45;core/pkg/providers/mock.loadResponses | defined in loader.go:32">
<path fill="lightblue" stroke="black" stroke-width="0.5" d="M849.87,-481C849.87,-481 746.58,-481 746.58,-481 740.58,-481 734.58,-475 734.58,-469 734.58,-469 734.58,-457 734.58,-457 734.58,-451 740.58,-445 746.58,-445 746.58,-445 849.87,-445 849.87,-445 855.87,-445 861.87,-451 861.87,-457 861.87,-457 861.87,-469 861.87,-469 861.87,-475 855.87,-481 849.87,-481"/>
<text xml:space="preserve" text-anchor="middle" x="798.22" y="-458.32" font-family="Verdana" font-size="14.00">loadResponses</text>
</a>
</g>
</g>
<!-- github.com/guild&#45;framework/guild&#45;core/pkg/providers/mock.NewProvider&#45;&gt;github.com/guild&#45;framework/guild&#45;core/pkg/providers/mock.loadResponses -->
<g id="edge13" class="edge">
<title>github.com/guild&#45;framework/guild&#45;core/pkg/providers/mock.NewProvider&#45;&gt;github.com/guild&#45;framework/guild&#45;core/pkg/providers/mock.loadResponses</title>
<g id="a_edge13"><a xlink:title="at provider.go:90: calling [github.com/guild&#45;framework/guild&#45;core/pkg/providers/mock.loadResponses]">
<path fill="none" stroke="black" d="M537.9,-268.97C560.63,-273.17 586.26,-280.87 606.08,-295 651.05,-327.06 633.13,-361.95 674.08,-399 692.82,-415.96 716.88,-429.76 738.75,-440.15"/>
<polygon fill="black" stroke="black" points="737.02,-443.21 747.57,-444.2 739.94,-436.85 737.02,-443.21"/>
</a>
</g>
</g>
<!-- github.com/guild&#45;framework/guild&#45;core/pkg/providers/mock.NewProvider&#45;&gt;(*github.com/guild&#45;framework/guild&#45;core/pkg/gerror.GuildError).WithComponent -->
<g id="edge14" class="edge">
<title>github.com/guild&#45;framework/guild&#45;core/pkg/providers/mock.NewProvider&#45;&gt;(*github.com/guild&#45;framework/guild&#45;core/pkg/gerror.GuildError).WithComponent</title>
<g id="a_edge14"><a xlink:title="at provider.go:93: calling [(*github.com/guild&#45;framework/guild&#45;core/pkg/gerror.GuildError).WithComponent]">
<path fill="none" stroke="saddlebrown" d="M524.56,-245.35C562.85,-228.61 621.55,-204.11 674.08,-187 684.11,-183.73 694.7,-180.6 705.29,-177.67"/>
<polygon fill="saddlebrown" stroke="saddlebrown" points="706.09,-181.08 714.83,-175.09 704.26,-174.32 706.09,-181.08"/>
</a>
</g>
</g>
<!-- github.com/guild&#45;framework/guild&#45;core/pkg/providers/mock.NewProvider&#45;&gt;(*github.com/guild&#45;framework/guild&#45;core/pkg/gerror.GuildError).WithOperation -->
<g id="edge4" class="edge">
<title>github.com/guild&#45;framework/guild&#45;core/pkg/providers/mock.NewProvider&#45;&gt;(*github.com/guild&#45;framework/guild&#45;core/pkg/gerror.GuildError).WithOperation</title>
<g id="a_edge4"><a xlink:title="at provider.go:94: calling [(*github.com/guild&#45;framework/guild&#45;core/pkg/gerror.GuildError).WithOperation]">
<path fill="none" stroke="saddlebrown" d="M538.01,-259.34C568.96,-256.43 608.27,-252.23 643.08,-247 660.61,-244.37 679.17,-241.14 697.12,-237.78"/>
<polygon fill="saddlebrown" stroke="saddlebrown" points="697.54,-241.27 706.71,-235.97 696.23,-234.39 697.54,-241.27"/>
</a>
</g>
</g>
<!-- github.com/guild&#45;framework/guild&#45;core/pkg/gerror.Wrap -->
<g id="node22" class="node">
<title>github.com/guild&#45;framework/guild&#45;core/pkg/gerror.Wrap</title>
<g id="a_node22"><a xlink:title="github.com/guild&#45;framework/guild&#45;core/pkg/gerror.Wrap | defined in errors.go:223">
<path fill="moccasin" stroke="black" stroke-width="1.5" d="M816.12,-357C816.12,-357 780.33,-357 780.33,-357 774.33,-357 768.33,-351 768.33,-345 768.33,-345 768.33,-333 768.33,-333 768.33,-327 774.33,-321 780.33,-321 780.33,-321 816.12,-321 816.12,-321 822.12,-321 828.12,-327 828.12,-333 828.12,-333 828.12,-345 828.12,-345 828.12,-351 822.12,-357 816.12,-357"/>
<text xml:space="preserve" text-anchor="middle" x="798.22" y="-334.32" font-family="Verdana" font-size="14.00">Wrap</text>
</a>
</g>
</g>
<!-- github.com/guild&#45;framework/guild&#45;core/pkg/providers/mock.NewProvider&#45;&gt;github.com/guild&#45;framework/guild&#45;core/pkg/gerror.Wrap -->
<g id="edge21" class="edge">
<title>github.com/guild&#45;framework/guild&#45;core/pkg/providers/mock.NewProvider&#45;&gt;github.com/guild&#45;framework/guild&#45;core/pkg/gerror.Wrap</title>
<g id="a_edge21"><a xlink:title="at provider.go:92: calling [github.com/guild&#45;framework/guild&#45;core/pkg/gerror.Wrap]">
<path fill="none" stroke="saddlebrown" d="M538.14,-277.15C600.57,-292.05 700.88,-316 756.59,-329.3"/>
<polygon fill="saddlebrown" stroke="saddlebrown" points="755.77,-332.7 766.31,-331.62 757.39,-325.89 755.77,-332.7"/>
</a>
</g>
</g>
<!-- github.com/guild&#45;framework/guild&#45;core/pkg/providers/mock.NewBuilder -->
<g id="node7" class="node">
<title>github.com/guild&#45;framework/guild&#45;core/pkg/providers/mock.NewBuilder</title>
<g id="a_node7"><a xlink:title="github.com/guild&#45;framework/guild&#45;core/pkg/providers/mock.NewBuilder | defined in provider.go:428&#10;at provider.go:434: calling [(*github.com/guild&#45;framework/guild&#45;core/pkg/providers/mock.Provider).Enable]&#10;at provider.go:429: calling [github.com/guild&#45;framework/guild&#45;core/pkg/providers/mock.NewProvider]">
<path fill="lightblue" stroke="black" stroke-width="1.5" d="M189.79,-308C189.79,-308 111.25,-308 111.25,-308 105.25,-308 99.25,-302 99.25,-296 99.25,-296 99.25,-284 99.25,-284 99.25,-278 105.25,-272 111.25,-272 111.25,-272 189.79,-272 189.79,-272 195.79,-272 201.79,-278 201.79,-284 201.79,-284 201.79,-296 201.79,-296 201.79,-302 195.79,-308 189.79,-308"/>
<text xml:space="preserve" text-anchor="middle" x="150.52" y="-285.32" font-family="Verdana" font-size="14.00">NewBuilder</text>
</a>
</g>
</g>
<!-- github.com/guild&#45;framework/guild&#45;core/pkg/providers/mock.NewBuilder&#45;&gt;github.com/guild&#45;framework/guild&#45;core/pkg/providers/mock.NewProvider -->
<g id="edge8" class="edge">
<title>github.com/guild&#45;framework/guild&#45;core/pkg/providers/mock.NewBuilder&#45;&gt;github.com/guild&#45;framework/guild&#45;core/pkg/providers/mock.NewProvider</title>
<g id="a_edge8"><a xlink:title="at provider.go:429: calling [github.com/guild&#45;framework/guild&#45;core/pkg/providers/mock.NewProvider]">
<path fill="none" stroke="black" d="M202.29,-285.99C259.31,-281.5 352.07,-274.18 414.77,-269.23"/>
<polygon fill="black" stroke="black" points="414.91,-272.73 424.6,-268.45 414.36,-265.75 414.91,-272.73"/>
</a>
</g>
</g>
<!-- (*github.com/guild&#45;framework/guild&#45;core/pkg/providers/mock.Provider).Enable -->
<g id="node8" class="node">
<title>(*github.com/guild&#45;framework/guild&#45;core/pkg/providers/mock.Provider).Enable</title>
<g id="a_node8"><a xlink:title="(*github.com/guild&#45;framework/guild&#45;core/pkg/providers/mock.Provider).Enable | defined in provider.go:145">
<path fill="lightblue" stroke="black" stroke-width="1.5" d="M547.2,-343C547.2,-343 416.91,-343 416.91,-343 410.91,-343 404.91,-337 404.91,-331 404.91,-331 404.91,-319 404.91,-319 404.91,-313 410.91,-307 416.91,-307 416.91,-307 547.2,-307 547.2,-307 553.2,-307 559.2,-313 559.2,-319 559.2,-319 559.2,-331 559.2,-331 559.2,-337 553.2,-343 547.2,-343"/>
<text xml:space="preserve" text-anchor="middle" x="482.06" y="-320.32" font-family="Verdana" font-size="14.00">(*Provider).Enable</text>
</a>
</g>
</g>
<!-- github.com/guild&#45;framework/guild&#45;core/pkg/providers/mock.NewBuilder&#45;&gt;(*github.com/guild&#45;framework/guild&#45;core/pkg/providers/mock.Provider).Enable -->
<g id="edge5" class="edge">
<title>github.com/guild&#45;framework/guild&#45;core/pkg/providers/mock.NewBuilder&#45;&gt;(*github.com/guild&#45;framework/guild&#45;core/pkg/providers/mock.Provider).Enable</title>
<g id="a_edge5"><a xlink:title="at provider.go:434: calling [(*github.com/guild&#45;framework/guild&#45;core/pkg/providers/mock.Provider).Enable]">
<path fill="none" stroke="black" d="M202.29,-295.39C253.02,-300.78 332.04,-309.17 393.01,-315.65"/>
<polygon fill="black" stroke="black" points="392.36,-319.1 402.67,-316.67 393.1,-312.14 392.36,-319.1"/>
</a>
</g>
</g>
<!-- (*github.com/guild&#45;framework/guild&#45;core/pkg/providers/mock.Provider).Complete -->
<g id="node9" class="node">
<title>(*github.com/guild&#45;framework/guild&#45;core/pkg/providers/mock.Provider).Complete</title>
<g id="a_node9"><a xlink:title="(*github.com/guild&#45;framework/guild&#45;core/pkg/providers/mock.Provider).Complete | defined in provider.go:353&#10;at provider.go:371: calling [(*github.com/guild&#45;framework/guild&#45;core/pkg/gerror.GuildError).WithOperation]&#10;at provider.go:369: calling [github.com/guild&#45;framework/guild&#45;core/pkg/gerror.New]&#10;at provider.go:372: calling [(*github.com/guild&#45;framework/guild&#45;core/pkg/gerror.GuildError).WithDetails]&#10;at provider.go:363: calling [(*github.com/guild&#45;framework/guild&#45;core/pkg/providers/mock.Provider).ChatCompletion]&#10;at provider.go:370: calling [(*github.com/guild&#45;framework/guild&#45;core/pkg/gerror.GuildError).WithComponent]">
<path fill="lightblue" stroke="black" stroke-width="1.5" d="M225.04,-184C225.04,-184 76,-184 76,-184 70,-184 64,-178 64,-172 64,-172 64,-160 64,-160 64,-154 70,-148 76,-148 76,-148 225.04,-148 225.04,-148 231.04,-148 237.04,-154 237.04,-160 237.04,-160 237.04,-172 237.04,-172 237.04,-178 231.04,-184 225.04,-184"/>
<text xml:space="preserve" text-anchor="middle" x="150.52" y="-161.32" font-family="Verdana" font-size="14.00">(*Provider).Complete</text>
</a>
</g>
</g>
<!-- (*github.com/guild&#45;framework/guild&#45;core/pkg/providers/mock.Provider).Complete&#45;&gt;(*github.com/guild&#45;framework/guild&#45;core/pkg/providers/mock.Provider).ChatCompletion -->
<g id="edge15" class="edge">
<title>(*github.com/guild&#45;framework/guild&#45;core/pkg/providers/mock.Provider).Complete&#45;&gt;(*github.com/guild&#45;framework/guild&#45;core/pkg/providers/mock.Provider).ChatCompletion</title>
<g id="a_edge15"><a xlink:title="at provider.go:363: calling [(*github.com/guild&#45;framework/guild&#45;core/pkg/providers/mock.Provider).ChatCompletion]">
<path fill="none" stroke="black" d="M237.67,-147.44C282.24,-137.84 336.84,-126.07 383.02,-116.12"/>
<polygon fill="black" stroke="black" points="383.75,-119.55 392.79,-114.02 382.27,-112.7 383.75,-119.55"/>
</a>
</g>
</g>
<!-- (*github.com/guild&#45;framework/guild&#45;core/pkg/providers/mock.Provider).Complete&#45;&gt;github.com/guild&#45;framework/guild&#45;core/pkg/gerror.New -->
<g id="edge9" class="edge">
<title>(*github.com/guild&#45;framework/guild&#45;core/pkg/providers/mock.Provider).Complete&#45;&gt;github.com/guild&#45;framework/guild&#45;core/pkg/gerror.New</title>
<g id="a_edge9"><a xlink:title="at provider.go:369: calling [github.com/guild&#45;framework/guild&#45;core/pkg/gerror.New]">
<path fill="none" stroke="saddlebrown" d="M237.59,-160.31C329.16,-153.81 478.14,-141.98 606.08,-126 659.59,-119.32 721.09,-108.84 759.56,-101.94"/>
<polygon fill="saddlebrown" stroke="saddlebrown" points="760.01,-105.42 769.23,-100.2 758.77,-98.53 760.01,-105.42"/>
</a>
</g>
</g>
<!-- (*github.com/guild&#45;framework/guild&#45;core/pkg/providers/mock.Provider).Complete&#45;&gt;(*github.com/guild&#45;framework/guild&#45;core/pkg/gerror.GuildError).WithComponent -->
<g id="edge22" class="edge">
<title>(*github.com/guild&#45;framework/guild&#45;core/pkg/providers/mock.Provider).Complete&#45;&gt;(*github.com/guild&#45;framework/guild&#45;core/pkg/gerror.GuildError).WithComponent</title>
<g id="a_edge22"><a xlink:title="at provider.go:370: calling [(*github.com/guild&#45;framework/guild&#45;core/pkg/gerror.GuildError).WithComponent]">
<path fill="none" stroke="saddlebrown" d="M237.6,-164.67C348.5,-162.95 542.2,-159.95 670.09,-157.97"/>
<polygon fill="saddlebrown" stroke="saddlebrown" points="670.03,-161.47 679.97,-157.82 669.92,-154.47 670.03,-161.47"/>
</a>
</g>
</g>
<!-- (*github.com/guild&#45;framework/guild&#45;core/pkg/providers/mock.Provider).Complete&#45;&gt;(*github.com/guild&#45;framework/guild&#45;core/pkg/gerror.GuildError).WithOperation -->
<g id="edge6" class="edge">
<title>(*github.com/guild&#45;framework/guild&#45;core/pkg/providers/mock.Provider).Complete&#45;&gt;(*github.com/guild&#45;framework/guild&#45;core/pkg/gerror.GuildError).WithOperation</title>
<g id="a_edge6"><a xlink:title="at provider.go:371: calling [(*github.com/guild&#45;framework/guild&#45;core/pkg/gerror.GuildError).WithOperation]">
<path fill="none" stroke="saddlebrown" d="M237.6,-172.8C350.17,-181.69 548.04,-197.32 675.81,-207.41"/>
<polygon fill="saddlebrown" stroke="saddlebrown" points="675.43,-210.89 685.67,-208.19 675.98,-203.91 675.43,-210.89"/>
</a>
</g>
</g>
<!-- (*github.com/guild&#45;framework/guild&#45;core/pkg/gerror.GuildError).WithDetails -->
<g id="node23" class="node">
<title>(*github.com/guild&#45;framework/guild&#45;core/pkg/gerror.GuildError).WithDetails</title>
<g id="a_node23"><a xlink:title="(*github.com/guild&#45;framework/guild&#45;core/pkg/gerror.GuildError).WithDetails | defined in errors.go:147">
<path fill="moccasin" stroke="black" stroke-width="1.5" d="M885.87,-296C885.87,-296 710.58,-296 710.58,-296 704.58,-296 698.58,-290 698.58,-284 698.58,-284 698.58,-272 698.58,-272 698.58,-266 704.58,-260 710.58,-260 710.58,-260 885.87,-260 885.87,-260 891.87,-260 897.87,-266 897.87,-272 897.87,-272 897.87,-284 897.87,-284 897.87,-290 891.87,-296 885.87,-296"/>
<text xml:space="preserve" text-anchor="middle" x="798.22" y="-273.32" font-family="Verdana" font-size="14.00">(*GuildError).WithDetails</text>
</a>
</g>
</g>
<!-- (*github.com/guild&#45;framework/guild&#45;core/pkg/providers/mock.Provider).Complete&#45;&gt;(*github.com/guild&#45;framework/guild&#45;core/pkg/gerror.GuildError).WithDetails -->
<g id="edge10" class="edge">
<title>(*github.com/guild&#45;framework/guild&#45;core/pkg/providers/mock.Provider).Complete&#45;&gt;(*github.com/guild&#45;framework/guild&#45;core/pkg/gerror.GuildError).WithDetails</title>
<g id="a_edge10"><a xlink:title="at provider.go:372: calling [(*github.com/guild&#45;framework/guild&#45;core/pkg/gerror.GuildError).WithDetails]">
<path fill="none" stroke="saddlebrown" d="M237.63,-180.12C274.66,-186.1 318.45,-193.04 358.04,-199 468.13,-215.56 496.61,-213.72 606.08,-234 640.82,-240.44 678.81,-248.89 711.7,-256.66"/>
<polygon fill="saddlebrown" stroke="saddlebrown" points="710.63,-260 721.17,-258.91 712.25,-253.19 710.63,-260"/>
</a>
</g>
</g>
<!-- (*github.com/guild&#45;framework/guild&#45;core/pkg/providers/mock.Builder).WithDelay -->
<g id="node10" class="node">
<title>(*github.com/guild&#45;framework/guild&#45;core/pkg/providers/mock.Builder).WithDelay</title>
<g id="a_node10"><a xlink:title="(*github.com/guild&#45;framework/guild&#45;core/pkg/providers/mock.Builder).WithDelay | defined in provider.go:459&#10;at provider.go:460: calling [(*github.com/guild&#45;framework/guild&#45;core/pkg/providers/mock.Provider).SetDelay]">
<path fill="lightblue" stroke="black" stroke-width="1.5" d="M223.16,-404C223.16,-404 77.88,-404 77.88,-404 71.88,-404 65.87,-398 65.87,-392 65.87,-392 65.87,-380 65.87,-380 65.87,-374 71.87,-368 77.87,-368 77.87,-368 223.16,-368 223.16,-368 229.16,-368 235.16,-374 235.16,-380 235.16,-380 235.16,-392 235.16,-392 235.16,-398 229.16,-404 223.16,-404"/>
<text xml:space="preserve" text-anchor="middle" x="150.52" y="-381.32" font-family="Verdana" font-size="14.00">(*Builder).WithDelay</text>
</a>
</g>
</g>
<!-- (*github.com/guild&#45;framework/guild&#45;core/pkg/providers/mock.Provider).SetDelay -->
<g id="node11" class="node">
<title>(*github.com/guild&#45;framework/guild&#45;core/pkg/providers/mock.Provider).SetDelay</title>
<g id="a_node11"><a xlink:title="(*github.com/guild&#45;framework/guild&#45;core/pkg/providers/mock.Provider).SetDelay | defined in provider.go:124">
<path fill="lightblue" stroke="black" stroke-width="1.5" d="M554.7,-404C554.7,-404 409.41,-404 409.41,-404 403.41,-404 397.41,-398 397.41,-392 397.41,-392 397.41,-380 397.41,-380 397.41,-374 403.41,-368 409.41,-368 409.41,-368 554.7,-368 554.7,-368 560.7,-368 566.7,-374 566.7,-380 566.7,-380 566.7,-392 566.7,-392 566.7,-398 560.7,-404 554.7,-404"/>
<text xml:space="preserve" text-anchor="middle" x="482.06" y="-381.32" font-family="Verdana" font-size="14.00">(*Provider).SetDelay</text>
</a>
</g>
</g>
<!-- (*github.com/guild&#45;framework/guild&#45;core/pkg/providers/mock.Builder).WithDelay&#45;&gt;(*github.com/guild&#45;framework/guild&#45;core/pkg/providers/mock.Provider).SetDelay -->
<g id="edge16" class="edge">
<title>(*github.com/guild&#45;framework/guild&#45;core/pkg/providers/mock.Builder).WithDelay&#45;&gt;(*github.com/guild&#45;framework/guild&#45;core/pkg/providers/mock.Provider).SetDelay</title>
<g id="a_edge16"><a xlink:title="at provider.go:460: calling [(*github.com/guild&#45;framework/guild&#45;core/pkg/providers/mock.Provider).SetDelay]">
<path fill="none" stroke="black" d="M235.53,-386C281.34,-386 338.22,-386 385.69,-386"/>
<polygon fill="black" stroke="black" points="385.4,-389.5 395.4,-386 385.4,-382.5 385.4,-389.5"/>
</a>
</g>
</g>
<!-- (*github.com/guild&#45;framework/guild&#45;core/pkg/providers/mock.Builder).WithDefaultResponse -->
<g id="node12" class="node">
<title>(*github.com/guild&#45;framework/guild&#45;core/pkg/providers/mock.Builder).WithDefaultResponse</title>
<g id="a_node12"><a xlink:title="(*github.com/guild&#45;framework/guild&#45;core/pkg/providers/mock.Builder).WithDefaultResponse | defined in provider.go:453&#10;at provider.go:454: calling [(*github.com/guild&#45;framework/guild&#45;core/pkg/providers/mock.Provider).SetDefaultResponse]">
<path fill="lightblue" stroke="black" stroke-width="1.5" d="M262.54,-465C262.54,-465 38.5,-465 38.5,-465 32.5,-465 26.5,-459 26.5,-453 26.5,-453 26.5,-441 26.5,-441 26.5,-435 32.5,-429 38.5,-429 38.5,-429 262.54,-429 262.54,-429 268.54,-429 274.54,-435 274.54,-441 274.54,-441 274.54,-453 274.54,-453 274.54,-459 268.54,-465 262.54,-465"/>
<text xml:space="preserve" text-anchor="middle" x="150.52" y="-442.32" font-family="Verdana" font-size="14.00">(*Builder).WithDefaultResponse</text>
</a>
</g>
</g>
<!-- (*github.com/guild&#45;framework/guild&#45;core/pkg/providers/mock.Provider).SetDefaultResponse -->
<g id="node13" class="node">
<title>(*github.com/guild&#45;framework/guild&#45;core/pkg/providers/mock.Provider).SetDefaultResponse</title>
<g id="a_node13"><a xlink:title="(*github.com/guild&#45;framework/guild&#45;core/pkg/providers/mock.Provider).SetDefaultResponse | defined in provider.go:117">
<path fill="lightblue" stroke="black" stroke-width="1.5" d="M594.08,-465C594.08,-465 370.04,-465 370.04,-465 364.04,-465 358.04,-459 358.04,-453 358.04,-453 358.04,-441 358.04,-441 358.04,-435 364.04,-429 370.04,-429 370.04,-429 594.08,-429 594.08,-429 600.08,-429 606.08,-435 606.08,-441 606.08,-441 606.08,-453 606.08,-453 606.08,-459 600.08,-465 594.08,-465"/>
<text xml:space="preserve" text-anchor="middle" x="482.06" y="-442.32" font-family="Verdana" font-size="14.00">(*Provider).SetDefaultResponse</text>
</a>
</g>
</g>
<!-- (*github.com/guild&#45;framework/guild&#45;core/pkg/providers/mock.Builder).WithDefaultResponse&#45;&gt;(*github.com/guild&#45;framework/guild&#45;core/pkg/providers/mock.Provider).SetDefaultResponse -->
<g id="edge17" class="edge">
<title>(*github.com/guild&#45;framework/guild&#45;core/pkg/providers/mock.Builder).WithDefaultResponse&#45;&gt;(*github.com/guild&#45;framework/guild&#45;core/pkg/providers/mock.Provider).SetDefaultResponse</title>
<g id="a_edge17"><a xlink:title="at provider.go:454: calling [(*github.com/guild&#45;framework/guild&#45;core/pkg/providers/mock.Provider).SetDefaultResponse]">
<path fill="none" stroke="black" d="M275.17,-447C298.32,-447 322.62,-447 346.1,-447"/>
<polygon fill="black" stroke="black" points="346.03,-450.5 356.03,-447 346.03,-443.5 346.03,-450.5"/>
</a>
</g>
</g>
<!-- github.com/guild&#45;framework/guild&#45;core/pkg/providers/mock.NewProviderForTesting -->
<g id="node14" class="node">
<title>github.com/guild&#45;framework/guild&#45;core/pkg/providers/mock.NewProviderForTesting</title>
<g id="a_node14"><a xlink:title="github.com/guild&#45;framework/guild&#45;core/pkg/providers/mock.NewProviderForTesting | defined in provider.go:470&#10;at provider.go:499: calling [github.com/guild&#45;framework/guild&#45;core/pkg/providers/mock.loadResponses]">
<path fill="lightblue" stroke="black" stroke-width="1.5" d="M561.83,-526C561.83,-526 402.29,-526 402.29,-526 396.29,-526 390.29,-520 390.29,-514 390.29,-514 390.29,-502 390.29,-502 390.29,-496 396.29,-490 402.29,-490 402.29,-490 561.83,-490 561.83,-490 567.83,-490 573.83,-496 573.83,-502 573.83,-502 573.83,-514 573.83,-514 573.83,-520 567.83,-526 561.83,-526"/>
<text xml:space="preserve" text-anchor="middle" x="482.06" y="-503.32" font-family="Verdana" font-size="14.00">NewProviderForTesting</text>
</a>
</g>
</g>
<!-- github.com/guild&#45;framework/guild&#45;core/pkg/providers/mock.NewProviderForTesting&#45;&gt;github.com/guild&#45;framework/guild&#45;core/pkg/providers/mock.loadResponses -->
<g id="edge18" class="edge">
<title>github.com/guild&#45;framework/guild&#45;core/pkg/providers/mock.NewProviderForTesting&#45;&gt;github.com/guild&#45;framework/guild&#45;core/pkg/providers/mock.loadResponses</title>
<g id="a_edge18"><a xlink:title="at provider.go:499: calling [github.com/guild&#45;framework/guild&#45;core/pkg/providers/mock.loadResponses]">
<path fill="none" stroke="black" d="M574.35,-494.92C621.68,-488.14 678.74,-479.97 723.28,-473.59"/>
<polygon fill="black" stroke="black" points="723.71,-477.07 733.11,-472.18 722.71,-470.14 723.71,-477.07"/>
</a>
</g>
</g>
<!-- (*github.com/guild&#45;framework/guild&#45;core/pkg/providers/mock.Builder).WithResponse -->
<g id="node15" class="node">
<title>(*github.com/guild&#45;framework/guild&#45;core/pkg/providers/mock.Builder).WithResponse</title>
<g id="a_node15"><a xlink:title="(*github.com/guild&#45;framework/guild&#45;core/pkg/providers/mock.Builder).WithResponse | defined in provider.go:441&#10;at provider.go:442: calling [(*github.com/guild&#45;framework/guild&#45;core/pkg/providers/mock.Provider).SetResponse]">
<path fill="lightblue" stroke="black" stroke-width="1.5" d="M237.41,-587C237.41,-587 63.62,-587 63.62,-587 57.62,-587 51.62,-581 51.62,-575 51.62,-575 51.62,-563 51.62,-563 51.62,-557 57.62,-551 63.62,-551 63.62,-551 237.41,-551 237.41,-551 243.41,-551 249.41,-557 249.41,-563 249.41,-563 249.41,-575 249.41,-575 249.41,-581 243.41,-587 237.41,-587"/>
<text xml:space="preserve" text-anchor="middle" x="150.52" y="-564.33" font-family="Verdana" font-size="14.00">(*Builder).WithResponse</text>
</a>
</g>
</g>
<!-- (*github.com/guild&#45;framework/guild&#45;core/pkg/providers/mock.Provider).SetResponse -->
<g id="node16" class="node">
<title>(*github.com/guild&#45;framework/guild&#45;core/pkg/providers/mock.Provider).SetResponse</title>
<g id="a_node16"><a xlink:title="(*github.com/guild&#45;framework/guild&#45;core/pkg/providers/mock.Provider).SetResponse | defined in provider.go:103">
<path fill="lightblue" stroke="black" stroke-width="1.5" d="M568.95,-587C568.95,-587 395.16,-587 395.16,-587 389.16,-587 383.16,-581 383.16,-575 383.16,-575 383.16,-563 383.16,-563 383.16,-557 389.16,-551 395.16,-551 395.16,-551 568.95,-551 568.95,-551 574.95,-551 580.95,-557 580.95,-563 580.95,-563 580.95,-575 580.95,-575 580.95,-581 574.95,-587 568.95,-587"/>
<text xml:space="preserve" text-anchor="middle" x="482.06" y="-564.33" font-family="Verdana" font-size="14.00">(*Provider).SetResponse</text>
</a>
</g>
</g>
<!-- (*github.com/guild&#45;framework/guild&#45;core/pkg/providers/mock.Builder).WithResponse&#45;&gt;(*github.com/guild&#45;framework/guild&#45;core/pkg/providers/mock.Provider).SetResponse -->
<g id="edge19" class="edge">
<title>(*github.com/guild&#45;framework/guild&#45;core/pkg/providers/mock.Builder).WithResponse&#45;&gt;(*github.com/guild&#45;framework/guild&#45;core/pkg/providers/mock.Provider).SetResponse</title>
<g id="a_edge19"><a xlink:title="at provider.go:442: calling [(*github.com/guild&#45;framework/guild&#45;core/pkg/providers/mock.Provider).SetResponse]">
<path fill="none" stroke="black" d="M249.95,-569C288.09,-569 331.94,-569 371.12,-569"/>
<polygon fill="black" stroke="black" points="371.06,-572.5 381.06,-569 371.06,-565.5 371.06,-572.5"/>
</a>
</g>
</g>
<!-- (*github.com/guild&#45;framework/guild&#45;core/pkg/providers/mock.Builder).WithError -->
<g id="node17" class="node">
<title>(*github.com/guild&#45;framework/guild&#45;core/pkg/providers/mock.Builder).WithError</title>
<g id="a_node17"><a xlink:title="(*github.com/guild&#45;framework/guild&#45;core/pkg/providers/mock.Builder).WithError | defined in provider.go:447&#10;at provider.go:448: calling [(*github.com/guild&#45;framework/guild&#45;core/pkg/providers/mock.Provider).SetError]">
<path fill="lightblue" stroke="black" stroke-width="1.5" d="M221.29,-648C221.29,-648 79.75,-648 79.75,-648 73.75,-648 67.75,-642 67.75,-636 67.75,-636 67.75,-624 67.75,-624 67.75,-618 73.75,-612 79.75,-612 79.75,-612 221.29,-612 221.29,-612 227.29,-612 233.29,-618 233.29,-624 233.29,-624 233.29,-636 233.29,-636 233.29,-642 227.29,-648 221.29,-648"/>
<text xml:space="preserve" text-anchor="middle" x="150.52" y="-625.33" font-family="Verdana" font-size="14.00">(*Builder).WithError</text>
</a>
</g>
</g>
<!-- (*github.com/guild&#45;framework/guild&#45;core/pkg/providers/mock.Provider).SetError -->
<g id="node18" class="node">
<title>(*github.com/guild&#45;framework/guild&#45;core/pkg/providers/mock.Provider).SetError</title>
<g id="a_node18"><a xlink:title="(*github.com/guild&#45;framework/guild&#45;core/pkg/providers/mock.Provider).SetError | defined in provider.go:110">
<path fill="lightblue" stroke="black" stroke-width="1.5" d="M552.83,-648C552.83,-648 411.29,-648 411.29,-648 405.29,-648 399.29,-642 399.29,-636 399.29,-636 399.29,-624 399.29,-624 399.29,-618 405.29,-612 411.29,-612 411.29,-612 552.83,-612 552.83,-612 558.83,-612 564.83,-618 564.83,-624 564.83,-624 564.83,-636 564.83,-636 564.83,-642 558.83,-648 552.83,-648"/>
<text xml:space="preserve" text-anchor="middle" x="482.06" y="-625.33" font-family="Verdana" font-size="14.00">(*Provider).SetError</text>
</a>
</g>
</g>
<!-- (*github.com/guild&#45;framework/guild&#45;core/pkg/providers/mock.Builder).WithError&#45;&gt;(*github.com/guild&#45;framework/guild&#45;core/pkg/providers/mock.Provider).SetError -->
<g id="edge11" class="edge">
<title>(*github.com/guild&#45;framework/guild&#45;core/pkg/providers/mock.Builder).WithError&#45;&gt;(*github.com/guild&#45;framework/guild&#45;core/pkg/providers/mock.Provider).SetError</title>
<g id="a_edge11"><a xlink:title="at provider.go:448: calling [(*github.com/guild&#45;framework/guild&#45;core/pkg/providers/mock.Provider).SetError]">
<path fill="none" stroke="black" d="M233.83,-630C280.42,-630 338.87,-630 387.23,-630"/>
<polygon fill="black" stroke="black" points="387.15,-633.5 397.15,-630 387.15,-626.5 387.15,-633.5"/>
</a>
</g>
</g>
</g>
</svg>
