<?xml version="1.0" encoding="UTF-8" standalone="no"?>
<!DOCTYPE svg PUBLIC "-//W3C//DTD SVG 1.1//EN"
 "http://www.w3.org/Graphics/SVG/1.1/DTD/svg11.dtd">
<!-- Generated by graphviz version 14.1.1 (20251213.1925)
 -->
<!-- Title: gocallvis Pages: 1 -->
<svg width="1053pt" height="429pt"
 viewBox="0.00 0.00 1053.00 429.00" xmlns="http://www.w3.org/2000/svg" xmlns:xlink="http://www.w3.org/1999/xlink">
<g id="graph0" class="graph" transform="scale(1 1) rotate(0) translate(0 429)">
<title>gocallvis</title>
<polygon fill="lightgray" stroke="none" points="0,0 0,-429 1052.66,-429 1052.66,0 0,0"/>
<g id="clust1" class="cluster">
<title>cluster_focus</title>
<polygon fill="#e6ecfa" stroke="black" stroke-width="0.5" points="8,-8 8,-421 1044.66,-421 1044.66,-8 8,-8"/>
<text xml:space="preserve" text-anchor="middle" x="526.33" y="-399.9" font-family="Arial" font-size="18.00">ora</text>
</g>
<g id="clust2" class="cluster">
<title>cluster_github.com/guild&#45;framework/guild&#45;core/pkg/gerror</title>
<g id="a_clust2"><a xlink:href="/?f=github.com/guild-framework/guild-core/pkg/gerror" xlink:title="package: github.com/guild&#45;framework/guild&#45;core/pkg/gerror">
<polygon fill="lightyellow" stroke="black" stroke-width="0.8" points="560.08,-16 560.08,-340 808.37,-340 808.37,-16 560.08,-16"/>
<text xml:space="preserve" text-anchor="middle" x="684.22" y="-320.8" font-family="Tahoma bold" font-size="16.00">gerror</text>
</a>
</g>
</g>
<!-- (*github.com/guild&#45;framework/guild&#45;core/pkg/providers/ora.Client).StreamChatCompletion -->
<g id="node1" class="node">
<title>(*github.com/guild&#45;framework/guild&#45;core/pkg/providers/ora.Client).StreamChatCompletion</title>
<g id="a_node1"><a xlink:title="(*github.com/guild&#45;framework/guild&#45;core/pkg/providers/ora.Client).StreamChatCompletion | defined in client.go:158&#10;at client.go:160: calling [github.com/guild&#45;framework/guild&#45;core/pkg/gerror.New]&#10;at client.go:162: calling [(*github.com/guild&#45;framework/guild&#45;core/pkg/gerror.GuildError).WithOperation]&#10;at client.go:163: calling [(*github.com/guild&#45;framework/guild&#45;core/pkg/gerror.GuildError).WithDetails]&#10;at client.go:161: calling [(*github.com/guild&#45;framework/guild&#45;core/pkg/gerror.GuildError).WithComponent]">
<path fill="lightblue" stroke="black" stroke-width="1.5" d="M483.08,-152C483.08,-152 256.04,-152 256.04,-152 250.04,-152 244.04,-146 244.04,-140 244.04,-140 244.04,-128 244.04,-128 244.04,-122 250.04,-116 256.04,-116 256.04,-116 483.08,-116 483.08,-116 489.08,-116 495.08,-122 495.08,-128 495.08,-128 495.08,-140 495.08,-140 495.08,-146 489.08,-152 483.08,-152"/>
<text xml:space="preserve" text-anchor="middle" x="369.56" y="-129.32" font-family="Verdana" font-size="14.00">(*Client).StreamChatCompletion</text>
</a>
</g>
</g>
<!-- github.com/guild&#45;framework/guild&#45;core/pkg/gerror.New -->
<g id="node7" class="node">
<title>github.com/guild&#45;framework/guild&#45;core/pkg/gerror.New</title>
<g id="a_node7"><a xlink:title="github.com/guild&#45;framework/guild&#45;core/pkg/gerror.New | defined in errors.go:190">
<path fill="moccasin" stroke="black" stroke-width="1.5" d="M699.22,-60C699.22,-60 669.22,-60 669.22,-60 663.22,-60 657.22,-54 657.22,-48 657.22,-48 657.22,-36 657.22,-36 657.22,-30 663.22,-24 669.22,-24 669.22,-24 699.22,-24 699.22,-24 705.22,-24 711.22,-30 711.22,-36 711.22,-36 711.22,-48 711.22,-48 711.22,-54 705.22,-60 699.22,-60"/>
<text xml:space="preserve" text-anchor="middle" x="684.22" y="-37.33" font-family="Verdana" font-size="14.00">New</text>
</a>
</g>
</g>
<!-- (*github.com/guild&#45;framework/guild&#45;core/pkg/providers/ora.Client).StreamChatCompletion&#45;&gt;github.com/guild&#45;framework/guild&#45;core/pkg/gerror.New -->
<g id="edge1" class="edge">
<title>(*github.com/guild&#45;framework/guild&#45;core/pkg/providers/ora.Client).StreamChatCompletion&#45;&gt;github.com/guild&#45;framework/guild&#45;core/pkg/gerror.New</title>
<g id="a_edge1"><a xlink:title="at client.go:160: calling [github.com/guild&#45;framework/guild&#45;core/pkg/gerror.New]">
<path fill="none" stroke="saddlebrown" d="M425.42,-115.3C463.11,-102.72 514.39,-86.09 560.08,-73 588.62,-64.82 621.21,-56.67 645.7,-50.78"/>
<polygon fill="saddlebrown" stroke="saddlebrown" points="646.28,-54.24 655.2,-48.51 644.66,-47.43 646.28,-54.24"/>
</a>
</g>
</g>
<!-- (*github.com/guild&#45;framework/guild&#45;core/pkg/gerror.GuildError).WithComponent -->
<g id="node8" class="node">
<title>(*github.com/guild&#45;framework/guild&#45;core/pkg/gerror.GuildError).WithComponent</title>
<g id="a_node8"><a xlink:title="(*github.com/guild&#45;framework/guild&#45;core/pkg/gerror.GuildError).WithComponent | defined in errors.go:156">
<path fill="moccasin" stroke="black" stroke-width="1.5" d="M788.37,-243C788.37,-243 580.08,-243 580.08,-243 574.08,-243 568.08,-237 568.08,-231 568.08,-231 568.08,-219 568.08,-219 568.08,-213 574.08,-207 580.08,-207 580.08,-207 788.37,-207 788.37,-207 794.37,-207 800.37,-213 800.37,-219 800.37,-219 800.37,-231 800.37,-231 800.37,-237 794.37,-243 788.37,-243"/>
<text xml:space="preserve" text-anchor="middle" x="684.22" y="-220.32" font-family="Verdana" font-size="14.00">(*GuildError).WithComponent</text>
</a>
</g>
</g>
<!-- (*github.com/guild&#45;framework/guild&#45;core/pkg/providers/ora.Client).StreamChatCompletion&#45;&gt;(*github.com/guild&#45;framework/guild&#45;core/pkg/gerror.GuildError).WithComponent -->
<g id="edge14" class="edge">
<title>(*github.com/guild&#45;framework/guild&#45;core/pkg/providers/ora.Client).StreamChatCompletion&#45;&gt;(*github.com/guild&#45;framework/guild&#45;core/pkg/gerror.GuildError).WithComponent</title>
<g id="a_edge14"><a xlink:title="at client.go:161: calling [(*github.com/guild&#45;framework/guild&#45;core/pkg/gerror.GuildError).WithComponent]">
<path fill="none" stroke="saddlebrown" d="M397.16,-152.61C427.83,-172.91 480.53,-204.33 531.08,-218 539.16,-220.18 547.56,-221.93 556.09,-223.33"/>
<polygon fill="saddlebrown" stroke="saddlebrown" points="555.45,-226.77 565.85,-224.74 556.45,-219.84 555.45,-226.77"/>
</a>
</g>
</g>
<!-- (*github.com/guild&#45;framework/guild&#45;core/pkg/gerror.GuildError).WithOperation -->
<g id="node9" class="node">
<title>(*github.com/guild&#45;framework/guild&#45;core/pkg/gerror.GuildError).WithOperation</title>
<g id="a_node9"><a xlink:title="(*github.com/guild&#45;framework/guild&#45;core/pkg/gerror.GuildError).WithOperation | defined in errors.go:162">
<path fill="moccasin" stroke="black" stroke-width="1.5" d="M782.74,-121C782.74,-121 585.7,-121 585.7,-121 579.7,-121 573.7,-115 573.7,-109 573.7,-109 573.7,-97 573.7,-97 573.7,-91 579.7,-85 585.7,-85 585.7,-85 782.74,-85 782.74,-85 788.74,-85 794.74,-91 794.74,-97 794.74,-97 794.74,-109 794.74,-109 794.74,-115 788.74,-121 782.74,-121"/>
<text xml:space="preserve" text-anchor="middle" x="684.22" y="-98.33" font-family="Verdana" font-size="14.00">(*GuildError).WithOperation</text>
</a>
</g>
</g>
<!-- (*github.com/guild&#45;framework/guild&#45;core/pkg/providers/ora.Client).StreamChatCompletion&#45;&gt;(*github.com/guild&#45;framework/guild&#45;core/pkg/gerror.GuildError).WithOperation -->
<g id="edge2" class="edge">
<title>(*github.com/guild&#45;framework/guild&#45;core/pkg/providers/ora.Client).StreamChatCompletion&#45;&gt;(*github.com/guild&#45;framework/guild&#45;core/pkg/gerror.GuildError).WithOperation</title>
<g id="a_edge2"><a xlink:title="at client.go:162: calling [(*github.com/guild&#45;framework/guild&#45;core/pkg/gerror.GuildError).WithOperation]">
<path fill="none" stroke="saddlebrown" d="M495.48,-121.61C517.35,-119.45 540.08,-117.19 561.85,-115.03"/>
<polygon fill="saddlebrown" stroke="saddlebrown" points="562.03,-118.53 571.64,-114.06 561.34,-111.57 562.03,-118.53"/>
</a>
</g>
</g>
<!-- (*github.com/guild&#45;framework/guild&#45;core/pkg/gerror.GuildError).WithDetails -->
<g id="node10" class="node">
<title>(*github.com/guild&#45;framework/guild&#45;core/pkg/gerror.GuildError).WithDetails</title>
<g id="a_node10"><a xlink:title="(*github.com/guild&#45;framework/guild&#45;core/pkg/gerror.GuildError).WithDetails | defined in errors.go:147">
<path fill="moccasin" stroke="black" stroke-width="1.5" d="M771.87,-182C771.87,-182 596.58,-182 596.58,-182 590.58,-182 584.58,-176 584.58,-170 584.58,-170 584.58,-158 584.58,-158 584.58,-152 590.58,-146 596.58,-146 596.58,-146 771.87,-146 771.87,-146 777.87,-146 783.87,-152 783.87,-158 783.87,-158 783.87,-170 783.87,-170 783.87,-176 777.87,-182 771.87,-182"/>
<text xml:space="preserve" text-anchor="middle" x="684.22" y="-159.32" font-family="Verdana" font-size="14.00">(*GuildError).WithDetails</text>
</a>
</g>
</g>
<!-- (*github.com/guild&#45;framework/guild&#45;core/pkg/providers/ora.Client).StreamChatCompletion&#45;&gt;(*github.com/guild&#45;framework/guild&#45;core/pkg/gerror.GuildError).WithDetails -->
<g id="edge3" class="edge">
<title>(*github.com/guild&#45;framework/guild&#45;core/pkg/providers/ora.Client).StreamChatCompletion&#45;&gt;(*github.com/guild&#45;framework/guild&#45;core/pkg/gerror.GuildError).WithDetails</title>
<g id="a_edge3"><a xlink:title="at client.go:163: calling [(*github.com/guild&#45;framework/guild&#45;core/pkg/gerror.GuildError).WithDetails]">
<path fill="none" stroke="saddlebrown" d="M495.48,-145.99C521,-148.43 547.68,-150.99 572.66,-153.39"/>
<polygon fill="saddlebrown" stroke="saddlebrown" points="572.21,-156.86 582.49,-154.33 572.87,-149.9 572.21,-156.86"/>
</a>
</g>
</g>
<!-- (*github.com/guild&#45;framework/guild&#45;core/pkg/providers/ora.Client).makeRequest -->
<g id="node2" class="node">
<title>(*github.com/guild&#45;framework/guild&#45;core/pkg/providers/ora.Client).makeRequest</title>
<g id="a_node2"><a xlink:title="(*github.com/guild&#45;framework/guild&#45;core/pkg/providers/ora.Client).makeRequest | defined in client.go:182&#10;at client.go:211: calling [(*github.com/guild&#45;framework/guild&#45;core/pkg/providers/ora.Client).parseError]">
<path fill="lightblue" stroke="black" stroke-width="0.5" d="M764.37,-384C764.37,-384 604.08,-384 604.08,-384 598.08,-384 592.08,-378 592.08,-372 592.08,-372 592.08,-360 592.08,-360 592.08,-354 598.08,-348 604.08,-348 604.08,-348 764.37,-348 764.37,-348 770.37,-348 776.37,-354 776.37,-360 776.37,-360 776.37,-372 776.37,-372 776.37,-378 770.37,-384 764.37,-384"/>
<text xml:space="preserve" text-anchor="middle" x="684.22" y="-361.32" font-family="Verdana" font-size="14.00">(*Client).makeRequest</text>
</a>
</g>
</g>
<!-- (*github.com/guild&#45;framework/guild&#45;core/pkg/providers/ora.Client).parseError -->
<g id="node3" class="node">
<title>(*github.com/guild&#45;framework/guild&#45;core/pkg/providers/ora.Client).parseError</title>
<g id="a_node3"><a xlink:title="(*github.com/guild&#45;framework/guild&#45;core/pkg/providers/ora.Client).parseError | defined in client.go:218">
<path fill="lightblue" stroke="black" stroke-width="0.5" d="M1024.66,-384C1024.66,-384 885.37,-384 885.37,-384 879.37,-384 873.37,-378 873.37,-372 873.37,-372 873.37,-360 873.37,-360 873.37,-354 879.37,-348 885.37,-348 885.37,-348 1024.66,-348 1024.66,-348 1030.66,-348 1036.66,-354 1036.66,-360 1036.66,-360 1036.66,-372 1036.66,-372 1036.66,-378 1030.66,-384 1024.66,-384"/>
<text xml:space="preserve" text-anchor="middle" x="955.01" y="-361.32" font-family="Verdana" font-size="14.00">(*Client).parseError</text>
</a>
</g>
</g>
<!-- (*github.com/guild&#45;framework/guild&#45;core/pkg/providers/ora.Client).makeRequest&#45;&gt;(*github.com/guild&#45;framework/guild&#45;core/pkg/providers/ora.Client).parseError -->
<g id="edge4" class="edge">
<title>(*github.com/guild&#45;framework/guild&#45;core/pkg/providers/ora.Client).makeRequest&#45;&gt;(*github.com/guild&#45;framework/guild&#45;core/pkg/providers/ora.Client).parseError</title>
<g id="a_edge4"><a xlink:title="at client.go:211: calling [(*github.com/guild&#45;framework/guild&#45;core/pkg/providers/ora.Client).parseError]">
<path fill="none" stroke="black" d="M776.6,-366C804.16,-366 834.41,-366 862,-366"/>
<polygon fill="black" stroke="black" points="861.73,-369.5 871.73,-366 861.73,-362.5 861.73,-369.5"/>
</a>
</g>
</g>
<!-- (*github.com/guild&#45;framework/guild&#45;core/pkg/providers/ora.Client).ChatCompletion -->
<g id="node4" class="node">
<title>(*github.com/guild&#45;framework/guild&#45;core/pkg/providers/ora.Client).ChatCompletion</title>
<g id="a_node4"><a xlink:title="(*github.com/guild&#45;framework/guild&#45;core/pkg/providers/ora.Client).ChatCompletion | defined in client.go:79&#10;at client.go:101: calling [(*github.com/guild&#45;framework/guild&#45;core/pkg/providers/ora.Client).makeRequest]&#10;at client.go:129: calling [(*github.com/guild&#45;framework/guild&#45;core/pkg/gerror.GuildError).WithDetails]&#10;at client.go:126: calling [github.com/guild&#45;framework/guild&#45;core/pkg/gerror.Wrap]&#10;at client.go:128: calling [(*github.com/guild&#45;framework/guild&#45;core/pkg/gerror.GuildError).WithOperation]&#10;at client.go:127: calling [(*github.com/guild&#45;framework/guild&#45;core/pkg/gerror.GuildError).WithComponent]">
<path fill="lightblue" stroke="black" stroke-width="1.5" d="M457.58,-310C457.58,-310 281.54,-310 281.54,-310 275.54,-310 269.54,-304 269.54,-298 269.54,-298 269.54,-286 269.54,-286 269.54,-280 275.54,-274 281.54,-274 281.54,-274 457.58,-274 457.58,-274 463.58,-274 469.58,-280 469.58,-286 469.58,-286 469.58,-298 469.58,-298 469.58,-304 463.58,-310 457.58,-310"/>
<text xml:space="preserve" text-anchor="middle" x="369.56" y="-287.32" font-family="Verdana" font-size="14.00">(*Client).ChatCompletion</text>
</a>
</g>
</g>
<!-- (*github.com/guild&#45;framework/guild&#45;core/pkg/providers/ora.Client).ChatCompletion&#45;&gt;(*github.com/guild&#45;framework/guild&#45;core/pkg/providers/ora.Client).makeRequest -->
<g id="edge5" class="edge">
<title>(*github.com/guild&#45;framework/guild&#45;core/pkg/providers/ora.Client).ChatCompletion&#45;&gt;(*github.com/guild&#45;framework/guild&#45;core/pkg/providers/ora.Client).makeRequest</title>
<g id="a_edge5"><a xlink:title="at client.go:101: calling [(*github.com/guild&#45;framework/guild&#45;core/pkg/providers/ora.Client).makeRequest]">
<path fill="none" stroke="black" d="M432.94,-310.65C469.73,-321.27 517.32,-334.33 560.08,-344 566.82,-345.52 573.79,-347.01 580.83,-348.44"/>
<polygon fill="black" stroke="black" points="579.94,-351.83 590.43,-350.35 581.31,-344.97 579.94,-351.83"/>
</a>
</g>
</g>
<!-- (*github.com/guild&#45;framework/guild&#45;core/pkg/providers/ora.Client).ChatCompletion&#45;&gt;(*github.com/guild&#45;framework/guild&#45;core/pkg/gerror.GuildError).WithComponent -->
<g id="edge15" class="edge">
<title>(*github.com/guild&#45;framework/guild&#45;core/pkg/providers/ora.Client).ChatCompletion&#45;&gt;(*github.com/guild&#45;framework/guild&#45;core/pkg/gerror.GuildError).WithComponent</title>
<g id="a_edge15"><a xlink:title="at client.go:127: calling [(*github.com/guild&#45;framework/guild&#45;core/pkg/gerror.GuildError).WithComponent]">
<path fill="none" stroke="saddlebrown" d="M470.16,-285.93C490.96,-282.94 512.51,-278.51 532.08,-272 545.68,-267.48 546.78,-261.35 560.08,-256 568.29,-252.69 576.96,-249.66 585.74,-246.9"/>
<polygon fill="saddlebrown" stroke="saddlebrown" points="586.46,-250.33 595.03,-244.1 584.44,-243.63 586.46,-250.33"/>
</a>
</g>
</g>
<!-- (*github.com/guild&#45;framework/guild&#45;core/pkg/providers/ora.Client).ChatCompletion&#45;&gt;(*github.com/guild&#45;framework/guild&#45;core/pkg/gerror.GuildError).WithOperation -->
<g id="edge8" class="edge">
<title>(*github.com/guild&#45;framework/guild&#45;core/pkg/providers/ora.Client).ChatCompletion&#45;&gt;(*github.com/guild&#45;framework/guild&#45;core/pkg/gerror.GuildError).WithOperation</title>
<g id="a_edge8"><a xlink:title="at client.go:128: calling [(*github.com/guild&#45;framework/guild&#45;core/pkg/gerror.GuildError).WithOperation]">
<path fill="none" stroke="saddlebrown" d="M387.39,-273.27C418.28,-240.07 487.54,-170.92 560.08,-134 566.2,-130.88 572.66,-128.07 579.28,-125.52"/>
<polygon fill="saddlebrown" stroke="saddlebrown" points="580.15,-128.93 588.37,-122.25 577.78,-122.34 580.15,-128.93"/>
</a>
</g>
</g>
<!-- (*github.com/guild&#45;framework/guild&#45;core/pkg/providers/ora.Client).ChatCompletion&#45;&gt;(*github.com/guild&#45;framework/guild&#45;core/pkg/gerror.GuildError).WithDetails -->
<g id="edge6" class="edge">
<title>(*github.com/guild&#45;framework/guild&#45;core/pkg/providers/ora.Client).ChatCompletion&#45;&gt;(*github.com/guild&#45;framework/guild&#45;core/pkg/gerror.GuildError).WithDetails</title>
<g id="a_edge6"><a xlink:title="at client.go:129: calling [(*github.com/guild&#45;framework/guild&#45;core/pkg/gerror.GuildError).WithDetails]">
<path fill="none" stroke="saddlebrown" d="M401.42,-273.44C438.13,-252.01 501.79,-216.93 560.08,-195 568.83,-191.71 578.06,-188.66 587.37,-185.85"/>
<polygon fill="saddlebrown" stroke="saddlebrown" points="588.23,-189.25 596.86,-183.1 586.28,-182.53 588.23,-189.25"/>
</a>
</g>
</g>
<!-- github.com/guild&#45;framework/guild&#45;core/pkg/gerror.Wrap -->
<g id="node11" class="node">
<title>github.com/guild&#45;framework/guild&#45;core/pkg/gerror.Wrap</title>
<g id="a_node11"><a xlink:title="github.com/guild&#45;framework/guild&#45;core/pkg/gerror.Wrap | defined in errors.go:223">
<path fill="moccasin" stroke="black" stroke-width="1.5" d="M702.12,-304C702.12,-304 666.33,-304 666.33,-304 660.33,-304 654.33,-298 654.33,-292 654.33,-292 654.33,-280 654.33,-280 654.33,-274 660.33,-268 666.33,-268 666.33,-268 702.12,-268 702.12,-268 708.12,-268 714.12,-274 714.12,-280 714.12,-280 714.12,-292 714.12,-292 714.12,-298 708.12,-304 702.12,-304"/>
<text xml:space="preserve" text-anchor="middle" x="684.22" y="-281.32" font-family="Verdana" font-size="14.00">Wrap</text>
</a>
</g>
</g>
<!-- (*github.com/guild&#45;framework/guild&#45;core/pkg/providers/ora.Client).ChatCompletion&#45;&gt;github.com/guild&#45;framework/guild&#45;core/pkg/gerror.Wrap -->
<g id="edge7" class="edge">
<title>(*github.com/guild&#45;framework/guild&#45;core/pkg/providers/ora.Client).ChatCompletion&#45;&gt;github.com/guild&#45;framework/guild&#45;core/pkg/gerror.Wrap</title>
<g id="a_edge7"><a xlink:title="at client.go:126: calling [github.com/guild&#45;framework/guild&#45;core/pkg/gerror.Wrap]">
<path fill="none" stroke="saddlebrown" d="M470.08,-299.01C490.58,-299.69 512.03,-299.86 532.08,-299 569.48,-297.39 611.94,-293.56 642.32,-290.48"/>
<polygon fill="saddlebrown" stroke="saddlebrown" points="642.64,-293.96 652.23,-289.45 641.92,-287 642.64,-293.96"/>
</a>
</g>
</g>
<!-- (*github.com/guild&#45;framework/guild&#45;core/pkg/providers/ora.Client).CreateEmbedding -->
<g id="node5" class="node">
<title>(*github.com/guild&#45;framework/guild&#45;core/pkg/providers/ora.Client).CreateEmbedding</title>
<g id="a_node5"><a xlink:title="(*github.com/guild&#45;framework/guild&#45;core/pkg/providers/ora.Client).CreateEmbedding | defined in client.go:167&#10;at client.go:169: calling [github.com/guild&#45;framework/guild&#45;core/pkg/gerror.New]&#10;at client.go:171: calling [(*github.com/guild&#45;framework/guild&#45;core/pkg/gerror.GuildError).WithOperation]&#10;at client.go:170: calling [(*github.com/guild&#45;framework/guild&#45;core/pkg/gerror.GuildError).WithComponent]&#10;at client.go:172: calling [(*github.com/guild&#45;framework/guild&#45;core/pkg/gerror.GuildError).WithDetails]&#10;at client.go:173: calling [(*github.com/guild&#45;framework/guild&#45;core/pkg/gerror.GuildError).WithDetails]">
<path fill="lightblue" stroke="black" stroke-width="1.5" d="M464.7,-79C464.7,-79 274.41,-79 274.41,-79 268.41,-79 262.41,-73 262.41,-67 262.41,-67 262.41,-55 262.41,-55 262.41,-49 268.41,-43 274.41,-43 274.41,-43 464.7,-43 464.7,-43 470.7,-43 476.7,-49 476.7,-55 476.7,-55 476.7,-67 476.7,-67 476.7,-73 470.7,-79 464.7,-79"/>
<text xml:space="preserve" text-anchor="middle" x="369.56" y="-56.33" font-family="Verdana" font-size="14.00">(*Client).CreateEmbedding</text>
</a>
</g>
</g>
<!-- (*github.com/guild&#45;framework/guild&#45;core/pkg/providers/ora.Client).CreateEmbedding&#45;&gt;github.com/guild&#45;framework/guild&#45;core/pkg/gerror.New -->
<g id="edge9" class="edge">
<title>(*github.com/guild&#45;framework/guild&#45;core/pkg/providers/ora.Client).CreateEmbedding&#45;&gt;github.com/guild&#45;framework/guild&#45;core/pkg/gerror.New</title>
<g id="a_edge9"><a xlink:title="at client.go:169: calling [github.com/guild&#45;framework/guild&#45;core/pkg/gerror.New]">
<path fill="none" stroke="saddlebrown" d="M477.04,-46.61C495.04,-44.69 513.57,-43.03 531.08,-42 569.84,-39.71 614.25,-40.05 645.04,-40.76"/>
<polygon fill="saddlebrown" stroke="saddlebrown" points="644.94,-44.25 655.02,-41.01 645.12,-37.26 644.94,-44.25"/>
</a>
</g>
</g>
<!-- (*github.com/guild&#45;framework/guild&#45;core/pkg/providers/ora.Client).CreateEmbedding&#45;&gt;(*github.com/guild&#45;framework/guild&#45;core/pkg/gerror.GuildError).WithComponent -->
<g id="edge12" class="edge">
<title>(*github.com/guild&#45;framework/guild&#45;core/pkg/providers/ora.Client).CreateEmbedding&#45;&gt;(*github.com/guild&#45;framework/guild&#45;core/pkg/gerror.GuildError).WithComponent</title>
<g id="a_edge12"><a xlink:title="at client.go:170: calling [(*github.com/guild&#45;framework/guild&#45;core/pkg/gerror.GuildError).WithComponent]">
<path fill="none" stroke="saddlebrown" d="M448.67,-79.7C464.96,-85.79 481.34,-93.74 495.08,-104 534.9,-133.74 518.91,-167.15 560.08,-195 563.52,-197.33 567.12,-199.47 570.84,-201.45"/>
<polygon fill="saddlebrown" stroke="saddlebrown" points="569.04,-204.47 579.56,-205.66 572.07,-198.16 569.04,-204.47"/>
</a>
</g>
</g>
<!-- (*github.com/guild&#45;framework/guild&#45;core/pkg/providers/ora.Client).CreateEmbedding&#45;&gt;(*github.com/guild&#45;framework/guild&#45;core/pkg/gerror.GuildError).WithOperation -->
<g id="edge10" class="edge">
<title>(*github.com/guild&#45;framework/guild&#45;core/pkg/providers/ora.Client).CreateEmbedding&#45;&gt;(*github.com/guild&#45;framework/guild&#45;core/pkg/gerror.GuildError).WithOperation</title>
<g id="a_edge10"><a xlink:title="at client.go:171: calling [(*github.com/guild&#45;framework/guild&#45;core/pkg/gerror.GuildError).WithOperation]">
<path fill="none" stroke="saddlebrown" d="M477.29,-75.34C504.42,-78.98 533.78,-82.92 561.59,-86.66"/>
<polygon fill="saddlebrown" stroke="saddlebrown" points="561.11,-90.13 571.49,-87.99 562.04,-83.19 561.11,-90.13"/>
</a>
</g>
</g>
<!-- (*github.com/guild&#45;framework/guild&#45;core/pkg/providers/ora.Client).CreateEmbedding&#45;&gt;(*github.com/guild&#45;framework/guild&#45;core/pkg/gerror.GuildError).WithDetails -->
<g id="edge13" class="edge">
<title>(*github.com/guild&#45;framework/guild&#45;core/pkg/providers/ora.Client).CreateEmbedding&#45;&gt;(*github.com/guild&#45;framework/guild&#45;core/pkg/gerror.GuildError).WithDetails</title>
<g id="a_edge13"><a xlink:title="at client.go:172: calling [(*github.com/guild&#45;framework/guild&#45;core/pkg/gerror.GuildError).WithDetails]&#10;at client.go:173: calling [(*github.com/guild&#45;framework/guild&#45;core/pkg/gerror.GuildError).WithDetails]">
<path fill="none" stroke="saddlebrown" d="M428.66,-79.72C449.75,-86.87 473.65,-95.38 495.08,-104 524.6,-115.87 530.04,-123.52 560.08,-134 568.5,-136.94 577.34,-139.7 586.25,-142.26"/>
<polygon fill="saddlebrown" stroke="saddlebrown" points="585.11,-145.58 595.69,-144.88 586.99,-138.83 585.11,-145.58"/>
</a>
</g>
</g>
<!-- (*github.com/guild&#45;framework/guild&#45;core/pkg/providers/ora.Client).Complete -->
<g id="node6" class="node">
<title>(*github.com/guild&#45;framework/guild&#45;core/pkg/providers/ora.Client).Complete</title>
<g id="a_node6"><a xlink:title="(*github.com/guild&#45;framework/guild&#45;core/pkg/providers/ora.Client).Complete | defined in client.go:273&#10;at client.go:281: calling [(*github.com/guild&#45;framework/guild&#45;core/pkg/providers/ora.Client).ChatCompletion]">
<path fill="lightblue" stroke="black" stroke-width="1.5" d="M159.04,-310C159.04,-310 28,-310 28,-310 22,-310 16,-304 16,-298 16,-298 16,-286 16,-286 16,-280 22,-274 28,-274 28,-274 159.04,-274 159.04,-274 165.04,-274 171.04,-280 171.04,-286 171.04,-286 171.04,-298 171.04,-298 171.04,-304 165.04,-310 159.04,-310"/>
<text xml:space="preserve" text-anchor="middle" x="93.52" y="-287.32" font-family="Verdana" font-size="14.00">(*Client).Complete</text>
</a>
</g>
</g>
<!-- (*github.com/guild&#45;framework/guild&#45;core/pkg/providers/ora.Client).Complete&#45;&gt;(*github.com/guild&#45;framework/guild&#45;core/pkg/providers/ora.Client).ChatCompletion -->
<g id="edge11" class="edge">
<title>(*github.com/guild&#45;framework/guild&#45;core/pkg/providers/ora.Client).Complete&#45;&gt;(*github.com/guild&#45;framework/guild&#45;core/pkg/providers/ora.Client).ChatCompletion</title>
<g id="a_edge11"><a xlink:title="at client.go:281: calling [(*github.com/guild&#45;framework/guild&#45;core/pkg/providers/ora.Client).ChatCompletion]">
<path fill="none" stroke="black" d="M171.58,-292C198.28,-292 228.75,-292 257.62,-292"/>
<polygon fill="black" stroke="black" points="257.51,-295.5 267.51,-292 257.51,-288.5 257.51,-295.5"/>
</a>
</g>
</g>
</g>
</svg>
