<?xml version="1.0" encoding="UTF-8" standalone="no"?>
<!DOCTYPE svg PUBLIC "-//W3C//DTD SVG 1.1//EN"
 "http://www.w3.org/Graphics/SVG/1.1/DTD/svg11.dtd">
<!-- Generated by graphviz version 14.1.1 (20251213.1925)
 -->
<!-- Title: gocallvis Pages: 1 -->
<svg width="1166pt" height="666pt"
 viewBox="0.00 0.00 1166.00 666.00" xmlns="http://www.w3.org/2000/svg" xmlns:xlink="http://www.w3.org/1999/xlink">
<g id="graph0" class="graph" transform="scale(1 1) rotate(0) translate(0 666)">
<title>gocallvis</title>
<polygon fill="lightgray" stroke="none" points="0,0 0,-666 1165.87,-666 1165.87,0 0,0"/>
<g id="clust1" class="cluster">
<title>cluster_focus</title>
<polygon fill="#e6ecfa" stroke="black" stroke-width="0.5" points="8,-8 8,-658 1157.87,-658 1157.87,-8 8,-8"/>
<text xml:space="preserve" text-anchor="middle" x="582.94" y="-636.9" font-family="Arial" font-size="18.00">integration</text>
</g>
<g id="clust2" class="cluster">
<title>cluster_github.com/guild&#45;framework/guild&#45;core/pkg/gerror</title>
<g id="a_clust2"><a xlink:href="/?f=github.com/guild-framework/guild-core/pkg/gerror" xlink:title="package: github.com/guild&#45;framework/guild&#45;core/pkg/gerror">
<polygon fill="lightyellow" stroke="black" stroke-width="0.8" points="871.33,-252 871.33,-454 1119.62,-454 1119.62,-252 871.33,-252"/>
<text xml:space="preserve" text-anchor="middle" x="995.48" y="-434.8" font-family="Tahoma bold" font-size="16.00">gerror</text>
</a>
</g>
</g>
<!-- (*github.com/guild&#45;framework/guild&#45;core/pkg/integration.MonitoringEventAdapter).Register -->
<g id="node1" class="node">
<title>(*github.com/guild&#45;framework/guild&#45;core/pkg/integration.MonitoringEventAdapter).Register</title>
<g id="a_node1"><a xlink:title="(*github.com/guild&#45;framework/guild&#45;core/pkg/integration.MonitoringEventAdapter).Register | defined in eventbus_integration.go:571&#10;at eventbus_integration.go:609: calling [(*github.com/guild&#45;framework/guild&#45;core/pkg/integration.MonitoringEventAdapter).Register$1]">
<path fill="lightblue" stroke="black" stroke-width="1.5" d="M729.46,-52C729.46,-52 476.92,-52 476.92,-52 470.92,-52 464.92,-46 464.92,-40 464.92,-40 464.92,-28 464.92,-28 464.92,-22 470.92,-16 476.92,-16 476.92,-16 729.46,-16 729.46,-16 735.46,-16 741.46,-22 741.46,-28 741.46,-28 741.46,-40 741.46,-40 741.46,-46 735.46,-52 729.46,-52"/>
<text xml:space="preserve" text-anchor="middle" x="603.19" y="-29.32" font-family="Verdana" font-size="14.00">(*MonitoringEventAdapter).Register</text>
</a>
</g>
</g>
<!-- (*github.com/guild&#45;framework/guild&#45;core/pkg/integration.MonitoringEventAdapter).Register$1 -->
<g id="node2" class="node">
<title>(*github.com/guild&#45;framework/guild&#45;core/pkg/integration.MonitoringEventAdapter).Register$1</title>
<g id="a_node2"><a xlink:title="(*github.com/guild&#45;framework/guild&#45;core/pkg/integration.MonitoringEventAdapter).Register$1 | defined in eventbus_integration.go:579">
<polygon fill="lightblue" stroke="black" stroke-dasharray="1,5" points="1142.75,-52 848.21,-52 848.21,-16 1142.75,-16 1142.75,-52"/>
<text xml:space="preserve" text-anchor="middle" x="995.48" y="-29.32" font-family="Verdana" font-size="14.00">(*MonitoringEventAdapter).Register$1</text>
</a>
</g>
</g>
<!-- (*github.com/guild&#45;framework/guild&#45;core/pkg/integration.MonitoringEventAdapter).Register&#45;&gt;(*github.com/guild&#45;framework/guild&#45;core/pkg/integration.MonitoringEventAdapter).Register$1 -->
<g id="edge17" class="edge">
<title>(*github.com/guild&#45;framework/guild&#45;core/pkg/integration.MonitoringEventAdapter).Register&#45;&gt;(*github.com/guild&#45;framework/guild&#45;core/pkg/integration.MonitoringEventAdapter).Register$1</title>
<g id="a_edge17"><a xlink:title="at eventbus_integration.go:609: calling [(*github.com/guild&#45;framework/guild&#45;core/pkg/integration.MonitoringEventAdapter).Register$1]">
<path fill="none" stroke="black" d="M742.06,-34C772.54,-34 805.07,-34 836.28,-34"/>
<polygon fill="black" stroke="black" points="836.2,-37.5 846.2,-34 836.2,-30.5 836.2,-37.5"/>
</a>
</g>
</g>
<!-- (*github.com/guild&#45;framework/guild&#45;core/pkg/integration.EventBusIntegrator).setupDefaultRouting -->
<g id="node3" class="node">
<title>(*github.com/guild&#45;framework/guild&#45;core/pkg/integration.EventBusIntegrator).setupDefaultRouting</title>
<g id="a_node3"><a xlink:title="(*github.com/guild&#45;framework/guild&#45;core/pkg/integration.EventBusIntegrator).setupDefaultRouting | defined in eventbus_integration.go:671&#10;at eventbus_integration.go:673: calling [(*github.com/guild&#45;framework/guild&#45;core/pkg/integration.EventRouter).AddRoute]&#10;at eventbus_integration.go:679: calling [(*github.com/guild&#45;framework/guild&#45;core/pkg/integration.EventRouter).AddRoute]&#10;at eventbus_integration.go:685: calling [(*github.com/guild&#45;framework/guild&#45;core/pkg/integration.EventRouter).AddRoute]">
<path fill="lightblue" stroke="black" stroke-width="0.5" d="M756.08,-621C756.08,-621 450.29,-621 450.29,-621 444.29,-621 438.29,-615 438.29,-609 438.29,-609 438.29,-597 438.29,-597 438.29,-591 444.29,-585 450.29,-585 450.29,-585 756.08,-585 756.08,-585 762.08,-585 768.08,-591 768.08,-597 768.08,-597 768.08,-609 768.08,-609 768.08,-615 762.08,-621 756.08,-621"/>
<text xml:space="preserve" text-anchor="middle" x="603.19" y="-598.33" font-family="Verdana" font-size="14.00">(*EventBusIntegrator).setupDefaultRouting</text>
</a>
</g>
</g>
<!-- (*github.com/guild&#45;framework/guild&#45;core/pkg/integration.EventRouter).AddRoute -->
<g id="node4" class="node">
<title>(*github.com/guild&#45;framework/guild&#45;core/pkg/integration.EventRouter).AddRoute</title>
<g id="a_node4"><a xlink:title="(*github.com/guild&#45;framework/guild&#45;core/pkg/integration.EventRouter).AddRoute | defined in eventbus_integration.go:692">
<path fill="lightblue" stroke="black" stroke-width="1.5" d="M1085.37,-621C1085.37,-621 905.58,-621 905.58,-621 899.58,-621 893.58,-615 893.58,-609 893.58,-609 893.58,-597 893.58,-597 893.58,-591 899.58,-585 905.58,-585 905.58,-585 1085.37,-585 1085.37,-585 1091.37,-585 1097.37,-591 1097.37,-597 1097.37,-597 1097.37,-609 1097.37,-609 1097.37,-615 1091.37,-621 1085.37,-621"/>
<text xml:space="preserve" text-anchor="middle" x="995.48" y="-598.33" font-family="Verdana" font-size="14.00">(*EventRouter).AddRoute</text>
</a>
</g>
</g>
<!-- (*github.com/guild&#45;framework/guild&#45;core/pkg/integration.EventBusIntegrator).setupDefaultRouting&#45;&gt;(*github.com/guild&#45;framework/guild&#45;core/pkg/integration.EventRouter).AddRoute -->
<g id="edge18" class="edge">
<title>(*github.com/guild&#45;framework/guild&#45;core/pkg/integration.EventBusIntegrator).setupDefaultRouting&#45;&gt;(*github.com/guild&#45;framework/guild&#45;core/pkg/integration.EventRouter).AddRoute</title>
<g id="a_edge18"><a xlink:title="at eventbus_integration.go:673: calling [(*github.com/guild&#45;framework/guild&#45;core/pkg/integration.EventRouter).AddRoute]&#10;at eventbus_integration.go:679: calling [(*github.com/guild&#45;framework/guild&#45;core/pkg/integration.EventRouter).AddRoute]&#10;at eventbus_integration.go:685: calling [(*github.com/guild&#45;framework/guild&#45;core/pkg/integration.EventRouter).AddRoute]">
<path fill="none" stroke="black" d="M768.29,-603C806.48,-603 846.29,-603 881.68,-603"/>
<polygon fill="black" stroke="black" points="881.49,-606.5 891.49,-603 881.49,-599.5 881.49,-606.5"/>
</a>
</g>
</g>
<!-- (*github.com/guild&#45;framework/guild&#45;core/pkg/integration.SessionEventAdapter).Register -->
<g id="node5" class="node">
<title>(*github.com/guild&#45;framework/guild&#45;core/pkg/integration.SessionEventAdapter).Register</title>
<g id="a_node5"><a xlink:title="(*github.com/guild&#45;framework/guild&#45;core/pkg/integration.SessionEventAdapter).Register | defined in eventbus_integration.go:402&#10;at eventbus_integration.go:468: calling [(*github.com/guild&#45;framework/guild&#45;core/pkg/integration.SessionEventAdapter).Register$1]">
<path fill="lightblue" stroke="black" stroke-width="1.5" d="M719.33,-113C719.33,-113 487.04,-113 487.04,-113 481.04,-113 475.04,-107 475.04,-101 475.04,-101 475.04,-89 475.04,-89 475.04,-83 481.04,-77 487.04,-77 487.04,-77 719.33,-77 719.33,-77 725.33,-77 731.33,-83 731.33,-89 731.33,-89 731.33,-101 731.33,-101 731.33,-107 725.33,-113 719.33,-113"/>
<text xml:space="preserve" text-anchor="middle" x="603.19" y="-90.33" font-family="Verdana" font-size="14.00">(*SessionEventAdapter).Register</text>
</a>
</g>
</g>
<!-- (*github.com/guild&#45;framework/guild&#45;core/pkg/integration.SessionEventAdapter).Register$1 -->
<g id="node6" class="node">
<title>(*github.com/guild&#45;framework/guild&#45;core/pkg/integration.SessionEventAdapter).Register$1</title>
<g id="a_node6"><a xlink:title="(*github.com/guild&#45;framework/guild&#45;core/pkg/integration.SessionEventAdapter).Register$1 | defined in eventbus_integration.go:413">
<polygon fill="lightblue" stroke="black" stroke-dasharray="1,5" points="1132.62,-113 858.33,-113 858.33,-77 1132.62,-77 1132.62,-113"/>
<text xml:space="preserve" text-anchor="middle" x="995.48" y="-90.33" font-family="Verdana" font-size="14.00">(*SessionEventAdapter).Register$1</text>
</a>
</g>
</g>
<!-- (*github.com/guild&#45;framework/guild&#45;core/pkg/integration.SessionEventAdapter).Register&#45;&gt;(*github.com/guild&#45;framework/guild&#45;core/pkg/integration.SessionEventAdapter).Register$1 -->
<g id="edge1" class="edge">
<title>(*github.com/guild&#45;framework/guild&#45;core/pkg/integration.SessionEventAdapter).Register&#45;&gt;(*github.com/guild&#45;framework/guild&#45;core/pkg/integration.SessionEventAdapter).Register$1</title>
<g id="a_edge1"><a xlink:title="at eventbus_integration.go:468: calling [(*github.com/guild&#45;framework/guild&#45;core/pkg/integration.SessionEventAdapter).Register$1]">
<path fill="none" stroke="black" d="M731.98,-95C768.71,-95 809.06,-95 846.87,-95"/>
<polygon fill="black" stroke="black" points="846.48,-98.5 856.48,-95 846.48,-91.5 846.48,-98.5"/>
</a>
</g>
</g>
<!-- (*github.com/guild&#45;framework/guild&#45;core/pkg/integration.EventBusIntegrator).RegisterAllComponents -->
<g id="node7" class="node">
<title>(*github.com/guild&#45;framework/guild&#45;core/pkg/integration.EventBusIntegrator).RegisterAllComponents</title>
<g id="a_node7"><a xlink:title="(*github.com/guild&#45;framework/guild&#45;core/pkg/integration.EventBusIntegrator).RegisterAllComponents | defined in eventbus_integration.go:170&#10;at eventbus_integration.go:175: calling [github.com/guild&#45;framework/guild&#45;core/pkg/gerror.Wrap]&#10;at eventbus_integration.go:182: calling [github.com/guild&#45;framework/guild&#45;core/pkg/gerror.Wrap]&#10;at eventbus_integration.go:189: calling [github.com/guild&#45;framework/guild&#45;core/pkg/gerror.Wrap]&#10;at eventbus_integration.go:176: calling [(*github.com/guild&#45;framework/guild&#45;core/pkg/gerror.GuildError).WithComponent]&#10;at eventbus_integration.go:183: calling [(*github.com/guild&#45;framework/guild&#45;core/pkg/gerror.GuildError).WithComponent]&#10;at eventbus_integration.go:190: calling [(*github.com/guild&#45;framework/guild&#45;core/pkg/gerror.GuildError).WithComponent]&#10;at eventbus_integration.go:177: calling [(*github.com/guild&#45;framework/guild&#45;core/pkg/gerror.GuildError).WithOperation]&#10;at eventbus_integration.go:184: calling [(*github.com/guild&#45;framework/guild&#45;core/pkg/gerror.GuildError).WithOperation]&#10;at eventbus_integration.go:191: calling [(*github.com/guild&#45;framework/guild&#45;core/pkg/gerror.GuildError).WithOperation]&#10;at eventbus_integration.go:181: calling [(*github.com/guild&#45;framework/guild&#45;core/pkg/integration.PerformanceEventAdapter).Register]&#10;at eventbus_integration.go:188: calling [(*github.com/guild&#45;framework/guild&#45;core/pkg/integration.MonitoringEventAdapter).Register]&#10;at eventbus_integration.go:206: calling [(*github.com/guild&#45;framework/guild&#45;core/pkg/integration.EventBusIntegrator).PublishEvent]&#10;at eventbus_integration.go:174: calling [(*github.com/guild&#45;framework/guild&#45;core/pkg/integration.SessionEventAdapter).Register]">
<path fill="lightblue" stroke="black" stroke-width="1.5" d="M353.29,-218C353.29,-218 28,-218 28,-218 22,-218 16,-212 16,-206 16,-206 16,-194 16,-194 16,-188 22,-182 28,-182 28,-182 353.29,-182 353.29,-182 359.29,-182 365.29,-188 365.29,-194 365.29,-194 365.29,-206 365.29,-206 365.29,-212 359.29,-218 353.29,-218"/>
<text xml:space="preserve" text-anchor="middle" x="190.65" y="-195.32" font-family="Verdana" font-size="14.00">(*EventBusIntegrator).RegisterAllComponents</text>
</a>
</g>
</g>
<!-- (*github.com/guild&#45;framework/guild&#45;core/pkg/integration.EventBusIntegrator).RegisterAllComponents&#45;&gt;(*github.com/guild&#45;framework/guild&#45;core/pkg/integration.MonitoringEventAdapter).Register -->
<g id="edge8" class="edge">
<title>(*github.com/guild&#45;framework/guild&#45;core/pkg/integration.EventBusIntegrator).RegisterAllComponents&#45;&gt;(*github.com/guild&#45;framework/guild&#45;core/pkg/integration.MonitoringEventAdapter).Register</title>
<g id="a_edge8"><a xlink:title="at eventbus_integration.go:188: calling [(*github.com/guild&#45;framework/guild&#45;core/pkg/integration.MonitoringEventAdapter).Register]">
<path fill="none" stroke="black" d="M218.77,-181.4C262.82,-152.08 353.5,-95.36 438.29,-65 448.2,-61.45 458.61,-58.28 469.17,-55.46"/>
<polygon fill="black" stroke="black" points="469.92,-58.88 478.74,-53.02 468.19,-52.1 469.92,-58.88"/>
</a>
</g>
</g>
<!-- (*github.com/guild&#45;framework/guild&#45;core/pkg/integration.EventBusIntegrator).RegisterAllComponents&#45;&gt;(*github.com/guild&#45;framework/guild&#45;core/pkg/integration.SessionEventAdapter).Register -->
<g id="edge19" class="edge">
<title>(*github.com/guild&#45;framework/guild&#45;core/pkg/integration.EventBusIntegrator).RegisterAllComponents&#45;&gt;(*github.com/guild&#45;framework/guild&#45;core/pkg/integration.SessionEventAdapter).Register</title>
<g id="a_edge19"><a xlink:title="at eventbus_integration.go:174: calling [(*github.com/guild&#45;framework/guild&#45;core/pkg/integration.SessionEventAdapter).Register]">
<path fill="none" stroke="black" d="M248,-181.26C297.7,-165.17 372.27,-142.1 438.29,-126 452.78,-122.47 468.07,-119.1 483.26,-115.98"/>
<polygon fill="black" stroke="black" points="483.69,-119.46 492.8,-114.05 482.3,-112.6 483.69,-119.46"/>
</a>
</g>
</g>
<!-- (*github.com/guild&#45;framework/guild&#45;core/pkg/integration.PerformanceEventAdapter).Register -->
<g id="node8" class="node">
<title>(*github.com/guild&#45;framework/guild&#45;core/pkg/integration.PerformanceEventAdapter).Register</title>
<g id="a_node8"><a xlink:title="(*github.com/guild&#45;framework/guild&#45;core/pkg/integration.PerformanceEventAdapter).Register | defined in eventbus_integration.go:505&#10;at eventbus_integration.go:545: calling [(*github.com/guild&#45;framework/guild&#45;core/pkg/integration.PerformanceEventAdapter).Register$1]">
<path fill="lightblue" stroke="black" stroke-width="1.5" d="M736.58,-174C736.58,-174 469.79,-174 469.79,-174 463.79,-174 457.79,-168 457.79,-162 457.79,-162 457.79,-150 457.79,-150 457.79,-144 463.79,-138 469.79,-138 469.79,-138 736.58,-138 736.58,-138 742.58,-138 748.58,-144 748.58,-150 748.58,-150 748.58,-162 748.58,-162 748.58,-168 742.58,-174 736.58,-174"/>
<text xml:space="preserve" text-anchor="middle" x="603.19" y="-151.32" font-family="Verdana" font-size="14.00">(*PerformanceEventAdapter).Register</text>
</a>
</g>
</g>
<!-- (*github.com/guild&#45;framework/guild&#45;core/pkg/integration.EventBusIntegrator).RegisterAllComponents&#45;&gt;(*github.com/guild&#45;framework/guild&#45;core/pkg/integration.PerformanceEventAdapter).Register -->
<g id="edge5" class="edge">
<title>(*github.com/guild&#45;framework/guild&#45;core/pkg/integration.EventBusIntegrator).RegisterAllComponents&#45;&gt;(*github.com/guild&#45;framework/guild&#45;core/pkg/integration.PerformanceEventAdapter).Register</title>
<g id="a_edge5"><a xlink:title="at eventbus_integration.go:181: calling [(*github.com/guild&#45;framework/guild&#45;core/pkg/integration.PerformanceEventAdapter).Register]">
<path fill="none" stroke="black" d="M365.75,-181.34C392.43,-178.48 419.82,-175.55 446.08,-172.73"/>
<polygon fill="black" stroke="black" points="446.18,-176.24 455.75,-171.69 445.43,-169.28 446.18,-176.24"/>
</a>
</g>
</g>
<!-- (*github.com/guild&#45;framework/guild&#45;core/pkg/integration.EventBusIntegrator).PublishEvent -->
<g id="node10" class="node">
<title>(*github.com/guild&#45;framework/guild&#45;core/pkg/integration.EventBusIntegrator).PublishEvent</title>
<g id="a_node10"><a xlink:title="(*github.com/guild&#45;framework/guild&#45;core/pkg/integration.EventBusIntegrator).PublishEvent | defined in eventbus_integration.go:215&#10;at eventbus_integration.go:229: calling [(*github.com/guild&#45;framework/guild&#45;core/pkg/gerror.GuildError).WithComponent]&#10;at eventbus_integration.go:237: calling [(*github.com/guild&#45;framework/guild&#45;core/pkg/gerror.GuildError).WithComponent]&#10;at eventbus_integration.go:245: calling [(*github.com/guild&#45;framework/guild&#45;core/pkg/gerror.GuildError).WithComponent]&#10;at eventbus_integration.go:227: calling [(*github.com/guild&#45;framework/guild&#45;core/pkg/integration.EventRouter).RouteEvent]&#10;at eventbus_integration.go:228: calling [github.com/guild&#45;framework/guild&#45;core/pkg/gerror.Wrap]&#10;at eventbus_integration.go:236: calling [github.com/guild&#45;framework/guild&#45;core/pkg/gerror.Wrap]&#10;at eventbus_integration.go:244: calling [github.com/guild&#45;framework/guild&#45;core/pkg/gerror.Wrap]&#10;at eventbus_integration.go:230: calling [(*github.com/guild&#45;framework/guild&#45;core/pkg/gerror.GuildError).WithOperation]&#10;at eventbus_integration.go:238: calling [(*github.com/guild&#45;framework/guild&#45;core/pkg/gerror.GuildError).WithOperation]&#10;at eventbus_integration.go:246: calling [(*github.com/guild&#45;framework/guild&#45;core/pkg/gerror.GuildError).WithOperation]">
<path fill="lightblue" stroke="black" stroke-width="1.5" d="M729.46,-262C729.46,-262 476.92,-262 476.92,-262 470.92,-262 464.92,-256 464.92,-250 464.92,-250 464.92,-238 464.92,-238 464.92,-232 470.92,-226 476.92,-226 476.92,-226 729.46,-226 729.46,-226 735.46,-226 741.46,-232 741.46,-238 741.46,-238 741.46,-250 741.46,-250 741.46,-256 735.46,-262 729.46,-262"/>
<text xml:space="preserve" text-anchor="middle" x="603.19" y="-239.32" font-family="Verdana" font-size="14.00">(*EventBusIntegrator).PublishEvent</text>
</a>
</g>
</g>
<!-- (*github.com/guild&#45;framework/guild&#45;core/pkg/integration.EventBusIntegrator).RegisterAllComponents&#45;&gt;(*github.com/guild&#45;framework/guild&#45;core/pkg/integration.EventBusIntegrator).PublishEvent -->
<g id="edge10" class="edge">
<title>(*github.com/guild&#45;framework/guild&#45;core/pkg/integration.EventBusIntegrator).RegisterAllComponents&#45;&gt;(*github.com/guild&#45;framework/guild&#45;core/pkg/integration.EventBusIntegrator).PublishEvent</title>
<g id="a_edge10"><a xlink:title="at eventbus_integration.go:206: calling [(*github.com/guild&#45;framework/guild&#45;core/pkg/integration.EventBusIntegrator).PublishEvent]">
<path fill="none" stroke="black" d="M365.75,-218.66C394.79,-221.77 424.67,-224.98 453.02,-228.01"/>
<polygon fill="black" stroke="black" points="452.4,-231.47 462.71,-229.05 453.14,-224.51 452.4,-231.47"/>
</a>
</g>
</g>
<!-- github.com/guild&#45;framework/guild&#45;core/pkg/gerror.Wrap -->
<g id="node17" class="node">
<title>github.com/guild&#45;framework/guild&#45;core/pkg/gerror.Wrap</title>
<g id="a_node17"><a xlink:title="github.com/guild&#45;framework/guild&#45;core/pkg/gerror.Wrap | defined in errors.go:223">
<path fill="moccasin" stroke="black" stroke-width="1.5" d="M1013.37,-418C1013.37,-418 977.58,-418 977.58,-418 971.58,-418 965.58,-412 965.58,-406 965.58,-406 965.58,-394 965.58,-394 965.58,-388 971.58,-382 977.58,-382 977.58,-382 1013.37,-382 1013.37,-382 1019.37,-382 1025.37,-388 1025.37,-394 1025.37,-394 1025.37,-406 1025.37,-406 1025.37,-412 1019.37,-418 1013.37,-418"/>
<text xml:space="preserve" text-anchor="middle" x="995.48" y="-395.32" font-family="Verdana" font-size="14.00">Wrap</text>
</a>
</g>
</g>
<!-- (*github.com/guild&#45;framework/guild&#45;core/pkg/integration.EventBusIntegrator).RegisterAllComponents&#45;&gt;github.com/guild&#45;framework/guild&#45;core/pkg/gerror.Wrap -->
<g id="edge2" class="edge">
<title>(*github.com/guild&#45;framework/guild&#45;core/pkg/integration.EventBusIntegrator).RegisterAllComponents&#45;&gt;github.com/guild&#45;framework/guild&#45;core/pkg/gerror.Wrap</title>
<g id="a_edge2"><a xlink:title="at eventbus_integration.go:175: calling [github.com/guild&#45;framework/guild&#45;core/pkg/gerror.Wrap]&#10;at eventbus_integration.go:182: calling [github.com/guild&#45;framework/guild&#45;core/pkg/gerror.Wrap]&#10;at eventbus_integration.go:189: calling [github.com/guild&#45;framework/guild&#45;core/pkg/gerror.Wrap]">
<path fill="none" stroke="saddlebrown" d="M228.14,-218.58C275.33,-241.68 360.68,-280.32 438.29,-299 581.38,-333.44 627.53,-285.33 768.08,-329 803.62,-340.04 806.16,-357.16 841.08,-370 877.89,-383.54 922.03,-391.35 953.49,-395.59"/>
<polygon fill="saddlebrown" stroke="saddlebrown" points="953.02,-399.06 963.39,-396.85 953.91,-392.12 953.02,-399.06"/>
</a>
</g>
</g>
<!-- (*github.com/guild&#45;framework/guild&#45;core/pkg/gerror.GuildError).WithComponent -->
<g id="node18" class="node">
<title>(*github.com/guild&#45;framework/guild&#45;core/pkg/gerror.GuildError).WithComponent</title>
<g id="a_node18"><a xlink:title="(*github.com/guild&#45;framework/guild&#45;core/pkg/gerror.GuildError).WithComponent | defined in errors.go:156">
<path fill="moccasin" stroke="black" stroke-width="1.5" d="M1099.62,-357C1099.62,-357 891.33,-357 891.33,-357 885.33,-357 879.33,-351 879.33,-345 879.33,-345 879.33,-333 879.33,-333 879.33,-327 885.33,-321 891.33,-321 891.33,-321 1099.62,-321 1099.62,-321 1105.62,-321 1111.62,-327 1111.62,-333 1111.62,-333 1111.62,-345 1111.62,-345 1111.62,-351 1105.62,-357 1099.62,-357"/>
<text xml:space="preserve" text-anchor="middle" x="995.48" y="-334.32" font-family="Verdana" font-size="14.00">(*GuildError).WithComponent</text>
</a>
</g>
</g>
<!-- (*github.com/guild&#45;framework/guild&#45;core/pkg/integration.EventBusIntegrator).RegisterAllComponents&#45;&gt;(*github.com/guild&#45;framework/guild&#45;core/pkg/gerror.GuildError).WithComponent -->
<g id="edge3" class="edge">
<title>(*github.com/guild&#45;framework/guild&#45;core/pkg/integration.EventBusIntegrator).RegisterAllComponents&#45;&gt;(*github.com/guild&#45;framework/guild&#45;core/pkg/gerror.GuildError).WithComponent</title>
<g id="a_edge3"><a xlink:title="at eventbus_integration.go:176: calling [(*github.com/guild&#45;framework/guild&#45;core/pkg/gerror.GuildError).WithComponent]&#10;at eventbus_integration.go:183: calling [(*github.com/guild&#45;framework/guild&#45;core/pkg/gerror.GuildError).WithComponent]&#10;at eventbus_integration.go:190: calling [(*github.com/guild&#45;framework/guild&#45;core/pkg/gerror.GuildError).WithComponent]">
<path fill="none" stroke="saddlebrown" d="M242.39,-218.62C291.74,-235.97 369.17,-261.17 438.29,-275 582.73,-303.9 621.8,-290.67 768.08,-308 800.33,-311.82 835.09,-316.37 867.48,-320.78"/>
<polygon fill="saddlebrown" stroke="saddlebrown" points="866.94,-324.24 877.32,-322.13 867.89,-317.31 866.94,-324.24"/>
</a>
</g>
</g>
<!-- (*github.com/guild&#45;framework/guild&#45;core/pkg/gerror.GuildError).WithOperation -->
<g id="node19" class="node">
<title>(*github.com/guild&#45;framework/guild&#45;core/pkg/gerror.GuildError).WithOperation</title>
<g id="a_node19"><a xlink:title="(*github.com/guild&#45;framework/guild&#45;core/pkg/gerror.GuildError).WithOperation | defined in errors.go:162">
<path fill="moccasin" stroke="black" stroke-width="1.5" d="M1094,-296C1094,-296 896.96,-296 896.96,-296 890.96,-296 884.96,-290 884.96,-284 884.96,-284 884.96,-272 884.96,-272 884.96,-266 890.96,-260 896.96,-260 896.96,-260 1094,-260 1094,-260 1100,-260 1106,-266 1106,-272 1106,-272 1106,-284 1106,-284 1106,-290 1100,-296 1094,-296"/>
<text xml:space="preserve" text-anchor="middle" x="995.48" y="-273.32" font-family="Verdana" font-size="14.00">(*GuildError).WithOperation</text>
</a>
</g>
</g>
<!-- (*github.com/guild&#45;framework/guild&#45;core/pkg/integration.EventBusIntegrator).RegisterAllComponents&#45;&gt;(*github.com/guild&#45;framework/guild&#45;core/pkg/gerror.GuildError).WithOperation -->
<g id="edge4" class="edge">
<title>(*github.com/guild&#45;framework/guild&#45;core/pkg/integration.EventBusIntegrator).RegisterAllComponents&#45;&gt;(*github.com/guild&#45;framework/guild&#45;core/pkg/gerror.GuildError).WithOperation</title>
<g id="a_edge4"><a xlink:title="at eventbus_integration.go:177: calling [(*github.com/guild&#45;framework/guild&#45;core/pkg/gerror.GuildError).WithOperation]&#10;at eventbus_integration.go:184: calling [(*github.com/guild&#45;framework/guild&#45;core/pkg/gerror.GuildError).WithOperation]&#10;at eventbus_integration.go:191: calling [(*github.com/guild&#45;framework/guild&#45;core/pkg/gerror.GuildError).WithOperation]">
<path fill="none" stroke="saddlebrown" d="M365.93,-194.85C507.52,-192.4 695.24,-193.59 768.08,-214 804.12,-224.1 805.7,-243.79 841.08,-256 851.38,-259.55 862.26,-262.53 873.28,-265.03"/>
<polygon fill="saddlebrown" stroke="saddlebrown" points="872.34,-268.41 882.85,-267.06 873.79,-261.56 872.34,-268.41"/>
</a>
</g>
</g>
<!-- (*github.com/guild&#45;framework/guild&#45;core/pkg/integration.PerformanceEventAdapter).Register$1 -->
<g id="node9" class="node">
<title>(*github.com/guild&#45;framework/guild&#45;core/pkg/integration.PerformanceEventAdapter).Register$1</title>
<g id="a_node9"><a xlink:title="(*github.com/guild&#45;framework/guild&#45;core/pkg/integration.PerformanceEventAdapter).Register$1 | defined in eventbus_integration.go:515">
<polygon fill="lightblue" stroke="black" stroke-dasharray="1,5" points="1149.87,-174 841.08,-174 841.08,-138 1149.87,-138 1149.87,-174"/>
<text xml:space="preserve" text-anchor="middle" x="995.48" y="-151.32" font-family="Verdana" font-size="14.00">(*PerformanceEventAdapter).Register$1</text>
</a>
</g>
</g>
<!-- (*github.com/guild&#45;framework/guild&#45;core/pkg/integration.PerformanceEventAdapter).Register&#45;&gt;(*github.com/guild&#45;framework/guild&#45;core/pkg/integration.PerformanceEventAdapter).Register$1 -->
<g id="edge20" class="edge">
<title>(*github.com/guild&#45;framework/guild&#45;core/pkg/integration.PerformanceEventAdapter).Register&#45;&gt;(*github.com/guild&#45;framework/guild&#45;core/pkg/integration.PerformanceEventAdapter).Register$1</title>
<g id="a_edge20"><a xlink:title="at eventbus_integration.go:545: calling [(*github.com/guild&#45;framework/guild&#45;core/pkg/integration.PerformanceEventAdapter).Register$1]">
<path fill="none" stroke="black" d="M749.24,-156C775.33,-156 802.69,-156 829.3,-156"/>
<polygon fill="black" stroke="black" points="829.14,-159.5 839.14,-156 829.14,-152.5 829.14,-159.5"/>
</a>
</g>
</g>
<!-- (*github.com/guild&#45;framework/guild&#45;core/pkg/integration.EventRouter).RouteEvent -->
<g id="node11" class="node">
<title>(*github.com/guild&#45;framework/guild&#45;core/pkg/integration.EventRouter).RouteEvent</title>
<g id="a_node11"><a xlink:title="(*github.com/guild&#45;framework/guild&#45;core/pkg/integration.EventRouter).RouteEvent | defined in eventbus_integration.go:632">
<path fill="lightblue" stroke="black" stroke-width="1.5" d="M1091.37,-235C1091.37,-235 899.58,-235 899.58,-235 893.58,-235 887.58,-229 887.58,-223 887.58,-223 887.58,-211 887.58,-211 887.58,-205 893.58,-199 899.58,-199 899.58,-199 1091.37,-199 1091.37,-199 1097.37,-199 1103.37,-205 1103.37,-211 1103.37,-211 1103.37,-223 1103.37,-223 1103.37,-229 1097.37,-235 1091.37,-235"/>
<text xml:space="preserve" text-anchor="middle" x="995.48" y="-212.32" font-family="Verdana" font-size="14.00">(*EventRouter).RouteEvent</text>
</a>
</g>
</g>
<!-- (*github.com/guild&#45;framework/guild&#45;core/pkg/integration.EventBusIntegrator).PublishEvent&#45;&gt;(*github.com/guild&#45;framework/guild&#45;core/pkg/integration.EventRouter).RouteEvent -->
<g id="edge13" class="edge">
<title>(*github.com/guild&#45;framework/guild&#45;core/pkg/integration.EventBusIntegrator).PublishEvent&#45;&gt;(*github.com/guild&#45;framework/guild&#45;core/pkg/integration.EventRouter).RouteEvent</title>
<g id="a_edge13"><a xlink:title="at eventbus_integration.go:227: calling [(*github.com/guild&#45;framework/guild&#45;core/pkg/integration.EventRouter).RouteEvent]">
<path fill="none" stroke="black" d="M742.05,-231.69C762.83,-230 784.01,-228.38 804.08,-227 827.31,-225.4 852.16,-223.93 875.97,-222.63"/>
<polygon fill="black" stroke="black" points="875.89,-226.14 885.69,-222.11 875.51,-219.15 875.89,-226.14"/>
</a>
</g>
</g>
<!-- (*github.com/guild&#45;framework/guild&#45;core/pkg/integration.EventBusIntegrator).PublishEvent&#45;&gt;github.com/guild&#45;framework/guild&#45;core/pkg/gerror.Wrap -->
<g id="edge14" class="edge">
<title>(*github.com/guild&#45;framework/guild&#45;core/pkg/integration.EventBusIntegrator).PublishEvent&#45;&gt;github.com/guild&#45;framework/guild&#45;core/pkg/gerror.Wrap</title>
<g id="a_edge14"><a xlink:title="at eventbus_integration.go:228: calling [github.com/guild&#45;framework/guild&#45;core/pkg/gerror.Wrap]&#10;at eventbus_integration.go:236: calling [github.com/guild&#45;framework/guild&#45;core/pkg/gerror.Wrap]&#10;at eventbus_integration.go:244: calling [github.com/guild&#45;framework/guild&#45;core/pkg/gerror.Wrap]">
<path fill="none" stroke="saddlebrown" d="M662.71,-262.71C694.74,-273.96 734.6,-289.65 768.08,-308 785.93,-317.78 789.52,-321.87 805.08,-335 822.14,-349.39 821.31,-359.65 841.08,-370 876.3,-388.44 921.45,-395.6 953.63,-398.35"/>
<polygon fill="saddlebrown" stroke="saddlebrown" points="953.11,-401.82 963.34,-399.06 953.63,-394.84 953.11,-401.82"/>
</a>
</g>
</g>
<!-- (*github.com/guild&#45;framework/guild&#45;core/pkg/integration.EventBusIntegrator).PublishEvent&#45;&gt;(*github.com/guild&#45;framework/guild&#45;core/pkg/gerror.GuildError).WithComponent -->
<g id="edge9" class="edge">
<title>(*github.com/guild&#45;framework/guild&#45;core/pkg/integration.EventBusIntegrator).PublishEvent&#45;&gt;(*github.com/guild&#45;framework/guild&#45;core/pkg/gerror.GuildError).WithComponent</title>
<g id="a_edge9"><a xlink:title="at eventbus_integration.go:229: calling [(*github.com/guild&#45;framework/guild&#45;core/pkg/gerror.GuildError).WithComponent]&#10;at eventbus_integration.go:237: calling [(*github.com/guild&#45;framework/guild&#45;core/pkg/gerror.GuildError).WithComponent]&#10;at eventbus_integration.go:245: calling [(*github.com/guild&#45;framework/guild&#45;core/pkg/gerror.GuildError).WithComponent]">
<path fill="none" stroke="saddlebrown" d="M742.2,-260.35C763.78,-265.47 785.42,-272.18 805.08,-281 823.57,-289.29 822.63,-300.6 841.08,-309 849.6,-312.88 858.61,-316.26 867.82,-319.2"/>
<polygon fill="saddlebrown" stroke="saddlebrown" points="866.68,-322.51 877.26,-322.02 868.69,-315.8 866.68,-322.51"/>
</a>
</g>
</g>
<!-- (*github.com/guild&#45;framework/guild&#45;core/pkg/integration.EventBusIntegrator).PublishEvent&#45;&gt;(*github.com/guild&#45;framework/guild&#45;core/pkg/gerror.GuildError).WithOperation -->
<g id="edge15" class="edge">
<title>(*github.com/guild&#45;framework/guild&#45;core/pkg/integration.EventBusIntegrator).PublishEvent&#45;&gt;(*github.com/guild&#45;framework/guild&#45;core/pkg/gerror.GuildError).WithOperation</title>
<g id="a_edge15"><a xlink:title="at eventbus_integration.go:230: calling [(*github.com/guild&#45;framework/guild&#45;core/pkg/gerror.GuildError).WithOperation]&#10;at eventbus_integration.go:238: calling [(*github.com/guild&#45;framework/guild&#45;core/pkg/gerror.GuildError).WithOperation]&#10;at eventbus_integration.go:246: calling [(*github.com/guild&#45;framework/guild&#45;core/pkg/gerror.GuildError).WithOperation]">
<path fill="none" stroke="saddlebrown" d="M742.07,-249.47C763.19,-250.71 784.73,-252.21 805.08,-254 827.04,-255.94 850.37,-258.48 872.89,-261.2"/>
<polygon fill="saddlebrown" stroke="saddlebrown" points="872.36,-264.66 882.71,-262.4 873.21,-257.71 872.36,-264.66"/>
</a>
</g>
</g>
<!-- github.com/guild&#45;framework/guild&#45;core/pkg/integration.NewEventBusIntegrator -->
<g id="node12" class="node">
<title>github.com/guild&#45;framework/guild&#45;core/pkg/integration.NewEventBusIntegrator</title>
<g id="a_node12"><a xlink:title="github.com/guild&#45;framework/guild&#45;core/pkg/integration.NewEventBusIntegrator | defined in eventbus_integration.go:146&#10;at eventbus_integration.go:161: calling [github.com/guild&#45;framework/guild&#45;core/pkg/integration.NewEventRouter]&#10;at eventbus_integration.go:164: calling [(*github.com/guild&#45;framework/guild&#45;core/pkg/integration.EventBusIntegrator).setupDefaultRouting]&#10;at eventbus_integration.go:156: calling [github.com/guild&#45;framework/guild&#45;core/pkg/integration.NewSessionEventAdapter]&#10;at eventbus_integration.go:158: calling [github.com/guild&#45;framework/guild&#45;core/pkg/integration.NewMonitoringEventAdapter]&#10;at eventbus_integration.go:157: calling [github.com/guild&#45;framework/guild&#45;core/pkg/integration.NewPerformanceEventAdapter]">
<path fill="lightblue" stroke="black" stroke-width="1.5" d="M273.79,-499C273.79,-499 107.5,-499 107.5,-499 101.5,-499 95.5,-493 95.5,-487 95.5,-487 95.5,-475 95.5,-475 95.5,-469 101.5,-463 107.5,-463 107.5,-463 273.79,-463 273.79,-463 279.79,-463 285.79,-469 285.79,-475 285.79,-475 285.79,-487 285.79,-487 285.79,-493 279.79,-499 273.79,-499"/>
<text xml:space="preserve" text-anchor="middle" x="190.65" y="-476.32" font-family="Verdana" font-size="14.00">NewEventBusIntegrator</text>
</a>
</g>
</g>
<!-- github.com/guild&#45;framework/guild&#45;core/pkg/integration.NewEventBusIntegrator&#45;&gt;(*github.com/guild&#45;framework/guild&#45;core/pkg/integration.EventBusIntegrator).setupDefaultRouting -->
<g id="edge7" class="edge">
<title>github.com/guild&#45;framework/guild&#45;core/pkg/integration.NewEventBusIntegrator&#45;&gt;(*github.com/guild&#45;framework/guild&#45;core/pkg/integration.EventBusIntegrator).setupDefaultRouting</title>
<g id="a_edge7"><a xlink:title="at eventbus_integration.go:164: calling [(*github.com/guild&#45;framework/guild&#45;core/pkg/integration.EventBusIntegrator).setupDefaultRouting]">
<path fill="none" stroke="black" d="M234.55,-499.64C283.16,-520.14 365.15,-552.84 438.29,-573 450.82,-576.45 463.99,-579.62 477.21,-582.49"/>
<polygon fill="black" stroke="black" points="476.31,-585.88 486.82,-584.52 477.76,-579.03 476.31,-585.88"/>
</a>
</g>
</g>
<!-- github.com/guild&#45;framework/guild&#45;core/pkg/integration.NewSessionEventAdapter -->
<g id="node13" class="node">
<title>github.com/guild&#45;framework/guild&#45;core/pkg/integration.NewSessionEventAdapter</title>
<g id="a_node13"><a xlink:title="github.com/guild&#45;framework/guild&#45;core/pkg/integration.NewSessionEventAdapter | defined in eventbus_integration.go:395">
<path fill="lightblue" stroke="black" stroke-width="1.5" d="M692.33,-377C692.33,-377 514.04,-377 514.04,-377 508.04,-377 502.04,-371 502.04,-365 502.04,-365 502.04,-353 502.04,-353 502.04,-347 508.04,-341 514.04,-341 514.04,-341 692.33,-341 692.33,-341 698.33,-341 704.33,-347 704.33,-353 704.33,-353 704.33,-365 704.33,-365 704.33,-371 698.33,-377 692.33,-377"/>
<text xml:space="preserve" text-anchor="middle" x="603.19" y="-354.32" font-family="Verdana" font-size="14.00">NewSessionEventAdapter</text>
</a>
</g>
</g>
<!-- github.com/guild&#45;framework/guild&#45;core/pkg/integration.NewEventBusIntegrator&#45;&gt;github.com/guild&#45;framework/guild&#45;core/pkg/integration.NewSessionEventAdapter -->
<g id="edge11" class="edge">
<title>github.com/guild&#45;framework/guild&#45;core/pkg/integration.NewEventBusIntegrator&#45;&gt;github.com/guild&#45;framework/guild&#45;core/pkg/integration.NewSessionEventAdapter</title>
<g id="a_edge11"><a xlink:title="at eventbus_integration.go:156: calling [github.com/guild&#45;framework/guild&#45;core/pkg/integration.NewSessionEventAdapter]">
<path fill="none" stroke="black" d="M235.47,-462.3C284.23,-442.09 365.71,-410.1 438.29,-390 455.05,-385.36 472.96,-381.19 490.56,-377.53"/>
<polygon fill="black" stroke="black" points="490.88,-381.03 499.98,-375.61 489.49,-374.17 490.88,-381.03"/>
</a>
</g>
</g>
<!-- github.com/guild&#45;framework/guild&#45;core/pkg/integration.NewPerformanceEventAdapter -->
<g id="node14" class="node">
<title>github.com/guild&#45;framework/guild&#45;core/pkg/integration.NewPerformanceEventAdapter</title>
<g id="a_node14"><a xlink:title="github.com/guild&#45;framework/guild&#45;core/pkg/integration.NewPerformanceEventAdapter | defined in eventbus_integration.go:498">
<path fill="lightblue" stroke="black" stroke-width="1.5" d="M709.58,-438C709.58,-438 496.79,-438 496.79,-438 490.79,-438 484.79,-432 484.79,-426 484.79,-426 484.79,-414 484.79,-414 484.79,-408 490.79,-402 496.79,-402 496.79,-402 709.58,-402 709.58,-402 715.58,-402 721.58,-408 721.58,-414 721.58,-414 721.58,-426 721.58,-426 721.58,-432 715.58,-438 709.58,-438"/>
<text xml:space="preserve" text-anchor="middle" x="603.19" y="-415.32" font-family="Verdana" font-size="14.00">NewPerformanceEventAdapter</text>
</a>
</g>
</g>
<!-- github.com/guild&#45;framework/guild&#45;core/pkg/integration.NewEventBusIntegrator&#45;&gt;github.com/guild&#45;framework/guild&#45;core/pkg/integration.NewPerformanceEventAdapter -->
<g id="edge16" class="edge">
<title>github.com/guild&#45;framework/guild&#45;core/pkg/integration.NewEventBusIntegrator&#45;&gt;github.com/guild&#45;framework/guild&#45;core/pkg/integration.NewPerformanceEventAdapter</title>
<g id="a_edge16"><a xlink:title="at eventbus_integration.go:157: calling [github.com/guild&#45;framework/guild&#45;core/pkg/integration.NewPerformanceEventAdapter]">
<path fill="none" stroke="black" d="M286.35,-466.93C341.74,-458.7 412.46,-448.19 472.92,-439.21"/>
<polygon fill="black" stroke="black" points="473.21,-442.7 482.59,-437.77 472.18,-435.78 473.21,-442.7"/>
</a>
</g>
</g>
<!-- github.com/guild&#45;framework/guild&#45;core/pkg/integration.NewMonitoringEventAdapter -->
<g id="node15" class="node">
<title>github.com/guild&#45;framework/guild&#45;core/pkg/integration.NewMonitoringEventAdapter</title>
<g id="a_node15"><a xlink:title="github.com/guild&#45;framework/guild&#45;core/pkg/integration.NewMonitoringEventAdapter | defined in eventbus_integration.go:564">
<path fill="lightblue" stroke="black" stroke-width="1.5" d="M702.46,-499C702.46,-499 503.92,-499 503.92,-499 497.92,-499 491.92,-493 491.92,-487 491.92,-487 491.92,-475 491.92,-475 491.92,-469 497.92,-463 503.92,-463 503.92,-463 702.46,-463 702.46,-463 708.46,-463 714.46,-469 714.46,-475 714.46,-475 714.46,-487 714.46,-487 714.46,-493 708.46,-499 702.46,-499"/>
<text xml:space="preserve" text-anchor="middle" x="603.19" y="-476.32" font-family="Verdana" font-size="14.00">NewMonitoringEventAdapter</text>
</a>
</g>
</g>
<!-- github.com/guild&#45;framework/guild&#45;core/pkg/integration.NewEventBusIntegrator&#45;&gt;github.com/guild&#45;framework/guild&#45;core/pkg/integration.NewMonitoringEventAdapter -->
<g id="edge12" class="edge">
<title>github.com/guild&#45;framework/guild&#45;core/pkg/integration.NewEventBusIntegrator&#45;&gt;github.com/guild&#45;framework/guild&#45;core/pkg/integration.NewMonitoringEventAdapter</title>
<g id="a_edge12"><a xlink:title="at eventbus_integration.go:158: calling [github.com/guild&#45;framework/guild&#45;core/pkg/integration.NewMonitoringEventAdapter]">
<path fill="none" stroke="black" d="M286.35,-481C343.86,-481 417.88,-481 479.81,-481"/>
<polygon fill="black" stroke="black" points="479.71,-484.5 489.71,-481 479.71,-477.5 479.71,-484.5"/>
</a>
</g>
</g>
<!-- github.com/guild&#45;framework/guild&#45;core/pkg/integration.NewEventRouter -->
<g id="node16" class="node">
<title>github.com/guild&#45;framework/guild&#45;core/pkg/integration.NewEventRouter</title>
<g id="a_node16"><a xlink:title="github.com/guild&#45;framework/guild&#45;core/pkg/integration.NewEventRouter | defined in eventbus_integration.go:623">
<path fill="lightblue" stroke="black" stroke-width="1.5" d="M660.83,-560C660.83,-560 545.54,-560 545.54,-560 539.54,-560 533.54,-554 533.54,-548 533.54,-548 533.54,-536 533.54,-536 533.54,-530 539.54,-524 545.54,-524 545.54,-524 660.83,-524 660.83,-524 666.83,-524 672.83,-530 672.83,-536 672.83,-536 672.83,-548 672.83,-548 672.83,-554 666.83,-560 660.83,-560"/>
<text xml:space="preserve" text-anchor="middle" x="603.19" y="-537.33" font-family="Verdana" font-size="14.00">NewEventRouter</text>
</a>
</g>
</g>
<!-- github.com/guild&#45;framework/guild&#45;core/pkg/integration.NewEventBusIntegrator&#45;&gt;github.com/guild&#45;framework/guild&#45;core/pkg/integration.NewEventRouter -->
<g id="edge6" class="edge">
<title>github.com/guild&#45;framework/guild&#45;core/pkg/integration.NewEventBusIntegrator&#45;&gt;github.com/guild&#45;framework/guild&#45;core/pkg/integration.NewEventRouter</title>
<g id="a_edge6"><a xlink:title="at eventbus_integration.go:161: calling [github.com/guild&#45;framework/guild&#45;core/pkg/integration.NewEventRouter]">
<path fill="none" stroke="black" d="M286.35,-495.07C357.68,-505.67 454.4,-520.04 521.95,-530.08"/>
<polygon fill="black" stroke="black" points="521.04,-533.48 531.45,-531.49 522.07,-526.56 521.04,-533.48"/>
</a>
</g>
</g>
</g>
</svg>
