<?xml version="1.0" encoding="UTF-8" standalone="no"?>
<!DOCTYPE svg PUBLIC "-//W3C//DTD SVG 1.1//EN"
 "http://www.w3.org/Graphics/SVG/1.1/DTD/svg11.dtd">
<!-- Generated by graphviz version 14.1.1 (20251213.1925)
 -->
<!-- Title: gocallvis Pages: 1 -->
<svg width="1227pt" height="700pt"
 viewBox="0.00 0.00 1227.00 700.00" xmlns="http://www.w3.org/2000/svg" xmlns:xlink="http://www.w3.org/1999/xlink">
<g id="graph0" class="graph" transform="scale(1 1) rotate(0) translate(0 700)">
<title>gocallvis</title>
<polygon fill="lightgray" stroke="none" points="0,0 0,-700 1226.66,-700 1226.66,0 0,0"/>
<g id="clust1" class="cluster">
<title>cluster_focus</title>
<polygon fill="#e6ecfa" stroke="black" stroke-width="0.5" points="8,-8 8,-692 1218.66,-692 1218.66,-8 8,-8"/>
<text xml:space="preserve" text-anchor="middle" x="613.33" y="-670.9" font-family="Arial" font-size="18.00">xml</text>
</g>
<g id="clust2" class="cluster">
<title>cluster_github.com/guild&#45;framework/guild&#45;core/pkg/gerror</title>
<g id="a_clust2"><a xlink:href="/?f=github.com/guild-framework/guild-core/pkg/gerror" xlink:title="package: github.com/guild&#45;framework/guild&#45;core/pkg/gerror">
<polygon fill="lightyellow" stroke="black" stroke-width="0.8" points="600.96,-16 600.96,-279 849.25,-279 849.25,-16 600.96,-16"/>
<text xml:space="preserve" text-anchor="middle" x="725.1" y="-259.8" font-family="Tahoma bold" font-size="16.00">gerror</text>
</a>
</g>
</g>
<g id="clust3" class="cluster">
<title>cluster_github.com/guild&#45;framework/guild&#45;core/pkg/observability</title>
<g id="a_clust3"><a xlink:href="/?f=github.com/guild-framework/guild-core/pkg/observability" xlink:title="package: github.com/guild&#45;framework/guild&#45;core/pkg/observability">
<polygon fill="lightyellow" stroke="black" stroke-width="0.8" points="312.56,-16 312.56,-96 430.56,-96 430.56,-16 312.56,-16"/>
<text xml:space="preserve" text-anchor="middle" x="371.56" y="-76.8" font-family="Tahoma bold" font-size="16.00">observability</text>
</a>
</g>
</g>
<!-- (*github.com/guild&#45;framework/guild&#45;core/pkg/tools/parser/xml.Detector).extractWithBoundarySearch -->
<g id="node1" class="node">
<title>(*github.com/guild&#45;framework/guild&#45;core/pkg/tools/parser/xml.Detector).extractWithBoundarySearch</title>
<g id="a_node1"><a xlink:title="(*github.com/guild&#45;framework/guild&#45;core/pkg/tools/parser/xml.Detector).extractWithBoundarySearch | defined in detector.go:119&#10;at detector.go:141: calling [(*github.com/guild&#45;framework/guild&#45;core/pkg/tools/parser/xml.Detector).isWellFormedXML]">
<path fill="lightblue" stroke="black" stroke-width="0.5" d="M865.62,-533C865.62,-533 584.58,-533 584.58,-533 578.58,-533 572.58,-527 572.58,-521 572.58,-521 572.58,-509 572.58,-509 572.58,-503 578.58,-497 584.58,-497 584.58,-497 865.62,-497 865.62,-497 871.62,-497 877.62,-503 877.62,-509 877.62,-509 877.62,-521 877.62,-521 877.62,-527 871.62,-533 865.62,-533"/>
<text xml:space="preserve" text-anchor="middle" x="725.1" y="-510.32" font-family="Verdana" font-size="14.00">(*Detector).extractWithBoundarySearch</text>
</a>
</g>
</g>
<!-- (*github.com/guild&#45;framework/guild&#45;core/pkg/tools/parser/xml.Detector).isWellFormedXML -->
<g id="node2" class="node">
<title>(*github.com/guild&#45;framework/guild&#45;core/pkg/tools/parser/xml.Detector).isWellFormedXML</title>
<g id="a_node2"><a xlink:title="(*github.com/guild&#45;framework/guild&#45;core/pkg/tools/parser/xml.Detector).isWellFormedXML | defined in detector.go:193">
<path fill="lightblue" stroke="black" stroke-width="0.5" d="M1184.41,-441C1184.41,-441 976.87,-441 976.87,-441 970.87,-441 964.87,-435 964.87,-429 964.87,-429 964.87,-417 964.87,-417 964.87,-411 970.87,-405 976.87,-405 976.87,-405 1184.41,-405 1184.41,-405 1190.41,-405 1196.41,-411 1196.41,-417 1196.41,-417 1196.41,-429 1196.41,-429 1196.41,-435 1190.41,-441 1184.41,-441"/>
<text xml:space="preserve" text-anchor="middle" x="1080.64" y="-418.32" font-family="Verdana" font-size="14.00">(*Detector).isWellFormedXML</text>
</a>
</g>
</g>
<!-- (*github.com/guild&#45;framework/guild&#45;core/pkg/tools/parser/xml.Detector).extractWithBoundarySearch&#45;&gt;(*github.com/guild&#45;framework/guild&#45;core/pkg/tools/parser/xml.Detector).isWellFormedXML -->
<g id="edge17" class="edge">
<title>(*github.com/guild&#45;framework/guild&#45;core/pkg/tools/parser/xml.Detector).extractWithBoundarySearch&#45;&gt;(*github.com/guild&#45;framework/guild&#45;core/pkg/tools/parser/xml.Detector).isWellFormedXML</title>
<g id="a_edge17"><a xlink:title="at detector.go:141: calling [(*github.com/guild&#45;framework/guild&#45;core/pkg/tools/parser/xml.Detector).isWellFormedXML]">
<path fill="none" stroke="black" d="M832.76,-496.77C847.94,-493.34 863.27,-489.42 877.62,-485 911.31,-474.63 917.15,-465.04 950.62,-454 961.4,-450.44 972.8,-447.11 984.2,-444.04"/>
<polygon fill="black" stroke="black" points="984.85,-447.49 993.63,-441.57 983.07,-440.72 984.85,-447.49"/>
</a>
</g>
</g>
<!-- (*github.com/guild&#45;framework/guild&#45;core/pkg/tools/parser/xml.Detector).extractXML -->
<g id="node3" class="node">
<title>(*github.com/guild&#45;framework/guild&#45;core/pkg/tools/parser/xml.Detector).extractXML</title>
<g id="a_node3"><a xlink:title="(*github.com/guild&#45;framework/guild&#45;core/pkg/tools/parser/xml.Detector).extractXML | defined in detector.go:90&#10;at detector.go:106: calling [(*github.com/guild&#45;framework/guild&#45;core/pkg/tools/parser/xml.Detector).extractWithBoundarySearch]&#10;at detector.go:111: calling [(*github.com/guild&#45;framework/guild&#45;core/pkg/tools/parser/xml.Detector).extractFromCodeBlock]&#10;at detector.go:99: calling [(*github.com/guild&#45;framework/guild&#45;core/pkg/tools/parser/xml.Detector).isWellFormedXML]">
<path fill="lightblue" stroke="black" stroke-width="0.5" d="M452.33,-472C452.33,-472 289.79,-472 289.79,-472 283.79,-472 277.79,-466 277.79,-460 277.79,-460 277.79,-448 277.79,-448 277.79,-442 283.79,-436 289.79,-436 289.79,-436 452.33,-436 452.33,-436 458.33,-436 464.33,-442 464.33,-448 464.33,-448 464.33,-460 464.33,-460 464.33,-466 458.33,-472 452.33,-472"/>
<text xml:space="preserve" text-anchor="middle" x="371.06" y="-449.32" font-family="Verdana" font-size="14.00">(*Detector).extractXML</text>
</a>
</g>
</g>
<!-- (*github.com/guild&#45;framework/guild&#45;core/pkg/tools/parser/xml.Detector).extractXML&#45;&gt;(*github.com/guild&#45;framework/guild&#45;core/pkg/tools/parser/xml.Detector).extractWithBoundarySearch -->
<g id="edge6" class="edge">
<title>(*github.com/guild&#45;framework/guild&#45;core/pkg/tools/parser/xml.Detector).extractXML&#45;&gt;(*github.com/guild&#45;framework/guild&#45;core/pkg/tools/parser/xml.Detector).extractWithBoundarySearch</title>
<g id="a_edge6"><a xlink:title="at detector.go:106: calling [(*github.com/guild&#45;framework/guild&#45;core/pkg/tools/parser/xml.Detector).extractWithBoundarySearch]">
<path fill="none" stroke="black" d="M464.55,-470.03C508.4,-477.63 561.26,-486.78 607.79,-494.85"/>
<polygon fill="black" stroke="black" points="606.91,-498.25 617.36,-496.5 608.11,-491.35 606.91,-498.25"/>
</a>
</g>
</g>
<!-- (*github.com/guild&#45;framework/guild&#45;core/pkg/tools/parser/xml.Detector).extractXML&#45;&gt;(*github.com/guild&#45;framework/guild&#45;core/pkg/tools/parser/xml.Detector).isWellFormedXML -->
<g id="edge12" class="edge">
<title>(*github.com/guild&#45;framework/guild&#45;core/pkg/tools/parser/xml.Detector).extractXML&#45;&gt;(*github.com/guild&#45;framework/guild&#45;core/pkg/tools/parser/xml.Detector).isWellFormedXML</title>
<g id="a_edge12"><a xlink:title="at detector.go:99: calling [(*github.com/guild&#45;framework/guild&#45;core/pkg/tools/parser/xml.Detector).isWellFormedXML]">
<path fill="none" stroke="black" d="M464.33,-437.3C498.25,-431.93 537.04,-426.68 572.58,-424 702.03,-414.24 850.61,-415.39 953.31,-418.13"/>
<polygon fill="black" stroke="black" points="953.06,-421.62 963.15,-418.4 953.25,-414.62 953.06,-421.62"/>
</a>
</g>
</g>
<!-- (*github.com/guild&#45;framework/guild&#45;core/pkg/tools/parser/xml.Detector).extractFromCodeBlock -->
<g id="node4" class="node">
<title>(*github.com/guild&#45;framework/guild&#45;core/pkg/tools/parser/xml.Detector).extractFromCodeBlock</title>
<g id="a_node4"><a xlink:title="(*github.com/guild&#45;framework/guild&#45;core/pkg/tools/parser/xml.Detector).extractFromCodeBlock | defined in detector.go:151&#10;at detector.go:159: calling [(*github.com/guild&#45;framework/guild&#45;core/pkg/tools/parser/xml.Detector).containsFunctionCalls]&#10;at detector.go:181: calling [(*github.com/guild&#45;framework/guild&#45;core/pkg/tools/parser/xml.Detector).containsFunctionCalls]&#10;at detector.go:159: calling [(*github.com/guild&#45;framework/guild&#45;core/pkg/tools/parser/xml.Detector).isWellFormedXML]&#10;at detector.go:181: calling [(*github.com/guild&#45;framework/guild&#45;core/pkg/tools/parser/xml.Detector).isWellFormedXML]">
<path fill="lightblue" stroke="black" stroke-width="0.5" d="M846.12,-472C846.12,-472 604.08,-472 604.08,-472 598.08,-472 592.08,-466 592.08,-460 592.08,-460 592.08,-448 592.08,-448 592.08,-442 598.08,-436 604.08,-436 604.08,-436 846.12,-436 846.12,-436 852.12,-436 858.12,-442 858.12,-448 858.12,-448 858.12,-460 858.12,-460 858.12,-466 852.12,-472 846.12,-472"/>
<text xml:space="preserve" text-anchor="middle" x="725.1" y="-449.32" font-family="Verdana" font-size="14.00">(*Detector).extractFromCodeBlock</text>
</a>
</g>
</g>
<!-- (*github.com/guild&#45;framework/guild&#45;core/pkg/tools/parser/xml.Detector).extractXML&#45;&gt;(*github.com/guild&#45;framework/guild&#45;core/pkg/tools/parser/xml.Detector).extractFromCodeBlock -->
<g id="edge8" class="edge">
<title>(*github.com/guild&#45;framework/guild&#45;core/pkg/tools/parser/xml.Detector).extractXML&#45;&gt;(*github.com/guild&#45;framework/guild&#45;core/pkg/tools/parser/xml.Detector).extractFromCodeBlock</title>
<g id="a_edge8"><a xlink:title="at detector.go:111: calling [(*github.com/guild&#45;framework/guild&#45;core/pkg/tools/parser/xml.Detector).extractFromCodeBlock]">
<path fill="none" stroke="black" d="M464.55,-454C499.97,-454 541.26,-454 580.34,-454"/>
<polygon fill="black" stroke="black" points="580.33,-457.5 590.33,-454 580.33,-450.5 580.33,-457.5"/>
</a>
</g>
</g>
<!-- (*github.com/guild&#45;framework/guild&#45;core/pkg/tools/parser/xml.Detector).extractFromCodeBlock&#45;&gt;(*github.com/guild&#45;framework/guild&#45;core/pkg/tools/parser/xml.Detector).isWellFormedXML -->
<g id="edge18" class="edge">
<title>(*github.com/guild&#45;framework/guild&#45;core/pkg/tools/parser/xml.Detector).extractFromCodeBlock&#45;&gt;(*github.com/guild&#45;framework/guild&#45;core/pkg/tools/parser/xml.Detector).isWellFormedXML</title>
<g id="a_edge18"><a xlink:title="at detector.go:159: calling [(*github.com/guild&#45;framework/guild&#45;core/pkg/tools/parser/xml.Detector).isWellFormedXML]&#10;at detector.go:181: calling [(*github.com/guild&#45;framework/guild&#45;core/pkg/tools/parser/xml.Detector).isWellFormedXML]">
<path fill="none" stroke="black" d="M858.25,-442.41C889.43,-439.68 922.59,-436.77 953.5,-434.06"/>
<polygon fill="black" stroke="black" points="953.61,-437.56 963.27,-433.2 953,-430.59 953.61,-437.56"/>
</a>
</g>
</g>
<!-- (*github.com/guild&#45;framework/guild&#45;core/pkg/tools/parser/xml.Detector).containsFunctionCalls -->
<g id="node5" class="node">
<title>(*github.com/guild&#45;framework/guild&#45;core/pkg/tools/parser/xml.Detector).containsFunctionCalls</title>
<g id="a_node5"><a xlink:title="(*github.com/guild&#45;framework/guild&#45;core/pkg/tools/parser/xml.Detector).containsFunctionCalls | defined in detector.go:210">
<path fill="lightblue" stroke="black" stroke-width="0.5" d="M1198.66,-502C1198.66,-502 962.62,-502 962.62,-502 956.62,-502 950.62,-496 950.62,-490 950.62,-490 950.62,-478 950.62,-478 950.62,-472 956.62,-466 962.62,-466 962.62,-466 1198.66,-466 1198.66,-466 1204.66,-466 1210.66,-472 1210.66,-478 1210.66,-478 1210.66,-490 1210.66,-490 1210.66,-496 1204.66,-502 1198.66,-502"/>
<text xml:space="preserve" text-anchor="middle" x="1080.64" y="-479.32" font-family="Verdana" font-size="14.00">(*Detector).containsFunctionCalls</text>
</a>
</g>
</g>
<!-- (*github.com/guild&#45;framework/guild&#45;core/pkg/tools/parser/xml.Detector).extractFromCodeBlock&#45;&gt;(*github.com/guild&#45;framework/guild&#45;core/pkg/tools/parser/xml.Detector).containsFunctionCalls -->
<g id="edge7" class="edge">
<title>(*github.com/guild&#45;framework/guild&#45;core/pkg/tools/parser/xml.Detector).extractFromCodeBlock&#45;&gt;(*github.com/guild&#45;framework/guild&#45;core/pkg/tools/parser/xml.Detector).containsFunctionCalls</title>
<g id="a_edge7"><a xlink:title="at detector.go:159: calling [(*github.com/guild&#45;framework/guild&#45;core/pkg/tools/parser/xml.Detector).containsFunctionCalls]&#10;at detector.go:181: calling [(*github.com/guild&#45;framework/guild&#45;core/pkg/tools/parser/xml.Detector).containsFunctionCalls]">
<path fill="none" stroke="black" d="M858.25,-465.21C884.68,-467.46 912.53,-469.82 939.22,-472.08"/>
<polygon fill="black" stroke="black" points="938.82,-475.56 949.08,-472.92 939.41,-468.59 938.82,-475.56"/>
</a>
</g>
</g>
<!-- (*github.com/guild&#45;framework/guild&#45;core/pkg/tools/parser/xml.Parser).parseStructuredXML -->
<g id="node6" class="node">
<title>(*github.com/guild&#45;framework/guild&#45;core/pkg/tools/parser/xml.Parser).parseStructuredXML</title>
<g id="a_node6"><a xlink:title="(*github.com/guild&#45;framework/guild&#45;core/pkg/tools/parser/xml.Parser).parseStructuredXML | defined in parser.go:130&#10;at parser.go:147: calling [(*github.com/guild&#45;framework/guild&#45;core/pkg/tools/parser/xml.Parser).convertInvokeToToolCall]&#10;at parser.go:157: calling [(*github.com/guild&#45;framework/guild&#45;core/pkg/tools/parser/xml.Parser).convertToolToToolCall]">
<path fill="lightblue" stroke="black" stroke-width="0.5" d="M477.46,-255C477.46,-255 264.67,-255 264.67,-255 258.67,-255 252.67,-249 252.67,-243 252.67,-243 252.67,-231 252.67,-231 252.67,-225 258.67,-219 264.67,-219 264.67,-219 477.46,-219 477.46,-219 483.46,-219 489.46,-225 489.46,-231 489.46,-231 489.46,-243 489.46,-243 489.46,-249 483.46,-255 477.46,-255"/>
<text xml:space="preserve" text-anchor="middle" x="371.06" y="-232.32" font-family="Verdana" font-size="14.00">(*Parser).parseStructuredXML</text>
</a>
</g>
</g>
<!-- (*github.com/guild&#45;framework/guild&#45;core/pkg/tools/parser/xml.Parser).convertInvokeToToolCall -->
<g id="node7" class="node">
<title>(*github.com/guild&#45;framework/guild&#45;core/pkg/tools/parser/xml.Parser).convertInvokeToToolCall</title>
<g id="a_node7"><a xlink:title="(*github.com/guild&#45;framework/guild&#45;core/pkg/tools/parser/xml.Parser).convertInvokeToToolCall | defined in parser.go:267">
<path fill="lightblue" stroke="black" stroke-width="0.5" d="M843.87,-323C843.87,-323 606.33,-323 606.33,-323 600.33,-323 594.33,-317 594.33,-311 594.33,-311 594.33,-299 594.33,-299 594.33,-293 600.33,-287 606.33,-287 606.33,-287 843.87,-287 843.87,-287 849.87,-287 855.87,-293 855.87,-299 855.87,-299 855.87,-311 855.87,-311 855.87,-317 849.87,-323 843.87,-323"/>
<text xml:space="preserve" text-anchor="middle" x="725.1" y="-300.32" font-family="Verdana" font-size="14.00">(*Parser).convertInvokeToToolCall</text>
</a>
</g>
</g>
<!-- (*github.com/guild&#45;framework/guild&#45;core/pkg/tools/parser/xml.Parser).parseStructuredXML&#45;&gt;(*github.com/guild&#45;framework/guild&#45;core/pkg/tools/parser/xml.Parser).convertInvokeToToolCall -->
<g id="edge24" class="edge">
<title>(*github.com/guild&#45;framework/guild&#45;core/pkg/tools/parser/xml.Parser).parseStructuredXML&#45;&gt;(*github.com/guild&#45;framework/guild&#45;core/pkg/tools/parser/xml.Parser).convertInvokeToToolCall</title>
<g id="a_edge24"><a xlink:title="at parser.go:147: calling [(*github.com/guild&#45;framework/guild&#45;core/pkg/tools/parser/xml.Parser).convertInvokeToToolCall]">
<path fill="none" stroke="black" d="M448.7,-255.2C465.49,-259.31 483.15,-263.72 499.58,-268 515.65,-272.18 519.33,-274.59 535.58,-278 550.9,-281.21 566.99,-284.16 583.06,-286.83"/>
<polygon fill="black" stroke="black" points="582.24,-290.24 592.67,-288.39 583.36,-283.33 582.24,-290.24"/>
</a>
</g>
</g>
<!-- (*github.com/guild&#45;framework/guild&#45;core/pkg/tools/parser/xml.Parser).convertToolToToolCall -->
<g id="node8" class="node">
<title>(*github.com/guild&#45;framework/guild&#45;core/pkg/tools/parser/xml.Parser).convertToolToToolCall</title>
<g id="a_node8"><a xlink:title="(*github.com/guild&#45;framework/guild&#45;core/pkg/tools/parser/xml.Parser).convertToolToToolCall | defined in parser.go:306">
<path fill="lightblue" stroke="black" stroke-width="0.5" d="M834.5,-384C834.5,-384 615.71,-384 615.71,-384 609.71,-384 603.71,-378 603.71,-372 603.71,-372 603.71,-360 603.71,-360 603.71,-354 609.71,-348 615.71,-348 615.71,-348 834.5,-348 834.5,-348 840.5,-348 846.5,-354 846.5,-360 846.5,-360 846.5,-372 846.5,-372 846.5,-378 840.5,-384 834.5,-384"/>
<text xml:space="preserve" text-anchor="middle" x="725.1" y="-361.32" font-family="Verdana" font-size="14.00">(*Parser).convertToolToToolCall</text>
</a>
</g>
</g>
<!-- (*github.com/guild&#45;framework/guild&#45;core/pkg/tools/parser/xml.Parser).parseStructuredXML&#45;&gt;(*github.com/guild&#45;framework/guild&#45;core/pkg/tools/parser/xml.Parser).convertToolToToolCall -->
<g id="edge25" class="edge">
<title>(*github.com/guild&#45;framework/guild&#45;core/pkg/tools/parser/xml.Parser).parseStructuredXML&#45;&gt;(*github.com/guild&#45;framework/guild&#45;core/pkg/tools/parser/xml.Parser).convertToolToToolCall</title>
<g id="a_edge25"><a xlink:title="at parser.go:157: calling [(*github.com/guild&#45;framework/guild&#45;core/pkg/tools/parser/xml.Parser).convertToolToToolCall]">
<path fill="none" stroke="black" d="M469.75,-255.21C480.11,-258.75 490.25,-262.97 499.58,-268 538.61,-289.03 533.1,-315.81 572.58,-336 579.16,-339.36 586.07,-342.35 593.18,-345"/>
<polygon fill="black" stroke="black" points="591.68,-348.19 602.28,-348.16 593.98,-341.57 591.68,-348.19"/>
</a>
</g>
</g>
<!-- (*github.com/guild&#45;framework/guild&#45;core/pkg/tools/parser/xml.Parser).Parse -->
<g id="node9" class="node">
<title>(*github.com/guild&#45;framework/guild&#45;core/pkg/tools/parser/xml.Parser).Parse</title>
<g id="a_node9"><a xlink:title="(*github.com/guild&#45;framework/guild&#45;core/pkg/tools/parser/xml.Parser).Parse | defined in parser.go:73&#10;at parser.go:99: calling [github.com/guild&#45;framework/guild&#45;core/pkg/tools/parser/xml.NewDetector]&#10;at parser.go:74: calling [github.com/guild&#45;framework/guild&#45;core/pkg/observability.GetLogger]&#10;at parser.go:79: calling [(*github.com/guild&#45;framework/guild&#45;core/pkg/tools/parser/xml.Parser).parseStructuredXML]&#10;at parser.go:117: calling [(*github.com/guild&#45;framework/guild&#45;core/pkg/tools/parser/xml.Parser).parseStructuredXML]&#10;at parser.go:89: calling [(*github.com/guild&#45;framework/guild&#45;core/pkg/tools/parser/xml.Parser).parseStreamingXML]&#10;at parser.go:123: calling [(*github.com/guild&#45;framework/guild&#45;core/pkg/tools/parser/xml.Parser).parseStreamingXML]&#10;at parser.go:100: calling [(*github.com/guild&#45;framework/guild&#45;core/pkg/tools/parser/xml.Detector).extractXML]&#10;at parser.go:106: calling [github.com/guild&#45;framework/guild&#45;core/pkg/gerror.New]&#10;at parser.go:107: calling [(*github.com/guild&#45;framework/guild&#45;core/pkg/gerror.GuildError).WithComponent]&#10;at parser.go:108: calling [(*github.com/guild&#45;framework/guild&#45;core/pkg/gerror.GuildError).WithOperation]">
<path fill="lightblue" stroke="black" stroke-width="1.5" d="M146.66,-225C146.66,-225 38.88,-225 38.88,-225 32.88,-225 26.87,-219 26.87,-213 26.87,-213 26.87,-201 26.87,-201 26.87,-195 32.87,-189 38.87,-189 38.87,-189 146.66,-189 146.66,-189 152.66,-189 158.66,-195 158.66,-201 158.66,-201 158.66,-213 158.66,-213 158.66,-219 152.66,-225 146.66,-225"/>
<text xml:space="preserve" text-anchor="middle" x="92.77" y="-202.32" font-family="Verdana" font-size="14.00">(*Parser).Parse</text>
</a>
</g>
</g>
<!-- (*github.com/guild&#45;framework/guild&#45;core/pkg/tools/parser/xml.Parser).Parse&#45;&gt;(*github.com/guild&#45;framework/guild&#45;core/pkg/tools/parser/xml.Detector).extractXML -->
<g id="edge20" class="edge">
<title>(*github.com/guild&#45;framework/guild&#45;core/pkg/tools/parser/xml.Parser).Parse&#45;&gt;(*github.com/guild&#45;framework/guild&#45;core/pkg/tools/parser/xml.Detector).extractXML</title>
<g id="a_edge20"><a xlink:title="at parser.go:100: calling [(*github.com/guild&#45;framework/guild&#45;core/pkg/tools/parser/xml.Detector).extractXML]">
<path fill="none" stroke="black" d="M105.47,-225.65C124.16,-254.46 162.99,-310.46 205.54,-349 241.88,-381.92 289.71,-411.17 324.42,-430.39"/>
<polygon fill="black" stroke="black" points="322.51,-433.33 332.97,-435.05 325.87,-427.19 322.51,-433.33"/>
</a>
</g>
</g>
<!-- (*github.com/guild&#45;framework/guild&#45;core/pkg/tools/parser/xml.Parser).Parse&#45;&gt;(*github.com/guild&#45;framework/guild&#45;core/pkg/tools/parser/xml.Parser).parseStructuredXML -->
<g id="edge13" class="edge">
<title>(*github.com/guild&#45;framework/guild&#45;core/pkg/tools/parser/xml.Parser).Parse&#45;&gt;(*github.com/guild&#45;framework/guild&#45;core/pkg/tools/parser/xml.Parser).parseStructuredXML</title>
<g id="a_edge13"><a xlink:title="at parser.go:79: calling [(*github.com/guild&#45;framework/guild&#45;core/pkg/tools/parser/xml.Parser).parseStructuredXML]&#10;at parser.go:117: calling [(*github.com/guild&#45;framework/guild&#45;core/pkg/tools/parser/xml.Parser).parseStructuredXML]">
<path fill="none" stroke="black" d="M159.25,-214.11C183.9,-216.79 212.87,-219.93 241.31,-223.02"/>
<polygon fill="black" stroke="black" points="240.77,-226.48 251.09,-224.08 241.52,-219.52 240.77,-226.48"/>
</a>
</g>
</g>
<!-- (*github.com/guild&#45;framework/guild&#45;core/pkg/tools/parser/xml.Parser).parseStreamingXML -->
<g id="node10" class="node">
<title>(*github.com/guild&#45;framework/guild&#45;core/pkg/tools/parser/xml.Parser).parseStreamingXML</title>
<g id="a_node10"><a xlink:title="(*github.com/guild&#45;framework/guild&#45;core/pkg/tools/parser/xml.Parser).parseStreamingXML | defined in parser.go:165&#10;at parser.go:239: calling [(*github.com/guild&#45;framework/guild&#45;core/pkg/tools/parser/xml.Parser).convertInvokeToToolCall]&#10;at parser.go:186: calling [(*github.com/guild&#45;framework/guild&#45;core/pkg/gerror.GuildError).WithOperation]&#10;at parser.go:260: calling [(*github.com/guild&#45;framework/guild&#45;core/pkg/gerror.GuildError).WithOperation]&#10;at parser.go:184: calling [github.com/guild&#45;framework/guild&#45;core/pkg/gerror.Wrap]&#10;at parser.go:258: calling [github.com/guild&#45;framework/guild&#45;core/pkg/gerror.New]&#10;at parser.go:185: calling [(*github.com/guild&#45;framework/guild&#45;core/pkg/gerror.GuildError).WithComponent]&#10;at parser.go:259: calling [(*github.com/guild&#45;framework/guild&#45;core/pkg/gerror.GuildError).WithComponent]">
<path fill="lightblue" stroke="black" stroke-width="0.5" d="M476.33,-194C476.33,-194 265.79,-194 265.79,-194 259.79,-194 253.79,-188 253.79,-182 253.79,-182 253.79,-170 253.79,-170 253.79,-164 259.79,-158 265.79,-158 265.79,-158 476.33,-158 476.33,-158 482.33,-158 488.33,-164 488.33,-170 488.33,-170 488.33,-182 488.33,-182 488.33,-188 482.33,-194 476.33,-194"/>
<text xml:space="preserve" text-anchor="middle" x="371.06" y="-171.32" font-family="Verdana" font-size="14.00">(*Parser).parseStreamingXML</text>
</a>
</g>
</g>
<!-- (*github.com/guild&#45;framework/guild&#45;core/pkg/tools/parser/xml.Parser).Parse&#45;&gt;(*github.com/guild&#45;framework/guild&#45;core/pkg/tools/parser/xml.Parser).parseStreamingXML -->
<g id="edge15" class="edge">
<title>(*github.com/guild&#45;framework/guild&#45;core/pkg/tools/parser/xml.Parser).Parse&#45;&gt;(*github.com/guild&#45;framework/guild&#45;core/pkg/tools/parser/xml.Parser).parseStreamingXML</title>
<g id="a_edge15"><a xlink:title="at parser.go:89: calling [(*github.com/guild&#45;framework/guild&#45;core/pkg/tools/parser/xml.Parser).parseStreamingXML]&#10;at parser.go:123: calling [(*github.com/guild&#45;framework/guild&#45;core/pkg/tools/parser/xml.Parser).parseStreamingXML]">
<path fill="none" stroke="black" d="M159.25,-199.65C184.18,-196.86 213.53,-193.56 242.28,-190.34"/>
<polygon fill="black" stroke="black" points="242.63,-193.82 252.18,-189.23 241.85,-186.86 242.63,-193.82"/>
</a>
</g>
</g>
<!-- github.com/guild&#45;framework/guild&#45;core/pkg/tools/parser/xml.NewDetector -->
<g id="node11" class="node">
<title>github.com/guild&#45;framework/guild&#45;core/pkg/tools/parser/xml.NewDetector</title>
<g id="a_node11"><a xlink:title="github.com/guild&#45;framework/guild&#45;core/pkg/tools/parser/xml.NewDetector | defined in detector.go:23">
<path fill="lightblue" stroke="black" stroke-width="1.5" d="M415.21,-316C415.21,-316 326.92,-316 326.92,-316 320.92,-316 314.92,-310 314.92,-304 314.92,-304 314.92,-292 314.92,-292 314.92,-286 320.92,-280 326.92,-280 326.92,-280 415.21,-280 415.21,-280 421.21,-280 427.21,-286 427.21,-292 427.21,-292 427.21,-304 427.21,-304 427.21,-310 421.21,-316 415.21,-316"/>
<text xml:space="preserve" text-anchor="middle" x="371.06" y="-293.32" font-family="Verdana" font-size="14.00">NewDetector</text>
</a>
</g>
</g>
<!-- (*github.com/guild&#45;framework/guild&#45;core/pkg/tools/parser/xml.Parser).Parse&#45;&gt;github.com/guild&#45;framework/guild&#45;core/pkg/tools/parser/xml.NewDetector -->
<g id="edge2" class="edge">
<title>(*github.com/guild&#45;framework/guild&#45;core/pkg/tools/parser/xml.Parser).Parse&#45;&gt;github.com/guild&#45;framework/guild&#45;core/pkg/tools/parser/xml.NewDetector</title>
<g id="a_edge2"><a xlink:title="at parser.go:99: calling [github.com/guild&#45;framework/guild&#45;core/pkg/tools/parser/xml.NewDetector]">
<path fill="none" stroke="black" d="M134.48,-225.74C164.03,-238.83 205.19,-256.03 242.54,-268 262,-274.24 283.52,-279.79 303.24,-284.37"/>
<polygon fill="black" stroke="black" points="302.3,-287.75 312.83,-286.55 303.85,-280.92 302.3,-287.75"/>
</a>
</g>
</g>
<!-- (*github.com/guild&#45;framework/guild&#45;core/pkg/gerror.GuildError).WithComponent -->
<g id="node18" class="node">
<title>(*github.com/guild&#45;framework/guild&#45;core/pkg/gerror.GuildError).WithComponent</title>
<g id="a_node18"><a xlink:title="(*github.com/guild&#45;framework/guild&#45;core/pkg/gerror.GuildError).WithComponent | defined in errors.go:156">
<path fill="moccasin" stroke="black" stroke-width="1.5" d="M829.25,-121C829.25,-121 620.96,-121 620.96,-121 614.96,-121 608.96,-115 608.96,-109 608.96,-109 608.96,-97 608.96,-97 608.96,-91 614.96,-85 620.96,-85 620.96,-85 829.25,-85 829.25,-85 835.25,-85 841.25,-91 841.25,-97 841.25,-97 841.25,-109 841.25,-109 841.25,-115 835.25,-121 829.25,-121"/>
<text xml:space="preserve" text-anchor="middle" x="725.1" y="-98.33" font-family="Verdana" font-size="14.00">(*GuildError).WithComponent</text>
</a>
</g>
</g>
<!-- (*github.com/guild&#45;framework/guild&#45;core/pkg/tools/parser/xml.Parser).Parse&#45;&gt;(*github.com/guild&#45;framework/guild&#45;core/pkg/gerror.GuildError).WithComponent -->
<g id="edge22" class="edge">
<title>(*github.com/guild&#45;framework/guild&#45;core/pkg/tools/parser/xml.Parser).Parse&#45;&gt;(*github.com/guild&#45;framework/guild&#45;core/pkg/gerror.GuildError).WithComponent</title>
<g id="a_edge22"><a xlink:title="at parser.go:107: calling [(*github.com/guild&#45;framework/guild&#45;core/pkg/gerror.GuildError).WithComponent]">
<path fill="none" stroke="saddlebrown" d="M130.33,-188.38C159.83,-174.26 202.81,-155.68 242.54,-146 307.37,-130.2 477.43,-117.44 597,-110.04"/>
<polygon fill="saddlebrown" stroke="saddlebrown" points="597.13,-113.53 606.89,-109.43 596.7,-106.55 597.13,-113.53"/>
</a>
</g>
</g>
<!-- (*github.com/guild&#45;framework/guild&#45;core/pkg/gerror.GuildError).WithOperation -->
<g id="node19" class="node">
<title>(*github.com/guild&#45;framework/guild&#45;core/pkg/gerror.GuildError).WithOperation</title>
<g id="a_node19"><a xlink:title="(*github.com/guild&#45;framework/guild&#45;core/pkg/gerror.GuildError).WithOperation | defined in errors.go:162">
<path fill="moccasin" stroke="black" stroke-width="1.5" d="M823.62,-243C823.62,-243 626.58,-243 626.58,-243 620.58,-243 614.58,-237 614.58,-231 614.58,-231 614.58,-219 614.58,-219 614.58,-213 620.58,-207 626.58,-207 626.58,-207 823.62,-207 823.62,-207 829.62,-207 835.62,-213 835.62,-219 835.62,-219 835.62,-231 835.62,-231 835.62,-237 829.62,-243 823.62,-243"/>
<text xml:space="preserve" text-anchor="middle" x="725.1" y="-220.32" font-family="Verdana" font-size="14.00">(*GuildError).WithOperation</text>
</a>
</g>
</g>
<!-- (*github.com/guild&#45;framework/guild&#45;core/pkg/tools/parser/xml.Parser).Parse&#45;&gt;(*github.com/guild&#45;framework/guild&#45;core/pkg/gerror.GuildError).WithOperation -->
<g id="edge23" class="edge">
<title>(*github.com/guild&#45;framework/guild&#45;core/pkg/tools/parser/xml.Parser).Parse&#45;&gt;(*github.com/guild&#45;framework/guild&#45;core/pkg/gerror.GuildError).WithOperation</title>
<g id="a_edge23"><a xlink:title="at parser.go:108: calling [(*github.com/guild&#45;framework/guild&#45;core/pkg/gerror.GuildError).WithOperation]">
<path fill="none" stroke="saddlebrown" d="M108.72,-225.61C133.13,-254.33 184.67,-308.31 242.54,-329 350.11,-367.47 395.35,-375.76 499.58,-329 544.1,-309.03 529.61,-270.13 572.58,-247 582.05,-241.9 592.31,-237.87 602.87,-234.69"/>
<polygon fill="saddlebrown" stroke="saddlebrown" points="603.77,-238.07 612.51,-232.07 601.94,-231.31 603.77,-238.07"/>
</a>
</g>
</g>
<!-- github.com/guild&#45;framework/guild&#45;core/pkg/gerror.New -->
<g id="node20" class="node">
<title>github.com/guild&#45;framework/guild&#45;core/pkg/gerror.New</title>
<g id="a_node20"><a xlink:title="github.com/guild&#45;framework/guild&#45;core/pkg/gerror.New | defined in errors.go:190">
<path fill="moccasin" stroke="black" stroke-width="1.5" d="M740.1,-60C740.1,-60 710.1,-60 710.1,-60 704.1,-60 698.1,-54 698.1,-48 698.1,-48 698.1,-36 698.1,-36 698.1,-30 704.1,-24 710.1,-24 710.1,-24 740.1,-24 740.1,-24 746.1,-24 752.1,-30 752.1,-36 752.1,-36 752.1,-48 752.1,-48 752.1,-54 746.1,-60 740.1,-60"/>
<text xml:space="preserve" text-anchor="middle" x="725.1" y="-37.33" font-family="Verdana" font-size="14.00">New</text>
</a>
</g>
</g>
<!-- (*github.com/guild&#45;framework/guild&#45;core/pkg/tools/parser/xml.Parser).Parse&#45;&gt;github.com/guild&#45;framework/guild&#45;core/pkg/gerror.New -->
<g id="edge21" class="edge">
<title>(*github.com/guild&#45;framework/guild&#45;core/pkg/tools/parser/xml.Parser).Parse&#45;&gt;github.com/guild&#45;framework/guild&#45;core/pkg/gerror.New</title>
<g id="a_edge21"><a xlink:title="at parser.go:106: calling [github.com/guild&#45;framework/guild&#45;core/pkg/gerror.New]">
<path fill="none" stroke="saddlebrown" d="M114.56,-188.35C141.74,-165.29 191.86,-127.12 242.54,-111 297.02,-93.67 443.53,-111.28 499.58,-100 533.49,-93.18 539.32,-82.49 572.58,-73 610.81,-62.09 655.51,-53.43 686.41,-48.06"/>
<polygon fill="saddlebrown" stroke="saddlebrown" points="686.76,-51.55 696.04,-46.43 685.59,-44.65 686.76,-51.55"/>
</a>
</g>
</g>
<!-- github.com/guild&#45;framework/guild&#45;core/pkg/observability.GetLogger -->
<g id="node21" class="node">
<title>github.com/guild&#45;framework/guild&#45;core/pkg/observability.GetLogger</title>
<g id="a_node21"><a xlink:title="github.com/guild&#45;framework/guild&#45;core/pkg/observability.GetLogger | defined in logger.go:206">
<path fill="moccasin" stroke="black" stroke-width="1.5" d="M406.58,-60C406.58,-60 335.54,-60 335.54,-60 329.54,-60 323.54,-54 323.54,-48 323.54,-48 323.54,-36 323.54,-36 323.54,-30 329.54,-24 335.54,-24 335.54,-24 406.58,-24 406.58,-24 412.58,-24 418.58,-30 418.58,-36 418.58,-36 418.58,-48 418.58,-48 418.58,-54 412.58,-60 406.58,-60"/>
<text xml:space="preserve" text-anchor="middle" x="371.06" y="-37.33" font-family="Verdana" font-size="14.00">GetLogger</text>
</a>
</g>
</g>
<!-- (*github.com/guild&#45;framework/guild&#45;core/pkg/tools/parser/xml.Parser).Parse&#45;&gt;github.com/guild&#45;framework/guild&#45;core/pkg/observability.GetLogger -->
<g id="edge9" class="edge">
<title>(*github.com/guild&#45;framework/guild&#45;core/pkg/tools/parser/xml.Parser).Parse&#45;&gt;github.com/guild&#45;framework/guild&#45;core/pkg/observability.GetLogger</title>
<g id="a_edge9"><a xlink:title="at parser.go:74: calling [github.com/guild&#45;framework/guild&#45;core/pkg/observability.GetLogger]">
<path fill="none" stroke="saddlebrown" d="M106.89,-188.38C130.2,-156.91 182.1,-93.72 242.54,-64 263.84,-53.53 289.28,-47.95 311.81,-45.01"/>
<polygon fill="saddlebrown" stroke="saddlebrown" points="311.91,-48.53 321.44,-43.91 311.11,-41.57 311.91,-48.53"/>
</a>
</g>
</g>
<!-- (*github.com/guild&#45;framework/guild&#45;core/pkg/tools/parser/xml.Parser).parseStreamingXML&#45;&gt;(*github.com/guild&#45;framework/guild&#45;core/pkg/tools/parser/xml.Parser).convertInvokeToToolCall -->
<g id="edge1" class="edge">
<title>(*github.com/guild&#45;framework/guild&#45;core/pkg/tools/parser/xml.Parser).parseStreamingXML&#45;&gt;(*github.com/guild&#45;framework/guild&#45;core/pkg/tools/parser/xml.Parser).convertInvokeToToolCall</title>
<g id="a_edge1"><a xlink:title="at parser.go:239: calling [(*github.com/guild&#45;framework/guild&#45;core/pkg/tools/parser/xml.Parser).convertInvokeToToolCall]">
<path fill="none" stroke="black" d="M471.36,-194.16C481.21,-197.71 490.79,-201.94 499.58,-207 540.18,-230.35 530.93,-261.59 572.58,-283 576.11,-284.82 579.75,-286.5 583.47,-288.05"/>
<polygon fill="black" stroke="black" points="582.14,-291.29 592.73,-291.56 584.62,-284.74 582.14,-291.29"/>
</a>
</g>
</g>
<!-- github.com/guild&#45;framework/guild&#45;core/pkg/gerror.Wrap -->
<g id="node17" class="node">
<title>github.com/guild&#45;framework/guild&#45;core/pkg/gerror.Wrap</title>
<g id="a_node17"><a xlink:title="github.com/guild&#45;framework/guild&#45;core/pkg/gerror.Wrap | defined in errors.go:223">
<path fill="moccasin" stroke="black" stroke-width="1.5" d="M743,-182C743,-182 707.21,-182 707.21,-182 701.21,-182 695.21,-176 695.21,-170 695.21,-170 695.21,-158 695.21,-158 695.21,-152 701.21,-146 707.21,-146 707.21,-146 743,-146 743,-146 749,-146 755,-152 755,-158 755,-158 755,-170 755,-170 755,-176 749,-182 743,-182"/>
<text xml:space="preserve" text-anchor="middle" x="725.1" y="-159.32" font-family="Verdana" font-size="14.00">Wrap</text>
</a>
</g>
</g>
<!-- (*github.com/guild&#45;framework/guild&#45;core/pkg/tools/parser/xml.Parser).parseStreamingXML&#45;&gt;github.com/guild&#45;framework/guild&#45;core/pkg/gerror.Wrap -->
<g id="edge14" class="edge">
<title>(*github.com/guild&#45;framework/guild&#45;core/pkg/tools/parser/xml.Parser).parseStreamingXML&#45;&gt;github.com/guild&#45;framework/guild&#45;core/pkg/gerror.Wrap</title>
<g id="a_edge14"><a xlink:title="at parser.go:184: calling [github.com/guild&#45;framework/guild&#45;core/pkg/gerror.Wrap]">
<path fill="none" stroke="saddlebrown" d="M488.57,-185.6C504.36,-186.59 520.36,-187.44 535.58,-188 586.82,-189.88 645.33,-180.63 683.4,-173.07"/>
<polygon fill="saddlebrown" stroke="saddlebrown" points="683.94,-176.53 693.04,-171.1 682.54,-169.67 683.94,-176.53"/>
</a>
</g>
</g>
<!-- (*github.com/guild&#45;framework/guild&#45;core/pkg/tools/parser/xml.Parser).parseStreamingXML&#45;&gt;(*github.com/guild&#45;framework/guild&#45;core/pkg/gerror.GuildError).WithComponent -->
<g id="edge26" class="edge">
<title>(*github.com/guild&#45;framework/guild&#45;core/pkg/tools/parser/xml.Parser).parseStreamingXML&#45;&gt;(*github.com/guild&#45;framework/guild&#45;core/pkg/gerror.GuildError).WithComponent</title>
<g id="a_edge26"><a xlink:title="at parser.go:185: calling [(*github.com/guild&#45;framework/guild&#45;core/pkg/gerror.GuildError).WithComponent]&#10;at parser.go:259: calling [(*github.com/guild&#45;framework/guild&#45;core/pkg/gerror.GuildError).WithComponent]">
<path fill="none" stroke="saddlebrown" d="M488.52,-173.47C504.99,-170.8 521.46,-166.82 536.58,-161 555.25,-153.82 554.34,-142.2 572.58,-134 580.5,-130.44 588.84,-127.28 597.36,-124.48"/>
<polygon fill="saddlebrown" stroke="saddlebrown" points="598.27,-127.87 606.79,-121.58 596.2,-121.18 598.27,-127.87"/>
</a>
</g>
</g>
<!-- (*github.com/guild&#45;framework/guild&#45;core/pkg/tools/parser/xml.Parser).parseStreamingXML&#45;&gt;(*github.com/guild&#45;framework/guild&#45;core/pkg/gerror.GuildError).WithOperation -->
<g id="edge10" class="edge">
<title>(*github.com/guild&#45;framework/guild&#45;core/pkg/tools/parser/xml.Parser).parseStreamingXML&#45;&gt;(*github.com/guild&#45;framework/guild&#45;core/pkg/gerror.GuildError).WithOperation</title>
<g id="a_edge10"><a xlink:title="at parser.go:186: calling [(*github.com/guild&#45;framework/guild&#45;core/pkg/gerror.GuildError).WithOperation]&#10;at parser.go:260: calling [(*github.com/guild&#45;framework/guild&#45;core/pkg/gerror.GuildError).WithOperation]">
<path fill="none" stroke="saddlebrown" d="M488.31,-192.18C524.97,-197.28 565.56,-202.93 602.58,-208.09"/>
<polygon fill="saddlebrown" stroke="saddlebrown" points="602.06,-211.55 612.45,-209.46 603.02,-204.61 602.06,-211.55"/>
</a>
</g>
</g>
<!-- (*github.com/guild&#45;framework/guild&#45;core/pkg/tools/parser/xml.Parser).parseStreamingXML&#45;&gt;github.com/guild&#45;framework/guild&#45;core/pkg/gerror.New -->
<g id="edge19" class="edge">
<title>(*github.com/guild&#45;framework/guild&#45;core/pkg/tools/parser/xml.Parser).parseStreamingXML&#45;&gt;github.com/guild&#45;framework/guild&#45;core/pkg/gerror.New</title>
<g id="a_edge19"><a xlink:title="at parser.go:258: calling [github.com/guild&#45;framework/guild&#45;core/pkg/gerror.New]">
<path fill="none" stroke="saddlebrown" d="M429.02,-157.86C461.9,-146.01 503.22,-128.71 536.58,-107 555.03,-94.99 553.05,-83.15 572.58,-73 608.44,-54.36 654.51,-46.92 686.39,-43.96"/>
<polygon fill="saddlebrown" stroke="saddlebrown" points="686.26,-47.48 695.94,-43.18 685.69,-40.5 686.26,-47.48"/>
</a>
</g>
</g>
<!-- (*github.com/guild&#45;framework/guild&#45;core/pkg/tools/parser/xml.Detector).Detect -->
<g id="node12" class="node">
<title>(*github.com/guild&#45;framework/guild&#45;core/pkg/tools/parser/xml.Detector).Detect</title>
<g id="a_node12"><a xlink:title="(*github.com/guild&#45;framework/guild&#45;core/pkg/tools/parser/xml.Detector).Detect | defined in detector.go:58&#10;at detector.go:76: calling [(*github.com/guild&#45;framework/guild&#45;core/pkg/tools/parser/xml.Detector).analyzeXMLStructure]&#10;at detector.go:81: calling [(*github.com/guild&#45;framework/guild&#45;core/pkg/tools/parser/xml.Detector).countXMLElements]&#10;at detector.go:66: calling [(*github.com/guild&#45;framework/guild&#45;core/pkg/tools/parser/xml.Detector).extractXML]">
<path fill="lightblue" stroke="black" stroke-width="1.5" d="M157.54,-533C157.54,-533 28,-533 28,-533 22,-533 16,-527 16,-521 16,-521 16,-509 16,-509 16,-503 22,-497 28,-497 28,-497 157.54,-497 157.54,-497 163.54,-497 169.54,-503 169.54,-509 169.54,-509 169.54,-521 169.54,-521 169.54,-527 163.54,-533 157.54,-533"/>
<text xml:space="preserve" text-anchor="middle" x="92.77" y="-510.32" font-family="Verdana" font-size="14.00">(*Detector).Detect</text>
</a>
</g>
</g>
<!-- (*github.com/guild&#45;framework/guild&#45;core/pkg/tools/parser/xml.Detector).Detect&#45;&gt;(*github.com/guild&#45;framework/guild&#45;core/pkg/tools/parser/xml.Detector).extractXML -->
<g id="edge16" class="edge">
<title>(*github.com/guild&#45;framework/guild&#45;core/pkg/tools/parser/xml.Detector).Detect&#45;&gt;(*github.com/guild&#45;framework/guild&#45;core/pkg/tools/parser/xml.Detector).extractXML</title>
<g id="a_edge16"><a xlink:title="at detector.go:66: calling [(*github.com/guild&#45;framework/guild&#45;core/pkg/tools/parser/xml.Detector).extractXML]">
<path fill="none" stroke="black" d="M170,-498.17C203,-490.88 241.96,-482.28 276.68,-474.62"/>
<polygon fill="black" stroke="black" points="277.3,-478.06 286.31,-472.49 275.79,-471.23 277.3,-478.06"/>
</a>
</g>
</g>
<!-- (*github.com/guild&#45;framework/guild&#45;core/pkg/tools/parser/xml.Detector).analyzeXMLStructure -->
<g id="node13" class="node">
<title>(*github.com/guild&#45;framework/guild&#45;core/pkg/tools/parser/xml.Detector).analyzeXMLStructure</title>
<g id="a_node13"><a xlink:title="(*github.com/guild&#45;framework/guild&#45;core/pkg/tools/parser/xml.Detector).analyzeXMLStructure | defined in detector.go:218&#10;at detector.go:236: calling [github.com/guild&#45;framework/guild&#45;core/pkg/tools/parser/xml.min]&#10;at detector.go:285: calling [github.com/guild&#45;framework/guild&#45;core/pkg/tools/parser/xml.min]&#10;at detector.go:297: calling [github.com/guild&#45;framework/guild&#45;core/pkg/tools/parser/xml.minFloat]">
<path fill="lightblue" stroke="black" stroke-width="0.5" d="M487.58,-594C487.58,-594 254.54,-594 254.54,-594 248.54,-594 242.54,-588 242.54,-582 242.54,-582 242.54,-570 242.54,-570 242.54,-564 248.54,-558 254.54,-558 254.54,-558 487.58,-558 487.58,-558 493.58,-558 499.58,-564 499.58,-570 499.58,-570 499.58,-582 499.58,-582 499.58,-588 493.58,-594 487.58,-594"/>
<text xml:space="preserve" text-anchor="middle" x="371.06" y="-571.33" font-family="Verdana" font-size="14.00">(*Detector).analyzeXMLStructure</text>
</a>
</g>
</g>
<!-- (*github.com/guild&#45;framework/guild&#45;core/pkg/tools/parser/xml.Detector).Detect&#45;&gt;(*github.com/guild&#45;framework/guild&#45;core/pkg/tools/parser/xml.Detector).analyzeXMLStructure -->
<g id="edge5" class="edge">
<title>(*github.com/guild&#45;framework/guild&#45;core/pkg/tools/parser/xml.Detector).Detect&#45;&gt;(*github.com/guild&#45;framework/guild&#45;core/pkg/tools/parser/xml.Detector).analyzeXMLStructure</title>
<g id="a_edge5"><a xlink:title="at detector.go:76: calling [(*github.com/guild&#45;framework/guild&#45;core/pkg/tools/parser/xml.Detector).analyzeXMLStructure]">
<path fill="none" stroke="black" d="M170,-531.83C203,-539.12 241.96,-547.72 276.68,-555.38"/>
<polygon fill="black" stroke="black" points="275.79,-558.77 286.31,-557.51 277.3,-551.94 275.79,-558.77"/>
</a>
</g>
</g>
<!-- (*github.com/guild&#45;framework/guild&#45;core/pkg/tools/parser/xml.Detector).countXMLElements -->
<g id="node16" class="node">
<title>(*github.com/guild&#45;framework/guild&#45;core/pkg/tools/parser/xml.Detector).countXMLElements</title>
<g id="a_node16"><a xlink:title="(*github.com/guild&#45;framework/guild&#45;core/pkg/tools/parser/xml.Detector).countXMLElements | defined in detector.go:301">
<path fill="lightblue" stroke="black" stroke-width="0.5" d="M479.71,-533C479.71,-533 262.42,-533 262.42,-533 256.42,-533 250.42,-527 250.42,-521 250.42,-521 250.42,-509 250.42,-509 250.42,-503 256.42,-497 262.42,-497 262.42,-497 479.71,-497 479.71,-497 485.71,-497 491.71,-503 491.71,-509 491.71,-509 491.71,-521 491.71,-521 491.71,-527 485.71,-533 479.71,-533"/>
<text xml:space="preserve" text-anchor="middle" x="371.06" y="-510.32" font-family="Verdana" font-size="14.00">(*Detector).countXMLElements</text>
</a>
</g>
</g>
<!-- (*github.com/guild&#45;framework/guild&#45;core/pkg/tools/parser/xml.Detector).Detect&#45;&gt;(*github.com/guild&#45;framework/guild&#45;core/pkg/tools/parser/xml.Detector).countXMLElements -->
<g id="edge11" class="edge">
<title>(*github.com/guild&#45;framework/guild&#45;core/pkg/tools/parser/xml.Detector).Detect&#45;&gt;(*github.com/guild&#45;framework/guild&#45;core/pkg/tools/parser/xml.Detector).countXMLElements</title>
<g id="a_edge11"><a xlink:title="at detector.go:81: calling [(*github.com/guild&#45;framework/guild&#45;core/pkg/tools/parser/xml.Detector).countXMLElements]">
<path fill="none" stroke="black" d="M170,-515C191.44,-515 215.39,-515 239.06,-515"/>
<polygon fill="black" stroke="black" points="238.76,-518.5 248.76,-515 238.76,-511.5 238.76,-518.5"/>
</a>
</g>
</g>
<!-- github.com/guild&#45;framework/guild&#45;core/pkg/tools/parser/xml.min -->
<g id="node14" class="node">
<title>github.com/guild&#45;framework/guild&#45;core/pkg/tools/parser/xml.min</title>
<g id="a_node14"><a xlink:title="github.com/guild&#45;framework/guild&#45;core/pkg/tools/parser/xml.min | defined in detector.go:314">
<path fill="lightblue" stroke="black" stroke-width="0.5" d="M740.1,-594C740.1,-594 710.1,-594 710.1,-594 704.1,-594 698.1,-588 698.1,-582 698.1,-582 698.1,-570 698.1,-570 698.1,-564 704.1,-558 710.1,-558 710.1,-558 740.1,-558 740.1,-558 746.1,-558 752.1,-564 752.1,-570 752.1,-570 752.1,-582 752.1,-582 752.1,-588 746.1,-594 740.1,-594"/>
<text xml:space="preserve" text-anchor="middle" x="725.1" y="-571.33" font-family="Verdana" font-size="14.00">min</text>
</a>
</g>
</g>
<!-- (*github.com/guild&#45;framework/guild&#45;core/pkg/tools/parser/xml.Detector).analyzeXMLStructure&#45;&gt;github.com/guild&#45;framework/guild&#45;core/pkg/tools/parser/xml.min -->
<g id="edge3" class="edge">
<title>(*github.com/guild&#45;framework/guild&#45;core/pkg/tools/parser/xml.Detector).analyzeXMLStructure&#45;&gt;github.com/guild&#45;framework/guild&#45;core/pkg/tools/parser/xml.min</title>
<g id="a_edge3"><a xlink:title="at detector.go:236: calling [github.com/guild&#45;framework/guild&#45;core/pkg/tools/parser/xml.min]&#10;at detector.go:285: calling [github.com/guild&#45;framework/guild&#45;core/pkg/tools/parser/xml.min]">
<path fill="none" stroke="black" d="M499.65,-576C565.98,-576 642.26,-576 686.64,-576"/>
<polygon fill="black" stroke="black" points="686.49,-579.5 696.49,-576 686.49,-572.5 686.49,-579.5"/>
</a>
</g>
</g>
<!-- github.com/guild&#45;framework/guild&#45;core/pkg/tools/parser/xml.minFloat -->
<g id="node15" class="node">
<title>github.com/guild&#45;framework/guild&#45;core/pkg/tools/parser/xml.minFloat</title>
<g id="a_node15"><a xlink:title="github.com/guild&#45;framework/guild&#45;core/pkg/tools/parser/xml.minFloat | defined in detector.go:321">
<path fill="lightblue" stroke="black" stroke-width="0.5" d="M754.62,-655C754.62,-655 695.58,-655 695.58,-655 689.58,-655 683.58,-649 683.58,-643 683.58,-643 683.58,-631 683.58,-631 683.58,-625 689.58,-619 695.58,-619 695.58,-619 754.62,-619 754.62,-619 760.62,-619 766.62,-625 766.62,-631 766.62,-631 766.62,-643 766.62,-643 766.62,-649 760.62,-655 754.62,-655"/>
<text xml:space="preserve" text-anchor="middle" x="725.1" y="-632.33" font-family="Verdana" font-size="14.00">minFloat</text>
</a>
</g>
</g>
<!-- (*github.com/guild&#45;framework/guild&#45;core/pkg/tools/parser/xml.Detector).analyzeXMLStructure&#45;&gt;github.com/guild&#45;framework/guild&#45;core/pkg/tools/parser/xml.minFloat -->
<g id="edge4" class="edge">
<title>(*github.com/guild&#45;framework/guild&#45;core/pkg/tools/parser/xml.Detector).analyzeXMLStructure&#45;&gt;github.com/guild&#45;framework/guild&#45;core/pkg/tools/parser/xml.minFloat</title>
<g id="a_edge4"><a xlink:title="at detector.go:297: calling [github.com/guild&#45;framework/guild&#45;core/pkg/tools/parser/xml.minFloat]">
<path fill="none" stroke="black" d="M477.21,-594.22C541.63,-605.38 621.25,-619.18 672.35,-628.03"/>
<polygon fill="black" stroke="black" points="671.49,-631.44 681.94,-629.7 672.69,-624.54 671.49,-631.44"/>
</a>
</g>
</g>
</g>
</svg>
