<?xml version="1.0" encoding="UTF-8" standalone="no"?>
<!DOCTYPE svg PUBLIC "-//W3C//DTD SVG 1.1//EN"
 "http://www.w3.org/Graphics/SVG/1.1/DTD/svg11.dtd">
<!-- Generated by graphviz version 14.1.1 (20251213.1925)
 -->
<!-- Title: gocallvis Pages: 1 -->
<svg width="802pt" height="604pt"
 viewBox="0.00 0.00 802.00 604.00" xmlns="http://www.w3.org/2000/svg" xmlns:xlink="http://www.w3.org/1999/xlink">
<g id="graph0" class="graph" transform="scale(1 1) rotate(0) translate(0 604)">
<title>gocallvis</title>
<polygon fill="lightgray" stroke="none" points="0,0 0,-604 801.87,-604 801.87,0 0,0"/>
<g id="clust1" class="cluster">
<title>cluster_focus</title>
<polygon fill="#e6ecfa" stroke="black" stroke-width="0.5" points="8,-8 8,-596 793.87,-596 793.87,-8 8,-8"/>
<text xml:space="preserve" text-anchor="middle" x="400.93" y="-574.9" font-family="Arial" font-size="18.00">global</text>
</g>
<g id="clust2" class="cluster">
<title>cluster_github.com/guild&#45;framework/guild&#45;core/pkg/gerror</title>
<g id="a_clust2"><a xlink:href="/?f=github.com/guild-framework/guild-core/pkg/gerror" xlink:title="package: github.com/guild&#45;framework/guild&#45;core/pkg/gerror">
<polygon fill="lightyellow" stroke="black" stroke-width="0.8" points="537.58,-130 537.58,-454 785.87,-454 785.87,-130 537.58,-130"/>
<text xml:space="preserve" text-anchor="middle" x="661.72" y="-434.8" font-family="Tahoma bold" font-size="16.00">gerror</text>
</a>
</g>
</g>
<!-- github.com/guild&#45;framework/guild&#45;core/pkg/project/global.GlobalConfigPath -->
<g id="node1" class="node">
<title>github.com/guild&#45;framework/guild&#45;core/pkg/project/global.GlobalConfigPath</title>
<g id="a_node1"><a xlink:title="github.com/guild&#45;framework/guild&#45;core/pkg/project/global.GlobalConfigPath | defined in global.go:369&#10;at global.go:370: calling [github.com/guild&#45;framework/guild&#45;core/pkg/project/global.GlobalGuildDir]">
<path fill="lightblue" stroke="black" stroke-width="1.5" d="M431.7,-201C431.7,-201 313.41,-201 313.41,-201 307.41,-201 301.41,-195 301.41,-189 301.41,-189 301.41,-177 301.41,-177 301.41,-171 307.41,-165 313.41,-165 313.41,-165 431.7,-165 431.7,-165 437.7,-165 443.7,-171 443.7,-177 443.7,-177 443.7,-189 443.7,-189 443.7,-195 437.7,-201 431.7,-201"/>
<text xml:space="preserve" text-anchor="middle" x="372.56" y="-178.32" font-family="Verdana" font-size="14.00">GlobalConfigPath</text>
</a>
</g>
</g>
<!-- github.com/guild&#45;framework/guild&#45;core/pkg/project/global.GlobalGuildDir -->
<g id="node2" class="node">
<title>github.com/guild&#45;framework/guild&#45;core/pkg/project/global.GlobalGuildDir</title>
<g id="a_node2"><a xlink:title="github.com/guild&#45;framework/guild&#45;core/pkg/project/global.GlobalGuildDir | defined in global.go:26">
<path fill="lightblue" stroke="black" stroke-width="1.5" d="M711.12,-52C711.12,-52 612.33,-52 612.33,-52 606.33,-52 600.33,-46 600.33,-40 600.33,-40 600.33,-28 600.33,-28 600.33,-22 606.33,-16 612.33,-16 612.33,-16 711.12,-16 711.12,-16 717.12,-16 723.12,-22 723.12,-28 723.12,-28 723.12,-40 723.12,-40 723.12,-46 717.12,-52 711.12,-52"/>
<text xml:space="preserve" text-anchor="middle" x="661.72" y="-29.32" font-family="Verdana" font-size="14.00">GlobalGuildDir</text>
</a>
</g>
</g>
<!-- github.com/guild&#45;framework/guild&#45;core/pkg/project/global.GlobalConfigPath&#45;&gt;github.com/guild&#45;framework/guild&#45;core/pkg/project/global.GlobalGuildDir -->
<g id="edge2" class="edge">
<title>github.com/guild&#45;framework/guild&#45;core/pkg/project/global.GlobalConfigPath&#45;&gt;github.com/guild&#45;framework/guild&#45;core/pkg/project/global.GlobalGuildDir</title>
<g id="a_edge2"><a xlink:title="at global.go:370: calling [github.com/guild&#45;framework/guild&#45;core/pkg/project/global.GlobalGuildDir]">
<path fill="none" stroke="black" d="M433.1,-164.32C446.47,-159.16 460.31,-153.01 472.58,-146 490.96,-135.49 496.01,-132.25 509.58,-116 526.15,-96.15 517.12,-80.81 537.58,-65 552.25,-53.67 570.56,-46.44 588.54,-41.84"/>
<polygon fill="black" stroke="black" points="589.21,-45.27 598.18,-39.64 587.65,-38.45 589.21,-45.27"/>
</a>
</g>
</g>
<!-- github.com/guild&#45;framework/guild&#45;core/pkg/project/global.InitializeGlobal -->
<g id="node3" class="node">
<title>github.com/guild&#45;framework/guild&#45;core/pkg/project/global.InitializeGlobal</title>
<g id="a_node3"><a xlink:title="github.com/guild&#45;framework/guild&#45;core/pkg/project/global.InitializeGlobal | defined in global.go:36&#10;at global.go:53: calling [(*github.com/guild&#45;framework/guild&#45;core/pkg/gerror.GuildError).WithOperation]&#10;at global.go:63: calling [(*github.com/guild&#45;framework/guild&#45;core/pkg/gerror.GuildError).WithOperation]&#10;at global.go:71: calling [(*github.com/guild&#45;framework/guild&#45;core/pkg/gerror.GuildError).WithOperation]&#10;at global.go:78: calling [(*github.com/guild&#45;framework/guild&#45;core/pkg/gerror.GuildError).WithOperation]&#10;at global.go:85: calling [(*github.com/guild&#45;framework/guild&#45;core/pkg/gerror.GuildError).WithOperation]&#10;at global.go:54: calling [(*github.com/guild&#45;framework/guild&#45;core/pkg/gerror.GuildError).WithDetails]&#10;at global.go:51: calling [github.com/guild&#45;framework/guild&#45;core/pkg/gerror.Wrap]&#10;at global.go:69: calling [github.com/guild&#45;framework/guild&#45;core/pkg/gerror.Wrap]&#10;at global.go:76: calling [github.com/guild&#45;framework/guild&#45;core/pkg/gerror.Wrap]&#10;at global.go:83: calling [github.com/guild&#45;framework/guild&#45;core/pkg/gerror.Wrap]&#10;at global.go:52: calling [(*github.com/guild&#45;framework/guild&#45;core/pkg/gerror.GuildError).WithComponent]&#10;at global.go:62: calling [(*github.com/guild&#45;framework/guild&#45;core/pkg/gerror.GuildError).WithComponent]&#10;at global.go:70: calling [(*github.com/guild&#45;framework/guild&#45;core/pkg/gerror.GuildError).WithComponent]&#10;at global.go:77: calling [(*github.com/guild&#45;framework/guild&#45;core/pkg/gerror.GuildError).WithComponent]&#10;at global.go:84: calling [(*github.com/guild&#45;framework/guild&#45;core/pkg/gerror.GuildError).WithComponent]&#10;at global.go:61: calling [github.com/guild&#45;framework/guild&#45;core/pkg/gerror.Wrapf]&#10;at global.go:82: calling [github.com/guild&#45;framework/guild&#45;core/pkg/project/global.createTemplates]&#10;at global.go:37: calling [github.com/guild&#45;framework/guild&#45;core/pkg/project/global.GlobalGuildDir]&#10;at global.go:68: calling [github.com/guild&#45;framework/guild&#45;core/pkg/project/global.createDefaultGlobalConfig]&#10;at global.go:75: calling [github.com/guild&#45;framework/guild&#45;core/pkg/project/global.createProviderConfigs]">
<path fill="lightblue" stroke="black" stroke-width="1.5" d="M423.45,-383C423.45,-383 321.66,-383 321.66,-383 315.66,-383 309.66,-377 309.66,-371 309.66,-371 309.66,-359 309.66,-359 309.66,-353 315.66,-347 321.66,-347 321.66,-347 423.45,-347 423.45,-347 429.45,-347 435.45,-353 435.45,-359 435.45,-359 435.45,-371 435.45,-371 435.45,-377 429.45,-383 423.45,-383"/>
<text xml:space="preserve" text-anchor="middle" x="372.56" y="-360.32" font-family="Verdana" font-size="14.00">InitializeGlobal</text>
</a>
</g>
</g>
<!-- github.com/guild&#45;framework/guild&#45;core/pkg/project/global.InitializeGlobal&#45;&gt;github.com/guild&#45;framework/guild&#45;core/pkg/project/global.GlobalGuildDir -->
<g id="edge13" class="edge">
<title>github.com/guild&#45;framework/guild&#45;core/pkg/project/global.InitializeGlobal&#45;&gt;github.com/guild&#45;framework/guild&#45;core/pkg/project/global.GlobalGuildDir</title>
<g id="a_edge13"><a xlink:title="at global.go:37: calling [github.com/guild&#45;framework/guild&#45;core/pkg/project/global.GlobalGuildDir]">
<path fill="none" stroke="black" d="M401.26,-346.28C423.5,-329.9 454,-304.2 472.58,-275 485.69,-254.39 519.85,-81.8 537.58,-65 551.43,-51.88 569.98,-44.08 588.48,-39.52"/>
<polygon fill="black" stroke="black" points="589.11,-42.96 598.16,-37.44 587.65,-36.11 589.11,-42.96"/>
</a>
</g>
</g>
<!-- github.com/guild&#45;framework/guild&#45;core/pkg/project/global.createDefaultGlobalConfig -->
<g id="node4" class="node">
<title>github.com/guild&#45;framework/guild&#45;core/pkg/project/global.createDefaultGlobalConfig</title>
<g id="a_node4"><a xlink:title="github.com/guild&#45;framework/guild&#45;core/pkg/project/global.createDefaultGlobalConfig | defined in global.go:92">
<path fill="lightblue" stroke="black" stroke-width="0.5" d="M752.37,-559C752.37,-559 571.08,-559 571.08,-559 565.08,-559 559.08,-553 559.08,-547 559.08,-547 559.08,-535 559.08,-535 559.08,-529 565.08,-523 571.08,-523 571.08,-523 752.37,-523 752.37,-523 758.37,-523 764.37,-529 764.37,-535 764.37,-535 764.37,-547 764.37,-547 764.37,-553 758.37,-559 752.37,-559"/>
<text xml:space="preserve" text-anchor="middle" x="661.72" y="-536.33" font-family="Verdana" font-size="14.00">createDefaultGlobalConfig</text>
</a>
</g>
</g>
<!-- github.com/guild&#45;framework/guild&#45;core/pkg/project/global.InitializeGlobal&#45;&gt;github.com/guild&#45;framework/guild&#45;core/pkg/project/global.createDefaultGlobalConfig -->
<g id="edge14" class="edge">
<title>github.com/guild&#45;framework/guild&#45;core/pkg/project/global.InitializeGlobal&#45;&gt;github.com/guild&#45;framework/guild&#45;core/pkg/project/global.createDefaultGlobalConfig</title>
<g id="a_edge14"><a xlink:title="at global.go:68: calling [github.com/guild&#45;framework/guild&#45;core/pkg/project/global.createDefaultGlobalConfig]">
<path fill="none" stroke="black" d="M388.91,-383.63C415.72,-414.91 474.28,-477.79 537.58,-511 543.06,-513.88 548.82,-516.48 554.74,-518.84"/>
<polygon fill="black" stroke="black" points="553.52,-522.12 564.11,-522.31 555.94,-515.55 553.52,-522.12"/>
</a>
</g>
</g>
<!-- github.com/guild&#45;framework/guild&#45;core/pkg/project/global.createProviderConfigs -->
<g id="node5" class="node">
<title>github.com/guild&#45;framework/guild&#45;core/pkg/project/global.createProviderConfigs</title>
<g id="a_node5"><a xlink:title="github.com/guild&#45;framework/guild&#45;core/pkg/project/global.createProviderConfigs | defined in global.go:143">
<path fill="lightblue" stroke="black" stroke-width="0.5" d="M738.12,-498C738.12,-498 585.33,-498 585.33,-498 579.33,-498 573.33,-492 573.33,-486 573.33,-486 573.33,-474 573.33,-474 573.33,-468 579.33,-462 585.33,-462 585.33,-462 738.12,-462 738.12,-462 744.12,-462 750.12,-468 750.12,-474 750.12,-474 750.12,-486 750.12,-486 750.12,-492 744.12,-498 738.12,-498"/>
<text xml:space="preserve" text-anchor="middle" x="661.72" y="-475.32" font-family="Verdana" font-size="14.00">createProviderConfigs</text>
</a>
</g>
</g>
<!-- github.com/guild&#45;framework/guild&#45;core/pkg/project/global.InitializeGlobal&#45;&gt;github.com/guild&#45;framework/guild&#45;core/pkg/project/global.createProviderConfigs -->
<g id="edge15" class="edge">
<title>github.com/guild&#45;framework/guild&#45;core/pkg/project/global.InitializeGlobal&#45;&gt;github.com/guild&#45;framework/guild&#45;core/pkg/project/global.createProviderConfigs</title>
<g id="a_edge15"><a xlink:title="at global.go:75: calling [github.com/guild&#45;framework/guild&#45;core/pkg/project/global.createProviderConfigs]">
<path fill="none" stroke="black" d="M399.76,-383.61C431.05,-404.91 485.7,-439.28 537.58,-458 545.46,-460.84 553.77,-463.33 562.19,-465.5"/>
<polygon fill="black" stroke="black" points="561.29,-468.89 571.83,-467.83 562.93,-462.08 561.29,-468.89"/>
</a>
</g>
</g>
<!-- github.com/guild&#45;framework/guild&#45;core/pkg/project/global.createTemplates -->
<g id="node6" class="node">
<title>github.com/guild&#45;framework/guild&#45;core/pkg/project/global.createTemplates</title>
<g id="a_node6"><a xlink:title="github.com/guild&#45;framework/guild&#45;core/pkg/project/global.createTemplates | defined in global.go:219">
<path fill="lightblue" stroke="black" stroke-width="0.5" d="M717.87,-113C717.87,-113 605.58,-113 605.58,-113 599.58,-113 593.58,-107 593.58,-101 593.58,-101 593.58,-89 593.58,-89 593.58,-83 599.58,-77 605.58,-77 605.58,-77 717.87,-77 717.87,-77 723.87,-77 729.87,-83 729.87,-89 729.87,-89 729.87,-101 729.87,-101 729.87,-107 723.87,-113 717.87,-113"/>
<text xml:space="preserve" text-anchor="middle" x="661.72" y="-90.33" font-family="Verdana" font-size="14.00">createTemplates</text>
</a>
</g>
</g>
<!-- github.com/guild&#45;framework/guild&#45;core/pkg/project/global.InitializeGlobal&#45;&gt;github.com/guild&#45;framework/guild&#45;core/pkg/project/global.createTemplates -->
<g id="edge11" class="edge">
<title>github.com/guild&#45;framework/guild&#45;core/pkg/project/global.InitializeGlobal&#45;&gt;github.com/guild&#45;framework/guild&#45;core/pkg/project/global.createTemplates</title>
<g id="a_edge11"><a xlink:title="at global.go:82: calling [github.com/guild&#45;framework/guild&#45;core/pkg/project/global.createTemplates]">
<path fill="none" stroke="black" d="M421.54,-346.29C451.56,-332.07 488.42,-309.54 509.58,-278 548.33,-220.23 489.67,-174.44 537.58,-124 549.49,-111.46 565.73,-103.89 582.5,-99.42"/>
<polygon fill="black" stroke="black" points="583.11,-102.87 592.09,-97.24 581.56,-96.04 583.11,-102.87"/>
</a>
</g>
</g>
<!-- github.com/guild&#45;framework/guild&#45;core/pkg/gerror.Wrap -->
<g id="node11" class="node">
<title>github.com/guild&#45;framework/guild&#45;core/pkg/gerror.Wrap</title>
<g id="a_node11"><a xlink:title="github.com/guild&#45;framework/guild&#45;core/pkg/gerror.Wrap | defined in errors.go:223">
<path fill="moccasin" stroke="black" stroke-width="1.5" d="M679.62,-174C679.62,-174 643.83,-174 643.83,-174 637.83,-174 631.83,-168 631.83,-162 631.83,-162 631.83,-150 631.83,-150 631.83,-144 637.83,-138 643.83,-138 643.83,-138 679.62,-138 679.62,-138 685.62,-138 691.62,-144 691.62,-150 691.62,-150 691.62,-162 691.62,-162 691.62,-168 685.62,-174 679.62,-174"/>
<text xml:space="preserve" text-anchor="middle" x="661.72" y="-151.32" font-family="Verdana" font-size="14.00">Wrap</text>
</a>
</g>
</g>
<!-- github.com/guild&#45;framework/guild&#45;core/pkg/project/global.InitializeGlobal&#45;&gt;github.com/guild&#45;framework/guild&#45;core/pkg/gerror.Wrap -->
<g id="edge8" class="edge">
<title>github.com/guild&#45;framework/guild&#45;core/pkg/project/global.InitializeGlobal&#45;&gt;github.com/guild&#45;framework/guild&#45;core/pkg/gerror.Wrap</title>
<g id="a_edge8"><a xlink:title="at global.go:51: calling [github.com/guild&#45;framework/guild&#45;core/pkg/gerror.Wrap]&#10;at global.go:69: calling [github.com/guild&#45;framework/guild&#45;core/pkg/gerror.Wrap]&#10;at global.go:76: calling [github.com/guild&#45;framework/guild&#45;core/pkg/gerror.Wrap]&#10;at global.go:83: calling [github.com/guild&#45;framework/guild&#45;core/pkg/gerror.Wrap]">
<path fill="none" stroke="saddlebrown" d="M436,-350.73C462.23,-341.73 490.92,-327.42 509.58,-305 544.06,-263.57 499.73,-225.37 537.58,-187 558.89,-165.4 592.88,-158.06 619.76,-155.9"/>
<polygon fill="saddlebrown" stroke="saddlebrown" points="619.86,-159.4 629.65,-155.33 619.46,-152.41 619.86,-159.4"/>
</a>
</g>
</g>
<!-- (*github.com/guild&#45;framework/guild&#45;core/pkg/gerror.GuildError).WithComponent -->
<g id="node12" class="node">
<title>(*github.com/guild&#45;framework/guild&#45;core/pkg/gerror.GuildError).WithComponent</title>
<g id="a_node12"><a xlink:title="(*github.com/guild&#45;framework/guild&#45;core/pkg/gerror.GuildError).WithComponent | defined in errors.go:156">
<path fill="moccasin" stroke="black" stroke-width="1.5" d="M765.87,-235C765.87,-235 557.58,-235 557.58,-235 551.58,-235 545.58,-229 545.58,-223 545.58,-223 545.58,-211 545.58,-211 545.58,-205 551.58,-199 557.58,-199 557.58,-199 765.87,-199 765.87,-199 771.87,-199 777.87,-205 777.87,-211 777.87,-211 777.87,-223 777.87,-223 777.87,-229 771.87,-235 765.87,-235"/>
<text xml:space="preserve" text-anchor="middle" x="661.72" y="-212.32" font-family="Verdana" font-size="14.00">(*GuildError).WithComponent</text>
</a>
</g>
</g>
<!-- github.com/guild&#45;framework/guild&#45;core/pkg/project/global.InitializeGlobal&#45;&gt;(*github.com/guild&#45;framework/guild&#45;core/pkg/gerror.GuildError).WithComponent -->
<g id="edge9" class="edge">
<title>github.com/guild&#45;framework/guild&#45;core/pkg/project/global.InitializeGlobal&#45;&gt;(*github.com/guild&#45;framework/guild&#45;core/pkg/gerror.GuildError).WithComponent</title>
<g id="a_edge9"><a xlink:title="at global.go:52: calling [(*github.com/guild&#45;framework/guild&#45;core/pkg/gerror.GuildError).WithComponent]&#10;at global.go:62: calling [(*github.com/guild&#45;framework/guild&#45;core/pkg/gerror.GuildError).WithComponent]&#10;at global.go:70: calling [(*github.com/guild&#45;framework/guild&#45;core/pkg/gerror.GuildError).WithComponent]&#10;at global.go:77: calling [(*github.com/guild&#45;framework/guild&#45;core/pkg/gerror.GuildError).WithComponent]&#10;at global.go:84: calling [(*github.com/guild&#45;framework/guild&#45;core/pkg/gerror.GuildError).WithComponent]">
<path fill="none" stroke="saddlebrown" d="M435.93,-362.8C461.52,-358.89 489.73,-350.26 509.58,-332 538.55,-305.36 508.73,-274.76 537.58,-248 540,-245.75 542.57,-243.66 545.25,-241.71"/>
<polygon fill="saddlebrown" stroke="saddlebrown" points="546.93,-244.79 553.48,-236.46 543.16,-238.89 546.93,-244.79"/>
</a>
</g>
</g>
<!-- (*github.com/guild&#45;framework/guild&#45;core/pkg/gerror.GuildError).WithOperation -->
<g id="node13" class="node">
<title>(*github.com/guild&#45;framework/guild&#45;core/pkg/gerror.GuildError).WithOperation</title>
<g id="a_node13"><a xlink:title="(*github.com/guild&#45;framework/guild&#45;core/pkg/gerror.GuildError).WithOperation | defined in errors.go:162">
<path fill="moccasin" stroke="black" stroke-width="1.5" d="M760.24,-296C760.24,-296 563.2,-296 563.2,-296 557.2,-296 551.2,-290 551.2,-284 551.2,-284 551.2,-272 551.2,-272 551.2,-266 557.2,-260 563.2,-260 563.2,-260 760.24,-260 760.24,-260 766.24,-260 772.24,-266 772.24,-272 772.24,-272 772.24,-284 772.24,-284 772.24,-290 766.24,-296 760.24,-296"/>
<text xml:space="preserve" text-anchor="middle" x="661.72" y="-273.32" font-family="Verdana" font-size="14.00">(*GuildError).WithOperation</text>
</a>
</g>
</g>
<!-- github.com/guild&#45;framework/guild&#45;core/pkg/project/global.InitializeGlobal&#45;&gt;(*github.com/guild&#45;framework/guild&#45;core/pkg/gerror.GuildError).WithOperation -->
<g id="edge3" class="edge">
<title>github.com/guild&#45;framework/guild&#45;core/pkg/project/global.InitializeGlobal&#45;&gt;(*github.com/guild&#45;framework/guild&#45;core/pkg/gerror.GuildError).WithOperation</title>
<g id="a_edge3"><a xlink:title="at global.go:53: calling [(*github.com/guild&#45;framework/guild&#45;core/pkg/gerror.GuildError).WithOperation]&#10;at global.go:63: calling [(*github.com/guild&#45;framework/guild&#45;core/pkg/gerror.GuildError).WithOperation]&#10;at global.go:71: calling [(*github.com/guild&#45;framework/guild&#45;core/pkg/gerror.GuildError).WithOperation]&#10;at global.go:78: calling [(*github.com/guild&#45;framework/guild&#45;core/pkg/gerror.GuildError).WithOperation]&#10;at global.go:85: calling [(*github.com/guild&#45;framework/guild&#45;core/pkg/gerror.GuildError).WithOperation]">
<path fill="none" stroke="saddlebrown" d="M435.93,-374.74C460.5,-375.52 487.95,-372.33 509.58,-359 531.26,-345.64 517.36,-324.48 537.58,-309 540.93,-306.44 544.46,-304.08 548.14,-301.92"/>
<polygon fill="saddlebrown" stroke="saddlebrown" points="549.61,-305.11 556.82,-297.35 546.34,-298.91 549.61,-305.11"/>
</a>
</g>
</g>
<!-- (*github.com/guild&#45;framework/guild&#45;core/pkg/gerror.GuildError).WithDetails -->
<g id="node14" class="node">
<title>(*github.com/guild&#45;framework/guild&#45;core/pkg/gerror.GuildError).WithDetails</title>
<g id="a_node14"><a xlink:title="(*github.com/guild&#45;framework/guild&#45;core/pkg/gerror.GuildError).WithDetails | defined in errors.go:147">
<path fill="moccasin" stroke="black" stroke-width="1.5" d="M749.37,-357C749.37,-357 574.08,-357 574.08,-357 568.08,-357 562.08,-351 562.08,-345 562.08,-345 562.08,-333 562.08,-333 562.08,-327 568.08,-321 574.08,-321 574.08,-321 749.37,-321 749.37,-321 755.37,-321 761.37,-327 761.37,-333 761.37,-333 761.37,-345 761.37,-345 761.37,-351 755.37,-357 749.37,-357"/>
<text xml:space="preserve" text-anchor="middle" x="661.72" y="-334.32" font-family="Verdana" font-size="14.00">(*GuildError).WithDetails</text>
</a>
</g>
</g>
<!-- github.com/guild&#45;framework/guild&#45;core/pkg/project/global.InitializeGlobal&#45;&gt;(*github.com/guild&#45;framework/guild&#45;core/pkg/gerror.GuildError).WithDetails -->
<g id="edge4" class="edge">
<title>github.com/guild&#45;framework/guild&#45;core/pkg/project/global.InitializeGlobal&#45;&gt;(*github.com/guild&#45;framework/guild&#45;core/pkg/gerror.GuildError).WithDetails</title>
<g id="a_edge4"><a xlink:title="at global.go:54: calling [(*github.com/guild&#45;framework/guild&#45;core/pkg/gerror.GuildError).WithDetails]">
<path fill="none" stroke="saddlebrown" d="M428.71,-383.75C453.66,-389.62 483.37,-392.96 509.58,-386 523.43,-382.32 524.28,-375.35 537.58,-370 545.79,-366.69 554.46,-363.66 563.24,-360.9"/>
<polygon fill="saddlebrown" stroke="saddlebrown" points="563.96,-364.33 572.53,-358.1 561.94,-357.63 563.96,-364.33"/>
</a>
</g>
</g>
<!-- github.com/guild&#45;framework/guild&#45;core/pkg/gerror.Wrapf -->
<g id="node15" class="node">
<title>github.com/guild&#45;framework/guild&#45;core/pkg/gerror.Wrapf</title>
<g id="a_node15"><a xlink:title="github.com/guild&#45;framework/guild&#45;core/pkg/gerror.Wrapf | defined in errors.go:245">
<path fill="moccasin" stroke="black" stroke-width="1.5" d="M682.24,-418C682.24,-418 641.2,-418 641.2,-418 635.2,-418 629.2,-412 629.2,-406 629.2,-406 629.2,-394 629.2,-394 629.2,-388 635.2,-382 641.2,-382 641.2,-382 682.24,-382 682.24,-382 688.24,-382 694.24,-388 694.24,-394 694.24,-394 694.24,-406 694.24,-406 694.24,-412 688.24,-418 682.24,-418"/>
<text xml:space="preserve" text-anchor="middle" x="661.72" y="-395.32" font-family="Verdana" font-size="14.00">Wrapf</text>
</a>
</g>
</g>
<!-- github.com/guild&#45;framework/guild&#45;core/pkg/project/global.InitializeGlobal&#45;&gt;github.com/guild&#45;framework/guild&#45;core/pkg/gerror.Wrapf -->
<g id="edge10" class="edge">
<title>github.com/guild&#45;framework/guild&#45;core/pkg/project/global.InitializeGlobal&#45;&gt;github.com/guild&#45;framework/guild&#45;core/pkg/gerror.Wrapf</title>
<g id="a_edge10"><a xlink:title="at global.go:61: calling [github.com/guild&#45;framework/guild&#45;core/pkg/gerror.Wrapf]">
<path fill="none" stroke="saddlebrown" d="M436.07,-380.12C458.77,-385.03 484.71,-389.99 508.58,-393 545.1,-397.6 586.9,-399.26 617.43,-399.83"/>
<polygon fill="saddlebrown" stroke="saddlebrown" points="616.98,-403.32 627.03,-399.97 617.08,-396.32 616.98,-403.32"/>
</a>
</g>
</g>
<!-- github.com/guild&#45;framework/guild&#45;core/pkg/project/global.GlobalTemplatePath -->
<g id="node7" class="node">
<title>github.com/guild&#45;framework/guild&#45;core/pkg/project/global.GlobalTemplatePath</title>
<g id="a_node7"><a xlink:title="github.com/guild&#45;framework/guild&#45;core/pkg/project/global.GlobalTemplatePath | defined in global.go:379&#10;at global.go:380: calling [github.com/guild&#45;framework/guild&#45;core/pkg/project/global.GlobalGuildDir]">
<path fill="lightblue" stroke="black" stroke-width="1.5" d="M441.08,-52C441.08,-52 304.04,-52 304.04,-52 298.04,-52 292.04,-46 292.04,-40 292.04,-40 292.04,-28 292.04,-28 292.04,-22 298.04,-16 304.04,-16 304.04,-16 441.08,-16 441.08,-16 447.08,-16 453.08,-22 453.08,-28 453.08,-28 453.08,-40 453.08,-40 453.08,-46 447.08,-52 441.08,-52"/>
<text xml:space="preserve" text-anchor="middle" x="372.56" y="-29.32" font-family="Verdana" font-size="14.00">GlobalTemplatePath</text>
</a>
</g>
</g>
<!-- github.com/guild&#45;framework/guild&#45;core/pkg/project/global.GlobalTemplatePath&#45;&gt;github.com/guild&#45;framework/guild&#45;core/pkg/project/global.GlobalGuildDir -->
<g id="edge16" class="edge">
<title>github.com/guild&#45;framework/guild&#45;core/pkg/project/global.GlobalTemplatePath&#45;&gt;github.com/guild&#45;framework/guild&#45;core/pkg/project/global.GlobalGuildDir</title>
<g id="a_edge16"><a xlink:title="at global.go:380: calling [github.com/guild&#45;framework/guild&#45;core/pkg/project/global.GlobalGuildDir]">
<path fill="none" stroke="black" d="M453.55,-34C495.87,-34 547.43,-34 588.53,-34"/>
<polygon fill="black" stroke="black" points="588.31,-37.5 598.31,-34 588.31,-30.5 588.31,-37.5"/>
</a>
</g>
</g>
<!-- github.com/guild&#45;framework/guild&#45;core/pkg/project/global.GlobalProviderConfigPath -->
<g id="node8" class="node">
<title>github.com/guild&#45;framework/guild&#45;core/pkg/project/global.GlobalProviderConfigPath</title>
<g id="a_node8"><a xlink:title="github.com/guild&#45;framework/guild&#45;core/pkg/project/global.GlobalProviderConfigPath | defined in global.go:374&#10;at global.go:375: calling [github.com/guild&#45;framework/guild&#45;core/pkg/project/global.GlobalGuildDir]">
<path fill="lightblue" stroke="black" stroke-width="1.5" d="M460.58,-113C460.58,-113 284.54,-113 284.54,-113 278.54,-113 272.54,-107 272.54,-101 272.54,-101 272.54,-89 272.54,-89 272.54,-83 278.54,-77 284.54,-77 284.54,-77 460.58,-77 460.58,-77 466.58,-77 472.58,-83 472.58,-89 472.58,-89 472.58,-101 472.58,-101 472.58,-107 466.58,-113 460.58,-113"/>
<text xml:space="preserve" text-anchor="middle" x="372.56" y="-90.33" font-family="Verdana" font-size="14.00">GlobalProviderConfigPath</text>
</a>
</g>
</g>
<!-- github.com/guild&#45;framework/guild&#45;core/pkg/project/global.GlobalProviderConfigPath&#45;&gt;github.com/guild&#45;framework/guild&#45;core/pkg/project/global.GlobalGuildDir -->
<g id="edge17" class="edge">
<title>github.com/guild&#45;framework/guild&#45;core/pkg/project/global.GlobalProviderConfigPath&#45;&gt;github.com/guild&#45;framework/guild&#45;core/pkg/project/global.GlobalGuildDir</title>
<g id="a_edge17"><a xlink:title="at global.go:375: calling [github.com/guild&#45;framework/guild&#45;core/pkg/project/global.GlobalGuildDir]">
<path fill="none" stroke="black" d="M461.67,-76.28C502.34,-67.65 550.02,-57.52 588.52,-49.34"/>
<polygon fill="black" stroke="black" points="589.1,-52.79 598.15,-47.29 587.64,-45.95 589.1,-52.79"/>
</a>
</g>
</g>
<!-- github.com/guild&#45;framework/guild&#45;core/pkg/project/global.ListTemplates -->
<g id="node9" class="node">
<title>github.com/guild&#45;framework/guild&#45;core/pkg/project/global.ListTemplates</title>
<g id="a_node9"><a xlink:title="github.com/guild&#45;framework/guild&#45;core/pkg/project/global.ListTemplates | defined in global.go:384&#10;at global.go:385: calling [github.com/guild&#45;framework/guild&#45;core/pkg/project/global.GlobalGuildDir]&#10;at global.go:394: calling [(*github.com/guild&#45;framework/guild&#45;core/pkg/gerror.GuildError).WithOperation]&#10;at global.go:392: calling [github.com/guild&#45;framework/guild&#45;core/pkg/gerror.Wrap]&#10;at global.go:393: calling [(*github.com/guild&#45;framework/guild&#45;core/pkg/gerror.GuildError).WithComponent]">
<path fill="lightblue" stroke="black" stroke-width="1.5" d="M419.7,-262C419.7,-262 325.41,-262 325.41,-262 319.41,-262 313.41,-256 313.41,-250 313.41,-250 313.41,-238 313.41,-238 313.41,-232 319.41,-226 325.41,-226 325.41,-226 419.7,-226 419.7,-226 425.7,-226 431.7,-232 431.7,-238 431.7,-238 431.7,-250 431.7,-250 431.7,-256 425.7,-262 419.7,-262"/>
<text xml:space="preserve" text-anchor="middle" x="372.56" y="-239.32" font-family="Verdana" font-size="14.00">ListTemplates</text>
</a>
</g>
</g>
<!-- github.com/guild&#45;framework/guild&#45;core/pkg/project/global.ListTemplates&#45;&gt;github.com/guild&#45;framework/guild&#45;core/pkg/project/global.GlobalGuildDir -->
<g id="edge5" class="edge">
<title>github.com/guild&#45;framework/guild&#45;core/pkg/project/global.ListTemplates&#45;&gt;github.com/guild&#45;framework/guild&#45;core/pkg/project/global.GlobalGuildDir</title>
<g id="a_edge5"><a xlink:title="at global.go:385: calling [github.com/guild&#45;framework/guild&#45;core/pkg/project/global.GlobalGuildDir]">
<path fill="none" stroke="black" d="M432.32,-235.15C446.77,-230.7 461.3,-224.03 472.58,-214 499.58,-190 510.02,-88.36 537.58,-65 551.86,-52.9 570.2,-45.42 588.35,-40.82"/>
<polygon fill="black" stroke="black" points="589.12,-44.23 598.11,-38.64 587.59,-37.4 589.12,-44.23"/>
</a>
</g>
</g>
<!-- github.com/guild&#45;framework/guild&#45;core/pkg/project/global.ListTemplates&#45;&gt;github.com/guild&#45;framework/guild&#45;core/pkg/gerror.Wrap -->
<g id="edge7" class="edge">
<title>github.com/guild&#45;framework/guild&#45;core/pkg/project/global.ListTemplates&#45;&gt;github.com/guild&#45;framework/guild&#45;core/pkg/gerror.Wrap</title>
<g id="a_edge7"><a xlink:title="at global.go:392: calling [github.com/guild&#45;framework/guild&#45;core/pkg/gerror.Wrap]">
<path fill="none" stroke="saddlebrown" d="M432.26,-227.27C445.6,-223.18 459.64,-218.63 472.58,-214 502.03,-203.45 507.89,-196.84 537.58,-187 564.77,-177.99 596.08,-170.14 620.32,-164.59"/>
<polygon fill="saddlebrown" stroke="saddlebrown" points="620.8,-168.07 629.79,-162.47 619.27,-161.24 620.8,-168.07"/>
</a>
</g>
</g>
<!-- github.com/guild&#45;framework/guild&#45;core/pkg/project/global.ListTemplates&#45;&gt;(*github.com/guild&#45;framework/guild&#45;core/pkg/gerror.GuildError).WithComponent -->
<g id="edge18" class="edge">
<title>github.com/guild&#45;framework/guild&#45;core/pkg/project/global.ListTemplates&#45;&gt;(*github.com/guild&#45;framework/guild&#45;core/pkg/gerror.GuildError).WithComponent</title>
<g id="a_edge18"><a xlink:title="at global.go:393: calling [(*github.com/guild&#45;framework/guild&#45;core/pkg/gerror.GuildError).WithComponent]">
<path fill="none" stroke="saddlebrown" d="M432.37,-238.47C461.68,-235.71 498.35,-232.27 533.66,-228.95"/>
<polygon fill="saddlebrown" stroke="saddlebrown" points="533.93,-232.44 543.56,-228.02 533.27,-225.47 533.93,-232.44"/>
</a>
</g>
</g>
<!-- github.com/guild&#45;framework/guild&#45;core/pkg/project/global.ListTemplates&#45;&gt;(*github.com/guild&#45;framework/guild&#45;core/pkg/gerror.GuildError).WithOperation -->
<g id="edge6" class="edge">
<title>github.com/guild&#45;framework/guild&#45;core/pkg/project/global.ListTemplates&#45;&gt;(*github.com/guild&#45;framework/guild&#45;core/pkg/gerror.GuildError).WithOperation</title>
<g id="a_edge6"><a xlink:title="at global.go:394: calling [(*github.com/guild&#45;framework/guild&#45;core/pkg/gerror.GuildError).WithOperation]">
<path fill="none" stroke="saddlebrown" d="M432.37,-250.96C463.22,-254.62 502.22,-259.23 539.21,-263.61"/>
<polygon fill="saddlebrown" stroke="saddlebrown" points="538.77,-267.08 549.11,-264.79 539.59,-260.13 538.77,-267.08"/>
</a>
</g>
</g>
<!-- github.com/guild&#45;framework/guild&#45;core/pkg/project/global.EnsureGlobalInitialized -->
<g id="node10" class="node">
<title>github.com/guild&#45;framework/guild&#45;core/pkg/project/global.EnsureGlobalInitialized</title>
<g id="a_node10"><a xlink:title="github.com/guild&#45;framework/guild&#45;core/pkg/project/global.EnsureGlobalInitialized | defined in global.go:355&#10;at global.go:365: calling [github.com/guild&#45;framework/guild&#45;core/pkg/project/global.InitializeGlobal]&#10;at global.go:356: calling [github.com/guild&#45;framework/guild&#45;core/pkg/project/global.GlobalGuildDir]">
<path fill="lightblue" stroke="black" stroke-width="1.5" d="M187.54,-170C187.54,-170 28,-170 28,-170 22,-170 16,-164 16,-158 16,-158 16,-146 16,-146 16,-140 22,-134 28,-134 28,-134 187.54,-134 187.54,-134 193.54,-134 199.54,-140 199.54,-146 199.54,-146 199.54,-158 199.54,-158 199.54,-164 193.54,-170 187.54,-170"/>
<text xml:space="preserve" text-anchor="middle" x="107.77" y="-147.32" font-family="Verdana" font-size="14.00">EnsureGlobalInitialized</text>
</a>
</g>
</g>
<!-- github.com/guild&#45;framework/guild&#45;core/pkg/project/global.EnsureGlobalInitialized&#45;&gt;github.com/guild&#45;framework/guild&#45;core/pkg/project/global.GlobalGuildDir -->
<g id="edge12" class="edge">
<title>github.com/guild&#45;framework/guild&#45;core/pkg/project/global.EnsureGlobalInitialized&#45;&gt;github.com/guild&#45;framework/guild&#45;core/pkg/project/global.GlobalGuildDir</title>
<g id="a_edge12"><a xlink:title="at global.go:356: calling [github.com/guild&#45;framework/guild&#45;core/pkg/project/global.GlobalGuildDir]">
<path fill="none" stroke="black" d="M200.05,-152.38C291.56,-151.54 425.45,-146.63 472.58,-126 508.87,-110.12 502.81,-84 537.58,-65 553.36,-56.38 571.59,-50.1 589.1,-45.55"/>
<polygon fill="black" stroke="black" points="589.52,-49.05 598.41,-43.3 587.87,-42.25 589.52,-49.05"/>
</a>
</g>
</g>
<!-- github.com/guild&#45;framework/guild&#45;core/pkg/project/global.EnsureGlobalInitialized&#45;&gt;github.com/guild&#45;framework/guild&#45;core/pkg/project/global.InitializeGlobal -->
<g id="edge1" class="edge">
<title>github.com/guild&#45;framework/guild&#45;core/pkg/project/global.EnsureGlobalInitialized&#45;&gt;github.com/guild&#45;framework/guild&#45;core/pkg/project/global.InitializeGlobal</title>
<g id="a_edge1"><a xlink:title="at global.go:365: calling [github.com/guild&#45;framework/guild&#45;core/pkg/project/global.InitializeGlobal]">
<path fill="none" stroke="black" d="M131.63,-170.53C178.61,-208.61 286.1,-295.73 339.81,-339.26"/>
<polygon fill="black" stroke="black" points="337.42,-341.83 347.39,-345.41 341.82,-336.39 337.42,-341.83"/>
</a>
</g>
</g>
</g>
</svg>
