<?xml version="1.0" encoding="UTF-8" standalone="no"?>
<!DOCTYPE svg PUBLIC "-//W3C//DTD SVG 1.1//EN"
 "http://www.w3.org/Graphics/SVG/1.1/DTD/svg11.dtd">
<!-- Generated by graphviz version 14.1.1 (20251213.1925)
 -->
<!-- Title: gocallvis Pages: 1 -->
<svg width="1518pt" height="509pt"
 viewBox="0.00 0.00 1518.00 509.00" xmlns="http://www.w3.org/2000/svg" xmlns:xlink="http://www.w3.org/1999/xlink">
<g id="graph0" class="graph" transform="scale(1 1) rotate(0) translate(0 509)">
<title>gocallvis</title>
<polygon fill="lightgray" stroke="none" points="0,0 0,-509 1518.45,-509 1518.45,0 0,0"/>
<g id="clust1" class="cluster">
<title>cluster_focus</title>
<polygon fill="#e6ecfa" stroke="black" stroke-width="0.5" points="8,-8 8,-501 1510.45,-501 1510.45,-8 8,-8"/>
<text xml:space="preserve" text-anchor="middle" x="759.22" y="-479.9" font-family="Arial" font-size="18.00">executor</text>
</g>
<g id="clust2" class="cluster">
<title>cluster_github.com/guild&#45;framework/guild&#45;core/pkg/gerror</title>
<g id="a_clust2"><a xlink:href="/?f=github.com/guild-framework/guild-core/pkg/gerror" xlink:title="package: github.com/guild&#45;framework/guild&#45;core/pkg/gerror">
<polygon fill="lightyellow" stroke="black" stroke-width="0.8" points="912.24,-157 912.24,-420 1160.53,-420 1160.53,-157 912.24,-157"/>
<text xml:space="preserve" text-anchor="middle" x="1036.39" y="-400.8" font-family="Tahoma bold" font-size="16.00">gerror</text>
</a>
</g>
</g>
<g id="clust3" class="cluster">
<title>cluster_github.com/guild&#45;framework/guild&#45;core/pkg/tools</title>
<g id="a_clust3"><a xlink:href="/?f=github.com/guild-framework/guild-core/pkg/tools" xlink:title="package: github.com/guild&#45;framework/guild&#45;core/pkg/tools">
<polygon fill="lightyellow" stroke="black" stroke-width="0.8" points="1265.16,-21 1265.16,-162 1475.2,-162 1475.2,-21 1265.16,-21"/>
<text xml:space="preserve" text-anchor="middle" x="1370.18" y="-142.8" font-family="Tahoma bold" font-size="16.00">tools</text>
</a>
</g>
</g>
<!-- (*github.com/guild&#45;framework/guild&#45;core/pkg/tools/executor.toolExecutor).Execute -->
<g id="node1" class="node">
<title>(*github.com/guild&#45;framework/guild&#45;core/pkg/tools/executor.toolExecutor).Execute</title>
<g id="a_node1"><a xlink:title="(*github.com/guild&#45;framework/guild&#45;core/pkg/tools/executor.toolExecutor).Execute | defined in executor.go:36&#10;at executor.go:42: calling [(*github.com/guild&#45;framework/guild&#45;core/pkg/gerror.GuildError).WithDetails]&#10;at executor.go:64: calling [(*github.com/guild&#45;framework/guild&#45;core/pkg/gerror.GuildError).WithDetails]&#10;at executor.go:65: calling [(*github.com/guild&#45;framework/guild&#45;core/pkg/gerror.GuildError).WithDetails]&#10;at executor.go:83: calling [(*github.com/guild&#45;framework/guild&#45;core/pkg/gerror.GuildError).WithDetails]&#10;at executor.go:84: calling [(*github.com/guild&#45;framework/guild&#45;core/pkg/gerror.GuildError).WithDetails]&#10;at executor.go:119: calling [(*github.com/guild&#45;framework/guild&#45;core/pkg/gerror.GuildError).WithDetails]&#10;at executor.go:120: calling [(*github.com/guild&#45;framework/guild&#45;core/pkg/gerror.GuildError).WithDetails]&#10;at executor.go:106: calling [(*github.com/guild&#45;framework/guild&#45;core/pkg/tools/executor.toolExecutor).Execute$1]&#10;at executor.go:39: calling [github.com/guild&#45;framework/guild&#45;core/pkg/gerror.Wrap]&#10;at executor.go:61: calling [github.com/guild&#45;framework/guild&#45;core/pkg/gerror.Wrap]&#10;at executor.go:80: calling [github.com/guild&#45;framework/guild&#45;core/pkg/gerror.Wrap]&#10;at executor.go:116: calling [github.com/guild&#45;framework/guild&#45;core/pkg/gerror.Wrap]&#10;at executor.go:40: calling [(*github.com/guild&#45;framework/guild&#45;core/pkg/gerror.GuildError).WithComponent]&#10;at executor.go:62: calling [(*github.com/guild&#45;framework/guild&#45;core/pkg/gerror.GuildError).WithComponent]&#10;at executor.go:81: calling [(*github.com/guild&#45;framework/guild&#45;core/pkg/gerror.GuildError).WithComponent]&#10;at executor.go:117: calling [(*github.com/guild&#45;framework/guild&#45;core/pkg/gerror.GuildError).WithComponent]&#10;at executor.go:65: calling [(*github.com/guild&#45;framework/guild&#45;core/pkg/tools/executor.toolExecutor).getToolNames]&#10;at executor.go:54: calling [(*github.com/guild&#45;framework/guild&#45;core/pkg/tools.ToolRegistry).GetTool]&#10;at executor.go:41: calling [(*github.com/guild&#45;framework/guild&#45;core/pkg/gerror.GuildError).WithOperation]&#10;at executor.go:63: calling [(*github.com/guild&#45;framework/guild&#45;core/pkg/gerror.GuildError).WithOperation]&#10;at executor.go:82: calling [(*github.com/guild&#45;framework/guild&#45;core/pkg/gerror.GuildError).WithOperation]&#10;at executor.go:118: calling [(*github.com/guild&#45;framework/guild&#45;core/pkg/gerror.GuildError).WithOperation]">
<path fill="lightblue" stroke="black" stroke-width="1.5" d="M822.87,-155C822.87,-155 655.08,-155 655.08,-155 649.08,-155 643.08,-149 643.08,-143 643.08,-143 643.08,-131 643.08,-131 643.08,-125 649.08,-119 655.08,-119 655.08,-119 822.87,-119 822.87,-119 828.87,-119 834.87,-125 834.87,-131 834.87,-131 834.87,-143 834.87,-143 834.87,-149 828.87,-155 822.87,-155"/>
<text xml:space="preserve" text-anchor="middle" x="738.97" y="-132.32" font-family="Verdana" font-size="14.00">(*toolExecutor).Execute</text>
</a>
</g>
</g>
<!-- (*github.com/guild&#45;framework/guild&#45;core/pkg/tools/executor.toolExecutor).getToolNames -->
<g id="node2" class="node">
<title>(*github.com/guild&#45;framework/guild&#45;core/pkg/tools/executor.toolExecutor).getToolNames</title>
<g id="a_node2"><a xlink:title="(*github.com/guild&#45;framework/guild&#45;core/pkg/tools/executor.toolExecutor).getToolNames | defined in executor.go:249&#10;at executor.go:250: calling [(*github.com/guild&#45;framework/guild&#45;core/pkg/tools.ToolRegistry).ListTools]">
<path fill="lightblue" stroke="black" stroke-width="0.5" d="M1141.66,-52C1141.66,-52 931.12,-52 931.12,-52 925.12,-52 919.12,-46 919.12,-40 919.12,-40 919.12,-28 919.12,-28 919.12,-22 925.12,-16 931.12,-16 931.12,-16 1141.66,-16 1141.66,-16 1147.66,-16 1153.66,-22 1153.66,-28 1153.66,-28 1153.66,-40 1153.66,-40 1153.66,-46 1147.66,-52 1141.66,-52"/>
<text xml:space="preserve" text-anchor="middle" x="1036.39" y="-29.32" font-family="Verdana" font-size="14.00">(*toolExecutor).getToolNames</text>
</a>
</g>
</g>
<!-- (*github.com/guild&#45;framework/guild&#45;core/pkg/tools/executor.toolExecutor).Execute&#45;&gt;(*github.com/guild&#45;framework/guild&#45;core/pkg/tools/executor.toolExecutor).getToolNames -->
<g id="edge7" class="edge">
<title>(*github.com/guild&#45;framework/guild&#45;core/pkg/tools/executor.toolExecutor).Execute&#45;&gt;(*github.com/guild&#45;framework/guild&#45;core/pkg/tools/executor.toolExecutor).getToolNames</title>
<g id="a_edge7"><a xlink:title="at executor.go:65: calling [(*github.com/guild&#45;framework/guild&#45;core/pkg/tools/executor.toolExecutor).getToolNames]">
<path fill="none" stroke="black" d="M771.54,-118.31C797.46,-103.65 835.53,-83.66 870.87,-71 888.07,-64.84 906.66,-59.48 924.94,-54.9"/>
<polygon fill="black" stroke="black" points="925.59,-58.34 934.49,-52.58 923.94,-51.54 925.59,-58.34"/>
</a>
</g>
</g>
<!-- (*github.com/guild&#45;framework/guild&#45;core/pkg/tools/executor.toolExecutor).Execute$1 -->
<g id="node3" class="node">
<title>(*github.com/guild&#45;framework/guild&#45;core/pkg/tools/executor.toolExecutor).Execute$1</title>
<g id="a_node3"><a xlink:title="(*github.com/guild&#45;framework/guild&#45;core/pkg/tools/executor.toolExecutor).Execute$1 | defined in executor.go:106">
<polygon fill="lightblue" stroke="black" stroke-dasharray="1,5" points="1141.28,-140 931.49,-140 931.49,-104 1141.28,-104 1141.28,-140"/>
<text xml:space="preserve" text-anchor="middle" x="1036.39" y="-117.33" font-family="Verdana" font-size="14.00">(*toolExecutor).Execute$1</text>
</a>
</g>
</g>
<!-- (*github.com/guild&#45;framework/guild&#45;core/pkg/tools/executor.toolExecutor).Execute&#45;&gt;(*github.com/guild&#45;framework/guild&#45;core/pkg/tools/executor.toolExecutor).Execute$1 -->
<g id="edge2" class="edge">
<title>(*github.com/guild&#45;framework/guild&#45;core/pkg/tools/executor.toolExecutor).Execute&#45;&gt;(*github.com/guild&#45;framework/guild&#45;core/pkg/tools/executor.toolExecutor).Execute$1</title>
<g id="a_edge2"><a xlink:title="at executor.go:106: calling [(*github.com/guild&#45;framework/guild&#45;core/pkg/tools/executor.toolExecutor).Execute$1]">
<path fill="none" stroke="black" d="M835.48,-132.15C857.89,-131.01 882.13,-129.78 905.75,-128.58"/>
<polygon fill="black" stroke="black" points="919.7,-131.38 929.51,-127.38 919.35,-124.39 919.7,-131.38"/>
<polyline fill="none" stroke="black" points="919.02,-127.91 914.03,-128.16"/>
<ellipse fill="none" stroke="black" cx="909.54" cy="-128.39" rx="4" ry="4"/>
</a>
</g>
</g>
<!-- github.com/guild&#45;framework/guild&#45;core/pkg/gerror.Wrap -->
<g id="node9" class="node">
<title>github.com/guild&#45;framework/guild&#45;core/pkg/gerror.Wrap</title>
<g id="a_node9"><a xlink:title="github.com/guild&#45;framework/guild&#45;core/pkg/gerror.Wrap | defined in errors.go:223">
<path fill="moccasin" stroke="black" stroke-width="1.5" d="M1054.28,-201C1054.28,-201 1018.49,-201 1018.49,-201 1012.49,-201 1006.49,-195 1006.49,-189 1006.49,-189 1006.49,-177 1006.49,-177 1006.49,-171 1012.49,-165 1018.49,-165 1018.49,-165 1054.28,-165 1054.28,-165 1060.28,-165 1066.28,-171 1066.28,-177 1066.28,-177 1066.28,-189 1066.28,-189 1066.28,-195 1060.28,-201 1054.28,-201"/>
<text xml:space="preserve" text-anchor="middle" x="1036.39" y="-178.32" font-family="Verdana" font-size="14.00">Wrap</text>
</a>
</g>
</g>
<!-- (*github.com/guild&#45;framework/guild&#45;core/pkg/tools/executor.toolExecutor).Execute&#45;&gt;github.com/guild&#45;framework/guild&#45;core/pkg/gerror.Wrap -->
<g id="edge4" class="edge">
<title>(*github.com/guild&#45;framework/guild&#45;core/pkg/tools/executor.toolExecutor).Execute&#45;&gt;github.com/guild&#45;framework/guild&#45;core/pkg/gerror.Wrap</title>
<g id="a_edge4"><a xlink:title="at executor.go:39: calling [github.com/guild&#45;framework/guild&#45;core/pkg/gerror.Wrap]&#10;at executor.go:61: calling [github.com/guild&#45;framework/guild&#45;core/pkg/gerror.Wrap]&#10;at executor.go:80: calling [github.com/guild&#45;framework/guild&#45;core/pkg/gerror.Wrap]&#10;at executor.go:116: calling [github.com/guild&#45;framework/guild&#45;core/pkg/gerror.Wrap]">
<path fill="none" stroke="saddlebrown" d="M835.48,-151.87C889.45,-160.28 954.09,-170.34 994.95,-176.7"/>
<polygon fill="saddlebrown" stroke="saddlebrown" points="994.16,-180.12 1004.58,-178.2 995.23,-173.2 994.16,-180.12"/>
</a>
</g>
</g>
<!-- (*github.com/guild&#45;framework/guild&#45;core/pkg/gerror.GuildError).WithComponent -->
<g id="node10" class="node">
<title>(*github.com/guild&#45;framework/guild&#45;core/pkg/gerror.GuildError).WithComponent</title>
<g id="a_node10"><a xlink:title="(*github.com/guild&#45;framework/guild&#45;core/pkg/gerror.GuildError).WithComponent | defined in errors.go:156">
<path fill="moccasin" stroke="black" stroke-width="1.5" d="M1140.53,-262C1140.53,-262 932.24,-262 932.24,-262 926.24,-262 920.24,-256 920.24,-250 920.24,-250 920.24,-238 920.24,-238 920.24,-232 926.24,-226 932.24,-226 932.24,-226 1140.53,-226 1140.53,-226 1146.53,-226 1152.53,-232 1152.53,-238 1152.53,-238 1152.53,-250 1152.53,-250 1152.53,-256 1146.53,-262 1140.53,-262"/>
<text xml:space="preserve" text-anchor="middle" x="1036.39" y="-239.32" font-family="Verdana" font-size="14.00">(*GuildError).WithComponent</text>
</a>
</g>
</g>
<!-- (*github.com/guild&#45;framework/guild&#45;core/pkg/tools/executor.toolExecutor).Execute&#45;&gt;(*github.com/guild&#45;framework/guild&#45;core/pkg/gerror.GuildError).WithComponent -->
<g id="edge5" class="edge">
<title>(*github.com/guild&#45;framework/guild&#45;core/pkg/tools/executor.toolExecutor).Execute&#45;&gt;(*github.com/guild&#45;framework/guild&#45;core/pkg/gerror.GuildError).WithComponent</title>
<g id="a_edge5"><a xlink:title="at executor.go:40: calling [(*github.com/guild&#45;framework/guild&#45;core/pkg/gerror.GuildError).WithComponent]&#10;at executor.go:62: calling [(*github.com/guild&#45;framework/guild&#45;core/pkg/gerror.GuildError).WithComponent]&#10;at executor.go:81: calling [(*github.com/guild&#45;framework/guild&#45;core/pkg/gerror.GuildError).WithComponent]&#10;at executor.go:117: calling [(*github.com/guild&#45;framework/guild&#45;core/pkg/gerror.GuildError).WithComponent]">
<path fill="none" stroke="saddlebrown" d="M775.16,-155.64C808.56,-172.72 860.55,-197.76 907.87,-214 916.61,-217 925.78,-219.8 935.03,-222.39"/>
<polygon fill="saddlebrown" stroke="saddlebrown" points="933.88,-225.7 944.45,-224.94 935.71,-218.95 933.88,-225.7"/>
</a>
</g>
</g>
<!-- (*github.com/guild&#45;framework/guild&#45;core/pkg/gerror.GuildError).WithOperation -->
<g id="node11" class="node">
<title>(*github.com/guild&#45;framework/guild&#45;core/pkg/gerror.GuildError).WithOperation</title>
<g id="a_node11"><a xlink:title="(*github.com/guild&#45;framework/guild&#45;core/pkg/gerror.GuildError).WithOperation | defined in errors.go:162">
<path fill="moccasin" stroke="black" stroke-width="1.5" d="M1134.91,-384C1134.91,-384 937.87,-384 937.87,-384 931.87,-384 925.87,-378 925.87,-372 925.87,-372 925.87,-360 925.87,-360 925.87,-354 931.87,-348 937.87,-348 937.87,-348 1134.91,-348 1134.91,-348 1140.91,-348 1146.91,-354 1146.91,-360 1146.91,-360 1146.91,-372 1146.91,-372 1146.91,-378 1140.91,-384 1134.91,-384"/>
<text xml:space="preserve" text-anchor="middle" x="1036.39" y="-361.32" font-family="Verdana" font-size="14.00">(*GuildError).WithOperation</text>
</a>
</g>
</g>
<!-- (*github.com/guild&#45;framework/guild&#45;core/pkg/tools/executor.toolExecutor).Execute&#45;&gt;(*github.com/guild&#45;framework/guild&#45;core/pkg/gerror.GuildError).WithOperation -->
<g id="edge18" class="edge">
<title>(*github.com/guild&#45;framework/guild&#45;core/pkg/tools/executor.toolExecutor).Execute&#45;&gt;(*github.com/guild&#45;framework/guild&#45;core/pkg/gerror.GuildError).WithOperation</title>
<g id="a_edge18"><a xlink:title="at executor.go:41: calling [(*github.com/guild&#45;framework/guild&#45;core/pkg/gerror.GuildError).WithOperation]&#10;at executor.go:63: calling [(*github.com/guild&#45;framework/guild&#45;core/pkg/gerror.GuildError).WithOperation]&#10;at executor.go:82: calling [(*github.com/guild&#45;framework/guild&#45;core/pkg/gerror.GuildError).WithOperation]&#10;at executor.go:118: calling [(*github.com/guild&#45;framework/guild&#45;core/pkg/gerror.GuildError).WithOperation]">
<path fill="none" stroke="saddlebrown" d="M750.01,-155.5C772.57,-195.27 831.4,-289.06 907.87,-336 911.9,-338.48 916.13,-340.75 920.48,-342.83"/>
<polygon fill="saddlebrown" stroke="saddlebrown" points="918.89,-345.96 929.45,-346.76 921.69,-339.54 918.89,-345.96"/>
</a>
</g>
</g>
<!-- (*github.com/guild&#45;framework/guild&#45;core/pkg/gerror.GuildError).WithDetails -->
<g id="node12" class="node">
<title>(*github.com/guild&#45;framework/guild&#45;core/pkg/gerror.GuildError).WithDetails</title>
<g id="a_node12"><a xlink:title="(*github.com/guild&#45;framework/guild&#45;core/pkg/gerror.GuildError).WithDetails | defined in errors.go:147">
<path fill="moccasin" stroke="black" stroke-width="1.5" d="M1124.03,-323C1124.03,-323 948.74,-323 948.74,-323 942.74,-323 936.74,-317 936.74,-311 936.74,-311 936.74,-299 936.74,-299 936.74,-293 942.74,-287 948.74,-287 948.74,-287 1124.03,-287 1124.03,-287 1130.03,-287 1136.03,-293 1136.03,-299 1136.03,-299 1136.03,-311 1136.03,-311 1136.03,-317 1130.03,-323 1124.03,-323"/>
<text xml:space="preserve" text-anchor="middle" x="1036.39" y="-300.32" font-family="Verdana" font-size="14.00">(*GuildError).WithDetails</text>
</a>
</g>
</g>
<!-- (*github.com/guild&#45;framework/guild&#45;core/pkg/tools/executor.toolExecutor).Execute&#45;&gt;(*github.com/guild&#45;framework/guild&#45;core/pkg/gerror.GuildError).WithDetails -->
<g id="edge1" class="edge">
<title>(*github.com/guild&#45;framework/guild&#45;core/pkg/tools/executor.toolExecutor).Execute&#45;&gt;(*github.com/guild&#45;framework/guild&#45;core/pkg/gerror.GuildError).WithDetails</title>
<g id="a_edge1"><a xlink:title="at executor.go:42: calling [(*github.com/guild&#45;framework/guild&#45;core/pkg/gerror.GuildError).WithDetails]&#10;at executor.go:64: calling [(*github.com/guild&#45;framework/guild&#45;core/pkg/gerror.GuildError).WithDetails]&#10;at executor.go:65: calling [(*github.com/guild&#45;framework/guild&#45;core/pkg/gerror.GuildError).WithDetails]&#10;at executor.go:83: calling [(*github.com/guild&#45;framework/guild&#45;core/pkg/gerror.GuildError).WithDetails]&#10;at executor.go:84: calling [(*github.com/guild&#45;framework/guild&#45;core/pkg/gerror.GuildError).WithDetails]&#10;at executor.go:119: calling [(*github.com/guild&#45;framework/guild&#45;core/pkg/gerror.GuildError).WithDetails]&#10;at executor.go:120: calling [(*github.com/guild&#45;framework/guild&#45;core/pkg/gerror.GuildError).WithDetails]">
<path fill="none" stroke="saddlebrown" d="M756.66,-155.33C784.84,-185.13 844.97,-243.87 907.87,-275 913.62,-277.84 919.64,-280.42 925.82,-282.77"/>
<polygon fill="saddlebrown" stroke="saddlebrown" points="924.31,-285.94 934.9,-285.98 926.64,-279.34 924.31,-285.94"/>
</a>
</g>
</g>
<!-- (*github.com/guild&#45;framework/guild&#45;core/pkg/tools.ToolRegistry).GetTool -->
<g id="node13" class="node">
<title>(*github.com/guild&#45;framework/guild&#45;core/pkg/tools.ToolRegistry).GetTool</title>
<g id="a_node13"><a xlink:title="(*github.com/guild&#45;framework/guild&#45;core/pkg/tools.ToolRegistry).GetTool | defined in tool.go:68">
<path fill="moccasin" stroke="black" stroke-width="1.5" d="M1451.45,-126C1451.45,-126 1288.91,-126 1288.91,-126 1282.91,-126 1276.91,-120 1276.91,-114 1276.91,-114 1276.91,-102 1276.91,-102 1276.91,-96 1282.91,-90 1288.91,-90 1288.91,-90 1451.45,-90 1451.45,-90 1457.45,-90 1463.45,-96 1463.45,-102 1463.45,-102 1463.45,-114 1463.45,-114 1463.45,-120 1457.45,-126 1451.45,-126"/>
<text xml:space="preserve" text-anchor="middle" x="1370.18" y="-103.33" font-family="Verdana" font-size="14.00">(*ToolRegistry).GetTool</text>
</a>
</g>
</g>
<!-- (*github.com/guild&#45;framework/guild&#45;core/pkg/tools/executor.toolExecutor).Execute&#45;&gt;(*github.com/guild&#45;framework/guild&#45;core/pkg/tools.ToolRegistry).GetTool -->
<g id="edge10" class="edge">
<title>(*github.com/guild&#45;framework/guild&#45;core/pkg/tools/executor.toolExecutor).Execute&#45;&gt;(*github.com/guild&#45;framework/guild&#45;core/pkg/tools.ToolRegistry).GetTool</title>
<g id="a_edge10"><a xlink:title="at executor.go:54: calling [(*github.com/guild&#45;framework/guild&#45;core/pkg/tools.ToolRegistry).GetTool]">
<path fill="none" stroke="saddlebrown" d="M795.2,-118.28C827.6,-108.29 869.57,-97.04 907.87,-92 1029.83,-75.94 1171.4,-84.89 1265.21,-94.64"/>
<polygon fill="saddlebrown" stroke="saddlebrown" points="1264.59,-98.09 1274.9,-95.67 1265.33,-91.13 1264.59,-98.09"/>
</a>
</g>
</g>
<!-- (*github.com/guild&#45;framework/guild&#45;core/pkg/tools.ToolRegistry).ListTools -->
<g id="node14" class="node">
<title>(*github.com/guild&#45;framework/guild&#45;core/pkg/tools.ToolRegistry).ListTools</title>
<g id="a_node14"><a xlink:title="(*github.com/guild&#45;framework/guild&#45;core/pkg/tools.ToolRegistry).ListTools | defined in tool.go:80">
<path fill="moccasin" stroke="black" stroke-width="1.5" d="M1455.2,-65C1455.2,-65 1285.16,-65 1285.16,-65 1279.16,-65 1273.16,-59 1273.16,-53 1273.16,-53 1273.16,-41 1273.16,-41 1273.16,-35 1279.16,-29 1285.16,-29 1285.16,-29 1455.2,-29 1455.2,-29 1461.2,-29 1467.2,-35 1467.2,-41 1467.2,-41 1467.2,-53 1467.2,-53 1467.2,-59 1461.2,-65 1455.2,-65"/>
<text xml:space="preserve" text-anchor="middle" x="1370.18" y="-42.33" font-family="Verdana" font-size="14.00">(*ToolRegistry).ListTools</text>
</a>
</g>
</g>
<!-- (*github.com/guild&#45;framework/guild&#45;core/pkg/tools/executor.toolExecutor).getToolNames&#45;&gt;(*github.com/guild&#45;framework/guild&#45;core/pkg/tools.ToolRegistry).ListTools -->
<g id="edge6" class="edge">
<title>(*github.com/guild&#45;framework/guild&#45;core/pkg/tools/executor.toolExecutor).getToolNames&#45;&gt;(*github.com/guild&#45;framework/guild&#45;core/pkg/tools.ToolRegistry).ListTools</title>
<g id="a_edge6"><a xlink:title="at executor.go:250: calling [(*github.com/guild&#45;framework/guild&#45;core/pkg/tools.ToolRegistry).ListTools]">
<path fill="none" stroke="saddlebrown" d="M1153.9,-38.57C1188.71,-39.93 1226.71,-41.42 1260.97,-42.76"/>
<polygon fill="saddlebrown" stroke="saddlebrown" points="1260.79,-46.26 1270.92,-43.15 1261.06,-39.26 1260.79,-46.26"/>
</a>
</g>
</g>
<!-- (*github.com/guild&#45;framework/guild&#45;core/pkg/tools/executor.toolExecutor).ExecuteBatch -->
<g id="node4" class="node">
<title>(*github.com/guild&#45;framework/guild&#45;core/pkg/tools/executor.toolExecutor).ExecuteBatch</title>
<g id="a_node4"><a xlink:title="(*github.com/guild&#45;framework/guild&#45;core/pkg/tools/executor.toolExecutor).ExecuteBatch | defined in executor.go:143&#10;at executor.go:150: calling [github.com/guild&#45;framework/guild&#45;core/pkg/gerror.Wrap]&#10;at executor.go:189: calling [github.com/guild&#45;framework/guild&#45;core/pkg/gerror.Wrap]&#10;at executor.go:162: calling [(*github.com/guild&#45;framework/guild&#45;core/pkg/tools/executor.toolExecutor).ExecuteBatch$1]&#10;at executor.go:152: calling [(*github.com/guild&#45;framework/guild&#45;core/pkg/gerror.GuildError).WithOperation]&#10;at executor.go:191: calling [(*github.com/guild&#45;framework/guild&#45;core/pkg/gerror.GuildError).WithOperation]&#10;at executor.go:153: calling [(*github.com/guild&#45;framework/guild&#45;core/pkg/gerror.GuildError).WithDetails]&#10;at executor.go:192: calling [(*github.com/guild&#45;framework/guild&#45;core/pkg/gerror.GuildError).WithDetails]&#10;at executor.go:151: calling [(*github.com/guild&#45;framework/guild&#45;core/pkg/gerror.GuildError).WithComponent]&#10;at executor.go:190: calling [(*github.com/guild&#45;framework/guild&#45;core/pkg/gerror.GuildError).WithComponent]&#10;at executor.go:181: calling [(*github.com/guild&#45;framework/guild&#45;core/pkg/tools/executor.toolExecutor).ExecuteBatch$2]">
<path fill="lightblue" stroke="black" stroke-width="1.5" d="M235.54,-263C235.54,-263 28,-263 28,-263 22,-263 16,-257 16,-251 16,-251 16,-239 16,-239 16,-233 22,-227 28,-227 28,-227 235.54,-227 235.54,-227 241.54,-227 247.54,-233 247.54,-239 247.54,-239 247.54,-251 247.54,-251 247.54,-257 241.54,-263 235.54,-263"/>
<text xml:space="preserve" text-anchor="middle" x="131.77" y="-240.32" font-family="Verdana" font-size="14.00">(*toolExecutor).ExecuteBatch</text>
</a>
</g>
</g>
<!-- (*github.com/guild&#45;framework/guild&#45;core/pkg/tools/executor.toolExecutor).ExecuteBatch$1 -->
<g id="node5" class="node">
<title>(*github.com/guild&#45;framework/guild&#45;core/pkg/tools/executor.toolExecutor).ExecuteBatch$1</title>
<g id="a_node5"><a xlink:title="(*github.com/guild&#45;framework/guild&#45;core/pkg/tools/executor.toolExecutor).ExecuteBatch$1 | defined in executor.go:162&#10;at executor.go:165: calling [(*github.com/guild&#45;framework/guild&#45;core/pkg/tools/executor.toolExecutor).Execute]">
<polygon fill="lightblue" stroke="black" stroke-dasharray="1,5" points="570.08,-140 320.54,-140 320.54,-104 570.08,-104 570.08,-140"/>
<text xml:space="preserve" text-anchor="middle" x="445.31" y="-117.33" font-family="Verdana" font-size="14.00">(*toolExecutor).ExecuteBatch$1</text>
</a>
</g>
</g>
<!-- (*github.com/guild&#45;framework/guild&#45;core/pkg/tools/executor.toolExecutor).ExecuteBatch&#45;&gt;(*github.com/guild&#45;framework/guild&#45;core/pkg/tools/executor.toolExecutor).ExecuteBatch$1 -->
<g id="edge9" class="edge">
<title>(*github.com/guild&#45;framework/guild&#45;core/pkg/tools/executor.toolExecutor).ExecuteBatch&#45;&gt;(*github.com/guild&#45;framework/guild&#45;core/pkg/tools/executor.toolExecutor).ExecuteBatch$1</title>
<g id="a_edge9"><a xlink:title="at executor.go:162: calling [(*github.com/guild&#45;framework/guild&#45;core/pkg/tools/executor.toolExecutor).ExecuteBatch$1]">
<path fill="none" stroke="black" d="M165.42,-226.37C202.17,-206.04 264.11,-173.63 320.54,-153 325.6,-151.15 330.81,-149.37 336.1,-147.67"/>
<polygon fill="black" stroke="black" points="350.32,-147.11 358.91,-140.91 348.33,-140.4 350.32,-147.11"/>
<polyline fill="none" stroke="black" points="348.85,-143.9 344.05,-145.32"/>
<ellipse fill="none" stroke="black" cx="339.74" cy="-146.59" rx="4" ry="4"/>
</a>
</g>
</g>
<!-- (*github.com/guild&#45;framework/guild&#45;core/pkg/tools/executor.toolExecutor).ExecuteBatch$2 -->
<g id="node6" class="node">
<title>(*github.com/guild&#45;framework/guild&#45;core/pkg/tools/executor.toolExecutor).ExecuteBatch$2</title>
<g id="a_node6"><a xlink:title="(*github.com/guild&#45;framework/guild&#45;core/pkg/tools/executor.toolExecutor).ExecuteBatch$2 | defined in executor.go:181">
<polygon fill="lightblue" stroke="black" stroke-dasharray="1,5" points="570.08,-201 320.54,-201 320.54,-165 570.08,-165 570.08,-201"/>
<text xml:space="preserve" text-anchor="middle" x="445.31" y="-178.32" font-family="Verdana" font-size="14.00">(*toolExecutor).ExecuteBatch$2</text>
</a>
</g>
</g>
<!-- (*github.com/guild&#45;framework/guild&#45;core/pkg/tools/executor.toolExecutor).ExecuteBatch&#45;&gt;(*github.com/guild&#45;framework/guild&#45;core/pkg/tools/executor.toolExecutor).ExecuteBatch$2 -->
<g id="edge17" class="edge">
<title>(*github.com/guild&#45;framework/guild&#45;core/pkg/tools/executor.toolExecutor).ExecuteBatch&#45;&gt;(*github.com/guild&#45;framework/guild&#45;core/pkg/tools/executor.toolExecutor).ExecuteBatch$2</title>
<g id="a_edge17"><a xlink:title="at executor.go:181: calling [(*github.com/guild&#45;framework/guild&#45;core/pkg/tools/executor.toolExecutor).ExecuteBatch$2]">
<path fill="none" stroke="black" d="M226.66,-226.31C258.15,-220.05 293.65,-212.98 326.71,-206.4"/>
<polygon fill="black" stroke="black" points="340.8,-207.17 349.93,-201.78 339.44,-200.3 340.8,-207.17"/>
<polyline fill="none" stroke="black" points="339.63,-203.83 334.73,-204.81"/>
<ellipse fill="none" stroke="black" cx="330.31" cy="-205.69" rx="4" ry="4"/>
</a>
</g>
</g>
<!-- (*github.com/guild&#45;framework/guild&#45;core/pkg/tools/executor.toolExecutor).ExecuteBatch&#45;&gt;github.com/guild&#45;framework/guild&#45;core/pkg/gerror.Wrap -->
<g id="edge8" class="edge">
<title>(*github.com/guild&#45;framework/guild&#45;core/pkg/tools/executor.toolExecutor).ExecuteBatch&#45;&gt;github.com/guild&#45;framework/guild&#45;core/pkg/gerror.Wrap</title>
<g id="a_edge8"><a xlink:title="at executor.go:150: calling [github.com/guild&#45;framework/guild&#45;core/pkg/gerror.Wrap]&#10;at executor.go:189: calling [github.com/guild&#45;framework/guild&#45;core/pkg/gerror.Wrap]">
<path fill="none" stroke="saddlebrown" d="M248,-237.08C451.02,-223.14 863.35,-194.82 994.42,-185.81"/>
<polygon fill="saddlebrown" stroke="saddlebrown" points="994.61,-189.31 1004.35,-185.13 994.13,-182.33 994.61,-189.31"/>
</a>
</g>
</g>
<!-- (*github.com/guild&#45;framework/guild&#45;core/pkg/tools/executor.toolExecutor).ExecuteBatch&#45;&gt;(*github.com/guild&#45;framework/guild&#45;core/pkg/gerror.GuildError).WithComponent -->
<g id="edge16" class="edge">
<title>(*github.com/guild&#45;framework/guild&#45;core/pkg/tools/executor.toolExecutor).ExecuteBatch&#45;&gt;(*github.com/guild&#45;framework/guild&#45;core/pkg/gerror.GuildError).WithComponent</title>
<g id="a_edge16"><a xlink:title="at executor.go:151: calling [(*github.com/guild&#45;framework/guild&#45;core/pkg/gerror.GuildError).WithComponent]&#10;at executor.go:190: calling [(*github.com/guild&#45;framework/guild&#45;core/pkg/gerror.GuildError).WithComponent]">
<path fill="none" stroke="saddlebrown" d="M248.07,-255.39C306.77,-259.83 379.29,-264 444.31,-264 444.31,-264 444.31,-264 739.97,-264 795.29,-264 856.3,-260.47 908.44,-256.37"/>
<polygon fill="saddlebrown" stroke="saddlebrown" points="908.57,-259.87 918.26,-255.58 908.01,-252.89 908.57,-259.87"/>
</a>
</g>
</g>
<!-- (*github.com/guild&#45;framework/guild&#45;core/pkg/tools/executor.toolExecutor).ExecuteBatch&#45;&gt;(*github.com/guild&#45;framework/guild&#45;core/pkg/gerror.GuildError).WithOperation -->
<g id="edge11" class="edge">
<title>(*github.com/guild&#45;framework/guild&#45;core/pkg/tools/executor.toolExecutor).ExecuteBatch&#45;&gt;(*github.com/guild&#45;framework/guild&#45;core/pkg/gerror.GuildError).WithOperation</title>
<g id="a_edge11"><a xlink:title="at executor.go:152: calling [(*github.com/guild&#45;framework/guild&#45;core/pkg/gerror.GuildError).WithOperation]&#10;at executor.go:191: calling [(*github.com/guild&#45;framework/guild&#45;core/pkg/gerror.GuildError).WithOperation]">
<path fill="none" stroke="saddlebrown" d="M248,-260.45C419.26,-283.41 739.46,-326.33 914.14,-349.75"/>
<polygon fill="saddlebrown" stroke="saddlebrown" points="913.55,-353.2 923.93,-351.06 914.48,-346.26 913.55,-353.2"/>
</a>
</g>
</g>
<!-- (*github.com/guild&#45;framework/guild&#45;core/pkg/tools/executor.toolExecutor).ExecuteBatch&#45;&gt;(*github.com/guild&#45;framework/guild&#45;core/pkg/gerror.GuildError).WithDetails -->
<g id="edge12" class="edge">
<title>(*github.com/guild&#45;framework/guild&#45;core/pkg/tools/executor.toolExecutor).ExecuteBatch&#45;&gt;(*github.com/guild&#45;framework/guild&#45;core/pkg/gerror.GuildError).WithDetails</title>
<g id="a_edge12"><a xlink:title="at executor.go:153: calling [(*github.com/guild&#45;framework/guild&#45;core/pkg/gerror.GuildError).WithDetails]&#10;at executor.go:192: calling [(*github.com/guild&#45;framework/guild&#45;core/pkg/gerror.GuildError).WithDetails]">
<path fill="none" stroke="saddlebrown" d="M181.32,-263.7C241.91,-285.33 349.18,-318 444.31,-318 444.31,-318 444.31,-318 739.97,-318 801.21,-318 869.52,-315.18 925.01,-312.16"/>
<polygon fill="saddlebrown" stroke="saddlebrown" points="924.99,-315.67 934.78,-311.62 924.6,-308.68 924.99,-315.67"/>
</a>
</g>
</g>
<!-- (*github.com/guild&#45;framework/guild&#45;core/pkg/tools/executor.toolExecutor).ExecuteBatch$1&#45;&gt;(*github.com/guild&#45;framework/guild&#45;core/pkg/tools/executor.toolExecutor).Execute -->
<g id="edge3" class="edge">
<title>(*github.com/guild&#45;framework/guild&#45;core/pkg/tools/executor.toolExecutor).ExecuteBatch$1&#45;&gt;(*github.com/guild&#45;framework/guild&#45;core/pkg/tools/executor.toolExecutor).Execute</title>
<g id="a_edge3"><a xlink:title="at executor.go:165: calling [(*github.com/guild&#45;framework/guild&#45;core/pkg/tools/executor.toolExecutor).Execute]">
<path fill="none" stroke="black" d="M570.43,-128.38C590.74,-129.43 611.63,-130.5 631.47,-131.52"/>
<polygon fill="black" stroke="black" points="631.01,-135 641.18,-132.02 631.37,-128.01 631.01,-135"/>
</a>
</g>
</g>
<!-- (*github.com/guild&#45;framework/guild&#45;core/pkg/tools/executor.toolExecutor).GetAvailableTools -->
<g id="node7" class="node">
<title>(*github.com/guild&#45;framework/guild&#45;core/pkg/tools/executor.toolExecutor).GetAvailableTools</title>
<g id="a_node7"><a xlink:title="(*github.com/guild&#45;framework/guild&#45;core/pkg/tools/executor.toolExecutor).GetAvailableTools | defined in executor.go:199&#10;at executor.go:206: calling [(*github.com/guild&#45;framework/guild&#45;core/pkg/tools.ToolRegistry).ListTools]&#10;at executor.go:208: calling [(*github.com/guild&#45;framework/guild&#45;core/pkg/tools.ToolRegistry).GetTool]&#10;at executor.go:219: calling [(*github.com/guild&#45;framework/guild&#45;core/pkg/tools/executor.toolExecutor).extractParameters]">
<path fill="lightblue" stroke="black" stroke-width="1.5" d="M1152.91,-464C1152.91,-464 919.87,-464 919.87,-464 913.87,-464 907.87,-458 907.87,-452 907.87,-452 907.87,-440 907.87,-440 907.87,-434 913.87,-428 919.87,-428 919.87,-428 1152.91,-428 1152.91,-428 1158.91,-428 1164.91,-434 1164.91,-440 1164.91,-440 1164.91,-452 1164.91,-452 1164.91,-458 1158.91,-464 1152.91,-464"/>
<text xml:space="preserve" text-anchor="middle" x="1036.39" y="-441.32" font-family="Verdana" font-size="14.00">(*toolExecutor).GetAvailableTools</text>
</a>
</g>
</g>
<!-- (*github.com/guild&#45;framework/guild&#45;core/pkg/tools/executor.toolExecutor).extractParameters -->
<g id="node8" class="node">
<title>(*github.com/guild&#45;framework/guild&#45;core/pkg/tools/executor.toolExecutor).extractParameters</title>
<g id="a_node8"><a xlink:title="(*github.com/guild&#45;framework/guild&#45;core/pkg/tools/executor.toolExecutor).extractParameters | defined in executor.go:230">
<path fill="lightblue" stroke="black" stroke-width="0.5" d="M1490.45,-464C1490.45,-464 1249.91,-464 1249.91,-464 1243.91,-464 1237.91,-458 1237.91,-452 1237.91,-452 1237.91,-440 1237.91,-440 1237.91,-434 1243.91,-428 1249.91,-428 1249.91,-428 1490.45,-428 1490.45,-428 1496.45,-428 1502.45,-434 1502.45,-440 1502.45,-440 1502.45,-452 1502.45,-452 1502.45,-458 1496.45,-464 1490.45,-464"/>
<text xml:space="preserve" text-anchor="middle" x="1370.18" y="-441.32" font-family="Verdana" font-size="14.00">(*toolExecutor).extractParameters</text>
</a>
</g>
</g>
<!-- (*github.com/guild&#45;framework/guild&#45;core/pkg/tools/executor.toolExecutor).GetAvailableTools&#45;&gt;(*github.com/guild&#45;framework/guild&#45;core/pkg/tools/executor.toolExecutor).extractParameters -->
<g id="edge15" class="edge">
<title>(*github.com/guild&#45;framework/guild&#45;core/pkg/tools/executor.toolExecutor).GetAvailableTools&#45;&gt;(*github.com/guild&#45;framework/guild&#45;core/pkg/tools/executor.toolExecutor).extractParameters</title>
<g id="a_edge15"><a xlink:title="at executor.go:219: calling [(*github.com/guild&#45;framework/guild&#45;core/pkg/tools/executor.toolExecutor).extractParameters]">
<path fill="none" stroke="black" d="M1165.19,-446C1185.29,-446 1206.18,-446 1226.59,-446"/>
<polygon fill="black" stroke="black" points="1226.36,-449.5 1236.36,-446 1226.36,-442.5 1226.36,-449.5"/>
</a>
</g>
</g>
<!-- (*github.com/guild&#45;framework/guild&#45;core/pkg/tools/executor.toolExecutor).GetAvailableTools&#45;&gt;(*github.com/guild&#45;framework/guild&#45;core/pkg/tools.ToolRegistry).GetTool -->
<g id="edge14" class="edge">
<title>(*github.com/guild&#45;framework/guild&#45;core/pkg/tools/executor.toolExecutor).GetAvailableTools&#45;&gt;(*github.com/guild&#45;framework/guild&#45;core/pkg/tools.ToolRegistry).GetTool</title>
<g id="a_edge14"><a xlink:title="at executor.go:208: calling [(*github.com/guild&#45;framework/guild&#45;core/pkg/tools.ToolRegistry).GetTool]">
<path fill="none" stroke="saddlebrown" d="M1161.1,-427.3C1162.41,-426.25 1163.68,-425.15 1164.91,-424 1263.5,-332.31 1139.1,-221.45 1237.91,-130 1245.9,-122.6 1255.4,-117.18 1265.58,-113.26"/>
<polygon fill="saddlebrown" stroke="saddlebrown" points="1266.56,-116.63 1274.96,-110.18 1264.37,-109.98 1266.56,-116.63"/>
</a>
</g>
</g>
<!-- (*github.com/guild&#45;framework/guild&#45;core/pkg/tools/executor.toolExecutor).GetAvailableTools&#45;&gt;(*github.com/guild&#45;framework/guild&#45;core/pkg/tools.ToolRegistry).ListTools -->
<g id="edge13" class="edge">
<title>(*github.com/guild&#45;framework/guild&#45;core/pkg/tools/executor.toolExecutor).GetAvailableTools&#45;&gt;(*github.com/guild&#45;framework/guild&#45;core/pkg/tools.ToolRegistry).ListTools</title>
<g id="a_edge13"><a xlink:title="at executor.go:206: calling [(*github.com/guild&#45;framework/guild&#45;core/pkg/tools.ToolRegistry).ListTools]">
<path fill="none" stroke="saddlebrown" d="M1161.01,-427.68C1162.35,-426.51 1163.65,-425.29 1164.91,-424 1203.05,-384.94 1187.62,-233.95 1200.91,-181 1212.75,-133.82 1201.63,-110.4 1237.91,-78 1245.07,-71.61 1253.29,-66.47 1262.07,-62.35"/>
<polygon fill="saddlebrown" stroke="saddlebrown" points="1263.31,-65.62 1271.19,-58.54 1260.61,-59.16 1263.31,-65.62"/>
</a>
</g>
</g>
</g>
</svg>
