<?xml version="1.0" encoding="UTF-8" standalone="no"?>
<!DOCTYPE svg PUBLIC "-//W3C//DTD SVG 1.1//EN"
 "http://www.w3.org/Graphics/SVG/1.1/DTD/svg11.dtd">
<!-- Generated by graphviz version 14.1.1 (20251213.1925)
 -->
<!-- Title: gocallvis Pages: 1 -->
<svg width="1043pt" height="849pt"
 viewBox="0.00 0.00 1043.00 849.00" xmlns="http://www.w3.org/2000/svg" xmlns:xlink="http://www.w3.org/1999/xlink">
<g id="graph0" class="graph" transform="scale(1 1) rotate(0) translate(0 849)">
<title>gocallvis</title>
<polygon fill="lightgray" stroke="none" points="0,0 0,-849 1042.62,-849 1042.62,0 0,0"/>
<g id="clust1" class="cluster">
<title>cluster_focus</title>
<polygon fill="#e6ecfa" stroke="black" stroke-width="0.5" points="8,-8 8,-841 1034.62,-841 1034.62,-8 8,-8"/>
<text xml:space="preserve" text-anchor="middle" x="521.31" y="-819.9" font-family="Arial" font-size="18.00">config</text>
</g>
<g id="clust2" class="cluster">
<title>cluster_github.com/guild&#45;framework/guild&#45;core/pkg/gerror</title>
<g id="a_clust2"><a xlink:href="/?f=github.com/guild-framework/guild-core/pkg/gerror" xlink:title="package: github.com/guild&#45;framework/guild&#45;core/pkg/gerror">
<polygon fill="lightyellow" stroke="black" stroke-width="0.8" points="778.33,-541 778.33,-804 1026.62,-804 1026.62,-541 778.33,-541"/>
<text xml:space="preserve" text-anchor="middle" x="902.47" y="-784.8" font-family="Tahoma bold" font-size="16.00">gerror</text>
</a>
</g>
</g>
<!-- (*github.com/guild&#45;framework/guild&#45;core/internal/integration/config.ServiceConfig).ToServiceConfigs -->
<g id="node1" class="node">
<title>(*github.com/guild&#45;framework/guild&#45;core/internal/integration/config.ServiceConfig).ToServiceConfigs</title>
<g id="a_node1"><a xlink:title="(*github.com/guild&#45;framework/guild&#45;core/internal/integration/config.ServiceConfig).ToServiceConfigs | defined in service_config.go:388&#10;at service_config.go:392: calling [(*github.com/guild&#45;framework/guild&#45;core/internal/integration/config.ServiceConfig).toSessionServiceConfig]&#10;at service_config.go:395: calling [(*github.com/guild&#45;framework/guild&#45;core/internal/integration/config.ServiceConfig).toChatUIServiceConfig]&#10;at service_config.go:396: calling [(*github.com/guild&#45;framework/guild&#45;core/internal/integration/config.ServiceConfig).toDaemonServiceConfig]&#10;at service_config.go:390: calling [(*github.com/guild&#45;framework/guild&#45;core/internal/integration/config.ServiceConfig).toKanbanServiceConfig]&#10;at service_config.go:394: calling [(*github.com/guild&#45;framework/guild&#45;core/internal/integration/config.ServiceConfig).toAgentManagerServiceConfig]&#10;at service_config.go:391: calling [(*github.com/guild&#45;framework/guild&#45;core/internal/integration/config.ServiceConfig).toMemoryServiceConfig]&#10;at service_config.go:393: calling [(*github.com/guild&#45;framework/guild&#45;core/internal/integration/config.ServiceConfig).toOrchestratorServiceConfig]&#10;at service_config.go:397: calling [(*github.com/guild&#45;framework/guild&#45;core/internal/integration/config.ServiceConfig).toCorpusServiceConfig]">
<path fill="lightblue" stroke="black" stroke-width="1.5" d="M270.04,-270C270.04,-270 28,-270 28,-270 22,-270 16,-264 16,-258 16,-258 16,-246 16,-246 16,-240 22,-234 28,-234 28,-234 270.04,-234 270.04,-234 276.04,-234 282.04,-240 282.04,-246 282.04,-246 282.04,-258 282.04,-258 282.04,-264 276.04,-270 270.04,-270"/>
<text xml:space="preserve" text-anchor="middle" x="149.02" y="-247.32" font-family="Verdana" font-size="14.00">(*ServiceConfig).ToServiceConfigs</text>
</a>
</g>
</g>
<!-- (*github.com/guild&#45;framework/guild&#45;core/internal/integration/config.ServiceConfig).toKanbanServiceConfig -->
<g id="node2" class="node">
<title>(*github.com/guild&#45;framework/guild&#45;core/internal/integration/config.ServiceConfig).toKanbanServiceConfig</title>
<g id="a_node2"><a xlink:title="(*github.com/guild&#45;framework/guild&#45;core/internal/integration/config.ServiceConfig).toKanbanServiceConfig | defined in service_config.go:415">
<path fill="lightblue" stroke="black" stroke-width="0.5" d="M676.95,-174C676.95,-174 391.41,-174 391.41,-174 385.41,-174 379.41,-168 379.41,-162 379.41,-162 379.41,-150 379.41,-150 379.41,-144 385.41,-138 391.41,-138 391.41,-138 676.95,-138 676.95,-138 682.95,-138 688.95,-144 688.95,-150 688.95,-150 688.95,-162 688.95,-162 688.95,-168 682.95,-174 676.95,-174"/>
<text xml:space="preserve" text-anchor="middle" x="534.18" y="-151.32" font-family="Verdana" font-size="14.00">(*ServiceConfig).toKanbanServiceConfig</text>
</a>
</g>
</g>
<!-- (*github.com/guild&#45;framework/guild&#45;core/internal/integration/config.ServiceConfig).ToServiceConfigs&#45;&gt;(*github.com/guild&#45;framework/guild&#45;core/internal/integration/config.ServiceConfig).toKanbanServiceConfig -->
<g id="edge11" class="edge">
<title>(*github.com/guild&#45;framework/guild&#45;core/internal/integration/config.ServiceConfig).ToServiceConfigs&#45;&gt;(*github.com/guild&#45;framework/guild&#45;core/internal/integration/config.ServiceConfig).toKanbanServiceConfig</title>
<g id="a_edge11"><a xlink:title="at service_config.go:390: calling [(*github.com/guild&#45;framework/guild&#45;core/internal/integration/config.ServiceConfig).toKanbanServiceConfig]">
<path fill="none" stroke="black" d="M202.14,-233.33C243.25,-219.13 302.26,-199.9 355.04,-187 370.93,-183.12 387.72,-179.53 404.4,-176.28"/>
<polygon fill="black" stroke="black" points="404.68,-179.79 413.85,-174.48 403.37,-172.92 404.68,-179.79"/>
</a>
</g>
</g>
<!-- (*github.com/guild&#45;framework/guild&#45;core/internal/integration/config.ServiceConfig).toMemoryServiceConfig -->
<g id="node3" class="node">
<title>(*github.com/guild&#45;framework/guild&#45;core/internal/integration/config.ServiceConfig).toMemoryServiceConfig</title>
<g id="a_node3"><a xlink:title="(*github.com/guild&#45;framework/guild&#45;core/internal/integration/config.ServiceConfig).toMemoryServiceConfig | defined in service_config.go:425">
<path fill="lightblue" stroke="black" stroke-width="0.5" d="M678.45,-235C678.45,-235 389.91,-235 389.91,-235 383.91,-235 377.91,-229 377.91,-223 377.91,-223 377.91,-211 377.91,-211 377.91,-205 383.91,-199 389.91,-199 389.91,-199 678.45,-199 678.45,-199 684.45,-199 690.45,-205 690.45,-211 690.45,-211 690.45,-223 690.45,-223 690.45,-229 684.45,-235 678.45,-235"/>
<text xml:space="preserve" text-anchor="middle" x="534.18" y="-212.32" font-family="Verdana" font-size="14.00">(*ServiceConfig).toMemoryServiceConfig</text>
</a>
</g>
</g>
<!-- (*github.com/guild&#45;framework/guild&#45;core/internal/integration/config.ServiceConfig).ToServiceConfigs&#45;&gt;(*github.com/guild&#45;framework/guild&#45;core/internal/integration/config.ServiceConfig).toMemoryServiceConfig -->
<g id="edge17" class="edge">
<title>(*github.com/guild&#45;framework/guild&#45;core/internal/integration/config.ServiceConfig).ToServiceConfigs&#45;&gt;(*github.com/guild&#45;framework/guild&#45;core/internal/integration/config.ServiceConfig).toMemoryServiceConfig</title>
<g id="a_edge17"><a xlink:title="at service_config.go:391: calling [(*github.com/guild&#45;framework/guild&#45;core/internal/integration/config.ServiceConfig).toMemoryServiceConfig]">
<path fill="none" stroke="black" d="M282.69,-239.88C309.8,-237.41 338.64,-234.77 366.76,-232.2"/>
<polygon fill="black" stroke="black" points="366.76,-235.72 376.4,-231.32 366.13,-228.75 366.76,-235.72"/>
</a>
</g>
</g>
<!-- (*github.com/guild&#45;framework/guild&#45;core/internal/integration/config.ServiceConfig).toSessionServiceConfig -->
<g id="node4" class="node">
<title>(*github.com/guild&#45;framework/guild&#45;core/internal/integration/config.ServiceConfig).toSessionServiceConfig</title>
<g id="a_node4"><a xlink:title="(*github.com/guild&#45;framework/guild&#45;core/internal/integration/config.ServiceConfig).toSessionServiceConfig | defined in service_config.go:437">
<path fill="lightblue" stroke="black" stroke-width="0.5" d="M677.33,-296C677.33,-296 391.04,-296 391.04,-296 385.04,-296 379.04,-290 379.04,-284 379.04,-284 379.04,-272 379.04,-272 379.04,-266 385.04,-260 391.04,-260 391.04,-260 677.33,-260 677.33,-260 683.33,-260 689.33,-266 689.33,-272 689.33,-272 689.33,-284 689.33,-284 689.33,-290 683.33,-296 677.33,-296"/>
<text xml:space="preserve" text-anchor="middle" x="534.18" y="-273.32" font-family="Verdana" font-size="14.00">(*ServiceConfig).toSessionServiceConfig</text>
</a>
</g>
</g>
<!-- (*github.com/guild&#45;framework/guild&#45;core/internal/integration/config.ServiceConfig).ToServiceConfigs&#45;&gt;(*github.com/guild&#45;framework/guild&#45;core/internal/integration/config.ServiceConfig).toSessionServiceConfig -->
<g id="edge4" class="edge">
<title>(*github.com/guild&#45;framework/guild&#45;core/internal/integration/config.ServiceConfig).ToServiceConfigs&#45;&gt;(*github.com/guild&#45;framework/guild&#45;core/internal/integration/config.ServiceConfig).toSessionServiceConfig</title>
<g id="a_edge4"><a xlink:title="at service_config.go:392: calling [(*github.com/guild&#45;framework/guild&#45;core/internal/integration/config.ServiceConfig).toSessionServiceConfig]">
<path fill="none" stroke="black" d="M282.69,-261C310.08,-262.86 339.25,-264.84 367.65,-266.77"/>
<polygon fill="black" stroke="black" points="367.19,-270.24 377.4,-267.43 367.66,-263.26 367.19,-270.24"/>
</a>
</g>
</g>
<!-- (*github.com/guild&#45;framework/guild&#45;core/internal/integration/config.ServiceConfig).toOrchestratorServiceConfig -->
<g id="node5" class="node">
<title>(*github.com/guild&#45;framework/guild&#45;core/internal/integration/config.ServiceConfig).toOrchestratorServiceConfig</title>
<g id="a_node5"><a xlink:title="(*github.com/guild&#45;framework/guild&#45;core/internal/integration/config.ServiceConfig).toOrchestratorServiceConfig | defined in service_config.go:447">
<path fill="lightblue" stroke="black" stroke-width="0.5" d="M694.58,-357C694.58,-357 373.79,-357 373.79,-357 367.79,-357 361.79,-351 361.79,-345 361.79,-345 361.79,-333 361.79,-333 361.79,-327 367.79,-321 373.79,-321 373.79,-321 694.58,-321 694.58,-321 700.58,-321 706.58,-327 706.58,-333 706.58,-333 706.58,-345 706.58,-345 706.58,-351 700.58,-357 694.58,-357"/>
<text xml:space="preserve" text-anchor="middle" x="534.18" y="-334.32" font-family="Verdana" font-size="14.00">(*ServiceConfig).toOrchestratorServiceConfig</text>
</a>
</g>
</g>
<!-- (*github.com/guild&#45;framework/guild&#45;core/internal/integration/config.ServiceConfig).ToServiceConfigs&#45;&gt;(*github.com/guild&#45;framework/guild&#45;core/internal/integration/config.ServiceConfig).toOrchestratorServiceConfig -->
<g id="edge18" class="edge">
<title>(*github.com/guild&#45;framework/guild&#45;core/internal/integration/config.ServiceConfig).ToServiceConfigs&#45;&gt;(*github.com/guild&#45;framework/guild&#45;core/internal/integration/config.ServiceConfig).toOrchestratorServiceConfig</title>
<g id="a_edge18"><a xlink:title="at service_config.go:393: calling [(*github.com/guild&#45;framework/guild&#45;core/internal/integration/config.ServiceConfig).toOrchestratorServiceConfig]">
<path fill="none" stroke="black" d="M210.6,-270.64C251.2,-282.68 306,-298.08 355.04,-309 370.59,-312.46 386.97,-315.73 403.26,-318.74"/>
<polygon fill="black" stroke="black" points="402.55,-322.17 413.02,-320.52 403.8,-315.29 402.55,-322.17"/>
</a>
</g>
</g>
<!-- (*github.com/guild&#45;framework/guild&#45;core/internal/integration/config.ServiceConfig).toAgentManagerServiceConfig -->
<g id="node6" class="node">
<title>(*github.com/guild&#45;framework/guild&#45;core/internal/integration/config.ServiceConfig).toAgentManagerServiceConfig</title>
<g id="a_node6"><a xlink:title="(*github.com/guild&#45;framework/guild&#45;core/internal/integration/config.ServiceConfig).toAgentManagerServiceConfig | defined in service_config.go:457">
<path fill="lightblue" stroke="black" stroke-width="0.5" d="M701.33,-418C701.33,-418 367.04,-418 367.04,-418 361.04,-418 355.04,-412 355.04,-406 355.04,-406 355.04,-394 355.04,-394 355.04,-388 361.04,-382 367.04,-382 367.04,-382 701.33,-382 701.33,-382 707.33,-382 713.33,-388 713.33,-394 713.33,-394 713.33,-406 713.33,-406 713.33,-412 707.33,-418 701.33,-418"/>
<text xml:space="preserve" text-anchor="middle" x="534.18" y="-395.32" font-family="Verdana" font-size="14.00">(*ServiceConfig).toAgentManagerServiceConfig</text>
</a>
</g>
</g>
<!-- (*github.com/guild&#45;framework/guild&#45;core/internal/integration/config.ServiceConfig).ToServiceConfigs&#45;&gt;(*github.com/guild&#45;framework/guild&#45;core/internal/integration/config.ServiceConfig).toAgentManagerServiceConfig -->
<g id="edge12" class="edge">
<title>(*github.com/guild&#45;framework/guild&#45;core/internal/integration/config.ServiceConfig).ToServiceConfigs&#45;&gt;(*github.com/guild&#45;framework/guild&#45;core/internal/integration/config.ServiceConfig).toAgentManagerServiceConfig</title>
<g id="a_edge12"><a xlink:title="at service_config.go:394: calling [(*github.com/guild&#45;framework/guild&#45;core/internal/integration/config.ServiceConfig).toAgentManagerServiceConfig]">
<path fill="none" stroke="black" d="M175.41,-270.64C212.78,-297.11 285.65,-345.1 355.04,-370 364.47,-373.38 374.32,-376.39 384.34,-379.06"/>
<polygon fill="black" stroke="black" points="383.25,-382.39 393.8,-381.46 384.97,-375.61 383.25,-382.39"/>
</a>
</g>
</g>
<!-- (*github.com/guild&#45;framework/guild&#45;core/internal/integration/config.ServiceConfig).toChatUIServiceConfig -->
<g id="node7" class="node">
<title>(*github.com/guild&#45;framework/guild&#45;core/internal/integration/config.ServiceConfig).toChatUIServiceConfig</title>
<g id="a_node7"><a xlink:title="(*github.com/guild&#45;framework/guild&#45;core/internal/integration/config.ServiceConfig).toChatUIServiceConfig | defined in service_config.go:465">
<path fill="lightblue" stroke="black" stroke-width="0.5" d="M674.7,-479C674.7,-479 393.66,-479 393.66,-479 387.66,-479 381.66,-473 381.66,-467 381.66,-467 381.66,-455 381.66,-455 381.66,-449 387.66,-443 393.66,-443 393.66,-443 674.7,-443 674.7,-443 680.7,-443 686.7,-449 686.7,-455 686.7,-455 686.7,-467 686.7,-467 686.7,-473 680.7,-479 674.7,-479"/>
<text xml:space="preserve" text-anchor="middle" x="534.18" y="-456.32" font-family="Verdana" font-size="14.00">(*ServiceConfig).toChatUIServiceConfig</text>
</a>
</g>
</g>
<!-- (*github.com/guild&#45;framework/guild&#45;core/internal/integration/config.ServiceConfig).ToServiceConfigs&#45;&gt;(*github.com/guild&#45;framework/guild&#45;core/internal/integration/config.ServiceConfig).toChatUIServiceConfig -->
<g id="edge5" class="edge">
<title>(*github.com/guild&#45;framework/guild&#45;core/internal/integration/config.ServiceConfig).ToServiceConfigs&#45;&gt;(*github.com/guild&#45;framework/guild&#45;core/internal/integration/config.ServiceConfig).toChatUIServiceConfig</title>
<g id="a_edge5"><a xlink:title="at service_config.go:395: calling [(*github.com/guild&#45;framework/guild&#45;core/internal/integration/config.ServiceConfig).toChatUIServiceConfig]">
<path fill="none" stroke="black" d="M164.97,-270.64C196.01,-307.92 271.55,-391.46 355.04,-431 361.46,-434.04 368.13,-436.78 374.97,-439.24"/>
<polygon fill="black" stroke="black" points="373.81,-442.54 384.4,-442.41 376.04,-435.9 373.81,-442.54"/>
</a>
</g>
</g>
<!-- (*github.com/guild&#45;framework/guild&#45;core/internal/integration/config.ServiceConfig).toDaemonServiceConfig -->
<g id="node8" class="node">
<title>(*github.com/guild&#45;framework/guild&#45;core/internal/integration/config.ServiceConfig).toDaemonServiceConfig</title>
<g id="a_node8"><a xlink:title="(*github.com/guild&#45;framework/guild&#45;core/internal/integration/config.ServiceConfig).toDaemonServiceConfig | defined in service_config.go:473">
<path fill="lightblue" stroke="black" stroke-width="0.5" d="M679.2,-52C679.2,-52 389.16,-52 389.16,-52 383.16,-52 377.16,-46 377.16,-40 377.16,-40 377.16,-28 377.16,-28 377.16,-22 383.16,-16 389.16,-16 389.16,-16 679.2,-16 679.2,-16 685.2,-16 691.2,-22 691.2,-28 691.2,-28 691.2,-40 691.2,-40 691.2,-46 685.2,-52 679.2,-52"/>
<text xml:space="preserve" text-anchor="middle" x="534.18" y="-29.32" font-family="Verdana" font-size="14.00">(*ServiceConfig).toDaemonServiceConfig</text>
</a>
</g>
</g>
<!-- (*github.com/guild&#45;framework/guild&#45;core/internal/integration/config.ServiceConfig).ToServiceConfigs&#45;&gt;(*github.com/guild&#45;framework/guild&#45;core/internal/integration/config.ServiceConfig).toDaemonServiceConfig -->
<g id="edge6" class="edge">
<title>(*github.com/guild&#45;framework/guild&#45;core/internal/integration/config.ServiceConfig).ToServiceConfigs&#45;&gt;(*github.com/guild&#45;framework/guild&#45;core/internal/integration/config.ServiceConfig).toDaemonServiceConfig</title>
<g id="a_edge6"><a xlink:title="at service_config.go:396: calling [(*github.com/guild&#45;framework/guild&#45;core/internal/integration/config.ServiceConfig).toDaemonServiceConfig]">
<path fill="none" stroke="black" d="M164.09,-233.44C194.35,-195 269.83,-106.78 355.04,-65 362.03,-61.57 369.34,-58.52 376.84,-55.79"/>
<polygon fill="black" stroke="black" points="377.78,-59.17 386.13,-52.65 375.53,-52.54 377.78,-59.17"/>
</a>
</g>
</g>
<!-- (*github.com/guild&#45;framework/guild&#45;core/internal/integration/config.ServiceConfig).toCorpusServiceConfig -->
<g id="node9" class="node">
<title>(*github.com/guild&#45;framework/guild&#45;core/internal/integration/config.ServiceConfig).toCorpusServiceConfig</title>
<g id="a_node9"><a xlink:title="(*github.com/guild&#45;framework/guild&#45;core/internal/integration/config.ServiceConfig).toCorpusServiceConfig | defined in service_config.go:491">
<path fill="lightblue" stroke="black" stroke-width="0.5" d="M675.08,-113C675.08,-113 393.29,-113 393.29,-113 387.29,-113 381.29,-107 381.29,-101 381.29,-101 381.29,-89 381.29,-89 381.29,-83 387.29,-77 393.29,-77 393.29,-77 675.08,-77 675.08,-77 681.08,-77 687.08,-83 687.08,-89 687.08,-89 687.08,-101 687.08,-101 687.08,-107 681.08,-113 675.08,-113"/>
<text xml:space="preserve" text-anchor="middle" x="534.18" y="-90.33" font-family="Verdana" font-size="14.00">(*ServiceConfig).toCorpusServiceConfig</text>
</a>
</g>
</g>
<!-- (*github.com/guild&#45;framework/guild&#45;core/internal/integration/config.ServiceConfig).ToServiceConfigs&#45;&gt;(*github.com/guild&#45;framework/guild&#45;core/internal/integration/config.ServiceConfig).toCorpusServiceConfig -->
<g id="edge19" class="edge">
<title>(*github.com/guild&#45;framework/guild&#45;core/internal/integration/config.ServiceConfig).ToServiceConfigs&#45;&gt;(*github.com/guild&#45;framework/guild&#45;core/internal/integration/config.ServiceConfig).toCorpusServiceConfig</title>
<g id="a_edge19"><a xlink:title="at service_config.go:397: calling [(*github.com/guild&#45;framework/guild&#45;core/internal/integration/config.ServiceConfig).toCorpusServiceConfig]">
<path fill="none" stroke="black" d="M173.38,-233.48C209.9,-205.53 283.73,-152.98 355.04,-126 364.96,-122.25 375.35,-118.95 385.94,-116.04"/>
<polygon fill="black" stroke="black" points="386.76,-119.45 395.56,-113.54 385,-112.67 386.76,-119.45"/>
</a>
</g>
</g>
<!-- github.com/guild&#45;framework/guild&#45;core/internal/integration/config.LoadServiceConfig -->
<g id="node10" class="node">
<title>github.com/guild&#45;framework/guild&#45;core/internal/integration/config.LoadServiceConfig</title>
<g id="a_node10"><a xlink:title="github.com/guild&#45;framework/guild&#45;core/internal/integration/config.LoadServiceConfig | defined in service_config.go:269&#10;at service_config.go:283: calling [(*github.com/guild&#45;framework/guild&#45;core/pkg/gerror.GuildError).WithComponent]&#10;at service_config.go:290: calling [(*github.com/guild&#45;framework/guild&#45;core/pkg/gerror.GuildError).WithComponent]&#10;at service_config.go:284: calling [(*github.com/guild&#45;framework/guild&#45;core/pkg/gerror.GuildError).WithDetails]&#10;at service_config.go:291: calling [(*github.com/guild&#45;framework/guild&#45;core/pkg/gerror.GuildError).WithDetails]&#10;at service_config.go:282: calling [github.com/guild&#45;framework/guild&#45;core/pkg/gerror.Wrap]&#10;at service_config.go:289: calling [github.com/guild&#45;framework/guild&#45;core/pkg/gerror.Wrap]&#10;at service_config.go:300: calling [(*github.com/guild&#45;framework/guild&#45;core/internal/integration/config.ServiceConfig).ApplyEnvironmentOverrides]&#10;at service_config.go:271: calling [github.com/guild&#45;framework/guild&#45;core/internal/integration/config.DefaultServiceConfig]&#10;at service_config.go:295: calling [(*github.com/guild&#45;framework/guild&#45;core/internal/integration/config.ServiceConfig).Validate]">
<path fill="lightblue" stroke="black" stroke-width="1.5" d="M213.41,-654C213.41,-654 84.62,-654 84.62,-654 78.62,-654 72.62,-648 72.62,-642 72.62,-642 72.62,-630 72.62,-630 72.62,-624 78.62,-618 84.62,-618 84.62,-618 213.41,-618 213.41,-618 219.41,-618 225.41,-624 225.41,-630 225.41,-630 225.41,-642 225.41,-642 225.41,-648 219.41,-654 213.41,-654"/>
<text xml:space="preserve" text-anchor="middle" x="149.02" y="-631.33" font-family="Verdana" font-size="14.00">LoadServiceConfig</text>
</a>
</g>
</g>
<!-- github.com/guild&#45;framework/guild&#45;core/internal/integration/config.DefaultServiceConfig -->
<g id="node11" class="node">
<title>github.com/guild&#45;framework/guild&#45;core/internal/integration/config.DefaultServiceConfig</title>
<g id="a_node11"><a xlink:title="github.com/guild&#45;framework/guild&#45;core/internal/integration/config.DefaultServiceConfig | defined in service_config.go:173">
<path fill="lightblue" stroke="black" stroke-width="1.5" d="M607.2,-567C607.2,-567 461.16,-567 461.16,-567 455.16,-567 449.16,-561 449.16,-555 449.16,-555 449.16,-543 449.16,-543 449.16,-537 455.16,-531 461.16,-531 461.16,-531 607.2,-531 607.2,-531 613.2,-531 619.2,-537 619.2,-543 619.2,-543 619.2,-555 619.2,-555 619.2,-561 613.2,-567 607.2,-567"/>
<text xml:space="preserve" text-anchor="middle" x="534.18" y="-544.33" font-family="Verdana" font-size="14.00">DefaultServiceConfig</text>
</a>
</g>
</g>
<!-- github.com/guild&#45;framework/guild&#45;core/internal/integration/config.LoadServiceConfig&#45;&gt;github.com/guild&#45;framework/guild&#45;core/internal/integration/config.DefaultServiceConfig -->
<g id="edge13" class="edge">
<title>github.com/guild&#45;framework/guild&#45;core/internal/integration/config.LoadServiceConfig&#45;&gt;github.com/guild&#45;framework/guild&#45;core/internal/integration/config.DefaultServiceConfig</title>
<g id="a_edge13"><a xlink:title="at service_config.go:271: calling [github.com/guild&#45;framework/guild&#45;core/internal/integration/config.DefaultServiceConfig]">
<path fill="none" stroke="black" d="M212.45,-617.3C252.87,-605.6 306.78,-590.76 355.04,-580 381.58,-574.08 410.56,-568.62 437.28,-563.98"/>
<polygon fill="black" stroke="black" points="437.83,-567.44 447.09,-562.3 436.65,-560.54 437.83,-567.44"/>
</a>
</g>
</g>
<!-- (*github.com/guild&#45;framework/guild&#45;core/internal/integration/config.ServiceConfig).Validate -->
<g id="node12" class="node">
<title>(*github.com/guild&#45;framework/guild&#45;core/internal/integration/config.ServiceConfig).Validate</title>
<g id="a_node12"><a xlink:title="(*github.com/guild&#45;framework/guild&#45;core/internal/integration/config.ServiceConfig).Validate | defined in service_config.go:337&#10;at service_config.go:348: calling [(*github.com/guild&#45;framework/guild&#45;core/pkg/gerror.GuildError).WithDetails]&#10;at service_config.go:341: calling [(*github.com/guild&#45;framework/guild&#45;core/pkg/gerror.GuildError).WithComponent]&#10;at service_config.go:347: calling [(*github.com/guild&#45;framework/guild&#45;core/pkg/gerror.GuildError).WithComponent]&#10;at service_config.go:354: calling [(*github.com/guild&#45;framework/guild&#45;core/pkg/gerror.GuildError).WithComponent]&#10;at service_config.go:340: calling [github.com/guild&#45;framework/guild&#45;core/pkg/gerror.New]&#10;at service_config.go:346: calling [github.com/guild&#45;framework/guild&#45;core/pkg/gerror.New]&#10;at service_config.go:353: calling [github.com/guild&#45;framework/guild&#45;core/pkg/gerror.New]">
<path fill="lightblue" stroke="black" stroke-width="1.5" d="M622.95,-628C622.95,-628 445.41,-628 445.41,-628 439.41,-628 433.41,-622 433.41,-616 433.41,-616 433.41,-604 433.41,-604 433.41,-598 439.41,-592 445.41,-592 445.41,-592 622.95,-592 622.95,-592 628.95,-592 634.95,-598 634.95,-604 634.95,-604 634.95,-616 634.95,-616 634.95,-622 628.95,-628 622.95,-628"/>
<text xml:space="preserve" text-anchor="middle" x="534.18" y="-605.33" font-family="Verdana" font-size="14.00">(*ServiceConfig).Validate</text>
</a>
</g>
</g>
<!-- github.com/guild&#45;framework/guild&#45;core/internal/integration/config.LoadServiceConfig&#45;&gt;(*github.com/guild&#45;framework/guild&#45;core/internal/integration/config.ServiceConfig).Validate -->
<g id="edge15" class="edge">
<title>github.com/guild&#45;framework/guild&#45;core/internal/integration/config.LoadServiceConfig&#45;&gt;(*github.com/guild&#45;framework/guild&#45;core/internal/integration/config.ServiceConfig).Validate</title>
<g id="a_edge15"><a xlink:title="at service_config.go:295: calling [(*github.com/guild&#45;framework/guild&#45;core/internal/integration/config.ServiceConfig).Validate]">
<path fill="none" stroke="black" d="M225.72,-630.86C281.68,-627.07 358.78,-621.83 421.77,-617.56"/>
<polygon fill="black" stroke="black" points="421.7,-621.07 431.44,-616.9 421.23,-614.09 421.7,-621.07"/>
</a>
</g>
</g>
<!-- (*github.com/guild&#45;framework/guild&#45;core/internal/integration/config.ServiceConfig).ApplyEnvironmentOverrides -->
<g id="node13" class="node">
<title>(*github.com/guild&#45;framework/guild&#45;core/internal/integration/config.ServiceConfig).ApplyEnvironmentOverrides</title>
<g id="a_node13"><a xlink:title="(*github.com/guild&#45;framework/guild&#45;core/internal/integration/config.ServiceConfig).ApplyEnvironmentOverrides | defined in service_config.go:361">
<path fill="lightblue" stroke="black" stroke-width="1.5" d="M693.83,-689C693.83,-689 374.54,-689 374.54,-689 368.54,-689 362.54,-683 362.54,-677 362.54,-677 362.54,-665 362.54,-665 362.54,-659 368.54,-653 374.54,-653 374.54,-653 693.83,-653 693.83,-653 699.83,-653 705.83,-659 705.83,-665 705.83,-665 705.83,-677 705.83,-677 705.83,-683 699.83,-689 693.83,-689"/>
<text xml:space="preserve" text-anchor="middle" x="534.18" y="-666.33" font-family="Verdana" font-size="14.00">(*ServiceConfig).ApplyEnvironmentOverrides</text>
</a>
</g>
</g>
<!-- github.com/guild&#45;framework/guild&#45;core/internal/integration/config.LoadServiceConfig&#45;&gt;(*github.com/guild&#45;framework/guild&#45;core/internal/integration/config.ServiceConfig).ApplyEnvironmentOverrides -->
<g id="edge9" class="edge">
<title>github.com/guild&#45;framework/guild&#45;core/internal/integration/config.LoadServiceConfig&#45;&gt;(*github.com/guild&#45;framework/guild&#45;core/internal/integration/config.ServiceConfig).ApplyEnvironmentOverrides</title>
<g id="a_edge9"><a xlink:title="at service_config.go:300: calling [(*github.com/guild&#45;framework/guild&#45;core/internal/integration/config.ServiceConfig).ApplyEnvironmentOverrides]">
<path fill="none" stroke="black" d="M225.72,-642.91C261.81,-646.21 306.69,-650.31 350.91,-654.35"/>
<polygon fill="black" stroke="black" points="350.34,-657.81 360.62,-655.24 350.98,-650.84 350.34,-657.81"/>
</a>
</g>
</g>
<!-- github.com/guild&#45;framework/guild&#45;core/pkg/gerror.Wrap -->
<g id="node15" class="node">
<title>github.com/guild&#45;framework/guild&#45;core/pkg/gerror.Wrap</title>
<g id="a_node15"><a xlink:title="github.com/guild&#45;framework/guild&#45;core/pkg/gerror.Wrap | defined in errors.go:223">
<path fill="moccasin" stroke="black" stroke-width="1.5" d="M920.37,-768C920.37,-768 884.58,-768 884.58,-768 878.58,-768 872.58,-762 872.58,-756 872.58,-756 872.58,-744 872.58,-744 872.58,-738 878.58,-732 884.58,-732 884.58,-732 920.37,-732 920.37,-732 926.37,-732 932.37,-738 932.37,-744 932.37,-744 932.37,-756 932.37,-756 932.37,-762 926.37,-768 920.37,-768"/>
<text xml:space="preserve" text-anchor="middle" x="902.47" y="-745.33" font-family="Verdana" font-size="14.00">Wrap</text>
</a>
</g>
</g>
<!-- github.com/guild&#45;framework/guild&#45;core/internal/integration/config.LoadServiceConfig&#45;&gt;github.com/guild&#45;framework/guild&#45;core/pkg/gerror.Wrap -->
<g id="edge8" class="edge">
<title>github.com/guild&#45;framework/guild&#45;core/internal/integration/config.LoadServiceConfig&#45;&gt;github.com/guild&#45;framework/guild&#45;core/pkg/gerror.Wrap</title>
<g id="a_edge8"><a xlink:title="at service_config.go:282: calling [github.com/guild&#45;framework/guild&#45;core/pkg/gerror.Wrap]&#10;at service_config.go:289: calling [github.com/guild&#45;framework/guild&#45;core/pkg/gerror.Wrap]">
<path fill="none" stroke="saddlebrown" d="M166.6,-654.72C198.79,-689.46 273.75,-762.87 355.04,-790 536.07,-850.42 768.97,-791.57 861.25,-763.28"/>
<polygon fill="saddlebrown" stroke="saddlebrown" points="862.1,-766.68 870.61,-760.36 860.02,-760 862.1,-766.68"/>
</a>
</g>
</g>
<!-- (*github.com/guild&#45;framework/guild&#45;core/pkg/gerror.GuildError).WithComponent -->
<g id="node16" class="node">
<title>(*github.com/guild&#45;framework/guild&#45;core/pkg/gerror.GuildError).WithComponent</title>
<g id="a_node16"><a xlink:title="(*github.com/guild&#45;framework/guild&#45;core/pkg/gerror.GuildError).WithComponent | defined in errors.go:156">
<path fill="moccasin" stroke="black" stroke-width="1.5" d="M1006.62,-707C1006.62,-707 798.33,-707 798.33,-707 792.33,-707 786.33,-701 786.33,-695 786.33,-695 786.33,-683 786.33,-683 786.33,-677 792.33,-671 798.33,-671 798.33,-671 1006.62,-671 1006.62,-671 1012.62,-671 1018.62,-677 1018.62,-683 1018.62,-683 1018.62,-695 1018.62,-695 1018.62,-701 1012.62,-707 1006.62,-707"/>
<text xml:space="preserve" text-anchor="middle" x="902.47" y="-684.33" font-family="Verdana" font-size="14.00">(*GuildError).WithComponent</text>
</a>
</g>
</g>
<!-- github.com/guild&#45;framework/guild&#45;core/internal/integration/config.LoadServiceConfig&#45;&gt;(*github.com/guild&#45;framework/guild&#45;core/pkg/gerror.GuildError).WithComponent -->
<g id="edge1" class="edge">
<title>github.com/guild&#45;framework/guild&#45;core/internal/integration/config.LoadServiceConfig&#45;&gt;(*github.com/guild&#45;framework/guild&#45;core/pkg/gerror.GuildError).WithComponent</title>
<g id="a_edge1"><a xlink:title="at service_config.go:283: calling [(*github.com/guild&#45;framework/guild&#45;core/pkg/gerror.GuildError).WithComponent]&#10;at service_config.go:290: calling [(*github.com/guild&#45;framework/guild&#45;core/pkg/gerror.GuildError).WithComponent]">
<path fill="none" stroke="saddlebrown" d="M194.24,-654.67C235.11,-670.86 297.97,-693.04 355.04,-702 497.45,-724.36 663.25,-715.6 774.55,-704.79"/>
<polygon fill="saddlebrown" stroke="saddlebrown" points="774.71,-708.29 784.31,-703.82 774.02,-701.32 774.71,-708.29"/>
</a>
</g>
</g>
<!-- (*github.com/guild&#45;framework/guild&#45;core/pkg/gerror.GuildError).WithDetails -->
<g id="node17" class="node">
<title>(*github.com/guild&#45;framework/guild&#45;core/pkg/gerror.GuildError).WithDetails</title>
<g id="a_node17"><a xlink:title="(*github.com/guild&#45;framework/guild&#45;core/pkg/gerror.GuildError).WithDetails | defined in errors.go:147">
<path fill="moccasin" stroke="black" stroke-width="1.5" d="M990.12,-585C990.12,-585 814.83,-585 814.83,-585 808.83,-585 802.83,-579 802.83,-573 802.83,-573 802.83,-561 802.83,-561 802.83,-555 808.83,-549 814.83,-549 814.83,-549 990.12,-549 990.12,-549 996.12,-549 1002.12,-555 1002.12,-561 1002.12,-561 1002.12,-573 1002.12,-573 1002.12,-579 996.12,-585 990.12,-585"/>
<text xml:space="preserve" text-anchor="middle" x="902.47" y="-562.33" font-family="Verdana" font-size="14.00">(*GuildError).WithDetails</text>
</a>
</g>
</g>
<!-- github.com/guild&#45;framework/guild&#45;core/internal/integration/config.LoadServiceConfig&#45;&gt;(*github.com/guild&#45;framework/guild&#45;core/pkg/gerror.GuildError).WithDetails -->
<g id="edge7" class="edge">
<title>github.com/guild&#45;framework/guild&#45;core/internal/integration/config.LoadServiceConfig&#45;&gt;(*github.com/guild&#45;framework/guild&#45;core/pkg/gerror.GuildError).WithDetails</title>
<g id="a_edge7"><a xlink:title="at service_config.go:284: calling [(*github.com/guild&#45;framework/guild&#45;core/pkg/gerror.GuildError).WithDetails]&#10;at service_config.go:291: calling [(*github.com/guild&#45;framework/guild&#45;core/pkg/gerror.GuildError).WithDetails]">
<path fill="none" stroke="saddlebrown" d="M173.14,-617.35C209.33,-589.47 282.75,-538.18 355.04,-519 521.07,-474.96 724.39,-516.8 830.04,-545.37"/>
<polygon fill="saddlebrown" stroke="saddlebrown" points="828.86,-548.68 839.43,-547.95 830.71,-541.93 828.86,-548.68"/>
</a>
</g>
</g>
<!-- (*github.com/guild&#45;framework/guild&#45;core/internal/integration/config.ServiceConfig).Validate&#45;&gt;(*github.com/guild&#45;framework/guild&#45;core/pkg/gerror.GuildError).WithComponent -->
<g id="edge10" class="edge">
<title>(*github.com/guild&#45;framework/guild&#45;core/internal/integration/config.ServiceConfig).Validate&#45;&gt;(*github.com/guild&#45;framework/guild&#45;core/pkg/gerror.GuildError).WithComponent</title>
<g id="a_edge10"><a xlink:title="at service_config.go:341: calling [(*github.com/guild&#45;framework/guild&#45;core/pkg/gerror.GuildError).WithComponent]&#10;at service_config.go:347: calling [(*github.com/guild&#45;framework/guild&#45;core/pkg/gerror.GuildError).WithComponent]&#10;at service_config.go:354: calling [(*github.com/guild&#45;framework/guild&#45;core/pkg/gerror.GuildError).WithComponent]">
<path fill="none" stroke="saddlebrown" d="M635.4,-625.67C660.91,-630.14 688.22,-635.35 713.33,-641 742.58,-647.58 749.32,-651.45 778.33,-659 789.3,-661.86 800.85,-664.78 812.29,-667.62"/>
<polygon fill="saddlebrown" stroke="saddlebrown" points="811.19,-670.96 821.74,-669.96 812.87,-664.16 811.19,-670.96"/>
</a>
</g>
</g>
<!-- (*github.com/guild&#45;framework/guild&#45;core/internal/integration/config.ServiceConfig).Validate&#45;&gt;(*github.com/guild&#45;framework/guild&#45;core/pkg/gerror.GuildError).WithDetails -->
<g id="edge2" class="edge">
<title>(*github.com/guild&#45;framework/guild&#45;core/internal/integration/config.ServiceConfig).Validate&#45;&gt;(*github.com/guild&#45;framework/guild&#45;core/pkg/gerror.GuildError).WithDetails</title>
<g id="a_edge2"><a xlink:title="at service_config.go:348: calling [(*github.com/guild&#45;framework/guild&#45;core/pkg/gerror.GuildError).WithDetails]">
<path fill="none" stroke="saddlebrown" d="M635.28,-598.25C683.42,-592.6 741.28,-585.81 790.74,-580"/>
<polygon fill="saddlebrown" stroke="saddlebrown" points="791.11,-583.48 800.64,-578.84 790.3,-576.53 791.11,-583.48"/>
</a>
</g>
</g>
<!-- github.com/guild&#45;framework/guild&#45;core/pkg/gerror.New -->
<g id="node18" class="node">
<title>github.com/guild&#45;framework/guild&#45;core/pkg/gerror.New</title>
<g id="a_node18"><a xlink:title="github.com/guild&#45;framework/guild&#45;core/pkg/gerror.New | defined in errors.go:190">
<path fill="moccasin" stroke="black" stroke-width="1.5" d="M917.47,-646C917.47,-646 887.47,-646 887.47,-646 881.47,-646 875.47,-640 875.47,-634 875.47,-634 875.47,-622 875.47,-622 875.47,-616 881.47,-610 887.47,-610 887.47,-610 917.47,-610 917.47,-610 923.47,-610 929.47,-616 929.47,-622 929.47,-622 929.47,-634 929.47,-634 929.47,-640 923.47,-646 917.47,-646"/>
<text xml:space="preserve" text-anchor="middle" x="902.47" y="-623.33" font-family="Verdana" font-size="14.00">New</text>
</a>
</g>
</g>
<!-- (*github.com/guild&#45;framework/guild&#45;core/internal/integration/config.ServiceConfig).Validate&#45;&gt;github.com/guild&#45;framework/guild&#45;core/pkg/gerror.New -->
<g id="edge14" class="edge">
<title>(*github.com/guild&#45;framework/guild&#45;core/internal/integration/config.ServiceConfig).Validate&#45;&gt;github.com/guild&#45;framework/guild&#45;core/pkg/gerror.New</title>
<g id="a_edge14"><a xlink:title="at service_config.go:340: calling [github.com/guild&#45;framework/guild&#45;core/pkg/gerror.New]&#10;at service_config.go:346: calling [github.com/guild&#45;framework/guild&#45;core/pkg/gerror.New]&#10;at service_config.go:353: calling [github.com/guild&#45;framework/guild&#45;core/pkg/gerror.New]">
<path fill="none" stroke="saddlebrown" d="M635.28,-614.92C710.7,-618.62 809.96,-623.5 863.43,-626.13"/>
<polygon fill="saddlebrown" stroke="saddlebrown" points="863.07,-629.62 873.23,-626.61 863.42,-622.63 863.07,-629.62"/>
</a>
</g>
</g>
<!-- github.com/guild&#45;framework/guild&#45;core/internal/integration/config.SaveServiceConfig -->
<g id="node14" class="node">
<title>github.com/guild&#45;framework/guild&#45;core/internal/integration/config.SaveServiceConfig</title>
<g id="a_node14"><a xlink:title="github.com/guild&#45;framework/guild&#45;core/internal/integration/config.SaveServiceConfig | defined in service_config.go:306&#10;at service_config.go:311: calling [(*github.com/guild&#45;framework/guild&#45;core/pkg/gerror.GuildError).WithComponent]&#10;at service_config.go:318: calling [(*github.com/guild&#45;framework/guild&#45;core/pkg/gerror.GuildError).WithComponent]&#10;at service_config.go:325: calling [(*github.com/guild&#45;framework/guild&#45;core/pkg/gerror.GuildError).WithComponent]&#10;at service_config.go:330: calling [(*github.com/guild&#45;framework/guild&#45;core/pkg/gerror.GuildError).WithComponent]&#10;at service_config.go:310: calling [github.com/guild&#45;framework/guild&#45;core/pkg/gerror.Wrap]&#10;at service_config.go:317: calling [github.com/guild&#45;framework/guild&#45;core/pkg/gerror.Wrap]&#10;at service_config.go:324: calling [github.com/guild&#45;framework/guild&#45;core/pkg/gerror.Wrap]&#10;at service_config.go:329: calling [github.com/guild&#45;framework/guild&#45;core/pkg/gerror.Wrap]">
<path fill="lightblue" stroke="black" stroke-width="1.5" d="M599.33,-777C599.33,-777 469.04,-777 469.04,-777 463.04,-777 457.04,-771 457.04,-765 457.04,-765 457.04,-753 457.04,-753 457.04,-747 463.04,-741 469.04,-741 469.04,-741 599.33,-741 599.33,-741 605.33,-741 611.33,-747 611.33,-753 611.33,-753 611.33,-765 611.33,-765 611.33,-771 605.33,-777 599.33,-777"/>
<text xml:space="preserve" text-anchor="middle" x="534.18" y="-754.33" font-family="Verdana" font-size="14.00">SaveServiceConfig</text>
</a>
</g>
</g>
<!-- github.com/guild&#45;framework/guild&#45;core/internal/integration/config.SaveServiceConfig&#45;&gt;github.com/guild&#45;framework/guild&#45;core/pkg/gerror.Wrap -->
<g id="edge16" class="edge">
<title>github.com/guild&#45;framework/guild&#45;core/internal/integration/config.SaveServiceConfig&#45;&gt;github.com/guild&#45;framework/guild&#45;core/pkg/gerror.Wrap</title>
<g id="a_edge16"><a xlink:title="at service_config.go:310: calling [github.com/guild&#45;framework/guild&#45;core/pkg/gerror.Wrap]&#10;at service_config.go:317: calling [github.com/guild&#45;framework/guild&#45;core/pkg/gerror.Wrap]&#10;at service_config.go:324: calling [github.com/guild&#45;framework/guild&#45;core/pkg/gerror.Wrap]&#10;at service_config.go:329: calling [github.com/guild&#45;framework/guild&#45;core/pkg/gerror.Wrap]">
<path fill="none" stroke="saddlebrown" d="M611.97,-757.11C687.89,-755.25 801.11,-752.47 860.98,-750.99"/>
<polygon fill="saddlebrown" stroke="saddlebrown" points="860.79,-754.5 870.7,-750.76 860.62,-747.5 860.79,-754.5"/>
</a>
</g>
</g>
<!-- github.com/guild&#45;framework/guild&#45;core/internal/integration/config.SaveServiceConfig&#45;&gt;(*github.com/guild&#45;framework/guild&#45;core/pkg/gerror.GuildError).WithComponent -->
<g id="edge3" class="edge">
<title>github.com/guild&#45;framework/guild&#45;core/internal/integration/config.SaveServiceConfig&#45;&gt;(*github.com/guild&#45;framework/guild&#45;core/pkg/gerror.GuildError).WithComponent</title>
<g id="a_edge3"><a xlink:title="at service_config.go:311: calling [(*github.com/guild&#45;framework/guild&#45;core/pkg/gerror.GuildError).WithComponent]&#10;at service_config.go:318: calling [(*github.com/guild&#45;framework/guild&#45;core/pkg/gerror.GuildError).WithComponent]&#10;at service_config.go:325: calling [(*github.com/guild&#45;framework/guild&#45;core/pkg/gerror.GuildError).WithComponent]&#10;at service_config.go:330: calling [(*github.com/guild&#45;framework/guild&#45;core/pkg/gerror.GuildError).WithComponent]">
<path fill="none" stroke="saddlebrown" d="M612.01,-746.64C653.12,-739.81 704.58,-730.92 750.33,-722 768.95,-718.37 788.8,-714.23 807.79,-710.14"/>
<polygon fill="saddlebrown" stroke="saddlebrown" points="808.34,-713.6 817.37,-708.06 806.86,-706.76 808.34,-713.6"/>
</a>
</g>
</g>
</g>
</svg>
