<?xml version="1.0" encoding="UTF-8" standalone="no"?>
<!DOCTYPE svg PUBLIC "-//W3C//DTD SVG 1.1//EN"
 "http://www.w3.org/Graphics/SVG/1.1/DTD/svg11.dtd">
<!-- Generated by graphviz version 14.1.1 (20251213.1925)
 -->
<!-- Title: gocallvis Pages: 1 -->
<svg width="498pt" height="953pt"
 viewBox="0.00 0.00 498.00 953.00" xmlns="http://www.w3.org/2000/svg" xmlns:xlink="http://www.w3.org/1999/xlink">
<g id="graph0" class="graph" transform="scale(1 1) rotate(0) translate(0 953)">
<title>gocallvis</title>
<polygon fill="lightgray" stroke="none" points="0,0 0,-953 498.37,-953 498.37,0 0,0"/>
<g id="clust1" class="cluster">
<title>cluster_focus</title>
<polygon fill="#e6ecfa" stroke="black" stroke-width="0.5" points="8,-8 8,-945 490.37,-945 490.37,-8 8,-8"/>
<text xml:space="preserve" text-anchor="middle" x="249.18" y="-923.9" font-family="Arial" font-size="18.00">main</text>
</g>
<g id="clust2" class="cluster">
<title>cluster_github.com/guild&#45;framework/guild&#45;core/internal/buildutil/tasks</title>
<g id="a_clust2"><a xlink:href="/?f=github.com/guild-framework/guild-core/internal/buildutil/tasks" xlink:title="package: github.com/guild&#45;framework/guild&#45;core/internal/buildutil/tasks">
<polygon fill="lightyellow" stroke="black" stroke-width="0.8" points="146.41,-69 146.41,-698 281.45,-698 281.45,-69 146.41,-69"/>
<text xml:space="preserve" text-anchor="middle" x="213.93" y="-678.8" font-family="Tahoma bold" font-size="16.00">tasks</text>
</a>
</g>
</g>
<g id="clust3" class="cluster">
<title>cluster_github.com/guild&#45;framework/guild&#45;core/internal/buildutil/ui</title>
<g id="a_clust3"><a xlink:href="/?f=github.com/guild-framework/guild-core/internal/buildutil/ui" xlink:title="package: github.com/guild&#45;framework/guild&#45;core/internal/buildutil/ui">
<polygon fill="lightyellow" stroke="black" stroke-width="0.8" points="143.79,-706 143.79,-908 284.08,-908 284.08,-706 143.79,-706"/>
<text xml:space="preserve" text-anchor="middle" x="213.93" y="-888.8" font-family="Tahoma bold" font-size="16.00">ui</text>
</a>
</g>
</g>
<!-- github.com/guild&#45;framework/guild&#45;core/internal/buildutil.showDashboard -->
<g id="node1" class="node">
<title>github.com/guild&#45;framework/guild&#45;core/internal/buildutil.showDashboard</title>
<g id="a_node1"><a xlink:title="github.com/guild&#45;framework/guild&#45;core/internal/buildutil.showDashboard | defined in main.go:174&#10;at main.go:180: calling [github.com/guild&#45;framework/guild&#45;core/internal/buildutil.termSize]&#10;at main.go:195: calling [github.com/guild&#45;framework/guild&#45;core/internal/buildutil.getTestStatus]&#10;at main.go:186: calling [github.com/guild&#45;framework/guild&#45;core/internal/buildutil.getLastCommit]&#10;at main.go:183: calling [github.com/guild&#45;framework/guild&#45;core/internal/buildutil.drawBox]&#10;at main.go:192: calling [github.com/guild&#45;framework/guild&#45;core/internal/buildutil.drawBox]&#10;at main.go:196: calling [github.com/guild&#45;framework/guild&#45;core/internal/buildutil.drawBox]&#10;at main.go:199: calling [github.com/guild&#45;framework/guild&#45;core/internal/buildutil.drawBox]&#10;at main.go:191: calling [github.com/guild&#45;framework/guild&#45;core/internal/buildutil.getBuildStatus]&#10;at main.go:184: calling [github.com/guild&#45;framework/guild&#45;core/internal/buildutil.getVersion]&#10;at main.go:185: calling [github.com/guild&#45;framework/guild&#45;core/internal/buildutil.getGitBranch]">
<path fill="lightblue" stroke="black" stroke-width="0.5" d="M269.33,-52C269.33,-52 158.54,-52 158.54,-52 152.54,-52 146.54,-46 146.54,-40 146.54,-40 146.54,-28 146.54,-28 146.54,-22 152.54,-16 158.54,-16 158.54,-16 269.33,-16 269.33,-16 275.33,-16 281.33,-22 281.33,-28 281.33,-28 281.33,-40 281.33,-40 281.33,-46 275.33,-52 269.33,-52"/>
<text xml:space="preserve" text-anchor="middle" x="213.93" y="-29.32" font-family="Verdana" font-size="14.00">showDashboard</text>
</a>
</g>
</g>
<!-- github.com/guild&#45;framework/guild&#45;core/internal/buildutil.termSize -->
<g id="node2" class="node">
<title>github.com/guild&#45;framework/guild&#45;core/internal/buildutil.termSize</title>
<g id="a_node2"><a xlink:title="github.com/guild&#45;framework/guild&#45;core/internal/buildutil.termSize | defined in main.go:211">
<path fill="lightblue" stroke="black" stroke-width="0.5" d="M448.99,-52C448.99,-52 387.7,-52 387.7,-52 381.7,-52 375.7,-46 375.7,-40 375.7,-40 375.7,-28 375.7,-28 375.7,-22 381.7,-16 387.7,-16 387.7,-16 448.99,-16 448.99,-16 454.99,-16 460.99,-22 460.99,-28 460.99,-28 460.99,-40 460.99,-40 460.99,-46 454.99,-52 448.99,-52"/>
<text xml:space="preserve" text-anchor="middle" x="418.35" y="-29.32" font-family="Verdana" font-size="14.00">termSize</text>
</a>
</g>
</g>
<!-- github.com/guild&#45;framework/guild&#45;core/internal/buildutil.showDashboard&#45;&gt;github.com/guild&#45;framework/guild&#45;core/internal/buildutil.termSize -->
<g id="edge7" class="edge">
<title>github.com/guild&#45;framework/guild&#45;core/internal/buildutil.showDashboard&#45;&gt;github.com/guild&#45;framework/guild&#45;core/internal/buildutil.termSize</title>
<g id="a_edge7"><a xlink:title="at main.go:180: calling [github.com/guild&#45;framework/guild&#45;core/internal/buildutil.termSize]">
<path fill="none" stroke="black" d="M281.49,-34C308.37,-34 338.96,-34 364.3,-34"/>
<polygon fill="black" stroke="black" points="364.02,-37.5 374.02,-34 364.02,-30.5 364.02,-37.5"/>
</a>
</g>
</g>
<!-- github.com/guild&#45;framework/guild&#45;core/internal/buildutil.getVersion -->
<g id="node3" class="node">
<title>github.com/guild&#45;framework/guild&#45;core/internal/buildutil.getVersion</title>
<g id="a_node3"><a xlink:title="github.com/guild&#45;framework/guild&#45;core/internal/buildutil.getVersion | defined in main.go:244">
<path fill="lightblue" stroke="black" stroke-width="0.5" d="M454.99,-113C454.99,-113 381.7,-113 381.7,-113 375.7,-113 369.7,-107 369.7,-101 369.7,-101 369.7,-89 369.7,-89 369.7,-83 375.7,-77 381.7,-77 381.7,-77 454.99,-77 454.99,-77 460.99,-77 466.99,-83 466.99,-89 466.99,-89 466.99,-101 466.99,-101 466.99,-107 460.99,-113 454.99,-113"/>
<text xml:space="preserve" text-anchor="middle" x="418.35" y="-90.33" font-family="Verdana" font-size="14.00">getVersion</text>
</a>
</g>
</g>
<!-- github.com/guild&#45;framework/guild&#45;core/internal/buildutil.showDashboard&#45;&gt;github.com/guild&#45;framework/guild&#45;core/internal/buildutil.getVersion -->
<g id="edge20" class="edge">
<title>github.com/guild&#45;framework/guild&#45;core/internal/buildutil.showDashboard&#45;&gt;github.com/guild&#45;framework/guild&#45;core/internal/buildutil.getVersion</title>
<g id="a_edge20"><a xlink:title="at main.go:184: calling [github.com/guild&#45;framework/guild&#45;core/internal/buildutil.getVersion]">
<path fill="none" stroke="black" d="M275.39,-52.22C301.79,-60.18 332.63,-69.47 358.81,-77.36"/>
<polygon fill="black" stroke="black" points="357.69,-80.68 368.27,-80.21 359.71,-73.97 357.69,-80.68"/>
</a>
</g>
</g>
<!-- github.com/guild&#45;framework/guild&#45;core/internal/buildutil.getGitBranch -->
<g id="node4" class="node">
<title>github.com/guild&#45;framework/guild&#45;core/internal/buildutil.getGitBranch</title>
<g id="a_node4"><a xlink:title="github.com/guild&#45;framework/guild&#45;core/internal/buildutil.getGitBranch | defined in main.go:253">
<path fill="lightblue" stroke="black" stroke-width="0.5" d="M463.62,-174C463.62,-174 373.08,-174 373.08,-174 367.08,-174 361.08,-168 361.08,-162 361.08,-162 361.08,-150 361.08,-150 361.08,-144 367.08,-138 373.08,-138 373.08,-138 463.62,-138 463.62,-138 469.62,-138 475.62,-144 475.62,-150 475.62,-150 475.62,-162 475.62,-162 475.62,-168 469.62,-174 463.62,-174"/>
<text xml:space="preserve" text-anchor="middle" x="418.35" y="-151.32" font-family="Verdana" font-size="14.00">getGitBranch</text>
</a>
</g>
</g>
<!-- github.com/guild&#45;framework/guild&#45;core/internal/buildutil.showDashboard&#45;&gt;github.com/guild&#45;framework/guild&#45;core/internal/buildutil.getGitBranch -->
<g id="edge21" class="edge">
<title>github.com/guild&#45;framework/guild&#45;core/internal/buildutil.showDashboard&#45;&gt;github.com/guild&#45;framework/guild&#45;core/internal/buildutil.getGitBranch</title>
<g id="a_edge21"><a xlink:title="at main.go:185: calling [github.com/guild&#45;framework/guild&#45;core/internal/buildutil.getGitBranch]">
<path fill="none" stroke="black" d="M263.96,-52.14C270.9,-55.39 277.81,-59.03 284.08,-63 319.52,-85.42 319.43,-102.75 354.33,-126 357.61,-128.18 361.07,-130.29 364.61,-132.32"/>
<polygon fill="black" stroke="black" points="362.94,-135.39 373.4,-137.06 366.26,-129.23 362.94,-135.39"/>
</a>
</g>
</g>
<!-- github.com/guild&#45;framework/guild&#45;core/internal/buildutil.getLastCommit -->
<g id="node5" class="node">
<title>github.com/guild&#45;framework/guild&#45;core/internal/buildutil.getLastCommit</title>
<g id="a_node5"><a xlink:title="github.com/guild&#45;framework/guild&#45;core/internal/buildutil.getLastCommit | defined in main.go:261">
<path fill="lightblue" stroke="black" stroke-width="0.5" d="M470.37,-235C470.37,-235 366.33,-235 366.33,-235 360.33,-235 354.33,-229 354.33,-223 354.33,-223 354.33,-211 354.33,-211 354.33,-205 360.33,-199 366.33,-199 366.33,-199 470.37,-199 470.37,-199 476.37,-199 482.37,-205 482.37,-211 482.37,-211 482.37,-223 482.37,-223 482.37,-229 476.37,-235 470.37,-235"/>
<text xml:space="preserve" text-anchor="middle" x="418.35" y="-212.32" font-family="Verdana" font-size="14.00">getLastCommit</text>
</a>
</g>
</g>
<!-- github.com/guild&#45;framework/guild&#45;core/internal/buildutil.showDashboard&#45;&gt;github.com/guild&#45;framework/guild&#45;core/internal/buildutil.getLastCommit -->
<g id="edge15" class="edge">
<title>github.com/guild&#45;framework/guild&#45;core/internal/buildutil.showDashboard&#45;&gt;github.com/guild&#45;framework/guild&#45;core/internal/buildutil.getLastCommit</title>
<g id="a_edge15"><a xlink:title="at main.go:186: calling [github.com/guild&#45;framework/guild&#45;core/internal/buildutil.getLastCommit]">
<path fill="none" stroke="black" d="M268.45,-52.11C274.06,-55.24 279.41,-58.85 284.08,-63 331.44,-105.06 307.98,-143.83 354.33,-187 356.42,-188.95 358.67,-190.8 361.02,-192.54"/>
<polygon fill="black" stroke="black" points="358.96,-195.38 369.24,-197.94 362.8,-189.52 358.96,-195.38"/>
</a>
</g>
</g>
<!-- github.com/guild&#45;framework/guild&#45;core/internal/buildutil.drawBox -->
<g id="node6" class="node">
<title>github.com/guild&#45;framework/guild&#45;core/internal/buildutil.drawBox</title>
<g id="a_node6"><a xlink:title="github.com/guild&#45;framework/guild&#45;core/internal/buildutil.drawBox | defined in main.go:222">
<path fill="lightblue" stroke="black" stroke-width="0.5" d="M448.24,-296C448.24,-296 388.45,-296 388.45,-296 382.45,-296 376.45,-290 376.45,-284 376.45,-284 376.45,-272 376.45,-272 376.45,-266 382.45,-260 388.45,-260 388.45,-260 448.24,-260 448.24,-260 454.24,-260 460.24,-266 460.24,-272 460.24,-272 460.24,-284 460.24,-284 460.24,-290 454.24,-296 448.24,-296"/>
<text xml:space="preserve" text-anchor="middle" x="418.35" y="-273.32" font-family="Verdana" font-size="14.00">drawBox</text>
</a>
</g>
</g>
<!-- github.com/guild&#45;framework/guild&#45;core/internal/buildutil.showDashboard&#45;&gt;github.com/guild&#45;framework/guild&#45;core/internal/buildutil.drawBox -->
<g id="edge16" class="edge">
<title>github.com/guild&#45;framework/guild&#45;core/internal/buildutil.showDashboard&#45;&gt;github.com/guild&#45;framework/guild&#45;core/internal/buildutil.drawBox</title>
<g id="a_edge16"><a xlink:title="at main.go:183: calling [github.com/guild&#45;framework/guild&#45;core/internal/buildutil.drawBox]&#10;at main.go:192: calling [github.com/guild&#45;framework/guild&#45;core/internal/buildutil.drawBox]&#10;at main.go:196: calling [github.com/guild&#45;framework/guild&#45;core/internal/buildutil.drawBox]&#10;at main.go:199: calling [github.com/guild&#45;framework/guild&#45;core/internal/buildutil.drawBox]">
<path fill="none" stroke="black" d="M270.13,-52.04C275.23,-55.16 280.01,-58.79 284.08,-63 345.2,-126.25 294.72,-183.33 354.33,-248 357.94,-251.91 362.16,-255.37 366.69,-258.41"/>
<polygon fill="black" stroke="black" points="364.6,-261.24 374.99,-263.3 368.16,-255.21 364.6,-261.24"/>
</a>
</g>
</g>
<!-- github.com/guild&#45;framework/guild&#45;core/internal/buildutil.getBuildStatus -->
<g id="node7" class="node">
<title>github.com/guild&#45;framework/guild&#45;core/internal/buildutil.getBuildStatus</title>
<g id="a_node7"><a xlink:title="github.com/guild&#45;framework/guild&#45;core/internal/buildutil.getBuildStatus | defined in main.go:273">
<path fill="lightblue" stroke="black" stroke-width="0.5" d="M469.24,-357C469.24,-357 367.45,-357 367.45,-357 361.45,-357 355.45,-351 355.45,-345 355.45,-345 355.45,-333 355.45,-333 355.45,-327 361.45,-321 367.45,-321 367.45,-321 469.24,-321 469.24,-321 475.24,-321 481.24,-327 481.24,-333 481.24,-333 481.24,-345 481.24,-345 481.24,-351 475.24,-357 469.24,-357"/>
<text xml:space="preserve" text-anchor="middle" x="418.35" y="-334.32" font-family="Verdana" font-size="14.00">getBuildStatus</text>
</a>
</g>
</g>
<!-- github.com/guild&#45;framework/guild&#45;core/internal/buildutil.showDashboard&#45;&gt;github.com/guild&#45;framework/guild&#45;core/internal/buildutil.getBuildStatus -->
<g id="edge17" class="edge">
<title>github.com/guild&#45;framework/guild&#45;core/internal/buildutil.showDashboard&#45;&gt;github.com/guild&#45;framework/guild&#45;core/internal/buildutil.getBuildStatus</title>
<g id="a_edge17"><a xlink:title="at main.go:191: calling [github.com/guild&#45;framework/guild&#45;core/internal/buildutil.getBuildStatus]">
<path fill="none" stroke="black" d="M271.17,-52.13C275.95,-55.22 280.36,-58.81 284.08,-63 321.82,-105.52 317.6,-265.6 354.33,-309 355.77,-310.7 357.32,-312.31 358.98,-313.83"/>
<polygon fill="black" stroke="black" points="356.66,-316.47 366.7,-319.84 360.95,-310.94 356.66,-316.47"/>
</a>
</g>
</g>
<!-- github.com/guild&#45;framework/guild&#45;core/internal/buildutil.getTestStatus -->
<g id="node8" class="node">
<title>github.com/guild&#45;framework/guild&#45;core/internal/buildutil.getTestStatus</title>
<g id="a_node8"><a xlink:title="github.com/guild&#45;framework/guild&#45;core/internal/buildutil.getTestStatus | defined in main.go:301">
<path fill="lightblue" stroke="black" stroke-width="0.5" d="M465.87,-418C465.87,-418 370.83,-418 370.83,-418 364.83,-418 358.83,-412 358.83,-406 358.83,-406 358.83,-394 358.83,-394 358.83,-388 364.83,-382 370.83,-382 370.83,-382 465.87,-382 465.87,-382 471.87,-382 477.87,-388 477.87,-394 477.87,-394 477.87,-406 477.87,-406 477.87,-412 471.87,-418 465.87,-418"/>
<text xml:space="preserve" text-anchor="middle" x="418.35" y="-395.32" font-family="Verdana" font-size="14.00">getTestStatus</text>
</a>
</g>
</g>
<!-- github.com/guild&#45;framework/guild&#45;core/internal/buildutil.showDashboard&#45;&gt;github.com/guild&#45;framework/guild&#45;core/internal/buildutil.getTestStatus -->
<g id="edge8" class="edge">
<title>github.com/guild&#45;framework/guild&#45;core/internal/buildutil.showDashboard&#45;&gt;github.com/guild&#45;framework/guild&#45;core/internal/buildutil.getTestStatus</title>
<g id="a_edge8"><a xlink:title="at main.go:195: calling [github.com/guild&#45;framework/guild&#45;core/internal/buildutil.getTestStatus]">
<path fill="none" stroke="black" d="M271.73,-52.14C276.34,-55.22 280.56,-58.82 284.08,-63 329.13,-116.56 310.56,-315.39 354.33,-370 355.69,-371.7 357.18,-373.31 358.76,-374.84"/>
<polygon fill="black" stroke="black" points="356.19,-377.26 366.17,-380.81 360.58,-371.81 356.19,-377.26"/>
</a>
</g>
</g>
<!-- github.com/guild&#45;framework/guild&#45;core/internal/buildutil.main -->
<g id="node9" class="node">
<title>github.com/guild&#45;framework/guild&#45;core/internal/buildutil.main</title>
<g id="a_node9"><a xlink:title="github.com/guild&#45;framework/guild&#45;core/internal/buildutil.main | defined in main.go:25&#10;at main.go:41: calling [github.com/guild&#45;framework/guild&#45;core/internal/buildutil/ui.ColourEnabled]&#10;at main.go:123: calling [github.com/guild&#45;framework/guild&#45;core/internal/buildutil/ui.ColourEnabled]&#10;at main.go:164: calling [github.com/guild&#45;framework/guild&#45;core/internal/buildutil/ui.ColourEnabled]&#10;at main.go:50: calling [github.com/guild&#45;framework/guild&#45;core/internal/buildutil/tasks.Build]&#10;at main.go:146: calling [github.com/guild&#45;framework/guild&#45;core/internal/buildutil/tasks.Build]&#10;at main.go:86: calling [github.com/guild&#45;framework/guild&#45;core/internal/buildutil/tasks.Build]&#10;at main.go:59: calling [github.com/guild&#45;framework/guild&#45;core/internal/buildutil/tasks.Integration]&#10;at main.go:100: calling [github.com/guild&#45;framework/guild&#45;core/internal/buildutil/tasks.Integration]&#10;at main.go:62: calling [github.com/guild&#45;framework/guild&#45;core/internal/buildutil/tasks.E2E]&#10;at main.go:68: calling [github.com/guild&#45;framework/guild&#45;core/internal/buildutil/tasks.Happy]&#10;at main.go:105: calling [github.com/guild&#45;framework/guild&#45;core/internal/buildutil/tasks.Happy]&#10;at main.go:71: calling [github.com/guild&#45;framework/guild&#45;core/internal/buildutil/tasks.ValidateDemo]&#10;at main.go:31: calling [github.com/guild&#45;framework/guild&#45;core/internal/buildutil/ui.Init]&#10;at main.go:145: calling [github.com/guild&#45;framework/guild&#45;core/internal/buildutil/ui.Init]&#10;at main.go:74: calling [github.com/guild&#45;framework/guild&#45;core/internal/buildutil/tasks.Clean]&#10;at main.go:81: calling [github.com/guild&#45;framework/guild&#45;core/internal/buildutil/tasks.Clean]&#10;at main.go:149: calling [github.com/guild&#45;framework/guild&#45;core/internal/buildutil/tasks.Install]&#10;at main.go:139: calling [github.com/guild&#45;framework/guild&#45;core/internal/buildutil/ui.SummaryCard]&#10;at main.go:152: calling [github.com/guild&#45;framework/guild&#45;core/internal/buildutil/tasks.Uninstall]&#10;at main.go:156: calling [github.com/guild&#45;framework/guild&#45;core/internal/buildutil.showDashboard]&#10;at main.go:53: calling [github.com/guild&#45;framework/guild&#45;core/internal/buildutil/tasks.BuildOnly]&#10;at main.go:56: calling [github.com/guild&#45;framework/guild&#45;core/internal/buildutil/tasks.Test]&#10;at main.go:94: calling [github.com/guild&#45;framework/guild&#45;core/internal/buildutil/tasks.Test]">
<path fill="lightblue" stroke="black" stroke-width="0.5" d="M61.54,-448C61.54,-448 28,-448 28,-448 22,-448 16,-442 16,-436 16,-436 16,-424 16,-424 16,-418 22,-412 28,-412 28,-412 61.54,-412 61.54,-412 67.54,-412 73.54,-418 73.54,-424 73.54,-424 73.54,-436 73.54,-436 73.54,-442 67.54,-448 61.54,-448"/>
<text xml:space="preserve" text-anchor="middle" x="44.77" y="-425.32" font-family="Verdana" font-size="14.00">main</text>
</a>
</g>
</g>
<!-- github.com/guild&#45;framework/guild&#45;core/internal/buildutil.main&#45;&gt;github.com/guild&#45;framework/guild&#45;core/internal/buildutil.showDashboard -->
<g id="edge14" class="edge">
<title>github.com/guild&#45;framework/guild&#45;core/internal/buildutil.main&#45;&gt;github.com/guild&#45;framework/guild&#45;core/internal/buildutil.showDashboard</title>
<g id="a_edge14"><a xlink:title="at main.go:156: calling [github.com/guild&#45;framework/guild&#45;core/internal/buildutil.showDashboard]">
<path fill="none" stroke="black" d="M45.09,-411.98C43.87,-353.47 48.01,-166.66 143.79,-63 145.13,-61.55 146.55,-60.18 148.03,-58.87"/>
<polygon fill="black" stroke="black" points="150.04,-61.73 156,-52.97 145.88,-56.11 150.04,-61.73"/>
</a>
</g>
</g>
<!-- github.com/guild&#45;framework/guild&#45;core/internal/buildutil/tasks.Build -->
<g id="node10" class="node">
<title>github.com/guild&#45;framework/guild&#45;core/internal/buildutil/tasks.Build</title>
<g id="a_node10"><a xlink:title="github.com/guild&#45;framework/guild&#45;core/internal/buildutil/tasks.Build | defined in build.go:27">
<path fill="moccasin" stroke="black" stroke-width="1.5" d="M231.08,-113C231.08,-113 196.79,-113 196.79,-113 190.79,-113 184.79,-107 184.79,-101 184.79,-101 184.79,-89 184.79,-89 184.79,-83 190.79,-77 196.79,-77 196.79,-77 231.08,-77 231.08,-77 237.08,-77 243.08,-83 243.08,-89 243.08,-89 243.08,-101 243.08,-101 243.08,-107 237.08,-113 231.08,-113"/>
<text xml:space="preserve" text-anchor="middle" x="213.93" y="-90.33" font-family="Verdana" font-size="14.00">Build</text>
</a>
</g>
</g>
<!-- github.com/guild&#45;framework/guild&#45;core/internal/buildutil.main&#45;&gt;github.com/guild&#45;framework/guild&#45;core/internal/buildutil/tasks.Build -->
<g id="edge2" class="edge">
<title>github.com/guild&#45;framework/guild&#45;core/internal/buildutil.main&#45;&gt;github.com/guild&#45;framework/guild&#45;core/internal/buildutil/tasks.Build</title>
<g id="a_edge2"><a xlink:title="at main.go:50: calling [github.com/guild&#45;framework/guild&#45;core/internal/buildutil/tasks.Build]&#10;at main.go:146: calling [github.com/guild&#45;framework/guild&#45;core/internal/buildutil/tasks.Build]&#10;at main.go:86: calling [github.com/guild&#45;framework/guild&#45;core/internal/buildutil/tasks.Build]">
<path fill="none" stroke="saddlebrown" d="M46.55,-412.05C49.7,-360.77 65.48,-211.82 143.79,-126 151.77,-117.25 162.69,-110.83 173.49,-106.17"/>
<polygon fill="saddlebrown" stroke="saddlebrown" points="174.64,-109.47 182.72,-102.62 172.13,-102.94 174.64,-109.47"/>
</a>
</g>
</g>
<!-- github.com/guild&#45;framework/guild&#45;core/internal/buildutil/tasks.BuildOnly -->
<g id="node11" class="node">
<title>github.com/guild&#45;framework/guild&#45;core/internal/buildutil/tasks.BuildOnly</title>
<g id="a_node11"><a xlink:title="github.com/guild&#45;framework/guild&#45;core/internal/buildutil/tasks.BuildOnly | defined in build.go:241">
<path fill="moccasin" stroke="black" stroke-width="1.5" d="M247.2,-174C247.2,-174 180.66,-174 180.66,-174 174.66,-174 168.66,-168 168.66,-162 168.66,-162 168.66,-150 168.66,-150 168.66,-144 174.66,-138 180.66,-138 180.66,-138 247.2,-138 247.2,-138 253.2,-138 259.2,-144 259.2,-150 259.2,-150 259.2,-162 259.2,-162 259.2,-168 253.2,-174 247.2,-174"/>
<text xml:space="preserve" text-anchor="middle" x="213.93" y="-151.32" font-family="Verdana" font-size="14.00">BuildOnly</text>
</a>
</g>
</g>
<!-- github.com/guild&#45;framework/guild&#45;core/internal/buildutil.main&#45;&gt;github.com/guild&#45;framework/guild&#45;core/internal/buildutil/tasks.BuildOnly -->
<g id="edge18" class="edge">
<title>github.com/guild&#45;framework/guild&#45;core/internal/buildutil.main&#45;&gt;github.com/guild&#45;framework/guild&#45;core/internal/buildutil/tasks.BuildOnly</title>
<g id="a_edge18"><a xlink:title="at main.go:53: calling [github.com/guild&#45;framework/guild&#45;core/internal/buildutil/tasks.BuildOnly]">
<path fill="none" stroke="saddlebrown" d="M48.35,-411.95C55.52,-367.91 79.59,-253.69 143.79,-187 148.01,-182.62 152.96,-178.81 158.24,-175.5"/>
<polygon fill="saddlebrown" stroke="saddlebrown" points="159.64,-178.73 166.7,-170.82 156.25,-172.6 159.64,-178.73"/>
</a>
</g>
</g>
<!-- github.com/guild&#45;framework/guild&#45;core/internal/buildutil/tasks.Test -->
<g id="node12" class="node">
<title>github.com/guild&#45;framework/guild&#45;core/internal/buildutil/tasks.Test</title>
<g id="a_node12"><a xlink:title="github.com/guild&#45;framework/guild&#45;core/internal/buildutil/tasks.Test | defined in test.go:26">
<path fill="moccasin" stroke="black" stroke-width="1.5" d="M228.93,-235C228.93,-235 198.93,-235 198.93,-235 192.93,-235 186.93,-229 186.93,-223 186.93,-223 186.93,-211 186.93,-211 186.93,-205 192.93,-199 198.93,-199 198.93,-199 228.93,-199 228.93,-199 234.93,-199 240.93,-205 240.93,-211 240.93,-211 240.93,-223 240.93,-223 240.93,-229 234.93,-235 228.93,-235"/>
<text xml:space="preserve" text-anchor="middle" x="213.93" y="-212.32" font-family="Verdana" font-size="14.00">Test</text>
</a>
</g>
</g>
<!-- github.com/guild&#45;framework/guild&#45;core/internal/buildutil.main&#45;&gt;github.com/guild&#45;framework/guild&#45;core/internal/buildutil/tasks.Test -->
<g id="edge19" class="edge">
<title>github.com/guild&#45;framework/guild&#45;core/internal/buildutil.main&#45;&gt;github.com/guild&#45;framework/guild&#45;core/internal/buildutil/tasks.Test</title>
<g id="a_edge19"><a xlink:title="at main.go:56: calling [github.com/guild&#45;framework/guild&#45;core/internal/buildutil/tasks.Test]&#10;at main.go:94: calling [github.com/guild&#45;framework/guild&#45;core/internal/buildutil/tasks.Test]">
<path fill="none" stroke="saddlebrown" d="M51.17,-411.77C62.65,-375.9 92.67,-295.54 143.79,-248 152.84,-239.58 164.57,-233.17 175.78,-228.42"/>
<polygon fill="saddlebrown" stroke="saddlebrown" points="176.79,-231.78 184.86,-224.91 174.27,-225.25 176.79,-231.78"/>
</a>
</g>
</g>
<!-- github.com/guild&#45;framework/guild&#45;core/internal/buildutil/tasks.Integration -->
<g id="node13" class="node">
<title>github.com/guild&#45;framework/guild&#45;core/internal/buildutil/tasks.Integration</title>
<g id="a_node13"><a xlink:title="github.com/guild&#45;framework/guild&#45;core/internal/buildutil/tasks.Integration | defined in integration.go:26">
<path fill="moccasin" stroke="black" stroke-width="1.5" d="M252.45,-296C252.45,-296 175.41,-296 175.41,-296 169.41,-296 163.41,-290 163.41,-284 163.41,-284 163.41,-272 163.41,-272 163.41,-266 169.41,-260 175.41,-260 175.41,-260 252.45,-260 252.45,-260 258.45,-260 264.45,-266 264.45,-272 264.45,-272 264.45,-284 264.45,-284 264.45,-290 258.45,-296 252.45,-296"/>
<text xml:space="preserve" text-anchor="middle" x="213.93" y="-273.32" font-family="Verdana" font-size="14.00">Integration</text>
</a>
</g>
</g>
<!-- github.com/guild&#45;framework/guild&#45;core/internal/buildutil.main&#45;&gt;github.com/guild&#45;framework/guild&#45;core/internal/buildutil/tasks.Integration -->
<g id="edge3" class="edge">
<title>github.com/guild&#45;framework/guild&#45;core/internal/buildutil.main&#45;&gt;github.com/guild&#45;framework/guild&#45;core/internal/buildutil/tasks.Integration</title>
<g id="a_edge3"><a xlink:title="at main.go:59: calling [github.com/guild&#45;framework/guild&#45;core/internal/buildutil/tasks.Integration]&#10;at main.go:100: calling [github.com/guild&#45;framework/guild&#45;core/internal/buildutil/tasks.Integration]">
<path fill="none" stroke="saddlebrown" d="M56.63,-411.75C72.79,-385.91 105.43,-338.51 143.79,-309 146.91,-306.6 150.24,-304.34 153.7,-302.22"/>
<polygon fill="saddlebrown" stroke="saddlebrown" points="155.36,-305.29 162.36,-297.34 151.93,-299.19 155.36,-305.29"/>
</a>
</g>
</g>
<!-- github.com/guild&#45;framework/guild&#45;core/internal/buildutil/tasks.E2E -->
<g id="node14" class="node">
<title>github.com/guild&#45;framework/guild&#45;core/internal/buildutil/tasks.E2E</title>
<g id="a_node14"><a xlink:title="github.com/guild&#45;framework/guild&#45;core/internal/buildutil/tasks.E2E | defined in e2e.go:23">
<path fill="moccasin" stroke="black" stroke-width="1.5" d="M228.93,-357C228.93,-357 198.93,-357 198.93,-357 192.93,-357 186.93,-351 186.93,-345 186.93,-345 186.93,-333 186.93,-333 186.93,-327 192.93,-321 198.93,-321 198.93,-321 228.93,-321 228.93,-321 234.93,-321 240.93,-327 240.93,-333 240.93,-333 240.93,-345 240.93,-345 240.93,-351 234.93,-357 228.93,-357"/>
<text xml:space="preserve" text-anchor="middle" x="213.93" y="-334.32" font-family="Verdana" font-size="14.00">E2E</text>
</a>
</g>
</g>
<!-- github.com/guild&#45;framework/guild&#45;core/internal/buildutil.main&#45;&gt;github.com/guild&#45;framework/guild&#45;core/internal/buildutil/tasks.E2E -->
<g id="edge4" class="edge">
<title>github.com/guild&#45;framework/guild&#45;core/internal/buildutil.main&#45;&gt;github.com/guild&#45;framework/guild&#45;core/internal/buildutil/tasks.E2E</title>
<g id="a_edge4"><a xlink:title="at main.go:62: calling [github.com/guild&#45;framework/guild&#45;core/internal/buildutil/tasks.E2E]">
<path fill="none" stroke="saddlebrown" d="M73.11,-411.97C92.47,-399.52 119.26,-382.94 143.79,-370 153.98,-364.62 165.29,-359.3 175.76,-354.62"/>
<polygon fill="saddlebrown" stroke="saddlebrown" points="177.15,-357.83 184.9,-350.61 174.34,-351.42 177.15,-357.83"/>
</a>
</g>
</g>
<!-- github.com/guild&#45;framework/guild&#45;core/internal/buildutil/tasks.Happy -->
<g id="node15" class="node">
<title>github.com/guild&#45;framework/guild&#45;core/internal/buildutil/tasks.Happy</title>
<g id="a_node15"><a xlink:title="github.com/guild&#45;framework/guild&#45;core/internal/buildutil/tasks.Happy | defined in happy.go:26">
<path fill="moccasin" stroke="black" stroke-width="1.5" d="M235.95,-418C235.95,-418 191.91,-418 191.91,-418 185.91,-418 179.91,-412 179.91,-406 179.91,-406 179.91,-394 179.91,-394 179.91,-388 185.91,-382 191.91,-382 191.91,-382 235.95,-382 235.95,-382 241.95,-382 247.95,-388 247.95,-394 247.95,-394 247.95,-406 247.95,-406 247.95,-412 241.95,-418 235.95,-418"/>
<text xml:space="preserve" text-anchor="middle" x="213.93" y="-395.32" font-family="Verdana" font-size="14.00">Happy</text>
</a>
</g>
</g>
<!-- github.com/guild&#45;framework/guild&#45;core/internal/buildutil.main&#45;&gt;github.com/guild&#45;framework/guild&#45;core/internal/buildutil/tasks.Happy -->
<g id="edge5" class="edge">
<title>github.com/guild&#45;framework/guild&#45;core/internal/buildutil.main&#45;&gt;github.com/guild&#45;framework/guild&#45;core/internal/buildutil/tasks.Happy</title>
<g id="a_edge5"><a xlink:title="at main.go:68: calling [github.com/guild&#45;framework/guild&#45;core/internal/buildutil/tasks.Happy]&#10;at main.go:105: calling [github.com/guild&#45;framework/guild&#45;core/internal/buildutil/tasks.Happy]">
<path fill="none" stroke="saddlebrown" d="M73.75,-424.98C99.55,-420.35 138.27,-413.4 168.33,-408"/>
<polygon fill="saddlebrown" stroke="saddlebrown" points="168.67,-411.5 177.9,-406.29 167.43,-404.61 168.67,-411.5"/>
</a>
</g>
</g>
<!-- github.com/guild&#45;framework/guild&#45;core/internal/buildutil/tasks.ValidateDemo -->
<g id="node16" class="node">
<title>github.com/guild&#45;framework/guild&#45;core/internal/buildutil/tasks.ValidateDemo</title>
<g id="a_node16"><a xlink:title="github.com/guild&#45;framework/guild&#45;core/internal/buildutil/tasks.ValidateDemo | defined in e2e.go:119">
<path fill="moccasin" stroke="black" stroke-width="1.5" d="M261.45,-479C261.45,-479 166.41,-479 166.41,-479 160.41,-479 154.41,-473 154.41,-467 154.41,-467 154.41,-455 154.41,-455 154.41,-449 160.41,-443 166.41,-443 166.41,-443 261.45,-443 261.45,-443 267.45,-443 273.45,-449 273.45,-455 273.45,-455 273.45,-467 273.45,-467 273.45,-473 267.45,-479 261.45,-479"/>
<text xml:space="preserve" text-anchor="middle" x="213.93" y="-456.32" font-family="Verdana" font-size="14.00">ValidateDemo</text>
</a>
</g>
</g>
<!-- github.com/guild&#45;framework/guild&#45;core/internal/buildutil.main&#45;&gt;github.com/guild&#45;framework/guild&#45;core/internal/buildutil/tasks.ValidateDemo -->
<g id="edge6" class="edge">
<title>github.com/guild&#45;framework/guild&#45;core/internal/buildutil.main&#45;&gt;github.com/guild&#45;framework/guild&#45;core/internal/buildutil/tasks.ValidateDemo</title>
<g id="a_edge6"><a xlink:title="at main.go:71: calling [github.com/guild&#45;framework/guild&#45;core/internal/buildutil/tasks.ValidateDemo]">
<path fill="none" stroke="saddlebrown" d="M73.75,-435.19C92.69,-438.7 118.6,-443.51 142.94,-448.02"/>
<polygon fill="saddlebrown" stroke="saddlebrown" points="142.02,-451.41 152.49,-449.79 143.3,-444.53 142.02,-451.41"/>
</a>
</g>
</g>
<!-- github.com/guild&#45;framework/guild&#45;core/internal/buildutil/tasks.Clean -->
<g id="node17" class="node">
<title>github.com/guild&#45;framework/guild&#45;core/internal/buildutil/tasks.Clean</title>
<g id="a_node17"><a xlink:title="github.com/guild&#45;framework/guild&#45;core/internal/buildutil/tasks.Clean | defined in clean.go:19">
<path fill="moccasin" stroke="black" stroke-width="1.5" d="M232.95,-540C232.95,-540 194.91,-540 194.91,-540 188.91,-540 182.91,-534 182.91,-528 182.91,-528 182.91,-516 182.91,-516 182.91,-510 188.91,-504 194.91,-504 194.91,-504 232.95,-504 232.95,-504 238.95,-504 244.95,-510 244.95,-516 244.95,-516 244.95,-528 244.95,-528 244.95,-534 238.95,-540 232.95,-540"/>
<text xml:space="preserve" text-anchor="middle" x="213.93" y="-517.33" font-family="Verdana" font-size="14.00">Clean</text>
</a>
</g>
</g>
<!-- github.com/guild&#45;framework/guild&#45;core/internal/buildutil.main&#45;&gt;github.com/guild&#45;framework/guild&#45;core/internal/buildutil/tasks.Clean -->
<g id="edge10" class="edge">
<title>github.com/guild&#45;framework/guild&#45;core/internal/buildutil.main&#45;&gt;github.com/guild&#45;framework/guild&#45;core/internal/buildutil/tasks.Clean</title>
<g id="a_edge10"><a xlink:title="at main.go:74: calling [github.com/guild&#45;framework/guild&#45;core/internal/buildutil/tasks.Clean]&#10;at main.go:81: calling [github.com/guild&#45;framework/guild&#45;core/internal/buildutil/tasks.Clean]">
<path fill="none" stroke="saddlebrown" d="M71.74,-447.98C91.12,-461.01 118.52,-478.63 143.79,-492 152.78,-496.76 162.69,-501.39 172.13,-505.54"/>
<polygon fill="saddlebrown" stroke="saddlebrown" points="170.55,-508.67 181.12,-509.4 173.31,-502.24 170.55,-508.67"/>
</a>
</g>
</g>
<!-- github.com/guild&#45;framework/guild&#45;core/internal/buildutil/tasks.Install -->
<g id="node18" class="node">
<title>github.com/guild&#45;framework/guild&#45;core/internal/buildutil/tasks.Install</title>
<g id="a_node18"><a xlink:title="github.com/guild&#45;framework/guild&#45;core/internal/buildutil/tasks.Install | defined in install.go:19">
<path fill="moccasin" stroke="black" stroke-width="1.5" d="M235.2,-601C235.2,-601 192.66,-601 192.66,-601 186.66,-601 180.66,-595 180.66,-589 180.66,-589 180.66,-577 180.66,-577 180.66,-571 186.66,-565 192.66,-565 192.66,-565 235.2,-565 235.2,-565 241.2,-565 247.2,-571 247.2,-577 247.2,-577 247.2,-589 247.2,-589 247.2,-595 241.2,-601 235.2,-601"/>
<text xml:space="preserve" text-anchor="middle" x="213.93" y="-578.33" font-family="Verdana" font-size="14.00">Install</text>
</a>
</g>
</g>
<!-- github.com/guild&#45;framework/guild&#45;core/internal/buildutil.main&#45;&gt;github.com/guild&#45;framework/guild&#45;core/internal/buildutil/tasks.Install -->
<g id="edge11" class="edge">
<title>github.com/guild&#45;framework/guild&#45;core/internal/buildutil.main&#45;&gt;github.com/guild&#45;framework/guild&#45;core/internal/buildutil/tasks.Install</title>
<g id="a_edge11"><a xlink:title="at main.go:149: calling [github.com/guild&#45;framework/guild&#45;core/internal/buildutil/tasks.Install]">
<path fill="none" stroke="saddlebrown" d="M56.24,-448.18C72.16,-474.44 104.77,-523.11 143.79,-553 151.56,-558.95 160.68,-563.98 169.71,-568.12"/>
<polygon fill="saddlebrown" stroke="saddlebrown" points="168.21,-571.29 178.79,-571.99 170.96,-564.85 168.21,-571.29"/>
</a>
</g>
</g>
<!-- github.com/guild&#45;framework/guild&#45;core/internal/buildutil/tasks.Uninstall -->
<g id="node19" class="node">
<title>github.com/guild&#45;framework/guild&#45;core/internal/buildutil/tasks.Uninstall</title>
<g id="a_node19"><a xlink:title="github.com/guild&#45;framework/guild&#45;core/internal/buildutil/tasks.Uninstall | defined in uninstall.go:17">
<path fill="moccasin" stroke="black" stroke-width="1.5" d="M243.83,-662C243.83,-662 184.04,-662 184.04,-662 178.04,-662 172.04,-656 172.04,-650 172.04,-650 172.04,-638 172.04,-638 172.04,-632 178.04,-626 184.04,-626 184.04,-626 243.83,-626 243.83,-626 249.83,-626 255.83,-632 255.83,-638 255.83,-638 255.83,-650 255.83,-650 255.83,-656 249.83,-662 243.83,-662"/>
<text xml:space="preserve" text-anchor="middle" x="213.93" y="-639.33" font-family="Verdana" font-size="14.00">Uninstall</text>
</a>
</g>
</g>
<!-- github.com/guild&#45;framework/guild&#45;core/internal/buildutil.main&#45;&gt;github.com/guild&#45;framework/guild&#45;core/internal/buildutil/tasks.Uninstall -->
<g id="edge13" class="edge">
<title>github.com/guild&#45;framework/guild&#45;core/internal/buildutil.main&#45;&gt;github.com/guild&#45;framework/guild&#45;core/internal/buildutil/tasks.Uninstall</title>
<g id="a_edge13"><a xlink:title="at main.go:152: calling [github.com/guild&#45;framework/guild&#45;core/internal/buildutil/tasks.Uninstall]">
<path fill="none" stroke="saddlebrown" d="M50.98,-448.21C62.2,-484.43 91.92,-566.13 143.79,-614 148.96,-618.78 155.02,-622.87 161.35,-626.36"/>
<polygon fill="saddlebrown" stroke="saddlebrown" points="159.58,-629.39 170.1,-630.68 162.68,-623.11 159.58,-629.39"/>
</a>
</g>
</g>
<!-- github.com/guild&#45;framework/guild&#45;core/internal/buildutil/ui.Init -->
<g id="node20" class="node">
<title>github.com/guild&#45;framework/guild&#45;core/internal/buildutil/ui.Init</title>
<g id="a_node20"><a xlink:title="github.com/guild&#45;framework/guild&#45;core/internal/buildutil/ui.Init | defined in ansi.go:39">
<path fill="moccasin" stroke="black" stroke-width="1.5" d="M228.93,-750C228.93,-750 198.93,-750 198.93,-750 192.93,-750 186.93,-744 186.93,-738 186.93,-738 186.93,-726 186.93,-726 186.93,-720 192.93,-714 198.93,-714 198.93,-714 228.93,-714 228.93,-714 234.93,-714 240.93,-720 240.93,-726 240.93,-726 240.93,-738 240.93,-738 240.93,-744 234.93,-750 228.93,-750"/>
<text xml:space="preserve" text-anchor="middle" x="213.93" y="-727.33" font-family="Verdana" font-size="14.00">Init</text>
</a>
</g>
</g>
<!-- github.com/guild&#45;framework/guild&#45;core/internal/buildutil.main&#45;&gt;github.com/guild&#45;framework/guild&#45;core/internal/buildutil/ui.Init -->
<g id="edge9" class="edge">
<title>github.com/guild&#45;framework/guild&#45;core/internal/buildutil.main&#45;&gt;github.com/guild&#45;framework/guild&#45;core/internal/buildutil/ui.Init</title>
<g id="a_edge9"><a xlink:title="at main.go:31: calling [github.com/guild&#45;framework/guild&#45;core/internal/buildutil/ui.Init]&#10;at main.go:145: calling [github.com/guild&#45;framework/guild&#45;core/internal/buildutil/ui.Init]">
<path fill="none" stroke="saddlebrown" d="M47.21,-447.98C51.98,-495.97 71.38,-628.54 143.79,-704 152.35,-712.92 164.15,-719.08 175.57,-723.3"/>
<polygon fill="saddlebrown" stroke="saddlebrown" points="174.26,-726.56 184.85,-726.31 176.42,-719.9 174.26,-726.56"/>
</a>
</g>
</g>
<!-- github.com/guild&#45;framework/guild&#45;core/internal/buildutil/ui.ColourEnabled -->
<g id="node21" class="node">
<title>github.com/guild&#45;framework/guild&#45;core/internal/buildutil/ui.ColourEnabled</title>
<g id="a_node21"><a xlink:title="github.com/guild&#45;framework/guild&#45;core/internal/buildutil/ui.ColourEnabled | defined in ansi.go:44">
<path fill="moccasin" stroke="black" stroke-width="1.5" d="M264.08,-811C264.08,-811 163.79,-811 163.79,-811 157.79,-811 151.79,-805 151.79,-799 151.79,-799 151.79,-787 151.79,-787 151.79,-781 157.79,-775 163.79,-775 163.79,-775 264.08,-775 264.08,-775 270.08,-775 276.08,-781 276.08,-787 276.08,-787 276.08,-799 276.08,-799 276.08,-805 270.08,-811 264.08,-811"/>
<text xml:space="preserve" text-anchor="middle" x="213.93" y="-788.33" font-family="Verdana" font-size="14.00">ColourEnabled</text>
</a>
</g>
</g>
<!-- github.com/guild&#45;framework/guild&#45;core/internal/buildutil.main&#45;&gt;github.com/guild&#45;framework/guild&#45;core/internal/buildutil/ui.ColourEnabled -->
<g id="edge1" class="edge">
<title>github.com/guild&#45;framework/guild&#45;core/internal/buildutil.main&#45;&gt;github.com/guild&#45;framework/guild&#45;core/internal/buildutil/ui.ColourEnabled</title>
<g id="a_edge1"><a xlink:title="at main.go:41: calling [github.com/guild&#45;framework/guild&#45;core/internal/buildutil/ui.ColourEnabled]&#10;at main.go:123: calling [github.com/guild&#45;framework/guild&#45;core/internal/buildutil/ui.ColourEnabled]&#10;at main.go:164: calling [github.com/guild&#45;framework/guild&#45;core/internal/buildutil/ui.ColourEnabled]">
<path fill="none" stroke="saddlebrown" d="M45.75,-448.24C46.67,-503.3 56.87,-669.78 143.79,-763 145.33,-764.65 146.98,-766.22 148.71,-767.7"/>
<polygon fill="saddlebrown" stroke="saddlebrown" points="146.6,-770.5 156.75,-773.55 150.72,-764.84 146.6,-770.5"/>
</a>
</g>
</g>
<!-- github.com/guild&#45;framework/guild&#45;core/internal/buildutil/ui.SummaryCard -->
<g id="node22" class="node">
<title>github.com/guild&#45;framework/guild&#45;core/internal/buildutil/ui.SummaryCard</title>
<g id="a_node22"><a xlink:title="github.com/guild&#45;framework/guild&#45;core/internal/buildutil/ui.SummaryCard | defined in widgets.go:145">
<path fill="moccasin" stroke="black" stroke-width="1.5" d="M264.08,-872C264.08,-872 163.79,-872 163.79,-872 157.79,-872 151.79,-866 151.79,-860 151.79,-860 151.79,-848 151.79,-848 151.79,-842 157.79,-836 163.79,-836 163.79,-836 264.08,-836 264.08,-836 270.08,-836 276.08,-842 276.08,-848 276.08,-848 276.08,-860 276.08,-860 276.08,-866 270.08,-872 264.08,-872"/>
<text xml:space="preserve" text-anchor="middle" x="213.93" y="-849.33" font-family="Verdana" font-size="14.00">SummaryCard</text>
</a>
</g>
</g>
<!-- github.com/guild&#45;framework/guild&#45;core/internal/buildutil.main&#45;&gt;github.com/guild&#45;framework/guild&#45;core/internal/buildutil/ui.SummaryCard -->
<g id="edge12" class="edge">
<title>github.com/guild&#45;framework/guild&#45;core/internal/buildutil.main&#45;&gt;github.com/guild&#45;framework/guild&#45;core/internal/buildutil/ui.SummaryCard</title>
<g id="a_edge12"><a xlink:title="at main.go:139: calling [github.com/guild&#45;framework/guild&#45;core/internal/buildutil/ui.SummaryCard]">
<path fill="none" stroke="saddlebrown" d="M47.92,-447.8C56.6,-517 91.18,-767.04 143.79,-824 145.29,-825.62 146.89,-827.16 148.57,-828.62"/>
<polygon fill="saddlebrown" stroke="saddlebrown" points="146.25,-831.25 156.37,-834.37 150.4,-825.62 146.25,-831.25"/>
</a>
</g>
</g>
</g>
</svg>
