<?xml version="1.0" encoding="UTF-8" standalone="no"?>
<!DOCTYPE svg PUBLIC "-//W3C//DTD SVG 1.1//EN"
 "http://www.w3.org/Graphics/SVG/1.1/DTD/svg11.dtd">
<!-- Generated by graphviz version 14.1.1 (20251213.1925)
 -->
<!-- Title: gocallvis Pages: 1 -->
<svg width="384pt" height="141pt"
 viewBox="0.00 0.00 384.00 141.00" xmlns="http://www.w3.org/2000/svg" xmlns:xlink="http://www.w3.org/1999/xlink">
<g id="graph0" class="graph" transform="scale(1 1) rotate(0) translate(0 141)">
<title>gocallvis</title>
<polygon fill="lightgray" stroke="none" points="0,0 0,-141 384.08,-141 384.08,0 0,0"/>
<g id="clust1" class="cluster">
<title>cluster_focus</title>
<polygon fill="#e6ecfa" stroke="black" stroke-width="0.5" points="8,-8 8,-133 376.08,-133 376.08,-8 8,-8"/>
<text xml:space="preserve" text-anchor="middle" x="192.04" y="-111.9" font-family="Arial" font-size="18.00">templates</text>
</g>
<g id="clust2" class="cluster">
<title>cluster_github.com/guild&#45;framework/guild&#45;core/pkg/gerror</title>
<g id="a_clust2"><a xlink:href="/?f=github.com/guild-framework/guild-core/pkg/gerror" xlink:title="package: github.com/guild&#45;framework/guild&#45;core/pkg/gerror">
<polygon fill="lightyellow" stroke="black" stroke-width="0.8" points="292.29,-16 292.29,-96 368.08,-96 368.08,-16 292.29,-16"/>
<text xml:space="preserve" text-anchor="middle" x="330.19" y="-76.8" font-family="Tahoma bold" font-size="16.00">gerror</text>
</a>
</g>
</g>
<!-- github.com/guild&#45;framework/guild&#45;core/internal/scaffoldlite/templates.GetEmbeddedTemplatesFS -->
<g id="node1" class="node">
<title>github.com/guild&#45;framework/guild&#45;core/internal/scaffoldlite/templates.GetEmbeddedTemplatesFS</title>
<g id="a_node1"><a xlink:title="github.com/guild&#45;framework/guild&#45;core/internal/scaffoldlite/templates.GetEmbeddedTemplatesFS | defined in embed.go:16&#10;at embed.go:19: calling [github.com/guild&#45;framework/guild&#45;core/pkg/gerror.Wrap]">
<path fill="lightblue" stroke="black" stroke-width="1.5" d="M215.29,-60C215.29,-60 28,-60 28,-60 22,-60 16,-54 16,-48 16,-48 16,-36 16,-36 16,-30 22,-24 28,-24 28,-24 215.29,-24 215.29,-24 221.29,-24 227.29,-30 227.29,-36 227.29,-36 227.29,-48 227.29,-48 227.29,-54 221.29,-60 215.29,-60"/>
<text xml:space="preserve" text-anchor="middle" x="121.65" y="-37.33" font-family="Verdana" font-size="14.00">GetEmbeddedTemplatesFS</text>
</a>
</g>
</g>
<!-- github.com/guild&#45;framework/guild&#45;core/pkg/gerror.Wrap -->
<g id="node2" class="node">
<title>github.com/guild&#45;framework/guild&#45;core/pkg/gerror.Wrap</title>
<g id="a_node2"><a xlink:title="github.com/guild&#45;framework/guild&#45;core/pkg/gerror.Wrap | defined in errors.go:223">
<path fill="moccasin" stroke="black" stroke-width="1.5" d="M348.08,-60C348.08,-60 312.29,-60 312.29,-60 306.29,-60 300.29,-54 300.29,-48 300.29,-48 300.29,-36 300.29,-36 300.29,-30 306.29,-24 312.29,-24 312.29,-24 348.08,-24 348.08,-24 354.08,-24 360.08,-30 360.08,-36 360.08,-36 360.08,-48 360.08,-48 360.08,-54 354.08,-60 348.08,-60"/>
<text xml:space="preserve" text-anchor="middle" x="330.19" y="-37.33" font-family="Verdana" font-size="14.00">Wrap</text>
</a>
</g>
</g>
<!-- github.com/guild&#45;framework/guild&#45;core/internal/scaffoldlite/templates.GetEmbeddedTemplatesFS&#45;&gt;github.com/guild&#45;framework/guild&#45;core/pkg/gerror.Wrap -->
<g id="edge1" class="edge">
<title>github.com/guild&#45;framework/guild&#45;core/internal/scaffoldlite/templates.GetEmbeddedTemplatesFS&#45;&gt;github.com/guild&#45;framework/guild&#45;core/pkg/gerror.Wrap</title>
<g id="a_edge1"><a xlink:title="at embed.go:19: calling [github.com/guild&#45;framework/guild&#45;core/pkg/gerror.Wrap]">
<path fill="none" stroke="saddlebrown" d="M228.03,-42C249.53,-42 270.9,-42 288.42,-42"/>
<polygon fill="saddlebrown" stroke="saddlebrown" points="288.38,-45.5 298.38,-42 288.38,-38.5 288.38,-45.5"/>
</a>
</g>
</g>
</g>
</svg>
