<?xml version="1.0" encoding="UTF-8" standalone="no"?>
<!DOCTYPE svg PUBLIC "-//W3C//DTD SVG 1.1//EN"
 "http://www.w3.org/Graphics/SVG/1.1/DTD/svg11.dtd">
<!-- Generated by graphviz version 14.1.1 (20251213.1925)
 -->
<!-- Title: gocallvis Pages: 1 -->
<svg width="417pt" height="524pt"
 viewBox="0.00 0.00 417.00 524.00" xmlns="http://www.w3.org/2000/svg" xmlns:xlink="http://www.w3.org/1999/xlink">
<g id="graph0" class="graph" transform="scale(1 1) rotate(0) translate(0 524)">
<title>gocallvis</title>
<polygon fill="lightgray" stroke="none" points="0,0 0,-524 417.08,-524 417.08,0 0,0"/>
<g id="clust1" class="cluster">
<title>cluster_focus</title>
<polygon fill="#e6ecfa" stroke="black" stroke-width="0.5" points="8,-8 8,-516 409.08,-516 409.08,-8 8,-8"/>
<text xml:space="preserve" text-anchor="middle" x="208.54" y="-494.9" font-family="Arial" font-size="18.00">events</text>
</g>
<g id="clust2" class="cluster">
<title>cluster_github.com/guild&#45;framework/guild&#45;core/pkg/events</title>
<g id="a_clust2"><a xlink:href="/?f=github.com/guild-framework/guild-core/pkg/events" xlink:title="package: github.com/guild&#45;framework/guild&#45;core/pkg/events">
<polygon fill="lightyellow" stroke="black" stroke-width="0.8" points="258.54,-191 258.54,-271 401.08,-271 401.08,-191 258.54,-191"/>
<text xml:space="preserve" text-anchor="middle" x="329.81" y="-251.8" font-family="Tahoma bold" font-size="16.00">events</text>
</a>
</g>
</g>
<!-- github.com/guild&#45;framework/guild&#45;core/internal/integration/events.NewAgentEvent -->
<g id="node1" class="node">
<title>github.com/guild&#45;framework/guild&#45;core/internal/integration/events.NewAgentEvent</title>
<g id="a_node1"><a xlink:title="github.com/guild&#45;framework/guild&#45;core/internal/integration/events.NewAgentEvent | defined in schemas.go:171&#10;at schemas.go:178: calling [github.com/guild&#45;framework/guild&#45;core/pkg/events.NewBaseEvent]">
<path fill="lightblue" stroke="black" stroke-width="1.5" d="M159.79,-296C159.79,-296 49.75,-296 49.75,-296 43.75,-296 37.75,-290 37.75,-284 37.75,-284 37.75,-272 37.75,-272 37.75,-266 43.75,-260 49.75,-260 49.75,-260 159.79,-260 159.79,-260 165.79,-260 171.79,-266 171.79,-272 171.79,-272 171.79,-284 171.79,-284 171.79,-290 165.79,-296 159.79,-296"/>
<text xml:space="preserve" text-anchor="middle" x="104.77" y="-273.32" font-family="Verdana" font-size="14.00">NewAgentEvent</text>
</a>
</g>
</g>
<!-- github.com/guild&#45;framework/guild&#45;core/pkg/events.NewBaseEvent -->
<g id="node10" class="node">
<title>github.com/guild&#45;framework/guild&#45;core/pkg/events.NewBaseEvent</title>
<g id="a_node10"><a xlink:title="github.com/guild&#45;framework/guild&#45;core/pkg/events.NewBaseEvent | defined in core.go:77">
<path fill="moccasin" stroke="black" stroke-width="1.5" d="M381.08,-235C381.08,-235 278.54,-235 278.54,-235 272.54,-235 266.54,-229 266.54,-223 266.54,-223 266.54,-211 266.54,-211 266.54,-205 272.54,-199 278.54,-199 278.54,-199 381.08,-199 381.08,-199 387.08,-199 393.08,-205 393.08,-211 393.08,-211 393.08,-223 393.08,-223 393.08,-229 387.08,-235 381.08,-235"/>
<text xml:space="preserve" text-anchor="middle" x="329.81" y="-212.32" font-family="Verdana" font-size="14.00">NewBaseEvent</text>
</a>
</g>
</g>
<!-- github.com/guild&#45;framework/guild&#45;core/internal/integration/events.NewAgentEvent&#45;&gt;github.com/guild&#45;framework/guild&#45;core/pkg/events.NewBaseEvent -->
<g id="edge5" class="edge">
<title>github.com/guild&#45;framework/guild&#45;core/internal/integration/events.NewAgentEvent&#45;&gt;github.com/guild&#45;framework/guild&#45;core/pkg/events.NewBaseEvent</title>
<g id="a_edge5"><a xlink:title="at schemas.go:178: calling [github.com/guild&#45;framework/guild&#45;core/pkg/events.NewBaseEvent]">
<path fill="none" stroke="saddlebrown" d="M172.39,-259.78C198.45,-252.65 228.44,-244.45 255.14,-237.15"/>
<polygon fill="saddlebrown" stroke="saddlebrown" points="255.79,-240.6 264.51,-234.58 253.94,-233.85 255.79,-240.6"/>
</a>
</g>
</g>
<!-- github.com/guild&#45;framework/guild&#45;core/internal/integration/events.NewServiceEvent -->
<g id="node2" class="node">
<title>github.com/guild&#45;framework/guild&#45;core/internal/integration/events.NewServiceEvent</title>
<g id="a_node2"><a xlink:title="github.com/guild&#45;framework/guild&#45;core/internal/integration/events.NewServiceEvent | defined in schemas.go:119&#10;at schemas.go:126: calling [github.com/guild&#45;framework/guild&#45;core/pkg/events.NewBaseEvent]">
<path fill="lightblue" stroke="black" stroke-width="1.5" d="M165.04,-52C165.04,-52 44.5,-52 44.5,-52 38.5,-52 32.5,-46 32.5,-40 32.5,-40 32.5,-28 32.5,-28 32.5,-22 38.5,-16 44.5,-16 44.5,-16 165.04,-16 165.04,-16 171.04,-16 177.04,-22 177.04,-28 177.04,-28 177.04,-40 177.04,-40 177.04,-46 171.04,-52 165.04,-52"/>
<text xml:space="preserve" text-anchor="middle" x="104.77" y="-29.32" font-family="Verdana" font-size="14.00">NewServiceEvent</text>
</a>
</g>
</g>
<!-- github.com/guild&#45;framework/guild&#45;core/internal/integration/events.NewServiceEvent&#45;&gt;github.com/guild&#45;framework/guild&#45;core/pkg/events.NewBaseEvent -->
<g id="edge6" class="edge">
<title>github.com/guild&#45;framework/guild&#45;core/internal/integration/events.NewServiceEvent&#45;&gt;github.com/guild&#45;framework/guild&#45;core/pkg/events.NewBaseEvent</title>
<g id="a_edge6"><a xlink:title="at schemas.go:126: calling [github.com/guild&#45;framework/guild&#45;core/pkg/events.NewBaseEvent]">
<path fill="none" stroke="saddlebrown" d="M170.4,-52.55C178.5,-56.1 186.43,-60.22 193.54,-65 243.71,-98.71 287.25,-155.26 310.6,-189.06"/>
<polygon fill="saddlebrown" stroke="saddlebrown" points="307.55,-190.8 316.07,-197.11 313.35,-186.87 307.55,-190.8"/>
</a>
</g>
</g>
<!-- github.com/guild&#45;framework/guild&#45;core/internal/integration/events.NewSystemEvent -->
<g id="node3" class="node">
<title>github.com/guild&#45;framework/guild&#45;core/internal/integration/events.NewSystemEvent</title>
<g id="a_node3"><a xlink:title="github.com/guild&#45;framework/guild&#45;core/internal/integration/events.NewSystemEvent | defined in schemas.go:219&#10;at schemas.go:227: calling [github.com/guild&#45;framework/guild&#45;core/pkg/events.NewBaseEvent]">
<path fill="lightblue" stroke="black" stroke-width="1.5" d="M165.41,-113C165.41,-113 44.12,-113 44.12,-113 38.12,-113 32.12,-107 32.12,-101 32.12,-101 32.12,-89 32.12,-89 32.12,-83 38.12,-77 44.12,-77 44.12,-77 165.41,-77 165.41,-77 171.41,-77 177.41,-83 177.41,-89 177.41,-89 177.41,-101 177.41,-101 177.41,-107 171.41,-113 165.41,-113"/>
<text xml:space="preserve" text-anchor="middle" x="104.77" y="-90.33" font-family="Verdana" font-size="14.00">NewSystemEvent</text>
</a>
</g>
</g>
<!-- github.com/guild&#45;framework/guild&#45;core/internal/integration/events.NewSystemEvent&#45;&gt;github.com/guild&#45;framework/guild&#45;core/pkg/events.NewBaseEvent -->
<g id="edge7" class="edge">
<title>github.com/guild&#45;framework/guild&#45;core/internal/integration/events.NewSystemEvent&#45;&gt;github.com/guild&#45;framework/guild&#45;core/pkg/events.NewBaseEvent</title>
<g id="a_edge7"><a xlink:title="at schemas.go:227: calling [github.com/guild&#45;framework/guild&#45;core/pkg/events.NewBaseEvent]">
<path fill="none" stroke="saddlebrown" d="M165.17,-113.67C174.82,-117.36 184.59,-121.5 193.54,-126 230.48,-144.57 269.3,-171.57 295.83,-191.34"/>
<polygon fill="saddlebrown" stroke="saddlebrown" points="293.72,-194.13 303.82,-197.36 297.94,-188.54 293.72,-194.13"/>
</a>
</g>
</g>
<!-- github.com/guild&#45;framework/guild&#45;core/internal/integration/events.NewTaskEvent -->
<g id="node4" class="node">
<title>github.com/guild&#45;framework/guild&#45;core/internal/integration/events.NewTaskEvent</title>
<g id="a_node4"><a xlink:title="github.com/guild&#45;framework/guild&#45;core/internal/integration/events.NewTaskEvent | defined in schemas.go:155&#10;at schemas.go:162: calling [github.com/guild&#45;framework/guild&#45;core/pkg/events.NewBaseEvent]">
<path fill="lightblue" stroke="black" stroke-width="1.5" d="M154.54,-174C154.54,-174 55,-174 55,-174 49,-174 43,-168 43,-162 43,-162 43,-150 43,-150 43,-144 49,-138 55,-138 55,-138 154.54,-138 154.54,-138 160.54,-138 166.54,-144 166.54,-150 166.54,-150 166.54,-162 166.54,-162 166.54,-168 160.54,-174 154.54,-174"/>
<text xml:space="preserve" text-anchor="middle" x="104.77" y="-151.32" font-family="Verdana" font-size="14.00">NewTaskEvent</text>
</a>
</g>
</g>
<!-- github.com/guild&#45;framework/guild&#45;core/internal/integration/events.NewTaskEvent&#45;&gt;github.com/guild&#45;framework/guild&#45;core/pkg/events.NewBaseEvent -->
<g id="edge8" class="edge">
<title>github.com/guild&#45;framework/guild&#45;core/internal/integration/events.NewTaskEvent&#45;&gt;github.com/guild&#45;framework/guild&#45;core/pkg/events.NewBaseEvent</title>
<g id="a_edge8"><a xlink:title="at schemas.go:162: calling [github.com/guild&#45;framework/guild&#45;core/pkg/events.NewBaseEvent]">
<path fill="none" stroke="saddlebrown" d="M167.01,-172.75C194.34,-180.22 226.77,-189.09 255.39,-196.92"/>
<polygon fill="saddlebrown" stroke="saddlebrown" points="254.12,-200.2 264.69,-199.46 255.97,-193.45 254.12,-200.2"/>
</a>
</g>
</g>
<!-- github.com/guild&#45;framework/guild&#45;core/internal/integration/events.NewDataEvent -->
<g id="node5" class="node">
<title>github.com/guild&#45;framework/guild&#45;core/internal/integration/events.NewDataEvent</title>
<g id="a_node5"><a xlink:title="github.com/guild&#45;framework/guild&#45;core/internal/integration/events.NewDataEvent | defined in schemas.go:135&#10;at schemas.go:146: calling [github.com/guild&#45;framework/guild&#45;core/pkg/events.NewBaseEvent]">
<path fill="lightblue" stroke="black" stroke-width="1.5" d="M155.29,-235C155.29,-235 54.25,-235 54.25,-235 48.25,-235 42.25,-229 42.25,-223 42.25,-223 42.25,-211 42.25,-211 42.25,-205 48.25,-199 54.25,-199 54.25,-199 155.29,-199 155.29,-199 161.29,-199 167.29,-205 167.29,-211 167.29,-211 167.29,-223 167.29,-223 167.29,-229 161.29,-235 155.29,-235"/>
<text xml:space="preserve" text-anchor="middle" x="104.77" y="-212.32" font-family="Verdana" font-size="14.00">NewDataEvent</text>
</a>
</g>
</g>
<!-- github.com/guild&#45;framework/guild&#45;core/internal/integration/events.NewDataEvent&#45;&gt;github.com/guild&#45;framework/guild&#45;core/pkg/events.NewBaseEvent -->
<g id="edge1" class="edge">
<title>github.com/guild&#45;framework/guild&#45;core/internal/integration/events.NewDataEvent&#45;&gt;github.com/guild&#45;framework/guild&#45;core/pkg/events.NewBaseEvent</title>
<g id="a_edge1"><a xlink:title="at schemas.go:146: calling [github.com/guild&#45;framework/guild&#45;core/pkg/events.NewBaseEvent]">
<path fill="none" stroke="saddlebrown" d="M167.9,-217C194.75,-217 226.38,-217 254.47,-217"/>
<polygon fill="saddlebrown" stroke="saddlebrown" points="254.34,-220.5 264.34,-217 254.34,-213.5 254.34,-220.5"/>
</a>
</g>
</g>
<!-- github.com/guild&#45;framework/guild&#45;core/internal/integration/events.GetEventCategory -->
<g id="node6" class="node">
<title>github.com/guild&#45;framework/guild&#45;core/internal/integration/events.GetEventCategory</title>
<g id="a_node6"><a xlink:title="github.com/guild&#45;framework/guild&#45;core/internal/integration/events.GetEventCategory | defined in schemas.go:340&#10;at schemas.go:342: calling [github.com/guild&#45;framework/guild&#45;core/internal/integration/events.hasPrefix]&#10;at schemas.go:344: calling [github.com/guild&#45;framework/guild&#45;core/internal/integration/events.hasPrefix]&#10;at schemas.go:346: calling [github.com/guild&#45;framework/guild&#45;core/internal/integration/events.hasPrefix]&#10;at schemas.go:348: calling [github.com/guild&#45;framework/guild&#45;core/internal/integration/events.hasPrefix]&#10;at schemas.go:350: calling [github.com/guild&#45;framework/guild&#45;core/internal/integration/events.hasPrefix]&#10;at schemas.go:352: calling [github.com/guild&#45;framework/guild&#45;core/internal/integration/events.hasPrefix]&#10;at schemas.go:354: calling [github.com/guild&#45;framework/guild&#45;core/internal/integration/events.hasPrefix]&#10;at schemas.go:356: calling [github.com/guild&#45;framework/guild&#45;core/internal/integration/events.hasPrefix]&#10;at schemas.go:358: calling [github.com/guild&#45;framework/guild&#45;core/internal/integration/events.hasPrefix]">
<path fill="lightblue" stroke="black" stroke-width="1.5" d="M167.66,-479C167.66,-479 41.88,-479 41.88,-479 35.88,-479 29.87,-473 29.87,-467 29.87,-467 29.87,-455 29.87,-455 29.87,-449 35.87,-443 41.87,-443 41.87,-443 167.66,-443 167.66,-443 173.66,-443 179.66,-449 179.66,-455 179.66,-455 179.66,-467 179.66,-467 179.66,-473 173.66,-479 167.66,-479"/>
<text xml:space="preserve" text-anchor="middle" x="104.77" y="-456.32" font-family="Verdana" font-size="14.00">GetEventCategory</text>
</a>
</g>
</g>
<!-- github.com/guild&#45;framework/guild&#45;core/internal/integration/events.hasPrefix -->
<g id="node7" class="node">
<title>github.com/guild&#45;framework/guild&#45;core/internal/integration/events.hasPrefix</title>
<g id="a_node7"><a xlink:title="github.com/guild&#45;framework/guild&#45;core/internal/integration/events.hasPrefix | defined in schemas.go:365">
<path fill="lightblue" stroke="black" stroke-width="0.5" d="M361.58,-479C361.58,-479 298.04,-479 298.04,-479 292.04,-479 286.04,-473 286.04,-467 286.04,-467 286.04,-455 286.04,-455 286.04,-449 292.04,-443 298.04,-443 298.04,-443 361.58,-443 361.58,-443 367.58,-443 373.58,-449 373.58,-455 373.58,-455 373.58,-467 373.58,-467 373.58,-473 367.58,-479 361.58,-479"/>
<text xml:space="preserve" text-anchor="middle" x="329.81" y="-456.32" font-family="Verdana" font-size="14.00">hasPrefix</text>
</a>
</g>
</g>
<!-- github.com/guild&#45;framework/guild&#45;core/internal/integration/events.GetEventCategory&#45;&gt;github.com/guild&#45;framework/guild&#45;core/internal/integration/events.hasPrefix -->
<g id="edge2" class="edge">
<title>github.com/guild&#45;framework/guild&#45;core/internal/integration/events.GetEventCategory&#45;&gt;github.com/guild&#45;framework/guild&#45;core/internal/integration/events.hasPrefix</title>
<g id="a_edge2"><a xlink:title="at schemas.go:342: calling [github.com/guild&#45;framework/guild&#45;core/internal/integration/events.hasPrefix]&#10;at schemas.go:344: calling [github.com/guild&#45;framework/guild&#45;core/internal/integration/events.hasPrefix]&#10;at schemas.go:346: calling [github.com/guild&#45;framework/guild&#45;core/internal/integration/events.hasPrefix]&#10;at schemas.go:348: calling [github.com/guild&#45;framework/guild&#45;core/internal/integration/events.hasPrefix]&#10;at schemas.go:350: calling [github.com/guild&#45;framework/guild&#45;core/internal/integration/events.hasPrefix]&#10;at schemas.go:352: calling [github.com/guild&#45;framework/guild&#45;core/internal/integration/events.hasPrefix]&#10;at schemas.go:354: calling [github.com/guild&#45;framework/guild&#45;core/internal/integration/events.hasPrefix]&#10;at schemas.go:356: calling [github.com/guild&#45;framework/guild&#45;core/internal/integration/events.hasPrefix]&#10;at schemas.go:358: calling [github.com/guild&#45;framework/guild&#45;core/internal/integration/events.hasPrefix]">
<path fill="none" stroke="black" d="M180.35,-461C211.18,-461 246.26,-461 274.57,-461"/>
<polygon fill="black" stroke="black" points="274.35,-464.5 284.35,-461 274.35,-457.5 274.35,-464.5"/>
</a>
</g>
</g>
<!-- github.com/guild&#45;framework/guild&#45;core/internal/integration/events.NewCommissionEvent -->
<g id="node8" class="node">
<title>github.com/guild&#45;framework/guild&#45;core/internal/integration/events.NewCommissionEvent</title>
<g id="a_node8"><a xlink:title="github.com/guild&#45;framework/guild&#45;core/internal/integration/events.NewCommissionEvent | defined in schemas.go:187&#10;at schemas.go:194: calling [github.com/guild&#45;framework/guild&#45;core/pkg/events.NewBaseEvent]">
<path fill="lightblue" stroke="black" stroke-width="1.5" d="M181.54,-357C181.54,-357 28,-357 28,-357 22,-357 16,-351 16,-345 16,-345 16,-333 16,-333 16,-327 22,-321 28,-321 28,-321 181.54,-321 181.54,-321 187.54,-321 193.54,-327 193.54,-333 193.54,-333 193.54,-345 193.54,-345 193.54,-351 187.54,-357 181.54,-357"/>
<text xml:space="preserve" text-anchor="middle" x="104.77" y="-334.32" font-family="Verdana" font-size="14.00">NewCommissionEvent</text>
</a>
</g>
</g>
<!-- github.com/guild&#45;framework/guild&#45;core/internal/integration/events.NewCommissionEvent&#45;&gt;github.com/guild&#45;framework/guild&#45;core/pkg/events.NewBaseEvent -->
<g id="edge3" class="edge">
<title>github.com/guild&#45;framework/guild&#45;core/internal/integration/events.NewCommissionEvent&#45;&gt;github.com/guild&#45;framework/guild&#45;core/pkg/events.NewBaseEvent</title>
<g id="a_edge3"><a xlink:title="at schemas.go:194: calling [github.com/guild&#45;framework/guild&#45;core/pkg/events.NewBaseEvent]">
<path fill="none" stroke="saddlebrown" d="M172.14,-320.31C179.62,-317.05 186.92,-313.3 193.54,-309 226.37,-287.69 223.4,-265.43 256.68,-241.03"/>
<polygon fill="saddlebrown" stroke="saddlebrown" points="258.37,-244.11 264.71,-235.62 254.46,-238.3 258.37,-244.11"/>
</a>
</g>
</g>
<!-- github.com/guild&#45;framework/guild&#45;core/internal/integration/events.NewUIEvent -->
<g id="node9" class="node">
<title>github.com/guild&#45;framework/guild&#45;core/internal/integration/events.NewUIEvent</title>
<g id="a_node9"><a xlink:title="github.com/guild&#45;framework/guild&#45;core/internal/integration/events.NewUIEvent | defined in schemas.go:203&#10;at schemas.go:210: calling [github.com/guild&#45;framework/guild&#45;core/pkg/events.NewBaseEvent]">
<path fill="lightblue" stroke="black" stroke-width="1.5" d="M147.41,-418C147.41,-418 62.12,-418 62.12,-418 56.12,-418 50.12,-412 50.12,-406 50.12,-406 50.12,-394 50.12,-394 50.12,-388 56.12,-382 62.12,-382 62.12,-382 147.41,-382 147.41,-382 153.41,-382 159.41,-388 159.41,-394 159.41,-394 159.41,-406 159.41,-406 159.41,-412 153.41,-418 147.41,-418"/>
<text xml:space="preserve" text-anchor="middle" x="104.77" y="-395.32" font-family="Verdana" font-size="14.00">NewUIEvent</text>
</a>
</g>
</g>
<!-- github.com/guild&#45;framework/guild&#45;core/internal/integration/events.NewUIEvent&#45;&gt;github.com/guild&#45;framework/guild&#45;core/pkg/events.NewBaseEvent -->
<g id="edge4" class="edge">
<title>github.com/guild&#45;framework/guild&#45;core/internal/integration/events.NewUIEvent&#45;&gt;github.com/guild&#45;framework/guild&#45;core/pkg/events.NewBaseEvent</title>
<g id="a_edge4"><a xlink:title="at schemas.go:210: calling [github.com/guild&#45;framework/guild&#45;core/pkg/events.NewBaseEvent]">
<path fill="none" stroke="saddlebrown" d="M159.9,-388.83C171.95,-384.45 183.97,-378.39 193.54,-370 239.84,-329.41 212.4,-286.05 257.75,-241.07"/>
<polygon fill="saddlebrown" stroke="saddlebrown" points="259.86,-243.88 264.91,-234.57 255.15,-238.7 259.86,-243.88"/>
</a>
</g>
</g>
</g>
</svg>
