<?xml version="1.0" encoding="UTF-8" standalone="no"?>
<!DOCTYPE svg PUBLIC "-//W3C//DTD SVG 1.1//EN"
 "http://www.w3.org/Graphics/SVG/1.1/DTD/svg11.dtd">
<!-- Generated by graphviz version 14.1.1 (20251213.1925)
 -->
<!-- Title: gocallvis Pages: 1 -->
<svg width="1330pt" height="587pt"
 viewBox="0.00 0.00 1330.00 587.00" xmlns="http://www.w3.org/2000/svg" xmlns:xlink="http://www.w3.org/1999/xlink">
<g id="graph0" class="graph" transform="scale(1 1) rotate(0) translate(0 587)">
<title>gocallvis</title>
<polygon fill="lightgray" stroke="none" points="0,0 0,-587 1330.16,-587 1330.16,0 0,0"/>
<g id="clust1" class="cluster">
<title>cluster_focus</title>
<polygon fill="#e6ecfa" stroke="black" stroke-width="0.5" points="8,-8 8,-579 1322.16,-579 1322.16,-8 8,-8"/>
<text xml:space="preserve" text-anchor="middle" x="665.08" y="-557.9" font-family="Arial" font-size="18.00">agent</text>
</g>
<g id="clust2" class="cluster">
<title>cluster_github.com/guild&#45;framework/guild&#45;core/pkg/corpus</title>
<g id="a_clust2"><a xlink:href="/?f=github.com/guild-framework/guild-core/pkg/corpus" xlink:title="package: github.com/guild&#45;framework/guild&#45;core/pkg/corpus">
<polygon fill="lightyellow" stroke="black" stroke-width="0.8" points="1144.75,-462 1144.75,-542 1218.29,-542 1218.29,-462 1144.75,-462"/>
<text xml:space="preserve" text-anchor="middle" x="1181.52" y="-522.8" font-family="Tahoma bold" font-size="16.00">corpus</text>
</a>
</g>
</g>
<g id="clust3" class="cluster">
<title>cluster_github.com/guild&#45;framework/guild&#45;core/pkg/gerror</title>
<g id="a_clust3"><a xlink:href="/?f=github.com/guild-framework/guild-core/pkg/gerror" xlink:title="package: github.com/guild&#45;framework/guild&#45;core/pkg/gerror">
<polygon fill="lightyellow" stroke="black" stroke-width="0.8" points="1057.37,-130 1057.37,-454 1305.66,-454 1305.66,-130 1057.37,-130"/>
<text xml:space="preserve" text-anchor="middle" x="1181.52" y="-434.8" font-family="Tahoma bold" font-size="16.00">gerror</text>
</a>
</g>
</g>
<g id="clust4" class="cluster">
<title>cluster_github.com/guild&#45;framework/guild&#45;core/pkg/memory/rag</title>
<g id="a_clust4"><a xlink:href="/?f=github.com/guild-framework/guild-core/pkg/memory/rag" xlink:title="package: github.com/guild&#45;framework/guild&#45;core/pkg/memory/rag">
<polygon fill="lightyellow" stroke="black" stroke-width="0.8" points="696.21,-358 696.21,-438 937,-438 937,-358 696.21,-358"/>
<text xml:space="preserve" text-anchor="middle" x="816.6" y="-418.8" font-family="Tahoma bold" font-size="16.00">rag</text>
</a>
</g>
</g>
<!-- (*github.com/guild&#45;framework/guild&#45;core/pkg/corpus/agent.CorpusAgent).Execute -->
<g id="node1" class="node">
<title>(*github.com/guild&#45;framework/guild&#45;core/pkg/corpus/agent.CorpusAgent).Execute</title>
<g id="a_node1"><a xlink:title="(*github.com/guild&#45;framework/guild&#45;core/pkg/corpus/agent.CorpusAgent).Execute | defined in corpus_agent.go:65&#10;at corpus_agent.go:91: calling [(*github.com/guild&#45;framework/guild&#45;core/pkg/corpus/agent.CorpusAgent).generateResponse]&#10;at corpus_agent.go:81: calling [(*github.com/guild&#45;framework/guild&#45;core/pkg/memory/rag.Retriever).RetrieveContext]&#10;at corpus_agent.go:83: calling [github.com/guild&#45;framework/guild&#45;core/pkg/gerror.Wrap]&#10;at corpus_agent.go:93: calling [github.com/guild&#45;framework/guild&#45;core/pkg/gerror.Wrap]&#10;at corpus_agent.go:84: calling [(*github.com/guild&#45;framework/guild&#45;core/pkg/gerror.GuildError).WithComponent]&#10;at corpus_agent.go:94: calling [(*github.com/guild&#45;framework/guild&#45;core/pkg/gerror.GuildError).WithComponent]&#10;at corpus_agent.go:86: calling [(*github.com/guild&#45;framework/guild&#45;core/pkg/gerror.GuildError).WithDetails]&#10;at corpus_agent.go:87: calling [(*github.com/guild&#45;framework/guild&#45;core/pkg/gerror.GuildError).WithDetails]&#10;at corpus_agent.go:96: calling [(*github.com/guild&#45;framework/guild&#45;core/pkg/gerror.GuildError).WithDetails]&#10;at corpus_agent.go:97: calling [(*github.com/guild&#45;framework/guild&#45;core/pkg/gerror.GuildError).WithDetails]&#10;at corpus_agent.go:85: calling [(*github.com/guild&#45;framework/guild&#45;core/pkg/gerror.GuildError).WithOperation]&#10;at corpus_agent.go:95: calling [(*github.com/guild&#45;framework/guild&#45;core/pkg/gerror.GuildError).WithOperation]">
<path fill="lightblue" stroke="black" stroke-width="1.5" d="M559.96,-265C559.96,-265 388.42,-265 388.42,-265 382.42,-265 376.42,-259 376.42,-253 376.42,-253 376.42,-241 376.42,-241 376.42,-235 382.42,-229 388.42,-229 388.42,-229 559.96,-229 559.96,-229 565.96,-229 571.96,-235 571.96,-241 571.96,-241 571.96,-253 571.96,-253 571.96,-259 565.96,-265 559.96,-265"/>
<text xml:space="preserve" text-anchor="middle" x="474.19" y="-242.32" font-family="Verdana" font-size="14.00">(*CorpusAgent).Execute</text>
</a>
</g>
</g>
<!-- (*github.com/guild&#45;framework/guild&#45;core/pkg/corpus/agent.CorpusAgent).generateResponse -->
<g id="node2" class="node">
<title>(*github.com/guild&#45;framework/guild&#45;core/pkg/corpus/agent.CorpusAgent).generateResponse</title>
<g id="a_node2"><a xlink:title="(*github.com/guild&#45;framework/guild&#45;core/pkg/corpus/agent.CorpusAgent).generateResponse | defined in corpus_agent.go:158&#10;at corpus_agent.go:210: calling [(*github.com/guild&#45;framework/guild&#45;core/pkg/gerror.GuildError).WithDetails]&#10;at corpus_agent.go:211: calling [(*github.com/guild&#45;framework/guild&#45;core/pkg/gerror.GuildError).WithDetails]&#10;at corpus_agent.go:218: calling [(*github.com/guild&#45;framework/guild&#45;core/pkg/gerror.GuildError).WithDetails]&#10;at corpus_agent.go:208: calling [(*github.com/guild&#45;framework/guild&#45;core/pkg/gerror.GuildError).WithComponent]&#10;at corpus_agent.go:216: calling [(*github.com/guild&#45;framework/guild&#45;core/pkg/gerror.GuildError).WithComponent]&#10;at corpus_agent.go:209: calling [(*github.com/guild&#45;framework/guild&#45;core/pkg/gerror.GuildError).WithOperation]&#10;at corpus_agent.go:217: calling [(*github.com/guild&#45;framework/guild&#45;core/pkg/gerror.GuildError).WithOperation]&#10;at corpus_agent.go:215: calling [github.com/guild&#45;framework/guild&#45;core/pkg/gerror.New]&#10;at corpus_agent.go:166: calling [(*github.com/guild&#45;framework/guild&#45;core/pkg/corpus/agent.CorpusAgent).getSystemPrompt]&#10;at corpus_agent.go:207: calling [github.com/guild&#45;framework/guild&#45;core/pkg/gerror.Wrap]&#10;at corpus_agent.go:160: calling [(*github.com/guild&#45;framework/guild&#45;core/pkg/corpus/agent.CorpusAgent).buildPrompt]">
<path fill="lightblue" stroke="black" stroke-width="0.5" d="M939.5,-198C939.5,-198 693.71,-198 693.71,-198 687.71,-198 681.71,-192 681.71,-186 681.71,-186 681.71,-174 681.71,-174 681.71,-168 687.71,-162 693.71,-162 693.71,-162 939.5,-162 939.5,-162 945.5,-162 951.5,-168 951.5,-174 951.5,-174 951.5,-186 951.5,-186 951.5,-192 945.5,-198 939.5,-198"/>
<text xml:space="preserve" text-anchor="middle" x="816.6" y="-175.32" font-family="Verdana" font-size="14.00">(*CorpusAgent).generateResponse</text>
</a>
</g>
</g>
<!-- (*github.com/guild&#45;framework/guild&#45;core/pkg/corpus/agent.CorpusAgent).Execute&#45;&gt;(*github.com/guild&#45;framework/guild&#45;core/pkg/corpus/agent.CorpusAgent).generateResponse -->
<g id="edge2" class="edge">
<title>(*github.com/guild&#45;framework/guild&#45;core/pkg/corpus/agent.CorpusAgent).Execute&#45;&gt;(*github.com/guild&#45;framework/guild&#45;core/pkg/corpus/agent.CorpusAgent).generateResponse</title>
<g id="a_edge2"><a xlink:title="at corpus_agent.go:91: calling [(*github.com/guild&#45;framework/guild&#45;core/pkg/corpus/agent.CorpusAgent).generateResponse]">
<path fill="none" stroke="black" d="M564.57,-228.28C582.99,-224.49 602.28,-220.57 620.33,-217 648.27,-211.47 678.49,-205.65 706.62,-200.32"/>
<polygon fill="black" stroke="black" points="707.04,-203.8 716.21,-198.5 705.74,-196.92 707.04,-203.8"/>
</a>
</g>
</g>
<!-- github.com/guild&#45;framework/guild&#45;core/pkg/gerror.Wrap -->
<g id="node9" class="node">
<title>github.com/guild&#45;framework/guild&#45;core/pkg/gerror.Wrap</title>
<g id="a_node9"><a xlink:title="github.com/guild&#45;framework/guild&#45;core/pkg/gerror.Wrap | defined in errors.go:223">
<path fill="moccasin" stroke="black" stroke-width="1.5" d="M1199.41,-174C1199.41,-174 1163.62,-174 1163.62,-174 1157.62,-174 1151.62,-168 1151.62,-162 1151.62,-162 1151.62,-150 1151.62,-150 1151.62,-144 1157.62,-138 1163.62,-138 1163.62,-138 1199.41,-138 1199.41,-138 1205.41,-138 1211.41,-144 1211.41,-150 1211.41,-150 1211.41,-162 1211.41,-162 1211.41,-168 1205.41,-174 1199.41,-174"/>
<text xml:space="preserve" text-anchor="middle" x="1181.52" y="-151.32" font-family="Verdana" font-size="14.00">Wrap</text>
</a>
</g>
</g>
<!-- (*github.com/guild&#45;framework/guild&#45;core/pkg/corpus/agent.CorpusAgent).Execute&#45;&gt;github.com/guild&#45;framework/guild&#45;core/pkg/gerror.Wrap -->
<g id="edge6" class="edge">
<title>(*github.com/guild&#45;framework/guild&#45;core/pkg/corpus/agent.CorpusAgent).Execute&#45;&gt;github.com/guild&#45;framework/guild&#45;core/pkg/gerror.Wrap</title>
<g id="a_edge6"><a xlink:title="at corpus_agent.go:83: calling [github.com/guild&#45;framework/guild&#45;core/pkg/gerror.Wrap]&#10;at corpus_agent.go:93: calling [github.com/guild&#45;framework/guild&#45;core/pkg/gerror.Wrap]">
<path fill="none" stroke="saddlebrown" d="M500.37,-228.37C534.08,-204.71 596.67,-165.14 657.33,-150 832.34,-106.3 1050.66,-134.01 1139.78,-148.64"/>
<polygon fill="saddlebrown" stroke="saddlebrown" points="1139.05,-152.06 1149.49,-150.27 1140.21,-145.16 1139.05,-152.06"/>
</a>
</g>
</g>
<!-- (*github.com/guild&#45;framework/guild&#45;core/pkg/gerror.GuildError).WithComponent -->
<g id="node10" class="node">
<title>(*github.com/guild&#45;framework/guild&#45;core/pkg/gerror.GuildError).WithComponent</title>
<g id="a_node10"><a xlink:title="(*github.com/guild&#45;framework/guild&#45;core/pkg/gerror.GuildError).WithComponent | defined in errors.go:156">
<path fill="moccasin" stroke="black" stroke-width="1.5" d="M1285.66,-296C1285.66,-296 1077.37,-296 1077.37,-296 1071.37,-296 1065.37,-290 1065.37,-284 1065.37,-284 1065.37,-272 1065.37,-272 1065.37,-266 1071.37,-260 1077.37,-260 1077.37,-260 1285.66,-260 1285.66,-260 1291.66,-260 1297.66,-266 1297.66,-272 1297.66,-272 1297.66,-284 1297.66,-284 1297.66,-290 1291.66,-296 1285.66,-296"/>
<text xml:space="preserve" text-anchor="middle" x="1181.52" y="-273.32" font-family="Verdana" font-size="14.00">(*GuildError).WithComponent</text>
</a>
</g>
</g>
<!-- (*github.com/guild&#45;framework/guild&#45;core/pkg/corpus/agent.CorpusAgent).Execute&#45;&gt;(*github.com/guild&#45;framework/guild&#45;core/pkg/gerror.GuildError).WithComponent -->
<g id="edge7" class="edge">
<title>(*github.com/guild&#45;framework/guild&#45;core/pkg/corpus/agent.CorpusAgent).Execute&#45;&gt;(*github.com/guild&#45;framework/guild&#45;core/pkg/gerror.GuildError).WithComponent</title>
<g id="a_edge7"><a xlink:title="at corpus_agent.go:84: calling [(*github.com/guild&#45;framework/guild&#45;core/pkg/gerror.GuildError).WithComponent]&#10;at corpus_agent.go:94: calling [(*github.com/guild&#45;framework/guild&#45;core/pkg/gerror.GuildError).WithComponent]">
<path fill="none" stroke="saddlebrown" d="M572.52,-251.28C697.68,-256.78 915.32,-266.34 1053.42,-272.41"/>
<polygon fill="saddlebrown" stroke="saddlebrown" points="1053.22,-275.91 1063.37,-272.85 1053.53,-268.92 1053.22,-275.91"/>
</a>
</g>
</g>
<!-- (*github.com/guild&#45;framework/guild&#45;core/pkg/gerror.GuildError).WithOperation -->
<g id="node11" class="node">
<title>(*github.com/guild&#45;framework/guild&#45;core/pkg/gerror.GuildError).WithOperation</title>
<g id="a_node11"><a xlink:title="(*github.com/guild&#45;framework/guild&#45;core/pkg/gerror.GuildError).WithOperation | defined in errors.go:162">
<path fill="moccasin" stroke="black" stroke-width="1.5" d="M1280.04,-418C1280.04,-418 1083,-418 1083,-418 1077,-418 1071,-412 1071,-406 1071,-406 1071,-394 1071,-394 1071,-388 1077,-382 1083,-382 1083,-382 1280.04,-382 1280.04,-382 1286.04,-382 1292.04,-388 1292.04,-394 1292.04,-394 1292.04,-406 1292.04,-406 1292.04,-412 1286.04,-418 1280.04,-418"/>
<text xml:space="preserve" text-anchor="middle" x="1181.52" y="-395.32" font-family="Verdana" font-size="14.00">(*GuildError).WithOperation</text>
</a>
</g>
</g>
<!-- (*github.com/guild&#45;framework/guild&#45;core/pkg/corpus/agent.CorpusAgent).Execute&#45;&gt;(*github.com/guild&#45;framework/guild&#45;core/pkg/gerror.GuildError).WithOperation -->
<g id="edge12" class="edge">
<title>(*github.com/guild&#45;framework/guild&#45;core/pkg/corpus/agent.CorpusAgent).Execute&#45;&gt;(*github.com/guild&#45;framework/guild&#45;core/pkg/gerror.GuildError).WithOperation</title>
<g id="a_edge12"><a xlink:title="at corpus_agent.go:85: calling [(*github.com/guild&#45;framework/guild&#45;core/pkg/gerror.GuildError).WithOperation]&#10;at corpus_agent.go:95: calling [(*github.com/guild&#45;framework/guild&#45;core/pkg/gerror.GuildError).WithOperation]">
<path fill="none" stroke="saddlebrown" d="M569.06,-265.67C669.83,-285.94 834.51,-319.76 975.87,-352 1008.45,-359.43 1016.36,-362.29 1048.87,-370 1060.95,-372.87 1073.67,-375.83 1086.25,-378.73"/>
<polygon fill="saddlebrown" stroke="saddlebrown" points="1085.24,-382.09 1095.77,-380.92 1086.81,-375.27 1085.24,-382.09"/>
</a>
</g>
</g>
<!-- (*github.com/guild&#45;framework/guild&#45;core/pkg/gerror.GuildError).WithDetails -->
<g id="node12" class="node">
<title>(*github.com/guild&#45;framework/guild&#45;core/pkg/gerror.GuildError).WithDetails</title>
<g id="a_node12"><a xlink:title="(*github.com/guild&#45;framework/guild&#45;core/pkg/gerror.GuildError).WithDetails | defined in errors.go:147">
<path fill="moccasin" stroke="black" stroke-width="1.5" d="M1269.16,-235C1269.16,-235 1093.87,-235 1093.87,-235 1087.87,-235 1081.87,-229 1081.87,-223 1081.87,-223 1081.87,-211 1081.87,-211 1081.87,-205 1087.87,-199 1093.87,-199 1093.87,-199 1269.16,-199 1269.16,-199 1275.16,-199 1281.16,-205 1281.16,-211 1281.16,-211 1281.16,-223 1281.16,-223 1281.16,-229 1275.16,-235 1269.16,-235"/>
<text xml:space="preserve" text-anchor="middle" x="1181.52" y="-212.32" font-family="Verdana" font-size="14.00">(*GuildError).WithDetails</text>
</a>
</g>
</g>
<!-- (*github.com/guild&#45;framework/guild&#45;core/pkg/corpus/agent.CorpusAgent).Execute&#45;&gt;(*github.com/guild&#45;framework/guild&#45;core/pkg/gerror.GuildError).WithDetails -->
<g id="edge8" class="edge">
<title>(*github.com/guild&#45;framework/guild&#45;core/pkg/corpus/agent.CorpusAgent).Execute&#45;&gt;(*github.com/guild&#45;framework/guild&#45;core/pkg/gerror.GuildError).WithDetails</title>
<g id="a_edge8"><a xlink:title="at corpus_agent.go:86: calling [(*github.com/guild&#45;framework/guild&#45;core/pkg/gerror.GuildError).WithDetails]&#10;at corpus_agent.go:87: calling [(*github.com/guild&#45;framework/guild&#45;core/pkg/gerror.GuildError).WithDetails]&#10;at corpus_agent.go:96: calling [(*github.com/guild&#45;framework/guild&#45;core/pkg/gerror.GuildError).WithDetails]&#10;at corpus_agent.go:97: calling [(*github.com/guild&#45;framework/guild&#45;core/pkg/gerror.GuildError).WithDetails]">
<path fill="none" stroke="saddlebrown" d="M572.52,-242.86C702.82,-237.32 933.37,-227.51 1070.04,-221.7"/>
<polygon fill="saddlebrown" stroke="saddlebrown" points="1069.99,-225.2 1079.83,-221.28 1069.69,-218.21 1069.99,-225.2"/>
</a>
</g>
</g>
<!-- (*github.com/guild&#45;framework/guild&#45;core/pkg/memory/rag.Retriever).RetrieveContext -->
<g id="node14" class="node">
<title>(*github.com/guild&#45;framework/guild&#45;core/pkg/memory/rag.Retriever).RetrieveContext</title>
<g id="a_node14"><a xlink:title="(*github.com/guild&#45;framework/guild&#45;core/pkg/memory/rag.Retriever).RetrieveContext | defined in retriever.go:214">
<path fill="moccasin" stroke="black" stroke-width="1.5" d="M917,-402C917,-402 716.21,-402 716.21,-402 710.21,-402 704.21,-396 704.21,-390 704.21,-390 704.21,-378 704.21,-378 704.21,-372 710.21,-366 716.21,-366 716.21,-366 917,-366 917,-366 923,-366 929,-372 929,-378 929,-378 929,-390 929,-390 929,-396 923,-402 917,-402"/>
<text xml:space="preserve" text-anchor="middle" x="816.6" y="-379.32" font-family="Verdana" font-size="14.00">(*Retriever).RetrieveContext</text>
</a>
</g>
</g>
<!-- (*github.com/guild&#45;framework/guild&#45;core/pkg/corpus/agent.CorpusAgent).Execute&#45;&gt;(*github.com/guild&#45;framework/guild&#45;core/pkg/memory/rag.Retriever).RetrieveContext -->
<g id="edge5" class="edge">
<title>(*github.com/guild&#45;framework/guild&#45;core/pkg/corpus/agent.CorpusAgent).Execute&#45;&gt;(*github.com/guild&#45;framework/guild&#45;core/pkg/memory/rag.Retriever).RetrieveContext</title>
<g id="a_edge5"><a xlink:title="at corpus_agent.go:81: calling [(*github.com/guild&#45;framework/guild&#45;core/pkg/memory/rag.Retriever).RetrieveContext]">
<path fill="none" stroke="saddlebrown" d="M564.93,-265.74C571.87,-269.16 578.45,-273.21 584.33,-278 611.15,-299.84 594.73,-323.74 620.33,-347 633.46,-358.93 640.19,-357.41 657.33,-362 668.72,-365.05 680.68,-367.69 692.73,-369.98"/>
<polygon fill="saddlebrown" stroke="saddlebrown" points="691.84,-373.38 702.3,-371.71 693.08,-366.49 691.84,-373.38"/>
</a>
</g>
</g>
<!-- (*github.com/guild&#45;framework/guild&#45;core/pkg/corpus/agent.CorpusAgent).buildPrompt -->
<g id="node3" class="node">
<title>(*github.com/guild&#45;framework/guild&#45;core/pkg/corpus/agent.CorpusAgent).buildPrompt</title>
<g id="a_node3"><a xlink:title="(*github.com/guild&#45;framework/guild&#45;core/pkg/corpus/agent.CorpusAgent).buildPrompt | defined in corpus_agent.go:225">
<path fill="lightblue" stroke="black" stroke-width="0.5" d="M1281.91,-52C1281.91,-52 1081.12,-52 1081.12,-52 1075.12,-52 1069.12,-46 1069.12,-40 1069.12,-40 1069.12,-28 1069.12,-28 1069.12,-22 1075.12,-16 1081.12,-16 1081.12,-16 1281.91,-16 1281.91,-16 1287.91,-16 1293.91,-22 1293.91,-28 1293.91,-28 1293.91,-40 1293.91,-40 1293.91,-46 1287.91,-52 1281.91,-52"/>
<text xml:space="preserve" text-anchor="middle" x="1181.52" y="-29.32" font-family="Verdana" font-size="14.00">(*CorpusAgent).buildPrompt</text>
</a>
</g>
</g>
<!-- (*github.com/guild&#45;framework/guild&#45;core/pkg/corpus/agent.CorpusAgent).generateResponse&#45;&gt;(*github.com/guild&#45;framework/guild&#45;core/pkg/corpus/agent.CorpusAgent).buildPrompt -->
<g id="edge19" class="edge">
<title>(*github.com/guild&#45;framework/guild&#45;core/pkg/corpus/agent.CorpusAgent).generateResponse&#45;&gt;(*github.com/guild&#45;framework/guild&#45;core/pkg/corpus/agent.CorpusAgent).buildPrompt</title>
<g id="a_edge19"><a xlink:title="at corpus_agent.go:160: calling [(*github.com/guild&#45;framework/guild&#45;core/pkg/corpus/agent.CorpusAgent).buildPrompt]">
<path fill="none" stroke="black" d="M848.38,-161.81C891.77,-136.86 974,-92.02 1048.87,-65 1058.79,-61.42 1069.28,-58.14 1079.83,-55.17"/>
<polygon fill="black" stroke="black" points="1080.64,-58.58 1089.37,-52.58 1078.8,-51.82 1080.64,-58.58"/>
</a>
</g>
</g>
<!-- (*github.com/guild&#45;framework/guild&#45;core/pkg/corpus/agent.CorpusAgent).getSystemPrompt -->
<g id="node4" class="node">
<title>(*github.com/guild&#45;framework/guild&#45;core/pkg/corpus/agent.CorpusAgent).getSystemPrompt</title>
<g id="a_node4"><a xlink:title="(*github.com/guild&#45;framework/guild&#45;core/pkg/corpus/agent.CorpusAgent).getSystemPrompt | defined in corpus_agent.go:261">
<path fill="lightblue" stroke="black" stroke-width="0.5" d="M1302.16,-113C1302.16,-113 1060.87,-113 1060.87,-113 1054.87,-113 1048.87,-107 1048.87,-101 1048.87,-101 1048.87,-89 1048.87,-89 1048.87,-83 1054.87,-77 1060.87,-77 1060.87,-77 1302.16,-77 1302.16,-77 1308.16,-77 1314.16,-83 1314.16,-89 1314.16,-89 1314.16,-101 1314.16,-101 1314.16,-107 1308.16,-113 1302.16,-113"/>
<text xml:space="preserve" text-anchor="middle" x="1181.52" y="-90.33" font-family="Verdana" font-size="14.00">(*CorpusAgent).getSystemPrompt</text>
</a>
</g>
</g>
<!-- (*github.com/guild&#45;framework/guild&#45;core/pkg/corpus/agent.CorpusAgent).generateResponse&#45;&gt;(*github.com/guild&#45;framework/guild&#45;core/pkg/corpus/agent.CorpusAgent).getSystemPrompt -->
<g id="edge16" class="edge">
<title>(*github.com/guild&#45;framework/guild&#45;core/pkg/corpus/agent.CorpusAgent).generateResponse&#45;&gt;(*github.com/guild&#45;framework/guild&#45;core/pkg/corpus/agent.CorpusAgent).getSystemPrompt</title>
<g id="a_edge16"><a xlink:title="at corpus_agent.go:166: calling [(*github.com/guild&#45;framework/guild&#45;core/pkg/corpus/agent.CorpusAgent).getSystemPrompt]">
<path fill="none" stroke="black" d="M891.2,-161.77C936.59,-150.62 996.04,-136.21 1048.87,-124 1060.65,-121.28 1073.04,-118.47 1085.32,-115.73"/>
<polygon fill="black" stroke="black" points="1086.06,-119.15 1095.06,-113.56 1084.54,-112.31 1086.06,-119.15"/>
</a>
</g>
</g>
<!-- (*github.com/guild&#45;framework/guild&#45;core/pkg/corpus/agent.CorpusAgent).generateResponse&#45;&gt;github.com/guild&#45;framework/guild&#45;core/pkg/gerror.Wrap -->
<g id="edge17" class="edge">
<title>(*github.com/guild&#45;framework/guild&#45;core/pkg/corpus/agent.CorpusAgent).generateResponse&#45;&gt;github.com/guild&#45;framework/guild&#45;core/pkg/gerror.Wrap</title>
<g id="a_edge17"><a xlink:title="at corpus_agent.go:207: calling [github.com/guild&#45;framework/guild&#45;core/pkg/gerror.Wrap]">
<path fill="none" stroke="saddlebrown" d="M951.71,-171.13C1018.43,-166.72 1094.34,-161.7 1139.79,-158.69"/>
<polygon fill="saddlebrown" stroke="saddlebrown" points="1139.95,-162.19 1149.7,-158.04 1139.49,-155.21 1139.95,-162.19"/>
</a>
</g>
</g>
<!-- (*github.com/guild&#45;framework/guild&#45;core/pkg/corpus/agent.CorpusAgent).generateResponse&#45;&gt;(*github.com/guild&#45;framework/guild&#45;core/pkg/gerror.GuildError).WithComponent -->
<g id="edge9" class="edge">
<title>(*github.com/guild&#45;framework/guild&#45;core/pkg/corpus/agent.CorpusAgent).generateResponse&#45;&gt;(*github.com/guild&#45;framework/guild&#45;core/pkg/gerror.GuildError).WithComponent</title>
<g id="a_edge9"><a xlink:title="at corpus_agent.go:208: calling [(*github.com/guild&#45;framework/guild&#45;core/pkg/gerror.GuildError).WithComponent]&#10;at corpus_agent.go:216: calling [(*github.com/guild&#45;framework/guild&#45;core/pkg/gerror.GuildError).WithComponent]">
<path fill="none" stroke="saddlebrown" d="M875.78,-198.19C922.38,-212.5 989.54,-232.53 1048.87,-248 1060.25,-250.97 1072.22,-253.92 1084.11,-256.75"/>
<polygon fill="saddlebrown" stroke="saddlebrown" points="1082.99,-260.09 1093.52,-258.97 1084.59,-253.27 1082.99,-260.09"/>
</a>
</g>
</g>
<!-- (*github.com/guild&#45;framework/guild&#45;core/pkg/corpus/agent.CorpusAgent).generateResponse&#45;&gt;(*github.com/guild&#45;framework/guild&#45;core/pkg/gerror.GuildError).WithOperation -->
<g id="edge10" class="edge">
<title>(*github.com/guild&#45;framework/guild&#45;core/pkg/corpus/agent.CorpusAgent).generateResponse&#45;&gt;(*github.com/guild&#45;framework/guild&#45;core/pkg/gerror.GuildError).WithOperation</title>
<g id="a_edge10"><a xlink:title="at corpus_agent.go:209: calling [(*github.com/guild&#45;framework/guild&#45;core/pkg/gerror.GuildError).WithOperation]&#10;at corpus_agent.go:217: calling [(*github.com/guild&#45;framework/guild&#45;core/pkg/gerror.GuildError).WithOperation]">
<path fill="none" stroke="saddlebrown" d="M833.88,-198.15C869.11,-236.26 956.72,-324.82 1048.87,-370 1054.6,-372.81 1060.6,-375.36 1066.75,-377.68"/>
<polygon fill="saddlebrown" stroke="saddlebrown" points="1065.19,-380.84 1075.79,-380.86 1067.51,-374.24 1065.19,-380.84"/>
</a>
</g>
</g>
<!-- (*github.com/guild&#45;framework/guild&#45;core/pkg/corpus/agent.CorpusAgent).generateResponse&#45;&gt;(*github.com/guild&#45;framework/guild&#45;core/pkg/gerror.GuildError).WithDetails -->
<g id="edge1" class="edge">
<title>(*github.com/guild&#45;framework/guild&#45;core/pkg/corpus/agent.CorpusAgent).generateResponse&#45;&gt;(*github.com/guild&#45;framework/guild&#45;core/pkg/gerror.GuildError).WithDetails</title>
<g id="a_edge1"><a xlink:title="at corpus_agent.go:210: calling [(*github.com/guild&#45;framework/guild&#45;core/pkg/gerror.GuildError).WithDetails]&#10;at corpus_agent.go:211: calling [(*github.com/guild&#45;framework/guild&#45;core/pkg/gerror.GuildError).WithDetails]&#10;at corpus_agent.go:218: calling [(*github.com/guild&#45;framework/guild&#45;core/pkg/gerror.GuildError).WithDetails]">
<path fill="none" stroke="saddlebrown" d="M951.71,-193.67C990.59,-197.64 1032.59,-201.92 1069.87,-205.72"/>
<polygon fill="saddlebrown" stroke="saddlebrown" points="1069.47,-209.2 1079.77,-206.73 1070.18,-202.23 1069.47,-209.2"/>
</a>
</g>
</g>
<!-- github.com/guild&#45;framework/guild&#45;core/pkg/gerror.New -->
<g id="node13" class="node">
<title>github.com/guild&#45;framework/guild&#45;core/pkg/gerror.New</title>
<g id="a_node13"><a xlink:title="github.com/guild&#45;framework/guild&#45;core/pkg/gerror.New | defined in errors.go:190">
<path fill="moccasin" stroke="black" stroke-width="1.5" d="M1196.52,-357C1196.52,-357 1166.52,-357 1166.52,-357 1160.52,-357 1154.52,-351 1154.52,-345 1154.52,-345 1154.52,-333 1154.52,-333 1154.52,-327 1160.52,-321 1166.52,-321 1166.52,-321 1196.52,-321 1196.52,-321 1202.52,-321 1208.52,-327 1208.52,-333 1208.52,-333 1208.52,-345 1208.52,-345 1208.52,-351 1202.52,-357 1196.52,-357"/>
<text xml:space="preserve" text-anchor="middle" x="1181.52" y="-334.32" font-family="Verdana" font-size="14.00">New</text>
</a>
</g>
</g>
<!-- (*github.com/guild&#45;framework/guild&#45;core/pkg/corpus/agent.CorpusAgent).generateResponse&#45;&gt;github.com/guild&#45;framework/guild&#45;core/pkg/gerror.New -->
<g id="edge13" class="edge">
<title>(*github.com/guild&#45;framework/guild&#45;core/pkg/corpus/agent.CorpusAgent).generateResponse&#45;&gt;github.com/guild&#45;framework/guild&#45;core/pkg/gerror.New</title>
<g id="a_edge13"><a xlink:title="at corpus_agent.go:215: calling [github.com/guild&#45;framework/guild&#45;core/pkg/gerror.New]">
<path fill="none" stroke="saddlebrown" d="M844.13,-198.13C885.89,-225.89 970.32,-278.86 1048.87,-309 1079.47,-320.74 1115.91,-328.61 1142.69,-333.33"/>
<polygon fill="saddlebrown" stroke="saddlebrown" points="1141.95,-336.75 1152.39,-334.97 1143.12,-329.85 1141.95,-336.75"/>
</a>
</g>
</g>
<!-- (*github.com/guild&#45;framework/guild&#45;core/pkg/corpus/agent.CorpusAgent).GenerateDocument -->
<g id="node5" class="node">
<title>(*github.com/guild&#45;framework/guild&#45;core/pkg/corpus/agent.CorpusAgent).GenerateDocument</title>
<g id="a_node5"><a xlink:title="(*github.com/guild&#45;framework/guild&#45;core/pkg/corpus/agent.CorpusAgent).GenerateDocument | defined in corpus_agent.go:116&#10;at corpus_agent.go:127: calling [(*github.com/guild&#45;framework/guild&#45;core/pkg/corpus/agent.CorpusAgent).extractTags]&#10;at corpus_agent.go:118: calling [(*github.com/guild&#45;framework/guild&#45;core/pkg/corpus/agent.CorpusAgent).Execute]">
<path fill="lightblue" stroke="black" stroke-width="1.5" d="M279.04,-286C279.04,-286 28,-286 28,-286 22,-286 16,-280 16,-274 16,-274 16,-262 16,-262 16,-256 22,-250 28,-250 28,-250 279.04,-250 279.04,-250 285.04,-250 291.04,-256 291.04,-262 291.04,-262 291.04,-274 291.04,-274 291.04,-280 285.04,-286 279.04,-286"/>
<text xml:space="preserve" text-anchor="middle" x="153.52" y="-263.32" font-family="Verdana" font-size="14.00">(*CorpusAgent).GenerateDocument</text>
</a>
</g>
</g>
<!-- (*github.com/guild&#45;framework/guild&#45;core/pkg/corpus/agent.CorpusAgent).GenerateDocument&#45;&gt;(*github.com/guild&#45;framework/guild&#45;core/pkg/corpus/agent.CorpusAgent).Execute -->
<g id="edge18" class="edge">
<title>(*github.com/guild&#45;framework/guild&#45;core/pkg/corpus/agent.CorpusAgent).GenerateDocument&#45;&gt;(*github.com/guild&#45;framework/guild&#45;core/pkg/corpus/agent.CorpusAgent).Execute</title>
<g id="a_edge18"><a xlink:title="at corpus_agent.go:118: calling [(*github.com/guild&#45;framework/guild&#45;core/pkg/corpus/agent.CorpusAgent).Execute]">
<path fill="none" stroke="black" d="M291.51,-258.97C315.87,-257.37 340.93,-255.72 364.37,-254.17"/>
<polygon fill="black" stroke="black" points="364.48,-257.67 374.22,-253.52 364.02,-250.69 364.48,-257.67"/>
</a>
</g>
</g>
<!-- (*github.com/guild&#45;framework/guild&#45;core/pkg/corpus/agent.CorpusAgent).extractTags -->
<g id="node6" class="node">
<title>(*github.com/guild&#45;framework/guild&#45;core/pkg/corpus/agent.CorpusAgent).extractTags</title>
<g id="a_node6"><a xlink:title="(*github.com/guild&#45;framework/guild&#45;core/pkg/corpus/agent.CorpusAgent).extractTags | defined in corpus_agent.go:284">
<path fill="lightblue" stroke="black" stroke-width="0.5" d="M572.33,-326C572.33,-326 376.04,-326 376.04,-326 370.04,-326 364.04,-320 364.04,-314 364.04,-314 364.04,-302 364.04,-302 364.04,-296 370.04,-290 376.04,-290 376.04,-290 572.33,-290 572.33,-290 578.33,-290 584.33,-296 584.33,-302 584.33,-302 584.33,-314 584.33,-314 584.33,-320 578.33,-326 572.33,-326"/>
<text xml:space="preserve" text-anchor="middle" x="474.19" y="-303.32" font-family="Verdana" font-size="14.00">(*CorpusAgent).extractTags</text>
</a>
</g>
</g>
<!-- (*github.com/guild&#45;framework/guild&#45;core/pkg/corpus/agent.CorpusAgent).GenerateDocument&#45;&gt;(*github.com/guild&#45;framework/guild&#45;core/pkg/corpus/agent.CorpusAgent).extractTags -->
<g id="edge3" class="edge">
<title>(*github.com/guild&#45;framework/guild&#45;core/pkg/corpus/agent.CorpusAgent).GenerateDocument&#45;&gt;(*github.com/guild&#45;framework/guild&#45;core/pkg/corpus/agent.CorpusAgent).extractTags</title>
<g id="a_edge3"><a xlink:title="at corpus_agent.go:127: calling [(*github.com/guild&#45;framework/guild&#45;core/pkg/corpus/agent.CorpusAgent).extractTags]">
<path fill="none" stroke="black" d="M291.51,-285.2C311.91,-287.76 332.81,-290.38 352.84,-292.89"/>
<polygon fill="black" stroke="black" points="352.33,-296.36 362.69,-294.13 353.2,-289.41 352.33,-296.36"/>
</a>
</g>
</g>
<!-- (*github.com/guild&#45;framework/guild&#45;core/pkg/corpus/agent.CorpusAgent).SaveGeneratedDocument -->
<g id="node7" class="node">
<title>(*github.com/guild&#45;framework/guild&#45;core/pkg/corpus/agent.CorpusAgent).SaveGeneratedDocument</title>
<g id="a_node7"><a xlink:title="(*github.com/guild&#45;framework/guild&#45;core/pkg/corpus/agent.CorpusAgent).SaveGeneratedDocument | defined in corpus_agent.go:139&#10;at corpus_agent.go:143: calling [(*github.com/guild&#45;framework/guild&#45;core/pkg/gerror.GuildError).WithComponent]&#10;at corpus_agent.go:149: calling [(*github.com/guild&#45;framework/guild&#45;core/pkg/gerror.GuildError).WithComponent]&#10;at corpus_agent.go:142: calling [github.com/guild&#45;framework/guild&#45;core/pkg/gerror.New]&#10;at corpus_agent.go:148: calling [github.com/guild&#45;framework/guild&#45;core/pkg/gerror.New]&#10;at corpus_agent.go:144: calling [(*github.com/guild&#45;framework/guild&#45;core/pkg/gerror.GuildError).WithOperation]&#10;at corpus_agent.go:150: calling [(*github.com/guild&#45;framework/guild&#45;core/pkg/gerror.GuildError).WithOperation]&#10;at corpus_agent.go:154: calling [github.com/guild&#45;framework/guild&#45;core/pkg/corpus.Save]">
<path fill="lightblue" stroke="black" stroke-width="1.5" d="M963.87,-482C963.87,-482 669.33,-482 669.33,-482 663.33,-482 657.33,-476 657.33,-470 657.33,-470 657.33,-458 657.33,-458 657.33,-452 663.33,-446 669.33,-446 669.33,-446 963.87,-446 963.87,-446 969.87,-446 975.87,-452 975.87,-458 975.87,-458 975.87,-470 975.87,-470 975.87,-476 969.87,-482 963.87,-482"/>
<text xml:space="preserve" text-anchor="middle" x="816.6" y="-459.32" font-family="Verdana" font-size="14.00">(*CorpusAgent).SaveGeneratedDocument</text>
</a>
</g>
</g>
<!-- github.com/guild&#45;framework/guild&#45;core/pkg/corpus.Save -->
<g id="node8" class="node">
<title>github.com/guild&#45;framework/guild&#45;core/pkg/corpus.Save</title>
<g id="a_node8"><a xlink:title="github.com/guild&#45;framework/guild&#45;core/pkg/corpus.Save | defined in storage.go:80">
<path fill="moccasin" stroke="black" stroke-width="1.5" d="M1198.29,-506C1198.29,-506 1164.75,-506 1164.75,-506 1158.75,-506 1152.75,-500 1152.75,-494 1152.75,-494 1152.75,-482 1152.75,-482 1152.75,-476 1158.75,-470 1164.75,-470 1164.75,-470 1198.29,-470 1198.29,-470 1204.29,-470 1210.29,-476 1210.29,-482 1210.29,-482 1210.29,-494 1210.29,-494 1210.29,-500 1204.29,-506 1198.29,-506"/>
<text xml:space="preserve" text-anchor="middle" x="1181.52" y="-483.32" font-family="Verdana" font-size="14.00">Save</text>
</a>
</g>
</g>
<!-- (*github.com/guild&#45;framework/guild&#45;core/pkg/corpus/agent.CorpusAgent).SaveGeneratedDocument&#45;&gt;github.com/guild&#45;framework/guild&#45;core/pkg/corpus.Save -->
<g id="edge15" class="edge">
<title>(*github.com/guild&#45;framework/guild&#45;core/pkg/corpus/agent.CorpusAgent).SaveGeneratedDocument&#45;&gt;github.com/guild&#45;framework/guild&#45;core/pkg/corpus.Save</title>
<g id="a_edge15"><a xlink:title="at corpus_agent.go:154: calling [github.com/guild&#45;framework/guild&#45;core/pkg/corpus.Save]">
<path fill="none" stroke="saddlebrown" d="M976.52,-474.51C1037.1,-478.52 1101.09,-482.75 1140.9,-485.38"/>
<polygon fill="saddlebrown" stroke="saddlebrown" points="1140.49,-488.86 1150.69,-486.03 1140.95,-481.88 1140.49,-488.86"/>
</a>
</g>
</g>
<!-- (*github.com/guild&#45;framework/guild&#45;core/pkg/corpus/agent.CorpusAgent).SaveGeneratedDocument&#45;&gt;(*github.com/guild&#45;framework/guild&#45;core/pkg/gerror.GuildError).WithComponent -->
<g id="edge4" class="edge">
<title>(*github.com/guild&#45;framework/guild&#45;core/pkg/corpus/agent.CorpusAgent).SaveGeneratedDocument&#45;&gt;(*github.com/guild&#45;framework/guild&#45;core/pkg/gerror.GuildError).WithComponent</title>
<g id="a_edge4"><a xlink:title="at corpus_agent.go:143: calling [(*github.com/guild&#45;framework/guild&#45;core/pkg/gerror.GuildError).WithComponent]&#10;at corpus_agent.go:149: calling [(*github.com/guild&#45;framework/guild&#45;core/pkg/gerror.GuildError).WithComponent]">
<path fill="none" stroke="saddlebrown" d="M970.63,-445.39C972.41,-444.31 974.16,-443.18 975.87,-442 1031.39,-403.73 995.19,-349.81 1048.87,-309 1052.25,-306.43 1055.8,-304.07 1059.49,-301.91"/>
<polygon fill="saddlebrown" stroke="saddlebrown" points="1061,-305.07 1068.22,-297.31 1057.74,-298.87 1061,-305.07"/>
</a>
</g>
</g>
<!-- (*github.com/guild&#45;framework/guild&#45;core/pkg/corpus/agent.CorpusAgent).SaveGeneratedDocument&#45;&gt;(*github.com/guild&#45;framework/guild&#45;core/pkg/gerror.GuildError).WithOperation -->
<g id="edge14" class="edge">
<title>(*github.com/guild&#45;framework/guild&#45;core/pkg/corpus/agent.CorpusAgent).SaveGeneratedDocument&#45;&gt;(*github.com/guild&#45;framework/guild&#45;core/pkg/gerror.GuildError).WithOperation</title>
<g id="a_edge14"><a xlink:title="at corpus_agent.go:144: calling [(*github.com/guild&#45;framework/guild&#45;core/pkg/gerror.GuildError).WithOperation]&#10;at corpus_agent.go:150: calling [(*github.com/guild&#45;framework/guild&#45;core/pkg/gerror.GuildError).WithOperation]">
<path fill="none" stroke="saddlebrown" d="M956.22,-445.26C962.87,-444.19 969.44,-443.1 975.87,-442 1011.51,-435.87 1050.43,-428.15 1084.67,-421"/>
<polygon fill="saddlebrown" stroke="saddlebrown" points="1085.07,-424.49 1094.14,-419.01 1083.63,-417.64 1085.07,-424.49"/>
</a>
</g>
</g>
<!-- (*github.com/guild&#45;framework/guild&#45;core/pkg/corpus/agent.CorpusAgent).SaveGeneratedDocument&#45;&gt;github.com/guild&#45;framework/guild&#45;core/pkg/gerror.New -->
<g id="edge11" class="edge">
<title>(*github.com/guild&#45;framework/guild&#45;core/pkg/corpus/agent.CorpusAgent).SaveGeneratedDocument&#45;&gt;github.com/guild&#45;framework/guild&#45;core/pkg/gerror.New</title>
<g id="a_edge11"><a xlink:title="at corpus_agent.go:142: calling [github.com/guild&#45;framework/guild&#45;core/pkg/gerror.New]&#10;at corpus_agent.go:148: calling [github.com/guild&#45;framework/guild&#45;core/pkg/gerror.New]">
<path fill="none" stroke="saddlebrown" d="M968.66,-445.33C971.1,-444.28 973.51,-443.17 975.87,-442 1016.74,-421.84 1008.99,-392.04 1048.87,-370 1078,-353.9 1115.23,-346.13 1142.66,-342.39"/>
<polygon fill="saddlebrown" stroke="saddlebrown" points="1142.77,-345.91 1152.27,-341.21 1141.91,-338.96 1142.77,-345.91"/>
</a>
</g>
</g>
</g>
</svg>
