<?xml version="1.0" encoding="UTF-8" standalone="no"?>
<!DOCTYPE svg PUBLIC "-//W3C//DTD SVG 1.1//EN"
 "http://www.w3.org/Graphics/SVG/1.1/DTD/svg11.dtd">
<!-- Generated by graphviz version 14.1.1 (20251213.1925)
 -->
<!-- Title: gocallvis Pages: 1 -->
<svg width="490pt" height="202pt"
 viewBox="0.00 0.00 490.00 202.00" xmlns="http://www.w3.org/2000/svg" xmlns:xlink="http://www.w3.org/1999/xlink">
<g id="graph0" class="graph" transform="scale(1 1) rotate(0) translate(0 202)">
<title>gocallvis</title>
<polygon fill="lightgray" stroke="none" points="0,0 0,-202 489.83,-202 489.83,0 0,0"/>
<g id="clust1" class="cluster">
<title>cluster_focus</title>
<polygon fill="#e6ecfa" stroke="black" stroke-width="0.5" points="8,-8 8,-194 481.83,-194 481.83,-8 8,-8"/>
<text xml:space="preserve" text-anchor="middle" x="244.91" y="-172.9" font-family="Arial" font-size="18.00">agentobj</text>
</g>
<g id="clust2" class="cluster">
<title>cluster_github.com/guild&#45;framework/guild&#45;core/pkg/commission</title>
<g id="a_clust2"><a xlink:href="/?f=github.com/guild-framework/guild-core/pkg/commission" xlink:title="package: github.com/guild&#45;framework/guild&#45;core/pkg/commission">
<polygon fill="lightyellow" stroke="black" stroke-width="0.8" points="254.04,-16 254.04,-157 473.83,-157 473.83,-16 254.04,-16"/>
<text xml:space="preserve" text-anchor="middle" x="363.93" y="-137.8" font-family="Tahoma bold" font-size="16.00">commission</text>
</a>
</g>
</g>
<!-- github.com/guild&#45;framework/guild&#45;core/pkg/commission/agentobj.NewAgentParser -->
<g id="node1" class="node">
<title>github.com/guild&#45;framework/guild&#45;core/pkg/commission/agentobj.NewAgentParser</title>
<g id="a_node1"><a xlink:title="github.com/guild&#45;framework/guild&#45;core/pkg/commission/agentobj.NewAgentParser | defined in parser.go:18&#10;at parser.go:20: calling [github.com/guild&#45;framework/guild&#45;core/pkg/commission.NewMarkdownParser]">
<path fill="lightblue" stroke="black" stroke-width="1.5" d="M159.79,-60C159.79,-60 45.25,-60 45.25,-60 39.25,-60 33.25,-54 33.25,-48 33.25,-48 33.25,-36 33.25,-36 33.25,-30 39.25,-24 45.25,-24 45.25,-24 159.79,-24 159.79,-24 165.79,-24 171.79,-30 171.79,-36 171.79,-36 171.79,-48 171.79,-48 171.79,-54 165.79,-60 159.79,-60"/>
<text xml:space="preserve" text-anchor="middle" x="102.52" y="-37.33" font-family="Verdana" font-size="14.00">NewAgentParser</text>
</a>
</g>
</g>
<!-- github.com/guild&#45;framework/guild&#45;core/pkg/commission.NewMarkdownParser -->
<g id="node3" class="node">
<title>github.com/guild&#45;framework/guild&#45;core/pkg/commission.NewMarkdownParser</title>
<g id="a_node3"><a xlink:title="github.com/guild&#45;framework/guild&#45;core/pkg/commission.NewMarkdownParser | defined in parser.go:58">
<path fill="moccasin" stroke="black" stroke-width="1.5" d="M436.58,-60C436.58,-60 291.29,-60 291.29,-60 285.29,-60 279.29,-54 279.29,-48 279.29,-48 279.29,-36 279.29,-36 279.29,-30 285.29,-24 291.29,-24 291.29,-24 436.58,-24 436.58,-24 442.58,-24 448.58,-30 448.58,-36 448.58,-36 448.58,-48 448.58,-48 448.58,-54 442.58,-60 436.58,-60"/>
<text xml:space="preserve" text-anchor="middle" x="363.93" y="-37.33" font-family="Verdana" font-size="14.00">NewMarkdownParser</text>
</a>
</g>
</g>
<!-- github.com/guild&#45;framework/guild&#45;core/pkg/commission/agentobj.NewAgentParser&#45;&gt;github.com/guild&#45;framework/guild&#45;core/pkg/commission.NewMarkdownParser -->
<g id="edge1" class="edge">
<title>github.com/guild&#45;framework/guild&#45;core/pkg/commission/agentobj.NewAgentParser&#45;&gt;github.com/guild&#45;framework/guild&#45;core/pkg/commission.NewMarkdownParser</title>
<g id="a_edge1"><a xlink:title="at parser.go:20: calling [github.com/guild&#45;framework/guild&#45;core/pkg/commission.NewMarkdownParser]">
<path fill="none" stroke="saddlebrown" d="M172.36,-42C201.5,-42 235.95,-42 267.48,-42"/>
<polygon fill="saddlebrown" stroke="saddlebrown" points="267.44,-45.5 277.44,-42 267.44,-38.5 267.44,-45.5"/>
</a>
</g>
</g>
<!-- (*github.com/guild&#45;framework/guild&#45;core/pkg/commission/agentobj.AgentParser).Parse -->
<g id="node2" class="node">
<title>(*github.com/guild&#45;framework/guild&#45;core/pkg/commission/agentobj.AgentParser).Parse</title>
<g id="a_node2"><a xlink:title="(*github.com/guild&#45;framework/guild&#45;core/pkg/commission/agentobj.AgentParser).Parse | defined in parser.go:25&#10;at parser.go:27: calling [(*github.com/guild&#45;framework/guild&#45;core/pkg/commission.MarkdownParser).Parse]">
<path fill="lightblue" stroke="black" stroke-width="1.5" d="M177.04,-121C177.04,-121 28,-121 28,-121 22,-121 16,-115 16,-109 16,-109 16,-97 16,-97 16,-91 22,-85 28,-85 28,-85 177.04,-85 177.04,-85 183.04,-85 189.04,-91 189.04,-97 189.04,-97 189.04,-109 189.04,-109 189.04,-115 183.04,-121 177.04,-121"/>
<text xml:space="preserve" text-anchor="middle" x="102.52" y="-98.33" font-family="Verdana" font-size="14.00">(*AgentParser).Parse</text>
</a>
</g>
</g>
<!-- (*github.com/guild&#45;framework/guild&#45;core/pkg/commission.MarkdownParser).Parse -->
<g id="node4" class="node">
<title>(*github.com/guild&#45;framework/guild&#45;core/pkg/commission.MarkdownParser).Parse</title>
<g id="a_node4"><a xlink:title="(*github.com/guild&#45;framework/guild&#45;core/pkg/commission.MarkdownParser).Parse | defined in parser.go:68">
<path fill="moccasin" stroke="black" stroke-width="1.5" d="M453.83,-121C453.83,-121 274.04,-121 274.04,-121 268.04,-121 262.04,-115 262.04,-109 262.04,-109 262.04,-97 262.04,-97 262.04,-91 268.04,-85 274.04,-85 274.04,-85 453.83,-85 453.83,-85 459.83,-85 465.83,-91 465.83,-97 465.83,-97 465.83,-109 465.83,-109 465.83,-115 459.83,-121 453.83,-121"/>
<text xml:space="preserve" text-anchor="middle" x="363.93" y="-98.33" font-family="Verdana" font-size="14.00">(*MarkdownParser).Parse</text>
</a>
</g>
</g>
<!-- (*github.com/guild&#45;framework/guild&#45;core/pkg/commission/agentobj.AgentParser).Parse&#45;&gt;(*github.com/guild&#45;framework/guild&#45;core/pkg/commission.MarkdownParser).Parse -->
<g id="edge2" class="edge">
<title>(*github.com/guild&#45;framework/guild&#45;core/pkg/commission/agentobj.AgentParser).Parse&#45;&gt;(*github.com/guild&#45;framework/guild&#45;core/pkg/commission.MarkdownParser).Parse</title>
<g id="a_edge2"><a xlink:title="at parser.go:27: calling [(*github.com/guild&#45;framework/guild&#45;core/pkg/commission.MarkdownParser).Parse]">
<path fill="none" stroke="saddlebrown" d="M189.54,-103C208.86,-103 229.65,-103 249.89,-103"/>
<polygon fill="saddlebrown" stroke="saddlebrown" points="249.88,-106.5 259.88,-103 249.88,-99.5 249.88,-106.5"/>
</a>
</g>
</g>
</g>
</svg>
