<?xml version="1.0" encoding="UTF-8" standalone="no"?>
<!DOCTYPE svg PUBLIC "-//W3C//DTD SVG 1.1//EN"
 "http://www.w3.org/Graphics/SVG/1.1/DTD/svg11.dtd">
<!-- Generated by graphviz version 14.1.1 (20251213.1925)
 -->
<!-- Title: gocallvis Pages: 1 -->
<svg width="557pt" height="788pt"
 viewBox="0.00 0.00 557.00 788.00" xmlns="http://www.w3.org/2000/svg" xmlns:xlink="http://www.w3.org/1999/xlink">
<g id="graph0" class="graph" transform="scale(1 1) rotate(0) translate(0 788)">
<title>gocallvis</title>
<polygon fill="lightgray" stroke="none" points="0,0 0,-788 556.58,-788 556.58,0 0,0"/>
<g id="clust1" class="cluster">
<title>cluster_focus</title>
<polygon fill="#e6ecfa" stroke="black" stroke-width="0.5" points="8,-8 8,-780 548.58,-780 548.58,-8 8,-8"/>
<text xml:space="preserve" text-anchor="middle" x="278.29" y="-758.9" font-family="Arial" font-size="18.00">tools</text>
</g>
<g id="clust2" class="cluster">
<title>cluster_github.com/guild&#45;framework/guild&#45;core/pkg/gerror</title>
<g id="a_clust2"><a xlink:href="/?f=github.com/guild-framework/guild-core/pkg/gerror" xlink:title="package: github.com/guild&#45;framework/guild&#45;core/pkg/gerror">
<polygon fill="lightyellow" stroke="black" stroke-width="0.8" points="292.29,-165 292.29,-367 540.58,-367 540.58,-165 292.29,-165"/>
<text xml:space="preserve" text-anchor="middle" x="416.43" y="-347.8" font-family="Tahoma bold" font-size="16.00">gerror</text>
</a>
</g>
</g>
<g id="clust3" class="cluster">
<title>cluster_github.com/guild&#45;framework/guild&#45;core/pkg/lsp</title>
<g id="a_clust3"><a xlink:href="/?f=github.com/guild-framework/guild-core/pkg/lsp" xlink:title="package: github.com/guild&#45;framework/guild&#45;core/pkg/lsp">
<polygon fill="lightyellow" stroke="black" stroke-width="0.8" points="302.04,-375 302.04,-638 530.83,-638 530.83,-375 302.04,-375"/>
<text xml:space="preserve" text-anchor="middle" x="416.43" y="-618.8" font-family="Tahoma bold" font-size="16.00">lsp</text>
</a>
</g>
</g>
<g id="clust4" class="cluster">
<title>cluster_github.com/guild&#45;framework/guild&#45;core/tools</title>
<g id="a_clust4"><a xlink:href="/?f=github.com/guild-framework/guild-core/tools" xlink:title="package: github.com/guild&#45;framework/guild&#45;core/tools">
<polygon fill="lightyellow" stroke="black" stroke-width="0.8" points="346.29,-16 346.29,-157 486.58,-157 486.58,-16 346.29,-16"/>
<text xml:space="preserve" text-anchor="middle" x="416.43" y="-137.8" font-family="Tahoma bold" font-size="16.00">tools</text>
</a>
</g>
</g>
<!-- github.com/guild&#45;framework/guild&#45;core/pkg/lsp/tools.NewHoverTool -->
<g id="node1" class="node">
<title>github.com/guild&#45;framework/guild&#45;core/pkg/lsp/tools.NewHoverTool</title>
<g id="a_node1"><a xlink:title="github.com/guild&#45;framework/guild&#45;core/pkg/lsp/tools.NewHoverTool | defined in hover_tool.go:39&#10;at hover_tool.go:65: calling [github.com/guild&#45;framework/guild&#45;core/tools.NewBaseTool]">
<path fill="lightblue" stroke="black" stroke-width="1.5" d="M170.66,-52C170.66,-52 72.62,-52 72.62,-52 66.62,-52 60.62,-46 60.62,-40 60.62,-40 60.62,-28 60.62,-28 60.62,-22 66.62,-16 72.62,-16 72.62,-16 170.66,-16 170.66,-16 176.66,-16 182.66,-22 182.66,-28 182.66,-28 182.66,-40 182.66,-40 182.66,-46 176.66,-52 170.66,-52"/>
<text xml:space="preserve" text-anchor="middle" x="121.64" y="-29.32" font-family="Verdana" font-size="14.00">NewHoverTool</text>
</a>
</g>
</g>
<!-- github.com/guild&#45;framework/guild&#45;core/tools.NewBaseTool -->
<g id="node18" class="node">
<title>github.com/guild&#45;framework/guild&#45;core/tools.NewBaseTool</title>
<g id="a_node18"><a xlink:title="github.com/guild&#45;framework/guild&#45;core/tools.NewBaseTool | defined in tool.go:61">
<path fill="moccasin" stroke="black" stroke-width="1.5" d="M460.95,-60C460.95,-60 371.91,-60 371.91,-60 365.91,-60 359.91,-54 359.91,-48 359.91,-48 359.91,-36 359.91,-36 359.91,-30 365.91,-24 371.91,-24 371.91,-24 460.95,-24 460.95,-24 466.95,-24 472.95,-30 472.95,-36 472.95,-36 472.95,-48 472.95,-48 472.95,-54 466.95,-60 460.95,-60"/>
<text xml:space="preserve" text-anchor="middle" x="416.43" y="-37.33" font-family="Verdana" font-size="14.00">NewBaseTool</text>
</a>
</g>
</g>
<!-- github.com/guild&#45;framework/guild&#45;core/pkg/lsp/tools.NewHoverTool&#45;&gt;github.com/guild&#45;framework/guild&#45;core/tools.NewBaseTool -->
<g id="edge26" class="edge">
<title>github.com/guild&#45;framework/guild&#45;core/pkg/lsp/tools.NewHoverTool&#45;&gt;github.com/guild&#45;framework/guild&#45;core/tools.NewBaseTool</title>
<g id="a_edge26"><a xlink:title="at hover_tool.go:65: calling [github.com/guild&#45;framework/guild&#45;core/tools.NewBaseTool]">
<path fill="none" stroke="saddlebrown" d="M183.31,-35.66C231.33,-36.97 298.34,-38.8 348.03,-40.16"/>
<polygon fill="saddlebrown" stroke="saddlebrown" points="347.7,-43.65 357.8,-40.43 347.9,-36.65 347.7,-43.65"/>
</a>
</g>
</g>
<!-- github.com/guild&#45;framework/guild&#45;core/pkg/lsp/tools.NewReferencesTool -->
<g id="node2" class="node">
<title>github.com/guild&#45;framework/guild&#45;core/pkg/lsp/tools.NewReferencesTool</title>
<g id="a_node2"><a xlink:title="github.com/guild&#45;framework/guild&#45;core/pkg/lsp/tools.NewReferencesTool | defined in references_tool.go:38&#10;at references_tool.go:69: calling [github.com/guild&#45;framework/guild&#45;core/tools.NewBaseTool]">
<path fill="lightblue" stroke="black" stroke-width="1.5" d="M189.04,-113C189.04,-113 54.25,-113 54.25,-113 48.25,-113 42.25,-107 42.25,-101 42.25,-101 42.25,-89 42.25,-89 42.25,-83 48.25,-77 54.25,-77 54.25,-77 189.04,-77 189.04,-77 195.04,-77 201.04,-83 201.04,-89 201.04,-89 201.04,-101 201.04,-101 201.04,-107 195.04,-113 189.04,-113"/>
<text xml:space="preserve" text-anchor="middle" x="121.64" y="-90.33" font-family="Verdana" font-size="14.00">NewReferencesTool</text>
</a>
</g>
</g>
<!-- github.com/guild&#45;framework/guild&#45;core/pkg/lsp/tools.NewReferencesTool&#45;&gt;github.com/guild&#45;framework/guild&#45;core/tools.NewBaseTool -->
<g id="edge1" class="edge">
<title>github.com/guild&#45;framework/guild&#45;core/pkg/lsp/tools.NewReferencesTool&#45;&gt;github.com/guild&#45;framework/guild&#45;core/tools.NewBaseTool</title>
<g id="a_edge1"><a xlink:title="at references_tool.go:69: calling [github.com/guild&#45;framework/guild&#45;core/tools.NewBaseTool]">
<path fill="none" stroke="saddlebrown" d="M201.49,-80.73C247.3,-72.44 304.41,-62.1 348.1,-54.19"/>
<polygon fill="saddlebrown" stroke="saddlebrown" points="348.48,-57.68 357.7,-52.45 347.24,-50.79 348.48,-57.68"/>
</a>
</g>
</g>
<!-- github.com/guild&#45;framework/guild&#45;core/pkg/lsp/tools.NewDefinitionTool -->
<g id="node3" class="node">
<title>github.com/guild&#45;framework/guild&#45;core/pkg/lsp/tools.NewDefinitionTool</title>
<g id="a_node3"><a xlink:title="github.com/guild&#45;framework/guild&#45;core/pkg/lsp/tools.NewDefinitionTool | defined in definition_tool.go:46&#10;at definition_tool.go:72: calling [github.com/guild&#45;framework/guild&#45;core/tools.NewBaseTool]">
<path fill="lightblue" stroke="black" stroke-width="1.5" d="M183.41,-174C183.41,-174 59.87,-174 59.87,-174 53.88,-174 47.87,-168 47.87,-162 47.87,-162 47.87,-150 47.87,-150 47.87,-144 53.87,-138 59.87,-138 59.87,-138 183.41,-138 183.41,-138 189.41,-138 195.41,-144 195.41,-150 195.41,-150 195.41,-162 195.41,-162 195.41,-168 189.41,-174 183.41,-174"/>
<text xml:space="preserve" text-anchor="middle" x="121.64" y="-151.32" font-family="Verdana" font-size="14.00">NewDefinitionTool</text>
</a>
</g>
</g>
<!-- github.com/guild&#45;framework/guild&#45;core/pkg/lsp/tools.NewDefinitionTool&#45;&gt;github.com/guild&#45;framework/guild&#45;core/tools.NewBaseTool -->
<g id="edge19" class="edge">
<title>github.com/guild&#45;framework/guild&#45;core/pkg/lsp/tools.NewDefinitionTool&#45;&gt;github.com/guild&#45;framework/guild&#45;core/tools.NewBaseTool</title>
<g id="a_edge19"><a xlink:title="at definition_tool.go:72: calling [github.com/guild&#45;framework/guild&#45;core/tools.NewBaseTool]">
<path fill="none" stroke="saddlebrown" d="M195.9,-139.13C206.71,-135.47 217.49,-131.12 227.29,-126 260.32,-108.73 258.98,-89.73 292.29,-73 309.58,-64.32 329.5,-57.94 348.2,-53.32"/>
<polygon fill="saddlebrown" stroke="saddlebrown" points="348.93,-56.74 357.87,-51.07 347.34,-49.92 348.93,-56.74"/>
</a>
</g>
</g>
<!-- (*github.com/guild&#45;framework/guild&#45;core/pkg/lsp/tools.DefinitionTool).Execute -->
<g id="node4" class="node">
<title>(*github.com/guild&#45;framework/guild&#45;core/pkg/lsp/tools.DefinitionTool).Execute</title>
<g id="a_node4"><a xlink:title="(*github.com/guild&#45;framework/guild&#45;core/pkg/lsp/tools.DefinitionTool).Execute | defined in definition_tool.go:85&#10;at definition_tool.go:91: calling [(*github.com/guild&#45;framework/guild&#45;core/pkg/gerror.GuildError).WithOperation]&#10;at definition_tool.go:123: calling [(*github.com/guild&#45;framework/guild&#45;core/pkg/gerror.GuildError).WithOperation]&#10;at definition_tool.go:89: calling [github.com/guild&#45;framework/guild&#45;core/pkg/gerror.Wrap]&#10;at definition_tool.go:121: calling [github.com/guild&#45;framework/guild&#45;core/pkg/gerror.Wrap]&#10;at definition_tool.go:95: calling [(*github.com/guild&#45;framework/guild&#45;core/pkg/lsp.Manager).GetDefinition]&#10;at definition_tool.go:132: calling [github.com/guild&#45;framework/guild&#45;core/tools.NewToolResult]&#10;at definition_tool.go:90: calling [(*github.com/guild&#45;framework/guild&#45;core/pkg/gerror.GuildError).WithComponent]&#10;at definition_tool.go:122: calling [(*github.com/guild&#45;framework/guild&#45;core/pkg/gerror.GuildError).WithComponent]">
<path fill="lightblue" stroke="black" stroke-width="1.5" d="M209.29,-296C209.29,-296 34,-296 34,-296 28,-296 22,-290 22,-284 22,-284 22,-272 22,-272 22,-266 28,-260 34,-260 34,-260 209.29,-260 209.29,-260 215.29,-260 221.29,-266 221.29,-272 221.29,-272 221.29,-284 221.29,-284 221.29,-290 215.29,-296 209.29,-296"/>
<text xml:space="preserve" text-anchor="middle" x="121.64" y="-273.32" font-family="Verdana" font-size="14.00">(*DefinitionTool).Execute</text>
</a>
</g>
</g>
<!-- github.com/guild&#45;framework/guild&#45;core/pkg/gerror.Wrap -->
<g id="node11" class="node">
<title>github.com/guild&#45;framework/guild&#45;core/pkg/gerror.Wrap</title>
<g id="a_node11"><a xlink:title="github.com/guild&#45;framework/guild&#45;core/pkg/gerror.Wrap | defined in errors.go:223">
<path fill="moccasin" stroke="black" stroke-width="1.5" d="M434.33,-331C434.33,-331 398.54,-331 398.54,-331 392.54,-331 386.54,-325 386.54,-319 386.54,-319 386.54,-307 386.54,-307 386.54,-301 392.54,-295 398.54,-295 398.54,-295 434.33,-295 434.33,-295 440.33,-295 446.33,-301 446.33,-307 446.33,-307 446.33,-319 446.33,-319 446.33,-325 440.33,-331 434.33,-331"/>
<text xml:space="preserve" text-anchor="middle" x="416.43" y="-308.32" font-family="Verdana" font-size="14.00">Wrap</text>
</a>
</g>
</g>
<!-- (*github.com/guild&#45;framework/guild&#45;core/pkg/lsp/tools.DefinitionTool).Execute&#45;&gt;github.com/guild&#45;framework/guild&#45;core/pkg/gerror.Wrap -->
<g id="edge7" class="edge">
<title>(*github.com/guild&#45;framework/guild&#45;core/pkg/lsp/tools.DefinitionTool).Execute&#45;&gt;github.com/guild&#45;framework/guild&#45;core/pkg/gerror.Wrap</title>
<g id="a_edge7"><a xlink:title="at definition_tool.go:89: calling [github.com/guild&#45;framework/guild&#45;core/pkg/gerror.Wrap]&#10;at definition_tool.go:121: calling [github.com/guild&#45;framework/guild&#45;core/pkg/gerror.Wrap]">
<path fill="none" stroke="saddlebrown" d="M186.09,-259.3C220.27,-249.93 256.94,-241.28 264.29,-245 283.01,-254.46 274.83,-271.37 292.29,-283 316.75,-299.29 349.2,-306.74 374.65,-310.15"/>
<polygon fill="saddlebrown" stroke="saddlebrown" points="373.96,-313.6 384.3,-311.28 374.77,-306.64 373.96,-313.6"/>
</a>
</g>
</g>
<!-- (*github.com/guild&#45;framework/guild&#45;core/pkg/gerror.GuildError).WithComponent -->
<g id="node12" class="node">
<title>(*github.com/guild&#45;framework/guild&#45;core/pkg/gerror.GuildError).WithComponent</title>
<g id="a_node12"><a xlink:title="(*github.com/guild&#45;framework/guild&#45;core/pkg/gerror.GuildError).WithComponent | defined in errors.go:156">
<path fill="moccasin" stroke="black" stroke-width="1.5" d="M520.58,-270C520.58,-270 312.29,-270 312.29,-270 306.29,-270 300.29,-264 300.29,-258 300.29,-258 300.29,-246 300.29,-246 300.29,-240 306.29,-234 312.29,-234 312.29,-234 520.58,-234 520.58,-234 526.58,-234 532.58,-240 532.58,-246 532.58,-246 532.58,-258 532.58,-258 532.58,-264 526.58,-270 520.58,-270"/>
<text xml:space="preserve" text-anchor="middle" x="416.43" y="-247.32" font-family="Verdana" font-size="14.00">(*GuildError).WithComponent</text>
</a>
</g>
</g>
<!-- (*github.com/guild&#45;framework/guild&#45;core/pkg/lsp/tools.DefinitionTool).Execute&#45;&gt;(*github.com/guild&#45;framework/guild&#45;core/pkg/gerror.GuildError).WithComponent -->
<g id="edge20" class="edge">
<title>(*github.com/guild&#45;framework/guild&#45;core/pkg/lsp/tools.DefinitionTool).Execute&#45;&gt;(*github.com/guild&#45;framework/guild&#45;core/pkg/gerror.GuildError).WithComponent</title>
<g id="a_edge20"><a xlink:title="at definition_tool.go:90: calling [(*github.com/guild&#45;framework/guild&#45;core/pkg/gerror.GuildError).WithComponent]&#10;at definition_tool.go:122: calling [(*github.com/guild&#45;framework/guild&#45;core/pkg/gerror.GuildError).WithComponent]">
<path fill="none" stroke="saddlebrown" d="M201.48,-259.28C210.4,-256.03 219.19,-252.29 227.29,-248 245.7,-238.25 243.71,-225.09 263.29,-218 266.86,-216.71 296.58,-223.09 328.82,-230.67"/>
<polygon fill="saddlebrown" stroke="saddlebrown" points="327.8,-234.02 338.34,-232.92 329.42,-227.21 327.8,-234.02"/>
</a>
</g>
</g>
<!-- (*github.com/guild&#45;framework/guild&#45;core/pkg/gerror.GuildError).WithOperation -->
<g id="node13" class="node">
<title>(*github.com/guild&#45;framework/guild&#45;core/pkg/gerror.GuildError).WithOperation</title>
<g id="a_node13"><a xlink:title="(*github.com/guild&#45;framework/guild&#45;core/pkg/gerror.GuildError).WithOperation | defined in errors.go:162">
<path fill="moccasin" stroke="black" stroke-width="1.5" d="M514.95,-209C514.95,-209 317.91,-209 317.91,-209 311.91,-209 305.91,-203 305.91,-197 305.91,-197 305.91,-185 305.91,-185 305.91,-179 311.91,-173 317.91,-173 317.91,-173 514.95,-173 514.95,-173 520.95,-173 526.95,-179 526.95,-185 526.95,-185 526.95,-197 526.95,-197 526.95,-203 520.95,-209 514.95,-209"/>
<text xml:space="preserve" text-anchor="middle" x="416.43" y="-186.32" font-family="Verdana" font-size="14.00">(*GuildError).WithOperation</text>
</a>
</g>
</g>
<!-- (*github.com/guild&#45;framework/guild&#45;core/pkg/lsp/tools.DefinitionTool).Execute&#45;&gt;(*github.com/guild&#45;framework/guild&#45;core/pkg/gerror.GuildError).WithOperation -->
<g id="edge2" class="edge">
<title>(*github.com/guild&#45;framework/guild&#45;core/pkg/lsp/tools.DefinitionTool).Execute&#45;&gt;(*github.com/guild&#45;framework/guild&#45;core/pkg/gerror.GuildError).WithOperation</title>
<g id="a_edge2"><a xlink:title="at definition_tool.go:91: calling [(*github.com/guild&#45;framework/guild&#45;core/pkg/gerror.GuildError).WithOperation]&#10;at definition_tool.go:123: calling [(*github.com/guild&#45;framework/guild&#45;core/pkg/gerror.GuildError).WithOperation]">
<path fill="none" stroke="saddlebrown" d="M203.79,-259.25C211.98,-256.04 219.96,-252.32 227.29,-248 246.79,-236.52 243.03,-222.07 263.29,-212 273.05,-207.15 283.57,-203.31 294.36,-200.29"/>
<polygon fill="saddlebrown" stroke="saddlebrown" points="294.93,-203.76 303.76,-197.9 293.21,-196.97 294.93,-203.76"/>
</a>
</g>
</g>
<!-- (*github.com/guild&#45;framework/guild&#45;core/pkg/lsp.Manager).GetDefinition -->
<g id="node14" class="node">
<title>(*github.com/guild&#45;framework/guild&#45;core/pkg/lsp.Manager).GetDefinition</title>
<g id="a_node14"><a xlink:title="(*github.com/guild&#45;framework/guild&#45;core/pkg/lsp.Manager).GetDefinition | defined in manager.go:152">
<path fill="moccasin" stroke="black" stroke-width="1.5" d="M504.83,-419C504.83,-419 328.04,-419 328.04,-419 322.04,-419 316.04,-413 316.04,-407 316.04,-407 316.04,-395 316.04,-395 316.04,-389 322.04,-383 328.04,-383 328.04,-383 504.83,-383 504.83,-383 510.83,-383 516.83,-389 516.83,-395 516.83,-395 516.83,-407 516.83,-407 516.83,-413 510.83,-419 504.83,-419"/>
<text xml:space="preserve" text-anchor="middle" x="416.43" y="-396.32" font-family="Verdana" font-size="14.00">(*Manager).GetDefinition</text>
</a>
</g>
</g>
<!-- (*github.com/guild&#45;framework/guild&#45;core/pkg/lsp/tools.DefinitionTool).Execute&#45;&gt;(*github.com/guild&#45;framework/guild&#45;core/pkg/lsp.Manager).GetDefinition -->
<g id="edge8" class="edge">
<title>(*github.com/guild&#45;framework/guild&#45;core/pkg/lsp/tools.DefinitionTool).Execute&#45;&gt;(*github.com/guild&#45;framework/guild&#45;core/pkg/lsp.Manager).GetDefinition</title>
<g id="a_edge8"><a xlink:title="at definition_tool.go:95: calling [(*github.com/guild&#45;framework/guild&#45;core/pkg/lsp.Manager).GetDefinition]">
<path fill="none" stroke="saddlebrown" d="M201.3,-296.67C210.34,-300.15 219.21,-304.24 227.29,-309 262.21,-329.59 256.72,-353.54 292.29,-373 296.4,-375.25 300.68,-377.32 305.08,-379.22"/>
<polygon fill="saddlebrown" stroke="saddlebrown" points="303.53,-382.37 314.12,-382.81 306.12,-375.87 303.53,-382.37"/>
</a>
</g>
</g>
<!-- github.com/guild&#45;framework/guild&#45;core/tools.NewToolResult -->
<g id="node19" class="node">
<title>github.com/guild&#45;framework/guild&#45;core/tools.NewToolResult</title>
<g id="a_node19"><a xlink:title="github.com/guild&#45;framework/guild&#45;core/tools.NewToolResult | defined in tool.go:118">
<path fill="moccasin" stroke="black" stroke-width="1.5" d="M466.58,-121C466.58,-121 366.29,-121 366.29,-121 360.29,-121 354.29,-115 354.29,-109 354.29,-109 354.29,-97 354.29,-97 354.29,-91 360.29,-85 366.29,-85 366.29,-85 466.58,-85 466.58,-85 472.58,-85 478.58,-91 478.58,-97 478.58,-97 478.58,-109 478.58,-109 478.58,-115 472.58,-121 466.58,-121"/>
<text xml:space="preserve" text-anchor="middle" x="416.43" y="-98.33" font-family="Verdana" font-size="14.00">NewToolResult</text>
</a>
</g>
</g>
<!-- (*github.com/guild&#45;framework/guild&#45;core/pkg/lsp/tools.DefinitionTool).Execute&#45;&gt;github.com/guild&#45;framework/guild&#45;core/tools.NewToolResult -->
<g id="edge12" class="edge">
<title>(*github.com/guild&#45;framework/guild&#45;core/pkg/lsp/tools.DefinitionTool).Execute&#45;&gt;github.com/guild&#45;framework/guild&#45;core/tools.NewToolResult</title>
<g id="a_edge12"><a xlink:title="at definition_tool.go:132: calling [github.com/guild&#45;framework/guild&#45;core/tools.NewToolResult]">
<path fill="none" stroke="saddlebrown" d="M206.92,-259.33C214.11,-256.13 221.01,-252.38 227.29,-248 267.45,-219.96 254.31,-189.93 292.29,-159 308.73,-145.61 328.89,-134.7 348.1,-126.19"/>
<polygon fill="saddlebrown" stroke="saddlebrown" points="349.42,-129.43 357.26,-122.29 346.68,-122.99 349.42,-129.43"/>
</a>
</g>
</g>
<!-- (*github.com/guild&#45;framework/guild&#45;core/pkg/lsp/tools.CompletionTool).Execute -->
<g id="node5" class="node">
<title>(*github.com/guild&#45;framework/guild&#45;core/pkg/lsp/tools.CompletionTool).Execute</title>
<g id="a_node5"><a xlink:title="(*github.com/guild&#45;framework/guild&#45;core/pkg/lsp/tools.CompletionTool).Execute | defined in completion_tool.go:92&#10;at completion_tool.go:97: calling [(*github.com/guild&#45;framework/guild&#45;core/pkg/gerror.GuildError).WithComponent]&#10;at completion_tool.go:138: calling [(*github.com/guild&#45;framework/guild&#45;core/pkg/gerror.GuildError).WithComponent]&#10;at completion_tool.go:96: calling [github.com/guild&#45;framework/guild&#45;core/pkg/gerror.Wrap]&#10;at completion_tool.go:137: calling [github.com/guild&#45;framework/guild&#45;core/pkg/gerror.Wrap]&#10;at completion_tool.go:115: calling [github.com/guild&#45;framework/guild&#45;core/pkg/lsp/tools.completionKindToString]&#10;at completion_tool.go:152: calling [github.com/guild&#45;framework/guild&#45;core/tools.NewToolResult]&#10;at completion_tool.go:98: calling [(*github.com/guild&#45;framework/guild&#45;core/pkg/gerror.GuildError).WithOperation]&#10;at completion_tool.go:139: calling [(*github.com/guild&#45;framework/guild&#45;core/pkg/gerror.GuildError).WithOperation]&#10;at completion_tool.go:102: calling [(*github.com/guild&#45;framework/guild&#45;core/pkg/lsp.Manager).GetCompletion]">
<path fill="lightblue" stroke="black" stroke-width="1.5" d="M215.29,-499C215.29,-499 28,-499 28,-499 22,-499 16,-493 16,-487 16,-487 16,-475 16,-475 16,-469 22,-463 28,-463 28,-463 215.29,-463 215.29,-463 221.29,-463 227.29,-469 227.29,-475 227.29,-475 227.29,-487 227.29,-487 227.29,-493 221.29,-499 215.29,-499"/>
<text xml:space="preserve" text-anchor="middle" x="121.64" y="-476.32" font-family="Verdana" font-size="14.00">(*CompletionTool).Execute</text>
</a>
</g>
</g>
<!-- github.com/guild&#45;framework/guild&#45;core/pkg/lsp/tools.completionKindToString -->
<g id="node6" class="node">
<title>github.com/guild&#45;framework/guild&#45;core/pkg/lsp/tools.completionKindToString</title>
<g id="a_node6"><a xlink:title="github.com/guild&#45;framework/guild&#45;core/pkg/lsp/tools.completionKindToString | defined in completion_tool.go:156">
<path fill="lightblue" stroke="black" stroke-width="0.5" d="M499.2,-682C499.2,-682 333.66,-682 333.66,-682 327.66,-682 321.66,-676 321.66,-670 321.66,-670 321.66,-658 321.66,-658 321.66,-652 327.66,-646 333.66,-646 333.66,-646 499.2,-646 499.2,-646 505.2,-646 511.2,-652 511.2,-658 511.2,-658 511.2,-670 511.2,-670 511.2,-676 505.2,-682 499.2,-682"/>
<text xml:space="preserve" text-anchor="middle" x="416.43" y="-659.33" font-family="Verdana" font-size="14.00">completionKindToString</text>
</a>
</g>
</g>
<!-- (*github.com/guild&#45;framework/guild&#45;core/pkg/lsp/tools.CompletionTool).Execute&#45;&gt;github.com/guild&#45;framework/guild&#45;core/pkg/lsp/tools.completionKindToString -->
<g id="edge14" class="edge">
<title>(*github.com/guild&#45;framework/guild&#45;core/pkg/lsp/tools.CompletionTool).Execute&#45;&gt;github.com/guild&#45;framework/guild&#45;core/pkg/lsp/tools.completionKindToString</title>
<g id="a_edge14"><a xlink:title="at completion_tool.go:115: calling [github.com/guild&#45;framework/guild&#45;core/pkg/lsp/tools.completionKindToString]">
<path fill="none" stroke="black" d="M136.11,-499.56C162.08,-533.85 222.71,-606.83 292.29,-642 298.13,-644.95 304.29,-647.51 310.63,-649.73"/>
<polygon fill="black" stroke="black" points="309.4,-653.01 319.99,-652.7 311.52,-646.34 309.4,-653.01"/>
</a>
</g>
</g>
<!-- (*github.com/guild&#45;framework/guild&#45;core/pkg/lsp/tools.CompletionTool).Execute&#45;&gt;github.com/guild&#45;framework/guild&#45;core/pkg/gerror.Wrap -->
<g id="edge13" class="edge">
<title>(*github.com/guild&#45;framework/guild&#45;core/pkg/lsp/tools.CompletionTool).Execute&#45;&gt;github.com/guild&#45;framework/guild&#45;core/pkg/gerror.Wrap</title>
<g id="a_edge13"><a xlink:title="at completion_tool.go:96: calling [github.com/guild&#45;framework/guild&#45;core/pkg/gerror.Wrap]&#10;at completion_tool.go:137: calling [github.com/guild&#45;framework/guild&#45;core/pkg/gerror.Wrap]">
<path fill="none" stroke="saddlebrown" d="M227.98,-491.4C241.19,-488.6 253.74,-483.49 264.29,-475 302.26,-444.46 260.86,-406.23 292.29,-369 313.3,-344.11 347.69,-329.75 374.79,-321.82"/>
<polygon fill="saddlebrown" stroke="saddlebrown" points="375.71,-325.2 384.44,-319.2 373.87,-318.44 375.71,-325.2"/>
</a>
</g>
</g>
<!-- (*github.com/guild&#45;framework/guild&#45;core/pkg/lsp/tools.CompletionTool).Execute&#45;&gt;(*github.com/guild&#45;framework/guild&#45;core/pkg/gerror.GuildError).WithComponent -->
<g id="edge3" class="edge">
<title>(*github.com/guild&#45;framework/guild&#45;core/pkg/lsp/tools.CompletionTool).Execute&#45;&gt;(*github.com/guild&#45;framework/guild&#45;core/pkg/gerror.GuildError).WithComponent</title>
<g id="a_edge3"><a xlink:title="at completion_tool.go:97: calling [(*github.com/guild&#45;framework/guild&#45;core/pkg/gerror.GuildError).WithComponent]&#10;at completion_tool.go:138: calling [(*github.com/guild&#45;framework/guild&#45;core/pkg/gerror.GuildError).WithComponent]">
<path fill="none" stroke="saddlebrown" d="M227.76,-471.45C241.49,-466.19 254.25,-458.67 264.29,-448 315.26,-393.83 241.8,-337.62 292.29,-283 294.08,-281.06 295.98,-279.23 297.96,-277.51"/>
<polygon fill="saddlebrown" stroke="saddlebrown" points="300.04,-280.33 305.97,-271.55 295.86,-274.71 300.04,-280.33"/>
</a>
</g>
</g>
<!-- (*github.com/guild&#45;framework/guild&#45;core/pkg/lsp/tools.CompletionTool).Execute&#45;&gt;(*github.com/guild&#45;framework/guild&#45;core/pkg/gerror.GuildError).WithOperation -->
<g id="edge21" class="edge">
<title>(*github.com/guild&#45;framework/guild&#45;core/pkg/lsp/tools.CompletionTool).Execute&#45;&gt;(*github.com/guild&#45;framework/guild&#45;core/pkg/gerror.GuildError).WithOperation</title>
<g id="a_edge21"><a xlink:title="at completion_tool.go:98: calling [(*github.com/guild&#45;framework/guild&#45;core/pkg/gerror.GuildError).WithOperation]&#10;at completion_tool.go:139: calling [(*github.com/guild&#45;framework/guild&#45;core/pkg/gerror.GuildError).WithOperation]">
<path fill="none" stroke="saddlebrown" d="M204.87,-462.37C227.31,-453.43 249.49,-440.27 264.29,-421 318.69,-350.17 232.6,-288.44 292.29,-222 294.03,-220.07 295.86,-218.25 297.79,-216.53"/>
<polygon fill="saddlebrown" stroke="saddlebrown" points="299.73,-219.45 305.55,-210.6 295.48,-213.89 299.73,-219.45"/>
</a>
</g>
</g>
<!-- (*github.com/guild&#45;framework/guild&#45;core/pkg/lsp.Manager).GetCompletion -->
<g id="node15" class="node">
<title>(*github.com/guild&#45;framework/guild&#45;core/pkg/lsp.Manager).GetCompletion</title>
<g id="a_node15"><a xlink:title="(*github.com/guild&#45;framework/guild&#45;core/pkg/lsp.Manager).GetCompletion | defined in manager.go:99">
<path fill="moccasin" stroke="black" stroke-width="1.5" d="M510.83,-541C510.83,-541 322.04,-541 322.04,-541 316.04,-541 310.04,-535 310.04,-529 310.04,-529 310.04,-517 310.04,-517 310.04,-511 316.04,-505 322.04,-505 322.04,-505 510.83,-505 510.83,-505 516.83,-505 522.83,-511 522.83,-517 522.83,-517 522.83,-529 522.83,-529 522.83,-535 516.83,-541 510.83,-541"/>
<text xml:space="preserve" text-anchor="middle" x="416.43" y="-518.33" font-family="Verdana" font-size="14.00">(*Manager).GetCompletion</text>
</a>
</g>
</g>
<!-- (*github.com/guild&#45;framework/guild&#45;core/pkg/lsp/tools.CompletionTool).Execute&#45;&gt;(*github.com/guild&#45;framework/guild&#45;core/pkg/lsp.Manager).GetCompletion -->
<g id="edge22" class="edge">
<title>(*github.com/guild&#45;framework/guild&#45;core/pkg/lsp/tools.CompletionTool).Execute&#45;&gt;(*github.com/guild&#45;framework/guild&#45;core/pkg/lsp.Manager).GetCompletion</title>
<g id="a_edge22"><a xlink:title="at completion_tool.go:102: calling [(*github.com/guild&#45;framework/guild&#45;core/pkg/lsp.Manager).GetCompletion]">
<path fill="none" stroke="saddlebrown" d="M227.84,-496.84C239.8,-498.6 251.8,-500.35 263.29,-502 274.59,-503.62 286.37,-505.29 298.14,-506.94"/>
<polygon fill="saddlebrown" stroke="saddlebrown" points="297.53,-510.39 307.92,-508.31 298.5,-503.46 297.53,-510.39"/>
</a>
</g>
</g>
<!-- (*github.com/guild&#45;framework/guild&#45;core/pkg/lsp/tools.CompletionTool).Execute&#45;&gt;github.com/guild&#45;framework/guild&#45;core/tools.NewToolResult -->
<g id="edge15" class="edge">
<title>(*github.com/guild&#45;framework/guild&#45;core/pkg/lsp/tools.CompletionTool).Execute&#45;&gt;github.com/guild&#45;framework/guild&#45;core/tools.NewToolResult</title>
<g id="a_edge15"><a xlink:title="at completion_tool.go:152: calling [github.com/guild&#45;framework/guild&#45;core/tools.NewToolResult]">
<path fill="none" stroke="saddlebrown" d="M145.44,-462.47C169.08,-442.1 205.56,-407.3 227.29,-370 251.98,-327.6 259.89,-195.84 292.29,-159 305.9,-143.53 324.65,-132.08 343.42,-123.72"/>
<polygon fill="saddlebrown" stroke="saddlebrown" points="344.53,-127.05 352.41,-119.97 341.84,-120.59 344.53,-127.05"/>
</a>
</g>
</g>
<!-- (*github.com/guild&#45;framework/guild&#45;core/pkg/lsp/tools.HoverTool).Execute -->
<g id="node7" class="node">
<title>(*github.com/guild&#45;framework/guild&#45;core/pkg/lsp/tools.HoverTool).Execute</title>
<g id="a_node7"><a xlink:title="(*github.com/guild&#45;framework/guild&#45;core/pkg/lsp/tools.HoverTool).Execute | defined in hover_tool.go:78&#10;at hover_tool.go:88: calling [(*github.com/guild&#45;framework/guild&#45;core/pkg/lsp.Manager).GetHover]&#10;at hover_tool.go:155: calling [github.com/guild&#45;framework/guild&#45;core/pkg/lsp/tools.extractHoverInfo]&#10;at hover_tool.go:82: calling [github.com/guild&#45;framework/guild&#45;core/pkg/gerror.Wrap]&#10;at hover_tool.go:140: calling [github.com/guild&#45;framework/guild&#45;core/pkg/gerror.Wrap]&#10;at hover_tool.go:84: calling [(*github.com/guild&#45;framework/guild&#45;core/pkg/gerror.GuildError).WithOperation]&#10;at hover_tool.go:142: calling [(*github.com/guild&#45;framework/guild&#45;core/pkg/gerror.GuildError).WithOperation]&#10;at hover_tool.go:83: calling [(*github.com/guild&#45;framework/guild&#45;core/pkg/gerror.GuildError).WithComponent]&#10;at hover_tool.go:141: calling [(*github.com/guild&#45;framework/guild&#45;core/pkg/gerror.GuildError).WithComponent]&#10;at hover_tool.go:157: calling [github.com/guild&#45;framework/guild&#45;core/tools.NewToolResult]">
<path fill="lightblue" stroke="black" stroke-width="1.5" d="M196.54,-661C196.54,-661 46.75,-661 46.75,-661 40.75,-661 34.75,-655 34.75,-649 34.75,-649 34.75,-637 34.75,-637 34.75,-631 40.75,-625 46.75,-625 46.75,-625 196.54,-625 196.54,-625 202.54,-625 208.54,-631 208.54,-637 208.54,-637 208.54,-649 208.54,-649 208.54,-655 202.54,-661 196.54,-661"/>
<text xml:space="preserve" text-anchor="middle" x="121.64" y="-638.33" font-family="Verdana" font-size="14.00">(*HoverTool).Execute</text>
</a>
</g>
</g>
<!-- github.com/guild&#45;framework/guild&#45;core/pkg/lsp/tools.extractHoverInfo -->
<g id="node8" class="node">
<title>github.com/guild&#45;framework/guild&#45;core/pkg/lsp/tools.extractHoverInfo</title>
<g id="a_node8"><a xlink:title="github.com/guild&#45;framework/guild&#45;core/pkg/lsp/tools.extractHoverInfo | defined in hover_tool.go:161">
<path fill="lightblue" stroke="black" stroke-width="0.5" d="M475.2,-743C475.2,-743 357.66,-743 357.66,-743 351.66,-743 345.66,-737 345.66,-731 345.66,-731 345.66,-719 345.66,-719 345.66,-713 351.66,-707 357.66,-707 357.66,-707 475.2,-707 475.2,-707 481.2,-707 487.2,-713 487.2,-719 487.2,-719 487.2,-731 487.2,-731 487.2,-737 481.2,-743 475.2,-743"/>
<text xml:space="preserve" text-anchor="middle" x="416.43" y="-720.33" font-family="Verdana" font-size="14.00">extractHoverInfo</text>
</a>
</g>
</g>
<!-- (*github.com/guild&#45;framework/guild&#45;core/pkg/lsp/tools.HoverTool).Execute&#45;&gt;github.com/guild&#45;framework/guild&#45;core/pkg/lsp/tools.extractHoverInfo -->
<g id="edge9" class="edge">
<title>(*github.com/guild&#45;framework/guild&#45;core/pkg/lsp/tools.HoverTool).Execute&#45;&gt;github.com/guild&#45;framework/guild&#45;core/pkg/lsp/tools.extractHoverInfo</title>
<g id="a_edge9"><a xlink:title="at hover_tool.go:155: calling [github.com/guild&#45;framework/guild&#45;core/pkg/lsp/tools.extractHoverInfo]">
<path fill="none" stroke="black" d="M180.5,-661.65C213.18,-671.96 254.86,-684.71 292.29,-695 305.85,-698.73 320.32,-702.46 334.39,-705.97"/>
<polygon fill="black" stroke="black" points="333.55,-709.37 344.1,-708.37 335.23,-702.57 333.55,-709.37"/>
</a>
</g>
</g>
<!-- (*github.com/guild&#45;framework/guild&#45;core/pkg/lsp/tools.HoverTool).Execute&#45;&gt;github.com/guild&#45;framework/guild&#45;core/pkg/gerror.Wrap -->
<g id="edge16" class="edge">
<title>(*github.com/guild&#45;framework/guild&#45;core/pkg/lsp/tools.HoverTool).Execute&#45;&gt;github.com/guild&#45;framework/guild&#45;core/pkg/gerror.Wrap</title>
<g id="a_edge16"><a xlink:title="at hover_tool.go:82: calling [github.com/guild&#45;framework/guild&#45;core/pkg/gerror.Wrap]&#10;at hover_tool.go:140: calling [github.com/guild&#45;framework/guild&#45;core/pkg/gerror.Wrap]">
<path fill="none" stroke="saddlebrown" d="M209.25,-657.63C229.53,-656.48 249.5,-650.91 264.29,-637 307.92,-595.99 257.3,-417.59 292.29,-369 311.65,-342.11 347.06,-327.85 374.96,-320.47"/>
<polygon fill="saddlebrown" stroke="saddlebrown" points="375.64,-323.91 384.53,-318.15 373.99,-317.1 375.64,-323.91"/>
</a>
</g>
</g>
<!-- (*github.com/guild&#45;framework/guild&#45;core/pkg/lsp/tools.HoverTool).Execute&#45;&gt;(*github.com/guild&#45;framework/guild&#45;core/pkg/gerror.GuildError).WithComponent -->
<g id="edge23" class="edge">
<title>(*github.com/guild&#45;framework/guild&#45;core/pkg/lsp/tools.HoverTool).Execute&#45;&gt;(*github.com/guild&#45;framework/guild&#45;core/pkg/gerror.GuildError).WithComponent</title>
<g id="a_edge23"><a xlink:title="at hover_tool.go:83: calling [(*github.com/guild&#45;framework/guild&#45;core/pkg/gerror.GuildError).WithComponent]&#10;at hover_tool.go:141: calling [(*github.com/guild&#45;framework/guild&#45;core/pkg/gerror.GuildError).WithComponent]">
<path fill="none" stroke="saddlebrown" d="M209.01,-640.22C229.91,-635.31 250.24,-626.22 264.29,-610 312.03,-554.87 245.04,-338.56 292.29,-283 293.94,-281.06 295.7,-279.22 297.55,-277.5"/>
<polygon fill="saddlebrown" stroke="saddlebrown" points="299.37,-280.52 304.99,-271.54 295,-275.05 299.37,-280.52"/>
</a>
</g>
</g>
<!-- (*github.com/guild&#45;framework/guild&#45;core/pkg/lsp/tools.HoverTool).Execute&#45;&gt;(*github.com/guild&#45;framework/guild&#45;core/pkg/gerror.GuildError).WithOperation -->
<g id="edge17" class="edge">
<title>(*github.com/guild&#45;framework/guild&#45;core/pkg/lsp/tools.HoverTool).Execute&#45;&gt;(*github.com/guild&#45;framework/guild&#45;core/pkg/gerror.GuildError).WithOperation</title>
<g id="a_edge17"><a xlink:title="at hover_tool.go:84: calling [(*github.com/guild&#45;framework/guild&#45;core/pkg/gerror.GuildError).WithOperation]&#10;at hover_tool.go:142: calling [(*github.com/guild&#45;framework/guild&#45;core/pkg/gerror.GuildError).WithOperation]">
<path fill="none" stroke="saddlebrown" d="M207.11,-624.34C229.06,-615.42 250.41,-602.29 264.29,-583 311.29,-517.69 240.41,-283.5 292.29,-222 293.78,-220.23 295.36,-218.55 297.01,-216.97"/>
<polygon fill="saddlebrown" stroke="saddlebrown" points="299.16,-219.73 304.69,-210.7 294.73,-214.31 299.16,-219.73"/>
</a>
</g>
</g>
<!-- (*github.com/guild&#45;framework/guild&#45;core/pkg/lsp.Manager).GetHover -->
<g id="node16" class="node">
<title>(*github.com/guild&#45;framework/guild&#45;core/pkg/lsp.Manager).GetHover</title>
<g id="a_node16"><a xlink:title="(*github.com/guild&#45;framework/guild&#45;core/pkg/lsp.Manager).GetHover | defined in manager.go:231">
<path fill="moccasin" stroke="black" stroke-width="1.5" d="M492.08,-602C492.08,-602 340.79,-602 340.79,-602 334.79,-602 328.79,-596 328.79,-590 328.79,-590 328.79,-578 328.79,-578 328.79,-572 334.79,-566 340.79,-566 340.79,-566 492.08,-566 492.08,-566 498.08,-566 504.08,-572 504.08,-578 504.08,-578 504.08,-590 504.08,-590 504.08,-596 498.08,-602 492.08,-602"/>
<text xml:space="preserve" text-anchor="middle" x="416.43" y="-579.33" font-family="Verdana" font-size="14.00">(*Manager).GetHover</text>
</a>
</g>
</g>
<!-- (*github.com/guild&#45;framework/guild&#45;core/pkg/lsp/tools.HoverTool).Execute&#45;&gt;(*github.com/guild&#45;framework/guild&#45;core/pkg/lsp.Manager).GetHover -->
<g id="edge4" class="edge">
<title>(*github.com/guild&#45;framework/guild&#45;core/pkg/lsp/tools.HoverTool).Execute&#45;&gt;(*github.com/guild&#45;framework/guild&#45;core/pkg/lsp.Manager).GetHover</title>
<g id="a_edge4"><a xlink:title="at hover_tool.go:88: calling [(*github.com/guild&#45;framework/guild&#45;core/pkg/lsp.Manager).GetHover]">
<path fill="none" stroke="saddlebrown" d="M160.98,-661.75C191.23,-673.62 233.34,-683.43 264.29,-664 288.53,-648.78 269.48,-623.3 292.29,-606 299.88,-600.25 308.48,-595.82 317.52,-592.43"/>
<polygon fill="saddlebrown" stroke="saddlebrown" points="318.44,-595.81 326.87,-589.38 316.28,-589.15 318.44,-595.81"/>
</a>
</g>
</g>
<!-- (*github.com/guild&#45;framework/guild&#45;core/pkg/lsp/tools.HoverTool).Execute&#45;&gt;github.com/guild&#45;framework/guild&#45;core/tools.NewToolResult -->
<g id="edge24" class="edge">
<title>(*github.com/guild&#45;framework/guild&#45;core/pkg/lsp/tools.HoverTool).Execute&#45;&gt;github.com/guild&#45;framework/guild&#45;core/tools.NewToolResult</title>
<g id="a_edge24"><a xlink:title="at hover_tool.go:157: calling [github.com/guild&#45;framework/guild&#45;core/tools.NewToolResult]">
<path fill="none" stroke="saddlebrown" d="M142.34,-624.66C166.41,-601.03 206.51,-557.55 227.29,-512 260.4,-439.43 243.19,-221.86 292.29,-159 305.16,-142.52 323.97,-130.73 343.03,-122.37"/>
<polygon fill="saddlebrown" stroke="saddlebrown" points="344.26,-125.64 352.21,-118.63 341.62,-119.16 344.26,-125.64"/>
</a>
</g>
</g>
<!-- (*github.com/guild&#45;framework/guild&#45;core/pkg/lsp/tools.ReferencesTool).Execute -->
<g id="node9" class="node">
<title>(*github.com/guild&#45;framework/guild&#45;core/pkg/lsp/tools.ReferencesTool).Execute</title>
<g id="a_node9"><a xlink:title="(*github.com/guild&#45;framework/guild&#45;core/pkg/lsp/tools.ReferencesTool).Execute | defined in references_tool.go:82&#10;at references_tool.go:148: calling [github.com/guild&#45;framework/guild&#45;core/tools.NewToolResult]&#10;at references_tool.go:86: calling [github.com/guild&#45;framework/guild&#45;core/pkg/gerror.Wrap]&#10;at references_tool.go:136: calling [github.com/guild&#45;framework/guild&#45;core/pkg/gerror.Wrap]&#10;at references_tool.go:87: calling [(*github.com/guild&#45;framework/guild&#45;core/pkg/gerror.GuildError).WithComponent]&#10;at references_tool.go:137: calling [(*github.com/guild&#45;framework/guild&#45;core/pkg/gerror.GuildError).WithComponent]&#10;at references_tool.go:88: calling [(*github.com/guild&#45;framework/guild&#45;core/pkg/gerror.GuildError).WithOperation]&#10;at references_tool.go:138: calling [(*github.com/guild&#45;framework/guild&#45;core/pkg/gerror.GuildError).WithOperation]&#10;at references_tool.go:97: calling [(*github.com/guild&#45;framework/guild&#45;core/pkg/lsp.Manager).GetReferences]">
<path fill="lightblue" stroke="black" stroke-width="1.5" d="M214.91,-357C214.91,-357 28.38,-357 28.38,-357 22.38,-357 16.37,-351 16.37,-345 16.37,-345 16.37,-333 16.37,-333 16.37,-327 22.37,-321 28.37,-321 28.37,-321 214.91,-321 214.91,-321 220.91,-321 226.91,-327 226.91,-333 226.91,-333 226.91,-345 226.91,-345 226.91,-351 220.91,-357 214.91,-357"/>
<text xml:space="preserve" text-anchor="middle" x="121.64" y="-334.32" font-family="Verdana" font-size="14.00">(*ReferencesTool).Execute</text>
</a>
</g>
</g>
<!-- (*github.com/guild&#45;framework/guild&#45;core/pkg/lsp/tools.ReferencesTool).Execute&#45;&gt;github.com/guild&#45;framework/guild&#45;core/pkg/gerror.Wrap -->
<g id="edge10" class="edge">
<title>(*github.com/guild&#45;framework/guild&#45;core/pkg/lsp/tools.ReferencesTool).Execute&#45;&gt;github.com/guild&#45;framework/guild&#45;core/pkg/gerror.Wrap</title>
<g id="a_edge10"><a xlink:title="at references_tool.go:86: calling [github.com/guild&#45;framework/guild&#45;core/pkg/gerror.Wrap]&#10;at references_tool.go:136: calling [github.com/guild&#45;framework/guild&#45;core/pkg/gerror.Wrap]">
<path fill="none" stroke="saddlebrown" d="M227.48,-339.83C239.55,-339.9 251.69,-339.96 263.29,-340 301.59,-340.14 344.49,-331.72 374.94,-324.25"/>
<polygon fill="saddlebrown" stroke="saddlebrown" points="375.67,-327.68 384.51,-321.83 373.95,-320.9 375.67,-327.68"/>
</a>
</g>
</g>
<!-- (*github.com/guild&#45;framework/guild&#45;core/pkg/lsp/tools.ReferencesTool).Execute&#45;&gt;(*github.com/guild&#45;framework/guild&#45;core/pkg/gerror.GuildError).WithComponent -->
<g id="edge11" class="edge">
<title>(*github.com/guild&#45;framework/guild&#45;core/pkg/lsp/tools.ReferencesTool).Execute&#45;&gt;(*github.com/guild&#45;framework/guild&#45;core/pkg/gerror.GuildError).WithComponent</title>
<g id="a_edge11"><a xlink:title="at references_tool.go:87: calling [(*github.com/guild&#45;framework/guild&#45;core/pkg/gerror.GuildError).WithComponent]&#10;at references_tool.go:137: calling [(*github.com/guild&#45;framework/guild&#45;core/pkg/gerror.GuildError).WithComponent]">
<path fill="none" stroke="saddlebrown" d="M227.4,-327.67C240.27,-324.02 252.88,-319.24 264.29,-313 280.29,-304.24 276.58,-292.27 292.29,-283 297.26,-280.06 302.51,-277.4 307.92,-274.99"/>
<polygon fill="saddlebrown" stroke="saddlebrown" points="309.17,-278.26 317.1,-271.24 306.52,-271.79 309.17,-278.26"/>
</a>
</g>
</g>
<!-- (*github.com/guild&#45;framework/guild&#45;core/pkg/lsp/tools.ReferencesTool).Execute&#45;&gt;(*github.com/guild&#45;framework/guild&#45;core/pkg/gerror.GuildError).WithOperation -->
<g id="edge18" class="edge">
<title>(*github.com/guild&#45;framework/guild&#45;core/pkg/lsp/tools.ReferencesTool).Execute&#45;&gt;(*github.com/guild&#45;framework/guild&#45;core/pkg/gerror.GuildError).WithOperation</title>
<g id="a_edge18"><a xlink:title="at references_tool.go:88: calling [(*github.com/guild&#45;framework/guild&#45;core/pkg/gerror.GuildError).WithOperation]&#10;at references_tool.go:138: calling [(*github.com/guild&#45;framework/guild&#45;core/pkg/gerror.GuildError).WithOperation]">
<path fill="none" stroke="saddlebrown" d="M197.58,-320.27C207.73,-316.94 217.88,-313.18 227.29,-309 244.99,-301.15 251.62,-300.64 264.29,-286 284.61,-262.53 268.59,-242.06 292.29,-222 295.11,-219.61 298.09,-217.41 301.19,-215.37"/>
<polygon fill="saddlebrown" stroke="saddlebrown" points="302.66,-218.56 309.53,-210.5 299.13,-212.52 302.66,-218.56"/>
</a>
</g>
</g>
<!-- (*github.com/guild&#45;framework/guild&#45;core/pkg/lsp.Manager).GetReferences -->
<g id="node17" class="node">
<title>(*github.com/guild&#45;framework/guild&#45;core/pkg/lsp.Manager).GetReferences</title>
<g id="a_node17"><a xlink:title="(*github.com/guild&#45;framework/guild&#45;core/pkg/lsp.Manager).GetReferences | defined in manager.go:189">
<path fill="moccasin" stroke="black" stroke-width="1.5" d="M510.45,-480C510.45,-480 322.41,-480 322.41,-480 316.41,-480 310.41,-474 310.41,-468 310.41,-468 310.41,-456 310.41,-456 310.41,-450 316.41,-444 322.41,-444 322.41,-444 510.45,-444 510.45,-444 516.45,-444 522.45,-450 522.45,-456 522.45,-456 522.45,-468 522.45,-468 522.45,-474 516.45,-480 510.45,-480"/>
<text xml:space="preserve" text-anchor="middle" x="416.43" y="-457.32" font-family="Verdana" font-size="14.00">(*Manager).GetReferences</text>
</a>
</g>
</g>
<!-- (*github.com/guild&#45;framework/guild&#45;core/pkg/lsp/tools.ReferencesTool).Execute&#45;&gt;(*github.com/guild&#45;framework/guild&#45;core/pkg/lsp.Manager).GetReferences -->
<g id="edge25" class="edge">
<title>(*github.com/guild&#45;framework/guild&#45;core/pkg/lsp/tools.ReferencesTool).Execute&#45;&gt;(*github.com/guild&#45;framework/guild&#45;core/pkg/lsp.Manager).GetReferences</title>
<g id="a_edge25"><a xlink:title="at references_tool.go:97: calling [(*github.com/guild&#45;framework/guild&#45;core/pkg/lsp.Manager).GetReferences]">
<path fill="none" stroke="saddlebrown" d="M151.24,-357.73C184.08,-378.51 240.16,-411.77 292.29,-432 299.76,-434.9 307.61,-437.58 315.56,-440.05"/>
<polygon fill="saddlebrown" stroke="saddlebrown" points="314.42,-443.36 325,-442.85 316.41,-436.65 314.42,-443.36"/>
</a>
</g>
</g>
<!-- (*github.com/guild&#45;framework/guild&#45;core/pkg/lsp/tools.ReferencesTool).Execute&#45;&gt;github.com/guild&#45;framework/guild&#45;core/tools.NewToolResult -->
<g id="edge5" class="edge">
<title>(*github.com/guild&#45;framework/guild&#45;core/pkg/lsp/tools.ReferencesTool).Execute&#45;&gt;github.com/guild&#45;framework/guild&#45;core/tools.NewToolResult</title>
<g id="a_edge5"><a xlink:title="at references_tool.go:148: calling [github.com/guild&#45;framework/guild&#45;core/tools.NewToolResult]">
<path fill="none" stroke="saddlebrown" d="M210.84,-320.29C216.75,-317.1 222.32,-313.36 227.29,-309 281.89,-261.06 241.38,-210.83 292.29,-159 306.39,-144.65 324.84,-133.63 343.15,-125.32"/>
<polygon fill="saddlebrown" stroke="saddlebrown" points="344.38,-128.61 352.19,-121.46 341.62,-122.17 344.38,-128.61"/>
</a>
</g>
</g>
<!-- github.com/guild&#45;framework/guild&#45;core/pkg/lsp/tools.NewCompletionTool -->
<g id="node10" class="node">
<title>github.com/guild&#45;framework/guild&#45;core/pkg/lsp/tools.NewCompletionTool</title>
<g id="a_node10"><a xlink:title="github.com/guild&#45;framework/guild&#45;core/pkg/lsp/tools.NewCompletionTool | defined in completion_tool.go:49&#10;at completion_tool.go:79: calling [github.com/guild&#45;framework/guild&#45;core/tools.NewBaseTool]">
<path fill="lightblue" stroke="black" stroke-width="1.5" d="M189.41,-235C189.41,-235 53.87,-235 53.87,-235 47.87,-235 41.87,-229 41.87,-223 41.87,-223 41.87,-211 41.87,-211 41.87,-205 47.87,-199 53.87,-199 53.87,-199 189.41,-199 189.41,-199 195.41,-199 201.41,-205 201.41,-211 201.41,-211 201.41,-223 201.41,-223 201.41,-229 195.41,-235 189.41,-235"/>
<text xml:space="preserve" text-anchor="middle" x="121.64" y="-212.32" font-family="Verdana" font-size="14.00">NewCompletionTool</text>
</a>
</g>
</g>
<!-- github.com/guild&#45;framework/guild&#45;core/pkg/lsp/tools.NewCompletionTool&#45;&gt;github.com/guild&#45;framework/guild&#45;core/tools.NewBaseTool -->
<g id="edge6" class="edge">
<title>github.com/guild&#45;framework/guild&#45;core/pkg/lsp/tools.NewCompletionTool&#45;&gt;github.com/guild&#45;framework/guild&#45;core/tools.NewBaseTool</title>
<g id="a_edge6"><a xlink:title="at completion_tool.go:79: calling [github.com/guild&#45;framework/guild&#45;core/tools.NewBaseTool]">
<path fill="none" stroke="saddlebrown" d="M201.9,-201.55C211,-197.73 219.71,-192.95 227.29,-187 273.15,-150.97 245.85,-108.28 292.29,-73 308.36,-60.79 328.69,-53.35 348.17,-48.83"/>
<polygon fill="saddlebrown" stroke="saddlebrown" points="348.62,-52.31 357.7,-46.85 347.2,-45.46 348.62,-52.31"/>
</a>
</g>
</g>
</g>
</svg>
