<?xml version="1.0" encoding="UTF-8" standalone="no"?>
<!DOCTYPE svg PUBLIC "-//W3C//DTD SVG 1.1//EN"
 "http://www.w3.org/Graphics/SVG/1.1/DTD/svg11.dtd">
<!-- Generated by graphviz version 14.1.1 (20251213.1925)
 -->
<!-- Title: gocallvis Pages: 1 -->
<svg width="834pt" height="402pt"
 viewBox="0.00 0.00 834.00 402.00" xmlns="http://www.w3.org/2000/svg" xmlns:xlink="http://www.w3.org/1999/xlink">
<g id="graph0" class="graph" transform="scale(1 1) rotate(0) translate(0 402)">
<title>gocallvis</title>
<polygon fill="lightgray" stroke="none" points="0,0 0,-402 833.87,-402 833.87,0 0,0"/>
<g id="clust1" class="cluster">
<title>cluster_focus</title>
<polygon fill="#e6ecfa" stroke="black" stroke-width="0.5" points="8,-8 8,-394 825.87,-394 825.87,-8 8,-8"/>
<text xml:space="preserve" text-anchor="middle" x="416.93" y="-372.9" font-family="Arial" font-size="18.00">gerror</text>
</g>
<!-- github.com/guild&#45;framework/guild&#45;core/pkg/gerror.New -->
<g id="node1" class="node">
<title>github.com/guild&#45;framework/guild&#45;core/pkg/gerror.New</title>
<g id="a_node1"><a xlink:title="github.com/guild&#45;framework/guild&#45;core/pkg/gerror.New | defined in errors.go:190&#10;at errors.go:196: calling [github.com/guild&#45;framework/guild&#45;core/pkg/gerror.captureStack]">
<path fill="lightblue" stroke="black" stroke-width="1.5" d="M617.58,-113C617.58,-113 587.58,-113 587.58,-113 581.58,-113 575.58,-107 575.58,-101 575.58,-101 575.58,-89 575.58,-89 575.58,-83 581.58,-77 587.58,-77 587.58,-77 617.58,-77 617.58,-77 623.58,-77 629.58,-83 629.58,-89 629.58,-89 629.58,-101 629.58,-101 629.58,-107 623.58,-113 617.58,-113"/>
<text xml:space="preserve" text-anchor="middle" x="602.58" y="-90.33" font-family="Verdana" font-size="14.00">New</text>
</a>
</g>
</g>
<!-- github.com/guild&#45;framework/guild&#45;core/pkg/gerror.captureStack -->
<g id="node2" class="node">
<title>github.com/guild&#45;framework/guild&#45;core/pkg/gerror.captureStack</title>
<g id="a_node2"><a xlink:title="github.com/guild&#45;framework/guild&#45;core/pkg/gerror.captureStack | defined in errors.go:261">
<path fill="lightblue" stroke="black" stroke-width="0.5" d="M805.87,-113C805.87,-113 714.58,-113 714.58,-113 708.58,-113 702.58,-107 702.58,-101 702.58,-101 702.58,-89 702.58,-89 702.58,-83 708.58,-77 714.58,-77 714.58,-77 805.87,-77 805.87,-77 811.87,-77 817.87,-83 817.87,-89 817.87,-89 817.87,-101 817.87,-101 817.87,-107 811.87,-113 805.87,-113"/>
<text xml:space="preserve" text-anchor="middle" x="760.22" y="-90.33" font-family="Verdana" font-size="14.00">captureStack</text>
</a>
</g>
</g>
<!-- github.com/guild&#45;framework/guild&#45;core/pkg/gerror.New&#45;&gt;github.com/guild&#45;framework/guild&#45;core/pkg/gerror.captureStack -->
<g id="edge2" class="edge">
<title>github.com/guild&#45;framework/guild&#45;core/pkg/gerror.New&#45;&gt;github.com/guild&#45;framework/guild&#45;core/pkg/gerror.captureStack</title>
<g id="a_edge2"><a xlink:title="at errors.go:196: calling [github.com/guild&#45;framework/guild&#45;core/pkg/gerror.captureStack]">
<path fill="none" stroke="black" d="M629.98,-95C646.9,-95 669.67,-95 691.4,-95"/>
<polygon fill="black" stroke="black" points="691.11,-98.5 701.11,-95 691.11,-91.5 691.11,-98.5"/>
</a>
</g>
</g>
<!-- github.com/guild&#45;framework/guild&#45;core/pkg/gerror.init -->
<g id="node3" class="node">
<title>github.com/guild&#45;framework/guild&#45;core/pkg/gerror.init</title>
<g id="a_node3"><a xlink:title="github.com/guild&#45;framework/guild&#45;core/pkg/gerror.init | defined in .:0&#10;at errors.go:292: calling [github.com/guild&#45;framework/guild&#45;core/pkg/gerror.New]&#10;at errors.go:293: calling [github.com/guild&#45;framework/guild&#45;core/pkg/gerror.New]&#10;at errors.go:296: calling [github.com/guild&#45;framework/guild&#45;core/pkg/gerror.New]&#10;at errors.go:297: calling [github.com/guild&#45;framework/guild&#45;core/pkg/gerror.New]&#10;at errors.go:300: calling [github.com/guild&#45;framework/guild&#45;core/pkg/gerror.New]&#10;at errors.go:301: calling [github.com/guild&#45;framework/guild&#45;core/pkg/gerror.New]&#10;at errors.go:302: calling [github.com/guild&#45;framework/guild&#45;core/pkg/gerror.New]&#10;at errors.go:303: calling [github.com/guild&#45;framework/guild&#45;core/pkg/gerror.New]&#10;at errors.go:306: calling [github.com/guild&#45;framework/guild&#45;core/pkg/gerror.New]&#10;at errors.go:307: calling [github.com/guild&#45;framework/guild&#45;core/pkg/gerror.New]&#10;at errors.go:308: calling [github.com/guild&#45;framework/guild&#45;core/pkg/gerror.New]">
<path fill="lightblue" stroke="black" stroke-width="0.5" d="M417.18,-52C417.18,-52 387.18,-52 387.18,-52 381.18,-52 375.18,-46 375.18,-40 375.18,-40 375.18,-28 375.18,-28 375.18,-22 381.18,-16 387.18,-16 387.18,-16 417.18,-16 417.18,-16 423.18,-16 429.18,-22 429.18,-28 429.18,-28 429.18,-40 429.18,-40 429.18,-46 423.18,-52 417.18,-52"/>
<text xml:space="preserve" text-anchor="middle" x="402.18" y="-29.32" font-family="Verdana" font-size="14.00">init</text>
</a>
</g>
</g>
<!-- github.com/guild&#45;framework/guild&#45;core/pkg/gerror.init&#45;&gt;github.com/guild&#45;framework/guild&#45;core/pkg/gerror.New -->
<g id="edge3" class="edge">
<title>github.com/guild&#45;framework/guild&#45;core/pkg/gerror.init&#45;&gt;github.com/guild&#45;framework/guild&#45;core/pkg/gerror.New</title>
<g id="a_edge3"><a xlink:title="at errors.go:292: calling [github.com/guild&#45;framework/guild&#45;core/pkg/gerror.New]&#10;at errors.go:293: calling [github.com/guild&#45;framework/guild&#45;core/pkg/gerror.New]&#10;at errors.go:296: calling [github.com/guild&#45;framework/guild&#45;core/pkg/gerror.New]&#10;at errors.go:297: calling [github.com/guild&#45;framework/guild&#45;core/pkg/gerror.New]&#10;at errors.go:300: calling [github.com/guild&#45;framework/guild&#45;core/pkg/gerror.New]&#10;at errors.go:301: calling [github.com/guild&#45;framework/guild&#45;core/pkg/gerror.New]&#10;at errors.go:302: calling [github.com/guild&#45;framework/guild&#45;core/pkg/gerror.New]&#10;at errors.go:303: calling [github.com/guild&#45;framework/guild&#45;core/pkg/gerror.New]&#10;at errors.go:306: calling [github.com/guild&#45;framework/guild&#45;core/pkg/gerror.New]&#10;at errors.go:307: calling [github.com/guild&#45;framework/guild&#45;core/pkg/gerror.New]&#10;at errors.go:308: calling [github.com/guild&#45;framework/guild&#45;core/pkg/gerror.New]">
<path fill="none" stroke="black" d="M429.12,-41.97C463.61,-52.58 524.79,-71.39 564.25,-83.52"/>
<polygon fill="black" stroke="black" points="562.97,-86.79 573.56,-86.38 565.03,-80.1 562.97,-86.79"/>
</a>
</g>
</g>
<!-- github.com/guild&#45;framework/guild&#45;core/pkg/gerror.Newf -->
<g id="node4" class="node">
<title>github.com/guild&#45;framework/guild&#45;core/pkg/gerror.Newf</title>
<g id="a_node4"><a xlink:title="github.com/guild&#45;framework/guild&#45;core/pkg/gerror.Newf | defined in errors.go:218&#10;at errors.go:219: calling [github.com/guild&#45;framework/guild&#45;core/pkg/gerror.New]">
<path fill="lightblue" stroke="black" stroke-width="1.5" d="M419.33,-113C419.33,-113 385.04,-113 385.04,-113 379.04,-113 373.04,-107 373.04,-101 373.04,-101 373.04,-89 373.04,-89 373.04,-83 379.04,-77 385.04,-77 385.04,-77 419.33,-77 419.33,-77 425.33,-77 431.33,-83 431.33,-89 431.33,-89 431.33,-101 431.33,-101 431.33,-107 425.33,-113 419.33,-113"/>
<text xml:space="preserve" text-anchor="middle" x="402.18" y="-90.33" font-family="Verdana" font-size="14.00">Newf</text>
</a>
</g>
</g>
<!-- github.com/guild&#45;framework/guild&#45;core/pkg/gerror.Newf&#45;&gt;github.com/guild&#45;framework/guild&#45;core/pkg/gerror.New -->
<g id="edge4" class="edge">
<title>github.com/guild&#45;framework/guild&#45;core/pkg/gerror.Newf&#45;&gt;github.com/guild&#45;framework/guild&#45;core/pkg/gerror.New</title>
<g id="a_edge4"><a xlink:title="at errors.go:219: calling [github.com/guild&#45;framework/guild&#45;core/pkg/gerror.New]">
<path fill="none" stroke="black" d="M432.03,-95C466.8,-95 525.33,-95 563.71,-95"/>
<polygon fill="black" stroke="black" points="563.41,-98.5 573.41,-95 563.41,-91.5 563.41,-98.5"/>
</a>
</g>
</g>
<!-- (*github.com/guild&#45;framework/guild&#45;core/pkg/gerror.GuildError).MarshalJSON -->
<g id="node5" class="node">
<title>(*github.com/guild&#45;framework/guild&#45;core/pkg/gerror.GuildError).MarshalJSON</title>
<g id="a_node5"><a xlink:title="(*github.com/guild&#45;framework/guild&#45;core/pkg/gerror.GuildError).MarshalJSON | defined in errors.go:178&#10;at errors.go:185: calling [(*github.com/guild&#45;framework/guild&#45;core/pkg/gerror.GuildError).Error]">
<path fill="lightblue" stroke="black" stroke-width="1.5" d="M216.79,-174C216.79,-174 28,-174 28,-174 22,-174 16,-168 16,-162 16,-162 16,-150 16,-150 16,-144 22,-138 28,-138 28,-138 216.79,-138 216.79,-138 222.79,-138 228.79,-144 228.79,-150 228.79,-150 228.79,-162 228.79,-162 228.79,-168 222.79,-174 216.79,-174"/>
<text xml:space="preserve" text-anchor="middle" x="122.39" y="-151.32" font-family="Verdana" font-size="14.00">(*GuildError).MarshalJSON</text>
</a>
</g>
</g>
<!-- (*github.com/guild&#45;framework/guild&#45;core/pkg/gerror.GuildError).Error -->
<g id="node6" class="node">
<title>(*github.com/guild&#45;framework/guild&#45;core/pkg/gerror.GuildError).Error</title>
<g id="a_node6"><a xlink:title="(*github.com/guild&#45;framework/guild&#45;core/pkg/gerror.GuildError).Error | defined in errors.go:119">
<path fill="lightblue" stroke="black" stroke-width="1.5" d="M468.08,-174C468.08,-174 336.29,-174 336.29,-174 330.29,-174 324.29,-168 324.29,-162 324.29,-162 324.29,-150 324.29,-150 324.29,-144 330.29,-138 336.29,-138 336.29,-138 468.08,-138 468.08,-138 474.08,-138 480.08,-144 480.08,-150 480.08,-150 480.08,-162 480.08,-162 480.08,-168 474.08,-174 468.08,-174"/>
<text xml:space="preserve" text-anchor="middle" x="402.18" y="-151.32" font-family="Verdana" font-size="14.00">(*GuildError).Error</text>
</a>
</g>
</g>
<!-- (*github.com/guild&#45;framework/guild&#45;core/pkg/gerror.GuildError).MarshalJSON&#45;&gt;(*github.com/guild&#45;framework/guild&#45;core/pkg/gerror.GuildError).Error -->
<g id="edge5" class="edge">
<title>(*github.com/guild&#45;framework/guild&#45;core/pkg/gerror.GuildError).MarshalJSON&#45;&gt;(*github.com/guild&#45;framework/guild&#45;core/pkg/gerror.GuildError).Error</title>
<g id="a_edge5"><a xlink:title="at errors.go:185: calling [(*github.com/guild&#45;framework/guild&#45;core/pkg/gerror.GuildError).Error]">
<path fill="none" stroke="black" d="M229.21,-156C256.71,-156 286.05,-156 312.57,-156"/>
<polygon fill="black" stroke="black" points="312.23,-159.5 322.23,-156 312.23,-152.5 312.23,-159.5"/>
</a>
</g>
</g>
<!-- github.com/guild&#45;framework/guild&#45;core/pkg/gerror.Wrap -->
<g id="node7" class="node">
<title>github.com/guild&#45;framework/guild&#45;core/pkg/gerror.Wrap</title>
<g id="a_node7"><a xlink:title="github.com/guild&#45;framework/guild&#45;core/pkg/gerror.Wrap | defined in errors.go:223&#10;at errors.go:230: calling [github.com/guild&#45;framework/guild&#45;core/pkg/gerror.New]&#10;at errors.go:241: calling [github.com/guild&#45;framework/guild&#45;core/pkg/gerror.New]">
<path fill="lightblue" stroke="black" stroke-width="1.5" d="M420.08,-357C420.08,-357 384.29,-357 384.29,-357 378.29,-357 372.29,-351 372.29,-345 372.29,-345 372.29,-333 372.29,-333 372.29,-327 378.29,-321 384.29,-321 384.29,-321 420.08,-321 420.08,-321 426.08,-321 432.08,-327 432.08,-333 432.08,-333 432.08,-345 432.08,-345 432.08,-351 426.08,-357 420.08,-357"/>
<text xml:space="preserve" text-anchor="middle" x="402.18" y="-334.32" font-family="Verdana" font-size="14.00">Wrap</text>
</a>
</g>
</g>
<!-- github.com/guild&#45;framework/guild&#45;core/pkg/gerror.Wrap&#45;&gt;github.com/guild&#45;framework/guild&#45;core/pkg/gerror.New -->
<g id="edge6" class="edge">
<title>github.com/guild&#45;framework/guild&#45;core/pkg/gerror.Wrap&#45;&gt;github.com/guild&#45;framework/guild&#45;core/pkg/gerror.New</title>
<g id="a_edge6"><a xlink:title="at errors.go:230: calling [github.com/guild&#45;framework/guild&#45;core/pkg/gerror.New]&#10;at errors.go:241: calling [github.com/guild&#45;framework/guild&#45;core/pkg/gerror.New]">
<path fill="none" stroke="black" d="M432.81,-336.51C454.39,-333.28 483.12,-325.91 502.58,-309 559.43,-259.6 585.7,-170.67 595.98,-124.55"/>
<polygon fill="black" stroke="black" points="599.35,-125.52 598,-115.01 592.51,-124.07 599.35,-125.52"/>
</a>
</g>
</g>
<!-- github.com/guild&#45;framework/guild&#45;core/pkg/gerror.IsRetryable -->
<g id="node8" class="node">
<title>github.com/guild&#45;framework/guild&#45;core/pkg/gerror.IsRetryable</title>
<g id="a_node8"><a xlink:title="github.com/guild&#45;framework/guild&#45;core/pkg/gerror.IsRetryable | defined in errors.go:348&#10;at errors.go:351: calling [(*github.com/guild&#45;framework/guild&#45;core/pkg/gerror.GuildError).IsRetryable]">
<path fill="lightblue" stroke="black" stroke-width="1.5" d="M162.04,-235C162.04,-235 82.75,-235 82.75,-235 76.75,-235 70.75,-229 70.75,-223 70.75,-223 70.75,-211 70.75,-211 70.75,-205 76.75,-199 82.75,-199 82.75,-199 162.04,-199 162.04,-199 168.04,-199 174.04,-205 174.04,-211 174.04,-211 174.04,-223 174.04,-223 174.04,-229 168.04,-235 162.04,-235"/>
<text xml:space="preserve" text-anchor="middle" x="122.39" y="-212.32" font-family="Verdana" font-size="14.00">IsRetryable</text>
</a>
</g>
</g>
<!-- (*github.com/guild&#45;framework/guild&#45;core/pkg/gerror.GuildError).IsRetryable -->
<g id="node9" class="node">
<title>(*github.com/guild&#45;framework/guild&#45;core/pkg/gerror.GuildError).IsRetryable</title>
<g id="a_node9"><a xlink:title="(*github.com/guild&#45;framework/guild&#45;core/pkg/gerror.GuildError).IsRetryable | defined in errors.go:168">
<path fill="lightblue" stroke="black" stroke-width="1.5" d="M490.58,-235C490.58,-235 313.79,-235 313.79,-235 307.79,-235 301.79,-229 301.79,-223 301.79,-223 301.79,-211 301.79,-211 301.79,-205 307.79,-199 313.79,-199 313.79,-199 490.58,-199 490.58,-199 496.58,-199 502.58,-205 502.58,-211 502.58,-211 502.58,-223 502.58,-223 502.58,-229 496.58,-235 490.58,-235"/>
<text xml:space="preserve" text-anchor="middle" x="402.18" y="-212.32" font-family="Verdana" font-size="14.00">(*GuildError).IsRetryable</text>
</a>
</g>
</g>
<!-- github.com/guild&#45;framework/guild&#45;core/pkg/gerror.IsRetryable&#45;&gt;(*github.com/guild&#45;framework/guild&#45;core/pkg/gerror.GuildError).IsRetryable -->
<g id="edge7" class="edge">
<title>github.com/guild&#45;framework/guild&#45;core/pkg/gerror.IsRetryable&#45;&gt;(*github.com/guild&#45;framework/guild&#45;core/pkg/gerror.GuildError).IsRetryable</title>
<g id="a_edge7"><a xlink:title="at errors.go:351: calling [(*github.com/guild&#45;framework/guild&#45;core/pkg/gerror.GuildError).IsRetryable]">
<path fill="none" stroke="black" d="M174.67,-217C206.99,-217 250,-217 289.85,-217"/>
<polygon fill="black" stroke="black" points="289.76,-220.5 299.76,-217 289.76,-213.5 289.76,-220.5"/>
</a>
</g>
</g>
<!-- github.com/guild&#45;framework/guild&#45;core/pkg/gerror.IsUserSafe -->
<g id="node10" class="node">
<title>github.com/guild&#45;framework/guild&#45;core/pkg/gerror.IsUserSafe</title>
<g id="a_node10"><a xlink:title="github.com/guild&#45;framework/guild&#45;core/pkg/gerror.IsUserSafe | defined in errors.go:357&#10;at errors.go:360: calling [(*github.com/guild&#45;framework/guild&#45;core/pkg/gerror.GuildError).IsUserSafe]">
<path fill="lightblue" stroke="black" stroke-width="1.5" d="M160.54,-296C160.54,-296 84.25,-296 84.25,-296 78.25,-296 72.25,-290 72.25,-284 72.25,-284 72.25,-272 72.25,-272 72.25,-266 78.25,-260 84.25,-260 84.25,-260 160.54,-260 160.54,-260 166.54,-260 172.54,-266 172.54,-272 172.54,-272 172.54,-284 172.54,-284 172.54,-290 166.54,-296 160.54,-296"/>
<text xml:space="preserve" text-anchor="middle" x="122.39" y="-273.32" font-family="Verdana" font-size="14.00">IsUserSafe</text>
</a>
</g>
</g>
<!-- (*github.com/guild&#45;framework/guild&#45;core/pkg/gerror.GuildError).IsUserSafe -->
<g id="node11" class="node">
<title>(*github.com/guild&#45;framework/guild&#45;core/pkg/gerror.GuildError).IsUserSafe</title>
<g id="a_node11"><a xlink:title="(*github.com/guild&#45;framework/guild&#45;core/pkg/gerror.GuildError).IsUserSafe | defined in errors.go:173">
<path fill="lightblue" stroke="black" stroke-width="1.5" d="M489.08,-296C489.08,-296 315.29,-296 315.29,-296 309.29,-296 303.29,-290 303.29,-284 303.29,-284 303.29,-272 303.29,-272 303.29,-266 309.29,-260 315.29,-260 315.29,-260 489.08,-260 489.08,-260 495.08,-260 501.08,-266 501.08,-272 501.08,-272 501.08,-284 501.08,-284 501.08,-290 495.08,-296 489.08,-296"/>
<text xml:space="preserve" text-anchor="middle" x="402.18" y="-273.32" font-family="Verdana" font-size="14.00">(*GuildError).IsUserSafe</text>
</a>
</g>
</g>
<!-- github.com/guild&#45;framework/guild&#45;core/pkg/gerror.IsUserSafe&#45;&gt;(*github.com/guild&#45;framework/guild&#45;core/pkg/gerror.GuildError).IsUserSafe -->
<g id="edge8" class="edge">
<title>github.com/guild&#45;framework/guild&#45;core/pkg/gerror.IsUserSafe&#45;&gt;(*github.com/guild&#45;framework/guild&#45;core/pkg/gerror.GuildError).IsUserSafe</title>
<g id="a_edge8"><a xlink:title="at errors.go:360: calling [(*github.com/guild&#45;framework/guild&#45;core/pkg/gerror.GuildError).IsUserSafe]">
<path fill="none" stroke="black" d="M173.06,-278C205.94,-278 250.39,-278 291.32,-278"/>
<polygon fill="black" stroke="black" points="291.24,-281.5 301.24,-278 291.24,-274.5 291.24,-281.5"/>
</a>
</g>
</g>
<!-- github.com/guild&#45;framework/guild&#45;core/pkg/gerror.Wrapf -->
<g id="node12" class="node">
<title>github.com/guild&#45;framework/guild&#45;core/pkg/gerror.Wrapf</title>
<g id="a_node12"><a xlink:title="github.com/guild&#45;framework/guild&#45;core/pkg/gerror.Wrapf | defined in errors.go:245&#10;at errors.go:246: calling [github.com/guild&#45;framework/guild&#45;core/pkg/gerror.Wrap]">
<path fill="lightblue" stroke="black" stroke-width="1.5" d="M142.91,-357C142.91,-357 101.87,-357 101.87,-357 95.87,-357 89.87,-351 89.87,-345 89.87,-345 89.87,-333 89.87,-333 89.87,-327 95.87,-321 101.87,-321 101.87,-321 142.91,-321 142.91,-321 148.91,-321 154.91,-327 154.91,-333 154.91,-333 154.91,-345 154.91,-345 154.91,-351 148.91,-357 142.91,-357"/>
<text xml:space="preserve" text-anchor="middle" x="122.39" y="-334.32" font-family="Verdana" font-size="14.00">Wrapf</text>
</a>
</g>
</g>
<!-- github.com/guild&#45;framework/guild&#45;core/pkg/gerror.Wrapf&#45;&gt;github.com/guild&#45;framework/guild&#45;core/pkg/gerror.Wrap -->
<g id="edge1" class="edge">
<title>github.com/guild&#45;framework/guild&#45;core/pkg/gerror.Wrapf&#45;&gt;github.com/guild&#45;framework/guild&#45;core/pkg/gerror.Wrap</title>
<g id="a_edge1"><a xlink:title="at errors.go:246: calling [github.com/guild&#45;framework/guild&#45;core/pkg/gerror.Wrap]">
<path fill="none" stroke="black" d="M155.53,-339C206.33,-339 305.11,-339 360.69,-339"/>
<polygon fill="black" stroke="black" points="360.34,-342.5 370.34,-339 360.34,-335.5 360.34,-342.5"/>
</a>
</g>
</g>
</g>
</svg>
