<?xml version="1.0" encoding="UTF-8" standalone="no"?>
<!DOCTYPE svg PUBLIC "-//W3C//DTD SVG 1.1//EN"
 "http://www.w3.org/Graphics/SVG/1.1/DTD/svg11.dtd">
<!-- Generated by graphviz version 14.1.1 (20251213.1925)
 -->
<!-- Title: gocallvis Pages: 1 -->
<svg width="1257pt" height="421pt"
 viewBox="0.00 0.00 1257.00 421.00" xmlns="http://www.w3.org/2000/svg" xmlns:xlink="http://www.w3.org/1999/xlink">
<g id="graph0" class="graph" transform="scale(1 1) rotate(0) translate(0 421)">
<title>gocallvis</title>
<polygon fill="lightgray" stroke="none" points="0,0 0,-421 1256.62,-421 1256.62,0 0,0"/>
<g id="clust1" class="cluster">
<title>cluster_focus</title>
<polygon fill="#e6ecfa" stroke="black" stroke-width="0.5" points="8,-8 8,-413 1248.62,-413 1248.62,-8 8,-8"/>
<text xml:space="preserve" text-anchor="middle" x="628.31" y="-391.9" font-family="Arial" font-size="18.00">base</text>
</g>
<g id="clust2" class="cluster">
<title>cluster_github.com/guild&#45;framework/guild&#45;core/pkg/gerror</title>
<g id="a_clust2"><a xlink:href="/?f=github.com/guild-framework/guild-core/pkg/gerror" xlink:title="package: github.com/guild&#45;framework/guild&#45;core/pkg/gerror">
<polygon fill="lightyellow" stroke="black" stroke-width="0.8" points="529.67,-69 529.67,-332 777.96,-332 777.96,-69 529.67,-69"/>
<text xml:space="preserve" text-anchor="middle" x="653.81" y="-312.8" font-family="Tahoma bold" font-size="16.00">gerror</text>
</a>
</g>
</g>
<!-- (*github.com/guild&#45;framework/guild&#45;core/pkg/providers/base.OpenAICompatibleProvider).makeRequest -->
<g id="node1" class="node">
<title>(*github.com/guild&#45;framework/guild&#45;core/pkg/providers/base.OpenAICompatibleProvider).makeRequest</title>
<g id="a_node1"><a xlink:title="(*github.com/guild&#45;framework/guild&#45;core/pkg/providers/base.OpenAICompatibleProvider).makeRequest | defined in openai_compatible.go:250&#10;at openai_compatible.go:278: calling [(*github.com/guild&#45;framework/guild&#45;core/pkg/providers/base.OpenAICompatibleProvider).parseError]">
<path fill="lightblue" stroke="black" stroke-width="0.5" d="M808.96,-52C808.96,-52 498.67,-52 498.67,-52 492.67,-52 486.67,-46 486.67,-40 486.67,-40 486.67,-28 486.67,-28 486.67,-22 492.67,-16 498.67,-16 498.67,-16 808.96,-16 808.96,-16 814.96,-16 820.96,-22 820.96,-28 820.96,-28 820.96,-40 820.96,-40 820.96,-46 814.96,-52 808.96,-52"/>
<text xml:space="preserve" text-anchor="middle" x="653.81" y="-29.32" font-family="Verdana" font-size="14.00">(*OpenAICompatibleProvider).makeRequest</text>
</a>
</g>
</g>
<!-- (*github.com/guild&#45;framework/guild&#45;core/pkg/providers/base.OpenAICompatibleProvider).parseError -->
<g id="node2" class="node">
<title>(*github.com/guild&#45;framework/guild&#45;core/pkg/providers/base.OpenAICompatibleProvider).parseError</title>
<g id="a_node2"><a xlink:title="(*github.com/guild&#45;framework/guild&#45;core/pkg/providers/base.OpenAICompatibleProvider).parseError | defined in openai_compatible.go:285">
<path fill="lightblue" stroke="black" stroke-width="0.5" d="M1228.62,-139C1228.62,-139 939.33,-139 939.33,-139 933.33,-139 927.33,-133 927.33,-127 927.33,-127 927.33,-115 927.33,-115 927.33,-109 933.33,-103 939.33,-103 939.33,-103 1228.62,-103 1228.62,-103 1234.62,-103 1240.62,-109 1240.62,-115 1240.62,-115 1240.62,-127 1240.62,-127 1240.62,-133 1234.62,-139 1228.62,-139"/>
<text xml:space="preserve" text-anchor="middle" x="1083.98" y="-116.33" font-family="Verdana" font-size="14.00">(*OpenAICompatibleProvider).parseError</text>
</a>
</g>
</g>
<!-- (*github.com/guild&#45;framework/guild&#45;core/pkg/providers/base.OpenAICompatibleProvider).makeRequest&#45;&gt;(*github.com/guild&#45;framework/guild&#45;core/pkg/providers/base.OpenAICompatibleProvider).parseError -->
<g id="edge15" class="edge">
<title>(*github.com/guild&#45;framework/guild&#45;core/pkg/providers/base.OpenAICompatibleProvider).makeRequest&#45;&gt;(*github.com/guild&#45;framework/guild&#45;core/pkg/providers/base.OpenAICompatibleProvider).parseError</title>
<g id="a_edge15"><a xlink:title="at openai_compatible.go:278: calling [(*github.com/guild&#45;framework/guild&#45;core/pkg/providers/base.OpenAICompatibleProvider).parseError]">
<path fill="none" stroke="black" d="M793.32,-52.23C813.83,-55.48 834.68,-59.09 854.33,-63 905.98,-73.28 963.44,-87.86 1007.84,-99.84"/>
<polygon fill="black" stroke="black" points="1006.8,-103.19 1017.37,-102.43 1008.63,-96.43 1006.8,-103.19"/>
</a>
</g>
</g>
<!-- (*github.com/guild&#45;framework/guild&#45;core/pkg/providers/base.OpenAICompatibleProvider).ChatCompletion -->
<g id="node3" class="node">
<title>(*github.com/guild&#45;framework/guild&#45;core/pkg/providers/base.OpenAICompatibleProvider).ChatCompletion</title>
<g id="a_node3"><a xlink:title="(*github.com/guild&#45;framework/guild&#45;core/pkg/providers/base.OpenAICompatibleProvider).ChatCompletion | defined in openai_compatible.go:50&#10;at openai_compatible.go:111: calling [(*github.com/guild&#45;framework/guild&#45;core/pkg/gerror.GuildError).WithDetails]&#10;at openai_compatible.go:110: calling [(*github.com/guild&#45;framework/guild&#45;core/pkg/gerror.GuildError).WithOperation]&#10;at openai_compatible.go:83: calling [(*github.com/guild&#45;framework/guild&#45;core/pkg/providers/base.OpenAICompatibleProvider).makeRequest]&#10;at openai_compatible.go:108: calling [github.com/guild&#45;framework/guild&#45;core/pkg/gerror.Wrap]&#10;at openai_compatible.go:109: calling [(*github.com/guild&#45;framework/guild&#45;core/pkg/gerror.GuildError).WithComponent]">
<path fill="lightblue" stroke="black" stroke-width="1.5" d="M361.16,-197C361.16,-197 35.13,-197 35.13,-197 29.12,-197 23.12,-191 23.12,-185 23.12,-185 23.12,-173 23.12,-173 23.12,-167 29.12,-161 35.12,-161 35.12,-161 361.16,-161 361.16,-161 367.16,-161 373.16,-167 373.16,-173 373.16,-173 373.16,-185 373.16,-185 373.16,-191 367.16,-197 361.16,-197"/>
<text xml:space="preserve" text-anchor="middle" x="198.14" y="-174.32" font-family="Verdana" font-size="14.00">(*OpenAICompatibleProvider).ChatCompletion</text>
</a>
</g>
</g>
<!-- (*github.com/guild&#45;framework/guild&#45;core/pkg/providers/base.OpenAICompatibleProvider).ChatCompletion&#45;&gt;(*github.com/guild&#45;framework/guild&#45;core/pkg/providers/base.OpenAICompatibleProvider).makeRequest -->
<g id="edge8" class="edge">
<title>(*github.com/guild&#45;framework/guild&#45;core/pkg/providers/base.OpenAICompatibleProvider).ChatCompletion&#45;&gt;(*github.com/guild&#45;framework/guild&#45;core/pkg/providers/base.OpenAICompatibleProvider).makeRequest</title>
<g id="a_edge8"><a xlink:title="at openai_compatible.go:83: calling [(*github.com/guild&#45;framework/guild&#45;core/pkg/providers/base.OpenAICompatibleProvider).makeRequest]">
<path fill="none" stroke="black" d="M246.19,-160.34C283.06,-145.4 335.44,-123.46 380.29,-102 413.47,-86.12 418.34,-74.48 453.29,-63 462.47,-59.98 471.99,-57.28 481.67,-54.86"/>
<polygon fill="black" stroke="black" points="482.27,-58.31 491.19,-52.59 480.65,-51.5 482.27,-58.31"/>
</a>
</g>
</g>
<!-- github.com/guild&#45;framework/guild&#45;core/pkg/gerror.Wrap -->
<g id="node7" class="node">
<title>github.com/guild&#45;framework/guild&#45;core/pkg/gerror.Wrap</title>
<g id="a_node7"><a xlink:title="github.com/guild&#45;framework/guild&#45;core/pkg/gerror.Wrap | defined in errors.go:223">
<path fill="moccasin" stroke="black" stroke-width="1.5" d="M671.71,-235C671.71,-235 635.92,-235 635.92,-235 629.92,-235 623.92,-229 623.92,-223 623.92,-223 623.92,-211 623.92,-211 623.92,-205 629.92,-199 635.92,-199 635.92,-199 671.71,-199 671.71,-199 677.71,-199 683.71,-205 683.71,-211 683.71,-211 683.71,-223 683.71,-223 683.71,-229 677.71,-235 671.71,-235"/>
<text xml:space="preserve" text-anchor="middle" x="653.81" y="-212.32" font-family="Verdana" font-size="14.00">Wrap</text>
</a>
</g>
</g>
<!-- (*github.com/guild&#45;framework/guild&#45;core/pkg/providers/base.OpenAICompatibleProvider).ChatCompletion&#45;&gt;github.com/guild&#45;framework/guild&#45;core/pkg/gerror.Wrap -->
<g id="edge9" class="edge">
<title>(*github.com/guild&#45;framework/guild&#45;core/pkg/providers/base.OpenAICompatibleProvider).ChatCompletion&#45;&gt;github.com/guild&#45;framework/guild&#45;core/pkg/gerror.Wrap</title>
<g id="a_edge9"><a xlink:title="at openai_compatible.go:108: calling [github.com/guild&#45;framework/guild&#45;core/pkg/gerror.Wrap]">
<path fill="none" stroke="saddlebrown" d="M373.89,-193.64C460.68,-200.91 558.23,-209.08 611.89,-213.57"/>
<polygon fill="saddlebrown" stroke="saddlebrown" points="611.53,-217.05 621.78,-214.4 612.11,-210.08 611.53,-217.05"/>
</a>
</g>
</g>
<!-- (*github.com/guild&#45;framework/guild&#45;core/pkg/gerror.GuildError).WithComponent -->
<g id="node8" class="node">
<title>(*github.com/guild&#45;framework/guild&#45;core/pkg/gerror.GuildError).WithComponent</title>
<g id="a_node8"><a xlink:title="(*github.com/guild&#45;framework/guild&#45;core/pkg/gerror.GuildError).WithComponent | defined in errors.go:156">
<path fill="moccasin" stroke="black" stroke-width="1.5" d="M757.96,-296C757.96,-296 549.67,-296 549.67,-296 543.67,-296 537.67,-290 537.67,-284 537.67,-284 537.67,-272 537.67,-272 537.67,-266 543.67,-260 549.67,-260 549.67,-260 757.96,-260 757.96,-260 763.96,-260 769.96,-266 769.96,-272 769.96,-272 769.96,-284 769.96,-284 769.96,-290 763.96,-296 757.96,-296"/>
<text xml:space="preserve" text-anchor="middle" x="653.81" y="-273.32" font-family="Verdana" font-size="14.00">(*GuildError).WithComponent</text>
</a>
</g>
</g>
<!-- (*github.com/guild&#45;framework/guild&#45;core/pkg/providers/base.OpenAICompatibleProvider).ChatCompletion&#45;&gt;(*github.com/guild&#45;framework/guild&#45;core/pkg/gerror.GuildError).WithComponent -->
<g id="edge11" class="edge">
<title>(*github.com/guild&#45;framework/guild&#45;core/pkg/providers/base.OpenAICompatibleProvider).ChatCompletion&#45;&gt;(*github.com/guild&#45;framework/guild&#45;core/pkg/gerror.GuildError).WithComponent</title>
<g id="a_edge11"><a xlink:title="at openai_compatible.go:109: calling [(*github.com/guild&#45;framework/guild&#45;core/pkg/gerror.GuildError).WithComponent]">
<path fill="none" stroke="saddlebrown" d="M257.05,-197.71C308.15,-213.51 384.93,-235.48 453.29,-248 476.64,-252.28 501.61,-256.39 525.7,-260.13"/>
<polygon fill="saddlebrown" stroke="saddlebrown" points="525.16,-263.59 535.58,-261.65 526.23,-256.67 525.16,-263.59"/>
</a>
</g>
</g>
<!-- (*github.com/guild&#45;framework/guild&#45;core/pkg/gerror.GuildError).WithOperation -->
<g id="node9" class="node">
<title>(*github.com/guild&#45;framework/guild&#45;core/pkg/gerror.GuildError).WithOperation</title>
<g id="a_node9"><a xlink:title="(*github.com/guild&#45;framework/guild&#45;core/pkg/gerror.GuildError).WithOperation | defined in errors.go:162">
<path fill="moccasin" stroke="black" stroke-width="1.5" d="M752.33,-174C752.33,-174 555.29,-174 555.29,-174 549.29,-174 543.29,-168 543.29,-162 543.29,-162 543.29,-150 543.29,-150 543.29,-144 549.29,-138 555.29,-138 555.29,-138 752.33,-138 752.33,-138 758.33,-138 764.33,-144 764.33,-150 764.33,-150 764.33,-162 764.33,-162 764.33,-168 758.33,-174 752.33,-174"/>
<text xml:space="preserve" text-anchor="middle" x="653.81" y="-151.32" font-family="Verdana" font-size="14.00">(*GuildError).WithOperation</text>
</a>
</g>
</g>
<!-- (*github.com/guild&#45;framework/guild&#45;core/pkg/providers/base.OpenAICompatibleProvider).ChatCompletion&#45;&gt;(*github.com/guild&#45;framework/guild&#45;core/pkg/gerror.GuildError).WithOperation -->
<g id="edge6" class="edge">
<title>(*github.com/guild&#45;framework/guild&#45;core/pkg/providers/base.OpenAICompatibleProvider).ChatCompletion&#45;&gt;(*github.com/guild&#45;framework/guild&#45;core/pkg/gerror.GuildError).WithOperation</title>
<g id="a_edge6"><a xlink:title="at openai_compatible.go:110: calling [(*github.com/guild&#45;framework/guild&#45;core/pkg/gerror.GuildError).WithOperation]">
<path fill="none" stroke="saddlebrown" d="M373.89,-170.14C426.47,-167.48 482.98,-164.61 531.3,-162.16"/>
<polygon fill="saddlebrown" stroke="saddlebrown" points="531.44,-165.66 541.25,-161.66 531.08,-158.67 531.44,-165.66"/>
</a>
</g>
</g>
<!-- (*github.com/guild&#45;framework/guild&#45;core/pkg/gerror.GuildError).WithDetails -->
<g id="node10" class="node">
<title>(*github.com/guild&#45;framework/guild&#45;core/pkg/gerror.GuildError).WithDetails</title>
<g id="a_node10"><a xlink:title="(*github.com/guild&#45;framework/guild&#45;core/pkg/gerror.GuildError).WithDetails | defined in errors.go:147">
<path fill="moccasin" stroke="black" stroke-width="1.5" d="M741.46,-113C741.46,-113 566.17,-113 566.17,-113 560.17,-113 554.17,-107 554.17,-101 554.17,-101 554.17,-89 554.17,-89 554.17,-83 560.17,-77 566.17,-77 566.17,-77 741.46,-77 741.46,-77 747.46,-77 753.46,-83 753.46,-89 753.46,-89 753.46,-101 753.46,-101 753.46,-107 747.46,-113 741.46,-113"/>
<text xml:space="preserve" text-anchor="middle" x="653.81" y="-90.33" font-family="Verdana" font-size="14.00">(*GuildError).WithDetails</text>
</a>
</g>
</g>
<!-- (*github.com/guild&#45;framework/guild&#45;core/pkg/providers/base.OpenAICompatibleProvider).ChatCompletion&#45;&gt;(*github.com/guild&#45;framework/guild&#45;core/pkg/gerror.GuildError).WithDetails -->
<g id="edge1" class="edge">
<title>(*github.com/guild&#45;framework/guild&#45;core/pkg/providers/base.OpenAICompatibleProvider).ChatCompletion&#45;&gt;(*github.com/guild&#45;framework/guild&#45;core/pkg/gerror.GuildError).WithDetails</title>
<g id="a_edge1"><a xlink:title="at openai_compatible.go:111: calling [(*github.com/guild&#45;framework/guild&#45;core/pkg/gerror.GuildError).WithDetails]">
<path fill="none" stroke="saddlebrown" d="M283.36,-160.3C332.74,-149.62 396.42,-136.34 453.29,-126 482.11,-120.76 513.38,-115.64 542.43,-111.11"/>
<polygon fill="saddlebrown" stroke="saddlebrown" points="542.6,-114.63 551.94,-109.64 541.53,-107.71 542.6,-114.63"/>
</a>
</g>
</g>
<!-- (*github.com/guild&#45;framework/guild&#45;core/pkg/providers/base.openAIStream).Next -->
<g id="node4" class="node">
<title>(*github.com/guild&#45;framework/guild&#45;core/pkg/providers/base.openAIStream).Next</title>
<g id="a_node4"><a xlink:title="(*github.com/guild&#45;framework/guild&#45;core/pkg/providers/base.openAIStream).Next | defined in openai_compatible.go:335&#10;at openai_compatible.go:365: calling [github.com/guild&#45;framework/guild&#45;core/pkg/gerror.Wrap]&#10;at openai_compatible.go:366: calling [(*github.com/guild&#45;framework/guild&#45;core/pkg/gerror.GuildError).WithComponent]&#10;at openai_compatible.go:367: calling [(*github.com/guild&#45;framework/guild&#45;core/pkg/gerror.GuildError).WithOperation]">
<path fill="lightblue" stroke="black" stroke-width="1.5" d="M277.54,-305C277.54,-305 118.75,-305 118.75,-305 112.75,-305 106.75,-299 106.75,-293 106.75,-293 106.75,-281 106.75,-281 106.75,-275 112.75,-269 118.75,-269 118.75,-269 277.54,-269 277.54,-269 283.54,-269 289.54,-275 289.54,-281 289.54,-281 289.54,-293 289.54,-293 289.54,-299 283.54,-305 277.54,-305"/>
<text xml:space="preserve" text-anchor="middle" x="198.14" y="-282.32" font-family="Verdana" font-size="14.00">(*openAIStream).Next</text>
</a>
</g>
</g>
<!-- (*github.com/guild&#45;framework/guild&#45;core/pkg/providers/base.openAIStream).Next&#45;&gt;github.com/guild&#45;framework/guild&#45;core/pkg/gerror.Wrap -->
<g id="edge2" class="edge">
<title>(*github.com/guild&#45;framework/guild&#45;core/pkg/providers/base.openAIStream).Next&#45;&gt;github.com/guild&#45;framework/guild&#45;core/pkg/gerror.Wrap</title>
<g id="a_edge2"><a xlink:title="at openai_compatible.go:365: calling [github.com/guild&#45;framework/guild&#45;core/pkg/gerror.Wrap]">
<path fill="none" stroke="saddlebrown" d="M290.07,-286.62C329.81,-284.44 376.55,-279.09 417.29,-267 434.63,-261.85 436.12,-253.69 453.29,-248 506.44,-230.39 570.94,-222.69 611.94,-219.38"/>
<polygon fill="saddlebrown" stroke="saddlebrown" points="612.14,-222.88 621.85,-218.64 611.61,-215.9 612.14,-222.88"/>
</a>
</g>
</g>
<!-- (*github.com/guild&#45;framework/guild&#45;core/pkg/providers/base.openAIStream).Next&#45;&gt;(*github.com/guild&#45;framework/guild&#45;core/pkg/gerror.GuildError).WithComponent -->
<g id="edge12" class="edge">
<title>(*github.com/guild&#45;framework/guild&#45;core/pkg/providers/base.openAIStream).Next&#45;&gt;(*github.com/guild&#45;framework/guild&#45;core/pkg/gerror.GuildError).WithComponent</title>
<g id="a_edge12"><a xlink:title="at openai_compatible.go:366: calling [(*github.com/guild&#45;framework/guild&#45;core/pkg/gerror.GuildError).WithComponent]">
<path fill="none" stroke="saddlebrown" d="M290.17,-304.48C328.88,-311.07 374.63,-317.76 416.29,-321 435.14,-322.47 435.34,-305.93 453.29,-300 476.25,-292.42 501.41,-287.33 525.91,-283.94"/>
<polygon fill="saddlebrown" stroke="saddlebrown" points="526.13,-287.44 535.6,-282.69 525.24,-280.5 526.13,-287.44"/>
</a>
</g>
</g>
<!-- (*github.com/guild&#45;framework/guild&#45;core/pkg/providers/base.openAIStream).Next&#45;&gt;(*github.com/guild&#45;framework/guild&#45;core/pkg/gerror.GuildError).WithOperation -->
<g id="edge13" class="edge">
<title>(*github.com/guild&#45;framework/guild&#45;core/pkg/providers/base.openAIStream).Next&#45;&gt;(*github.com/guild&#45;framework/guild&#45;core/pkg/gerror.GuildError).WithOperation</title>
<g id="a_edge13"><a xlink:title="at openai_compatible.go:367: calling [(*github.com/guild&#45;framework/guild&#45;core/pkg/gerror.GuildError).WithOperation]">
<path fill="none" stroke="saddlebrown" d="M238.71,-268.26C287.93,-245.69 375.03,-208.2 453.29,-187 478.31,-180.22 505.52,-174.78 531.57,-170.45"/>
<polygon fill="saddlebrown" stroke="saddlebrown" points="531.84,-173.96 541.15,-168.91 530.72,-167.05 531.84,-173.96"/>
</a>
</g>
</g>
<!-- (*github.com/guild&#45;framework/guild&#45;core/pkg/providers/base.OpenAICompatibleProvider).CreateEmbedding -->
<g id="node5" class="node">
<title>(*github.com/guild&#45;framework/guild&#45;core/pkg/providers/base.OpenAICompatibleProvider).CreateEmbedding</title>
<g id="a_node5"><a xlink:title="(*github.com/guild&#45;framework/guild&#45;core/pkg/providers/base.OpenAICompatibleProvider).CreateEmbedding | defined in openai_compatible.go:193&#10;at openai_compatible.go:200: calling [(*github.com/guild&#45;framework/guild&#45;core/pkg/providers/base.OpenAICompatibleProvider).makeRequest]&#10;at openai_compatible.go:221: calling [(*github.com/guild&#45;framework/guild&#45;core/pkg/gerror.GuildError).WithOperation]&#10;at openai_compatible.go:222: calling [(*github.com/guild&#45;framework/guild&#45;core/pkg/gerror.GuildError).WithDetails]&#10;at openai_compatible.go:220: calling [(*github.com/guild&#45;framework/guild&#45;core/pkg/gerror.GuildError).WithComponent]&#10;at openai_compatible.go:219: calling [github.com/guild&#45;framework/guild&#45;core/pkg/gerror.Wrap]">
<path fill="lightblue" stroke="black" stroke-width="1.5" d="M368.29,-89C368.29,-89 28,-89 28,-89 22,-89 16,-83 16,-77 16,-77 16,-65 16,-65 16,-59 22,-53 28,-53 28,-53 368.29,-53 368.29,-53 374.29,-53 380.29,-59 380.29,-65 380.29,-65 380.29,-77 380.29,-77 380.29,-83 374.29,-89 368.29,-89"/>
<text xml:space="preserve" text-anchor="middle" x="198.14" y="-66.33" font-family="Verdana" font-size="14.00">(*OpenAICompatibleProvider).CreateEmbedding</text>
</a>
</g>
</g>
<!-- (*github.com/guild&#45;framework/guild&#45;core/pkg/providers/base.OpenAICompatibleProvider).CreateEmbedding&#45;&gt;(*github.com/guild&#45;framework/guild&#45;core/pkg/providers/base.OpenAICompatibleProvider).makeRequest -->
<g id="edge3" class="edge">
<title>(*github.com/guild&#45;framework/guild&#45;core/pkg/providers/base.OpenAICompatibleProvider).CreateEmbedding&#45;&gt;(*github.com/guild&#45;framework/guild&#45;core/pkg/providers/base.OpenAICompatibleProvider).makeRequest</title>
<g id="a_edge3"><a xlink:title="at openai_compatible.go:200: calling [(*github.com/guild&#45;framework/guild&#45;core/pkg/providers/base.OpenAICompatibleProvider).makeRequest]">
<path fill="none" stroke="black" d="M380.73,-56.19C411.92,-53.65 444.31,-51.01 475.39,-48.47"/>
<polygon fill="black" stroke="black" points="475.59,-51.97 485.27,-47.66 475.02,-44.99 475.59,-51.97"/>
</a>
</g>
</g>
<!-- (*github.com/guild&#45;framework/guild&#45;core/pkg/providers/base.OpenAICompatibleProvider).CreateEmbedding&#45;&gt;github.com/guild&#45;framework/guild&#45;core/pkg/gerror.Wrap -->
<g id="edge14" class="edge">
<title>(*github.com/guild&#45;framework/guild&#45;core/pkg/providers/base.OpenAICompatibleProvider).CreateEmbedding&#45;&gt;github.com/guild&#45;framework/guild&#45;core/pkg/gerror.Wrap</title>
<g id="a_edge14"><a xlink:title="at openai_compatible.go:219: calling [github.com/guild&#45;framework/guild&#45;core/pkg/gerror.Wrap]">
<path fill="none" stroke="saddlebrown" d="M244.97,-89.64C281.84,-104.9 334.82,-127.41 380.29,-149 413.33,-164.69 418.51,-175.68 453.29,-187 506.5,-204.31 570.98,-211.7 611.96,-214.81"/>
<polygon fill="saddlebrown" stroke="saddlebrown" points="611.64,-218.29 621.86,-215.5 612.13,-211.31 611.64,-218.29"/>
</a>
</g>
</g>
<!-- (*github.com/guild&#45;framework/guild&#45;core/pkg/providers/base.OpenAICompatibleProvider).CreateEmbedding&#45;&gt;(*github.com/guild&#45;framework/guild&#45;core/pkg/gerror.GuildError).WithComponent -->
<g id="edge10" class="edge">
<title>(*github.com/guild&#45;framework/guild&#45;core/pkg/providers/base.OpenAICompatibleProvider).CreateEmbedding&#45;&gt;(*github.com/guild&#45;framework/guild&#45;core/pkg/gerror.GuildError).WithComponent</title>
<g id="a_edge10"><a xlink:title="at openai_compatible.go:220: calling [(*github.com/guild&#45;framework/guild&#45;core/pkg/gerror.GuildError).WithComponent]">
<path fill="none" stroke="saddlebrown" d="M264.4,-89.71C301.03,-102.4 346.1,-121.86 380.29,-149 423.11,-182.99 406.47,-219.78 453.29,-248 475.05,-261.11 500.49,-269.2 525.78,-274.06"/>
<polygon fill="saddlebrown" stroke="saddlebrown" points="525.04,-277.49 535.49,-275.76 526.24,-270.59 525.04,-277.49"/>
</a>
</g>
</g>
<!-- (*github.com/guild&#45;framework/guild&#45;core/pkg/providers/base.OpenAICompatibleProvider).CreateEmbedding&#45;&gt;(*github.com/guild&#45;framework/guild&#45;core/pkg/gerror.GuildError).WithOperation -->
<g id="edge4" class="edge">
<title>(*github.com/guild&#45;framework/guild&#45;core/pkg/providers/base.OpenAICompatibleProvider).CreateEmbedding&#45;&gt;(*github.com/guild&#45;framework/guild&#45;core/pkg/gerror.GuildError).WithOperation</title>
<g id="a_edge4"><a xlink:title="at openai_compatible.go:221: calling [(*github.com/guild&#45;framework/guild&#45;core/pkg/gerror.GuildError).WithOperation]">
<path fill="none" stroke="saddlebrown" d="M380.83,-77.99C393.44,-81.4 405.72,-85.67 417.29,-91 437.56,-100.33 433.3,-116.09 453.29,-126 477.36,-137.93 504.91,-145.41 531.7,-150.03"/>
<polygon fill="saddlebrown" stroke="saddlebrown" points="530.79,-153.43 541.22,-151.54 531.89,-146.51 530.79,-153.43"/>
</a>
</g>
</g>
<!-- (*github.com/guild&#45;framework/guild&#45;core/pkg/providers/base.OpenAICompatibleProvider).CreateEmbedding&#45;&gt;(*github.com/guild&#45;framework/guild&#45;core/pkg/gerror.GuildError).WithDetails -->
<g id="edge7" class="edge">
<title>(*github.com/guild&#45;framework/guild&#45;core/pkg/providers/base.OpenAICompatibleProvider).CreateEmbedding&#45;&gt;(*github.com/guild&#45;framework/guild&#45;core/pkg/gerror.GuildError).WithDetails</title>
<g id="a_edge7"><a xlink:title="at openai_compatible.go:222: calling [(*github.com/guild&#45;framework/guild&#45;core/pkg/gerror.GuildError).WithDetails]">
<path fill="none" stroke="saddlebrown" d="M381,-64.71C392.94,-64.43 404.79,-64.19 416.29,-64 433.21,-63.73 436.63,-70.01 453.29,-73 481.91,-78.13 513.06,-82.25 542.06,-85.48"/>
<polygon fill="saddlebrown" stroke="saddlebrown" points="541.66,-88.96 551.98,-86.56 542.41,-82 541.66,-88.96"/>
</a>
</g>
</g>
<!-- (*github.com/guild&#45;framework/guild&#45;core/pkg/providers/base.OpenAICompatibleProvider).StreamChatCompletion -->
<g id="node6" class="node">
<title>(*github.com/guild&#45;framework/guild&#45;core/pkg/providers/base.OpenAICompatibleProvider).StreamChatCompletion</title>
<g id="a_node6"><a xlink:title="(*github.com/guild&#45;framework/guild&#45;core/pkg/providers/base.OpenAICompatibleProvider).StreamChatCompletion | defined in openai_compatible.go:140&#10;at openai_compatible.go:182: calling [(*github.com/guild&#45;framework/guild&#45;core/pkg/providers/base.OpenAICompatibleProvider).parseError]">
<path fill="lightblue" stroke="black" stroke-width="1.5" d="M842.33,-376C842.33,-376 465.29,-376 465.29,-376 459.29,-376 453.29,-370 453.29,-364 453.29,-364 453.29,-352 453.29,-352 453.29,-346 459.29,-340 465.29,-340 465.29,-340 842.33,-340 842.33,-340 848.33,-340 854.33,-346 854.33,-352 854.33,-352 854.33,-364 854.33,-364 854.33,-370 848.33,-376 842.33,-376"/>
<text xml:space="preserve" text-anchor="middle" x="653.81" y="-353.32" font-family="Verdana" font-size="14.00">(*OpenAICompatibleProvider).StreamChatCompletion</text>
</a>
</g>
</g>
<!-- (*github.com/guild&#45;framework/guild&#45;core/pkg/providers/base.OpenAICompatibleProvider).StreamChatCompletion&#45;&gt;(*github.com/guild&#45;framework/guild&#45;core/pkg/providers/base.OpenAICompatibleProvider).parseError -->
<g id="edge5" class="edge">
<title>(*github.com/guild&#45;framework/guild&#45;core/pkg/providers/base.OpenAICompatibleProvider).StreamChatCompletion&#45;&gt;(*github.com/guild&#45;framework/guild&#45;core/pkg/providers/base.OpenAICompatibleProvider).parseError</title>
<g id="a_edge5"><a xlink:title="at openai_compatible.go:182: calling [(*github.com/guild&#45;framework/guild&#45;core/pkg/providers/base.OpenAICompatibleProvider).parseError]">
<path fill="none" stroke="black" d="M846.63,-339.35C849.23,-338.28 851.8,-337.17 854.33,-336 948.06,-292.76 1028.28,-195.77 1063.66,-148.27"/>
<polygon fill="black" stroke="black" points="1066.33,-150.54 1069.42,-140.41 1060.69,-146.4 1066.33,-150.54"/>
</a>
</g>
</g>
</g>
</svg>
