<?xml version="1.0" encoding="UTF-8" standalone="no"?>
<!DOCTYPE svg PUBLIC "-//W3C//DTD SVG 1.1//EN"
 "http://www.w3.org/Graphics/SVG/1.1/DTD/svg11.dtd">
<!-- Generated by graphviz version 14.1.1 (20251213.1925)
 -->
<!-- Title: gocallvis Pages: 1 -->
<svg width="1093pt" height="537pt"
 viewBox="0.00 0.00 1093.00 537.00" xmlns="http://www.w3.org/2000/svg" xmlns:xlink="http://www.w3.org/1999/xlink">
<g id="graph0" class="graph" transform="scale(1 1) rotate(0) translate(0 537)">
<title>gocallvis</title>
<polygon fill="lightgray" stroke="none" points="0,0 0,-537 1093.41,-537 1093.41,0 0,0"/>
<g id="clust1" class="cluster">
<title>cluster_focus</title>
<polygon fill="#e6ecfa" stroke="black" stroke-width="0.5" points="8,-8 8,-529 1085.41,-529 1085.41,-8 8,-8"/>
<text xml:space="preserve" text-anchor="middle" x="546.7" y="-507.9" font-family="Arial" font-size="18.00">telemetry</text>
</g>
<g id="clust2" class="cluster">
<title>cluster_github.com/guild&#45;framework/guild&#45;core/pkg/gerror</title>
<g id="a_clust2"><a xlink:href="/?f=github.com/guild-framework/guild-core/pkg/gerror" xlink:title="package: github.com/guild&#45;framework/guild&#45;core/pkg/gerror">
<polygon fill="lightyellow" stroke="black" stroke-width="0.8" points="985.99,-198 985.99,-339 1061.78,-339 1061.78,-198 985.99,-198"/>
<text xml:space="preserve" text-anchor="middle" x="1023.89" y="-319.8" font-family="Tahoma bold" font-size="16.00">gerror</text>
</a>
</g>
</g>
<g id="clust3" class="cluster">
<title>cluster_github.com/guild&#45;framework/guild&#45;core/pkg/telemetry/collectors</title>
<g id="a_clust3"><a xlink:href="/?f=github.com/guild-framework/guild-core/pkg/telemetry/collectors" xlink:title="package: github.com/guild&#45;framework/guild&#45;core/pkg/telemetry/collectors">
<polygon fill="lightyellow" stroke="black" stroke-width="0.8" points="135,-351 135,-492 371.29,-492 371.29,-351 135,-351"/>
<text xml:space="preserve" text-anchor="middle" x="253.14" y="-472.8" font-family="Tahoma bold" font-size="16.00">collectors</text>
</a>
</g>
</g>
<!-- (*github.com/guild&#45;framework/guild&#45;core/pkg/telemetry.Telemetry).initializeMetrics -->
<g id="node1" class="node">
<title>(*github.com/guild&#45;framework/guild&#45;core/pkg/telemetry.Telemetry).initializeMetrics</title>
<g id="a_node1"><a xlink:title="(*github.com/guild&#45;framework/guild&#45;core/pkg/telemetry.Telemetry).initializeMetrics | defined in metrics.go:110&#10;at metrics.go:120: calling [github.com/guild&#45;framework/guild&#45;core/pkg/gerror.Wrap]&#10;at metrics.go:128: calling [github.com/guild&#45;framework/guild&#45;core/pkg/gerror.Wrap]&#10;at metrics.go:136: calling [github.com/guild&#45;framework/guild&#45;core/pkg/gerror.Wrap]&#10;at metrics.go:145: calling [github.com/guild&#45;framework/guild&#45;core/pkg/gerror.Wrap]&#10;at metrics.go:153: calling [github.com/guild&#45;framework/guild&#45;core/pkg/gerror.Wrap]&#10;at metrics.go:161: calling [github.com/guild&#45;framework/guild&#45;core/pkg/gerror.Wrap]&#10;at metrics.go:169: calling [github.com/guild&#45;framework/guild&#45;core/pkg/gerror.Wrap]">
<path fill="lightblue" stroke="black" stroke-width="0.5" d="M885.37,-52C885.37,-52 683.83,-52 683.83,-52 677.83,-52 671.83,-46 671.83,-40 671.83,-40 671.83,-28 671.83,-28 671.83,-22 677.83,-16 683.83,-16 683.83,-16 885.37,-16 885.37,-16 891.37,-16 897.37,-22 897.37,-28 897.37,-28 897.37,-40 897.37,-40 897.37,-46 891.37,-52 885.37,-52"/>
<text xml:space="preserve" text-anchor="middle" x="784.6" y="-29.32" font-family="Verdana" font-size="14.00">(*Telemetry).initializeMetrics</text>
</a>
</g>
</g>
<!-- github.com/guild&#45;framework/guild&#45;core/pkg/gerror.Wrap -->
<g id="node14" class="node">
<title>github.com/guild&#45;framework/guild&#45;core/pkg/gerror.Wrap</title>
<g id="a_node14"><a xlink:title="github.com/guild&#45;framework/guild&#45;core/pkg/gerror.Wrap | defined in errors.go:223">
<path fill="moccasin" stroke="black" stroke-width="1.5" d="M1041.78,-242C1041.78,-242 1005.99,-242 1005.99,-242 999.99,-242 993.99,-236 993.99,-230 993.99,-230 993.99,-218 993.99,-218 993.99,-212 999.99,-206 1005.99,-206 1005.99,-206 1041.78,-206 1041.78,-206 1047.78,-206 1053.78,-212 1053.78,-218 1053.78,-218 1053.78,-230 1053.78,-230 1053.78,-236 1047.78,-242 1041.78,-242"/>
<text xml:space="preserve" text-anchor="middle" x="1023.89" y="-219.32" font-family="Verdana" font-size="14.00">Wrap</text>
</a>
</g>
</g>
<!-- (*github.com/guild&#45;framework/guild&#45;core/pkg/telemetry.Telemetry).initializeMetrics&#45;&gt;github.com/guild&#45;framework/guild&#45;core/pkg/gerror.Wrap -->
<g id="edge12" class="edge">
<title>(*github.com/guild&#45;framework/guild&#45;core/pkg/telemetry.Telemetry).initializeMetrics&#45;&gt;github.com/guild&#45;framework/guild&#45;core/pkg/gerror.Wrap</title>
<g id="a_edge12"><a xlink:title="at metrics.go:120: calling [github.com/guild&#45;framework/guild&#45;core/pkg/gerror.Wrap]&#10;at metrics.go:128: calling [github.com/guild&#45;framework/guild&#45;core/pkg/gerror.Wrap]&#10;at metrics.go:136: calling [github.com/guild&#45;framework/guild&#45;core/pkg/gerror.Wrap]&#10;at metrics.go:145: calling [github.com/guild&#45;framework/guild&#45;core/pkg/gerror.Wrap]&#10;at metrics.go:153: calling [github.com/guild&#45;framework/guild&#45;core/pkg/gerror.Wrap]&#10;at metrics.go:161: calling [github.com/guild&#45;framework/guild&#45;core/pkg/gerror.Wrap]&#10;at metrics.go:169: calling [github.com/guild&#45;framework/guild&#45;core/pkg/gerror.Wrap]">
<path fill="none" stroke="saddlebrown" d="M872.84,-52.24C881.48,-55.77 889.82,-59.98 897.37,-65 948.16,-98.75 987.73,-159.72 1007.98,-195.56"/>
<polygon fill="saddlebrown" stroke="saddlebrown" points="1004.77,-196.99 1012.67,-204.06 1010.9,-193.61 1004.77,-196.99"/>
</a>
</g>
</g>
<!-- github.com/guild&#45;framework/guild&#45;core/pkg/telemetry.NewNoop -->
<g id="node2" class="node">
<title>github.com/guild&#45;framework/guild&#45;core/pkg/telemetry.NewNoop</title>
<g id="a_node2"><a xlink:title="github.com/guild&#45;framework/guild&#45;core/pkg/telemetry.NewNoop | defined in exporters.go:221&#10;at exporters.go:235: calling [(*github.com/guild&#45;framework/guild&#45;core/pkg/telemetry.Telemetry).initializeMetrics]">
<path fill="lightblue" stroke="black" stroke-width="1.5" d="M550.08,-52C550.08,-52 485.04,-52 485.04,-52 479.04,-52 473.04,-46 473.04,-40 473.04,-40 473.04,-28 473.04,-28 473.04,-22 479.04,-16 485.04,-16 485.04,-16 550.08,-16 550.08,-16 556.08,-16 562.08,-22 562.08,-28 562.08,-28 562.08,-40 562.08,-40 562.08,-46 556.08,-52 550.08,-52"/>
<text xml:space="preserve" text-anchor="middle" x="517.56" y="-29.32" font-family="Verdana" font-size="14.00">NewNoop</text>
</a>
</g>
</g>
<!-- github.com/guild&#45;framework/guild&#45;core/pkg/telemetry.NewNoop&#45;&gt;(*github.com/guild&#45;framework/guild&#45;core/pkg/telemetry.Telemetry).initializeMetrics -->
<g id="edge4" class="edge">
<title>github.com/guild&#45;framework/guild&#45;core/pkg/telemetry.NewNoop&#45;&gt;(*github.com/guild&#45;framework/guild&#45;core/pkg/telemetry.Telemetry).initializeMetrics</title>
<g id="a_edge4"><a xlink:title="at exporters.go:235: calling [(*github.com/guild&#45;framework/guild&#45;core/pkg/telemetry.Telemetry).initializeMetrics]">
<path fill="none" stroke="black" d="M562.62,-34C589.52,-34 625.36,-34 660.34,-34"/>
<polygon fill="black" stroke="black" points="660.14,-37.5 670.14,-34 660.14,-30.5 660.14,-37.5"/>
</a>
</g>
</g>
<!-- (github.com/guild&#45;framework/guild&#45;core/pkg/telemetry.Config).Validate -->
<g id="node3" class="node">
<title>(github.com/guild&#45;framework/guild&#45;core/pkg/telemetry.Config).Validate</title>
<g id="a_node3"><a xlink:title="(github.com/guild&#45;framework/guild&#45;core/pkg/telemetry.Config).Validate | defined in metrics.go:49&#10;at metrics.go:51: calling [github.com/guild&#45;framework/guild&#45;core/pkg/gerror.New]&#10;at metrics.go:54: calling [github.com/guild&#45;framework/guild&#45;core/pkg/gerror.New]">
<path fill="lightblue" stroke="black" stroke-width="1.5" d="M842.99,-316C842.99,-316 726.2,-316 726.2,-316 720.2,-316 714.2,-310 714.2,-304 714.2,-304 714.2,-292 714.2,-292 714.2,-286 720.2,-280 726.2,-280 726.2,-280 842.99,-280 842.99,-280 848.99,-280 854.99,-286 854.99,-292 854.99,-292 854.99,-304 854.99,-304 854.99,-310 848.99,-316 842.99,-316"/>
<text xml:space="preserve" text-anchor="middle" x="784.6" y="-293.32" font-family="Verdana" font-size="14.00">(Config).Validate</text>
</a>
</g>
</g>
<!-- github.com/guild&#45;framework/guild&#45;core/pkg/gerror.New -->
<g id="node15" class="node">
<title>github.com/guild&#45;framework/guild&#45;core/pkg/gerror.New</title>
<g id="a_node15"><a xlink:title="github.com/guild&#45;framework/guild&#45;core/pkg/gerror.New | defined in errors.go:190">
<path fill="moccasin" stroke="black" stroke-width="1.5" d="M1038.89,-303C1038.89,-303 1008.89,-303 1008.89,-303 1002.89,-303 996.89,-297 996.89,-291 996.89,-291 996.89,-279 996.89,-279 996.89,-273 1002.89,-267 1008.89,-267 1008.89,-267 1038.89,-267 1038.89,-267 1044.89,-267 1050.89,-273 1050.89,-279 1050.89,-279 1050.89,-291 1050.89,-291 1050.89,-297 1044.89,-303 1038.89,-303"/>
<text xml:space="preserve" text-anchor="middle" x="1023.89" y="-280.32" font-family="Verdana" font-size="14.00">New</text>
</a>
</g>
</g>
<!-- (github.com/guild&#45;framework/guild&#45;core/pkg/telemetry.Config).Validate&#45;&gt;github.com/guild&#45;framework/guild&#45;core/pkg/gerror.New -->
<g id="edge5" class="edge">
<title>(github.com/guild&#45;framework/guild&#45;core/pkg/telemetry.Config).Validate&#45;&gt;github.com/guild&#45;framework/guild&#45;core/pkg/gerror.New</title>
<g id="a_edge5"><a xlink:title="at metrics.go:51: calling [github.com/guild&#45;framework/guild&#45;core/pkg/gerror.New]&#10;at metrics.go:54: calling [github.com/guild&#45;framework/guild&#45;core/pkg/gerror.New]">
<path fill="none" stroke="saddlebrown" d="M855.51,-294.17C898.01,-291.84 950.6,-288.96 985.37,-287.06"/>
<polygon fill="saddlebrown" stroke="saddlebrown" points="985.13,-290.57 994.92,-286.53 984.74,-283.58 985.13,-290.57"/>
</a>
</g>
</g>
<!-- github.com/guild&#45;framework/guild&#45;core/pkg/telemetry.New -->
<g id="node4" class="node">
<title>github.com/guild&#45;framework/guild&#45;core/pkg/telemetry.New</title>
<g id="a_node4"><a xlink:title="github.com/guild&#45;framework/guild&#45;core/pkg/telemetry.New | defined in metrics.go:71&#10;at metrics.go:101: calling [(*github.com/guild&#45;framework/guild&#45;core/pkg/telemetry/collectors.SystemCollector).Register]&#10;at metrics.go:79: calling [github.com/guild&#45;framework/guild&#45;core/pkg/gerror.Wrap]&#10;at metrics.go:96: calling [github.com/guild&#45;framework/guild&#45;core/pkg/gerror.Wrap]&#10;at metrics.go:103: calling [github.com/guild&#45;framework/guild&#45;core/pkg/gerror.Wrap]&#10;at metrics.go:93: calling [(*github.com/guild&#45;framework/guild&#45;core/pkg/telemetry.Telemetry).initializeMetrics]&#10;at metrics.go:73: calling [github.com/guild&#45;framework/guild&#45;core/pkg/gerror.New]&#10;at metrics.go:77: calling [github.com/guild&#45;framework/guild&#45;core/pkg/telemetry.setupOTelProviders]&#10;at metrics.go:100: calling [github.com/guild&#45;framework/guild&#45;core/pkg/telemetry/collectors.NewSystemCollector]">
<path fill="lightblue" stroke="black" stroke-width="1.5" d="M58,-337C58,-337 28,-337 28,-337 22,-337 16,-331 16,-325 16,-325 16,-313 16,-313 16,-307 22,-301 28,-301 28,-301 58,-301 58,-301 64,-301 70,-307 70,-313 70,-313 70,-325 70,-325 70,-331 64,-337 58,-337"/>
<text xml:space="preserve" text-anchor="middle" x="43" y="-314.32" font-family="Verdana" font-size="14.00">New</text>
</a>
</g>
</g>
<!-- github.com/guild&#45;framework/guild&#45;core/pkg/telemetry.New&#45;&gt;(*github.com/guild&#45;framework/guild&#45;core/pkg/telemetry.Telemetry).initializeMetrics -->
<g id="edge10" class="edge">
<title>github.com/guild&#45;framework/guild&#45;core/pkg/telemetry.New&#45;&gt;(*github.com/guild&#45;framework/guild&#45;core/pkg/telemetry.Telemetry).initializeMetrics</title>
<g id="a_edge10"><a xlink:title="at metrics.go:93: calling [(*github.com/guild&#45;framework/guild&#45;core/pkg/telemetry.Telemetry).initializeMetrics]">
<path fill="none" stroke="black" d="M49.81,-300.49C68.8,-244.06 134.66,-78 252.14,-78 252.14,-78 252.14,-78 518.56,-78 580.59,-78 649.7,-66.13 701.79,-54.71"/>
<polygon fill="black" stroke="black" points="702.5,-58.14 711.5,-52.54 700.98,-51.31 702.5,-58.14"/>
</a>
</g>
</g>
<!-- github.com/guild&#45;framework/guild&#45;core/pkg/telemetry.setupOTelProviders -->
<g id="node5" class="node">
<title>github.com/guild&#45;framework/guild&#45;core/pkg/telemetry.setupOTelProviders</title>
<g id="a_node5"><a xlink:title="github.com/guild&#45;framework/guild&#45;core/pkg/telemetry.setupOTelProviders | defined in exporters.go:25&#10;at exporters.go:29: calling [github.com/guild&#45;framework/guild&#45;core/pkg/telemetry.createResource]&#10;at exporters.go:31: calling [github.com/guild&#45;framework/guild&#45;core/pkg/gerror.Wrap]&#10;at exporters.go:44: calling [github.com/guild&#45;framework/guild&#45;core/pkg/gerror.Wrap]&#10;at exporters.go:56: calling [github.com/guild&#45;framework/guild&#45;core/pkg/gerror.Wrap]&#10;at exporters.go:42: calling [github.com/guild&#45;framework/guild&#45;core/pkg/telemetry.setupTraceProvider]&#10;at exporters.go:50: calling [github.com/guild&#45;framework/guild&#45;core/pkg/telemetry.setupMetricProvider]">
<path fill="lightblue" stroke="black" stroke-width="0.5" d="M319.41,-245C319.41,-245 186.88,-245 186.88,-245 180.88,-245 174.88,-239 174.88,-233 174.88,-233 174.88,-221 174.88,-221 174.88,-215 180.88,-209 186.88,-209 186.88,-209 319.41,-209 319.41,-209 325.41,-209 331.41,-215 331.41,-221 331.41,-221 331.41,-233 331.41,-233 331.41,-239 325.41,-245 319.41,-245"/>
<text xml:space="preserve" text-anchor="middle" x="253.14" y="-222.32" font-family="Verdana" font-size="14.00">setupOTelProviders</text>
</a>
</g>
</g>
<!-- github.com/guild&#45;framework/guild&#45;core/pkg/telemetry.New&#45;&gt;github.com/guild&#45;framework/guild&#45;core/pkg/telemetry.setupOTelProviders -->
<g id="edge21" class="edge">
<title>github.com/guild&#45;framework/guild&#45;core/pkg/telemetry.New&#45;&gt;github.com/guild&#45;framework/guild&#45;core/pkg/telemetry.setupOTelProviders</title>
<g id="a_edge21"><a xlink:title="at metrics.go:77: calling [github.com/guild&#45;framework/guild&#45;core/pkg/telemetry.setupOTelProviders]">
<path fill="none" stroke="black" d="M70.36,-307.35C102.97,-292.94 159.21,-268.08 200.53,-249.81"/>
<polygon fill="black" stroke="black" points="201.84,-253.06 209.57,-245.82 199.01,-246.66 201.84,-253.06"/>
</a>
</g>
</g>
<!-- github.com/guild&#45;framework/guild&#45;core/pkg/telemetry.New&#45;&gt;github.com/guild&#45;framework/guild&#45;core/pkg/gerror.Wrap -->
<g id="edge9" class="edge">
<title>github.com/guild&#45;framework/guild&#45;core/pkg/telemetry.New&#45;&gt;github.com/guild&#45;framework/guild&#45;core/pkg/gerror.Wrap</title>
<g id="a_edge9"><a xlink:title="at metrics.go:79: calling [github.com/guild&#45;framework/guild&#45;core/pkg/gerror.Wrap]&#10;at metrics.go:96: calling [github.com/guild&#45;framework/guild&#45;core/pkg/gerror.Wrap]&#10;at metrics.go:103: calling [github.com/guild&#45;framework/guild&#45;core/pkg/gerror.Wrap]">
<path fill="none" stroke="saddlebrown" d="M70.49,-315.35C81.46,-314.01 94.32,-312.66 106,-312 223.72,-305.38 254.02,-299.77 371.29,-312 474.09,-322.72 500.06,-329.56 598.83,-360 632.35,-370.33 637.42,-383.2 671.83,-390 721,-399.71 854.32,-415.66 897.37,-390 955.96,-355.07 923.05,-304.13 970.37,-255 974.35,-250.86 979.01,-247.09 983.87,-243.71"/>
<polygon fill="saddlebrown" stroke="saddlebrown" points="985.49,-246.82 992.07,-238.51 981.75,-240.91 985.49,-246.82"/>
</a>
</g>
</g>
<!-- github.com/guild&#45;framework/guild&#45;core/pkg/telemetry.New&#45;&gt;github.com/guild&#45;framework/guild&#45;core/pkg/gerror.New -->
<g id="edge16" class="edge">
<title>github.com/guild&#45;framework/guild&#45;core/pkg/telemetry.New&#45;&gt;github.com/guild&#45;framework/guild&#45;core/pkg/gerror.New</title>
<g id="a_edge16"><a xlink:title="at metrics.go:73: calling [github.com/guild&#45;framework/guild&#45;core/pkg/gerror.New]">
<path fill="none" stroke="saddlebrown" d="M70.37,-318.12C126.61,-316.9 262.16,-317.37 371.29,-345 605.08,-404.19 687.22,-596.32 897.37,-478 969.38,-437.46 914.33,-367.73 970.37,-307 974.64,-302.37 980.05,-298.68 985.75,-295.75"/>
<polygon fill="saddlebrown" stroke="saddlebrown" points="986.98,-299.03 994.77,-291.86 984.2,-292.61 986.98,-299.03"/>
</a>
</g>
</g>
<!-- github.com/guild&#45;framework/guild&#45;core/pkg/telemetry/collectors.NewSystemCollector -->
<g id="node16" class="node">
<title>github.com/guild&#45;framework/guild&#45;core/pkg/telemetry/collectors.NewSystemCollector</title>
<g id="a_node16"><a xlink:title="github.com/guild&#45;framework/guild&#45;core/pkg/telemetry/collectors.NewSystemCollector | defined in system.go:31">
<path fill="moccasin" stroke="black" stroke-width="1.5" d="M324.29,-395C324.29,-395 182,-395 182,-395 176,-395 170,-389 170,-383 170,-383 170,-371 170,-371 170,-365 176,-359 182,-359 182,-359 324.29,-359 324.29,-359 330.29,-359 336.29,-365 336.29,-371 336.29,-371 336.29,-383 336.29,-383 336.29,-389 330.29,-395 324.29,-395"/>
<text xml:space="preserve" text-anchor="middle" x="253.14" y="-372.32" font-family="Verdana" font-size="14.00">NewSystemCollector</text>
</a>
</g>
</g>
<!-- github.com/guild&#45;framework/guild&#45;core/pkg/telemetry.New&#45;&gt;github.com/guild&#45;framework/guild&#45;core/pkg/telemetry/collectors.NewSystemCollector -->
<g id="edge22" class="edge">
<title>github.com/guild&#45;framework/guild&#45;core/pkg/telemetry.New&#45;&gt;github.com/guild&#45;framework/guild&#45;core/pkg/telemetry/collectors.NewSystemCollector</title>
<g id="a_edge22"><a xlink:title="at metrics.go:100: calling [github.com/guild&#45;framework/guild&#45;core/pkg/telemetry/collectors.NewSystemCollector]">
<path fill="none" stroke="saddlebrown" d="M70.61,-331.09C88.51,-338.83 112.8,-348.59 135,-355 142.5,-357.17 150.33,-359.17 158.24,-361.02"/>
<polygon fill="saddlebrown" stroke="saddlebrown" points="157.44,-364.42 167.96,-363.19 158.96,-357.59 157.44,-364.42"/>
</a>
</g>
</g>
<!-- (*github.com/guild&#45;framework/guild&#45;core/pkg/telemetry/collectors.SystemCollector).Register -->
<g id="node17" class="node">
<title>(*github.com/guild&#45;framework/guild&#45;core/pkg/telemetry/collectors.SystemCollector).Register</title>
<g id="a_node17"><a xlink:title="(*github.com/guild&#45;framework/guild&#45;core/pkg/telemetry/collectors.SystemCollector).Register | defined in system.go:36">
<path fill="moccasin" stroke="black" stroke-width="1.5" d="M351.29,-456C351.29,-456 155,-456 155,-456 149,-456 143,-450 143,-444 143,-444 143,-432 143,-432 143,-426 149,-420 155,-420 155,-420 351.29,-420 351.29,-420 357.29,-420 363.29,-426 363.29,-432 363.29,-432 363.29,-444 363.29,-444 363.29,-450 357.29,-456 351.29,-456"/>
<text xml:space="preserve" text-anchor="middle" x="253.14" y="-433.32" font-family="Verdana" font-size="14.00">(*SystemCollector).Register</text>
</a>
</g>
</g>
<!-- github.com/guild&#45;framework/guild&#45;core/pkg/telemetry.New&#45;&gt;(*github.com/guild&#45;framework/guild&#45;core/pkg/telemetry/collectors.SystemCollector).Register -->
<g id="edge3" class="edge">
<title>github.com/guild&#45;framework/guild&#45;core/pkg/telemetry.New&#45;&gt;(*github.com/guild&#45;framework/guild&#45;core/pkg/telemetry/collectors.SystemCollector).Register</title>
<g id="a_edge3"><a xlink:title="at metrics.go:101: calling [(*github.com/guild&#45;framework/guild&#45;core/pkg/telemetry/collectors.SystemCollector).Register]">
<path fill="none" stroke="saddlebrown" d="M57.98,-337.6C74.26,-357.93 103.03,-390.01 135,-408 139.62,-410.6 144.46,-412.97 149.45,-415.15"/>
<polygon fill="saddlebrown" stroke="saddlebrown" points="147.85,-418.28 158.44,-418.77 150.47,-411.79 147.85,-418.28"/>
</a>
</g>
</g>
<!-- github.com/guild&#45;framework/guild&#45;core/pkg/telemetry.createResource -->
<g id="node6" class="node">
<title>github.com/guild&#45;framework/guild&#45;core/pkg/telemetry.createResource</title>
<g id="a_node6"><a xlink:title="github.com/guild&#45;framework/guild&#45;core/pkg/telemetry.createResource | defined in exporters.go:78">
<path fill="lightblue" stroke="black" stroke-width="0.5" d="M571.08,-140C571.08,-140 464.04,-140 464.04,-140 458.04,-140 452.04,-134 452.04,-128 452.04,-128 452.04,-116 452.04,-116 452.04,-110 458.04,-104 464.04,-104 464.04,-104 571.08,-104 571.08,-104 577.08,-104 583.08,-110 583.08,-116 583.08,-116 583.08,-128 583.08,-128 583.08,-134 577.08,-140 571.08,-140"/>
<text xml:space="preserve" text-anchor="middle" x="517.56" y="-117.33" font-family="Verdana" font-size="14.00">createResource</text>
</a>
</g>
</g>
<!-- github.com/guild&#45;framework/guild&#45;core/pkg/telemetry.setupOTelProviders&#45;&gt;github.com/guild&#45;framework/guild&#45;core/pkg/telemetry.createResource -->
<g id="edge6" class="edge">
<title>github.com/guild&#45;framework/guild&#45;core/pkg/telemetry.setupOTelProviders&#45;&gt;github.com/guild&#45;framework/guild&#45;core/pkg/telemetry.createResource</title>
<g id="a_edge6"><a xlink:title="at exporters.go:29: calling [github.com/guild&#45;framework/guild&#45;core/pkg/telemetry.createResource]">
<path fill="none" stroke="black" d="M298.23,-208.84C335.06,-193.73 389.01,-171.73 436.29,-153 443.46,-150.16 451.01,-147.2 458.49,-144.29"/>
<polygon fill="black" stroke="black" points="459.5,-147.65 467.56,-140.77 456.97,-141.13 459.5,-147.65"/>
</a>
</g>
</g>
<!-- github.com/guild&#45;framework/guild&#45;core/pkg/telemetry.setupTraceProvider -->
<g id="node8" class="node">
<title>github.com/guild&#45;framework/guild&#45;core/pkg/telemetry.setupTraceProvider</title>
<g id="a_node8"><a xlink:title="github.com/guild&#45;framework/guild&#45;core/pkg/telemetry.setupTraceProvider | defined in exporters.go:88&#10;at exporters.go:94: calling [github.com/guild&#45;framework/guild&#45;core/pkg/telemetry.createOTLPTraceExporter]&#10;at exporters.go:97: calling [github.com/guild&#45;framework/guild&#45;core/pkg/telemetry.createOTLPTraceExporter]&#10;at exporters.go:101: calling [github.com/guild&#45;framework/guild&#45;core/pkg/gerror.Wrap]">
<path fill="lightblue" stroke="black" stroke-width="0.5" d="M584.2,-201C584.2,-201 450.91,-201 450.91,-201 444.91,-201 438.91,-195 438.91,-189 438.91,-189 438.91,-177 438.91,-177 438.91,-171 444.91,-165 450.91,-165 450.91,-165 584.2,-165 584.2,-165 590.2,-165 596.2,-171 596.2,-177 596.2,-177 596.2,-189 596.2,-189 596.2,-195 590.2,-201 584.2,-201"/>
<text xml:space="preserve" text-anchor="middle" x="517.56" y="-178.32" font-family="Verdana" font-size="14.00">setupTraceProvider</text>
</a>
</g>
</g>
<!-- github.com/guild&#45;framework/guild&#45;core/pkg/telemetry.setupOTelProviders&#45;&gt;github.com/guild&#45;framework/guild&#45;core/pkg/telemetry.setupTraceProvider -->
<g id="edge17" class="edge">
<title>github.com/guild&#45;framework/guild&#45;core/pkg/telemetry.setupOTelProviders&#45;&gt;github.com/guild&#45;framework/guild&#45;core/pkg/telemetry.setupTraceProvider</title>
<g id="a_edge17"><a xlink:title="at exporters.go:42: calling [github.com/guild&#45;framework/guild&#45;core/pkg/telemetry.setupTraceProvider]">
<path fill="none" stroke="black" d="M331.46,-214.04C361.62,-208.98 396.38,-203.15 427.58,-197.92"/>
<polygon fill="black" stroke="black" points="428.12,-201.38 437.4,-196.27 426.96,-194.48 428.12,-201.38"/>
</a>
</g>
</g>
<!-- github.com/guild&#45;framework/guild&#45;core/pkg/telemetry.setupMetricProvider -->
<g id="node9" class="node">
<title>github.com/guild&#45;framework/guild&#45;core/pkg/telemetry.setupMetricProvider</title>
<g id="a_node9"><a xlink:title="github.com/guild&#45;framework/guild&#45;core/pkg/telemetry.setupMetricProvider | defined in exporters.go:124&#10;at exporters.go:136: calling [github.com/guild&#45;framework/guild&#45;core/pkg/telemetry.setupMetricProvider$1]&#10;at exporters.go:131: calling [github.com/guild&#45;framework/guild&#45;core/pkg/gerror.Wrap]&#10;at exporters.go:155: calling [github.com/guild&#45;framework/guild&#45;core/pkg/gerror.Wrap]&#10;at exporters.go:153: calling [github.com/guild&#45;framework/guild&#45;core/pkg/telemetry.createOTLPMetricExporter]">
<path fill="lightblue" stroke="black" stroke-width="0.5" d="M586.83,-289C586.83,-289 448.29,-289 448.29,-289 442.29,-289 436.29,-283 436.29,-277 436.29,-277 436.29,-265 436.29,-265 436.29,-259 442.29,-253 448.29,-253 448.29,-253 586.83,-253 586.83,-253 592.83,-253 598.83,-259 598.83,-265 598.83,-265 598.83,-277 598.83,-277 598.83,-283 592.83,-289 586.83,-289"/>
<text xml:space="preserve" text-anchor="middle" x="517.56" y="-266.32" font-family="Verdana" font-size="14.00">setupMetricProvider</text>
</a>
</g>
</g>
<!-- github.com/guild&#45;framework/guild&#45;core/pkg/telemetry.setupOTelProviders&#45;&gt;github.com/guild&#45;framework/guild&#45;core/pkg/telemetry.setupMetricProvider -->
<g id="edge20" class="edge">
<title>github.com/guild&#45;framework/guild&#45;core/pkg/telemetry.setupOTelProviders&#45;&gt;github.com/guild&#45;framework/guild&#45;core/pkg/telemetry.setupMetricProvider</title>
<g id="a_edge20"><a xlink:title="at exporters.go:50: calling [github.com/guild&#45;framework/guild&#45;core/pkg/telemetry.setupMetricProvider]">
<path fill="none" stroke="black" d="M331.46,-239.96C360.81,-244.89 394.52,-250.54 425.06,-255.66"/>
<polygon fill="black" stroke="black" points="424.22,-259.07 434.66,-257.27 425.38,-252.16 424.22,-259.07"/>
</a>
</g>
</g>
<!-- github.com/guild&#45;framework/guild&#45;core/pkg/telemetry.setupOTelProviders&#45;&gt;github.com/guild&#45;framework/guild&#45;core/pkg/gerror.Wrap -->
<g id="edge13" class="edge">
<title>github.com/guild&#45;framework/guild&#45;core/pkg/telemetry.setupOTelProviders&#45;&gt;github.com/guild&#45;framework/guild&#45;core/pkg/gerror.Wrap</title>
<g id="a_edge13"><a xlink:title="at exporters.go:31: calling [github.com/guild&#45;framework/guild&#45;core/pkg/gerror.Wrap]&#10;at exporters.go:44: calling [github.com/guild&#45;framework/guild&#45;core/pkg/gerror.Wrap]&#10;at exporters.go:56: calling [github.com/guild&#45;framework/guild&#45;core/pkg/gerror.Wrap]">
<path fill="none" stroke="saddlebrown" d="M331.66,-232.74C402.31,-235.94 509.04,-235.67 598.83,-214 633.62,-205.6 636.89,-187.74 671.83,-180 769.7,-158.33 798.55,-163.18 897.37,-180 926.88,-185.02 958.7,-196.24 982.91,-206.09"/>
<polygon fill="saddlebrown" stroke="saddlebrown" points="981.49,-209.3 992.07,-209.92 984.19,-202.84 981.49,-209.3"/>
</a>
</g>
</g>
<!-- github.com/guild&#45;framework/guild&#45;core/pkg/telemetry.createOTLPTraceExporter -->
<g id="node7" class="node">
<title>github.com/guild&#45;framework/guild&#45;core/pkg/telemetry.createOTLPTraceExporter</title>
<g id="a_node7"><a xlink:title="github.com/guild&#45;framework/guild&#45;core/pkg/telemetry.createOTLPTraceExporter | defined in exporters.go:182&#10;at exporters.go:189: calling [github.com/guild&#45;framework/guild&#45;core/pkg/gerror.Wrap]">
<path fill="lightblue" stroke="black" stroke-width="0.5" d="M871.87,-113C871.87,-113 697.33,-113 697.33,-113 691.33,-113 685.33,-107 685.33,-101 685.33,-101 685.33,-89 685.33,-89 685.33,-83 691.33,-77 697.33,-77 697.33,-77 871.87,-77 871.87,-77 877.87,-77 883.87,-83 883.87,-89 883.87,-89 883.87,-101 883.87,-101 883.87,-107 877.87,-113 871.87,-113"/>
<text xml:space="preserve" text-anchor="middle" x="784.6" y="-90.33" font-family="Verdana" font-size="14.00">createOTLPTraceExporter</text>
</a>
</g>
</g>
<!-- github.com/guild&#45;framework/guild&#45;core/pkg/telemetry.createOTLPTraceExporter&#45;&gt;github.com/guild&#45;framework/guild&#45;core/pkg/gerror.Wrap -->
<g id="edge1" class="edge">
<title>github.com/guild&#45;framework/guild&#45;core/pkg/telemetry.createOTLPTraceExporter&#45;&gt;github.com/guild&#45;framework/guild&#45;core/pkg/gerror.Wrap</title>
<g id="a_edge1"><a xlink:title="at exporters.go:189: calling [github.com/guild&#45;framework/guild&#45;core/pkg/gerror.Wrap]">
<path fill="none" stroke="saddlebrown" d="M883.89,-111.13C901.39,-116.29 918.93,-123.07 934.37,-132 962.33,-148.16 987.13,-175.73 1003.32,-196.48"/>
<polygon fill="saddlebrown" stroke="saddlebrown" points="1000.39,-198.4 1009.22,-204.26 1005.97,-194.18 1000.39,-198.4"/>
</a>
</g>
</g>
<!-- github.com/guild&#45;framework/guild&#45;core/pkg/telemetry.setupTraceProvider&#45;&gt;github.com/guild&#45;framework/guild&#45;core/pkg/telemetry.createOTLPTraceExporter -->
<g id="edge7" class="edge">
<title>github.com/guild&#45;framework/guild&#45;core/pkg/telemetry.setupTraceProvider&#45;&gt;github.com/guild&#45;framework/guild&#45;core/pkg/telemetry.createOTLPTraceExporter</title>
<g id="a_edge7"><a xlink:title="at exporters.go:94: calling [github.com/guild&#45;framework/guild&#45;core/pkg/telemetry.createOTLPTraceExporter]&#10;at exporters.go:97: calling [github.com/guild&#45;framework/guild&#45;core/pkg/telemetry.createOTLPTraceExporter]">
<path fill="none" stroke="black" d="M570.91,-164.91C580.33,-161.24 589.96,-157.21 598.83,-153 615.57,-145.06 617.67,-138.97 634.83,-132 649.76,-125.94 665.94,-120.67 681.95,-116.17"/>
<polygon fill="black" stroke="black" points="682.8,-119.56 691.54,-113.57 680.97,-112.81 682.8,-119.56"/>
</a>
</g>
</g>
<!-- github.com/guild&#45;framework/guild&#45;core/pkg/telemetry.setupTraceProvider&#45;&gt;github.com/guild&#45;framework/guild&#45;core/pkg/gerror.Wrap -->
<g id="edge14" class="edge">
<title>github.com/guild&#45;framework/guild&#45;core/pkg/telemetry.setupTraceProvider&#45;&gt;github.com/guild&#45;framework/guild&#45;core/pkg/gerror.Wrap</title>
<g id="a_edge14"><a xlink:title="at exporters.go:101: calling [github.com/guild&#45;framework/guild&#45;core/pkg/gerror.Wrap]">
<path fill="none" stroke="saddlebrown" d="M583.86,-164.78C667.4,-144.7 815.5,-120.04 934.37,-159 957.76,-166.67 980.07,-183.13 996.44,-197.57"/>
<polygon fill="saddlebrown" stroke="saddlebrown" points="994.04,-200.12 1003.78,-204.29 998.77,-194.95 994.04,-200.12"/>
</a>
</g>
</g>
<!-- github.com/guild&#45;framework/guild&#45;core/pkg/telemetry.setupMetricProvider$1 -->
<g id="node10" class="node">
<title>github.com/guild&#45;framework/guild&#45;core/pkg/telemetry.setupMetricProvider$1</title>
<g id="a_node10"><a xlink:title="github.com/guild&#45;framework/guild&#45;core/pkg/telemetry.setupMetricProvider$1 | defined in exporters.go:136">
<polygon fill="lightblue" stroke="black" stroke-dasharray="1,5" points="874.87,-377 694.33,-377 694.33,-341 874.87,-341 874.87,-377"/>
<text xml:space="preserve" text-anchor="middle" x="784.6" y="-354.32" font-family="Verdana" font-size="14.00">setupMetricProvider$1</text>
</a>
</g>
</g>
<!-- github.com/guild&#45;framework/guild&#45;core/pkg/telemetry.setupMetricProvider&#45;&gt;github.com/guild&#45;framework/guild&#45;core/pkg/telemetry.setupMetricProvider$1 -->
<g id="edge2" class="edge">
<title>github.com/guild&#45;framework/guild&#45;core/pkg/telemetry.setupMetricProvider&#45;&gt;github.com/guild&#45;framework/guild&#45;core/pkg/telemetry.setupMetricProvider$1</title>
<g id="a_edge2"><a xlink:title="at exporters.go:136: calling [github.com/guild&#45;framework/guild&#45;core/pkg/telemetry.setupMetricProvider$1]">
<path fill="none" stroke="black" d="M563.08,-289.19C593.45,-301.27 634.73,-317.04 671.83,-329 676.49,-330.5 681.28,-331.99 686.12,-333.46"/>
<polygon fill="black" stroke="black" points="698.51,-340.68 709.09,-340.09 700.45,-333.95 698.51,-340.68"/>
<polyline fill="none" stroke="black" points="699,-337.18 694.2,-335.79"/>
<ellipse fill="none" stroke="black" cx="689.88" cy="-334.54" rx="4" ry="4"/>
</a>
</g>
</g>
<!-- github.com/guild&#45;framework/guild&#45;core/pkg/telemetry.createOTLPMetricExporter -->
<g id="node11" class="node">
<title>github.com/guild&#45;framework/guild&#45;core/pkg/telemetry.createOTLPMetricExporter</title>
<g id="a_node11"><a xlink:title="github.com/guild&#45;framework/guild&#45;core/pkg/telemetry.createOTLPMetricExporter | defined in exporters.go:199&#10;at exporters.go:206: calling [github.com/guild&#45;framework/guild&#45;core/pkg/gerror.Wrap]">
<path fill="lightblue" stroke="black" stroke-width="0.5" d="M874.49,-228C874.49,-228 694.7,-228 694.7,-228 688.7,-228 682.7,-222 682.7,-216 682.7,-216 682.7,-204 682.7,-204 682.7,-198 688.7,-192 694.7,-192 694.7,-192 874.49,-192 874.49,-192 880.49,-192 886.49,-198 886.49,-204 886.49,-204 886.49,-216 886.49,-216 886.49,-222 880.49,-228 874.49,-228"/>
<text xml:space="preserve" text-anchor="middle" x="784.6" y="-205.32" font-family="Verdana" font-size="14.00">createOTLPMetricExporter</text>
</a>
</g>
</g>
<!-- github.com/guild&#45;framework/guild&#45;core/pkg/telemetry.setupMetricProvider&#45;&gt;github.com/guild&#45;framework/guild&#45;core/pkg/telemetry.createOTLPMetricExporter -->
<g id="edge19" class="edge">
<title>github.com/guild&#45;framework/guild&#45;core/pkg/telemetry.setupMetricProvider&#45;&gt;github.com/guild&#45;framework/guild&#45;core/pkg/telemetry.createOTLPMetricExporter</title>
<g id="a_edge19"><a xlink:title="at exporters.go:153: calling [github.com/guild&#45;framework/guild&#45;core/pkg/telemetry.createOTLPMetricExporter]">
<path fill="none" stroke="black" d="M597.72,-252.78C627.88,-245.84 662.46,-237.88 693.55,-230.73"/>
<polygon fill="black" stroke="black" points="693.95,-234.22 702.91,-228.57 692.38,-227.4 693.95,-234.22"/>
</a>
</g>
</g>
<!-- github.com/guild&#45;framework/guild&#45;core/pkg/telemetry.setupMetricProvider&#45;&gt;github.com/guild&#45;framework/guild&#45;core/pkg/gerror.Wrap -->
<g id="edge8" class="edge">
<title>github.com/guild&#45;framework/guild&#45;core/pkg/telemetry.setupMetricProvider&#45;&gt;github.com/guild&#45;framework/guild&#45;core/pkg/gerror.Wrap</title>
<g id="a_edge8"><a xlink:title="at exporters.go:131: calling [github.com/guild&#45;framework/guild&#45;core/pkg/gerror.Wrap]&#10;at exporters.go:155: calling [github.com/guild&#45;framework/guild&#45;core/pkg/gerror.Wrap]">
<path fill="none" stroke="saddlebrown" d="M598.86,-265.94C675.62,-260.8 794.55,-252.03 897.37,-241 925.65,-237.97 957.39,-233.66 981.88,-230.14"/>
<polygon fill="saddlebrown" stroke="saddlebrown" points="982.38,-233.6 991.78,-228.7 981.38,-226.68 982.38,-233.6"/>
</a>
</g>
</g>
<!-- github.com/guild&#45;framework/guild&#45;core/pkg/telemetry.createOTLPMetricExporter&#45;&gt;github.com/guild&#45;framework/guild&#45;core/pkg/gerror.Wrap -->
<g id="edge18" class="edge">
<title>github.com/guild&#45;framework/guild&#45;core/pkg/telemetry.createOTLPMetricExporter&#45;&gt;github.com/guild&#45;framework/guild&#45;core/pkg/gerror.Wrap</title>
<g id="a_edge18"><a xlink:title="at exporters.go:206: calling [github.com/guild&#45;framework/guild&#45;core/pkg/gerror.Wrap]">
<path fill="none" stroke="saddlebrown" d="M886.58,-215.96C920.16,-217.94 955.67,-220.03 982.03,-221.59"/>
<polygon fill="saddlebrown" stroke="saddlebrown" points="981.76,-225.08 991.94,-222.17 982.17,-218.09 981.76,-225.08"/>
</a>
</g>
</g>
<!-- github.com/guild&#45;framework/guild&#45;core/pkg/telemetry.TracedError -->
<g id="node12" class="node">
<title>github.com/guild&#45;framework/guild&#45;core/pkg/telemetry.TracedError</title>
<g id="a_node12"><a xlink:title="github.com/guild&#45;framework/guild&#45;core/pkg/telemetry.TracedError | defined in tracing.go:131&#10;at tracing.go:135: calling [github.com/guild&#45;framework/guild&#45;core/pkg/telemetry.RecordError]&#10;at tracing.go:136: calling [github.com/guild&#45;framework/guild&#45;core/pkg/gerror.Wrap]">
<path fill="lightblue" stroke="black" stroke-width="1.5" d="M824.99,-465C824.99,-465 744.2,-465 744.2,-465 738.2,-465 732.2,-459 732.2,-453 732.2,-453 732.2,-441 732.2,-441 732.2,-435 738.2,-429 744.2,-429 744.2,-429 824.99,-429 824.99,-429 830.99,-429 836.99,-435 836.99,-441 836.99,-441 836.99,-453 836.99,-453 836.99,-459 830.99,-465 824.99,-465"/>
<text xml:space="preserve" text-anchor="middle" x="784.6" y="-442.32" font-family="Verdana" font-size="14.00">TracedError</text>
</a>
</g>
</g>
<!-- github.com/guild&#45;framework/guild&#45;core/pkg/telemetry.RecordError -->
<g id="node13" class="node">
<title>github.com/guild&#45;framework/guild&#45;core/pkg/telemetry.RecordError</title>
<g id="a_node13"><a xlink:title="github.com/guild&#45;framework/guild&#45;core/pkg/telemetry.RecordError | defined in tracing.go:122">
<path fill="lightblue" stroke="black" stroke-width="1.5" d="M1065.41,-475C1065.41,-475 982.37,-475 982.37,-475 976.37,-475 970.37,-469 970.37,-463 970.37,-463 970.37,-451 970.37,-451 970.37,-445 976.37,-439 982.37,-439 982.37,-439 1065.41,-439 1065.41,-439 1071.41,-439 1077.41,-445 1077.41,-451 1077.41,-451 1077.41,-463 1077.41,-463 1077.41,-469 1071.41,-475 1065.41,-475"/>
<text xml:space="preserve" text-anchor="middle" x="1023.89" y="-452.32" font-family="Verdana" font-size="14.00">RecordError</text>
</a>
</g>
</g>
<!-- github.com/guild&#45;framework/guild&#45;core/pkg/telemetry.TracedError&#45;&gt;github.com/guild&#45;framework/guild&#45;core/pkg/telemetry.RecordError -->
<g id="edge11" class="edge">
<title>github.com/guild&#45;framework/guild&#45;core/pkg/telemetry.TracedError&#45;&gt;github.com/guild&#45;framework/guild&#45;core/pkg/telemetry.RecordError</title>
<g id="a_edge11"><a xlink:title="at tracing.go:135: calling [github.com/guild&#45;framework/guild&#45;core/pkg/telemetry.RecordError]">
<path fill="none" stroke="black" d="M837.67,-449.19C873.16,-450.69 920.39,-452.68 958.27,-454.28"/>
<polygon fill="black" stroke="black" points="958.05,-457.77 968.19,-454.69 958.35,-450.78 958.05,-457.77"/>
</a>
</g>
</g>
<!-- github.com/guild&#45;framework/guild&#45;core/pkg/telemetry.TracedError&#45;&gt;github.com/guild&#45;framework/guild&#45;core/pkg/gerror.Wrap -->
<g id="edge15" class="edge">
<title>github.com/guild&#45;framework/guild&#45;core/pkg/telemetry.TracedError&#45;&gt;github.com/guild&#45;framework/guild&#45;core/pkg/gerror.Wrap</title>
<g id="a_edge15"><a xlink:title="at tracing.go:136: calling [github.com/guild&#45;framework/guild&#45;core/pkg/gerror.Wrap]">
<path fill="none" stroke="saddlebrown" d="M837.71,-447.11C869.76,-444.36 909.35,-435.41 934.37,-410 983.99,-359.6 928.54,-312.02 970.37,-255 974.05,-249.98 978.81,-245.64 983.95,-241.92"/>
<polygon fill="saddlebrown" stroke="saddlebrown" points="985.62,-245 992.21,-236.7 981.88,-239.09 985.62,-245"/>
</a>
</g>
</g>
</g>
</svg>
