<?xml version="1.0" encoding="UTF-8" standalone="no"?>
<!DOCTYPE svg PUBLIC "-//W3C//DTD SVG 1.1//EN"
 "http://www.w3.org/Graphics/SVG/1.1/DTD/svg11.dtd">
<!-- Generated by graphviz version 14.1.1 (20251213.1925)
 -->
<!-- Title: gocallvis Pages: 1 -->
<svg width="1053pt" height="438pt"
 viewBox="0.00 0.00 1053.00 438.00" xmlns="http://www.w3.org/2000/svg" xmlns:xlink="http://www.w3.org/1999/xlink">
<g id="graph0" class="graph" transform="scale(1 1) rotate(0) translate(0 438)">
<title>gocallvis</title>
<polygon fill="lightgray" stroke="none" points="0,0 0,-438 1052.66,-438 1052.66,0 0,0"/>
<g id="clust1" class="cluster">
<title>cluster_focus</title>
<polygon fill="#e6ecfa" stroke="black" stroke-width="0.5" points="8,-8 8,-430 1044.66,-430 1044.66,-8 8,-8"/>
<text xml:space="preserve" text-anchor="middle" x="526.33" y="-408.9" font-family="Arial" font-size="18.00">ora</text>
</g>
<g id="clust2" class="cluster">
<title>cluster_github.com/guild&#45;framework/guild&#45;core/pkg/gerror</title>
<g id="a_clust2"><a xlink:href="/?f=github.com/guild-framework/guild-core/pkg/gerror" xlink:title="package: github.com/guild&#45;framework/guild&#45;core/pkg/gerror">
<polygon fill="lightyellow" stroke="black" stroke-width="0.8" points="560.08,-69 560.08,-393 808.37,-393 808.37,-69 560.08,-69"/>
<text xml:space="preserve" text-anchor="middle" x="684.22" y="-373.8" font-family="Tahoma bold" font-size="16.00">gerror</text>
</a>
</g>
</g>
<!-- (*github.com/guild&#45;framework/guild&#45;core/pkg/providers/ora.Client).makeRequest -->
<g id="node1" class="node">
<title>(*github.com/guild&#45;framework/guild&#45;core/pkg/providers/ora.Client).makeRequest</title>
<g id="a_node1"><a xlink:title="(*github.com/guild&#45;framework/guild&#45;core/pkg/providers/ora.Client).makeRequest | defined in client.go:182&#10;at client.go:211: calling [(*github.com/guild&#45;framework/guild&#45;core/pkg/providers/ora.Client).parseError]">
<path fill="lightblue" stroke="black" stroke-width="0.5" d="M764.37,-52C764.37,-52 604.08,-52 604.08,-52 598.08,-52 592.08,-46 592.08,-40 592.08,-40 592.08,-28 592.08,-28 592.08,-22 598.08,-16 604.08,-16 604.08,-16 764.37,-16 764.37,-16 770.37,-16 776.37,-22 776.37,-28 776.37,-28 776.37,-40 776.37,-40 776.37,-46 770.37,-52 764.37,-52"/>
<text xml:space="preserve" text-anchor="middle" x="684.22" y="-29.32" font-family="Verdana" font-size="14.00">(*Client).makeRequest</text>
</a>
</g>
</g>
<!-- (*github.com/guild&#45;framework/guild&#45;core/pkg/providers/ora.Client).parseError -->
<g id="node2" class="node">
<title>(*github.com/guild&#45;framework/guild&#45;core/pkg/providers/ora.Client).parseError</title>
<g id="a_node2"><a xlink:title="(*github.com/guild&#45;framework/guild&#45;core/pkg/providers/ora.Client).parseError | defined in client.go:218">
<path fill="lightblue" stroke="black" stroke-width="0.5" d="M1024.66,-52C1024.66,-52 885.37,-52 885.37,-52 879.37,-52 873.37,-46 873.37,-40 873.37,-40 873.37,-28 873.37,-28 873.37,-22 879.37,-16 885.37,-16 885.37,-16 1024.66,-16 1024.66,-16 1030.66,-16 1036.66,-22 1036.66,-28 1036.66,-28 1036.66,-40 1036.66,-40 1036.66,-46 1030.66,-52 1024.66,-52"/>
<text xml:space="preserve" text-anchor="middle" x="955.01" y="-29.32" font-family="Verdana" font-size="14.00">(*Client).parseError</text>
</a>
</g>
</g>
<!-- (*github.com/guild&#45;framework/guild&#45;core/pkg/providers/ora.Client).makeRequest&#45;&gt;(*github.com/guild&#45;framework/guild&#45;core/pkg/providers/ora.Client).parseError -->
<g id="edge11" class="edge">
<title>(*github.com/guild&#45;framework/guild&#45;core/pkg/providers/ora.Client).makeRequest&#45;&gt;(*github.com/guild&#45;framework/guild&#45;core/pkg/providers/ora.Client).parseError</title>
<g id="a_edge11"><a xlink:title="at client.go:211: calling [(*github.com/guild&#45;framework/guild&#45;core/pkg/providers/ora.Client).parseError]">
<path fill="none" stroke="black" d="M776.6,-34C804.16,-34 834.41,-34 862,-34"/>
<polygon fill="black" stroke="black" points="861.73,-37.5 871.73,-34 861.73,-30.5 861.73,-37.5"/>
</a>
</g>
</g>
<!-- (*github.com/guild&#45;framework/guild&#45;core/pkg/providers/ora.Client).ChatCompletion -->
<g id="node3" class="node">
<title>(*github.com/guild&#45;framework/guild&#45;core/pkg/providers/ora.Client).ChatCompletion</title>
<g id="a_node3"><a xlink:title="(*github.com/guild&#45;framework/guild&#45;core/pkg/providers/ora.Client).ChatCompletion | defined in client.go:79&#10;at client.go:101: calling [(*github.com/guild&#45;framework/guild&#45;core/pkg/providers/ora.Client).makeRequest]&#10;at client.go:127: calling [(*github.com/guild&#45;framework/guild&#45;core/pkg/gerror.GuildError).WithComponent]&#10;at client.go:126: calling [github.com/guild&#45;framework/guild&#45;core/pkg/gerror.Wrap]&#10;at client.go:128: calling [(*github.com/guild&#45;framework/guild&#45;core/pkg/gerror.GuildError).WithOperation]&#10;at client.go:129: calling [(*github.com/guild&#45;framework/guild&#45;core/pkg/gerror.GuildError).WithDetails]">
<path fill="lightblue" stroke="black" stroke-width="1.5" d="M457.58,-140C457.58,-140 281.54,-140 281.54,-140 275.54,-140 269.54,-134 269.54,-128 269.54,-128 269.54,-116 269.54,-116 269.54,-110 275.54,-104 281.54,-104 281.54,-104 457.58,-104 457.58,-104 463.58,-104 469.58,-110 469.58,-116 469.58,-116 469.58,-128 469.58,-128 469.58,-134 463.58,-140 457.58,-140"/>
<text xml:space="preserve" text-anchor="middle" x="369.56" y="-117.33" font-family="Verdana" font-size="14.00">(*Client).ChatCompletion</text>
</a>
</g>
</g>
<!-- (*github.com/guild&#45;framework/guild&#45;core/pkg/providers/ora.Client).ChatCompletion&#45;&gt;(*github.com/guild&#45;framework/guild&#45;core/pkg/providers/ora.Client).makeRequest -->
<g id="edge1" class="edge">
<title>(*github.com/guild&#45;framework/guild&#45;core/pkg/providers/ora.Client).ChatCompletion&#45;&gt;(*github.com/guild&#45;framework/guild&#45;core/pkg/providers/ora.Client).makeRequest</title>
<g id="a_edge1"><a xlink:title="at client.go:101: calling [(*github.com/guild&#45;framework/guild&#45;core/pkg/providers/ora.Client).makeRequest]">
<path fill="none" stroke="black" d="M427.06,-103.26C464.58,-91.11 515.04,-75.3 560.08,-63 570.14,-60.25 580.71,-57.53 591.25,-54.91"/>
<polygon fill="black" stroke="black" points="591.86,-58.36 600.74,-52.58 590.19,-51.56 591.86,-58.36"/>
</a>
</g>
</g>
<!-- github.com/guild&#45;framework/guild&#45;core/pkg/gerror.Wrap -->
<g id="node7" class="node">
<title>github.com/guild&#45;framework/guild&#45;core/pkg/gerror.Wrap</title>
<g id="a_node7"><a xlink:title="github.com/guild&#45;framework/guild&#45;core/pkg/gerror.Wrap | defined in errors.go:223">
<path fill="moccasin" stroke="black" stroke-width="1.5" d="M702.12,-113C702.12,-113 666.33,-113 666.33,-113 660.33,-113 654.33,-107 654.33,-101 654.33,-101 654.33,-89 654.33,-89 654.33,-83 660.33,-77 666.33,-77 666.33,-77 702.12,-77 702.12,-77 708.12,-77 714.12,-83 714.12,-89 714.12,-89 714.12,-101 714.12,-101 714.12,-107 708.12,-113 702.12,-113"/>
<text xml:space="preserve" text-anchor="middle" x="684.22" y="-90.33" font-family="Verdana" font-size="14.00">Wrap</text>
</a>
</g>
</g>
<!-- (*github.com/guild&#45;framework/guild&#45;core/pkg/providers/ora.Client).ChatCompletion&#45;&gt;github.com/guild&#45;framework/guild&#45;core/pkg/gerror.Wrap -->
<g id="edge5" class="edge">
<title>(*github.com/guild&#45;framework/guild&#45;core/pkg/providers/ora.Client).ChatCompletion&#45;&gt;github.com/guild&#45;framework/guild&#45;core/pkg/gerror.Wrap</title>
<g id="a_edge5"><a xlink:title="at client.go:126: calling [github.com/guild&#45;framework/guild&#45;core/pkg/gerror.Wrap]">
<path fill="none" stroke="saddlebrown" d="M469.92,-113.42C528.23,-108.38 598.79,-102.29 642.35,-98.53"/>
<polygon fill="saddlebrown" stroke="saddlebrown" points="642.44,-102.03 652.11,-97.69 641.84,-95.06 642.44,-102.03"/>
</a>
</g>
</g>
<!-- (*github.com/guild&#45;framework/guild&#45;core/pkg/gerror.GuildError).WithComponent -->
<g id="node8" class="node">
<title>(*github.com/guild&#45;framework/guild&#45;core/pkg/gerror.GuildError).WithComponent</title>
<g id="a_node8"><a xlink:title="(*github.com/guild&#45;framework/guild&#45;core/pkg/gerror.GuildError).WithComponent | defined in errors.go:156">
<path fill="moccasin" stroke="black" stroke-width="1.5" d="M788.37,-235C788.37,-235 580.08,-235 580.08,-235 574.08,-235 568.08,-229 568.08,-223 568.08,-223 568.08,-211 568.08,-211 568.08,-205 574.08,-199 580.08,-199 580.08,-199 788.37,-199 788.37,-199 794.37,-199 800.37,-205 800.37,-211 800.37,-211 800.37,-223 800.37,-223 800.37,-229 794.37,-235 788.37,-235"/>
<text xml:space="preserve" text-anchor="middle" x="684.22" y="-212.32" font-family="Verdana" font-size="14.00">(*GuildError).WithComponent</text>
</a>
</g>
</g>
<!-- (*github.com/guild&#45;framework/guild&#45;core/pkg/providers/ora.Client).ChatCompletion&#45;&gt;(*github.com/guild&#45;framework/guild&#45;core/pkg/gerror.GuildError).WithComponent -->
<g id="edge2" class="edge">
<title>(*github.com/guild&#45;framework/guild&#45;core/pkg/providers/ora.Client).ChatCompletion&#45;&gt;(*github.com/guild&#45;framework/guild&#45;core/pkg/gerror.GuildError).WithComponent</title>
<g id="a_edge2"><a xlink:title="at client.go:127: calling [(*github.com/guild&#45;framework/guild&#45;core/pkg/gerror.GuildError).WithComponent]">
<path fill="none" stroke="saddlebrown" d="M420.83,-140.65C458.8,-154.39 512.34,-173.03 560.08,-187 570.03,-189.91 580.5,-192.77 590.94,-195.49"/>
<polygon fill="saddlebrown" stroke="saddlebrown" points="589.78,-198.81 600.33,-197.9 591.52,-192.03 589.78,-198.81"/>
</a>
</g>
</g>
<!-- (*github.com/guild&#45;framework/guild&#45;core/pkg/gerror.GuildError).WithOperation -->
<g id="node9" class="node">
<title>(*github.com/guild&#45;framework/guild&#45;core/pkg/gerror.GuildError).WithOperation</title>
<g id="a_node9"><a xlink:title="(*github.com/guild&#45;framework/guild&#45;core/pkg/gerror.GuildError).WithOperation | defined in errors.go:162">
<path fill="moccasin" stroke="black" stroke-width="1.5" d="M782.74,-174C782.74,-174 585.7,-174 585.7,-174 579.7,-174 573.7,-168 573.7,-162 573.7,-162 573.7,-150 573.7,-150 573.7,-144 579.7,-138 585.7,-138 585.7,-138 782.74,-138 782.74,-138 788.74,-138 794.74,-144 794.74,-150 794.74,-150 794.74,-162 794.74,-162 794.74,-168 788.74,-174 782.74,-174"/>
<text xml:space="preserve" text-anchor="middle" x="684.22" y="-151.32" font-family="Verdana" font-size="14.00">(*GuildError).WithOperation</text>
</a>
</g>
</g>
<!-- (*github.com/guild&#45;framework/guild&#45;core/pkg/providers/ora.Client).ChatCompletion&#45;&gt;(*github.com/guild&#45;framework/guild&#45;core/pkg/gerror.GuildError).WithOperation -->
<g id="edge6" class="edge">
<title>(*github.com/guild&#45;framework/guild&#45;core/pkg/providers/ora.Client).ChatCompletion&#45;&gt;(*github.com/guild&#45;framework/guild&#45;core/pkg/gerror.GuildError).WithOperation</title>
<g id="a_edge6"><a xlink:title="at client.go:128: calling [(*github.com/guild&#45;framework/guild&#45;core/pkg/gerror.GuildError).WithOperation]">
<path fill="none" stroke="saddlebrown" d="M469.92,-132.8C499.14,-135.98 531.44,-139.49 561.88,-142.8"/>
<polygon fill="saddlebrown" stroke="saddlebrown" points="561.17,-146.25 571.49,-143.85 561.93,-139.29 561.17,-146.25"/>
</a>
</g>
</g>
<!-- (*github.com/guild&#45;framework/guild&#45;core/pkg/gerror.GuildError).WithDetails -->
<g id="node10" class="node">
<title>(*github.com/guild&#45;framework/guild&#45;core/pkg/gerror.GuildError).WithDetails</title>
<g id="a_node10"><a xlink:title="(*github.com/guild&#45;framework/guild&#45;core/pkg/gerror.GuildError).WithDetails | defined in errors.go:147">
<path fill="moccasin" stroke="black" stroke-width="1.5" d="M771.87,-296C771.87,-296 596.58,-296 596.58,-296 590.58,-296 584.58,-290 584.58,-284 584.58,-284 584.58,-272 584.58,-272 584.58,-266 590.58,-260 596.58,-260 596.58,-260 771.87,-260 771.87,-260 777.87,-260 783.87,-266 783.87,-272 783.87,-272 783.87,-284 783.87,-284 783.87,-290 777.87,-296 771.87,-296"/>
<text xml:space="preserve" text-anchor="middle" x="684.22" y="-273.32" font-family="Verdana" font-size="14.00">(*GuildError).WithDetails</text>
</a>
</g>
</g>
<!-- (*github.com/guild&#45;framework/guild&#45;core/pkg/providers/ora.Client).ChatCompletion&#45;&gt;(*github.com/guild&#45;framework/guild&#45;core/pkg/gerror.GuildError).WithDetails -->
<g id="edge7" class="edge">
<title>(*github.com/guild&#45;framework/guild&#45;core/pkg/providers/ora.Client).ChatCompletion&#45;&gt;(*github.com/guild&#45;framework/guild&#45;core/pkg/gerror.GuildError).WithDetails</title>
<g id="a_edge7"><a xlink:title="at client.go:129: calling [(*github.com/guild&#45;framework/guild&#45;core/pkg/gerror.GuildError).WithDetails]">
<path fill="none" stroke="saddlebrown" d="M404.91,-140.71C430.37,-154.99 465.62,-175.6 495.08,-196 525.5,-217.06 526.88,-231.68 560.08,-248 565.77,-250.8 571.75,-253.35 577.86,-255.67"/>
<polygon fill="saddlebrown" stroke="saddlebrown" points="576.25,-258.81 586.84,-258.85 578.59,-252.21 576.25,-258.81"/>
</a>
</g>
</g>
<!-- (*github.com/guild&#45;framework/guild&#45;core/pkg/providers/ora.Client).Complete -->
<g id="node4" class="node">
<title>(*github.com/guild&#45;framework/guild&#45;core/pkg/providers/ora.Client).Complete</title>
<g id="a_node4"><a xlink:title="(*github.com/guild&#45;framework/guild&#45;core/pkg/providers/ora.Client).Complete | defined in client.go:273&#10;at client.go:281: calling [(*github.com/guild&#45;framework/guild&#45;core/pkg/providers/ora.Client).ChatCompletion]">
<path fill="lightblue" stroke="black" stroke-width="1.5" d="M159.04,-140C159.04,-140 28,-140 28,-140 22,-140 16,-134 16,-128 16,-128 16,-116 16,-116 16,-110 22,-104 28,-104 28,-104 159.04,-104 159.04,-104 165.04,-104 171.04,-110 171.04,-116 171.04,-116 171.04,-128 171.04,-128 171.04,-134 165.04,-140 159.04,-140"/>
<text xml:space="preserve" text-anchor="middle" x="93.52" y="-117.33" font-family="Verdana" font-size="14.00">(*Client).Complete</text>
</a>
</g>
</g>
<!-- (*github.com/guild&#45;framework/guild&#45;core/pkg/providers/ora.Client).Complete&#45;&gt;(*github.com/guild&#45;framework/guild&#45;core/pkg/providers/ora.Client).ChatCompletion -->
<g id="edge8" class="edge">
<title>(*github.com/guild&#45;framework/guild&#45;core/pkg/providers/ora.Client).Complete&#45;&gt;(*github.com/guild&#45;framework/guild&#45;core/pkg/providers/ora.Client).ChatCompletion</title>
<g id="a_edge8"><a xlink:title="at client.go:281: calling [(*github.com/guild&#45;framework/guild&#45;core/pkg/providers/ora.Client).ChatCompletion]">
<path fill="none" stroke="black" d="M171.58,-122C198.28,-122 228.75,-122 257.62,-122"/>
<polygon fill="black" stroke="black" points="257.51,-125.5 267.51,-122 257.51,-118.5 257.51,-125.5"/>
</a>
</g>
</g>
<!-- (*github.com/guild&#45;framework/guild&#45;core/pkg/providers/ora.Client).CreateEmbedding -->
<g id="node5" class="node">
<title>(*github.com/guild&#45;framework/guild&#45;core/pkg/providers/ora.Client).CreateEmbedding</title>
<g id="a_node5"><a xlink:title="(*github.com/guild&#45;framework/guild&#45;core/pkg/providers/ora.Client).CreateEmbedding | defined in client.go:167&#10;at client.go:170: calling [(*github.com/guild&#45;framework/guild&#45;core/pkg/gerror.GuildError).WithComponent]&#10;at client.go:172: calling [(*github.com/guild&#45;framework/guild&#45;core/pkg/gerror.GuildError).WithDetails]&#10;at client.go:173: calling [(*github.com/guild&#45;framework/guild&#45;core/pkg/gerror.GuildError).WithDetails]&#10;at client.go:169: calling [github.com/guild&#45;framework/guild&#45;core/pkg/gerror.New]&#10;at client.go:171: calling [(*github.com/guild&#45;framework/guild&#45;core/pkg/gerror.GuildError).WithOperation]">
<path fill="lightblue" stroke="black" stroke-width="1.5" d="M464.7,-244C464.7,-244 274.41,-244 274.41,-244 268.41,-244 262.41,-238 262.41,-232 262.41,-232 262.41,-220 262.41,-220 262.41,-214 268.41,-208 274.41,-208 274.41,-208 464.7,-208 464.7,-208 470.7,-208 476.7,-214 476.7,-220 476.7,-220 476.7,-232 476.7,-232 476.7,-238 470.7,-244 464.7,-244"/>
<text xml:space="preserve" text-anchor="middle" x="369.56" y="-221.32" font-family="Verdana" font-size="14.00">(*Client).CreateEmbedding</text>
</a>
</g>
</g>
<!-- (*github.com/guild&#45;framework/guild&#45;core/pkg/providers/ora.Client).CreateEmbedding&#45;&gt;(*github.com/guild&#45;framework/guild&#45;core/pkg/gerror.GuildError).WithComponent -->
<g id="edge3" class="edge">
<title>(*github.com/guild&#45;framework/guild&#45;core/pkg/providers/ora.Client).CreateEmbedding&#45;&gt;(*github.com/guild&#45;framework/guild&#45;core/pkg/gerror.GuildError).WithComponent</title>
<g id="a_edge3"><a xlink:title="at client.go:170: calling [(*github.com/guild&#45;framework/guild&#45;core/pkg/gerror.GuildError).WithComponent]">
<path fill="none" stroke="saddlebrown" d="M477.29,-222.93C502.56,-222.2 529.76,-221.42 555.85,-220.67"/>
<polygon fill="saddlebrown" stroke="saddlebrown" points="555.94,-224.17 565.84,-220.38 555.74,-217.17 555.94,-224.17"/>
</a>
</g>
</g>
<!-- (*github.com/guild&#45;framework/guild&#45;core/pkg/providers/ora.Client).CreateEmbedding&#45;&gt;(*github.com/guild&#45;framework/guild&#45;core/pkg/gerror.GuildError).WithOperation -->
<g id="edge13" class="edge">
<title>(*github.com/guild&#45;framework/guild&#45;core/pkg/providers/ora.Client).CreateEmbedding&#45;&gt;(*github.com/guild&#45;framework/guild&#45;core/pkg/gerror.GuildError).WithOperation</title>
<g id="a_edge13"><a xlink:title="at client.go:171: calling [(*github.com/guild&#45;framework/guild&#45;core/pkg/gerror.GuildError).WithOperation]">
<path fill="none" stroke="saddlebrown" d="M453.94,-207.33C495.38,-198.06 545.63,-186.81 588.52,-177.2"/>
<polygon fill="saddlebrown" stroke="saddlebrown" points="589.07,-180.67 598.06,-175.07 587.54,-173.84 589.07,-180.67"/>
</a>
</g>
</g>
<!-- (*github.com/guild&#45;framework/guild&#45;core/pkg/providers/ora.Client).CreateEmbedding&#45;&gt;(*github.com/guild&#45;framework/guild&#45;core/pkg/gerror.GuildError).WithDetails -->
<g id="edge9" class="edge">
<title>(*github.com/guild&#45;framework/guild&#45;core/pkg/providers/ora.Client).CreateEmbedding&#45;&gt;(*github.com/guild&#45;framework/guild&#45;core/pkg/gerror.GuildError).WithDetails</title>
<g id="a_edge9"><a xlink:title="at client.go:172: calling [(*github.com/guild&#45;framework/guild&#45;core/pkg/gerror.GuildError).WithDetails]&#10;at client.go:173: calling [(*github.com/guild&#45;framework/guild&#45;core/pkg/gerror.GuildError).WithDetails]">
<path fill="none" stroke="saddlebrown" d="M440.06,-244.71C468.14,-251.67 500.98,-259.08 531.08,-264 544.51,-266.2 558.66,-268.07 572.71,-269.67"/>
<polygon fill="saddlebrown" stroke="saddlebrown" points="572.12,-273.13 582.44,-270.73 572.87,-266.17 572.12,-273.13"/>
</a>
</g>
</g>
<!-- github.com/guild&#45;framework/guild&#45;core/pkg/gerror.New -->
<g id="node11" class="node">
<title>github.com/guild&#45;framework/guild&#45;core/pkg/gerror.New</title>
<g id="a_node11"><a xlink:title="github.com/guild&#45;framework/guild&#45;core/pkg/gerror.New | defined in errors.go:190">
<path fill="moccasin" stroke="black" stroke-width="1.5" d="M699.22,-357C699.22,-357 669.22,-357 669.22,-357 663.22,-357 657.22,-351 657.22,-345 657.22,-345 657.22,-333 657.22,-333 657.22,-327 663.22,-321 669.22,-321 669.22,-321 699.22,-321 699.22,-321 705.22,-321 711.22,-327 711.22,-333 711.22,-333 711.22,-345 711.22,-345 711.22,-351 705.22,-357 699.22,-357"/>
<text xml:space="preserve" text-anchor="middle" x="684.22" y="-334.32" font-family="Verdana" font-size="14.00">New</text>
</a>
</g>
</g>
<!-- (*github.com/guild&#45;framework/guild&#45;core/pkg/providers/ora.Client).CreateEmbedding&#45;&gt;github.com/guild&#45;framework/guild&#45;core/pkg/gerror.New -->
<g id="edge12" class="edge">
<title>(*github.com/guild&#45;framework/guild&#45;core/pkg/providers/ora.Client).CreateEmbedding&#45;&gt;github.com/guild&#45;framework/guild&#45;core/pkg/gerror.New</title>
<g id="a_edge12"><a xlink:title="at client.go:169: calling [github.com/guild&#45;framework/guild&#45;core/pkg/gerror.New]">
<path fill="none" stroke="saddlebrown" d="M407.91,-244.67C445.59,-262.95 505.8,-290.66 560.08,-309 588.33,-318.55 621.19,-326.39 645.85,-331.67"/>
<polygon fill="saddlebrown" stroke="saddlebrown" points="644.92,-335.05 655.42,-333.66 646.35,-328.19 644.92,-335.05"/>
</a>
</g>
</g>
<!-- (*github.com/guild&#45;framework/guild&#45;core/pkg/providers/ora.Client).StreamChatCompletion -->
<g id="node6" class="node">
<title>(*github.com/guild&#45;framework/guild&#45;core/pkg/providers/ora.Client).StreamChatCompletion</title>
<g id="a_node6"><a xlink:title="(*github.com/guild&#45;framework/guild&#45;core/pkg/providers/ora.Client).StreamChatCompletion | defined in client.go:158&#10;at client.go:162: calling [(*github.com/guild&#45;framework/guild&#45;core/pkg/gerror.GuildError).WithOperation]&#10;at client.go:160: calling [github.com/guild&#45;framework/guild&#45;core/pkg/gerror.New]&#10;at client.go:161: calling [(*github.com/guild&#45;framework/guild&#45;core/pkg/gerror.GuildError).WithComponent]&#10;at client.go:163: calling [(*github.com/guild&#45;framework/guild&#45;core/pkg/gerror.GuildError).WithDetails]">
<path fill="lightblue" stroke="black" stroke-width="1.5" d="M483.08,-356C483.08,-356 256.04,-356 256.04,-356 250.04,-356 244.04,-350 244.04,-344 244.04,-344 244.04,-332 244.04,-332 244.04,-326 250.04,-320 256.04,-320 256.04,-320 483.08,-320 483.08,-320 489.08,-320 495.08,-326 495.08,-332 495.08,-332 495.08,-344 495.08,-344 495.08,-350 489.08,-356 483.08,-356"/>
<text xml:space="preserve" text-anchor="middle" x="369.56" y="-333.32" font-family="Verdana" font-size="14.00">(*Client).StreamChatCompletion</text>
</a>
</g>
</g>
<!-- (*github.com/guild&#45;framework/guild&#45;core/pkg/providers/ora.Client).StreamChatCompletion&#45;&gt;(*github.com/guild&#45;framework/guild&#45;core/pkg/gerror.GuildError).WithComponent -->
<g id="edge14" class="edge">
<title>(*github.com/guild&#45;framework/guild&#45;core/pkg/providers/ora.Client).StreamChatCompletion&#45;&gt;(*github.com/guild&#45;framework/guild&#45;core/pkg/gerror.GuildError).WithComponent</title>
<g id="a_edge14"><a xlink:title="at client.go:161: calling [(*github.com/guild&#45;framework/guild&#45;core/pkg/gerror.GuildError).WithComponent]">
<path fill="none" stroke="saddlebrown" d="M404.62,-319.31C441.9,-299.46 503.86,-268.2 560.08,-248 569.2,-244.72 578.82,-241.66 588.5,-238.83"/>
<polygon fill="saddlebrown" stroke="saddlebrown" points="589.3,-242.24 597.97,-236.14 587.39,-235.5 589.3,-242.24"/>
</a>
</g>
</g>
<!-- (*github.com/guild&#45;framework/guild&#45;core/pkg/providers/ora.Client).StreamChatCompletion&#45;&gt;(*github.com/guild&#45;framework/guild&#45;core/pkg/gerror.GuildError).WithOperation -->
<g id="edge4" class="edge">
<title>(*github.com/guild&#45;framework/guild&#45;core/pkg/providers/ora.Client).StreamChatCompletion&#45;&gt;(*github.com/guild&#45;framework/guild&#45;core/pkg/gerror.GuildError).WithOperation</title>
<g id="a_edge4"><a xlink:title="at client.go:162: calling [(*github.com/guild&#45;framework/guild&#45;core/pkg/gerror.GuildError).WithOperation]">
<path fill="none" stroke="saddlebrown" d="M404.08,-319.26C430.07,-304.02 466.37,-281.16 495.08,-257 527.56,-229.66 523.55,-208.63 560.08,-187 565.05,-184.06 570.29,-181.39 575.7,-178.98"/>
<polygon fill="saddlebrown" stroke="saddlebrown" points="576.95,-182.25 584.88,-175.21 574.3,-175.77 576.95,-182.25"/>
</a>
</g>
</g>
<!-- (*github.com/guild&#45;framework/guild&#45;core/pkg/providers/ora.Client).StreamChatCompletion&#45;&gt;(*github.com/guild&#45;framework/guild&#45;core/pkg/gerror.GuildError).WithDetails -->
<g id="edge15" class="edge">
<title>(*github.com/guild&#45;framework/guild&#45;core/pkg/providers/ora.Client).StreamChatCompletion&#45;&gt;(*github.com/guild&#45;framework/guild&#45;core/pkg/gerror.GuildError).WithDetails</title>
<g id="a_edge15"><a xlink:title="at client.go:163: calling [(*github.com/guild&#45;framework/guild&#45;core/pkg/gerror.GuildError).WithDetails]">
<path fill="none" stroke="saddlebrown" d="M495.73,-324.87C508.07,-322.87 520.35,-320.59 532.08,-318 544.84,-315.18 547.51,-312.6 560.08,-309 571.24,-305.8 583.03,-302.61 594.7,-299.56"/>
<polygon fill="saddlebrown" stroke="saddlebrown" points="595.57,-302.95 604.37,-297.05 593.81,-296.17 595.57,-302.95"/>
</a>
</g>
</g>
<!-- (*github.com/guild&#45;framework/guild&#45;core/pkg/providers/ora.Client).StreamChatCompletion&#45;&gt;github.com/guild&#45;framework/guild&#45;core/pkg/gerror.New -->
<g id="edge10" class="edge">
<title>(*github.com/guild&#45;framework/guild&#45;core/pkg/providers/ora.Client).StreamChatCompletion&#45;&gt;github.com/guild&#45;framework/guild&#45;core/pkg/gerror.New</title>
<g id="a_edge10"><a xlink:title="at client.go:160: calling [github.com/guild&#45;framework/guild&#45;core/pkg/gerror.New]">
<path fill="none" stroke="saddlebrown" d="M419.99,-356.72C451.75,-366.68 494.04,-376.1 532.08,-372 571.27,-367.77 615.2,-357.55 645.55,-349.59"/>
<polygon fill="saddlebrown" stroke="saddlebrown" points="646.26,-353.02 655.02,-347.06 644.46,-346.26 646.26,-353.02"/>
</a>
</g>
</g>
</g>
</svg>
