<?xml version="1.0" encoding="UTF-8" standalone="no"?>
<!DOCTYPE svg PUBLIC "-//W3C//DTD SVG 1.1//EN"
 "http://www.w3.org/Graphics/SVG/1.1/DTD/svg11.dtd">
<!-- Generated by graphviz version 14.1.1 (20251213.1925)
 -->
<!-- Title: gocallvis Pages: 1 -->
<svg width="802pt" height="604pt"
 viewBox="0.00 0.00 802.00 604.00" xmlns="http://www.w3.org/2000/svg" xmlns:xlink="http://www.w3.org/1999/xlink">
<g id="graph0" class="graph" transform="scale(1 1) rotate(0) translate(0 604)">
<title>gocallvis</title>
<polygon fill="lightgray" stroke="none" points="0,0 0,-604 801.87,-604 801.87,0 0,0"/>
<g id="clust1" class="cluster">
<title>cluster_focus</title>
<polygon fill="#e6ecfa" stroke="black" stroke-width="0.5" points="8,-8 8,-596 793.87,-596 793.87,-8 8,-8"/>
<text xml:space="preserve" text-anchor="middle" x="400.93" y="-574.9" font-family="Arial" font-size="18.00">global</text>
</g>
<g id="clust2" class="cluster">
<title>cluster_github.com/guild&#45;framework/guild&#45;core/pkg/gerror</title>
<g id="a_clust2"><a xlink:href="/?f=github.com/guild-framework/guild-core/pkg/gerror" xlink:title="package: github.com/guild&#45;framework/guild&#45;core/pkg/gerror">
<polygon fill="lightyellow" stroke="black" stroke-width="0.8" points="537.58,-69 537.58,-393 785.87,-393 785.87,-69 537.58,-69"/>
<text xml:space="preserve" text-anchor="middle" x="661.72" y="-373.8" font-family="Tahoma bold" font-size="16.00">gerror</text>
</a>
</g>
</g>
<!-- github.com/guild&#45;framework/guild&#45;core/pkg/project/global.InitializeGlobal -->
<g id="node1" class="node">
<title>github.com/guild&#45;framework/guild&#45;core/pkg/project/global.InitializeGlobal</title>
<g id="a_node1"><a xlink:title="github.com/guild&#45;framework/guild&#45;core/pkg/project/global.InitializeGlobal | defined in global.go:36&#10;at global.go:82: calling [github.com/guild&#45;framework/guild&#45;core/pkg/project/global.createTemplates]&#10;at global.go:68: calling [github.com/guild&#45;framework/guild&#45;core/pkg/project/global.createDefaultGlobalConfig]&#10;at global.go:37: calling [github.com/guild&#45;framework/guild&#45;core/pkg/project/global.GlobalGuildDir]&#10;at global.go:75: calling [github.com/guild&#45;framework/guild&#45;core/pkg/project/global.createProviderConfigs]&#10;at global.go:51: calling [github.com/guild&#45;framework/guild&#45;core/pkg/gerror.Wrap]&#10;at global.go:69: calling [github.com/guild&#45;framework/guild&#45;core/pkg/gerror.Wrap]&#10;at global.go:76: calling [github.com/guild&#45;framework/guild&#45;core/pkg/gerror.Wrap]&#10;at global.go:83: calling [github.com/guild&#45;framework/guild&#45;core/pkg/gerror.Wrap]&#10;at global.go:53: calling [(*github.com/guild&#45;framework/guild&#45;core/pkg/gerror.GuildError).WithOperation]&#10;at global.go:63: calling [(*github.com/guild&#45;framework/guild&#45;core/pkg/gerror.GuildError).WithOperation]&#10;at global.go:71: calling [(*github.com/guild&#45;framework/guild&#45;core/pkg/gerror.GuildError).WithOperation]&#10;at global.go:78: calling [(*github.com/guild&#45;framework/guild&#45;core/pkg/gerror.GuildError).WithOperation]&#10;at global.go:85: calling [(*github.com/guild&#45;framework/guild&#45;core/pkg/gerror.GuildError).WithOperation]&#10;at global.go:54: calling [(*github.com/guild&#45;framework/guild&#45;core/pkg/gerror.GuildError).WithDetails]&#10;at global.go:52: calling [(*github.com/guild&#45;framework/guild&#45;core/pkg/gerror.GuildError).WithComponent]&#10;at global.go:62: calling [(*github.com/guild&#45;framework/guild&#45;core/pkg/gerror.GuildError).WithComponent]&#10;at global.go:70: calling [(*github.com/guild&#45;framework/guild&#45;core/pkg/gerror.GuildError).WithComponent]&#10;at global.go:77: calling [(*github.com/guild&#45;framework/guild&#45;core/pkg/gerror.GuildError).WithComponent]&#10;at global.go:84: calling [(*github.com/guild&#45;framework/guild&#45;core/pkg/gerror.GuildError).WithComponent]&#10;at global.go:61: calling [github.com/guild&#45;framework/guild&#45;core/pkg/gerror.Wrapf]">
<path fill="lightblue" stroke="black" stroke-width="1.5" d="M423.45,-339C423.45,-339 321.66,-339 321.66,-339 315.66,-339 309.66,-333 309.66,-327 309.66,-327 309.66,-315 309.66,-315 309.66,-309 315.66,-303 321.66,-303 321.66,-303 423.45,-303 423.45,-303 429.45,-303 435.45,-309 435.45,-315 435.45,-315 435.45,-327 435.45,-327 435.45,-333 429.45,-339 423.45,-339"/>
<text xml:space="preserve" text-anchor="middle" x="372.56" y="-316.32" font-family="Verdana" font-size="14.00">InitializeGlobal</text>
</a>
</g>
</g>
<!-- github.com/guild&#45;framework/guild&#45;core/pkg/project/global.GlobalGuildDir -->
<g id="node2" class="node">
<title>github.com/guild&#45;framework/guild&#45;core/pkg/project/global.GlobalGuildDir</title>
<g id="a_node2"><a xlink:title="github.com/guild&#45;framework/guild&#45;core/pkg/project/global.GlobalGuildDir | defined in global.go:26">
<path fill="lightblue" stroke="black" stroke-width="1.5" d="M711.12,-559C711.12,-559 612.33,-559 612.33,-559 606.33,-559 600.33,-553 600.33,-547 600.33,-547 600.33,-535 600.33,-535 600.33,-529 606.33,-523 612.33,-523 612.33,-523 711.12,-523 711.12,-523 717.12,-523 723.12,-529 723.12,-535 723.12,-535 723.12,-547 723.12,-547 723.12,-553 717.12,-559 711.12,-559"/>
<text xml:space="preserve" text-anchor="middle" x="661.72" y="-536.33" font-family="Verdana" font-size="14.00">GlobalGuildDir</text>
</a>
</g>
</g>
<!-- github.com/guild&#45;framework/guild&#45;core/pkg/project/global.InitializeGlobal&#45;&gt;github.com/guild&#45;framework/guild&#45;core/pkg/project/global.GlobalGuildDir -->
<g id="edge8" class="edge">
<title>github.com/guild&#45;framework/guild&#45;core/pkg/project/global.InitializeGlobal&#45;&gt;github.com/guild&#45;framework/guild&#45;core/pkg/project/global.GlobalGuildDir</title>
<g id="a_edge8"><a xlink:title="at global.go:37: calling [github.com/guild&#45;framework/guild&#45;core/pkg/project/global.GlobalGuildDir]">
<path fill="none" stroke="black" d="M436.1,-338.39C449.32,-344.26 462.35,-351.96 472.58,-362 524.15,-412.61 482.28,-464.5 537.58,-511 551.88,-523.02 570.23,-530.37 588.38,-534.82"/>
<polygon fill="black" stroke="black" points="587.62,-538.24 598.14,-536.92 589.09,-531.39 587.62,-538.24"/>
</a>
</g>
</g>
<!-- github.com/guild&#45;framework/guild&#45;core/pkg/project/global.createDefaultGlobalConfig -->
<g id="node3" class="node">
<title>github.com/guild&#45;framework/guild&#45;core/pkg/project/global.createDefaultGlobalConfig</title>
<g id="a_node3"><a xlink:title="github.com/guild&#45;framework/guild&#45;core/pkg/project/global.createDefaultGlobalConfig | defined in global.go:92">
<path fill="lightblue" stroke="black" stroke-width="0.5" d="M752.37,-52C752.37,-52 571.08,-52 571.08,-52 565.08,-52 559.08,-46 559.08,-40 559.08,-40 559.08,-28 559.08,-28 559.08,-22 565.08,-16 571.08,-16 571.08,-16 752.37,-16 752.37,-16 758.37,-16 764.37,-22 764.37,-28 764.37,-28 764.37,-40 764.37,-40 764.37,-46 758.37,-52 752.37,-52"/>
<text xml:space="preserve" text-anchor="middle" x="661.72" y="-29.32" font-family="Verdana" font-size="14.00">createDefaultGlobalConfig</text>
</a>
</g>
</g>
<!-- github.com/guild&#45;framework/guild&#45;core/pkg/project/global.InitializeGlobal&#45;&gt;github.com/guild&#45;framework/guild&#45;core/pkg/project/global.createDefaultGlobalConfig -->
<g id="edge6" class="edge">
<title>github.com/guild&#45;framework/guild&#45;core/pkg/project/global.InitializeGlobal&#45;&gt;github.com/guild&#45;framework/guild&#45;core/pkg/project/global.createDefaultGlobalConfig</title>
<g id="a_edge6"><a xlink:title="at global.go:68: calling [github.com/guild&#45;framework/guild&#45;core/pkg/project/global.createDefaultGlobalConfig]">
<path fill="none" stroke="black" d="M385.48,-302.41C404.12,-273.34 441.26,-215.33 472.58,-166 501.6,-120.3 493.51,-94.43 537.58,-63 541.2,-60.42 545.01,-58.07 548.97,-55.92"/>
<polygon fill="black" stroke="black" points="550.26,-59.18 557.72,-51.66 547.2,-52.89 550.26,-59.18"/>
</a>
</g>
</g>
<!-- github.com/guild&#45;framework/guild&#45;core/pkg/project/global.createProviderConfigs -->
<g id="node4" class="node">
<title>github.com/guild&#45;framework/guild&#45;core/pkg/project/global.createProviderConfigs</title>
<g id="a_node4"><a xlink:title="github.com/guild&#45;framework/guild&#45;core/pkg/project/global.createProviderConfigs | defined in global.go:143">
<path fill="lightblue" stroke="black" stroke-width="0.5" d="M738.12,-437C738.12,-437 585.33,-437 585.33,-437 579.33,-437 573.33,-431 573.33,-425 573.33,-425 573.33,-413 573.33,-413 573.33,-407 579.33,-401 585.33,-401 585.33,-401 738.12,-401 738.12,-401 744.12,-401 750.12,-407 750.12,-413 750.12,-413 750.12,-425 750.12,-425 750.12,-431 744.12,-437 738.12,-437"/>
<text xml:space="preserve" text-anchor="middle" x="661.72" y="-414.32" font-family="Verdana" font-size="14.00">createProviderConfigs</text>
</a>
</g>
</g>
<!-- github.com/guild&#45;framework/guild&#45;core/pkg/project/global.InitializeGlobal&#45;&gt;github.com/guild&#45;framework/guild&#45;core/pkg/project/global.createProviderConfigs -->
<g id="edge9" class="edge">
<title>github.com/guild&#45;framework/guild&#45;core/pkg/project/global.InitializeGlobal&#45;&gt;github.com/guild&#45;framework/guild&#45;core/pkg/project/global.createProviderConfigs</title>
<g id="a_edge9"><a xlink:title="at global.go:75: calling [github.com/guild&#45;framework/guild&#45;core/pkg/project/global.createProviderConfigs]">
<path fill="none" stroke="black" d="M421.58,-339.74C437.92,-346.42 456.19,-354.22 472.58,-362 502.22,-376.07 506.6,-386.2 537.58,-397 545.49,-399.76 553.82,-402.18 562.25,-404.32"/>
<polygon fill="black" stroke="black" points="561.37,-407.7 571.91,-406.6 562.98,-400.89 561.37,-407.7"/>
</a>
</g>
</g>
<!-- github.com/guild&#45;framework/guild&#45;core/pkg/project/global.createTemplates -->
<g id="node5" class="node">
<title>github.com/guild&#45;framework/guild&#45;core/pkg/project/global.createTemplates</title>
<g id="a_node5"><a xlink:title="github.com/guild&#45;framework/guild&#45;core/pkg/project/global.createTemplates | defined in global.go:219">
<path fill="lightblue" stroke="black" stroke-width="0.5" d="M717.87,-498C717.87,-498 605.58,-498 605.58,-498 599.58,-498 593.58,-492 593.58,-486 593.58,-486 593.58,-474 593.58,-474 593.58,-468 599.58,-462 605.58,-462 605.58,-462 717.87,-462 717.87,-462 723.87,-462 729.87,-468 729.87,-474 729.87,-474 729.87,-486 729.87,-486 729.87,-492 723.87,-498 717.87,-498"/>
<text xml:space="preserve" text-anchor="middle" x="661.72" y="-475.32" font-family="Verdana" font-size="14.00">createTemplates</text>
</a>
</g>
</g>
<!-- github.com/guild&#45;framework/guild&#45;core/pkg/project/global.InitializeGlobal&#45;&gt;github.com/guild&#45;framework/guild&#45;core/pkg/project/global.createTemplates -->
<g id="edge1" class="edge">
<title>github.com/guild&#45;framework/guild&#45;core/pkg/project/global.InitializeGlobal&#45;&gt;github.com/guild&#45;framework/guild&#45;core/pkg/project/global.createTemplates</title>
<g id="a_edge1"><a xlink:title="at global.go:82: calling [github.com/guild&#45;framework/guild&#45;core/pkg/project/global.createTemplates]">
<path fill="none" stroke="black" d="M433.5,-339.72C447.13,-345.58 461,-352.95 472.58,-362 494.37,-379.02 493.16,-389.76 509.58,-412 522.04,-428.88 520.12,-438.37 537.58,-450 550.97,-458.92 566.76,-465.19 582.49,-469.6"/>
<polygon fill="black" stroke="black" points="581.31,-472.91 591.87,-471.99 583.04,-466.13 581.31,-472.91"/>
</a>
</g>
</g>
<!-- github.com/guild&#45;framework/guild&#45;core/pkg/gerror.Wrap -->
<g id="node11" class="node">
<title>github.com/guild&#45;framework/guild&#45;core/pkg/gerror.Wrap</title>
<g id="a_node11"><a xlink:title="github.com/guild&#45;framework/guild&#45;core/pkg/gerror.Wrap | defined in errors.go:223">
<path fill="moccasin" stroke="black" stroke-width="1.5" d="M679.62,-113C679.62,-113 643.83,-113 643.83,-113 637.83,-113 631.83,-107 631.83,-101 631.83,-101 631.83,-89 631.83,-89 631.83,-83 637.83,-77 643.83,-77 643.83,-77 679.62,-77 679.62,-77 685.62,-77 691.62,-83 691.62,-89 691.62,-89 691.62,-101 691.62,-101 691.62,-107 685.62,-113 679.62,-113"/>
<text xml:space="preserve" text-anchor="middle" x="661.72" y="-90.33" font-family="Verdana" font-size="14.00">Wrap</text>
</a>
</g>
</g>
<!-- github.com/guild&#45;framework/guild&#45;core/pkg/project/global.InitializeGlobal&#45;&gt;github.com/guild&#45;framework/guild&#45;core/pkg/gerror.Wrap -->
<g id="edge11" class="edge">
<title>github.com/guild&#45;framework/guild&#45;core/pkg/project/global.InitializeGlobal&#45;&gt;github.com/guild&#45;framework/guild&#45;core/pkg/gerror.Wrap</title>
<g id="a_edge11"><a xlink:title="at global.go:51: calling [github.com/guild&#45;framework/guild&#45;core/pkg/gerror.Wrap]&#10;at global.go:69: calling [github.com/guild&#45;framework/guild&#45;core/pkg/gerror.Wrap]&#10;at global.go:76: calling [github.com/guild&#45;framework/guild&#45;core/pkg/gerror.Wrap]&#10;at global.go:83: calling [github.com/guild&#45;framework/guild&#45;core/pkg/gerror.Wrap]">
<path fill="none" stroke="saddlebrown" d="M405.78,-302.26C436.54,-282.84 482.14,-249.76 509.58,-210 531.93,-177.61 508.73,-152.76 537.58,-126 559.69,-105.5 593.32,-98.05 619.85,-95.57"/>
<polygon fill="saddlebrown" stroke="saddlebrown" points="619.87,-99.07 629.6,-94.87 619.37,-92.09 619.87,-99.07"/>
</a>
</g>
</g>
<!-- (*github.com/guild&#45;framework/guild&#45;core/pkg/gerror.GuildError).WithComponent -->
<g id="node12" class="node">
<title>(*github.com/guild&#45;framework/guild&#45;core/pkg/gerror.GuildError).WithComponent</title>
<g id="a_node12"><a xlink:title="(*github.com/guild&#45;framework/guild&#45;core/pkg/gerror.GuildError).WithComponent | defined in errors.go:156">
<path fill="moccasin" stroke="black" stroke-width="1.5" d="M765.87,-235C765.87,-235 557.58,-235 557.58,-235 551.58,-235 545.58,-229 545.58,-223 545.58,-223 545.58,-211 545.58,-211 545.58,-205 551.58,-199 557.58,-199 557.58,-199 765.87,-199 765.87,-199 771.87,-199 777.87,-205 777.87,-211 777.87,-211 777.87,-223 777.87,-223 777.87,-229 771.87,-235 765.87,-235"/>
<text xml:space="preserve" text-anchor="middle" x="661.72" y="-212.32" font-family="Verdana" font-size="14.00">(*GuildError).WithComponent</text>
</a>
</g>
</g>
<!-- github.com/guild&#45;framework/guild&#45;core/pkg/project/global.InitializeGlobal&#45;&gt;(*github.com/guild&#45;framework/guild&#45;core/pkg/gerror.GuildError).WithComponent -->
<g id="edge17" class="edge">
<title>github.com/guild&#45;framework/guild&#45;core/pkg/project/global.InitializeGlobal&#45;&gt;(*github.com/guild&#45;framework/guild&#45;core/pkg/gerror.GuildError).WithComponent</title>
<g id="a_edge17"><a xlink:title="at global.go:52: calling [(*github.com/guild&#45;framework/guild&#45;core/pkg/gerror.GuildError).WithComponent]&#10;at global.go:62: calling [(*github.com/guild&#45;framework/guild&#45;core/pkg/gerror.GuildError).WithComponent]&#10;at global.go:70: calling [(*github.com/guild&#45;framework/guild&#45;core/pkg/gerror.GuildError).WithComponent]&#10;at global.go:77: calling [(*github.com/guild&#45;framework/guild&#45;core/pkg/gerror.GuildError).WithComponent]&#10;at global.go:84: calling [(*github.com/guild&#45;framework/guild&#45;core/pkg/gerror.GuildError).WithComponent]">
<path fill="none" stroke="saddlebrown" d="M422.04,-302.36C448.3,-291.85 481.1,-278.04 509.58,-264 522.44,-257.66 524.28,-253.35 537.58,-248 545.79,-244.69 554.46,-241.66 563.24,-238.9"/>
<polygon fill="saddlebrown" stroke="saddlebrown" points="563.96,-242.33 572.53,-236.1 561.94,-235.63 563.96,-242.33"/>
</a>
</g>
</g>
<!-- (*github.com/guild&#45;framework/guild&#45;core/pkg/gerror.GuildError).WithOperation -->
<g id="node13" class="node">
<title>(*github.com/guild&#45;framework/guild&#45;core/pkg/gerror.GuildError).WithOperation</title>
<g id="a_node13"><a xlink:title="(*github.com/guild&#45;framework/guild&#45;core/pkg/gerror.GuildError).WithOperation | defined in errors.go:162">
<path fill="moccasin" stroke="black" stroke-width="1.5" d="M760.24,-174C760.24,-174 563.2,-174 563.2,-174 557.2,-174 551.2,-168 551.2,-162 551.2,-162 551.2,-150 551.2,-150 551.2,-144 557.2,-138 563.2,-138 563.2,-138 760.24,-138 760.24,-138 766.24,-138 772.24,-144 772.24,-150 772.24,-150 772.24,-162 772.24,-162 772.24,-168 766.24,-174 760.24,-174"/>
<text xml:space="preserve" text-anchor="middle" x="661.72" y="-151.32" font-family="Verdana" font-size="14.00">(*GuildError).WithOperation</text>
</a>
</g>
</g>
<!-- github.com/guild&#45;framework/guild&#45;core/pkg/project/global.InitializeGlobal&#45;&gt;(*github.com/guild&#45;framework/guild&#45;core/pkg/gerror.GuildError).WithOperation -->
<g id="edge12" class="edge">
<title>github.com/guild&#45;framework/guild&#45;core/pkg/project/global.InitializeGlobal&#45;&gt;(*github.com/guild&#45;framework/guild&#45;core/pkg/gerror.GuildError).WithOperation</title>
<g id="a_edge12"><a xlink:title="at global.go:53: calling [(*github.com/guild&#45;framework/guild&#45;core/pkg/gerror.GuildError).WithOperation]&#10;at global.go:63: calling [(*github.com/guild&#45;framework/guild&#45;core/pkg/gerror.GuildError).WithOperation]&#10;at global.go:71: calling [(*github.com/guild&#45;framework/guild&#45;core/pkg/gerror.GuildError).WithOperation]&#10;at global.go:78: calling [(*github.com/guild&#45;framework/guild&#45;core/pkg/gerror.GuildError).WithOperation]&#10;at global.go:85: calling [(*github.com/guild&#45;framework/guild&#45;core/pkg/gerror.GuildError).WithOperation]">
<path fill="none" stroke="saddlebrown" d="M415.16,-302.33C444.27,-287.71 482.6,-265.16 509.58,-237 527.2,-218.61 517.36,-202.48 537.58,-187 540.93,-184.44 544.46,-182.08 548.14,-179.92"/>
<polygon fill="saddlebrown" stroke="saddlebrown" points="549.61,-183.11 556.82,-175.35 546.34,-176.91 549.61,-183.11"/>
</a>
</g>
</g>
<!-- (*github.com/guild&#45;framework/guild&#45;core/pkg/gerror.GuildError).WithDetails -->
<g id="node14" class="node">
<title>(*github.com/guild&#45;framework/guild&#45;core/pkg/gerror.GuildError).WithDetails</title>
<g id="a_node14"><a xlink:title="(*github.com/guild&#45;framework/guild&#45;core/pkg/gerror.GuildError).WithDetails | defined in errors.go:147">
<path fill="moccasin" stroke="black" stroke-width="1.5" d="M749.37,-296C749.37,-296 574.08,-296 574.08,-296 568.08,-296 562.08,-290 562.08,-284 562.08,-284 562.08,-272 562.08,-272 562.08,-266 568.08,-260 574.08,-260 574.08,-260 749.37,-260 749.37,-260 755.37,-260 761.37,-266 761.37,-272 761.37,-272 761.37,-284 761.37,-284 761.37,-290 755.37,-296 749.37,-296"/>
<text xml:space="preserve" text-anchor="middle" x="661.72" y="-273.32" font-family="Verdana" font-size="14.00">(*GuildError).WithDetails</text>
</a>
</g>
</g>
<!-- github.com/guild&#45;framework/guild&#45;core/pkg/project/global.InitializeGlobal&#45;&gt;(*github.com/guild&#45;framework/guild&#45;core/pkg/gerror.GuildError).WithDetails -->
<g id="edge13" class="edge">
<title>github.com/guild&#45;framework/guild&#45;core/pkg/project/global.InitializeGlobal&#45;&gt;(*github.com/guild&#45;framework/guild&#45;core/pkg/gerror.GuildError).WithDetails</title>
<g id="a_edge13"><a xlink:title="at global.go:54: calling [(*github.com/guild&#45;framework/guild&#45;core/pkg/gerror.GuildError).WithDetails]">
<path fill="none" stroke="saddlebrown" d="M435.87,-311.67C469.28,-306.67 511.43,-300.36 550.19,-294.55"/>
<polygon fill="saddlebrown" stroke="saddlebrown" points="550.69,-298.02 560.06,-293.07 549.65,-291.09 550.69,-298.02"/>
</a>
</g>
</g>
<!-- github.com/guild&#45;framework/guild&#45;core/pkg/gerror.Wrapf -->
<g id="node15" class="node">
<title>github.com/guild&#45;framework/guild&#45;core/pkg/gerror.Wrapf</title>
<g id="a_node15"><a xlink:title="github.com/guild&#45;framework/guild&#45;core/pkg/gerror.Wrapf | defined in errors.go:245">
<path fill="moccasin" stroke="black" stroke-width="1.5" d="M682.24,-357C682.24,-357 641.2,-357 641.2,-357 635.2,-357 629.2,-351 629.2,-345 629.2,-345 629.2,-333 629.2,-333 629.2,-327 635.2,-321 641.2,-321 641.2,-321 682.24,-321 682.24,-321 688.24,-321 694.24,-327 694.24,-333 694.24,-333 694.24,-345 694.24,-345 694.24,-351 688.24,-357 682.24,-357"/>
<text xml:space="preserve" text-anchor="middle" x="661.72" y="-334.32" font-family="Verdana" font-size="14.00">Wrapf</text>
</a>
</g>
</g>
<!-- github.com/guild&#45;framework/guild&#45;core/pkg/project/global.InitializeGlobal&#45;&gt;github.com/guild&#45;framework/guild&#45;core/pkg/gerror.Wrapf -->
<g id="edge18" class="edge">
<title>github.com/guild&#45;framework/guild&#45;core/pkg/project/global.InitializeGlobal&#45;&gt;github.com/guild&#45;framework/guild&#45;core/pkg/gerror.Wrapf</title>
<g id="a_edge18"><a xlink:title="at global.go:61: calling [github.com/guild&#45;framework/guild&#45;core/pkg/gerror.Wrapf]">
<path fill="none" stroke="saddlebrown" d="M435.87,-324.91C490.73,-328.34 569.2,-333.26 617.45,-336.29"/>
<polygon fill="saddlebrown" stroke="saddlebrown" points="617.03,-339.77 627.23,-336.9 617.47,-332.78 617.03,-339.77"/>
</a>
</g>
</g>
<!-- github.com/guild&#45;framework/guild&#45;core/pkg/project/global.GlobalTemplatePath -->
<g id="node6" class="node">
<title>github.com/guild&#45;framework/guild&#45;core/pkg/project/global.GlobalTemplatePath</title>
<g id="a_node6"><a xlink:title="github.com/guild&#45;framework/guild&#45;core/pkg/project/global.GlobalTemplatePath | defined in global.go:379&#10;at global.go:380: calling [github.com/guild&#45;framework/guild&#45;core/pkg/project/global.GlobalGuildDir]">
<path fill="lightblue" stroke="black" stroke-width="1.5" d="M441.08,-471C441.08,-471 304.04,-471 304.04,-471 298.04,-471 292.04,-465 292.04,-459 292.04,-459 292.04,-447 292.04,-447 292.04,-441 298.04,-435 304.04,-435 304.04,-435 441.08,-435 441.08,-435 447.08,-435 453.08,-441 453.08,-447 453.08,-447 453.08,-459 453.08,-459 453.08,-465 447.08,-471 441.08,-471"/>
<text xml:space="preserve" text-anchor="middle" x="372.56" y="-448.32" font-family="Verdana" font-size="14.00">GlobalTemplatePath</text>
</a>
</g>
</g>
<!-- github.com/guild&#45;framework/guild&#45;core/pkg/project/global.GlobalTemplatePath&#45;&gt;github.com/guild&#45;framework/guild&#45;core/pkg/project/global.GlobalGuildDir -->
<g id="edge2" class="edge">
<title>github.com/guild&#45;framework/guild&#45;core/pkg/project/global.GlobalTemplatePath&#45;&gt;github.com/guild&#45;framework/guild&#45;core/pkg/project/global.GlobalGuildDir</title>
<g id="a_edge2"><a xlink:title="at global.go:380: calling [github.com/guild&#45;framework/guild&#45;core/pkg/project/global.GlobalGuildDir]">
<path fill="none" stroke="black" d="M451.21,-471.69C470.67,-477.49 491.22,-484.61 509.58,-493 523.04,-499.15 523.98,-505.17 537.58,-511 553.59,-517.87 571.47,-523.35 588.54,-527.66"/>
<polygon fill="black" stroke="black" points="587.6,-531.03 598.14,-529.97 589.23,-524.23 587.6,-531.03"/>
</a>
</g>
</g>
<!-- github.com/guild&#45;framework/guild&#45;core/pkg/project/global.ListTemplates -->
<g id="node7" class="node">
<title>github.com/guild&#45;framework/guild&#45;core/pkg/project/global.ListTemplates</title>
<g id="a_node7"><a xlink:title="github.com/guild&#45;framework/guild&#45;core/pkg/project/global.ListTemplates | defined in global.go:384&#10;at global.go:385: calling [github.com/guild&#45;framework/guild&#45;core/pkg/project/global.GlobalGuildDir]&#10;at global.go:394: calling [(*github.com/guild&#45;framework/guild&#45;core/pkg/gerror.GuildError).WithOperation]&#10;at global.go:393: calling [(*github.com/guild&#45;framework/guild&#45;core/pkg/gerror.GuildError).WithComponent]&#10;at global.go:392: calling [github.com/guild&#45;framework/guild&#45;core/pkg/gerror.Wrap]">
<path fill="lightblue" stroke="black" stroke-width="1.5" d="M419.7,-153C419.7,-153 325.41,-153 325.41,-153 319.41,-153 313.41,-147 313.41,-141 313.41,-141 313.41,-129 313.41,-129 313.41,-123 319.41,-117 325.41,-117 325.41,-117 419.7,-117 419.7,-117 425.7,-117 431.7,-123 431.7,-129 431.7,-129 431.7,-141 431.7,-141 431.7,-147 425.7,-153 419.7,-153"/>
<text xml:space="preserve" text-anchor="middle" x="372.56" y="-130.32" font-family="Verdana" font-size="14.00">ListTemplates</text>
</a>
</g>
</g>
<!-- github.com/guild&#45;framework/guild&#45;core/pkg/project/global.ListTemplates&#45;&gt;github.com/guild&#45;framework/guild&#45;core/pkg/project/global.GlobalGuildDir -->
<g id="edge3" class="edge">
<title>github.com/guild&#45;framework/guild&#45;core/pkg/project/global.ListTemplates&#45;&gt;github.com/guild&#45;framework/guild&#45;core/pkg/project/global.GlobalGuildDir</title>
<g id="a_edge3"><a xlink:title="at global.go:385: calling [github.com/guild&#45;framework/guild&#45;core/pkg/project/global.GlobalGuildDir]">
<path fill="none" stroke="black" d="M387.89,-153.71C409.01,-182.04 448.56,-238.14 472.58,-291 493.67,-337.41 500.67,-475.83 537.58,-511 551.43,-524.2 570.08,-531.89 588.67,-536.3"/>
<polygon fill="black" stroke="black" points="587.9,-539.71 598.39,-538.28 589.3,-532.85 587.9,-539.71"/>
</a>
</g>
</g>
<!-- github.com/guild&#45;framework/guild&#45;core/pkg/project/global.ListTemplates&#45;&gt;github.com/guild&#45;framework/guild&#45;core/pkg/gerror.Wrap -->
<g id="edge14" class="edge">
<title>github.com/guild&#45;framework/guild&#45;core/pkg/project/global.ListTemplates&#45;&gt;github.com/guild&#45;framework/guild&#45;core/pkg/gerror.Wrap</title>
<g id="a_edge14"><a xlink:title="at global.go:392: calling [github.com/guild&#45;framework/guild&#45;core/pkg/gerror.Wrap]">
<path fill="none" stroke="saddlebrown" d="M432.37,-126.81C488.42,-119 571.33,-107.45 620.31,-100.63"/>
<polygon fill="saddlebrown" stroke="saddlebrown" points="620.48,-104.14 629.91,-99.29 619.52,-97.21 620.48,-104.14"/>
</a>
</g>
</g>
<!-- github.com/guild&#45;framework/guild&#45;core/pkg/project/global.ListTemplates&#45;&gt;(*github.com/guild&#45;framework/guild&#45;core/pkg/gerror.GuildError).WithComponent -->
<g id="edge10" class="edge">
<title>github.com/guild&#45;framework/guild&#45;core/pkg/project/global.ListTemplates&#45;&gt;(*github.com/guild&#45;framework/guild&#45;core/pkg/gerror.GuildError).WithComponent</title>
<g id="a_edge10"><a xlink:title="at global.go:393: calling [(*github.com/guild&#45;framework/guild&#45;core/pkg/gerror.GuildError).WithComponent]">
<path fill="none" stroke="saddlebrown" d="M432.18,-145.27C456.69,-150.67 485.12,-158.42 509.58,-169 523.16,-174.87 523.98,-181.17 537.58,-187 544.23,-189.85 551.2,-192.46 558.3,-194.85"/>
<polygon fill="saddlebrown" stroke="saddlebrown" points="557.12,-198.15 567.71,-197.85 559.24,-191.48 557.12,-198.15"/>
</a>
</g>
</g>
<!-- github.com/guild&#45;framework/guild&#45;core/pkg/project/global.ListTemplates&#45;&gt;(*github.com/guild&#45;framework/guild&#45;core/pkg/gerror.GuildError).WithOperation -->
<g id="edge7" class="edge">
<title>github.com/guild&#45;framework/guild&#45;core/pkg/project/global.ListTemplates&#45;&gt;(*github.com/guild&#45;framework/guild&#45;core/pkg/gerror.GuildError).WithOperation</title>
<g id="a_edge7"><a xlink:title="at global.go:394: calling [(*github.com/guild&#45;framework/guild&#45;core/pkg/gerror.GuildError).WithOperation]">
<path fill="none" stroke="saddlebrown" d="M432.17,-137.49C456.18,-138.65 484.23,-140.17 509.58,-142 519.22,-142.69 529.21,-143.48 539.24,-144.31"/>
<polygon fill="saddlebrown" stroke="saddlebrown" points="538.8,-147.78 549.06,-145.14 539.39,-140.81 538.8,-147.78"/>
</a>
</g>
</g>
<!-- github.com/guild&#45;framework/guild&#45;core/pkg/project/global.EnsureGlobalInitialized -->
<g id="node8" class="node">
<title>github.com/guild&#45;framework/guild&#45;core/pkg/project/global.EnsureGlobalInitialized</title>
<g id="a_node8"><a xlink:title="github.com/guild&#45;framework/guild&#45;core/pkg/project/global.EnsureGlobalInitialized | defined in global.go:355&#10;at global.go:356: calling [github.com/guild&#45;framework/guild&#45;core/pkg/project/global.GlobalGuildDir]&#10;at global.go:365: calling [github.com/guild&#45;framework/guild&#45;core/pkg/project/global.InitializeGlobal]">
<path fill="lightblue" stroke="black" stroke-width="1.5" d="M187.54,-468C187.54,-468 28,-468 28,-468 22,-468 16,-462 16,-456 16,-456 16,-444 16,-444 16,-438 22,-432 28,-432 28,-432 187.54,-432 187.54,-432 193.54,-432 199.54,-438 199.54,-444 199.54,-444 199.54,-456 199.54,-456 199.54,-462 193.54,-468 187.54,-468"/>
<text xml:space="preserve" text-anchor="middle" x="107.77" y="-445.32" font-family="Verdana" font-size="14.00">EnsureGlobalInitialized</text>
</a>
</g>
</g>
<!-- github.com/guild&#45;framework/guild&#45;core/pkg/project/global.EnsureGlobalInitialized&#45;&gt;github.com/guild&#45;framework/guild&#45;core/pkg/project/global.InitializeGlobal -->
<g id="edge15" class="edge">
<title>github.com/guild&#45;framework/guild&#45;core/pkg/project/global.EnsureGlobalInitialized&#45;&gt;github.com/guild&#45;framework/guild&#45;core/pkg/project/global.InitializeGlobal</title>
<g id="a_edge15"><a xlink:title="at global.go:365: calling [github.com/guild&#45;framework/guild&#45;core/pkg/project/global.InitializeGlobal]">
<path fill="none" stroke="black" d="M141.21,-431.32C173.9,-412.79 226.02,-384.06 272.54,-362 285.47,-355.87 299.58,-349.72 312.98,-344.11"/>
<polygon fill="black" stroke="black" points="314.24,-347.38 322.14,-340.33 311.56,-340.91 314.24,-347.38"/>
</a>
</g>
</g>
<!-- github.com/guild&#45;framework/guild&#45;core/pkg/project/global.EnsureGlobalInitialized&#45;&gt;github.com/guild&#45;framework/guild&#45;core/pkg/project/global.GlobalGuildDir -->
<g id="edge4" class="edge">
<title>github.com/guild&#45;framework/guild&#45;core/pkg/project/global.EnsureGlobalInitialized&#45;&gt;github.com/guild&#45;framework/guild&#45;core/pkg/project/global.GlobalGuildDir</title>
<g id="a_edge4"><a xlink:title="at global.go:356: calling [github.com/guild&#45;framework/guild&#45;core/pkg/project/global.GlobalGuildDir]">
<path fill="none" stroke="black" d="M193.13,-468.7C218.58,-474.02 246.64,-479.57 272.54,-484 360.97,-499.13 383.82,-497.94 472.58,-511 510.97,-516.65 553.68,-523.42 588.69,-529.1"/>
<polygon fill="black" stroke="black" points="587.85,-532.51 598.28,-530.66 588.97,-525.6 587.85,-532.51"/>
</a>
</g>
</g>
<!-- github.com/guild&#45;framework/guild&#45;core/pkg/project/global.GlobalConfigPath -->
<g id="node9" class="node">
<title>github.com/guild&#45;framework/guild&#45;core/pkg/project/global.GlobalConfigPath</title>
<g id="a_node9"><a xlink:title="github.com/guild&#45;framework/guild&#45;core/pkg/project/global.GlobalConfigPath | defined in global.go:369&#10;at global.go:370: calling [github.com/guild&#45;framework/guild&#45;core/pkg/project/global.GlobalGuildDir]">
<path fill="lightblue" stroke="black" stroke-width="1.5" d="M431.7,-559C431.7,-559 313.41,-559 313.41,-559 307.41,-559 301.41,-553 301.41,-547 301.41,-547 301.41,-535 301.41,-535 301.41,-529 307.41,-523 313.41,-523 313.41,-523 431.7,-523 431.7,-523 437.7,-523 443.7,-529 443.7,-535 443.7,-535 443.7,-547 443.7,-547 443.7,-553 437.7,-559 431.7,-559"/>
<text xml:space="preserve" text-anchor="middle" x="372.56" y="-536.33" font-family="Verdana" font-size="14.00">GlobalConfigPath</text>
</a>
</g>
</g>
<!-- github.com/guild&#45;framework/guild&#45;core/pkg/project/global.GlobalConfigPath&#45;&gt;github.com/guild&#45;framework/guild&#45;core/pkg/project/global.GlobalGuildDir -->
<g id="edge5" class="edge">
<title>github.com/guild&#45;framework/guild&#45;core/pkg/project/global.GlobalConfigPath&#45;&gt;github.com/guild&#45;framework/guild&#45;core/pkg/project/global.GlobalGuildDir</title>
<g id="a_edge5"><a xlink:title="at global.go:370: calling [github.com/guild&#45;framework/guild&#45;core/pkg/project/global.GlobalGuildDir]">
<path fill="none" stroke="black" d="M444.18,-541C488.02,-541 544.23,-541 588.39,-541"/>
<polygon fill="black" stroke="black" points="588.12,-544.5 598.12,-541 588.12,-537.5 588.12,-544.5"/>
</a>
</g>
</g>
<!-- github.com/guild&#45;framework/guild&#45;core/pkg/project/global.GlobalProviderConfigPath -->
<g id="node10" class="node">
<title>github.com/guild&#45;framework/guild&#45;core/pkg/project/global.GlobalProviderConfigPath</title>
<g id="a_node10"><a xlink:title="github.com/guild&#45;framework/guild&#45;core/pkg/project/global.GlobalProviderConfigPath | defined in global.go:374&#10;at global.go:375: calling [github.com/guild&#45;framework/guild&#45;core/pkg/project/global.GlobalGuildDir]">
<path fill="lightblue" stroke="black" stroke-width="1.5" d="M460.58,-410C460.58,-410 284.54,-410 284.54,-410 278.54,-410 272.54,-404 272.54,-398 272.54,-398 272.54,-386 272.54,-386 272.54,-380 278.54,-374 284.54,-374 284.54,-374 460.58,-374 460.58,-374 466.58,-374 472.58,-380 472.58,-386 472.58,-386 472.58,-398 472.58,-398 472.58,-404 466.58,-410 460.58,-410"/>
<text xml:space="preserve" text-anchor="middle" x="372.56" y="-387.32" font-family="Verdana" font-size="14.00">GlobalProviderConfigPath</text>
</a>
</g>
</g>
<!-- github.com/guild&#45;framework/guild&#45;core/pkg/project/global.GlobalProviderConfigPath&#45;&gt;github.com/guild&#45;framework/guild&#45;core/pkg/project/global.GlobalGuildDir -->
<g id="edge16" class="edge">
<title>github.com/guild&#45;framework/guild&#45;core/pkg/project/global.GlobalProviderConfigPath&#45;&gt;github.com/guild&#45;framework/guild&#45;core/pkg/project/global.GlobalGuildDir</title>
<g id="a_edge16"><a xlink:title="at global.go:375: calling [github.com/guild&#45;framework/guild&#45;core/pkg/project/global.GlobalGuildDir]">
<path fill="none" stroke="black" d="M450.51,-410.65C458.31,-414.11 465.83,-418.19 472.58,-423 512.18,-451.21 497.09,-484.08 537.58,-511 552.68,-521.04 570.83,-527.73 588.49,-532.18"/>
<polygon fill="black" stroke="black" points="587.68,-535.58 598.21,-534.39 589.24,-528.76 587.68,-535.58"/>
</a>
</g>
</g>
</g>
</svg>
