<?xml version="1.0" encoding="UTF-8" standalone="no"?>
<!DOCTYPE svg PUBLIC "-//W3C//DTD SVG 1.1//EN"
 "http://www.w3.org/Graphics/SVG/1.1/DTD/svg11.dtd">
<!-- Generated by graphviz version 14.1.1 (20251213.1925)
 -->
<!-- Title: gocallvis Pages: 1 -->
<svg width="797pt" height="612pt"
 viewBox="0.00 0.00 797.00 612.00" xmlns="http://www.w3.org/2000/svg" xmlns:xlink="http://www.w3.org/1999/xlink">
<g id="graph0" class="graph" transform="scale(1 1) rotate(0) translate(0 612)">
<title>gocallvis</title>
<polygon fill="lightgray" stroke="none" points="0,0 0,-612 796.62,-612 796.62,0 0,0"/>
<g id="clust1" class="cluster">
<title>cluster_focus</title>
<polygon fill="#e6ecfa" stroke="black" stroke-width="0.5" points="8,-8 8,-604 788.62,-604 788.62,-8 8,-8"/>
<text xml:space="preserve" text-anchor="middle" x="398.31" y="-582.9" font-family="Arial" font-size="18.00">local</text>
</g>
<g id="clust2" class="cluster">
<title>cluster_github.com/guild&#45;framework/guild&#45;core/pkg/gerror</title>
<g id="a_clust2"><a xlink:href="/?f=github.com/guild-framework/guild-core/pkg/gerror" xlink:title="package: github.com/guild&#45;framework/guild&#45;core/pkg/gerror">
<polygon fill="lightyellow" stroke="black" stroke-width="0.8" points="532.33,-69 532.33,-393 780.62,-393 780.62,-69 532.33,-69"/>
<text xml:space="preserve" text-anchor="middle" x="656.47" y="-373.8" font-family="Tahoma bold" font-size="16.00">gerror</text>
</a>
</g>
</g>
<!-- github.com/guild&#45;framework/guild&#45;core/pkg/project/local.LocalDatabasePath -->
<g id="node1" class="node">
<title>github.com/guild&#45;framework/guild&#45;core/pkg/project/local.LocalDatabasePath</title>
<g id="a_node1"><a xlink:title="github.com/guild&#45;framework/guild&#45;core/pkg/project/local.LocalDatabasePath | defined in local.go:182&#10;at local.go:183: calling [github.com/guild&#45;framework/guild&#45;core/pkg/project/local.LocalGuildDir]">
<path fill="lightblue" stroke="black" stroke-width="1.5" d="M441.83,-235C441.83,-235 311.54,-235 311.54,-235 305.54,-235 299.54,-229 299.54,-223 299.54,-223 299.54,-211 299.54,-211 299.54,-205 305.54,-199 311.54,-199 311.54,-199 441.83,-199 441.83,-199 447.83,-199 453.83,-205 453.83,-211 453.83,-211 453.83,-223 453.83,-223 453.83,-229 447.83,-235 441.83,-235"/>
<text xml:space="preserve" text-anchor="middle" x="376.68" y="-212.32" font-family="Verdana" font-size="14.00">LocalDatabasePath</text>
</a>
</g>
</g>
<!-- github.com/guild&#45;framework/guild&#45;core/pkg/project/local.LocalGuildDir -->
<g id="node2" class="node">
<title>github.com/guild&#45;framework/guild&#45;core/pkg/project/local.LocalGuildDir</title>
<g id="a_node2"><a xlink:title="github.com/guild&#45;framework/guild&#45;core/pkg/project/local.LocalGuildDir | defined in local.go:29">
<path fill="lightblue" stroke="black" stroke-width="1.5" d="M701.74,-437C701.74,-437 611.2,-437 611.2,-437 605.2,-437 599.2,-431 599.2,-425 599.2,-425 599.2,-413 599.2,-413 599.2,-407 605.2,-401 611.2,-401 611.2,-401 701.74,-401 701.74,-401 707.74,-401 713.74,-407 713.74,-413 713.74,-413 713.74,-425 713.74,-425 713.74,-431 707.74,-437 701.74,-437"/>
<text xml:space="preserve" text-anchor="middle" x="656.47" y="-414.32" font-family="Verdana" font-size="14.00">LocalGuildDir</text>
</a>
</g>
</g>
<!-- github.com/guild&#45;framework/guild&#45;core/pkg/project/local.LocalDatabasePath&#45;&gt;github.com/guild&#45;framework/guild&#45;core/pkg/project/local.LocalGuildDir -->
<g id="edge7" class="edge">
<title>github.com/guild&#45;framework/guild&#45;core/pkg/project/local.LocalDatabasePath&#45;&gt;github.com/guild&#45;framework/guild&#45;core/pkg/project/local.LocalGuildDir</title>
<g id="a_edge7"><a xlink:title="at local.go:183: calling [github.com/guild&#45;framework/guild&#45;core/pkg/project/local.LocalGuildDir]">
<path fill="none" stroke="black" d="M445.09,-235.61C467.52,-245.21 490.33,-259.38 504.33,-280 534.37,-324.23 493.44,-360.31 532.33,-397 547.06,-410.89 567.39,-417.59 587.29,-420.48"/>
<polygon fill="black" stroke="black" points="586.75,-423.94 597.08,-421.58 587.53,-416.98 586.75,-423.94"/>
</a>
</g>
</g>
<!-- github.com/guild&#45;framework/guild&#45;core/pkg/project/local.EnsureLocalInitialized -->
<g id="node3" class="node">
<title>github.com/guild&#45;framework/guild&#45;core/pkg/project/local.EnsureLocalInitialized</title>
<g id="a_node3"><a xlink:title="github.com/guild&#45;framework/guild&#45;core/pkg/project/local.EnsureLocalInitialized | defined in local.go:207&#10;at local.go:208: calling [github.com/guild&#45;framework/guild&#45;core/pkg/project/local.LocalGuildDir]&#10;at local.go:217: calling [github.com/guild&#45;framework/guild&#45;core/pkg/project/local.InitializeLocal]">
<path fill="lightblue" stroke="black" stroke-width="1.5" d="M190.16,-166C190.16,-166 38.88,-166 38.88,-166 32.88,-166 26.87,-160 26.87,-154 26.87,-154 26.87,-142 26.87,-142 26.87,-136 32.87,-130 38.87,-130 38.87,-130 190.16,-130 190.16,-130 196.16,-130 202.16,-136 202.16,-142 202.16,-142 202.16,-154 202.16,-154 202.16,-160 196.16,-166 190.16,-166"/>
<text xml:space="preserve" text-anchor="middle" x="114.52" y="-143.32" font-family="Verdana" font-size="14.00">EnsureLocalInitialized</text>
</a>
</g>
</g>
<!-- github.com/guild&#45;framework/guild&#45;core/pkg/project/local.EnsureLocalInitialized&#45;&gt;github.com/guild&#45;framework/guild&#45;core/pkg/project/local.LocalGuildDir -->
<g id="edge10" class="edge">
<title>github.com/guild&#45;framework/guild&#45;core/pkg/project/local.EnsureLocalInitialized&#45;&gt;github.com/guild&#45;framework/guild&#45;core/pkg/project/local.LocalGuildDir</title>
<g id="a_edge10"><a xlink:title="at local.go:208: calling [github.com/guild&#45;framework/guild&#45;core/pkg/project/local.LocalGuildDir]">
<path fill="none" stroke="black" d="M140.29,-166.69C172.2,-189.75 230.21,-228.31 286.04,-248 362.86,-275.1 400.77,-228.03 467.33,-275 517.53,-310.42 482.65,-360.85 532.33,-397 548.18,-408.54 568.17,-414.67 587.41,-417.78"/>
<polygon fill="black" stroke="black" points="586.73,-421.22 597.11,-419.08 587.66,-414.28 586.73,-421.22"/>
</a>
</g>
</g>
<!-- github.com/guild&#45;framework/guild&#45;core/pkg/project/local.InitializeLocal -->
<g id="node4" class="node">
<title>github.com/guild&#45;framework/guild&#45;core/pkg/project/local.InitializeLocal</title>
<g id="a_node4"><a xlink:title="github.com/guild&#45;framework/guild&#45;core/pkg/project/local.InitializeLocal | defined in local.go:34&#10;at local.go:49: calling [github.com/guild&#45;framework/guild&#45;core/pkg/gerror.Wrap]&#10;at local.go:68: calling [github.com/guild&#45;framework/guild&#45;core/pkg/gerror.Wrap]&#10;at local.go:79: calling [github.com/guild&#45;framework/guild&#45;core/pkg/gerror.Wrap]&#10;at local.go:52: calling [(*github.com/guild&#45;framework/guild&#45;core/pkg/gerror.GuildError).WithDetails]&#10;at local.go:50: calling [(*github.com/guild&#45;framework/guild&#45;core/pkg/gerror.GuildError).WithComponent]&#10;at local.go:60: calling [(*github.com/guild&#45;framework/guild&#45;core/pkg/gerror.GuildError).WithComponent]&#10;at local.go:69: calling [(*github.com/guild&#45;framework/guild&#45;core/pkg/gerror.GuildError).WithComponent]&#10;at local.go:80: calling [(*github.com/guild&#45;framework/guild&#45;core/pkg/gerror.GuildError).WithComponent]&#10;at local.go:51: calling [(*github.com/guild&#45;framework/guild&#45;core/pkg/gerror.GuildError).WithOperation]&#10;at local.go:61: calling [(*github.com/guild&#45;framework/guild&#45;core/pkg/gerror.GuildError).WithOperation]&#10;at local.go:70: calling [(*github.com/guild&#45;framework/guild&#45;core/pkg/gerror.GuildError).WithOperation]&#10;at local.go:81: calling [(*github.com/guild&#45;framework/guild&#45;core/pkg/gerror.GuildError).WithOperation]&#10;at local.go:35: calling [github.com/guild&#45;framework/guild&#45;core/pkg/project/local.LocalGuildDir]&#10;at local.go:59: calling [github.com/guild&#45;framework/guild&#45;core/pkg/gerror.Wrapf]&#10;at local.go:78: calling [github.com/guild&#45;framework/guild&#45;core/pkg/project/local.createGitIgnore]">
<path fill="lightblue" stroke="black" stroke-width="1.5" d="M423.45,-52C423.45,-52 329.91,-52 329.91,-52 323.91,-52 317.91,-46 317.91,-40 317.91,-40 317.91,-28 317.91,-28 317.91,-22 323.91,-16 329.91,-16 329.91,-16 423.45,-16 423.45,-16 429.45,-16 435.45,-22 435.45,-28 435.45,-28 435.45,-40 435.45,-40 435.45,-46 429.45,-52 423.45,-52"/>
<text xml:space="preserve" text-anchor="middle" x="376.68" y="-29.32" font-family="Verdana" font-size="14.00">InitializeLocal</text>
</a>
</g>
</g>
<!-- github.com/guild&#45;framework/guild&#45;core/pkg/project/local.EnsureLocalInitialized&#45;&gt;github.com/guild&#45;framework/guild&#45;core/pkg/project/local.InitializeLocal -->
<g id="edge17" class="edge">
<title>github.com/guild&#45;framework/guild&#45;core/pkg/project/local.EnsureLocalInitialized&#45;&gt;github.com/guild&#45;framework/guild&#45;core/pkg/project/local.InitializeLocal</title>
<g id="a_edge17"><a xlink:title="at local.go:217: calling [github.com/guild&#45;framework/guild&#45;core/pkg/project/local.InitializeLocal]">
<path fill="none" stroke="black" d="M150.55,-129.41C184.63,-111.7 238.14,-84.86 286.04,-65 292.99,-62.12 300.31,-59.28 307.66,-56.56"/>
<polygon fill="black" stroke="black" points="308.76,-59.88 316.97,-53.18 306.37,-53.3 308.76,-59.88"/>
</a>
</g>
</g>
<!-- github.com/guild&#45;framework/guild&#45;core/pkg/project/local.InitializeLocal&#45;&gt;github.com/guild&#45;framework/guild&#45;core/pkg/project/local.LocalGuildDir -->
<g id="edge14" class="edge">
<title>github.com/guild&#45;framework/guild&#45;core/pkg/project/local.InitializeLocal&#45;&gt;github.com/guild&#45;framework/guild&#45;core/pkg/project/local.LocalGuildDir</title>
<g id="a_edge14"><a xlink:title="at local.go:35: calling [github.com/guild&#45;framework/guild&#45;core/pkg/project/local.LocalGuildDir]">
<path fill="none" stroke="black" d="M436.14,-44.42C447.88,-48.99 459.12,-55.55 467.33,-65 470.41,-68.55 528.98,-393.71 532.33,-397 546.83,-411.26 567.2,-418.03 587.2,-420.89"/>
<polygon fill="black" stroke="black" points="586.74,-424.36 597.06,-421.95 587.49,-417.4 586.74,-424.36"/>
</a>
</g>
</g>
<!-- github.com/guild&#45;framework/guild&#45;core/pkg/project/local.createGitIgnore -->
<g id="node5" class="node">
<title>github.com/guild&#45;framework/guild&#45;core/pkg/project/local.createGitIgnore</title>
<g id="a_node5"><a xlink:title="github.com/guild&#45;framework/guild&#45;core/pkg/project/local.createGitIgnore | defined in local.go:147">
<path fill="lightblue" stroke="black" stroke-width="0.5" d="M710.74,-52C710.74,-52 602.2,-52 602.2,-52 596.2,-52 590.2,-46 590.2,-40 590.2,-40 590.2,-28 590.2,-28 590.2,-22 596.2,-16 602.2,-16 602.2,-16 710.74,-16 710.74,-16 716.74,-16 722.74,-22 722.74,-28 722.74,-28 722.74,-40 722.74,-40 722.74,-46 716.74,-52 710.74,-52"/>
<text xml:space="preserve" text-anchor="middle" x="656.47" y="-29.32" font-family="Verdana" font-size="14.00">createGitIgnore</text>
</a>
</g>
</g>
<!-- github.com/guild&#45;framework/guild&#45;core/pkg/project/local.InitializeLocal&#45;&gt;github.com/guild&#45;framework/guild&#45;core/pkg/project/local.createGitIgnore -->
<g id="edge16" class="edge">
<title>github.com/guild&#45;framework/guild&#45;core/pkg/project/local.InitializeLocal&#45;&gt;github.com/guild&#45;framework/guild&#45;core/pkg/project/local.createGitIgnore</title>
<g id="a_edge16"><a xlink:title="at local.go:78: calling [github.com/guild&#45;framework/guild&#45;core/pkg/project/local.createGitIgnore]">
<path fill="none" stroke="black" d="M435.92,-34C477.34,-34 533.4,-34 578.51,-34"/>
<polygon fill="black" stroke="black" points="578.51,-37.5 588.51,-34 578.51,-30.5 578.51,-37.5"/>
</a>
</g>
</g>
<!-- github.com/guild&#45;framework/guild&#45;core/pkg/gerror.Wrap -->
<g id="node14" class="node">
<title>github.com/guild&#45;framework/guild&#45;core/pkg/gerror.Wrap</title>
<g id="a_node14"><a xlink:title="github.com/guild&#45;framework/guild&#45;core/pkg/gerror.Wrap | defined in errors.go:223">
<path fill="moccasin" stroke="black" stroke-width="1.5" d="M674.37,-296C674.37,-296 638.58,-296 638.58,-296 632.58,-296 626.58,-290 626.58,-284 626.58,-284 626.58,-272 626.58,-272 626.58,-266 632.58,-260 638.58,-260 638.58,-260 674.37,-260 674.37,-260 680.37,-260 686.37,-266 686.37,-272 686.37,-272 686.37,-284 686.37,-284 686.37,-290 680.37,-296 674.37,-296"/>
<text xml:space="preserve" text-anchor="middle" x="656.47" y="-273.32" font-family="Verdana" font-size="14.00">Wrap</text>
</a>
</g>
</g>
<!-- github.com/guild&#45;framework/guild&#45;core/pkg/project/local.InitializeLocal&#45;&gt;github.com/guild&#45;framework/guild&#45;core/pkg/gerror.Wrap -->
<g id="edge5" class="edge">
<title>github.com/guild&#45;framework/guild&#45;core/pkg/project/local.InitializeLocal&#45;&gt;github.com/guild&#45;framework/guild&#45;core/pkg/gerror.Wrap</title>
<g id="a_edge5"><a xlink:title="at local.go:49: calling [github.com/guild&#45;framework/guild&#45;core/pkg/gerror.Wrap]&#10;at local.go:68: calling [github.com/guild&#45;framework/guild&#45;core/pkg/gerror.Wrap]&#10;at local.go:79: calling [github.com/guild&#45;framework/guild&#45;core/pkg/gerror.Wrap]">
<path fill="none" stroke="saddlebrown" d="M435.95,-46.51C447.29,-50.95 458.41,-56.94 467.33,-65 496.38,-91.28 490.92,-108.19 504.33,-145 520.57,-189.57 498.34,-214.9 532.33,-248 553.96,-269.06 587.77,-276.17 614.5,-278.22"/>
<polygon fill="saddlebrown" stroke="saddlebrown" points="614.15,-281.71 624.33,-278.75 614.53,-274.72 614.15,-281.71"/>
</a>
</g>
</g>
<!-- (*github.com/guild&#45;framework/guild&#45;core/pkg/gerror.GuildError).WithComponent -->
<g id="node15" class="node">
<title>(*github.com/guild&#45;framework/guild&#45;core/pkg/gerror.GuildError).WithComponent</title>
<g id="a_node15"><a xlink:title="(*github.com/guild&#45;framework/guild&#45;core/pkg/gerror.GuildError).WithComponent | defined in errors.go:156">
<path fill="moccasin" stroke="black" stroke-width="1.5" d="M760.62,-357C760.62,-357 552.33,-357 552.33,-357 546.33,-357 540.33,-351 540.33,-345 540.33,-345 540.33,-333 540.33,-333 540.33,-327 546.33,-321 552.33,-321 552.33,-321 760.62,-321 760.62,-321 766.62,-321 772.62,-327 772.62,-333 772.62,-333 772.62,-345 772.62,-345 772.62,-351 766.62,-357 760.62,-357"/>
<text xml:space="preserve" text-anchor="middle" x="656.47" y="-334.32" font-family="Verdana" font-size="14.00">(*GuildError).WithComponent</text>
</a>
</g>
</g>
<!-- github.com/guild&#45;framework/guild&#45;core/pkg/project/local.InitializeLocal&#45;&gt;(*github.com/guild&#45;framework/guild&#45;core/pkg/gerror.GuildError).WithComponent -->
<g id="edge11" class="edge">
<title>github.com/guild&#45;framework/guild&#45;core/pkg/project/local.InitializeLocal&#45;&gt;(*github.com/guild&#45;framework/guild&#45;core/pkg/gerror.GuildError).WithComponent</title>
<g id="a_edge11"><a xlink:title="at local.go:50: calling [(*github.com/guild&#45;framework/guild&#45;core/pkg/gerror.GuildError).WithComponent]&#10;at local.go:60: calling [(*github.com/guild&#45;framework/guild&#45;core/pkg/gerror.GuildError).WithComponent]&#10;at local.go:69: calling [(*github.com/guild&#45;framework/guild&#45;core/pkg/gerror.GuildError).WithComponent]&#10;at local.go:80: calling [(*github.com/guild&#45;framework/guild&#45;core/pkg/gerror.GuildError).WithComponent]">
<path fill="none" stroke="saddlebrown" d="M436.12,-45.66C447.59,-50.16 458.71,-56.38 467.33,-65 502.91,-100.58 491.04,-123.47 504.33,-172 520.74,-231.94 489.21,-264.24 532.33,-309 533.9,-310.63 535.55,-312.19 537.26,-313.66"/>
<polygon fill="saddlebrown" stroke="saddlebrown" points="534.99,-316.33 545.11,-319.48 539.16,-310.71 534.99,-316.33"/>
</a>
</g>
</g>
<!-- (*github.com/guild&#45;framework/guild&#45;core/pkg/gerror.GuildError).WithOperation -->
<g id="node16" class="node">
<title>(*github.com/guild&#45;framework/guild&#45;core/pkg/gerror.GuildError).WithOperation</title>
<g id="a_node16"><a xlink:title="(*github.com/guild&#45;framework/guild&#45;core/pkg/gerror.GuildError).WithOperation | defined in errors.go:162">
<path fill="moccasin" stroke="black" stroke-width="1.5" d="M754.99,-113C754.99,-113 557.95,-113 557.95,-113 551.95,-113 545.95,-107 545.95,-101 545.95,-101 545.95,-89 545.95,-89 545.95,-83 551.95,-77 557.95,-77 557.95,-77 754.99,-77 754.99,-77 760.99,-77 766.99,-83 766.99,-89 766.99,-89 766.99,-101 766.99,-101 766.99,-107 760.99,-113 754.99,-113"/>
<text xml:space="preserve" text-anchor="middle" x="656.47" y="-90.33" font-family="Verdana" font-size="14.00">(*GuildError).WithOperation</text>
</a>
</g>
</g>
<!-- github.com/guild&#45;framework/guild&#45;core/pkg/project/local.InitializeLocal&#45;&gt;(*github.com/guild&#45;framework/guild&#45;core/pkg/gerror.GuildError).WithOperation -->
<g id="edge12" class="edge">
<title>github.com/guild&#45;framework/guild&#45;core/pkg/project/local.InitializeLocal&#45;&gt;(*github.com/guild&#45;framework/guild&#45;core/pkg/gerror.GuildError).WithOperation</title>
<g id="a_edge12"><a xlink:title="at local.go:51: calling [(*github.com/guild&#45;framework/guild&#45;core/pkg/gerror.GuildError).WithOperation]&#10;at local.go:61: calling [(*github.com/guild&#45;framework/guild&#45;core/pkg/gerror.GuildError).WithOperation]&#10;at local.go:70: calling [(*github.com/guild&#45;framework/guild&#45;core/pkg/gerror.GuildError).WithOperation]&#10;at local.go:81: calling [(*github.com/guild&#45;framework/guild&#45;core/pkg/gerror.GuildError).WithOperation]">
<path fill="none" stroke="saddlebrown" d="M435.93,-46.79C457.51,-51.79 482.13,-57.81 504.33,-64 516.92,-67.51 519.65,-69.84 532.33,-73 533.32,-73.25 534.32,-73.49 535.32,-73.74"/>
<polygon fill="saddlebrown" stroke="saddlebrown" points="534.19,-77.07 544.72,-75.93 535.78,-70.25 534.19,-77.07"/>
</a>
</g>
</g>
<!-- (*github.com/guild&#45;framework/guild&#45;core/pkg/gerror.GuildError).WithDetails -->
<g id="node17" class="node">
<title>(*github.com/guild&#45;framework/guild&#45;core/pkg/gerror.GuildError).WithDetails</title>
<g id="a_node17"><a xlink:title="(*github.com/guild&#45;framework/guild&#45;core/pkg/gerror.GuildError).WithDetails | defined in errors.go:147">
<path fill="moccasin" stroke="black" stroke-width="1.5" d="M744.12,-174C744.12,-174 568.83,-174 568.83,-174 562.83,-174 556.83,-168 556.83,-162 556.83,-162 556.83,-150 556.83,-150 556.83,-144 562.83,-138 568.83,-138 568.83,-138 744.12,-138 744.12,-138 750.12,-138 756.12,-144 756.12,-150 756.12,-150 756.12,-162 756.12,-162 756.12,-168 750.12,-174 744.12,-174"/>
<text xml:space="preserve" text-anchor="middle" x="656.47" y="-151.32" font-family="Verdana" font-size="14.00">(*GuildError).WithDetails</text>
</a>
</g>
</g>
<!-- github.com/guild&#45;framework/guild&#45;core/pkg/project/local.InitializeLocal&#45;&gt;(*github.com/guild&#45;framework/guild&#45;core/pkg/gerror.GuildError).WithDetails -->
<g id="edge8" class="edge">
<title>github.com/guild&#45;framework/guild&#45;core/pkg/project/local.InitializeLocal&#45;&gt;(*github.com/guild&#45;framework/guild&#45;core/pkg/gerror.GuildError).WithDetails</title>
<g id="a_edge8"><a xlink:title="at local.go:52: calling [(*github.com/guild&#45;framework/guild&#45;core/pkg/gerror.GuildError).WithDetails]">
<path fill="none" stroke="saddlebrown" d="M436.06,-51.53C446.68,-55.46 457.51,-59.98 467.33,-65 485.22,-74.15 489.68,-77.24 504.33,-91 518.85,-104.64 515.53,-115.29 532.33,-126 536.62,-128.74 541.14,-131.22 545.82,-133.48"/>
<polygon fill="saddlebrown" stroke="saddlebrown" points="544.31,-136.64 554.88,-137.46 547.13,-130.24 544.31,-136.64"/>
</a>
</g>
</g>
<!-- github.com/guild&#45;framework/guild&#45;core/pkg/gerror.Wrapf -->
<g id="node18" class="node">
<title>github.com/guild&#45;framework/guild&#45;core/pkg/gerror.Wrapf</title>
<g id="a_node18"><a xlink:title="github.com/guild&#45;framework/guild&#45;core/pkg/gerror.Wrapf | defined in errors.go:245">
<path fill="moccasin" stroke="black" stroke-width="1.5" d="M676.99,-235C676.99,-235 635.95,-235 635.95,-235 629.95,-235 623.95,-229 623.95,-223 623.95,-223 623.95,-211 623.95,-211 623.95,-205 629.95,-199 635.95,-199 635.95,-199 676.99,-199 676.99,-199 682.99,-199 688.99,-205 688.99,-211 688.99,-211 688.99,-223 688.99,-223 688.99,-229 682.99,-235 676.99,-235"/>
<text xml:space="preserve" text-anchor="middle" x="656.47" y="-212.32" font-family="Verdana" font-size="14.00">Wrapf</text>
</a>
</g>
</g>
<!-- github.com/guild&#45;framework/guild&#45;core/pkg/project/local.InitializeLocal&#45;&gt;github.com/guild&#45;framework/guild&#45;core/pkg/gerror.Wrapf -->
<g id="edge15" class="edge">
<title>github.com/guild&#45;framework/guild&#45;core/pkg/project/local.InitializeLocal&#45;&gt;github.com/guild&#45;framework/guild&#45;core/pkg/gerror.Wrapf</title>
<g id="a_edge15"><a xlink:title="at local.go:59: calling [github.com/guild&#45;framework/guild&#45;core/pkg/gerror.Wrapf]">
<path fill="none" stroke="saddlebrown" d="M435.85,-48.13C446.95,-52.43 458,-57.95 467.33,-65 490.25,-82.32 490.62,-92.75 504.33,-118 520.12,-147.08 507.28,-165.37 532.33,-187 554.21,-205.89 586.07,-213.29 611.9,-216.02"/>
<polygon fill="saddlebrown" stroke="saddlebrown" points="611.52,-219.5 621.77,-216.85 612.1,-212.53 611.52,-219.5"/>
</a>
</g>
</g>
<!-- github.com/guild&#45;framework/guild&#45;core/pkg/project/local.LocalCorpusPath -->
<g id="node6" class="node">
<title>github.com/guild&#45;framework/guild&#45;core/pkg/project/local.LocalCorpusPath</title>
<g id="a_node6"><a xlink:title="github.com/guild&#45;framework/guild&#45;core/pkg/project/local.LocalCorpusPath | defined in local.go:187&#10;at local.go:188: calling [github.com/guild&#45;framework/guild&#45;core/pkg/project/local.LocalGuildDir]">
<path fill="lightblue" stroke="black" stroke-width="1.5" d="M433.95,-323C433.95,-323 319.41,-323 319.41,-323 313.41,-323 307.41,-317 307.41,-311 307.41,-311 307.41,-299 307.41,-299 307.41,-293 313.41,-287 319.41,-287 319.41,-287 433.95,-287 433.95,-287 439.95,-287 445.95,-293 445.95,-299 445.95,-299 445.95,-311 445.95,-311 445.95,-317 439.95,-323 433.95,-323"/>
<text xml:space="preserve" text-anchor="middle" x="376.68" y="-300.32" font-family="Verdana" font-size="14.00">LocalCorpusPath</text>
</a>
</g>
</g>
<!-- github.com/guild&#45;framework/guild&#45;core/pkg/project/local.LocalCorpusPath&#45;&gt;github.com/guild&#45;framework/guild&#45;core/pkg/project/local.LocalGuildDir -->
<g id="edge13" class="edge">
<title>github.com/guild&#45;framework/guild&#45;core/pkg/project/local.LocalCorpusPath&#45;&gt;github.com/guild&#45;framework/guild&#45;core/pkg/project/local.LocalGuildDir</title>
<g id="a_edge13"><a xlink:title="at local.go:188: calling [github.com/guild&#45;framework/guild&#45;core/pkg/project/local.LocalGuildDir]">
<path fill="none" stroke="black" d="M442.36,-323.66C451.02,-327.22 459.58,-331.32 467.33,-336 501.24,-356.48 496.92,-379.23 532.33,-397 549.29,-405.51 569.01,-410.78 587.64,-414.02"/>
<polygon fill="black" stroke="black" points="586.84,-417.44 597.26,-415.51 587.92,-410.52 586.84,-417.44"/>
</a>
</g>
</g>
<!-- github.com/guild&#45;framework/guild&#45;core/pkg/project/local.LocalToolsPath -->
<g id="node7" class="node">
<title>github.com/guild&#45;framework/guild&#45;core/pkg/project/local.LocalToolsPath</title>
<g id="a_node7"><a xlink:title="github.com/guild&#45;framework/guild&#45;core/pkg/project/local.LocalToolsPath | defined in local.go:197&#10;at local.go:198: calling [github.com/guild&#45;framework/guild&#45;core/pkg/project/local.LocalGuildDir]">
<path fill="lightblue" stroke="black" stroke-width="1.5" d="M426.83,-384C426.83,-384 326.54,-384 326.54,-384 320.54,-384 314.54,-378 314.54,-372 314.54,-372 314.54,-360 314.54,-360 314.54,-354 320.54,-348 326.54,-348 326.54,-348 426.83,-348 426.83,-348 432.83,-348 438.83,-354 438.83,-360 438.83,-360 438.83,-372 438.83,-372 438.83,-378 432.83,-384 426.83,-384"/>
<text xml:space="preserve" text-anchor="middle" x="376.68" y="-361.32" font-family="Verdana" font-size="14.00">LocalToolsPath</text>
</a>
</g>
</g>
<!-- github.com/guild&#45;framework/guild&#45;core/pkg/project/local.LocalToolsPath&#45;&gt;github.com/guild&#45;framework/guild&#45;core/pkg/project/local.LocalGuildDir -->
<g id="edge1" class="edge">
<title>github.com/guild&#45;framework/guild&#45;core/pkg/project/local.LocalToolsPath&#45;&gt;github.com/guild&#45;framework/guild&#45;core/pkg/project/local.LocalGuildDir</title>
<g id="a_edge1"><a xlink:title="at local.go:198: calling [github.com/guild&#45;framework/guild&#45;core/pkg/project/local.LocalGuildDir]">
<path fill="none" stroke="black" d="M439.33,-378.67C467.64,-384.4 501.66,-391.19 532.33,-397 550.18,-400.38 569.52,-403.9 587.46,-407.11"/>
<polygon fill="black" stroke="black" points="586.77,-410.55 597.23,-408.85 588,-403.65 586.77,-410.55"/>
</a>
</g>
</g>
<!-- github.com/guild&#45;framework/guild&#45;core/pkg/project/local.LocalWorkspacesPath -->
<g id="node8" class="node">
<title>github.com/guild&#45;framework/guild&#45;core/pkg/project/local.LocalWorkspacesPath</title>
<g id="a_node8"><a xlink:title="github.com/guild&#45;framework/guild&#45;core/pkg/project/local.LocalWorkspacesPath | defined in local.go:202&#10;at local.go:203: calling [github.com/guild&#45;framework/guild&#45;core/pkg/project/local.LocalGuildDir]">
<path fill="lightblue" stroke="black" stroke-width="1.5" d="M451.2,-445C451.2,-445 302.16,-445 302.16,-445 296.16,-445 290.16,-439 290.16,-433 290.16,-433 290.16,-421 290.16,-421 290.16,-415 296.16,-409 302.16,-409 302.16,-409 451.2,-409 451.2,-409 457.2,-409 463.2,-415 463.2,-421 463.2,-421 463.2,-433 463.2,-433 463.2,-439 457.2,-445 451.2,-445"/>
<text xml:space="preserve" text-anchor="middle" x="376.68" y="-422.32" font-family="Verdana" font-size="14.00">LocalWorkspacesPath</text>
</a>
</g>
</g>
<!-- github.com/guild&#45;framework/guild&#45;core/pkg/project/local.LocalWorkspacesPath&#45;&gt;github.com/guild&#45;framework/guild&#45;core/pkg/project/local.LocalGuildDir -->
<g id="edge9" class="edge">
<title>github.com/guild&#45;framework/guild&#45;core/pkg/project/local.LocalWorkspacesPath&#45;&gt;github.com/guild&#45;framework/guild&#45;core/pkg/project/local.LocalGuildDir</title>
<g id="a_edge9"><a xlink:title="at local.go:203: calling [github.com/guild&#45;framework/guild&#45;core/pkg/project/local.LocalGuildDir]">
<path fill="none" stroke="black" d="M463.68,-424.52C503.53,-423.38 550.22,-422.03 587.56,-420.96"/>
<polygon fill="black" stroke="black" points="587.42,-424.46 597.31,-420.68 587.21,-417.46 587.42,-424.46"/>
</a>
</g>
</g>
<!-- github.com/guild&#45;framework/guild&#45;core/pkg/project/local.LocalConfigPath -->
<g id="node9" class="node">
<title>github.com/guild&#45;framework/guild&#45;core/pkg/project/local.LocalConfigPath</title>
<g id="a_node9"><a xlink:title="github.com/guild&#45;framework/guild&#45;core/pkg/project/local.LocalConfigPath | defined in local.go:177&#10;at local.go:178: calling [github.com/guild&#45;framework/guild&#45;core/pkg/project/local.LocalGuildDir]">
<path fill="lightblue" stroke="black" stroke-width="1.5" d="M431.7,-113C431.7,-113 321.66,-113 321.66,-113 315.66,-113 309.66,-107 309.66,-101 309.66,-101 309.66,-89 309.66,-89 309.66,-83 315.66,-77 321.66,-77 321.66,-77 431.7,-77 431.7,-77 437.7,-77 443.7,-83 443.7,-89 443.7,-89 443.7,-101 443.7,-101 443.7,-107 437.7,-113 431.7,-113"/>
<text xml:space="preserve" text-anchor="middle" x="376.68" y="-90.33" font-family="Verdana" font-size="14.00">LocalConfigPath</text>
</a>
</g>
</g>
<!-- github.com/guild&#45;framework/guild&#45;core/pkg/project/local.LocalConfigPath&#45;&gt;github.com/guild&#45;framework/guild&#45;core/pkg/project/local.LocalGuildDir -->
<g id="edge6" class="edge">
<title>github.com/guild&#45;framework/guild&#45;core/pkg/project/local.LocalConfigPath&#45;&gt;github.com/guild&#45;framework/guild&#45;core/pkg/project/local.LocalGuildDir</title>
<g id="a_edge6"><a xlink:title="at local.go:178: calling [github.com/guild&#45;framework/guild&#45;core/pkg/project/local.LocalGuildDir]">
<path fill="none" stroke="black" d="M444.4,-109.6C452.96,-113.77 460.94,-119.12 467.33,-126 511.11,-173.17 489.38,-203.4 504.33,-266 518.16,-323.91 489.53,-355.62 532.33,-397 546.95,-411.14 567.35,-417.87 587.35,-420.73"/>
<polygon fill="black" stroke="black" points="586.88,-424.2 597.2,-421.81 587.64,-417.24 586.88,-424.2"/>
</a>
</g>
</g>
<!-- github.com/guild&#45;framework/guild&#45;core/pkg/project/local.LocalCommissionsPath -->
<g id="node10" class="node">
<title>github.com/guild&#45;framework/guild&#45;core/pkg/project/local.LocalCommissionsPath</title>
<g id="a_node10"><a xlink:title="github.com/guild&#45;framework/guild&#45;core/pkg/project/local.LocalCommissionsPath | defined in local.go:192&#10;at local.go:193: calling [github.com/guild&#45;framework/guild&#45;core/pkg/project/local.LocalGuildDir]">
<path fill="lightblue" stroke="black" stroke-width="1.5" d="M455.33,-174C455.33,-174 298.04,-174 298.04,-174 292.04,-174 286.04,-168 286.04,-162 286.04,-162 286.04,-150 286.04,-150 286.04,-144 292.04,-138 298.04,-138 298.04,-138 455.33,-138 455.33,-138 461.33,-138 467.33,-144 467.33,-150 467.33,-150 467.33,-162 467.33,-162 467.33,-168 461.33,-174 455.33,-174"/>
<text xml:space="preserve" text-anchor="middle" x="376.68" y="-151.32" font-family="Verdana" font-size="14.00">LocalCommissionsPath</text>
</a>
</g>
</g>
<!-- github.com/guild&#45;framework/guild&#45;core/pkg/project/local.LocalCommissionsPath&#45;&gt;github.com/guild&#45;framework/guild&#45;core/pkg/project/local.LocalGuildDir -->
<g id="edge2" class="edge">
<title>github.com/guild&#45;framework/guild&#45;core/pkg/project/local.LocalCommissionsPath&#45;&gt;github.com/guild&#45;framework/guild&#45;core/pkg/project/local.LocalGuildDir</title>
<g id="a_edge2"><a xlink:title="at local.go:193: calling [github.com/guild&#45;framework/guild&#45;core/pkg/project/local.LocalGuildDir]">
<path fill="none" stroke="black" d="M449.84,-174.64C456.19,-178.09 462.15,-182.17 467.33,-187 498.05,-215.67 491.39,-234.02 504.33,-274 521.59,-327.34 491.76,-358.3 532.33,-397 546.98,-410.98 567.29,-417.69 587.19,-420.58"/>
<polygon fill="black" stroke="black" points="586.67,-424.04 596.99,-421.67 587.44,-417.08 586.67,-424.04"/>
</a>
</g>
</g>
<!-- github.com/guild&#45;framework/guild&#45;core/pkg/project/local.createDefaultLocalConfig -->
<g id="node11" class="node">
<title>github.com/guild&#45;framework/guild&#45;core/pkg/project/local.createDefaultLocalConfig</title>
<g id="a_node11"><a xlink:title="github.com/guild&#45;framework/guild&#45;core/pkg/project/local.createDefaultLocalConfig | defined in local.go:88&#10;at local.go:92: calling [github.com/guild&#45;framework/guild&#45;core/pkg/project/local.detectProjectType]&#10;at local.go:94: calling [github.com/guild&#45;framework/guild&#45;core/pkg/project/local.generateLocalConfig]">
<path fill="lightblue" stroke="black" stroke-width="0.5" d="M201.04,-527C201.04,-527 28,-527 28,-527 22,-527 16,-521 16,-515 16,-515 16,-503 16,-503 16,-497 22,-491 28,-491 28,-491 201.04,-491 201.04,-491 207.04,-491 213.04,-497 213.04,-503 213.04,-503 213.04,-515 213.04,-515 213.04,-521 207.04,-527 201.04,-527"/>
<text xml:space="preserve" text-anchor="middle" x="114.52" y="-504.32" font-family="Verdana" font-size="14.00">createDefaultLocalConfig</text>
</a>
</g>
</g>
<!-- github.com/guild&#45;framework/guild&#45;core/pkg/project/local.detectProjectType -->
<g id="node12" class="node">
<title>github.com/guild&#45;framework/guild&#45;core/pkg/project/local.detectProjectType</title>
<g id="a_node12"><a xlink:title="github.com/guild&#45;framework/guild&#45;core/pkg/project/local.detectProjectType | defined in local.go:100">
<path fill="lightblue" stroke="black" stroke-width="0.5" d="M438.45,-506C438.45,-506 314.91,-506 314.91,-506 308.91,-506 302.91,-500 302.91,-494 302.91,-494 302.91,-482 302.91,-482 302.91,-476 308.91,-470 314.91,-470 314.91,-470 438.45,-470 438.45,-470 444.45,-470 450.45,-476 450.45,-482 450.45,-482 450.45,-494 450.45,-494 450.45,-500 444.45,-506 438.45,-506"/>
<text xml:space="preserve" text-anchor="middle" x="376.68" y="-483.32" font-family="Verdana" font-size="14.00">detectProjectType</text>
</a>
</g>
</g>
<!-- github.com/guild&#45;framework/guild&#45;core/pkg/project/local.createDefaultLocalConfig&#45;&gt;github.com/guild&#45;framework/guild&#45;core/pkg/project/local.detectProjectType -->
<g id="edge3" class="edge">
<title>github.com/guild&#45;framework/guild&#45;core/pkg/project/local.createDefaultLocalConfig&#45;&gt;github.com/guild&#45;framework/guild&#45;core/pkg/project/local.detectProjectType</title>
<g id="a_edge3"><a xlink:title="at local.go:92: calling [github.com/guild&#45;framework/guild&#45;core/pkg/project/local.detectProjectType]">
<path fill="none" stroke="black" d="M213.14,-501.12C238.89,-499.04 266.47,-496.82 291.45,-494.8"/>
<polygon fill="black" stroke="black" points="291.54,-498.3 301.22,-494.01 290.97,-491.33 291.54,-498.3"/>
</a>
</g>
</g>
<!-- github.com/guild&#45;framework/guild&#45;core/pkg/project/local.generateLocalConfig -->
<g id="node13" class="node">
<title>github.com/guild&#45;framework/guild&#45;core/pkg/project/local.generateLocalConfig</title>
<g id="a_node13"><a xlink:title="github.com/guild&#45;framework/guild&#45;core/pkg/project/local.generateLocalConfig | defined in local.go:131">
<path fill="lightblue" stroke="black" stroke-width="0.5" d="M447.45,-567C447.45,-567 305.91,-567 305.91,-567 299.91,-567 293.91,-561 293.91,-555 293.91,-555 293.91,-543 293.91,-543 293.91,-537 299.91,-531 305.91,-531 305.91,-531 447.45,-531 447.45,-531 453.45,-531 459.45,-537 459.45,-543 459.45,-543 459.45,-555 459.45,-555 459.45,-561 453.45,-567 447.45,-567"/>
<text xml:space="preserve" text-anchor="middle" x="376.68" y="-544.33" font-family="Verdana" font-size="14.00">generateLocalConfig</text>
</a>
</g>
</g>
<!-- github.com/guild&#45;framework/guild&#45;core/pkg/project/local.createDefaultLocalConfig&#45;&gt;github.com/guild&#45;framework/guild&#45;core/pkg/project/local.generateLocalConfig -->
<g id="edge4" class="edge">
<title>github.com/guild&#45;framework/guild&#45;core/pkg/project/local.createDefaultLocalConfig&#45;&gt;github.com/guild&#45;framework/guild&#45;core/pkg/project/local.generateLocalConfig</title>
<g id="a_edge4"><a xlink:title="at local.go:94: calling [github.com/guild&#45;framework/guild&#45;core/pkg/project/local.generateLocalConfig]">
<path fill="none" stroke="black" d="M213.14,-524.01C235.83,-527.5 259.94,-531.2 282.44,-534.66"/>
<polygon fill="black" stroke="black" points="281.78,-538.1 292.19,-536.16 282.84,-531.18 281.78,-538.1"/>
</a>
</g>
</g>
</g>
</svg>
