<?xml version="1.0" encoding="UTF-8" standalone="no"?>
<!DOCTYPE svg PUBLIC "-//W3C//DTD SVG 1.1//EN"
 "http://www.w3.org/Graphics/SVG/1.1/DTD/svg11.dtd">
<!-- Generated by graphviz version 14.1.1 (20251213.1925)
 -->
<!-- Title: gocallvis Pages: 1 -->
<svg width="1135pt" height="495pt"
 viewBox="0.00 0.00 1135.00 495.00" xmlns="http://www.w3.org/2000/svg" xmlns:xlink="http://www.w3.org/1999/xlink">
<g id="graph0" class="graph" transform="scale(1 1) rotate(0) translate(0 495)">
<title>gocallvis</title>
<polygon fill="lightgray" stroke="none" points="0,0 0,-495 1134.91,-495 1134.91,0 0,0"/>
<g id="clust1" class="cluster">
<title>cluster_focus</title>
<polygon fill="#e6ecfa" stroke="black" stroke-width="0.5" points="8,-8 8,-487 1126.91,-487 1126.91,-8 8,-8"/>
<text xml:space="preserve" text-anchor="middle" x="567.45" y="-465.9" font-family="Arial" font-size="18.00">ollama</text>
</g>
<g id="clust2" class="cluster">
<title>cluster_github.com/guild&#45;framework/guild&#45;core/pkg/gerror</title>
<g id="a_clust2"><a xlink:href="/?f=github.com/guild-framework/guild-core/pkg/gerror" xlink:title="package: github.com/guild&#45;framework/guild&#45;core/pkg/gerror">
<polygon fill="lightyellow" stroke="black" stroke-width="0.8" points="870.62,-44 870.62,-429 1118.91,-429 1118.91,-44 870.62,-44"/>
<text xml:space="preserve" text-anchor="middle" x="994.76" y="-409.8" font-family="Tahoma bold" font-size="16.00">gerror</text>
</a>
</g>
</g>
<!-- (*github.com/guild&#45;framework/guild&#45;core/pkg/providers/ollama.Client).StreamChatCompletion -->
<g id="node1" class="node">
<title>(*github.com/guild&#45;framework/guild&#45;core/pkg/providers/ollama.Client).StreamChatCompletion</title>
<g id="a_node1"><a xlink:title="(*github.com/guild&#45;framework/guild&#45;core/pkg/providers/ollama.Client).StreamChatCompletion | defined in client.go:197&#10;at client.go:236: calling [(*github.com/guild&#45;framework/guild&#45;core/pkg/gerror.GuildError).WithOperation]&#10;at client.go:234: calling [github.com/guild&#45;framework/guild&#45;core/pkg/gerror.Newf]&#10;at client.go:235: calling [(*github.com/guild&#45;framework/guild&#45;core/pkg/gerror.GuildError).WithComponent]&#10;at client.go:237: calling [(*github.com/guild&#45;framework/guild&#45;core/pkg/gerror.GuildError).WithDetails]&#10;at client.go:238: calling [(*github.com/guild&#45;framework/guild&#45;core/pkg/gerror.GuildError).WithDetails]">
<path fill="lightblue" stroke="black" stroke-width="1.5" d="M793.62,-155C793.62,-155 566.58,-155 566.58,-155 560.58,-155 554.58,-149 554.58,-143 554.58,-143 554.58,-131 554.58,-131 554.58,-125 560.58,-119 566.58,-119 566.58,-119 793.62,-119 793.62,-119 799.62,-119 805.62,-125 805.62,-131 805.62,-131 805.62,-143 805.62,-143 805.62,-149 799.62,-155 793.62,-155"/>
<text xml:space="preserve" text-anchor="middle" x="680.1" y="-132.32" font-family="Verdana" font-size="14.00">(*Client).StreamChatCompletion</text>
</a>
</g>
</g>
<!-- github.com/guild&#45;framework/guild&#45;core/pkg/gerror.Newf -->
<g id="node12" class="node">
<title>github.com/guild&#45;framework/guild&#45;core/pkg/gerror.Newf</title>
<g id="a_node12"><a xlink:title="github.com/guild&#45;framework/guild&#45;core/pkg/gerror.Newf | defined in errors.go:218">
<path fill="moccasin" stroke="black" stroke-width="1.5" d="M1011.91,-210C1011.91,-210 977.62,-210 977.62,-210 971.62,-210 965.62,-204 965.62,-198 965.62,-198 965.62,-186 965.62,-186 965.62,-180 971.62,-174 977.62,-174 977.62,-174 1011.91,-174 1011.91,-174 1017.91,-174 1023.91,-180 1023.91,-186 1023.91,-186 1023.91,-198 1023.91,-198 1023.91,-204 1017.91,-210 1011.91,-210"/>
<text xml:space="preserve" text-anchor="middle" x="994.76" y="-187.32" font-family="Verdana" font-size="14.00">Newf</text>
</a>
</g>
</g>
<!-- (*github.com/guild&#45;framework/guild&#45;core/pkg/providers/ollama.Client).StreamChatCompletion&#45;&gt;github.com/guild&#45;framework/guild&#45;core/pkg/gerror.Newf -->
<g id="edge9" class="edge">
<title>(*github.com/guild&#45;framework/guild&#45;core/pkg/providers/ollama.Client).StreamChatCompletion&#45;&gt;github.com/guild&#45;framework/guild&#45;core/pkg/gerror.Newf</title>
<g id="a_edge9"><a xlink:title="at client.go:234: calling [github.com/guild&#45;framework/guild&#45;core/pkg/gerror.Newf]">
<path fill="none" stroke="saddlebrown" d="M787.39,-155.7C844.71,-165.78 912.07,-177.63 953.85,-184.98"/>
<polygon fill="saddlebrown" stroke="saddlebrown" points="953.23,-188.42 963.69,-186.71 954.45,-181.53 953.23,-188.42"/>
</a>
</g>
</g>
<!-- (*github.com/guild&#45;framework/guild&#45;core/pkg/gerror.GuildError).WithComponent -->
<g id="node13" class="node">
<title>(*github.com/guild&#45;framework/guild&#45;core/pkg/gerror.GuildError).WithComponent</title>
<g id="a_node13"><a xlink:title="(*github.com/guild&#45;framework/guild&#45;core/pkg/gerror.GuildError).WithComponent | defined in errors.go:156">
<path fill="moccasin" stroke="black" stroke-width="1.5" d="M1098.91,-149C1098.91,-149 890.62,-149 890.62,-149 884.62,-149 878.62,-143 878.62,-137 878.62,-137 878.62,-125 878.62,-125 878.62,-119 884.62,-113 890.62,-113 890.62,-113 1098.91,-113 1098.91,-113 1104.91,-113 1110.91,-119 1110.91,-125 1110.91,-125 1110.91,-137 1110.91,-137 1110.91,-143 1104.91,-149 1098.91,-149"/>
<text xml:space="preserve" text-anchor="middle" x="994.76" y="-126.33" font-family="Verdana" font-size="14.00">(*GuildError).WithComponent</text>
</a>
</g>
</g>
<!-- (*github.com/guild&#45;framework/guild&#45;core/pkg/providers/ollama.Client).StreamChatCompletion&#45;&gt;(*github.com/guild&#45;framework/guild&#45;core/pkg/gerror.GuildError).WithComponent -->
<g id="edge13" class="edge">
<title>(*github.com/guild&#45;framework/guild&#45;core/pkg/providers/ollama.Client).StreamChatCompletion&#45;&gt;(*github.com/guild&#45;framework/guild&#45;core/pkg/gerror.GuildError).WithComponent</title>
<g id="a_edge13"><a xlink:title="at client.go:235: calling [(*github.com/guild&#45;framework/guild&#45;core/pkg/gerror.GuildError).WithComponent]">
<path fill="none" stroke="saddlebrown" d="M806.17,-118.3C818.46,-117.66 830.77,-117.49 842.62,-118 850.4,-118.33 858.4,-118.76 866.46,-119.26"/>
<polygon fill="saddlebrown" stroke="saddlebrown" points="866.17,-122.75 876.38,-119.91 866.63,-115.77 866.17,-122.75"/>
</a>
</g>
</g>
<!-- (*github.com/guild&#45;framework/guild&#45;core/pkg/gerror.GuildError).WithOperation -->
<g id="node14" class="node">
<title>(*github.com/guild&#45;framework/guild&#45;core/pkg/gerror.GuildError).WithOperation</title>
<g id="a_node14"><a xlink:title="(*github.com/guild&#45;framework/guild&#45;core/pkg/gerror.GuildError).WithOperation | defined in errors.go:162">
<path fill="moccasin" stroke="black" stroke-width="1.5" d="M1093.28,-271C1093.28,-271 896.24,-271 896.24,-271 890.24,-271 884.24,-265 884.24,-259 884.24,-259 884.24,-247 884.24,-247 884.24,-241 890.24,-235 896.24,-235 896.24,-235 1093.28,-235 1093.28,-235 1099.28,-235 1105.28,-241 1105.28,-247 1105.28,-247 1105.28,-259 1105.28,-259 1105.28,-265 1099.28,-271 1093.28,-271"/>
<text xml:space="preserve" text-anchor="middle" x="994.76" y="-248.32" font-family="Verdana" font-size="14.00">(*GuildError).WithOperation</text>
</a>
</g>
</g>
<!-- (*github.com/guild&#45;framework/guild&#45;core/pkg/providers/ollama.Client).StreamChatCompletion&#45;&gt;(*github.com/guild&#45;framework/guild&#45;core/pkg/gerror.GuildError).WithOperation -->
<g id="edge1" class="edge">
<title>(*github.com/guild&#45;framework/guild&#45;core/pkg/providers/ollama.Client).StreamChatCompletion&#45;&gt;(*github.com/guild&#45;framework/guild&#45;core/pkg/gerror.GuildError).WithOperation</title>
<g id="a_edge1"><a xlink:title="at client.go:236: calling [(*github.com/guild&#45;framework/guild&#45;core/pkg/gerror.GuildError).WithOperation]">
<path fill="none" stroke="saddlebrown" d="M743.07,-155.7C763.42,-162.68 785.86,-171.29 805.62,-181 836.49,-196.17 839.03,-209.41 870.62,-223 877.26,-225.86 884.23,-228.48 891.33,-230.87"/>
<polygon fill="saddlebrown" stroke="saddlebrown" points="890.15,-234.17 900.74,-233.87 892.28,-227.5 890.15,-234.17"/>
</a>
</g>
</g>
<!-- (*github.com/guild&#45;framework/guild&#45;core/pkg/gerror.GuildError).WithDetails -->
<g id="node15" class="node">
<title>(*github.com/guild&#45;framework/guild&#45;core/pkg/gerror.GuildError).WithDetails</title>
<g id="a_node15"><a xlink:title="(*github.com/guild&#45;framework/guild&#45;core/pkg/gerror.GuildError).WithDetails | defined in errors.go:147">
<path fill="moccasin" stroke="black" stroke-width="1.5" d="M1082.41,-332C1082.41,-332 907.12,-332 907.12,-332 901.12,-332 895.12,-326 895.12,-320 895.12,-320 895.12,-308 895.12,-308 895.12,-302 901.12,-296 907.12,-296 907.12,-296 1082.41,-296 1082.41,-296 1088.41,-296 1094.41,-302 1094.41,-308 1094.41,-308 1094.41,-320 1094.41,-320 1094.41,-326 1088.41,-332 1082.41,-332"/>
<text xml:space="preserve" text-anchor="middle" x="994.76" y="-309.32" font-family="Verdana" font-size="14.00">(*GuildError).WithDetails</text>
</a>
</g>
</g>
<!-- (*github.com/guild&#45;framework/guild&#45;core/pkg/providers/ollama.Client).StreamChatCompletion&#45;&gt;(*github.com/guild&#45;framework/guild&#45;core/pkg/gerror.GuildError).WithDetails -->
<g id="edge14" class="edge">
<title>(*github.com/guild&#45;framework/guild&#45;core/pkg/providers/ollama.Client).StreamChatCompletion&#45;&gt;(*github.com/guild&#45;framework/guild&#45;core/pkg/gerror.GuildError).WithDetails</title>
<g id="a_edge14"><a xlink:title="at client.go:237: calling [(*github.com/guild&#45;framework/guild&#45;core/pkg/gerror.GuildError).WithDetails]&#10;at client.go:238: calling [(*github.com/guild&#45;framework/guild&#45;core/pkg/gerror.GuildError).WithDetails]">
<path fill="none" stroke="saddlebrown" d="M759.34,-155.67C775.71,-161.94 792.09,-170.2 805.62,-181 847.92,-214.77 826.67,-252.4 870.62,-284 874.97,-287.13 879.6,-289.93 884.43,-292.44"/>
<polygon fill="saddlebrown" stroke="saddlebrown" points="882.67,-295.49 893.21,-296.56 885.65,-289.15 882.67,-295.49"/>
</a>
</g>
</g>
<!-- (*github.com/guild&#45;framework/guild&#45;core/pkg/providers/ollama.ollamaStream).Next -->
<g id="node2" class="node">
<title>(*github.com/guild&#45;framework/guild&#45;core/pkg/providers/ollama.ollamaStream).Next</title>
<g id="a_node2"><a xlink:title="(*github.com/guild&#45;framework/guild&#45;core/pkg/providers/ollama.ollamaStream).Next | defined in client.go:421&#10;at client.go:449: calling [(*github.com/guild&#45;framework/guild&#45;core/pkg/providers/ollama.ollamaStream).Next$1]">
<path fill="lightblue" stroke="black" stroke-width="1.5" d="M182.29,-72C182.29,-72 28,-72 28,-72 22,-72 16,-66 16,-60 16,-60 16,-48 16,-48 16,-42 22,-36 28,-36 28,-36 182.29,-36 182.29,-36 188.29,-36 194.29,-42 194.29,-48 194.29,-48 194.29,-60 194.29,-60 194.29,-66 188.29,-72 182.29,-72"/>
<text xml:space="preserve" text-anchor="middle" x="105.14" y="-49.33" font-family="Verdana" font-size="14.00">(*ollamaStream).Next</text>
</a>
</g>
</g>
<!-- (*github.com/guild&#45;framework/guild&#45;core/pkg/providers/ollama.ollamaStream).Next$1 -->
<g id="node3" class="node">
<title>(*github.com/guild&#45;framework/guild&#45;core/pkg/providers/ollama.ollamaStream).Next$1</title>
<g id="a_node3"><a xlink:title="(*github.com/guild&#45;framework/guild&#45;core/pkg/providers/ollama.ollamaStream).Next$1 | defined in client.go:444">
<polygon fill="lightblue" stroke="black" stroke-dasharray="1,5" points="472.58,-72 276.29,-72 276.29,-36 472.58,-36 472.58,-72"/>
<text xml:space="preserve" text-anchor="middle" x="374.43" y="-49.33" font-family="Verdana" font-size="14.00">(*ollamaStream).Next$1</text>
</a>
</g>
</g>
<!-- (*github.com/guild&#45;framework/guild&#45;core/pkg/providers/ollama.ollamaStream).Next&#45;&gt;(*github.com/guild&#45;framework/guild&#45;core/pkg/providers/ollama.ollamaStream).Next$1 -->
<g id="edge10" class="edge">
<title>(*github.com/guild&#45;framework/guild&#45;core/pkg/providers/ollama.ollamaStream).Next&#45;&gt;(*github.com/guild&#45;framework/guild&#45;core/pkg/providers/ollama.ollamaStream).Next$1</title>
<g id="a_edge10"><a xlink:title="at client.go:449: calling [(*github.com/guild&#45;framework/guild&#45;core/pkg/providers/ollama.ollamaStream).Next$1]">
<path fill="none" stroke="black" d="M194.78,-54C217.11,-54 241.34,-54 264.54,-54"/>
<polygon fill="black" stroke="black" points="264.32,-57.5 274.32,-54 264.32,-50.5 264.32,-57.5"/>
</a>
</g>
</g>
<!-- (*github.com/guild&#45;framework/guild&#45;core/pkg/providers/ollama.Client).makeRequest -->
<g id="node4" class="node">
<title>(*github.com/guild&#45;framework/guild&#45;core/pkg/providers/ollama.Client).makeRequest</title>
<g id="a_node4"><a xlink:title="(*github.com/guild&#45;framework/guild&#45;core/pkg/providers/ollama.Client).makeRequest | defined in client.go:377&#10;at client.go:405: calling [(*github.com/guild&#45;framework/guild&#45;core/pkg/gerror.GuildError).WithComponent]&#10;at client.go:404: calling [github.com/guild&#45;framework/guild&#45;core/pkg/gerror.Newf]&#10;at client.go:406: calling [(*github.com/guild&#45;framework/guild&#45;core/pkg/gerror.GuildError).WithOperation]&#10;at client.go:407: calling [(*github.com/guild&#45;framework/guild&#45;core/pkg/gerror.GuildError).WithDetails]&#10;at client.go:408: calling [(*github.com/guild&#45;framework/guild&#45;core/pkg/gerror.GuildError).WithDetails]&#10;at client.go:409: calling [(*github.com/guild&#45;framework/guild&#45;core/pkg/gerror.GuildError).WithDetails]">
<path fill="lightblue" stroke="black" stroke-width="0.5" d="M760.24,-229C760.24,-229 599.95,-229 599.95,-229 593.95,-229 587.95,-223 587.95,-217 587.95,-217 587.95,-205 587.95,-205 587.95,-199 593.95,-193 599.95,-193 599.95,-193 760.24,-193 760.24,-193 766.24,-193 772.24,-199 772.24,-205 772.24,-205 772.24,-217 772.24,-217 772.24,-223 766.24,-229 760.24,-229"/>
<text xml:space="preserve" text-anchor="middle" x="680.1" y="-206.32" font-family="Verdana" font-size="14.00">(*Client).makeRequest</text>
</a>
</g>
</g>
<!-- (*github.com/guild&#45;framework/guild&#45;core/pkg/providers/ollama.Client).makeRequest&#45;&gt;github.com/guild&#45;framework/guild&#45;core/pkg/gerror.Newf -->
<g id="edge11" class="edge">
<title>(*github.com/guild&#45;framework/guild&#45;core/pkg/providers/ollama.Client).makeRequest&#45;&gt;github.com/guild&#45;framework/guild&#45;core/pkg/gerror.Newf</title>
<g id="a_edge11"><a xlink:title="at client.go:404: calling [github.com/guild&#45;framework/guild&#45;core/pkg/gerror.Newf]">
<path fill="none" stroke="saddlebrown" d="M772.38,-205.45C832.44,-201.8 908.1,-197.21 953.61,-194.44"/>
<polygon fill="saddlebrown" stroke="saddlebrown" points="953.77,-197.94 963.54,-193.84 953.35,-190.95 953.77,-197.94"/>
</a>
</g>
</g>
<!-- (*github.com/guild&#45;framework/guild&#45;core/pkg/providers/ollama.Client).makeRequest&#45;&gt;(*github.com/guild&#45;framework/guild&#45;core/pkg/gerror.GuildError).WithComponent -->
<g id="edge2" class="edge">
<title>(*github.com/guild&#45;framework/guild&#45;core/pkg/providers/ollama.Client).makeRequest&#45;&gt;(*github.com/guild&#45;framework/guild&#45;core/pkg/gerror.GuildError).WithComponent</title>
<g id="a_edge2"><a xlink:title="at client.go:405: calling [(*github.com/guild&#45;framework/guild&#45;core/pkg/gerror.GuildError).WithComponent]">
<path fill="none" stroke="saddlebrown" d="M750.83,-192.86C786.62,-183.57 830.94,-172.12 870.62,-162 882.76,-158.9 895.59,-155.65 908.19,-152.47"/>
<polygon fill="saddlebrown" stroke="saddlebrown" points="908.88,-155.9 917.72,-150.06 907.16,-149.12 908.88,-155.9"/>
</a>
</g>
</g>
<!-- (*github.com/guild&#45;framework/guild&#45;core/pkg/providers/ollama.Client).makeRequest&#45;&gt;(*github.com/guild&#45;framework/guild&#45;core/pkg/gerror.GuildError).WithOperation -->
<g id="edge15" class="edge">
<title>(*github.com/guild&#45;framework/guild&#45;core/pkg/providers/ollama.Client).makeRequest&#45;&gt;(*github.com/guild&#45;framework/guild&#45;core/pkg/gerror.GuildError).WithOperation</title>
<g id="a_edge15"><a xlink:title="at client.go:406: calling [(*github.com/guild&#45;framework/guild&#45;core/pkg/gerror.GuildError).WithOperation]">
<path fill="none" stroke="saddlebrown" d="M772.38,-223.26C803.63,-227.46 839.11,-232.23 872.36,-236.69"/>
<polygon fill="saddlebrown" stroke="saddlebrown" points="871.67,-240.13 882.05,-237.99 872.6,-233.19 871.67,-240.13"/>
</a>
</g>
</g>
<!-- (*github.com/guild&#45;framework/guild&#45;core/pkg/providers/ollama.Client).makeRequest&#45;&gt;(*github.com/guild&#45;framework/guild&#45;core/pkg/gerror.GuildError).WithDetails -->
<g id="edge16" class="edge">
<title>(*github.com/guild&#45;framework/guild&#45;core/pkg/providers/ollama.Client).makeRequest&#45;&gt;(*github.com/guild&#45;framework/guild&#45;core/pkg/gerror.GuildError).WithDetails</title>
<g id="a_edge16"><a xlink:title="at client.go:407: calling [(*github.com/guild&#45;framework/guild&#45;core/pkg/gerror.GuildError).WithDetails]&#10;at client.go:408: calling [(*github.com/guild&#45;framework/guild&#45;core/pkg/gerror.GuildError).WithDetails]&#10;at client.go:409: calling [(*github.com/guild&#45;framework/guild&#45;core/pkg/gerror.GuildError).WithDetails]">
<path fill="none" stroke="saddlebrown" d="M708.81,-229.13C739.82,-248.51 792.23,-278.51 841.62,-294 854.86,-298.15 869.01,-301.44 883.15,-304.05"/>
<polygon fill="saddlebrown" stroke="saddlebrown" points="882.53,-307.5 892.98,-305.74 883.72,-300.6 882.53,-307.5"/>
</a>
</g>
</g>
<!-- (*github.com/guild&#45;framework/guild&#45;core/pkg/providers/ollama.Client).ChatCompletion -->
<g id="node5" class="node">
<title>(*github.com/guild&#45;framework/guild&#45;core/pkg/providers/ollama.Client).ChatCompletion</title>
<g id="a_node5"><a xlink:title="(*github.com/guild&#45;framework/guild&#45;core/pkg/providers/ollama.Client).ChatCompletion | defined in client.go:109&#10;at client.go:170: calling [(*github.com/guild&#45;framework/guild&#45;core/pkg/gerror.GuildError).WithOperation]&#10;at client.go:171: calling [(*github.com/guild&#45;framework/guild&#45;core/pkg/gerror.GuildError).WithDetails]&#10;at client.go:168: calling [github.com/guild&#45;framework/guild&#45;core/pkg/gerror.Wrap]&#10;at client.go:169: calling [(*github.com/guild&#45;framework/guild&#45;core/pkg/gerror.GuildError).WithComponent]&#10;at client.go:145: calling [(*github.com/guild&#45;framework/guild&#45;core/pkg/providers/ollama.Client).makeRequest]">
<path fill="lightblue" stroke="black" stroke-width="1.5" d="M462.45,-389C462.45,-389 286.41,-389 286.41,-389 280.41,-389 274.41,-383 274.41,-377 274.41,-377 274.41,-365 274.41,-365 274.41,-359 280.41,-353 286.41,-353 286.41,-353 462.45,-353 462.45,-353 468.45,-353 474.45,-359 474.45,-365 474.45,-365 474.45,-377 474.45,-377 474.45,-383 468.45,-389 462.45,-389"/>
<text xml:space="preserve" text-anchor="middle" x="374.43" y="-366.32" font-family="Verdana" font-size="14.00">(*Client).ChatCompletion</text>
</a>
</g>
</g>
<!-- (*github.com/guild&#45;framework/guild&#45;core/pkg/providers/ollama.Client).ChatCompletion&#45;&gt;(*github.com/guild&#45;framework/guild&#45;core/pkg/providers/ollama.Client).makeRequest -->
<g id="edge21" class="edge">
<title>(*github.com/guild&#45;framework/guild&#45;core/pkg/providers/ollama.Client).ChatCompletion&#45;&gt;(*github.com/guild&#45;framework/guild&#45;core/pkg/providers/ollama.Client).makeRequest</title>
<g id="a_edge21"><a xlink:title="at client.go:145: calling [(*github.com/guild&#45;framework/guild&#45;core/pkg/providers/ollama.Client).makeRequest]">
<path fill="none" stroke="black" d="M417.9,-352.33C437.47,-343.49 460.88,-332.57 481.58,-322 537.01,-293.69 599.37,-257.97 638.93,-234.82"/>
<polygon fill="black" stroke="black" points="640.56,-237.92 647.41,-229.84 637.02,-231.88 640.56,-237.92"/>
</a>
</g>
</g>
<!-- (*github.com/guild&#45;framework/guild&#45;core/pkg/providers/ollama.Client).ChatCompletion&#45;&gt;(*github.com/guild&#45;framework/guild&#45;core/pkg/gerror.GuildError).WithComponent -->
<g id="edge18" class="edge">
<title>(*github.com/guild&#45;framework/guild&#45;core/pkg/providers/ollama.Client).ChatCompletion&#45;&gt;(*github.com/guild&#45;framework/guild&#45;core/pkg/gerror.GuildError).WithComponent</title>
<g id="a_edge18"><a xlink:title="at client.go:169: calling [(*github.com/guild&#45;framework/guild&#45;core/pkg/gerror.GuildError).WithComponent]">
<path fill="none" stroke="saddlebrown" d="M437.69,-352.29C453.72,-344.99 469.77,-335.13 481.58,-322 549.09,-246.99 472.55,-165.78 554.58,-107 606.02,-70.14 774.92,-91.07 887.64,-110.4"/>
<polygon fill="saddlebrown" stroke="saddlebrown" points="886.77,-113.81 897.22,-112.07 887.97,-106.91 886.77,-113.81"/>
</a>
</g>
</g>
<!-- (*github.com/guild&#45;framework/guild&#45;core/pkg/providers/ollama.Client).ChatCompletion&#45;&gt;(*github.com/guild&#45;framework/guild&#45;core/pkg/gerror.GuildError).WithOperation -->
<g id="edge3" class="edge">
<title>(*github.com/guild&#45;framework/guild&#45;core/pkg/providers/ollama.Client).ChatCompletion&#45;&gt;(*github.com/guild&#45;framework/guild&#45;core/pkg/gerror.GuildError).WithOperation</title>
<g id="a_edge3"><a xlink:title="at client.go:170: calling [(*github.com/guild&#45;framework/guild&#45;core/pkg/gerror.GuildError).WithOperation]">
<path fill="none" stroke="saddlebrown" d="M473.41,-352.3C585.41,-330.93 768.23,-296.04 884.68,-273.82"/>
<polygon fill="saddlebrown" stroke="saddlebrown" points="885.08,-277.3 894.25,-271.99 883.77,-270.43 885.08,-277.3"/>
</a>
</g>
</g>
<!-- (*github.com/guild&#45;framework/guild&#45;core/pkg/providers/ollama.Client).ChatCompletion&#45;&gt;(*github.com/guild&#45;framework/guild&#45;core/pkg/gerror.GuildError).WithDetails -->
<g id="edge4" class="edge">
<title>(*github.com/guild&#45;framework/guild&#45;core/pkg/providers/ollama.Client).ChatCompletion&#45;&gt;(*github.com/guild&#45;framework/guild&#45;core/pkg/gerror.GuildError).WithDetails</title>
<g id="a_edge4"><a xlink:title="at client.go:171: calling [(*github.com/guild&#45;framework/guild&#45;core/pkg/gerror.GuildError).WithDetails]">
<path fill="none" stroke="saddlebrown" d="M430.26,-389.68C456.68,-396.92 488.98,-403.23 518.58,-402 662.97,-395.99 712.58,-438.05 842.62,-375 859.03,-367.04 854.91,-354.27 870.62,-345 875.59,-342.06 880.84,-339.4 886.25,-336.99"/>
<polygon fill="saddlebrown" stroke="saddlebrown" points="887.5,-340.26 895.43,-333.24 884.85,-333.79 887.5,-340.26"/>
</a>
</g>
</g>
<!-- github.com/guild&#45;framework/guild&#45;core/pkg/gerror.Wrap -->
<g id="node16" class="node">
<title>github.com/guild&#45;framework/guild&#45;core/pkg/gerror.Wrap</title>
<g id="a_node16"><a xlink:title="github.com/guild&#45;framework/guild&#45;core/pkg/gerror.Wrap | defined in errors.go:223">
<path fill="moccasin" stroke="black" stroke-width="1.5" d="M1012.66,-393C1012.66,-393 976.87,-393 976.87,-393 970.87,-393 964.87,-387 964.87,-381 964.87,-381 964.87,-369 964.87,-369 964.87,-363 970.87,-357 976.87,-357 976.87,-357 1012.66,-357 1012.66,-357 1018.66,-357 1024.66,-363 1024.66,-369 1024.66,-369 1024.66,-381 1024.66,-381 1024.66,-387 1018.66,-393 1012.66,-393"/>
<text xml:space="preserve" text-anchor="middle" x="994.76" y="-370.32" font-family="Verdana" font-size="14.00">Wrap</text>
</a>
</g>
</g>
<!-- (*github.com/guild&#45;framework/guild&#45;core/pkg/providers/ollama.Client).ChatCompletion&#45;&gt;github.com/guild&#45;framework/guild&#45;core/pkg/gerror.Wrap -->
<g id="edge17" class="edge">
<title>(*github.com/guild&#45;framework/guild&#45;core/pkg/providers/ollama.Client).ChatCompletion&#45;&gt;github.com/guild&#45;framework/guild&#45;core/pkg/gerror.Wrap</title>
<g id="a_edge17"><a xlink:title="at client.go:168: calling [github.com/guild&#45;framework/guild&#45;core/pkg/gerror.Wrap]">
<path fill="none" stroke="saddlebrown" d="M451.8,-389.68C462.04,-393.23 472.22,-397.32 481.58,-402 499.47,-410.95 498.61,-422.68 517.58,-429 654.63,-474.68 700.28,-453.66 842.62,-429 881.62,-422.24 923.88,-406.36 953.77,-393.55"/>
<polygon fill="saddlebrown" stroke="saddlebrown" points="955.04,-396.82 962.81,-389.61 952.24,-390.4 955.04,-396.82"/>
</a>
</g>
</g>
<!-- (*github.com/guild&#45;framework/guild&#45;core/pkg/providers/ollama.Client).CreateEmbedding -->
<g id="node6" class="node">
<title>(*github.com/guild&#45;framework/guild&#45;core/pkg/providers/ollama.Client).CreateEmbedding</title>
<g id="a_node6"><a xlink:title="(*github.com/guild&#45;framework/guild&#45;core/pkg/providers/ollama.Client).CreateEmbedding | defined in client.go:248&#10;at client.go:251: calling [github.com/guild&#45;framework/guild&#45;core/pkg/gerror.New]&#10;at client.go:252: calling [(*github.com/guild&#45;framework/guild&#45;core/pkg/gerror.GuildError).WithComponent]&#10;at client.go:276: calling [(*github.com/guild&#45;framework/guild&#45;core/pkg/gerror.GuildError).WithComponent]&#10;at client.go:253: calling [(*github.com/guild&#45;framework/guild&#45;core/pkg/gerror.GuildError).WithOperation]&#10;at client.go:277: calling [(*github.com/guild&#45;framework/guild&#45;core/pkg/gerror.GuildError).WithOperation]&#10;at client.go:275: calling [github.com/guild&#45;framework/guild&#45;core/pkg/gerror.Wrap]&#10;at client.go:265: calling [(*github.com/guild&#45;framework/guild&#45;core/pkg/providers/ollama.Client).makeRequest]&#10;at client.go:254: calling [(*github.com/guild&#45;framework/guild&#45;core/pkg/gerror.GuildError).WithDetails]&#10;at client.go:278: calling [(*github.com/guild&#45;framework/guild&#45;core/pkg/gerror.GuildError).WithDetails]">
<path fill="lightblue" stroke="black" stroke-width="1.5" d="M469.58,-210C469.58,-210 279.29,-210 279.29,-210 273.29,-210 267.29,-204 267.29,-198 267.29,-198 267.29,-186 267.29,-186 267.29,-180 273.29,-174 279.29,-174 279.29,-174 469.58,-174 469.58,-174 475.58,-174 481.58,-180 481.58,-186 481.58,-186 481.58,-198 481.58,-198 481.58,-204 475.58,-210 469.58,-210"/>
<text xml:space="preserve" text-anchor="middle" x="374.43" y="-187.32" font-family="Verdana" font-size="14.00">(*Client).CreateEmbedding</text>
</a>
</g>
</g>
<!-- (*github.com/guild&#45;framework/guild&#45;core/pkg/providers/ollama.Client).CreateEmbedding&#45;&gt;(*github.com/guild&#45;framework/guild&#45;core/pkg/providers/ollama.Client).makeRequest -->
<g id="edge19" class="edge">
<title>(*github.com/guild&#45;framework/guild&#45;core/pkg/providers/ollama.Client).CreateEmbedding&#45;&gt;(*github.com/guild&#45;framework/guild&#45;core/pkg/providers/ollama.Client).makeRequest</title>
<g id="a_edge19"><a xlink:title="at client.go:265: calling [(*github.com/guild&#45;framework/guild&#45;core/pkg/providers/ollama.Client).makeRequest]">
<path fill="none" stroke="black" d="M482.07,-198.67C512.68,-200.59 545.99,-202.67 576.36,-204.57"/>
<polygon fill="black" stroke="black" points="576.13,-208.06 586.33,-205.2 576.57,-201.08 576.13,-208.06"/>
</a>
</g>
</g>
<!-- (*github.com/guild&#45;framework/guild&#45;core/pkg/providers/ollama.Client).CreateEmbedding&#45;&gt;(*github.com/guild&#45;framework/guild&#45;core/pkg/gerror.GuildError).WithComponent -->
<g id="edge6" class="edge">
<title>(*github.com/guild&#45;framework/guild&#45;core/pkg/providers/ollama.Client).CreateEmbedding&#45;&gt;(*github.com/guild&#45;framework/guild&#45;core/pkg/gerror.GuildError).WithComponent</title>
<g id="a_edge6"><a xlink:title="at client.go:252: calling [(*github.com/guild&#45;framework/guild&#45;core/pkg/gerror.GuildError).WithComponent]&#10;at client.go:276: calling [(*github.com/guild&#45;framework/guild&#45;core/pkg/gerror.GuildError).WithComponent]">
<path fill="none" stroke="saddlebrown" d="M394.29,-173.3C424.84,-144.44 488.46,-90.15 554.58,-69 676.53,-30 727.98,-6.99 842.62,-64 861.09,-73.18 853.38,-89.68 870.62,-101 874.29,-103.41 878.14,-105.63 882.11,-107.67"/>
<polygon fill="saddlebrown" stroke="saddlebrown" points="880.31,-110.69 890.85,-111.74 883.27,-104.34 880.31,-110.69"/>
</a>
</g>
</g>
<!-- (*github.com/guild&#45;framework/guild&#45;core/pkg/providers/ollama.Client).CreateEmbedding&#45;&gt;(*github.com/guild&#45;framework/guild&#45;core/pkg/gerror.GuildError).WithOperation -->
<g id="edge7" class="edge">
<title>(*github.com/guild&#45;framework/guild&#45;core/pkg/providers/ollama.Client).CreateEmbedding&#45;&gt;(*github.com/guild&#45;framework/guild&#45;core/pkg/gerror.GuildError).WithOperation</title>
<g id="a_edge7"><a xlink:title="at client.go:253: calling [(*github.com/guild&#45;framework/guild&#45;core/pkg/gerror.GuildError).WithOperation]&#10;at client.go:277: calling [(*github.com/guild&#45;framework/guild&#45;core/pkg/gerror.GuildError).WithOperation]">
<path fill="none" stroke="saddlebrown" d="M428.77,-210.63C464.01,-221.99 511.47,-235.55 554.58,-242 661.17,-257.96 783.9,-259.65 872.48,-257.96"/>
<polygon fill="saddlebrown" stroke="saddlebrown" points="872.48,-261.46 882.41,-257.76 872.34,-254.47 872.48,-261.46"/>
</a>
</g>
</g>
<!-- (*github.com/guild&#45;framework/guild&#45;core/pkg/providers/ollama.Client).CreateEmbedding&#45;&gt;(*github.com/guild&#45;framework/guild&#45;core/pkg/gerror.GuildError).WithDetails -->
<g id="edge22" class="edge">
<title>(*github.com/guild&#45;framework/guild&#45;core/pkg/providers/ollama.Client).CreateEmbedding&#45;&gt;(*github.com/guild&#45;framework/guild&#45;core/pkg/gerror.GuildError).WithDetails</title>
<g id="a_edge22"><a xlink:title="at client.go:254: calling [(*github.com/guild&#45;framework/guild&#45;core/pkg/gerror.GuildError).WithDetails]&#10;at client.go:278: calling [(*github.com/guild&#45;framework/guild&#45;core/pkg/gerror.GuildError).WithDetails]">
<path fill="none" stroke="saddlebrown" d="M419.22,-210.62C455.03,-225.18 507.3,-244.92 554.58,-257 679.63,-288.94 713.46,-285.72 841.62,-301 855.12,-302.61 869.32,-304.1 883.39,-305.44"/>
<polygon fill="saddlebrown" stroke="saddlebrown" points="882.85,-308.91 893.13,-306.35 883.5,-301.94 882.85,-308.91"/>
</a>
</g>
</g>
<!-- (*github.com/guild&#45;framework/guild&#45;core/pkg/providers/ollama.Client).CreateEmbedding&#45;&gt;github.com/guild&#45;framework/guild&#45;core/pkg/gerror.Wrap -->
<g id="edge8" class="edge">
<title>(*github.com/guild&#45;framework/guild&#45;core/pkg/providers/ollama.Client).CreateEmbedding&#45;&gt;github.com/guild&#45;framework/guild&#45;core/pkg/gerror.Wrap</title>
<g id="a_edge8"><a xlink:title="at client.go:275: calling [github.com/guild&#45;framework/guild&#45;core/pkg/gerror.Wrap]">
<path fill="none" stroke="saddlebrown" d="M405.37,-210.58C440.06,-231.33 499.52,-264.56 554.58,-284 696.36,-334.05 874.11,-360.37 952.92,-370.28"/>
<polygon fill="saddlebrown" stroke="saddlebrown" points="952.4,-373.74 962.75,-371.49 953.25,-366.8 952.4,-373.74"/>
</a>
</g>
</g>
<!-- github.com/guild&#45;framework/guild&#45;core/pkg/gerror.New -->
<g id="node17" class="node">
<title>github.com/guild&#45;framework/guild&#45;core/pkg/gerror.New</title>
<g id="a_node17"><a xlink:title="github.com/guild&#45;framework/guild&#45;core/pkg/gerror.New | defined in errors.go:190">
<path fill="moccasin" stroke="black" stroke-width="1.5" d="M1009.76,-88C1009.76,-88 979.76,-88 979.76,-88 973.76,-88 967.76,-82 967.76,-76 967.76,-76 967.76,-64 967.76,-64 967.76,-58 973.76,-52 979.76,-52 979.76,-52 1009.76,-52 1009.76,-52 1015.76,-52 1021.76,-58 1021.76,-64 1021.76,-64 1021.76,-76 1021.76,-76 1021.76,-82 1015.76,-88 1009.76,-88"/>
<text xml:space="preserve" text-anchor="middle" x="994.76" y="-65.33" font-family="Verdana" font-size="14.00">New</text>
</a>
</g>
</g>
<!-- (*github.com/guild&#45;framework/guild&#45;core/pkg/providers/ollama.Client).CreateEmbedding&#45;&gt;github.com/guild&#45;framework/guild&#45;core/pkg/gerror.New -->
<g id="edge5" class="edge">
<title>(*github.com/guild&#45;framework/guild&#45;core/pkg/providers/ollama.Client).CreateEmbedding&#45;&gt;github.com/guild&#45;framework/guild&#45;core/pkg/gerror.New</title>
<g id="a_edge5"><a xlink:title="at client.go:251: calling [github.com/guild&#45;framework/guild&#45;core/pkg/gerror.New]">
<path fill="none" stroke="saddlebrown" d="M393.62,-173.47C435.09,-131.45 534.61,-31.9 554.58,-24 694.72,31.43 878.61,-25.39 956.42,-54.76"/>
<polygon fill="saddlebrown" stroke="saddlebrown" points="955.11,-58 965.7,-58.33 957.62,-51.47 955.11,-58"/>
</a>
</g>
</g>
<!-- (*github.com/guild&#45;framework/guild&#45;core/pkg/providers/ollama.Client).PullModel -->
<g id="node7" class="node">
<title>(*github.com/guild&#45;framework/guild&#45;core/pkg/providers/ollama.Client).PullModel</title>
<g id="a_node7"><a xlink:title="(*github.com/guild&#45;framework/guild&#45;core/pkg/providers/ollama.Client).PullModel | defined in client.go:303&#10;at client.go:318: calling [(*github.com/guild&#45;framework/guild&#45;core/pkg/providers/ollama.Client).PullModel$1]">
<path fill="lightblue" stroke="black" stroke-width="1.5" d="M170.66,-309C170.66,-309 39.62,-309 39.62,-309 33.62,-309 27.62,-303 27.62,-297 27.62,-297 27.62,-285 27.62,-285 27.62,-279 33.62,-273 39.62,-273 39.62,-273 170.66,-273 170.66,-273 176.66,-273 182.66,-279 182.66,-285 182.66,-285 182.66,-297 182.66,-297 182.66,-303 176.66,-309 170.66,-309"/>
<text xml:space="preserve" text-anchor="middle" x="105.14" y="-286.32" font-family="Verdana" font-size="14.00">(*Client).PullModel</text>
</a>
</g>
</g>
<!-- (*github.com/guild&#45;framework/guild&#45;core/pkg/providers/ollama.Client).PullModel$1 -->
<g id="node8" class="node">
<title>(*github.com/guild&#45;framework/guild&#45;core/pkg/providers/ollama.Client).PullModel$1</title>
<g id="a_node8"><a xlink:title="(*github.com/guild&#45;framework/guild&#45;core/pkg/providers/ollama.Client).PullModel$1 | defined in client.go:318">
<polygon fill="lightblue" stroke="black" stroke-dasharray="1,5" points="460.95,-309 287.91,-309 287.91,-273 460.95,-273 460.95,-309"/>
<text xml:space="preserve" text-anchor="middle" x="374.43" y="-286.32" font-family="Verdana" font-size="14.00">(*Client).PullModel$1</text>
</a>
</g>
</g>
<!-- (*github.com/guild&#45;framework/guild&#45;core/pkg/providers/ollama.Client).PullModel&#45;&gt;(*github.com/guild&#45;framework/guild&#45;core/pkg/providers/ollama.Client).PullModel$1 -->
<g id="edge20" class="edge">
<title>(*github.com/guild&#45;framework/guild&#45;core/pkg/providers/ollama.Client).PullModel&#45;&gt;(*github.com/guild&#45;framework/guild&#45;core/pkg/providers/ollama.Client).PullModel$1</title>
<g id="a_edge20"><a xlink:title="at client.go:318: calling [(*github.com/guild&#45;framework/guild&#45;core/pkg/providers/ollama.Client).PullModel$1]">
<path fill="none" stroke="black" d="M183.1,-291C206.6,-291 232.97,-291 258.42,-291"/>
<polygon fill="black" stroke="black" points="276.13,-294.5 286.13,-291 276.13,-287.5 276.13,-294.5"/>
<polyline fill="none" stroke="black" points="275.63,-291 270.63,-291"/>
<polygon fill="none" stroke="black" points="257.73,-291 263.73,-287 269.73,-291 263.73,-295 257.73,-291"/>
</a>
</g>
</g>
<!-- (*github.com/guild&#45;framework/guild&#45;core/pkg/providers/ollama.Client).Complete -->
<g id="node9" class="node">
<title>(*github.com/guild&#45;framework/guild&#45;core/pkg/providers/ollama.Client).Complete</title>
<g id="a_node9"><a xlink:title="(*github.com/guild&#45;framework/guild&#45;core/pkg/providers/ollama.Client).Complete | defined in client.go:476&#10;at client.go:484: calling [(*github.com/guild&#45;framework/guild&#45;core/pkg/providers/ollama.Client).ChatCompletion]">
<path fill="lightblue" stroke="black" stroke-width="1.5" d="M170.66,-389C170.66,-389 39.62,-389 39.62,-389 33.62,-389 27.62,-383 27.62,-377 27.62,-377 27.62,-365 27.62,-365 27.62,-359 33.62,-353 39.62,-353 39.62,-353 170.66,-353 170.66,-353 176.66,-353 182.66,-359 182.66,-365 182.66,-365 182.66,-377 182.66,-377 182.66,-383 176.66,-389 170.66,-389"/>
<text xml:space="preserve" text-anchor="middle" x="105.14" y="-366.32" font-family="Verdana" font-size="14.00">(*Client).Complete</text>
</a>
</g>
</g>
<!-- (*github.com/guild&#45;framework/guild&#45;core/pkg/providers/ollama.Client).Complete&#45;&gt;(*github.com/guild&#45;framework/guild&#45;core/pkg/providers/ollama.Client).ChatCompletion -->
<g id="edge12" class="edge">
<title>(*github.com/guild&#45;framework/guild&#45;core/pkg/providers/ollama.Client).Complete&#45;&gt;(*github.com/guild&#45;framework/guild&#45;core/pkg/providers/ollama.Client).ChatCompletion</title>
<g id="a_edge12"><a xlink:title="at client.go:484: calling [(*github.com/guild&#45;framework/guild&#45;core/pkg/providers/ollama.Client).ChatCompletion]">
<path fill="none" stroke="black" d="M183.1,-371C207.93,-371 235.96,-371 262.73,-371"/>
<polygon fill="black" stroke="black" points="262.6,-374.5 272.6,-371 262.6,-367.5 262.6,-374.5"/>
</a>
</g>
</g>
<!-- (*github.com/guild&#45;framework/guild&#45;core/pkg/providers/ollama.Client).ListModels -->
<g id="node10" class="node">
<title>(*github.com/guild&#45;framework/guild&#45;core/pkg/providers/ollama.Client).ListModels</title>
<g id="a_node10"><a xlink:title="(*github.com/guild&#45;framework/guild&#45;core/pkg/providers/ollama.Client).ListModels | defined in client.go:341&#10;at client.go:351: calling [(*github.com/guild&#45;framework/guild&#45;core/pkg/providers/ollama.Client).ListModels$1]">
<path fill="lightblue" stroke="black" stroke-width="1.5" d="M174.04,-450C174.04,-450 36.25,-450 36.25,-450 30.25,-450 24.25,-444 24.25,-438 24.25,-438 24.25,-426 24.25,-426 24.25,-420 30.25,-414 36.25,-414 36.25,-414 174.04,-414 174.04,-414 180.04,-414 186.04,-420 186.04,-426 186.04,-426 186.04,-438 186.04,-438 186.04,-444 180.04,-450 174.04,-450"/>
<text xml:space="preserve" text-anchor="middle" x="105.14" y="-427.32" font-family="Verdana" font-size="14.00">(*Client).ListModels</text>
</a>
</g>
</g>
<!-- (*github.com/guild&#45;framework/guild&#45;core/pkg/providers/ollama.Client).ListModels$1 -->
<g id="node11" class="node">
<title>(*github.com/guild&#45;framework/guild&#45;core/pkg/providers/ollama.Client).ListModels$1</title>
<g id="a_node11"><a xlink:title="(*github.com/guild&#45;framework/guild&#45;core/pkg/providers/ollama.Client).ListModels$1 | defined in client.go:351">
<polygon fill="lightblue" stroke="black" stroke-dasharray="1,5" points="464.33,-450 284.54,-450 284.54,-414 464.33,-414 464.33,-450"/>
<text xml:space="preserve" text-anchor="middle" x="374.43" y="-427.32" font-family="Verdana" font-size="14.00">(*Client).ListModels$1</text>
</a>
</g>
</g>
<!-- (*github.com/guild&#45;framework/guild&#45;core/pkg/providers/ollama.Client).ListModels&#45;&gt;(*github.com/guild&#45;framework/guild&#45;core/pkg/providers/ollama.Client).ListModels$1 -->
<g id="edge23" class="edge">
<title>(*github.com/guild&#45;framework/guild&#45;core/pkg/providers/ollama.Client).ListModels&#45;&gt;(*github.com/guild&#45;framework/guild&#45;core/pkg/providers/ollama.Client).ListModels$1</title>
<g id="a_edge23"><a xlink:title="at client.go:351: calling [(*github.com/guild&#45;framework/guild&#45;core/pkg/providers/ollama.Client).ListModels$1]">
<path fill="none" stroke="black" d="M186.7,-432C208.2,-432 231.88,-432 254.96,-432"/>
<polygon fill="black" stroke="black" points="272.66,-435.5 282.66,-432 272.66,-428.5 272.66,-435.5"/>
<polyline fill="none" stroke="black" points="272.16,-432 267.16,-432"/>
<polygon fill="none" stroke="black" points="254.26,-432 260.26,-428 266.26,-432 260.26,-436 254.26,-432"/>
</a>
</g>
</g>
</g>
</svg>
