<?xml version="1.0" encoding="UTF-8" standalone="no"?>
<!DOCTYPE svg PUBLIC "-//W3C//DTD SVG 1.1//EN"
 "http://www.w3.org/Graphics/SVG/1.1/DTD/svg11.dtd">
<!-- Generated by graphviz version 14.1.1 (20251213.1925)
 -->
<!-- Title: gocallvis Pages: 1 -->
<svg width="567pt" height="468pt"
 viewBox="0.00 0.00 567.00 468.00" xmlns="http://www.w3.org/2000/svg" xmlns:xlink="http://www.w3.org/1999/xlink">
<g id="graph0" class="graph" transform="scale(1 1) rotate(0) translate(0 468)">
<title>gocallvis</title>
<polygon fill="lightgray" stroke="none" points="0,0 0,-468 567.08,-468 567.08,0 0,0"/>
<g id="clust1" class="cluster">
<title>cluster_focus</title>
<polygon fill="#e6ecfa" stroke="black" stroke-width="0.5" points="8,-8 8,-460 559.08,-460 559.08,-8 8,-8"/>
<text xml:space="preserve" text-anchor="middle" x="283.54" y="-438.9" font-family="Arial" font-size="18.00">protocol</text>
</g>
<g id="clust2" class="cluster">
<title>cluster_github.com/guild&#45;framework/guild&#45;core/pkg/gerror</title>
<g id="a_clust2"><a xlink:href="/?f=github.com/guild-framework/guild-core/pkg/gerror" xlink:title="package: github.com/guild&#45;framework/guild&#45;core/pkg/gerror">
<polygon fill="lightyellow" stroke="black" stroke-width="0.8" points="302.79,-146 302.79,-348 551.08,-348 551.08,-146 302.79,-146"/>
<text xml:space="preserve" text-anchor="middle" x="426.93" y="-328.8" font-family="Tahoma bold" font-size="16.00">gerror</text>
</a>
</g>
</g>
<!-- (*github.com/guild&#45;framework/guild&#45;core/pkg/mcp/protocol.Codec).EncodeNotification -->
<g id="node1" class="node">
<title>(*github.com/guild&#45;framework/guild&#45;core/pkg/mcp/protocol.Codec).EncodeNotification</title>
<g id="a_node1"><a xlink:title="(*github.com/guild&#45;framework/guild&#45;core/pkg/mcp/protocol.Codec).EncodeNotification | defined in jsonrpc.go:118&#10;at jsonrpc.go:123: calling [(*github.com/guild&#45;framework/guild&#45;core/pkg/gerror.GuildError).WithOperation]&#10;at jsonrpc.go:121: calling [github.com/guild&#45;framework/guild&#45;core/pkg/gerror.Wrap]&#10;at jsonrpc.go:122: calling [(*github.com/guild&#45;framework/guild&#45;core/pkg/gerror.GuildError).WithComponent]">
<path fill="lightblue" stroke="black" stroke-width="1.5" d="M225.79,-332C225.79,-332 28,-332 28,-332 22,-332 16,-326 16,-320 16,-320 16,-308 16,-308 16,-302 22,-296 28,-296 28,-296 225.79,-296 225.79,-296 231.79,-296 237.79,-302 237.79,-308 237.79,-308 237.79,-320 237.79,-320 237.79,-326 231.79,-332 225.79,-332"/>
<text xml:space="preserve" text-anchor="middle" x="126.89" y="-309.32" font-family="Verdana" font-size="14.00">(*Codec).EncodeNotification</text>
</a>
</g>
</g>
<!-- github.com/guild&#45;framework/guild&#45;core/pkg/gerror.Wrap -->
<g id="node8" class="node">
<title>github.com/guild&#45;framework/guild&#45;core/pkg/gerror.Wrap</title>
<g id="a_node8"><a xlink:title="github.com/guild&#45;framework/guild&#45;core/pkg/gerror.Wrap | defined in errors.go:223">
<path fill="moccasin" stroke="black" stroke-width="1.5" d="M444.83,-312C444.83,-312 409.04,-312 409.04,-312 403.04,-312 397.04,-306 397.04,-300 397.04,-300 397.04,-288 397.04,-288 397.04,-282 403.04,-276 409.04,-276 409.04,-276 444.83,-276 444.83,-276 450.83,-276 456.83,-282 456.83,-288 456.83,-288 456.83,-300 456.83,-300 456.83,-306 450.83,-312 444.83,-312"/>
<text xml:space="preserve" text-anchor="middle" x="426.93" y="-289.32" font-family="Verdana" font-size="14.00">Wrap</text>
</a>
</g>
</g>
<!-- (*github.com/guild&#45;framework/guild&#45;core/pkg/mcp/protocol.Codec).EncodeNotification&#45;&gt;github.com/guild&#45;framework/guild&#45;core/pkg/gerror.Wrap -->
<g id="edge11" class="edge">
<title>(*github.com/guild&#45;framework/guild&#45;core/pkg/mcp/protocol.Codec).EncodeNotification&#45;&gt;github.com/guild&#45;framework/guild&#45;core/pkg/gerror.Wrap</title>
<g id="a_edge11"><a xlink:title="at jsonrpc.go:121: calling [github.com/guild&#45;framework/guild&#45;core/pkg/gerror.Wrap]">
<path fill="none" stroke="saddlebrown" d="M238.25,-322.5C250.59,-322.48 262.96,-322.05 274.79,-321 312.58,-317.65 355.06,-309.68 385.35,-303.26"/>
<polygon fill="saddlebrown" stroke="saddlebrown" points="385.8,-306.75 394.84,-301.21 384.33,-299.9 385.8,-306.75"/>
</a>
</g>
</g>
<!-- (*github.com/guild&#45;framework/guild&#45;core/pkg/gerror.GuildError).WithComponent -->
<g id="node9" class="node">
<title>(*github.com/guild&#45;framework/guild&#45;core/pkg/gerror.GuildError).WithComponent</title>
<g id="a_node9"><a xlink:title="(*github.com/guild&#45;framework/guild&#45;core/pkg/gerror.GuildError).WithComponent | defined in errors.go:156">
<path fill="moccasin" stroke="black" stroke-width="1.5" d="M531.08,-190C531.08,-190 322.79,-190 322.79,-190 316.79,-190 310.79,-184 310.79,-178 310.79,-178 310.79,-166 310.79,-166 310.79,-160 316.79,-154 322.79,-154 322.79,-154 531.08,-154 531.08,-154 537.08,-154 543.08,-160 543.08,-166 543.08,-166 543.08,-178 543.08,-178 543.08,-184 537.08,-190 531.08,-190"/>
<text xml:space="preserve" text-anchor="middle" x="426.93" y="-167.32" font-family="Verdana" font-size="14.00">(*GuildError).WithComponent</text>
</a>
</g>
</g>
<!-- (*github.com/guild&#45;framework/guild&#45;core/pkg/mcp/protocol.Codec).EncodeNotification&#45;&gt;(*github.com/guild&#45;framework/guild&#45;core/pkg/gerror.GuildError).WithComponent -->
<g id="edge16" class="edge">
<title>(*github.com/guild&#45;framework/guild&#45;core/pkg/mcp/protocol.Codec).EncodeNotification&#45;&gt;(*github.com/guild&#45;framework/guild&#45;core/pkg/gerror.GuildError).WithComponent</title>
<g id="a_edge16"><a xlink:title="at jsonrpc.go:122: calling [(*github.com/guild&#45;framework/guild&#45;core/pkg/gerror.GuildError).WithComponent]">
<path fill="none" stroke="saddlebrown" d="M177.86,-295.36C197.32,-287.07 219.33,-276.37 237.79,-264 270.7,-241.95 268.02,-222 302.79,-203 308.43,-199.92 314.38,-197.14 320.5,-194.63"/>
<polygon fill="saddlebrown" stroke="saddlebrown" points="321.42,-198.02 329.52,-191.19 318.93,-191.48 321.42,-198.02"/>
</a>
</g>
</g>
<!-- (*github.com/guild&#45;framework/guild&#45;core/pkg/gerror.GuildError).WithOperation -->
<g id="node10" class="node">
<title>(*github.com/guild&#45;framework/guild&#45;core/pkg/gerror.GuildError).WithOperation</title>
<g id="a_node10"><a xlink:title="(*github.com/guild&#45;framework/guild&#45;core/pkg/gerror.GuildError).WithOperation | defined in errors.go:162">
<path fill="moccasin" stroke="black" stroke-width="1.5" d="M525.45,-251C525.45,-251 328.41,-251 328.41,-251 322.41,-251 316.41,-245 316.41,-239 316.41,-239 316.41,-227 316.41,-227 316.41,-221 322.41,-215 328.41,-215 328.41,-215 525.45,-215 525.45,-215 531.45,-215 537.45,-221 537.45,-227 537.45,-227 537.45,-239 537.45,-239 537.45,-245 531.45,-251 525.45,-251"/>
<text xml:space="preserve" text-anchor="middle" x="426.93" y="-228.32" font-family="Verdana" font-size="14.00">(*GuildError).WithOperation</text>
</a>
</g>
</g>
<!-- (*github.com/guild&#45;framework/guild&#45;core/pkg/mcp/protocol.Codec).EncodeNotification&#45;&gt;(*github.com/guild&#45;framework/guild&#45;core/pkg/gerror.GuildError).WithOperation -->
<g id="edge8" class="edge">
<title>(*github.com/guild&#45;framework/guild&#45;core/pkg/mcp/protocol.Codec).EncodeNotification&#45;&gt;(*github.com/guild&#45;framework/guild&#45;core/pkg/gerror.GuildError).WithOperation</title>
<g id="a_edge8"><a xlink:title="at jsonrpc.go:123: calling [(*github.com/guild&#45;framework/guild&#45;core/pkg/gerror.GuildError).WithOperation]">
<path fill="none" stroke="saddlebrown" d="M238.35,-307.39C251.04,-304.2 263.48,-299.86 274.79,-294 290.99,-285.62 287.08,-273.27 302.79,-264 307.76,-261.06 313.01,-258.4 318.42,-255.99"/>
<polygon fill="saddlebrown" stroke="saddlebrown" points="319.67,-259.26 327.6,-252.24 317.02,-252.79 319.67,-259.26"/>
</a>
</g>
</g>
<!-- (*github.com/guild&#45;framework/guild&#45;core/pkg/mcp/protocol.Codec).DecodeBatch -->
<g id="node2" class="node">
<title>(*github.com/guild&#45;framework/guild&#45;core/pkg/mcp/protocol.Codec).DecodeBatch</title>
<g id="a_node2"><a xlink:title="(*github.com/guild&#45;framework/guild&#45;core/pkg/mcp/protocol.Codec).DecodeBatch | defined in jsonrpc.go:231&#10;at jsonrpc.go:235: calling [(*github.com/guild&#45;framework/guild&#45;core/pkg/mcp/protocol.Codec).DecodeMessage]&#10;at jsonrpc.go:244: calling [(*github.com/guild&#45;framework/guild&#45;core/pkg/mcp/protocol.Codec).DecodeMessage]">
<path fill="lightblue" stroke="black" stroke-width="1.5" d="M206.66,-52C206.66,-52 47.13,-52 47.13,-52 41.12,-52 35.12,-46 35.12,-40 35.12,-40 35.12,-28 35.12,-28 35.12,-22 41.12,-16 47.12,-16 47.12,-16 206.66,-16 206.66,-16 212.66,-16 218.66,-22 218.66,-28 218.66,-28 218.66,-40 218.66,-40 218.66,-46 212.66,-52 206.66,-52"/>
<text xml:space="preserve" text-anchor="middle" x="126.89" y="-29.32" font-family="Verdana" font-size="14.00">(*Codec).DecodeBatch</text>
</a>
</g>
</g>
<!-- (*github.com/guild&#45;framework/guild&#45;core/pkg/mcp/protocol.Codec).DecodeMessage -->
<g id="node3" class="node">
<title>(*github.com/guild&#45;framework/guild&#45;core/pkg/mcp/protocol.Codec).DecodeMessage</title>
<g id="a_node3"><a xlink:title="(*github.com/guild&#45;framework/guild&#45;core/pkg/mcp/protocol.Codec).DecodeMessage | defined in jsonrpc.go:134">
<path fill="lightblue" stroke="black" stroke-width="1.5" d="M517.2,-52C517.2,-52 336.66,-52 336.66,-52 330.66,-52 324.66,-46 324.66,-40 324.66,-40 324.66,-28 324.66,-28 324.66,-22 330.66,-16 336.66,-16 336.66,-16 517.2,-16 517.2,-16 523.2,-16 529.2,-22 529.2,-28 529.2,-28 529.2,-40 529.2,-40 529.2,-46 523.2,-52 517.2,-52"/>
<text xml:space="preserve" text-anchor="middle" x="426.93" y="-29.32" font-family="Verdana" font-size="14.00">(*Codec).DecodeMessage</text>
</a>
</g>
</g>
<!-- (*github.com/guild&#45;framework/guild&#45;core/pkg/mcp/protocol.Codec).DecodeBatch&#45;&gt;(*github.com/guild&#45;framework/guild&#45;core/pkg/mcp/protocol.Codec).DecodeMessage -->
<g id="edge4" class="edge">
<title>(*github.com/guild&#45;framework/guild&#45;core/pkg/mcp/protocol.Codec).DecodeBatch&#45;&gt;(*github.com/guild&#45;framework/guild&#45;core/pkg/mcp/protocol.Codec).DecodeMessage</title>
<g id="a_edge4"><a xlink:title="at jsonrpc.go:235: calling [(*github.com/guild&#45;framework/guild&#45;core/pkg/mcp/protocol.Codec).DecodeMessage]&#10;at jsonrpc.go:244: calling [(*github.com/guild&#45;framework/guild&#45;core/pkg/mcp/protocol.Codec).DecodeMessage]">
<path fill="none" stroke="black" d="M219.34,-34C248.83,-34 281.87,-34 312.74,-34"/>
<polygon fill="black" stroke="black" points="312.49,-37.5 322.49,-34 312.49,-30.5 312.49,-37.5"/>
</a>
</g>
</g>
<!-- (*github.com/guild&#45;framework/guild&#45;core/pkg/mcp/protocol.Codec).EncodeBatch -->
<g id="node4" class="node">
<title>(*github.com/guild&#45;framework/guild&#45;core/pkg/mcp/protocol.Codec).EncodeBatch</title>
<g id="a_node4"><a xlink:title="(*github.com/guild&#45;framework/guild&#45;core/pkg/mcp/protocol.Codec).EncodeBatch | defined in jsonrpc.go:214&#10;at jsonrpc.go:220: calling [github.com/guild&#45;framework/guild&#45;core/pkg/gerror.Wrap]&#10;at jsonrpc.go:221: calling [(*github.com/guild&#45;framework/guild&#45;core/pkg/gerror.GuildError).WithComponent]&#10;at jsonrpc.go:222: calling [(*github.com/guild&#45;framework/guild&#45;core/pkg/gerror.GuildError).WithOperation]">
<path fill="lightblue" stroke="black" stroke-width="1.5" d="M206.29,-113C206.29,-113 47.5,-113 47.5,-113 41.5,-113 35.5,-107 35.5,-101 35.5,-101 35.5,-89 35.5,-89 35.5,-83 41.5,-77 47.5,-77 47.5,-77 206.29,-77 206.29,-77 212.29,-77 218.29,-83 218.29,-89 218.29,-89 218.29,-101 218.29,-101 218.29,-107 212.29,-113 206.29,-113"/>
<text xml:space="preserve" text-anchor="middle" x="126.89" y="-90.33" font-family="Verdana" font-size="14.00">(*Codec).EncodeBatch</text>
</a>
</g>
</g>
<!-- (*github.com/guild&#45;framework/guild&#45;core/pkg/mcp/protocol.Codec).EncodeBatch&#45;&gt;github.com/guild&#45;framework/guild&#45;core/pkg/gerror.Wrap -->
<g id="edge1" class="edge">
<title>(*github.com/guild&#45;framework/guild&#45;core/pkg/mcp/protocol.Codec).EncodeBatch&#45;&gt;github.com/guild&#45;framework/guild&#45;core/pkg/gerror.Wrap</title>
<g id="a_edge1"><a xlink:title="at jsonrpc.go:220: calling [github.com/guild&#45;framework/guild&#45;core/pkg/gerror.Wrap]">
<path fill="none" stroke="saddlebrown" d="M219.01,-113.7C225.75,-117.13 232.12,-121.2 237.79,-126 289.52,-169.82 250.28,-221.12 302.79,-264 325.85,-282.83 358.92,-290.13 384.99,-292.84"/>
<polygon fill="saddlebrown" stroke="saddlebrown" points="384.65,-296.32 394.91,-293.66 385.23,-289.35 384.65,-296.32"/>
</a>
</g>
</g>
<!-- (*github.com/guild&#45;framework/guild&#45;core/pkg/mcp/protocol.Codec).EncodeBatch&#45;&gt;(*github.com/guild&#45;framework/guild&#45;core/pkg/gerror.GuildError).WithComponent -->
<g id="edge5" class="edge">
<title>(*github.com/guild&#45;framework/guild&#45;core/pkg/mcp/protocol.Codec).EncodeBatch&#45;&gt;(*github.com/guild&#45;framework/guild&#45;core/pkg/gerror.GuildError).WithComponent</title>
<g id="a_edge5"><a xlink:title="at jsonrpc.go:221: calling [(*github.com/guild&#45;framework/guild&#45;core/pkg/gerror.GuildError).WithComponent]">
<path fill="none" stroke="saddlebrown" d="M194.23,-76.35C229.87,-67.16 267.91,-59 274.79,-64 304.65,-85.68 277.74,-117.78 302.36,-147.75"/>
<polygon fill="saddlebrown" stroke="saddlebrown" points="299.68,-150.02 309.2,-154.65 304.65,-145.09 299.68,-150.02"/>
</a>
</g>
</g>
<!-- (*github.com/guild&#45;framework/guild&#45;core/pkg/mcp/protocol.Codec).EncodeBatch&#45;&gt;(*github.com/guild&#45;framework/guild&#45;core/pkg/gerror.GuildError).WithOperation -->
<g id="edge6" class="edge">
<title>(*github.com/guild&#45;framework/guild&#45;core/pkg/mcp/protocol.Codec).EncodeBatch&#45;&gt;(*github.com/guild&#45;framework/guild&#45;core/pkg/gerror.GuildError).WithOperation</title>
<g id="a_edge6"><a xlink:title="at jsonrpc.go:222: calling [(*github.com/guild&#45;framework/guild&#45;core/pkg/gerror.GuildError).WithOperation]">
<path fill="none" stroke="saddlebrown" d="M191.45,-76.26C219.67,-71.92 251.66,-72.94 274.79,-91 315.23,-122.58 266.4,-166.83 302.79,-203 304.57,-204.76 306.43,-206.43 308.36,-208.01"/>
<polygon fill="saddlebrown" stroke="saddlebrown" points="305.87,-210.53 316.05,-213.46 309.92,-204.82 305.87,-210.53"/>
</a>
</g>
</g>
<!-- (*github.com/guild&#45;framework/guild&#45;core/pkg/mcp/protocol.Codec).EncodeError -->
<g id="node5" class="node">
<title>(*github.com/guild&#45;framework/guild&#45;core/pkg/mcp/protocol.Codec).EncodeError</title>
<g id="a_node5"><a xlink:title="(*github.com/guild&#45;framework/guild&#45;core/pkg/mcp/protocol.Codec).EncodeError | defined in jsonrpc.go:94&#10;at jsonrpc.go:100: calling [github.com/guild&#45;framework/guild&#45;core/pkg/gerror.Wrap]&#10;at jsonrpc.go:101: calling [(*github.com/guild&#45;framework/guild&#45;core/pkg/gerror.GuildError).WithComponent]&#10;at jsonrpc.go:102: calling [(*github.com/guild&#45;framework/guild&#45;core/pkg/gerror.GuildError).WithOperation]">
<path fill="lightblue" stroke="black" stroke-width="1.5" d="M204.04,-251C204.04,-251 49.75,-251 49.75,-251 43.75,-251 37.75,-245 37.75,-239 37.75,-239 37.75,-227 37.75,-227 37.75,-221 43.75,-215 49.75,-215 49.75,-215 204.04,-215 204.04,-215 210.04,-215 216.04,-221 216.04,-227 216.04,-227 216.04,-239 216.04,-239 216.04,-245 210.04,-251 204.04,-251"/>
<text xml:space="preserve" text-anchor="middle" x="126.89" y="-228.32" font-family="Verdana" font-size="14.00">(*Codec).EncodeError</text>
</a>
</g>
</g>
<!-- (*github.com/guild&#45;framework/guild&#45;core/pkg/mcp/protocol.Codec).EncodeError&#45;&gt;github.com/guild&#45;framework/guild&#45;core/pkg/gerror.Wrap -->
<g id="edge12" class="edge">
<title>(*github.com/guild&#45;framework/guild&#45;core/pkg/mcp/protocol.Codec).EncodeError&#45;&gt;github.com/guild&#45;framework/guild&#45;core/pkg/gerror.Wrap</title>
<g id="a_edge12"><a xlink:title="at jsonrpc.go:100: calling [github.com/guild&#45;framework/guild&#45;core/pkg/gerror.Wrap]">
<path fill="none" stroke="saddlebrown" d="M216.51,-251.14C272.47,-262.59 342.1,-276.84 385.29,-285.68"/>
<polygon fill="saddlebrown" stroke="saddlebrown" points="384.49,-289.09 394.99,-287.67 385.89,-282.23 384.49,-289.09"/>
</a>
</g>
</g>
<!-- (*github.com/guild&#45;framework/guild&#45;core/pkg/mcp/protocol.Codec).EncodeError&#45;&gt;(*github.com/guild&#45;framework/guild&#45;core/pkg/gerror.GuildError).WithComponent -->
<g id="edge13" class="edge">
<title>(*github.com/guild&#45;framework/guild&#45;core/pkg/mcp/protocol.Codec).EncodeError&#45;&gt;(*github.com/guild&#45;framework/guild&#45;core/pkg/gerror.GuildError).WithComponent</title>
<g id="a_edge13"><a xlink:title="at jsonrpc.go:101: calling [(*github.com/guild&#45;framework/guild&#45;core/pkg/gerror.GuildError).WithComponent]">
<path fill="none" stroke="saddlebrown" d="M216.51,-214.86C250.11,-207.99 288.64,-200.1 323.41,-192.98"/>
<polygon fill="saddlebrown" stroke="saddlebrown" points="323.98,-196.44 333.08,-191 322.58,-189.58 323.98,-196.44"/>
</a>
</g>
</g>
<!-- (*github.com/guild&#45;framework/guild&#45;core/pkg/mcp/protocol.Codec).EncodeError&#45;&gt;(*github.com/guild&#45;framework/guild&#45;core/pkg/gerror.GuildError).WithOperation -->
<g id="edge14" class="edge">
<title>(*github.com/guild&#45;framework/guild&#45;core/pkg/mcp/protocol.Codec).EncodeError&#45;&gt;(*github.com/guild&#45;framework/guild&#45;core/pkg/gerror.GuildError).WithOperation</title>
<g id="a_edge14"><a xlink:title="at jsonrpc.go:102: calling [(*github.com/guild&#45;framework/guild&#45;core/pkg/gerror.GuildError).WithOperation]">
<path fill="none" stroke="saddlebrown" d="M216.51,-233C244.13,-233 275.07,-233 304.53,-233"/>
<polygon fill="saddlebrown" stroke="saddlebrown" points="304.22,-236.5 314.22,-233 304.22,-229.5 304.22,-236.5"/>
</a>
</g>
</g>
<!-- (*github.com/guild&#45;framework/guild&#45;core/pkg/mcp/protocol.Codec).EncodeRequest -->
<g id="node6" class="node">
<title>(*github.com/guild&#45;framework/guild&#45;core/pkg/mcp/protocol.Codec).EncodeRequest</title>
<g id="a_node6"><a xlink:title="(*github.com/guild&#45;framework/guild&#45;core/pkg/mcp/protocol.Codec).EncodeRequest | defined in jsonrpc.go:61&#10;at jsonrpc.go:65: calling [(*github.com/guild&#45;framework/guild&#45;core/pkg/gerror.GuildError).WithComponent]&#10;at jsonrpc.go:66: calling [(*github.com/guild&#45;framework/guild&#45;core/pkg/gerror.GuildError).WithOperation]&#10;at jsonrpc.go:64: calling [github.com/guild&#45;framework/guild&#45;core/pkg/gerror.Wrap]">
<path fill="lightblue" stroke="black" stroke-width="1.5" d="M214.91,-174C214.91,-174 38.87,-174 38.87,-174 32.87,-174 26.87,-168 26.87,-162 26.87,-162 26.87,-150 26.87,-150 26.87,-144 32.87,-138 38.87,-138 38.87,-138 214.91,-138 214.91,-138 220.91,-138 226.91,-144 226.91,-150 226.91,-150 226.91,-162 226.91,-162 226.91,-168 220.91,-174 214.91,-174"/>
<text xml:space="preserve" text-anchor="middle" x="126.89" y="-151.32" font-family="Verdana" font-size="14.00">(*Codec).EncodeRequest</text>
</a>
</g>
</g>
<!-- (*github.com/guild&#45;framework/guild&#45;core/pkg/mcp/protocol.Codec).EncodeRequest&#45;&gt;github.com/guild&#45;framework/guild&#45;core/pkg/gerror.Wrap -->
<g id="edge15" class="edge">
<title>(*github.com/guild&#45;framework/guild&#45;core/pkg/mcp/protocol.Codec).EncodeRequest&#45;&gt;github.com/guild&#45;framework/guild&#45;core/pkg/gerror.Wrap</title>
<g id="a_edge15"><a xlink:title="at jsonrpc.go:64: calling [github.com/guild&#45;framework/guild&#45;core/pkg/gerror.Wrap]">
<path fill="none" stroke="saddlebrown" d="M181.79,-174.67C200.26,-182.19 220.59,-191.76 237.79,-203 270.95,-224.68 267.95,-245.13 302.79,-264 328.26,-277.79 360.1,-285.34 385.03,-289.41"/>
<polygon fill="saddlebrown" stroke="saddlebrown" points="384.39,-292.85 394.8,-290.87 385.42,-285.93 384.39,-292.85"/>
</a>
</g>
</g>
<!-- (*github.com/guild&#45;framework/guild&#45;core/pkg/mcp/protocol.Codec).EncodeRequest&#45;&gt;(*github.com/guild&#45;framework/guild&#45;core/pkg/gerror.GuildError).WithComponent -->
<g id="edge2" class="edge">
<title>(*github.com/guild&#45;framework/guild&#45;core/pkg/mcp/protocol.Codec).EncodeRequest&#45;&gt;(*github.com/guild&#45;framework/guild&#45;core/pkg/gerror.GuildError).WithComponent</title>
<g id="a_edge2"><a xlink:title="at jsonrpc.go:65: calling [(*github.com/guild&#45;framework/guild&#45;core/pkg/gerror.GuildError).WithComponent]">
<path fill="none" stroke="saddlebrown" d="M227.49,-144.15C243.32,-143.53 259.51,-143.65 274.79,-145 274.83,-145 289.62,-147.64 309.94,-151.27"/>
<polygon fill="saddlebrown" stroke="saddlebrown" points="309.07,-154.67 319.53,-152.99 310.3,-147.78 309.07,-154.67"/>
</a>
</g>
</g>
<!-- (*github.com/guild&#45;framework/guild&#45;core/pkg/mcp/protocol.Codec).EncodeRequest&#45;&gt;(*github.com/guild&#45;framework/guild&#45;core/pkg/gerror.GuildError).WithOperation -->
<g id="edge7" class="edge">
<title>(*github.com/guild&#45;framework/guild&#45;core/pkg/mcp/protocol.Codec).EncodeRequest&#45;&gt;(*github.com/guild&#45;framework/guild&#45;core/pkg/gerror.GuildError).WithOperation</title>
<g id="a_edge7"><a xlink:title="at jsonrpc.go:66: calling [(*github.com/guild&#45;framework/guild&#45;core/pkg/gerror.GuildError).WithOperation]">
<path fill="none" stroke="saddlebrown" d="M227.55,-156.96C243.94,-159.87 260.28,-164.59 274.79,-172 291.32,-180.45 286.84,-193.49 302.79,-203 307.05,-205.54 311.52,-207.87 316.12,-210"/>
<polygon fill="saddlebrown" stroke="saddlebrown" points="314.42,-213.07 324.99,-213.76 317.15,-206.63 314.42,-213.07"/>
</a>
</g>
</g>
<!-- (*github.com/guild&#45;framework/guild&#45;core/pkg/mcp/protocol.Codec).EncodeResponse -->
<g id="node7" class="node">
<title>(*github.com/guild&#45;framework/guild&#45;core/pkg/mcp/protocol.Codec).EncodeResponse</title>
<g id="a_node7"><a xlink:title="(*github.com/guild&#45;framework/guild&#45;core/pkg/mcp/protocol.Codec).EncodeResponse | defined in jsonrpc.go:78&#10;at jsonrpc.go:83: calling [(*github.com/guild&#45;framework/guild&#45;core/pkg/gerror.GuildError).WithOperation]&#10;at jsonrpc.go:81: calling [github.com/guild&#45;framework/guild&#45;core/pkg/gerror.Wrap]&#10;at jsonrpc.go:82: calling [(*github.com/guild&#45;framework/guild&#45;core/pkg/gerror.GuildError).WithComponent]">
<path fill="lightblue" stroke="black" stroke-width="1.5" d="M220.16,-413C220.16,-413 33.63,-413 33.63,-413 27.63,-413 21.62,-407 21.62,-401 21.62,-401 21.62,-389 21.62,-389 21.62,-383 27.62,-377 33.62,-377 33.62,-377 220.16,-377 220.16,-377 226.16,-377 232.16,-383 232.16,-389 232.16,-389 232.16,-401 232.16,-401 232.16,-407 226.16,-413 220.16,-413"/>
<text xml:space="preserve" text-anchor="middle" x="126.89" y="-390.32" font-family="Verdana" font-size="14.00">(*Codec).EncodeResponse</text>
</a>
</g>
</g>
<!-- (*github.com/guild&#45;framework/guild&#45;core/pkg/mcp/protocol.Codec).EncodeResponse&#45;&gt;github.com/guild&#45;framework/guild&#45;core/pkg/gerror.Wrap -->
<g id="edge9" class="edge">
<title>(*github.com/guild&#45;framework/guild&#45;core/pkg/mcp/protocol.Codec).EncodeResponse&#45;&gt;github.com/guild&#45;framework/guild&#45;core/pkg/gerror.Wrap</title>
<g id="a_edge9"><a xlink:title="at jsonrpc.go:81: calling [github.com/guild&#45;framework/guild&#45;core/pkg/gerror.Wrap]">
<path fill="none" stroke="saddlebrown" d="M232.63,-409.1C247.01,-408.41 261.42,-406.29 274.79,-402 324.61,-386.03 371.98,-346.93 400,-320.43"/>
<polygon fill="saddlebrown" stroke="saddlebrown" points="402.21,-323.17 406.97,-313.7 397.35,-318.13 402.21,-323.17"/>
</a>
</g>
</g>
<!-- (*github.com/guild&#45;framework/guild&#45;core/pkg/mcp/protocol.Codec).EncodeResponse&#45;&gt;(*github.com/guild&#45;framework/guild&#45;core/pkg/gerror.GuildError).WithComponent -->
<g id="edge10" class="edge">
<title>(*github.com/guild&#45;framework/guild&#45;core/pkg/mcp/protocol.Codec).EncodeResponse&#45;&gt;(*github.com/guild&#45;framework/guild&#45;core/pkg/gerror.GuildError).WithComponent</title>
<g id="a_edge10"><a xlink:title="at jsonrpc.go:82: calling [(*github.com/guild&#45;framework/guild&#45;core/pkg/gerror.GuildError).WithComponent]">
<path fill="none" stroke="saddlebrown" d="M189.18,-376.25C206.5,-368.68 224.29,-358.47 237.79,-345 286.93,-295.98 249.44,-247.4 302.79,-203 305.67,-200.6 308.71,-198.39 311.88,-196.34"/>
<polygon fill="saddlebrown" stroke="saddlebrown" points="313.48,-199.45 320.42,-191.44 310,-193.38 313.48,-199.45"/>
</a>
</g>
</g>
<!-- (*github.com/guild&#45;framework/guild&#45;core/pkg/mcp/protocol.Codec).EncodeResponse&#45;&gt;(*github.com/guild&#45;framework/guild&#45;core/pkg/gerror.GuildError).WithOperation -->
<g id="edge3" class="edge">
<title>(*github.com/guild&#45;framework/guild&#45;core/pkg/mcp/protocol.Codec).EncodeResponse&#45;&gt;(*github.com/guild&#45;framework/guild&#45;core/pkg/gerror.GuildError).WithOperation</title>
<g id="a_edge3"><a xlink:title="at jsonrpc.go:83: calling [(*github.com/guild&#45;framework/guild&#45;core/pkg/gerror.GuildError).WithOperation]">
<path fill="none" stroke="saddlebrown" d="M232.62,-396.27C248.14,-392.29 262.89,-385.64 274.79,-375 312.72,-341.09 266.8,-299.97 302.79,-264 304.87,-261.92 307.07,-259.97 309.37,-258.15"/>
<polygon fill="saddlebrown" stroke="saddlebrown" points="311.2,-261.14 317.44,-252.58 307.22,-255.38 311.2,-261.14"/>
</a>
</g>
</g>
</g>
</svg>
