<?xml version="1.0" encoding="UTF-8" standalone="no"?>
<!DOCTYPE svg PUBLIC "-//W3C//DTD SVG 1.1//EN"
 "http://www.w3.org/Graphics/SVG/1.1/DTD/svg11.dtd">
<!-- Generated by graphviz version 14.1.1 (20251213.1925)
 -->
<!-- Title: gocallvis Pages: 1 -->
<svg width="1112pt" height="503pt"
 viewBox="0.00 0.00 1112.00 503.00" xmlns="http://www.w3.org/2000/svg" xmlns:xlink="http://www.w3.org/1999/xlink">
<g id="graph0" class="graph" transform="scale(1 1) rotate(0) translate(0 503)">
<title>gocallvis</title>
<polygon fill="lightgray" stroke="none" points="0,0 0,-503 1111.95,-503 1111.95,0 0,0"/>
<g id="clust1" class="cluster">
<title>cluster_focus</title>
<polygon fill="#e6ecfa" stroke="black" stroke-width="0.5" points="8,-8 8,-495 1103.95,-495 1103.95,-8 8,-8"/>
<text xml:space="preserve" text-anchor="middle" x="555.97" y="-473.9" font-family="Arial" font-size="18.00">telemetry</text>
</g>
<g id="clust2" class="cluster">
<title>cluster_github.com/guild&#45;framework/guild&#45;core/pkg/gerror</title>
<g id="a_clust2"><a xlink:href="/?f=github.com/guild-framework/guild-core/pkg/gerror" xlink:title="package: github.com/guild&#45;framework/guild&#45;core/pkg/gerror">
<polygon fill="lightyellow" stroke="black" stroke-width="0.8" points="1004.53,-208 1004.53,-349 1080.32,-349 1080.32,-208 1004.53,-208"/>
<text xml:space="preserve" text-anchor="middle" x="1042.43" y="-329.8" font-family="Tahoma bold" font-size="16.00">gerror</text>
</a>
</g>
</g>
<g id="clust3" class="cluster">
<title>cluster_github.com/guild&#45;framework/guild&#45;core/pkg/telemetry/collectors</title>
<g id="a_clust3"><a xlink:href="/?f=github.com/guild-framework/guild-core/pkg/telemetry/collectors" xlink:title="package: github.com/guild&#45;framework/guild&#45;core/pkg/telemetry/collectors">
<polygon fill="lightyellow" stroke="black" stroke-width="0.8" points="172.66,-175 172.66,-316 408.95,-316 408.95,-175 172.66,-175"/>
<text xml:space="preserve" text-anchor="middle" x="290.81" y="-296.8" font-family="Tahoma bold" font-size="16.00">collectors</text>
</a>
</g>
</g>
<!-- github.com/guild&#45;framework/guild&#45;core/pkg/telemetry.setupOTelProviders -->
<g id="node1" class="node">
<title>github.com/guild&#45;framework/guild&#45;core/pkg/telemetry.setupOTelProviders</title>
<g id="a_node1"><a xlink:title="github.com/guild&#45;framework/guild&#45;core/pkg/telemetry.setupOTelProviders | defined in exporters.go:25&#10;at exporters.go:42: calling [github.com/guild&#45;framework/guild&#45;core/pkg/telemetry.setupTraceProvider]&#10;at exporters.go:50: calling [github.com/guild&#45;framework/guild&#45;core/pkg/telemetry.setupMetricProvider]&#10;at exporters.go:31: calling [github.com/guild&#45;framework/guild&#45;core/pkg/gerror.Wrap]&#10;at exporters.go:44: calling [github.com/guild&#45;framework/guild&#45;core/pkg/gerror.Wrap]&#10;at exporters.go:56: calling [github.com/guild&#45;framework/guild&#45;core/pkg/gerror.Wrap]&#10;at exporters.go:29: calling [github.com/guild&#45;framework/guild&#45;core/pkg/telemetry.createResource]">
<path fill="lightblue" stroke="black" stroke-width="0.5" d="M357.08,-158C357.08,-158 224.54,-158 224.54,-158 218.54,-158 212.54,-152 212.54,-146 212.54,-146 212.54,-134 212.54,-134 212.54,-128 218.54,-122 224.54,-122 224.54,-122 357.08,-122 357.08,-122 363.08,-122 369.08,-128 369.08,-134 369.08,-134 369.08,-146 369.08,-146 369.08,-152 363.08,-158 357.08,-158"/>
<text xml:space="preserve" text-anchor="middle" x="290.81" y="-135.32" font-family="Verdana" font-size="14.00">setupOTelProviders</text>
</a>
</g>
</g>
<!-- github.com/guild&#45;framework/guild&#45;core/pkg/telemetry.createResource -->
<g id="node2" class="node">
<title>github.com/guild&#45;framework/guild&#45;core/pkg/telemetry.createResource</title>
<g id="a_node2"><a xlink:title="github.com/guild&#45;framework/guild&#45;core/pkg/telemetry.createResource | defined in exporters.go:78">
<path fill="lightblue" stroke="black" stroke-width="0.5" d="M611.37,-299C611.37,-299 504.33,-299 504.33,-299 498.33,-299 492.33,-293 492.33,-287 492.33,-287 492.33,-275 492.33,-275 492.33,-269 498.33,-263 504.33,-263 504.33,-263 611.37,-263 611.37,-263 617.37,-263 623.37,-269 623.37,-275 623.37,-275 623.37,-287 623.37,-287 623.37,-293 617.37,-299 611.37,-299"/>
<text xml:space="preserve" text-anchor="middle" x="557.85" y="-276.32" font-family="Verdana" font-size="14.00">createResource</text>
</a>
</g>
</g>
<!-- github.com/guild&#45;framework/guild&#45;core/pkg/telemetry.setupOTelProviders&#45;&gt;github.com/guild&#45;framework/guild&#45;core/pkg/telemetry.createResource -->
<g id="edge22" class="edge">
<title>github.com/guild&#45;framework/guild&#45;core/pkg/telemetry.setupOTelProviders&#45;&gt;github.com/guild&#45;framework/guild&#45;core/pkg/telemetry.createResource</title>
<g id="a_edge22"><a xlink:title="at exporters.go:29: calling [github.com/guild&#45;framework/guild&#45;core/pkg/telemetry.createResource]">
<path fill="none" stroke="black" d="M369.04,-151.67C382.98,-155.8 396.9,-161.41 408.95,-169 448.93,-194.17 438.12,-223.57 476.58,-251 479.93,-253.39 483.49,-255.61 487.17,-257.67"/>
<polygon fill="black" stroke="black" points="485.32,-260.66 495.82,-262.08 488.5,-254.42 485.32,-260.66"/>
</a>
</g>
</g>
<!-- github.com/guild&#45;framework/guild&#45;core/pkg/telemetry.setupTraceProvider -->
<g id="node4" class="node">
<title>github.com/guild&#45;framework/guild&#45;core/pkg/telemetry.setupTraceProvider</title>
<g id="a_node4"><a xlink:title="github.com/guild&#45;framework/guild&#45;core/pkg/telemetry.setupTraceProvider | defined in exporters.go:88&#10;at exporters.go:94: calling [github.com/guild&#45;framework/guild&#45;core/pkg/telemetry.createOTLPTraceExporter]&#10;at exporters.go:97: calling [github.com/guild&#45;framework/guild&#45;core/pkg/telemetry.createOTLPTraceExporter]&#10;at exporters.go:101: calling [github.com/guild&#45;framework/guild&#45;core/pkg/gerror.Wrap]">
<path fill="lightblue" stroke="black" stroke-width="0.5" d="M624.49,-238C624.49,-238 491.2,-238 491.2,-238 485.2,-238 479.2,-232 479.2,-226 479.2,-226 479.2,-214 479.2,-214 479.2,-208 485.2,-202 491.2,-202 491.2,-202 624.49,-202 624.49,-202 630.49,-202 636.49,-208 636.49,-214 636.49,-214 636.49,-226 636.49,-226 636.49,-232 630.49,-238 624.49,-238"/>
<text xml:space="preserve" text-anchor="middle" x="557.85" y="-215.32" font-family="Verdana" font-size="14.00">setupTraceProvider</text>
</a>
</g>
</g>
<!-- github.com/guild&#45;framework/guild&#45;core/pkg/telemetry.setupOTelProviders&#45;&gt;github.com/guild&#45;framework/guild&#45;core/pkg/telemetry.setupTraceProvider -->
<g id="edge2" class="edge">
<title>github.com/guild&#45;framework/guild&#45;core/pkg/telemetry.setupOTelProviders&#45;&gt;github.com/guild&#45;framework/guild&#45;core/pkg/telemetry.setupTraceProvider</title>
<g id="a_edge2"><a xlink:title="at exporters.go:42: calling [github.com/guild&#45;framework/guild&#45;core/pkg/telemetry.setupTraceProvider]">
<path fill="none" stroke="black" d="M369.29,-157.01C382.64,-160.56 396.29,-164.58 408.95,-169 423.09,-173.93 425.61,-177.63 439.58,-183 453.69,-188.43 468.97,-193.68 483.68,-198.45"/>
<polygon fill="black" stroke="black" points="482.25,-201.66 492.84,-201.36 484.37,-194.99 482.25,-201.66"/>
</a>
</g>
</g>
<!-- github.com/guild&#45;framework/guild&#45;core/pkg/telemetry.setupMetricProvider -->
<g id="node5" class="node">
<title>github.com/guild&#45;framework/guild&#45;core/pkg/telemetry.setupMetricProvider</title>
<g id="a_node5"><a xlink:title="github.com/guild&#45;framework/guild&#45;core/pkg/telemetry.setupMetricProvider | defined in exporters.go:124&#10;at exporters.go:131: calling [github.com/guild&#45;framework/guild&#45;core/pkg/gerror.Wrap]&#10;at exporters.go:155: calling [github.com/guild&#45;framework/guild&#45;core/pkg/gerror.Wrap]&#10;at exporters.go:136: calling [github.com/guild&#45;framework/guild&#45;core/pkg/telemetry.setupMetricProvider$1]&#10;at exporters.go:153: calling [github.com/guild&#45;framework/guild&#45;core/pkg/telemetry.createOTLPMetricExporter]">
<path fill="lightblue" stroke="black" stroke-width="0.5" d="M627.12,-132C627.12,-132 488.58,-132 488.58,-132 482.58,-132 476.58,-126 476.58,-120 476.58,-120 476.58,-108 476.58,-108 476.58,-102 482.58,-96 488.58,-96 488.58,-96 627.12,-96 627.12,-96 633.12,-96 639.12,-102 639.12,-108 639.12,-108 639.12,-120 639.12,-120 639.12,-126 633.12,-132 627.12,-132"/>
<text xml:space="preserve" text-anchor="middle" x="557.85" y="-109.33" font-family="Verdana" font-size="14.00">setupMetricProvider</text>
</a>
</g>
</g>
<!-- github.com/guild&#45;framework/guild&#45;core/pkg/telemetry.setupOTelProviders&#45;&gt;github.com/guild&#45;framework/guild&#45;core/pkg/telemetry.setupMetricProvider -->
<g id="edge4" class="edge">
<title>github.com/guild&#45;framework/guild&#45;core/pkg/telemetry.setupOTelProviders&#45;&gt;github.com/guild&#45;framework/guild&#45;core/pkg/telemetry.setupMetricProvider</title>
<g id="a_edge4"><a xlink:title="at exporters.go:50: calling [github.com/guild&#45;framework/guild&#45;core/pkg/telemetry.setupMetricProvider]">
<path fill="none" stroke="black" d="M369.18,-132.41C399.26,-129.46 433.94,-126.06 465.25,-122.99"/>
<polygon fill="black" stroke="black" points="465.5,-126.48 475.11,-122.02 464.82,-119.51 465.5,-126.48"/>
</a>
</g>
</g>
<!-- github.com/guild&#45;framework/guild&#45;core/pkg/gerror.Wrap -->
<g id="node14" class="node">
<title>github.com/guild&#45;framework/guild&#45;core/pkg/gerror.Wrap</title>
<g id="a_node14"><a xlink:title="github.com/guild&#45;framework/guild&#45;core/pkg/gerror.Wrap | defined in errors.go:223">
<path fill="moccasin" stroke="black" stroke-width="1.5" d="M1060.32,-252C1060.32,-252 1024.53,-252 1024.53,-252 1018.53,-252 1012.53,-246 1012.53,-240 1012.53,-240 1012.53,-228 1012.53,-228 1012.53,-222 1018.53,-216 1024.53,-216 1024.53,-216 1060.32,-216 1060.32,-216 1066.32,-216 1072.32,-222 1072.32,-228 1072.32,-228 1072.32,-240 1072.32,-240 1072.32,-246 1066.32,-252 1060.32,-252"/>
<text xml:space="preserve" text-anchor="middle" x="1042.43" y="-229.32" font-family="Verdana" font-size="14.00">Wrap</text>
</a>
</g>
</g>
<!-- github.com/guild&#45;framework/guild&#45;core/pkg/telemetry.setupOTelProviders&#45;&gt;github.com/guild&#45;framework/guild&#45;core/pkg/gerror.Wrap -->
<g id="edge8" class="edge">
<title>github.com/guild&#45;framework/guild&#45;core/pkg/telemetry.setupOTelProviders&#45;&gt;github.com/guild&#45;framework/guild&#45;core/pkg/gerror.Wrap</title>
<g id="a_edge8"><a xlink:title="at exporters.go:31: calling [github.com/guild&#45;framework/guild&#45;core/pkg/gerror.Wrap]&#10;at exporters.go:44: calling [github.com/guild&#45;framework/guild&#45;core/pkg/gerror.Wrap]&#10;at exporters.go:56: calling [github.com/guild&#45;framework/guild&#45;core/pkg/gerror.Wrap]">
<path fill="none" stroke="saddlebrown" d="M369.17,-149.61C487.12,-164.27 719.01,-193.15 915.91,-218 944.19,-221.57 976.05,-225.63 1000.6,-228.77"/>
<polygon fill="saddlebrown" stroke="saddlebrown" points="1000.15,-232.24 1010.51,-230.04 1001.04,-225.3 1000.15,-232.24"/>
</a>
</g>
</g>
<!-- github.com/guild&#45;framework/guild&#45;core/pkg/telemetry.createOTLPTraceExporter -->
<g id="node3" class="node">
<title>github.com/guild&#45;framework/guild&#45;core/pkg/telemetry.createOTLPTraceExporter</title>
<g id="a_node3"><a xlink:title="github.com/guild&#45;framework/guild&#45;core/pkg/telemetry.createOTLPTraceExporter | defined in exporters.go:182&#10;at exporters.go:189: calling [github.com/guild&#45;framework/guild&#45;core/pkg/gerror.Wrap]">
<path fill="lightblue" stroke="black" stroke-width="0.5" d="M901.28,-282C901.28,-282 726.74,-282 726.74,-282 720.74,-282 714.74,-276 714.74,-270 714.74,-270 714.74,-258 714.74,-258 714.74,-252 720.74,-246 726.74,-246 726.74,-246 901.28,-246 901.28,-246 907.28,-246 913.28,-252 913.28,-258 913.28,-258 913.28,-270 913.28,-270 913.28,-276 907.28,-282 901.28,-282"/>
<text xml:space="preserve" text-anchor="middle" x="814.01" y="-259.32" font-family="Verdana" font-size="14.00">createOTLPTraceExporter</text>
</a>
</g>
</g>
<!-- github.com/guild&#45;framework/guild&#45;core/pkg/telemetry.createOTLPTraceExporter&#45;&gt;github.com/guild&#45;framework/guild&#45;core/pkg/gerror.Wrap -->
<g id="edge14" class="edge">
<title>github.com/guild&#45;framework/guild&#45;core/pkg/telemetry.createOTLPTraceExporter&#45;&gt;github.com/guild&#45;framework/guild&#45;core/pkg/gerror.Wrap</title>
<g id="a_edge14"><a xlink:title="at exporters.go:189: calling [github.com/guild&#45;framework/guild&#45;core/pkg/gerror.Wrap]">
<path fill="none" stroke="saddlebrown" d="M913.34,-250.97C944,-246.91 976.15,-242.65 1000.57,-239.41"/>
<polygon fill="saddlebrown" stroke="saddlebrown" points="1000.94,-242.9 1010.39,-238.11 1000.02,-235.96 1000.94,-242.9"/>
</a>
</g>
</g>
<!-- github.com/guild&#45;framework/guild&#45;core/pkg/telemetry.setupTraceProvider&#45;&gt;github.com/guild&#45;framework/guild&#45;core/pkg/telemetry.createOTLPTraceExporter -->
<g id="edge1" class="edge">
<title>github.com/guild&#45;framework/guild&#45;core/pkg/telemetry.setupTraceProvider&#45;&gt;github.com/guild&#45;framework/guild&#45;core/pkg/telemetry.createOTLPTraceExporter</title>
<g id="a_edge1"><a xlink:title="at exporters.go:94: calling [github.com/guild&#45;framework/guild&#45;core/pkg/telemetry.createOTLPTraceExporter]&#10;at exporters.go:97: calling [github.com/guild&#45;framework/guild&#45;core/pkg/telemetry.createOTLPTraceExporter]">
<path fill="none" stroke="black" d="M636.49,-233.44C657.59,-237.09 680.86,-241.12 703.37,-245.02"/>
<polygon fill="black" stroke="black" points="702.77,-248.47 713.22,-246.72 703.96,-241.57 702.77,-248.47"/>
</a>
</g>
</g>
<!-- github.com/guild&#45;framework/guild&#45;core/pkg/telemetry.setupTraceProvider&#45;&gt;github.com/guild&#45;framework/guild&#45;core/pkg/gerror.Wrap -->
<g id="edge15" class="edge">
<title>github.com/guild&#45;framework/guild&#45;core/pkg/telemetry.setupTraceProvider&#45;&gt;github.com/guild&#45;framework/guild&#45;core/pkg/gerror.Wrap</title>
<g id="a_edge15"><a xlink:title="at exporters.go:101: calling [github.com/guild&#45;framework/guild&#45;core/pkg/gerror.Wrap]">
<path fill="none" stroke="saddlebrown" d="M636.65,-222.26C740.45,-225.27 920.46,-230.49 1000.75,-232.82"/>
<polygon fill="saddlebrown" stroke="saddlebrown" points="1000.24,-236.31 1010.33,-233.1 1000.44,-229.31 1000.24,-236.31"/>
</a>
</g>
</g>
<!-- github.com/guild&#45;framework/guild&#45;core/pkg/telemetry.setupMetricProvider$1 -->
<g id="node6" class="node">
<title>github.com/guild&#45;framework/guild&#45;core/pkg/telemetry.setupMetricProvider$1</title>
<g id="a_node6"><a xlink:title="github.com/guild&#45;framework/guild&#45;core/pkg/telemetry.setupMetricProvider$1 | defined in exporters.go:136">
<polygon fill="lightblue" stroke="black" stroke-dasharray="1,5" points="904.28,-79 723.74,-79 723.74,-43 904.28,-43 904.28,-79"/>
<text xml:space="preserve" text-anchor="middle" x="814.01" y="-56.33" font-family="Verdana" font-size="14.00">setupMetricProvider$1</text>
</a>
</g>
</g>
<!-- github.com/guild&#45;framework/guild&#45;core/pkg/telemetry.setupMetricProvider&#45;&gt;github.com/guild&#45;framework/guild&#45;core/pkg/telemetry.setupMetricProvider$1 -->
<g id="edge9" class="edge">
<title>github.com/guild&#45;framework/guild&#45;core/pkg/telemetry.setupMetricProvider&#45;&gt;github.com/guild&#45;framework/guild&#45;core/pkg/telemetry.setupMetricProvider$1</title>
<g id="a_edge9"><a xlink:title="at exporters.go:136: calling [github.com/guild&#45;framework/guild&#45;core/pkg/telemetry.setupMetricProvider$1]">
<path fill="none" stroke="black" d="M639.27,-97.23C658.4,-93.24 679.16,-88.91 699.46,-84.68"/>
<polygon fill="black" stroke="black" points="713.74,-85.28 722.82,-79.81 712.31,-78.42 713.74,-85.28"/>
<polyline fill="none" stroke="black" points="712.54,-81.95 707.64,-82.97"/>
<ellipse fill="none" stroke="black" cx="703.24" cy="-83.89" rx="4" ry="4"/>
</a>
</g>
</g>
<!-- github.com/guild&#45;framework/guild&#45;core/pkg/telemetry.createOTLPMetricExporter -->
<g id="node7" class="node">
<title>github.com/guild&#45;framework/guild&#45;core/pkg/telemetry.createOTLPMetricExporter</title>
<g id="a_node7"><a xlink:title="github.com/guild&#45;framework/guild&#45;core/pkg/telemetry.createOTLPMetricExporter | defined in exporters.go:199&#10;at exporters.go:206: calling [github.com/guild&#45;framework/guild&#45;core/pkg/gerror.Wrap]">
<path fill="lightblue" stroke="black" stroke-width="0.5" d="M903.91,-167C903.91,-167 724.12,-167 724.12,-167 718.12,-167 712.12,-161 712.12,-155 712.12,-155 712.12,-143 712.12,-143 712.12,-137 718.12,-131 724.12,-131 724.12,-131 903.91,-131 903.91,-131 909.91,-131 915.91,-137 915.91,-143 915.91,-143 915.91,-155 915.91,-155 915.91,-161 909.91,-167 903.91,-167"/>
<text xml:space="preserve" text-anchor="middle" x="814.01" y="-144.32" font-family="Verdana" font-size="14.00">createOTLPMetricExporter</text>
</a>
</g>
</g>
<!-- github.com/guild&#45;framework/guild&#45;core/pkg/telemetry.setupMetricProvider&#45;&gt;github.com/guild&#45;framework/guild&#45;core/pkg/telemetry.createOTLPMetricExporter -->
<g id="edge17" class="edge">
<title>github.com/guild&#45;framework/guild&#45;core/pkg/telemetry.setupMetricProvider&#45;&gt;github.com/guild&#45;framework/guild&#45;core/pkg/telemetry.createOTLPMetricExporter</title>
<g id="a_edge17"><a xlink:title="at exporters.go:153: calling [github.com/guild&#45;framework/guild&#45;core/pkg/telemetry.createOTLPMetricExporter]">
<path fill="none" stroke="black" d="M639.27,-125.07C658.87,-127.77 680.19,-130.71 700.97,-133.57"/>
<polygon fill="black" stroke="black" points="700.22,-137 710.61,-134.9 701.18,-130.07 700.22,-137"/>
</a>
</g>
</g>
<!-- github.com/guild&#45;framework/guild&#45;core/pkg/telemetry.setupMetricProvider&#45;&gt;github.com/guild&#45;framework/guild&#45;core/pkg/gerror.Wrap -->
<g id="edge3" class="edge">
<title>github.com/guild&#45;framework/guild&#45;core/pkg/telemetry.setupMetricProvider&#45;&gt;github.com/guild&#45;framework/guild&#45;core/pkg/gerror.Wrap</title>
<g id="a_edge3"><a xlink:title="at exporters.go:131: calling [github.com/guild&#45;framework/guild&#45;core/pkg/gerror.Wrap]&#10;at exporters.go:155: calling [github.com/guild&#45;framework/guild&#45;core/pkg/gerror.Wrap]">
<path fill="none" stroke="saddlebrown" d="M639.26,-108.56C728.86,-103.64 867.51,-99.79 915.91,-119 960.58,-136.73 999.15,-178.34 1021.34,-206.34"/>
<polygon fill="saddlebrown" stroke="saddlebrown" points="1018.42,-208.28 1027.3,-214.06 1023.96,-204 1018.42,-208.28"/>
</a>
</g>
</g>
<!-- github.com/guild&#45;framework/guild&#45;core/pkg/telemetry.createOTLPMetricExporter&#45;&gt;github.com/guild&#45;framework/guild&#45;core/pkg/gerror.Wrap -->
<g id="edge16" class="edge">
<title>github.com/guild&#45;framework/guild&#45;core/pkg/telemetry.createOTLPMetricExporter&#45;&gt;github.com/guild&#45;framework/guild&#45;core/pkg/gerror.Wrap</title>
<g id="a_edge16"><a xlink:title="at exporters.go:206: calling [github.com/guild&#45;framework/guild&#45;core/pkg/gerror.Wrap]">
<path fill="none" stroke="saddlebrown" d="M895.54,-167.2C914.63,-172.45 934.72,-178.75 952.91,-186 969.53,-192.63 987.02,-201.63 1002.02,-210.05"/>
<polygon fill="saddlebrown" stroke="saddlebrown" points="1000.23,-213.06 1010.65,-215 1003.71,-206.99 1000.23,-213.06"/>
</a>
</g>
</g>
<!-- github.com/guild&#45;framework/guild&#45;core/pkg/telemetry.New -->
<g id="node8" class="node">
<title>github.com/guild&#45;framework/guild&#45;core/pkg/telemetry.New</title>
<g id="a_node8"><a xlink:title="github.com/guild&#45;framework/guild&#45;core/pkg/telemetry.New | defined in metrics.go:71&#10;at metrics.go:77: calling [github.com/guild&#45;framework/guild&#45;core/pkg/telemetry.setupOTelProviders]&#10;at metrics.go:79: calling [github.com/guild&#45;framework/guild&#45;core/pkg/gerror.Wrap]&#10;at metrics.go:96: calling [github.com/guild&#45;framework/guild&#45;core/pkg/gerror.Wrap]&#10;at metrics.go:103: calling [github.com/guild&#45;framework/guild&#45;core/pkg/gerror.Wrap]&#10;at metrics.go:100: calling [github.com/guild&#45;framework/guild&#45;core/pkg/telemetry/collectors.NewSystemCollector]&#10;at metrics.go:101: calling [(*github.com/guild&#45;framework/guild&#45;core/pkg/telemetry/collectors.SystemCollector).Register]&#10;at metrics.go:73: calling [github.com/guild&#45;framework/guild&#45;core/pkg/gerror.New]&#10;at metrics.go:93: calling [(*github.com/guild&#45;framework/guild&#45;core/pkg/telemetry.Telemetry).initializeMetrics]">
<path fill="lightblue" stroke="black" stroke-width="1.5" d="M75.52,-245C75.52,-245 45.52,-245 45.52,-245 39.52,-245 33.52,-239 33.52,-233 33.52,-233 33.52,-221 33.52,-221 33.52,-215 39.52,-209 45.52,-209 45.52,-209 75.52,-209 75.52,-209 81.52,-209 87.52,-215 87.52,-221 87.52,-221 87.52,-233 87.52,-233 87.52,-239 81.52,-245 75.52,-245"/>
<text xml:space="preserve" text-anchor="middle" x="60.52" y="-222.32" font-family="Verdana" font-size="14.00">New</text>
</a>
</g>
</g>
<!-- github.com/guild&#45;framework/guild&#45;core/pkg/telemetry.New&#45;&gt;github.com/guild&#45;framework/guild&#45;core/pkg/telemetry.setupOTelProviders -->
<g id="edge5" class="edge">
<title>github.com/guild&#45;framework/guild&#45;core/pkg/telemetry.New&#45;&gt;github.com/guild&#45;framework/guild&#45;core/pkg/telemetry.setupOTelProviders</title>
<g id="a_edge5"><a xlink:title="at metrics.go:77: calling [github.com/guild&#45;framework/guild&#45;core/pkg/telemetry.setupOTelProviders]">
<path fill="none" stroke="black" d="M88.09,-210.83C110.1,-198.01 142.54,-180.4 172.66,-169 181.85,-165.52 191.59,-162.35 201.39,-159.48"/>
<polygon fill="black" stroke="black" points="202.31,-162.86 210.99,-156.78 200.41,-156.12 202.31,-162.86"/>
</a>
</g>
</g>
<!-- (*github.com/guild&#45;framework/guild&#45;core/pkg/telemetry.Telemetry).initializeMetrics -->
<g id="node9" class="node">
<title>(*github.com/guild&#45;framework/guild&#45;core/pkg/telemetry.Telemetry).initializeMetrics</title>
<g id="a_node9"><a xlink:title="(*github.com/guild&#45;framework/guild&#45;core/pkg/telemetry.Telemetry).initializeMetrics | defined in metrics.go:110&#10;at metrics.go:120: calling [github.com/guild&#45;framework/guild&#45;core/pkg/gerror.Wrap]&#10;at metrics.go:128: calling [github.com/guild&#45;framework/guild&#45;core/pkg/gerror.Wrap]&#10;at metrics.go:136: calling [github.com/guild&#45;framework/guild&#45;core/pkg/gerror.Wrap]&#10;at metrics.go:145: calling [github.com/guild&#45;framework/guild&#45;core/pkg/gerror.Wrap]&#10;at metrics.go:153: calling [github.com/guild&#45;framework/guild&#45;core/pkg/gerror.Wrap]&#10;at metrics.go:161: calling [github.com/guild&#45;framework/guild&#45;core/pkg/gerror.Wrap]&#10;at metrics.go:169: calling [github.com/guild&#45;framework/guild&#45;core/pkg/gerror.Wrap]">
<path fill="lightblue" stroke="black" stroke-width="0.5" d="M391.58,-75C391.58,-75 190.04,-75 190.04,-75 184.04,-75 178.04,-69 178.04,-63 178.04,-63 178.04,-51 178.04,-51 178.04,-45 184.04,-39 190.04,-39 190.04,-39 391.58,-39 391.58,-39 397.58,-39 403.58,-45 403.58,-51 403.58,-51 403.58,-63 403.58,-63 403.58,-69 397.58,-75 391.58,-75"/>
<text xml:space="preserve" text-anchor="middle" x="290.81" y="-52.33" font-family="Verdana" font-size="14.00">(*Telemetry).initializeMetrics</text>
</a>
</g>
</g>
<!-- github.com/guild&#45;framework/guild&#45;core/pkg/telemetry.New&#45;&gt;(*github.com/guild&#45;framework/guild&#45;core/pkg/telemetry.Telemetry).initializeMetrics -->
<g id="edge20" class="edge">
<title>github.com/guild&#45;framework/guild&#45;core/pkg/telemetry.New&#45;&gt;(*github.com/guild&#45;framework/guild&#45;core/pkg/telemetry.Telemetry).initializeMetrics</title>
<g id="a_edge20"><a xlink:title="at metrics.go:93: calling [(*github.com/guild&#45;framework/guild&#45;core/pkg/telemetry.Telemetry).initializeMetrics]">
<path fill="none" stroke="black" d="M75.19,-208.66C94.59,-183.66 132.25,-138.73 172.66,-110 189.47,-98.05 209.41,-87.83 228.02,-79.63"/>
<polygon fill="black" stroke="black" points="229.27,-82.9 237.1,-75.76 226.53,-76.46 229.27,-82.9"/>
</a>
</g>
</g>
<!-- github.com/guild&#45;framework/guild&#45;core/pkg/telemetry.New&#45;&gt;github.com/guild&#45;framework/guild&#45;core/pkg/gerror.Wrap -->
<g id="edge10" class="edge">
<title>github.com/guild&#45;framework/guild&#45;core/pkg/telemetry.New&#45;&gt;github.com/guild&#45;framework/guild&#45;core/pkg/gerror.Wrap</title>
<g id="a_edge10"><a xlink:title="at metrics.go:79: calling [github.com/guild&#45;framework/guild&#45;core/pkg/gerror.Wrap]&#10;at metrics.go:96: calling [github.com/guild&#45;framework/guild&#45;core/pkg/gerror.Wrap]&#10;at metrics.go:103: calling [github.com/guild&#45;framework/guild&#45;core/pkg/gerror.Wrap]">
<path fill="none" stroke="saddlebrown" d="M76.53,-245.42C96.01,-267.76 132.31,-304.36 172.66,-320 221.26,-338.83 237.7,-325 289.81,-325 289.81,-325 289.81,-325 440.58,-325 546.42,-325 813.57,-321.97 915.91,-295 933.1,-290.47 971.8,-271.1 1001.73,-255.39"/>
<polygon fill="saddlebrown" stroke="saddlebrown" points="1003.35,-258.49 1010.55,-250.72 1000.08,-252.3 1003.35,-258.49"/>
</a>
</g>
</g>
<!-- github.com/guild&#45;framework/guild&#45;core/pkg/gerror.New -->
<g id="node15" class="node">
<title>github.com/guild&#45;framework/guild&#45;core/pkg/gerror.New</title>
<g id="a_node15"><a xlink:title="github.com/guild&#45;framework/guild&#45;core/pkg/gerror.New | defined in errors.go:190">
<path fill="moccasin" stroke="black" stroke-width="1.5" d="M1057.43,-313C1057.43,-313 1027.43,-313 1027.43,-313 1021.43,-313 1015.43,-307 1015.43,-301 1015.43,-301 1015.43,-289 1015.43,-289 1015.43,-283 1021.43,-277 1027.43,-277 1027.43,-277 1057.43,-277 1057.43,-277 1063.43,-277 1069.43,-283 1069.43,-289 1069.43,-289 1069.43,-301 1069.43,-301 1069.43,-307 1063.43,-313 1057.43,-313"/>
<text xml:space="preserve" text-anchor="middle" x="1042.43" y="-290.32" font-family="Verdana" font-size="14.00">New</text>
</a>
</g>
</g>
<!-- github.com/guild&#45;framework/guild&#45;core/pkg/telemetry.New&#45;&gt;github.com/guild&#45;framework/guild&#45;core/pkg/gerror.New -->
<g id="edge18" class="edge">
<title>github.com/guild&#45;framework/guild&#45;core/pkg/telemetry.New&#45;&gt;github.com/guild&#45;framework/guild&#45;core/pkg/gerror.New</title>
<g id="a_edge18"><a xlink:title="at metrics.go:73: calling [github.com/guild&#45;framework/guild&#45;core/pkg/gerror.New]">
<path fill="none" stroke="saddlebrown" d="M69.03,-245.43C92.62,-300.01 170.82,-457 289.81,-457 289.81,-457 289.81,-457 815.01,-457 860.23,-457 878.31,-469.1 915.91,-444 970.06,-407.85 940.09,-360.07 988.91,-317 993.54,-312.91 999.04,-309.51 1004.71,-306.7"/>
<polygon fill="saddlebrown" stroke="saddlebrown" points="1005.78,-310.05 1013.56,-302.87 1002.99,-303.63 1005.78,-310.05"/>
</a>
</g>
</g>
<!-- github.com/guild&#45;framework/guild&#45;core/pkg/telemetry/collectors.NewSystemCollector -->
<g id="node16" class="node">
<title>github.com/guild&#45;framework/guild&#45;core/pkg/telemetry/collectors.NewSystemCollector</title>
<g id="a_node16"><a xlink:title="github.com/guild&#45;framework/guild&#45;core/pkg/telemetry/collectors.NewSystemCollector | defined in system.go:31">
<path fill="moccasin" stroke="black" stroke-width="1.5" d="M361.95,-219C361.95,-219 219.66,-219 219.66,-219 213.66,-219 207.66,-213 207.66,-207 207.66,-207 207.66,-195 207.66,-195 207.66,-189 213.66,-183 219.66,-183 219.66,-183 361.95,-183 361.95,-183 367.95,-183 373.95,-189 373.95,-195 373.95,-195 373.95,-207 373.95,-207 373.95,-213 367.95,-219 361.95,-219"/>
<text xml:space="preserve" text-anchor="middle" x="290.81" y="-196.32" font-family="Verdana" font-size="14.00">NewSystemCollector</text>
</a>
</g>
</g>
<!-- github.com/guild&#45;framework/guild&#45;core/pkg/telemetry.New&#45;&gt;github.com/guild&#45;framework/guild&#45;core/pkg/telemetry/collectors.NewSystemCollector -->
<g id="edge11" class="edge">
<title>github.com/guild&#45;framework/guild&#45;core/pkg/telemetry.New&#45;&gt;github.com/guild&#45;framework/guild&#45;core/pkg/telemetry/collectors.NewSystemCollector</title>
<g id="a_edge11"><a xlink:title="at metrics.go:100: calling [github.com/guild&#45;framework/guild&#45;core/pkg/telemetry/collectors.NewSystemCollector]">
<path fill="none" stroke="saddlebrown" d="M88.15,-223.97C114.6,-220.96 156.7,-216.16 195.6,-211.73"/>
<polygon fill="saddlebrown" stroke="saddlebrown" points="195.97,-215.21 205.51,-210.6 195.18,-208.25 195.97,-215.21"/>
</a>
</g>
</g>
<!-- (*github.com/guild&#45;framework/guild&#45;core/pkg/telemetry/collectors.SystemCollector).Register -->
<g id="node17" class="node">
<title>(*github.com/guild&#45;framework/guild&#45;core/pkg/telemetry/collectors.SystemCollector).Register</title>
<g id="a_node17"><a xlink:title="(*github.com/guild&#45;framework/guild&#45;core/pkg/telemetry/collectors.SystemCollector).Register | defined in system.go:36">
<path fill="moccasin" stroke="black" stroke-width="1.5" d="M388.95,-280C388.95,-280 192.66,-280 192.66,-280 186.66,-280 180.66,-274 180.66,-268 180.66,-268 180.66,-256 180.66,-256 180.66,-250 186.66,-244 192.66,-244 192.66,-244 388.95,-244 388.95,-244 394.95,-244 400.95,-250 400.95,-256 400.95,-256 400.95,-268 400.95,-268 400.95,-274 394.95,-280 388.95,-280"/>
<text xml:space="preserve" text-anchor="middle" x="290.81" y="-257.32" font-family="Verdana" font-size="14.00">(*SystemCollector).Register</text>
</a>
</g>
</g>
<!-- github.com/guild&#45;framework/guild&#45;core/pkg/telemetry.New&#45;&gt;(*github.com/guild&#45;framework/guild&#45;core/pkg/telemetry/collectors.SystemCollector).Register -->
<g id="edge12" class="edge">
<title>github.com/guild&#45;framework/guild&#45;core/pkg/telemetry.New&#45;&gt;(*github.com/guild&#45;framework/guild&#45;core/pkg/telemetry/collectors.SystemCollector).Register</title>
<g id="a_edge12"><a xlink:title="at metrics.go:101: calling [(*github.com/guild&#45;framework/guild&#45;core/pkg/telemetry/collectors.SystemCollector).Register]">
<path fill="none" stroke="saddlebrown" d="M88.15,-231.08C108.58,-234.22 138.35,-238.78 168.78,-243.44"/>
<polygon fill="saddlebrown" stroke="saddlebrown" points="168.09,-246.88 178.51,-244.94 169.15,-239.96 168.09,-246.88"/>
</a>
</g>
</g>
<!-- (*github.com/guild&#45;framework/guild&#45;core/pkg/telemetry.Telemetry).initializeMetrics&#45;&gt;github.com/guild&#45;framework/guild&#45;core/pkg/gerror.Wrap -->
<g id="edge19" class="edge">
<title>(*github.com/guild&#45;framework/guild&#45;core/pkg/telemetry.Telemetry).initializeMetrics&#45;&gt;github.com/guild&#45;framework/guild&#45;core/pkg/gerror.Wrap</title>
<g id="a_edge19"><a xlink:title="at metrics.go:120: calling [github.com/guild&#45;framework/guild&#45;core/pkg/gerror.Wrap]&#10;at metrics.go:128: calling [github.com/guild&#45;framework/guild&#45;core/pkg/gerror.Wrap]&#10;at metrics.go:136: calling [github.com/guild&#45;framework/guild&#45;core/pkg/gerror.Wrap]&#10;at metrics.go:145: calling [github.com/guild&#45;framework/guild&#45;core/pkg/gerror.Wrap]&#10;at metrics.go:153: calling [github.com/guild&#45;framework/guild&#45;core/pkg/gerror.Wrap]&#10;at metrics.go:161: calling [github.com/guild&#45;framework/guild&#45;core/pkg/gerror.Wrap]&#10;at metrics.go:169: calling [github.com/guild&#45;framework/guild&#45;core/pkg/gerror.Wrap]">
<path fill="none" stroke="saddlebrown" d="M370.78,-38.76C423.24,-28.21 493.8,-17 556.85,-17 556.85,-17 556.85,-17 815.01,-17 860.29,-17 877.98,-6.29 915.91,-31 979.63,-72.51 1016.5,-158.83 1032.27,-204.38"/>
<polygon fill="saddlebrown" stroke="saddlebrown" points="1028.94,-205.48 1035.43,-213.86 1035.58,-203.27 1028.94,-205.48"/>
</a>
</g>
</g>
<!-- github.com/guild&#45;framework/guild&#45;core/pkg/telemetry.TracedError -->
<g id="node10" class="node">
<title>github.com/guild&#45;framework/guild&#45;core/pkg/telemetry.TracedError</title>
<g id="a_node10"><a xlink:title="github.com/guild&#45;framework/guild&#45;core/pkg/telemetry.TracedError | defined in tracing.go:131&#10;at tracing.go:135: calling [github.com/guild&#45;framework/guild&#45;core/pkg/telemetry.RecordError]&#10;at tracing.go:136: calling [github.com/guild&#45;framework/guild&#45;core/pkg/gerror.Wrap]">
<path fill="lightblue" stroke="black" stroke-width="1.5" d="M854.41,-370C854.41,-370 773.62,-370 773.62,-370 767.62,-370 761.62,-364 761.62,-358 761.62,-358 761.62,-346 761.62,-346 761.62,-340 767.62,-334 773.62,-334 773.62,-334 854.41,-334 854.41,-334 860.41,-334 866.41,-340 866.41,-346 866.41,-346 866.41,-358 866.41,-358 866.41,-364 860.41,-370 854.41,-370"/>
<text xml:space="preserve" text-anchor="middle" x="814.01" y="-347.32" font-family="Verdana" font-size="14.00">TracedError</text>
</a>
</g>
</g>
<!-- github.com/guild&#45;framework/guild&#45;core/pkg/telemetry.RecordError -->
<g id="node11" class="node">
<title>github.com/guild&#45;framework/guild&#45;core/pkg/telemetry.RecordError</title>
<g id="a_node11"><a xlink:title="github.com/guild&#45;framework/guild&#45;core/pkg/telemetry.RecordError | defined in tracing.go:122">
<path fill="lightblue" stroke="black" stroke-width="1.5" d="M1083.95,-407C1083.95,-407 1000.91,-407 1000.91,-407 994.91,-407 988.91,-401 988.91,-395 988.91,-395 988.91,-383 988.91,-383 988.91,-377 994.91,-371 1000.91,-371 1000.91,-371 1083.95,-371 1083.95,-371 1089.95,-371 1095.95,-377 1095.95,-383 1095.95,-383 1095.95,-395 1095.95,-395 1095.95,-401 1089.95,-407 1083.95,-407"/>
<text xml:space="preserve" text-anchor="middle" x="1042.43" y="-384.32" font-family="Verdana" font-size="14.00">RecordError</text>
</a>
</g>
</g>
<!-- github.com/guild&#45;framework/guild&#45;core/pkg/telemetry.TracedError&#45;&gt;github.com/guild&#45;framework/guild&#45;core/pkg/telemetry.RecordError -->
<g id="edge6" class="edge">
<title>github.com/guild&#45;framework/guild&#45;core/pkg/telemetry.TracedError&#45;&gt;github.com/guild&#45;framework/guild&#45;core/pkg/telemetry.RecordError</title>
<g id="a_edge6"><a xlink:title="at tracing.go:135: calling [github.com/guild&#45;framework/guild&#45;core/pkg/telemetry.RecordError]">
<path fill="none" stroke="black" d="M866.96,-360.49C899.83,-365.86 942.56,-372.84 977.5,-378.55"/>
<polygon fill="black" stroke="black" points="976.62,-381.96 987.06,-380.11 977.75,-375.05 976.62,-381.96"/>
</a>
</g>
</g>
<!-- github.com/guild&#45;framework/guild&#45;core/pkg/telemetry.TracedError&#45;&gt;github.com/guild&#45;framework/guild&#45;core/pkg/gerror.Wrap -->
<g id="edge21" class="edge">
<title>github.com/guild&#45;framework/guild&#45;core/pkg/telemetry.TracedError&#45;&gt;github.com/guild&#45;framework/guild&#45;core/pkg/gerror.Wrap</title>
<g id="a_edge21"><a xlink:title="at tracing.go:136: calling [github.com/guild&#45;framework/guild&#45;core/pkg/gerror.Wrap]">
<path fill="none" stroke="saddlebrown" d="M867.02,-346.57C894.48,-341.69 927.62,-332.47 952.91,-315 975.44,-299.44 968.69,-283.46 988.91,-265 992.95,-261.31 997.5,-257.85 1002.18,-254.67"/>
<polygon fill="saddlebrown" stroke="saddlebrown" points="1004,-257.67 1010.6,-249.38 1000.27,-251.74 1004,-257.67"/>
</a>
</g>
</g>
<!-- github.com/guild&#45;framework/guild&#45;core/pkg/telemetry.NewNoop -->
<g id="node12" class="node">
<title>github.com/guild&#45;framework/guild&#45;core/pkg/telemetry.NewNoop</title>
<g id="a_node12"><a xlink:title="github.com/guild&#45;framework/guild&#45;core/pkg/telemetry.NewNoop | defined in exporters.go:221&#10;at exporters.go:235: calling [(*github.com/guild&#45;framework/guild&#45;core/pkg/telemetry.Telemetry).initializeMetrics]">
<path fill="lightblue" stroke="black" stroke-width="1.5" d="M93.04,-75C93.04,-75 28,-75 28,-75 22,-75 16,-69 16,-63 16,-63 16,-51 16,-51 16,-45 22,-39 28,-39 28,-39 93.04,-39 93.04,-39 99.04,-39 105.04,-45 105.04,-51 105.04,-51 105.04,-63 105.04,-63 105.04,-69 99.04,-75 93.04,-75"/>
<text xml:space="preserve" text-anchor="middle" x="60.52" y="-52.33" font-family="Verdana" font-size="14.00">NewNoop</text>
</a>
</g>
</g>
<!-- github.com/guild&#45;framework/guild&#45;core/pkg/telemetry.NewNoop&#45;&gt;(*github.com/guild&#45;framework/guild&#45;core/pkg/telemetry.Telemetry).initializeMetrics -->
<g id="edge13" class="edge">
<title>github.com/guild&#45;framework/guild&#45;core/pkg/telemetry.NewNoop&#45;&gt;(*github.com/guild&#45;framework/guild&#45;core/pkg/telemetry.Telemetry).initializeMetrics</title>
<g id="a_edge13"><a xlink:title="at exporters.go:235: calling [(*github.com/guild&#45;framework/guild&#45;core/pkg/telemetry.Telemetry).initializeMetrics]">
<path fill="none" stroke="black" d="M105.54,-57C123.3,-57 144.76,-57 166.67,-57"/>
<polygon fill="black" stroke="black" points="166.64,-60.5 176.64,-57 166.64,-53.5 166.64,-60.5"/>
</a>
</g>
</g>
<!-- (github.com/guild&#45;framework/guild&#45;core/pkg/telemetry.Config).Validate -->
<g id="node13" class="node">
<title>(github.com/guild&#45;framework/guild&#45;core/pkg/telemetry.Config).Validate</title>
<g id="a_node13"><a xlink:title="(github.com/guild&#45;framework/guild&#45;core/pkg/telemetry.Config).Validate | defined in metrics.go:49&#10;at metrics.go:51: calling [github.com/guild&#45;framework/guild&#45;core/pkg/gerror.New]&#10;at metrics.go:54: calling [github.com/guild&#45;framework/guild&#45;core/pkg/gerror.New]">
<path fill="lightblue" stroke="black" stroke-width="1.5" d="M872.41,-431C872.41,-431 755.62,-431 755.62,-431 749.62,-431 743.62,-425 743.62,-419 743.62,-419 743.62,-407 743.62,-407 743.62,-401 749.62,-395 755.62,-395 755.62,-395 872.41,-395 872.41,-395 878.41,-395 884.41,-401 884.41,-407 884.41,-407 884.41,-419 884.41,-419 884.41,-425 878.41,-431 872.41,-431"/>
<text xml:space="preserve" text-anchor="middle" x="814.01" y="-408.32" font-family="Verdana" font-size="14.00">(Config).Validate</text>
</a>
</g>
</g>
<!-- (github.com/guild&#45;framework/guild&#45;core/pkg/telemetry.Config).Validate&#45;&gt;github.com/guild&#45;framework/guild&#45;core/pkg/gerror.New -->
<g id="edge7" class="edge">
<title>(github.com/guild&#45;framework/guild&#45;core/pkg/telemetry.Config).Validate&#45;&gt;github.com/guild&#45;framework/guild&#45;core/pkg/gerror.New</title>
<g id="a_edge7"><a xlink:title="at metrics.go:51: calling [github.com/guild&#45;framework/guild&#45;core/pkg/gerror.New]&#10;at metrics.go:54: calling [github.com/guild&#45;framework/guild&#45;core/pkg/gerror.New]">
<path fill="none" stroke="saddlebrown" d="M885.07,-396.62C895.73,-392.87 906.35,-388.37 915.91,-383 954.04,-361.57 951.99,-340.45 988.91,-317 993.79,-313.9 999.18,-311.07 1004.6,-308.54"/>
<polygon fill="saddlebrown" stroke="saddlebrown" points="1005.74,-311.86 1013.53,-304.68 1002.96,-305.44 1005.74,-311.86"/>
</a>
</g>
</g>
</g>
</svg>
