<?xml version="1.0" encoding="UTF-8" standalone="no"?>
<!DOCTYPE svg PUBLIC "-//W3C//DTD SVG 1.1//EN"
 "http://www.w3.org/Graphics/SVG/1.1/DTD/svg11.dtd">
<!-- Generated by graphviz version 14.1.1 (20251213.1925)
 -->
<!-- Title: gocallvis Pages: 1 -->
<svg width="459pt" height="324pt"
 viewBox="0.00 0.00 459.00 324.00" xmlns="http://www.w3.org/2000/svg" xmlns:xlink="http://www.w3.org/1999/xlink">
<g id="graph0" class="graph" transform="scale(1 1) rotate(0) translate(0 324)">
<title>gocallvis</title>
<polygon fill="lightgray" stroke="none" points="0,0 0,-324 459.08,-324 459.08,0 0,0"/>
<g id="clust1" class="cluster">
<title>cluster_focus</title>
<polygon fill="#e6ecfa" stroke="black" stroke-width="0.5" points="8,-8 8,-316 451.08,-316 451.08,-8 8,-8"/>
<text xml:space="preserve" text-anchor="middle" x="229.54" y="-294.9" font-family="Arial" font-size="18.00">commission</text>
</g>
<g id="clust2" class="cluster">
<title>cluster_github.com/guild&#45;framework/guild&#45;core/pkg/gerror</title>
<g id="a_clust2"><a xlink:href="/?f=github.com/guild-framework/guild-core/pkg/gerror" xlink:title="package: github.com/guild&#45;framework/guild&#45;core/pkg/gerror">
<polygon fill="lightyellow" stroke="black" stroke-width="0.8" points="194.79,-16 194.79,-279 443.08,-279 443.08,-16 194.79,-16"/>
<text xml:space="preserve" text-anchor="middle" x="318.93" y="-259.8" font-family="Tahoma bold" font-size="16.00">gerror</text>
</a>
</g>
</g>
<!-- github.com/guild&#45;framework/guild&#45;core/pkg/prompts/standard/templates/commission.LoadPrompts -->
<g id="node1" class="node">
<title>github.com/guild&#45;framework/guild&#45;core/pkg/prompts/standard/templates/commission.LoadPrompts</title>
<g id="a_node1"><a xlink:title="github.com/guild&#45;framework/guild&#45;core/pkg/prompts/standard/templates/commission.LoadPrompts | defined in commission.go:21&#10;at commission.go:27: calling [github.com/guild&#45;framework/guild&#45;core/pkg/gerror.Wrap]&#10;at commission.go:44: calling [github.com/guild&#45;framework/guild&#45;core/pkg/gerror.Wrap]&#10;at commission.go:53: calling [github.com/guild&#45;framework/guild&#45;core/pkg/gerror.Wrap]&#10;at commission.go:28: calling [(*github.com/guild&#45;framework/guild&#45;core/pkg/gerror.GuildError).WithComponent]&#10;at commission.go:45: calling [(*github.com/guild&#45;framework/guild&#45;core/pkg/gerror.GuildError).WithComponent]&#10;at commission.go:54: calling [(*github.com/guild&#45;framework/guild&#45;core/pkg/gerror.GuildError).WithComponent]&#10;at commission.go:29: calling [(*github.com/guild&#45;framework/guild&#45;core/pkg/gerror.GuildError).WithOperation]&#10;at commission.go:46: calling [(*github.com/guild&#45;framework/guild&#45;core/pkg/gerror.GuildError).WithOperation]&#10;at commission.go:55: calling [(*github.com/guild&#45;framework/guild&#45;core/pkg/gerror.GuildError).WithOperation]&#10;at commission.go:47: calling [(*github.com/guild&#45;framework/guild&#45;core/pkg/gerror.GuildError).WithDetails]&#10;at commission.go:56: calling [(*github.com/guild&#45;framework/guild&#45;core/pkg/gerror.GuildError).WithDetails]">
<path fill="lightblue" stroke="black" stroke-width="1.5" d="M117.79,-151C117.79,-151 28,-151 28,-151 22,-151 16,-145 16,-139 16,-139 16,-127 16,-127 16,-121 22,-115 28,-115 28,-115 117.79,-115 117.79,-115 123.79,-115 129.79,-121 129.79,-127 129.79,-127 129.79,-139 129.79,-139 129.79,-145 123.79,-151 117.79,-151"/>
<text xml:space="preserve" text-anchor="middle" x="72.89" y="-128.32" font-family="Verdana" font-size="14.00">LoadPrompts</text>
</a>
</g>
</g>
<!-- github.com/guild&#45;framework/guild&#45;core/pkg/gerror.Wrap -->
<g id="node2" class="node">
<title>github.com/guild&#45;framework/guild&#45;core/pkg/gerror.Wrap</title>
<g id="a_node2"><a xlink:title="github.com/guild&#45;framework/guild&#45;core/pkg/gerror.Wrap | defined in errors.go:223">
<path fill="moccasin" stroke="black" stroke-width="1.5" d="M336.83,-60C336.83,-60 301.04,-60 301.04,-60 295.04,-60 289.04,-54 289.04,-48 289.04,-48 289.04,-36 289.04,-36 289.04,-30 295.04,-24 301.04,-24 301.04,-24 336.83,-24 336.83,-24 342.83,-24 348.83,-30 348.83,-36 348.83,-36 348.83,-48 348.83,-48 348.83,-54 342.83,-60 336.83,-60"/>
<text xml:space="preserve" text-anchor="middle" x="318.93" y="-37.33" font-family="Verdana" font-size="14.00">Wrap</text>
</a>
</g>
</g>
<!-- github.com/guild&#45;framework/guild&#45;core/pkg/prompts/standard/templates/commission.LoadPrompts&#45;&gt;github.com/guild&#45;framework/guild&#45;core/pkg/gerror.Wrap -->
<g id="edge1" class="edge">
<title>github.com/guild&#45;framework/guild&#45;core/pkg/prompts/standard/templates/commission.LoadPrompts&#45;&gt;github.com/guild&#45;framework/guild&#45;core/pkg/gerror.Wrap</title>
<g id="a_edge1"><a xlink:title="at commission.go:27: calling [github.com/guild&#45;framework/guild&#45;core/pkg/gerror.Wrap]&#10;at commission.go:44: calling [github.com/guild&#45;framework/guild&#45;core/pkg/gerror.Wrap]&#10;at commission.go:53: calling [github.com/guild&#45;framework/guild&#45;core/pkg/gerror.Wrap]">
<path fill="none" stroke="saddlebrown" d="M106.66,-114.34C130.51,-101.36 163.91,-84.4 194.79,-73 221.75,-63.05 253.18,-55.19 277.54,-49.88"/>
<polygon fill="saddlebrown" stroke="saddlebrown" points="278,-53.36 287.06,-47.86 276.55,-46.51 278,-53.36"/>
</a>
</g>
</g>
<!-- (*github.com/guild&#45;framework/guild&#45;core/pkg/gerror.GuildError).WithComponent -->
<g id="node3" class="node">
<title>(*github.com/guild&#45;framework/guild&#45;core/pkg/gerror.GuildError).WithComponent</title>
<g id="a_node3"><a xlink:title="(*github.com/guild&#45;framework/guild&#45;core/pkg/gerror.GuildError).WithComponent | defined in errors.go:156">
<path fill="moccasin" stroke="black" stroke-width="1.5" d="M423.08,-121C423.08,-121 214.79,-121 214.79,-121 208.79,-121 202.79,-115 202.79,-109 202.79,-109 202.79,-97 202.79,-97 202.79,-91 208.79,-85 214.79,-85 214.79,-85 423.08,-85 423.08,-85 429.08,-85 435.08,-91 435.08,-97 435.08,-97 435.08,-109 435.08,-109 435.08,-115 429.08,-121 423.08,-121"/>
<text xml:space="preserve" text-anchor="middle" x="318.93" y="-98.33" font-family="Verdana" font-size="14.00">(*GuildError).WithComponent</text>
</a>
</g>
</g>
<!-- github.com/guild&#45;framework/guild&#45;core/pkg/prompts/standard/templates/commission.LoadPrompts&#45;&gt;(*github.com/guild&#45;framework/guild&#45;core/pkg/gerror.GuildError).WithComponent -->
<g id="edge2" class="edge">
<title>github.com/guild&#45;framework/guild&#45;core/pkg/prompts/standard/templates/commission.LoadPrompts&#45;&gt;(*github.com/guild&#45;framework/guild&#45;core/pkg/gerror.GuildError).WithComponent</title>
<g id="a_edge2"><a xlink:title="at commission.go:28: calling [(*github.com/guild&#45;framework/guild&#45;core/pkg/gerror.GuildError).WithComponent]&#10;at commission.go:45: calling [(*github.com/guild&#45;framework/guild&#45;core/pkg/gerror.GuildError).WithComponent]&#10;at commission.go:54: calling [(*github.com/guild&#45;framework/guild&#45;core/pkg/gerror.GuildError).WithComponent]">
<path fill="none" stroke="saddlebrown" d="M130.5,-126.04C148.84,-123.79 169.99,-121.19 191.32,-118.56"/>
<polygon fill="saddlebrown" stroke="saddlebrown" points="191.48,-122.07 200.98,-117.38 190.63,-115.12 191.48,-122.07"/>
</a>
</g>
</g>
<!-- (*github.com/guild&#45;framework/guild&#45;core/pkg/gerror.GuildError).WithOperation -->
<g id="node4" class="node">
<title>(*github.com/guild&#45;framework/guild&#45;core/pkg/gerror.GuildError).WithOperation</title>
<g id="a_node4"><a xlink:title="(*github.com/guild&#45;framework/guild&#45;core/pkg/gerror.GuildError).WithOperation | defined in errors.go:162">
<path fill="moccasin" stroke="black" stroke-width="1.5" d="M417.45,-182C417.45,-182 220.41,-182 220.41,-182 214.41,-182 208.41,-176 208.41,-170 208.41,-170 208.41,-158 208.41,-158 208.41,-152 214.41,-146 220.41,-146 220.41,-146 417.45,-146 417.45,-146 423.45,-146 429.45,-152 429.45,-158 429.45,-158 429.45,-170 429.45,-170 429.45,-176 423.45,-182 417.45,-182"/>
<text xml:space="preserve" text-anchor="middle" x="318.93" y="-159.32" font-family="Verdana" font-size="14.00">(*GuildError).WithOperation</text>
</a>
</g>
</g>
<!-- github.com/guild&#45;framework/guild&#45;core/pkg/prompts/standard/templates/commission.LoadPrompts&#45;&gt;(*github.com/guild&#45;framework/guild&#45;core/pkg/gerror.GuildError).WithOperation -->
<g id="edge3" class="edge">
<title>github.com/guild&#45;framework/guild&#45;core/pkg/prompts/standard/templates/commission.LoadPrompts&#45;&gt;(*github.com/guild&#45;framework/guild&#45;core/pkg/gerror.GuildError).WithOperation</title>
<g id="a_edge3"><a xlink:title="at commission.go:29: calling [(*github.com/guild&#45;framework/guild&#45;core/pkg/gerror.GuildError).WithOperation]&#10;at commission.go:46: calling [(*github.com/guild&#45;framework/guild&#45;core/pkg/gerror.GuildError).WithOperation]&#10;at commission.go:55: calling [(*github.com/guild&#45;framework/guild&#45;core/pkg/gerror.GuildError).WithOperation]">
<path fill="none" stroke="saddlebrown" d="M130.5,-140.19C150.34,-142.71 173.46,-145.65 196.55,-148.58"/>
<polygon fill="saddlebrown" stroke="saddlebrown" points="196.01,-152.04 206.37,-149.83 196.89,-145.1 196.01,-152.04"/>
</a>
</g>
</g>
<!-- (*github.com/guild&#45;framework/guild&#45;core/pkg/gerror.GuildError).WithDetails -->
<g id="node5" class="node">
<title>(*github.com/guild&#45;framework/guild&#45;core/pkg/gerror.GuildError).WithDetails</title>
<g id="a_node5"><a xlink:title="(*github.com/guild&#45;framework/guild&#45;core/pkg/gerror.GuildError).WithDetails | defined in errors.go:147">
<path fill="moccasin" stroke="black" stroke-width="1.5" d="M406.58,-243C406.58,-243 231.29,-243 231.29,-243 225.29,-243 219.29,-237 219.29,-231 219.29,-231 219.29,-219 219.29,-219 219.29,-213 225.29,-207 231.29,-207 231.29,-207 406.58,-207 406.58,-207 412.58,-207 418.58,-213 418.58,-219 418.58,-219 418.58,-231 418.58,-231 418.58,-237 412.58,-243 406.58,-243"/>
<text xml:space="preserve" text-anchor="middle" x="318.93" y="-220.32" font-family="Verdana" font-size="14.00">(*GuildError).WithDetails</text>
</a>
</g>
</g>
<!-- github.com/guild&#45;framework/guild&#45;core/pkg/prompts/standard/templates/commission.LoadPrompts&#45;&gt;(*github.com/guild&#45;framework/guild&#45;core/pkg/gerror.GuildError).WithDetails -->
<g id="edge4" class="edge">
<title>github.com/guild&#45;framework/guild&#45;core/pkg/prompts/standard/templates/commission.LoadPrompts&#45;&gt;(*github.com/guild&#45;framework/guild&#45;core/pkg/gerror.GuildError).WithDetails</title>
<g id="a_edge4"><a xlink:title="at commission.go:47: calling [(*github.com/guild&#45;framework/guild&#45;core/pkg/gerror.GuildError).WithDetails]&#10;at commission.go:56: calling [(*github.com/guild&#45;framework/guild&#45;core/pkg/gerror.GuildError).WithDetails]">
<path fill="none" stroke="saddlebrown" d="M105.29,-151.7C129.16,-165.26 163.18,-183.23 194.79,-195 202.6,-197.91 210.8,-200.61 219.1,-203.11"/>
<polygon fill="saddlebrown" stroke="saddlebrown" points="218.01,-206.44 228.59,-205.86 219.96,-199.72 218.01,-206.44"/>
</a>
</g>
</g>
</g>
</svg>
