<?xml version="1.0" encoding="UTF-8" standalone="no"?>
<!DOCTYPE svg PUBLIC "-//W3C//DTD SVG 1.1//EN"
 "http://www.w3.org/Graphics/SVG/1.1/DTD/svg11.dtd">
<!-- Generated by graphviz version 14.1.1 (20251213.1925)
 -->
<!-- Title: gocallvis Pages: 1 -->
<svg width="590pt" height="158pt"
 viewBox="0.00 0.00 590.00 158.00" xmlns="http://www.w3.org/2000/svg" xmlns:xlink="http://www.w3.org/1999/xlink">
<g id="graph0" class="graph" transform="scale(1 1) rotate(0) translate(0 158)">
<title>gocallvis</title>
<polygon fill="lightgray" stroke="none" points="0,0 0,-158 589.83,-158 589.83,0 0,0"/>
<g id="clust1" class="cluster">
<title>cluster_focus</title>
<polygon fill="#e6ecfa" stroke="black" stroke-width="0.5" points="8,-8 8,-150 581.83,-150 581.83,-8 8,-8"/>
<text xml:space="preserve" text-anchor="middle" x="294.91" y="-128.9" font-family="Arial" font-size="18.00">mocks</text>
</g>
<!-- github.com/guild&#45;framework/guild&#45;core/pkg/lsp/mocks.NewMockProcessLauncher -->
<g id="node1" class="node">
<title>github.com/guild&#45;framework/guild&#45;core/pkg/lsp/mocks.NewMockProcessLauncher</title>
<g id="a_node1"><a xlink:title="github.com/guild&#45;framework/guild&#45;core/pkg/lsp/mocks.NewMockProcessLauncher | defined in mock_process_launcher.go:28&#10;at mock_process_launcher.go:30: calling [github.com/guild&#45;framework/guild&#45;core/pkg/lsp/mocks.NewMockLSPClient]">
<path fill="lightblue" stroke="black" stroke-width="1.5" d="M257.29,-52C257.29,-52 74.5,-52 74.5,-52 68.5,-52 62.5,-46 62.5,-40 62.5,-40 62.5,-28 62.5,-28 62.5,-22 68.5,-16 74.5,-16 74.5,-16 257.29,-16 257.29,-16 263.29,-16 269.29,-22 269.29,-28 269.29,-28 269.29,-40 269.29,-40 269.29,-46 263.29,-52 257.29,-52"/>
<text xml:space="preserve" text-anchor="middle" x="165.89" y="-29.32" font-family="Verdana" font-size="14.00">NewMockProcessLauncher</text>
</a>
</g>
</g>
<!-- github.com/guild&#45;framework/guild&#45;core/pkg/lsp/mocks.NewMockLSPClient -->
<g id="node2" class="node">
<title>github.com/guild&#45;framework/guild&#45;core/pkg/lsp/mocks.NewMockLSPClient</title>
<g id="a_node2"><a xlink:title="github.com/guild&#45;framework/guild&#45;core/pkg/lsp/mocks.NewMockLSPClient | defined in mock_lsp_client.go:32">
<path fill="lightblue" stroke="black" stroke-width="1.5" d="M546.45,-52C546.45,-52 416.16,-52 416.16,-52 410.16,-52 404.16,-46 404.16,-40 404.16,-40 404.16,-28 404.16,-28 404.16,-22 410.16,-16 416.16,-16 416.16,-16 546.45,-16 546.45,-16 552.45,-16 558.45,-22 558.45,-28 558.45,-28 558.45,-40 558.45,-40 558.45,-46 552.45,-52 546.45,-52"/>
<text xml:space="preserve" text-anchor="middle" x="481.31" y="-29.32" font-family="Verdana" font-size="14.00">NewMockLSPClient</text>
</a>
</g>
</g>
<!-- github.com/guild&#45;framework/guild&#45;core/pkg/lsp/mocks.NewMockProcessLauncher&#45;&gt;github.com/guild&#45;framework/guild&#45;core/pkg/lsp/mocks.NewMockLSPClient -->
<g id="edge1" class="edge">
<title>github.com/guild&#45;framework/guild&#45;core/pkg/lsp/mocks.NewMockProcessLauncher&#45;&gt;github.com/guild&#45;framework/guild&#45;core/pkg/lsp/mocks.NewMockLSPClient</title>
<g id="a_edge1"><a xlink:title="at mock_process_launcher.go:30: calling [github.com/guild&#45;framework/guild&#45;core/pkg/lsp/mocks.NewMockLSPClient]">
<path fill="none" stroke="black" d="M269.95,-34C309.57,-34 354.4,-34 392.46,-34"/>
<polygon fill="black" stroke="black" points="392.01,-37.5 402.01,-34 392.01,-30.5 392.01,-37.5"/>
</a>
</g>
</g>
<!-- (*github.com/guild&#45;framework/guild&#45;core/pkg/lsp/mocks.MockProcessLauncher).LaunchServer -->
<g id="node3" class="node">
<title>(*github.com/guild&#45;framework/guild&#45;core/pkg/lsp/mocks.MockProcessLauncher).LaunchServer</title>
<g id="a_node3"><a xlink:title="(*github.com/guild&#45;framework/guild&#45;core/pkg/lsp/mocks.MockProcessLauncher).LaunchServer | defined in mock_process_launcher.go:35&#10;at mock_process_launcher.go:46: calling [(*github.com/guild&#45;framework/guild&#45;core/pkg/lsp/mocks.MockLSPClient).Start]">
<path fill="lightblue" stroke="black" stroke-width="1.5" d="M303.79,-113C303.79,-113 28,-113 28,-113 22,-113 16,-107 16,-101 16,-101 16,-89 16,-89 16,-83 22,-77 28,-77 28,-77 303.79,-77 303.79,-77 309.79,-77 315.79,-83 315.79,-89 315.79,-89 315.79,-101 315.79,-101 315.79,-107 309.79,-113 303.79,-113"/>
<text xml:space="preserve" text-anchor="middle" x="165.89" y="-90.33" font-family="Verdana" font-size="14.00">(*MockProcessLauncher).LaunchServer</text>
</a>
</g>
</g>
<!-- (*github.com/guild&#45;framework/guild&#45;core/pkg/lsp/mocks.MockLSPClient).Start -->
<g id="node4" class="node">
<title>(*github.com/guild&#45;framework/guild&#45;core/pkg/lsp/mocks.MockLSPClient).Start</title>
<g id="a_node4"><a xlink:title="(*github.com/guild&#45;framework/guild&#45;core/pkg/lsp/mocks.MockLSPClient).Start | defined in mock_lsp_client.go:82">
<path fill="lightblue" stroke="black" stroke-width="1.5" d="M561.83,-113C561.83,-113 400.79,-113 400.79,-113 394.79,-113 388.79,-107 388.79,-101 388.79,-101 388.79,-89 388.79,-89 388.79,-83 394.79,-77 400.79,-77 400.79,-77 561.83,-77 561.83,-77 567.83,-77 573.83,-83 573.83,-89 573.83,-89 573.83,-101 573.83,-101 573.83,-107 567.83,-113 561.83,-113"/>
<text xml:space="preserve" text-anchor="middle" x="481.31" y="-90.33" font-family="Verdana" font-size="14.00">(*MockLSPClient).Start</text>
</a>
</g>
</g>
<!-- (*github.com/guild&#45;framework/guild&#45;core/pkg/lsp/mocks.MockProcessLauncher).LaunchServer&#45;&gt;(*github.com/guild&#45;framework/guild&#45;core/pkg/lsp/mocks.MockLSPClient).Start -->
<g id="edge2" class="edge">
<title>(*github.com/guild&#45;framework/guild&#45;core/pkg/lsp/mocks.MockProcessLauncher).LaunchServer&#45;&gt;(*github.com/guild&#45;framework/guild&#45;core/pkg/lsp/mocks.MockLSPClient).Start</title>
<g id="a_edge2"><a xlink:title="at mock_process_launcher.go:46: calling [(*github.com/guild&#45;framework/guild&#45;core/pkg/lsp/mocks.MockLSPClient).Start]">
<path fill="none" stroke="black" d="M316.26,-95C336.82,-95 357.55,-95 377.03,-95"/>
<polygon fill="black" stroke="black" points="376.83,-98.5 386.83,-95 376.83,-91.5 376.83,-98.5"/>
</a>
</g>
</g>
</g>
</svg>
