<?xml version="1.0" encoding="UTF-8" standalone="no"?>
<!DOCTYPE svg PUBLIC "-//W3C//DTD SVG 1.1//EN"
 "http://www.w3.org/Graphics/SVG/1.1/DTD/svg11.dtd">
<!-- Generated by graphviz version 14.1.1 (20251213.1925)
 -->
<!-- Title: gocallvis Pages: 1 -->
<svg width="938pt" height="693pt"
 viewBox="0.00 0.00 938.00 693.00" xmlns="http://www.w3.org/2000/svg" xmlns:xlink="http://www.w3.org/1999/xlink">
<g id="graph0" class="graph" transform="scale(1 1) rotate(0) translate(0 693)">
<title>gocallvis</title>
<polygon fill="lightgray" stroke="none" points="0,0 0,-693 938.37,-693 938.37,0 0,0"/>
<g id="clust1" class="cluster">
<title>cluster_focus</title>
<polygon fill="#e6ecfa" stroke="black" stroke-width="0.5" points="8,-8 8,-685 930.37,-685 930.37,-8 8,-8"/>
<text xml:space="preserve" text-anchor="middle" x="469.18" y="-663.9" font-family="Arial" font-size="18.00">mock</text>
</g>
<g id="clust2" class="cluster">
<title>cluster_github.com/guild&#45;framework/guild&#45;core/pkg/gerror</title>
<g id="a_clust2"><a xlink:href="/?f=github.com/guild-framework/guild-core/pkg/gerror" xlink:title="package: github.com/guild&#45;framework/guild&#45;core/pkg/gerror">
<polygon fill="lightyellow" stroke="black" stroke-width="0.8" points="674.08,-180 674.08,-504 922.37,-504 922.37,-180 674.08,-180"/>
<text xml:space="preserve" text-anchor="middle" x="798.22" y="-484.8" font-family="Tahoma bold" font-size="16.00">gerror</text>
</a>
</g>
</g>
<!-- (*github.com/guild&#45;framework/guild&#45;core/pkg/providers/mock.Builder).WithError -->
<g id="node1" class="node">
<title>(*github.com/guild&#45;framework/guild&#45;core/pkg/providers/mock.Builder).WithError</title>
<g id="a_node1"><a xlink:title="(*github.com/guild&#45;framework/guild&#45;core/pkg/providers/mock.Builder).WithError | defined in provider.go:447&#10;at provider.go:448: calling [(*github.com/guild&#45;framework/guild&#45;core/pkg/providers/mock.Provider).SetError]">
<path fill="lightblue" stroke="black" stroke-width="1.5" d="M221.29,-52C221.29,-52 79.75,-52 79.75,-52 73.75,-52 67.75,-46 67.75,-40 67.75,-40 67.75,-28 67.75,-28 67.75,-22 73.75,-16 79.75,-16 79.75,-16 221.29,-16 221.29,-16 227.29,-16 233.29,-22 233.29,-28 233.29,-28 233.29,-40 233.29,-40 233.29,-46 227.29,-52 221.29,-52"/>
<text xml:space="preserve" text-anchor="middle" x="150.52" y="-29.32" font-family="Verdana" font-size="14.00">(*Builder).WithError</text>
</a>
</g>
</g>
<!-- (*github.com/guild&#45;framework/guild&#45;core/pkg/providers/mock.Provider).SetError -->
<g id="node2" class="node">
<title>(*github.com/guild&#45;framework/guild&#45;core/pkg/providers/mock.Provider).SetError</title>
<g id="a_node2"><a xlink:title="(*github.com/guild&#45;framework/guild&#45;core/pkg/providers/mock.Provider).SetError | defined in provider.go:110">
<path fill="lightblue" stroke="black" stroke-width="1.5" d="M552.83,-52C552.83,-52 411.29,-52 411.29,-52 405.29,-52 399.29,-46 399.29,-40 399.29,-40 399.29,-28 399.29,-28 399.29,-22 405.29,-16 411.29,-16 411.29,-16 552.83,-16 552.83,-16 558.83,-16 564.83,-22 564.83,-28 564.83,-28 564.83,-40 564.83,-40 564.83,-46 558.83,-52 552.83,-52"/>
<text xml:space="preserve" text-anchor="middle" x="482.06" y="-29.32" font-family="Verdana" font-size="14.00">(*Provider).SetError</text>
</a>
</g>
</g>
<!-- (*github.com/guild&#45;framework/guild&#45;core/pkg/providers/mock.Builder).WithError&#45;&gt;(*github.com/guild&#45;framework/guild&#45;core/pkg/providers/mock.Provider).SetError -->
<g id="edge16" class="edge">
<title>(*github.com/guild&#45;framework/guild&#45;core/pkg/providers/mock.Builder).WithError&#45;&gt;(*github.com/guild&#45;framework/guild&#45;core/pkg/providers/mock.Provider).SetError</title>
<g id="a_edge16"><a xlink:title="at provider.go:448: calling [(*github.com/guild&#45;framework/guild&#45;core/pkg/providers/mock.Provider).SetError]">
<path fill="none" stroke="black" d="M233.83,-34C280.42,-34 338.87,-34 387.23,-34"/>
<polygon fill="black" stroke="black" points="387.15,-37.5 397.15,-34 387.15,-30.5 387.15,-37.5"/>
</a>
</g>
</g>
<!-- (*github.com/guild&#45;framework/guild&#45;core/pkg/providers/mock.Builder).WithDefaultResponse -->
<g id="node3" class="node">
<title>(*github.com/guild&#45;framework/guild&#45;core/pkg/providers/mock.Builder).WithDefaultResponse</title>
<g id="a_node3"><a xlink:title="(*github.com/guild&#45;framework/guild&#45;core/pkg/providers/mock.Builder).WithDefaultResponse | defined in provider.go:453&#10;at provider.go:454: calling [(*github.com/guild&#45;framework/guild&#45;core/pkg/providers/mock.Provider).SetDefaultResponse]">
<path fill="lightblue" stroke="black" stroke-width="1.5" d="M262.54,-113C262.54,-113 38.5,-113 38.5,-113 32.5,-113 26.5,-107 26.5,-101 26.5,-101 26.5,-89 26.5,-89 26.5,-83 32.5,-77 38.5,-77 38.5,-77 262.54,-77 262.54,-77 268.54,-77 274.54,-83 274.54,-89 274.54,-89 274.54,-101 274.54,-101 274.54,-107 268.54,-113 262.54,-113"/>
<text xml:space="preserve" text-anchor="middle" x="150.52" y="-90.33" font-family="Verdana" font-size="14.00">(*Builder).WithDefaultResponse</text>
</a>
</g>
</g>
<!-- (*github.com/guild&#45;framework/guild&#45;core/pkg/providers/mock.Provider).SetDefaultResponse -->
<g id="node4" class="node">
<title>(*github.com/guild&#45;framework/guild&#45;core/pkg/providers/mock.Provider).SetDefaultResponse</title>
<g id="a_node4"><a xlink:title="(*github.com/guild&#45;framework/guild&#45;core/pkg/providers/mock.Provider).SetDefaultResponse | defined in provider.go:117">
<path fill="lightblue" stroke="black" stroke-width="1.5" d="M594.08,-113C594.08,-113 370.04,-113 370.04,-113 364.04,-113 358.04,-107 358.04,-101 358.04,-101 358.04,-89 358.04,-89 358.04,-83 364.04,-77 370.04,-77 370.04,-77 594.08,-77 594.08,-77 600.08,-77 606.08,-83 606.08,-89 606.08,-89 606.08,-101 606.08,-101 606.08,-107 600.08,-113 594.08,-113"/>
<text xml:space="preserve" text-anchor="middle" x="482.06" y="-90.33" font-family="Verdana" font-size="14.00">(*Provider).SetDefaultResponse</text>
</a>
</g>
</g>
<!-- (*github.com/guild&#45;framework/guild&#45;core/pkg/providers/mock.Builder).WithDefaultResponse&#45;&gt;(*github.com/guild&#45;framework/guild&#45;core/pkg/providers/mock.Provider).SetDefaultResponse -->
<g id="edge22" class="edge">
<title>(*github.com/guild&#45;framework/guild&#45;core/pkg/providers/mock.Builder).WithDefaultResponse&#45;&gt;(*github.com/guild&#45;framework/guild&#45;core/pkg/providers/mock.Provider).SetDefaultResponse</title>
<g id="a_edge22"><a xlink:title="at provider.go:454: calling [(*github.com/guild&#45;framework/guild&#45;core/pkg/providers/mock.Provider).SetDefaultResponse]">
<path fill="none" stroke="black" d="M275.17,-95C298.32,-95 322.62,-95 346.1,-95"/>
<polygon fill="black" stroke="black" points="346.03,-98.5 356.03,-95 346.03,-91.5 346.03,-98.5"/>
</a>
</g>
</g>
<!-- github.com/guild&#45;framework/guild&#45;core/pkg/providers/mock.NewProvider -->
<g id="node5" class="node">
<title>github.com/guild&#45;framework/guild&#45;core/pkg/providers/mock.NewProvider</title>
<g id="a_node5"><a xlink:title="github.com/guild&#45;framework/guild&#45;core/pkg/providers/mock.NewProvider | defined in provider.go:42&#10;at provider.go:93: calling [(*github.com/guild&#45;framework/guild&#45;core/pkg/gerror.GuildError).WithComponent]&#10;at provider.go:92: calling [github.com/guild&#45;framework/guild&#45;core/pkg/gerror.Wrap]&#10;at provider.go:94: calling [(*github.com/guild&#45;framework/guild&#45;core/pkg/gerror.GuildError).WithOperation]&#10;at provider.go:90: calling [github.com/guild&#45;framework/guild&#45;core/pkg/providers/mock.loadResponses]">
<path fill="lightblue" stroke="black" stroke-width="1.5" d="M525.45,-404C525.45,-404 438.66,-404 438.66,-404 432.66,-404 426.66,-398 426.66,-392 426.66,-392 426.66,-380 426.66,-380 426.66,-374 432.66,-368 438.66,-368 438.66,-368 525.45,-368 525.45,-368 531.45,-368 537.45,-374 537.45,-380 537.45,-380 537.45,-392 537.45,-392 537.45,-398 531.45,-404 525.45,-404"/>
<text xml:space="preserve" text-anchor="middle" x="482.06" y="-381.32" font-family="Verdana" font-size="14.00">NewProvider</text>
</a>
</g>
</g>
<!-- github.com/guild&#45;framework/guild&#45;core/pkg/providers/mock.loadResponses -->
<g id="node6" class="node">
<title>github.com/guild&#45;framework/guild&#45;core/pkg/providers/mock.loadResponses</title>
<g id="a_node6"><a xlink:title="github.com/guild&#45;framework/guild&#45;core/pkg/providers/mock.loadResponses | defined in loader.go:32">
<path fill="lightblue" stroke="black" stroke-width="0.5" d="M849.87,-548C849.87,-548 746.58,-548 746.58,-548 740.58,-548 734.58,-542 734.58,-536 734.58,-536 734.58,-524 734.58,-524 734.58,-518 740.58,-512 746.58,-512 746.58,-512 849.87,-512 849.87,-512 855.87,-512 861.87,-518 861.87,-524 861.87,-524 861.87,-536 861.87,-536 861.87,-542 855.87,-548 849.87,-548"/>
<text xml:space="preserve" text-anchor="middle" x="798.22" y="-525.33" font-family="Verdana" font-size="14.00">loadResponses</text>
</a>
</g>
</g>
<!-- github.com/guild&#45;framework/guild&#45;core/pkg/providers/mock.NewProvider&#45;&gt;github.com/guild&#45;framework/guild&#45;core/pkg/providers/mock.loadResponses -->
<g id="edge17" class="edge">
<title>github.com/guild&#45;framework/guild&#45;core/pkg/providers/mock.NewProvider&#45;&gt;github.com/guild&#45;framework/guild&#45;core/pkg/providers/mock.loadResponses</title>
<g id="a_edge17"><a xlink:title="at provider.go:90: calling [github.com/guild&#45;framework/guild&#45;core/pkg/providers/mock.loadResponses]">
<path fill="none" stroke="black" d="M538.1,-391.69C560.6,-396.02 586.01,-403.62 606.08,-417 648.09,-445 631.11,-481.48 674.08,-508 688.79,-517.08 706.25,-522.63 723.33,-525.99"/>
<polygon fill="black" stroke="black" points="722.53,-529.4 732.98,-527.63 723.71,-522.5 722.53,-529.4"/>
</a>
</g>
</g>
<!-- github.com/guild&#45;framework/guild&#45;core/pkg/gerror.Wrap -->
<g id="node19" class="node">
<title>github.com/guild&#45;framework/guild&#45;core/pkg/gerror.Wrap</title>
<g id="a_node19"><a xlink:title="github.com/guild&#45;framework/guild&#45;core/pkg/gerror.Wrap | defined in errors.go:223">
<path fill="moccasin" stroke="black" stroke-width="1.5" d="M816.12,-468C816.12,-468 780.33,-468 780.33,-468 774.33,-468 768.33,-462 768.33,-456 768.33,-456 768.33,-444 768.33,-444 768.33,-438 774.33,-432 780.33,-432 780.33,-432 816.12,-432 816.12,-432 822.12,-432 828.12,-438 828.12,-444 828.12,-444 828.12,-456 828.12,-456 828.12,-462 822.12,-468 816.12,-468"/>
<text xml:space="preserve" text-anchor="middle" x="798.22" y="-445.32" font-family="Verdana" font-size="14.00">Wrap</text>
</a>
</g>
</g>
<!-- github.com/guild&#45;framework/guild&#45;core/pkg/providers/mock.NewProvider&#45;&gt;github.com/guild&#45;framework/guild&#45;core/pkg/gerror.Wrap -->
<g id="edge11" class="edge">
<title>github.com/guild&#45;framework/guild&#45;core/pkg/providers/mock.NewProvider&#45;&gt;github.com/guild&#45;framework/guild&#45;core/pkg/gerror.Wrap</title>
<g id="a_edge11"><a xlink:title="at provider.go:92: calling [github.com/guild&#45;framework/guild&#45;core/pkg/gerror.Wrap]">
<path fill="none" stroke="saddlebrown" d="M538.14,-397.22C600.57,-409.94 700.88,-430.37 756.59,-441.72"/>
<polygon fill="saddlebrown" stroke="saddlebrown" points="755.8,-445.13 766.29,-443.7 757.19,-438.27 755.8,-445.13"/>
</a>
</g>
</g>
<!-- (*github.com/guild&#45;framework/guild&#45;core/pkg/gerror.GuildError).WithComponent -->
<g id="node20" class="node">
<title>(*github.com/guild&#45;framework/guild&#45;core/pkg/gerror.GuildError).WithComponent</title>
<g id="a_node20"><a xlink:title="(*github.com/guild&#45;framework/guild&#45;core/pkg/gerror.GuildError).WithComponent | defined in errors.go:156">
<path fill="moccasin" stroke="black" stroke-width="1.5" d="M902.37,-407C902.37,-407 694.08,-407 694.08,-407 688.08,-407 682.08,-401 682.08,-395 682.08,-395 682.08,-383 682.08,-383 682.08,-377 688.08,-371 694.08,-371 694.08,-371 902.37,-371 902.37,-371 908.37,-371 914.37,-377 914.37,-383 914.37,-383 914.37,-395 914.37,-395 914.37,-401 908.37,-407 902.37,-407"/>
<text xml:space="preserve" text-anchor="middle" x="798.22" y="-384.32" font-family="Verdana" font-size="14.00">(*GuildError).WithComponent</text>
</a>
</g>
</g>
<!-- github.com/guild&#45;framework/guild&#45;core/pkg/providers/mock.NewProvider&#45;&gt;(*github.com/guild&#45;framework/guild&#45;core/pkg/gerror.GuildError).WithComponent -->
<g id="edge1" class="edge">
<title>github.com/guild&#45;framework/guild&#45;core/pkg/providers/mock.NewProvider&#45;&gt;(*github.com/guild&#45;framework/guild&#45;core/pkg/gerror.GuildError).WithComponent</title>
<g id="a_edge1"><a xlink:title="at provider.go:93: calling [(*github.com/guild&#45;framework/guild&#45;core/pkg/gerror.GuildError).WithComponent]">
<path fill="none" stroke="saddlebrown" d="M538.11,-395.99C568.91,-400.53 608.05,-404.59 643.08,-403 651.95,-402.6 661.11,-402.07 670.32,-401.44"/>
<polygon fill="saddlebrown" stroke="saddlebrown" points="670.33,-404.95 680.06,-400.75 669.84,-397.97 670.33,-404.95"/>
</a>
</g>
</g>
<!-- (*github.com/guild&#45;framework/guild&#45;core/pkg/gerror.GuildError).WithOperation -->
<g id="node21" class="node">
<title>(*github.com/guild&#45;framework/guild&#45;core/pkg/gerror.GuildError).WithOperation</title>
<g id="a_node21"><a xlink:title="(*github.com/guild&#45;framework/guild&#45;core/pkg/gerror.GuildError).WithOperation | defined in errors.go:162">
<path fill="moccasin" stroke="black" stroke-width="1.5" d="M896.74,-285C896.74,-285 699.7,-285 699.7,-285 693.7,-285 687.7,-279 687.7,-273 687.7,-273 687.7,-261 687.7,-261 687.7,-255 693.7,-249 699.7,-249 699.7,-249 896.74,-249 896.74,-249 902.74,-249 908.74,-255 908.74,-261 908.74,-261 908.74,-273 908.74,-273 908.74,-279 902.74,-285 896.74,-285"/>
<text xml:space="preserve" text-anchor="middle" x="798.22" y="-262.32" font-family="Verdana" font-size="14.00">(*GuildError).WithOperation</text>
</a>
</g>
</g>
<!-- github.com/guild&#45;framework/guild&#45;core/pkg/providers/mock.NewProvider&#45;&gt;(*github.com/guild&#45;framework/guild&#45;core/pkg/gerror.GuildError).WithOperation -->
<g id="edge12" class="edge">
<title>github.com/guild&#45;framework/guild&#45;core/pkg/providers/mock.NewProvider&#45;&gt;(*github.com/guild&#45;framework/guild&#45;core/pkg/gerror.GuildError).WithOperation</title>
<g id="a_edge12"><a xlink:title="at provider.go:94: calling [(*github.com/guild&#45;framework/guild&#45;core/pkg/gerror.GuildError).WithOperation]">
<path fill="none" stroke="saddlebrown" d="M518.5,-367.26C556.24,-347.88 618.13,-317.74 674.08,-298 683.47,-294.69 693.38,-291.58 703.33,-288.71"/>
<polygon fill="saddlebrown" stroke="saddlebrown" points="703.99,-292.16 712.67,-286.09 702.1,-285.42 703.99,-292.16"/>
</a>
</g>
</g>
<!-- (*github.com/guild&#45;framework/guild&#45;core/pkg/providers/mock.Provider).ChatCompletion -->
<g id="node7" class="node">
<title>(*github.com/guild&#45;framework/guild&#45;core/pkg/providers/mock.Provider).ChatCompletion</title>
<g id="a_node7"><a xlink:title="(*github.com/guild&#45;framework/guild&#45;core/pkg/providers/mock.Provider).ChatCompletion | defined in provider.go:154&#10;at provider.go:157: calling [(*github.com/guild&#45;framework/guild&#45;core/pkg/gerror.GuildError).WithComponent]&#10;at provider.go:203: calling [(*github.com/guild&#45;framework/guild&#45;core/pkg/providers/mock.Provider).findYAMLResponse]&#10;at provider.go:156: calling [github.com/guild&#45;framework/guild&#45;core/pkg/gerror.New]&#10;at provider.go:158: calling [(*github.com/guild&#45;framework/guild&#45;core/pkg/gerror.GuildError).WithOperation]">
<path fill="lightblue" stroke="black" stroke-width="1.5" d="M579.08,-235C579.08,-235 385.04,-235 385.04,-235 379.04,-235 373.04,-229 373.04,-223 373.04,-223 373.04,-211 373.04,-211 373.04,-205 379.04,-199 385.04,-199 385.04,-199 579.08,-199 579.08,-199 585.08,-199 591.08,-205 591.08,-211 591.08,-211 591.08,-223 591.08,-223 591.08,-229 585.08,-235 579.08,-235"/>
<text xml:space="preserve" text-anchor="middle" x="482.06" y="-212.32" font-family="Verdana" font-size="14.00">(*Provider).ChatCompletion</text>
</a>
</g>
</g>
<!-- (*github.com/guild&#45;framework/guild&#45;core/pkg/providers/mock.Provider).findYAMLResponse -->
<g id="node8" class="node">
<title>(*github.com/guild&#45;framework/guild&#45;core/pkg/providers/mock.Provider).findYAMLResponse</title>
<g id="a_node8"><a xlink:title="(*github.com/guild&#45;framework/guild&#45;core/pkg/providers/mock.Provider).findYAMLResponse | defined in provider.go:263">
<path fill="lightblue" stroke="black" stroke-width="0.5" d="M905.37,-163C905.37,-163 691.08,-163 691.08,-163 685.08,-163 679.08,-157 679.08,-151 679.08,-151 679.08,-139 679.08,-139 679.08,-133 685.08,-127 691.08,-127 691.08,-127 905.37,-127 905.37,-127 911.37,-127 917.37,-133 917.37,-139 917.37,-139 917.37,-151 917.37,-151 917.37,-157 911.37,-163 905.37,-163"/>
<text xml:space="preserve" text-anchor="middle" x="798.22" y="-140.32" font-family="Verdana" font-size="14.00">(*Provider).findYAMLResponse</text>
</a>
</g>
</g>
<!-- (*github.com/guild&#45;framework/guild&#45;core/pkg/providers/mock.Provider).ChatCompletion&#45;&gt;(*github.com/guild&#45;framework/guild&#45;core/pkg/providers/mock.Provider).findYAMLResponse -->
<g id="edge3" class="edge">
<title>(*github.com/guild&#45;framework/guild&#45;core/pkg/providers/mock.Provider).ChatCompletion&#45;&gt;(*github.com/guild&#45;framework/guild&#45;core/pkg/providers/mock.Provider).findYAMLResponse</title>
<g id="a_edge3"><a xlink:title="at provider.go:203: calling [(*github.com/guild&#45;framework/guild&#45;core/pkg/providers/mock.Provider).findYAMLResponse]">
<path fill="none" stroke="black" d="M564.78,-198.27C608.28,-188.3 661.87,-176.02 706.63,-165.76"/>
<polygon fill="black" stroke="black" points="707.37,-169.18 716.34,-163.54 705.81,-162.36 707.37,-169.18"/>
</a>
</g>
</g>
<!-- (*github.com/guild&#45;framework/guild&#45;core/pkg/providers/mock.Provider).ChatCompletion&#45;&gt;(*github.com/guild&#45;framework/guild&#45;core/pkg/gerror.GuildError).WithComponent -->
<g id="edge2" class="edge">
<title>(*github.com/guild&#45;framework/guild&#45;core/pkg/providers/mock.Provider).ChatCompletion&#45;&gt;(*github.com/guild&#45;framework/guild&#45;core/pkg/gerror.GuildError).WithComponent</title>
<g id="a_edge2"><a xlink:title="at provider.go:157: calling [(*github.com/guild&#45;framework/guild&#45;core/pkg/gerror.GuildError).WithComponent]">
<path fill="none" stroke="saddlebrown" d="M502.49,-235.72C535.2,-266.17 604.51,-326.32 674.08,-359 680.01,-361.79 686.23,-364.33 692.59,-366.65"/>
<polygon fill="saddlebrown" stroke="saddlebrown" points="691.37,-369.93 701.97,-369.86 693.64,-363.31 691.37,-369.93"/>
</a>
</g>
</g>
<!-- (*github.com/guild&#45;framework/guild&#45;core/pkg/providers/mock.Provider).ChatCompletion&#45;&gt;(*github.com/guild&#45;framework/guild&#45;core/pkg/gerror.GuildError).WithOperation -->
<g id="edge8" class="edge">
<title>(*github.com/guild&#45;framework/guild&#45;core/pkg/providers/mock.Provider).ChatCompletion&#45;&gt;(*github.com/guild&#45;framework/guild&#45;core/pkg/gerror.GuildError).WithOperation</title>
<g id="a_edge8"><a xlink:title="at provider.go:158: calling [(*github.com/guild&#45;framework/guild&#45;core/pkg/gerror.GuildError).WithOperation]">
<path fill="none" stroke="saddlebrown" d="M591.62,-234.28C618.74,-238.59 648.01,-243.25 675.71,-247.66"/>
<polygon fill="saddlebrown" stroke="saddlebrown" points="675.14,-251.11 685.57,-249.23 676.24,-244.2 675.14,-251.11"/>
</a>
</g>
</g>
<!-- github.com/guild&#45;framework/guild&#45;core/pkg/gerror.New -->
<g id="node22" class="node">
<title>github.com/guild&#45;framework/guild&#45;core/pkg/gerror.New</title>
<g id="a_node22"><a xlink:title="github.com/guild&#45;framework/guild&#45;core/pkg/gerror.New | defined in errors.go:190">
<path fill="moccasin" stroke="black" stroke-width="1.5" d="M813.22,-224C813.22,-224 783.22,-224 783.22,-224 777.22,-224 771.22,-218 771.22,-212 771.22,-212 771.22,-200 771.22,-200 771.22,-194 777.22,-188 783.22,-188 783.22,-188 813.22,-188 813.22,-188 819.22,-188 825.22,-194 825.22,-200 825.22,-200 825.22,-212 825.22,-212 825.22,-218 819.22,-224 813.22,-224"/>
<text xml:space="preserve" text-anchor="middle" x="798.22" y="-201.32" font-family="Verdana" font-size="14.00">New</text>
</a>
</g>
</g>
<!-- (*github.com/guild&#45;framework/guild&#45;core/pkg/providers/mock.Provider).ChatCompletion&#45;&gt;github.com/guild&#45;framework/guild&#45;core/pkg/gerror.New -->
<g id="edge7" class="edge">
<title>(*github.com/guild&#45;framework/guild&#45;core/pkg/providers/mock.Provider).ChatCompletion&#45;&gt;github.com/guild&#45;framework/guild&#45;core/pkg/gerror.New</title>
<g id="a_edge7"><a xlink:title="at provider.go:156: calling [github.com/guild&#45;framework/guild&#45;core/pkg/gerror.New]">
<path fill="none" stroke="saddlebrown" d="M591.62,-213.2C649.73,-211.16 717.67,-208.79 759.06,-207.34"/>
<polygon fill="saddlebrown" stroke="saddlebrown" points="759.12,-210.84 768.99,-206.99 758.87,-203.84 759.12,-210.84"/>
</a>
</g>
</g>
<!-- (*github.com/guild&#45;framework/guild&#45;core/pkg/providers/mock.Provider).Complete -->
<g id="node9" class="node">
<title>(*github.com/guild&#45;framework/guild&#45;core/pkg/providers/mock.Provider).Complete</title>
<g id="a_node9"><a xlink:title="(*github.com/guild&#45;framework/guild&#45;core/pkg/providers/mock.Provider).Complete | defined in provider.go:353&#10;at provider.go:363: calling [(*github.com/guild&#45;framework/guild&#45;core/pkg/providers/mock.Provider).ChatCompletion]&#10;at provider.go:369: calling [github.com/guild&#45;framework/guild&#45;core/pkg/gerror.New]&#10;at provider.go:371: calling [(*github.com/guild&#45;framework/guild&#45;core/pkg/gerror.GuildError).WithOperation]&#10;at provider.go:370: calling [(*github.com/guild&#45;framework/guild&#45;core/pkg/gerror.GuildError).WithComponent]&#10;at provider.go:372: calling [(*github.com/guild&#45;framework/guild&#45;core/pkg/gerror.GuildError).WithDetails]">
<path fill="lightblue" stroke="black" stroke-width="1.5" d="M225.04,-306C225.04,-306 76,-306 76,-306 70,-306 64,-300 64,-294 64,-294 64,-282 64,-282 64,-276 70,-270 76,-270 76,-270 225.04,-270 225.04,-270 231.04,-270 237.04,-276 237.04,-282 237.04,-282 237.04,-294 237.04,-294 237.04,-300 231.04,-306 225.04,-306"/>
<text xml:space="preserve" text-anchor="middle" x="150.52" y="-283.32" font-family="Verdana" font-size="14.00">(*Provider).Complete</text>
</a>
</g>
</g>
<!-- (*github.com/guild&#45;framework/guild&#45;core/pkg/providers/mock.Provider).Complete&#45;&gt;(*github.com/guild&#45;framework/guild&#45;core/pkg/providers/mock.Provider).ChatCompletion -->
<g id="edge4" class="edge">
<title>(*github.com/guild&#45;framework/guild&#45;core/pkg/providers/mock.Provider).Complete&#45;&gt;(*github.com/guild&#45;framework/guild&#45;core/pkg/providers/mock.Provider).ChatCompletion</title>
<g id="a_edge4"><a xlink:title="at provider.go:363: calling [(*github.com/guild&#45;framework/guild&#45;core/pkg/providers/mock.Provider).ChatCompletion]">
<path fill="none" stroke="black" d="M237.67,-269.44C282.24,-259.84 336.84,-248.07 383.02,-238.12"/>
<polygon fill="black" stroke="black" points="383.75,-241.55 392.79,-236.02 382.27,-234.7 383.75,-241.55"/>
</a>
</g>
</g>
<!-- (*github.com/guild&#45;framework/guild&#45;core/pkg/providers/mock.Provider).Complete&#45;&gt;(*github.com/guild&#45;framework/guild&#45;core/pkg/gerror.GuildError).WithComponent -->
<g id="edge18" class="edge">
<title>(*github.com/guild&#45;framework/guild&#45;core/pkg/providers/mock.Provider).Complete&#45;&gt;(*github.com/guild&#45;framework/guild&#45;core/pkg/gerror.GuildError).WithComponent</title>
<g id="a_edge18"><a xlink:title="at provider.go:370: calling [(*github.com/guild&#45;framework/guild&#45;core/pkg/gerror.GuildError).WithComponent]">
<path fill="none" stroke="saddlebrown" d="M237.48,-300.27C328.96,-313.47 477.87,-335.35 606.08,-356 630.15,-359.88 655.9,-364.2 680.45,-368.41"/>
<polygon fill="saddlebrown" stroke="saddlebrown" points="679.7,-371.83 690.14,-370.08 680.88,-364.93 679.7,-371.83"/>
</a>
</g>
</g>
<!-- (*github.com/guild&#45;framework/guild&#45;core/pkg/providers/mock.Provider).Complete&#45;&gt;(*github.com/guild&#45;framework/guild&#45;core/pkg/gerror.GuildError).WithOperation -->
<g id="edge14" class="edge">
<title>(*github.com/guild&#45;framework/guild&#45;core/pkg/providers/mock.Provider).Complete&#45;&gt;(*github.com/guild&#45;framework/guild&#45;core/pkg/gerror.GuildError).WithOperation</title>
<g id="a_edge14"><a xlink:title="at provider.go:371: calling [(*github.com/guild&#45;framework/guild&#45;core/pkg/gerror.GuildError).WithOperation]">
<path fill="none" stroke="saddlebrown" d="M237.6,-285.2C350.17,-281.54 548.04,-275.1 675.81,-270.95"/>
<polygon fill="saddlebrown" stroke="saddlebrown" points="675.79,-274.45 685.67,-270.63 675.56,-267.46 675.79,-274.45"/>
</a>
</g>
</g>
<!-- (*github.com/guild&#45;framework/guild&#45;core/pkg/providers/mock.Provider).Complete&#45;&gt;github.com/guild&#45;framework/guild&#45;core/pkg/gerror.New -->
<g id="edge13" class="edge">
<title>(*github.com/guild&#45;framework/guild&#45;core/pkg/providers/mock.Provider).Complete&#45;&gt;github.com/guild&#45;framework/guild&#45;core/pkg/gerror.New</title>
<g id="a_edge13"><a xlink:title="at provider.go:369: calling [github.com/guild&#45;framework/guild&#45;core/pkg/gerror.New]">
<path fill="none" stroke="saddlebrown" d="M237.64,-278.76C274.67,-274.91 318.46,-270.53 358.04,-267 468.17,-257.18 496.7,-264.13 606.08,-248 659.85,-240.07 721.05,-225.66 759.4,-215.95"/>
<polygon fill="saddlebrown" stroke="saddlebrown" points="760.25,-219.35 769.07,-213.48 758.52,-212.57 760.25,-219.35"/>
</a>
</g>
</g>
<!-- (*github.com/guild&#45;framework/guild&#45;core/pkg/gerror.GuildError).WithDetails -->
<g id="node23" class="node">
<title>(*github.com/guild&#45;framework/guild&#45;core/pkg/gerror.GuildError).WithDetails</title>
<g id="a_node23"><a xlink:title="(*github.com/guild&#45;framework/guild&#45;core/pkg/gerror.GuildError).WithDetails | defined in errors.go:147">
<path fill="moccasin" stroke="black" stroke-width="1.5" d="M885.87,-346C885.87,-346 710.58,-346 710.58,-346 704.58,-346 698.58,-340 698.58,-334 698.58,-334 698.58,-322 698.58,-322 698.58,-316 704.58,-310 710.58,-310 710.58,-310 885.87,-310 885.87,-310 891.87,-310 897.87,-316 897.87,-322 897.87,-322 897.87,-334 897.87,-334 897.87,-340 891.87,-346 885.87,-346"/>
<text xml:space="preserve" text-anchor="middle" x="798.22" y="-323.32" font-family="Verdana" font-size="14.00">(*GuildError).WithDetails</text>
</a>
</g>
</g>
<!-- (*github.com/guild&#45;framework/guild&#45;core/pkg/providers/mock.Provider).Complete&#45;&gt;(*github.com/guild&#45;framework/guild&#45;core/pkg/gerror.GuildError).WithDetails -->
<g id="edge19" class="edge">
<title>(*github.com/guild&#45;framework/guild&#45;core/pkg/providers/mock.Provider).Complete&#45;&gt;(*github.com/guild&#45;framework/guild&#45;core/pkg/gerror.GuildError).WithDetails</title>
<g id="a_edge19"><a xlink:title="at provider.go:372: calling [(*github.com/guild&#45;framework/guild&#45;core/pkg/gerror.GuildError).WithDetails]">
<path fill="none" stroke="saddlebrown" d="M237.6,-293.33C353.42,-300.51 559.54,-313.28 686.7,-321.15"/>
<polygon fill="saddlebrown" stroke="saddlebrown" points="686.28,-324.63 696.48,-321.76 686.72,-317.65 686.28,-324.63"/>
</a>
</g>
</g>
<!-- github.com/guild&#45;framework/guild&#45;core/pkg/providers/mock.NewBuilder -->
<g id="node10" class="node">
<title>github.com/guild&#45;framework/guild&#45;core/pkg/providers/mock.NewBuilder</title>
<g id="a_node10"><a xlink:title="github.com/guild&#45;framework/guild&#45;core/pkg/providers/mock.NewBuilder | defined in provider.go:428&#10;at provider.go:429: calling [github.com/guild&#45;framework/guild&#45;core/pkg/providers/mock.NewProvider]&#10;at provider.go:434: calling [(*github.com/guild&#45;framework/guild&#45;core/pkg/providers/mock.Provider).Enable]">
<path fill="lightblue" stroke="black" stroke-width="1.5" d="M189.79,-434C189.79,-434 111.25,-434 111.25,-434 105.25,-434 99.25,-428 99.25,-422 99.25,-422 99.25,-410 99.25,-410 99.25,-404 105.25,-398 111.25,-398 111.25,-398 189.79,-398 189.79,-398 195.79,-398 201.79,-404 201.79,-410 201.79,-410 201.79,-422 201.79,-422 201.79,-428 195.79,-434 189.79,-434"/>
<text xml:space="preserve" text-anchor="middle" x="150.52" y="-411.32" font-family="Verdana" font-size="14.00">NewBuilder</text>
</a>
</g>
</g>
<!-- github.com/guild&#45;framework/guild&#45;core/pkg/providers/mock.NewBuilder&#45;&gt;github.com/guild&#45;framework/guild&#45;core/pkg/providers/mock.NewProvider -->
<g id="edge5" class="edge">
<title>github.com/guild&#45;framework/guild&#45;core/pkg/providers/mock.NewBuilder&#45;&gt;github.com/guild&#45;framework/guild&#45;core/pkg/providers/mock.NewProvider</title>
<g id="a_edge5"><a xlink:title="at provider.go:429: calling [github.com/guild&#45;framework/guild&#45;core/pkg/providers/mock.NewProvider]">
<path fill="none" stroke="black" d="M202.29,-411.38C259.31,-406.19 352.07,-397.74 414.77,-392.03"/>
<polygon fill="black" stroke="black" points="414.96,-395.53 424.6,-391.14 414.33,-388.56 414.96,-395.53"/>
</a>
</g>
</g>
<!-- (*github.com/guild&#45;framework/guild&#45;core/pkg/providers/mock.Provider).Enable -->
<g id="node11" class="node">
<title>(*github.com/guild&#45;framework/guild&#45;core/pkg/providers/mock.Provider).Enable</title>
<g id="a_node11"><a xlink:title="(*github.com/guild&#45;framework/guild&#45;core/pkg/providers/mock.Provider).Enable | defined in provider.go:145">
<path fill="lightblue" stroke="black" stroke-width="1.5" d="M547.2,-465C547.2,-465 416.91,-465 416.91,-465 410.91,-465 404.91,-459 404.91,-453 404.91,-453 404.91,-441 404.91,-441 404.91,-435 410.91,-429 416.91,-429 416.91,-429 547.2,-429 547.2,-429 553.2,-429 559.2,-435 559.2,-441 559.2,-441 559.2,-453 559.2,-453 559.2,-459 553.2,-465 547.2,-465"/>
<text xml:space="preserve" text-anchor="middle" x="482.06" y="-442.32" font-family="Verdana" font-size="14.00">(*Provider).Enable</text>
</a>
</g>
</g>
<!-- github.com/guild&#45;framework/guild&#45;core/pkg/providers/mock.NewBuilder&#45;&gt;(*github.com/guild&#45;framework/guild&#45;core/pkg/providers/mock.Provider).Enable -->
<g id="edge6" class="edge">
<title>github.com/guild&#45;framework/guild&#45;core/pkg/providers/mock.NewBuilder&#45;&gt;(*github.com/guild&#45;framework/guild&#45;core/pkg/providers/mock.Provider).Enable</title>
<g id="a_edge6"><a xlink:title="at provider.go:434: calling [(*github.com/guild&#45;framework/guild&#45;core/pkg/providers/mock.Provider).Enable]">
<path fill="none" stroke="black" d="M202.29,-420.78C253.02,-425.55 332.04,-432.98 393.01,-438.72"/>
<polygon fill="black" stroke="black" points="392.39,-442.17 402.67,-439.63 393.04,-435.2 392.39,-442.17"/>
</a>
</g>
</g>
<!-- (*github.com/guild&#45;framework/guild&#45;core/pkg/providers/mock.Provider).StreamChatCompletion -->
<g id="node12" class="node">
<title>(*github.com/guild&#45;framework/guild&#45;core/pkg/providers/mock.Provider).StreamChatCompletion</title>
<g id="a_node12"><a xlink:title="(*github.com/guild&#45;framework/guild&#45;core/pkg/providers/mock.Provider).StreamChatCompletion | defined in provider.go:292&#10;at provider.go:294: calling [(*github.com/guild&#45;framework/guild&#45;core/pkg/providers/mock.Provider).ChatCompletion]&#10;at provider.go:302: calling [github.com/guild&#45;framework/guild&#45;core/pkg/providers/mock.splitIntoChunks]">
<path fill="lightblue" stroke="black" stroke-width="1.5" d="M273.04,-195C273.04,-195 28,-195 28,-195 22,-195 16,-189 16,-183 16,-183 16,-171 16,-171 16,-165 22,-159 28,-159 28,-159 273.04,-159 273.04,-159 279.04,-159 285.04,-165 285.04,-171 285.04,-171 285.04,-183 285.04,-183 285.04,-189 279.04,-195 273.04,-195"/>
<text xml:space="preserve" text-anchor="middle" x="150.52" y="-172.32" font-family="Verdana" font-size="14.00">(*Provider).StreamChatCompletion</text>
</a>
</g>
</g>
<!-- (*github.com/guild&#45;framework/guild&#45;core/pkg/providers/mock.Provider).StreamChatCompletion&#45;&gt;(*github.com/guild&#45;framework/guild&#45;core/pkg/providers/mock.Provider).ChatCompletion -->
<g id="edge9" class="edge">
<title>(*github.com/guild&#45;framework/guild&#45;core/pkg/providers/mock.Provider).StreamChatCompletion&#45;&gt;(*github.com/guild&#45;framework/guild&#45;core/pkg/providers/mock.Provider).ChatCompletion</title>
<g id="a_edge9"><a xlink:title="at provider.go:294: calling [(*github.com/guild&#45;framework/guild&#45;core/pkg/providers/mock.Provider).ChatCompletion]">
<path fill="none" stroke="black" d="M285.56,-193.27C310.59,-196.31 336.6,-199.47 361.18,-202.45"/>
<polygon fill="black" stroke="black" points="360.51,-205.89 370.85,-203.62 361.35,-198.94 360.51,-205.89"/>
</a>
</g>
</g>
<!-- github.com/guild&#45;framework/guild&#45;core/pkg/providers/mock.splitIntoChunks -->
<g id="node13" class="node">
<title>github.com/guild&#45;framework/guild&#45;core/pkg/providers/mock.splitIntoChunks</title>
<g id="a_node13"><a xlink:title="github.com/guild&#45;framework/guild&#45;core/pkg/providers/mock.splitIntoChunks | defined in provider.go:410">
<path fill="lightblue" stroke="black" stroke-width="0.5" d="M536.7,-174C536.7,-174 427.41,-174 427.41,-174 421.41,-174 415.41,-168 415.41,-162 415.41,-162 415.41,-150 415.41,-150 415.41,-144 421.41,-138 427.41,-138 427.41,-138 536.7,-138 536.7,-138 542.7,-138 548.7,-144 548.7,-150 548.7,-150 548.7,-162 548.7,-162 548.7,-168 542.7,-174 536.7,-174"/>
<text xml:space="preserve" text-anchor="middle" x="482.06" y="-151.32" font-family="Verdana" font-size="14.00">splitIntoChunks</text>
</a>
</g>
</g>
<!-- (*github.com/guild&#45;framework/guild&#45;core/pkg/providers/mock.Provider).StreamChatCompletion&#45;&gt;github.com/guild&#45;framework/guild&#45;core/pkg/providers/mock.splitIntoChunks -->
<g id="edge15" class="edge">
<title>(*github.com/guild&#45;framework/guild&#45;core/pkg/providers/mock.Provider).StreamChatCompletion&#45;&gt;github.com/guild&#45;framework/guild&#45;core/pkg/providers/mock.splitIntoChunks</title>
<g id="a_edge15"><a xlink:title="at provider.go:302: calling [github.com/guild&#45;framework/guild&#45;core/pkg/providers/mock.splitIntoChunks]">
<path fill="none" stroke="black" d="M285.56,-168.46C325.92,-165.89 368.82,-163.15 404.13,-160.9"/>
<polygon fill="black" stroke="black" points="404.05,-164.41 413.8,-160.29 403.6,-157.43 404.05,-164.41"/>
</a>
</g>
</g>
<!-- github.com/guild&#45;framework/guild&#45;core/pkg/providers/mock.NewProviderForTesting -->
<g id="node14" class="node">
<title>github.com/guild&#45;framework/guild&#45;core/pkg/providers/mock.NewProviderForTesting</title>
<g id="a_node14"><a xlink:title="github.com/guild&#45;framework/guild&#45;core/pkg/providers/mock.NewProviderForTesting | defined in provider.go:470&#10;at provider.go:499: calling [github.com/guild&#45;framework/guild&#45;core/pkg/providers/mock.loadResponses]">
<path fill="lightblue" stroke="black" stroke-width="1.5" d="M561.83,-526C561.83,-526 402.29,-526 402.29,-526 396.29,-526 390.29,-520 390.29,-514 390.29,-514 390.29,-502 390.29,-502 390.29,-496 396.29,-490 402.29,-490 402.29,-490 561.83,-490 561.83,-490 567.83,-490 573.83,-496 573.83,-502 573.83,-502 573.83,-514 573.83,-514 573.83,-520 567.83,-526 561.83,-526"/>
<text xml:space="preserve" text-anchor="middle" x="482.06" y="-503.32" font-family="Verdana" font-size="14.00">NewProviderForTesting</text>
</a>
</g>
</g>
<!-- github.com/guild&#45;framework/guild&#45;core/pkg/providers/mock.NewProviderForTesting&#45;&gt;github.com/guild&#45;framework/guild&#45;core/pkg/providers/mock.loadResponses -->
<g id="edge20" class="edge">
<title>github.com/guild&#45;framework/guild&#45;core/pkg/providers/mock.NewProviderForTesting&#45;&gt;github.com/guild&#45;framework/guild&#45;core/pkg/providers/mock.loadResponses</title>
<g id="a_edge20"><a xlink:title="at provider.go:499: calling [github.com/guild&#45;framework/guild&#45;core/pkg/providers/mock.loadResponses]">
<path fill="none" stroke="black" d="M574.35,-514.39C621.68,-517.71 678.74,-521.7 723.28,-524.82"/>
<polygon fill="black" stroke="black" points="722.88,-528.3 733.1,-525.51 723.37,-521.32 722.88,-528.3"/>
</a>
</g>
</g>
<!-- (*github.com/guild&#45;framework/guild&#45;core/pkg/providers/mock.Builder).WithResponse -->
<g id="node15" class="node">
<title>(*github.com/guild&#45;framework/guild&#45;core/pkg/providers/mock.Builder).WithResponse</title>
<g id="a_node15"><a xlink:title="(*github.com/guild&#45;framework/guild&#45;core/pkg/providers/mock.Builder).WithResponse | defined in provider.go:441&#10;at provider.go:442: calling [(*github.com/guild&#45;framework/guild&#45;core/pkg/providers/mock.Provider).SetResponse]">
<path fill="lightblue" stroke="black" stroke-width="1.5" d="M237.41,-587C237.41,-587 63.62,-587 63.62,-587 57.62,-587 51.62,-581 51.62,-575 51.62,-575 51.62,-563 51.62,-563 51.62,-557 57.62,-551 63.62,-551 63.62,-551 237.41,-551 237.41,-551 243.41,-551 249.41,-557 249.41,-563 249.41,-563 249.41,-575 249.41,-575 249.41,-581 243.41,-587 237.41,-587"/>
<text xml:space="preserve" text-anchor="middle" x="150.52" y="-564.33" font-family="Verdana" font-size="14.00">(*Builder).WithResponse</text>
</a>
</g>
</g>
<!-- (*github.com/guild&#45;framework/guild&#45;core/pkg/providers/mock.Provider).SetResponse -->
<g id="node16" class="node">
<title>(*github.com/guild&#45;framework/guild&#45;core/pkg/providers/mock.Provider).SetResponse</title>
<g id="a_node16"><a xlink:title="(*github.com/guild&#45;framework/guild&#45;core/pkg/providers/mock.Provider).SetResponse | defined in provider.go:103">
<path fill="lightblue" stroke="black" stroke-width="1.5" d="M568.95,-587C568.95,-587 395.16,-587 395.16,-587 389.16,-587 383.16,-581 383.16,-575 383.16,-575 383.16,-563 383.16,-563 383.16,-557 389.16,-551 395.16,-551 395.16,-551 568.95,-551 568.95,-551 574.95,-551 580.95,-557 580.95,-563 580.95,-563 580.95,-575 580.95,-575 580.95,-581 574.95,-587 568.95,-587"/>
<text xml:space="preserve" text-anchor="middle" x="482.06" y="-564.33" font-family="Verdana" font-size="14.00">(*Provider).SetResponse</text>
</a>
</g>
</g>
<!-- (*github.com/guild&#45;framework/guild&#45;core/pkg/providers/mock.Builder).WithResponse&#45;&gt;(*github.com/guild&#45;framework/guild&#45;core/pkg/providers/mock.Provider).SetResponse -->
<g id="edge21" class="edge">
<title>(*github.com/guild&#45;framework/guild&#45;core/pkg/providers/mock.Builder).WithResponse&#45;&gt;(*github.com/guild&#45;framework/guild&#45;core/pkg/providers/mock.Provider).SetResponse</title>
<g id="a_edge21"><a xlink:title="at provider.go:442: calling [(*github.com/guild&#45;framework/guild&#45;core/pkg/providers/mock.Provider).SetResponse]">
<path fill="none" stroke="black" d="M249.95,-569C288.09,-569 331.94,-569 371.12,-569"/>
<polygon fill="black" stroke="black" points="371.06,-572.5 381.06,-569 371.06,-565.5 371.06,-572.5"/>
</a>
</g>
</g>
<!-- (*github.com/guild&#45;framework/guild&#45;core/pkg/providers/mock.Builder).WithDelay -->
<g id="node17" class="node">
<title>(*github.com/guild&#45;framework/guild&#45;core/pkg/providers/mock.Builder).WithDelay</title>
<g id="a_node17"><a xlink:title="(*github.com/guild&#45;framework/guild&#45;core/pkg/providers/mock.Builder).WithDelay | defined in provider.go:459&#10;at provider.go:460: calling [(*github.com/guild&#45;framework/guild&#45;core/pkg/providers/mock.Provider).SetDelay]">
<path fill="lightblue" stroke="black" stroke-width="1.5" d="M223.16,-648C223.16,-648 77.88,-648 77.88,-648 71.88,-648 65.87,-642 65.87,-636 65.87,-636 65.87,-624 65.87,-624 65.87,-618 71.87,-612 77.87,-612 77.87,-612 223.16,-612 223.16,-612 229.16,-612 235.16,-618 235.16,-624 235.16,-624 235.16,-636 235.16,-636 235.16,-642 229.16,-648 223.16,-648"/>
<text xml:space="preserve" text-anchor="middle" x="150.52" y="-625.33" font-family="Verdana" font-size="14.00">(*Builder).WithDelay</text>
</a>
</g>
</g>
<!-- (*github.com/guild&#45;framework/guild&#45;core/pkg/providers/mock.Provider).SetDelay -->
<g id="node18" class="node">
<title>(*github.com/guild&#45;framework/guild&#45;core/pkg/providers/mock.Provider).SetDelay</title>
<g id="a_node18"><a xlink:title="(*github.com/guild&#45;framework/guild&#45;core/pkg/providers/mock.Provider).SetDelay | defined in provider.go:124">
<path fill="lightblue" stroke="black" stroke-width="1.5" d="M554.7,-648C554.7,-648 409.41,-648 409.41,-648 403.41,-648 397.41,-642 397.41,-636 397.41,-636 397.41,-624 397.41,-624 397.41,-618 403.41,-612 409.41,-612 409.41,-612 554.7,-612 554.7,-612 560.7,-612 566.7,-618 566.7,-624 566.7,-624 566.7,-636 566.7,-636 566.7,-642 560.7,-648 554.7,-648"/>
<text xml:space="preserve" text-anchor="middle" x="482.06" y="-625.33" font-family="Verdana" font-size="14.00">(*Provider).SetDelay</text>
</a>
</g>
</g>
<!-- (*github.com/guild&#45;framework/guild&#45;core/pkg/providers/mock.Builder).WithDelay&#45;&gt;(*github.com/guild&#45;framework/guild&#45;core/pkg/providers/mock.Provider).SetDelay -->
<g id="edge10" class="edge">
<title>(*github.com/guild&#45;framework/guild&#45;core/pkg/providers/mock.Builder).WithDelay&#45;&gt;(*github.com/guild&#45;framework/guild&#45;core/pkg/providers/mock.Provider).SetDelay</title>
<g id="a_edge10"><a xlink:title="at provider.go:460: calling [(*github.com/guild&#45;framework/guild&#45;core/pkg/providers/mock.Provider).SetDelay]">
<path fill="none" stroke="black" d="M235.53,-630C281.34,-630 338.22,-630 385.69,-630"/>
<polygon fill="black" stroke="black" points="385.4,-633.5 395.4,-630 385.4,-626.5 385.4,-633.5"/>
</a>
</g>
</g>
</g>
</svg>
