<?xml version="1.0" encoding="UTF-8" standalone="no"?>
<!DOCTYPE svg PUBLIC "-//W3C//DTD SVG 1.1//EN"
 "http://www.w3.org/Graphics/SVG/1.1/DTD/svg11.dtd">
<!-- Generated by graphviz version 14.1.1 (20251213.1925)
 -->
<!-- Title: gocallvis Pages: 1 -->
<svg width="938pt" height="693pt"
 viewBox="0.00 0.00 938.00 693.00" xmlns="http://www.w3.org/2000/svg" xmlns:xlink="http://www.w3.org/1999/xlink">
<g id="graph0" class="graph" transform="scale(1 1) rotate(0) translate(0 693)">
<title>gocallvis</title>
<polygon fill="lightgray" stroke="none" points="0,0 0,-693 938.37,-693 938.37,0 0,0"/>
<g id="clust1" class="cluster">
<title>cluster_focus</title>
<polygon fill="#e6ecfa" stroke="black" stroke-width="0.5" points="8,-8 8,-685 930.37,-685 930.37,-8 8,-8"/>
<text xml:space="preserve" text-anchor="middle" x="469.18" y="-663.9" font-family="Arial" font-size="18.00">mock</text>
</g>
<g id="clust2" class="cluster">
<title>cluster_github.com/guild&#45;framework/guild&#45;core/pkg/gerror</title>
<g id="a_clust2"><a xlink:href="/?f=github.com/guild-framework/guild-core/pkg/gerror" xlink:title="package: github.com/guild&#45;framework/guild&#45;core/pkg/gerror">
<polygon fill="lightyellow" stroke="black" stroke-width="0.8" points="674.08,-69 674.08,-393 922.37,-393 922.37,-69 674.08,-69"/>
<text xml:space="preserve" text-anchor="middle" x="798.22" y="-373.8" font-family="Tahoma bold" font-size="16.00">gerror</text>
</a>
</g>
</g>
<!-- (*github.com/guild&#45;framework/guild&#45;core/pkg/providers/mock.Provider).ChatCompletion -->
<g id="node1" class="node">
<title>(*github.com/guild&#45;framework/guild&#45;core/pkg/providers/mock.Provider).ChatCompletion</title>
<g id="a_node1"><a xlink:title="(*github.com/guild&#45;framework/guild&#45;core/pkg/providers/mock.Provider).ChatCompletion | defined in provider.go:154&#10;at provider.go:156: calling [github.com/guild&#45;framework/guild&#45;core/pkg/gerror.New]&#10;at provider.go:158: calling [(*github.com/guild&#45;framework/guild&#45;core/pkg/gerror.GuildError).WithOperation]&#10;at provider.go:203: calling [(*github.com/guild&#45;framework/guild&#45;core/pkg/providers/mock.Provider).findYAMLResponse]&#10;at provider.go:157: calling [(*github.com/guild&#45;framework/guild&#45;core/pkg/gerror.GuildError).WithComponent]">
<path fill="lightblue" stroke="black" stroke-width="1.5" d="M579.08,-113C579.08,-113 385.04,-113 385.04,-113 379.04,-113 373.04,-107 373.04,-101 373.04,-101 373.04,-89 373.04,-89 373.04,-83 379.04,-77 385.04,-77 385.04,-77 579.08,-77 579.08,-77 585.08,-77 591.08,-83 591.08,-89 591.08,-89 591.08,-101 591.08,-101 591.08,-107 585.08,-113 579.08,-113"/>
<text xml:space="preserve" text-anchor="middle" x="482.06" y="-90.33" font-family="Verdana" font-size="14.00">(*Provider).ChatCompletion</text>
</a>
</g>
</g>
<!-- (*github.com/guild&#45;framework/guild&#45;core/pkg/providers/mock.Provider).findYAMLResponse -->
<g id="node2" class="node">
<title>(*github.com/guild&#45;framework/guild&#45;core/pkg/providers/mock.Provider).findYAMLResponse</title>
<g id="a_node2"><a xlink:title="(*github.com/guild&#45;framework/guild&#45;core/pkg/providers/mock.Provider).findYAMLResponse | defined in provider.go:263">
<path fill="lightblue" stroke="black" stroke-width="0.5" d="M905.37,-52C905.37,-52 691.08,-52 691.08,-52 685.08,-52 679.08,-46 679.08,-40 679.08,-40 679.08,-28 679.08,-28 679.08,-22 685.08,-16 691.08,-16 691.08,-16 905.37,-16 905.37,-16 911.37,-16 917.37,-22 917.37,-28 917.37,-28 917.37,-40 917.37,-40 917.37,-46 911.37,-52 905.37,-52"/>
<text xml:space="preserve" text-anchor="middle" x="798.22" y="-29.32" font-family="Verdana" font-size="14.00">(*Provider).findYAMLResponse</text>
</a>
</g>
</g>
<!-- (*github.com/guild&#45;framework/guild&#45;core/pkg/providers/mock.Provider).ChatCompletion&#45;&gt;(*github.com/guild&#45;framework/guild&#45;core/pkg/providers/mock.Provider).findYAMLResponse -->
<g id="edge18" class="edge">
<title>(*github.com/guild&#45;framework/guild&#45;core/pkg/providers/mock.Provider).ChatCompletion&#45;&gt;(*github.com/guild&#45;framework/guild&#45;core/pkg/providers/mock.Provider).findYAMLResponse</title>
<g id="a_edge18"><a xlink:title="at provider.go:203: calling [(*github.com/guild&#45;framework/guild&#45;core/pkg/providers/mock.Provider).findYAMLResponse]">
<path fill="none" stroke="black" d="M579.45,-76.28C615.17,-69.35 655.83,-61.45 692.27,-54.38"/>
<polygon fill="black" stroke="black" points="692.8,-57.84 701.95,-52.5 691.47,-50.97 692.8,-57.84"/>
</a>
</g>
</g>
<!-- github.com/guild&#45;framework/guild&#45;core/pkg/gerror.New -->
<g id="node19" class="node">
<title>github.com/guild&#45;framework/guild&#45;core/pkg/gerror.New</title>
<g id="a_node19"><a xlink:title="github.com/guild&#45;framework/guild&#45;core/pkg/gerror.New | defined in errors.go:190">
<path fill="moccasin" stroke="black" stroke-width="1.5" d="M813.22,-113C813.22,-113 783.22,-113 783.22,-113 777.22,-113 771.22,-107 771.22,-101 771.22,-101 771.22,-89 771.22,-89 771.22,-83 777.22,-77 783.22,-77 783.22,-77 813.22,-77 813.22,-77 819.22,-77 825.22,-83 825.22,-89 825.22,-89 825.22,-101 825.22,-101 825.22,-107 819.22,-113 813.22,-113"/>
<text xml:space="preserve" text-anchor="middle" x="798.22" y="-90.33" font-family="Verdana" font-size="14.00">New</text>
</a>
</g>
</g>
<!-- (*github.com/guild&#45;framework/guild&#45;core/pkg/providers/mock.Provider).ChatCompletion&#45;&gt;github.com/guild&#45;framework/guild&#45;core/pkg/gerror.New -->
<g id="edge10" class="edge">
<title>(*github.com/guild&#45;framework/guild&#45;core/pkg/providers/mock.Provider).ChatCompletion&#45;&gt;github.com/guild&#45;framework/guild&#45;core/pkg/gerror.New</title>
<g id="a_edge10"><a xlink:title="at provider.go:156: calling [github.com/guild&#45;framework/guild&#45;core/pkg/gerror.New]">
<path fill="none" stroke="saddlebrown" d="M591.62,-95C649.73,-95 717.67,-95 759.06,-95"/>
<polygon fill="saddlebrown" stroke="saddlebrown" points="758.99,-98.5 768.99,-95 758.99,-91.5 758.99,-98.5"/>
</a>
</g>
</g>
<!-- (*github.com/guild&#45;framework/guild&#45;core/pkg/gerror.GuildError).WithComponent -->
<g id="node20" class="node">
<title>(*github.com/guild&#45;framework/guild&#45;core/pkg/gerror.GuildError).WithComponent</title>
<g id="a_node20"><a xlink:title="(*github.com/guild&#45;framework/guild&#45;core/pkg/gerror.GuildError).WithComponent | defined in errors.go:156">
<path fill="moccasin" stroke="black" stroke-width="1.5" d="M902.37,-296C902.37,-296 694.08,-296 694.08,-296 688.08,-296 682.08,-290 682.08,-284 682.08,-284 682.08,-272 682.08,-272 682.08,-266 688.08,-260 694.08,-260 694.08,-260 902.37,-260 902.37,-260 908.37,-260 914.37,-266 914.37,-272 914.37,-272 914.37,-284 914.37,-284 914.37,-290 908.37,-296 902.37,-296"/>
<text xml:space="preserve" text-anchor="middle" x="798.22" y="-273.32" font-family="Verdana" font-size="14.00">(*GuildError).WithComponent</text>
</a>
</g>
</g>
<!-- (*github.com/guild&#45;framework/guild&#45;core/pkg/providers/mock.Provider).ChatCompletion&#45;&gt;(*github.com/guild&#45;framework/guild&#45;core/pkg/gerror.GuildError).WithComponent -->
<g id="edge22" class="edge">
<title>(*github.com/guild&#45;framework/guild&#45;core/pkg/providers/mock.Provider).ChatCompletion&#45;&gt;(*github.com/guild&#45;framework/guild&#45;core/pkg/gerror.GuildError).WithComponent</title>
<g id="a_edge22"><a xlink:title="at provider.go:157: calling [(*github.com/guild&#45;framework/guild&#45;core/pkg/gerror.GuildError).WithComponent]">
<path fill="none" stroke="saddlebrown" d="M500.66,-113.67C532.24,-146.05 602.02,-212.55 674.08,-248 679.57,-250.7 685.32,-253.17 691.21,-255.42"/>
<polygon fill="saddlebrown" stroke="saddlebrown" points="689.92,-258.68 700.52,-258.75 692.28,-252.09 689.92,-258.68"/>
</a>
</g>
</g>
<!-- (*github.com/guild&#45;framework/guild&#45;core/pkg/gerror.GuildError).WithOperation -->
<g id="node21" class="node">
<title>(*github.com/guild&#45;framework/guild&#45;core/pkg/gerror.GuildError).WithOperation</title>
<g id="a_node21"><a xlink:title="(*github.com/guild&#45;framework/guild&#45;core/pkg/gerror.GuildError).WithOperation | defined in errors.go:162">
<path fill="moccasin" stroke="black" stroke-width="1.5" d="M896.74,-174C896.74,-174 699.7,-174 699.7,-174 693.7,-174 687.7,-168 687.7,-162 687.7,-162 687.7,-150 687.7,-150 687.7,-144 693.7,-138 699.7,-138 699.7,-138 896.74,-138 896.74,-138 902.74,-138 908.74,-144 908.74,-150 908.74,-150 908.74,-162 908.74,-162 908.74,-168 902.74,-174 896.74,-174"/>
<text xml:space="preserve" text-anchor="middle" x="798.22" y="-151.32" font-family="Verdana" font-size="14.00">(*GuildError).WithOperation</text>
</a>
</g>
</g>
<!-- (*github.com/guild&#45;framework/guild&#45;core/pkg/providers/mock.Provider).ChatCompletion&#45;&gt;(*github.com/guild&#45;framework/guild&#45;core/pkg/gerror.GuildError).WithOperation -->
<g id="edge17" class="edge">
<title>(*github.com/guild&#45;framework/guild&#45;core/pkg/providers/mock.Provider).ChatCompletion&#45;&gt;(*github.com/guild&#45;framework/guild&#45;core/pkg/gerror.GuildError).WithOperation</title>
<g id="a_edge17"><a xlink:title="at provider.go:158: calling [(*github.com/guild&#45;framework/guild&#45;core/pkg/gerror.GuildError).WithOperation]">
<path fill="none" stroke="saddlebrown" d="M579.45,-113.72C614.35,-120.49 653.98,-128.19 689.77,-135.14"/>
<polygon fill="saddlebrown" stroke="saddlebrown" points="688.77,-138.51 699.26,-136.98 690.11,-131.64 688.77,-138.51"/>
</a>
</g>
</g>
<!-- (*github.com/guild&#45;framework/guild&#45;core/pkg/providers/mock.Provider).Complete -->
<g id="node3" class="node">
<title>(*github.com/guild&#45;framework/guild&#45;core/pkg/providers/mock.Provider).Complete</title>
<g id="a_node3"><a xlink:title="(*github.com/guild&#45;framework/guild&#45;core/pkg/providers/mock.Provider).Complete | defined in provider.go:353&#10;at provider.go:363: calling [(*github.com/guild&#45;framework/guild&#45;core/pkg/providers/mock.Provider).ChatCompletion]&#10;at provider.go:369: calling [github.com/guild&#45;framework/guild&#45;core/pkg/gerror.New]&#10;at provider.go:370: calling [(*github.com/guild&#45;framework/guild&#45;core/pkg/gerror.GuildError).WithComponent]&#10;at provider.go:371: calling [(*github.com/guild&#45;framework/guild&#45;core/pkg/gerror.GuildError).WithOperation]&#10;at provider.go:372: calling [(*github.com/guild&#45;framework/guild&#45;core/pkg/gerror.GuildError).WithDetails]">
<path fill="lightblue" stroke="black" stroke-width="1.5" d="M225.04,-184C225.04,-184 76,-184 76,-184 70,-184 64,-178 64,-172 64,-172 64,-160 64,-160 64,-154 70,-148 76,-148 76,-148 225.04,-148 225.04,-148 231.04,-148 237.04,-154 237.04,-160 237.04,-160 237.04,-172 237.04,-172 237.04,-178 231.04,-184 225.04,-184"/>
<text xml:space="preserve" text-anchor="middle" x="150.52" y="-161.32" font-family="Verdana" font-size="14.00">(*Provider).Complete</text>
</a>
</g>
</g>
<!-- (*github.com/guild&#45;framework/guild&#45;core/pkg/providers/mock.Provider).Complete&#45;&gt;(*github.com/guild&#45;framework/guild&#45;core/pkg/providers/mock.Provider).ChatCompletion -->
<g id="edge1" class="edge">
<title>(*github.com/guild&#45;framework/guild&#45;core/pkg/providers/mock.Provider).Complete&#45;&gt;(*github.com/guild&#45;framework/guild&#45;core/pkg/providers/mock.Provider).ChatCompletion</title>
<g id="a_edge1"><a xlink:title="at provider.go:363: calling [(*github.com/guild&#45;framework/guild&#45;core/pkg/providers/mock.Provider).ChatCompletion]">
<path fill="none" stroke="black" d="M237.67,-147.44C282.24,-137.84 336.84,-126.07 383.02,-116.12"/>
<polygon fill="black" stroke="black" points="383.75,-119.55 392.79,-114.02 382.27,-112.7 383.75,-119.55"/>
</a>
</g>
</g>
<!-- (*github.com/guild&#45;framework/guild&#45;core/pkg/providers/mock.Provider).Complete&#45;&gt;github.com/guild&#45;framework/guild&#45;core/pkg/gerror.New -->
<g id="edge2" class="edge">
<title>(*github.com/guild&#45;framework/guild&#45;core/pkg/providers/mock.Provider).Complete&#45;&gt;github.com/guild&#45;framework/guild&#45;core/pkg/gerror.New</title>
<g id="a_edge2"><a xlink:title="at provider.go:369: calling [github.com/guild&#45;framework/guild&#45;core/pkg/gerror.New]">
<path fill="none" stroke="saddlebrown" d="M237.59,-160.31C329.16,-153.81 478.14,-141.98 606.08,-126 659.59,-119.32 721.09,-108.84 759.56,-101.94"/>
<polygon fill="saddlebrown" stroke="saddlebrown" points="760.01,-105.42 769.23,-100.2 758.77,-98.53 760.01,-105.42"/>
</a>
</g>
</g>
<!-- (*github.com/guild&#45;framework/guild&#45;core/pkg/providers/mock.Provider).Complete&#45;&gt;(*github.com/guild&#45;framework/guild&#45;core/pkg/gerror.GuildError).WithComponent -->
<g id="edge11" class="edge">
<title>(*github.com/guild&#45;framework/guild&#45;core/pkg/providers/mock.Provider).Complete&#45;&gt;(*github.com/guild&#45;framework/guild&#45;core/pkg/gerror.GuildError).WithComponent</title>
<g id="a_edge11"><a xlink:title="at provider.go:370: calling [(*github.com/guild&#45;framework/guild&#45;core/pkg/gerror.GuildError).WithComponent]">
<path fill="none" stroke="saddlebrown" d="M237.63,-180.12C274.66,-186.1 318.45,-193.04 358.04,-199 468.13,-215.56 496.61,-213.72 606.08,-234 640.82,-240.44 678.81,-248.89 711.7,-256.66"/>
<polygon fill="saddlebrown" stroke="saddlebrown" points="710.63,-260 721.17,-258.91 712.25,-253.19 710.63,-260"/>
</a>
</g>
</g>
<!-- (*github.com/guild&#45;framework/guild&#45;core/pkg/providers/mock.Provider).Complete&#45;&gt;(*github.com/guild&#45;framework/guild&#45;core/pkg/gerror.GuildError).WithOperation -->
<g id="edge12" class="edge">
<title>(*github.com/guild&#45;framework/guild&#45;core/pkg/providers/mock.Provider).Complete&#45;&gt;(*github.com/guild&#45;framework/guild&#45;core/pkg/gerror.GuildError).WithOperation</title>
<g id="a_edge12"><a xlink:title="at provider.go:371: calling [(*github.com/guild&#45;framework/guild&#45;core/pkg/gerror.GuildError).WithOperation]">
<path fill="none" stroke="saddlebrown" d="M237.6,-164.67C350.17,-162.92 548.04,-159.86 675.81,-157.88"/>
<polygon fill="saddlebrown" stroke="saddlebrown" points="675.73,-161.38 685.67,-157.73 675.62,-154.38 675.73,-161.38"/>
</a>
</g>
</g>
<!-- (*github.com/guild&#45;framework/guild&#45;core/pkg/gerror.GuildError).WithDetails -->
<g id="node22" class="node">
<title>(*github.com/guild&#45;framework/guild&#45;core/pkg/gerror.GuildError).WithDetails</title>
<g id="a_node22"><a xlink:title="(*github.com/guild&#45;framework/guild&#45;core/pkg/gerror.GuildError).WithDetails | defined in errors.go:147">
<path fill="moccasin" stroke="black" stroke-width="1.5" d="M885.87,-235C885.87,-235 710.58,-235 710.58,-235 704.58,-235 698.58,-229 698.58,-223 698.58,-223 698.58,-211 698.58,-211 698.58,-205 704.58,-199 710.58,-199 710.58,-199 885.87,-199 885.87,-199 891.87,-199 897.87,-205 897.87,-211 897.87,-211 897.87,-223 897.87,-223 897.87,-229 891.87,-235 885.87,-235"/>
<text xml:space="preserve" text-anchor="middle" x="798.22" y="-212.32" font-family="Verdana" font-size="14.00">(*GuildError).WithDetails</text>
</a>
</g>
</g>
<!-- (*github.com/guild&#45;framework/guild&#45;core/pkg/providers/mock.Provider).Complete&#45;&gt;(*github.com/guild&#45;framework/guild&#45;core/pkg/gerror.GuildError).WithDetails -->
<g id="edge13" class="edge">
<title>(*github.com/guild&#45;framework/guild&#45;core/pkg/providers/mock.Provider).Complete&#45;&gt;(*github.com/guild&#45;framework/guild&#45;core/pkg/gerror.GuildError).WithDetails</title>
<g id="a_edge13"><a xlink:title="at provider.go:372: calling [(*github.com/guild&#45;framework/guild&#45;core/pkg/gerror.GuildError).WithDetails]">
<path fill="none" stroke="saddlebrown" d="M237.6,-172.8C353.42,-181.95 559.54,-198.23 686.7,-208.27"/>
<polygon fill="saddlebrown" stroke="saddlebrown" points="686.24,-211.74 696.48,-209.04 686.79,-204.77 686.24,-211.74"/>
</a>
</g>
</g>
<!-- (*github.com/guild&#45;framework/guild&#45;core/pkg/providers/mock.Builder).WithError -->
<g id="node4" class="node">
<title>(*github.com/guild&#45;framework/guild&#45;core/pkg/providers/mock.Builder).WithError</title>
<g id="a_node4"><a xlink:title="(*github.com/guild&#45;framework/guild&#45;core/pkg/providers/mock.Builder).WithError | defined in provider.go:447&#10;at provider.go:448: calling [(*github.com/guild&#45;framework/guild&#45;core/pkg/providers/mock.Provider).SetError]">
<path fill="lightblue" stroke="black" stroke-width="1.5" d="M221.29,-404C221.29,-404 79.75,-404 79.75,-404 73.75,-404 67.75,-398 67.75,-392 67.75,-392 67.75,-380 67.75,-380 67.75,-374 73.75,-368 79.75,-368 79.75,-368 221.29,-368 221.29,-368 227.29,-368 233.29,-374 233.29,-380 233.29,-380 233.29,-392 233.29,-392 233.29,-398 227.29,-404 221.29,-404"/>
<text xml:space="preserve" text-anchor="middle" x="150.52" y="-381.32" font-family="Verdana" font-size="14.00">(*Builder).WithError</text>
</a>
</g>
</g>
<!-- (*github.com/guild&#45;framework/guild&#45;core/pkg/providers/mock.Provider).SetError -->
<g id="node5" class="node">
<title>(*github.com/guild&#45;framework/guild&#45;core/pkg/providers/mock.Provider).SetError</title>
<g id="a_node5"><a xlink:title="(*github.com/guild&#45;framework/guild&#45;core/pkg/providers/mock.Provider).SetError | defined in provider.go:110">
<path fill="lightblue" stroke="black" stroke-width="1.5" d="M552.83,-404C552.83,-404 411.29,-404 411.29,-404 405.29,-404 399.29,-398 399.29,-392 399.29,-392 399.29,-380 399.29,-380 399.29,-374 405.29,-368 411.29,-368 411.29,-368 552.83,-368 552.83,-368 558.83,-368 564.83,-374 564.83,-380 564.83,-380 564.83,-392 564.83,-392 564.83,-398 558.83,-404 552.83,-404"/>
<text xml:space="preserve" text-anchor="middle" x="482.06" y="-381.32" font-family="Verdana" font-size="14.00">(*Provider).SetError</text>
</a>
</g>
</g>
<!-- (*github.com/guild&#45;framework/guild&#45;core/pkg/providers/mock.Builder).WithError&#45;&gt;(*github.com/guild&#45;framework/guild&#45;core/pkg/providers/mock.Provider).SetError -->
<g id="edge3" class="edge">
<title>(*github.com/guild&#45;framework/guild&#45;core/pkg/providers/mock.Builder).WithError&#45;&gt;(*github.com/guild&#45;framework/guild&#45;core/pkg/providers/mock.Provider).SetError</title>
<g id="a_edge3"><a xlink:title="at provider.go:448: calling [(*github.com/guild&#45;framework/guild&#45;core/pkg/providers/mock.Provider).SetError]">
<path fill="none" stroke="black" d="M233.83,-386C280.42,-386 338.87,-386 387.23,-386"/>
<polygon fill="black" stroke="black" points="387.15,-389.5 397.15,-386 387.15,-382.5 387.15,-389.5"/>
</a>
</g>
</g>
<!-- github.com/guild&#45;framework/guild&#45;core/pkg/providers/mock.NewProvider -->
<g id="node6" class="node">
<title>github.com/guild&#45;framework/guild&#45;core/pkg/providers/mock.NewProvider</title>
<g id="a_node6"><a xlink:title="github.com/guild&#45;framework/guild&#45;core/pkg/providers/mock.NewProvider | defined in provider.go:42&#10;at provider.go:94: calling [(*github.com/guild&#45;framework/guild&#45;core/pkg/gerror.GuildError).WithOperation]&#10;at provider.go:92: calling [github.com/guild&#45;framework/guild&#45;core/pkg/gerror.Wrap]&#10;at provider.go:90: calling [github.com/guild&#45;framework/guild&#45;core/pkg/providers/mock.loadResponses]&#10;at provider.go:93: calling [(*github.com/guild&#45;framework/guild&#45;core/pkg/gerror.GuildError).WithComponent]">
<path fill="lightblue" stroke="black" stroke-width="1.5" d="M525.45,-282C525.45,-282 438.66,-282 438.66,-282 432.66,-282 426.66,-276 426.66,-270 426.66,-270 426.66,-258 426.66,-258 426.66,-252 432.66,-246 438.66,-246 438.66,-246 525.45,-246 525.45,-246 531.45,-246 537.45,-252 537.45,-258 537.45,-258 537.45,-270 537.45,-270 537.45,-276 531.45,-282 525.45,-282"/>
<text xml:space="preserve" text-anchor="middle" x="482.06" y="-259.32" font-family="Verdana" font-size="14.00">NewProvider</text>
</a>
</g>
</g>
<!-- github.com/guild&#45;framework/guild&#45;core/pkg/providers/mock.loadResponses -->
<g id="node7" class="node">
<title>github.com/guild&#45;framework/guild&#45;core/pkg/providers/mock.loadResponses</title>
<g id="a_node7"><a xlink:title="github.com/guild&#45;framework/guild&#45;core/pkg/providers/mock.loadResponses | defined in loader.go:32">
<path fill="lightblue" stroke="black" stroke-width="0.5" d="M849.87,-512C849.87,-512 746.58,-512 746.58,-512 740.58,-512 734.58,-506 734.58,-500 734.58,-500 734.58,-488 734.58,-488 734.58,-482 740.58,-476 746.58,-476 746.58,-476 849.87,-476 849.87,-476 855.87,-476 861.87,-482 861.87,-488 861.87,-488 861.87,-500 861.87,-500 861.87,-506 855.87,-512 849.87,-512"/>
<text xml:space="preserve" text-anchor="middle" x="798.22" y="-489.32" font-family="Verdana" font-size="14.00">loadResponses</text>
</a>
</g>
</g>
<!-- github.com/guild&#45;framework/guild&#45;core/pkg/providers/mock.NewProvider&#45;&gt;github.com/guild&#45;framework/guild&#45;core/pkg/providers/mock.loadResponses -->
<g id="edge19" class="edge">
<title>github.com/guild&#45;framework/guild&#45;core/pkg/providers/mock.NewProvider&#45;&gt;github.com/guild&#45;framework/guild&#45;core/pkg/providers/mock.loadResponses</title>
<g id="a_edge19"><a xlink:title="at provider.go:90: calling [github.com/guild&#45;framework/guild&#45;core/pkg/providers/mock.loadResponses]">
<path fill="none" stroke="black" d="M537.9,-268.97C560.63,-273.17 586.26,-280.87 606.08,-295 651.05,-327.06 636.58,-358.46 674.08,-399 699.36,-426.33 733.13,-451.78 758.92,-469.45"/>
<polygon fill="black" stroke="black" points="756.87,-472.29 767.12,-474.98 760.78,-466.48 756.87,-472.29"/>
</a>
</g>
</g>
<!-- github.com/guild&#45;framework/guild&#45;core/pkg/providers/mock.NewProvider&#45;&gt;(*github.com/guild&#45;framework/guild&#45;core/pkg/gerror.GuildError).WithComponent -->
<g id="edge21" class="edge">
<title>github.com/guild&#45;framework/guild&#45;core/pkg/providers/mock.NewProvider&#45;&gt;(*github.com/guild&#45;framework/guild&#45;core/pkg/gerror.GuildError).WithComponent</title>
<g id="a_edge21"><a xlink:title="at provider.go:93: calling [(*github.com/guild&#45;framework/guild&#45;core/pkg/gerror.GuildError).WithComponent]">
<path fill="none" stroke="saddlebrown" d="M538.08,-273.01C568.88,-277.26 608.02,-281.34 643.08,-281 651.93,-280.91 661.06,-280.8 670.26,-280.67"/>
<polygon fill="saddlebrown" stroke="saddlebrown" points="670.04,-284.17 679.98,-280.52 669.93,-277.17 670.04,-284.17"/>
</a>
</g>
</g>
<!-- github.com/guild&#45;framework/guild&#45;core/pkg/providers/mock.NewProvider&#45;&gt;(*github.com/guild&#45;framework/guild&#45;core/pkg/gerror.GuildError).WithOperation -->
<g id="edge7" class="edge">
<title>github.com/guild&#45;framework/guild&#45;core/pkg/providers/mock.NewProvider&#45;&gt;(*github.com/guild&#45;framework/guild&#45;core/pkg/gerror.GuildError).WithOperation</title>
<g id="a_edge7"><a xlink:title="at provider.go:94: calling [(*github.com/guild&#45;framework/guild&#45;core/pkg/gerror.GuildError).WithOperation]">
<path fill="none" stroke="saddlebrown" d="M524.56,-245.35C562.85,-228.61 621.55,-204.11 674.08,-187 684.11,-183.73 694.7,-180.6 705.29,-177.67"/>
<polygon fill="saddlebrown" stroke="saddlebrown" points="706.09,-181.08 714.83,-175.09 704.26,-174.32 706.09,-181.08"/>
</a>
</g>
</g>
<!-- github.com/guild&#45;framework/guild&#45;core/pkg/gerror.Wrap -->
<g id="node23" class="node">
<title>github.com/guild&#45;framework/guild&#45;core/pkg/gerror.Wrap</title>
<g id="a_node23"><a xlink:title="github.com/guild&#45;framework/guild&#45;core/pkg/gerror.Wrap | defined in errors.go:223">
<path fill="moccasin" stroke="black" stroke-width="1.5" d="M816.12,-357C816.12,-357 780.33,-357 780.33,-357 774.33,-357 768.33,-351 768.33,-345 768.33,-345 768.33,-333 768.33,-333 768.33,-327 774.33,-321 780.33,-321 780.33,-321 816.12,-321 816.12,-321 822.12,-321 828.12,-327 828.12,-333 828.12,-333 828.12,-345 828.12,-345 828.12,-351 822.12,-357 816.12,-357"/>
<text xml:space="preserve" text-anchor="middle" x="798.22" y="-334.32" font-family="Verdana" font-size="14.00">Wrap</text>
</a>
</g>
</g>
<!-- github.com/guild&#45;framework/guild&#45;core/pkg/providers/mock.NewProvider&#45;&gt;github.com/guild&#45;framework/guild&#45;core/pkg/gerror.Wrap -->
<g id="edge9" class="edge">
<title>github.com/guild&#45;framework/guild&#45;core/pkg/providers/mock.NewProvider&#45;&gt;github.com/guild&#45;framework/guild&#45;core/pkg/gerror.Wrap</title>
<g id="a_edge9"><a xlink:title="at provider.go:92: calling [github.com/guild&#45;framework/guild&#45;core/pkg/gerror.Wrap]">
<path fill="none" stroke="saddlebrown" d="M538.14,-277.15C600.57,-292.05 700.88,-316 756.59,-329.3"/>
<polygon fill="saddlebrown" stroke="saddlebrown" points="755.77,-332.7 766.31,-331.62 757.39,-325.89 755.77,-332.7"/>
</a>
</g>
</g>
<!-- github.com/guild&#45;framework/guild&#45;core/pkg/providers/mock.NewBuilder -->
<g id="node8" class="node">
<title>github.com/guild&#45;framework/guild&#45;core/pkg/providers/mock.NewBuilder</title>
<g id="a_node8"><a xlink:title="github.com/guild&#45;framework/guild&#45;core/pkg/providers/mock.NewBuilder | defined in provider.go:428&#10;at provider.go:434: calling [(*github.com/guild&#45;framework/guild&#45;core/pkg/providers/mock.Provider).Enable]&#10;at provider.go:429: calling [github.com/guild&#45;framework/guild&#45;core/pkg/providers/mock.NewProvider]">
<path fill="lightblue" stroke="black" stroke-width="1.5" d="M189.79,-313C189.79,-313 111.25,-313 111.25,-313 105.25,-313 99.25,-307 99.25,-301 99.25,-301 99.25,-289 99.25,-289 99.25,-283 105.25,-277 111.25,-277 111.25,-277 189.79,-277 189.79,-277 195.79,-277 201.79,-283 201.79,-289 201.79,-289 201.79,-301 201.79,-301 201.79,-307 195.79,-313 189.79,-313"/>
<text xml:space="preserve" text-anchor="middle" x="150.52" y="-290.32" font-family="Verdana" font-size="14.00">NewBuilder</text>
</a>
</g>
</g>
<!-- github.com/guild&#45;framework/guild&#45;core/pkg/providers/mock.NewBuilder&#45;&gt;github.com/guild&#45;framework/guild&#45;core/pkg/providers/mock.NewProvider -->
<g id="edge8" class="edge">
<title>github.com/guild&#45;framework/guild&#45;core/pkg/providers/mock.NewBuilder&#45;&gt;github.com/guild&#45;framework/guild&#45;core/pkg/providers/mock.NewProvider</title>
<g id="a_edge8"><a xlink:title="at provider.go:429: calling [github.com/guild&#45;framework/guild&#45;core/pkg/providers/mock.NewProvider]">
<path fill="none" stroke="black" d="M202.29,-290.22C259.31,-284.86 352.07,-276.13 414.77,-270.24"/>
<polygon fill="black" stroke="black" points="414.98,-273.73 424.6,-269.31 414.32,-266.76 414.98,-273.73"/>
</a>
</g>
</g>
<!-- (*github.com/guild&#45;framework/guild&#45;core/pkg/providers/mock.Provider).Enable -->
<g id="node9" class="node">
<title>(*github.com/guild&#45;framework/guild&#45;core/pkg/providers/mock.Provider).Enable</title>
<g id="a_node9"><a xlink:title="(*github.com/guild&#45;framework/guild&#45;core/pkg/providers/mock.Provider).Enable | defined in provider.go:145">
<path fill="lightblue" stroke="black" stroke-width="1.5" d="M547.2,-343C547.2,-343 416.91,-343 416.91,-343 410.91,-343 404.91,-337 404.91,-331 404.91,-331 404.91,-319 404.91,-319 404.91,-313 410.91,-307 416.91,-307 416.91,-307 547.2,-307 547.2,-307 553.2,-307 559.2,-313 559.2,-319 559.2,-319 559.2,-331 559.2,-331 559.2,-337 553.2,-343 547.2,-343"/>
<text xml:space="preserve" text-anchor="middle" x="482.06" y="-320.32" font-family="Verdana" font-size="14.00">(*Provider).Enable</text>
</a>
</g>
</g>
<!-- github.com/guild&#45;framework/guild&#45;core/pkg/providers/mock.NewBuilder&#45;&gt;(*github.com/guild&#45;framework/guild&#45;core/pkg/providers/mock.Provider).Enable -->
<g id="edge4" class="edge">
<title>github.com/guild&#45;framework/guild&#45;core/pkg/providers/mock.NewBuilder&#45;&gt;(*github.com/guild&#45;framework/guild&#45;core/pkg/providers/mock.Provider).Enable</title>
<g id="a_edge4"><a xlink:title="at provider.go:434: calling [(*github.com/guild&#45;framework/guild&#45;core/pkg/providers/mock.Provider).Enable]">
<path fill="none" stroke="black" d="M202.29,-299.62C253.02,-304.24 332.04,-311.43 393.01,-316.98"/>
<polygon fill="black" stroke="black" points="392.4,-320.44 402.67,-317.86 393.03,-313.47 392.4,-320.44"/>
</a>
</g>
</g>
<!-- (*github.com/guild&#45;framework/guild&#45;core/pkg/providers/mock.Provider).StreamChatCompletion -->
<g id="node10" class="node">
<title>(*github.com/guild&#45;framework/guild&#45;core/pkg/providers/mock.Provider).StreamChatCompletion</title>
<g id="a_node10"><a xlink:title="(*github.com/guild&#45;framework/guild&#45;core/pkg/providers/mock.Provider).StreamChatCompletion | defined in provider.go:292&#10;at provider.go:302: calling [github.com/guild&#45;framework/guild&#45;core/pkg/providers/mock.splitIntoChunks]&#10;at provider.go:294: calling [(*github.com/guild&#45;framework/guild&#45;core/pkg/providers/mock.Provider).ChatCompletion]">
<path fill="lightblue" stroke="black" stroke-width="1.5" d="M273.04,-68C273.04,-68 28,-68 28,-68 22,-68 16,-62 16,-56 16,-56 16,-44 16,-44 16,-38 22,-32 28,-32 28,-32 273.04,-32 273.04,-32 279.04,-32 285.04,-38 285.04,-44 285.04,-44 285.04,-56 285.04,-56 285.04,-62 279.04,-68 273.04,-68"/>
<text xml:space="preserve" text-anchor="middle" x="150.52" y="-45.33" font-family="Verdana" font-size="14.00">(*Provider).StreamChatCompletion</text>
</a>
</g>
</g>
<!-- (*github.com/guild&#45;framework/guild&#45;core/pkg/providers/mock.Provider).StreamChatCompletion&#45;&gt;(*github.com/guild&#45;framework/guild&#45;core/pkg/providers/mock.Provider).ChatCompletion -->
<g id="edge14" class="edge">
<title>(*github.com/guild&#45;framework/guild&#45;core/pkg/providers/mock.Provider).StreamChatCompletion&#45;&gt;(*github.com/guild&#45;framework/guild&#45;core/pkg/providers/mock.Provider).ChatCompletion</title>
<g id="a_edge14"><a xlink:title="at provider.go:294: calling [(*github.com/guild&#45;framework/guild&#45;core/pkg/providers/mock.Provider).ChatCompletion]">
<path fill="none" stroke="black" d="M285.56,-68.3C310.59,-71.72 336.6,-75.27 361.18,-78.63"/>
<polygon fill="black" stroke="black" points="360.48,-82.07 370.86,-79.95 361.42,-75.13 360.48,-82.07"/>
</a>
</g>
</g>
<!-- github.com/guild&#45;framework/guild&#45;core/pkg/providers/mock.splitIntoChunks -->
<g id="node11" class="node">
<title>github.com/guild&#45;framework/guild&#45;core/pkg/providers/mock.splitIntoChunks</title>
<g id="a_node11"><a xlink:title="github.com/guild&#45;framework/guild&#45;core/pkg/providers/mock.splitIntoChunks | defined in provider.go:410">
<path fill="lightblue" stroke="black" stroke-width="0.5" d="M536.7,-52C536.7,-52 427.41,-52 427.41,-52 421.41,-52 415.41,-46 415.41,-40 415.41,-40 415.41,-28 415.41,-28 415.41,-22 421.41,-16 427.41,-16 427.41,-16 536.7,-16 536.7,-16 542.7,-16 548.7,-22 548.7,-28 548.7,-28 548.7,-40 548.7,-40 548.7,-46 542.7,-52 536.7,-52"/>
<text xml:space="preserve" text-anchor="middle" x="482.06" y="-29.32" font-family="Verdana" font-size="14.00">splitIntoChunks</text>
</a>
</g>
</g>
<!-- (*github.com/guild&#45;framework/guild&#45;core/pkg/providers/mock.Provider).StreamChatCompletion&#45;&gt;github.com/guild&#45;framework/guild&#45;core/pkg/providers/mock.splitIntoChunks -->
<g id="edge5" class="edge">
<title>(*github.com/guild&#45;framework/guild&#45;core/pkg/providers/mock.Provider).StreamChatCompletion&#45;&gt;github.com/guild&#45;framework/guild&#45;core/pkg/providers/mock.splitIntoChunks</title>
<g id="a_edge5"><a xlink:title="at provider.go:302: calling [github.com/guild&#45;framework/guild&#45;core/pkg/providers/mock.splitIntoChunks]">
<path fill="none" stroke="black" d="M285.56,-43.49C325.92,-41.53 368.82,-39.45 404.13,-37.74"/>
<polygon fill="black" stroke="black" points="403.98,-41.25 413.8,-37.27 403.64,-34.25 403.98,-41.25"/>
</a>
</g>
</g>
<!-- (*github.com/guild&#45;framework/guild&#45;core/pkg/providers/mock.Builder).WithDelay -->
<g id="node12" class="node">
<title>(*github.com/guild&#45;framework/guild&#45;core/pkg/providers/mock.Builder).WithDelay</title>
<g id="a_node12"><a xlink:title="(*github.com/guild&#45;framework/guild&#45;core/pkg/providers/mock.Builder).WithDelay | defined in provider.go:459&#10;at provider.go:460: calling [(*github.com/guild&#45;framework/guild&#45;core/pkg/providers/mock.Provider).SetDelay]">
<path fill="lightblue" stroke="black" stroke-width="1.5" d="M223.16,-465C223.16,-465 77.88,-465 77.88,-465 71.88,-465 65.87,-459 65.87,-453 65.87,-453 65.87,-441 65.87,-441 65.87,-435 71.87,-429 77.87,-429 77.87,-429 223.16,-429 223.16,-429 229.16,-429 235.16,-435 235.16,-441 235.16,-441 235.16,-453 235.16,-453 235.16,-459 229.16,-465 223.16,-465"/>
<text xml:space="preserve" text-anchor="middle" x="150.52" y="-442.32" font-family="Verdana" font-size="14.00">(*Builder).WithDelay</text>
</a>
</g>
</g>
<!-- (*github.com/guild&#45;framework/guild&#45;core/pkg/providers/mock.Provider).SetDelay -->
<g id="node13" class="node">
<title>(*github.com/guild&#45;framework/guild&#45;core/pkg/providers/mock.Provider).SetDelay</title>
<g id="a_node13"><a xlink:title="(*github.com/guild&#45;framework/guild&#45;core/pkg/providers/mock.Provider).SetDelay | defined in provider.go:124">
<path fill="lightblue" stroke="black" stroke-width="1.5" d="M554.7,-465C554.7,-465 409.41,-465 409.41,-465 403.41,-465 397.41,-459 397.41,-453 397.41,-453 397.41,-441 397.41,-441 397.41,-435 403.41,-429 409.41,-429 409.41,-429 554.7,-429 554.7,-429 560.7,-429 566.7,-435 566.7,-441 566.7,-441 566.7,-453 566.7,-453 566.7,-459 560.7,-465 554.7,-465"/>
<text xml:space="preserve" text-anchor="middle" x="482.06" y="-442.32" font-family="Verdana" font-size="14.00">(*Provider).SetDelay</text>
</a>
</g>
</g>
<!-- (*github.com/guild&#45;framework/guild&#45;core/pkg/providers/mock.Builder).WithDelay&#45;&gt;(*github.com/guild&#45;framework/guild&#45;core/pkg/providers/mock.Provider).SetDelay -->
<g id="edge6" class="edge">
<title>(*github.com/guild&#45;framework/guild&#45;core/pkg/providers/mock.Builder).WithDelay&#45;&gt;(*github.com/guild&#45;framework/guild&#45;core/pkg/providers/mock.Provider).SetDelay</title>
<g id="a_edge6"><a xlink:title="at provider.go:460: calling [(*github.com/guild&#45;framework/guild&#45;core/pkg/providers/mock.Provider).SetDelay]">
<path fill="none" stroke="black" d="M235.53,-447C281.34,-447 338.22,-447 385.69,-447"/>
<polygon fill="black" stroke="black" points="385.4,-450.5 395.4,-447 385.4,-443.5 385.4,-450.5"/>
</a>
</g>
</g>
<!-- (*github.com/guild&#45;framework/guild&#45;core/pkg/providers/mock.Builder).WithDefaultResponse -->
<g id="node14" class="node">
<title>(*github.com/guild&#45;framework/guild&#45;core/pkg/providers/mock.Builder).WithDefaultResponse</title>
<g id="a_node14"><a xlink:title="(*github.com/guild&#45;framework/guild&#45;core/pkg/providers/mock.Builder).WithDefaultResponse | defined in provider.go:453&#10;at provider.go:454: calling [(*github.com/guild&#45;framework/guild&#45;core/pkg/providers/mock.Provider).SetDefaultResponse]">
<path fill="lightblue" stroke="black" stroke-width="1.5" d="M262.54,-526C262.54,-526 38.5,-526 38.5,-526 32.5,-526 26.5,-520 26.5,-514 26.5,-514 26.5,-502 26.5,-502 26.5,-496 32.5,-490 38.5,-490 38.5,-490 262.54,-490 262.54,-490 268.54,-490 274.54,-496 274.54,-502 274.54,-502 274.54,-514 274.54,-514 274.54,-520 268.54,-526 262.54,-526"/>
<text xml:space="preserve" text-anchor="middle" x="150.52" y="-503.32" font-family="Verdana" font-size="14.00">(*Builder).WithDefaultResponse</text>
</a>
</g>
</g>
<!-- (*github.com/guild&#45;framework/guild&#45;core/pkg/providers/mock.Provider).SetDefaultResponse -->
<g id="node15" class="node">
<title>(*github.com/guild&#45;framework/guild&#45;core/pkg/providers/mock.Provider).SetDefaultResponse</title>
<g id="a_node15"><a xlink:title="(*github.com/guild&#45;framework/guild&#45;core/pkg/providers/mock.Provider).SetDefaultResponse | defined in provider.go:117">
<path fill="lightblue" stroke="black" stroke-width="1.5" d="M594.08,-526C594.08,-526 370.04,-526 370.04,-526 364.04,-526 358.04,-520 358.04,-514 358.04,-514 358.04,-502 358.04,-502 358.04,-496 364.04,-490 370.04,-490 370.04,-490 594.08,-490 594.08,-490 600.08,-490 606.08,-496 606.08,-502 606.08,-502 606.08,-514 606.08,-514 606.08,-520 600.08,-526 594.08,-526"/>
<text xml:space="preserve" text-anchor="middle" x="482.06" y="-503.32" font-family="Verdana" font-size="14.00">(*Provider).SetDefaultResponse</text>
</a>
</g>
</g>
<!-- (*github.com/guild&#45;framework/guild&#45;core/pkg/providers/mock.Builder).WithDefaultResponse&#45;&gt;(*github.com/guild&#45;framework/guild&#45;core/pkg/providers/mock.Provider).SetDefaultResponse -->
<g id="edge15" class="edge">
<title>(*github.com/guild&#45;framework/guild&#45;core/pkg/providers/mock.Builder).WithDefaultResponse&#45;&gt;(*github.com/guild&#45;framework/guild&#45;core/pkg/providers/mock.Provider).SetDefaultResponse</title>
<g id="a_edge15"><a xlink:title="at provider.go:454: calling [(*github.com/guild&#45;framework/guild&#45;core/pkg/providers/mock.Provider).SetDefaultResponse]">
<path fill="none" stroke="black" d="M275.17,-508C298.32,-508 322.62,-508 346.1,-508"/>
<polygon fill="black" stroke="black" points="346.03,-511.5 356.03,-508 346.03,-504.5 346.03,-511.5"/>
</a>
</g>
</g>
<!-- github.com/guild&#45;framework/guild&#45;core/pkg/providers/mock.NewProviderForTesting -->
<g id="node16" class="node">
<title>github.com/guild&#45;framework/guild&#45;core/pkg/providers/mock.NewProviderForTesting</title>
<g id="a_node16"><a xlink:title="github.com/guild&#45;framework/guild&#45;core/pkg/providers/mock.NewProviderForTesting | defined in provider.go:470&#10;at provider.go:499: calling [github.com/guild&#45;framework/guild&#45;core/pkg/providers/mock.loadResponses]">
<path fill="lightblue" stroke="black" stroke-width="1.5" d="M561.83,-587C561.83,-587 402.29,-587 402.29,-587 396.29,-587 390.29,-581 390.29,-575 390.29,-575 390.29,-563 390.29,-563 390.29,-557 396.29,-551 402.29,-551 402.29,-551 561.83,-551 561.83,-551 567.83,-551 573.83,-557 573.83,-563 573.83,-563 573.83,-575 573.83,-575 573.83,-581 567.83,-587 561.83,-587"/>
<text xml:space="preserve" text-anchor="middle" x="482.06" y="-564.33" font-family="Verdana" font-size="14.00">NewProviderForTesting</text>
</a>
</g>
</g>
<!-- github.com/guild&#45;framework/guild&#45;core/pkg/providers/mock.NewProviderForTesting&#45;&gt;github.com/guild&#45;framework/guild&#45;core/pkg/providers/mock.loadResponses -->
<g id="edge16" class="edge">
<title>github.com/guild&#45;framework/guild&#45;core/pkg/providers/mock.NewProviderForTesting&#45;&gt;github.com/guild&#45;framework/guild&#45;core/pkg/providers/mock.loadResponses</title>
<g id="a_edge16"><a xlink:title="at provider.go:499: calling [github.com/guild&#45;framework/guild&#45;core/pkg/providers/mock.loadResponses]">
<path fill="none" stroke="black" d="M561.53,-550.27C611.1,-538.43 674.74,-523.24 723.4,-511.62"/>
<polygon fill="black" stroke="black" points="724.1,-515.06 733.01,-509.33 722.47,-508.25 724.1,-515.06"/>
</a>
</g>
</g>
<!-- (*github.com/guild&#45;framework/guild&#45;core/pkg/providers/mock.Builder).WithResponse -->
<g id="node17" class="node">
<title>(*github.com/guild&#45;framework/guild&#45;core/pkg/providers/mock.Builder).WithResponse</title>
<g id="a_node17"><a xlink:title="(*github.com/guild&#45;framework/guild&#45;core/pkg/providers/mock.Builder).WithResponse | defined in provider.go:441&#10;at provider.go:442: calling [(*github.com/guild&#45;framework/guild&#45;core/pkg/providers/mock.Provider).SetResponse]">
<path fill="lightblue" stroke="black" stroke-width="1.5" d="M237.41,-648C237.41,-648 63.62,-648 63.62,-648 57.62,-648 51.62,-642 51.62,-636 51.62,-636 51.62,-624 51.62,-624 51.62,-618 57.62,-612 63.62,-612 63.62,-612 237.41,-612 237.41,-612 243.41,-612 249.41,-618 249.41,-624 249.41,-624 249.41,-636 249.41,-636 249.41,-642 243.41,-648 237.41,-648"/>
<text xml:space="preserve" text-anchor="middle" x="150.52" y="-625.33" font-family="Verdana" font-size="14.00">(*Builder).WithResponse</text>
</a>
</g>
</g>
<!-- (*github.com/guild&#45;framework/guild&#45;core/pkg/providers/mock.Provider).SetResponse -->
<g id="node18" class="node">
<title>(*github.com/guild&#45;framework/guild&#45;core/pkg/providers/mock.Provider).SetResponse</title>
<g id="a_node18"><a xlink:title="(*github.com/guild&#45;framework/guild&#45;core/pkg/providers/mock.Provider).SetResponse | defined in provider.go:103">
<path fill="lightblue" stroke="black" stroke-width="1.5" d="M568.95,-648C568.95,-648 395.16,-648 395.16,-648 389.16,-648 383.16,-642 383.16,-636 383.16,-636 383.16,-624 383.16,-624 383.16,-618 389.16,-612 395.16,-612 395.16,-612 568.95,-612 568.95,-612 574.95,-612 580.95,-618 580.95,-624 580.95,-624 580.95,-636 580.95,-636 580.95,-642 574.95,-648 568.95,-648"/>
<text xml:space="preserve" text-anchor="middle" x="482.06" y="-625.33" font-family="Verdana" font-size="14.00">(*Provider).SetResponse</text>
</a>
</g>
</g>
<!-- (*github.com/guild&#45;framework/guild&#45;core/pkg/providers/mock.Builder).WithResponse&#45;&gt;(*github.com/guild&#45;framework/guild&#45;core/pkg/providers/mock.Provider).SetResponse -->
<g id="edge20" class="edge">
<title>(*github.com/guild&#45;framework/guild&#45;core/pkg/providers/mock.Builder).WithResponse&#45;&gt;(*github.com/guild&#45;framework/guild&#45;core/pkg/providers/mock.Provider).SetResponse</title>
<g id="a_edge20"><a xlink:title="at provider.go:442: calling [(*github.com/guild&#45;framework/guild&#45;core/pkg/providers/mock.Provider).SetResponse]">
<path fill="none" stroke="black" d="M249.95,-630C288.09,-630 331.94,-630 371.12,-630"/>
<polygon fill="black" stroke="black" points="371.06,-633.5 381.06,-630 371.06,-626.5 371.06,-633.5"/>
</a>
</g>
</g>
</g>
</svg>
