<?xml version="1.0" encoding="UTF-8" standalone="no"?>
<!DOCTYPE svg PUBLIC "-//W3C//DTD SVG 1.1//EN"
 "http://www.w3.org/Graphics/SVG/1.1/DTD/svg11.dtd">
<!-- Generated by graphviz version 14.1.1 (20251213.1925)
 -->
<!-- Title: gocallvis Pages: 1 -->
<svg width="613pt" height="238pt"
 viewBox="0.00 0.00 613.00 238.00" xmlns="http://www.w3.org/2000/svg" xmlns:xlink="http://www.w3.org/1999/xlink">
<g id="graph0" class="graph" transform="scale(1 1) rotate(0) translate(0 238)">
<title>gocallvis</title>
<polygon fill="lightgray" stroke="none" points="0,0 0,-238 612.83,-238 612.83,0 0,0"/>
<g id="clust1" class="cluster">
<title>cluster_focus</title>
<polygon fill="#e6ecfa" stroke="black" stroke-width="0.5" points="8,-8 8,-230 604.83,-230 604.83,-8 8,-8"/>
<text xml:space="preserve" text-anchor="middle" x="306.42" y="-208.9" font-family="Arial" font-size="18.00">mocks</text>
</g>
<g id="clust2" class="cluster">
<title>cluster_github.com/guild&#45;framework/guild&#45;core/pkg/kanban</title>
<g id="a_clust2"><a xlink:href="/?f=github.com/guild-framework/guild-core/pkg/kanban" xlink:title="package: github.com/guild&#45;framework/guild&#45;core/pkg/kanban">
<polygon fill="lightyellow" stroke="black" stroke-width="0.8" points="405.54,-69 405.54,-149 596.83,-149 596.83,-69 405.54,-69"/>
<text xml:space="preserve" text-anchor="middle" x="501.19" y="-129.8" font-family="Tahoma bold" font-size="16.00">kanban</text>
</a>
</g>
</g>
<!-- (*github.com/guild&#45;framework/guild&#45;core/pkg/orchestrator/mocks.MockAgentFactory).RegisterAgent -->
<g id="node1" class="node">
<title>(*github.com/guild&#45;framework/guild&#45;core/pkg/orchestrator/mocks.MockAgentFactory).RegisterAgent</title>
<g id="a_node1"><a xlink:title="(*github.com/guild&#45;framework/guild&#45;core/pkg/orchestrator/mocks.MockAgentFactory).RegisterAgent | defined in mock_agent_factory.go:48&#10;at mock_agent_factory.go:52: calling [(*github.com/guild&#45;framework/guild&#45;core/pkg/orchestrator/mocks.MockAgent).GetID]">
<path fill="lightblue" stroke="black" stroke-width="1.5" d="M304.54,-52C304.54,-52 52,-52 52,-52 46,-52 40,-46 40,-40 40,-40 40,-28 40,-28 40,-22 46,-16 52,-16 52,-16 304.54,-16 304.54,-16 310.54,-16 316.54,-22 316.54,-28 316.54,-28 316.54,-40 316.54,-40 316.54,-46 310.54,-52 304.54,-52"/>
<text xml:space="preserve" text-anchor="middle" x="178.27" y="-29.32" font-family="Verdana" font-size="14.00">(*MockAgentFactory).RegisterAgent</text>
</a>
</g>
</g>
<!-- (*github.com/guild&#45;framework/guild&#45;core/pkg/orchestrator/mocks.MockAgent).GetID -->
<g id="node2" class="node">
<title>(*github.com/guild&#45;framework/guild&#45;core/pkg/orchestrator/mocks.MockAgent).GetID</title>
<g id="a_node2"><a xlink:title="(*github.com/guild&#45;framework/guild&#45;core/pkg/orchestrator/mocks.MockAgent).GetID | defined in mock_agent.go:42">
<path fill="lightblue" stroke="black" stroke-width="1.5" d="M572.71,-52C572.71,-52 429.67,-52 429.67,-52 423.67,-52 417.67,-46 417.67,-40 417.67,-40 417.67,-28 417.67,-28 417.67,-22 423.67,-16 429.67,-16 429.67,-16 572.71,-16 572.71,-16 578.71,-16 584.71,-22 584.71,-28 584.71,-28 584.71,-40 584.71,-40 584.71,-46 578.71,-52 572.71,-52"/>
<text xml:space="preserve" text-anchor="middle" x="501.19" y="-29.32" font-family="Verdana" font-size="14.00">(*MockAgent).GetID</text>
</a>
</g>
</g>
<!-- (*github.com/guild&#45;framework/guild&#45;core/pkg/orchestrator/mocks.MockAgentFactory).RegisterAgent&#45;&gt;(*github.com/guild&#45;framework/guild&#45;core/pkg/orchestrator/mocks.MockAgent).GetID -->
<g id="edge1" class="edge">
<title>(*github.com/guild&#45;framework/guild&#45;core/pkg/orchestrator/mocks.MockAgentFactory).RegisterAgent&#45;&gt;(*github.com/guild&#45;framework/guild&#45;core/pkg/orchestrator/mocks.MockAgent).GetID</title>
<g id="a_edge1"><a xlink:title="at mock_agent_factory.go:52: calling [(*github.com/guild&#45;framework/guild&#45;core/pkg/orchestrator/mocks.MockAgent).GetID]">
<path fill="none" stroke="black" d="M317.23,-34C347.09,-34 378.01,-34 405.75,-34"/>
<polygon fill="black" stroke="black" points="405.51,-37.5 415.51,-34 405.51,-30.5 405.51,-37.5"/>
</a>
</g>
</g>
<!-- (*github.com/guild&#45;framework/guild&#45;core/pkg/orchestrator/mocks.MockKanbanManager).UpdateTaskStatus -->
<g id="node3" class="node">
<title>(*github.com/guild&#45;framework/guild&#45;core/pkg/orchestrator/mocks.MockKanbanManager).UpdateTaskStatus</title>
<g id="a_node3"><a xlink:title="(*github.com/guild&#45;framework/guild&#45;core/pkg/orchestrator/mocks.MockKanbanManager).UpdateTaskStatus | defined in mock_kanban.go:60&#10;at mock_kanban.go:85: calling [(*github.com/guild&#45;framework/guild&#45;core/pkg/kanban.Task).UpdateStatus]">
<path fill="lightblue" stroke="black" stroke-width="1.5" d="M328.54,-113C328.54,-113 28,-113 28,-113 22,-113 16,-107 16,-101 16,-101 16,-89 16,-89 16,-83 22,-77 28,-77 28,-77 328.54,-77 328.54,-77 334.54,-77 340.54,-83 340.54,-89 340.54,-89 340.54,-101 340.54,-101 340.54,-107 334.54,-113 328.54,-113"/>
<text xml:space="preserve" text-anchor="middle" x="178.27" y="-90.33" font-family="Verdana" font-size="14.00">(*MockKanbanManager).UpdateTaskStatus</text>
</a>
</g>
</g>
<!-- (*github.com/guild&#45;framework/guild&#45;core/pkg/kanban.Task).UpdateStatus -->
<g id="node6" class="node">
<title>(*github.com/guild&#45;framework/guild&#45;core/pkg/kanban.Task).UpdateStatus</title>
<g id="a_node6"><a xlink:title="(*github.com/guild&#45;framework/guild&#45;core/pkg/kanban.Task).UpdateStatus | defined in taskmodel.go:143">
<path fill="moccasin" stroke="black" stroke-width="1.5" d="M576.83,-113C576.83,-113 425.54,-113 425.54,-113 419.54,-113 413.54,-107 413.54,-101 413.54,-101 413.54,-89 413.54,-89 413.54,-83 419.54,-77 425.54,-77 425.54,-77 576.83,-77 576.83,-77 582.83,-77 588.83,-83 588.83,-89 588.83,-89 588.83,-101 588.83,-101 588.83,-107 582.83,-113 576.83,-113"/>
<text xml:space="preserve" text-anchor="middle" x="501.19" y="-90.33" font-family="Verdana" font-size="14.00">(*Task).UpdateStatus</text>
</a>
</g>
</g>
<!-- (*github.com/guild&#45;framework/guild&#45;core/pkg/orchestrator/mocks.MockKanbanManager).UpdateTaskStatus&#45;&gt;(*github.com/guild&#45;framework/guild&#45;core/pkg/kanban.Task).UpdateStatus -->
<g id="edge2" class="edge">
<title>(*github.com/guild&#45;framework/guild&#45;core/pkg/orchestrator/mocks.MockKanbanManager).UpdateTaskStatus&#45;&gt;(*github.com/guild&#45;framework/guild&#45;core/pkg/kanban.Task).UpdateStatus</title>
<g id="a_edge2"><a xlink:title="at mock_kanban.go:85: calling [(*github.com/guild&#45;framework/guild&#45;core/pkg/kanban.Task).UpdateStatus]">
<path fill="none" stroke="saddlebrown" d="M341.14,-95C361.75,-95 382.32,-95 401.51,-95"/>
<polygon fill="saddlebrown" stroke="saddlebrown" points="401.43,-98.5 411.43,-95 401.43,-91.5 401.43,-98.5"/>
</a>
</g>
</g>
<!-- (*github.com/guild&#45;framework/guild&#45;core/pkg/orchestrator/mocks.MockAgentFactory).CreateAgent -->
<g id="node4" class="node">
<title>(*github.com/guild&#45;framework/guild&#45;core/pkg/orchestrator/mocks.MockAgentFactory).CreateAgent</title>
<g id="a_node4"><a xlink:title="(*github.com/guild&#45;framework/guild&#45;core/pkg/orchestrator/mocks.MockAgentFactory).CreateAgent | defined in mock_agent_factory.go:27&#10;at mock_agent_factory.go:39: calling [github.com/guild&#45;framework/guild&#45;core/pkg/orchestrator/mocks.NewMockAgent]">
<path fill="lightblue" stroke="black" stroke-width="1.5" d="M298.54,-193C298.54,-193 58,-193 58,-193 52,-193 46,-187 46,-181 46,-181 46,-169 46,-169 46,-163 52,-157 58,-157 58,-157 298.54,-157 298.54,-157 304.54,-157 310.54,-163 310.54,-169 310.54,-169 310.54,-181 310.54,-181 310.54,-187 304.54,-193 298.54,-193"/>
<text xml:space="preserve" text-anchor="middle" x="178.27" y="-170.32" font-family="Verdana" font-size="14.00">(*MockAgentFactory).CreateAgent</text>
</a>
</g>
</g>
<!-- github.com/guild&#45;framework/guild&#45;core/pkg/orchestrator/mocks.NewMockAgent -->
<g id="node5" class="node">
<title>github.com/guild&#45;framework/guild&#45;core/pkg/orchestrator/mocks.NewMockAgent</title>
<g id="a_node5"><a xlink:title="github.com/guild&#45;framework/guild&#45;core/pkg/orchestrator/mocks.NewMockAgent | defined in mock_agent.go:22">
<path fill="lightblue" stroke="black" stroke-width="1.5" d="M554.33,-193C554.33,-193 448.04,-193 448.04,-193 442.04,-193 436.04,-187 436.04,-181 436.04,-181 436.04,-169 436.04,-169 436.04,-163 442.04,-157 448.04,-157 448.04,-157 554.33,-157 554.33,-157 560.33,-157 566.33,-163 566.33,-169 566.33,-169 566.33,-181 566.33,-181 566.33,-187 560.33,-193 554.33,-193"/>
<text xml:space="preserve" text-anchor="middle" x="501.19" y="-170.32" font-family="Verdana" font-size="14.00">NewMockAgent</text>
</a>
</g>
</g>
<!-- (*github.com/guild&#45;framework/guild&#45;core/pkg/orchestrator/mocks.MockAgentFactory).CreateAgent&#45;&gt;github.com/guild&#45;framework/guild&#45;core/pkg/orchestrator/mocks.NewMockAgent -->
<g id="edge3" class="edge">
<title>(*github.com/guild&#45;framework/guild&#45;core/pkg/orchestrator/mocks.MockAgentFactory).CreateAgent&#45;&gt;github.com/guild&#45;framework/guild&#45;core/pkg/orchestrator/mocks.NewMockAgent</title>
<g id="a_edge3"><a xlink:title="at mock_agent_factory.go:39: calling [github.com/guild&#45;framework/guild&#45;core/pkg/orchestrator/mocks.NewMockAgent]">
<path fill="none" stroke="black" d="M311.19,-175C349.71,-175 390.49,-175 424.28,-175"/>
<polygon fill="black" stroke="black" points="423.94,-178.5 433.94,-175 423.94,-171.5 423.94,-178.5"/>
</a>
</g>
</g>
</g>
</svg>
