<?xml version="1.0" encoding="UTF-8" standalone="no"?>
<!DOCTYPE svg PUBLIC "-//W3C//DTD SVG 1.1//EN"
 "http://www.w3.org/Graphics/SVG/1.1/DTD/svg11.dtd">
<!-- Generated by graphviz version 14.1.1 (20251213.1925)
 -->
<!-- Title: gocallvis Pages: 1 -->
<svg width="857pt" height="707pt"
 viewBox="0.00 0.00 857.00 707.00" xmlns="http://www.w3.org/2000/svg" xmlns:xlink="http://www.w3.org/1999/xlink">
<g id="graph0" class="graph" transform="scale(1 1) rotate(0) translate(0 707)">
<title>gocallvis</title>
<polygon fill="lightgray" stroke="none" points="0,0 0,-707 857.37,-707 857.37,0 0,0"/>
<g id="clust1" class="cluster">
<title>cluster_focus</title>
<polygon fill="#e6ecfa" stroke="black" stroke-width="0.5" points="8,-8 8,-699 849.37,-699 849.37,-8 8,-8"/>
<text xml:space="preserve" text-anchor="middle" x="428.68" y="-677.9" font-family="Arial" font-size="18.00">channel</text>
</g>
<g id="clust2" class="cluster">
<title>cluster_github.com/guild&#45;framework/guild&#45;core/pkg/gerror</title>
<g id="a_clust2"><a xlink:href="/?f=github.com/guild-framework/guild-core/pkg/gerror" xlink:title="package: github.com/guild&#45;framework/guild&#45;core/pkg/gerror">
<polygon fill="lightyellow" stroke="black" stroke-width="0.8" points="593.08,-69 593.08,-332 841.37,-332 841.37,-69 593.08,-69"/>
<text xml:space="preserve" text-anchor="middle" x="717.22" y="-312.8" font-family="Tahoma bold" font-size="16.00">gerror</text>
</a>
</g>
</g>
<!-- (*github.com/guild&#45;framework/guild&#45;core/pkg/comms/channel.Publisher).PublishMessage -->
<g id="node1" class="node">
<title>(*github.com/guild&#45;framework/guild&#45;core/pkg/comms/channel.Publisher).PublishMessage</title>
<g id="a_node1"><a xlink:title="(*github.com/guild&#45;framework/guild&#45;core/pkg/comms/channel.Publisher).PublishMessage | defined in channel.go:195&#10;at channel.go:199: calling [(*github.com/guild&#45;framework/guild&#45;core/pkg/comms/channel.Publisher).Publish]">
<path fill="lightblue" stroke="black" stroke-width="1.5" d="M516.08,-418C516.08,-418 315.29,-418 315.29,-418 309.29,-418 303.29,-412 303.29,-406 303.29,-406 303.29,-394 303.29,-394 303.29,-388 309.29,-382 315.29,-382 315.29,-382 516.08,-382 516.08,-382 522.08,-382 528.08,-388 528.08,-394 528.08,-394 528.08,-406 528.08,-406 528.08,-412 522.08,-418 516.08,-418"/>
<text xml:space="preserve" text-anchor="middle" x="415.68" y="-395.32" font-family="Verdana" font-size="14.00">(*Publisher).PublishMessage</text>
</a>
</g>
</g>
<!-- (*github.com/guild&#45;framework/guild&#45;core/pkg/comms/channel.Publisher).Publish -->
<g id="node2" class="node">
<title>(*github.com/guild&#45;framework/guild&#45;core/pkg/comms/channel.Publisher).Publish</title>
<g id="a_node2"><a xlink:title="(*github.com/guild&#45;framework/guild&#45;core/pkg/comms/channel.Publisher).Publish | defined in channel.go:170">
<path fill="lightblue" stroke="black" stroke-width="1.5" d="M787.24,-440C787.24,-440 647.2,-440 647.2,-440 641.2,-440 635.2,-434 635.2,-428 635.2,-428 635.2,-416 635.2,-416 635.2,-410 641.2,-404 647.2,-404 647.2,-404 787.24,-404 787.24,-404 793.24,-404 799.24,-410 799.24,-416 799.24,-416 799.24,-428 799.24,-428 799.24,-434 793.24,-440 787.24,-440"/>
<text xml:space="preserve" text-anchor="middle" x="717.22" y="-417.32" font-family="Verdana" font-size="14.00">(*Publisher).Publish</text>
</a>
</g>
</g>
<!-- (*github.com/guild&#45;framework/guild&#45;core/pkg/comms/channel.Publisher).PublishMessage&#45;&gt;(*github.com/guild&#45;framework/guild&#45;core/pkg/comms/channel.Publisher).Publish -->
<g id="edge22" class="edge">
<title>(*github.com/guild&#45;framework/guild&#45;core/pkg/comms/channel.Publisher).PublishMessage&#45;&gt;(*github.com/guild&#45;framework/guild&#45;core/pkg/comms/channel.Publisher).Publish</title>
<g id="a_edge22"><a xlink:title="at channel.go:199: calling [(*github.com/guild&#45;framework/guild&#45;core/pkg/comms/channel.Publisher).Publish]">
<path fill="none" stroke="black" d="M528.65,-408.22C559.89,-410.52 593.47,-412.98 623.47,-415.19"/>
<polygon fill="black" stroke="black" points="623.04,-418.67 633.27,-415.91 623.55,-411.68 623.04,-418.67"/>
</a>
</g>
</g>
<!-- (*github.com/guild&#45;framework/guild&#45;core/pkg/comms/channel.subscriber).Unsubscribe -->
<g id="node3" class="node">
<title>(*github.com/guild&#45;framework/guild&#45;core/pkg/comms/channel.subscriber).Unsubscribe</title>
<g id="a_node3"><a xlink:title="(*github.com/guild&#45;framework/guild&#45;core/pkg/comms/channel.subscriber).Unsubscribe | defined in channel.go:275&#10;at channel.go:301: calling [(*github.com/guild&#45;framework/guild&#45;core/pkg/gerror.GuildError).WithComponent]&#10;at channel.go:302: calling [(*github.com/guild&#45;framework/guild&#45;core/pkg/gerror.GuildError).WithOperation]&#10;at channel.go:303: calling [(*github.com/guild&#45;framework/guild&#45;core/pkg/gerror.GuildError).WithDetails]&#10;at channel.go:300: calling [github.com/guild&#45;framework/guild&#45;core/pkg/gerror.Wrap]">
<path fill="lightblue" stroke="black" stroke-width="1.5" d="M508.58,-113C508.58,-113 322.79,-113 322.79,-113 316.79,-113 310.79,-107 310.79,-101 310.79,-101 310.79,-89 310.79,-89 310.79,-83 316.79,-77 322.79,-77 322.79,-77 508.58,-77 508.58,-77 514.58,-77 520.58,-83 520.58,-89 520.58,-89 520.58,-101 520.58,-101 520.58,-107 514.58,-113 508.58,-113"/>
<text xml:space="preserve" text-anchor="middle" x="415.68" y="-90.33" font-family="Verdana" font-size="14.00">(*subscriber).Unsubscribe</text>
</a>
</g>
</g>
<!-- github.com/guild&#45;framework/guild&#45;core/pkg/gerror.Wrap -->
<g id="node23" class="node">
<title>github.com/guild&#45;framework/guild&#45;core/pkg/gerror.Wrap</title>
<g id="a_node23"><a xlink:title="github.com/guild&#45;framework/guild&#45;core/pkg/gerror.Wrap | defined in errors.go:223">
<path fill="moccasin" stroke="black" stroke-width="1.5" d="M735.12,-113C735.12,-113 699.33,-113 699.33,-113 693.33,-113 687.33,-107 687.33,-101 687.33,-101 687.33,-89 687.33,-89 687.33,-83 693.33,-77 699.33,-77 699.33,-77 735.12,-77 735.12,-77 741.12,-77 747.12,-83 747.12,-89 747.12,-89 747.12,-101 747.12,-101 747.12,-107 741.12,-113 735.12,-113"/>
<text xml:space="preserve" text-anchor="middle" x="717.22" y="-90.33" font-family="Verdana" font-size="14.00">Wrap</text>
</a>
</g>
</g>
<!-- (*github.com/guild&#45;framework/guild&#45;core/pkg/comms/channel.subscriber).Unsubscribe&#45;&gt;github.com/guild&#45;framework/guild&#45;core/pkg/gerror.Wrap -->
<g id="edge23" class="edge">
<title>(*github.com/guild&#45;framework/guild&#45;core/pkg/comms/channel.subscriber).Unsubscribe&#45;&gt;github.com/guild&#45;framework/guild&#45;core/pkg/gerror.Wrap</title>
<g id="a_edge23"><a xlink:title="at channel.go:300: calling [github.com/guild&#45;framework/guild&#45;core/pkg/gerror.Wrap]">
<path fill="none" stroke="saddlebrown" d="M521.23,-81.44C535.61,-80.02 550.19,-78.8 564.08,-78 602.08,-75.82 645.17,-81.4 675.77,-86.74"/>
<polygon fill="saddlebrown" stroke="saddlebrown" points="674.9,-90.13 685.36,-88.48 676.15,-83.25 674.9,-90.13"/>
</a>
</g>
</g>
<!-- (*github.com/guild&#45;framework/guild&#45;core/pkg/gerror.GuildError).WithComponent -->
<g id="node24" class="node">
<title>(*github.com/guild&#45;framework/guild&#45;core/pkg/gerror.GuildError).WithComponent</title>
<g id="a_node24"><a xlink:title="(*github.com/guild&#45;framework/guild&#45;core/pkg/gerror.GuildError).WithComponent | defined in errors.go:156">
<path fill="moccasin" stroke="black" stroke-width="1.5" d="M821.37,-235C821.37,-235 613.08,-235 613.08,-235 607.08,-235 601.08,-229 601.08,-223 601.08,-223 601.08,-211 601.08,-211 601.08,-205 607.08,-199 613.08,-199 613.08,-199 821.37,-199 821.37,-199 827.37,-199 833.37,-205 833.37,-211 833.37,-211 833.37,-223 833.37,-223 833.37,-229 827.37,-235 821.37,-235"/>
<text xml:space="preserve" text-anchor="middle" x="717.22" y="-212.32" font-family="Verdana" font-size="14.00">(*GuildError).WithComponent</text>
</a>
</g>
</g>
<!-- (*github.com/guild&#45;framework/guild&#45;core/pkg/comms/channel.subscriber).Unsubscribe&#45;&gt;(*github.com/guild&#45;framework/guild&#45;core/pkg/gerror.GuildError).WithComponent -->
<g id="edge1" class="edge">
<title>(*github.com/guild&#45;framework/guild&#45;core/pkg/comms/channel.subscriber).Unsubscribe&#45;&gt;(*github.com/guild&#45;framework/guild&#45;core/pkg/gerror.GuildError).WithComponent</title>
<g id="a_edge1"><a xlink:title="at channel.go:301: calling [(*github.com/guild&#45;framework/guild&#45;core/pkg/gerror.GuildError).WithComponent]">
<path fill="none" stroke="saddlebrown" d="M520.99,-108.88C536.85,-114.29 552.2,-121.75 565.08,-132 586.54,-149.08 571.57,-169.98 593.08,-187 595.67,-189.05 598.38,-190.96 601.18,-192.74"/>
<polygon fill="saddlebrown" stroke="saddlebrown" points="599.31,-195.71 609.74,-197.58 602.75,-189.61 599.31,-195.71"/>
</a>
</g>
</g>
<!-- (*github.com/guild&#45;framework/guild&#45;core/pkg/gerror.GuildError).WithOperation -->
<g id="node25" class="node">
<title>(*github.com/guild&#45;framework/guild&#45;core/pkg/gerror.GuildError).WithOperation</title>
<g id="a_node25"><a xlink:title="(*github.com/guild&#45;framework/guild&#45;core/pkg/gerror.GuildError).WithOperation | defined in errors.go:162">
<path fill="moccasin" stroke="black" stroke-width="1.5" d="M815.74,-296C815.74,-296 618.7,-296 618.7,-296 612.7,-296 606.7,-290 606.7,-284 606.7,-284 606.7,-272 606.7,-272 606.7,-266 612.7,-260 618.7,-260 618.7,-260 815.74,-260 815.74,-260 821.74,-260 827.74,-266 827.74,-272 827.74,-272 827.74,-284 827.74,-284 827.74,-290 821.74,-296 815.74,-296"/>
<text xml:space="preserve" text-anchor="middle" x="717.22" y="-273.32" font-family="Verdana" font-size="14.00">(*GuildError).WithOperation</text>
</a>
</g>
</g>
<!-- (*github.com/guild&#45;framework/guild&#45;core/pkg/comms/channel.subscriber).Unsubscribe&#45;&gt;(*github.com/guild&#45;framework/guild&#45;core/pkg/gerror.GuildError).WithOperation -->
<g id="edge18" class="edge">
<title>(*github.com/guild&#45;framework/guild&#45;core/pkg/comms/channel.subscriber).Unsubscribe&#45;&gt;(*github.com/guild&#45;framework/guild&#45;core/pkg/gerror.GuildError).WithOperation</title>
<g id="a_edge18"><a xlink:title="at channel.go:302: calling [(*github.com/guild&#45;framework/guild&#45;core/pkg/gerror.GuildError).WithOperation]">
<path fill="none" stroke="saddlebrown" d="M508.23,-113.63C515.32,-117.08 522.05,-121.16 528.08,-126 575.99,-164.46 544.55,-210.33 593.08,-248 595.82,-250.12 598.68,-252.1 601.65,-253.94"/>
<polygon fill="saddlebrown" stroke="saddlebrown" points="599.68,-256.85 610.12,-258.62 603.06,-250.72 599.68,-256.85"/>
</a>
</g>
</g>
<!-- (*github.com/guild&#45;framework/guild&#45;core/pkg/gerror.GuildError).WithDetails -->
<g id="node26" class="node">
<title>(*github.com/guild&#45;framework/guild&#45;core/pkg/gerror.GuildError).WithDetails</title>
<g id="a_node26"><a xlink:title="(*github.com/guild&#45;framework/guild&#45;core/pkg/gerror.GuildError).WithDetails | defined in errors.go:147">
<path fill="moccasin" stroke="black" stroke-width="1.5" d="M804.87,-174C804.87,-174 629.58,-174 629.58,-174 623.58,-174 617.58,-168 617.58,-162 617.58,-162 617.58,-150 617.58,-150 617.58,-144 623.58,-138 629.58,-138 629.58,-138 804.87,-138 804.87,-138 810.87,-138 816.87,-144 816.87,-150 816.87,-150 816.87,-162 816.87,-162 816.87,-168 810.87,-174 804.87,-174"/>
<text xml:space="preserve" text-anchor="middle" x="717.22" y="-151.32" font-family="Verdana" font-size="14.00">(*GuildError).WithDetails</text>
</a>
</g>
</g>
<!-- (*github.com/guild&#45;framework/guild&#45;core/pkg/comms/channel.subscriber).Unsubscribe&#45;&gt;(*github.com/guild&#45;framework/guild&#45;core/pkg/gerror.GuildError).WithDetails -->
<g id="edge19" class="edge">
<title>(*github.com/guild&#45;framework/guild&#45;core/pkg/comms/channel.subscriber).Unsubscribe&#45;&gt;(*github.com/guild&#45;framework/guild&#45;core/pkg/gerror.GuildError).WithDetails</title>
<g id="a_edge19"><a xlink:title="at channel.go:303: calling [(*github.com/guild&#45;framework/guild&#45;core/pkg/gerror.GuildError).WithDetails]">
<path fill="none" stroke="saddlebrown" d="M521.27,-94.45C536.27,-96.54 551.28,-99.88 565.08,-105 579.66,-110.41 579.01,-119.36 593.08,-126 598.94,-128.77 605.09,-131.3 611.37,-133.61"/>
<polygon fill="saddlebrown" stroke="saddlebrown" points="610.03,-136.85 620.63,-136.79 612.31,-130.23 610.03,-136.85"/>
</a>
</g>
</g>
<!-- (*github.com/guild&#45;framework/guild&#45;core/pkg/comms/channel.PubSub).Unsubscribe -->
<g id="node4" class="node">
<title>(*github.com/guild&#45;framework/guild&#45;core/pkg/comms/channel.PubSub).Unsubscribe</title>
<g id="a_node4"><a xlink:title="(*github.com/guild&#45;framework/guild&#45;core/pkg/comms/channel.PubSub).Unsubscribe | defined in channel.go:377&#10;at channel.go:378: calling [(*github.com/guild&#45;framework/guild&#45;core/pkg/comms/channel.subscriber).Unsubscribe]">
<path fill="lightblue" stroke="black" stroke-width="1.5" d="M206.29,-113C206.29,-113 40,-113 40,-113 34,-113 28,-107 28,-101 28,-101 28,-89 28,-89 28,-83 34,-77 40,-77 40,-77 206.29,-77 206.29,-77 212.29,-77 218.29,-83 218.29,-89 218.29,-89 218.29,-101 218.29,-101 218.29,-107 212.29,-113 206.29,-113"/>
<text xml:space="preserve" text-anchor="middle" x="123.14" y="-90.33" font-family="Verdana" font-size="14.00">(*PubSub).Unsubscribe</text>
</a>
</g>
</g>
<!-- (*github.com/guild&#45;framework/guild&#45;core/pkg/comms/channel.PubSub).Unsubscribe&#45;&gt;(*github.com/guild&#45;framework/guild&#45;core/pkg/comms/channel.subscriber).Unsubscribe -->
<g id="edge6" class="edge">
<title>(*github.com/guild&#45;framework/guild&#45;core/pkg/comms/channel.PubSub).Unsubscribe&#45;&gt;(*github.com/guild&#45;framework/guild&#45;core/pkg/comms/channel.subscriber).Unsubscribe</title>
<g id="a_edge6"><a xlink:title="at channel.go:378: calling [(*github.com/guild&#45;framework/guild&#45;core/pkg/comms/channel.subscriber).Unsubscribe]">
<path fill="none" stroke="black" d="M218.88,-95C244.45,-95 272.41,-95 298.99,-95"/>
<polygon fill="black" stroke="black" points="298.78,-98.5 308.78,-95 298.78,-91.5 298.78,-98.5"/>
</a>
</g>
</g>
<!-- github.com/guild&#45;framework/guild&#45;core/pkg/comms/channel.newTopicRegistry -->
<g id="node5" class="node">
<title>github.com/guild&#45;framework/guild&#45;core/pkg/comms/channel.newTopicRegistry</title>
<g id="a_node5"><a xlink:title="github.com/guild&#45;framework/guild&#45;core/pkg/comms/channel.newTopicRegistry | defined in channel.go:90&#10;at channel.go:99: calling [(*github.com/guild&#45;framework/guild&#45;core/pkg/comms/channel.topicRegistry).run]">
<path fill="lightblue" stroke="black" stroke-width="0.5" d="M476.33,-52C476.33,-52 355.04,-52 355.04,-52 349.04,-52 343.04,-46 343.04,-40 343.04,-40 343.04,-28 343.04,-28 343.04,-22 349.04,-16 355.04,-16 355.04,-16 476.33,-16 476.33,-16 482.33,-16 488.33,-22 488.33,-28 488.33,-28 488.33,-40 488.33,-40 488.33,-46 482.33,-52 476.33,-52"/>
<text xml:space="preserve" text-anchor="middle" x="415.68" y="-29.32" font-family="Verdana" font-size="14.00">newTopicRegistry</text>
</a>
</g>
</g>
<!-- (*github.com/guild&#45;framework/guild&#45;core/pkg/comms/channel.topicRegistry).run -->
<g id="node6" class="node">
<title>(*github.com/guild&#45;framework/guild&#45;core/pkg/comms/channel.topicRegistry).run</title>
<g id="a_node6"><a xlink:title="(*github.com/guild&#45;framework/guild&#45;core/pkg/comms/channel.topicRegistry).run | defined in channel.go:103">
<path fill="lightblue" stroke="black" stroke-width="0.5" d="M787.62,-52C787.62,-52 646.83,-52 646.83,-52 640.83,-52 634.83,-46 634.83,-40 634.83,-40 634.83,-28 634.83,-28 634.83,-22 640.83,-16 646.83,-16 646.83,-16 787.62,-16 787.62,-16 793.62,-16 799.62,-22 799.62,-28 799.62,-28 799.62,-40 799.62,-40 799.62,-46 793.62,-52 787.62,-52"/>
<text xml:space="preserve" text-anchor="middle" x="717.22" y="-29.32" font-family="Verdana" font-size="14.00">(*topicRegistry).run</text>
</a>
</g>
</g>
<!-- github.com/guild&#45;framework/guild&#45;core/pkg/comms/channel.newTopicRegistry&#45;&gt;(*github.com/guild&#45;framework/guild&#45;core/pkg/comms/channel.topicRegistry).run -->
<g id="edge7" class="edge">
<title>github.com/guild&#45;framework/guild&#45;core/pkg/comms/channel.newTopicRegistry&#45;&gt;(*github.com/guild&#45;framework/guild&#45;core/pkg/comms/channel.topicRegistry).run</title>
<g id="a_edge7"><a xlink:title="at channel.go:99: calling [(*github.com/guild&#45;framework/guild&#45;core/pkg/comms/channel.topicRegistry).run]">
<path fill="none" stroke="black" d="M488.43,-34C524.65,-34 569.32,-34 609.47,-34"/>
<polygon fill="black" stroke="black" points="623.24,-37.5 633.24,-34 623.24,-30.5 623.24,-37.5"/>
<polyline fill="none" stroke="black" points="622.74,-34 617.74,-34"/>
<ellipse fill="none" stroke="black" cx="613.24" cy="-34" rx="4" ry="4"/>
</a>
</g>
</g>
<!-- github.com/guild&#45;framework/guild&#45;core/pkg/comms/channel.NewTransport -->
<g id="node7" class="node">
<title>github.com/guild&#45;framework/guild&#45;core/pkg/comms/channel.NewTransport</title>
<g id="a_node7"><a xlink:title="github.com/guild&#45;framework/guild&#45;core/pkg/comms/channel.NewTransport | defined in channel.go:23&#10;at channel.go:25: calling [github.com/guild&#45;framework/guild&#45;core/pkg/comms/channel.newTopicRegistry]">
<path fill="lightblue" stroke="black" stroke-width="1.5" d="M171.04,-52C171.04,-52 75.25,-52 75.25,-52 69.25,-52 63.25,-46 63.25,-40 63.25,-40 63.25,-28 63.25,-28 63.25,-22 69.25,-16 75.25,-16 75.25,-16 171.04,-16 171.04,-16 177.04,-16 183.04,-22 183.04,-28 183.04,-28 183.04,-40 183.04,-40 183.04,-46 177.04,-52 171.04,-52"/>
<text xml:space="preserve" text-anchor="middle" x="123.14" y="-29.32" font-family="Verdana" font-size="14.00">NewTransport</text>
</a>
</g>
</g>
<!-- github.com/guild&#45;framework/guild&#45;core/pkg/comms/channel.NewTransport&#45;&gt;github.com/guild&#45;framework/guild&#45;core/pkg/comms/channel.newTopicRegistry -->
<g id="edge12" class="edge">
<title>github.com/guild&#45;framework/guild&#45;core/pkg/comms/channel.NewTransport&#45;&gt;github.com/guild&#45;framework/guild&#45;core/pkg/comms/channel.newTopicRegistry</title>
<g id="a_edge12"><a xlink:title="at channel.go:25: calling [github.com/guild&#45;framework/guild&#45;core/pkg/comms/channel.newTopicRegistry]">
<path fill="none" stroke="black" d="M183.64,-34C226.28,-34 284.27,-34 331.49,-34"/>
<polygon fill="black" stroke="black" points="331.43,-37.5 341.43,-34 331.43,-30.5 331.43,-37.5"/>
</a>
</g>
</g>
<!-- (*github.com/guild&#45;framework/guild&#45;core/pkg/comms/channel.PubSub).Publish -->
<g id="node8" class="node">
<title>(*github.com/guild&#45;framework/guild&#45;core/pkg/comms/channel.PubSub).Publish</title>
<g id="a_node8"><a xlink:title="(*github.com/guild&#45;framework/guild&#45;core/pkg/comms/channel.PubSub).Publish | defined in channel.go:362&#10;at channel.go:363: calling [(*github.com/guild&#45;framework/guild&#45;core/pkg/comms/channel.Publisher).Publish]">
<path fill="lightblue" stroke="black" stroke-width="1.5" d="M480.45,-479C480.45,-479 350.91,-479 350.91,-479 344.91,-479 338.91,-473 338.91,-467 338.91,-467 338.91,-455 338.91,-455 338.91,-449 344.91,-443 350.91,-443 350.91,-443 480.45,-443 480.45,-443 486.45,-443 492.45,-449 492.45,-455 492.45,-455 492.45,-467 492.45,-467 492.45,-473 486.45,-479 480.45,-479"/>
<text xml:space="preserve" text-anchor="middle" x="415.68" y="-456.32" font-family="Verdana" font-size="14.00">(*PubSub).Publish</text>
</a>
</g>
</g>
<!-- (*github.com/guild&#45;framework/guild&#45;core/pkg/comms/channel.PubSub).Publish&#45;&gt;(*github.com/guild&#45;framework/guild&#45;core/pkg/comms/channel.Publisher).Publish -->
<g id="edge13" class="edge">
<title>(*github.com/guild&#45;framework/guild&#45;core/pkg/comms/channel.PubSub).Publish&#45;&gt;(*github.com/guild&#45;framework/guild&#45;core/pkg/comms/channel.Publisher).Publish</title>
<g id="a_edge13"><a xlink:title="at channel.go:363: calling [(*github.com/guild&#45;framework/guild&#45;core/pkg/comms/channel.Publisher).Publish]">
<path fill="none" stroke="black" d="M493.05,-451.06C532.66,-445.9 581.38,-439.56 623.18,-434.11"/>
<polygon fill="black" stroke="black" points="623.52,-437.6 632.99,-432.84 622.62,-430.66 623.52,-437.6"/>
</a>
</g>
</g>
<!-- (*github.com/guild&#45;framework/guild&#45;core/pkg/comms/channel.PubSub).Close -->
<g id="node9" class="node">
<title>(*github.com/guild&#45;framework/guild&#45;core/pkg/comms/channel.PubSub).Close</title>
<g id="a_node9"><a xlink:title="(*github.com/guild&#45;framework/guild&#45;core/pkg/comms/channel.PubSub).Close | defined in channel.go:387&#10;at channel.go:389: calling [(*github.com/guild&#45;framework/guild&#45;core/pkg/comms/channel.subscriber).Close]&#10;at channel.go:388: calling [(*github.com/guild&#45;framework/guild&#45;core/pkg/comms/channel.Publisher).Close]">
<path fill="lightblue" stroke="black" stroke-width="1.5" d="M181.54,-257C181.54,-257 64.75,-257 64.75,-257 58.75,-257 52.75,-251 52.75,-245 52.75,-245 52.75,-233 52.75,-233 52.75,-227 58.75,-221 64.75,-221 64.75,-221 181.54,-221 181.54,-221 187.54,-221 193.54,-227 193.54,-233 193.54,-233 193.54,-245 193.54,-245 193.54,-251 187.54,-257 181.54,-257"/>
<text xml:space="preserve" text-anchor="middle" x="123.14" y="-234.32" font-family="Verdana" font-size="14.00">(*PubSub).Close</text>
</a>
</g>
</g>
<!-- (*github.com/guild&#45;framework/guild&#45;core/pkg/comms/channel.Publisher).Close -->
<g id="node10" class="node">
<title>(*github.com/guild&#45;framework/guild&#45;core/pkg/comms/channel.Publisher).Close</title>
<g id="a_node10"><a xlink:title="(*github.com/guild&#45;framework/guild&#45;core/pkg/comms/channel.Publisher).Close | defined in channel.go:203">
<path fill="lightblue" stroke="black" stroke-width="1.5" d="M479.33,-235C479.33,-235 352.04,-235 352.04,-235 346.04,-235 340.04,-229 340.04,-223 340.04,-223 340.04,-211 340.04,-211 340.04,-205 346.04,-199 352.04,-199 352.04,-199 479.33,-199 479.33,-199 485.33,-199 491.33,-205 491.33,-211 491.33,-211 491.33,-223 491.33,-223 491.33,-229 485.33,-235 479.33,-235"/>
<text xml:space="preserve" text-anchor="middle" x="415.68" y="-212.32" font-family="Verdana" font-size="14.00">(*Publisher).Close</text>
</a>
</g>
</g>
<!-- (*github.com/guild&#45;framework/guild&#45;core/pkg/comms/channel.PubSub).Close&#45;&gt;(*github.com/guild&#45;framework/guild&#45;core/pkg/comms/channel.Publisher).Close -->
<g id="edge20" class="edge">
<title>(*github.com/guild&#45;framework/guild&#45;core/pkg/comms/channel.PubSub).Close&#45;&gt;(*github.com/guild&#45;framework/guild&#45;core/pkg/comms/channel.Publisher).Close</title>
<g id="a_edge20"><a xlink:title="at channel.go:388: calling [(*github.com/guild&#45;framework/guild&#45;core/pkg/comms/channel.Publisher).Close]">
<path fill="none" stroke="black" d="M194.11,-233.7C234.41,-230.65 285.41,-226.79 328.22,-223.55"/>
<polygon fill="black" stroke="black" points="328.26,-227.05 337.97,-222.81 327.74,-220.07 328.26,-227.05"/>
</a>
</g>
</g>
<!-- (*github.com/guild&#45;framework/guild&#45;core/pkg/comms/channel.subscriber).Close -->
<g id="node11" class="node">
<title>(*github.com/guild&#45;framework/guild&#45;core/pkg/comms/channel.subscriber).Close</title>
<g id="a_node11"><a xlink:title="(*github.com/guild&#45;framework/guild&#45;core/pkg/comms/channel.subscriber).Close | defined in channel.go:334">
<path fill="lightblue" stroke="black" stroke-width="1.5" d="M483.83,-296C483.83,-296 347.54,-296 347.54,-296 341.54,-296 335.54,-290 335.54,-284 335.54,-284 335.54,-272 335.54,-272 335.54,-266 341.54,-260 347.54,-260 347.54,-260 483.83,-260 483.83,-260 489.83,-260 495.83,-266 495.83,-272 495.83,-272 495.83,-284 495.83,-284 495.83,-290 489.83,-296 483.83,-296"/>
<text xml:space="preserve" text-anchor="middle" x="415.68" y="-273.32" font-family="Verdana" font-size="14.00">(*subscriber).Close</text>
</a>
</g>
</g>
<!-- (*github.com/guild&#45;framework/guild&#45;core/pkg/comms/channel.PubSub).Close&#45;&gt;(*github.com/guild&#45;framework/guild&#45;core/pkg/comms/channel.subscriber).Close -->
<g id="edge14" class="edge">
<title>(*github.com/guild&#45;framework/guild&#45;core/pkg/comms/channel.PubSub).Close&#45;&gt;(*github.com/guild&#45;framework/guild&#45;core/pkg/comms/channel.subscriber).Close</title>
<g id="a_edge14"><a xlink:title="at channel.go:389: calling [(*github.com/guild&#45;framework/guild&#45;core/pkg/comms/channel.subscriber).Close]">
<path fill="none" stroke="black" d="M194.11,-248.39C232.94,-253.6 281.71,-260.15 323.5,-265.76"/>
<polygon fill="black" stroke="black" points="322.93,-269.21 333.31,-267.08 323.86,-262.28 322.93,-269.21"/>
</a>
</g>
</g>
<!-- (*github.com/guild&#45;framework/guild&#45;core/pkg/comms/channel.PubSub).Receive -->
<g id="node12" class="node">
<title>(*github.com/guild&#45;framework/guild&#45;core/pkg/comms/channel.PubSub).Receive</title>
<g id="a_node12"><a xlink:title="(*github.com/guild&#45;framework/guild&#45;core/pkg/comms/channel.PubSub).Receive | defined in channel.go:382&#10;at channel.go:383: calling [(*github.com/guild&#45;framework/guild&#45;core/pkg/comms/channel.subscriber).Receive]">
<path fill="lightblue" stroke="black" stroke-width="1.5" d="M189.79,-357C189.79,-357 56.5,-357 56.5,-357 50.5,-357 44.5,-351 44.5,-345 44.5,-345 44.5,-333 44.5,-333 44.5,-327 50.5,-321 56.5,-321 56.5,-321 189.79,-321 189.79,-321 195.79,-321 201.79,-327 201.79,-333 201.79,-333 201.79,-345 201.79,-345 201.79,-351 195.79,-357 189.79,-357"/>
<text xml:space="preserve" text-anchor="middle" x="123.14" y="-334.32" font-family="Verdana" font-size="14.00">(*PubSub).Receive</text>
</a>
</g>
</g>
<!-- (*github.com/guild&#45;framework/guild&#45;core/pkg/comms/channel.subscriber).Receive -->
<g id="node13" class="node">
<title>(*github.com/guild&#45;framework/guild&#45;core/pkg/comms/channel.subscriber).Receive</title>
<g id="a_node13"><a xlink:title="(*github.com/guild&#45;framework/guild&#45;core/pkg/comms/channel.subscriber).Receive | defined in channel.go:317">
<path fill="lightblue" stroke="black" stroke-width="1.5" d="M492.08,-357C492.08,-357 339.29,-357 339.29,-357 333.29,-357 327.29,-351 327.29,-345 327.29,-345 327.29,-333 327.29,-333 327.29,-327 333.29,-321 339.29,-321 339.29,-321 492.08,-321 492.08,-321 498.08,-321 504.08,-327 504.08,-333 504.08,-333 504.08,-345 504.08,-345 504.08,-351 498.08,-357 492.08,-357"/>
<text xml:space="preserve" text-anchor="middle" x="415.68" y="-334.32" font-family="Verdana" font-size="14.00">(*subscriber).Receive</text>
</a>
</g>
</g>
<!-- (*github.com/guild&#45;framework/guild&#45;core/pkg/comms/channel.PubSub).Receive&#45;&gt;(*github.com/guild&#45;framework/guild&#45;core/pkg/comms/channel.subscriber).Receive -->
<g id="edge2" class="edge">
<title>(*github.com/guild&#45;framework/guild&#45;core/pkg/comms/channel.PubSub).Receive&#45;&gt;(*github.com/guild&#45;framework/guild&#45;core/pkg/comms/channel.subscriber).Receive</title>
<g id="a_edge2"><a xlink:title="at channel.go:383: calling [(*github.com/guild&#45;framework/guild&#45;core/pkg/comms/channel.subscriber).Receive]">
<path fill="none" stroke="black" d="M202.39,-339C237.11,-339 278.39,-339 315.27,-339"/>
<polygon fill="black" stroke="black" points="315.05,-342.5 325.05,-339 315.05,-335.5 315.05,-342.5"/>
</a>
</g>
</g>
<!-- github.com/guild&#45;framework/guild&#45;core/pkg/comms/channel.newPubSub -->
<g id="node14" class="node">
<title>github.com/guild&#45;framework/guild&#45;core/pkg/comms/channel.newPubSub</title>
<g id="a_node14"><a xlink:title="github.com/guild&#45;framework/guild&#45;core/pkg/comms/channel.newPubSub | defined in channel.go:354&#10;at channel.go:356: calling [github.com/guild&#45;framework/guild&#45;core/pkg/comms/channel.newPublisher]&#10;at channel.go:357: calling [github.com/guild&#45;framework/guild&#45;core/pkg/comms/channel.newSubscriber]">
<path fill="lightblue" stroke="black" stroke-width="0.5" d="M456.45,-601C456.45,-601 374.91,-601 374.91,-601 368.91,-601 362.91,-595 362.91,-589 362.91,-589 362.91,-577 362.91,-577 362.91,-571 368.91,-565 374.91,-565 374.91,-565 456.45,-565 456.45,-565 462.45,-565 468.45,-571 468.45,-577 468.45,-577 468.45,-589 468.45,-589 468.45,-595 462.45,-601 456.45,-601"/>
<text xml:space="preserve" text-anchor="middle" x="415.68" y="-578.33" font-family="Verdana" font-size="14.00">newPubSub</text>
</a>
</g>
</g>
<!-- github.com/guild&#45;framework/guild&#45;core/pkg/comms/channel.newPublisher -->
<g id="node15" class="node">
<title>github.com/guild&#45;framework/guild&#45;core/pkg/comms/channel.newPublisher</title>
<g id="a_node15"><a xlink:title="github.com/guild&#45;framework/guild&#45;core/pkg/comms/channel.newPublisher | defined in channel.go:163">
<path fill="lightblue" stroke="black" stroke-width="0.5" d="M763.24,-638C763.24,-638 671.2,-638 671.2,-638 665.2,-638 659.2,-632 659.2,-626 659.2,-626 659.2,-614 659.2,-614 659.2,-608 665.2,-602 671.2,-602 671.2,-602 763.24,-602 763.24,-602 769.24,-602 775.24,-608 775.24,-614 775.24,-614 775.24,-626 775.24,-626 775.24,-632 769.24,-638 763.24,-638"/>
<text xml:space="preserve" text-anchor="middle" x="717.22" y="-615.33" font-family="Verdana" font-size="14.00">newPublisher</text>
</a>
</g>
</g>
<!-- github.com/guild&#45;framework/guild&#45;core/pkg/comms/channel.newPubSub&#45;&gt;github.com/guild&#45;framework/guild&#45;core/pkg/comms/channel.newPublisher -->
<g id="edge3" class="edge">
<title>github.com/guild&#45;framework/guild&#45;core/pkg/comms/channel.newPubSub&#45;&gt;github.com/guild&#45;framework/guild&#45;core/pkg/comms/channel.newPublisher</title>
<g id="a_edge3"><a xlink:title="at channel.go:356: calling [github.com/guild&#45;framework/guild&#45;core/pkg/comms/channel.newPublisher]">
<path fill="none" stroke="black" d="M468.52,-589.4C518.15,-595.53 593.34,-604.82 647.86,-611.56"/>
<polygon fill="black" stroke="black" points="647.3,-615.01 657.66,-612.77 648.16,-608.07 647.3,-615.01"/>
</a>
</g>
</g>
<!-- github.com/guild&#45;framework/guild&#45;core/pkg/comms/channel.newSubscriber -->
<g id="node16" class="node">
<title>github.com/guild&#45;framework/guild&#45;core/pkg/comms/channel.newSubscriber</title>
<g id="a_node16"><a xlink:title="github.com/guild&#45;framework/guild&#45;core/pkg/comms/channel.newSubscriber | defined in channel.go:224">
<path fill="lightblue" stroke="black" stroke-width="0.5" d="M768.87,-563C768.87,-563 665.58,-563 665.58,-563 659.58,-563 653.58,-557 653.58,-551 653.58,-551 653.58,-539 653.58,-539 653.58,-533 659.58,-527 665.58,-527 665.58,-527 768.87,-527 768.87,-527 774.87,-527 780.87,-533 780.87,-539 780.87,-539 780.87,-551 780.87,-551 780.87,-557 774.87,-563 768.87,-563"/>
<text xml:space="preserve" text-anchor="middle" x="717.22" y="-540.33" font-family="Verdana" font-size="14.00">newSubscriber</text>
</a>
</g>
</g>
<!-- github.com/guild&#45;framework/guild&#45;core/pkg/comms/channel.newPubSub&#45;&gt;github.com/guild&#45;framework/guild&#45;core/pkg/comms/channel.newSubscriber -->
<g id="edge8" class="edge">
<title>github.com/guild&#45;framework/guild&#45;core/pkg/comms/channel.newPubSub&#45;&gt;github.com/guild&#45;framework/guild&#45;core/pkg/comms/channel.newSubscriber</title>
<g id="a_edge8"><a xlink:title="at channel.go:357: calling [github.com/guild&#45;framework/guild&#45;core/pkg/comms/channel.newSubscriber]">
<path fill="none" stroke="black" d="M468.52,-576.42C516.43,-570.35 588.16,-561.25 642.12,-554.4"/>
<polygon fill="black" stroke="black" points="642.37,-557.9 651.85,-553.17 641.49,-550.95 642.37,-557.9"/>
</a>
</g>
</g>
<!-- (*github.com/guild&#45;framework/guild&#45;core/pkg/comms/channel.subscriber).Subscribe -->
<g id="node17" class="node">
<title>(*github.com/guild&#45;framework/guild&#45;core/pkg/comms/channel.subscriber).Subscribe</title>
<g id="a_node17"><a xlink:title="(*github.com/guild&#45;framework/guild&#45;core/pkg/comms/channel.subscriber).Subscribe | defined in channel.go:233&#10;at channel.go:259: calling [(*github.com/guild&#45;framework/guild&#45;core/pkg/gerror.GuildError).WithComponent]&#10;at channel.go:260: calling [(*github.com/guild&#45;framework/guild&#45;core/pkg/gerror.GuildError).WithOperation]&#10;at channel.go:261: calling [(*github.com/guild&#45;framework/guild&#45;core/pkg/gerror.GuildError).WithDetails]&#10;at channel.go:258: calling [github.com/guild&#45;framework/guild&#45;core/pkg/gerror.Wrap]">
<path fill="lightblue" stroke="black" stroke-width="1.5" d="M499.95,-174C499.95,-174 331.41,-174 331.41,-174 325.41,-174 319.41,-168 319.41,-162 319.41,-162 319.41,-150 319.41,-150 319.41,-144 325.41,-138 331.41,-138 331.41,-138 499.95,-138 499.95,-138 505.95,-138 511.95,-144 511.95,-150 511.95,-150 511.95,-162 511.95,-162 511.95,-168 505.95,-174 499.95,-174"/>
<text xml:space="preserve" text-anchor="middle" x="415.68" y="-151.32" font-family="Verdana" font-size="14.00">(*subscriber).Subscribe</text>
</a>
</g>
</g>
<!-- (*github.com/guild&#45;framework/guild&#45;core/pkg/comms/channel.subscriber).Subscribe&#45;&gt;github.com/guild&#45;framework/guild&#45;core/pkg/gerror.Wrap -->
<g id="edge15" class="edge">
<title>(*github.com/guild&#45;framework/guild&#45;core/pkg/comms/channel.subscriber).Subscribe&#45;&gt;github.com/guild&#45;framework/guild&#45;core/pkg/gerror.Wrap</title>
<g id="a_edge15"><a xlink:title="at channel.go:258: calling [github.com/guild&#45;framework/guild&#45;core/pkg/gerror.Wrap]">
<path fill="none" stroke="saddlebrown" d="M508.59,-137.28C564.52,-125.89 633.16,-111.92 675.81,-103.23"/>
<polygon fill="saddlebrown" stroke="saddlebrown" points="676.27,-106.71 685.37,-101.28 674.87,-99.85 676.27,-106.71"/>
</a>
</g>
</g>
<!-- (*github.com/guild&#45;framework/guild&#45;core/pkg/comms/channel.subscriber).Subscribe&#45;&gt;(*github.com/guild&#45;framework/guild&#45;core/pkg/gerror.GuildError).WithComponent -->
<g id="edge4" class="edge">
<title>(*github.com/guild&#45;framework/guild&#45;core/pkg/comms/channel.subscriber).Subscribe&#45;&gt;(*github.com/guild&#45;framework/guild&#45;core/pkg/gerror.GuildError).WithComponent</title>
<g id="a_edge4"><a xlink:title="at channel.go:259: calling [(*github.com/guild&#45;framework/guild&#45;core/pkg/gerror.GuildError).WithComponent]">
<path fill="none" stroke="saddlebrown" d="M508.59,-174.72C541.72,-181.46 579.32,-189.12 613.33,-196.05"/>
<polygon fill="saddlebrown" stroke="saddlebrown" points="612.25,-199.4 622.75,-197.96 613.65,-192.54 612.25,-199.4"/>
</a>
</g>
</g>
<!-- (*github.com/guild&#45;framework/guild&#45;core/pkg/comms/channel.subscriber).Subscribe&#45;&gt;(*github.com/guild&#45;framework/guild&#45;core/pkg/gerror.GuildError).WithOperation -->
<g id="edge9" class="edge">
<title>(*github.com/guild&#45;framework/guild&#45;core/pkg/comms/channel.subscriber).Subscribe&#45;&gt;(*github.com/guild&#45;framework/guild&#45;core/pkg/gerror.GuildError).WithOperation</title>
<g id="a_edge9"><a xlink:title="at channel.go:260: calling [(*github.com/guild&#45;framework/guild&#45;core/pkg/gerror.GuildError).WithOperation]">
<path fill="none" stroke="saddlebrown" d="M500.88,-174.67C510.33,-178.15 519.6,-182.23 528.08,-187 562.61,-206.43 558.24,-229.13 593.08,-248 597.85,-250.58 602.84,-252.94 607.97,-255.11"/>
<polygon fill="saddlebrown" stroke="saddlebrown" points="606.65,-258.35 617.24,-258.72 609.19,-251.83 606.65,-258.35"/>
</a>
</g>
</g>
<!-- (*github.com/guild&#45;framework/guild&#45;core/pkg/comms/channel.subscriber).Subscribe&#45;&gt;(*github.com/guild&#45;framework/guild&#45;core/pkg/gerror.GuildError).WithDetails -->
<g id="edge10" class="edge">
<title>(*github.com/guild&#45;framework/guild&#45;core/pkg/comms/channel.subscriber).Subscribe&#45;&gt;(*github.com/guild&#45;framework/guild&#45;core/pkg/gerror.GuildError).WithDetails</title>
<g id="a_edge10"><a xlink:title="at channel.go:261: calling [(*github.com/guild&#45;framework/guild&#45;core/pkg/gerror.GuildError).WithDetails]">
<path fill="none" stroke="saddlebrown" d="M512.48,-168.66C529.63,-170.47 547.36,-172.04 564.08,-173 577.58,-173.78 591.73,-173.57 605.74,-172.75"/>
<polygon fill="saddlebrown" stroke="saddlebrown" points="605.68,-176.26 615.41,-172.06 605.19,-169.28 605.68,-176.26"/>
</a>
</g>
</g>
<!-- (*github.com/guild&#45;framework/guild&#45;core/pkg/comms/channel.PubSub).Subscribe -->
<g id="node18" class="node">
<title>(*github.com/guild&#45;framework/guild&#45;core/pkg/comms/channel.PubSub).Subscribe</title>
<g id="a_node18"><a xlink:title="(*github.com/guild&#45;framework/guild&#45;core/pkg/comms/channel.PubSub).Subscribe | defined in channel.go:372&#10;at channel.go:373: calling [(*github.com/guild&#45;framework/guild&#45;core/pkg/comms/channel.subscriber).Subscribe]">
<path fill="lightblue" stroke="black" stroke-width="1.5" d="M197.66,-174C197.66,-174 48.62,-174 48.62,-174 42.62,-174 36.62,-168 36.62,-162 36.62,-162 36.62,-150 36.62,-150 36.62,-144 42.62,-138 48.62,-138 48.62,-138 197.66,-138 197.66,-138 203.66,-138 209.66,-144 209.66,-150 209.66,-150 209.66,-162 209.66,-162 209.66,-168 203.66,-174 197.66,-174"/>
<text xml:space="preserve" text-anchor="middle" x="123.14" y="-151.32" font-family="Verdana" font-size="14.00">(*PubSub).Subscribe</text>
</a>
</g>
</g>
<!-- (*github.com/guild&#45;framework/guild&#45;core/pkg/comms/channel.PubSub).Subscribe&#45;&gt;(*github.com/guild&#45;framework/guild&#45;core/pkg/comms/channel.subscriber).Subscribe -->
<g id="edge16" class="edge">
<title>(*github.com/guild&#45;framework/guild&#45;core/pkg/comms/channel.PubSub).Subscribe&#45;&gt;(*github.com/guild&#45;framework/guild&#45;core/pkg/comms/channel.subscriber).Subscribe</title>
<g id="a_edge16"><a xlink:title="at channel.go:373: calling [(*github.com/guild&#45;framework/guild&#45;core/pkg/comms/channel.subscriber).Subscribe]">
<path fill="none" stroke="black" d="M210.14,-156C240.67,-156 275.43,-156 307.51,-156"/>
<polygon fill="black" stroke="black" points="307.22,-159.5 317.22,-156 307.22,-152.5 307.22,-159.5"/>
</a>
</g>
</g>
<!-- (*github.com/guild&#45;framework/guild&#45;core/pkg/comms/channel.PubSub).PublishMessage -->
<g id="node19" class="node">
<title>(*github.com/guild&#45;framework/guild&#45;core/pkg/comms/channel.PubSub).PublishMessage</title>
<g id="a_node19"><a xlink:title="(*github.com/guild&#45;framework/guild&#45;core/pkg/comms/channel.PubSub).PublishMessage | defined in channel.go:367&#10;at channel.go:368: calling [(*github.com/guild&#45;framework/guild&#45;core/pkg/comms/channel.Publisher).PublishMessage]">
<path fill="lightblue" stroke="black" stroke-width="1.5" d="M218.29,-418C218.29,-418 28,-418 28,-418 22,-418 16,-412 16,-406 16,-406 16,-394 16,-394 16,-388 22,-382 28,-382 28,-382 218.29,-382 218.29,-382 224.29,-382 230.29,-388 230.29,-394 230.29,-394 230.29,-406 230.29,-406 230.29,-412 224.29,-418 218.29,-418"/>
<text xml:space="preserve" text-anchor="middle" x="123.14" y="-395.32" font-family="Verdana" font-size="14.00">(*PubSub).PublishMessage</text>
</a>
</g>
</g>
<!-- (*github.com/guild&#45;framework/guild&#45;core/pkg/comms/channel.PubSub).PublishMessage&#45;&gt;(*github.com/guild&#45;framework/guild&#45;core/pkg/comms/channel.Publisher).PublishMessage -->
<g id="edge21" class="edge">
<title>(*github.com/guild&#45;framework/guild&#45;core/pkg/comms/channel.PubSub).PublishMessage&#45;&gt;(*github.com/guild&#45;framework/guild&#45;core/pkg/comms/channel.Publisher).PublishMessage</title>
<g id="a_edge21"><a xlink:title="at channel.go:368: calling [(*github.com/guild&#45;framework/guild&#45;core/pkg/comms/channel.Publisher).PublishMessage]">
<path fill="none" stroke="black" d="M230.68,-400C250.4,-400 271.15,-400 291.33,-400"/>
<polygon fill="black" stroke="black" points="291.28,-403.5 301.28,-400 291.28,-396.5 291.28,-403.5"/>
</a>
</g>
</g>
<!-- (*github.com/guild&#45;framework/guild&#45;core/pkg/comms/channel.Transport).NewSubscriber -->
<g id="node20" class="node">
<title>(*github.com/guild&#45;framework/guild&#45;core/pkg/comms/channel.Transport).NewSubscriber</title>
<g id="a_node20"><a xlink:title="(*github.com/guild&#45;framework/guild&#45;core/pkg/comms/channel.Transport).NewSubscriber | defined in channel.go:40&#10;at channel.go:46: calling [github.com/guild&#45;framework/guild&#45;core/pkg/comms/channel.newSubscriber]">
<path fill="lightblue" stroke="black" stroke-width="1.5" d="M514.58,-540C514.58,-540 316.79,-540 316.79,-540 310.79,-540 304.79,-534 304.79,-528 304.79,-528 304.79,-516 304.79,-516 304.79,-510 310.79,-504 316.79,-504 316.79,-504 514.58,-504 514.58,-504 520.58,-504 526.58,-510 526.58,-516 526.58,-516 526.58,-528 526.58,-528 526.58,-534 520.58,-540 514.58,-540"/>
<text xml:space="preserve" text-anchor="middle" x="415.68" y="-517.33" font-family="Verdana" font-size="14.00">(*Transport).NewSubscriber</text>
</a>
</g>
</g>
<!-- (*github.com/guild&#45;framework/guild&#45;core/pkg/comms/channel.Transport).NewSubscriber&#45;&gt;github.com/guild&#45;framework/guild&#45;core/pkg/comms/channel.newSubscriber -->
<g id="edge17" class="edge">
<title>(*github.com/guild&#45;framework/guild&#45;core/pkg/comms/channel.Transport).NewSubscriber&#45;&gt;github.com/guild&#45;framework/guild&#45;core/pkg/comms/channel.newSubscriber</title>
<g id="a_edge17"><a xlink:title="at channel.go:46: calling [github.com/guild&#45;framework/guild&#45;core/pkg/comms/channel.newSubscriber]">
<path fill="none" stroke="black" d="M526.95,-530.47C565.31,-533.41 607.41,-536.64 642.13,-539.31"/>
<polygon fill="black" stroke="black" points="641.87,-542.8 652.1,-540.08 642.4,-535.82 641.87,-542.8"/>
</a>
</g>
</g>
<!-- (*github.com/guild&#45;framework/guild&#45;core/pkg/comms/channel.Transport).NewPubSub -->
<g id="node21" class="node">
<title>(*github.com/guild&#45;framework/guild&#45;core/pkg/comms/channel.Transport).NewPubSub</title>
<g id="a_node21"><a xlink:title="(*github.com/guild&#45;framework/guild&#45;core/pkg/comms/channel.Transport).NewPubSub | defined in channel.go:50&#10;at channel.go:56: calling [github.com/guild&#45;framework/guild&#45;core/pkg/comms/channel.newPubSub]">
<path fill="lightblue" stroke="black" stroke-width="1.5" d="M211.16,-601C211.16,-601 35.12,-601 35.12,-601 29.12,-601 23.12,-595 23.12,-589 23.12,-589 23.12,-577 23.12,-577 23.12,-571 29.12,-565 35.12,-565 35.12,-565 211.16,-565 211.16,-565 217.16,-565 223.16,-571 223.16,-577 223.16,-577 223.16,-589 223.16,-589 223.16,-595 217.16,-601 211.16,-601"/>
<text xml:space="preserve" text-anchor="middle" x="123.14" y="-578.33" font-family="Verdana" font-size="14.00">(*Transport).NewPubSub</text>
</a>
</g>
</g>
<!-- (*github.com/guild&#45;framework/guild&#45;core/pkg/comms/channel.Transport).NewPubSub&#45;&gt;github.com/guild&#45;framework/guild&#45;core/pkg/comms/channel.newPubSub -->
<g id="edge5" class="edge">
<title>(*github.com/guild&#45;framework/guild&#45;core/pkg/comms/channel.Transport).NewPubSub&#45;&gt;github.com/guild&#45;framework/guild&#45;core/pkg/comms/channel.newPubSub</title>
<g id="a_edge5"><a xlink:title="at channel.go:56: calling [github.com/guild&#45;framework/guild&#45;core/pkg/comms/channel.newPubSub]">
<path fill="none" stroke="black" d="M223.73,-583C266.15,-583 314.37,-583 351.74,-583"/>
<polygon fill="black" stroke="black" points="351.45,-586.5 361.45,-583 351.45,-579.5 351.45,-586.5"/>
</a>
</g>
</g>
<!-- (*github.com/guild&#45;framework/guild&#45;core/pkg/comms/channel.Transport).NewPublisher -->
<g id="node22" class="node">
<title>(*github.com/guild&#45;framework/guild&#45;core/pkg/comms/channel.Transport).NewPublisher</title>
<g id="a_node22"><a xlink:title="(*github.com/guild&#45;framework/guild&#45;core/pkg/comms/channel.Transport).NewPublisher | defined in channel.go:30&#10;at channel.go:36: calling [github.com/guild&#45;framework/guild&#45;core/pkg/comms/channel.newPublisher]">
<path fill="lightblue" stroke="black" stroke-width="1.5" d="M508.95,-662C508.95,-662 322.41,-662 322.41,-662 316.41,-662 310.41,-656 310.41,-650 310.41,-650 310.41,-638 310.41,-638 310.41,-632 316.41,-626 322.41,-626 322.41,-626 508.95,-626 508.95,-626 514.95,-626 520.95,-632 520.95,-638 520.95,-638 520.95,-650 520.95,-650 520.95,-656 514.95,-662 508.95,-662"/>
<text xml:space="preserve" text-anchor="middle" x="415.68" y="-639.33" font-family="Verdana" font-size="14.00">(*Transport).NewPublisher</text>
</a>
</g>
</g>
<!-- (*github.com/guild&#45;framework/guild&#45;core/pkg/comms/channel.Transport).NewPublisher&#45;&gt;github.com/guild&#45;framework/guild&#45;core/pkg/comms/channel.newPublisher -->
<g id="edge11" class="edge">
<title>(*github.com/guild&#45;framework/guild&#45;core/pkg/comms/channel.Transport).NewPublisher&#45;&gt;github.com/guild&#45;framework/guild&#45;core/pkg/comms/channel.newPublisher</title>
<g id="a_edge11"><a xlink:title="at channel.go:36: calling [github.com/guild&#45;framework/guild&#45;core/pkg/comms/channel.newPublisher]">
<path fill="none" stroke="black" d="M521.45,-635.61C563.34,-632.25 610.41,-628.48 647.79,-625.48"/>
<polygon fill="black" stroke="black" points="647.86,-628.99 657.55,-624.7 647.3,-622.01 647.86,-628.99"/>
</a>
</g>
</g>
</g>
</svg>
