<?xml version="1.0" encoding="UTF-8" standalone="no"?>
<!DOCTYPE svg PUBLIC "-//W3C//DTD SVG 1.1//EN"
 "http://www.w3.org/Graphics/SVG/1.1/DTD/svg11.dtd">
<!-- Generated by graphviz version 14.1.1 (20251213.1925)
 -->
<!-- Title: gocallvis Pages: 1 -->
<svg width="1227pt" height="700pt"
 viewBox="0.00 0.00 1227.00 700.00" xmlns="http://www.w3.org/2000/svg" xmlns:xlink="http://www.w3.org/1999/xlink">
<g id="graph0" class="graph" transform="scale(1 1) rotate(0) translate(0 700)">
<title>gocallvis</title>
<polygon fill="lightgray" stroke="none" points="0,0 0,-700 1226.66,-700 1226.66,0 0,0"/>
<g id="clust1" class="cluster">
<title>cluster_focus</title>
<polygon fill="#e6ecfa" stroke="black" stroke-width="0.5" points="8,-8 8,-692 1218.66,-692 1218.66,-8 8,-8"/>
<text xml:space="preserve" text-anchor="middle" x="613.33" y="-670.9" font-family="Arial" font-size="18.00">xml</text>
</g>
<g id="clust2" class="cluster">
<title>cluster_github.com/guild&#45;framework/guild&#45;core/pkg/gerror</title>
<g id="a_clust2"><a xlink:href="/?f=github.com/guild-framework/guild-core/pkg/gerror" xlink:title="package: github.com/guild&#45;framework/guild&#45;core/pkg/gerror">
<polygon fill="lightyellow" stroke="black" stroke-width="0.8" points="600.96,-16 600.96,-279 849.25,-279 849.25,-16 600.96,-16"/>
<text xml:space="preserve" text-anchor="middle" x="725.1" y="-259.8" font-family="Tahoma bold" font-size="16.00">gerror</text>
</a>
</g>
</g>
<g id="clust3" class="cluster">
<title>cluster_github.com/guild&#45;framework/guild&#45;core/pkg/observability</title>
<g id="a_clust3"><a xlink:href="/?f=github.com/guild-framework/guild-core/pkg/observability" xlink:title="package: github.com/guild&#45;framework/guild&#45;core/pkg/observability">
<polygon fill="lightyellow" stroke="black" stroke-width="0.8" points="312.56,-181 312.56,-261 430.56,-261 430.56,-181 312.56,-181"/>
<text xml:space="preserve" text-anchor="middle" x="371.56" y="-241.8" font-family="Tahoma bold" font-size="16.00">observability</text>
</a>
</g>
</g>
<!-- (*github.com/guild&#45;framework/guild&#45;core/pkg/tools/parser/xml.Parser).parseStreamingXML -->
<g id="node1" class="node">
<title>(*github.com/guild&#45;framework/guild&#45;core/pkg/tools/parser/xml.Parser).parseStreamingXML</title>
<g id="a_node1"><a xlink:title="(*github.com/guild&#45;framework/guild&#45;core/pkg/tools/parser/xml.Parser).parseStreamingXML | defined in parser.go:165&#10;at parser.go:184: calling [github.com/guild&#45;framework/guild&#45;core/pkg/gerror.Wrap]&#10;at parser.go:239: calling [(*github.com/guild&#45;framework/guild&#45;core/pkg/tools/parser/xml.Parser).convertInvokeToToolCall]&#10;at parser.go:185: calling [(*github.com/guild&#45;framework/guild&#45;core/pkg/gerror.GuildError).WithComponent]&#10;at parser.go:259: calling [(*github.com/guild&#45;framework/guild&#45;core/pkg/gerror.GuildError).WithComponent]&#10;at parser.go:186: calling [(*github.com/guild&#45;framework/guild&#45;core/pkg/gerror.GuildError).WithOperation]&#10;at parser.go:260: calling [(*github.com/guild&#45;framework/guild&#45;core/pkg/gerror.GuildError).WithOperation]&#10;at parser.go:258: calling [github.com/guild&#45;framework/guild&#45;core/pkg/gerror.New]">
<path fill="lightblue" stroke="black" stroke-width="0.5" d="M476.33,-305C476.33,-305 265.79,-305 265.79,-305 259.79,-305 253.79,-299 253.79,-293 253.79,-293 253.79,-281 253.79,-281 253.79,-275 259.79,-269 265.79,-269 265.79,-269 476.33,-269 476.33,-269 482.33,-269 488.33,-275 488.33,-281 488.33,-281 488.33,-293 488.33,-293 488.33,-299 482.33,-305 476.33,-305"/>
<text xml:space="preserve" text-anchor="middle" x="371.06" y="-282.32" font-family="Verdana" font-size="14.00">(*Parser).parseStreamingXML</text>
</a>
</g>
</g>
<!-- (*github.com/guild&#45;framework/guild&#45;core/pkg/tools/parser/xml.Parser).convertInvokeToToolCall -->
<g id="node2" class="node">
<title>(*github.com/guild&#45;framework/guild&#45;core/pkg/tools/parser/xml.Parser).convertInvokeToToolCall</title>
<g id="a_node2"><a xlink:title="(*github.com/guild&#45;framework/guild&#45;core/pkg/tools/parser/xml.Parser).convertInvokeToToolCall | defined in parser.go:267">
<path fill="lightblue" stroke="black" stroke-width="0.5" d="M843.87,-323C843.87,-323 606.33,-323 606.33,-323 600.33,-323 594.33,-317 594.33,-311 594.33,-311 594.33,-299 594.33,-299 594.33,-293 600.33,-287 606.33,-287 606.33,-287 843.87,-287 843.87,-287 849.87,-287 855.87,-293 855.87,-299 855.87,-299 855.87,-311 855.87,-311 855.87,-317 849.87,-323 843.87,-323"/>
<text xml:space="preserve" text-anchor="middle" x="725.1" y="-300.32" font-family="Verdana" font-size="14.00">(*Parser).convertInvokeToToolCall</text>
</a>
</g>
</g>
<!-- (*github.com/guild&#45;framework/guild&#45;core/pkg/tools/parser/xml.Parser).parseStreamingXML&#45;&gt;(*github.com/guild&#45;framework/guild&#45;core/pkg/tools/parser/xml.Parser).convertInvokeToToolCall -->
<g id="edge2" class="edge">
<title>(*github.com/guild&#45;framework/guild&#45;core/pkg/tools/parser/xml.Parser).parseStreamingXML&#45;&gt;(*github.com/guild&#45;framework/guild&#45;core/pkg/tools/parser/xml.Parser).convertInvokeToToolCall</title>
<g id="a_edge2"><a xlink:title="at parser.go:239: calling [(*github.com/guild&#45;framework/guild&#45;core/pkg/tools/parser/xml.Parser).convertInvokeToToolCall]">
<path fill="none" stroke="black" d="M488.31,-292.94C518.54,-294.49 551.44,-296.17 582.82,-297.78"/>
<polygon fill="black" stroke="black" points="582.62,-301.27 592.78,-298.29 582.98,-294.28 582.62,-301.27"/>
</a>
</g>
</g>
<!-- github.com/guild&#45;framework/guild&#45;core/pkg/gerror.Wrap -->
<g id="node17" class="node">
<title>github.com/guild&#45;framework/guild&#45;core/pkg/gerror.Wrap</title>
<g id="a_node17"><a xlink:title="github.com/guild&#45;framework/guild&#45;core/pkg/gerror.Wrap | defined in errors.go:223">
<path fill="moccasin" stroke="black" stroke-width="1.5" d="M743,-243C743,-243 707.21,-243 707.21,-243 701.21,-243 695.21,-237 695.21,-231 695.21,-231 695.21,-219 695.21,-219 695.21,-213 701.21,-207 707.21,-207 707.21,-207 743,-207 743,-207 749,-207 755,-213 755,-219 755,-219 755,-231 755,-231 755,-237 749,-243 743,-243"/>
<text xml:space="preserve" text-anchor="middle" x="725.1" y="-220.32" font-family="Verdana" font-size="14.00">Wrap</text>
</a>
</g>
</g>
<!-- (*github.com/guild&#45;framework/guild&#45;core/pkg/tools/parser/xml.Parser).parseStreamingXML&#45;&gt;github.com/guild&#45;framework/guild&#45;core/pkg/gerror.Wrap -->
<g id="edge1" class="edge">
<title>(*github.com/guild&#45;framework/guild&#45;core/pkg/tools/parser/xml.Parser).parseStreamingXML&#45;&gt;github.com/guild&#45;framework/guild&#45;core/pkg/gerror.Wrap</title>
<g id="a_edge1"><a xlink:title="at parser.go:184: calling [github.com/guild&#45;framework/guild&#45;core/pkg/gerror.Wrap]">
<path fill="none" stroke="saddlebrown" d="M480.69,-268.8C487.09,-267.56 493.42,-266.29 499.58,-265 532.29,-258.16 539.78,-253.41 572.58,-247 609.94,-239.7 652.92,-233.68 683.53,-229.8"/>
<polygon fill="saddlebrown" stroke="saddlebrown" points="683.63,-233.31 693.12,-228.6 682.77,-226.37 683.63,-233.31"/>
</a>
</g>
</g>
<!-- (*github.com/guild&#45;framework/guild&#45;core/pkg/gerror.GuildError).WithComponent -->
<g id="node18" class="node">
<title>(*github.com/guild&#45;framework/guild&#45;core/pkg/gerror.GuildError).WithComponent</title>
<g id="a_node18"><a xlink:title="(*github.com/guild&#45;framework/guild&#45;core/pkg/gerror.GuildError).WithComponent | defined in errors.go:156">
<path fill="moccasin" stroke="black" stroke-width="1.5" d="M829.25,-121C829.25,-121 620.96,-121 620.96,-121 614.96,-121 608.96,-115 608.96,-109 608.96,-109 608.96,-97 608.96,-97 608.96,-91 614.96,-85 620.96,-85 620.96,-85 829.25,-85 829.25,-85 835.25,-85 841.25,-91 841.25,-97 841.25,-97 841.25,-109 841.25,-109 841.25,-115 835.25,-121 829.25,-121"/>
<text xml:space="preserve" text-anchor="middle" x="725.1" y="-98.33" font-family="Verdana" font-size="14.00">(*GuildError).WithComponent</text>
</a>
</g>
</g>
<!-- (*github.com/guild&#45;framework/guild&#45;core/pkg/tools/parser/xml.Parser).parseStreamingXML&#45;&gt;(*github.com/guild&#45;framework/guild&#45;core/pkg/gerror.GuildError).WithComponent -->
<g id="edge9" class="edge">
<title>(*github.com/guild&#45;framework/guild&#45;core/pkg/tools/parser/xml.Parser).parseStreamingXML&#45;&gt;(*github.com/guild&#45;framework/guild&#45;core/pkg/gerror.GuildError).WithComponent</title>
<g id="a_edge9"><a xlink:title="at parser.go:185: calling [(*github.com/guild&#45;framework/guild&#45;core/pkg/gerror.GuildError).WithComponent]&#10;at parser.go:259: calling [(*github.com/guild&#45;framework/guild&#45;core/pkg/gerror.GuildError).WithComponent]">
<path fill="none" stroke="saddlebrown" d="M488.32,-271.85C492.24,-269.81 496.01,-267.53 499.58,-265 553.96,-226.46 518.81,-173.38 572.58,-134 580.29,-128.36 588.78,-123.68 597.69,-119.82"/>
<polygon fill="saddlebrown" stroke="saddlebrown" points="598.88,-123.11 606.91,-116.2 596.32,-116.59 598.88,-123.11"/>
</a>
</g>
</g>
<!-- (*github.com/guild&#45;framework/guild&#45;core/pkg/gerror.GuildError).WithOperation -->
<g id="node19" class="node">
<title>(*github.com/guild&#45;framework/guild&#45;core/pkg/gerror.GuildError).WithOperation</title>
<g id="a_node19"><a xlink:title="(*github.com/guild&#45;framework/guild&#45;core/pkg/gerror.GuildError).WithOperation | defined in errors.go:162">
<path fill="moccasin" stroke="black" stroke-width="1.5" d="M823.62,-182C823.62,-182 626.58,-182 626.58,-182 620.58,-182 614.58,-176 614.58,-170 614.58,-170 614.58,-158 614.58,-158 614.58,-152 620.58,-146 626.58,-146 626.58,-146 823.62,-146 823.62,-146 829.62,-146 835.62,-152 835.62,-158 835.62,-158 835.62,-170 835.62,-170 835.62,-176 829.62,-182 823.62,-182"/>
<text xml:space="preserve" text-anchor="middle" x="725.1" y="-159.32" font-family="Verdana" font-size="14.00">(*GuildError).WithOperation</text>
</a>
</g>
</g>
<!-- (*github.com/guild&#45;framework/guild&#45;core/pkg/tools/parser/xml.Parser).parseStreamingXML&#45;&gt;(*github.com/guild&#45;framework/guild&#45;core/pkg/gerror.GuildError).WithOperation -->
<g id="edge10" class="edge">
<title>(*github.com/guild&#45;framework/guild&#45;core/pkg/tools/parser/xml.Parser).parseStreamingXML&#45;&gt;(*github.com/guild&#45;framework/guild&#45;core/pkg/gerror.GuildError).WithOperation</title>
<g id="a_edge10"><a xlink:title="at parser.go:186: calling [(*github.com/guild&#45;framework/guild&#45;core/pkg/gerror.GuildError).WithOperation]&#10;at parser.go:260: calling [(*github.com/guild&#45;framework/guild&#45;core/pkg/gerror.GuildError).WithOperation]">
<path fill="none" stroke="saddlebrown" d="M488.42,-270.04C492.24,-268.5 495.97,-266.82 499.58,-265 539.7,-244.74 532.77,-215.88 572.58,-195 582.21,-189.95 592.59,-185.72 603.23,-182.18"/>
<polygon fill="saddlebrown" stroke="saddlebrown" points="603.98,-185.61 612.5,-179.31 601.91,-178.92 603.98,-185.61"/>
</a>
</g>
</g>
<!-- github.com/guild&#45;framework/guild&#45;core/pkg/gerror.New -->
<g id="node20" class="node">
<title>github.com/guild&#45;framework/guild&#45;core/pkg/gerror.New</title>
<g id="a_node20"><a xlink:title="github.com/guild&#45;framework/guild&#45;core/pkg/gerror.New | defined in errors.go:190">
<path fill="moccasin" stroke="black" stroke-width="1.5" d="M740.1,-60C740.1,-60 710.1,-60 710.1,-60 704.1,-60 698.1,-54 698.1,-48 698.1,-48 698.1,-36 698.1,-36 698.1,-30 704.1,-24 710.1,-24 710.1,-24 740.1,-24 740.1,-24 746.1,-24 752.1,-30 752.1,-36 752.1,-36 752.1,-48 752.1,-48 752.1,-54 746.1,-60 740.1,-60"/>
<text xml:space="preserve" text-anchor="middle" x="725.1" y="-37.33" font-family="Verdana" font-size="14.00">New</text>
</a>
</g>
</g>
<!-- (*github.com/guild&#45;framework/guild&#45;core/pkg/tools/parser/xml.Parser).parseStreamingXML&#45;&gt;github.com/guild&#45;framework/guild&#45;core/pkg/gerror.New -->
<g id="edge11" class="edge">
<title>(*github.com/guild&#45;framework/guild&#45;core/pkg/tools/parser/xml.Parser).parseStreamingXML&#45;&gt;github.com/guild&#45;framework/guild&#45;core/pkg/gerror.New</title>
<g id="a_edge11"><a xlink:title="at parser.go:258: calling [github.com/guild&#45;framework/guild&#45;core/pkg/gerror.New]">
<path fill="none" stroke="saddlebrown" d="M488.53,-272.67C492.41,-270.4 496.11,-267.86 499.58,-265 570.04,-206.95 503.03,-132.14 572.58,-73 604.14,-46.16 652.71,-40.41 686.31,-40.08"/>
<polygon fill="saddlebrown" stroke="saddlebrown" points="685.98,-43.58 696,-40.16 686.03,-36.58 685.98,-43.58"/>
</a>
</g>
</g>
<!-- (*github.com/guild&#45;framework/guild&#45;core/pkg/tools/parser/xml.Detector).extractWithBoundarySearch -->
<g id="node3" class="node">
<title>(*github.com/guild&#45;framework/guild&#45;core/pkg/tools/parser/xml.Detector).extractWithBoundarySearch</title>
<g id="a_node3"><a xlink:title="(*github.com/guild&#45;framework/guild&#45;core/pkg/tools/parser/xml.Detector).extractWithBoundarySearch | defined in detector.go:119&#10;at detector.go:141: calling [(*github.com/guild&#45;framework/guild&#45;core/pkg/tools/parser/xml.Detector).isWellFormedXML]">
<path fill="lightblue" stroke="black" stroke-width="0.5" d="M865.62,-533C865.62,-533 584.58,-533 584.58,-533 578.58,-533 572.58,-527 572.58,-521 572.58,-521 572.58,-509 572.58,-509 572.58,-503 578.58,-497 584.58,-497 584.58,-497 865.62,-497 865.62,-497 871.62,-497 877.62,-503 877.62,-509 877.62,-509 877.62,-521 877.62,-521 877.62,-527 871.62,-533 865.62,-533"/>
<text xml:space="preserve" text-anchor="middle" x="725.1" y="-510.32" font-family="Verdana" font-size="14.00">(*Detector).extractWithBoundarySearch</text>
</a>
</g>
</g>
<!-- (*github.com/guild&#45;framework/guild&#45;core/pkg/tools/parser/xml.Detector).isWellFormedXML -->
<g id="node4" class="node">
<title>(*github.com/guild&#45;framework/guild&#45;core/pkg/tools/parser/xml.Detector).isWellFormedXML</title>
<g id="a_node4"><a xlink:title="(*github.com/guild&#45;framework/guild&#45;core/pkg/tools/parser/xml.Detector).isWellFormedXML | defined in detector.go:193">
<path fill="lightblue" stroke="black" stroke-width="0.5" d="M1184.41,-441C1184.41,-441 976.87,-441 976.87,-441 970.87,-441 964.87,-435 964.87,-429 964.87,-429 964.87,-417 964.87,-417 964.87,-411 970.87,-405 976.87,-405 976.87,-405 1184.41,-405 1184.41,-405 1190.41,-405 1196.41,-411 1196.41,-417 1196.41,-417 1196.41,-429 1196.41,-429 1196.41,-435 1190.41,-441 1184.41,-441"/>
<text xml:space="preserve" text-anchor="middle" x="1080.64" y="-418.32" font-family="Verdana" font-size="14.00">(*Detector).isWellFormedXML</text>
</a>
</g>
</g>
<!-- (*github.com/guild&#45;framework/guild&#45;core/pkg/tools/parser/xml.Detector).extractWithBoundarySearch&#45;&gt;(*github.com/guild&#45;framework/guild&#45;core/pkg/tools/parser/xml.Detector).isWellFormedXML -->
<g id="edge3" class="edge">
<title>(*github.com/guild&#45;framework/guild&#45;core/pkg/tools/parser/xml.Detector).extractWithBoundarySearch&#45;&gt;(*github.com/guild&#45;framework/guild&#45;core/pkg/tools/parser/xml.Detector).isWellFormedXML</title>
<g id="a_edge3"><a xlink:title="at detector.go:141: calling [(*github.com/guild&#45;framework/guild&#45;core/pkg/tools/parser/xml.Detector).isWellFormedXML]">
<path fill="none" stroke="black" d="M832.76,-496.77C847.94,-493.34 863.27,-489.42 877.62,-485 911.31,-474.63 917.15,-465.04 950.62,-454 961.4,-450.44 972.8,-447.11 984.2,-444.04"/>
<polygon fill="black" stroke="black" points="984.85,-447.49 993.63,-441.57 983.07,-440.72 984.85,-447.49"/>
</a>
</g>
</g>
<!-- (*github.com/guild&#45;framework/guild&#45;core/pkg/tools/parser/xml.Detector).extractXML -->
<g id="node5" class="node">
<title>(*github.com/guild&#45;framework/guild&#45;core/pkg/tools/parser/xml.Detector).extractXML</title>
<g id="a_node5"><a xlink:title="(*github.com/guild&#45;framework/guild&#45;core/pkg/tools/parser/xml.Detector).extractXML | defined in detector.go:90&#10;at detector.go:106: calling [(*github.com/guild&#45;framework/guild&#45;core/pkg/tools/parser/xml.Detector).extractWithBoundarySearch]&#10;at detector.go:99: calling [(*github.com/guild&#45;framework/guild&#45;core/pkg/tools/parser/xml.Detector).isWellFormedXML]&#10;at detector.go:111: calling [(*github.com/guild&#45;framework/guild&#45;core/pkg/tools/parser/xml.Detector).extractFromCodeBlock]">
<path fill="lightblue" stroke="black" stroke-width="0.5" d="M452.33,-472C452.33,-472 289.79,-472 289.79,-472 283.79,-472 277.79,-466 277.79,-460 277.79,-460 277.79,-448 277.79,-448 277.79,-442 283.79,-436 289.79,-436 289.79,-436 452.33,-436 452.33,-436 458.33,-436 464.33,-442 464.33,-448 464.33,-448 464.33,-460 464.33,-460 464.33,-466 458.33,-472 452.33,-472"/>
<text xml:space="preserve" text-anchor="middle" x="371.06" y="-449.32" font-family="Verdana" font-size="14.00">(*Detector).extractXML</text>
</a>
</g>
</g>
<!-- (*github.com/guild&#45;framework/guild&#45;core/pkg/tools/parser/xml.Detector).extractXML&#45;&gt;(*github.com/guild&#45;framework/guild&#45;core/pkg/tools/parser/xml.Detector).extractWithBoundarySearch -->
<g id="edge4" class="edge">
<title>(*github.com/guild&#45;framework/guild&#45;core/pkg/tools/parser/xml.Detector).extractXML&#45;&gt;(*github.com/guild&#45;framework/guild&#45;core/pkg/tools/parser/xml.Detector).extractWithBoundarySearch</title>
<g id="a_edge4"><a xlink:title="at detector.go:106: calling [(*github.com/guild&#45;framework/guild&#45;core/pkg/tools/parser/xml.Detector).extractWithBoundarySearch]">
<path fill="none" stroke="black" d="M464.55,-470.03C508.4,-477.63 561.26,-486.78 607.79,-494.85"/>
<polygon fill="black" stroke="black" points="606.91,-498.25 617.36,-496.5 608.11,-491.35 606.91,-498.25"/>
</a>
</g>
</g>
<!-- (*github.com/guild&#45;framework/guild&#45;core/pkg/tools/parser/xml.Detector).extractXML&#45;&gt;(*github.com/guild&#45;framework/guild&#45;core/pkg/tools/parser/xml.Detector).isWellFormedXML -->
<g id="edge12" class="edge">
<title>(*github.com/guild&#45;framework/guild&#45;core/pkg/tools/parser/xml.Detector).extractXML&#45;&gt;(*github.com/guild&#45;framework/guild&#45;core/pkg/tools/parser/xml.Detector).isWellFormedXML</title>
<g id="a_edge12"><a xlink:title="at detector.go:99: calling [(*github.com/guild&#45;framework/guild&#45;core/pkg/tools/parser/xml.Detector).isWellFormedXML]">
<path fill="none" stroke="black" d="M464.33,-437.3C498.25,-431.93 537.04,-426.68 572.58,-424 702.03,-414.24 850.61,-415.39 953.31,-418.13"/>
<polygon fill="black" stroke="black" points="953.06,-421.62 963.15,-418.4 953.25,-414.62 953.06,-421.62"/>
</a>
</g>
</g>
<!-- (*github.com/guild&#45;framework/guild&#45;core/pkg/tools/parser/xml.Detector).extractFromCodeBlock -->
<g id="node6" class="node">
<title>(*github.com/guild&#45;framework/guild&#45;core/pkg/tools/parser/xml.Detector).extractFromCodeBlock</title>
<g id="a_node6"><a xlink:title="(*github.com/guild&#45;framework/guild&#45;core/pkg/tools/parser/xml.Detector).extractFromCodeBlock | defined in detector.go:151&#10;at detector.go:159: calling [(*github.com/guild&#45;framework/guild&#45;core/pkg/tools/parser/xml.Detector).isWellFormedXML]&#10;at detector.go:181: calling [(*github.com/guild&#45;framework/guild&#45;core/pkg/tools/parser/xml.Detector).isWellFormedXML]&#10;at detector.go:159: calling [(*github.com/guild&#45;framework/guild&#45;core/pkg/tools/parser/xml.Detector).containsFunctionCalls]&#10;at detector.go:181: calling [(*github.com/guild&#45;framework/guild&#45;core/pkg/tools/parser/xml.Detector).containsFunctionCalls]">
<path fill="lightblue" stroke="black" stroke-width="0.5" d="M846.12,-472C846.12,-472 604.08,-472 604.08,-472 598.08,-472 592.08,-466 592.08,-460 592.08,-460 592.08,-448 592.08,-448 592.08,-442 598.08,-436 604.08,-436 604.08,-436 846.12,-436 846.12,-436 852.12,-436 858.12,-442 858.12,-448 858.12,-448 858.12,-460 858.12,-460 858.12,-466 852.12,-472 846.12,-472"/>
<text xml:space="preserve" text-anchor="middle" x="725.1" y="-449.32" font-family="Verdana" font-size="14.00">(*Detector).extractFromCodeBlock</text>
</a>
</g>
</g>
<!-- (*github.com/guild&#45;framework/guild&#45;core/pkg/tools/parser/xml.Detector).extractXML&#45;&gt;(*github.com/guild&#45;framework/guild&#45;core/pkg/tools/parser/xml.Detector).extractFromCodeBlock -->
<g id="edge17" class="edge">
<title>(*github.com/guild&#45;framework/guild&#45;core/pkg/tools/parser/xml.Detector).extractXML&#45;&gt;(*github.com/guild&#45;framework/guild&#45;core/pkg/tools/parser/xml.Detector).extractFromCodeBlock</title>
<g id="a_edge17"><a xlink:title="at detector.go:111: calling [(*github.com/guild&#45;framework/guild&#45;core/pkg/tools/parser/xml.Detector).extractFromCodeBlock]">
<path fill="none" stroke="black" d="M464.55,-454C499.97,-454 541.26,-454 580.34,-454"/>
<polygon fill="black" stroke="black" points="580.33,-457.5 590.33,-454 580.33,-450.5 580.33,-457.5"/>
</a>
</g>
</g>
<!-- (*github.com/guild&#45;framework/guild&#45;core/pkg/tools/parser/xml.Detector).extractFromCodeBlock&#45;&gt;(*github.com/guild&#45;framework/guild&#45;core/pkg/tools/parser/xml.Detector).isWellFormedXML -->
<g id="edge5" class="edge">
<title>(*github.com/guild&#45;framework/guild&#45;core/pkg/tools/parser/xml.Detector).extractFromCodeBlock&#45;&gt;(*github.com/guild&#45;framework/guild&#45;core/pkg/tools/parser/xml.Detector).isWellFormedXML</title>
<g id="a_edge5"><a xlink:title="at detector.go:159: calling [(*github.com/guild&#45;framework/guild&#45;core/pkg/tools/parser/xml.Detector).isWellFormedXML]&#10;at detector.go:181: calling [(*github.com/guild&#45;framework/guild&#45;core/pkg/tools/parser/xml.Detector).isWellFormedXML]">
<path fill="none" stroke="black" d="M858.25,-442.41C889.43,-439.68 922.59,-436.77 953.5,-434.06"/>
<polygon fill="black" stroke="black" points="953.61,-437.56 963.27,-433.2 953,-430.59 953.61,-437.56"/>
</a>
</g>
</g>
<!-- (*github.com/guild&#45;framework/guild&#45;core/pkg/tools/parser/xml.Detector).containsFunctionCalls -->
<g id="node7" class="node">
<title>(*github.com/guild&#45;framework/guild&#45;core/pkg/tools/parser/xml.Detector).containsFunctionCalls</title>
<g id="a_node7"><a xlink:title="(*github.com/guild&#45;framework/guild&#45;core/pkg/tools/parser/xml.Detector).containsFunctionCalls | defined in detector.go:210">
<path fill="lightblue" stroke="black" stroke-width="0.5" d="M1198.66,-502C1198.66,-502 962.62,-502 962.62,-502 956.62,-502 950.62,-496 950.62,-490 950.62,-490 950.62,-478 950.62,-478 950.62,-472 956.62,-466 962.62,-466 962.62,-466 1198.66,-466 1198.66,-466 1204.66,-466 1210.66,-472 1210.66,-478 1210.66,-478 1210.66,-490 1210.66,-490 1210.66,-496 1204.66,-502 1198.66,-502"/>
<text xml:space="preserve" text-anchor="middle" x="1080.64" y="-479.32" font-family="Verdana" font-size="14.00">(*Detector).containsFunctionCalls</text>
</a>
</g>
</g>
<!-- (*github.com/guild&#45;framework/guild&#45;core/pkg/tools/parser/xml.Detector).extractFromCodeBlock&#45;&gt;(*github.com/guild&#45;framework/guild&#45;core/pkg/tools/parser/xml.Detector).containsFunctionCalls -->
<g id="edge23" class="edge">
<title>(*github.com/guild&#45;framework/guild&#45;core/pkg/tools/parser/xml.Detector).extractFromCodeBlock&#45;&gt;(*github.com/guild&#45;framework/guild&#45;core/pkg/tools/parser/xml.Detector).containsFunctionCalls</title>
<g id="a_edge23"><a xlink:title="at detector.go:159: calling [(*github.com/guild&#45;framework/guild&#45;core/pkg/tools/parser/xml.Detector).containsFunctionCalls]&#10;at detector.go:181: calling [(*github.com/guild&#45;framework/guild&#45;core/pkg/tools/parser/xml.Detector).containsFunctionCalls]">
<path fill="none" stroke="black" d="M858.25,-465.21C884.68,-467.46 912.53,-469.82 939.22,-472.08"/>
<polygon fill="black" stroke="black" points="938.82,-475.56 949.08,-472.92 939.41,-468.59 938.82,-475.56"/>
</a>
</g>
</g>
<!-- (*github.com/guild&#45;framework/guild&#45;core/pkg/tools/parser/xml.Parser).Parse -->
<g id="node8" class="node">
<title>(*github.com/guild&#45;framework/guild&#45;core/pkg/tools/parser/xml.Parser).Parse</title>
<g id="a_node8"><a xlink:title="(*github.com/guild&#45;framework/guild&#45;core/pkg/tools/parser/xml.Parser).Parse | defined in parser.go:73&#10;at parser.go:79: calling [(*github.com/guild&#45;framework/guild&#45;core/pkg/tools/parser/xml.Parser).parseStructuredXML]&#10;at parser.go:117: calling [(*github.com/guild&#45;framework/guild&#45;core/pkg/tools/parser/xml.Parser).parseStructuredXML]&#10;at parser.go:99: calling [github.com/guild&#45;framework/guild&#45;core/pkg/tools/parser/xml.NewDetector]&#10;at parser.go:100: calling [(*github.com/guild&#45;framework/guild&#45;core/pkg/tools/parser/xml.Detector).extractXML]&#10;at parser.go:106: calling [github.com/guild&#45;framework/guild&#45;core/pkg/gerror.New]&#10;at parser.go:107: calling [(*github.com/guild&#45;framework/guild&#45;core/pkg/gerror.GuildError).WithComponent]&#10;at parser.go:108: calling [(*github.com/guild&#45;framework/guild&#45;core/pkg/gerror.GuildError).WithOperation]&#10;at parser.go:89: calling [(*github.com/guild&#45;framework/guild&#45;core/pkg/tools/parser/xml.Parser).parseStreamingXML]&#10;at parser.go:123: calling [(*github.com/guild&#45;framework/guild&#45;core/pkg/tools/parser/xml.Parser).parseStreamingXML]&#10;at parser.go:74: calling [github.com/guild&#45;framework/guild&#45;core/pkg/observability.GetLogger]">
<path fill="lightblue" stroke="black" stroke-width="1.5" d="M146.66,-190C146.66,-190 38.88,-190 38.88,-190 32.88,-190 26.87,-184 26.87,-178 26.87,-178 26.87,-166 26.87,-166 26.87,-160 32.87,-154 38.87,-154 38.87,-154 146.66,-154 146.66,-154 152.66,-154 158.66,-160 158.66,-166 158.66,-166 158.66,-178 158.66,-178 158.66,-184 152.66,-190 146.66,-190"/>
<text xml:space="preserve" text-anchor="middle" x="92.77" y="-167.32" font-family="Verdana" font-size="14.00">(*Parser).Parse</text>
</a>
</g>
</g>
<!-- (*github.com/guild&#45;framework/guild&#45;core/pkg/tools/parser/xml.Parser).Parse&#45;&gt;(*github.com/guild&#45;framework/guild&#45;core/pkg/tools/parser/xml.Parser).parseStreamingXML -->
<g id="edge20" class="edge">
<title>(*github.com/guild&#45;framework/guild&#45;core/pkg/tools/parser/xml.Parser).Parse&#45;&gt;(*github.com/guild&#45;framework/guild&#45;core/pkg/tools/parser/xml.Parser).parseStreamingXML</title>
<g id="a_edge20"><a xlink:title="at parser.go:89: calling [(*github.com/guild&#45;framework/guild&#45;core/pkg/tools/parser/xml.Parser).parseStreamingXML]&#10;at parser.go:123: calling [(*github.com/guild&#45;framework/guild&#45;core/pkg/tools/parser/xml.Parser).parseStreamingXML]">
<path fill="none" stroke="black" d="M116.98,-190.56C145.02,-211.99 194.45,-246.64 242.54,-265 242.77,-265.09 243,-265.17 243.23,-265.26"/>
<polygon fill="black" stroke="black" points="241.79,-268.47 252.38,-268.45 244.09,-261.85 241.79,-268.47"/>
</a>
</g>
</g>
<!-- (*github.com/guild&#45;framework/guild&#45;core/pkg/tools/parser/xml.Parser).Parse&#45;&gt;(*github.com/guild&#45;framework/guild&#45;core/pkg/tools/parser/xml.Detector).extractXML -->
<g id="edge8" class="edge">
<title>(*github.com/guild&#45;framework/guild&#45;core/pkg/tools/parser/xml.Parser).Parse&#45;&gt;(*github.com/guild&#45;framework/guild&#45;core/pkg/tools/parser/xml.Detector).extractXML</title>
<g id="a_edge8"><a xlink:title="at parser.go:100: calling [(*github.com/guild&#45;framework/guild&#45;core/pkg/tools/parser/xml.Detector).extractXML]">
<path fill="none" stroke="black" d="M103.57,-190.55C124.76,-229.33 178.14,-320.24 242.54,-379 265.39,-399.85 294.95,-417.67 319.86,-430.71"/>
<polygon fill="black" stroke="black" points="318.02,-433.7 328.52,-435.13 321.2,-427.47 318.02,-433.7"/>
</a>
</g>
</g>
<!-- (*github.com/guild&#45;framework/guild&#45;core/pkg/tools/parser/xml.Parser).parseStructuredXML -->
<g id="node9" class="node">
<title>(*github.com/guild&#45;framework/guild&#45;core/pkg/tools/parser/xml.Parser).parseStructuredXML</title>
<g id="a_node9"><a xlink:title="(*github.com/guild&#45;framework/guild&#45;core/pkg/tools/parser/xml.Parser).parseStructuredXML | defined in parser.go:130&#10;at parser.go:147: calling [(*github.com/guild&#45;framework/guild&#45;core/pkg/tools/parser/xml.Parser).convertInvokeToToolCall]&#10;at parser.go:157: calling [(*github.com/guild&#45;framework/guild&#45;core/pkg/tools/parser/xml.Parser).convertToolToToolCall]">
<path fill="lightblue" stroke="black" stroke-width="0.5" d="M477.46,-366C477.46,-366 264.67,-366 264.67,-366 258.67,-366 252.67,-360 252.67,-354 252.67,-354 252.67,-342 252.67,-342 252.67,-336 258.67,-330 264.67,-330 264.67,-330 477.46,-330 477.46,-330 483.46,-330 489.46,-336 489.46,-342 489.46,-342 489.46,-354 489.46,-354 489.46,-360 483.46,-366 477.46,-366"/>
<text xml:space="preserve" text-anchor="middle" x="371.06" y="-343.32" font-family="Verdana" font-size="14.00">(*Parser).parseStructuredXML</text>
</a>
</g>
</g>
<!-- (*github.com/guild&#45;framework/guild&#45;core/pkg/tools/parser/xml.Parser).Parse&#45;&gt;(*github.com/guild&#45;framework/guild&#45;core/pkg/tools/parser/xml.Parser).parseStructuredXML -->
<g id="edge6" class="edge">
<title>(*github.com/guild&#45;framework/guild&#45;core/pkg/tools/parser/xml.Parser).Parse&#45;&gt;(*github.com/guild&#45;framework/guild&#45;core/pkg/tools/parser/xml.Parser).parseStructuredXML</title>
<g id="a_edge6"><a xlink:title="at parser.go:79: calling [(*github.com/guild&#45;framework/guild&#45;core/pkg/tools/parser/xml.Parser).parseStructuredXML]&#10;at parser.go:117: calling [(*github.com/guild&#45;framework/guild&#45;core/pkg/tools/parser/xml.Parser).parseStructuredXML]">
<path fill="none" stroke="black" d="M107.26,-190.73C130.93,-222.16 183.11,-285.26 242.54,-318 247.77,-320.88 253.27,-323.49 258.92,-325.84"/>
<polygon fill="black" stroke="black" points="257.25,-328.95 267.84,-329.28 259.76,-322.42 257.25,-328.95"/>
</a>
</g>
</g>
<!-- github.com/guild&#45;framework/guild&#45;core/pkg/tools/parser/xml.NewDetector -->
<g id="node11" class="node">
<title>github.com/guild&#45;framework/guild&#45;core/pkg/tools/parser/xml.NewDetector</title>
<g id="a_node11"><a xlink:title="github.com/guild&#45;framework/guild&#45;core/pkg/tools/parser/xml.NewDetector | defined in detector.go:23">
<path fill="lightblue" stroke="black" stroke-width="1.5" d="M415.21,-164C415.21,-164 326.92,-164 326.92,-164 320.92,-164 314.92,-158 314.92,-152 314.92,-152 314.92,-140 314.92,-140 314.92,-134 320.92,-128 326.92,-128 326.92,-128 415.21,-128 415.21,-128 421.21,-128 427.21,-134 427.21,-140 427.21,-140 427.21,-152 427.21,-152 427.21,-158 421.21,-164 415.21,-164"/>
<text xml:space="preserve" text-anchor="middle" x="371.06" y="-141.32" font-family="Verdana" font-size="14.00">NewDetector</text>
</a>
</g>
</g>
<!-- (*github.com/guild&#45;framework/guild&#45;core/pkg/tools/parser/xml.Parser).Parse&#45;&gt;github.com/guild&#45;framework/guild&#45;core/pkg/tools/parser/xml.NewDetector -->
<g id="edge7" class="edge">
<title>(*github.com/guild&#45;framework/guild&#45;core/pkg/tools/parser/xml.Parser).Parse&#45;&gt;github.com/guild&#45;framework/guild&#45;core/pkg/tools/parser/xml.NewDetector</title>
<g id="a_edge7"><a xlink:title="at parser.go:99: calling [github.com/guild&#45;framework/guild&#45;core/pkg/tools/parser/xml.NewDetector]">
<path fill="none" stroke="black" d="M159.25,-165.84C202.61,-161.76 259.32,-156.42 303,-152.31"/>
<polygon fill="black" stroke="black" points="303.24,-155.8 312.87,-151.38 302.59,-148.83 303.24,-155.8"/>
</a>
</g>
</g>
<!-- (*github.com/guild&#45;framework/guild&#45;core/pkg/tools/parser/xml.Parser).Parse&#45;&gt;(*github.com/guild&#45;framework/guild&#45;core/pkg/gerror.GuildError).WithComponent -->
<g id="edge14" class="edge">
<title>(*github.com/guild&#45;framework/guild&#45;core/pkg/tools/parser/xml.Parser).Parse&#45;&gt;(*github.com/guild&#45;framework/guild&#45;core/pkg/gerror.GuildError).WithComponent</title>
<g id="a_edge14"><a xlink:title="at parser.go:107: calling [(*github.com/guild&#45;framework/guild&#45;core/pkg/gerror.GuildError).WithComponent]">
<path fill="none" stroke="saddlebrown" d="M121.04,-153.3C149.78,-134.83 197.09,-107.81 242.54,-97 360.42,-68.97 499.15,-74.59 597.36,-84.76"/>
<polygon fill="saddlebrown" stroke="saddlebrown" points="596.71,-88.21 607.02,-85.79 597.45,-81.25 596.71,-88.21"/>
</a>
</g>
</g>
<!-- (*github.com/guild&#45;framework/guild&#45;core/pkg/tools/parser/xml.Parser).Parse&#45;&gt;(*github.com/guild&#45;framework/guild&#45;core/pkg/gerror.GuildError).WithOperation -->
<g id="edge15" class="edge">
<title>(*github.com/guild&#45;framework/guild&#45;core/pkg/tools/parser/xml.Parser).Parse&#45;&gt;(*github.com/guild&#45;framework/guild&#45;core/pkg/gerror.GuildError).WithOperation</title>
<g id="a_edge15"><a xlink:title="at parser.go:108: calling [(*github.com/guild&#45;framework/guild&#45;core/pkg/gerror.GuildError).WithOperation]">
<path fill="none" stroke="saddlebrown" d="M131.83,-153.31C161.26,-139.94 203.44,-123.11 242.54,-116 354.93,-95.55 386.17,-102.22 499.58,-116 532.75,-120.03 539.96,-126.75 572.58,-134 586.35,-137.06 600.85,-140.13 615.21,-143.07"/>
<polygon fill="saddlebrown" stroke="saddlebrown" points="614.17,-146.43 624.67,-145 615.57,-139.57 614.17,-146.43"/>
</a>
</g>
</g>
<!-- (*github.com/guild&#45;framework/guild&#45;core/pkg/tools/parser/xml.Parser).Parse&#45;&gt;github.com/guild&#45;framework/guild&#45;core/pkg/gerror.New -->
<g id="edge13" class="edge">
<title>(*github.com/guild&#45;framework/guild&#45;core/pkg/tools/parser/xml.Parser).Parse&#45;&gt;github.com/guild&#45;framework/guild&#45;core/pkg/gerror.New</title>
<g id="a_edge13"><a xlink:title="at parser.go:106: calling [github.com/guild&#45;framework/guild&#45;core/pkg/gerror.New]">
<path fill="none" stroke="saddlebrown" d="M113,-153.57C139.63,-129.36 190.39,-87.84 242.54,-70 400.01,-16.14 603.19,-29.03 686.22,-37.49"/>
<polygon fill="saddlebrown" stroke="saddlebrown" points="685.76,-40.96 696.07,-38.54 686.5,-34 685.76,-40.96"/>
</a>
</g>
</g>
<!-- github.com/guild&#45;framework/guild&#45;core/pkg/observability.GetLogger -->
<g id="node21" class="node">
<title>github.com/guild&#45;framework/guild&#45;core/pkg/observability.GetLogger</title>
<g id="a_node21"><a xlink:title="github.com/guild&#45;framework/guild&#45;core/pkg/observability.GetLogger | defined in logger.go:206">
<path fill="moccasin" stroke="black" stroke-width="1.5" d="M406.58,-225C406.58,-225 335.54,-225 335.54,-225 329.54,-225 323.54,-219 323.54,-213 323.54,-213 323.54,-201 323.54,-201 323.54,-195 329.54,-189 335.54,-189 335.54,-189 406.58,-189 406.58,-189 412.58,-189 418.58,-195 418.58,-201 418.58,-201 418.58,-213 418.58,-213 418.58,-219 412.58,-225 406.58,-225"/>
<text xml:space="preserve" text-anchor="middle" x="371.06" y="-202.32" font-family="Verdana" font-size="14.00">GetLogger</text>
</a>
</g>
</g>
<!-- (*github.com/guild&#45;framework/guild&#45;core/pkg/tools/parser/xml.Parser).Parse&#45;&gt;github.com/guild&#45;framework/guild&#45;core/pkg/observability.GetLogger -->
<g id="edge24" class="edge">
<title>(*github.com/guild&#45;framework/guild&#45;core/pkg/tools/parser/xml.Parser).Parse&#45;&gt;github.com/guild&#45;framework/guild&#45;core/pkg/observability.GetLogger</title>
<g id="a_edge24"><a xlink:title="at parser.go:74: calling [github.com/guild&#45;framework/guild&#45;core/pkg/observability.GetLogger]">
<path fill="none" stroke="saddlebrown" d="M159.25,-180.29C205.63,-186.17 267.3,-193.98 311.95,-199.64"/>
<polygon fill="saddlebrown" stroke="saddlebrown" points="311.34,-203.09 321.7,-200.87 312.22,-196.14 311.34,-203.09"/>
</a>
</g>
</g>
<!-- (*github.com/guild&#45;framework/guild&#45;core/pkg/tools/parser/xml.Parser).parseStructuredXML&#45;&gt;(*github.com/guild&#45;framework/guild&#45;core/pkg/tools/parser/xml.Parser).convertInvokeToToolCall -->
<g id="edge18" class="edge">
<title>(*github.com/guild&#45;framework/guild&#45;core/pkg/tools/parser/xml.Parser).parseStructuredXML&#45;&gt;(*github.com/guild&#45;framework/guild&#45;core/pkg/tools/parser/xml.Parser).convertInvokeToToolCall</title>
<g id="a_edge18"><a xlink:title="at parser.go:147: calling [(*github.com/guild&#45;framework/guild&#45;core/pkg/tools/parser/xml.Parser).convertInvokeToToolCall]">
<path fill="none" stroke="black" d="M489.28,-333.68C519.3,-330.02 551.89,-326.03 582.98,-322.24"/>
<polygon fill="black" stroke="black" points="583.35,-325.72 592.85,-321.03 582.5,-318.77 583.35,-325.72"/>
</a>
</g>
</g>
<!-- (*github.com/guild&#45;framework/guild&#45;core/pkg/tools/parser/xml.Parser).convertToolToToolCall -->
<g id="node10" class="node">
<title>(*github.com/guild&#45;framework/guild&#45;core/pkg/tools/parser/xml.Parser).convertToolToToolCall</title>
<g id="a_node10"><a xlink:title="(*github.com/guild&#45;framework/guild&#45;core/pkg/tools/parser/xml.Parser).convertToolToToolCall | defined in parser.go:306">
<path fill="lightblue" stroke="black" stroke-width="0.5" d="M834.5,-384C834.5,-384 615.71,-384 615.71,-384 609.71,-384 603.71,-378 603.71,-372 603.71,-372 603.71,-360 603.71,-360 603.71,-354 609.71,-348 615.71,-348 615.71,-348 834.5,-348 834.5,-348 840.5,-348 846.5,-354 846.5,-360 846.5,-360 846.5,-372 846.5,-372 846.5,-378 840.5,-384 834.5,-384"/>
<text xml:space="preserve" text-anchor="middle" x="725.1" y="-361.32" font-family="Verdana" font-size="14.00">(*Parser).convertToolToToolCall</text>
</a>
</g>
</g>
<!-- (*github.com/guild&#45;framework/guild&#45;core/pkg/tools/parser/xml.Parser).parseStructuredXML&#45;&gt;(*github.com/guild&#45;framework/guild&#45;core/pkg/tools/parser/xml.Parser).convertToolToToolCall -->
<g id="edge19" class="edge">
<title>(*github.com/guild&#45;framework/guild&#45;core/pkg/tools/parser/xml.Parser).parseStructuredXML&#45;&gt;(*github.com/guild&#45;framework/guild&#45;core/pkg/tools/parser/xml.Parser).convertToolToToolCall</title>
<g id="a_edge19"><a xlink:title="at parser.go:157: calling [(*github.com/guild&#45;framework/guild&#45;core/pkg/tools/parser/xml.Parser).convertToolToToolCall]">
<path fill="none" stroke="black" d="M489.28,-353.99C522.26,-355.68 558.35,-357.52 592.12,-359.25"/>
<polygon fill="black" stroke="black" points="591.8,-362.74 601.97,-359.76 592.16,-355.75 591.8,-362.74"/>
</a>
</g>
</g>
<!-- (*github.com/guild&#45;framework/guild&#45;core/pkg/tools/parser/xml.Detector).analyzeXMLStructure -->
<g id="node12" class="node">
<title>(*github.com/guild&#45;framework/guild&#45;core/pkg/tools/parser/xml.Detector).analyzeXMLStructure</title>
<g id="a_node12"><a xlink:title="(*github.com/guild&#45;framework/guild&#45;core/pkg/tools/parser/xml.Detector).analyzeXMLStructure | defined in detector.go:218&#10;at detector.go:236: calling [github.com/guild&#45;framework/guild&#45;core/pkg/tools/parser/xml.min]&#10;at detector.go:285: calling [github.com/guild&#45;framework/guild&#45;core/pkg/tools/parser/xml.min]&#10;at detector.go:297: calling [github.com/guild&#45;framework/guild&#45;core/pkg/tools/parser/xml.minFloat]">
<path fill="lightblue" stroke="black" stroke-width="0.5" d="M487.58,-594C487.58,-594 254.54,-594 254.54,-594 248.54,-594 242.54,-588 242.54,-582 242.54,-582 242.54,-570 242.54,-570 242.54,-564 248.54,-558 254.54,-558 254.54,-558 487.58,-558 487.58,-558 493.58,-558 499.58,-564 499.58,-570 499.58,-570 499.58,-582 499.58,-582 499.58,-588 493.58,-594 487.58,-594"/>
<text xml:space="preserve" text-anchor="middle" x="371.06" y="-571.33" font-family="Verdana" font-size="14.00">(*Detector).analyzeXMLStructure</text>
</a>
</g>
</g>
<!-- github.com/guild&#45;framework/guild&#45;core/pkg/tools/parser/xml.min -->
<g id="node13" class="node">
<title>github.com/guild&#45;framework/guild&#45;core/pkg/tools/parser/xml.min</title>
<g id="a_node13"><a xlink:title="github.com/guild&#45;framework/guild&#45;core/pkg/tools/parser/xml.min | defined in detector.go:314">
<path fill="lightblue" stroke="black" stroke-width="0.5" d="M740.1,-594C740.1,-594 710.1,-594 710.1,-594 704.1,-594 698.1,-588 698.1,-582 698.1,-582 698.1,-570 698.1,-570 698.1,-564 704.1,-558 710.1,-558 710.1,-558 740.1,-558 740.1,-558 746.1,-558 752.1,-564 752.1,-570 752.1,-570 752.1,-582 752.1,-582 752.1,-588 746.1,-594 740.1,-594"/>
<text xml:space="preserve" text-anchor="middle" x="725.1" y="-571.33" font-family="Verdana" font-size="14.00">min</text>
</a>
</g>
</g>
<!-- (*github.com/guild&#45;framework/guild&#45;core/pkg/tools/parser/xml.Detector).analyzeXMLStructure&#45;&gt;github.com/guild&#45;framework/guild&#45;core/pkg/tools/parser/xml.min -->
<g id="edge16" class="edge">
<title>(*github.com/guild&#45;framework/guild&#45;core/pkg/tools/parser/xml.Detector).analyzeXMLStructure&#45;&gt;github.com/guild&#45;framework/guild&#45;core/pkg/tools/parser/xml.min</title>
<g id="a_edge16"><a xlink:title="at detector.go:236: calling [github.com/guild&#45;framework/guild&#45;core/pkg/tools/parser/xml.min]&#10;at detector.go:285: calling [github.com/guild&#45;framework/guild&#45;core/pkg/tools/parser/xml.min]">
<path fill="none" stroke="black" d="M499.65,-576C565.98,-576 642.26,-576 686.64,-576"/>
<polygon fill="black" stroke="black" points="686.49,-579.5 696.49,-576 686.49,-572.5 686.49,-579.5"/>
</a>
</g>
</g>
<!-- github.com/guild&#45;framework/guild&#45;core/pkg/tools/parser/xml.minFloat -->
<g id="node14" class="node">
<title>github.com/guild&#45;framework/guild&#45;core/pkg/tools/parser/xml.minFloat</title>
<g id="a_node14"><a xlink:title="github.com/guild&#45;framework/guild&#45;core/pkg/tools/parser/xml.minFloat | defined in detector.go:321">
<path fill="lightblue" stroke="black" stroke-width="0.5" d="M754.62,-655C754.62,-655 695.58,-655 695.58,-655 689.58,-655 683.58,-649 683.58,-643 683.58,-643 683.58,-631 683.58,-631 683.58,-625 689.58,-619 695.58,-619 695.58,-619 754.62,-619 754.62,-619 760.62,-619 766.62,-625 766.62,-631 766.62,-631 766.62,-643 766.62,-643 766.62,-649 760.62,-655 754.62,-655"/>
<text xml:space="preserve" text-anchor="middle" x="725.1" y="-632.33" font-family="Verdana" font-size="14.00">minFloat</text>
</a>
</g>
</g>
<!-- (*github.com/guild&#45;framework/guild&#45;core/pkg/tools/parser/xml.Detector).analyzeXMLStructure&#45;&gt;github.com/guild&#45;framework/guild&#45;core/pkg/tools/parser/xml.minFloat -->
<g id="edge21" class="edge">
<title>(*github.com/guild&#45;framework/guild&#45;core/pkg/tools/parser/xml.Detector).analyzeXMLStructure&#45;&gt;github.com/guild&#45;framework/guild&#45;core/pkg/tools/parser/xml.minFloat</title>
<g id="a_edge21"><a xlink:title="at detector.go:297: calling [github.com/guild&#45;framework/guild&#45;core/pkg/tools/parser/xml.minFloat]">
<path fill="none" stroke="black" d="M477.21,-594.22C541.63,-605.38 621.25,-619.18 672.35,-628.03"/>
<polygon fill="black" stroke="black" points="671.49,-631.44 681.94,-629.7 672.69,-624.54 671.49,-631.44"/>
</a>
</g>
</g>
<!-- (*github.com/guild&#45;framework/guild&#45;core/pkg/tools/parser/xml.Detector).Detect -->
<g id="node15" class="node">
<title>(*github.com/guild&#45;framework/guild&#45;core/pkg/tools/parser/xml.Detector).Detect</title>
<g id="a_node15"><a xlink:title="(*github.com/guild&#45;framework/guild&#45;core/pkg/tools/parser/xml.Detector).Detect | defined in detector.go:58&#10;at detector.go:76: calling [(*github.com/guild&#45;framework/guild&#45;core/pkg/tools/parser/xml.Detector).analyzeXMLStructure]&#10;at detector.go:66: calling [(*github.com/guild&#45;framework/guild&#45;core/pkg/tools/parser/xml.Detector).extractXML]&#10;at detector.go:81: calling [(*github.com/guild&#45;framework/guild&#45;core/pkg/tools/parser/xml.Detector).countXMLElements]">
<path fill="lightblue" stroke="black" stroke-width="1.5" d="M157.54,-594C157.54,-594 28,-594 28,-594 22,-594 16,-588 16,-582 16,-582 16,-570 16,-570 16,-564 22,-558 28,-558 28,-558 157.54,-558 157.54,-558 163.54,-558 169.54,-564 169.54,-570 169.54,-570 169.54,-582 169.54,-582 169.54,-588 163.54,-594 157.54,-594"/>
<text xml:space="preserve" text-anchor="middle" x="92.77" y="-571.33" font-family="Verdana" font-size="14.00">(*Detector).Detect</text>
</a>
</g>
</g>
<!-- (*github.com/guild&#45;framework/guild&#45;core/pkg/tools/parser/xml.Detector).Detect&#45;&gt;(*github.com/guild&#45;framework/guild&#45;core/pkg/tools/parser/xml.Detector).extractXML -->
<g id="edge25" class="edge">
<title>(*github.com/guild&#45;framework/guild&#45;core/pkg/tools/parser/xml.Detector).Detect&#45;&gt;(*github.com/guild&#45;framework/guild&#45;core/pkg/tools/parser/xml.Detector).extractXML</title>
<g id="a_edge25"><a xlink:title="at detector.go:66: calling [(*github.com/guild&#45;framework/guild&#45;core/pkg/tools/parser/xml.Detector).extractXML]">
<path fill="none" stroke="black" d="M136.03,-557.34C185.11,-535.67 266.03,-499.93 318.69,-476.68"/>
<polygon fill="black" stroke="black" points="320.04,-479.92 327.77,-472.67 317.21,-473.51 320.04,-479.92"/>
</a>
</g>
</g>
<!-- (*github.com/guild&#45;framework/guild&#45;core/pkg/tools/parser/xml.Detector).Detect&#45;&gt;(*github.com/guild&#45;framework/guild&#45;core/pkg/tools/parser/xml.Detector).analyzeXMLStructure -->
<g id="edge22" class="edge">
<title>(*github.com/guild&#45;framework/guild&#45;core/pkg/tools/parser/xml.Detector).Detect&#45;&gt;(*github.com/guild&#45;framework/guild&#45;core/pkg/tools/parser/xml.Detector).analyzeXMLStructure</title>
<g id="a_edge22"><a xlink:title="at detector.go:76: calling [(*github.com/guild&#45;framework/guild&#45;core/pkg/tools/parser/xml.Detector).analyzeXMLStructure]">
<path fill="none" stroke="black" d="M170,-576C189.02,-576 210.02,-576 231.04,-576"/>
<polygon fill="black" stroke="black" points="230.86,-579.5 240.86,-576 230.86,-572.5 230.86,-579.5"/>
</a>
</g>
</g>
<!-- (*github.com/guild&#45;framework/guild&#45;core/pkg/tools/parser/xml.Detector).countXMLElements -->
<g id="node16" class="node">
<title>(*github.com/guild&#45;framework/guild&#45;core/pkg/tools/parser/xml.Detector).countXMLElements</title>
<g id="a_node16"><a xlink:title="(*github.com/guild&#45;framework/guild&#45;core/pkg/tools/parser/xml.Detector).countXMLElements | defined in detector.go:301">
<path fill="lightblue" stroke="black" stroke-width="0.5" d="M479.71,-655C479.71,-655 262.42,-655 262.42,-655 256.42,-655 250.42,-649 250.42,-643 250.42,-643 250.42,-631 250.42,-631 250.42,-625 256.42,-619 262.42,-619 262.42,-619 479.71,-619 479.71,-619 485.71,-619 491.71,-625 491.71,-631 491.71,-631 491.71,-643 491.71,-643 491.71,-649 485.71,-655 479.71,-655"/>
<text xml:space="preserve" text-anchor="middle" x="371.06" y="-632.33" font-family="Verdana" font-size="14.00">(*Detector).countXMLElements</text>
</a>
</g>
</g>
<!-- (*github.com/guild&#45;framework/guild&#45;core/pkg/tools/parser/xml.Detector).Detect&#45;&gt;(*github.com/guild&#45;framework/guild&#45;core/pkg/tools/parser/xml.Detector).countXMLElements -->
<g id="edge26" class="edge">
<title>(*github.com/guild&#45;framework/guild&#45;core/pkg/tools/parser/xml.Detector).Detect&#45;&gt;(*github.com/guild&#45;framework/guild&#45;core/pkg/tools/parser/xml.Detector).countXMLElements</title>
<g id="a_edge26"><a xlink:title="at detector.go:81: calling [(*github.com/guild&#45;framework/guild&#45;core/pkg/tools/parser/xml.Detector).countXMLElements]">
<path fill="none" stroke="black" d="M170,-592.83C203,-600.12 241.96,-608.72 276.68,-616.38"/>
<polygon fill="black" stroke="black" points="275.79,-619.77 286.31,-618.51 277.3,-612.94 275.79,-619.77"/>
</a>
</g>
</g>
</g>
</svg>
