<?xml version="1.0" encoding="UTF-8" standalone="no"?>
<!DOCTYPE svg PUBLIC "-//W3C//DTD SVG 1.1//EN"
 "http://www.w3.org/Graphics/SVG/1.1/DTD/svg11.dtd">
<!-- Generated by graphviz version 14.1.1 (20251213.1925)
 -->
<!-- Title: gocallvis Pages: 1 -->
<svg width="1021pt" height="307pt"
 viewBox="0.00 0.00 1021.00 307.00" xmlns="http://www.w3.org/2000/svg" xmlns:xlink="http://www.w3.org/1999/xlink">
<g id="graph0" class="graph" transform="scale(1 1) rotate(0) translate(0 307)">
<title>gocallvis</title>
<polygon fill="lightgray" stroke="none" points="0,0 0,-307 1021.12,-307 1021.12,0 0,0"/>
<g id="clust1" class="cluster">
<title>cluster_focus</title>
<polygon fill="#e6ecfa" stroke="black" stroke-width="0.5" points="8,-8 8,-299 1013.12,-299 1013.12,-8 8,-8"/>
<text xml:space="preserve" text-anchor="middle" x="510.56" y="-277.9" font-family="Arial" font-size="18.00">cost</text>
</g>
<!-- (*github.com/guild&#45;framework/guild&#45;core/pkg/mcp/cost.MemoryObserver).GetTotalCost -->
<g id="node1" class="node">
<title>(*github.com/guild&#45;framework/guild&#45;core/pkg/mcp/cost.MemoryObserver).GetTotalCost</title>
<g id="a_node1"><a xlink:title="(*github.com/guild&#45;framework/guild&#45;core/pkg/mcp/cost.MemoryObserver).GetTotalCost | defined in observer.go:184&#10;at observer.go:185: calling [(*github.com/guild&#45;framework/guild&#45;core/pkg/mcp/cost.MemoryObserver).GetCosts]">
<path fill="lightblue" stroke="black" stroke-width="1.5" d="M636.08,-52C636.08,-52 402.29,-52 402.29,-52 396.29,-52 390.29,-46 390.29,-40 390.29,-40 390.29,-28 390.29,-28 390.29,-22 396.29,-16 402.29,-16 402.29,-16 636.08,-16 636.08,-16 642.08,-16 648.08,-22 648.08,-28 648.08,-28 648.08,-40 648.08,-40 648.08,-46 642.08,-52 636.08,-52"/>
<text xml:space="preserve" text-anchor="middle" x="519.18" y="-29.32" font-family="Verdana" font-size="14.00">(*MemoryObserver).GetTotalCost</text>
</a>
</g>
</g>
<!-- (*github.com/guild&#45;framework/guild&#45;core/pkg/mcp/cost.MemoryObserver).GetCosts -->
<g id="node2" class="node">
<title>(*github.com/guild&#45;framework/guild&#45;core/pkg/mcp/cost.MemoryObserver).GetCosts</title>
<g id="a_node2"><a xlink:title="(*github.com/guild&#45;framework/guild&#45;core/pkg/mcp/cost.MemoryObserver).GetCosts | defined in observer.go:104">
<path fill="lightblue" stroke="black" stroke-width="1.5" d="M993.12,-96C993.12,-96 784.83,-96 784.83,-96 778.83,-96 772.83,-90 772.83,-84 772.83,-84 772.83,-72 772.83,-72 772.83,-66 778.83,-60 784.83,-60 784.83,-60 993.12,-60 993.12,-60 999.12,-60 1005.12,-66 1005.12,-72 1005.12,-72 1005.12,-84 1005.12,-84 1005.12,-90 999.12,-96 993.12,-96"/>
<text xml:space="preserve" text-anchor="middle" x="888.97" y="-73.33" font-family="Verdana" font-size="14.00">(*MemoryObserver).GetCosts</text>
</a>
</g>
</g>
<!-- (*github.com/guild&#45;framework/guild&#45;core/pkg/mcp/cost.MemoryObserver).GetTotalCost&#45;&gt;(*github.com/guild&#45;framework/guild&#45;core/pkg/mcp/cost.MemoryObserver).GetCosts -->
<g id="edge5" class="edge">
<title>(*github.com/guild&#45;framework/guild&#45;core/pkg/mcp/cost.MemoryObserver).GetTotalCost&#45;&gt;(*github.com/guild&#45;framework/guild&#45;core/pkg/mcp/cost.MemoryObserver).GetCosts</title>
<g id="a_edge5"><a xlink:title="at observer.go:185: calling [(*github.com/guild&#45;framework/guild&#45;core/pkg/mcp/cost.MemoryObserver).GetCosts]">
<path fill="none" stroke="black" d="M648.82,-49.39C685.24,-53.75 724.85,-58.48 761.16,-62.83"/>
<polygon fill="black" stroke="black" points="760.47,-66.27 770.81,-63.98 761.3,-59.32 760.47,-66.27"/>
</a>
</g>
</g>
<!-- (*github.com/guild&#45;framework/guild&#45;core/pkg/mcp/cost.MemoryObserver).Analyze -->
<g id="node3" class="node">
<title>(*github.com/guild&#45;framework/guild&#45;core/pkg/mcp/cost.MemoryObserver).Analyze</title>
<g id="a_node3"><a xlink:title="(*github.com/guild&#45;framework/guild&#45;core/pkg/mcp/cost.MemoryObserver).Analyze | defined in observer.go:204&#10;at observer.go:309: calling [(*github.com/guild&#45;framework/guild&#45;core/pkg/mcp/cost.MemoryObserver).GetCosts]&#10;at observer.go:319: calling [(*github.com/guild&#45;framework/guild&#45;core/pkg/mcp/cost.MemoryObserver).generateRecommendations]&#10;at observer.go:216: calling [(*github.com/guild&#45;framework/guild&#45;core/pkg/mcp/cost.MemoryObserver).GetTotalCost]">
<path fill="lightblue" stroke="black" stroke-width="1.5" d="M241.16,-96C241.16,-96 40.38,-96 40.38,-96 34.38,-96 28.37,-90 28.37,-84 28.37,-84 28.37,-72 28.37,-72 28.37,-66 34.37,-60 40.37,-60 40.37,-60 241.16,-60 241.16,-60 247.16,-60 253.16,-66 253.16,-72 253.16,-72 253.16,-84 253.16,-84 253.16,-90 247.16,-96 241.16,-96"/>
<text xml:space="preserve" text-anchor="middle" x="140.77" y="-73.33" font-family="Verdana" font-size="14.00">(*MemoryObserver).Analyze</text>
</a>
</g>
</g>
<!-- (*github.com/guild&#45;framework/guild&#45;core/pkg/mcp/cost.MemoryObserver).Analyze&#45;&gt;(*github.com/guild&#45;framework/guild&#45;core/pkg/mcp/cost.MemoryObserver).GetTotalCost -->
<g id="edge6" class="edge">
<title>(*github.com/guild&#45;framework/guild&#45;core/pkg/mcp/cost.MemoryObserver).Analyze&#45;&gt;(*github.com/guild&#45;framework/guild&#45;core/pkg/mcp/cost.MemoryObserver).GetTotalCost</title>
<g id="a_edge6"><a xlink:title="at observer.go:216: calling [(*github.com/guild&#45;framework/guild&#45;core/pkg/mcp/cost.MemoryObserver).GetTotalCost]">
<path fill="none" stroke="black" d="M253.69,-64.92C292.89,-60.33 337.42,-55.13 378.6,-50.32"/>
<polygon fill="black" stroke="black" points="378.81,-53.82 388.34,-49.18 378,-46.86 378.81,-53.82"/>
</a>
</g>
</g>
<!-- (*github.com/guild&#45;framework/guild&#45;core/pkg/mcp/cost.MemoryObserver).Analyze&#45;&gt;(*github.com/guild&#45;framework/guild&#45;core/pkg/mcp/cost.MemoryObserver).GetCosts -->
<g id="edge1" class="edge">
<title>(*github.com/guild&#45;framework/guild&#45;core/pkg/mcp/cost.MemoryObserver).Analyze&#45;&gt;(*github.com/guild&#45;framework/guild&#45;core/pkg/mcp/cost.MemoryObserver).GetCosts</title>
<g id="a_edge1"><a xlink:title="at observer.go:309: calling [(*github.com/guild&#45;framework/guild&#45;core/pkg/mcp/cost.MemoryObserver).GetCosts]">
<path fill="none" stroke="black" d="M253.89,-78C389.86,-78 618.49,-78 760.88,-78"/>
<polygon fill="black" stroke="black" points="760.74,-81.5 770.74,-78 760.74,-74.5 760.74,-81.5"/>
</a>
</g>
</g>
<!-- (*github.com/guild&#45;framework/guild&#45;core/pkg/mcp/cost.MemoryObserver).generateRecommendations -->
<g id="node4" class="node">
<title>(*github.com/guild&#45;framework/guild&#45;core/pkg/mcp/cost.MemoryObserver).generateRecommendations</title>
<g id="a_node4"><a xlink:title="(*github.com/guild&#45;framework/guild&#45;core/pkg/mcp/cost.MemoryObserver).generateRecommendations | defined in observer.go:342">
<path fill="lightblue" stroke="black" stroke-width="0.5" d="M687.83,-140C687.83,-140 350.54,-140 350.54,-140 344.54,-140 338.54,-134 338.54,-128 338.54,-128 338.54,-116 338.54,-116 338.54,-110 344.54,-104 350.54,-104 350.54,-104 687.83,-104 687.83,-104 693.83,-104 699.83,-110 699.83,-116 699.83,-116 699.83,-128 699.83,-128 699.83,-134 693.83,-140 687.83,-140"/>
<text xml:space="preserve" text-anchor="middle" x="519.18" y="-117.33" font-family="Verdana" font-size="14.00">(*MemoryObserver).generateRecommendations</text>
</a>
</g>
</g>
<!-- (*github.com/guild&#45;framework/guild&#45;core/pkg/mcp/cost.MemoryObserver).Analyze&#45;&gt;(*github.com/guild&#45;framework/guild&#45;core/pkg/mcp/cost.MemoryObserver).generateRecommendations -->
<g id="edge2" class="edge">
<title>(*github.com/guild&#45;framework/guild&#45;core/pkg/mcp/cost.MemoryObserver).Analyze&#45;&gt;(*github.com/guild&#45;framework/guild&#45;core/pkg/mcp/cost.MemoryObserver).generateRecommendations</title>
<g id="a_edge2"><a xlink:title="at observer.go:319: calling [(*github.com/guild&#45;framework/guild&#45;core/pkg/mcp/cost.MemoryObserver).generateRecommendations]">
<path fill="none" stroke="black" d="M253.69,-91.08C284.26,-94.66 318.06,-98.61 350.99,-102.46"/>
<polygon fill="black" stroke="black" points="350.27,-105.9 360.61,-103.58 351.09,-98.94 350.27,-105.9"/>
</a>
</g>
</g>
<!-- (*github.com/guild&#45;framework/guild&#45;core/pkg/mcp/cost.MemoryObserver).RecordCost -->
<g id="node5" class="node">
<title>(*github.com/guild&#45;framework/guild&#45;core/pkg/mcp/cost.MemoryObserver).RecordCost</title>
<g id="a_node5"><a xlink:title="(*github.com/guild&#45;framework/guild&#45;core/pkg/mcp/cost.MemoryObserver).RecordCost | defined in observer.go:71&#10;at observer.go:88: calling [(*github.com/guild&#45;framework/guild&#45;core/pkg/mcp/cost.MemoryObserver).rebuildIndices]">
<path fill="lightblue" stroke="black" stroke-width="1.5" d="M253.54,-201C253.54,-201 28,-201 28,-201 22,-201 16,-195 16,-189 16,-189 16,-177 16,-177 16,-171 22,-165 28,-165 28,-165 253.54,-165 253.54,-165 259.54,-165 265.54,-171 265.54,-177 265.54,-177 265.54,-189 265.54,-189 265.54,-195 259.54,-201 253.54,-201"/>
<text xml:space="preserve" text-anchor="middle" x="140.77" y="-178.32" font-family="Verdana" font-size="14.00">(*MemoryObserver).RecordCost</text>
</a>
</g>
</g>
<!-- (*github.com/guild&#45;framework/guild&#45;core/pkg/mcp/cost.MemoryObserver).rebuildIndices -->
<g id="node6" class="node">
<title>(*github.com/guild&#45;framework/guild&#45;core/pkg/mcp/cost.MemoryObserver).rebuildIndices</title>
<g id="a_node6"><a xlink:title="(*github.com/guild&#45;framework/guild&#45;core/pkg/mcp/cost.MemoryObserver).rebuildIndices | defined in observer.go:330">
<path fill="lightblue" stroke="black" stroke-width="0.5" d="M642.08,-201C642.08,-201 396.29,-201 396.29,-201 390.29,-201 384.29,-195 384.29,-189 384.29,-189 384.29,-177 384.29,-177 384.29,-171 390.29,-165 396.29,-165 396.29,-165 642.08,-165 642.08,-165 648.08,-165 654.08,-171 654.08,-177 654.08,-177 654.08,-189 654.08,-189 654.08,-195 648.08,-201 642.08,-201"/>
<text xml:space="preserve" text-anchor="middle" x="519.18" y="-178.32" font-family="Verdana" font-size="14.00">(*MemoryObserver).rebuildIndices</text>
</a>
</g>
</g>
<!-- (*github.com/guild&#45;framework/guild&#45;core/pkg/mcp/cost.MemoryObserver).RecordCost&#45;&gt;(*github.com/guild&#45;framework/guild&#45;core/pkg/mcp/cost.MemoryObserver).rebuildIndices -->
<g id="edge3" class="edge">
<title>(*github.com/guild&#45;framework/guild&#45;core/pkg/mcp/cost.MemoryObserver).RecordCost&#45;&gt;(*github.com/guild&#45;framework/guild&#45;core/pkg/mcp/cost.MemoryObserver).rebuildIndices</title>
<g id="a_edge3"><a xlink:title="at observer.go:88: calling [(*github.com/guild&#45;framework/guild&#45;core/pkg/mcp/cost.MemoryObserver).rebuildIndices]">
<path fill="none" stroke="black" d="M266.07,-183C300.27,-183 337.66,-183 372.94,-183"/>
<polygon fill="black" stroke="black" points="372.79,-186.5 382.79,-183 372.79,-179.5 372.79,-186.5"/>
</a>
</g>
</g>
<!-- (*github.com/guild&#45;framework/guild&#45;core/pkg/mcp/cost.MemoryObserver).GetAverageCost -->
<g id="node7" class="node">
<title>(*github.com/guild&#45;framework/guild&#45;core/pkg/mcp/cost.MemoryObserver).GetAverageCost</title>
<g id="a_node7"><a xlink:title="(*github.com/guild&#45;framework/guild&#45;core/pkg/mcp/cost.MemoryObserver).GetAverageCost | defined in observer.go:149&#10;at observer.go:150: calling [(*github.com/guild&#45;framework/guild&#45;core/pkg/mcp/cost.MemoryObserver).GetCosts]">
<path fill="lightblue" stroke="black" stroke-width="1.5" d="M648.45,-262C648.45,-262 389.91,-262 389.91,-262 383.91,-262 377.91,-256 377.91,-250 377.91,-250 377.91,-238 377.91,-238 377.91,-232 383.91,-226 389.91,-226 389.91,-226 648.45,-226 648.45,-226 654.45,-226 660.45,-232 660.45,-238 660.45,-238 660.45,-250 660.45,-250 660.45,-256 654.45,-262 648.45,-262"/>
<text xml:space="preserve" text-anchor="middle" x="519.18" y="-239.32" font-family="Verdana" font-size="14.00">(*MemoryObserver).GetAverageCost</text>
</a>
</g>
</g>
<!-- (*github.com/guild&#45;framework/guild&#45;core/pkg/mcp/cost.MemoryObserver).GetAverageCost&#45;&gt;(*github.com/guild&#45;framework/guild&#45;core/pkg/mcp/cost.MemoryObserver).GetCosts -->
<g id="edge4" class="edge">
<title>(*github.com/guild&#45;framework/guild&#45;core/pkg/mcp/cost.MemoryObserver).GetAverageCost&#45;&gt;(*github.com/guild&#45;framework/guild&#45;core/pkg/mcp/cost.MemoryObserver).GetCosts</title>
<g id="a_edge4"><a xlink:title="at observer.go:150: calling [(*github.com/guild&#45;framework/guild&#45;core/pkg/mcp/cost.MemoryObserver).GetCosts]">
<path fill="none" stroke="black" d="M660.75,-227.01C674.2,-223.47 687.43,-219.18 699.83,-214 763.43,-187.43 826.01,-135.67 860.56,-104.23"/>
<polygon fill="black" stroke="black" points="862.63,-107.08 867.61,-97.73 857.89,-101.94 862.63,-107.08"/>
</a>
</g>
</g>
</g>
</svg>
