<?xml version="1.0" encoding="UTF-8" standalone="no"?>
<!DOCTYPE svg PUBLIC "-//W3C//DTD SVG 1.1//EN"
 "http://www.w3.org/Graphics/SVG/1.1/DTD/svg11.dtd">
<!-- Generated by graphviz version 14.1.1 (20251213.1925)
 -->
<!-- Title: gocallvis Pages: 1 -->
<svg width="1176pt" height="456pt"
 viewBox="0.00 0.00 1176.00 456.00" xmlns="http://www.w3.org/2000/svg" xmlns:xlink="http://www.w3.org/1999/xlink">
<g id="graph0" class="graph" transform="scale(1 1) rotate(0) translate(0 456)">
<title>gocallvis</title>
<polygon fill="lightgray" stroke="none" points="0,0 0,-456 1175.62,-456 1175.62,0 0,0"/>
<g id="clust1" class="cluster">
<title>cluster_focus</title>
<polygon fill="#e6ecfa" stroke="black" stroke-width="0.5" points="8,-8 8,-448 1167.62,-448 1167.62,-8 8,-8"/>
<text xml:space="preserve" text-anchor="middle" x="587.81" y="-426.9" font-family="Arial" font-size="18.00">promptchain</text>
</g>
<g id="clust2" class="cluster">
<title>cluster_github.com/guild&#45;framework/guild&#45;core/pkg/gerror</title>
<g id="a_clust2"><a xlink:href="/?f=github.com/guild-framework/guild-core/pkg/gerror" xlink:title="package: github.com/guild&#45;framework/guild&#45;core/pkg/gerror">
<polygon fill="lightyellow" stroke="black" stroke-width="0.8" points="920.08,-151 920.08,-292 995.87,-292 995.87,-151 920.08,-151"/>
<text xml:space="preserve" text-anchor="middle" x="957.98" y="-272.8" font-family="Tahoma bold" font-size="16.00">gerror</text>
</a>
</g>
</g>
<!-- (*github.com/guild&#45;framework/guild&#45;core/pkg/storage/promptchain.sqliteChainManager).AddMessage -->
<g id="node1" class="node">
<title>(*github.com/guild&#45;framework/guild&#45;core/pkg/storage/promptchain.sqliteChainManager).AddMessage</title>
<g id="a_node1"><a xlink:title="(*github.com/guild&#45;framework/guild&#45;core/pkg/storage/promptchain.sqliteChainManager).AddMessage | defined in sqlite_chain_manager.go:74&#10;at sqlite_chain_manager.go:76: calling [github.com/guild&#45;framework/guild&#45;core/pkg/gerror.New]&#10;at sqlite_chain_manager.go:80: calling [github.com/guild&#45;framework/guild&#45;core/pkg/gerror.New]&#10;at sqlite_chain_manager.go:84: calling [github.com/guild&#45;framework/guild&#45;core/pkg/gerror.New]&#10;at sqlite_chain_manager.go:108: calling [github.com/guild&#45;framework/guild&#45;core/pkg/gerror.Wrap]">
<path fill="lightblue" stroke="black" stroke-width="1.5" d="M650.33,-323C650.33,-323 398.54,-323 398.54,-323 392.54,-323 386.54,-317 386.54,-311 386.54,-311 386.54,-299 386.54,-299 386.54,-293 392.54,-287 398.54,-287 398.54,-287 650.33,-287 650.33,-287 656.33,-287 662.33,-293 662.33,-299 662.33,-299 662.33,-311 662.33,-311 662.33,-317 656.33,-323 650.33,-323"/>
<text xml:space="preserve" text-anchor="middle" x="524.44" y="-300.32" font-family="Verdana" font-size="14.00">(*sqliteChainManager).AddMessage</text>
</a>
</g>
</g>
<!-- github.com/guild&#45;framework/guild&#45;core/pkg/gerror.New -->
<g id="node9" class="node">
<title>github.com/guild&#45;framework/guild&#45;core/pkg/gerror.New</title>
<g id="a_node9"><a xlink:title="github.com/guild&#45;framework/guild&#45;core/pkg/gerror.New | defined in errors.go:190">
<path fill="moccasin" stroke="black" stroke-width="1.5" d="M972.98,-195C972.98,-195 942.98,-195 942.98,-195 936.98,-195 930.98,-189 930.98,-183 930.98,-183 930.98,-171 930.98,-171 930.98,-165 936.98,-159 942.98,-159 942.98,-159 972.98,-159 972.98,-159 978.98,-159 984.98,-165 984.98,-171 984.98,-171 984.98,-183 984.98,-183 984.98,-189 978.98,-195 972.98,-195"/>
<text xml:space="preserve" text-anchor="middle" x="957.98" y="-172.32" font-family="Verdana" font-size="14.00">New</text>
</a>
</g>
</g>
<!-- (*github.com/guild&#45;framework/guild&#45;core/pkg/storage/promptchain.sqliteChainManager).AddMessage&#45;&gt;github.com/guild&#45;framework/guild&#45;core/pkg/gerror.New -->
<g id="edge1" class="edge">
<title>(*github.com/guild&#45;framework/guild&#45;core/pkg/storage/promptchain.sqliteChainManager).AddMessage&#45;&gt;github.com/guild&#45;framework/guild&#45;core/pkg/gerror.New</title>
<g id="a_edge1"><a xlink:title="at sqlite_chain_manager.go:76: calling [github.com/guild&#45;framework/guild&#45;core/pkg/gerror.New]&#10;at sqlite_chain_manager.go:80: calling [github.com/guild&#45;framework/guild&#45;core/pkg/gerror.New]&#10;at sqlite_chain_manager.go:84: calling [github.com/guild&#45;framework/guild&#45;core/pkg/gerror.New]">
<path fill="none" stroke="saddlebrown" d="M655.77,-286.32C665.31,-283.12 674.6,-279.38 683.33,-275 722.69,-255.25 716.64,-227.07 756.33,-208 808.92,-182.73 877.4,-177.18 919.23,-176.41"/>
<polygon fill="saddlebrown" stroke="saddlebrown" points="919.06,-179.91 929.02,-176.32 918.99,-172.91 919.06,-179.91"/>
</a>
</g>
</g>
<!-- github.com/guild&#45;framework/guild&#45;core/pkg/gerror.Wrap -->
<g id="node10" class="node">
<title>github.com/guild&#45;framework/guild&#45;core/pkg/gerror.Wrap</title>
<g id="a_node10"><a xlink:title="github.com/guild&#45;framework/guild&#45;core/pkg/gerror.Wrap | defined in errors.go:223">
<path fill="moccasin" stroke="black" stroke-width="1.5" d="M975.87,-256C975.87,-256 940.08,-256 940.08,-256 934.08,-256 928.08,-250 928.08,-244 928.08,-244 928.08,-232 928.08,-232 928.08,-226 934.08,-220 940.08,-220 940.08,-220 975.87,-220 975.87,-220 981.87,-220 987.87,-226 987.87,-232 987.87,-232 987.87,-244 987.87,-244 987.87,-250 981.87,-256 975.87,-256"/>
<text xml:space="preserve" text-anchor="middle" x="957.98" y="-233.32" font-family="Verdana" font-size="14.00">Wrap</text>
</a>
</g>
</g>
<!-- (*github.com/guild&#45;framework/guild&#45;core/pkg/storage/promptchain.sqliteChainManager).AddMessage&#45;&gt;github.com/guild&#45;framework/guild&#45;core/pkg/gerror.Wrap -->
<g id="edge2" class="edge">
<title>(*github.com/guild&#45;framework/guild&#45;core/pkg/storage/promptchain.sqliteChainManager).AddMessage&#45;&gt;github.com/guild&#45;framework/guild&#45;core/pkg/gerror.Wrap</title>
<g id="a_edge2"><a xlink:title="at sqlite_chain_manager.go:108: calling [github.com/guild&#45;framework/guild&#45;core/pkg/gerror.Wrap]">
<path fill="none" stroke="saddlebrown" d="M662.9,-296.33C682.48,-292.93 702.14,-288.29 720.33,-282 738.05,-275.87 738.58,-266.06 756.33,-260 809.57,-241.83 874.94,-237.8 916.29,-237.32"/>
<polygon fill="saddlebrown" stroke="saddlebrown" points="916.04,-240.82 926.03,-237.27 916.01,-233.82 916.04,-240.82"/>
</a>
</g>
</g>
<!-- (*github.com/guild&#45;framework/guild&#45;core/pkg/storage/promptchain.sqliteChainManager).DeleteChain -->
<g id="node2" class="node">
<title>(*github.com/guild&#45;framework/guild&#45;core/pkg/storage/promptchain.sqliteChainManager).DeleteChain</title>
<g id="a_node2"><a xlink:title="(*github.com/guild&#45;framework/guild&#45;core/pkg/storage/promptchain.sqliteChainManager).DeleteChain | defined in sqlite_chain_manager.go:262&#10;at sqlite_chain_manager.go:264: calling [github.com/guild&#45;framework/guild&#45;core/pkg/gerror.New]&#10;at sqlite_chain_manager.go:269: calling [github.com/guild&#45;framework/guild&#45;core/pkg/gerror.Wrap]">
<path fill="lightblue" stroke="black" stroke-width="1.5" d="M648.08,-201C648.08,-201 400.79,-201 400.79,-201 394.79,-201 388.79,-195 388.79,-189 388.79,-189 388.79,-177 388.79,-177 388.79,-171 394.79,-165 400.79,-165 400.79,-165 648.08,-165 648.08,-165 654.08,-165 660.08,-171 660.08,-177 660.08,-177 660.08,-189 660.08,-189 660.08,-195 654.08,-201 648.08,-201"/>
<text xml:space="preserve" text-anchor="middle" x="524.44" y="-178.32" font-family="Verdana" font-size="14.00">(*sqliteChainManager).DeleteChain</text>
</a>
</g>
</g>
<!-- (*github.com/guild&#45;framework/guild&#45;core/pkg/storage/promptchain.sqliteChainManager).DeleteChain&#45;&gt;github.com/guild&#45;framework/guild&#45;core/pkg/gerror.New -->
<g id="edge3" class="edge">
<title>(*github.com/guild&#45;framework/guild&#45;core/pkg/storage/promptchain.sqliteChainManager).DeleteChain&#45;&gt;github.com/guild&#45;framework/guild&#45;core/pkg/gerror.New</title>
<g id="a_edge3"><a xlink:title="at sqlite_chain_manager.go:264: calling [github.com/guild&#45;framework/guild&#45;core/pkg/gerror.New]">
<path fill="none" stroke="saddlebrown" d="M660.79,-181.12C750.56,-179.87 862,-178.32 919.2,-177.53"/>
<polygon fill="saddlebrown" stroke="saddlebrown" points="919.09,-181.03 929.04,-177.39 918.99,-174.03 919.09,-181.03"/>
</a>
</g>
</g>
<!-- (*github.com/guild&#45;framework/guild&#45;core/pkg/storage/promptchain.sqliteChainManager).DeleteChain&#45;&gt;github.com/guild&#45;framework/guild&#45;core/pkg/gerror.Wrap -->
<g id="edge9" class="edge">
<title>(*github.com/guild&#45;framework/guild&#45;core/pkg/storage/promptchain.sqliteChainManager).DeleteChain&#45;&gt;github.com/guild&#45;framework/guild&#45;core/pkg/gerror.Wrap</title>
<g id="a_edge9"><a xlink:title="at sqlite_chain_manager.go:269: calling [github.com/guild&#45;framework/guild&#45;core/pkg/gerror.Wrap]">
<path fill="none" stroke="saddlebrown" d="M660.79,-200.25C749.13,-211.51 858.45,-225.44 916.42,-232.83"/>
<polygon fill="saddlebrown" stroke="saddlebrown" points="915.79,-236.28 926.15,-234.07 916.67,-229.33 915.79,-236.28"/>
</a>
</g>
</g>
<!-- (*github.com/guild&#45;framework/guild&#45;core/pkg/storage/promptchain.sqliteChainManager).GetChainsByAgent -->
<g id="node3" class="node">
<title>(*github.com/guild&#45;framework/guild&#45;core/pkg/storage/promptchain.sqliteChainManager).GetChainsByAgent</title>
<g id="a_node3"><a xlink:title="(*github.com/guild&#45;framework/guild&#45;core/pkg/storage/promptchain.sqliteChainManager).GetChainsByAgent | defined in sqlite_chain_manager.go:115&#10;at sqlite_chain_manager.go:122: calling [github.com/guild&#45;framework/guild&#45;core/pkg/gerror.Wrap]&#10;at sqlite_chain_manager.go:117: calling [github.com/guild&#45;framework/guild&#45;core/pkg/gerror.New]">
<path fill="lightblue" stroke="black" stroke-width="1.5" d="M671.33,-79C671.33,-79 377.54,-79 377.54,-79 371.54,-79 365.54,-73 365.54,-67 365.54,-67 365.54,-55 365.54,-55 365.54,-49 371.54,-43 377.54,-43 377.54,-43 671.33,-43 671.33,-43 677.33,-43 683.33,-49 683.33,-55 683.33,-55 683.33,-67 683.33,-67 683.33,-73 677.33,-79 671.33,-79"/>
<text xml:space="preserve" text-anchor="middle" x="524.44" y="-56.33" font-family="Verdana" font-size="14.00">(*sqliteChainManager).GetChainsByAgent</text>
</a>
</g>
</g>
<!-- (*github.com/guild&#45;framework/guild&#45;core/pkg/storage/promptchain.sqliteChainManager).GetChainsByAgent&#45;&gt;github.com/guild&#45;framework/guild&#45;core/pkg/gerror.New -->
<g id="edge10" class="edge">
<title>(*github.com/guild&#45;framework/guild&#45;core/pkg/storage/promptchain.sqliteChainManager).GetChainsByAgent&#45;&gt;github.com/guild&#45;framework/guild&#45;core/pkg/gerror.New</title>
<g id="a_edge10"><a xlink:title="at sqlite_chain_manager.go:117: calling [github.com/guild&#45;framework/guild&#45;core/pkg/gerror.New]">
<path fill="none" stroke="saddlebrown" d="M684.06,-71.61C696.41,-73.67 708.62,-76.1 720.33,-79 794.06,-97.23 874.75,-134.76 920.29,-157.72"/>
<polygon fill="saddlebrown" stroke="saddlebrown" points="918.7,-160.84 929.2,-162.26 921.88,-154.6 918.7,-160.84"/>
</a>
</g>
</g>
<!-- (*github.com/guild&#45;framework/guild&#45;core/pkg/storage/promptchain.sqliteChainManager).GetChainsByAgent&#45;&gt;github.com/guild&#45;framework/guild&#45;core/pkg/gerror.Wrap -->
<g id="edge4" class="edge">
<title>(*github.com/guild&#45;framework/guild&#45;core/pkg/storage/promptchain.sqliteChainManager).GetChainsByAgent&#45;&gt;github.com/guild&#45;framework/guild&#45;core/pkg/gerror.Wrap</title>
<g id="a_edge4"><a xlink:title="at sqlite_chain_manager.go:122: calling [github.com/guild&#45;framework/guild&#45;core/pkg/gerror.Wrap]">
<path fill="none" stroke="saddlebrown" d="M661.18,-79.73C668.96,-83.2 676.42,-87.26 683.33,-92 733.55,-126.47 705.34,-174.68 756.33,-208 804.44,-239.43 872.73,-242.99 915.93,-241.43"/>
<polygon fill="saddlebrown" stroke="saddlebrown" points="916.08,-244.92 925.9,-240.94 915.74,-237.93 916.08,-244.92"/>
</a>
</g>
</g>
<!-- (*github.com/guild&#45;framework/guild&#45;core/pkg/storage/promptchain.sqliteChainManager).GetChain -->
<g id="node4" class="node">
<title>(*github.com/guild&#45;framework/guild&#45;core/pkg/storage/promptchain.sqliteChainManager).GetChain</title>
<g id="a_node4"><a xlink:title="(*github.com/guild&#45;framework/guild&#45;core/pkg/storage/promptchain.sqliteChainManager).GetChain | defined in sqlite_chain_manager.go:60&#10;at sqlite_chain_manager.go:62: calling [github.com/guild&#45;framework/guild&#45;core/pkg/gerror.New]&#10;at sqlite_chain_manager.go:67: calling [github.com/guild&#45;framework/guild&#45;core/pkg/gerror.Wrap]&#10;at sqlite_chain_manager.go:70: calling [(*github.com/guild&#45;framework/guild&#45;core/pkg/storage/promptchain.sqliteChainManager).convertStorageChainToDomain]">
<path fill="lightblue" stroke="black" stroke-width="1.5" d="M637.96,-384C637.96,-384 410.92,-384 410.92,-384 404.92,-384 398.92,-378 398.92,-372 398.92,-372 398.92,-360 398.92,-360 398.92,-354 404.92,-348 410.92,-348 410.92,-348 637.96,-348 637.96,-348 643.96,-348 649.96,-354 649.96,-360 649.96,-360 649.96,-372 649.96,-372 649.96,-378 643.96,-384 637.96,-384"/>
<text xml:space="preserve" text-anchor="middle" x="524.44" y="-361.32" font-family="Verdana" font-size="14.00">(*sqliteChainManager).GetChain</text>
</a>
</g>
</g>
<!-- (*github.com/guild&#45;framework/guild&#45;core/pkg/storage/promptchain.sqliteChainManager).convertStorageChainToDomain -->
<g id="node5" class="node">
<title>(*github.com/guild&#45;framework/guild&#45;core/pkg/storage/promptchain.sqliteChainManager).convertStorageChainToDomain</title>
<g id="a_node5"><a xlink:title="(*github.com/guild&#45;framework/guild&#45;core/pkg/storage/promptchain.sqliteChainManager).convertStorageChainToDomain | defined in sqlite_chain_manager.go:276">
<path fill="lightblue" stroke="black" stroke-width="0.5" d="M1147.62,-401C1147.62,-401 768.33,-401 768.33,-401 762.33,-401 756.33,-395 756.33,-389 756.33,-389 756.33,-377 756.33,-377 756.33,-371 762.33,-365 768.33,-365 768.33,-365 1147.62,-365 1147.62,-365 1153.62,-365 1159.62,-371 1159.62,-377 1159.62,-377 1159.62,-389 1159.62,-389 1159.62,-395 1153.62,-401 1147.62,-401"/>
<text xml:space="preserve" text-anchor="middle" x="957.98" y="-378.32" font-family="Verdana" font-size="14.00">(*sqliteChainManager).convertStorageChainToDomain</text>
</a>
</g>
</g>
<!-- (*github.com/guild&#45;framework/guild&#45;core/pkg/storage/promptchain.sqliteChainManager).GetChain&#45;&gt;(*github.com/guild&#45;framework/guild&#45;core/pkg/storage/promptchain.sqliteChainManager).convertStorageChainToDomain -->
<g id="edge14" class="edge">
<title>(*github.com/guild&#45;framework/guild&#45;core/pkg/storage/promptchain.sqliteChainManager).GetChain&#45;&gt;(*github.com/guild&#45;framework/guild&#45;core/pkg/storage/promptchain.sqliteChainManager).convertStorageChainToDomain</title>
<g id="a_edge14"><a xlink:title="at sqlite_chain_manager.go:70: calling [(*github.com/guild&#45;framework/guild&#45;core/pkg/storage/promptchain.sqliteChainManager).convertStorageChainToDomain]">
<path fill="none" stroke="black" d="M650.54,-370.93C680.16,-372.1 712.55,-373.37 744.84,-374.64"/>
<polygon fill="black" stroke="black" points="744.61,-378.14 754.74,-375.03 744.88,-371.14 744.61,-378.14"/>
</a>
</g>
</g>
<!-- (*github.com/guild&#45;framework/guild&#45;core/pkg/storage/promptchain.sqliteChainManager).GetChain&#45;&gt;github.com/guild&#45;framework/guild&#45;core/pkg/gerror.New -->
<g id="edge6" class="edge">
<title>(*github.com/guild&#45;framework/guild&#45;core/pkg/storage/promptchain.sqliteChainManager).GetChain&#45;&gt;github.com/guild&#45;framework/guild&#45;core/pkg/gerror.New</title>
<g id="a_edge6"><a xlink:title="at sqlite_chain_manager.go:62: calling [github.com/guild&#45;framework/guild&#45;core/pkg/gerror.New]">
<path fill="none" stroke="saddlebrown" d="M650.38,-353.03C662.12,-348.7 673.34,-343.13 683.33,-336 736.63,-297.94 702.39,-245.13 756.33,-208 804.9,-174.57 875.66,-171.59 918.88,-173.54"/>
<polygon fill="saddlebrown" stroke="saddlebrown" points="918.6,-177.03 928.78,-174.12 919,-170.04 918.6,-177.03"/>
</a>
</g>
</g>
<!-- (*github.com/guild&#45;framework/guild&#45;core/pkg/storage/promptchain.sqliteChainManager).GetChain&#45;&gt;github.com/guild&#45;framework/guild&#45;core/pkg/gerror.Wrap -->
<g id="edge11" class="edge">
<title>(*github.com/guild&#45;framework/guild&#45;core/pkg/storage/promptchain.sqliteChainManager).GetChain&#45;&gt;github.com/guild&#45;framework/guild&#45;core/pkg/gerror.Wrap</title>
<g id="a_edge11"><a xlink:title="at sqlite_chain_manager.go:67: calling [github.com/guild&#45;framework/guild&#45;core/pkg/gerror.Wrap]">
<path fill="none" stroke="saddlebrown" d="M650.6,-364.93C675.5,-359.91 700.16,-351.04 720.33,-336 750.3,-313.66 725.89,-281.68 756.33,-260 803.26,-226.58 872.68,-227.01 916.34,-231.6"/>
<polygon fill="saddlebrown" stroke="saddlebrown" points="915.81,-235.06 926.15,-232.77 916.64,-228.11 915.81,-235.06"/>
</a>
</g>
</g>
<!-- (*github.com/guild&#45;framework/guild&#45;core/pkg/storage/promptchain.sqliteChainManager).CreateChain -->
<g id="node6" class="node">
<title>(*github.com/guild&#45;framework/guild&#45;core/pkg/storage/promptchain.sqliteChainManager).CreateChain</title>
<g id="a_node6"><a xlink:title="(*github.com/guild&#45;framework/guild&#45;core/pkg/storage/promptchain.sqliteChainManager).CreateChain | defined in sqlite_chain_manager.go:30&#10;at sqlite_chain_manager.go:32: calling [github.com/guild&#45;framework/guild&#45;core/pkg/gerror.New]&#10;at sqlite_chain_manager.go:53: calling [github.com/guild&#45;framework/guild&#45;core/pkg/gerror.Wrap]">
<path fill="lightblue" stroke="black" stroke-width="1.5" d="M648.83,-262C648.83,-262 400.04,-262 400.04,-262 394.04,-262 388.04,-256 388.04,-250 388.04,-250 388.04,-238 388.04,-238 388.04,-232 394.04,-226 400.04,-226 400.04,-226 648.83,-226 648.83,-226 654.83,-226 660.83,-232 660.83,-238 660.83,-238 660.83,-250 660.83,-250 660.83,-256 654.83,-262 648.83,-262"/>
<text xml:space="preserve" text-anchor="middle" x="524.44" y="-239.32" font-family="Verdana" font-size="14.00">(*sqliteChainManager).CreateChain</text>
</a>
</g>
</g>
<!-- (*github.com/guild&#45;framework/guild&#45;core/pkg/storage/promptchain.sqliteChainManager).CreateChain&#45;&gt;github.com/guild&#45;framework/guild&#45;core/pkg/gerror.New -->
<g id="edge15" class="edge">
<title>(*github.com/guild&#45;framework/guild&#45;core/pkg/storage/promptchain.sqliteChainManager).CreateChain&#45;&gt;github.com/guild&#45;framework/guild&#45;core/pkg/gerror.New</title>
<g id="a_edge15"><a xlink:title="at sqlite_chain_manager.go:32: calling [github.com/guild&#45;framework/guild&#45;core/pkg/gerror.New]">
<path fill="none" stroke="saddlebrown" d="M645.27,-225.28C681,-219.71 720.25,-213.6 756.33,-208 813.08,-199.19 878.86,-189.04 919.19,-182.82"/>
<polygon fill="saddlebrown" stroke="saddlebrown" points="919.51,-186.31 928.86,-181.33 918.45,-179.4 919.51,-186.31"/>
</a>
</g>
</g>
<!-- (*github.com/guild&#45;framework/guild&#45;core/pkg/storage/promptchain.sqliteChainManager).CreateChain&#45;&gt;github.com/guild&#45;framework/guild&#45;core/pkg/gerror.Wrap -->
<g id="edge16" class="edge">
<title>(*github.com/guild&#45;framework/guild&#45;core/pkg/storage/promptchain.sqliteChainManager).CreateChain&#45;&gt;github.com/guild&#45;framework/guild&#45;core/pkg/gerror.Wrap</title>
<g id="a_edge16"><a xlink:title="at sqlite_chain_manager.go:53: calling [github.com/guild&#45;framework/guild&#45;core/pkg/gerror.Wrap]">
<path fill="none" stroke="saddlebrown" d="M661.38,-242.11C749.68,-240.88 858.73,-239.37 916.54,-238.56"/>
<polygon fill="saddlebrown" stroke="saddlebrown" points="916.27,-242.07 926.22,-238.43 916.17,-235.07 916.27,-242.07"/>
</a>
</g>
</g>
<!-- (*github.com/guild&#45;framework/guild&#45;core/pkg/storage/promptchain.sqliteChainManager).GetChainsByTask -->
<g id="node7" class="node">
<title>(*github.com/guild&#45;framework/guild&#45;core/pkg/storage/promptchain.sqliteChainManager).GetChainsByTask</title>
<g id="a_node7"><a xlink:title="(*github.com/guild&#45;framework/guild&#45;core/pkg/storage/promptchain.sqliteChainManager).GetChainsByTask | defined in sqlite_chain_manager.go:148&#10;at sqlite_chain_manager.go:150: calling [github.com/guild&#45;framework/guild&#45;core/pkg/gerror.New]&#10;at sqlite_chain_manager.go:155: calling [github.com/guild&#45;framework/guild&#45;core/pkg/gerror.Wrap]">
<path fill="lightblue" stroke="black" stroke-width="1.5" d="M666.08,-140C666.08,-140 382.79,-140 382.79,-140 376.79,-140 370.79,-134 370.79,-128 370.79,-128 370.79,-116 370.79,-116 370.79,-110 376.79,-104 382.79,-104 382.79,-104 666.08,-104 666.08,-104 672.08,-104 678.08,-110 678.08,-116 678.08,-116 678.08,-128 678.08,-128 678.08,-134 672.08,-140 666.08,-140"/>
<text xml:space="preserve" text-anchor="middle" x="524.44" y="-117.33" font-family="Verdana" font-size="14.00">(*sqliteChainManager).GetChainsByTask</text>
</a>
</g>
</g>
<!-- (*github.com/guild&#45;framework/guild&#45;core/pkg/storage/promptchain.sqliteChainManager).GetChainsByTask&#45;&gt;github.com/guild&#45;framework/guild&#45;core/pkg/gerror.New -->
<g id="edge5" class="edge">
<title>(*github.com/guild&#45;framework/guild&#45;core/pkg/storage/promptchain.sqliteChainManager).GetChainsByTask&#45;&gt;github.com/guild&#45;framework/guild&#45;core/pkg/gerror.New</title>
<g id="a_edge5"><a xlink:title="at sqlite_chain_manager.go:150: calling [github.com/guild&#45;framework/guild&#45;core/pkg/gerror.New]">
<path fill="none" stroke="saddlebrown" d="M678.8,-128.81C692.86,-129.99 706.87,-131.38 720.33,-133 791.28,-141.56 873.04,-158.32 919.5,-168.5"/>
<polygon fill="saddlebrown" stroke="saddlebrown" points="918.53,-171.87 929.05,-170.61 920.04,-165.04 918.53,-171.87"/>
</a>
</g>
</g>
<!-- (*github.com/guild&#45;framework/guild&#45;core/pkg/storage/promptchain.sqliteChainManager).GetChainsByTask&#45;&gt;github.com/guild&#45;framework/guild&#45;core/pkg/gerror.Wrap -->
<g id="edge17" class="edge">
<title>(*github.com/guild&#45;framework/guild&#45;core/pkg/storage/promptchain.sqliteChainManager).GetChainsByTask&#45;&gt;github.com/guild&#45;framework/guild&#45;core/pkg/gerror.Wrap</title>
<g id="a_edge17"><a xlink:title="at sqlite_chain_manager.go:155: calling [github.com/guild&#45;framework/guild&#45;core/pkg/gerror.Wrap]">
<path fill="none" stroke="saddlebrown" d="M649.51,-140.75C661.17,-144.17 672.62,-148.22 683.33,-153 720.43,-169.56 718.87,-192.29 756.33,-208 808.62,-229.93 874.49,-236.14 916.18,-237.73"/>
<polygon fill="saddlebrown" stroke="saddlebrown" points="915.92,-241.22 926.02,-238.03 916.13,-234.23 915.92,-241.22"/>
</a>
</g>
</g>
<!-- (*github.com/guild&#45;framework/guild&#45;core/pkg/storage/promptchain.sqliteChainManager).BuildContext -->
<g id="node8" class="node">
<title>(*github.com/guild&#45;framework/guild&#45;core/pkg/storage/promptchain.sqliteChainManager).BuildContext</title>
<g id="a_node8"><a xlink:title="(*github.com/guild&#45;framework/guild&#45;core/pkg/storage/promptchain.sqliteChainManager).BuildContext | defined in sqlite_chain_manager.go:181&#10;at sqlite_chain_manager.go:194: calling [github.com/guild&#45;framework/guild&#45;core/pkg/gerror.Wrap]&#10;at sqlite_chain_manager.go:200: calling [github.com/guild&#45;framework/guild&#45;core/pkg/gerror.Wrap]&#10;at sqlite_chain_manager.go:209: calling [(*github.com/guild&#45;framework/guild&#45;core/pkg/storage/promptchain.sqliteChainManager).GetChain]&#10;at sqlite_chain_manager.go:192: calling [(*github.com/guild&#45;framework/guild&#45;core/pkg/storage/promptchain.sqliteChainManager).GetChainsByTask]&#10;at sqlite_chain_manager.go:198: calling [(*github.com/guild&#45;framework/guild&#45;core/pkg/storage/promptchain.sqliteChainManager).GetChainsByAgent]&#10;at sqlite_chain_manager.go:183: calling [github.com/guild&#45;framework/guild&#45;core/pkg/gerror.New]">
<path fill="lightblue" stroke="black" stroke-width="1.5" d="M280.54,-140C280.54,-140 28,-140 28,-140 22,-140 16,-134 16,-128 16,-128 16,-116 16,-116 16,-110 22,-104 28,-104 28,-104 280.54,-104 280.54,-104 286.54,-104 292.54,-110 292.54,-116 292.54,-116 292.54,-128 292.54,-128 292.54,-134 286.54,-140 280.54,-140"/>
<text xml:space="preserve" text-anchor="middle" x="154.27" y="-117.33" font-family="Verdana" font-size="14.00">(*sqliteChainManager).BuildContext</text>
</a>
</g>
</g>
<!-- (*github.com/guild&#45;framework/guild&#45;core/pkg/storage/promptchain.sqliteChainManager).BuildContext&#45;&gt;(*github.com/guild&#45;framework/guild&#45;core/pkg/storage/promptchain.sqliteChainManager).GetChainsByAgent -->
<g id="edge13" class="edge">
<title>(*github.com/guild&#45;framework/guild&#45;core/pkg/storage/promptchain.sqliteChainManager).BuildContext&#45;&gt;(*github.com/guild&#45;framework/guild&#45;core/pkg/storage/promptchain.sqliteChainManager).GetChainsByAgent</title>
<g id="a_edge13"><a xlink:title="at sqlite_chain_manager.go:198: calling [(*github.com/guild&#45;framework/guild&#45;core/pkg/storage/promptchain.sqliteChainManager).GetChainsByAgent]">
<path fill="none" stroke="black" d="M268.23,-103.28C309.66,-96.42 356.77,-88.61 399.13,-81.6"/>
<polygon fill="black" stroke="black" points="399.58,-85.07 408.87,-79.98 398.44,-78.16 399.58,-85.07"/>
</a>
</g>
</g>
<!-- (*github.com/guild&#45;framework/guild&#45;core/pkg/storage/promptchain.sqliteChainManager).BuildContext&#45;&gt;(*github.com/guild&#45;framework/guild&#45;core/pkg/storage/promptchain.sqliteChainManager).GetChain -->
<g id="edge8" class="edge">
<title>(*github.com/guild&#45;framework/guild&#45;core/pkg/storage/promptchain.sqliteChainManager).BuildContext&#45;&gt;(*github.com/guild&#45;framework/guild&#45;core/pkg/storage/promptchain.sqliteChainManager).GetChain</title>
<g id="a_edge8"><a xlink:title="at sqlite_chain_manager.go:209: calling [(*github.com/guild&#45;framework/guild&#45;core/pkg/storage/promptchain.sqliteChainManager).GetChain]">
<path fill="none" stroke="black" d="M167.43,-140.55C196.24,-182.87 273.21,-286.64 365.54,-336 372.65,-339.8 380.16,-343.12 387.89,-346.03"/>
<polygon fill="black" stroke="black" points="386.54,-349.26 397.13,-349.24 388.84,-342.65 386.54,-349.26"/>
</a>
</g>
</g>
<!-- (*github.com/guild&#45;framework/guild&#45;core/pkg/storage/promptchain.sqliteChainManager).BuildContext&#45;&gt;(*github.com/guild&#45;framework/guild&#45;core/pkg/storage/promptchain.sqliteChainManager).GetChainsByTask -->
<g id="edge12" class="edge">
<title>(*github.com/guild&#45;framework/guild&#45;core/pkg/storage/promptchain.sqliteChainManager).BuildContext&#45;&gt;(*github.com/guild&#45;framework/guild&#45;core/pkg/storage/promptchain.sqliteChainManager).GetChainsByTask</title>
<g id="a_edge12"><a xlink:title="at sqlite_chain_manager.go:192: calling [(*github.com/guild&#45;framework/guild&#45;core/pkg/storage/promptchain.sqliteChainManager).GetChainsByTask]">
<path fill="none" stroke="black" d="M293.15,-122C314.53,-122 336.8,-122 358.7,-122"/>
<polygon fill="black" stroke="black" points="358.6,-125.5 368.6,-122 358.6,-118.5 358.6,-125.5"/>
</a>
</g>
</g>
<!-- (*github.com/guild&#45;framework/guild&#45;core/pkg/storage/promptchain.sqliteChainManager).BuildContext&#45;&gt;github.com/guild&#45;framework/guild&#45;core/pkg/gerror.New -->
<g id="edge18" class="edge">
<title>(*github.com/guild&#45;framework/guild&#45;core/pkg/storage/promptchain.sqliteChainManager).BuildContext&#45;&gt;github.com/guild&#45;framework/guild&#45;core/pkg/gerror.New</title>
<g id="a_edge18"><a xlink:title="at sqlite_chain_manager.go:183: calling [github.com/guild&#45;framework/guild&#45;core/pkg/gerror.New]">
<path fill="none" stroke="saddlebrown" d="M187.04,-103.32C227.07,-80.97 298.74,-44.83 365.54,-31 503.84,-2.36 546.31,3.27 683.33,-31 776.87,-54.39 873.43,-116.49 923.03,-151.7"/>
<polygon fill="saddlebrown" stroke="saddlebrown" points="920.91,-154.49 931.08,-157.49 925,-148.81 920.91,-154.49"/>
</a>
</g>
</g>
<!-- (*github.com/guild&#45;framework/guild&#45;core/pkg/storage/promptchain.sqliteChainManager).BuildContext&#45;&gt;github.com/guild&#45;framework/guild&#45;core/pkg/gerror.Wrap -->
<g id="edge7" class="edge">
<title>(*github.com/guild&#45;framework/guild&#45;core/pkg/storage/promptchain.sqliteChainManager).BuildContext&#45;&gt;github.com/guild&#45;framework/guild&#45;core/pkg/gerror.Wrap</title>
<g id="a_edge7"><a xlink:title="at sqlite_chain_manager.go:194: calling [github.com/guild&#45;framework/guild&#45;core/pkg/gerror.Wrap]&#10;at sqlite_chain_manager.go:200: calling [github.com/guild&#45;framework/guild&#45;core/pkg/gerror.Wrap]">
<path fill="none" stroke="saddlebrown" d="M162.39,-140.4C183.71,-192.56 252.66,-341.22 365.54,-397 492.16,-459.58 558.38,-462.85 683.33,-397 709.07,-383.44 706.25,-368.46 720.33,-343 739.78,-307.81 723.97,-283.86 756.33,-260 802.7,-225.8 872.28,-226.46 916.12,-231.3"/>
<polygon fill="saddlebrown" stroke="saddlebrown" points="915.64,-234.77 925.99,-232.53 916.5,-227.82 915.64,-234.77"/>
</a>
</g>
</g>
</g>
</svg>
