<?xml version="1.0" encoding="UTF-8" standalone="no"?>
<!DOCTYPE svg PUBLIC "-//W3C//DTD SVG 1.1//EN"
 "http://www.w3.org/Graphics/SVG/1.1/DTD/svg11.dtd">
<!-- Generated by graphviz version 14.1.1 (20251213.1925)
 -->
<!-- Title: gocallvis Pages: 1 -->
<svg width="575pt" height="587pt"
 viewBox="0.00 0.00 575.00 587.00" xmlns="http://www.w3.org/2000/svg" xmlns:xlink="http://www.w3.org/1999/xlink">
<g id="graph0" class="graph" transform="scale(1 1) rotate(0) translate(0 587)">
<title>gocallvis</title>
<polygon fill="lightgray" stroke="none" points="0,0 0,-587 574.58,-587 574.58,0 0,0"/>
<g id="clust1" class="cluster">
<title>cluster_focus</title>
<polygon fill="#e6ecfa" stroke="black" stroke-width="0.5" points="8,-8 8,-579 566.58,-579 566.58,-8 8,-8"/>
<text xml:space="preserve" text-anchor="middle" x="287.29" y="-557.9" font-family="Arial" font-size="18.00">grpc</text>
</g>
<g id="clust2" class="cluster">
<title>cluster_github.com/guild&#45;framework/guild&#45;core/pkg/mcp/server</title>
<g id="a_clust2"><a xlink:href="/?f=github.com/guild-framework/guild-core/pkg/mcp/server" xlink:title="package: github.com/guild&#45;framework/guild&#45;core/pkg/mcp/server">
<polygon fill="lightyellow" stroke="black" stroke-width="0.8" points="327.54,-340 327.54,-542 558.58,-542 558.58,-340 327.54,-340"/>
<text xml:space="preserve" text-anchor="middle" x="443.06" y="-522.8" font-family="Tahoma bold" font-size="16.00">server</text>
</a>
</g>
</g>
<g id="clust3" class="cluster">
<title>cluster_github.com/guild&#45;framework/guild&#45;core/pkg/mcp/tools</title>
<g id="a_clust3"><a xlink:href="/?f=github.com/guild-framework/guild-core/pkg/mcp/tools" xlink:title="package: github.com/guild&#45;framework/guild&#45;core/pkg/mcp/tools">
<polygon fill="lightyellow" stroke="black" stroke-width="0.8" points="378.54,-16 378.54,-96 507.58,-96 507.58,-16 378.54,-16"/>
<text xml:space="preserve" text-anchor="middle" x="443.06" y="-76.8" font-family="Tahoma bold" font-size="16.00">tools</text>
</a>
</g>
</g>
<!-- (*github.com/guild&#45;framework/guild&#45;core/pkg/mcp/grpc.MCPService).ReportCost -->
<g id="node1" class="node">
<title>(*github.com/guild&#45;framework/guild&#45;core/pkg/mcp/grpc.MCPService).ReportCost</title>
<g id="a_node1"><a xlink:title="(*github.com/guild&#45;framework/guild&#45;core/pkg/mcp/grpc.MCPService).ReportCost | defined in service.go:196&#10;at service.go:214: calling [(*github.com/guild&#45;framework/guild&#45;core/pkg/mcp/server.Server).GetCostObserver]">
<path fill="lightblue" stroke="black" stroke-width="1.5" d="M231.41,-481C231.41,-481 47.12,-481 47.12,-481 41.12,-481 35.12,-475 35.12,-469 35.12,-469 35.12,-457 35.12,-457 35.12,-451 41.12,-445 47.12,-445 47.12,-445 231.41,-445 231.41,-445 237.41,-445 243.41,-451 243.41,-457 243.41,-457 243.41,-469 243.41,-469 243.41,-475 237.41,-481 231.41,-481"/>
<text xml:space="preserve" text-anchor="middle" x="139.27" y="-458.32" font-family="Verdana" font-size="14.00">(*MCPService).ReportCost</text>
</a>
</g>
</g>
<!-- (*github.com/guild&#45;framework/guild&#45;core/pkg/mcp/server.Server).GetCostObserver -->
<g id="node14" class="node">
<title>(*github.com/guild&#45;framework/guild&#45;core/pkg/mcp/server.Server).GetCostObserver</title>
<g id="a_node14"><a xlink:title="(*github.com/guild&#45;framework/guild&#45;core/pkg/mcp/server.Server).GetCostObserver | defined in server.go:841">
<path fill="moccasin" stroke="black" stroke-width="1.5" d="M538.58,-506C538.58,-506 347.54,-506 347.54,-506 341.54,-506 335.54,-500 335.54,-494 335.54,-494 335.54,-482 335.54,-482 335.54,-476 341.54,-470 347.54,-470 347.54,-470 538.58,-470 538.58,-470 544.58,-470 550.58,-476 550.58,-482 550.58,-482 550.58,-494 550.58,-494 550.58,-500 544.58,-506 538.58,-506"/>
<text xml:space="preserve" text-anchor="middle" x="443.06" y="-483.32" font-family="Verdana" font-size="14.00">(*Server).GetCostObserver</text>
</a>
</g>
</g>
<!-- (*github.com/guild&#45;framework/guild&#45;core/pkg/mcp/grpc.MCPService).ReportCost&#45;&gt;(*github.com/guild&#45;framework/guild&#45;core/pkg/mcp/server.Server).GetCostObserver -->
<g id="edge10" class="edge">
<title>(*github.com/guild&#45;framework/guild&#45;core/pkg/mcp/grpc.MCPService).ReportCost&#45;&gt;(*github.com/guild&#45;framework/guild&#45;core/pkg/mcp/server.Server).GetCostObserver</title>
<g id="a_edge10"><a xlink:title="at service.go:214: calling [(*github.com/guild&#45;framework/guild&#45;core/pkg/mcp/server.Server).GetCostObserver]">
<path fill="none" stroke="saddlebrown" d="M244.13,-471.6C269.79,-473.73 297.47,-476.02 323.76,-478.2"/>
<polygon fill="saddlebrown" stroke="saddlebrown" points="323.17,-481.66 333.42,-479 323.74,-474.69 323.17,-481.66"/>
</a>
</g>
</g>
<!-- (*github.com/guild&#45;framework/guild&#45;core/pkg/mcp/grpc.MCPService).RegisterTool -->
<g id="node2" class="node">
<title>(*github.com/guild&#45;framework/guild&#45;core/pkg/mcp/grpc.MCPService).RegisterTool</title>
<g id="a_node2"><a xlink:title="(*github.com/guild&#45;framework/guild&#45;core/pkg/mcp/grpc.MCPService).RegisterTool | defined in service.go:36&#10;at service.go:49: calling [github.com/guild&#45;framework/guild&#45;core/pkg/mcp/grpc.convertCostProfile]&#10;at service.go:63: calling [github.com/guild&#45;framework/guild&#45;core/pkg/mcp/tools.NewBaseTool]&#10;at service.go:76: calling [(*github.com/guild&#45;framework/guild&#45;core/pkg/mcp/server.Server).GetToolRegistry]&#10;at service.go:47: calling [github.com/guild&#45;framework/guild&#45;core/pkg/mcp/grpc.convertParameters]&#10;at service.go:48: calling [github.com/guild&#45;framework/guild&#45;core/pkg/mcp/grpc.convertParameters]">
<path fill="lightblue" stroke="black" stroke-width="1.5" d="M235.54,-54C235.54,-54 43,-54 43,-54 37,-54 31,-48 31,-42 31,-42 31,-30 31,-30 31,-24 37,-18 43,-18 43,-18 235.54,-18 235.54,-18 241.54,-18 247.54,-24 247.54,-30 247.54,-30 247.54,-42 247.54,-42 247.54,-48 241.54,-54 235.54,-54"/>
<text xml:space="preserve" text-anchor="middle" x="139.27" y="-31.32" font-family="Verdana" font-size="14.00">(*MCPService).RegisterTool</text>
</a>
</g>
</g>
<!-- github.com/guild&#45;framework/guild&#45;core/pkg/mcp/grpc.convertParameters -->
<g id="node3" class="node">
<title>github.com/guild&#45;framework/guild&#45;core/pkg/mcp/grpc.convertParameters</title>
<g id="a_node3"><a xlink:title="github.com/guild&#45;framework/guild&#45;core/pkg/mcp/grpc.convertParameters | defined in service.go:304">
<path fill="lightblue" stroke="black" stroke-width="0.5" d="M508.58,-140C508.58,-140 377.54,-140 377.54,-140 371.54,-140 365.54,-134 365.54,-128 365.54,-128 365.54,-116 365.54,-116 365.54,-110 371.54,-104 377.54,-104 377.54,-104 508.58,-104 508.58,-104 514.58,-104 520.58,-110 520.58,-116 520.58,-116 520.58,-128 520.58,-128 520.58,-134 514.58,-140 508.58,-140"/>
<text xml:space="preserve" text-anchor="middle" x="443.06" y="-117.33" font-family="Verdana" font-size="14.00">convertParameters</text>
</a>
</g>
</g>
<!-- (*github.com/guild&#45;framework/guild&#45;core/pkg/mcp/grpc.MCPService).RegisterTool&#45;&gt;github.com/guild&#45;framework/guild&#45;core/pkg/mcp/grpc.convertParameters -->
<g id="edge13" class="edge">
<title>(*github.com/guild&#45;framework/guild&#45;core/pkg/mcp/grpc.MCPService).RegisterTool&#45;&gt;github.com/guild&#45;framework/guild&#45;core/pkg/mcp/grpc.convertParameters</title>
<g id="a_edge13"><a xlink:title="at service.go:47: calling [github.com/guild&#45;framework/guild&#45;core/pkg/mcp/grpc.convertParameters]&#10;at service.go:48: calling [github.com/guild&#45;framework/guild&#45;core/pkg/mcp/grpc.convertParameters]">
<path fill="none" stroke="black" d="M224.23,-54.66C237.21,-58.3 250.34,-62.42 262.54,-67 292.87,-78.38 296.89,-89.51 327.54,-100 336.12,-102.94 345.2,-105.52 354.35,-107.78"/>
<polygon fill="black" stroke="black" points="353.5,-111.18 364.04,-110.04 355.09,-104.36 353.5,-111.18"/>
</a>
</g>
</g>
<!-- github.com/guild&#45;framework/guild&#45;core/pkg/mcp/grpc.convertCostProfile -->
<g id="node4" class="node">
<title>github.com/guild&#45;framework/guild&#45;core/pkg/mcp/grpc.convertCostProfile</title>
<g id="a_node4"><a xlink:title="github.com/guild&#45;framework/guild&#45;core/pkg/mcp/grpc.convertCostProfile | defined in service.go:341">
<path fill="lightblue" stroke="black" stroke-width="0.5" d="M505.95,-201C505.95,-201 380.16,-201 380.16,-201 374.16,-201 368.16,-195 368.16,-189 368.16,-189 368.16,-177 368.16,-177 368.16,-171 374.16,-165 380.16,-165 380.16,-165 505.95,-165 505.95,-165 511.95,-165 517.95,-171 517.95,-177 517.95,-177 517.95,-189 517.95,-189 517.95,-195 511.95,-201 505.95,-201"/>
<text xml:space="preserve" text-anchor="middle" x="443.06" y="-178.32" font-family="Verdana" font-size="14.00">convertCostProfile</text>
</a>
</g>
</g>
<!-- (*github.com/guild&#45;framework/guild&#45;core/pkg/mcp/grpc.MCPService).RegisterTool&#45;&gt;github.com/guild&#45;framework/guild&#45;core/pkg/mcp/grpc.convertCostProfile -->
<g id="edge1" class="edge">
<title>(*github.com/guild&#45;framework/guild&#45;core/pkg/mcp/grpc.MCPService).RegisterTool&#45;&gt;github.com/guild&#45;framework/guild&#45;core/pkg/mcp/grpc.convertCostProfile</title>
<g id="a_edge1"><a xlink:title="at service.go:49: calling [github.com/guild&#45;framework/guild&#45;core/pkg/mcp/grpc.convertCostProfile]">
<path fill="none" stroke="black" d="M238.93,-54.62C247.24,-58.07 255.24,-62.16 262.54,-67 302.46,-93.49 287.73,-126.35 327.54,-153 336.63,-159.09 346.9,-163.94 357.46,-167.81"/>
<polygon fill="black" stroke="black" points="356.05,-171.03 366.64,-170.88 358.27,-164.39 356.05,-171.03"/>
</a>
</g>
</g>
<!-- (*github.com/guild&#45;framework/guild&#45;core/pkg/mcp/server.Server).GetToolRegistry -->
<g id="node15" class="node">
<title>(*github.com/guild&#45;framework/guild&#45;core/pkg/mcp/server.Server).GetToolRegistry</title>
<g id="a_node15"><a xlink:title="(*github.com/guild&#45;framework/guild&#45;core/pkg/mcp/server.Server).GetToolRegistry | defined in server.go:836">
<path fill="moccasin" stroke="black" stroke-width="1.5" d="M533.7,-384C533.7,-384 352.41,-384 352.41,-384 346.41,-384 340.41,-378 340.41,-372 340.41,-372 340.41,-360 340.41,-360 340.41,-354 346.41,-348 352.41,-348 352.41,-348 533.7,-348 533.7,-348 539.7,-348 545.7,-354 545.7,-360 545.7,-360 545.7,-372 545.7,-372 545.7,-378 539.7,-384 533.7,-384"/>
<text xml:space="preserve" text-anchor="middle" x="443.06" y="-361.32" font-family="Verdana" font-size="14.00">(*Server).GetToolRegistry</text>
</a>
</g>
</g>
<!-- (*github.com/guild&#45;framework/guild&#45;core/pkg/mcp/grpc.MCPService).RegisterTool&#45;&gt;(*github.com/guild&#45;framework/guild&#45;core/pkg/mcp/server.Server).GetToolRegistry -->
<g id="edge3" class="edge">
<title>(*github.com/guild&#45;framework/guild&#45;core/pkg/mcp/grpc.MCPService).RegisterTool&#45;&gt;(*github.com/guild&#45;framework/guild&#45;core/pkg/mcp/server.Server).GetToolRegistry</title>
<g id="a_edge3"><a xlink:title="at service.go:76: calling [(*github.com/guild&#45;framework/guild&#45;core/pkg/mcp/server.Server).GetToolRegistry]">
<path fill="none" stroke="saddlebrown" d="M246.85,-54.69C252.56,-58.17 257.86,-62.24 262.54,-67 306.85,-112.11 281.93,-300.21 327.54,-344 328.59,-345.01 329.67,-345.97 330.77,-346.9"/>
<polygon fill="saddlebrown" stroke="saddlebrown" points="328.37,-349.49 338.55,-352.43 332.43,-343.78 328.37,-349.49"/>
</a>
</g>
</g>
<!-- github.com/guild&#45;framework/guild&#45;core/pkg/mcp/tools.NewBaseTool -->
<g id="node17" class="node">
<title>github.com/guild&#45;framework/guild&#45;core/pkg/mcp/tools.NewBaseTool</title>
<g id="a_node17"><a xlink:title="github.com/guild&#45;framework/guild&#45;core/pkg/mcp/tools.NewBaseTool | defined in registry.go:282">
<path fill="moccasin" stroke="black" stroke-width="1.5" d="M487.58,-60C487.58,-60 398.54,-60 398.54,-60 392.54,-60 386.54,-54 386.54,-48 386.54,-48 386.54,-36 386.54,-36 386.54,-30 392.54,-24 398.54,-24 398.54,-24 487.58,-24 487.58,-24 493.58,-24 499.58,-30 499.58,-36 499.58,-36 499.58,-48 499.58,-48 499.58,-54 493.58,-60 487.58,-60"/>
<text xml:space="preserve" text-anchor="middle" x="443.06" y="-37.33" font-family="Verdana" font-size="14.00">NewBaseTool</text>
</a>
</g>
</g>
<!-- (*github.com/guild&#45;framework/guild&#45;core/pkg/mcp/grpc.MCPService).RegisterTool&#45;&gt;github.com/guild&#45;framework/guild&#45;core/pkg/mcp/tools.NewBaseTool -->
<g id="edge2" class="edge">
<title>(*github.com/guild&#45;framework/guild&#45;core/pkg/mcp/grpc.MCPService).RegisterTool&#45;&gt;github.com/guild&#45;framework/guild&#45;core/pkg/mcp/tools.NewBaseTool</title>
<g id="a_edge2"><a xlink:title="at service.go:63: calling [github.com/guild&#45;framework/guild&#45;core/pkg/mcp/tools.NewBaseTool]">
<path fill="none" stroke="saddlebrown" d="M247.94,-38.14C290.29,-38.98 337.58,-39.92 374.89,-40.66"/>
<polygon fill="saddlebrown" stroke="saddlebrown" points="374.55,-44.16 384.62,-40.86 374.69,-37.16 374.55,-44.16"/>
</a>
</g>
</g>
<!-- (*github.com/guild&#45;framework/guild&#45;core/pkg/mcp/grpc.MCPService).CheckToolHealth -->
<g id="node5" class="node">
<title>(*github.com/guild&#45;framework/guild&#45;core/pkg/mcp/grpc.MCPService).CheckToolHealth</title>
<g id="a_node5"><a xlink:title="(*github.com/guild&#45;framework/guild&#45;core/pkg/mcp/grpc.MCPService).CheckToolHealth | defined in service.go:177&#10;at service.go:182: calling [(*github.com/guild&#45;framework/guild&#45;core/pkg/mcp/server.Server).GetToolRegistry]">
<path fill="lightblue" stroke="black" stroke-width="1.5" d="M250.54,-176C250.54,-176 28,-176 28,-176 22,-176 16,-170 16,-164 16,-164 16,-152 16,-152 16,-146 22,-140 28,-140 28,-140 250.54,-140 250.54,-140 256.54,-140 262.54,-146 262.54,-152 262.54,-152 262.54,-164 262.54,-164 262.54,-170 256.54,-176 250.54,-176"/>
<text xml:space="preserve" text-anchor="middle" x="139.27" y="-153.32" font-family="Verdana" font-size="14.00">(*MCPService).CheckToolHealth</text>
</a>
</g>
</g>
<!-- (*github.com/guild&#45;framework/guild&#45;core/pkg/mcp/grpc.MCPService).CheckToolHealth&#45;&gt;(*github.com/guild&#45;framework/guild&#45;core/pkg/mcp/server.Server).GetToolRegistry -->
<g id="edge6" class="edge">
<title>(*github.com/guild&#45;framework/guild&#45;core/pkg/mcp/grpc.MCPService).CheckToolHealth&#45;&gt;(*github.com/guild&#45;framework/guild&#45;core/pkg/mcp/server.Server).GetToolRegistry</title>
<g id="a_edge6"><a xlink:title="at service.go:182: calling [(*github.com/guild&#45;framework/guild&#45;core/pkg/mcp/server.Server).GetToolRegistry]">
<path fill="none" stroke="saddlebrown" d="M244.21,-176.7C250.78,-180.15 256.98,-184.21 262.54,-189 319.14,-237.75 269.54,-296.93 327.54,-344 328.37,-344.67 329.2,-345.32 330.06,-345.96"/>
<polygon fill="saddlebrown" stroke="saddlebrown" points="328.08,-348.84 338.39,-351.27 331.84,-342.94 328.08,-348.84"/>
</a>
</g>
</g>
<!-- (*github.com/guild&#45;framework/guild&#45;core/pkg/mcp/grpc.MCPService).ExecuteTool -->
<g id="node6" class="node">
<title>(*github.com/guild&#45;framework/guild&#45;core/pkg/mcp/grpc.MCPService).ExecuteTool</title>
<g id="a_node6"><a xlink:title="(*github.com/guild&#45;framework/guild&#45;core/pkg/mcp/grpc.MCPService).ExecuteTool | defined in service.go:136&#10;at service.go:142: calling [(*github.com/guild&#45;framework/guild&#45;core/pkg/mcp/server.Server).GetToolRegistry]">
<path fill="lightblue" stroke="black" stroke-width="1.5" d="M233.66,-237C233.66,-237 44.88,-237 44.88,-237 38.88,-237 32.87,-231 32.87,-225 32.87,-225 32.87,-213 32.87,-213 32.87,-207 38.87,-201 44.87,-201 44.87,-201 233.66,-201 233.66,-201 239.66,-201 245.66,-207 245.66,-213 245.66,-213 245.66,-225 245.66,-225 245.66,-231 239.66,-237 233.66,-237"/>
<text xml:space="preserve" text-anchor="middle" x="139.27" y="-214.32" font-family="Verdana" font-size="14.00">(*MCPService).ExecuteTool</text>
</a>
</g>
</g>
<!-- (*github.com/guild&#45;framework/guild&#45;core/pkg/mcp/grpc.MCPService).ExecuteTool&#45;&gt;(*github.com/guild&#45;framework/guild&#45;core/pkg/mcp/server.Server).GetToolRegistry -->
<g id="edge14" class="edge">
<title>(*github.com/guild&#45;framework/guild&#45;core/pkg/mcp/grpc.MCPService).ExecuteTool&#45;&gt;(*github.com/guild&#45;framework/guild&#45;core/pkg/mcp/server.Server).GetToolRegistry</title>
<g id="a_edge14"><a xlink:title="at service.go:142: calling [(*github.com/guild&#45;framework/guild&#45;core/pkg/mcp/server.Server).GetToolRegistry]">
<path fill="none" stroke="saddlebrown" d="M240.08,-237.69C248.01,-241.13 255.62,-245.19 262.54,-250 304.26,-278.98 284.99,-316.26 327.54,-344 328.27,-344.48 329.01,-344.94 329.76,-345.4"/>
<polygon fill="saddlebrown" stroke="saddlebrown" points="328.04,-348.45 338.51,-350.1 331.36,-342.29 328.04,-348.45"/>
</a>
</g>
</g>
<!-- (*github.com/guild&#45;framework/guild&#45;core/pkg/mcp/grpc.MCPService).DiscoverTools -->
<g id="node7" class="node">
<title>(*github.com/guild&#45;framework/guild&#45;core/pkg/mcp/grpc.MCPService).DiscoverTools</title>
<g id="a_node7"><a xlink:title="(*github.com/guild&#45;framework/guild&#45;core/pkg/mcp/grpc.MCPService).DiscoverTools | defined in service.go:102&#10;at service.go:111: calling [(*github.com/guild&#45;framework/guild&#45;core/pkg/mcp/server.Server).GetToolRegistry]&#10;at service.go:124: calling [github.com/guild&#45;framework/guild&#45;core/pkg/mcp/grpc.convertParametersToGRPC]&#10;at service.go:125: calling [github.com/guild&#45;framework/guild&#45;core/pkg/mcp/grpc.convertParametersToGRPC]&#10;at service.go:126: calling [github.com/guild&#45;framework/guild&#45;core/pkg/mcp/grpc.convertCostProfileToGRPC]">
<path fill="lightblue" stroke="black" stroke-width="1.5" d="M240.41,-115C240.41,-115 38.12,-115 38.12,-115 32.13,-115 26.12,-109 26.12,-103 26.12,-103 26.12,-91 26.12,-91 26.12,-85 32.12,-79 38.12,-79 38.12,-79 240.41,-79 240.41,-79 246.41,-79 252.41,-85 252.41,-91 252.41,-91 252.41,-103 252.41,-103 252.41,-109 246.41,-115 240.41,-115"/>
<text xml:space="preserve" text-anchor="middle" x="139.27" y="-92.33" font-family="Verdana" font-size="14.00">(*MCPService).DiscoverTools</text>
</a>
</g>
</g>
<!-- github.com/guild&#45;framework/guild&#45;core/pkg/mcp/grpc.convertParametersToGRPC -->
<g id="node8" class="node">
<title>github.com/guild&#45;framework/guild&#45;core/pkg/mcp/grpc.convertParametersToGRPC</title>
<g id="a_node8"><a xlink:title="github.com/guild&#45;framework/guild&#45;core/pkg/mcp/grpc.convertParametersToGRPC | defined in service.go:318">
<path fill="lightblue" stroke="black" stroke-width="0.5" d="M535.58,-262C535.58,-262 350.54,-262 350.54,-262 344.54,-262 338.54,-256 338.54,-250 338.54,-250 338.54,-238 338.54,-238 338.54,-232 344.54,-226 350.54,-226 350.54,-226 535.58,-226 535.58,-226 541.58,-226 547.58,-232 547.58,-238 547.58,-238 547.58,-250 547.58,-250 547.58,-256 541.58,-262 535.58,-262"/>
<text xml:space="preserve" text-anchor="middle" x="443.06" y="-239.32" font-family="Verdana" font-size="14.00">convertParametersToGRPC</text>
</a>
</g>
</g>
<!-- (*github.com/guild&#45;framework/guild&#45;core/pkg/mcp/grpc.MCPService).DiscoverTools&#45;&gt;github.com/guild&#45;framework/guild&#45;core/pkg/mcp/grpc.convertParametersToGRPC -->
<g id="edge11" class="edge">
<title>(*github.com/guild&#45;framework/guild&#45;core/pkg/mcp/grpc.MCPService).DiscoverTools&#45;&gt;github.com/guild&#45;framework/guild&#45;core/pkg/mcp/grpc.convertParametersToGRPC</title>
<g id="a_edge11"><a xlink:title="at service.go:124: calling [github.com/guild&#45;framework/guild&#45;core/pkg/mcp/grpc.convertParametersToGRPC]&#10;at service.go:125: calling [github.com/guild&#45;framework/guild&#45;core/pkg/mcp/grpc.convertParametersToGRPC]">
<path fill="none" stroke="black" d="M238.93,-115.62C247.24,-119.07 255.24,-123.16 262.54,-128 302.46,-154.49 287.73,-187.35 327.54,-214 331.43,-216.6 335.54,-218.98 339.79,-221.16"/>
<polygon fill="black" stroke="black" points="338.02,-224.19 348.56,-225.22 340.96,-217.84 338.02,-224.19"/>
</a>
</g>
</g>
<!-- github.com/guild&#45;framework/guild&#45;core/pkg/mcp/grpc.convertCostProfileToGRPC -->
<g id="node9" class="node">
<title>github.com/guild&#45;framework/guild&#45;core/pkg/mcp/grpc.convertCostProfileToGRPC</title>
<g id="a_node9"><a xlink:title="github.com/guild&#45;framework/guild&#45;core/pkg/mcp/grpc.convertCostProfileToGRPC | defined in service.go:353">
<path fill="lightblue" stroke="black" stroke-width="0.5" d="M532.2,-323C532.2,-323 353.91,-323 353.91,-323 347.91,-323 341.91,-317 341.91,-311 341.91,-311 341.91,-299 341.91,-299 341.91,-293 347.91,-287 353.91,-287 353.91,-287 532.2,-287 532.2,-287 538.2,-287 544.2,-293 544.2,-299 544.2,-299 544.2,-311 544.2,-311 544.2,-317 538.2,-323 532.2,-323"/>
<text xml:space="preserve" text-anchor="middle" x="443.06" y="-300.32" font-family="Verdana" font-size="14.00">convertCostProfileToGRPC</text>
</a>
</g>
</g>
<!-- (*github.com/guild&#45;framework/guild&#45;core/pkg/mcp/grpc.MCPService).DiscoverTools&#45;&gt;github.com/guild&#45;framework/guild&#45;core/pkg/mcp/grpc.convertCostProfileToGRPC -->
<g id="edge15" class="edge">
<title>(*github.com/guild&#45;framework/guild&#45;core/pkg/mcp/grpc.MCPService).DiscoverTools&#45;&gt;github.com/guild&#45;framework/guild&#45;core/pkg/mcp/grpc.convertCostProfileToGRPC</title>
<g id="a_edge15"><a xlink:title="at service.go:126: calling [github.com/guild&#45;framework/guild&#45;core/pkg/mcp/grpc.convertCostProfileToGRPC]">
<path fill="none" stroke="black" d="M243.74,-115.74C250.47,-119.18 256.82,-123.23 262.54,-128 292.93,-153.35 283.59,-172.78 299.54,-209 312.38,-238.16 303.44,-254.16 327.54,-275 330.02,-277.14 332.63,-279.13 335.35,-280.99"/>
<polygon fill="black" stroke="black" points="333.31,-283.84 343.69,-285.98 336.91,-277.84 333.31,-283.84"/>
</a>
</g>
</g>
<!-- (*github.com/guild&#45;framework/guild&#45;core/pkg/mcp/grpc.MCPService).DiscoverTools&#45;&gt;(*github.com/guild&#45;framework/guild&#45;core/pkg/mcp/server.Server).GetToolRegistry -->
<g id="edge7" class="edge">
<title>(*github.com/guild&#45;framework/guild&#45;core/pkg/mcp/grpc.MCPService).DiscoverTools&#45;&gt;(*github.com/guild&#45;framework/guild&#45;core/pkg/mcp/server.Server).GetToolRegistry</title>
<g id="a_edge7"><a xlink:title="at service.go:111: calling [(*github.com/guild&#45;framework/guild&#45;core/pkg/mcp/server.Server).GetToolRegistry]">
<path fill="none" stroke="saddlebrown" d="M245.94,-115.7C251.95,-119.17 257.56,-123.23 262.54,-128 298.76,-162.66 290.33,-310.42 327.54,-344 328.48,-344.85 329.44,-345.67 330.42,-346.46"/>
<polygon fill="saddlebrown" stroke="saddlebrown" points="328.31,-349.25 338.53,-352.02 332.26,-343.48 328.31,-349.25"/>
</a>
</g>
</g>
<!-- (*github.com/guild&#45;framework/guild&#45;core/pkg/mcp/grpc.MCPService).GetSystemInfo -->
<g id="node10" class="node">
<title>(*github.com/guild&#45;framework/guild&#45;core/pkg/mcp/grpc.MCPService).GetSystemInfo</title>
<g id="a_node10"><a xlink:title="(*github.com/guild&#45;framework/guild&#45;core/pkg/mcp/grpc.MCPService).GetSystemInfo | defined in service.go:280&#10;at service.go:281: calling [(*github.com/guild&#45;framework/guild&#45;core/pkg/mcp/server.Server).GetConfig]&#10;at service.go:294: calling [(*github.com/guild&#45;framework/guild&#45;core/pkg/mcp/server.Server).GetToolRegistry]">
<path fill="lightblue" stroke="black" stroke-width="1.5" d="M245.29,-359C245.29,-359 33.25,-359 33.25,-359 27.25,-359 21.25,-353 21.25,-347 21.25,-347 21.25,-335 21.25,-335 21.25,-329 27.25,-323 33.25,-323 33.25,-323 245.29,-323 245.29,-323 251.29,-323 257.29,-329 257.29,-335 257.29,-335 257.29,-347 257.29,-347 257.29,-353 251.29,-359 245.29,-359"/>
<text xml:space="preserve" text-anchor="middle" x="139.27" y="-336.32" font-family="Verdana" font-size="14.00">(*MCPService).GetSystemInfo</text>
</a>
</g>
</g>
<!-- (*github.com/guild&#45;framework/guild&#45;core/pkg/mcp/grpc.MCPService).GetSystemInfo&#45;&gt;(*github.com/guild&#45;framework/guild&#45;core/pkg/mcp/server.Server).GetToolRegistry -->
<g id="edge8" class="edge">
<title>(*github.com/guild&#45;framework/guild&#45;core/pkg/mcp/grpc.MCPService).GetSystemInfo&#45;&gt;(*github.com/guild&#45;framework/guild&#45;core/pkg/mcp/server.Server).GetToolRegistry</title>
<g id="a_edge8"><a xlink:title="at service.go:294: calling [(*github.com/guild&#45;framework/guild&#45;core/pkg/mcp/server.Server).GetToolRegistry]">
<path fill="none" stroke="saddlebrown" d="M257.81,-350.74C281.14,-352.67 305.58,-354.69 328.76,-356.61"/>
<polygon fill="saddlebrown" stroke="saddlebrown" points="328.27,-360.09 338.52,-357.42 328.85,-353.11 328.27,-360.09"/>
</a>
</g>
</g>
<!-- (*github.com/guild&#45;framework/guild&#45;core/pkg/mcp/server.Server).GetConfig -->
<g id="node16" class="node">
<title>(*github.com/guild&#45;framework/guild&#45;core/pkg/mcp/server.Server).GetConfig</title>
<g id="a_node16"><a xlink:title="(*github.com/guild&#45;framework/guild&#45;core/pkg/mcp/server.Server).GetConfig | defined in server.go:831">
<path fill="moccasin" stroke="black" stroke-width="1.5" d="M513.45,-445C513.45,-445 372.66,-445 372.66,-445 366.66,-445 360.66,-439 360.66,-433 360.66,-433 360.66,-421 360.66,-421 360.66,-415 366.66,-409 372.66,-409 372.66,-409 513.45,-409 513.45,-409 519.45,-409 525.45,-415 525.45,-421 525.45,-421 525.45,-433 525.45,-433 525.45,-439 519.45,-445 513.45,-445"/>
<text xml:space="preserve" text-anchor="middle" x="443.06" y="-422.32" font-family="Verdana" font-size="14.00">(*Server).GetConfig</text>
</a>
</g>
</g>
<!-- (*github.com/guild&#45;framework/guild&#45;core/pkg/mcp/grpc.MCPService).GetSystemInfo&#45;&gt;(*github.com/guild&#45;framework/guild&#45;core/pkg/mcp/server.Server).GetConfig -->
<g id="edge4" class="edge">
<title>(*github.com/guild&#45;framework/guild&#45;core/pkg/mcp/grpc.MCPService).GetSystemInfo&#45;&gt;(*github.com/guild&#45;framework/guild&#45;core/pkg/mcp/server.Server).GetConfig</title>
<g id="a_edge4"><a xlink:title="at service.go:281: calling [(*github.com/guild&#45;framework/guild&#45;core/pkg/mcp/server.Server).GetConfig]">
<path fill="none" stroke="saddlebrown" d="M219.91,-359.73C234.19,-363.5 248.87,-367.66 262.54,-372 292.04,-381.38 298.08,-387.51 327.54,-397 336.4,-399.85 345.71,-402.64 355.03,-405.28"/>
<polygon fill="saddlebrown" stroke="saddlebrown" points="353.92,-408.61 364.49,-407.92 355.8,-401.87 353.92,-408.61"/>
</a>
</g>
</g>
<!-- (*github.com/guild&#45;framework/guild&#45;core/pkg/mcp/grpc.MCPService).Ping -->
<g id="node11" class="node">
<title>(*github.com/guild&#45;framework/guild&#45;core/pkg/mcp/grpc.MCPService).Ping</title>
<g id="a_node11"><a xlink:title="(*github.com/guild&#45;framework/guild&#45;core/pkg/mcp/grpc.MCPService).Ping | defined in service.go:272&#10;at service.go:275: calling [(*github.com/guild&#45;framework/guild&#45;core/pkg/mcp/server.Server).GetConfig]">
<path fill="lightblue" stroke="black" stroke-width="1.5" d="M207.79,-420C207.79,-420 70.75,-420 70.75,-420 64.75,-420 58.75,-414 58.75,-408 58.75,-408 58.75,-396 58.75,-396 58.75,-390 64.75,-384 70.75,-384 70.75,-384 207.79,-384 207.79,-384 213.79,-384 219.79,-390 219.79,-396 219.79,-396 219.79,-408 219.79,-408 219.79,-414 213.79,-420 207.79,-420"/>
<text xml:space="preserve" text-anchor="middle" x="139.27" y="-397.32" font-family="Verdana" font-size="14.00">(*MCPService).Ping</text>
</a>
</g>
</g>
<!-- (*github.com/guild&#45;framework/guild&#45;core/pkg/mcp/grpc.MCPService).Ping&#45;&gt;(*github.com/guild&#45;framework/guild&#45;core/pkg/mcp/server.Server).GetConfig -->
<g id="edge12" class="edge">
<title>(*github.com/guild&#45;framework/guild&#45;core/pkg/mcp/grpc.MCPService).Ping&#45;&gt;(*github.com/guild&#45;framework/guild&#45;core/pkg/mcp/server.Server).GetConfig</title>
<g id="a_edge12"><a xlink:title="at service.go:275: calling [(*github.com/guild&#45;framework/guild&#45;core/pkg/mcp/server.Server).GetConfig]">
<path fill="none" stroke="saddlebrown" d="M220.35,-408.63C259.78,-411.9 307.54,-415.86 348.63,-419.26"/>
<polygon fill="saddlebrown" stroke="saddlebrown" points="348.26,-422.74 358.52,-420.08 348.84,-415.77 348.26,-422.74"/>
</a>
</g>
</g>
<!-- (*github.com/guild&#45;framework/guild&#45;core/pkg/mcp/grpc.MCPService).DeregisterTool -->
<g id="node12" class="node">
<title>(*github.com/guild&#45;framework/guild&#45;core/pkg/mcp/grpc.MCPService).DeregisterTool</title>
<g id="a_node12"><a xlink:title="(*github.com/guild&#45;framework/guild&#45;core/pkg/mcp/grpc.MCPService).DeregisterTool | defined in service.go:87&#10;at service.go:92: calling [(*github.com/guild&#45;framework/guild&#45;core/pkg/mcp/server.Server).GetToolRegistry]">
<path fill="lightblue" stroke="black" stroke-width="1.5" d="M243.04,-298C243.04,-298 35.5,-298 35.5,-298 29.5,-298 23.5,-292 23.5,-286 23.5,-286 23.5,-274 23.5,-274 23.5,-268 29.5,-262 35.5,-262 35.5,-262 243.04,-262 243.04,-262 249.04,-262 255.04,-268 255.04,-274 255.04,-274 255.04,-286 255.04,-286 255.04,-292 249.04,-298 243.04,-298"/>
<text xml:space="preserve" text-anchor="middle" x="139.27" y="-275.32" font-family="Verdana" font-size="14.00">(*MCPService).DeregisterTool</text>
</a>
</g>
</g>
<!-- (*github.com/guild&#45;framework/guild&#45;core/pkg/mcp/grpc.MCPService).DeregisterTool&#45;&gt;(*github.com/guild&#45;framework/guild&#45;core/pkg/mcp/server.Server).GetToolRegistry -->
<g id="edge9" class="edge">
<title>(*github.com/guild&#45;framework/guild&#45;core/pkg/mcp/grpc.MCPService).DeregisterTool&#45;&gt;(*github.com/guild&#45;framework/guild&#45;core/pkg/mcp/server.Server).GetToolRegistry</title>
<g id="a_edge9"><a xlink:title="at service.go:92: calling [(*github.com/guild&#45;framework/guild&#45;core/pkg/mcp/server.Server).GetToolRegistry]">
<path fill="none" stroke="saddlebrown" d="M224.23,-298.66C237.21,-302.3 250.34,-306.42 262.54,-311 292.87,-322.38 296.89,-333.51 327.54,-344 328.04,-344.17 328.55,-344.34 329.05,-344.51"/>
<polygon fill="saddlebrown" stroke="saddlebrown" points="327.86,-347.81 338.45,-347.45 329.95,-341.13 327.86,-347.81"/>
</a>
</g>
</g>
<!-- (*github.com/guild&#45;framework/guild&#45;core/pkg/mcp/grpc.MCPService).QueryCosts -->
<g id="node13" class="node">
<title>(*github.com/guild&#45;framework/guild&#45;core/pkg/mcp/grpc.MCPService).QueryCosts</title>
<g id="a_node13"><a xlink:title="(*github.com/guild&#45;framework/guild&#45;core/pkg/mcp/grpc.MCPService).QueryCosts | defined in service.go:222&#10;at service.go:232: calling [(*github.com/guild&#45;framework/guild&#45;core/pkg/mcp/server.Server).GetCostObserver]">
<path fill="lightblue" stroke="black" stroke-width="1.5" d="M233.29,-542C233.29,-542 45.25,-542 45.25,-542 39.25,-542 33.25,-536 33.25,-530 33.25,-530 33.25,-518 33.25,-518 33.25,-512 39.25,-506 45.25,-506 45.25,-506 233.29,-506 233.29,-506 239.29,-506 245.29,-512 245.29,-518 245.29,-518 245.29,-530 245.29,-530 245.29,-536 239.29,-542 233.29,-542"/>
<text xml:space="preserve" text-anchor="middle" x="139.27" y="-519.33" font-family="Verdana" font-size="14.00">(*MCPService).QueryCosts</text>
</a>
</g>
</g>
<!-- (*github.com/guild&#45;framework/guild&#45;core/pkg/mcp/grpc.MCPService).QueryCosts&#45;&gt;(*github.com/guild&#45;framework/guild&#45;core/pkg/mcp/server.Server).GetCostObserver -->
<g id="edge5" class="edge">
<title>(*github.com/guild&#45;framework/guild&#45;core/pkg/mcp/grpc.MCPService).QueryCosts&#45;&gt;(*github.com/guild&#45;framework/guild&#45;core/pkg/mcp/server.Server).GetCostObserver</title>
<g id="a_edge5"><a xlink:title="at service.go:232: calling [(*github.com/guild&#45;framework/guild&#45;core/pkg/mcp/server.Server).GetCostObserver]">
<path fill="none" stroke="saddlebrown" d="M245.82,-511.41C270.99,-508.41 298.02,-505.18 323.72,-502.12"/>
<polygon fill="saddlebrown" stroke="saddlebrown" points="324.02,-505.61 333.53,-500.95 323.19,-498.66 324.02,-505.61"/>
</a>
</g>
</g>
</g>
</svg>
