<?xml version="1.0" encoding="UTF-8" standalone="no"?>
<!DOCTYPE svg PUBLIC "-//W3C//DTD SVG 1.1//EN"
 "http://www.w3.org/Graphics/SVG/1.1/DTD/svg11.dtd">
<!-- Generated by graphviz version 14.1.1 (20251213.1925)
 -->
<!-- Title: gocallvis Pages: 1 -->
<svg width="797pt" height="612pt"
 viewBox="0.00 0.00 797.00 612.00" xmlns="http://www.w3.org/2000/svg" xmlns:xlink="http://www.w3.org/1999/xlink">
<g id="graph0" class="graph" transform="scale(1 1) rotate(0) translate(0 612)">
<title>gocallvis</title>
<polygon fill="lightgray" stroke="none" points="0,0 0,-612 796.62,-612 796.62,0 0,0"/>
<g id="clust1" class="cluster">
<title>cluster_focus</title>
<polygon fill="#e6ecfa" stroke="black" stroke-width="0.5" points="8,-8 8,-604 788.62,-604 788.62,-8 8,-8"/>
<text xml:space="preserve" text-anchor="middle" x="398.31" y="-582.9" font-family="Arial" font-size="18.00">local</text>
</g>
<g id="clust2" class="cluster">
<title>cluster_github.com/guild&#45;framework/guild&#45;core/pkg/gerror</title>
<g id="a_clust2"><a xlink:href="/?f=github.com/guild-framework/guild-core/pkg/gerror" xlink:title="package: github.com/guild&#45;framework/guild&#45;core/pkg/gerror">
<polygon fill="lightyellow" stroke="black" stroke-width="0.8" points="532.33,-243 532.33,-567 780.62,-567 780.62,-243 532.33,-243"/>
<text xml:space="preserve" text-anchor="middle" x="656.47" y="-547.8" font-family="Tahoma bold" font-size="16.00">gerror</text>
</a>
</g>
</g>
<!-- github.com/guild&#45;framework/guild&#45;core/pkg/project/local.LocalCorpusPath -->
<g id="node1" class="node">
<title>github.com/guild&#45;framework/guild&#45;core/pkg/project/local.LocalCorpusPath</title>
<g id="a_node1"><a xlink:title="github.com/guild&#45;framework/guild&#45;core/pkg/project/local.LocalCorpusPath | defined in local.go:187&#10;at local.go:188: calling [github.com/guild&#45;framework/guild&#45;core/pkg/project/local.LocalGuildDir]">
<path fill="lightblue" stroke="black" stroke-width="1.5" d="M433.95,-323C433.95,-323 319.41,-323 319.41,-323 313.41,-323 307.41,-317 307.41,-311 307.41,-311 307.41,-299 307.41,-299 307.41,-293 313.41,-287 319.41,-287 319.41,-287 433.95,-287 433.95,-287 439.95,-287 445.95,-293 445.95,-299 445.95,-299 445.95,-311 445.95,-311 445.95,-317 439.95,-323 433.95,-323"/>
<text xml:space="preserve" text-anchor="middle" x="376.68" y="-300.32" font-family="Verdana" font-size="14.00">LocalCorpusPath</text>
</a>
</g>
</g>
<!-- github.com/guild&#45;framework/guild&#45;core/pkg/project/local.LocalGuildDir -->
<g id="node2" class="node">
<title>github.com/guild&#45;framework/guild&#45;core/pkg/project/local.LocalGuildDir</title>
<g id="a_node2"><a xlink:title="github.com/guild&#45;framework/guild&#45;core/pkg/project/local.LocalGuildDir | defined in local.go:29">
<path fill="lightblue" stroke="black" stroke-width="1.5" d="M701.74,-165C701.74,-165 611.2,-165 611.2,-165 605.2,-165 599.2,-159 599.2,-153 599.2,-153 599.2,-141 599.2,-141 599.2,-135 605.2,-129 611.2,-129 611.2,-129 701.74,-129 701.74,-129 707.74,-129 713.74,-135 713.74,-141 713.74,-141 713.74,-153 713.74,-153 713.74,-159 707.74,-165 701.74,-165"/>
<text xml:space="preserve" text-anchor="middle" x="656.47" y="-142.32" font-family="Verdana" font-size="14.00">LocalGuildDir</text>
</a>
</g>
</g>
<!-- github.com/guild&#45;framework/guild&#45;core/pkg/project/local.LocalCorpusPath&#45;&gt;github.com/guild&#45;framework/guild&#45;core/pkg/project/local.LocalGuildDir -->
<g id="edge13" class="edge">
<title>github.com/guild&#45;framework/guild&#45;core/pkg/project/local.LocalCorpusPath&#45;&gt;github.com/guild&#45;framework/guild&#45;core/pkg/project/local.LocalGuildDir</title>
<g id="a_edge13"><a xlink:title="at local.go:188: calling [github.com/guild&#45;framework/guild&#45;core/pkg/project/local.LocalGuildDir]">
<path fill="none" stroke="black" d="M446.54,-297.6C467.37,-292.28 488.81,-283.25 504.33,-268 534.21,-238.64 501.91,-206.8 532.33,-178 547.19,-163.94 567.46,-156 587.26,-151.59"/>
<polygon fill="black" stroke="black" points="587.85,-155.04 597.01,-149.72 586.53,-148.16 587.85,-155.04"/>
</a>
</g>
</g>
<!-- github.com/guild&#45;framework/guild&#45;core/pkg/project/local.LocalWorkspacesPath -->
<g id="node3" class="node">
<title>github.com/guild&#45;framework/guild&#45;core/pkg/project/local.LocalWorkspacesPath</title>
<g id="a_node3"><a xlink:title="github.com/guild&#45;framework/guild&#45;core/pkg/project/local.LocalWorkspacesPath | defined in local.go:202&#10;at local.go:203: calling [github.com/guild&#45;framework/guild&#45;core/pkg/project/local.LocalGuildDir]">
<path fill="lightblue" stroke="black" stroke-width="1.5" d="M451.2,-52C451.2,-52 302.16,-52 302.16,-52 296.16,-52 290.16,-46 290.16,-40 290.16,-40 290.16,-28 290.16,-28 290.16,-22 296.16,-16 302.16,-16 302.16,-16 451.2,-16 451.2,-16 457.2,-16 463.2,-22 463.2,-28 463.2,-28 463.2,-40 463.2,-40 463.2,-46 457.2,-52 451.2,-52"/>
<text xml:space="preserve" text-anchor="middle" x="376.68" y="-29.32" font-family="Verdana" font-size="14.00">LocalWorkspacesPath</text>
</a>
</g>
</g>
<!-- github.com/guild&#45;framework/guild&#45;core/pkg/project/local.LocalWorkspacesPath&#45;&gt;github.com/guild&#45;framework/guild&#45;core/pkg/project/local.LocalGuildDir -->
<g id="edge14" class="edge">
<title>github.com/guild&#45;framework/guild&#45;core/pkg/project/local.LocalWorkspacesPath&#45;&gt;github.com/guild&#45;framework/guild&#45;core/pkg/project/local.LocalGuildDir</title>
<g id="a_edge14"><a xlink:title="at local.go:203: calling [github.com/guild&#45;framework/guild&#45;core/pkg/project/local.LocalGuildDir]">
<path fill="none" stroke="black" d="M433.88,-52.68C445.02,-56.59 456.59,-60.81 467.33,-65 514.51,-83.41 567.3,-106.65 604.93,-123.69"/>
<polygon fill="black" stroke="black" points="603.19,-126.74 613.74,-127.69 606.08,-120.37 603.19,-126.74"/>
</a>
</g>
</g>
<!-- github.com/guild&#45;framework/guild&#45;core/pkg/project/local.createDefaultLocalConfig -->
<g id="node4" class="node">
<title>github.com/guild&#45;framework/guild&#45;core/pkg/project/local.createDefaultLocalConfig</title>
<g id="a_node4"><a xlink:title="github.com/guild&#45;framework/guild&#45;core/pkg/project/local.createDefaultLocalConfig | defined in local.go:88&#10;at local.go:92: calling [github.com/guild&#45;framework/guild&#45;core/pkg/project/local.detectProjectType]&#10;at local.go:94: calling [github.com/guild&#45;framework/guild&#45;core/pkg/project/local.generateLocalConfig]">
<path fill="lightblue" stroke="black" stroke-width="0.5" d="M201.04,-204C201.04,-204 28,-204 28,-204 22,-204 16,-198 16,-192 16,-192 16,-180 16,-180 16,-174 22,-168 28,-168 28,-168 201.04,-168 201.04,-168 207.04,-168 213.04,-174 213.04,-180 213.04,-180 213.04,-192 213.04,-192 213.04,-198 207.04,-204 201.04,-204"/>
<text xml:space="preserve" text-anchor="middle" x="114.52" y="-181.32" font-family="Verdana" font-size="14.00">createDefaultLocalConfig</text>
</a>
</g>
</g>
<!-- github.com/guild&#45;framework/guild&#45;core/pkg/project/local.detectProjectType -->
<g id="node5" class="node">
<title>github.com/guild&#45;framework/guild&#45;core/pkg/project/local.detectProjectType</title>
<g id="a_node5"><a xlink:title="github.com/guild&#45;framework/guild&#45;core/pkg/project/local.detectProjectType | defined in local.go:100">
<path fill="lightblue" stroke="black" stroke-width="0.5" d="M438.45,-174C438.45,-174 314.91,-174 314.91,-174 308.91,-174 302.91,-168 302.91,-162 302.91,-162 302.91,-150 302.91,-150 302.91,-144 308.91,-138 314.91,-138 314.91,-138 438.45,-138 438.45,-138 444.45,-138 450.45,-144 450.45,-150 450.45,-150 450.45,-162 450.45,-162 450.45,-168 444.45,-174 438.45,-174"/>
<text xml:space="preserve" text-anchor="middle" x="376.68" y="-151.32" font-family="Verdana" font-size="14.00">detectProjectType</text>
</a>
</g>
</g>
<!-- github.com/guild&#45;framework/guild&#45;core/pkg/project/local.createDefaultLocalConfig&#45;&gt;github.com/guild&#45;framework/guild&#45;core/pkg/project/local.detectProjectType -->
<g id="edge10" class="edge">
<title>github.com/guild&#45;framework/guild&#45;core/pkg/project/local.createDefaultLocalConfig&#45;&gt;github.com/guild&#45;framework/guild&#45;core/pkg/project/local.detectProjectType</title>
<g id="a_edge10"><a xlink:title="at local.go:92: calling [github.com/guild&#45;framework/guild&#45;core/pkg/project/local.detectProjectType]">
<path fill="none" stroke="black" d="M213.14,-174.74C238.89,-171.77 266.47,-168.59 291.45,-165.71"/>
<polygon fill="black" stroke="black" points="291.69,-169.21 301.23,-164.59 290.89,-162.25 291.69,-169.21"/>
</a>
</g>
</g>
<!-- github.com/guild&#45;framework/guild&#45;core/pkg/project/local.generateLocalConfig -->
<g id="node6" class="node">
<title>github.com/guild&#45;framework/guild&#45;core/pkg/project/local.generateLocalConfig</title>
<g id="a_node6"><a xlink:title="github.com/guild&#45;framework/guild&#45;core/pkg/project/local.generateLocalConfig | defined in local.go:131">
<path fill="lightblue" stroke="black" stroke-width="0.5" d="M447.45,-235C447.45,-235 305.91,-235 305.91,-235 299.91,-235 293.91,-229 293.91,-223 293.91,-223 293.91,-211 293.91,-211 293.91,-205 299.91,-199 305.91,-199 305.91,-199 447.45,-199 447.45,-199 453.45,-199 459.45,-205 459.45,-211 459.45,-211 459.45,-223 459.45,-223 459.45,-229 453.45,-235 447.45,-235"/>
<text xml:space="preserve" text-anchor="middle" x="376.68" y="-212.32" font-family="Verdana" font-size="14.00">generateLocalConfig</text>
</a>
</g>
</g>
<!-- github.com/guild&#45;framework/guild&#45;core/pkg/project/local.createDefaultLocalConfig&#45;&gt;github.com/guild&#45;framework/guild&#45;core/pkg/project/local.generateLocalConfig -->
<g id="edge15" class="edge">
<title>github.com/guild&#45;framework/guild&#45;core/pkg/project/local.createDefaultLocalConfig&#45;&gt;github.com/guild&#45;framework/guild&#45;core/pkg/project/local.generateLocalConfig</title>
<g id="a_edge15"><a xlink:title="at local.go:94: calling [github.com/guild&#45;framework/guild&#45;core/pkg/project/local.generateLocalConfig]">
<path fill="none" stroke="black" d="M213.14,-197.63C235.83,-200.34 259.94,-203.21 282.44,-205.89"/>
<polygon fill="black" stroke="black" points="281.84,-209.34 292.19,-207.05 282.67,-202.39 281.84,-209.34"/>
</a>
</g>
</g>
<!-- github.com/guild&#45;framework/guild&#45;core/pkg/project/local.LocalToolsPath -->
<g id="node7" class="node">
<title>github.com/guild&#45;framework/guild&#45;core/pkg/project/local.LocalToolsPath</title>
<g id="a_node7"><a xlink:title="github.com/guild&#45;framework/guild&#45;core/pkg/project/local.LocalToolsPath | defined in local.go:197&#10;at local.go:198: calling [github.com/guild&#45;framework/guild&#45;core/pkg/project/local.LocalGuildDir]">
<path fill="lightblue" stroke="black" stroke-width="1.5" d="M426.83,-113C426.83,-113 326.54,-113 326.54,-113 320.54,-113 314.54,-107 314.54,-101 314.54,-101 314.54,-89 314.54,-89 314.54,-83 320.54,-77 326.54,-77 326.54,-77 426.83,-77 426.83,-77 432.83,-77 438.83,-83 438.83,-89 438.83,-89 438.83,-101 438.83,-101 438.83,-107 432.83,-113 426.83,-113"/>
<text xml:space="preserve" text-anchor="middle" x="376.68" y="-90.33" font-family="Verdana" font-size="14.00">LocalToolsPath</text>
</a>
</g>
</g>
<!-- github.com/guild&#45;framework/guild&#45;core/pkg/project/local.LocalToolsPath&#45;&gt;github.com/guild&#45;framework/guild&#45;core/pkg/project/local.LocalGuildDir -->
<g id="edge11" class="edge">
<title>github.com/guild&#45;framework/guild&#45;core/pkg/project/local.LocalToolsPath&#45;&gt;github.com/guild&#45;framework/guild&#45;core/pkg/project/local.LocalGuildDir</title>
<g id="a_edge11"><a xlink:title="at local.go:198: calling [github.com/guild&#45;framework/guild&#45;core/pkg/project/local.LocalGuildDir]">
<path fill="none" stroke="black" d="M439.34,-106.54C483.25,-114.76 542.26,-125.81 587.53,-134.28"/>
<polygon fill="black" stroke="black" points="586.77,-137.7 597.24,-136.1 588.05,-130.82 586.77,-137.7"/>
</a>
</g>
</g>
<!-- github.com/guild&#45;framework/guild&#45;core/pkg/project/local.EnsureLocalInitialized -->
<g id="node8" class="node">
<title>github.com/guild&#45;framework/guild&#45;core/pkg/project/local.EnsureLocalInitialized</title>
<g id="a_node8"><a xlink:title="github.com/guild&#45;framework/guild&#45;core/pkg/project/local.EnsureLocalInitialized | defined in local.go:207&#10;at local.go:217: calling [github.com/guild&#45;framework/guild&#45;core/pkg/project/local.InitializeLocal]&#10;at local.go:208: calling [github.com/guild&#45;framework/guild&#45;core/pkg/project/local.LocalGuildDir]">
<path fill="lightblue" stroke="black" stroke-width="1.5" d="M190.16,-292C190.16,-292 38.88,-292 38.88,-292 32.88,-292 26.87,-286 26.87,-280 26.87,-280 26.87,-268 26.87,-268 26.87,-262 32.87,-256 38.87,-256 38.87,-256 190.16,-256 190.16,-256 196.16,-256 202.16,-262 202.16,-268 202.16,-268 202.16,-280 202.16,-280 202.16,-286 196.16,-292 190.16,-292"/>
<text xml:space="preserve" text-anchor="middle" x="114.52" y="-269.32" font-family="Verdana" font-size="14.00">EnsureLocalInitialized</text>
</a>
</g>
</g>
<!-- github.com/guild&#45;framework/guild&#45;core/pkg/project/local.EnsureLocalInitialized&#45;&gt;github.com/guild&#45;framework/guild&#45;core/pkg/project/local.LocalGuildDir -->
<g id="edge16" class="edge">
<title>github.com/guild&#45;framework/guild&#45;core/pkg/project/local.EnsureLocalInitialized&#45;&gt;github.com/guild&#45;framework/guild&#45;core/pkg/project/local.LocalGuildDir</title>
<g id="a_edge16"><a xlink:title="at local.go:208: calling [github.com/guild&#45;framework/guild&#45;core/pkg/project/local.LocalGuildDir]">
<path fill="none" stroke="black" d="M202.86,-274.76C291.62,-274.27 422.27,-269.66 467.33,-248 505.59,-229.61 495.8,-199.63 532.33,-178 548.98,-168.14 568.69,-161.4 587.41,-156.79"/>
<polygon fill="black" stroke="black" points="588.13,-160.22 597.11,-154.59 586.58,-153.39 588.13,-160.22"/>
</a>
</g>
</g>
<!-- github.com/guild&#45;framework/guild&#45;core/pkg/project/local.InitializeLocal -->
<g id="node9" class="node">
<title>github.com/guild&#45;framework/guild&#45;core/pkg/project/local.InitializeLocal</title>
<g id="a_node9"><a xlink:title="github.com/guild&#45;framework/guild&#45;core/pkg/project/local.InitializeLocal | defined in local.go:34&#10;at local.go:49: calling [github.com/guild&#45;framework/guild&#45;core/pkg/gerror.Wrap]&#10;at local.go:68: calling [github.com/guild&#45;framework/guild&#45;core/pkg/gerror.Wrap]&#10;at local.go:79: calling [github.com/guild&#45;framework/guild&#45;core/pkg/gerror.Wrap]&#10;at local.go:78: calling [github.com/guild&#45;framework/guild&#45;core/pkg/project/local.createGitIgnore]&#10;at local.go:35: calling [github.com/guild&#45;framework/guild&#45;core/pkg/project/local.LocalGuildDir]&#10;at local.go:50: calling [(*github.com/guild&#45;framework/guild&#45;core/pkg/gerror.GuildError).WithComponent]&#10;at local.go:60: calling [(*github.com/guild&#45;framework/guild&#45;core/pkg/gerror.GuildError).WithComponent]&#10;at local.go:69: calling [(*github.com/guild&#45;framework/guild&#45;core/pkg/gerror.GuildError).WithComponent]&#10;at local.go:80: calling [(*github.com/guild&#45;framework/guild&#45;core/pkg/gerror.GuildError).WithComponent]&#10;at local.go:51: calling [(*github.com/guild&#45;framework/guild&#45;core/pkg/gerror.GuildError).WithOperation]&#10;at local.go:61: calling [(*github.com/guild&#45;framework/guild&#45;core/pkg/gerror.GuildError).WithOperation]&#10;at local.go:70: calling [(*github.com/guild&#45;framework/guild&#45;core/pkg/gerror.GuildError).WithOperation]&#10;at local.go:81: calling [(*github.com/guild&#45;framework/guild&#45;core/pkg/gerror.GuildError).WithOperation]&#10;at local.go:59: calling [github.com/guild&#45;framework/guild&#45;core/pkg/gerror.Wrapf]&#10;at local.go:52: calling [(*github.com/guild&#45;framework/guild&#45;core/pkg/gerror.GuildError).WithDetails]">
<path fill="lightblue" stroke="black" stroke-width="1.5" d="M423.45,-567C423.45,-567 329.91,-567 329.91,-567 323.91,-567 317.91,-561 317.91,-555 317.91,-555 317.91,-543 317.91,-543 317.91,-537 323.91,-531 329.91,-531 329.91,-531 423.45,-531 423.45,-531 429.45,-531 435.45,-537 435.45,-543 435.45,-543 435.45,-555 435.45,-555 435.45,-561 429.45,-567 423.45,-567"/>
<text xml:space="preserve" text-anchor="middle" x="376.68" y="-544.33" font-family="Verdana" font-size="14.00">InitializeLocal</text>
</a>
</g>
</g>
<!-- github.com/guild&#45;framework/guild&#45;core/pkg/project/local.EnsureLocalInitialized&#45;&gt;github.com/guild&#45;framework/guild&#45;core/pkg/project/local.InitializeLocal -->
<g id="edge4" class="edge">
<title>github.com/guild&#45;framework/guild&#45;core/pkg/project/local.EnsureLocalInitialized&#45;&gt;github.com/guild&#45;framework/guild&#45;core/pkg/project/local.InitializeLocal</title>
<g id="a_edge4"><a xlink:title="at local.go:217: calling [github.com/guild&#45;framework/guild&#45;core/pkg/project/local.InitializeLocal]">
<path fill="none" stroke="black" d="M123.44,-292.71C143.67,-338.25 201.63,-455.78 286.04,-519 292.38,-523.75 299.51,-527.77 306.92,-531.18"/>
<polygon fill="black" stroke="black" points="305.54,-534.39 316.12,-535 308.23,-527.93 305.54,-534.39"/>
</a>
</g>
</g>
<!-- github.com/guild&#45;framework/guild&#45;core/pkg/project/local.InitializeLocal&#45;&gt;github.com/guild&#45;framework/guild&#45;core/pkg/project/local.LocalGuildDir -->
<g id="edge6" class="edge">
<title>github.com/guild&#45;framework/guild&#45;core/pkg/project/local.InitializeLocal&#45;&gt;github.com/guild&#45;framework/guild&#45;core/pkg/project/local.LocalGuildDir</title>
<g id="a_edge6"><a xlink:title="at local.go:35: calling [github.com/guild&#45;framework/guild&#45;core/pkg/project/local.LocalGuildDir]">
<path fill="none" stroke="black" d="M436.15,-539.29C447.89,-534.85 459.12,-528.39 467.33,-519 492.71,-489.95 505.86,-206.06 532.33,-178 546.63,-162.85 567.15,-154.66 587.35,-150.35"/>
<polygon fill="black" stroke="black" points="587.79,-153.83 597.01,-148.61 586.55,-146.94 587.79,-153.83"/>
</a>
</g>
</g>
<!-- github.com/guild&#45;framework/guild&#45;core/pkg/project/local.createGitIgnore -->
<g id="node10" class="node">
<title>github.com/guild&#45;framework/guild&#45;core/pkg/project/local.createGitIgnore</title>
<g id="a_node10"><a xlink:title="github.com/guild&#45;framework/guild&#45;core/pkg/project/local.createGitIgnore | defined in local.go:147">
<path fill="lightblue" stroke="black" stroke-width="0.5" d="M710.74,-226C710.74,-226 602.2,-226 602.2,-226 596.2,-226 590.2,-220 590.2,-214 590.2,-214 590.2,-202 590.2,-202 590.2,-196 596.2,-190 602.2,-190 602.2,-190 710.74,-190 710.74,-190 716.74,-190 722.74,-196 722.74,-202 722.74,-202 722.74,-214 722.74,-214 722.74,-220 716.74,-226 710.74,-226"/>
<text xml:space="preserve" text-anchor="middle" x="656.47" y="-203.32" font-family="Verdana" font-size="14.00">createGitIgnore</text>
</a>
</g>
</g>
<!-- github.com/guild&#45;framework/guild&#45;core/pkg/project/local.InitializeLocal&#45;&gt;github.com/guild&#45;framework/guild&#45;core/pkg/project/local.createGitIgnore -->
<g id="edge3" class="edge">
<title>github.com/guild&#45;framework/guild&#45;core/pkg/project/local.InitializeLocal&#45;&gt;github.com/guild&#45;framework/guild&#45;core/pkg/project/local.createGitIgnore</title>
<g id="a_edge3"><a xlink:title="at local.go:78: calling [github.com/guild&#45;framework/guild&#45;core/pkg/project/local.createGitIgnore]">
<path fill="none" stroke="black" d="M435.8,-538.36C447.42,-533.97 458.69,-527.77 467.33,-519 505.32,-480.46 491.58,-455.59 504.33,-403 521.96,-330.29 481.15,-291.58 532.33,-237 544.65,-223.87 561.71,-216.17 579.2,-211.77"/>
<polygon fill="black" stroke="black" points="579.59,-215.27 588.64,-209.76 578.13,-208.43 579.59,-215.27"/>
</a>
</g>
</g>
<!-- github.com/guild&#45;framework/guild&#45;core/pkg/gerror.Wrap -->
<g id="node14" class="node">
<title>github.com/guild&#45;framework/guild&#45;core/pkg/gerror.Wrap</title>
<g id="a_node14"><a xlink:title="github.com/guild&#45;framework/guild&#45;core/pkg/gerror.Wrap | defined in errors.go:223">
<path fill="moccasin" stroke="black" stroke-width="1.5" d="M674.37,-348C674.37,-348 638.58,-348 638.58,-348 632.58,-348 626.58,-342 626.58,-336 626.58,-336 626.58,-324 626.58,-324 626.58,-318 632.58,-312 638.58,-312 638.58,-312 674.37,-312 674.37,-312 680.37,-312 686.37,-318 686.37,-324 686.37,-324 686.37,-336 686.37,-336 686.37,-342 680.37,-348 674.37,-348"/>
<text xml:space="preserve" text-anchor="middle" x="656.47" y="-325.32" font-family="Verdana" font-size="14.00">Wrap</text>
</a>
</g>
</g>
<!-- github.com/guild&#45;framework/guild&#45;core/pkg/project/local.InitializeLocal&#45;&gt;github.com/guild&#45;framework/guild&#45;core/pkg/gerror.Wrap -->
<g id="edge2" class="edge">
<title>github.com/guild&#45;framework/guild&#45;core/pkg/project/local.InitializeLocal&#45;&gt;github.com/guild&#45;framework/guild&#45;core/pkg/gerror.Wrap</title>
<g id="a_edge2"><a xlink:title="at local.go:49: calling [github.com/guild&#45;framework/guild&#45;core/pkg/gerror.Wrap]&#10;at local.go:68: calling [github.com/guild&#45;framework/guild&#45;core/pkg/gerror.Wrap]&#10;at local.go:79: calling [github.com/guild&#45;framework/guild&#45;core/pkg/gerror.Wrap]">
<path fill="none" stroke="saddlebrown" d="M435.78,-536.27C447.01,-532.03 458.13,-526.41 467.33,-519 492.33,-498.88 491.51,-486.42 504.33,-457 522.08,-416.26 500.32,-391.84 532.33,-361 554.11,-340.01 587.92,-332.62 614.6,-330.27"/>
<polygon fill="saddlebrown" stroke="saddlebrown" points="614.66,-333.78 624.41,-329.63 614.2,-326.79 614.66,-333.78"/>
</a>
</g>
</g>
<!-- (*github.com/guild&#45;framework/guild&#45;core/pkg/gerror.GuildError).WithComponent -->
<g id="node15" class="node">
<title>(*github.com/guild&#45;framework/guild&#45;core/pkg/gerror.GuildError).WithComponent</title>
<g id="a_node15"><a xlink:title="(*github.com/guild&#45;framework/guild&#45;core/pkg/gerror.GuildError).WithComponent | defined in errors.go:156">
<path fill="moccasin" stroke="black" stroke-width="1.5" d="M760.62,-409C760.62,-409 552.33,-409 552.33,-409 546.33,-409 540.33,-403 540.33,-397 540.33,-397 540.33,-385 540.33,-385 540.33,-379 546.33,-373 552.33,-373 552.33,-373 760.62,-373 760.62,-373 766.62,-373 772.62,-379 772.62,-385 772.62,-385 772.62,-397 772.62,-397 772.62,-403 766.62,-409 760.62,-409"/>
<text xml:space="preserve" text-anchor="middle" x="656.47" y="-386.32" font-family="Verdana" font-size="14.00">(*GuildError).WithComponent</text>
</a>
</g>
</g>
<!-- github.com/guild&#45;framework/guild&#45;core/pkg/project/local.InitializeLocal&#45;&gt;(*github.com/guild&#45;framework/guild&#45;core/pkg/gerror.GuildError).WithComponent -->
<g id="edge7" class="edge">
<title>github.com/guild&#45;framework/guild&#45;core/pkg/project/local.InitializeLocal&#45;&gt;(*github.com/guild&#45;framework/guild&#45;core/pkg/gerror.GuildError).WithComponent</title>
<g id="a_edge7"><a xlink:title="at local.go:50: calling [(*github.com/guild&#45;framework/guild&#45;core/pkg/gerror.GuildError).WithComponent]&#10;at local.go:60: calling [(*github.com/guild&#45;framework/guild&#45;core/pkg/gerror.GuildError).WithComponent]&#10;at local.go:69: calling [(*github.com/guild&#45;framework/guild&#45;core/pkg/gerror.GuildError).WithComponent]&#10;at local.go:80: calling [(*github.com/guild&#45;framework/guild&#45;core/pkg/gerror.GuildError).WithComponent]">
<path fill="none" stroke="saddlebrown" d="M435.76,-533.69C446.63,-529.69 457.62,-524.82 467.33,-519 486.74,-507.36 491.2,-502.44 504.33,-484 521.87,-459.37 509.14,-441.4 532.33,-422 535.2,-419.6 538.24,-417.37 541.4,-415.32"/>
<polygon fill="saddlebrown" stroke="saddlebrown" points="543.01,-418.43 549.93,-410.41 539.52,-412.37 543.01,-418.43"/>
</a>
</g>
</g>
<!-- (*github.com/guild&#45;framework/guild&#45;core/pkg/gerror.GuildError).WithOperation -->
<g id="node16" class="node">
<title>(*github.com/guild&#45;framework/guild&#45;core/pkg/gerror.GuildError).WithOperation</title>
<g id="a_node16"><a xlink:title="(*github.com/guild&#45;framework/guild&#45;core/pkg/gerror.GuildError).WithOperation | defined in errors.go:162">
<path fill="moccasin" stroke="black" stroke-width="1.5" d="M754.99,-470C754.99,-470 557.95,-470 557.95,-470 551.95,-470 545.95,-464 545.95,-458 545.95,-458 545.95,-446 545.95,-446 545.95,-440 551.95,-434 557.95,-434 557.95,-434 754.99,-434 754.99,-434 760.99,-434 766.99,-440 766.99,-446 766.99,-446 766.99,-458 766.99,-458 766.99,-464 760.99,-470 754.99,-470"/>
<text xml:space="preserve" text-anchor="middle" x="656.47" y="-447.32" font-family="Verdana" font-size="14.00">(*GuildError).WithOperation</text>
</a>
</g>
</g>
<!-- github.com/guild&#45;framework/guild&#45;core/pkg/project/local.InitializeLocal&#45;&gt;(*github.com/guild&#45;framework/guild&#45;core/pkg/gerror.GuildError).WithOperation -->
<g id="edge8" class="edge">
<title>github.com/guild&#45;framework/guild&#45;core/pkg/project/local.InitializeLocal&#45;&gt;(*github.com/guild&#45;framework/guild&#45;core/pkg/gerror.GuildError).WithOperation</title>
<g id="a_edge8"><a xlink:title="at local.go:51: calling [(*github.com/guild&#45;framework/guild&#45;core/pkg/gerror.GuildError).WithOperation]&#10;at local.go:61: calling [(*github.com/guild&#45;framework/guild&#45;core/pkg/gerror.GuildError).WithOperation]&#10;at local.go:70: calling [(*github.com/guild&#45;framework/guild&#45;core/pkg/gerror.GuildError).WithOperation]&#10;at local.go:81: calling [(*github.com/guild&#45;framework/guild&#45;core/pkg/gerror.GuildError).WithOperation]">
<path fill="none" stroke="saddlebrown" d="M435.97,-537.92C458.38,-532.06 483.54,-523.42 504.33,-511 519.44,-501.98 517.02,-491.68 532.33,-483 537.6,-480.01 543.16,-477.3 548.89,-474.85"/>
<polygon fill="saddlebrown" stroke="saddlebrown" points="549.93,-478.21 557.94,-471.28 547.36,-471.7 549.93,-478.21"/>
</a>
</g>
</g>
<!-- (*github.com/guild&#45;framework/guild&#45;core/pkg/gerror.GuildError).WithDetails -->
<g id="node17" class="node">
<title>(*github.com/guild&#45;framework/guild&#45;core/pkg/gerror.GuildError).WithDetails</title>
<g id="a_node17"><a xlink:title="(*github.com/guild&#45;framework/guild&#45;core/pkg/gerror.GuildError).WithDetails | defined in errors.go:147">
<path fill="moccasin" stroke="black" stroke-width="1.5" d="M744.12,-531C744.12,-531 568.83,-531 568.83,-531 562.83,-531 556.83,-525 556.83,-519 556.83,-519 556.83,-507 556.83,-507 556.83,-501 562.83,-495 568.83,-495 568.83,-495 744.12,-495 744.12,-495 750.12,-495 756.12,-501 756.12,-507 756.12,-507 756.12,-519 756.12,-519 756.12,-525 750.12,-531 744.12,-531"/>
<text xml:space="preserve" text-anchor="middle" x="656.47" y="-508.32" font-family="Verdana" font-size="14.00">(*GuildError).WithDetails</text>
</a>
</g>
</g>
<!-- github.com/guild&#45;framework/guild&#45;core/pkg/project/local.InitializeLocal&#45;&gt;(*github.com/guild&#45;framework/guild&#45;core/pkg/gerror.GuildError).WithDetails -->
<g id="edge17" class="edge">
<title>github.com/guild&#45;framework/guild&#45;core/pkg/project/local.InitializeLocal&#45;&gt;(*github.com/guild&#45;framework/guild&#45;core/pkg/gerror.GuildError).WithDetails</title>
<g id="a_edge17"><a xlink:title="at local.go:52: calling [(*github.com/guild&#45;framework/guild&#45;core/pkg/gerror.GuildError).WithDetails]">
<path fill="none" stroke="saddlebrown" d="M436.11,-544.87C457.59,-543.11 482.1,-540.8 504.33,-538 517.66,-536.32 531.61,-534.33 545.42,-532.22"/>
<polygon fill="saddlebrown" stroke="saddlebrown" points="545.61,-535.73 554.95,-530.74 544.53,-528.82 545.61,-535.73"/>
</a>
</g>
</g>
<!-- github.com/guild&#45;framework/guild&#45;core/pkg/gerror.Wrapf -->
<g id="node18" class="node">
<title>github.com/guild&#45;framework/guild&#45;core/pkg/gerror.Wrapf</title>
<g id="a_node18"><a xlink:title="github.com/guild&#45;framework/guild&#45;core/pkg/gerror.Wrapf | defined in errors.go:245">
<path fill="moccasin" stroke="black" stroke-width="1.5" d="M676.99,-287C676.99,-287 635.95,-287 635.95,-287 629.95,-287 623.95,-281 623.95,-275 623.95,-275 623.95,-263 623.95,-263 623.95,-257 629.95,-251 635.95,-251 635.95,-251 676.99,-251 676.99,-251 682.99,-251 688.99,-257 688.99,-263 688.99,-263 688.99,-275 688.99,-275 688.99,-281 682.99,-287 676.99,-287"/>
<text xml:space="preserve" text-anchor="middle" x="656.47" y="-264.32" font-family="Verdana" font-size="14.00">Wrapf</text>
</a>
</g>
</g>
<!-- github.com/guild&#45;framework/guild&#45;core/pkg/project/local.InitializeLocal&#45;&gt;github.com/guild&#45;framework/guild&#45;core/pkg/gerror.Wrapf -->
<g id="edge12" class="edge">
<title>github.com/guild&#45;framework/guild&#45;core/pkg/project/local.InitializeLocal&#45;&gt;github.com/guild&#45;framework/guild&#45;core/pkg/gerror.Wrapf</title>
<g id="a_edge12"><a xlink:title="at local.go:59: calling [github.com/guild&#45;framework/guild&#45;core/pkg/gerror.Wrapf]">
<path fill="none" stroke="saddlebrown" d="M436.18,-537.44C447.51,-533.11 458.56,-527.17 467.33,-519 498.68,-489.8 491.55,-470.89 504.33,-430 521.97,-373.59 491.26,-342.51 532.33,-300 552.81,-278.8 585.49,-271.29 612.04,-268.95"/>
<polygon fill="saddlebrown" stroke="saddlebrown" points="612.1,-272.45 621.86,-268.32 611.65,-265.47 612.1,-272.45"/>
</a>
</g>
</g>
<!-- github.com/guild&#45;framework/guild&#45;core/pkg/project/local.LocalCommissionsPath -->
<g id="node11" class="node">
<title>github.com/guild&#45;framework/guild&#45;core/pkg/project/local.LocalCommissionsPath</title>
<g id="a_node11"><a xlink:title="github.com/guild&#45;framework/guild&#45;core/pkg/project/local.LocalCommissionsPath | defined in local.go:192&#10;at local.go:193: calling [github.com/guild&#45;framework/guild&#45;core/pkg/project/local.LocalGuildDir]">
<path fill="lightblue" stroke="black" stroke-width="1.5" d="M455.33,-384C455.33,-384 298.04,-384 298.04,-384 292.04,-384 286.04,-378 286.04,-372 286.04,-372 286.04,-360 286.04,-360 286.04,-354 292.04,-348 298.04,-348 298.04,-348 455.33,-348 455.33,-348 461.33,-348 467.33,-354 467.33,-360 467.33,-360 467.33,-372 467.33,-372 467.33,-378 461.33,-384 455.33,-384"/>
<text xml:space="preserve" text-anchor="middle" x="376.68" y="-361.32" font-family="Verdana" font-size="14.00">LocalCommissionsPath</text>
</a>
</g>
</g>
<!-- github.com/guild&#45;framework/guild&#45;core/pkg/project/local.LocalCommissionsPath&#45;&gt;github.com/guild&#45;framework/guild&#45;core/pkg/project/local.LocalGuildDir -->
<g id="edge1" class="edge">
<title>github.com/guild&#45;framework/guild&#45;core/pkg/project/local.LocalCommissionsPath&#45;&gt;github.com/guild&#45;framework/guild&#45;core/pkg/project/local.LocalGuildDir</title>
<g id="a_edge1"><a xlink:title="at local.go:193: calling [github.com/guild&#45;framework/guild&#45;core/pkg/project/local.LocalGuildDir]">
<path fill="none" stroke="black" d="M449.14,-347.4C455.63,-344.18 461.82,-340.41 467.33,-336 492.1,-316.2 491.6,-304.04 504.33,-275 522.34,-233.9 500.06,-209.18 532.33,-178 547.11,-163.72 567.46,-155.73 587.35,-151.34"/>
<polygon fill="black" stroke="black" points="587.98,-154.78 597.16,-149.49 586.68,-147.91 587.98,-154.78"/>
</a>
</g>
</g>
<!-- github.com/guild&#45;framework/guild&#45;core/pkg/project/local.LocalConfigPath -->
<g id="node12" class="node">
<title>github.com/guild&#45;framework/guild&#45;core/pkg/project/local.LocalConfigPath</title>
<g id="a_node12"><a xlink:title="github.com/guild&#45;framework/guild&#45;core/pkg/project/local.LocalConfigPath | defined in local.go:177&#10;at local.go:178: calling [github.com/guild&#45;framework/guild&#45;core/pkg/project/local.LocalGuildDir]">
<path fill="lightblue" stroke="black" stroke-width="1.5" d="M431.7,-445C431.7,-445 321.66,-445 321.66,-445 315.66,-445 309.66,-439 309.66,-433 309.66,-433 309.66,-421 309.66,-421 309.66,-415 315.66,-409 321.66,-409 321.66,-409 431.7,-409 431.7,-409 437.7,-409 443.7,-415 443.7,-421 443.7,-421 443.7,-433 443.7,-433 443.7,-439 437.7,-445 431.7,-445"/>
<text xml:space="preserve" text-anchor="middle" x="376.68" y="-422.32" font-family="Verdana" font-size="14.00">LocalConfigPath</text>
</a>
</g>
</g>
<!-- github.com/guild&#45;framework/guild&#45;core/pkg/project/local.LocalConfigPath&#45;&gt;github.com/guild&#45;framework/guild&#45;core/pkg/project/local.LocalGuildDir -->
<g id="edge9" class="edge">
<title>github.com/guild&#45;framework/guild&#45;core/pkg/project/local.LocalConfigPath&#45;&gt;github.com/guild&#45;framework/guild&#45;core/pkg/project/local.LocalGuildDir</title>
<g id="a_edge9"><a xlink:title="at local.go:178: calling [github.com/guild&#45;framework/guild&#45;core/pkg/project/local.LocalGuildDir]">
<path fill="none" stroke="black" d="M444.04,-412.85C452.65,-408.82 460.75,-403.64 467.33,-397 504.82,-359.16 489.24,-334.09 504.33,-283 518.01,-236.68 497.94,-211.91 532.33,-178 546.96,-163.57 567.27,-155.54 587.18,-151.16"/>
<polygon fill="black" stroke="black" points="587.81,-154.6 596.99,-149.31 586.52,-147.72 587.81,-154.6"/>
</a>
</g>
</g>
<!-- github.com/guild&#45;framework/guild&#45;core/pkg/project/local.LocalDatabasePath -->
<g id="node13" class="node">
<title>github.com/guild&#45;framework/guild&#45;core/pkg/project/local.LocalDatabasePath</title>
<g id="a_node13"><a xlink:title="github.com/guild&#45;framework/guild&#45;core/pkg/project/local.LocalDatabasePath | defined in local.go:182&#10;at local.go:183: calling [github.com/guild&#45;framework/guild&#45;core/pkg/project/local.LocalGuildDir]">
<path fill="lightblue" stroke="black" stroke-width="1.5" d="M441.83,-506C441.83,-506 311.54,-506 311.54,-506 305.54,-506 299.54,-500 299.54,-494 299.54,-494 299.54,-482 299.54,-482 299.54,-476 305.54,-470 311.54,-470 311.54,-470 441.83,-470 441.83,-470 447.83,-470 453.83,-476 453.83,-482 453.83,-482 453.83,-494 453.83,-494 453.83,-500 447.83,-506 441.83,-506"/>
<text xml:space="preserve" text-anchor="middle" x="376.68" y="-483.32" font-family="Verdana" font-size="14.00">LocalDatabasePath</text>
</a>
</g>
</g>
<!-- github.com/guild&#45;framework/guild&#45;core/pkg/project/local.LocalDatabasePath&#45;&gt;github.com/guild&#45;framework/guild&#45;core/pkg/project/local.LocalGuildDir -->
<g id="edge5" class="edge">
<title>github.com/guild&#45;framework/guild&#45;core/pkg/project/local.LocalDatabasePath&#45;&gt;github.com/guild&#45;framework/guild&#45;core/pkg/project/local.LocalGuildDir</title>
<g id="a_edge5"><a xlink:title="at local.go:183: calling [github.com/guild&#45;framework/guild&#45;core/pkg/project/local.LocalGuildDir]">
<path fill="none" stroke="black" d="M453.7,-469.3C458.73,-466.11 463.35,-462.37 467.33,-458 478.07,-446.19 521.14,-189.4 532.33,-178 546.86,-163.2 567.34,-155.09 587.44,-150.75"/>
<polygon fill="black" stroke="black" points="587.83,-154.24 597.03,-148.99 586.57,-147.35 587.83,-154.24"/>
</a>
</g>
</g>
</g>
</svg>
